<svg width="60" height="60" viewBox="0 0 60 60" fill="none" xmlns="http://www.w3.org/2000/svg"> <rect x="0.46875" y="0.46875" width="59.0625" height="59.0625" rx="18.2812" stroke="#CC63D2" stroke-width="0.9375"/> <rect x="3" y="3" width="54" height="54" rx="18.75" fill="#CC63D2"/> <path d="M45.8048 42.7655C45.3088 42.3733 44.559 41.0814 43.8554 38.5091C45.3747 36.6469 46.348 34.4001 46.6673 32.0181C46.9867 29.6361 46.6395 27.2122 45.6643 25.0157C44.6891 22.8191 43.1241 20.9359 41.1432 19.5751C39.1622 18.2144 36.8428 17.4294 34.4426 17.3073C32.2691 15.7882 29.6772 14.982 27.0255 15.0003C24.5662 14.9999 22.1571 15.6958 20.0769 17.0075C17.9966 18.3193 16.3303 20.1932 15.2708 22.4125C14.2112 24.6318 13.8017 27.1058 14.0896 29.5482C14.3775 31.9905 15.351 34.3014 16.8976 36.2135C16.5949 37.7635 15.9266 39.2189 14.9481 40.4585C14.8055 40.5478 14.6821 40.6645 14.585 40.8019C14.4879 40.9393 14.4191 41.0946 14.3826 41.2589C14.3461 41.4231 14.3427 41.5929 14.3724 41.7585C14.4022 41.9241 14.4646 42.0821 14.556 42.2234C14.6965 42.3873 14.8753 42.5141 15.0765 42.5926C15.2776 42.671 15.495 42.6987 15.7095 42.6733C17.682 42.6848 21.1426 40.9084 22.4806 40.2163C23.7087 40.6735 25.0011 40.9343 26.3103 40.9891C28.4874 42.5099 31.0834 43.3161 33.739 43.2962C35.2861 43.2982 36.8211 43.0247 38.2723 42.4887C39.5989 43.2154 43.0594 44.9918 45.032 44.9918C45.2474 45.0159 45.4654 44.9864 45.6666 44.9059C45.8679 44.8254 46.0461 44.6964 46.1855 44.5304C46.2774 44.3899 46.3405 44.2325 46.3711 44.0673C46.4017 43.9022 46.3993 43.7326 46.3639 43.5685C46.3284 43.4043 46.2608 43.2488 46.1648 43.111C46.0689 42.9731 45.9465 42.8557 45.8048 42.7655ZM22.2961 37.667L21.8001 37.9438C20.6115 38.6027 19.378 39.177 18.1088 39.6626C18.5935 38.5449 18.9794 37.387 19.2623 36.202L19.4007 35.6137L18.997 35.1638C17.6116 33.6209 16.7041 31.7088 16.3848 29.6599C16.0655 27.611 16.3483 25.5134 17.1986 23.6222C18.049 21.7309 19.4303 20.1273 21.1748 19.0063C22.9193 17.8852 24.9519 17.295 27.0255 17.3073C29.3124 17.2982 31.5399 18.0353 33.3699 19.4068C35.1816 20.7432 36.5253 22.6173 37.2095 24.7621C37.8937 26.9069 37.8836 29.2129 37.1805 31.3516C36.4774 33.4902 35.1173 35.3524 33.2938 36.6728C31.4704 37.9932 29.2768 38.7045 27.0255 38.7051H26.8179L24.903 38.4975C24.2024 38.3623 23.5181 38.1535 22.8613 37.8746L22.2961 37.667Z" fill="white"/> <path d="M34.0385 27.6891C34.0385 27.4933 33.9607 27.3055 33.8223 27.1671C33.6838 27.0286 33.496 26.9509 33.3003 26.9509H20.0924C19.914 26.9733 19.7499 27.0601 19.6309 27.195C19.5119 27.3298 19.4463 27.5035 19.4463 27.6833C19.4463 27.8632 19.5119 28.0368 19.6309 28.1717C19.7499 28.3066 19.914 28.3934 20.0924 28.4158H33.3118C33.5036 28.4129 33.6867 28.3353 33.8224 28.1997C33.958 28.064 34.0355 27.8809 34.0385 27.6891ZM23.7606 25.7627H29.6321C29.8105 25.7403 29.9746 25.6535 30.0936 25.5186C30.2126 25.3838 30.2782 25.2101 30.2782 25.0302C30.2782 24.8504 30.2126 24.6767 30.0936 24.5419C29.9746 24.407 29.8105 24.3202 29.6321 24.2978H23.7606C23.6567 24.2847 23.5512 24.2939 23.4511 24.3247C23.3511 24.3556 23.2587 24.4073 23.1802 24.4766C23.1016 24.5459 23.0387 24.6311 22.9956 24.7265C22.9526 24.822 22.9303 24.9255 22.9303 25.0302C22.9303 25.135 22.9526 25.2385 22.9956 25.3339C23.0387 25.4294 23.1016 25.5146 23.1802 25.5839C23.2587 25.6532 23.3511 25.7049 23.4511 25.7358C23.5512 25.7666 23.6567 25.7758 23.7606 25.7627ZM29.6321 29.7078H23.7606C23.6567 29.6947 23.5512 29.7039 23.4511 29.7347C23.3511 29.7656 23.2587 29.8173 23.1802 29.8866C23.1016 29.9559 23.0387 30.0411 22.9956 30.1366C22.9526 30.232 22.9303 30.3355 22.9303 30.4403C22.9303 30.545 22.9526 30.6485 22.9956 30.744C23.0387 30.8394 23.1016 30.9246 23.1802 30.9939C23.2587 31.0632 23.3511 31.1149 23.4511 31.1458C23.5512 31.1766 23.6567 31.1858 23.7606 31.1727H29.6321C29.8105 31.1503 29.9746 31.0635 30.0936 30.9286C30.2126 30.7938 30.2782 30.6201 30.2782 30.4403C30.2782 30.2604 30.2126 30.0867 30.0936 29.9519C29.9746 29.817 29.8105 29.7302 29.6321 29.7078Z" fill="white"/> </svg>