<svg width="60" height="60" viewBox="0 0 60 60" fill="none" xmlns="http://www.w3.org/2000/svg"> <rect x="0.46875" y="0.46875" width="59.0625" height="59.0625" rx="18.2812" stroke="#CC63D4" stroke-width="0.9375"/> <rect x="3" y="3" width="54" height="54" rx="18.75" fill="#CC63D4"/> <g clip-path="url(#clip0_654_3673)"> <path fill-rule="evenodd" clip-rule="evenodd" d="M20.3066 18.4642H22.927V17.9044C22.927 17.169 23.514 16.5679 24.2322 16.5679H26.6872C26.786 15.6858 27.5183 15 28.4059 15C29.2935 15 30.0258 15.6858 30.1246 16.5679H32.5797C33.2978 16.5679 33.8848 17.169 33.8848 17.9044V18.4642H36.5053C37.7358 18.4642 38.7444 19.4949 38.7444 20.7571V32.7236C38.3955 32.6637 38.0384 32.6307 37.6733 32.6307C37.3646 32.6307 37.0641 32.6534 36.7675 32.6968V20.7571C36.7675 20.6083 36.6505 20.4865 36.5053 20.4865H33.8788C33.8183 21.164 33.2575 21.7011 32.5797 21.7011H24.2322C23.5544 21.7011 22.9936 21.164 22.933 20.4865H20.3066C20.1613 20.4865 20.0423 20.6083 20.0423 20.7571V40.0052C20.0423 40.1539 20.1613 40.2758 20.3066 40.2758H31.3572C31.4399 40.7881 31.5851 41.29 31.7848 41.7713L31.4923 42.2981H20.3066C19.076 42.2981 18.0674 41.2673 18.0674 40.0052V20.7571C18.0674 19.4949 19.076 18.4642 20.3066 18.4642ZM37.6733 33.804C40.5781 33.804 42.9323 36.2146 42.9323 39.1892C42.9323 42.1638 40.5781 44.5745 37.6733 44.5745C36.4326 44.5745 35.2949 44.1345 34.3952 43.4012L31.682 44.9773C31.6154 45.0145 31.5347 45.0041 31.4823 44.9484C31.4278 44.8926 31.4157 44.812 31.454 44.7439L33.0779 41.8106C32.6543 41.0359 32.4142 40.1415 32.4142 39.1892C32.4142 36.2146 34.7684 33.804 37.6733 33.804ZM34.8128 38.2741C35.307 38.2741 35.7064 38.6831 35.7064 39.1892C35.7064 39.6932 35.307 40.1023 34.8128 40.1023C34.3206 40.1023 33.9211 39.6932 33.9211 39.1892C33.9211 38.6831 34.3206 38.2741 34.8128 38.2741ZM40.5317 38.2741C41.026 38.2741 41.4254 38.6831 41.4254 39.1892C41.4254 39.6932 41.026 40.1023 40.5317 40.1023C40.0395 40.1023 39.6401 39.6932 39.6401 39.1892C39.6401 38.6831 40.0395 38.2741 40.5317 38.2741ZM37.6733 38.2741C38.1655 38.2741 38.5649 38.6831 38.5649 39.1892C38.5649 39.6932 38.1655 40.1023 37.6733 40.1023C37.179 40.1023 36.7796 39.6932 36.7796 39.1892C36.7796 38.6831 37.179 38.2741 37.6733 38.2741ZM21.2204 34.6819H23.9578C24.1737 34.6819 24.3492 34.8616 24.3492 35.0826V37.6048C24.3492 37.8238 24.1737 38.0035 23.9578 38.0035H21.2204C21.0045 38.0035 20.829 37.8238 20.829 37.6048V35.0826C20.829 34.8616 21.0045 34.6819 21.2204 34.6819ZM21.1841 36.1113L21.1982 36.0969C21.2849 36.0081 21.4282 36.0081 21.5149 36.0969L22.1927 36.791L23.6451 35.3057C23.7379 35.2086 23.8913 35.2086 23.984 35.3057C24.0768 35.4007 24.0768 35.5557 23.984 35.6528L22.2371 37.4416C22.229 37.4478 22.2189 37.452 22.2088 37.4499V37.452C22.2068 37.454 22.2028 37.454 22.2028 37.452L22.1927 37.4416H22.1907L21.8982 37.1401H21.8962L21.1841 36.4109C21.1034 36.3282 21.1034 36.194 21.1841 36.1113ZM21.2567 29.0157H23.9962C24.212 29.0157 24.3875 29.1975 24.3875 29.4164V31.9386C24.3875 32.1597 24.212 32.3394 23.9962 32.3394H21.2567C21.0429 32.3394 20.8674 32.1597 20.8674 31.9386V29.4164C20.8674 29.1975 21.0429 29.0157 21.2567 29.0157ZM21.2224 30.4452L21.2345 30.4328C21.3233 30.3419 21.4665 30.3419 21.5532 30.4328L22.231 31.1268L23.6835 29.6395C23.7763 29.5445 23.9276 29.5445 24.0224 29.6395C24.1152 29.7346 24.1152 29.8916 24.0224 29.9866L22.2754 31.7755C22.2673 31.7837 22.2573 31.7858 22.2472 31.7837L22.2452 31.7858C22.2452 31.7879 22.2411 31.7879 22.2411 31.7858L22.229 31.7755L21.9365 31.4739L21.2224 30.7447C21.1417 30.6621 21.1417 30.5278 21.2224 30.4452ZM26.0255 35.6156H32.3033C32.0168 36.0659 31.7828 36.5534 31.6114 37.0719H26.0255C25.6342 37.0719 25.3154 36.7434 25.3154 36.3427C25.3154 35.942 25.6342 35.6156 26.0255 35.6156ZM26.0255 29.9494H34.7422C35.1335 29.9494 35.4523 30.2778 35.4523 30.6786C35.4523 31.0773 35.1335 31.4057 34.7422 31.4057H26.0255C25.6342 31.4057 25.3154 31.0773 25.3154 30.6786C25.3154 30.2778 25.6342 29.9494 26.0255 29.9494ZM26.0255 24.4856H34.7422C35.1335 24.4856 35.4523 24.8141 35.4523 25.2148C35.4523 25.6156 35.1335 25.942 34.7422 25.942H26.0255C25.6342 25.942 25.3154 25.6156 25.3154 25.2148C25.3154 24.8141 25.6342 24.4856 26.0255 24.4856ZM21.3475 23.554H24.0869C24.3028 23.554 24.4783 23.7337 24.4783 23.9527V26.4749C24.4783 26.6959 24.3028 26.8756 24.0869 26.8756H21.3475C21.1336 26.8756 20.9561 26.6959 20.9561 26.4749V23.9527C20.9561 23.7337 21.1336 23.554 21.3475 23.554ZM21.3132 24.9814L21.3253 24.969C21.414 24.8802 21.5553 24.8802 21.644 24.969L22.3218 25.6631L23.7722 24.1758C23.867 24.0808 24.0183 24.0808 24.1111 24.1758C24.2059 24.2708 24.2059 24.4278 24.1132 24.5228L22.3642 26.3117C22.3581 26.32 22.348 26.322 22.338 26.322L22.3359 26.3241C22.3339 26.3241 22.3319 26.3241 22.3299 26.3241L22.3198 26.3138V26.3117L22.0253 26.0122L21.3132 25.2809C21.2325 25.1983 21.2325 25.064 21.3132 24.9814ZM28.4059 15.6073C29.0333 15.6073 29.5437 16.1279 29.5437 16.7724C29.5437 17.4148 29.0333 17.9353 28.4059 17.9353C27.7785 17.9353 27.2682 17.4148 27.2682 16.7724C27.2682 16.1279 27.7785 15.6073 28.4059 15.6073Z" fill="white"/> </g> <defs> <clipPath id="clip0_654_3673"> <rect width="25" height="30" fill="white" transform="translate(18 15)"/> </clipPath> </defs> </svg>