<svg width="60" height="60" viewBox="0 0 60 60" fill="none" xmlns="http://www.w3.org/2000/svg"> <rect x="0.46875" y="0.46875" width="59.0625" height="59.0625" rx="18.2812" stroke="#5ABE86" stroke-width="0.9375"/> <rect x="3" y="3" width="54" height="54" rx="18.75" fill="#5ABE86"/> <path d="M29.8416 23.6346L30.1891 23.2871L29.1614 22.1211C28.9057 22.2924 28.7442 22.5069 28.6902 22.7668C28.6158 23.1271 28.7594 23.5021 28.8918 23.634C29.1461 23.8895 29.5873 23.8889 29.8416 23.6346Z" fill="white"/> <path d="M40.425 15H19.575C19.245 15 18.975 15.27 18.975 15.6V44.4C18.975 44.73 19.245 45 19.575 45H40.425C40.755 45 41.025 44.73 41.025 44.4V15.6C41.025 15.27 40.755 15 40.425 15ZM36.2559 18.4313C36.8412 18.4313 37.4055 18.6311 37.8883 19.0096C38.1496 19.2141 38.1953 19.5908 37.9908 19.8516C37.7863 20.1129 37.4096 20.1586 37.1488 19.9541C36.8787 19.7432 36.5699 19.6313 36.2559 19.6313C35.3254 19.6313 34.5684 20.5734 34.5684 21.7313C34.5684 22.8891 35.3254 23.8313 36.2559 23.8313C36.5699 23.8313 36.8787 23.7193 37.1488 23.5084C37.4096 23.3039 37.7863 23.3502 37.9908 23.6109C38.1953 23.8717 38.1496 24.2484 37.8883 24.4529C37.4055 24.8314 36.8412 25.0312 36.2559 25.0312C34.6639 25.0312 33.3684 23.5506 33.3684 21.7313C33.3684 19.9119 34.6639 18.4313 36.2559 18.4313ZM27.5154 22.5229C27.6237 22.0014 27.9201 21.5561 28.3651 21.2173L28.0697 20.8822C27.5342 20.24 27.6197 19.3008 28.249 18.7758C28.8795 18.2514 29.8188 18.3363 30.3438 18.9662L30.4399 19.0822C30.652 19.3365 30.6174 19.715 30.3625 19.9271C30.1076 20.1393 29.7297 20.1035 29.5176 19.8498L29.4215 19.7344C29.3207 19.6125 29.1391 19.5973 29.0172 19.698C28.8959 19.7988 28.8795 19.9799 28.9809 20.1012L31.0392 22.4368L31.4506 22.0254C31.685 21.791 32.0647 21.791 32.299 22.0254C32.5334 22.2598 32.5334 22.6395 32.299 22.8738L31.8341 23.3388L32.4473 24.0346C32.6664 24.283 32.6424 24.6621 32.394 24.8813C32.2797 24.982 32.1385 25.0312 31.9973 25.0312C31.8315 25.0312 31.6656 24.9627 31.5473 24.8279L30.984 24.1889L30.6901 24.4828C30.3367 24.8367 29.8662 25.0312 29.3664 25.0312C28.8666 25.0312 28.3967 24.8361 28.0428 24.4828C27.6707 24.1107 27.3467 23.3385 27.5154 22.5229ZM23.0488 41.3941C22.9352 41.5078 22.7787 41.5682 22.6229 41.5682C22.467 41.5682 22.3112 41.502 22.1969 41.3941C22.0891 41.2799 22.0229 41.124 22.0229 40.9682C22.0229 40.8117 22.0891 40.6559 22.1969 40.5416C22.419 40.3201 22.8209 40.3201 23.0488 40.5416C23.1567 40.6559 23.2229 40.8117 23.2229 40.9682C23.2229 41.1299 23.1567 41.2799 23.0488 41.3941ZM23.0488 37.5416C22.9352 37.6559 22.7787 37.7156 22.6229 37.7156C22.4612 37.7156 22.3112 37.6559 22.1969 37.5416C22.0891 37.4338 22.0229 37.2779 22.0229 37.1156C22.0229 36.9598 22.0891 36.8039 22.1969 36.6961C22.419 36.474 22.8268 36.474 23.0488 36.6961C23.1567 36.8098 23.2229 36.9598 23.2229 37.1156C23.2229 37.2721 23.1567 37.4279 23.0488 37.5416ZM23.0488 33.6896C22.9352 33.8039 22.7787 33.8701 22.6229 33.8701C22.467 33.8701 22.3112 33.8039 22.1969 33.6961C22.0891 33.5818 22.0229 33.426 22.0229 33.2701C22.0229 33.1078 22.0891 32.952 22.1969 32.8441C22.4248 32.6221 22.8268 32.6221 23.0488 32.8441C23.1567 32.9578 23.2229 33.1137 23.2229 33.2701C23.2229 33.426 23.1567 33.5818 23.0488 33.6896ZM23.0488 29.8441C22.9352 29.9578 22.7787 30.0182 22.6229 30.0182C22.467 30.0182 22.3112 29.9578 22.1969 29.8441C22.0891 29.7299 22.0229 29.574 22.0229 29.4182C22.0229 29.2617 22.0826 29.1059 22.1969 28.9916C22.419 28.7701 22.8268 28.7701 23.0488 28.9916C23.1567 29.1059 23.2229 29.2617 23.2229 29.4182C23.2229 29.574 23.1567 29.7299 23.0488 29.8441ZM24.9233 24.4313C24.9233 24.7629 24.6549 25.0312 24.3233 25.0312C23.9916 25.0312 23.7233 24.7629 23.7233 24.4313V19.6313H22.2778C21.9461 19.6313 21.6778 19.3629 21.6778 19.0312C21.6778 18.6996 21.9461 18.4313 22.2778 18.4313H26.3688C26.7004 18.4313 26.9688 18.6996 26.9688 19.0312C26.9688 19.3629 26.7004 19.6313 26.3688 19.6313H24.9233V24.4313ZM37.7231 41.5688H25.9229C25.5912 41.5688 25.3229 41.3004 25.3229 40.9688C25.3229 40.6371 25.5912 40.3688 25.9229 40.3688H37.7231C38.0547 40.3688 38.3231 40.6371 38.3231 40.9688C38.3231 41.3004 38.0547 41.5688 37.7231 41.5688ZM37.7231 37.7186H25.9229C25.5912 37.7186 25.3229 37.4502 25.3229 37.1186C25.3229 36.7869 25.5912 36.5186 25.9229 36.5186H37.7231C38.0547 36.5186 38.3231 36.7869 38.3231 37.1186C38.3231 37.4502 38.0547 37.7186 37.7231 37.7186ZM37.7231 33.8689H25.9229C25.5912 33.8689 25.3229 33.6006 25.3229 33.2689C25.3229 32.9373 25.5912 32.6689 25.9229 32.6689H37.7231C38.0547 32.6689 38.3231 32.9373 38.3231 33.2689C38.3231 33.6006 38.0547 33.8689 37.7231 33.8689ZM37.7231 30.0188H25.9229C25.5912 30.0188 25.3229 29.7504 25.3229 29.4188C25.3229 29.0871 25.5912 28.8188 25.9229 28.8188H37.7231C38.0547 28.8188 38.3231 29.0871 38.3231 29.4188C38.3231 29.7504 38.0547 30.0188 37.7231 30.0188Z" fill="white"/> </svg>