<svg width="60" height="60" viewBox="0 0 60 60" fill="none" xmlns="http://www.w3.org/2000/svg"> <rect x="0.46875" y="0.46875" width="59.0625" height="59.0625" rx="18.2812" stroke="#CC63D4" stroke-width="0.9375"/> <rect x="3" y="3" width="54" height="54" rx="18.75" fill="#CC63D4"/> <g clip-path="url(#clip0_654_3711)"> <path d="M42.5 21.25H34.375C34.2092 21.25 34.0503 21.3158 33.9331 21.4331C33.8158 21.5503 33.75 21.7092 33.75 21.875V24.375C33.75 24.8723 33.5525 25.3492 33.2008 25.7008C32.8492 26.0525 32.3723 26.25 31.875 26.25H28.125C27.6277 26.25 27.1508 26.0525 26.7992 25.7008C26.4475 25.3492 26.25 24.8723 26.25 24.375V21.875C26.25 21.7092 26.1842 21.5503 26.0669 21.4331C25.9497 21.3158 25.7908 21.25 25.625 21.25H17.5C16.837 21.25 16.2011 21.5134 15.7322 21.9822C15.2634 22.4511 15 23.087 15 23.75V38.75C15 39.413 15.2634 40.0489 15.7322 40.5178C16.2011 40.9866 16.837 41.25 17.5 41.25H42.5C43.163 41.25 43.7989 40.9866 44.2678 40.5178C44.7366 40.0489 45 39.413 45 38.75V23.75C45 23.087 44.7366 22.4511 44.2678 21.9822C43.7989 21.5134 43.163 21.25 42.5 21.25ZM23.125 26.25C23.7431 26.25 24.3473 26.4333 24.8612 26.7767C25.3751 27.12 25.7756 27.6081 26.0121 28.1791C26.2486 28.7501 26.3105 29.3785 26.19 29.9847C26.0694 30.5908 25.7717 31.1477 25.3347 31.5847C24.8977 32.0217 24.3408 32.3194 23.7347 32.44C23.1285 32.5605 22.5001 32.4986 21.9291 32.2621C21.3581 32.0256 20.87 31.6251 20.5267 31.1112C20.1833 30.5973 20 29.9931 20 29.375C20 28.5462 20.3292 27.7513 20.9153 27.1653C21.5013 26.5792 22.2962 26.25 23.125 26.25ZM28.75 37.3C28.7636 37.6693 28.6306 38.029 28.38 38.3006C28.1295 38.5722 27.7817 38.7338 27.4125 38.75H18.8375C18.4683 38.7338 18.1205 38.5722 17.87 38.3006C17.6194 38.029 17.4864 37.6693 17.5 37.3V36.9C17.4892 36.4021 17.6079 35.9098 17.8446 35.4716C18.0813 35.0333 18.4277 34.6641 18.85 34.4C20.1419 33.6184 21.6155 33.1875 23.125 33.15C24.6345 33.1875 26.1081 33.6184 27.4 34.4C27.8223 34.6641 28.1687 35.0333 28.4054 35.4716C28.6421 35.9098 28.7608 36.4021 28.75 36.9V37.3ZM40.625 35H33.125C32.9592 35 32.8003 34.9342 32.6831 34.8169C32.5658 34.6997 32.5 34.5408 32.5 34.375C32.5 34.2092 32.5658 34.0503 32.6831 33.9331C32.8003 33.8158 32.9592 33.75 33.125 33.75H40.625C40.7908 33.75 40.9497 33.8158 41.0669 33.9331C41.1842 34.0503 41.25 34.2092 41.25 34.375C41.25 34.5408 41.1842 34.6997 41.0669 34.8169C40.9497 34.9342 40.7908 35 40.625 35ZM40.625 31.25H30.625C30.4592 31.25 30.3003 31.1842 30.1831 31.0669C30.0658 30.9497 30 30.7908 30 30.625C30 30.4592 30.0658 30.3003 30.1831 30.1831C30.3003 30.0658 30.4592 30 30.625 30H40.625C40.7908 30 40.9497 30.0658 41.0669 30.1831C41.1842 30.3003 41.25 30.4592 41.25 30.625C41.25 30.7908 41.1842 30.9497 41.0669 31.0669C40.9497 31.1842 40.7908 31.25 40.625 31.25Z" fill="white"/> <path d="M28.125 25H31.875C32.0408 25 32.1997 24.9342 32.3169 24.8169C32.4342 24.6997 32.5 24.5408 32.5 24.375V21.25C32.5 20.587 32.2366 19.9511 31.7678 19.4822C31.2989 19.0134 30.663 18.75 30 18.75C29.337 18.75 28.7011 19.0134 28.2322 19.4822C27.7634 19.9511 27.5 20.587 27.5 21.25V24.375C27.5 24.5408 27.5658 24.6997 27.6831 24.8169C27.8003 24.9342 27.9592 25 28.125 25Z" fill="white"/> </g> <defs> <clipPath id="clip0_654_3711"> <rect width="30" height="30" fill="white" transform="translate(15 15)"/> </clipPath> </defs> </svg>