<svg width="54" height="54" viewBox="0 0 54 54" fill="none" xmlns="http://www.w3.org/2000/svg"> <rect width="54" height="54" rx="18.75" fill="#7243D5"/> <path d="M33.9102 12C33.9058 12 33.9014 12 33.8971 12C33.8429 12.0021 33.789 12.0079 33.7357 12.0175H13.1601C13.0072 12.0169 12.8557 12.0465 12.7144 12.1047C12.5732 12.1628 12.4448 12.2483 12.337 12.3562C12.2291 12.4641 12.1437 12.5923 12.0859 12.7332C12.0281 12.8742 11.9989 13.0252 12 13.1775V37.3859C12 39.9197 14.0759 42 16.6141 42H37.3816C37.4593 41.999 37.5368 41.9903 37.6127 41.9738C37.6156 41.9738 37.6185 41.9738 37.6214 41.9738C38.7994 41.9115 39.909 41.4013 40.723 40.5475C41.537 39.6938 41.9938 38.5612 42 37.3816V28.1622C42.0011 28.0103 41.9721 27.8597 41.9145 27.719C41.857 27.5783 41.772 27.4503 41.6646 27.3425C41.5572 27.2346 41.4294 27.1491 41.2886 27.0907C41.1478 27.0323 40.9968 27.0022 40.8443 27.0022H35.0789V13.1775C35.0824 13.0234 35.0549 12.8702 34.9978 12.7269C34.9408 12.5836 34.8554 12.4531 34.7468 12.3433C34.6382 12.2335 34.5086 12.1465 34.3656 12.0876C34.2227 12.0286 34.0649 11.9988 33.9102 12ZM17.7741 18.9342H29.3005C29.6082 18.9342 29.9032 19.0559 30.1208 19.2727C30.3383 19.4894 30.4605 19.7834 30.4605 20.0899C30.4605 20.3964 30.3383 20.6903 30.1208 20.9071C29.9032 21.1238 29.6082 21.2455 29.3005 21.2455H17.7741C17.4664 21.2455 17.1714 21.1238 16.9538 20.9071C16.7363 20.6903 16.6141 20.3964 16.6141 20.0899C16.6141 19.7834 16.7363 19.4894 16.9538 19.2727C17.1714 19.0559 17.4664 18.9342 17.7741 18.9342ZM17.7741 23.5482H29.3005C29.6082 23.5482 29.9032 23.67 30.1208 23.8867C30.3383 24.1034 30.4605 24.3974 30.4605 24.7039C30.4605 25.0104 30.3383 25.3044 30.1208 25.5211C29.9032 25.7378 29.6082 25.8596 29.3005 25.8596H17.7741C17.4664 25.8596 17.1714 25.7378 16.9538 25.5211C16.7363 25.3044 16.6141 25.0104 16.6141 24.7039C16.6141 24.3974 16.7363 24.1034 16.9538 23.8867C17.1714 23.67 17.4664 23.5482 17.7741 23.5482ZM17.7698 28.1622C17.7683 28.1622 17.7712 28.1622 17.7698 28.1622H29.3005C29.607 28.1622 29.9009 28.284 30.1177 28.5007C30.3344 28.7175 30.4562 29.0114 30.4562 29.3179C30.4562 29.6244 30.3344 29.9184 30.1177 30.1351C29.9009 30.3519 29.607 30.4736 29.3005 30.4736H17.7741C17.4676 30.4892 17.1675 30.3824 16.9397 30.1768C16.7119 29.9711 16.5752 29.6833 16.5596 29.3768C16.5439 29.0703 16.6507 28.7701 16.8564 28.5424C17.0621 28.3146 17.3499 28.1779 17.6564 28.1622C17.6941 28.1604 17.732 28.1604 17.7698 28.1622ZM35.0789 29.3136H39.693V37.3903C39.693 38.6899 38.6812 39.7017 37.3816 39.7017C37.0775 39.7052 36.7757 39.6478 36.4942 39.5328C36.2127 39.4177 35.957 39.2475 35.7424 39.032C35.5277 38.8166 35.3584 38.5603 35.2445 38.2783C35.1305 37.9963 35.0742 37.6944 35.0789 37.3903V29.3136ZM17.7698 32.7763C17.7683 32.7763 17.7712 32.7763 17.7698 32.7763H29.3005C29.6082 32.7763 29.9032 32.898 30.1208 33.1148C30.3383 33.3315 30.4605 33.6255 30.4605 33.932C30.4605 34.2385 30.3383 34.5324 30.1208 34.7492C29.9032 34.9659 29.6082 35.0877 29.3005 35.0877H17.7741C17.4676 35.1033 17.1675 34.9965 16.9397 34.7908C16.7119 34.5851 16.5752 34.2973 16.5596 33.9908C16.5439 33.6843 16.6507 33.3842 16.8564 33.1564C17.0621 32.9286 17.3499 32.7919 17.6564 32.7763C17.6941 32.7744 17.732 32.7744 17.7698 32.7763Z" fill="white"/> </svg>