<svg width="54" height="54" viewBox="0 0 54 54" fill="none" xmlns="http://www.w3.org/2000/svg"> <rect width="54" height="54" rx="18.75" fill="#DD504E"/> <path d="M30.885 12.885C30.315 12.315 29.55 12 28.755 12H18C16.35 12 15 13.35 15 15V39C15 40.65 16.335 42 17.985 42H36C37.65 42 39 40.65 39 39V22.245C39 21.45 38.685 20.685 38.115 20.13L30.885 12.885ZM31.5 36H22.5C21.675 36 21 35.325 21 34.5C21 33.675 21.675 33 22.5 33H31.5C32.325 33 33 33.675 33 34.5C33 35.325 32.325 36 31.5 36ZM31.5 30H22.5C21.675 30 21 29.325 21 28.5C21 27.675 21.675 27 22.5 27H31.5C32.325 27 33 27.675 33 28.5C33 29.325 32.325 30 31.5 30ZM28.5 21V14.25L36.75 22.5H30C29.175 22.5 28.5 21.825 28.5 21Z" fill="white"/> </svg>