<svg width="60" height="60" viewBox="0 0 60 60" fill="none" xmlns="http://www.w3.org/2000/svg"> <rect x="0.46875" y="0.46875" width="59.0625" height="59.0625" rx="18.2812" stroke="#CC63D4" stroke-width="0.9375"/> <rect x="3" y="3" width="54" height="54" rx="18.75" fill="#CC63D4"/> <path d="M37.5 40.7812H22.5C22.3757 40.7812 22.2565 40.8306 22.1685 40.9185C22.0806 41.0065 22.0312 41.1257 22.0312 41.25C22.0312 41.3743 22.0806 41.4935 22.1685 41.5815C22.2565 41.6694 22.3757 41.7188 22.5 41.7188H37.5C37.6243 41.7188 37.7435 41.6694 37.8315 41.5815C37.9194 41.4935 37.9688 41.3743 37.9688 41.25C37.9688 41.1257 37.9194 41.0065 37.8315 40.9185C37.7435 40.8306 37.6243 40.7812 37.5 40.7812Z" fill="white"/> <path d="M27.7078 26.25L27.1875 24.5625L26.6672 26.25H27.7078Z" fill="white"/> <path d="M37.9688 15.9375H22.0312C21.4096 15.9375 20.8135 16.1844 20.374 16.624C19.9344 17.0635 19.6875 17.6596 19.6875 18.2812V41.25C19.6875 41.9959 19.9838 42.7113 20.5113 43.2387C21.0387 43.7662 21.7541 44.0625 22.5 44.0625H37.9688C38.5904 44.0625 39.1865 43.8156 39.626 43.376C40.0656 42.9365 40.3125 42.3404 40.3125 41.7188V18.2812C40.3125 17.6596 40.0656 17.0635 39.626 16.624C39.1865 16.1844 38.5904 15.9375 37.9688 15.9375ZM32.8125 22.5H36.5625C36.6456 22.5001 36.7271 22.5224 36.7987 22.5644C36.8704 22.6064 36.9296 22.6667 36.9703 22.7391C37.0115 22.8103 37.0331 22.8912 37.0331 22.9734C37.0331 23.0557 37.0115 23.1366 36.9703 23.2078L33.6516 28.5938H36.5625C36.6868 28.5938 36.806 28.6431 36.894 28.731C36.9819 28.819 37.0312 28.9382 37.0312 29.0625C37.0312 29.1868 36.9819 29.306 36.894 29.394C36.806 29.4819 36.6868 29.5312 36.5625 29.5312H32.8125C32.7294 29.5311 32.6479 29.5089 32.5763 29.4669C32.5046 29.4249 32.4454 29.3646 32.4047 29.2922C32.3635 29.2209 32.3419 29.1401 32.3419 29.0578C32.3419 28.9755 32.3635 28.8947 32.4047 28.8234L35.7234 23.4375H32.8125C32.6882 23.4375 32.569 23.3881 32.481 23.3002C32.3931 23.2123 32.3438 23.0931 32.3438 22.9688C32.3438 22.8444 32.3931 22.7252 32.481 22.6373C32.569 22.5494 32.6882 22.5 32.8125 22.5ZM30 25.3125H31.875C31.9993 25.3125 32.1185 25.3619 32.2065 25.4498C32.2944 25.5377 32.3438 25.6569 32.3438 25.7812C32.3438 25.9056 32.2944 26.0248 32.2065 26.1127C32.1185 26.2006 31.9993 26.25 31.875 26.25H30C29.8757 26.25 29.7565 26.2006 29.6685 26.1127C29.5806 26.0248 29.5312 25.9056 29.5312 25.7812C29.5312 25.6569 29.5806 25.5377 29.6685 25.4498C29.7565 25.3619 29.8757 25.3125 30 25.3125ZM24.8438 28.9266L26.7188 22.8328C26.7471 22.7354 26.8064 22.6499 26.8875 22.5891C26.9686 22.5282 27.0673 22.4953 27.1687 22.4953C27.2702 22.4953 27.3689 22.5282 27.45 22.5891C27.5311 22.6499 27.5904 22.7354 27.6188 22.8328L29.4937 28.9266C29.5151 28.9856 29.5243 29.0483 29.5209 29.111C29.5175 29.1736 29.5016 29.235 29.474 29.2914C29.4465 29.3478 29.4079 29.3981 29.3606 29.4393C29.3132 29.4805 29.2581 29.5118 29.1984 29.5312C29.1534 29.5384 29.1075 29.5384 29.0625 29.5312C28.9585 29.5357 28.856 29.5054 28.7711 29.4451C28.6862 29.3849 28.6238 29.2981 28.5938 29.1984L27.9937 27.1875H26.3813L25.7812 29.1984C25.7452 29.3228 25.6612 29.4277 25.5478 29.4901C25.4344 29.5525 25.3009 29.5673 25.1766 29.5312C25.0522 29.4952 24.9473 29.4112 24.8849 29.2978C24.8225 29.1844 24.8077 29.0509 24.8438 28.9266ZM20.625 18.2812C20.6258 17.9911 20.7163 17.7083 20.8842 17.4717C21.052 17.235 21.289 17.0561 21.5625 16.9594V38.6016C21.2159 38.7231 20.8971 38.9127 20.625 39.1594V18.2812ZM39.375 41.7188C39.375 42.0917 39.2268 42.4494 38.9631 42.7131C38.6994 42.9768 38.3417 43.125 37.9688 43.125H22.5C22.0027 43.125 21.5258 42.9275 21.1742 42.5758C20.8225 42.2242 20.625 41.7473 20.625 41.25C20.625 40.7527 20.8225 40.2758 21.1742 39.9242C21.5258 39.5725 22.0027 39.375 22.5 39.375H37.9688C38.4763 39.3778 38.9706 39.213 39.375 38.9062V41.7188Z" fill="white"/> </svg>