<svg width="54" height="54" viewBox="0 0 54 54" fill="none" xmlns="http://www.w3.org/2000/svg"> <rect width="54" height="54" rx="18.75" fill="#CC63D4"/> <g clip-path="url(#clip0_654_3360)"> <path d="M39.5 18.25H31.375C31.2092 18.25 31.0503 18.3158 30.9331 18.4331C30.8158 18.5503 30.75 18.7092 30.75 18.875V21.375C30.75 21.8723 30.5525 22.3492 30.2008 22.7008C29.8492 23.0525 29.3723 23.25 28.875 23.25H25.125C24.6277 23.25 24.1508 23.0525 23.7992 22.7008C23.4475 22.3492 23.25 21.8723 23.25 21.375V18.875C23.25 18.7092 23.1842 18.5503 23.0669 18.4331C22.9497 18.3158 22.7908 18.25 22.625 18.25H14.5C13.837 18.25 13.2011 18.5134 12.7322 18.9822C12.2634 19.4511 12 20.087 12 20.75V35.75C12 36.413 12.2634 37.0489 12.7322 37.5178C13.2011 37.9866 13.837 38.25 14.5 38.25H39.5C40.163 38.25 40.7989 37.9866 41.2678 37.5178C41.7366 37.0489 42 36.413 42 35.75V20.75C42 20.087 41.7366 19.4511 41.2678 18.9822C40.7989 18.5134 40.163 18.25 39.5 18.25ZM20.125 23.25C20.7431 23.25 21.3473 23.4333 21.8612 23.7767C22.3751 24.12 22.7756 24.6081 23.0121 25.1791C23.2486 25.7501 23.3105 26.3785 23.19 26.9847C23.0694 27.5908 22.7717 28.1477 22.3347 28.5847C21.8977 29.0217 21.3408 29.3194 20.7347 29.44C20.1285 29.5605 19.5001 29.4986 18.9291 29.2621C18.3581 29.0256 17.87 28.6251 17.5267 28.1112C17.1833 27.5973 17 26.9931 17 26.375C17 25.5462 17.3292 24.7513 17.9153 24.1653C18.5013 23.5792 19.2962 23.25 20.125 23.25ZM25.75 34.3C25.7636 34.6693 25.6306 35.029 25.38 35.3006C25.1295 35.5722 24.7817 35.7338 24.4125 35.75H15.8375C15.4683 35.7338 15.1205 35.5722 14.87 35.3006C14.6194 35.029 14.4864 34.6693 14.5 34.3V33.9C14.4892 33.4021 14.6079 32.9098 14.8446 32.4716C15.0813 32.0333 15.4277 31.6641 15.85 31.4C17.1419 30.6184 18.6155 30.1875 20.125 30.15C21.6345 30.1875 23.1081 30.6184 24.4 31.4C24.8223 31.6641 25.1687 32.0333 25.4054 32.4716C25.6421 32.9098 25.7608 33.4021 25.75 33.9V34.3ZM37.625 32H30.125C29.9592 32 29.8003 31.9342 29.6831 31.8169C29.5658 31.6997 29.5 31.5408 29.5 31.375C29.5 31.2092 29.5658 31.0503 29.6831 30.9331C29.8003 30.8158 29.9592 30.75 30.125 30.75H37.625C37.7908 30.75 37.9497 30.8158 38.0669 30.9331C38.1842 31.0503 38.25 31.2092 38.25 31.375C38.25 31.5408 38.1842 31.6997 38.0669 31.8169C37.9497 31.9342 37.7908 32 37.625 32ZM37.625 28.25H27.625C27.4592 28.25 27.3003 28.1842 27.1831 28.0669C27.0658 27.9497 27 27.7908 27 27.625C27 27.4592 27.0658 27.3003 27.1831 27.1831C27.3003 27.0658 27.4592 27 27.625 27H37.625C37.7908 27 37.9497 27.0658 38.0669 27.1831C38.1842 27.3003 38.25 27.4592 38.25 27.625C38.25 27.7908 38.1842 27.9497 38.0669 28.0669C37.9497 28.1842 37.7908 28.25 37.625 28.25Z" fill="white"/> <path d="M25.125 22H28.875C29.0408 22 29.1997 21.9342 29.3169 21.8169C29.4342 21.6997 29.5 21.5408 29.5 21.375V18.25C29.5 17.587 29.2366 16.9511 28.7678 16.4822C28.2989 16.0134 27.663 15.75 27 15.75C26.337 15.75 25.7011 16.0134 25.2322 16.4822C24.7634 16.9511 24.5 17.587 24.5 18.25V21.375C24.5 21.5408 24.5658 21.6997 24.6831 21.8169C24.8003 21.9342 24.9592 22 25.125 22Z" fill="white"/> </g> <defs> <clipPath id="clip0_654_3360"> <rect width="30" height="30" fill="white" transform="translate(12 12)"/> </clipPath> </defs> </svg>