<svg width="60" height="60" viewBox="0 0 60 60" fill="none" xmlns="http://www.w3.org/2000/svg"> <rect x="0.46875" y="0.46875" width="59.0625" height="59.0625" rx="18.2812" stroke="#5ABA87" stroke-width="0.9375"/> <rect x="3" y="3" width="54" height="54" rx="18.75" fill="#5ABA87"/> <path d="M38.4375 24.1875C35.8125 24.1875 33.75 25.6875 33.5625 25.875L35.8125 28.875C35.8125 28.875 37.125 27.9375 38.4375 27.9375C41.0625 27.9375 41.25 30.1875 41.25 30.9375C40.5 30.75 39.1875 30.375 37.5 30.75C34.875 31.3125 32.25 34.5 33.5625 38.0625C34.875 41.4375 39.375 42 41.25 39.1875V41.0625H45V31.125C45 26.0625 41.4375 24.1875 38.4375 24.1875ZM36.5625 36.375C36.375 32.8125 39.375 32.8125 41.25 33V34.875C41.25 37.125 36.9375 39.1875 36.5625 36.375ZM27.9375 41.25H31.875L25.875 18.75H20.8125L15 41.25H18.9375L20.8125 33.75H25.875L27.9375 41.25ZM21.75 30L23.25 24L24.9375 30H21.75Z" fill="white"/> </svg>