<svg width="60" height="60" viewBox="0 0 60 60" fill="none" xmlns="http://www.w3.org/2000/svg"> <rect x="0.46875" y="0.46875" width="59.0625" height="59.0625" rx="18.2812" stroke="#E6A55B" stroke-width="0.9375"/> <rect x="3" y="3" width="54" height="54" rx="18.75" fill="#E6A55B"/> <g clip-path="url(#clip0_654_3697)"> <path d="M44.6629 32.55C44.5769 32.4636 44.4746 32.395 44.362 32.3484C44.2493 32.3017 44.1286 32.2778 44.0066 32.2781H43.9973C43.9093 32.2744 43.8231 32.2524 43.744 32.2137C43.665 32.175 43.5948 32.1203 43.5379 32.0531C43.4125 31.9085 43.3172 31.7403 43.2576 31.5584C43.1981 31.3765 43.1754 31.1845 43.191 30.9937C43.1976 30.8662 43.1783 30.7387 43.1342 30.6189C43.0902 30.499 43.0223 30.3894 42.9347 30.2965C42.847 30.2036 42.7415 30.1295 42.6244 30.0785C42.5074 30.0276 42.3812 30.0008 42.2535 30H32.7473C32.6196 30.0008 32.4934 30.0276 32.3763 30.0785C32.2593 30.1295 32.1537 30.2036 32.0661 30.2965C31.9785 30.3894 31.9106 30.499 31.8666 30.6189C31.8225 30.7387 31.8032 30.8662 31.8098 30.9937C31.8254 31.1845 31.8027 31.3765 31.7431 31.5584C31.6836 31.7403 31.5883 31.9085 31.4629 32.0531C31.406 32.1203 31.3358 32.175 31.2568 32.2137C31.1777 32.2524 31.0915 32.2744 31.0035 32.2781H30.966C30.8485 32.2792 30.7323 32.3038 30.6244 32.3505C30.5166 32.3972 30.4191 32.465 30.3379 32.55C30.2493 32.6368 30.1788 32.7404 30.1306 32.8546C30.0823 32.9689 30.0572 33.0916 30.0566 33.2156C30.0566 42.8719 37.1816 44.9437 37.2473 44.9625C37.4123 45.0125 37.5885 45.0125 37.7535 44.9625C37.8191 44.9437 44.9441 42.8719 44.9441 33.2156C44.9436 33.0916 44.9185 32.9689 44.8702 32.8546C44.8219 32.7404 44.7515 32.6368 44.6629 32.55ZM40.7441 35.6344L37.9316 38.4469C37.8446 38.5345 37.7408 38.6038 37.6265 38.6505C37.5121 38.6972 37.3895 38.7204 37.266 38.7187C37.1439 38.7203 37.0228 38.697 36.9099 38.6503C36.7971 38.6036 36.695 38.5343 36.6098 38.4469L35.091 36.9281C34.9157 36.7528 34.8172 36.5151 34.8172 36.2672C34.8172 36.0193 34.9157 35.7815 35.091 35.6062C35.2663 35.431 35.5041 35.3325 35.752 35.3325C35.9999 35.3325 36.2376 35.431 36.4129 35.6062L37.266 36.4594L39.4223 34.3125C39.5976 34.1372 39.8353 34.0387 40.0832 34.0387C40.3311 34.0387 40.5688 34.1372 40.7441 34.3125C40.9194 34.4878 41.0179 34.7255 41.0179 34.9734C41.0179 35.2213 40.9194 35.4591 40.7441 35.6344Z" fill="white"/> <path d="M35.625 15H20.625C19.8798 15.0022 19.1657 15.2993 18.6387 15.8262C18.1118 16.3532 17.8147 17.0673 17.8125 17.8125V40.3125C17.8147 41.0577 18.1118 41.7718 18.6387 42.2988C19.1657 42.8257 19.8798 43.1228 20.625 43.125H31.4625C30.3642 41.8195 29.5317 40.3118 29.0119 38.6869C28.9599 38.8829 28.8449 39.0565 28.6847 39.1808C28.5245 39.3051 28.3278 39.3734 28.125 39.375H22.5C22.2514 39.375 22.0129 39.2762 21.8371 39.1004C21.6613 38.9246 21.5625 38.6861 21.5625 38.4375C21.5625 38.1889 21.6613 37.9504 21.8371 37.7746C22.0129 37.5988 22.2514 37.5 22.5 37.5H28.125C28.3463 37.5027 28.5593 37.5849 28.725 37.7316C28.3541 36.2552 28.1714 34.7378 28.1813 33.2156C28.1864 32.7457 28.3099 32.2846 28.5403 31.875H22.5C22.2514 31.875 22.0129 31.7762 21.8371 31.6004C21.6613 31.4246 21.5625 31.1861 21.5625 30.9375C21.5625 30.6889 21.6613 30.4504 21.8371 30.2746C22.0129 30.0988 22.2514 30 22.5 30H29.0625C29.2526 30.0005 29.4381 30.0591 29.5939 30.1681C29.7498 30.277 29.8686 30.431 29.9344 30.6094L29.9531 30.6C30.0364 29.9175 30.3665 29.2891 30.8811 28.8332C31.3957 28.3773 32.0594 28.1254 32.7469 28.125H22.5C22.2514 28.125 22.0129 28.0262 21.8371 27.8504C21.6613 27.6746 21.5625 27.4361 21.5625 27.1875C21.5625 26.9389 21.6613 26.7004 21.8371 26.5246C22.0129 26.3488 22.2514 26.25 22.5 26.25H33.75C33.9986 26.25 34.2371 26.3488 34.4129 26.5246C34.5887 26.7004 34.6875 26.9389 34.6875 27.1875C34.6875 27.4361 34.5887 27.6746 34.4129 27.8504C34.2371 28.0262 33.9986 28.125 33.75 28.125H38.4375V17.8125C38.4353 17.0673 38.1382 16.3532 37.6113 15.8262C37.0843 15.2993 36.3702 15.0022 35.625 15ZM22.5 33.75H27.1875C27.4361 33.75 27.6746 33.8488 27.8504 34.0246C28.0262 34.2004 28.125 34.4389 28.125 34.6875C28.125 34.9361 28.0262 35.1746 27.8504 35.3504C27.6746 35.5262 27.4361 35.625 27.1875 35.625H22.5C22.2514 35.625 22.0129 35.5262 21.8371 35.3504C21.6613 35.1746 21.5625 34.9361 21.5625 34.6875C21.5625 34.4389 21.6613 34.2004 21.8371 34.0246C22.0129 33.8488 22.2514 33.75 22.5 33.75ZM25.3125 18.75H30.9375C31.1861 18.75 31.4246 18.8488 31.6004 19.0246C31.7762 19.2004 31.875 19.4389 31.875 19.6875C31.875 19.9361 31.7762 20.1746 31.6004 20.3504C31.4246 20.5262 31.1861 20.625 30.9375 20.625H25.3125C25.0639 20.625 24.8254 20.5262 24.6496 20.3504C24.4738 20.1746 24.375 19.9361 24.375 19.6875C24.375 19.4389 24.4738 19.2004 24.6496 19.0246C24.8254 18.8488 25.0639 18.75 25.3125 18.75ZM33.75 24.375H22.5C22.2514 24.375 22.0129 24.2762 21.8371 24.1004C21.6613 23.9246 21.5625 23.6861 21.5625 23.4375C21.5625 23.1889 21.6613 22.9504 21.8371 22.7746C22.0129 22.5988 22.2514 22.5 22.5 22.5H33.75C33.9986 22.5 34.2371 22.5988 34.4129 22.7746C34.5887 22.9504 34.6875 23.1889 34.6875 23.4375C34.6875 23.6861 34.5887 23.9246 34.4129 24.1004C34.2371 24.2762 33.9986 24.375 33.75 24.375Z" fill="white"/> </g> <defs> <clipPath id="clip0_654_3697"> <rect width="30" height="30" fill="white" transform="translate(15 15)"/> </clipPath> </defs> </svg>