<svg width="60" height="60" viewBox="0 0 60 60" fill="none" xmlns="http://www.w3.org/2000/svg"> <rect x="0.46875" y="0.46875" width="59.0625" height="59.0625" rx="18.2812" stroke="#674AE3" stroke-width="0.9375"/> <rect x="3" y="3" width="54" height="54" rx="18.75" fill="#674AE3"/> <g clip-path="url(#clip0_654_3725)"> <path d="M40.625 15H27.5C22.675 15 18.75 18.925 18.75 23.75C18.75 28.575 22.675 32.5 27.5 32.5H33.75V44.375C33.75 44.5408 33.8158 44.6997 33.9331 44.8169C34.0503 44.9342 34.2092 45 34.375 45C34.5408 45 34.6997 44.9342 34.8169 44.8169C34.9342 44.6997 35 44.5408 35 44.375V16.25H37.5V44.375C37.5 44.5408 37.5658 44.6997 37.6831 44.8169C37.8003 44.9342 37.9592 45 38.125 45C38.2908 45 38.4497 44.9342 38.5669 44.8169C38.6842 44.6997 38.75 44.5408 38.75 44.375V16.25H40.625C40.7908 16.25 40.9497 16.1842 41.0669 16.0669C41.1842 15.9497 41.25 15.7908 41.25 15.625C41.25 15.4592 41.1842 15.3003 41.0669 15.1831C40.9497 15.0658 40.7908 15 40.625 15Z" fill="white"/> <path d="M40.625 15H27.5C22.675 15 18.75 18.925 18.75 23.75C18.75 28.575 22.675 32.5 27.5 32.5H33.75V44.375C33.75 44.5408 33.8158 44.6997 33.9331 44.8169C34.0503 44.9342 34.2092 45 34.375 45C34.5408 45 34.6997 44.9342 34.8169 44.8169C34.9342 44.6997 35 44.5408 35 44.375V16.25H37.5V44.375C37.5 44.5408 37.5658 44.6997 37.6831 44.8169C37.8003 44.9342 37.9592 45 38.125 45C38.2908 45 38.4497 44.9342 38.5669 44.8169C38.6842 44.6997 38.75 44.5408 38.75 44.375V16.25H40.625C40.7908 16.25 40.9497 16.1842 41.0669 16.0669C41.1842 15.9497 41.25 15.7908 41.25 15.625C41.25 15.4592 41.1842 15.3003 41.0669 15.1831C40.9497 15.0658 40.7908 15 40.625 15Z" fill="url(#paint0_linear_654_3725)"/> </g> <defs> <linearGradient id="paint0_linear_654_3725" x1="18.9625" y1="21.3562" x2="44.0863" y2="33.0712" gradientUnits="userSpaceOnUse"> <stop stop-color="white" stop-opacity="0.2"/> <stop offset="1" stop-color="white" stop-opacity="0"/> </linearGradient> <clipPath id="clip0_654_3725"> <rect width="30" height="30" fill="white" transform="translate(15 15)"/> </clipPath> </defs> </svg>