<svg width="60" height="60" viewBox="0 0 60 60" fill="none" xmlns="http://www.w3.org/2000/svg"> <rect x="0.46875" y="0.46875" width="59.0625" height="59.0625" rx="18.2812" stroke="#DD504E" stroke-width="0.9375"/> <rect x="3" y="3" width="54" height="54" rx="18.75" fill="#DD504E"/> <path d="M26.6025 39.9267L23.9996 44.3385C23.9114 44.4708 23.779 44.5591 23.6025 44.5591C23.4261 44.5591 23.2937 44.4708 23.2055 44.3385L20.6025 39.9267C20.4702 39.7061 20.5584 39.4414 20.779 39.3091C22.632 38.2943 24.529 38.2943 26.382 39.3091C26.6467 39.4414 26.7349 39.7061 26.6025 39.9267ZM41.8231 15.4414H18.1761C17.4702 15.4414 16.8525 16.0149 16.8525 16.7649V30.6179C16.8525 31.3238 17.4261 31.9414 18.1761 31.9414H19.6761V19.7649C19.6761 18.6179 20.6467 17.6914 21.882 17.6914H25.3231C26.5143 17.6914 27.529 18.6179 27.529 19.7649V31.8973H34.6761L37.632 34.5443C38.382 35.2061 39.5731 34.8532 39.7937 33.8826L40.2349 31.8973H41.8231C42.529 31.8973 43.1467 31.3238 43.1467 30.5738V16.7649C43.1025 16.0149 42.529 15.4414 41.8231 15.4414ZM38.6908 27.9708H30.1761V27.0885H38.6908V27.9708ZM38.6908 24.1326H30.1761V23.2502H38.6908V24.1326ZM38.6908 20.2502H30.1761V19.3679H38.6908V20.2502Z" fill="white"/> <path d="M23.1615 22.9409H20.5586V38.4262C21.3968 37.985 22.2792 37.7644 23.1615 37.6762V22.9409ZM26.6468 22.0585V19.7644C26.6468 19.1027 26.0733 18.5732 25.3233 18.5732H21.8821C21.1762 18.5732 20.5586 19.1027 20.5586 19.7644V22.0585H26.6468ZM24.0439 22.9409V37.6762C24.9262 37.7203 25.8086 37.985 26.6468 38.4262V22.9409H24.0439Z" fill="white"/> </svg>