<svg width="66" height="66" viewBox="0 0 66 66" fill="none" xmlns="http://www.w3.org/2000/svg">
<rect x="0.709059" y="0.709059" width="64.5819" height="64.5819" rx="19.2909" fill="#D9CFEE"/>
<rect x="0.709059" y="0.709059" width="64.5819" height="64.5819" rx="19.2909" stroke="white" stroke-width="1.41812"/>
<path d="M42.6169 33.1949C42.3895 32.5987 41.9557 32.0965 41.3726 31.7997C40.2179 31.1969 38.7717 31.5393 38.0107 32.5999L36.0525 35.3339C35.7032 34.9427 35.241 34.646 34.6973 34.5104L30.3577 33.4293C28.6306 32.9983 26.8091 33.3469 25.3625 34.3855L20.7659 37.6829C20.5696 37.8238 20.4531 38.0505 20.4531 38.2922V45.7498C20.4531 46.1639 20.7889 46.4998 21.2031 46.4998H24.4474C24.584 46.4998 24.718 46.4624 24.8352 46.3917L28.3278 44.2827L37.0989 43.9663C37.267 43.9601 37.4281 43.8978 37.5563 43.7891L44.6183 37.8114C45.6938 36.9014 45.8616 35.3153 45.0002 34.2006C44.4257 33.4568 43.51 33.1023 42.6169 33.1949ZM39.2299 33.4736C39.558 33.0177 40.1798 32.8694 40.6848 33.1327C40.934 33.2595 41.1128 33.4758 41.2109 33.7294L37.5764 35.7825L39.2299 33.4736ZM43.6493 36.6666L36.7854 42.4766L28.0795 42.7904C27.952 42.7952 27.8279 42.8322 27.7188 42.8981L24.2386 44.9998H21.9531V38.6771L26.2371 35.6042C27.3258 34.8235 28.6958 34.5613 29.9951 34.8846L34.3343 35.9657C34.9463 36.1184 35.337 36.7194 35.2242 37.3342C35.1092 37.9594 34.5204 38.3834 33.8817 38.304L31.791 38.0348C31.3816 37.9799 31.004 38.2714 30.9513 38.6826C30.8982 39.0935 31.1886 39.4696 31.5991 39.5223L33.6902 39.7915C34.954 39.9548 36.1339 39.221 36.569 38.0743L42.3331 34.818C42.829 34.5393 43.4655 34.6664 43.813 35.1176C44.1825 35.5958 44.1107 36.2762 43.6493 36.6666ZM26.5256 24.1638C26.3978 23.7705 25.9749 23.5544 25.5804 23.6823L24.9843 23.876V23.249C24.9843 22.8348 24.6484 22.499 24.2343 22.499C23.8201 22.499 23.4843 22.8348 23.4843 23.249V23.8759L22.8884 23.6823C22.4948 23.5544 22.0711 23.7705 21.9432 24.1638C21.8154 24.5579 22.0308 24.9808 22.4248 25.109L23.0206 25.3026L22.6522 25.8096C22.4087 26.1447 22.483 26.6138 22.8182 26.8573C23.1492 27.0974 23.6247 27.0228 23.8658 26.6914L24.2343 26.1844L24.6027 26.6914C24.8335 27.0091 25.3197 27.0972 25.6504 26.8573C25.9855 26.6138 26.0598 26.1446 25.8163 25.8096L25.448 25.3027L26.0441 25.109C26.4381 24.9808 26.6534 24.5579 26.5256 24.1638ZM34.1128 25.109L34.7089 25.3027L34.3406 25.8096C34.097 26.1447 34.1714 26.6138 34.5065 26.8573C34.839 27.0984 35.313 27.0234 35.5542 26.6914L35.9226 26.1844C35.9226 26.1844 36.2895 26.6893 36.291 26.6914C36.5286 27.0183 37.0134 27.0933 37.3387 26.8573C37.6738 26.6138 37.7482 26.1446 37.5046 25.8096L37.1363 25.3027L37.7324 25.109C38.1265 24.9808 38.3418 24.5579 38.214 24.1638C38.0862 23.7705 37.6636 23.5544 37.2688 23.6823L36.6726 23.876V23.249C36.6726 22.8348 36.3368 22.499 35.9226 22.499C35.5084 22.499 35.1726 22.8348 35.1726 23.249V23.876L34.5764 23.6823C34.1816 23.5544 33.7594 23.7705 33.6312 24.1638C33.5034 24.5579 33.7188 24.9808 34.1128 25.109ZM30.0786 22.499C29.6644 22.499 29.3286 22.8348 29.3286 23.249V23.876L28.7324 23.6823C28.338 23.5544 27.915 23.7705 27.7872 24.1638C27.6594 24.5579 27.8748 24.9808 28.2688 25.109L28.8649 25.3027L28.4966 25.8096C28.2531 26.1446 28.3274 26.6137 28.6624 26.8573C28.981 27.0888 29.4687 27.0232 29.7102 26.6914L30.0786 26.1844L30.447 26.6914C30.6783 27.0096 31.1564 27.1032 31.4948 26.8573C31.8298 26.6138 31.9042 26.1446 31.6606 25.8096L31.2923 25.3027L31.8884 25.109C32.2825 24.9808 32.4978 24.5579 32.37 24.1638C32.2422 23.7705 31.8199 23.5544 31.4248 23.6822L30.8286 23.876V23.249C30.8286 22.8348 30.4928 22.499 30.0786 22.499ZM41.767 22.499C41.3528 22.499 41.017 22.8348 41.017 23.249V23.876L40.4208 23.6823C40.0267 23.5544 39.6034 23.7705 39.4756 24.1638C39.3478 24.5579 39.5631 24.9808 39.9572 25.109L40.5533 25.3027L40.1849 25.8096C39.9414 26.1446 40.0157 26.6137 40.3508 26.8573C40.6685 27.0882 41.1536 27.0281 41.3986 26.6914L41.767 26.1844L42.1354 26.6914C42.3667 27.0097 42.846 27.1018 43.1831 26.8573C43.5182 26.6138 43.5925 26.1446 43.349 25.8096L42.9806 25.3026L43.5764 25.109C43.9705 24.9808 44.1858 24.5579 44.058 24.1638C43.9298 23.7705 43.5087 23.5544 43.1128 23.6823L42.517 23.8759V23.249C42.517 22.8348 42.1812 22.499 41.767 22.499Z" fill="#9B78E9"/>
<path d="M45 19.5H36C35.5858 19.5 35.25 19.8358 35.25 20.25C35.25 20.6642 35.5858 21 36 21H45C45.4135 21 45.75 21.3365 45.75 21.75V27.75C45.75 28.1635 45.4135 28.5 45 28.5H34.5601C34.3374 28.5 34.1261 28.5989 33.9836 28.7703L33 29.9524L32.0164 28.7703C31.8739 28.5989 31.6626 28.5 31.4399 28.5H21C20.5865 28.5 20.25 28.1635 20.25 27.75V21.75C20.25 21.3365 20.5865 21 21 21H30C30.4142 21 30.75 20.6642 30.75 20.25C30.75 19.8358 30.4142 19.5 30 19.5H21C19.7593 19.5 18.75 20.5093 18.75 21.75V27.75C18.75 28.9907 19.7593 30 21 30H31.0884C31.0884 30 32.422 31.6028 32.4236 31.6047C32.7199 31.9609 33.2804 31.9609 33.5764 31.6047L34.9116 30H45C46.2407 30 47.25 28.9907 47.25 27.75V21.75C47.25 20.5093 46.2407 19.5 45 19.5Z" fill="#9B78E9"/>
<path d="M33 21C33.4142 21 33.75 20.6642 33.75 20.25C33.75 19.8358 33.4142 19.5 33 19.5C32.5858 19.5 32.25 19.8358 32.25 20.25C32.25 20.6642 32.5858 21 33 21Z" fill="#9B78E9"/>
</svg>
