<svg width="66" height="66" viewBox="0 0 66 66" fill="none" xmlns="http://www.w3.org/2000/svg">
<rect x="0.709059" y="0.709059" width="64.5819" height="64.5819" rx="19.2909" fill="#9AEEE7"/>
<rect x="0.709059" y="0.709059" width="64.5819" height="64.5819" rx="19.2909" stroke="white" stroke-width="1.41812"/>
<path d="M46.3346 23.4168H32.0247C31.8058 23.4168 31.591 23.3281 31.4355 23.1727L29.0788 20.8159C28.6068 20.3439 27.9785 20.0835 27.3112 20.0835H19.668C18.2894 20.0835 17.168 21.2049 17.168 22.5835V43.4168C17.168 44.7954 18.2894 45.9168 19.668 45.9168H46.3346C47.7132 45.9168 48.8346 44.7954 48.8346 43.4168V25.9168C48.8346 24.5382 47.7132 23.4168 46.3346 23.4168ZM47.168 43.4168C47.168 43.8766 46.7944 44.2502 46.3346 44.2502H19.668C19.2082 44.2502 18.8346 43.8766 18.8346 43.4168V25.9168H27.3112C27.5301 25.9168 27.745 26.0055 27.9004 26.161L30.2572 28.5177C30.7292 28.9897 31.3574 29.2502 32.0247 29.2502H47.168V43.4168ZM47.168 27.5835H32.0247C31.8058 27.5835 31.591 27.4948 31.4355 27.3394L29.0788 24.9826C28.6068 24.5106 27.9785 24.2502 27.3112 24.2502H18.8346V22.5835C18.8346 22.1237 19.2082 21.7502 19.668 21.7502H27.3112C27.5301 21.7502 27.745 21.8389 27.9004 21.9943L30.2572 24.3511C30.7292 24.8231 31.3574 25.0835 32.0247 25.0835H46.3346C46.7944 25.0835 47.168 25.457 47.168 25.9168V27.5835Z" fill="#21C4B6"/>
<path d="M28.8333 30.9167V30.0833C28.8333 29.6227 28.4606 29.25 28 29.25C27.5394 29.25 27.1667 29.6227 27.1667 30.0833V30.9167H25.5C23.8767 30.9167 22.525 32.0836 22.2301 33.6221C21.1701 34.1511 20.5 35.6674 20.5 36.75C20.5 38.1286 21.6214 39.25 23 39.25C24.3786 39.25 25.5 38.1286 25.5 36.75C25.5 35.7231 24.899 34.3005 23.9327 33.7043C24.1601 33.0542 24.7733 32.5833 25.5 32.5833H27.1667V40.9167H24.6667C24.2061 40.9167 23.8333 41.2894 23.8333 41.75C23.8333 42.2106 24.2061 42.5833 24.6667 42.5833H31.3333C31.7939 42.5833 32.1667 42.2106 32.1667 41.75C32.1667 41.2894 31.7939 40.9167 31.3333 40.9167H28.8333V32.5833H30.5C31.2267 32.5833 31.8399 33.0542 32.0673 33.7043C31.101 34.3005 30.5 35.7231 30.5 36.75C30.5 38.1286 31.6214 39.25 33 39.25C34.3786 39.25 35.5 38.1286 35.5 36.75C35.5 35.6674 34.8299 34.1511 33.7699 33.6221C33.475 32.0836 32.1233 30.9167 30.5 30.9167H28.8333ZM23 37.5833C22.5402 37.5833 22.1667 37.2098 22.1667 36.75C22.1667 36.0664 22.7331 35.12 22.9976 35.0833C23.2669 35.12 23.8333 36.0664 23.8333 36.75C23.8333 37.2098 23.4598 37.5833 23 37.5833ZM32.9976 35.0833C33.2669 35.12 33.8333 36.0664 33.8333 36.75C33.8333 37.2098 33.4598 37.5833 33 37.5833C32.5402 37.5833 32.1667 37.2098 32.1667 36.75C32.1667 36.0664 32.7331 35.12 32.9976 35.0833ZM38 42.5833H44.6667C45.1273 42.5833 45.5 42.2106 45.5 41.75V38.4167C45.5 37.9561 45.1273 37.5833 44.6667 37.5833H38C37.5394 37.5833 37.1667 37.9561 37.1667 38.4167V41.75C37.1667 42.2106 37.5394 42.5833 38 42.5833ZM38.8333 39.25H43.8333V40.9167H38.8333V39.25ZM38 32.5833H44.6667C45.1273 32.5833 45.5 32.2106 45.5 31.75C45.5 31.2894 45.1273 30.9167 44.6667 30.9167H38C37.5394 30.9167 37.1667 31.2894 37.1667 31.75C37.1667 32.2106 37.5394 32.5833 38 32.5833ZM38 35.9167H44.6667C45.1273 35.9167 45.5 35.5439 45.5 35.0833C45.5 34.6227 45.1273 34.25 44.6667 34.25H38C37.5394 34.25 37.1667 34.6227 37.1667 35.0833C37.1667 35.5439 37.5394 35.9167 38 35.9167Z" fill="#21C4B6"/>
</svg>
