<svg width="65" height="64" viewBox="0 0 65 64" fill="none" xmlns="http://www.w3.org/2000/svg">
<g id="SVG">
<g id="Layer 2">
<g id="svg2989">
<g id="g2991">
<path id="path2993" d="M18.1256 54.6007C18.1256 56.9956 17.2875 59.0312 15.6115 60.7073C13.9355 62.3834 11.8996 63.2218 9.50386 63.2227C7.1099 63.2227 5.07446 62.3842 3.39754 60.7073C1.72063 59.0303 0.882171 56.9948 0.882171 54.6007C0.882171 52.2084 1.72063 50.1724 3.39754 48.4928C5.07446 46.8132 7.1099 45.9747 9.50386 45.9773C11.8996 45.9773 13.9355 46.8158 15.6115 48.4928C17.2875 50.1698 18.1256 52.2058 18.1256 54.6007ZM41.1176 60.1234C41.1548 60.5168 41.1057 60.9136 40.9737 61.286C40.8418 61.6585 40.6302 61.9977 40.3537 62.2799C40.0962 62.5866 39.7725 62.8308 39.4069 62.9941C39.0414 63.1575 38.6435 63.2356 38.2433 63.2227H32.1764C31.4617 63.2306 30.771 62.9654 30.2451 62.4813C29.7193 61.9973 29.398 61.3308 29.3468 60.6178C28.6876 53.7618 25.9263 47.9011 21.063 43.0358C16.1997 38.1706 10.3397 35.4092 3.48301 34.7517C2.76932 34.7073 2.10163 34.3843 1.62377 33.8523C1.13589 33.3292 0.870029 32.6372 0.882171 31.922V25.8588C0.869571 25.4587 0.947862 25.0608 1.11116 24.6953C1.27445 24.3298 1.5185 24.006 1.82494 23.7484C2.07786 23.4962 2.37969 23.2985 2.71187 23.1673C3.04405 23.0361 3.39955 22.9743 3.75651 22.9857H3.98004C8.73872 23.3664 13.3918 24.5903 17.7219 26.6004C22.0568 28.5973 25.9965 31.3589 29.352 34.7531C32.7464 38.1089 35.508 42.0492 37.5043 46.385C39.5136 50.7141 40.7371 55.3659 41.1176 60.1234ZM64.1097 60.2142C64.1412 60.603 64.0849 60.994 63.9449 61.3582C63.805 61.7224 63.5849 62.0504 63.301 62.3181C63.0441 62.6111 62.7259 62.844 62.3689 63.0004C62.0119 63.1567 61.6249 63.2326 61.2353 63.2227H54.8134C54.445 63.2289 54.079 63.1624 53.7363 63.027C53.3936 62.8916 53.0809 62.69 52.8161 62.4338C52.5491 62.1912 52.3339 61.8971 52.1834 61.5692C52.0329 61.2414 51.9502 60.8864 51.9404 60.5258C51.6031 54.1789 50.0637 47.9537 47.4041 42.1811C44.7401 36.3875 41.275 31.3579 37.0086 27.0922C32.7422 22.8266 27.7128 19.36 21.9203 16.6924C16.1452 14.0346 9.92315 12.4829 3.57637 12.1177C3.2163 12.107 2.86207 12.0239 2.53476 11.8735C2.20745 11.723 1.91374 11.5083 1.6711 11.242C1.41746 10.9843 1.2172 10.679 1.08182 10.3437C0.946435 10.0083 0.878588 9.6496 0.882171 9.288V2.86717C0.871361 2.47807 0.946199 2.09135 1.10139 1.73437C1.25658 1.3774 1.48833 1.05889 1.78024 0.801406C2.03697 0.538794 2.34477 0.331558 2.68466 0.192474C3.02455 0.0533907 3.38933 -0.0145911 3.75651 -0.00727951H3.888C11.6664 0.366673 19.3059 2.19532 26.4106 5.38396C33.5436 8.56083 40.0231 13.0372 45.5185 18.5846C51.0655 24.0805 55.5424 30.5596 58.7213 37.6919C61.909 44.7976 63.7367 52.4378 64.1097 60.2168V60.2142Z" fill="#B7B7B7"/>
</g>
</g>
</g>
</g>
</svg>
