<svg width="795" height="1451" viewBox="0 0 795 1451" fill="none" xmlns="http://www.w3.org/2000/svg">
<path d="M112.001 0.5C74.3757 57.1442 72.0012 176 335.501 104.5C599.001 33 675.002 138.5 675.002 138.5C675.002 138.5 761.502 254.5 761.502 576.5C761.502 576.5 876.002 716 672.502 758.5C469.002 801 294.001 661.939 126.001 758.5C30.8521 813.189 5.68382 1033.94 1.27595 1082.16C0.697884 1088.49 0.483681 1094.59 0.816088 1100.93C3.16292 1145.71 22.9342 1335.37 189.5 1353C378.499 1373 429.5 1349.5 419 1450" stroke="#034737" stroke-dasharray="15 15"/>
<circle cx="334" cy="103" r="30" fill="#034737"/>
<path fill-rule="evenodd" clip-rule="evenodd" d="M335.956 116.625H332.041C331.976 116.626 331.922 116.682 331.922 116.751V117.236V117.235C331.954 117.686 332.077 118.126 332.284 118.524C332.425 118.794 332.587 119 332.732 119H335.269C335.447 119 335.637 118.715 335.792 118.368V118.367C335.956 118.014 336.051 117.633 336.078 117.243C336.078 117.078 336.076 116.914 336.074 116.749C336.072 116.681 336.019 116.625 335.954 116.625H335.956ZM331.445 113.215C331.332 113.221 331.218 113.218 331.105 113.21C330.963 113.21 331.247 113.22 331.247 113.281V114.104C331.266 114.614 331.36 115.118 331.525 115.597C331.63 115.894 331.735 116.118 331.804 116.118H336.195C336.266 116.118 336.372 115.894 336.477 115.596C336.642 115.117 336.734 114.613 336.75 114.103V113.281C336.75 113.203 336.65 113.214 336.638 113.214L331.445 113.215ZM333.596 105.45H333.597C333.631 105.474 333.649 105.513 333.649 105.553V112.585C333.649 112.654 333.596 112.71 333.53 112.71H331.724C331.669 112.71 331.623 112.672 331.608 112.618C331.511 112.242 331.319 111.542 331.064 110.807L330.571 109.387C330.266 108.504 329.872 108.135 329.156 107.46C329.108 107.415 329.037 107.417 328.991 107.464L326.604 109.961C326.563 110.004 326.556 110.071 326.589 110.119C327.094 110.917 327.14 111.939 326.708 112.782C326.276 113.623 325.437 114.15 324.522 114.15C323.737 114.151 322.998 113.762 322.529 113.103C322.06 112.443 321.918 111.59 322.145 110.804C322.374 110.017 322.943 109.389 323.683 109.112C324.421 108.835 325.243 108.939 325.896 109.394C325.944 109.428 326.008 109.422 326.048 109.379L328.406 106.912C328.428 106.889 328.442 106.855 328.44 106.822C328.44 106.787 328.427 106.755 328.403 106.733L328.011 106.35C327.397 105.707 326.905 104.947 326.564 104.112C326.548 104.074 326.515 104.046 326.477 104.039C326.438 104.03 326.398 104.043 326.37 104.072L324.993 105.512C324.898 105.612 324.76 105.654 324.628 105.624L323.716 105.461C323.662 105.451 323.609 105.48 323.587 105.532C323.196 106.43 322.229 106.885 321.328 106.596C320.426 106.307 319.87 105.362 320.026 104.39C320.184 103.418 321.008 102.718 321.949 102.756C322.892 102.793 323.662 103.557 323.748 104.539C323.752 104.596 323.793 104.642 323.846 104.651L324.519 104.771C324.558 104.778 324.596 104.764 324.623 104.735L326.142 103.146C326.177 103.11 326.222 103.075 326.203 102.999C325.973 102.037 325.911 101.04 326.023 100.057C326.028 100.008 326.007 99.9611 325.967 99.9361C325.878 99.8777 324.792 98.7236 324.624 98.5472H324.623C324.597 98.518 324.558 98.5041 324.52 98.5125L323.846 98.6319V98.6305C323.793 98.6403 323.752 98.6861 323.748 98.743C323.662 99.7264 322.892 100.489 321.949 100.526C321.008 100.564 320.184 99.8638 320.026 98.8916C319.87 97.9194 320.426 96.975 321.328 96.6861C322.229 96.3972 323.196 96.8528 323.587 97.75C323.61 97.8014 323.662 97.8305 323.716 97.8208L324.622 97.6597V97.6611C324.756 97.6278 324.897 97.6694 324.992 97.7736L326.046 98.8764V98.875C326.076 98.9069 326.119 98.9194 326.162 98.9083C326.203 98.8958 326.235 98.8625 326.246 98.8194C326.527 97.7125 327.013 96.675 327.677 95.7653C327.714 95.7153 327.709 95.6445 327.666 95.6014L326.046 93.907H326.048C326.008 93.8653 325.944 93.8584 325.896 93.8917C325.49 94.1736 325.012 94.3251 324.522 94.3251C323.152 94.3251 322.042 93.1626 322.042 91.7292C322.041 91.0403 322.301 90.3806 322.767 89.8931C323.232 89.407 323.862 89.1334 324.521 89.1334V89.1348C325.436 89.1334 326.277 89.6598 326.71 90.5029C327.143 91.3473 327.097 92.3709 326.589 93.1681C326.558 93.2167 326.564 93.2834 326.604 93.3265L328.171 94.964C328.193 94.989 328.224 95.0015 328.256 95.0015C328.288 95.0015 328.32 94.989 328.341 94.964C329.078 94.1765 329.957 93.5501 330.927 93.1209C330.963 93.1042 330.99 93.0709 330.998 93.0292C331.006 92.989 330.992 92.9459 330.964 92.9167L330.301 92.2223C330.205 92.1223 330.165 91.9779 330.194 91.8404L330.35 90.8862C330.359 90.8307 330.331 90.7737 330.282 90.7515C329.657 90.4529 329.237 89.8223 329.187 89.1057C329.137 88.389 329.465 87.7015 330.043 87.3126C330.622 86.9237 331.356 86.8959 331.959 87.239C332.562 87.5834 332.937 88.2445 332.937 88.9626H332.936C332.937 89.9779 332.198 90.8265 331.231 90.9182C331.177 90.9237 331.133 90.9668 331.124 91.0223L331.008 91.7293C331.002 91.7695 331.015 91.8098 331.043 91.8376L331.838 92.6695C331.874 92.707 331.906 92.7668 331.989 92.7431H331.988C333.312 92.3765 334.703 92.3695 336.031 92.7251C336.076 92.7376 336.124 92.7209 336.153 92.682L336.957 91.8362C336.985 91.807 336.998 91.7668 336.991 91.7265L336.877 91.0223C336.868 90.9668 336.824 90.9237 336.77 90.9195C335.831 90.8279 335.102 90.0237 335.066 89.0376C335.032 88.0529 335.699 87.1918 336.629 87.0279C337.56 86.864 338.461 87.446 338.737 88.389C339.014 89.332 338.578 90.3431 337.719 90.7515C337.67 90.7737 337.642 90.8306 337.651 90.8862L337.805 91.8334C337.838 91.9723 337.799 92.1209 337.7 92.2223L337.059 92.8918C337.031 92.9209 337.018 92.964 337.026 93.0043C337.034 93.0459 337.06 93.0793 337.098 93.0959C338.072 93.5181 338.956 94.1376 339.7 94.9209C339.723 94.9445 339.753 94.9584 339.785 94.9584C339.817 94.9584 339.847 94.9445 339.87 94.9209L341.396 93.3251C341.435 93.2834 341.442 93.2167 341.41 93.1681C340.904 92.3709 340.859 91.3487 341.291 90.5056C341.723 89.664 342.563 89.1376 343.476 89.1376V89.1362C344.262 89.1348 345 89.5237 345.469 90.1834C345.938 90.8431 346.08 91.6959 345.853 92.482C345.626 93.2681 345.055 93.8959 344.317 94.1736C343.577 94.4514 342.755 94.3472 342.102 93.8917C342.054 93.8584 341.992 93.8639 341.951 93.907L340.38 95.5514C340.337 95.5958 340.333 95.6667 340.369 95.7167C341.04 96.6236 341.523 97.6667 341.79 98.7792C341.801 98.8222 341.832 98.8569 341.874 98.8694C341.915 98.8819 341.96 98.8694 341.99 98.8375L343.007 97.7736C343.103 97.6736 343.241 97.632 343.373 97.6625L344.285 97.8236V97.825C344.338 97.8347 344.391 97.8056 344.414 97.7542C344.804 96.8556 345.771 96.4 346.673 96.6889C347.575 96.9792 348.131 97.9222 347.973 98.8958C347.817 99.868 346.993 100.568 346.051 100.531C345.109 100.493 344.339 99.7292 344.253 98.7472C344.249 98.6903 344.208 98.6431 344.153 98.6347L343.48 98.5153H343.481C343.443 98.5083 343.403 98.5208 343.377 98.5514L342.13 99.8528C342.066 99.9181 341.985 99.9333 341.994 100.035C342.082 101.018 342.004 102.01 341.762 102.964C341.742 103.042 341.787 103.075 341.822 103.111L343.377 104.737H343.375C343.402 104.767 343.442 104.781 343.48 104.774L344.153 104.654H344.152C344.206 104.644 344.248 104.599 344.252 104.542C344.338 103.56 345.107 102.797 346.049 102.758C346.992 102.721 347.814 103.421 347.972 104.393C348.13 105.365 347.572 106.31 346.671 106.599C345.769 106.887 344.803 106.432 344.412 105.535C344.39 105.483 344.337 105.454 344.283 105.464L343.378 105.625C343.244 105.66 343.103 105.618 343.006 105.515L341.593 104.038C341.564 104.007 341.524 103.994 341.486 104.003C341.446 104.011 341.414 104.039 341.398 104.076C340.999 105.065 340.42 105.963 339.693 106.721C339.631 106.786 339.561 106.881 339.64 106.964L341.952 109.382C341.992 109.425 342.055 109.432 342.103 109.399C342.51 109.115 342.988 108.964 343.477 108.964C344.135 108.962 344.767 109.236 345.231 109.722C345.698 110.208 345.959 110.869 345.959 111.557C345.959 112.246 345.699 112.906 345.234 113.393C344.768 113.879 344.137 114.153 343.48 114.153C342.564 114.154 341.722 113.628 341.289 112.785C340.856 111.942 340.903 110.917 341.41 110.119C341.442 110.071 341.435 110.004 341.396 109.961L339.102 107.562V107.564C339.056 107.515 338.983 107.514 338.937 107.56C338.359 108.122 337.8 108.562 337.513 109.387L337.021 110.807C336.766 111.54 336.573 112.242 336.476 112.618H336.475C336.462 112.672 336.414 112.71 336.359 112.71H334.555C334.489 112.71 334.435 112.654 334.435 112.585V105.581C334.435 105.536 334.458 105.496 334.495 105.474L336.681 104.154C336.868 104.04 336.933 103.789 336.824 103.593C336.715 103.396 336.475 103.329 336.288 103.443L334.125 104.749C334.085 104.774 334.036 104.771 333.997 104.743L332.105 103.392H332.107C331.929 103.286 331.703 103.34 331.587 103.517C331.472 103.693 331.505 103.932 331.664 104.067L333.596 105.45Z" fill="white"/>
<circle cx="495" cy="755" r="30" fill="#034737"/>
<path fill-rule="evenodd" clip-rule="evenodd" d="M496.605 740.462C496.541 740.463 496.477 740.475 496.417 740.5C496.358 740.525 496.304 740.561 496.258 740.607C496.213 740.653 496.177 740.707 496.153 740.767C496.128 740.826 496.116 740.89 496.116 740.955V751.542C496.116 751.607 496.128 751.671 496.153 751.73C496.177 751.79 496.213 751.844 496.258 751.89C496.304 751.936 496.358 751.972 496.417 751.997C496.477 752.022 496.541 752.034 496.605 752.035H510.511C510.576 752.034 510.64 752.022 510.699 751.997C510.759 751.972 510.813 751.936 510.858 751.89C510.904 751.844 510.94 751.79 510.964 751.73C510.989 751.671 511.001 751.607 511.001 751.542V740.955C511.001 740.89 510.989 740.826 510.964 740.767C510.94 740.707 510.904 740.653 510.858 740.607C510.813 740.561 510.759 740.525 510.699 740.5C510.64 740.475 510.576 740.463 510.511 740.462H496.605ZM480.109 740.477C479.979 740.476 479.854 740.528 479.762 740.619C479.67 740.711 479.618 740.835 479.617 740.965V751.557C479.618 751.687 479.67 751.811 479.762 751.903C479.854 751.995 479.979 752.046 480.109 752.045H494.013C494.143 752.046 494.268 751.995 494.36 751.903C494.452 751.811 494.504 751.687 494.505 751.557V740.965C494.504 740.835 494.452 740.711 494.36 740.619C494.268 740.528 494.143 740.476 494.013 740.477H480.109ZM506.572 742.714C506.694 742.725 506.808 742.781 506.89 742.872C506.973 742.962 507.019 743.08 507.019 743.203V748.726C507.019 748.802 507.001 748.877 506.967 748.945C506.933 749.013 506.884 749.072 506.823 749.118C506.762 749.163 506.692 749.194 506.617 749.208C506.542 749.222 506.465 749.218 506.392 749.197L502.703 748.147H502.172V749.295C502.172 749.359 502.159 749.423 502.135 749.483C502.11 749.543 502.074 749.597 502.028 749.643C501.982 749.689 501.928 749.725 501.868 749.75C501.808 749.775 501.744 749.787 501.679 749.787C501.615 749.787 501.551 749.774 501.492 749.749C501.432 749.724 501.378 749.688 501.333 749.642C501.288 749.596 501.252 749.542 501.227 749.482C501.203 749.423 501.191 749.359 501.191 749.295V748.147H500.59C500.526 748.148 500.462 748.135 500.402 748.111C500.343 748.086 500.288 748.05 500.243 748.005C500.197 747.959 500.161 747.905 500.136 747.846C500.111 747.786 500.098 747.722 500.098 747.658V744.27C500.098 744.206 500.111 744.142 500.136 744.083C500.161 744.023 500.197 743.969 500.243 743.924C500.288 743.878 500.343 743.842 500.402 743.818C500.462 743.793 500.526 743.781 500.59 743.781H502.703L506.392 742.731C506.451 742.714 506.512 742.709 506.572 742.714ZM506.038 743.85L503.265 744.639V747.289L506.038 748.078V743.85ZM485.189 744.521C485.255 744.521 485.32 744.537 485.379 744.567C485.437 744.598 485.488 744.642 485.525 744.697L487.907 748.103L489.386 746.004C489.424 745.949 489.475 745.905 489.534 745.874C489.594 745.844 489.659 745.829 489.726 745.83C489.792 745.83 489.857 745.847 489.915 745.878C489.974 745.91 490.023 745.955 490.06 746.01L493.045 750.463C493.086 750.524 493.11 750.595 493.114 750.669C493.118 750.742 493.101 750.815 493.067 750.881C493.032 750.946 492.981 751 492.918 751.038C492.855 751.076 492.783 751.097 492.709 751.097H489.218H481.274C481.2 751.097 481.127 751.077 481.064 751.038C481.001 751 480.949 750.945 480.914 750.88C480.88 750.814 480.864 750.741 480.868 750.667C480.872 750.593 480.896 750.521 480.938 750.46L484.855 744.698C484.892 744.644 484.942 744.6 485 744.569C485.058 744.538 485.123 744.522 485.189 744.521ZM501.079 744.759V747.166H502.285V744.759H501.079ZM480.109 753.656C479.979 753.656 479.854 753.707 479.762 753.798C479.67 753.89 479.618 754.014 479.617 754.145V764.736C479.618 764.866 479.67 764.991 479.762 765.082C479.854 765.174 479.979 765.225 480.109 765.224H481.714V767.226C481.714 767.323 481.742 767.418 481.796 767.498C481.85 767.579 481.926 767.641 482.016 767.679C482.105 767.716 482.204 767.726 482.299 767.707C482.394 767.688 482.481 767.642 482.55 767.574L484.895 765.224H494.013C494.143 765.225 494.268 765.174 494.36 765.082C494.452 764.991 494.504 764.866 494.505 764.736V754.145C494.504 754.014 494.452 753.89 494.36 753.798C494.268 753.707 494.143 753.656 494.013 753.656H480.109ZM496.605 753.656C496.476 753.656 496.352 753.708 496.26 753.799C496.168 753.891 496.116 754.015 496.116 754.145V764.736C496.116 764.866 496.168 764.99 496.26 765.081C496.352 765.173 496.476 765.224 496.605 765.224H510.511C510.641 765.224 510.765 765.173 510.857 765.081C510.949 764.99 511 764.865 511.001 764.736V754.144C511 754.015 510.949 753.891 510.857 753.799C510.765 753.708 510.641 753.656 510.511 753.656L496.605 753.656ZM501.977 756.127C502.067 756.134 502.153 756.166 502.226 756.219L506.176 759.042C506.239 759.088 506.29 759.148 506.326 759.217C506.361 759.286 506.38 759.363 506.38 759.44C506.38 759.518 506.361 759.595 506.326 759.664C506.29 759.733 506.239 759.793 506.176 759.838L502.226 762.665C502.153 762.718 502.066 762.749 501.976 762.755C501.886 762.761 501.796 762.743 501.716 762.701C501.636 762.66 501.569 762.597 501.522 762.52C501.476 762.443 501.451 762.354 501.451 762.264V756.617C501.451 756.527 501.475 756.438 501.522 756.361C501.568 756.283 501.635 756.22 501.716 756.179C501.796 756.138 501.887 756.12 501.977 756.127ZM482.872 756.295H491.252C491.381 756.295 491.505 756.347 491.597 756.439C491.688 756.53 491.74 756.654 491.74 756.784C491.74 756.848 491.728 756.912 491.703 756.972C491.679 757.031 491.643 757.086 491.598 757.131C491.552 757.177 491.499 757.213 491.439 757.238C491.38 757.263 491.316 757.276 491.252 757.276H482.872C482.807 757.276 482.743 757.263 482.684 757.238C482.625 757.213 482.571 757.177 482.525 757.131C482.48 757.086 482.444 757.031 482.42 756.972C482.395 756.912 482.383 756.848 482.383 756.784C482.383 756.654 482.435 756.53 482.526 756.439C482.618 756.347 482.742 756.295 482.872 756.295ZM482.872 758.951H487.57C487.635 758.951 487.698 758.964 487.758 758.988C487.818 759.012 487.872 759.048 487.918 759.094C487.963 759.139 488 759.193 488.025 759.253C488.049 759.312 488.062 759.376 488.062 759.441C488.063 759.505 488.05 759.57 488.025 759.629C488.001 759.689 487.965 759.744 487.919 759.789C487.873 759.835 487.819 759.871 487.759 759.896C487.699 759.921 487.635 759.933 487.57 759.933H482.872C482.807 759.933 482.743 759.92 482.684 759.895C482.625 759.87 482.571 759.834 482.525 759.788C482.48 759.742 482.444 759.688 482.42 759.629C482.395 759.569 482.383 759.505 482.383 759.441C482.383 759.311 482.435 759.187 482.526 759.095C482.618 759.004 482.742 758.952 482.872 758.951ZM489.525 758.951H491.252C491.381 758.952 491.505 759.004 491.597 759.095C491.688 759.187 491.74 759.311 491.74 759.441C491.74 759.505 491.728 759.569 491.703 759.629C491.679 759.688 491.643 759.742 491.598 759.788C491.552 759.834 491.499 759.87 491.439 759.895C491.38 759.92 491.316 759.933 491.252 759.933H489.525C489.46 759.933 489.397 759.92 489.337 759.895C489.278 759.87 489.224 759.834 489.179 759.788C489.133 759.742 489.097 759.688 489.073 759.628C489.049 759.569 489.036 759.505 489.036 759.441C489.037 759.311 489.088 759.187 489.18 759.095C489.271 759.003 489.395 758.952 489.525 758.951ZM482.872 761.609H486.155C486.219 761.609 486.283 761.621 486.342 761.646C486.402 761.67 486.456 761.706 486.502 761.751C486.548 761.797 486.584 761.851 486.609 761.91C486.634 761.969 486.647 762.033 486.647 762.097C486.647 762.162 486.635 762.226 486.61 762.286C486.585 762.346 486.549 762.4 486.503 762.446C486.457 762.492 486.403 762.528 486.343 762.553C486.283 762.577 486.219 762.59 486.155 762.59H482.872C482.807 762.589 482.743 762.577 482.684 762.552C482.625 762.527 482.571 762.49 482.525 762.445C482.48 762.399 482.444 762.345 482.42 762.285C482.395 762.226 482.383 762.162 482.383 762.097C482.384 761.968 482.435 761.844 482.527 761.753C482.618 761.661 482.742 761.61 482.872 761.609ZM487.969 761.609H491.252C491.381 761.61 491.505 761.661 491.596 761.753C491.688 761.844 491.74 761.968 491.74 762.097C491.74 762.162 491.728 762.226 491.703 762.285C491.679 762.345 491.643 762.399 491.598 762.445C491.552 762.49 491.499 762.527 491.439 762.552C491.38 762.577 491.316 762.589 491.252 762.59H487.969C487.904 762.59 487.84 762.577 487.781 762.552C487.721 762.527 487.667 762.491 487.622 762.445C487.576 762.399 487.54 762.345 487.516 762.285C487.491 762.226 487.479 762.162 487.479 762.097C487.48 761.968 487.531 761.844 487.623 761.752C487.715 761.661 487.839 761.609 487.969 761.609ZM499.765 765.753C499.7 765.753 499.637 765.766 499.577 765.791C499.518 765.816 499.464 765.852 499.419 765.898C499.373 765.944 499.337 765.998 499.313 766.058C499.289 766.117 499.276 766.181 499.276 766.245V766.817H496.605C496.476 766.817 496.351 766.869 496.259 766.961C496.168 767.052 496.116 767.177 496.116 767.306C496.116 767.436 496.168 767.56 496.26 767.652C496.352 767.743 496.476 767.795 496.605 767.795H499.276V768.367C499.276 768.431 499.289 768.495 499.313 768.554C499.337 768.614 499.373 768.668 499.419 768.714C499.464 768.76 499.518 768.796 499.577 768.821C499.637 768.846 499.7 768.859 499.765 768.859C499.83 768.859 499.894 768.847 499.953 768.822C500.013 768.797 500.068 768.761 500.113 768.715C500.159 768.67 500.195 768.615 500.22 768.555C500.245 768.496 500.257 768.431 500.257 768.367V767.795H510.511C510.641 767.795 510.765 767.743 510.857 767.652C510.949 767.56 511 767.436 511.001 767.306C511.001 767.177 510.949 767.052 510.857 766.961C510.765 766.869 510.641 766.817 510.511 766.817H500.257V766.245C500.257 766.181 500.245 766.116 500.22 766.057C500.195 765.997 500.159 765.942 500.113 765.897C500.068 765.851 500.013 765.815 499.953 765.79C499.894 765.765 499.83 765.753 499.765 765.753Z" fill="white"/>
<circle cx="182" cy="1345" r="30" fill="#034737"/>
<path fill-rule="evenodd" clip-rule="evenodd" d="M167 1355.99V1356C167 1358.21 168.793 1360 171 1360H194C194.796 1360 195.559 1359.68 196.121 1359.12C196.684 1358.56 197 1357.8 197 1357V1338C197 1337.2 196.684 1336.44 196.121 1335.88C195.559 1335.32 194.796 1335 194 1335H175V1334C175 1331.79 173.207 1330 171 1330C168.793 1330 167 1331.79 167 1334V1355.99ZM178 1350V1354C178 1354.55 178.447 1355 179 1355H185V1354C185 1352.94 185.421 1351.92 186.173 1351.17C186.923 1350.42 187.94 1350 189 1350V1355H192C192.553 1355 193 1354.55 193 1354V1341C193 1340.45 192.553 1340 192 1340H187V1342H188C188.553 1342 189 1342.45 189 1343C189 1343.55 188.553 1344 188 1344H184C183.447 1344 183 1343.55 183 1343C183 1342.45 183.447 1342 184 1342H185V1340H179C178.447 1340 178 1340.45 178 1341V1348H181C181.553 1348 182 1348.45 182 1349V1351C182 1351.55 181.553 1352 181 1352C180.447 1352 180 1351.55 180 1351V1350H178ZM173 1352.54V1334C173 1332.9 172.104 1332 171 1332C169.896 1332 169 1332.9 169 1334V1352.54C169.589 1352.2 170.273 1352 171 1352C171.727 1352 172.411 1352.2 173 1352.54Z" fill="white"/>
</svg>
