<svg width="408" height="283" viewBox="0 0 408 283" fill="none" xmlns="http://www.w3.org/2000/svg">
<path d="M356.07 215.23C356.07 130.434 287.329 61.6924 202.532 61.6924C117.735 61.6924 48.9941 130.434 48.9941 215.23" stroke="#034737" stroke-width="0.848276" stroke-dasharray="12.72 12.72"/>
<rect x="10" y="163" width="90" height="90" rx="20" fill="#034737"/>
<path fill-rule="evenodd" clip-rule="evenodd" d="M56.3006 187.455H35.7221C34.8831 187.455 34.0758 187.761 33.4848 188.305C32.8886 188.849 32.5562 189.587 32.5562 190.356C32.5562 197.325 32.5562 221.102 32.5562 228.071C32.5562 229.673 33.9755 230.972 35.7221 230.972H67.3813C69.1278 230.972 70.5472 229.673 70.5472 228.071C70.5472 223.172 70.5472 210.664 70.5472 210.664C70.5472 210.13 70.0723 209.697 69.4919 209.697C68.9115 209.697 68.4366 210.13 68.4366 210.664C68.4366 210.664 68.4366 223.172 68.4366 228.071C68.4366 228.605 67.967 229.038 67.3813 229.038H35.7221C35.1364 229.038 34.6668 228.605 34.6668 228.071C34.6668 221.102 34.6668 197.325 34.6668 190.356C34.6668 190.1 34.7776 189.854 34.9781 189.673C35.1734 189.491 35.4424 189.389 35.7221 189.389H56.3006C56.881 189.389 57.3559 188.956 57.3559 188.422C57.3559 187.889 56.881 187.455 56.3006 187.455ZM40.7348 220.334H62.3686C62.949 220.334 63.4239 219.901 63.4239 219.367C63.4239 218.834 62.949 218.4 62.3686 218.4H40.7348C40.1544 218.4 39.6795 218.834 39.6795 219.367C39.6795 219.901 40.1544 220.334 40.7348 220.334ZM40.7348 215.016H62.3686C62.949 215.016 63.4239 214.583 63.4239 214.049C63.4239 213.515 62.949 213.082 62.3686 213.082H40.7348C40.1544 213.082 39.6795 213.515 39.6795 214.049C39.6795 214.583 40.1544 215.016 40.7348 215.016ZM50.4964 198.576H40.9986C40.4182 198.576 39.9433 199.009 39.9433 199.543C39.9433 200.077 40.4182 200.51 40.9986 200.51H44.6922V210.181C44.6922 210.714 45.1671 211.148 45.7475 211.148C46.3279 211.148 46.8028 210.714 46.8028 210.181V200.51H50.4964C51.0768 200.51 51.5517 200.077 51.5517 199.543C51.5517 199.009 51.0768 198.576 50.4964 198.576ZM51.8155 210.181H62.3686C62.949 210.181 63.4239 209.747 63.4239 209.214C63.4239 208.68 62.949 208.247 62.3686 208.247H51.8155C51.2351 208.247 50.7602 208.68 50.7602 209.214C50.7602 209.747 51.2351 210.181 51.8155 210.181ZM73.6288 197.757C73.4757 197.378 73.0799 197.126 72.642 197.126C72.1988 197.126 71.8031 197.378 71.6501 197.757L70.3942 200.87L66.9961 202.021C66.5846 202.161 66.3101 202.523 66.3101 202.928C66.3101 203.333 66.5846 203.694 66.9961 203.835L70.3942 204.986L71.6501 208.099C71.8031 208.478 72.1988 208.73 72.642 208.73C73.0799 208.73 73.4757 208.478 73.6288 208.099L74.8845 204.986L78.2826 203.835C78.6994 203.694 78.9738 203.333 78.9738 202.928C78.9738 202.523 78.6994 202.161 78.2826 202.021L74.8845 200.87L73.6288 197.757ZM54.7176 205.345H58.9388C59.5193 205.345 59.9941 204.912 59.9941 204.378C59.9941 203.845 59.5193 203.411 58.9388 203.411H54.7176C54.1372 203.411 53.6623 203.845 53.6623 204.378C53.6623 204.912 54.1372 205.345 54.7176 205.345ZM72.642 200.879L73.0747 201.957C73.1802 202.222 73.4124 202.431 73.6973 202.529L74.874 202.928L73.6973 203.327C73.4124 203.425 73.1802 203.633 73.0747 203.898L72.642 204.977L72.204 203.898C72.0985 203.633 71.8716 203.425 71.5814 203.327L70.4047 202.928L71.5814 202.529C71.8716 202.431 72.0985 202.222 72.204 201.957L72.642 200.879ZM64.152 185.186C63.999 184.806 63.6033 184.554 63.1601 184.554C62.7168 184.554 62.3212 184.806 62.1681 185.186L59.6301 191.474L52.7706 193.801C52.3538 193.942 52.0793 194.303 52.0793 194.708C52.0793 195.113 52.3538 195.474 52.7706 195.615L59.6301 197.942L62.1681 204.23C62.3212 204.61 62.7168 204.862 63.1601 204.862C63.6033 204.862 63.999 204.61 64.152 204.23L66.69 197.942L73.5495 195.615C73.9664 195.474 74.2408 195.113 74.2408 194.708C74.2408 194.303 73.9664 193.942 73.5495 193.801L66.69 191.474L64.152 185.186ZM63.1601 188.308L64.8802 192.562C64.9858 192.827 65.2126 193.036 65.5028 193.134L70.1462 194.708L65.5028 196.282C65.2126 196.381 64.9858 196.589 64.8802 196.854L63.1601 201.108L61.4399 196.854C61.3344 196.589 61.1075 196.381 60.8173 196.282L56.1739 194.708L60.8173 193.134C61.1075 193.036 61.3344 192.827 61.4399 192.562L63.1601 188.308ZM54.7176 200.51H56.8282C57.4086 200.51 57.8835 200.077 57.8835 199.543C57.8835 199.009 57.4086 198.576 56.8282 198.576H54.7176C54.1372 198.576 53.6623 199.009 53.6623 199.543C53.6623 200.077 54.1372 200.51 54.7176 200.51ZM71.6025 187.939H70.5472C69.9668 187.939 69.4919 188.372 69.4919 188.906C69.4919 189.44 69.9668 189.873 70.5472 189.873H71.6025V190.84C71.6025 191.374 72.0774 191.807 72.6578 191.807C73.2383 191.807 73.7131 191.374 73.7131 190.84V189.873H74.7685C75.3489 189.873 75.8238 189.44 75.8238 188.906C75.8238 188.372 75.3489 187.939 74.7685 187.939H73.7131V186.972C73.7131 186.438 73.2383 186.005 72.6578 186.005C72.0774 186.005 71.6025 186.438 71.6025 186.972V187.939Z" fill="white"/>
<rect x="162" y="30" width="90" height="90" rx="20" fill="#034737"/>
<rect x="226.995" y="55.6062" width="39.7866" height="39.7866" rx="3.75" transform="rotate(90 226.995 55.6062)" stroke="white" stroke-width="2.4375" stroke-linecap="round" stroke-linejoin="round"/>
<path d="M214.562 55.6062V75.4995" stroke="white" stroke-width="2.4375" stroke-linecap="round" stroke-linejoin="round"/>
<path d="M199.642 75.4995V95.3928" stroke="white" stroke-width="2.4375" stroke-linecap="round" stroke-linejoin="round"/>
<path d="M226.995 75.4994H187.209" stroke="white" stroke-width="2.4375" stroke-linecap="round" stroke-linejoin="round"/>
<rect x="303" y="163" width="90" height="90" rx="20" fill="#034737"/>
<rect x="326.504" y="189.932" width="43.1969" height="33.5976" rx="3.33333" stroke="white" stroke-width="2.16667" stroke-linecap="round" stroke-linejoin="round"/>
<path d="M326.504 194.732L348.103 209.131L369.701 194.732" stroke="white" stroke-width="2.16667" stroke-linecap="round" stroke-linejoin="round"/>
<path d="M153.897 12.83H149.641L148.857 15H147.513L151.041 5.298H152.511L156.025 15H154.681L153.897 12.83ZM153.533 11.794L151.769 6.866L150.005 11.794H153.533ZM158.879 5.242V15H157.605V5.242H158.879ZM175.087 7.328L172.693 15H171.377L169.529 8.91L167.681 15H166.365L163.957 7.328H165.259L167.023 13.768L168.927 7.328H170.229L172.091 13.782L173.827 7.328H175.087ZM183.393 10.87C183.393 11.1127 183.379 11.3693 183.351 11.64H177.219C177.266 12.396 177.522 12.9887 177.989 13.418C178.465 13.838 179.039 14.048 179.711 14.048C180.262 14.048 180.719 13.922 181.083 13.67C181.456 13.4087 181.718 13.0633 181.867 12.634H183.239C183.034 13.3713 182.623 13.9733 182.007 14.44C181.391 14.8973 180.626 15.126 179.711 15.126C178.983 15.126 178.33 14.9627 177.751 14.636C177.182 14.3093 176.734 13.8473 176.407 13.25C176.08 12.6433 175.917 11.9433 175.917 11.15C175.917 10.3567 176.076 9.66133 176.393 9.064C176.71 8.46667 177.154 8.00933 177.723 7.692C178.302 7.36533 178.964 7.202 179.711 7.202C180.439 7.202 181.083 7.36067 181.643 7.678C182.203 7.99533 182.632 8.434 182.931 8.994C183.239 9.54467 183.393 10.17 183.393 10.87ZM182.077 10.604C182.077 10.1187 181.97 9.70333 181.755 9.358C181.54 9.00333 181.246 8.73733 180.873 8.56C180.509 8.37333 180.103 8.28 179.655 8.28C179.011 8.28 178.46 8.48533 178.003 8.896C177.555 9.30667 177.298 9.876 177.233 10.604H182.077ZM186.391 8.756C186.652 8.29867 187.035 7.92533 187.539 7.636C188.043 7.34667 188.617 7.202 189.261 7.202C189.951 7.202 190.572 7.36533 191.123 7.692C191.673 8.01867 192.107 8.48067 192.425 9.078C192.742 9.666 192.901 10.352 192.901 11.136C192.901 11.9107 192.742 12.6013 192.425 13.208C192.107 13.8147 191.669 14.286 191.109 14.622C190.558 14.958 189.942 15.126 189.261 15.126C188.598 15.126 188.015 14.9813 187.511 14.692C187.016 14.4027 186.643 14.034 186.391 13.586V15H185.117V4.64H186.391V8.756ZM191.599 11.136C191.599 10.5573 191.482 10.0533 191.249 9.624C191.015 9.19467 190.698 8.868 190.297 8.644C189.905 8.42 189.471 8.308 188.995 8.308C188.528 8.308 188.094 8.42467 187.693 8.658C187.301 8.882 186.983 9.21333 186.741 9.652C186.507 10.0813 186.391 10.5807 186.391 11.15C186.391 11.7287 186.507 12.2373 186.741 12.676C186.983 13.1053 187.301 13.4367 187.693 13.67C188.094 13.894 188.528 14.006 188.995 14.006C189.471 14.006 189.905 13.894 190.297 13.67C190.698 13.4367 191.015 13.1053 191.249 12.676C191.482 12.2373 191.599 11.724 191.599 11.136ZM197.335 15.126C196.747 15.126 196.22 15.028 195.753 14.832C195.287 14.6267 194.918 14.3467 194.647 13.992C194.377 13.628 194.227 13.2127 194.199 12.746H195.515C195.553 13.1287 195.73 13.4413 196.047 13.684C196.374 13.9267 196.799 14.048 197.321 14.048C197.807 14.048 198.189 13.9407 198.469 13.726C198.749 13.5113 198.889 13.2407 198.889 12.914C198.889 12.578 198.74 12.3307 198.441 12.172C198.143 12.004 197.681 11.8407 197.055 11.682C196.486 11.5327 196.019 11.3833 195.655 11.234C195.301 11.0753 194.993 10.8467 194.731 10.548C194.479 10.24 194.353 9.83867 194.353 9.344C194.353 8.952 194.47 8.59267 194.703 8.266C194.937 7.93933 195.268 7.68267 195.697 7.496C196.127 7.3 196.617 7.202 197.167 7.202C198.017 7.202 198.703 7.41667 199.225 7.846C199.748 8.27533 200.028 8.86333 200.065 9.61H198.791C198.763 9.20867 198.6 8.88667 198.301 8.644C198.012 8.40133 197.62 8.28 197.125 8.28C196.668 8.28 196.304 8.378 196.033 8.574C195.763 8.77 195.627 9.02667 195.627 9.344C195.627 9.596 195.707 9.806 195.865 9.974C196.033 10.1327 196.239 10.2633 196.481 10.366C196.733 10.4593 197.079 10.5667 197.517 10.688C198.068 10.8373 198.516 10.9867 198.861 11.136C199.207 11.276 199.501 11.4907 199.743 11.78C199.995 12.0693 200.126 12.4473 200.135 12.914C200.135 13.334 200.019 13.712 199.785 14.048C199.552 14.384 199.221 14.65 198.791 14.846C198.371 15.0327 197.886 15.126 197.335 15.126ZM202.634 6.082C202.391 6.082 202.186 5.998 202.018 5.83C201.85 5.662 201.766 5.45667 201.766 5.214C201.766 4.97133 201.85 4.766 202.018 4.598C202.186 4.43 202.391 4.346 202.634 4.346C202.867 4.346 203.063 4.43 203.222 4.598C203.39 4.766 203.474 4.97133 203.474 5.214C203.474 5.45667 203.39 5.662 203.222 5.83C203.063 5.998 202.867 6.082 202.634 6.082ZM203.25 7.328V15H201.976V7.328H203.25ZM207.017 8.378V12.9C207.017 13.2733 207.097 13.5393 207.255 13.698C207.414 13.8473 207.689 13.922 208.081 13.922H209.019V15H207.871C207.162 15 206.63 14.8367 206.275 14.51C205.921 14.1833 205.743 13.6467 205.743 12.9V8.378H204.749V7.328H205.743V5.396H207.017V7.328H209.019V8.378H207.017ZM217.605 10.87C217.605 11.1127 217.591 11.3693 217.563 11.64H211.431C211.478 12.396 211.734 12.9887 212.201 13.418C212.677 13.838 213.251 14.048 213.923 14.048C214.474 14.048 214.931 13.922 215.295 13.67C215.668 13.4087 215.93 13.0633 216.079 12.634H217.451C217.246 13.3713 216.835 13.9733 216.219 14.44C215.603 14.8973 214.838 15.126 213.923 15.126C213.195 15.126 212.542 14.9627 211.963 14.636C211.394 14.3093 210.946 13.8473 210.619 13.25C210.292 12.6433 210.129 11.9433 210.129 11.15C210.129 10.3567 210.288 9.66133 210.605 9.064C210.922 8.46667 211.366 8.00933 211.935 7.692C212.514 7.36533 213.176 7.202 213.923 7.202C214.651 7.202 215.295 7.36067 215.855 7.678C216.415 7.99533 216.844 8.434 217.143 8.994C217.451 9.54467 217.605 10.17 217.605 10.87ZM216.289 10.604C216.289 10.1187 216.182 9.70333 215.967 9.358C215.752 9.00333 215.458 8.73733 215.085 8.56C214.721 8.37333 214.315 8.28 213.867 8.28C213.223 8.28 212.672 8.48533 212.215 8.896C211.767 9.30667 211.51 9.876 211.445 10.604H216.289ZM224.377 8.756C224.638 8.29867 225.021 7.92533 225.525 7.636C226.029 7.34667 226.603 7.202 227.247 7.202C227.938 7.202 228.558 7.36533 229.109 7.692C229.66 8.01867 230.094 8.48067 230.411 9.078C230.728 9.666 230.887 10.352 230.887 11.136C230.887 11.9107 230.728 12.6013 230.411 13.208C230.094 13.8147 229.655 14.286 229.095 14.622C228.544 14.958 227.928 15.126 227.247 15.126C226.584 15.126 226.001 14.9813 225.497 14.692C225.002 14.4027 224.629 14.034 224.377 13.586V15H223.103V4.64H224.377V8.756ZM229.585 11.136C229.585 10.5573 229.468 10.0533 229.235 9.624C229.002 9.19467 228.684 8.868 228.283 8.644C227.891 8.42 227.457 8.308 226.981 8.308C226.514 8.308 226.08 8.42467 225.679 8.658C225.287 8.882 224.97 9.21333 224.727 9.652C224.494 10.0813 224.377 10.5807 224.377 11.15C224.377 11.7287 224.494 12.2373 224.727 12.676C224.97 13.1053 225.287 13.4367 225.679 13.67C226.08 13.894 226.514 14.006 226.981 14.006C227.457 14.006 227.891 13.894 228.283 13.67C228.684 13.4367 229.002 13.1053 229.235 12.676C229.468 12.2373 229.585 11.724 229.585 11.136ZM239.41 7.328V15H238.136V13.866C237.893 14.258 237.553 14.566 237.114 14.79C236.685 15.0047 236.209 15.112 235.686 15.112C235.089 15.112 234.552 14.9907 234.076 14.748C233.6 14.496 233.222 14.1227 232.942 13.628C232.671 13.1333 232.536 12.5313 232.536 11.822V7.328H233.796V11.654C233.796 12.41 233.987 12.9933 234.37 13.404C234.753 13.8053 235.275 14.006 235.938 14.006C236.619 14.006 237.156 13.796 237.548 13.376C237.94 12.956 238.136 12.3447 238.136 11.542V7.328H239.41ZM242.261 6.082C242.018 6.082 241.813 5.998 241.645 5.83C241.477 5.662 241.393 5.45667 241.393 5.214C241.393 4.97133 241.477 4.766 241.645 4.598C241.813 4.43 242.018 4.346 242.261 4.346C242.494 4.346 242.69 4.43 242.849 4.598C243.017 4.766 243.101 4.97133 243.101 5.214C243.101 5.45667 243.017 5.662 242.849 5.83C242.69 5.998 242.494 6.082 242.261 6.082ZM242.877 7.328V15H241.603V7.328H242.877ZM246.364 4.64V15H245.09V4.64H246.364ZM248.102 11.136C248.102 10.352 248.26 9.666 248.578 9.078C248.895 8.48067 249.329 8.01867 249.88 7.692C250.44 7.36533 251.065 7.202 251.756 7.202C252.353 7.202 252.908 7.342 253.422 7.622C253.935 7.89267 254.327 8.252 254.598 8.7V4.64H255.886V15H254.598V13.558C254.346 14.0153 253.972 14.3933 253.478 14.692C252.983 14.9813 252.404 15.126 251.742 15.126C251.06 15.126 250.44 14.958 249.88 14.622C249.329 14.286 248.895 13.8147 248.578 13.208C248.26 12.6013 248.102 11.9107 248.102 11.136ZM254.598 11.15C254.598 10.5713 254.481 10.0673 254.248 9.638C254.014 9.20867 253.697 8.882 253.296 8.658C252.904 8.42467 252.47 8.308 251.994 8.308C251.518 8.308 251.084 8.42 250.692 8.644C250.3 8.868 249.987 9.19467 249.754 9.624C249.52 10.0533 249.404 10.5573 249.404 11.136C249.404 11.724 249.52 12.2373 249.754 12.676C249.987 13.1053 250.3 13.4367 250.692 13.67C251.084 13.894 251.518 14.006 251.994 14.006C252.47 14.006 252.904 13.894 253.296 13.67C253.697 13.4367 254.014 13.1053 254.248 12.676C254.481 12.2373 254.598 11.7287 254.598 11.15ZM265.081 10.87C265.081 11.1127 265.067 11.3693 265.039 11.64H258.907C258.953 12.396 259.21 12.9887 259.677 13.418C260.153 13.838 260.727 14.048 261.399 14.048C261.949 14.048 262.407 13.922 262.771 13.67C263.144 13.4087 263.405 13.0633 263.555 12.634H264.927C264.721 13.3713 264.311 13.9733 263.695 14.44C263.079 14.8973 262.313 15.126 261.399 15.126C260.671 15.126 260.017 14.9627 259.439 14.636C258.869 14.3093 258.421 13.8473 258.095 13.25C257.768 12.6433 257.605 11.9433 257.605 11.15C257.605 10.3567 257.763 9.66133 258.081 9.064C258.398 8.46667 258.841 8.00933 259.411 7.692C259.989 7.36533 260.652 7.202 261.399 7.202C262.127 7.202 262.771 7.36067 263.331 7.678C263.891 7.99533 264.32 8.434 264.619 8.994C264.927 9.54467 265.081 10.17 265.081 10.87ZM263.765 10.604C263.765 10.1187 263.657 9.70333 263.443 9.358C263.228 9.00333 262.934 8.73733 262.561 8.56C262.197 8.37333 261.791 8.28 261.343 8.28C260.699 8.28 260.148 8.48533 259.691 8.896C259.243 9.30667 258.986 9.876 258.921 10.604H263.765ZM268.078 8.574C268.302 8.13533 268.619 7.79467 269.03 7.552C269.45 7.30933 269.959 7.188 270.556 7.188V8.504H270.22C268.792 8.504 268.078 9.27867 268.078 10.828V15H266.804V7.328H268.078V8.574Z" fill="#666666"/>
<path d="M7.18578 275.83H2.92978L2.14578 278H0.801783L4.32978 268.298H5.79978L9.31378 278H7.96978L7.18578 275.83ZM6.82178 274.794L5.05778 269.866L3.29378 274.794H6.82178ZM12.1674 268.242V278H10.8934V268.242H12.1674ZM17.6791 274.136C17.6791 273.352 17.8378 272.666 18.1551 272.078C18.4724 271.481 18.9064 271.019 19.4571 270.692C20.0171 270.365 20.6378 270.202 21.3191 270.202C21.9911 270.202 22.5744 270.347 23.0691 270.636C23.5638 270.925 23.9324 271.289 24.1751 271.728V270.328H25.4631V278H24.1751V276.572C23.9231 277.02 23.5451 277.393 23.0411 277.692C22.5464 277.981 21.9678 278.126 21.3051 278.126C20.6238 278.126 20.0078 277.958 19.4571 277.622C18.9064 277.286 18.4724 276.815 18.1551 276.208C17.8378 275.601 17.6791 274.911 17.6791 274.136ZM24.1751 274.15C24.1751 273.571 24.0584 273.067 23.8251 272.638C23.5918 272.209 23.2744 271.882 22.8731 271.658C22.4811 271.425 22.0471 271.308 21.5711 271.308C21.0951 271.308 20.6611 271.42 20.2691 271.644C19.8771 271.868 19.5644 272.195 19.3311 272.624C19.0978 273.053 18.9811 273.557 18.9811 274.136C18.9811 274.724 19.0978 275.237 19.3311 275.676C19.5644 276.105 19.8771 276.437 20.2691 276.67C20.6611 276.894 21.0951 277.006 21.5711 277.006C22.0471 277.006 22.4811 276.894 22.8731 276.67C23.2744 276.437 23.5918 276.105 23.8251 275.676C24.0584 275.237 24.1751 274.729 24.1751 274.15ZM28.932 271.574C29.156 271.135 29.4734 270.795 29.884 270.552C30.304 270.309 30.8127 270.188 31.41 270.188V271.504H31.074C29.646 271.504 28.932 272.279 28.932 273.828V278H27.658V270.328H28.932V271.574ZM34.4767 271.378V275.9C34.4767 276.273 34.556 276.539 34.7147 276.698C34.8734 276.847 35.1487 276.922 35.5407 276.922H36.4787V278H35.3307C34.6214 278 34.0894 277.837 33.7347 277.51C33.38 277.183 33.2027 276.647 33.2027 275.9V271.378H32.2087V270.328H33.2027V268.396H34.4767V270.328H36.4787V271.378H34.4767ZM38.7223 269.082C38.4796 269.082 38.2743 268.998 38.1063 268.83C37.9383 268.662 37.8543 268.457 37.8543 268.214C37.8543 267.971 37.9383 267.766 38.1063 267.598C38.2743 267.43 38.4796 267.346 38.7223 267.346C38.9556 267.346 39.1516 267.43 39.3103 267.598C39.4783 267.766 39.5623 267.971 39.5623 268.214C39.5623 268.457 39.4783 268.662 39.3103 268.83C39.1516 268.998 38.9556 269.082 38.7223 269.082ZM39.3383 270.328V278H38.0643V270.328H39.3383ZM41.0756 274.15C41.0756 273.357 41.2343 272.666 41.5516 272.078C41.869 271.481 42.3076 271.019 42.8676 270.692C43.437 270.365 44.0856 270.202 44.8136 270.202C45.7563 270.202 46.531 270.431 47.1376 270.888C47.7536 271.345 48.1596 271.98 48.3556 272.792H46.9836C46.853 272.325 46.5963 271.957 46.2136 271.686C45.8403 271.415 45.3736 271.28 44.8136 271.28C44.0856 271.28 43.4976 271.532 43.0496 272.036C42.6016 272.531 42.3776 273.235 42.3776 274.15C42.3776 275.074 42.6016 275.788 43.0496 276.292C43.4976 276.796 44.0856 277.048 44.8136 277.048C45.3736 277.048 45.8403 276.917 46.2136 276.656C46.587 276.395 46.8436 276.021 46.9836 275.536H48.3556C48.1503 276.32 47.7396 276.95 47.1236 277.426C46.5076 277.893 45.7376 278.126 44.8136 278.126C44.0856 278.126 43.437 277.963 42.8676 277.636C42.3076 277.309 41.869 276.847 41.5516 276.25C41.2343 275.653 41.0756 274.953 41.0756 274.15ZM51.3715 267.64V278H50.0975V267.64H51.3715ZM60.5848 273.87C60.5848 274.113 60.5708 274.369 60.5428 274.64H54.4108C54.4575 275.396 54.7142 275.989 55.1808 276.418C55.6568 276.838 56.2308 277.048 56.9028 277.048C57.4535 277.048 57.9108 276.922 58.2748 276.67C58.6482 276.409 58.9095 276.063 59.0588 275.634H60.4308C60.2255 276.371 59.8148 276.973 59.1988 277.44C58.5828 277.897 57.8175 278.126 56.9028 278.126C56.1748 278.126 55.5215 277.963 54.9428 277.636C54.3735 277.309 53.9255 276.847 53.5988 276.25C53.2722 275.643 53.1088 274.943 53.1088 274.15C53.1088 273.357 53.2675 272.661 53.5848 272.064C53.9022 271.467 54.3455 271.009 54.9148 270.692C55.4935 270.365 56.1562 270.202 56.9028 270.202C57.6308 270.202 58.2748 270.361 58.8348 270.678C59.3948 270.995 59.8242 271.434 60.1228 271.994C60.4308 272.545 60.5848 273.17 60.5848 273.87ZM59.2688 273.604C59.2688 273.119 59.1615 272.703 58.9468 272.358C58.7322 272.003 58.4382 271.737 58.0648 271.56C57.7008 271.373 57.2948 271.28 56.8468 271.28C56.2028 271.28 55.6522 271.485 55.1948 271.896C54.7468 272.307 54.4902 272.876 54.4248 273.604H59.2688ZM76.3029 270.328L73.9089 278H72.5929L70.7449 271.91L68.8969 278H67.5809L65.1729 270.328H66.4749L68.2389 276.768L70.1429 270.328H71.4449L73.3069 276.782L75.0429 270.328H76.3029ZM78.2673 269.082C78.0246 269.082 77.8193 268.998 77.6513 268.83C77.4833 268.662 77.3993 268.457 77.3993 268.214C77.3993 267.971 77.4833 267.766 77.6513 267.598C77.8193 267.43 78.0246 267.346 78.2673 267.346C78.5006 267.346 78.6966 267.43 78.8553 267.598C79.0233 267.766 79.1073 267.971 79.1073 268.214C79.1073 268.457 79.0233 268.662 78.8553 268.83C78.6966 268.998 78.5006 269.082 78.2673 269.082ZM78.8833 270.328V278H77.6093V270.328H78.8833ZM82.0486 276.95H85.8146V278H80.5926V276.95L84.3166 271.364H80.6206V270.328H85.7866V271.364L82.0486 276.95ZM87.0337 274.136C87.0337 273.352 87.1924 272.666 87.5097 272.078C87.827 271.481 88.261 271.019 88.8117 270.692C89.3717 270.365 89.9924 270.202 90.6737 270.202C91.3457 270.202 91.929 270.347 92.4237 270.636C92.9184 270.925 93.287 271.289 93.5297 271.728V270.328H94.8177V278H93.5297V276.572C93.2777 277.02 92.8997 277.393 92.3957 277.692C91.901 277.981 91.3224 278.126 90.6597 278.126C89.9784 278.126 89.3624 277.958 88.8117 277.622C88.261 277.286 87.827 276.815 87.5097 276.208C87.1924 275.601 87.0337 274.911 87.0337 274.136ZM93.5297 274.15C93.5297 273.571 93.413 273.067 93.1797 272.638C92.9464 272.209 92.629 271.882 92.2277 271.658C91.8357 271.425 91.4017 271.308 90.9257 271.308C90.4497 271.308 90.0157 271.42 89.6237 271.644C89.2317 271.868 88.919 272.195 88.6857 272.624C88.4524 273.053 88.3357 273.557 88.3357 274.136C88.3357 274.724 88.4524 275.237 88.6857 275.676C88.919 276.105 89.2317 276.437 89.6237 276.67C90.0157 276.894 90.4497 277.006 90.9257 277.006C91.4017 277.006 91.8357 276.894 92.2277 276.67C92.629 276.437 92.9464 276.105 93.1797 275.676C93.413 275.237 93.5297 274.729 93.5297 274.15ZM98.2866 271.574C98.5106 271.135 98.828 270.795 99.2386 270.552C99.6586 270.309 100.167 270.188 100.765 270.188V271.504H100.429C99.0006 271.504 98.2866 272.279 98.2866 273.828V278H97.0126V270.328H98.2866V271.574ZM101.801 274.136C101.801 273.352 101.96 272.666 102.277 272.078C102.595 271.481 103.029 271.019 103.579 270.692C104.139 270.365 104.765 270.202 105.455 270.202C106.053 270.202 106.608 270.342 107.121 270.622C107.635 270.893 108.027 271.252 108.297 271.7V267.64H109.585V278H108.297V276.558C108.045 277.015 107.672 277.393 107.177 277.692C106.683 277.981 106.104 278.126 105.441 278.126C104.76 278.126 104.139 277.958 103.579 277.622C103.029 277.286 102.595 276.815 102.277 276.208C101.96 275.601 101.801 274.911 101.801 274.136ZM108.297 274.15C108.297 273.571 108.181 273.067 107.947 272.638C107.714 272.209 107.397 271.882 106.995 271.658C106.603 271.425 106.169 271.308 105.693 271.308C105.217 271.308 104.783 271.42 104.391 271.644C103.999 271.868 103.687 272.195 103.453 272.624C103.22 273.053 103.103 273.557 103.103 274.136C103.103 274.724 103.22 275.237 103.453 275.676C103.687 276.105 103.999 276.437 104.391 276.67C104.783 276.894 105.217 277.006 105.693 277.006C106.169 277.006 106.603 276.894 106.995 276.67C107.397 276.437 107.714 276.105 107.947 275.676C108.181 275.237 108.297 274.729 108.297 274.15Z" fill="#666666"/>
<path d="M305.295 273.83H301.039L300.255 276H298.911L302.439 266.298H303.909L307.423 276H306.079L305.295 273.83ZM304.931 272.794L303.167 267.866L301.403 272.794H304.931ZM310.276 266.242V276H309.002V266.242H310.276ZM323.264 271.87C323.264 272.113 323.25 272.369 323.222 272.64H317.09C317.137 273.396 317.393 273.989 317.86 274.418C318.336 274.838 318.91 275.048 319.582 275.048C320.133 275.048 320.59 274.922 320.954 274.67C321.327 274.409 321.589 274.063 321.738 273.634H323.11C322.905 274.371 322.494 274.973 321.878 275.44C321.262 275.897 320.497 276.126 319.582 276.126C318.854 276.126 318.201 275.963 317.622 275.636C317.053 275.309 316.605 274.847 316.278 274.25C315.951 273.643 315.788 272.943 315.788 272.15C315.788 271.357 315.947 270.661 316.264 270.064C316.581 269.467 317.025 269.009 317.594 268.692C318.173 268.365 318.835 268.202 319.582 268.202C320.31 268.202 320.954 268.361 321.514 268.678C322.074 268.995 322.503 269.434 322.802 269.994C323.11 270.545 323.264 271.17 323.264 271.87ZM321.948 271.604C321.948 271.119 321.841 270.703 321.626 270.358C321.411 270.003 321.117 269.737 320.744 269.56C320.38 269.373 319.974 269.28 319.526 269.28C318.882 269.28 318.331 269.485 317.874 269.896C317.426 270.307 317.169 270.876 317.104 271.604H321.948ZM334.214 268.188C334.811 268.188 335.343 268.314 335.81 268.566C336.276 268.809 336.645 269.177 336.916 269.672C337.186 270.167 337.322 270.769 337.322 271.478V276H336.062V271.66C336.062 270.895 335.87 270.311 335.488 269.91C335.114 269.499 334.606 269.294 333.962 269.294C333.299 269.294 332.772 269.509 332.38 269.938C331.988 270.358 331.792 270.969 331.792 271.772V276H330.532V271.66C330.532 270.895 330.34 270.311 329.958 269.91C329.584 269.499 329.076 269.294 328.432 269.294C327.769 269.294 327.242 269.509 326.85 269.938C326.458 270.358 326.262 270.969 326.262 271.772V276H324.988V268.328H326.262V269.434C326.514 269.033 326.85 268.725 327.27 268.51C327.699 268.295 328.17 268.188 328.684 268.188C329.328 268.188 329.897 268.333 330.392 268.622C330.886 268.911 331.255 269.336 331.498 269.896C331.712 269.355 332.067 268.935 332.562 268.636C333.056 268.337 333.607 268.188 334.214 268.188ZM338.977 272.136C338.977 271.352 339.136 270.666 339.453 270.078C339.771 269.481 340.205 269.019 340.755 268.692C341.315 268.365 341.936 268.202 342.617 268.202C343.289 268.202 343.873 268.347 344.367 268.636C344.862 268.925 345.231 269.289 345.473 269.728V268.328H346.761V276H345.473V274.572C345.221 275.02 344.843 275.393 344.339 275.692C343.845 275.981 343.266 276.126 342.603 276.126C341.922 276.126 341.306 275.958 340.755 275.622C340.205 275.286 339.771 274.815 339.453 274.208C339.136 273.601 338.977 272.911 338.977 272.136ZM345.473 272.15C345.473 271.571 345.357 271.067 345.123 270.638C344.89 270.209 344.573 269.882 344.171 269.658C343.779 269.425 343.345 269.308 342.869 269.308C342.393 269.308 341.959 269.42 341.567 269.644C341.175 269.868 340.863 270.195 340.629 270.624C340.396 271.053 340.279 271.557 340.279 272.136C340.279 272.724 340.396 273.237 340.629 273.676C340.863 274.105 341.175 274.437 341.567 274.67C341.959 274.894 342.393 275.006 342.869 275.006C343.345 275.006 343.779 274.894 344.171 274.67C344.573 274.437 344.89 274.105 345.123 273.676C345.357 273.237 345.473 272.729 345.473 272.15ZM349.614 267.082C349.372 267.082 349.166 266.998 348.998 266.83C348.83 266.662 348.746 266.457 348.746 266.214C348.746 265.971 348.83 265.766 348.998 265.598C349.166 265.43 349.372 265.346 349.614 265.346C349.848 265.346 350.044 265.43 350.202 265.598C350.37 265.766 350.454 265.971 350.454 266.214C350.454 266.457 350.37 266.662 350.202 266.83C350.044 266.998 349.848 267.082 349.614 267.082ZM350.23 268.328V276H348.956V268.328H350.23ZM353.718 265.64V276H352.444V265.64H353.718ZM360.979 269.756C361.241 269.299 361.623 268.925 362.127 268.636C362.631 268.347 363.205 268.202 363.849 268.202C364.54 268.202 365.161 268.365 365.711 268.692C366.262 269.019 366.696 269.481 367.013 270.078C367.331 270.666 367.489 271.352 367.489 272.136C367.489 272.911 367.331 273.601 367.013 274.208C366.696 274.815 366.257 275.286 365.697 275.622C365.147 275.958 364.531 276.126 363.849 276.126C363.187 276.126 362.603 275.981 362.099 275.692C361.605 275.403 361.231 275.034 360.979 274.586V276H359.705V265.64H360.979V269.756ZM366.187 272.136C366.187 271.557 366.071 271.053 365.837 270.624C365.604 270.195 365.287 269.868 364.885 269.644C364.493 269.42 364.059 269.308 363.583 269.308C363.117 269.308 362.683 269.425 362.281 269.658C361.889 269.882 361.572 270.213 361.329 270.652C361.096 271.081 360.979 271.581 360.979 272.15C360.979 272.729 361.096 273.237 361.329 273.676C361.572 274.105 361.889 274.437 362.281 274.67C362.683 274.894 363.117 275.006 363.583 275.006C364.059 275.006 364.493 274.894 364.885 274.67C365.287 274.437 365.604 274.105 365.837 273.676C366.071 273.237 366.187 272.724 366.187 272.136ZM376.012 268.328V276H374.738V274.866C374.496 275.258 374.155 275.566 373.716 275.79C373.287 276.005 372.811 276.112 372.288 276.112C371.691 276.112 371.154 275.991 370.678 275.748C370.202 275.496 369.824 275.123 369.544 274.628C369.274 274.133 369.138 273.531 369.138 272.822V268.328H370.398V272.654C370.398 273.41 370.59 273.993 370.972 274.404C371.355 274.805 371.878 275.006 372.54 275.006C373.222 275.006 373.758 274.796 374.15 274.376C374.542 273.956 374.738 273.345 374.738 272.542V268.328H376.012ZM378.863 267.082C378.621 267.082 378.415 266.998 378.247 266.83C378.079 266.662 377.995 266.457 377.995 266.214C377.995 265.971 378.079 265.766 378.247 265.598C378.415 265.43 378.621 265.346 378.863 265.346C379.097 265.346 379.293 265.43 379.451 265.598C379.619 265.766 379.703 265.971 379.703 266.214C379.703 266.457 379.619 266.662 379.451 266.83C379.293 266.998 379.097 267.082 378.863 267.082ZM379.479 268.328V276H378.205V268.328H379.479ZM382.967 265.64V276H381.693V265.64H382.967ZM384.704 272.136C384.704 271.352 384.863 270.666 385.18 270.078C385.497 269.481 385.931 269.019 386.482 268.692C387.042 268.365 387.667 268.202 388.358 268.202C388.955 268.202 389.511 268.342 390.024 268.622C390.537 268.893 390.929 269.252 391.2 269.7V265.64H392.488V276H391.2V274.558C390.948 275.015 390.575 275.393 390.08 275.692C389.585 275.981 389.007 276.126 388.344 276.126C387.663 276.126 387.042 275.958 386.482 275.622C385.931 275.286 385.497 274.815 385.18 274.208C384.863 273.601 384.704 272.911 384.704 272.136ZM391.2 272.15C391.2 271.571 391.083 271.067 390.85 270.638C390.617 270.209 390.299 269.882 389.898 269.658C389.506 269.425 389.072 269.308 388.596 269.308C388.12 269.308 387.686 269.42 387.294 269.644C386.902 269.868 386.589 270.195 386.356 270.624C386.123 271.053 386.006 271.557 386.006 272.136C386.006 272.724 386.123 273.237 386.356 273.676C386.589 274.105 386.902 274.437 387.294 274.67C387.686 274.894 388.12 275.006 388.596 275.006C389.072 275.006 389.506 274.894 389.898 274.67C390.299 274.437 390.617 274.105 390.85 273.676C391.083 273.237 391.2 272.729 391.2 272.15ZM401.683 271.87C401.683 272.113 401.669 272.369 401.641 272.64H395.509C395.556 273.396 395.812 273.989 396.279 274.418C396.755 274.838 397.329 275.048 398.001 275.048C398.552 275.048 399.009 274.922 399.373 274.67C399.746 274.409 400.008 274.063 400.157 273.634H401.529C401.324 274.371 400.913 274.973 400.297 275.44C399.681 275.897 398.916 276.126 398.001 276.126C397.273 276.126 396.62 275.963 396.041 275.636C395.472 275.309 395.024 274.847 394.697 274.25C394.37 273.643 394.207 272.943 394.207 272.15C394.207 271.357 394.366 270.661 394.683 270.064C395 269.467 395.444 269.009 396.013 268.692C396.592 268.365 397.254 268.202 398.001 268.202C398.729 268.202 399.373 268.361 399.933 268.678C400.493 268.995 400.922 269.434 401.221 269.994C401.529 270.545 401.683 271.17 401.683 271.87ZM400.367 271.604C400.367 271.119 400.26 270.703 400.045 270.358C399.83 270.003 399.536 269.737 399.163 269.56C398.799 269.373 398.393 269.28 397.945 269.28C397.301 269.28 396.75 269.485 396.293 269.896C395.845 270.307 395.588 270.876 395.523 271.604H400.367ZM404.681 269.574C404.905 269.135 405.222 268.795 405.633 268.552C406.053 268.309 406.561 268.188 407.159 268.188V269.504H406.823C405.395 269.504 404.681 270.279 404.681 271.828V276H403.407V268.328H404.681V269.574Z" fill="#666666"/>
</svg>
