<svg width="559" height="268" viewBox="0 0 559 268" fill="none" xmlns="http://www.w3.org/2000/svg">
<circle cx="276.091" cy="13.2669" r="13.2669" fill="#034737"/>
<path d="M479.176 216.556C479.176 104.057 387.978 12.8588 275.479 12.8588C162.98 12.8588 71.7812 104.057 71.7812 216.556" stroke="#034737" stroke-width="1.1254" stroke-dasharray="16.88 16.88"/>
<path d="M28 183.243C28 172.042 28 166.441 30.1799 162.163C32.0973 158.4 35.1569 155.34 38.9202 153.423C43.1984 151.243 48.799 151.243 60 151.243H86C97.2011 151.243 102.802 151.243 107.08 153.423C110.843 155.34 113.903 158.4 115.82 162.163C118 166.441 118 172.042 118 183.243V209.243C118 220.444 118 226.045 115.82 230.323C113.903 234.086 110.843 237.146 107.08 239.063C102.802 241.243 97.201 241.243 86 241.243H60C48.7989 241.243 43.1984 241.243 38.9202 239.063C35.1569 237.146 32.0973 234.086 30.1799 230.323C28 226.045 28 220.444 28 209.243V183.243Z" fill="#034737"/>
<path d="M86.5752 196.624C86.2567 195.789 85.6493 195.086 84.8326 194.67C83.2157 193.826 81.1904 194.305 80.1248 195.791L77.3824 199.619C76.8932 199.072 76.2461 198.656 75.4846 198.466L69.4074 196.952C66.9889 196.349 64.438 196.837 62.4123 198.291L55.9751 202.909C55.7002 203.106 55.5371 203.424 55.5371 203.762V214.206C55.5371 214.786 56.0074 215.256 56.5874 215.256H61.1307C61.322 215.256 61.5097 215.204 61.6738 215.105L66.5647 212.151L78.8478 211.708C79.0832 211.7 79.3088 211.612 79.4883 211.46L89.3779 203.089C90.8842 201.815 91.119 199.593 89.9128 198.032C89.1083 196.991 87.8259 196.494 86.5752 196.624ZM81.832 197.014C82.2915 196.376 83.1623 196.168 83.8695 196.537C84.2184 196.714 84.4689 197.017 84.6062 197.372L79.5165 200.248L81.832 197.014ZM88.021 201.486L78.4088 209.622L66.217 210.061C66.0386 210.068 65.8647 210.12 65.7119 210.212L60.8383 213.155H57.6377V204.301L63.6369 199.998C65.1616 198.905 67.0801 198.537 68.8997 198.99L74.9763 200.504C75.8333 200.718 76.3805 201.56 76.2225 202.421C76.0615 203.296 75.2368 203.89 74.3425 203.779L71.4146 203.402C70.8413 203.325 70.3125 203.733 70.2387 204.309C70.1643 204.884 70.571 205.411 71.1459 205.485L74.0742 205.862C75.8441 206.091 77.4964 205.063 78.1057 203.457L86.1778 198.897C86.8722 198.507 87.7635 198.685 88.2502 199.316C88.7677 199.986 88.6671 200.939 88.021 201.486ZM64.041 183.977C63.8621 183.426 63.2697 183.124 62.7174 183.302L61.8825 183.574V182.696C61.8825 182.116 61.4122 181.645 60.8322 181.645C60.2522 181.645 59.7819 182.116 59.7819 182.696V183.574L58.9475 183.302C58.3962 183.124 57.8029 183.426 57.6239 183.977C57.4449 184.529 57.7464 185.121 58.2983 185.301L59.1326 185.572L58.6167 186.282C58.2757 186.751 58.3798 187.408 58.8491 187.749C59.3126 188.085 59.9785 187.981 60.3163 187.516L60.8322 186.806L61.3481 187.516C61.6713 187.961 62.3522 188.085 62.8154 187.749C63.2846 187.408 63.3887 186.751 63.0477 186.282L62.5319 185.572L63.3667 185.3C63.9185 185.121 64.22 184.529 64.041 183.977ZM74.6661 185.301L75.5009 185.572L74.9851 186.282C74.644 186.751 74.7481 187.408 75.2174 187.749C75.683 188.087 76.3468 187.981 76.6846 187.516L77.2005 186.806C77.2005 186.806 77.7143 187.514 77.7164 187.516C78.0491 187.974 78.7281 188.079 79.1837 187.749C79.6529 187.408 79.757 186.751 79.416 186.282L78.9002 185.572L79.735 185.301C80.2868 185.121 80.5884 184.529 80.4094 183.977C80.2304 183.426 79.6386 183.124 79.0857 183.302L78.2508 183.574V182.696C78.2508 182.116 77.7806 181.645 77.2005 181.645C76.6205 181.645 76.1502 182.116 76.1502 182.696V183.574L75.3153 183.302C74.7625 183.124 74.1712 183.426 73.9917 183.977C73.8127 184.529 74.1143 185.121 74.6661 185.301ZM69.0166 181.645C68.4366 181.645 67.9663 182.116 67.9663 182.696V183.574L67.1314 183.302C66.5791 183.124 65.9868 183.426 65.8078 183.977C65.6288 184.529 65.9303 185.121 66.4822 185.301L67.3169 185.572L66.8011 186.282C66.4601 186.751 66.5642 187.408 67.0334 187.749C67.4795 188.073 68.1625 187.981 68.5007 187.516L69.0166 186.806L69.5325 187.516C69.8564 187.962 70.5259 188.093 70.9998 187.749C71.469 187.408 71.5731 186.751 71.2321 186.282L70.7163 185.572L71.5511 185.3C72.1029 185.121 72.4044 184.529 72.2255 183.977C72.0465 183.426 71.4552 183.123 70.9018 183.302L70.0669 183.574V182.696C70.0669 182.116 69.5966 181.645 69.0166 181.645ZM85.385 181.645C84.8049 181.645 84.3347 182.116 84.3347 182.696V183.574L83.4998 183.302C82.9479 183.124 82.3551 183.426 82.1761 183.977C81.9971 184.529 82.2987 185.121 82.8505 185.301L83.6853 185.572L83.1695 186.282C82.8285 186.751 82.9326 187.408 83.4017 187.749C83.8467 188.072 84.5259 187.988 84.8691 187.516L85.385 186.806L85.9009 187.516C86.2248 187.962 86.8961 188.091 87.3681 187.749C87.8374 187.408 87.9415 186.751 87.6004 186.282L87.0846 185.572L87.9189 185.301C88.4707 185.121 88.7723 184.529 88.5933 183.977C88.4138 183.426 87.824 183.124 87.2697 183.302L86.4353 183.574V182.696C86.4353 182.116 85.965 181.645 85.385 181.645Z" fill="white"/>
<path d="M89.9128 177.445H77.3092C76.7292 177.445 76.2589 177.916 76.2589 178.496C76.2589 179.076 76.7292 179.546 77.3092 179.546H89.9128C90.4918 179.546 90.9631 180.017 90.9631 180.596V188.999C90.9631 189.578 90.4918 190.049 89.9128 190.049H75.2927C74.9809 190.049 74.685 190.187 74.4855 190.427L73.108 192.083L71.7305 190.427C71.531 190.187 71.2351 190.049 70.9233 190.049H56.3032C55.7242 190.049 55.2529 189.578 55.2529 188.999V180.596C55.2529 180.017 55.7242 179.546 56.3032 179.546H68.9068C69.4868 179.546 69.9571 179.076 69.9571 178.496C69.9571 177.916 69.4868 177.445 68.9068 177.445H56.3032C54.5657 177.445 53.1523 178.859 53.1523 180.596V188.999C53.1523 190.736 54.5657 192.149 56.3032 192.149H70.431C70.431 192.149 72.2985 194.394 72.3008 194.397C72.7157 194.895 73.5007 194.895 73.9152 194.397L75.785 192.149H89.9128C91.6503 192.149 93.0637 190.736 93.0637 188.999V180.596C93.0637 178.859 91.6503 177.445 89.9128 177.445Z" fill="white"/>
<path d="M73.1089 179.546C73.689 179.546 74.1592 179.076 74.1592 178.496C74.1592 177.916 73.689 177.445 73.1089 177.445C72.5288 177.445 72.0586 177.916 72.0586 178.496C72.0586 179.076 72.5288 179.546 73.1089 179.546Z" fill="white"/>
<path d="M433.969 183C433.969 171.799 433.969 166.198 436.149 161.92C438.066 158.157 441.126 155.097 444.889 153.18C449.167 151 454.768 151 465.969 151H491.969C503.17 151 508.77 151 513.049 153.18C516.812 155.097 519.871 158.157 521.789 161.92C523.969 166.198 523.969 171.799 523.969 183V209C523.969 220.201 523.969 225.802 521.789 230.08C519.871 233.843 516.812 236.903 513.049 238.82C508.77 241 503.17 241 491.969 241H465.969C454.768 241 449.167 241 444.889 238.82C441.126 236.903 438.066 233.843 436.149 230.08C433.969 225.802 433.969 220.201 433.969 209V183Z" fill="#034737"/>
<path d="M472.75 196V187.667" stroke="white" stroke-width="2.70833" stroke-linecap="round" stroke-linejoin="round"/>
<path d="M485.25 196V191.833" stroke="white" stroke-width="2.70833" stroke-linecap="round" stroke-linejoin="round"/>
<path d="M479 196V193.917" stroke="white" stroke-width="2.70833" stroke-linecap="round" stroke-linejoin="round"/>
<path d="M460.25 179.333H497.75" stroke="white" stroke-width="2.70833" stroke-linecap="round" stroke-linejoin="round"/>
<path d="M462.333 179.333V200.167C462.333 202.468 464.199 204.333 466.5 204.333H491.5C493.801 204.333 495.667 202.468 495.667 200.167V179.333" stroke="white" stroke-width="2.70833" stroke-linecap="round" stroke-linejoin="round"/>
<path d="M479 204.333V212.667" stroke="white" stroke-width="2.70833" stroke-linecap="round" stroke-linejoin="round"/>
<path d="M472.75 212.667H485.25" stroke="white" stroke-width="2.70833" stroke-linecap="round" stroke-linejoin="round"/>
<path d="M6.34435 264L4.02035 260.01H2.48035V264H1.20635V254.242H4.35635C5.09368 254.242 5.71435 254.368 6.21835 254.62C6.73168 254.872 7.11435 255.213 7.36635 255.642C7.61835 256.071 7.74435 256.561 7.74435 257.112C7.74435 257.784 7.54835 258.377 7.15635 258.89C6.77368 259.403 6.19502 259.744 5.42035 259.912L7.87035 264H6.34435ZM2.48035 258.988H4.35635C5.04702 258.988 5.56502 258.82 5.91035 258.484C6.25568 258.139 6.42835 257.681 6.42835 257.112C6.42835 256.533 6.25568 256.085 5.91035 255.768C5.57435 255.451 5.05635 255.292 4.35635 255.292H2.48035V258.988ZM16.7659 259.87C16.7659 260.113 16.7519 260.369 16.7239 260.64H10.5919C10.6386 261.396 10.8953 261.989 11.3619 262.418C11.8379 262.838 12.4119 263.048 13.0839 263.048C13.6346 263.048 14.0919 262.922 14.4559 262.67C14.8293 262.409 15.0906 262.063 15.2399 261.634H16.6119C16.4066 262.371 15.9959 262.973 15.3799 263.44C14.7639 263.897 13.9986 264.126 13.0839 264.126C12.3559 264.126 11.7026 263.963 11.1239 263.636C10.5546 263.309 10.1066 262.847 9.77993 262.25C9.45326 261.643 9.28993 260.943 9.28993 260.15C9.28993 259.357 9.44859 258.661 9.76593 258.064C10.0833 257.467 10.5266 257.009 11.0959 256.692C11.6746 256.365 12.3373 256.202 13.0839 256.202C13.8119 256.202 14.4559 256.361 15.0159 256.678C15.5759 256.995 16.0053 257.434 16.3039 257.994C16.6119 258.545 16.7659 259.17 16.7659 259.87ZM15.4499 259.604C15.4499 259.119 15.3426 258.703 15.1279 258.358C14.9133 258.003 14.6193 257.737 14.2459 257.56C13.8819 257.373 13.4759 257.28 13.0279 257.28C12.3839 257.28 11.8333 257.485 11.3759 257.896C10.9279 258.307 10.6713 258.876 10.6059 259.604H15.4499ZM19.7636 257.742C20.0156 257.303 20.3889 256.939 20.8836 256.65C21.3876 256.351 21.9709 256.202 22.6336 256.202C23.3149 256.202 23.9309 256.365 24.4816 256.692C25.0416 257.019 25.4802 257.481 25.7976 258.078C26.1149 258.666 26.2736 259.352 26.2736 260.136C26.2736 260.911 26.1149 261.601 25.7976 262.208C25.4802 262.815 25.0416 263.286 24.4816 263.622C23.9309 263.958 23.3149 264.126 22.6336 264.126C21.9802 264.126 21.4016 263.981 20.8976 263.692C20.4029 263.393 20.0249 263.025 19.7636 262.586V267.64H18.4896V256.328H19.7636V257.742ZM24.9716 260.136C24.9716 259.557 24.8549 259.053 24.6216 258.624C24.3882 258.195 24.0709 257.868 23.6696 257.644C23.2776 257.42 22.8436 257.308 22.3676 257.308C21.9009 257.308 21.4669 257.425 21.0656 257.658C20.6736 257.882 20.3562 258.213 20.1136 258.652C19.8802 259.081 19.7636 259.581 19.7636 260.15C19.7636 260.729 19.8802 261.237 20.1136 261.676C20.3562 262.105 20.6736 262.437 21.0656 262.67C21.4669 262.894 21.9009 263.006 22.3676 263.006C22.8436 263.006 23.2776 262.894 23.6696 262.67C24.0709 262.437 24.3882 262.105 24.6216 261.676C24.8549 261.237 24.9716 260.724 24.9716 260.136ZM34.7965 256.328V264H33.5225V262.866C33.2798 263.258 32.9392 263.566 32.5005 263.79C32.0712 264.005 31.5952 264.112 31.0725 264.112C30.4752 264.112 29.9385 263.991 29.4625 263.748C28.9865 263.496 28.6085 263.123 28.3285 262.628C28.0578 262.133 27.9225 261.531 27.9225 260.822V256.328H29.1825V260.654C29.1825 261.41 29.3738 261.993 29.7565 262.404C30.1392 262.805 30.6618 263.006 31.3245 263.006C32.0058 263.006 32.5425 262.796 32.9345 262.376C33.3265 261.956 33.5225 261.345 33.5225 260.542V256.328H34.7965ZM38.5436 257.378V261.9C38.5436 262.273 38.6229 262.539 38.7816 262.698C38.9402 262.847 39.2156 262.922 39.6076 262.922H40.5456V264H39.3976C38.6882 264 38.1562 263.837 37.8016 263.51C37.4469 263.183 37.2696 262.647 37.2696 261.9V257.378H36.2756V256.328H37.2696V254.396H38.5436V256.328H40.5456V257.378H38.5436ZM41.6552 260.136C41.6552 259.352 41.8139 258.666 42.1312 258.078C42.4485 257.481 42.8825 257.019 43.4332 256.692C43.9932 256.365 44.6139 256.202 45.2952 256.202C45.9672 256.202 46.5505 256.347 47.0452 256.636C47.5399 256.925 47.9085 257.289 48.1512 257.728V256.328H49.4392V264H48.1512V262.572C47.8992 263.02 47.5212 263.393 47.0172 263.692C46.5225 263.981 45.9439 264.126 45.2812 264.126C44.5999 264.126 43.9839 263.958 43.4332 263.622C42.8825 263.286 42.4485 262.815 42.1312 262.208C41.8139 261.601 41.6552 260.911 41.6552 260.136ZM48.1512 260.15C48.1512 259.571 48.0345 259.067 47.8012 258.638C47.5679 258.209 47.2505 257.882 46.8492 257.658C46.4572 257.425 46.0232 257.308 45.5472 257.308C45.0712 257.308 44.6372 257.42 44.2452 257.644C43.8532 257.868 43.5405 258.195 43.3072 258.624C43.0739 259.053 42.9572 259.557 42.9572 260.136C42.9572 260.724 43.0739 261.237 43.3072 261.676C43.5405 262.105 43.8532 262.437 44.2452 262.67C44.6372 262.894 45.0712 263.006 45.5472 263.006C46.0232 263.006 46.4572 262.894 46.8492 262.67C47.2505 262.437 47.5679 262.105 47.8012 261.676C48.0345 261.237 48.1512 260.729 48.1512 260.15ZM53.1881 257.378V261.9C53.1881 262.273 53.2675 262.539 53.4261 262.698C53.5848 262.847 53.8601 262.922 54.2521 262.922H55.1901V264H54.0421C53.3328 264 52.8008 263.837 52.4461 263.51C52.0915 263.183 51.9141 262.647 51.9141 261.9V257.378H50.9201V256.328H51.9141V254.396H53.1881V256.328H55.1901V257.378H53.1881ZM57.4337 255.082C57.1911 255.082 56.9857 254.998 56.8177 254.83C56.6497 254.662 56.5657 254.457 56.5657 254.214C56.5657 253.971 56.6497 253.766 56.8177 253.598C56.9857 253.43 57.1911 253.346 57.4337 253.346C57.6671 253.346 57.8631 253.43 58.0217 253.598C58.1897 253.766 58.2737 253.971 58.2737 254.214C58.2737 254.457 58.1897 254.662 58.0217 254.83C57.8631 254.998 57.6671 255.082 57.4337 255.082ZM58.0497 256.328V264H56.7757V256.328H58.0497ZM63.6091 264.126C62.8904 264.126 62.2371 263.963 61.6491 263.636C61.0704 263.309 60.6131 262.847 60.2771 262.25C59.9504 261.643 59.7871 260.943 59.7871 260.15C59.7871 259.366 59.9551 258.675 60.2911 258.078C60.6364 257.471 61.1031 257.009 61.6911 256.692C62.2791 256.365 62.9371 256.202 63.6651 256.202C64.3931 256.202 65.0511 256.365 65.6391 256.692C66.2271 257.009 66.6891 257.467 67.0251 258.064C67.3704 258.661 67.5431 259.357 67.5431 260.15C67.5431 260.943 67.3657 261.643 67.0111 262.25C66.6657 262.847 66.1944 263.309 65.5971 263.636C64.9997 263.963 64.3371 264.126 63.6091 264.126ZM63.6091 263.006C64.0664 263.006 64.4957 262.899 64.8971 262.684C65.2984 262.469 65.6204 262.147 65.8631 261.718C66.1151 261.289 66.2411 260.766 66.2411 260.15C66.2411 259.534 66.1197 259.011 65.8771 258.582C65.6344 258.153 65.3171 257.835 64.9251 257.63C64.5331 257.415 64.1084 257.308 63.6511 257.308C63.1844 257.308 62.7551 257.415 62.3631 257.63C61.9804 257.835 61.6724 258.153 61.4391 258.582C61.2057 259.011 61.0891 259.534 61.0891 260.15C61.0891 260.775 61.2011 261.303 61.4251 261.732C61.6584 262.161 61.9664 262.483 62.3491 262.698C62.7317 262.903 63.1517 263.006 63.6091 263.006ZM72.9981 256.188C73.9315 256.188 74.6875 256.473 75.2661 257.042C75.8448 257.602 76.1341 258.414 76.1341 259.478V264H74.8741V259.66C74.8741 258.895 74.6828 258.311 74.3001 257.91C73.9175 257.499 73.3948 257.294 72.7321 257.294C72.0601 257.294 71.5235 257.504 71.1221 257.924C70.7301 258.344 70.5341 258.955 70.5341 259.758V264H69.2601V256.328H70.5341V257.42C70.7861 257.028 71.1268 256.725 71.5561 256.51C71.9948 256.295 72.4755 256.188 72.9981 256.188ZM91.2576 256.188C91.855 256.188 92.387 256.314 92.8536 256.566C93.3203 256.809 93.689 257.177 93.9596 257.672C94.2303 258.167 94.3656 258.769 94.3656 259.478V264H93.1056V259.66C93.1056 258.895 92.9143 258.311 92.5316 257.91C92.1583 257.499 91.6496 257.294 91.0056 257.294C90.343 257.294 89.8156 257.509 89.4236 257.938C89.0316 258.358 88.8356 258.969 88.8356 259.772V264H87.5756V259.66C87.5756 258.895 87.3843 258.311 87.0016 257.91C86.6283 257.499 86.1196 257.294 85.4756 257.294C84.813 257.294 84.2856 257.509 83.8936 257.938C83.5016 258.358 83.3056 258.969 83.3056 259.772V264H82.0316V256.328H83.3056V257.434C83.5576 257.033 83.8936 256.725 84.3136 256.51C84.743 256.295 85.2143 256.188 85.7276 256.188C86.3716 256.188 86.941 256.333 87.4356 256.622C87.9303 256.911 88.299 257.336 88.5416 257.896C88.7563 257.355 89.111 256.935 89.6056 256.636C90.1003 256.337 90.651 256.188 91.2576 256.188ZM96.0215 260.136C96.0215 259.352 96.1801 258.666 96.4975 258.078C96.8148 257.481 97.2488 257.019 97.7995 256.692C98.3595 256.365 98.9801 256.202 99.6615 256.202C100.333 256.202 100.917 256.347 101.411 256.636C101.906 256.925 102.275 257.289 102.517 257.728V256.328H103.805V264H102.517V262.572C102.265 263.02 101.887 263.393 101.383 263.692C100.889 263.981 100.31 264.126 99.6475 264.126C98.9661 264.126 98.3501 263.958 97.7995 263.622C97.2488 263.286 96.8148 262.815 96.4975 262.208C96.1801 261.601 96.0215 260.911 96.0215 260.136ZM102.517 260.15C102.517 259.571 102.401 259.067 102.167 258.638C101.934 258.209 101.617 257.882 101.215 257.658C100.823 257.425 100.389 257.308 99.9135 257.308C99.4375 257.308 99.0035 257.42 98.6115 257.644C98.2195 257.868 97.9068 258.195 97.6735 258.624C97.4401 259.053 97.3235 259.557 97.3235 260.136C97.3235 260.724 97.4401 261.237 97.6735 261.676C97.9068 262.105 98.2195 262.437 98.6115 262.67C99.0035 262.894 99.4375 263.006 99.9135 263.006C100.389 263.006 100.823 262.894 101.215 262.67C101.617 262.437 101.934 262.105 102.167 261.676C102.401 261.237 102.517 260.729 102.517 260.15ZM109.738 256.188C110.672 256.188 111.428 256.473 112.006 257.042C112.585 257.602 112.874 258.414 112.874 259.478V264H111.614V259.66C111.614 258.895 111.423 258.311 111.04 257.91C110.658 257.499 110.135 257.294 109.472 257.294C108.8 257.294 108.264 257.504 107.862 257.924C107.47 258.344 107.274 258.955 107.274 259.758V264H106V256.328H107.274V257.42C107.526 257.028 107.867 256.725 108.296 256.51C108.735 256.295 109.216 256.188 109.738 256.188ZM114.521 260.136C114.521 259.352 114.68 258.666 114.997 258.078C115.315 257.481 115.749 257.019 116.299 256.692C116.859 256.365 117.48 256.202 118.161 256.202C118.833 256.202 119.417 256.347 119.911 256.636C120.406 256.925 120.775 257.289 121.017 257.728V256.328H122.305V264H121.017V262.572C120.765 263.02 120.387 263.393 119.883 263.692C119.389 263.981 118.81 264.126 118.147 264.126C117.466 264.126 116.85 263.958 116.299 263.622C115.749 263.286 115.315 262.815 114.997 262.208C114.68 261.601 114.521 260.911 114.521 260.136ZM121.017 260.15C121.017 259.571 120.901 259.067 120.667 258.638C120.434 258.209 120.117 257.882 119.715 257.658C119.323 257.425 118.889 257.308 118.413 257.308C117.937 257.308 117.503 257.42 117.111 257.644C116.719 257.868 116.407 258.195 116.173 258.624C115.94 259.053 115.823 259.557 115.823 260.136C115.823 260.724 115.94 261.237 116.173 261.676C116.407 262.105 116.719 262.437 117.111 262.67C117.503 262.894 117.937 263.006 118.413 263.006C118.889 263.006 119.323 262.894 119.715 262.67C120.117 262.437 120.434 262.105 120.667 261.676C120.901 261.237 121.017 260.729 121.017 260.15ZM127.664 256.202C128.327 256.202 128.906 256.347 129.4 256.636C129.904 256.925 130.278 257.289 130.52 257.728V256.328H131.808V264.168C131.808 264.868 131.659 265.489 131.36 266.03C131.062 266.581 130.632 267.01 130.072 267.318C129.522 267.626 128.878 267.78 128.14 267.78C127.132 267.78 126.292 267.542 125.62 267.066C124.948 266.59 124.552 265.941 124.43 265.12H125.69C125.83 265.587 126.12 265.96 126.558 266.24C126.997 266.529 127.524 266.674 128.14 266.674C128.84 266.674 129.41 266.455 129.848 266.016C130.296 265.577 130.52 264.961 130.52 264.168V262.558C130.268 263.006 129.895 263.379 129.4 263.678C128.906 263.977 128.327 264.126 127.664 264.126C126.983 264.126 126.362 263.958 125.802 263.622C125.252 263.286 124.818 262.815 124.5 262.208C124.183 261.601 124.024 260.911 124.024 260.136C124.024 259.352 124.183 258.666 124.5 258.078C124.818 257.481 125.252 257.019 125.802 256.692C126.362 256.365 126.983 256.202 127.664 256.202ZM130.52 260.15C130.52 259.571 130.404 259.067 130.17 258.638C129.937 258.209 129.62 257.882 129.218 257.658C128.826 257.425 128.392 257.308 127.916 257.308C127.44 257.308 127.006 257.42 126.614 257.644C126.222 257.868 125.91 258.195 125.676 258.624C125.443 259.053 125.326 259.557 125.326 260.136C125.326 260.724 125.443 261.237 125.676 261.676C125.91 262.105 126.222 262.437 126.614 262.67C127.006 262.894 127.44 263.006 127.916 263.006C128.392 263.006 128.826 262.894 129.218 262.67C129.62 262.437 129.937 262.105 130.17 261.676C130.404 261.237 130.52 260.729 130.52 260.15ZM141.003 259.87C141.003 260.113 140.989 260.369 140.961 260.64H134.829C134.876 261.396 135.133 261.989 135.599 262.418C136.075 262.838 136.649 263.048 137.321 263.048C137.872 263.048 138.329 262.922 138.693 262.67C139.067 262.409 139.328 262.063 139.477 261.634H140.849C140.644 262.371 140.233 262.973 139.617 263.44C139.001 263.897 138.236 264.126 137.321 264.126C136.593 264.126 135.94 263.963 135.361 263.636C134.792 263.309 134.344 262.847 134.017 262.25C133.691 261.643 133.527 260.943 133.527 260.15C133.527 259.357 133.686 258.661 134.003 258.064C134.321 257.467 134.764 257.009 135.333 256.692C135.912 256.365 136.575 256.202 137.321 256.202C138.049 256.202 138.693 256.361 139.253 256.678C139.813 256.995 140.243 257.434 140.541 257.994C140.849 258.545 141.003 259.17 141.003 259.87ZM139.687 259.604C139.687 259.119 139.58 258.703 139.365 258.358C139.151 258.003 138.857 257.737 138.483 257.56C138.119 257.373 137.713 257.28 137.265 257.28C136.621 257.28 136.071 257.485 135.613 257.896C135.165 258.307 134.909 258.876 134.843 259.604H139.687ZM144.001 257.574C144.225 257.135 144.542 256.795 144.953 256.552C145.373 256.309 145.882 256.188 146.479 256.188V257.504H146.143C144.715 257.504 144.001 258.279 144.001 259.828V264H142.727V256.328H144.001V257.574Z" fill="#666666"/>
<path d="M403.461 264.098C402.817 264.098 402.239 263.986 401.725 263.762C401.221 263.529 400.825 263.211 400.535 262.81C400.246 262.399 400.097 261.928 400.087 261.396H401.445C401.492 261.853 401.679 262.241 402.005 262.558C402.341 262.866 402.827 263.02 403.461 263.02C404.068 263.02 404.544 262.871 404.889 262.572C405.244 262.264 405.421 261.872 405.421 261.396C405.421 261.023 405.319 260.719 405.113 260.486C404.908 260.253 404.651 260.075 404.343 259.954C404.035 259.833 403.62 259.702 403.097 259.562C402.453 259.394 401.935 259.226 401.543 259.058C401.161 258.89 400.829 258.629 400.549 258.274C400.279 257.91 400.143 257.425 400.143 256.818C400.143 256.286 400.279 255.815 400.549 255.404C400.82 254.993 401.198 254.676 401.683 254.452C402.178 254.228 402.743 254.116 403.377 254.116C404.292 254.116 405.039 254.345 405.617 254.802C406.205 255.259 406.537 255.866 406.611 256.622H405.211C405.165 256.249 404.969 255.922 404.623 255.642C404.278 255.353 403.821 255.208 403.251 255.208C402.719 255.208 402.285 255.348 401.949 255.628C401.613 255.899 401.445 256.281 401.445 256.776C401.445 257.131 401.543 257.42 401.739 257.644C401.945 257.868 402.192 258.041 402.481 258.162C402.78 258.274 403.195 258.405 403.727 258.554C404.371 258.731 404.889 258.909 405.281 259.086C405.673 259.254 406.009 259.52 406.289 259.884C406.569 260.239 406.709 260.724 406.709 261.34C406.709 261.816 406.583 262.264 406.331 262.684C406.079 263.104 405.706 263.445 405.211 263.706C404.717 263.967 404.133 264.098 403.461 264.098ZM411.972 264.126C411.254 264.126 410.6 263.963 410.012 263.636C409.434 263.309 408.976 262.847 408.64 262.25C408.314 261.643 408.15 260.943 408.15 260.15C408.15 259.366 408.318 258.675 408.654 258.078C409 257.471 409.466 257.009 410.054 256.692C410.642 256.365 411.3 256.202 412.028 256.202C412.756 256.202 413.414 256.365 414.002 256.692C414.59 257.009 415.052 257.467 415.388 258.064C415.734 258.661 415.906 259.357 415.906 260.15C415.906 260.943 415.729 261.643 415.374 262.25C415.029 262.847 414.558 263.309 413.96 263.636C413.363 263.963 412.7 264.126 411.972 264.126ZM411.972 263.006C412.43 263.006 412.859 262.899 413.26 262.684C413.662 262.469 413.984 262.147 414.226 261.718C414.478 261.289 414.604 260.766 414.604 260.15C414.604 259.534 414.483 259.011 414.24 258.582C413.998 258.153 413.68 257.835 413.288 257.63C412.896 257.415 412.472 257.308 412.014 257.308C411.548 257.308 411.118 257.415 410.726 257.63C410.344 257.835 410.036 258.153 409.802 258.582C409.569 259.011 409.452 259.534 409.452 260.15C409.452 260.775 409.564 261.303 409.788 261.732C410.022 262.161 410.33 262.483 410.712 262.698C411.095 262.903 411.515 263.006 411.972 263.006ZM417.147 260.15C417.147 259.357 417.306 258.666 417.623 258.078C417.941 257.481 418.379 257.019 418.939 256.692C419.509 256.365 420.157 256.202 420.885 256.202C421.828 256.202 422.603 256.431 423.209 256.888C423.825 257.345 424.231 257.98 424.427 258.792H423.055C422.925 258.325 422.668 257.957 422.285 257.686C421.912 257.415 421.445 257.28 420.885 257.28C420.157 257.28 419.569 257.532 419.121 258.036C418.673 258.531 418.449 259.235 418.449 260.15C418.449 261.074 418.673 261.788 419.121 262.292C419.569 262.796 420.157 263.048 420.885 263.048C421.445 263.048 421.912 262.917 422.285 262.656C422.659 262.395 422.915 262.021 423.055 261.536H424.427C424.222 262.32 423.811 262.95 423.195 263.426C422.579 263.893 421.809 264.126 420.885 264.126C420.157 264.126 419.509 263.963 418.939 263.636C418.379 263.309 417.941 262.847 417.623 262.25C417.306 261.653 417.147 260.953 417.147 260.15ZM426.827 255.082C426.585 255.082 426.379 254.998 426.211 254.83C426.043 254.662 425.959 254.457 425.959 254.214C425.959 253.971 426.043 253.766 426.211 253.598C426.379 253.43 426.585 253.346 426.827 253.346C427.061 253.346 427.257 253.43 427.415 253.598C427.583 253.766 427.667 253.971 427.667 254.214C427.667 254.457 427.583 254.662 427.415 254.83C427.257 254.998 427.061 255.082 426.827 255.082ZM427.443 256.328V264H426.169V256.328H427.443ZM429.181 260.136C429.181 259.352 429.339 258.666 429.657 258.078C429.974 257.481 430.408 257.019 430.959 256.692C431.519 256.365 432.139 256.202 432.821 256.202C433.493 256.202 434.076 256.347 434.571 256.636C435.065 256.925 435.434 257.289 435.677 257.728V256.328H436.965V264H435.677V262.572C435.425 263.02 435.047 263.393 434.543 263.692C434.048 263.981 433.469 264.126 432.807 264.126C432.125 264.126 431.509 263.958 430.959 263.622C430.408 263.286 429.974 262.815 429.657 262.208C429.339 261.601 429.181 260.911 429.181 260.136ZM435.677 260.15C435.677 259.571 435.56 259.067 435.327 258.638C435.093 258.209 434.776 257.882 434.375 257.658C433.983 257.425 433.549 257.308 433.073 257.308C432.597 257.308 432.163 257.42 431.771 257.644C431.379 257.868 431.066 258.195 430.833 258.624C430.599 259.053 430.483 259.557 430.483 260.136C430.483 260.724 430.599 261.237 430.833 261.676C431.066 262.105 431.379 262.437 431.771 262.67C432.163 262.894 432.597 263.006 433.073 263.006C433.549 263.006 433.983 262.894 434.375 262.67C434.776 262.437 435.093 262.105 435.327 261.676C435.56 261.237 435.677 260.729 435.677 260.15ZM440.433 253.64V264H439.159V253.64H440.433ZM455.647 256.188C456.245 256.188 456.777 256.314 457.243 256.566C457.71 256.809 458.079 257.177 458.349 257.672C458.62 258.167 458.755 258.769 458.755 259.478V264H457.495V259.66C457.495 258.895 457.304 258.311 456.921 257.91C456.548 257.499 456.039 257.294 455.395 257.294C454.733 257.294 454.205 257.509 453.813 257.938C453.421 258.358 453.225 258.969 453.225 259.772V264H451.965V259.66C451.965 258.895 451.774 258.311 451.391 257.91C451.018 257.499 450.509 257.294 449.865 257.294C449.203 257.294 448.675 257.509 448.283 257.938C447.891 258.358 447.695 258.969 447.695 259.772V264H446.421V256.328H447.695V257.434C447.947 257.033 448.283 256.725 448.703 256.51C449.133 256.295 449.604 256.188 450.117 256.188C450.761 256.188 451.331 256.333 451.825 256.622C452.32 256.911 452.689 257.336 452.931 257.896C453.146 257.355 453.501 256.935 453.995 256.636C454.49 256.337 455.041 256.188 455.647 256.188ZM467.887 259.87C467.887 260.113 467.873 260.369 467.845 260.64H461.713C461.76 261.396 462.016 261.989 462.483 262.418C462.959 262.838 463.533 263.048 464.205 263.048C464.756 263.048 465.213 262.922 465.577 262.67C465.95 262.409 466.212 262.063 466.361 261.634H467.733C467.528 262.371 467.117 262.973 466.501 263.44C465.885 263.897 465.12 264.126 464.205 264.126C463.477 264.126 462.824 263.963 462.245 263.636C461.676 263.309 461.228 262.847 460.901 262.25C460.574 261.643 460.411 260.943 460.411 260.15C460.411 259.357 460.57 258.661 460.887 258.064C461.204 257.467 461.648 257.009 462.217 256.692C462.796 256.365 463.458 256.202 464.205 256.202C464.933 256.202 465.577 256.361 466.137 256.678C466.697 256.995 467.126 257.434 467.425 257.994C467.733 258.545 467.887 259.17 467.887 259.87ZM466.571 259.604C466.571 259.119 466.464 258.703 466.249 258.358C466.034 258.003 465.74 257.737 465.367 257.56C465.003 257.373 464.597 257.28 464.149 257.28C463.505 257.28 462.954 257.485 462.497 257.896C462.049 258.307 461.792 258.876 461.727 259.604H466.571ZM469.135 260.136C469.135 259.352 469.293 258.666 469.611 258.078C469.928 257.481 470.362 257.019 470.913 256.692C471.473 256.365 472.098 256.202 472.789 256.202C473.386 256.202 473.941 256.342 474.455 256.622C474.968 256.893 475.36 257.252 475.631 257.7V253.64H476.919V264H475.631V262.558C475.379 263.015 475.005 263.393 474.511 263.692C474.016 263.981 473.437 264.126 472.775 264.126C472.093 264.126 471.473 263.958 470.913 263.622C470.362 263.286 469.928 262.815 469.611 262.208C469.293 261.601 469.135 260.911 469.135 260.136ZM475.631 260.15C475.631 259.571 475.514 259.067 475.281 258.638C475.047 258.209 474.73 257.882 474.329 257.658C473.937 257.425 473.503 257.308 473.027 257.308C472.551 257.308 472.117 257.42 471.725 257.644C471.333 257.868 471.02 258.195 470.787 258.624C470.553 259.053 470.437 259.557 470.437 260.136C470.437 260.724 470.553 261.237 470.787 261.676C471.02 262.105 471.333 262.437 471.725 262.67C472.117 262.894 472.551 263.006 473.027 263.006C473.503 263.006 473.937 262.894 474.329 262.67C474.73 262.437 475.047 262.105 475.281 261.676C475.514 261.237 475.631 260.729 475.631 260.15ZM479.772 255.082C479.529 255.082 479.324 254.998 479.156 254.83C478.988 254.662 478.904 254.457 478.904 254.214C478.904 253.971 478.988 253.766 479.156 253.598C479.324 253.43 479.529 253.346 479.772 253.346C480.005 253.346 480.201 253.43 480.36 253.598C480.528 253.766 480.612 253.971 480.612 254.214C480.612 254.457 480.528 254.662 480.36 254.83C480.201 254.998 480.005 255.082 479.772 255.082ZM480.388 256.328V264H479.114V256.328H480.388ZM482.125 260.136C482.125 259.352 482.284 258.666 482.601 258.078C482.918 257.481 483.352 257.019 483.903 256.692C484.463 256.365 485.084 256.202 485.765 256.202C486.437 256.202 487.02 256.347 487.515 256.636C488.01 256.925 488.378 257.289 488.621 257.728V256.328H489.909V264H488.621V262.572C488.369 263.02 487.991 263.393 487.487 263.692C486.992 263.981 486.414 264.126 485.751 264.126C485.07 264.126 484.454 263.958 483.903 263.622C483.352 263.286 482.918 262.815 482.601 262.208C482.284 261.601 482.125 260.911 482.125 260.136ZM488.621 260.15C488.621 259.571 488.504 259.067 488.271 258.638C488.038 258.209 487.72 257.882 487.319 257.658C486.927 257.425 486.493 257.308 486.017 257.308C485.541 257.308 485.107 257.42 484.715 257.644C484.323 257.868 484.01 258.195 483.777 258.624C483.544 259.053 483.427 259.557 483.427 260.136C483.427 260.724 483.544 261.237 483.777 261.676C484.01 262.105 484.323 262.437 484.715 262.67C485.107 262.894 485.541 263.006 486.017 263.006C486.493 263.006 486.927 262.894 487.319 262.67C487.72 262.437 488.038 262.105 488.271 261.676C488.504 261.237 488.621 260.729 488.621 260.15ZM495.402 260.136C495.402 259.352 495.561 258.666 495.878 258.078C496.196 257.481 496.63 257.019 497.18 256.692C497.74 256.365 498.361 256.202 499.042 256.202C499.714 256.202 500.298 256.347 500.792 256.636C501.287 256.925 501.656 257.289 501.898 257.728V256.328H503.186V264H501.898V262.572C501.646 263.02 501.268 263.393 500.764 263.692C500.27 263.981 499.691 264.126 499.028 264.126C498.347 264.126 497.731 263.958 497.18 263.622C496.63 263.286 496.196 262.815 495.878 262.208C495.561 261.601 495.402 260.911 495.402 260.136ZM501.898 260.15C501.898 259.571 501.782 259.067 501.548 258.638C501.315 258.209 500.998 257.882 500.596 257.658C500.204 257.425 499.77 257.308 499.294 257.308C498.818 257.308 498.384 257.42 497.992 257.644C497.6 257.868 497.288 258.195 497.054 258.624C496.821 259.053 496.704 259.557 496.704 260.136C496.704 260.724 496.821 261.237 497.054 261.676C497.288 262.105 497.6 262.437 497.992 262.67C498.384 262.894 498.818 263.006 499.294 263.006C499.77 263.006 500.204 262.894 500.596 262.67C500.998 262.437 501.315 262.105 501.548 261.676C501.782 261.237 501.898 260.729 501.898 260.15ZM509.119 256.188C510.053 256.188 510.809 256.473 511.387 257.042C511.966 257.602 512.255 258.414 512.255 259.478V264H510.995V259.66C510.995 258.895 510.804 258.311 510.421 257.91C510.039 257.499 509.516 257.294 508.853 257.294C508.181 257.294 507.645 257.504 507.243 257.924C506.851 258.344 506.655 258.955 506.655 259.758V264H505.381V256.328H506.655V257.42C506.907 257.028 507.248 256.725 507.677 256.51C508.116 256.295 508.597 256.188 509.119 256.188ZM513.902 260.136C513.902 259.352 514.061 258.666 514.378 258.078C514.696 257.481 515.13 257.019 515.68 256.692C516.24 256.365 516.861 256.202 517.542 256.202C518.214 256.202 518.798 256.347 519.292 256.636C519.787 256.925 520.156 257.289 520.398 257.728V256.328H521.686V264H520.398V262.572C520.146 263.02 519.768 263.393 519.264 263.692C518.77 263.981 518.191 264.126 517.528 264.126C516.847 264.126 516.231 263.958 515.68 263.622C515.13 263.286 514.696 262.815 514.378 262.208C514.061 261.601 513.902 260.911 513.902 260.136ZM520.398 260.15C520.398 259.571 520.282 259.067 520.048 258.638C519.815 258.209 519.498 257.882 519.096 257.658C518.704 257.425 518.27 257.308 517.794 257.308C517.318 257.308 516.884 257.42 516.492 257.644C516.1 257.868 515.788 258.195 515.554 258.624C515.321 259.053 515.204 259.557 515.204 260.136C515.204 260.724 515.321 261.237 515.554 261.676C515.788 262.105 516.1 262.437 516.492 262.67C516.884 262.894 517.318 263.006 517.794 263.006C518.27 263.006 518.704 262.894 519.096 262.67C519.498 262.437 519.815 262.105 520.048 261.676C520.282 261.237 520.398 260.729 520.398 260.15ZM525.155 253.64V264H523.881V253.64H525.155ZM533.977 256.328L529.357 267.612H528.041L529.553 263.916L526.459 256.328H527.873L530.281 262.544L532.661 256.328H533.977ZM536.853 257.378V261.9C536.853 262.273 536.933 262.539 537.091 262.698C537.25 262.847 537.525 262.922 537.917 262.922H538.855V264H537.707C536.998 264 536.466 263.837 536.111 263.51C535.757 263.183 535.579 262.647 535.579 261.9V257.378H534.585V256.328H535.579V254.396H536.853V256.328H538.855V257.378H536.853ZM541.099 255.082C540.856 255.082 540.651 254.998 540.483 254.83C540.315 254.662 540.231 254.457 540.231 254.214C540.231 253.971 540.315 253.766 540.483 253.598C540.651 253.43 540.856 253.346 541.099 253.346C541.332 253.346 541.528 253.43 541.687 253.598C541.855 253.766 541.939 253.971 541.939 254.214C541.939 254.457 541.855 254.662 541.687 254.83C541.528 254.998 541.332 255.082 541.099 255.082ZM541.715 256.328V264H540.441V256.328H541.715ZM543.452 260.15C543.452 259.357 543.611 258.666 543.928 258.078C544.245 257.481 544.684 257.019 545.244 256.692C545.813 256.365 546.462 256.202 547.19 256.202C548.133 256.202 548.907 256.431 549.514 256.888C550.13 257.345 550.536 257.98 550.732 258.792H549.36C549.229 258.325 548.973 257.957 548.59 257.686C548.217 257.415 547.75 257.28 547.19 257.28C546.462 257.28 545.874 257.532 545.426 258.036C544.978 258.531 544.754 259.235 544.754 260.15C544.754 261.074 544.978 261.788 545.426 262.292C545.874 262.796 546.462 263.048 547.19 263.048C547.75 263.048 548.217 262.917 548.59 262.656C548.963 262.395 549.22 262.021 549.36 261.536H550.732C550.527 262.32 550.116 262.95 549.5 263.426C548.884 263.893 548.114 264.126 547.19 264.126C546.462 264.126 545.813 263.963 545.244 263.636C544.684 263.309 544.245 262.847 543.928 262.25C543.611 261.653 543.452 260.953 543.452 260.15ZM555.19 264.126C554.602 264.126 554.075 264.028 553.608 263.832C553.141 263.627 552.773 263.347 552.502 262.992C552.231 262.628 552.082 262.213 552.054 261.746H553.37C553.407 262.129 553.585 262.441 553.902 262.684C554.229 262.927 554.653 263.048 555.176 263.048C555.661 263.048 556.044 262.941 556.324 262.726C556.604 262.511 556.744 262.241 556.744 261.914C556.744 261.578 556.595 261.331 556.296 261.172C555.997 261.004 555.535 260.841 554.91 260.682C554.341 260.533 553.874 260.383 553.51 260.234C553.155 260.075 552.847 259.847 552.586 259.548C552.334 259.24 552.208 258.839 552.208 258.344C552.208 257.952 552.325 257.593 552.558 257.266C552.791 256.939 553.123 256.683 553.552 256.496C553.981 256.3 554.471 256.202 555.022 256.202C555.871 256.202 556.557 256.417 557.08 256.846C557.603 257.275 557.883 257.863 557.92 258.61H556.646C556.618 258.209 556.455 257.887 556.156 257.644C555.867 257.401 555.475 257.28 554.98 257.28C554.523 257.28 554.159 257.378 553.888 257.574C553.617 257.77 553.482 258.027 553.482 258.344C553.482 258.596 553.561 258.806 553.72 258.974C553.888 259.133 554.093 259.263 554.336 259.366C554.588 259.459 554.933 259.567 555.372 259.688C555.923 259.837 556.371 259.987 556.716 260.136C557.061 260.276 557.355 260.491 557.598 260.78C557.85 261.069 557.981 261.447 557.99 261.914C557.99 262.334 557.873 262.712 557.64 263.048C557.407 263.384 557.075 263.65 556.646 263.846C556.226 264.033 555.741 264.126 555.19 264.126Z" fill="#666666"/>
</svg>
