<svg width="388" height="286" viewBox="0 0 388 286" fill="none" xmlns="http://www.w3.org/2000/svg">
<path d="M343.07 207.23C343.07 122.434 274.329 53.6924 189.532 53.6924C104.735 53.6924 35.9941 122.434 35.9941 207.23" stroke="#034737" stroke-width="0.848276" stroke-dasharray="12.72 12.72"/>
<rect y="154" width="90" height="90" rx="20" fill="#034737"/>
<path d="M56.7318 205.422L55.0697 203.764C55.2487 203.392 55.4063 203.01 55.5415 202.62H57.8923C58.1178 202.62 58.334 202.531 58.4935 202.371C58.6529 202.212 58.7425 201.995 58.7425 201.77V196.089C58.7425 195.863 58.6529 195.647 58.4935 195.487C58.334 195.328 58.1178 195.238 57.8923 195.238H55.5415C55.4063 194.848 55.2487 194.466 55.0697 194.094L56.7318 192.436C56.8108 192.357 56.8736 192.263 56.9163 192.16C56.9591 192.057 56.9811 191.946 56.9811 191.834C56.9811 191.723 56.9591 191.612 56.9163 191.509C56.8736 191.405 56.8108 191.312 56.7318 191.233L52.7146 187.214C52.6352 187.136 52.541 187.073 52.4374 187.031C52.3338 186.989 52.2229 186.967 52.111 186.968C51.8865 186.968 51.671 187.056 51.5116 187.214L49.8537 188.877C49.4815 188.699 49.0998 188.541 48.7102 188.405V186.054C48.7102 185.828 48.6206 185.612 48.4612 185.452C48.3017 185.293 48.0855 185.203 47.86 185.203H42.1807C41.9552 185.203 41.7389 185.293 41.5795 185.452C41.42 185.612 41.3305 185.828 41.3305 186.054V188.405C40.9409 188.541 40.5591 188.699 40.1869 188.877L38.5291 187.214C38.3665 187.061 38.1513 186.975 37.9276 186.975C37.7038 186.975 37.4886 187.061 37.326 187.214L33.3089 191.233C33.2298 191.312 33.1671 191.405 33.1243 191.509C33.0815 191.612 33.0595 191.723 33.0595 191.834C33.0595 191.946 33.0815 192.057 33.1243 192.16C33.1671 192.263 33.2298 192.357 33.3089 192.436L34.971 194.094C34.7919 194.466 34.6344 194.848 34.4991 195.238H32.1483C31.9228 195.238 31.7066 195.328 31.5472 195.487C31.3877 195.647 31.2981 195.863 31.2981 196.089V201.77C31.2981 201.995 31.3877 202.212 31.5472 202.371C31.7066 202.531 31.9228 202.62 32.1483 202.62H34.4991C34.6344 203.01 34.7919 203.392 34.971 203.764L33.3089 205.422C33.2298 205.501 33.1671 205.595 33.1243 205.698C33.0815 205.802 33.0595 205.912 33.0595 206.024C33.0595 206.136 33.0815 206.246 33.1243 206.35C33.1671 206.453 33.2298 206.547 33.3089 206.626L37.326 210.644C37.4055 210.723 37.4997 210.785 37.6033 210.828C37.7069 210.87 37.8178 210.891 37.9297 210.891C38.1542 210.891 38.3697 210.802 38.5291 210.644L40.1869 208.981C40.5591 209.16 40.9409 209.317 41.3305 209.453V211.805C41.3305 212.03 41.42 212.247 41.5795 212.406C41.7389 212.566 41.9552 212.655 42.1807 212.655H47.86C48.0855 212.655 48.3017 212.566 48.4612 212.406C48.6206 212.247 48.7102 212.03 48.7102 211.805V209.453C49.0998 209.317 49.4815 209.16 49.8537 208.981L51.5116 210.644C51.6742 210.798 51.8894 210.883 52.1131 210.883C52.3368 210.883 52.552 210.798 52.7146 210.644L56.7318 206.626C56.8108 206.547 56.8736 206.453 56.9163 206.35C56.9591 206.246 56.9811 206.136 56.9811 206.024C56.9811 205.912 56.9591 205.802 56.9163 205.698C56.8736 205.595 56.8108 205.501 56.7318 205.422ZM52.111 208.824L50.6146 207.327C50.4839 207.197 50.3146 207.114 50.1322 207.088C49.9497 207.063 49.764 207.098 49.6029 207.187C48.977 207.533 48.3138 207.807 47.6262 208.003C47.4488 208.054 47.2927 208.161 47.1815 208.309C47.0703 208.456 47.0101 208.635 47.0098 208.82V210.946H43.0309V208.82C43.0306 208.635 42.9703 208.456 42.8591 208.309C42.7479 208.161 42.5919 208.054 42.4145 208.003C41.7268 207.807 41.0637 207.533 40.4378 207.187C40.2767 207.098 40.0909 207.063 39.9085 207.088C39.726 207.114 39.5567 207.197 39.426 207.327L37.9297 208.837L35.1155 206.022L36.6119 204.525C36.7417 204.394 36.8256 204.225 36.8509 204.043C36.8762 203.86 36.8415 203.674 36.7522 203.513C36.4054 202.887 36.1315 202.224 35.936 201.536C35.8852 201.358 35.7782 201.202 35.6309 201.091C35.4837 200.98 35.3043 200.92 35.1198 200.919H32.9943V196.939H35.1198C35.3043 196.939 35.4837 196.879 35.6309 196.767C35.7782 196.656 35.8852 196.5 35.936 196.323C36.1315 195.634 36.4054 194.971 36.7522 194.345C36.8415 194.184 36.8762 193.998 36.8509 193.816C36.8256 193.633 36.7417 193.464 36.6119 193.333L35.1155 191.837L37.9297 189.022L39.426 190.518C39.5567 190.648 39.726 190.732 39.9085 190.757C40.0909 190.783 40.2767 190.748 40.4378 190.659C41.0637 190.313 41.7268 190.039 42.4145 189.842C42.5919 189.791 42.7479 189.684 42.8591 189.537C42.9703 189.39 43.0306 189.21 43.0309 189.026V186.9H47.0098V189.026C47.0101 189.21 47.0703 189.39 47.1815 189.537C47.2927 189.684 47.4488 189.791 47.6262 189.842C48.3138 190.039 48.977 190.313 49.6029 190.659C49.764 190.748 49.9497 190.783 50.1322 190.757C50.3146 190.732 50.4839 190.648 50.6146 190.518L52.111 189.022L54.9251 191.837L53.4288 193.333C53.2989 193.464 53.2151 193.633 53.1898 193.816C53.1645 193.998 53.1991 194.184 53.2885 194.345C53.6352 194.971 53.9091 195.634 54.1047 196.323C54.1554 196.5 54.2625 196.656 54.4097 196.767C54.557 196.879 54.7364 196.939 54.9209 196.939H57.0464V200.919H54.9209C54.7364 200.92 54.557 200.98 54.4097 201.091C54.2625 201.202 54.1554 201.358 54.1047 201.536C53.9091 202.224 53.6352 202.887 53.2885 203.513C53.1991 203.674 53.1645 203.86 53.1898 204.043C53.2151 204.225 53.2989 204.394 53.4288 204.525L54.9251 206.022L52.111 208.824ZM45.0203 191.126C43.4775 191.126 41.9694 191.584 40.6866 192.441C39.4038 193.299 38.4039 194.517 37.8135 195.943C37.2231 197.369 37.0687 198.938 37.3696 200.451C37.6706 201.965 38.4136 203.355 39.5045 204.447C40.5954 205.538 41.9853 206.281 43.4985 206.582C45.0117 206.883 46.5801 206.729 48.0055 206.138C49.4308 205.547 50.6491 204.547 51.5063 203.264C52.3634 201.981 52.8209 200.472 52.8209 198.929C52.8186 196.86 51.9961 194.877 50.5337 193.414C49.0713 191.951 47.0885 191.129 45.0203 191.126ZM45.0203 205.031C43.8138 205.031 42.6344 204.673 41.6313 204.003C40.6281 203.332 39.8462 202.379 39.3845 201.264C38.9228 200.149 38.802 198.922 39.0374 197.739C39.2727 196.555 39.8537 195.468 40.7069 194.615C41.56 193.761 42.6469 193.18 43.8302 192.945C45.0136 192.709 46.2401 192.83 47.3548 193.292C48.4694 193.754 49.4221 194.536 50.0924 195.539C50.7627 196.543 51.1205 197.722 51.1205 198.929C51.1182 200.547 50.4748 202.098 49.3313 203.241C48.1878 204.385 46.6375 205.029 45.0203 205.031ZM65 198.929C64.9998 195.301 64.012 191.741 62.1427 188.631C60.2733 185.521 57.5929 182.98 54.3889 181.278C51.1849 179.577 47.5783 178.78 43.956 178.973C40.3337 179.166 36.8323 180.343 33.8275 182.375C33.1026 181.799 32.2026 181.489 31.2769 181.495C30.4976 181.494 29.7341 181.715 29.0762 182.133C28.4184 182.551 27.8934 183.148 27.563 183.854C27.2327 184.56 27.1106 185.346 27.2113 186.119C27.3119 186.892 27.631 187.62 28.1312 188.218C25.6727 192.076 24.6122 196.662 25.1269 201.208C25.6416 205.754 27.7002 209.986 30.9588 213.197C34.2175 216.408 38.4789 218.403 43.0312 218.85C47.5836 219.296 52.1511 218.166 55.9709 215.649C56.7565 216.295 57.7546 216.626 58.7705 216.576C59.7865 216.526 60.7476 216.1 61.4665 215.38C62.1855 214.661 62.6109 213.699 62.6597 212.683C62.7086 211.666 62.3775 210.668 61.7309 209.883C63.8709 206.631 65.0077 202.822 65 198.929ZM31.2981 183.196C31.934 183.196 32.5438 183.449 32.9935 183.898C33.4431 184.348 33.6957 184.958 33.6957 185.594C33.6957 186.23 33.4431 186.84 32.9935 187.29C32.5438 187.74 31.934 187.993 31.2981 187.993C30.6633 187.989 30.0554 187.735 29.6065 187.286C29.1576 186.837 28.9039 186.229 28.9006 185.594C28.9017 184.959 29.1547 184.349 29.604 183.9C30.0534 183.45 30.6626 183.197 31.2981 183.196ZM45.0203 217.214C41.7606 217.214 38.56 216.343 35.7502 214.69C32.9405 213.036 30.6238 210.662 29.0402 207.812C27.4567 204.962 26.6639 201.74 26.744 198.48C26.824 195.22 27.7741 192.041 29.4957 189.272H29.5382C29.6636 189.336 29.7928 189.391 29.9251 189.438C30.0526 189.481 30.1801 189.519 30.3119 189.553L30.4352 189.579C30.5372 189.598 30.6392 189.615 30.7413 189.63H30.8645C31.0056 189.647 31.1475 189.655 31.2896 189.655C32.3761 189.654 33.4178 189.222 34.1861 188.453C34.9544 187.685 35.3865 186.643 35.3876 185.556C35.3876 185.407 35.3876 185.258 35.3621 185.11C35.3621 185.067 35.3621 185.024 35.3621 184.982C35.3451 184.871 35.3238 184.761 35.2983 184.65L35.2728 184.531C35.2346 184.391 35.192 184.251 35.141 184.106L35.1155 184.051C35.0688 183.932 35.0135 183.813 34.9582 183.698L34.9327 183.647C38.4324 181.315 42.629 180.261 46.815 180.663C51.001 181.065 54.9203 182.899 57.9123 185.854C60.9042 188.81 62.7858 192.708 63.2398 196.89C63.6939 201.071 62.6925 205.282 60.4046 208.811H60.3536C60.2377 208.752 60.1185 208.7 59.9965 208.654H59.9583C59.8191 208.605 59.6772 208.564 59.5332 208.531L59.4142 208.501C59.3079 208.501 59.2016 208.458 59.0953 208.446H58.9721C58.831 208.429 58.689 208.421 58.547 208.42C57.4605 208.421 56.4188 208.854 55.6505 209.622C54.8822 210.39 54.4501 211.432 54.449 212.519C54.4491 212.661 54.4576 212.803 54.4745 212.945C54.4745 212.987 54.4745 213.03 54.4745 213.072C54.4745 213.178 54.5085 213.285 54.5298 213.391C54.5377 213.431 54.5476 213.471 54.5595 213.51C54.5915 213.654 54.6327 213.796 54.6828 213.935C54.6811 213.952 54.6811 213.969 54.6828 213.986C54.7254 214.104 54.7751 214.219 54.8316 214.331C54.8383 214.35 54.8469 214.368 54.8571 214.386C51.9162 216.251 48.5022 217.232 45.0203 217.214ZM58.5512 214.867C57.9323 214.84 57.3473 214.576 56.9186 214.129C56.4898 213.682 56.2504 213.086 56.2504 212.466C56.2504 211.846 56.4898 211.251 56.9186 210.803C57.3473 210.356 57.9323 210.092 58.5512 210.066C59.1167 210.067 59.6641 210.265 60.0986 210.627C60.48 210.943 60.7543 211.37 60.884 211.848C61.0137 212.326 60.9923 212.833 60.8229 213.299C60.6534 213.764 60.3442 214.166 59.9375 214.449C59.5308 214.732 59.0466 214.882 58.5512 214.879V214.867ZM49.0375 195.953C49.1166 196.032 49.1793 196.125 49.222 196.229C49.2648 196.332 49.2869 196.443 49.2869 196.554C49.2869 196.666 49.2648 196.777 49.222 196.88C49.1793 196.983 49.1166 197.077 49.0375 197.156L44.3019 201.906C44.2229 201.985 44.1292 202.048 44.026 202.09C43.9228 202.133 43.8121 202.155 43.7004 202.155C43.5887 202.155 43.478 202.133 43.3748 202.09C43.2716 202.048 43.1778 201.985 43.0989 201.906L41.0031 199.805C40.8436 199.646 40.754 199.429 40.754 199.203C40.754 198.978 40.8436 198.761 41.0031 198.602C41.1627 198.442 41.379 198.353 41.6047 198.353C41.8303 198.353 42.0466 198.442 42.2062 198.602L43.6983 200.099L47.8345 195.953C47.9134 195.874 48.0072 195.811 48.1104 195.768C48.2136 195.725 48.3243 195.703 48.436 195.703C48.5477 195.703 48.6584 195.725 48.7616 195.768C48.8648 195.811 48.9585 195.874 49.0375 195.953Z" fill="white" stroke="white" stroke-width="0.265763"/>
<rect x="76" y="26" width="90" height="90" rx="20" fill="#034737"/>
<circle cx="121.091" cy="70.8719" r="23.872" stroke="white" stroke-width="2.16667" stroke-linecap="round" stroke-linejoin="round"/>
<circle cx="121.091" cy="65.5672" r="7.95732" stroke="white" stroke-width="2.16667" stroke-linecap="round" stroke-linejoin="round"/>
<path d="M105.622 89.0385C106.97 84.5518 111.102 81.4803 115.786 81.4817H126.396C131.087 81.4801 135.223 84.5595 136.566 89.0544" stroke="white" stroke-width="2.16667" stroke-linecap="round" stroke-linejoin="round"/>
<rect x="243" y="26" width="90" height="90" rx="20" fill="#034737"/>
<path d="M308.314 80.3749L303.893 84.7957L303.893 78.1646C303.893 69.6193 296.966 62.692 288.42 62.692C279.875 62.692 272.948 69.6193 272.948 78.1646L272.948 84.7957L268.527 80.3749" stroke="white" stroke-width="2.16667" stroke-linecap="round" stroke-linejoin="round"/>
<path d="M289.505 47.2195C289.505 46.6212 289.02 46.1362 288.421 46.1362C287.823 46.1362 287.338 46.6212 287.338 47.2195L289.505 47.2195ZM288.421 87.0061L287.338 87.0061C287.338 87.4443 287.602 87.8393 288.007 88.007C288.412 88.1747 288.878 88.082 289.187 87.7721L288.421 87.0061ZM293.608 83.3514C294.031 82.9283 294.031 82.2424 293.608 81.8193C293.185 81.3963 292.499 81.3963 292.076 81.8193L293.608 83.3514ZM284.766 81.8193C284.343 81.3963 283.657 81.3963 283.234 81.8193C282.811 82.2424 282.811 82.9283 283.234 83.3514L284.766 81.8193ZM287.654 87.7721C288.077 88.1952 288.763 88.1952 289.186 87.7721C289.61 87.3491 289.61 86.6631 289.186 86.2401L287.654 87.7721ZM287.338 47.2195L287.338 87.0061L289.505 87.0061L289.505 47.2195L287.338 47.2195ZM289.187 87.7721L293.608 83.3514L292.076 81.8193L287.655 86.2401L289.187 87.7721ZM283.234 83.3514L287.654 87.7721L289.186 86.2401L284.766 81.8193L283.234 83.3514Z" fill="white"/>
<rect x="298" y="154" width="90" height="90" rx="20" fill="#034737"/>
<circle cx="361.42" cy="180.058" r="5.30488" transform="rotate(90 361.42 180.058)" stroke="white" stroke-width="1.66667" stroke-linecap="round" stroke-linejoin="round"/>
<circle cx="361.42" cy="217.192" r="5.30488" transform="rotate(90 361.42 217.192)" stroke="white" stroke-width="1.66667" stroke-linecap="round" stroke-linejoin="round"/>
<circle cx="324.286" cy="180.058" r="5.30488" transform="rotate(90 324.286 180.058)" stroke="white" stroke-width="1.66667" stroke-linecap="round" stroke-linejoin="round"/>
<circle cx="324.286" cy="217.192" r="5.30488" transform="rotate(90 324.286 217.192)" stroke="white" stroke-width="1.66667" stroke-linecap="round" stroke-linejoin="round"/>
<path d="M356.115 180.058H329.591" stroke="white" stroke-width="1.66667" stroke-linecap="round" stroke-linejoin="round"/>
<path d="M361.42 185.363V211.887" stroke="white" stroke-width="1.66667" stroke-linecap="round" stroke-linejoin="round"/>
<path d="M324.286 185.363V211.887" stroke="white" stroke-width="1.66667" stroke-linecap="round" stroke-linejoin="round"/>
<path d="M356.115 217.192H329.591" stroke="white" stroke-width="1.66667" stroke-linecap="round" stroke-linejoin="round"/>
<circle cx="200" cy="199" r="10" fill="#034737"/>
<path d="M24.8913 257.242L22.0633 267H20.6353L18.3673 259.146L16.0153 267L14.6013 267.014L11.8713 257.242H13.2293L15.3573 265.516L17.7093 257.242H19.1373L21.3773 265.488L23.5193 257.242H24.8913ZM32.0955 264.83H27.8395L27.0555 267H25.7115L29.2395 257.298H30.7095L34.2235 267H32.8795L32.0955 264.83ZM31.7315 263.794L29.9675 258.866L28.2035 263.794H31.7315ZM47.0675 267L45.7935 265.712C45.3175 266.207 44.8088 266.575 44.2675 266.818C43.7262 267.051 43.1148 267.168 42.4335 267.168C41.7615 267.168 41.1642 267.047 40.6415 266.804C40.1282 266.561 39.7268 266.216 39.4375 265.768C39.1575 265.32 39.0175 264.797 39.0175 264.2C39.0175 263.519 39.2088 262.921 39.5915 262.408C39.9835 261.885 40.5575 261.475 41.3135 261.176C41.0148 260.821 40.8002 260.495 40.6695 260.196C40.5388 259.897 40.4735 259.571 40.4735 259.216C40.4735 258.805 40.5762 258.437 40.7815 258.11C40.9962 257.774 41.2995 257.513 41.6915 257.326C42.0835 257.139 42.5362 257.046 43.0495 257.046C43.5535 257.046 43.9922 257.144 44.3655 257.34C44.7388 257.536 45.0188 257.811 45.2055 258.166C45.3922 258.511 45.4762 258.899 45.4575 259.328H44.1835C44.1928 258.945 44.0855 258.647 43.8615 258.432C43.6375 258.208 43.3482 258.096 42.9935 258.096C42.6202 258.096 42.3168 258.203 42.0835 258.418C41.8595 258.623 41.7475 258.889 41.7475 259.216C41.7475 259.496 41.8222 259.767 41.9715 260.028C42.1302 260.289 42.3915 260.611 42.7555 260.994L45.6675 263.92L45.9195 263.528L46.8715 261.932H48.2435L47.0955 263.92C46.9368 264.2 46.7502 264.494 46.5355 264.802L48.7335 267H47.0675ZM42.4335 266.076C42.9375 266.076 43.3902 265.978 43.7915 265.782C44.2022 265.586 44.5895 265.283 44.9535 264.872L42.0835 261.988C40.8888 262.445 40.2915 263.169 40.2915 264.158C40.2915 264.709 40.4875 265.166 40.8795 265.53C41.2808 265.894 41.7988 266.076 42.4335 266.076ZM59.7495 257.242V258.278H57.0895V267H55.8155V258.278H53.1415V257.242H59.7495ZM68.3598 262.87C68.3598 263.113 68.3458 263.369 68.3178 263.64H62.1858C62.2324 264.396 62.4891 264.989 62.9558 265.418C63.4318 265.838 64.0058 266.048 64.6778 266.048C65.2284 266.048 65.6858 265.922 66.0498 265.67C66.4231 265.409 66.6844 265.063 66.8338 264.634H68.2058C68.0004 265.371 67.5898 265.973 66.9738 266.44C66.3578 266.897 65.5924 267.126 64.6778 267.126C63.9498 267.126 63.2964 266.963 62.7178 266.636C62.1484 266.309 61.7004 265.847 61.3738 265.25C61.0471 264.643 60.8838 263.943 60.8838 263.15C60.8838 262.357 61.0424 261.661 61.3598 261.064C61.6771 260.467 62.1204 260.009 62.6898 259.692C63.2684 259.365 63.9311 259.202 64.6778 259.202C65.4058 259.202 66.0498 259.361 66.6098 259.678C67.1698 259.995 67.5991 260.434 67.8978 260.994C68.2058 261.545 68.3598 262.17 68.3598 262.87ZM67.0438 262.604C67.0438 262.119 66.9364 261.703 66.7218 261.358C66.5071 261.003 66.2131 260.737 65.8398 260.56C65.4758 260.373 65.0698 260.28 64.6218 260.28C63.9778 260.28 63.4271 260.485 62.9698 260.896C62.5218 261.307 62.2651 261.876 62.1998 262.604H67.0438ZM71.3574 256.64V267H70.0834V256.64H71.3574ZM1.00773 279.136C1.00773 278.352 1.16639 277.666 1.48373 277.078C1.80106 276.481 2.23506 276.019 2.78573 275.692C3.34573 275.365 3.96639 275.202 4.64773 275.202C5.31973 275.202 5.90306 275.347 6.39773 275.636C6.89239 275.925 7.26106 276.289 7.50373 276.728V275.328H8.79173V283H7.50373V281.572C7.25173 282.02 6.87373 282.393 6.36973 282.692C5.87506 282.981 5.29639 283.126 4.63373 283.126C3.95239 283.126 3.33639 282.958 2.78573 282.622C2.23506 282.286 1.80106 281.815 1.48373 281.208C1.16639 280.601 1.00773 279.911 1.00773 279.136ZM7.50373 279.15C7.50373 278.571 7.38706 278.067 7.15373 277.638C6.92039 277.209 6.60306 276.882 6.20173 276.658C5.80973 276.425 5.37573 276.308 4.89973 276.308C4.42373 276.308 3.98973 276.42 3.59773 276.644C3.20573 276.868 2.89306 277.195 2.65973 277.624C2.42639 278.053 2.30973 278.557 2.30973 279.136C2.30973 279.724 2.42639 280.237 2.65973 280.676C2.89306 281.105 3.20573 281.437 3.59773 281.67C3.98973 281.894 4.42373 282.006 4.89973 282.006C5.37573 282.006 5.80973 281.894 6.20173 281.67C6.60306 281.437 6.92039 281.105 7.15373 280.676C7.38706 280.237 7.50373 279.729 7.50373 279.15ZM17.7907 275.328V283H16.5167V281.866C16.274 282.258 15.9333 282.566 15.4947 282.79C15.0653 283.005 14.5893 283.112 14.0667 283.112C13.4693 283.112 12.9327 282.991 12.4567 282.748C11.9807 282.496 11.6027 282.123 11.3227 281.628C11.052 281.133 10.9167 280.531 10.9167 279.822V275.328H12.1767V279.654C12.1767 280.41 12.368 280.993 12.7507 281.404C13.1333 281.805 13.656 282.006 14.3187 282.006C15 282.006 15.5367 281.796 15.9287 281.376C16.3207 280.956 16.5167 280.345 16.5167 279.542V275.328H17.7907ZM21.5377 276.378V280.9C21.5377 281.273 21.6171 281.539 21.7757 281.698C21.9344 281.847 22.2097 281.922 22.6017 281.922H23.5397V283H22.3917C21.6824 283 21.1504 282.837 20.7957 282.51C20.4411 282.183 20.2637 281.647 20.2637 280.9V276.378H19.2697V275.328H20.2637V273.396H21.5377V275.328H23.5397V276.378H21.5377ZM28.4714 283.126C27.7527 283.126 27.0994 282.963 26.5114 282.636C25.9327 282.309 25.4754 281.847 25.1394 281.25C24.8127 280.643 24.6494 279.943 24.6494 279.15C24.6494 278.366 24.8174 277.675 25.1534 277.078C25.4987 276.471 25.9654 276.009 26.5534 275.692C27.1414 275.365 27.7994 275.202 28.5274 275.202C29.2554 275.202 29.9134 275.365 30.5014 275.692C31.0894 276.009 31.5514 276.467 31.8874 277.064C32.2327 277.661 32.4054 278.357 32.4054 279.15C32.4054 279.943 32.228 280.643 31.8734 281.25C31.528 281.847 31.0567 282.309 30.4594 282.636C29.862 282.963 29.1994 283.126 28.4714 283.126ZM28.4714 282.006C28.9287 282.006 29.358 281.899 29.7594 281.684C30.1607 281.469 30.4827 281.147 30.7254 280.718C30.9774 280.289 31.1034 279.766 31.1034 279.15C31.1034 278.534 30.982 278.011 30.7394 277.582C30.4967 277.153 30.1794 276.835 29.7874 276.63C29.3954 276.415 28.9707 276.308 28.5134 276.308C28.0467 276.308 27.6174 276.415 27.2254 276.63C26.8427 276.835 26.5347 277.153 26.3014 277.582C26.068 278.011 25.9514 278.534 25.9514 279.15C25.9514 279.775 26.0634 280.303 26.2874 280.732C26.5207 281.161 26.8287 281.483 27.2114 281.698C27.594 281.903 28.014 282.006 28.4714 282.006ZM43.3484 275.188C43.9458 275.188 44.4778 275.314 44.9444 275.566C45.4111 275.809 45.7798 276.177 46.0504 276.672C46.3211 277.167 46.4564 277.769 46.4564 278.478V283H45.1964V278.66C45.1964 277.895 45.0051 277.311 44.6224 276.91C44.2491 276.499 43.7404 276.294 43.0964 276.294C42.4338 276.294 41.9064 276.509 41.5144 276.938C41.1224 277.358 40.9264 277.969 40.9264 278.772V283H39.6664V278.66C39.6664 277.895 39.4751 277.311 39.0924 276.91C38.7191 276.499 38.2104 276.294 37.5664 276.294C36.9038 276.294 36.3764 276.509 35.9844 276.938C35.5924 277.358 35.3964 277.969 35.3964 278.772V283H34.1224V275.328H35.3964V276.434C35.6484 276.033 35.9844 275.725 36.4044 275.51C36.8338 275.295 37.3051 275.188 37.8184 275.188C38.4624 275.188 39.0318 275.333 39.5264 275.622C40.0211 275.911 40.3898 276.336 40.6324 276.896C40.8471 276.355 41.2018 275.935 41.6964 275.636C42.1911 275.337 42.7418 275.188 43.3484 275.188ZM48.1123 279.136C48.1123 278.352 48.2709 277.666 48.5883 277.078C48.9056 276.481 49.3396 276.019 49.8903 275.692C50.4503 275.365 51.0709 275.202 51.7523 275.202C52.4243 275.202 53.0076 275.347 53.5023 275.636C53.9969 275.925 54.3656 276.289 54.6083 276.728V275.328H55.8963V283H54.6083V281.572C54.3563 282.02 53.9783 282.393 53.4743 282.692C52.9796 282.981 52.4009 283.126 51.7383 283.126C51.0569 283.126 50.4409 282.958 49.8903 282.622C49.3396 282.286 48.9056 281.815 48.5883 281.208C48.2709 280.601 48.1123 279.911 48.1123 279.136ZM54.6083 279.15C54.6083 278.571 54.4916 278.067 54.2583 277.638C54.0249 277.209 53.7076 276.882 53.3063 276.658C52.9143 276.425 52.4803 276.308 52.0043 276.308C51.5283 276.308 51.0943 276.42 50.7023 276.644C50.3103 276.868 49.9976 277.195 49.7643 277.624C49.5309 278.053 49.4143 278.557 49.4143 279.136C49.4143 279.724 49.5309 280.237 49.7643 280.676C49.9976 281.105 50.3103 281.437 50.7023 281.67C51.0943 281.894 51.5283 282.006 52.0043 282.006C52.4803 282.006 52.9143 281.894 53.3063 281.67C53.7076 281.437 54.0249 281.105 54.2583 280.676C54.4916 280.237 54.6083 279.729 54.6083 279.15ZM59.6452 276.378V280.9C59.6452 281.273 59.7245 281.539 59.8832 281.698C60.0419 281.847 60.3172 281.922 60.7092 281.922H61.6472V283H60.4992C59.7899 283 59.2579 282.837 58.9032 282.51C58.5485 282.183 58.3712 281.647 58.3712 280.9V276.378H57.3772V275.328H58.3712V273.396H59.6452V275.328H61.6472V276.378H59.6452ZM63.8908 274.082C63.6481 274.082 63.4428 273.998 63.2748 273.83C63.1068 273.662 63.0228 273.457 63.0228 273.214C63.0228 272.971 63.1068 272.766 63.2748 272.598C63.4428 272.43 63.6481 272.346 63.8908 272.346C64.1241 272.346 64.3201 272.43 64.4788 272.598C64.6468 272.766 64.7308 272.971 64.7308 273.214C64.7308 273.457 64.6468 273.662 64.4788 273.83C64.3201 273.998 64.1241 274.082 63.8908 274.082ZM64.5068 275.328V283H63.2328V275.328H64.5068ZM70.0661 283.126C69.3475 283.126 68.6941 282.963 68.1061 282.636C67.5275 282.309 67.0701 281.847 66.7341 281.25C66.4075 280.643 66.2441 279.943 66.2441 279.15C66.2441 278.366 66.4121 277.675 66.7481 277.078C67.0935 276.471 67.5601 276.009 68.1481 275.692C68.7361 275.365 69.3941 275.202 70.1221 275.202C70.8501 275.202 71.5081 275.365 72.0961 275.692C72.6841 276.009 73.1461 276.467 73.4821 277.064C73.8275 277.661 74.0001 278.357 74.0001 279.15C74.0001 279.943 73.8228 280.643 73.4681 281.25C73.1228 281.847 72.6515 282.309 72.0541 282.636C71.4568 282.963 70.7941 283.126 70.0661 283.126ZM70.0661 282.006C70.5235 282.006 70.9528 281.899 71.3541 281.684C71.7555 281.469 72.0775 281.147 72.3201 280.718C72.5721 280.289 72.6981 279.766 72.6981 279.15C72.6981 278.534 72.5768 278.011 72.3341 277.582C72.0915 277.153 71.7741 276.835 71.3821 276.63C70.9901 276.415 70.5655 276.308 70.1081 276.308C69.6415 276.308 69.2121 276.415 68.8201 276.63C68.4375 276.835 68.1295 277.153 67.8961 277.582C67.6628 278.011 67.5461 278.534 67.5461 279.15C67.5461 279.775 67.6581 280.303 67.8821 280.732C68.1155 281.161 68.4235 281.483 68.8061 281.698C69.1888 281.903 69.6088 282.006 70.0661 282.006ZM79.4552 275.188C80.3885 275.188 81.1445 275.473 81.7232 276.042C82.3019 276.602 82.5912 277.414 82.5912 278.478V283H81.3312V278.66C81.3312 277.895 81.1399 277.311 80.7572 276.91C80.3745 276.499 79.8519 276.294 79.1892 276.294C78.5172 276.294 77.9805 276.504 77.5792 276.924C77.1872 277.344 76.9912 277.955 76.9912 278.758V283H75.7172V275.328H76.9912V276.42C77.2432 276.028 77.5839 275.725 78.0132 275.51C78.4519 275.295 78.9325 275.188 79.4552 275.188Z" fill="#666666"/>
<path d="M323.553 267.098C322.909 267.098 322.331 266.986 321.817 266.762C321.313 266.529 320.917 266.211 320.627 265.81C320.338 265.399 320.189 264.928 320.179 264.396H321.537C321.584 264.853 321.771 265.241 322.097 265.558C322.433 265.866 322.919 266.02 323.553 266.02C324.16 266.02 324.636 265.871 324.981 265.572C325.336 265.264 325.513 264.872 325.513 264.396C325.513 264.023 325.411 263.719 325.205 263.486C325 263.253 324.743 263.075 324.435 262.954C324.127 262.833 323.712 262.702 323.189 262.562C322.545 262.394 322.027 262.226 321.635 262.058C321.253 261.89 320.921 261.629 320.641 261.274C320.371 260.91 320.235 260.425 320.235 259.818C320.235 259.286 320.371 258.815 320.641 258.404C320.912 257.993 321.29 257.676 321.775 257.452C322.27 257.228 322.835 257.116 323.469 257.116C324.384 257.116 325.131 257.345 325.709 257.802C326.297 258.259 326.629 258.866 326.703 259.622H325.303C325.257 259.249 325.061 258.922 324.715 258.642C324.37 258.353 323.913 258.208 323.343 258.208C322.811 258.208 322.377 258.348 322.041 258.628C321.705 258.899 321.537 259.281 321.537 259.776C321.537 260.131 321.635 260.42 321.831 260.644C322.037 260.868 322.284 261.041 322.573 261.162C322.872 261.274 323.287 261.405 323.819 261.554C324.463 261.731 324.981 261.909 325.373 262.086C325.765 262.254 326.101 262.52 326.381 262.884C326.661 263.239 326.801 263.724 326.801 264.34C326.801 264.816 326.675 265.264 326.423 265.684C326.171 266.104 325.798 266.445 325.303 266.706C324.809 266.967 324.225 267.098 323.553 267.098ZM332.064 267.126C331.345 267.126 330.692 266.963 330.104 266.636C329.525 266.309 329.068 265.847 328.732 265.25C328.405 264.643 328.242 263.943 328.242 263.15C328.242 262.366 328.41 261.675 328.746 261.078C329.091 260.471 329.558 260.009 330.146 259.692C330.734 259.365 331.392 259.202 332.12 259.202C332.848 259.202 333.506 259.365 334.094 259.692C334.682 260.009 335.144 260.467 335.48 261.064C335.825 261.661 335.998 262.357 335.998 263.15C335.998 263.943 335.821 264.643 335.466 265.25C335.121 265.847 334.649 266.309 334.052 266.636C333.455 266.963 332.792 267.126 332.064 267.126ZM332.064 266.006C332.521 266.006 332.951 265.899 333.352 265.684C333.753 265.469 334.075 265.147 334.318 264.718C334.57 264.289 334.696 263.766 334.696 263.15C334.696 262.534 334.575 262.011 334.332 261.582C334.089 261.153 333.772 260.835 333.38 260.63C332.988 260.415 332.563 260.308 332.106 260.308C331.639 260.308 331.21 260.415 330.818 260.63C330.435 260.835 330.127 261.153 329.894 261.582C329.661 262.011 329.544 262.534 329.544 263.15C329.544 263.775 329.656 264.303 329.88 264.732C330.113 265.161 330.421 265.483 330.804 265.698C331.187 265.903 331.607 266.006 332.064 266.006ZM337.239 263.15C337.239 262.357 337.398 261.666 337.715 261.078C338.033 260.481 338.471 260.019 339.031 259.692C339.601 259.365 340.249 259.202 340.977 259.202C341.92 259.202 342.695 259.431 343.301 259.888C343.917 260.345 344.323 260.98 344.519 261.792H343.147C343.017 261.325 342.76 260.957 342.377 260.686C342.004 260.415 341.537 260.28 340.977 260.28C340.249 260.28 339.661 260.532 339.213 261.036C338.765 261.531 338.541 262.235 338.541 263.15C338.541 264.074 338.765 264.788 339.213 265.292C339.661 265.796 340.249 266.048 340.977 266.048C341.537 266.048 342.004 265.917 342.377 265.656C342.751 265.395 343.007 265.021 343.147 264.536H344.519C344.314 265.32 343.903 265.95 343.287 266.426C342.671 266.893 341.901 267.126 340.977 267.126C340.249 267.126 339.601 266.963 339.031 266.636C338.471 266.309 338.033 265.847 337.715 265.25C337.398 264.653 337.239 263.953 337.239 263.15ZM346.919 258.082C346.676 258.082 346.471 257.998 346.303 257.83C346.135 257.662 346.051 257.457 346.051 257.214C346.051 256.971 346.135 256.766 346.303 256.598C346.471 256.43 346.676 256.346 346.919 256.346C347.152 256.346 347.348 256.43 347.507 256.598C347.675 256.766 347.759 256.971 347.759 257.214C347.759 257.457 347.675 257.662 347.507 257.83C347.348 257.998 347.152 258.082 346.919 258.082ZM347.535 259.328V267H346.261V259.328H347.535ZM349.272 263.136C349.272 262.352 349.431 261.666 349.748 261.078C350.066 260.481 350.5 260.019 351.05 259.692C351.61 259.365 352.231 259.202 352.912 259.202C353.584 259.202 354.168 259.347 354.662 259.636C355.157 259.925 355.526 260.289 355.768 260.728V259.328H357.056V267H355.768V265.572C355.516 266.02 355.138 266.393 354.634 266.692C354.14 266.981 353.561 267.126 352.898 267.126C352.217 267.126 351.601 266.958 351.05 266.622C350.5 266.286 350.066 265.815 349.748 265.208C349.431 264.601 349.272 263.911 349.272 263.136ZM355.768 263.15C355.768 262.571 355.652 262.067 355.418 261.638C355.185 261.209 354.868 260.882 354.466 260.658C354.074 260.425 353.64 260.308 353.164 260.308C352.688 260.308 352.254 260.42 351.862 260.644C351.47 260.868 351.158 261.195 350.924 261.624C350.691 262.053 350.574 262.557 350.574 263.136C350.574 263.724 350.691 264.237 350.924 264.676C351.158 265.105 351.47 265.437 351.862 265.67C352.254 265.894 352.688 266.006 353.164 266.006C353.64 266.006 354.074 265.894 354.466 265.67C354.868 265.437 355.185 265.105 355.418 264.676C355.652 264.237 355.768 263.729 355.768 263.15ZM360.525 256.64V267H359.251V256.64H360.525ZM331.658 275.188C332.237 275.188 332.76 275.314 333.226 275.566C333.693 275.809 334.057 276.177 334.318 276.672C334.589 277.167 334.724 277.769 334.724 278.478V283H333.464V278.66C333.464 277.895 333.273 277.311 332.89 276.91C332.508 276.499 331.985 276.294 331.322 276.294C330.65 276.294 330.114 276.504 329.712 276.924C329.32 277.344 329.124 277.955 329.124 278.758V283H327.85V272.64H329.124V276.42C329.376 276.028 329.722 275.725 330.16 275.51C330.608 275.295 331.108 275.188 331.658 275.188ZM343.652 275.328V283H342.378V281.866C342.135 282.258 341.794 282.566 341.356 282.79C340.926 283.005 340.45 283.112 339.928 283.112C339.33 283.112 338.794 282.991 338.318 282.748C337.842 282.496 337.464 282.123 337.184 281.628C336.913 281.133 336.778 280.531 336.778 279.822V275.328H338.038V279.654C338.038 280.41 338.229 280.993 338.612 281.404C338.994 281.805 339.517 282.006 340.18 282.006C340.861 282.006 341.398 281.796 341.79 281.376C342.182 280.956 342.378 280.345 342.378 279.542V275.328H343.652ZM347.119 276.756C347.38 276.299 347.763 275.925 348.267 275.636C348.771 275.347 349.345 275.202 349.989 275.202C350.679 275.202 351.3 275.365 351.851 275.692C352.401 276.019 352.835 276.481 353.153 277.078C353.47 277.666 353.629 278.352 353.629 279.136C353.629 279.911 353.47 280.601 353.153 281.208C352.835 281.815 352.397 282.286 351.837 282.622C351.286 282.958 350.67 283.126 349.989 283.126C349.326 283.126 348.743 282.981 348.239 282.692C347.744 282.403 347.371 282.034 347.119 281.586V283H345.845V272.64H347.119V276.756ZM352.327 279.136C352.327 278.557 352.21 278.053 351.977 277.624C351.743 277.195 351.426 276.868 351.025 276.644C350.633 276.42 350.199 276.308 349.723 276.308C349.256 276.308 348.822 276.425 348.421 276.658C348.029 276.882 347.711 277.213 347.469 277.652C347.235 278.081 347.119 278.581 347.119 279.15C347.119 279.729 347.235 280.237 347.469 280.676C347.711 281.105 348.029 281.437 348.421 281.67C348.822 281.894 349.256 282.006 349.723 282.006C350.199 282.006 350.633 281.894 351.025 281.67C351.426 281.437 351.743 281.105 351.977 280.676C352.21 280.237 352.327 279.724 352.327 279.136Z" fill="#666666"/>
<path d="M252.432 3.242L249.604 13H248.176L245.908 5.146L243.556 13L242.142 13.014L239.412 3.242H240.77L242.898 11.516L245.25 3.242H246.678L248.918 11.488L251.06 3.242H252.432ZM260.868 8.87C260.868 9.11267 260.854 9.36933 260.826 9.64H254.694C254.741 10.396 254.998 10.9887 255.464 11.418C255.94 11.838 256.514 12.048 257.186 12.048C257.737 12.048 258.194 11.922 258.558 11.67C258.932 11.4087 259.193 11.0633 259.342 10.634H260.714C260.509 11.3713 260.098 11.9733 259.482 12.44C258.866 12.8973 258.101 13.126 257.186 13.126C256.458 13.126 255.805 12.9627 255.226 12.636C254.657 12.3093 254.209 11.8473 253.882 11.25C253.556 10.6433 253.392 9.94333 253.392 9.15C253.392 8.35667 253.551 7.66133 253.868 7.064C254.186 6.46667 254.629 6.00933 255.198 5.692C255.777 5.36533 256.44 5.202 257.186 5.202C257.914 5.202 258.558 5.36067 259.118 5.678C259.678 5.99533 260.108 6.434 260.406 6.994C260.714 7.54467 260.868 8.17 260.868 8.87ZM259.552 8.604C259.552 8.11867 259.445 7.70333 259.23 7.358C259.016 7.00333 258.722 6.73733 258.348 6.56C257.984 6.37333 257.578 6.28 257.13 6.28C256.486 6.28 255.936 6.48533 255.478 6.896C255.03 7.30667 254.774 7.876 254.708 8.604H259.552ZM263.866 6.756C264.127 6.29867 264.51 5.92533 265.014 5.636C265.518 5.34667 266.092 5.202 266.736 5.202C267.427 5.202 268.047 5.36533 268.598 5.692C269.149 6.01867 269.583 6.48067 269.9 7.078C270.217 7.666 270.376 8.352 270.376 9.136C270.376 9.91067 270.217 10.6013 269.9 11.208C269.583 11.8147 269.144 12.286 268.584 12.622C268.033 12.958 267.417 13.126 266.736 13.126C266.073 13.126 265.49 12.9813 264.986 12.692C264.491 12.4027 264.118 12.034 263.866 11.586V13H262.592V2.64H263.866V6.756ZM269.074 9.136C269.074 8.55733 268.957 8.05333 268.724 7.624C268.491 7.19467 268.173 6.868 267.772 6.644C267.38 6.42 266.946 6.308 266.47 6.308C266.003 6.308 265.569 6.42467 265.168 6.658C264.776 6.882 264.459 7.21333 264.216 7.652C263.983 8.08133 263.866 8.58067 263.866 9.15C263.866 9.72867 263.983 10.2373 264.216 10.676C264.459 11.1053 264.776 11.4367 265.168 11.67C265.569 11.894 266.003 12.006 266.47 12.006C266.946 12.006 267.38 11.894 267.772 11.67C268.173 11.4367 268.491 11.1053 268.724 10.676C268.957 10.2373 269.074 9.724 269.074 9.136ZM278.585 13.126C277.997 13.126 277.47 13.028 277.003 12.832C276.537 12.6267 276.168 12.3467 275.897 11.992C275.627 11.628 275.477 11.2127 275.449 10.746H276.765C276.803 11.1287 276.98 11.4413 277.297 11.684C277.624 11.9267 278.049 12.048 278.571 12.048C279.057 12.048 279.439 11.9407 279.719 11.726C279.999 11.5113 280.139 11.2407 280.139 10.914C280.139 10.578 279.99 10.3307 279.691 10.172C279.393 10.004 278.931 9.84067 278.305 9.682C277.736 9.53267 277.269 9.38333 276.905 9.234C276.551 9.07533 276.243 8.84667 275.981 8.548C275.729 8.24 275.603 7.83867 275.603 7.344C275.603 6.952 275.72 6.59267 275.953 6.266C276.187 5.93933 276.518 5.68267 276.947 5.496C277.377 5.3 277.867 5.202 278.417 5.202C279.267 5.202 279.953 5.41667 280.475 5.846C280.998 6.27533 281.278 6.86333 281.315 7.61H280.041C280.013 7.20867 279.85 6.88667 279.551 6.644C279.262 6.40133 278.87 6.28 278.375 6.28C277.918 6.28 277.554 6.378 277.283 6.574C277.013 6.77 276.877 7.02667 276.877 7.344C276.877 7.596 276.957 7.806 277.115 7.974C277.283 8.13267 277.489 8.26333 277.731 8.366C277.983 8.45933 278.329 8.56667 278.767 8.688C279.318 8.83733 279.766 8.98667 280.111 9.136C280.457 9.276 280.751 9.49067 280.993 9.78C281.245 10.0693 281.376 10.4473 281.385 10.914C281.385 11.334 281.269 11.712 281.035 12.048C280.802 12.384 280.471 12.65 280.041 12.846C279.621 13.0327 279.136 13.126 278.585 13.126ZM282.75 9.15C282.75 8.35667 282.909 7.666 283.226 7.078C283.543 6.48067 283.982 6.01867 284.542 5.692C285.111 5.36533 285.76 5.202 286.488 5.202C287.431 5.202 288.205 5.43067 288.812 5.888C289.428 6.34533 289.834 6.98 290.03 7.792H288.658C288.527 7.32533 288.271 6.95667 287.888 6.686C287.515 6.41533 287.048 6.28 286.488 6.28C285.76 6.28 285.172 6.532 284.724 7.036C284.276 7.53067 284.052 8.23533 284.052 9.15C284.052 10.074 284.276 10.788 284.724 11.292C285.172 11.796 285.76 12.048 286.488 12.048C287.048 12.048 287.515 11.9173 287.888 11.656C288.261 11.3947 288.518 11.0213 288.658 10.536H290.03C289.825 11.32 289.414 11.95 288.798 12.426C288.182 12.8927 287.412 13.126 286.488 13.126C285.76 13.126 285.111 12.9627 284.542 12.636C283.982 12.3093 283.543 11.8473 283.226 11.25C282.909 10.6527 282.75 9.95267 282.75 9.15ZM293.046 6.574C293.27 6.13533 293.587 5.79467 293.998 5.552C294.418 5.30933 294.927 5.188 295.524 5.188V6.504H295.188C293.76 6.504 293.046 7.27867 293.046 8.828V13H291.772V5.328H293.046V6.574ZM296.561 9.136C296.561 8.352 296.719 7.666 297.037 7.078C297.354 6.48067 297.788 6.01867 298.339 5.692C298.899 5.36533 299.519 5.202 300.201 5.202C300.873 5.202 301.456 5.34667 301.951 5.636C302.445 5.92533 302.814 6.28933 303.057 6.728V5.328H304.345V13H303.057V11.572C302.805 12.02 302.427 12.3933 301.923 12.692C301.428 12.9813 300.849 13.126 300.187 13.126C299.505 13.126 298.889 12.958 298.339 12.622C297.788 12.286 297.354 11.8147 297.037 11.208C296.719 10.6013 296.561 9.91067 296.561 9.136ZM303.057 9.15C303.057 8.57133 302.94 8.06733 302.707 7.638C302.473 7.20867 302.156 6.882 301.755 6.658C301.363 6.42467 300.929 6.308 300.453 6.308C299.977 6.308 299.543 6.42 299.151 6.644C298.759 6.868 298.446 7.19467 298.213 7.624C297.979 8.05333 297.863 8.55733 297.863 9.136C297.863 9.724 297.979 10.2373 298.213 10.676C298.446 11.1053 298.759 11.4367 299.151 11.67C299.543 11.894 299.977 12.006 300.453 12.006C300.929 12.006 301.363 11.894 301.755 11.67C302.156 11.4367 302.473 11.1053 302.707 10.676C302.94 10.2373 303.057 9.72867 303.057 9.15ZM307.813 6.742C308.065 6.30333 308.439 5.93933 308.933 5.65C309.437 5.35133 310.021 5.202 310.683 5.202C311.365 5.202 311.981 5.36533 312.531 5.692C313.091 6.01867 313.53 6.48067 313.847 7.078C314.165 7.666 314.323 8.352 314.323 9.136C314.323 9.91067 314.165 10.6013 313.847 11.208C313.53 11.8147 313.091 12.286 312.531 12.622C311.981 12.958 311.365 13.126 310.683 13.126C310.03 13.126 309.451 12.9813 308.947 12.692C308.453 12.3933 308.075 12.0247 307.813 11.586V16.64H306.539V5.328H307.813V6.742ZM313.021 9.136C313.021 8.55733 312.905 8.05333 312.671 7.624C312.438 7.19467 312.121 6.868 311.719 6.644C311.327 6.42 310.893 6.308 310.417 6.308C309.951 6.308 309.517 6.42467 309.115 6.658C308.723 6.882 308.406 7.21333 308.163 7.652C307.93 8.08133 307.813 8.58067 307.813 9.15C307.813 9.72867 307.93 10.2373 308.163 10.676C308.406 11.1053 308.723 11.4367 309.115 11.67C309.517 11.894 309.951 12.006 310.417 12.006C310.893 12.006 311.327 11.894 311.719 11.67C312.121 11.4367 312.438 11.1053 312.671 10.676C312.905 10.2373 313.021 9.724 313.021 9.136ZM316.7 4.082C316.458 4.082 316.252 3.998 316.084 3.83C315.916 3.662 315.832 3.45667 315.832 3.214C315.832 2.97133 315.916 2.766 316.084 2.598C316.252 2.43 316.458 2.346 316.7 2.346C316.934 2.346 317.13 2.43 317.288 2.598C317.456 2.766 317.54 2.97133 317.54 3.214C317.54 3.45667 317.456 3.662 317.288 3.83C317.13 3.998 316.934 4.082 316.7 4.082ZM317.316 5.328V13H316.042V5.328H317.316ZM323.268 5.188C324.201 5.188 324.957 5.47267 325.536 6.042C326.114 6.602 326.404 7.414 326.404 8.478V13H325.144V8.66C325.144 7.89467 324.952 7.31133 324.57 6.91C324.187 6.49933 323.664 6.294 323.002 6.294C322.33 6.294 321.793 6.504 321.392 6.924C321 7.344 320.804 7.95533 320.804 8.758V13H319.53V5.328H320.804V6.42C321.056 6.028 321.396 5.72467 321.826 5.51C322.264 5.29533 322.745 5.188 323.268 5.188ZM331.691 5.202C332.353 5.202 332.932 5.34667 333.427 5.636C333.931 5.92533 334.304 6.28933 334.547 6.728V5.328H335.835V13.168C335.835 13.868 335.685 14.4887 335.387 15.03C335.088 15.5807 334.659 16.01 334.099 16.318C333.548 16.626 332.904 16.78 332.167 16.78C331.159 16.78 330.319 16.542 329.647 16.066C328.975 15.59 328.578 14.9413 328.457 14.12H329.717C329.857 14.5867 330.146 14.96 330.585 15.24C331.023 15.5293 331.551 15.674 332.167 15.674C332.867 15.674 333.436 15.4547 333.875 15.016C334.323 14.5773 334.547 13.9613 334.547 13.168V11.558C334.295 12.006 333.921 12.3793 333.427 12.678C332.932 12.9767 332.353 13.126 331.691 13.126C331.009 13.126 330.389 12.958 329.829 12.622C329.278 12.286 328.844 11.8147 328.527 11.208C328.209 10.6013 328.051 9.91067 328.051 9.136C328.051 8.352 328.209 7.666 328.527 7.078C328.844 6.48067 329.278 6.01867 329.829 5.692C330.389 5.36533 331.009 5.202 331.691 5.202ZM334.547 9.15C334.547 8.57133 334.43 8.06733 334.197 7.638C333.963 7.20867 333.646 6.882 333.245 6.658C332.853 6.42467 332.419 6.308 331.943 6.308C331.467 6.308 331.033 6.42 330.641 6.644C330.249 6.868 329.936 7.19467 329.703 7.624C329.469 8.05333 329.353 8.55733 329.353 9.136C329.353 9.724 329.469 10.2373 329.703 10.676C329.936 11.1053 330.249 11.4367 330.641 11.67C331.033 11.894 331.467 12.006 331.943 12.006C332.419 12.006 332.853 11.894 333.245 11.67C333.646 11.4367 333.963 11.1053 334.197 10.676C334.43 10.2373 334.547 9.72867 334.547 9.15Z" fill="#666666"/>
<path d="M89.8534 8.114C89.8534 7.162 90.0681 6.308 90.4974 5.552C90.9268 4.78667 91.5101 4.18933 92.2474 3.76C92.9941 3.33067 93.8201 3.116 94.7254 3.116C95.7894 3.116 96.7181 3.37267 97.5114 3.886C98.3048 4.39933 98.8834 5.12733 99.2474 6.07H97.7214C97.4508 5.482 97.0588 5.02933 96.5454 4.712C96.0414 4.39467 95.4348 4.236 94.7254 4.236C94.0441 4.236 93.4328 4.39467 92.8914 4.712C92.3501 5.02933 91.9254 5.482 91.6174 6.07C91.3094 6.64867 91.1554 7.33 91.1554 8.114C91.1554 8.88867 91.3094 9.57 91.6174 10.158C91.9254 10.7367 92.3501 11.1847 92.8914 11.502C93.4328 11.8193 94.0441 11.978 94.7254 11.978C95.4348 11.978 96.0414 11.824 96.5454 11.516C97.0588 11.1987 97.4508 10.746 97.7214 10.158H99.2474C98.8834 11.0913 98.3048 11.8147 97.5114 12.328C96.7181 12.832 95.7894 13.084 94.7254 13.084C93.8201 13.084 92.9941 12.874 92.2474 12.454C91.5101 12.0247 90.9268 11.432 90.4974 10.676C90.0681 9.92 89.8534 9.066 89.8534 8.114ZM104.532 13.126C103.813 13.126 103.16 12.9627 102.572 12.636C101.993 12.3093 101.536 11.8473 101.2 11.25C100.873 10.6433 100.71 9.94333 100.71 9.15C100.71 8.366 100.878 7.67533 101.214 7.078C101.559 6.47133 102.026 6.00933 102.614 5.692C103.202 5.36533 103.86 5.202 104.588 5.202C105.316 5.202 105.974 5.36533 106.562 5.692C107.15 6.00933 107.612 6.46667 107.948 7.064C108.293 7.66133 108.466 8.35667 108.466 9.15C108.466 9.94333 108.289 10.6433 107.934 11.25C107.589 11.8473 107.117 12.3093 106.52 12.636C105.923 12.9627 105.26 13.126 104.532 13.126ZM104.532 12.006C104.989 12.006 105.419 11.8987 105.82 11.684C106.221 11.4693 106.543 11.1473 106.786 10.718C107.038 10.2887 107.164 9.766 107.164 9.15C107.164 8.534 107.043 8.01133 106.8 7.582C106.557 7.15267 106.24 6.83533 105.848 6.63C105.456 6.41533 105.031 6.308 104.574 6.308C104.107 6.308 103.678 6.41533 103.286 6.63C102.903 6.83533 102.595 7.15267 102.362 7.582C102.129 8.01133 102.012 8.534 102.012 9.15C102.012 9.77533 102.124 10.3027 102.348 10.732C102.581 11.1613 102.889 11.4833 103.272 11.698C103.655 11.9033 104.075 12.006 104.532 12.006ZM113.921 5.188C114.854 5.188 115.61 5.47267 116.189 6.042C116.768 6.602 117.057 7.414 117.057 8.478V13H115.797V8.66C115.797 7.89467 115.606 7.31133 115.223 6.91C114.84 6.49933 114.318 6.294 113.655 6.294C112.983 6.294 112.446 6.504 112.045 6.924C111.653 7.344 111.457 7.95533 111.457 8.758V13H110.183V5.328H111.457V6.42C111.709 6.028 112.05 5.72467 112.479 5.51C112.918 5.29533 113.398 5.188 113.921 5.188ZM120.734 6.378V10.9C120.734 11.2733 120.813 11.5393 120.972 11.698C121.131 11.8473 121.406 11.922 121.798 11.922H122.736V13H121.588C120.879 13 120.347 12.8367 119.992 12.51C119.637 12.1833 119.46 11.6467 119.46 10.9V6.378H118.466V5.328H119.46V3.396H120.734V5.328H122.736V6.378H120.734ZM123.846 9.136C123.846 8.352 124.004 7.666 124.322 7.078C124.639 6.48067 125.073 6.01867 125.624 5.692C126.184 5.36533 126.804 5.202 127.486 5.202C128.158 5.202 128.741 5.34667 129.236 5.636C129.73 5.92533 130.099 6.28933 130.342 6.728V5.328H131.63V13H130.342V11.572C130.09 12.02 129.712 12.3933 129.208 12.692C128.713 12.9813 128.134 13.126 127.472 13.126C126.79 13.126 126.174 12.958 125.624 12.622C125.073 12.286 124.639 11.8147 124.322 11.208C124.004 10.6013 123.846 9.91067 123.846 9.136ZM130.342 9.15C130.342 8.57133 130.225 8.06733 129.992 7.638C129.758 7.20867 129.441 6.882 129.04 6.658C128.648 6.42467 128.214 6.308 127.738 6.308C127.262 6.308 126.828 6.42 126.436 6.644C126.044 6.868 125.731 7.19467 125.498 7.624C125.264 8.05333 125.148 8.55733 125.148 9.136C125.148 9.724 125.264 10.2373 125.498 10.676C125.731 11.1053 126.044 11.4367 126.436 11.67C126.828 11.894 127.262 12.006 127.738 12.006C128.214 12.006 128.648 11.894 129.04 11.67C129.441 11.4367 129.758 11.1053 129.992 10.676C130.225 10.2373 130.342 9.72867 130.342 9.15ZM133.349 9.15C133.349 8.35667 133.507 7.666 133.825 7.078C134.142 6.48067 134.581 6.01867 135.141 5.692C135.71 5.36533 136.359 5.202 137.087 5.202C138.029 5.202 138.804 5.43067 139.411 5.888C140.027 6.34533 140.433 6.98 140.629 7.792H139.257C139.126 7.32533 138.869 6.95667 138.487 6.686C138.113 6.41533 137.647 6.28 137.087 6.28C136.359 6.28 135.771 6.532 135.323 7.036C134.875 7.53067 134.651 8.23533 134.651 9.15C134.651 10.074 134.875 10.788 135.323 11.292C135.771 11.796 136.359 12.048 137.087 12.048C137.647 12.048 138.113 11.9173 138.487 11.656C138.86 11.3947 139.117 11.0213 139.257 10.536H140.629C140.423 11.32 140.013 11.95 139.397 12.426C138.781 12.8927 138.011 13.126 137.087 13.126C136.359 13.126 135.71 12.9627 135.141 12.636C134.581 12.3093 134.142 11.8473 133.825 11.25C133.507 10.6527 133.349 9.95267 133.349 9.15ZM143.924 6.378V10.9C143.924 11.2733 144.004 11.5393 144.162 11.698C144.321 11.8473 144.596 11.922 144.988 11.922H145.926V13H144.778C144.069 13 143.537 12.8367 143.182 12.51C142.828 12.1833 142.65 11.6467 142.65 10.9V6.378H141.656V5.328H142.65V3.396H143.924V5.328H145.926V6.378H143.924ZM150.228 13.126C149.64 13.126 149.113 13.028 148.646 12.832C148.179 12.6267 147.811 12.3467 147.54 11.992C147.269 11.628 147.12 11.2127 147.092 10.746H148.408C148.445 11.1287 148.623 11.4413 148.94 11.684C149.267 11.9267 149.691 12.048 150.214 12.048C150.699 12.048 151.082 11.9407 151.362 11.726C151.642 11.5113 151.782 11.2407 151.782 10.914C151.782 10.578 151.633 10.3307 151.334 10.172C151.035 10.004 150.573 9.84067 149.948 9.682C149.379 9.53267 148.912 9.38333 148.548 9.234C148.193 9.07533 147.885 8.84667 147.624 8.548C147.372 8.24 147.246 7.83867 147.246 7.344C147.246 6.952 147.363 6.59267 147.596 6.266C147.829 5.93933 148.161 5.68267 148.59 5.496C149.019 5.3 149.509 5.202 150.06 5.202C150.909 5.202 151.595 5.41667 152.118 5.846C152.641 6.27533 152.921 6.86333 152.958 7.61H151.684C151.656 7.20867 151.493 6.88667 151.194 6.644C150.905 6.40133 150.513 6.28 150.018 6.28C149.561 6.28 149.197 6.378 148.926 6.574C148.655 6.77 148.52 7.02667 148.52 7.344C148.52 7.596 148.599 7.806 148.758 7.974C148.926 8.13267 149.131 8.26333 149.374 8.366C149.626 8.45933 149.971 8.56667 150.41 8.688C150.961 8.83733 151.409 8.98667 151.754 9.136C152.099 9.276 152.393 9.49067 152.636 9.78C152.888 10.0693 153.019 10.4473 153.028 10.914C153.028 11.334 152.911 11.712 152.678 12.048C152.445 12.384 152.113 12.65 151.684 12.846C151.264 13.0327 150.779 13.126 150.228 13.126Z" fill="#666666"/>
</svg>
