<svg width="54" height="15" viewBox="0 0 54 15" fill="none" xmlns="http://www.w3.org/2000/svg">
<path d="M5.9711 12.111C5.0861 12.111 4.29065 11.974 3.58476 11.7001C2.88941 11.4156 2.29414 11.0153 1.79896 10.499C1.31432 9.97223 0.9403 9.34536 0.676908 8.6184C0.424051 7.89143 0.297622 7.08545 0.297622 6.20045C0.297622 5.27331 0.434586 4.45153 0.708515 3.7351C0.992979 3.00813 1.38807 2.3918 1.89378 1.88608C2.3995 1.36983 3.0053 0.980011 3.71119 0.716619C4.41708 0.44269 5.20199 0.305726 6.06592 0.305726C7.06681 0.305726 7.94654 0.474297 8.70511 0.81144C9.46368 1.13805 10.0695 1.60162 10.5225 2.20215C10.9861 2.79215 11.2653 3.48751 11.3601 4.28822H9.21083C9.11601 3.82465 8.9211 3.43483 8.6261 3.11876C8.34163 2.79215 7.97815 2.54456 7.53565 2.37599C7.10369 2.19689 6.61378 2.10733 6.06592 2.10733C5.33896 2.10733 4.70155 2.26537 4.15369 2.58144C3.60583 2.88697 3.1844 3.34528 2.88941 3.95635C2.59441 4.56742 2.44691 5.31545 2.44691 6.20045C2.44691 6.8642 2.52592 7.45947 2.68396 7.98625C2.85253 8.5025 3.09485 8.93447 3.41092 9.28215C3.72699 9.62982 4.10101 9.89848 4.53297 10.0881C4.97547 10.2672 5.46538 10.3568 6.00271 10.3568C6.7086 10.3568 7.31967 10.2304 7.83592 9.9775C8.35217 9.71411 8.75252 9.34009 9.03699 8.85545C9.32145 8.36027 9.46368 7.77554 9.46368 7.10125V6.69036L10.08 7.41733H6.03431V5.90019H11.5814V6.8642C11.5814 7.66492 11.4444 8.39188 11.1705 9.04509C10.9071 9.68777 10.5278 10.2356 10.0326 10.6887C9.54797 11.1417 8.95797 11.4946 8.26261 11.7475C7.57779 11.9898 6.81395 12.111 5.9711 12.111ZM35.8236 14.766C35.1178 14.766 34.5067 14.6606 33.9904 14.4499C33.4742 14.2497 33.0633 13.96 32.7578 13.5807C32.4628 13.212 32.2942 12.78 32.252 12.2848H34.1485C34.1906 12.4955 34.2854 12.6799 34.4329 12.8379C34.591 12.996 34.7911 13.1171 35.0335 13.2014C35.2758 13.2962 35.555 13.3437 35.8711 13.3437C36.3452 13.3437 36.735 13.2752 37.0405 13.1382C37.3566 13.0012 37.5884 12.7905 37.7359 12.5061C37.8939 12.2216 37.9729 11.8529 37.9729 11.3998V9.85107H37.8623C37.6832 10.3357 37.3566 10.7308 36.8825 11.0363C36.4084 11.3313 35.85 11.4788 35.2073 11.4788C34.7016 11.4788 34.2433 11.3893 33.8324 11.2102C33.432 11.0311 33.0844 10.7729 32.7894 10.4358C32.4944 10.0881 32.2678 9.6667 32.1098 9.17152C31.9518 8.66581 31.8728 8.08634 31.8728 7.43313C31.8728 6.55867 32.0097 5.82643 32.2836 5.23644C32.5681 4.6359 32.9632 4.18287 33.4689 3.87733C33.9746 3.56126 34.5646 3.40322 35.2389 3.40322C35.8711 3.40322 36.4189 3.55072 36.8825 3.84572C37.3566 4.14072 37.6832 4.52528 37.8623 4.99938H37.9729L38.0361 3.56126H39.9484V11.0838C39.9484 11.758 39.8483 12.327 39.6481 12.7905C39.4585 13.2646 39.1793 13.6439 38.8105 13.9284C38.4418 14.2234 38.0045 14.4341 37.4988 14.5605C37.0036 14.6975 36.4453 14.766 35.8236 14.766ZM35.9185 9.94589C36.361 9.94589 36.7297 9.85107 37.0247 9.66143C37.3302 9.46125 37.562 9.2084 37.7201 8.90286C37.8781 8.58679 37.9624 8.26545 37.9729 7.93884V6.92742C37.9624 6.59027 37.8781 6.2742 37.7201 5.9792C37.562 5.67367 37.3355 5.42608 37.0405 5.23644C36.7455 5.03626 36.3768 4.93617 35.9343 4.93617C35.5234 4.93617 35.1599 5.03099 34.8438 5.22063C34.5383 5.41027 34.3012 5.68947 34.1327 6.05822C33.9641 6.42697 33.8798 6.88527 33.8798 7.43313C33.8798 7.99152 33.9641 8.46036 34.1327 8.83965C34.3118 9.2084 34.5541 9.48759 34.8596 9.67723C35.1652 9.85634 35.5181 9.94589 35.9185 9.94589Z" fill="#3074F1"/>
<path d="M16.9695 12.111C16.3374 12.111 15.7684 12.0162 15.2627 11.8265C14.757 11.6263 14.3145 11.3366 13.9352 10.9573C13.5665 10.578 13.282 10.1197 13.0818 9.58241C12.8922 9.04509 12.7974 8.43929 12.7974 7.765C12.7974 6.90108 12.9607 6.14251 13.2873 5.48929C13.6244 4.83608 14.1038 4.3251 14.7254 3.95635C15.347 3.5876 16.095 3.40322 16.9695 3.40322C17.5911 3.40322 18.1548 3.50331 18.6605 3.70349C19.1662 3.90367 19.5982 4.1934 19.9564 4.57269C20.3251 4.95197 20.6096 5.41027 20.8098 5.9476C21.01 6.47438 21.11 7.08018 21.11 7.765C21.11 8.6184 20.9415 9.3717 20.6043 10.0249C20.2777 10.6781 19.8036 11.1891 19.182 11.5579C18.5709 11.9266 17.8334 12.111 16.9695 12.111ZM16.9537 10.4832C17.3857 10.4832 17.765 10.3831 18.0916 10.1829C18.4182 9.97223 18.671 9.6667 18.8501 9.26634C19.0292 8.85545 19.1188 8.355 19.1188 7.765C19.1188 7.3225 19.0661 6.93268 18.9608 6.59554C18.8659 6.24786 18.7237 5.95813 18.5341 5.72635C18.3444 5.49456 18.1179 5.32072 17.8545 5.20483C17.5911 5.08894 17.2961 5.03099 16.9695 5.03099C16.5375 5.03099 16.153 5.13635 15.8158 5.34706C15.4892 5.54724 15.2364 5.85277 15.0573 6.26367C14.8782 6.66402 14.7886 7.16447 14.7886 7.765C14.7886 8.2075 14.836 8.60259 14.9308 8.95027C15.0362 9.28741 15.1837 9.57188 15.3733 9.80366C15.563 10.0249 15.7895 10.1935 16.0529 10.3094C16.3268 10.4253 16.6271 10.4832 16.9537 10.4832ZM49.5915 12.111C48.7381 12.111 48.0111 11.9371 47.4106 11.5895C46.8206 11.2313 46.3676 10.7308 46.0515 10.0881C45.7354 9.43491 45.5774 8.67634 45.5774 7.81241C45.5774 6.91688 45.7354 6.14251 46.0515 5.48929C46.3676 4.82554 46.8206 4.31456 47.4106 3.95635C48.0006 3.59813 48.7012 3.41903 49.5125 3.41903C50.4396 3.41903 51.1982 3.62447 51.7882 4.03537C52.3887 4.43572 52.8207 4.99411 53.0841 5.71054C53.3475 6.42697 53.437 7.24875 53.3527 8.1759H47.5054C47.5054 8.71322 47.5897 9.16625 47.7583 9.535C47.9374 9.89322 48.1797 10.1671 48.4853 10.3568C48.8013 10.5359 49.1701 10.6254 49.5915 10.6254C50.0867 10.6254 50.4976 10.5096 50.8242 10.2778C51.1508 10.0354 51.3615 9.72465 51.4563 9.34536H53.3053C53.2421 9.91429 53.0419 10.4095 52.7048 10.8309C52.3677 11.2418 51.9304 11.5579 51.3931 11.7791C50.8558 12.0004 50.2553 12.111 49.5915 12.111ZM47.5054 7.11706L47.3316 6.91161H51.6144L51.4247 7.13286C51.4458 6.61661 51.3773 6.19518 51.2193 5.86858C51.0612 5.54197 50.8347 5.29965 50.5397 5.14161C50.2447 4.98358 49.9023 4.90456 49.5125 4.90456C49.1121 4.90456 48.7644 4.98885 48.4694 5.15742C48.1744 5.32599 47.9427 5.57885 47.7741 5.91599C47.6055 6.2426 47.516 6.64295 47.5054 7.11706Z" fill="#E73124"/>
<path d="M26.5072 12.111C25.8751 12.111 25.3061 12.0162 24.8004 11.8265C24.2947 11.6263 23.8522 11.3366 23.4729 10.9573C23.1042 10.578 22.8197 10.1197 22.6195 9.58241C22.4299 9.04509 22.3351 8.43929 22.3351 7.765C22.3351 6.90108 22.4984 6.14251 22.825 5.48929C23.1621 4.83608 23.6415 4.3251 24.2631 3.95635C24.8847 3.5876 25.6327 3.40322 26.5072 3.40322C27.1288 3.40322 27.6925 3.50331 28.1982 3.70349C28.7039 3.90367 29.1359 4.1934 29.4941 4.57269C29.8628 4.95197 30.1473 5.41027 30.3475 5.9476C30.5476 6.47438 30.6477 7.08018 30.6477 7.765C30.6477 8.6184 30.4792 9.3717 30.142 10.0249C29.8154 10.6781 29.3413 11.1891 28.7197 11.5579C28.1086 11.9266 27.3711 12.111 26.5072 12.111ZM26.4914 10.4832C26.9234 10.4832 27.3026 10.3831 27.6293 10.1829C27.9559 9.97223 28.2087 9.6667 28.3878 9.26634C28.5669 8.85545 28.6565 8.355 28.6565 7.765C28.6565 7.3225 28.6038 6.93268 28.4984 6.59554C28.4036 6.24786 28.2614 5.95813 28.0718 5.72635C27.8821 5.49456 27.6556 5.32072 27.3922 5.20483C27.1288 5.08894 26.8338 5.03099 26.5072 5.03099C26.0752 5.03099 25.6907 5.13635 25.3535 5.34706C25.0269 5.54724 24.7741 5.85277 24.595 6.26367C24.4159 6.66402 24.3263 7.16447 24.3263 7.765C24.3263 8.2075 24.3737 8.60259 24.4685 8.95027C24.5739 9.28741 24.7214 9.57188 24.911 9.80366C25.1007 10.0249 25.3272 10.1935 25.5906 10.3094C25.8645 10.4253 26.1648 10.4832 26.4914 10.4832Z" fill="#FCB002"/>
<path d="M41.9937 11.9688V0.447958H43.9691V11.9688H41.9937Z" fill="#249B41"/>
</svg>
