<svg width="45" height="45" viewBox="0 0 45 45" fill="none" xmlns="http://www.w3.org/2000/svg">
<rect x="0.0500488" y="0.0683594" width="44" height="44" rx="22" fill="#F582A5"/>
<g clip-path="url(#clip0_33_1953)">
<path d="M27.8534 23.5684H29.175V20.5684H27.8534C27.714 20.0265 27.4989 19.507 27.2145 19.0251L28.1488 18.0909L26.0275 15.9696L25.0932 16.9039C24.6114 16.6195 24.0919 16.4044 23.55 16.265V14.9434H20.55V16.265C20.0082 16.4044 19.4887 16.6195 19.0069 16.9039L18.0726 15.9696L15.9513 18.0909L16.8855 19.0252C16.6011 19.507 16.3861 20.0265 16.2467 20.5684H14.925V23.5684H16.2467C16.3861 24.1102 16.6012 24.6297 16.8855 25.1115L15.9513 26.0458L18.0726 28.1671L19.0068 27.2329C19.4887 27.5173 20.0082 27.7323 20.55 27.8717V29.1934H23.55V27.8717C24.0919 27.7323 24.6114 27.5173 25.0933 27.2329L26.0275 28.1671L28.1488 26.0458L27.2146 25.1115C27.4989 24.6297 27.714 24.1102 27.8534 23.5684ZM22.05 26.1934C21.2342 26.1934 20.4367 25.9514 19.7583 25.4982C19.08 25.0449 18.5513 24.4007 18.239 23.6469C17.9268 22.8932 17.8451 22.0638 18.0043 21.2636C18.1635 20.4634 18.5563 19.7284 19.1332 19.1515C19.7101 18.5747 20.4451 18.1818 21.2453 18.0226C22.0455 17.8635 22.8749 17.9451 23.6286 18.2574C24.3824 18.5696 25.0266 19.0983 25.4799 19.7766C25.9331 20.455 26.175 21.2525 26.175 22.0684C26.175 23.1624 25.7405 24.2116 24.9669 24.9852C24.1933 25.7588 23.1441 26.1934 22.05 26.1934Z" fill="#034737"/>
<path d="M20.925 24.3184L24.675 22.0684L20.925 19.8184V24.3184Z" fill="#034737"/>
<path d="M31.8 13.8184C32.6285 13.8184 33.3 13.1468 33.3 12.3184C33.3 11.4899 32.6285 10.8184 31.8 10.8184C30.9716 10.8184 30.3 11.4899 30.3 12.3184C30.3 13.1468 30.9716 13.8184 31.8 13.8184Z" fill="#034737"/>
<path d="M12.3 13.8184C13.1285 13.8184 13.8 13.1468 13.8 12.3184C13.8 11.4899 13.1285 10.8184 12.3 10.8184C11.4716 10.8184 10.8 11.4899 10.8 12.3184C10.8 13.1468 11.4716 13.8184 12.3 13.8184Z" fill="#034737"/>
<path d="M31.8 33.3184C32.6285 33.3184 33.3 32.6468 33.3 31.8184C33.3 30.9899 32.6285 30.3184 31.8 30.3184C30.9716 30.3184 30.3 30.9899 30.3 31.8184C30.3 32.6468 30.9716 33.3184 31.8 33.3184Z" fill="#034737"/>
<path d="M12.3 33.3184C13.1285 33.3184 13.8 32.6468 13.8 31.8184C13.8 30.9899 13.1285 30.3184 12.3 30.3184C11.4716 30.3184 10.8 30.9899 10.8 31.8184C10.8 32.6468 11.4716 33.3184 12.3 33.3184Z" fill="#034737"/>
<path d="M31.05 22.0684H30.3V22.8184H31.05V22.0684Z" fill="#034737"/>
<path d="M32.55 22.0684H31.8V22.8184H32.55V22.0684Z" fill="#034737"/>
<path d="M32.55 20.5684H31.8V21.3184H32.55V20.5684Z" fill="#034737"/>
<path d="M32.55 19.0684H31.8V19.8184H32.55V19.0684Z" fill="#034737"/>
<path d="M32.55 17.5684H31.8V18.3184H32.55V17.5684Z" fill="#034737"/>
<path d="M32.55 16.0684H31.8V16.8184H32.55V16.0684Z" fill="#034737"/>
<path d="M32.55 14.5684H31.8V15.3184H32.55V14.5684Z" fill="#034737"/>
<path d="M15.3 11.5684H14.55V12.3184H15.3V11.5684Z" fill="#034737"/>
<path d="M16.8 11.5684H16.05V12.3184H16.8V11.5684Z" fill="#034737"/>
<path d="M18.3 11.5684H17.55V12.3184H18.3V11.5684Z" fill="#034737"/>
<path d="M19.8 11.5684H19.05V12.3184H19.8V11.5684Z" fill="#034737"/>
<path d="M21.3 11.5684H20.55V12.3184H21.3V11.5684Z" fill="#034737"/>
<path d="M22.8 11.5684H22.05V12.3184H22.8V11.5684Z" fill="#034737"/>
<path d="M22.8 13.0684H22.05V13.8184H22.8V13.0684Z" fill="#034737"/>
<path d="M12.3 28.8184H11.55V29.5684H12.3V28.8184Z" fill="#034737"/>
<path d="M12.3 27.3184H11.55V28.0684H12.3V27.3184Z" fill="#034737"/>
<path d="M12.3 25.8184H11.55V26.5684H12.3V25.8184Z" fill="#034737"/>
<path d="M12.3 24.3184H11.55V25.0684H12.3V24.3184Z" fill="#034737"/>
<path d="M12.3 22.8184H11.55V23.5684H12.3V22.8184Z" fill="#034737"/>
<path d="M12.3 21.3184H11.55V22.0684H12.3V21.3184Z" fill="#034737"/>
<path d="M13.8 21.3184H13.05V22.0684H13.8V21.3184Z" fill="#034737"/>
<path d="M22.05 30.3184H21.3V31.0684H22.05V30.3184Z" fill="#034737"/>
<path d="M22.05 31.8184H21.3V32.5684H22.05V31.8184Z" fill="#034737"/>
<path d="M23.55 31.8184H22.8V32.5684H23.55V31.8184Z" fill="#034737"/>
<path d="M25.05 31.8184H24.3V32.5684H25.05V31.8184Z" fill="#034737"/>
<path d="M26.55 31.8184H25.8V32.5684H26.55V31.8184Z" fill="#034737"/>
<path d="M28.05 31.8184H27.3V32.5684H28.05V31.8184Z" fill="#034737"/>
<path d="M29.55 31.8184H28.8V32.5684H29.55V31.8184Z" fill="#F582A5"/>
</g>
<defs>
<clipPath id="clip0_33_1953">
<rect width="24" height="24" fill="white" transform="translate(10.05 10.0684)"/>
</clipPath>
</defs>
</svg>
