<svg width="44" height="45" viewBox="0 0 44 45" fill="none" xmlns="http://www.w3.org/2000/svg">
<rect y="0.0683594" width="44" height="44" rx="22" fill="#A9FF9B"/>
<path d="M33.3246 10.745C33.2763 12.4617 32.9503 14.1593 32.3594 15.7719L28.2969 11.7094C29.9087 11.1147 31.6072 10.7895 33.3246 10.745ZM27.4844 12.0385L32.0547 16.6088L31.6988 17.2945L26.7734 12.4195C27.1846 12.1823 27.2398 12.1717 27.4844 12.0385ZM26.0373 12.851L31.2926 18.0306C28.9932 21.9079 25.3613 24.828 21.7213 26.6886C21.2492 26.9251 20.7731 27.1583 20.2734 27.3744C20.1922 27.4101 20.1012 27.4418 20.0191 27.476L16.592 24.0228C18.3567 19.8604 21.5604 15.4965 26.0373 12.851ZM25.6311 16.7867C25.3947 16.7876 25.1609 16.8351 24.9429 16.9266C24.725 17.0181 24.5273 17.1517 24.3611 17.3197C23.6624 18.0185 23.6624 19.1608 24.3611 19.8588C25.0599 20.5575 26.2022 20.5575 26.9002 19.8588C27.5989 19.16 27.5989 18.0185 26.9002 17.3197C26.7341 17.152 26.5366 17.0187 26.319 16.9274C26.1014 16.836 25.8679 16.7885 25.6319 16.7875L25.6311 16.7867ZM25.6311 17.5992C25.8837 17.5992 26.1478 17.6845 26.342 17.8787C26.4342 17.9701 26.5075 18.0789 26.5574 18.1987C26.6074 18.3186 26.6331 18.4472 26.6331 18.577C26.6331 18.7069 26.6074 18.8355 26.5574 18.9553C26.5075 19.0752 26.4342 19.184 26.342 19.2754C26.1523 19.4619 25.897 19.5664 25.6311 19.5664C25.3651 19.5664 25.1098 19.4619 24.9201 19.2754C24.8277 19.184 24.7544 19.0751 24.7044 18.9552C24.6543 18.8353 24.6286 18.7066 24.6286 18.5766C24.6286 18.4467 24.6543 18.318 24.7044 18.1981C24.7544 18.0781 24.8277 17.9693 24.9201 17.8779C25.1109 17.6946 25.3665 17.5943 25.6311 17.5992ZM17.6832 17.8787C18.1414 17.8844 18.5818 17.9973 19.0043 18.1322C18.6882 18.5661 18.3892 19.0373 18.0894 19.5037C17.8936 19.8027 17.6881 20.1147 17.5061 20.4178C17.2295 20.8926 16.967 21.3754 16.7187 21.8656C16.5424 22.2053 16.3946 22.5416 16.2361 22.8813C16.2231 22.9097 16.1987 22.93 16.1857 22.9576C15.5959 22.3239 14.8459 21.9583 13.9002 22.1191C13.0852 22.2581 12.1159 22.7805 11.0564 23.4655C12.1037 21.5975 13.3347 19.9945 14.6875 19.0463C15.5463 18.445 16.4092 18.0518 17.2266 17.9039C17.3778 17.8803 17.5302 17.8719 17.6832 17.8787ZM25.9357 25.0645C26.3444 26.3482 26.0901 27.8538 25.0217 29.3805C24.0735 30.7349 22.4729 31.9642 20.6033 33.0115C21.2907 31.9488 21.8099 30.9843 21.9488 30.1678C22.1089 29.2285 21.7351 28.4713 21.1119 27.8822C21.5507 27.6799 21.9919 27.48 22.4314 27.2476C22.8435 27.0296 23.2499 26.801 23.6502 26.5619C24.4367 26.1015 25.1996 25.6017 25.9357 25.0645ZM15.708 25.4756L18.3486 28.091L17.7644 28.4461L15.3781 26.085L15.708 25.4756ZM14.1846 27.71L12.2549 29.6396L12.6611 30.0207L14.5656 28.091L14.1846 27.71ZM14.9719 28.4713L11.8738 31.5693L12.2557 31.9504L15.3529 28.8523L14.9719 28.4713ZM15.7332 29.2594L13.4232 31.5693L13.8035 31.9504L16.1142 29.6396L15.7332 29.2594ZM11.8738 30.0207L11.4936 30.401L11.8738 30.7828L12.2557 30.401L11.8738 30.0207ZM11.4936 31.9504L11.1117 32.3306L11.4936 32.7125L11.8738 32.3306L11.4936 31.9504ZM13.0422 31.9504L12.6611 32.3306L13.0422 32.7125L13.4232 32.3306L13.0422 31.9504Z" fill="#034737"/>
</svg>
