<svg width="45" height="45" viewBox="0 0 45 45" fill="none" xmlns="http://www.w3.org/2000/svg">
<rect x="0.0500488" y="0.0683594" width="44" height="44" rx="22" fill="#FDDF6E"/>
<path d="M27.7375 17.1934C29.0837 17.1934 30.175 16.1021 30.175 14.7559C30.175 13.4097 29.0837 12.3184 27.7375 12.3184C26.3914 12.3184 25.3 13.4097 25.3 14.7559C25.3 16.1021 26.3914 17.1934 27.7375 17.1934Z" fill="#034737"/>
<path d="M24.2113 30.7337L24.0813 29.9821C24.0681 29.9035 24.0321 29.8304 23.9778 29.7721C23.9234 29.7138 23.853 29.6728 23.7755 29.6541C23.698 29.6355 23.6167 29.6401 23.5417 29.6674C23.4668 29.6946 23.4016 29.7433 23.3541 29.8074L22.501 31.0059C22.4385 31.0928 22.4128 31.2008 22.4295 31.3066C22.4463 31.4123 22.5041 31.5072 22.5904 31.5705L23.7766 32.4318C23.8425 32.4813 23.922 32.5095 24.0043 32.5128C24.0867 32.5161 24.1681 32.4942 24.2377 32.4501C24.3074 32.4061 24.362 32.3418 24.3942 32.266C24.4265 32.1902 24.435 32.1063 24.4185 32.0255L24.3413 31.5421C26.0801 31.1212 27.6696 30.2299 28.9358 28.966C30.2019 27.702 31.0959 26.114 31.5197 24.3759L32.1251 24.4977C32.2026 24.5103 32.2822 24.5001 32.3541 24.4684C32.426 24.4367 32.4872 24.3848 32.5302 24.319C32.5732 24.2532 32.5962 24.1763 32.5964 24.0977C32.5966 24.0191 32.574 23.9422 32.5313 23.8762L31.7188 22.6574C31.6592 22.5684 31.5669 22.5064 31.4619 22.4851C31.3569 22.4638 31.2477 22.4849 31.1582 22.5437L29.9394 23.3562C29.87 23.4005 29.8158 23.4649 29.7838 23.5408C29.7518 23.6167 29.7437 23.7005 29.7604 23.7811C29.7772 23.8617 29.818 23.9353 29.8775 23.9922C29.9371 24.0491 30.0125 24.0866 30.0938 24.0996L30.7235 24.2255C30.3307 25.7991 29.5171 27.2362 28.3699 28.3827C27.2227 29.5291 25.7851 30.3418 24.2113 30.7337ZM27.7376 10.2871C26.5323 10.2871 25.3542 10.6445 24.352 11.3141C23.3499 11.9837 22.5689 12.9354 22.1077 14.0489C21.6464 15.1624 21.5258 16.3876 21.7609 17.5697C21.996 18.7518 22.5764 19.8376 23.4286 20.6898C24.2808 21.542 25.3666 22.1224 26.5487 22.3575C27.7308 22.5926 28.956 22.472 30.0695 22.0108C31.183 21.5495 32.1347 20.7685 32.8043 19.7664C33.4739 18.7643 33.8313 17.5861 33.8313 16.3809C33.8313 14.7647 33.1893 13.2147 32.0465 12.0719C30.9037 10.9291 29.3537 10.2871 27.7376 10.2871ZM31.2638 20.3012C31.052 19.5283 30.5922 18.8465 29.9551 18.3605C29.318 17.8745 28.5389 17.6112 27.7376 17.6112C26.9362 17.6112 26.1571 17.8745 25.52 18.3605C24.8829 18.8465 24.4231 19.5283 24.2113 20.3012C23.4155 19.5874 22.8551 18.649 22.604 17.6099C22.353 16.5709 22.4231 15.4801 22.8053 14.4817C23.1874 13.4834 23.8634 12.6245 24.7441 12.0186C25.6248 11.4127 26.6686 11.0884 27.7376 11.0884C28.8065 11.0884 29.8503 11.4127 30.731 12.0186C31.6117 12.6245 32.2877 13.4834 32.6699 14.4817C33.052 15.4801 33.1221 16.5709 32.8711 17.6099C32.62 18.649 32.0596 19.5874 31.2638 20.3012Z" fill="#034737"/>
<path d="M16.3625 28.5684C17.7087 28.5684 18.8 27.4771 18.8 26.1309C18.8 24.7847 17.7087 23.6934 16.3625 23.6934C15.0164 23.6934 13.925 24.7847 13.925 26.1309C13.925 27.4771 15.0164 28.5684 16.3625 28.5684Z" fill="#034737"/>
<path d="M12.3691 21.4802C12.4287 21.5693 12.521 21.6312 12.626 21.6525C12.731 21.6738 12.8402 21.6528 12.9297 21.594L14.1485 20.7815C14.2177 20.738 14.2722 20.6746 14.3049 20.5996C14.3375 20.5246 14.3467 20.4415 14.3314 20.3612C14.316 20.2809 14.2767 20.2071 14.2188 20.1494C14.1608 20.0917 14.0867 20.0529 14.0063 20.038L13.3766 19.9121C13.7697 18.3415 14.5821 16.9072 15.7269 15.7624C16.8717 14.6176 18.306 13.8052 19.8766 13.4121L19.9985 14.1637C20.0116 14.2423 20.0477 14.3153 20.102 14.3737C20.1564 14.432 20.2267 14.473 20.3043 14.4916C20.3818 14.5103 20.4631 14.5057 20.538 14.4784C20.613 14.4511 20.6782 14.4024 20.7257 14.3384L21.5991 13.1318C21.6616 13.0449 21.6873 12.9368 21.6706 12.8311C21.6538 12.7253 21.596 12.6305 21.5097 12.5671L20.3235 11.718C20.2576 11.6686 20.1781 11.6403 20.0958 11.637C20.0134 11.6338 19.932 11.6556 19.8624 11.6997C19.7927 11.7438 19.7381 11.808 19.7059 11.8838C19.6736 11.9597 19.6651 12.0435 19.6816 12.1243L19.7588 12.6077C18.0215 13.0277 16.433 13.9171 15.167 15.1788C13.901 16.4405 13.0062 18.0259 12.5804 19.7618L11.975 19.6318C11.8975 19.6192 11.8179 19.6294 11.746 19.6611C11.6741 19.6928 11.6129 19.7447 11.5699 19.8105C11.5269 19.8763 11.5039 19.9532 11.5037 20.0318C11.5035 20.1104 11.5261 20.1873 11.5688 20.2534L12.3691 21.4802ZM16.3625 33.8505C17.5678 33.8505 18.7459 33.4932 19.7481 32.8236C20.7502 32.154 21.5312 31.2023 21.9924 30.0888C22.4537 28.9753 22.5743 27.75 22.3392 26.568C22.1041 25.3859 21.5237 24.3001 20.6715 23.4479C19.8193 22.5956 18.7335 22.0153 17.5514 21.7801C16.3693 21.545 15.1441 21.6657 14.0306 22.1269C12.9171 22.5881 11.9654 23.3692 11.2958 24.3713C10.6262 25.3734 10.2688 26.5516 10.2688 27.7568C10.2688 29.373 10.9108 30.9229 12.0536 32.0657C13.1964 33.2085 14.7464 33.8505 16.3625 33.8505ZM16.3625 22.4755C17.429 22.4781 18.4697 22.8034 19.3478 23.4087C20.2258 24.0141 20.9 24.8711 21.2816 25.8669C21.6632 26.8628 21.7344 27.9508 21.4858 28.9879C21.2372 30.025 20.6805 30.9625 19.8888 31.6771C19.677 30.9043 19.2172 30.2224 18.5801 29.7364C17.943 29.2504 17.1639 28.9871 16.3625 28.9871C15.5612 28.9871 14.7821 29.2504 14.145 29.7364C13.5079 30.2224 13.0481 30.9043 12.8363 31.6771C12.0446 30.9625 11.4879 30.025 11.2393 28.9879C10.9907 27.9508 11.0619 26.8628 11.4435 25.8669C11.8251 24.8711 12.4993 24.0141 13.3773 23.4087C14.2554 22.8034 15.2961 22.4781 16.3625 22.4755Z" fill="#034737"/>
</svg>
