<svg width="87" height="22" viewBox="0 0 87 22" fill="none" xmlns="http://www.w3.org/2000/svg">
<g clip-path="url(#clip0_1_1316)">
<path d="M22.6602 7.98047H31.3902V9.60911H27.9576V18.7645H26.07V9.60911H22.6526V7.98047H22.6602ZM31.0172 10.9562H32.6308V12.463H32.6613C32.7145 12.2499 32.8135 12.0444 32.9581 11.8466C33.1027 11.6487 33.2778 11.4584 33.4833 11.2986C33.6888 11.1312 33.9171 11.0018 34.1683 10.8953C34.4194 10.7963 34.6782 10.7431 34.937 10.7431C35.1349 10.7431 35.2795 10.7507 35.3556 10.7583C35.4317 10.7659 35.5078 10.7811 35.5916 10.7887V12.4478C35.4698 12.425 35.348 12.4098 35.2186 12.3945C35.0892 12.3793 34.9674 12.3717 34.8457 12.3717C34.5564 12.3717 34.2824 12.4326 34.0237 12.5467C33.7649 12.6609 33.5442 12.8359 33.3539 13.0566C33.1636 13.285 33.0114 13.5589 32.8972 13.8938C32.783 14.2287 32.7298 14.6092 32.7298 15.043V18.7569H31.0096V10.9562H31.0172ZM43.4995 18.7645H41.8099V17.6762H41.7794C41.5663 18.0719 41.2543 18.384 40.8356 18.6199C40.417 18.8558 39.9908 18.9776 39.557 18.9776C38.5295 18.9776 37.7836 18.7264 37.3269 18.2165C36.8702 17.7066 36.6419 16.938 36.6419 15.9106V10.9562H38.362V15.7431C38.362 16.4281 38.4914 16.9151 38.7578 17.1967C39.0166 17.4783 39.3895 17.6229 39.8614 17.6229C40.2267 17.6229 40.5236 17.5696 40.7671 17.4555C41.0107 17.3413 41.2086 17.1967 41.3532 17.0065C41.5054 16.8238 41.612 16.5955 41.6805 16.3367C41.749 16.078 41.7794 15.7964 41.7794 15.492V10.9638H43.4995V18.7645ZM46.4298 16.2606C46.4831 16.7629 46.6734 17.113 47.0007 17.3185C47.3356 17.5164 47.7314 17.6229 48.1956 17.6229C48.3555 17.6229 48.5381 17.6077 48.7436 17.5849C48.9491 17.562 49.147 17.5088 49.3221 17.4403C49.5047 17.3718 49.6494 17.2652 49.7711 17.1282C49.8853 16.9912 49.9386 16.8162 49.931 16.5955C49.9234 16.3748 49.8396 16.1921 49.6874 16.0552C49.5352 15.9106 49.3449 15.804 49.109 15.7127C48.873 15.629 48.6066 15.5529 48.3022 15.492C47.9977 15.4311 47.6933 15.3626 47.3812 15.2941C47.0616 15.2256 46.7495 15.1343 46.4527 15.0354C46.1558 14.9364 45.8894 14.7994 45.6535 14.6244C45.4176 14.457 45.2273 14.2363 45.0903 13.9699C44.9457 13.7035 44.8772 13.3763 44.8772 12.9805C44.8772 12.5544 44.9837 12.2043 45.1892 11.9151C45.3947 11.6259 45.6611 11.3976 45.9732 11.2225C46.2928 11.0475 46.643 10.9257 47.0311 10.8496C47.4193 10.7811 47.7922 10.7431 48.1424 10.7431C48.5457 10.7431 48.9339 10.7887 49.2992 10.8724C49.6646 10.9562 49.9995 11.0931 50.2963 11.291C50.5931 11.4813 50.8367 11.7324 51.0346 12.0368C51.2325 12.3413 51.3543 12.7142 51.4075 13.148H49.6113C49.5276 12.737 49.3449 12.4554 49.0481 12.3184C48.7512 12.1738 48.4087 12.1053 48.0282 12.1053C47.9064 12.1053 47.7618 12.1129 47.5943 12.1358C47.4269 12.1586 47.2747 12.1967 47.1225 12.2499C46.9778 12.3032 46.8561 12.3869 46.7495 12.4935C46.6506 12.6 46.5973 12.737 46.5973 12.912C46.5973 13.1251 46.6734 13.2926 46.818 13.4219C46.9626 13.5513 47.1529 13.6579 47.3888 13.7492C47.6248 13.8329 47.8912 13.909 48.1956 13.9699C48.5001 14.0308 48.8121 14.0993 49.1318 14.1678C49.4439 14.2363 49.7483 14.3276 50.0528 14.4265C50.3572 14.5255 50.6236 14.6624 50.8595 14.8375C51.0955 15.0125 51.2858 15.2256 51.4304 15.4844C51.575 15.7431 51.6511 16.0704 51.6511 16.4509C51.6511 16.9151 51.5445 17.3033 51.3314 17.6305C51.1183 17.9502 50.8443 18.2165 50.5094 18.4144C50.1745 18.6123 49.794 18.7645 49.383 18.8558C48.972 18.9471 48.561 18.9928 48.1576 18.9928C47.6629 18.9928 47.2062 18.9395 46.7876 18.8254C46.369 18.7112 46.0036 18.5438 45.6992 18.3231C45.3947 18.0948 45.1512 17.8132 44.9761 17.4783C44.8011 17.1435 44.7097 16.7401 44.6945 16.2759H46.4298V16.2606ZM52.1078 10.9562H53.4093V8.61214H55.1294V10.9562H56.6821V12.2423H55.1294V16.4128C55.1294 16.5955 55.137 16.7477 55.1522 16.8847C55.1674 17.0141 55.2055 17.1282 55.2588 17.2196C55.3121 17.3109 55.3958 17.3794 55.51 17.425C55.6241 17.4707 55.7687 17.4935 55.9666 17.4935C56.0884 17.4935 56.2102 17.4935 56.332 17.4859C56.4537 17.4783 56.5755 17.4631 56.6973 17.4327V18.7645C56.507 18.7873 56.3167 18.8025 56.1417 18.8254C55.959 18.8482 55.7763 18.8558 55.5861 18.8558C55.1294 18.8558 54.7641 18.8101 54.4901 18.7264C54.2161 18.6427 53.9953 18.5133 53.8431 18.3459C53.6833 18.1785 53.5843 17.973 53.5234 17.7218C53.4702 17.4707 53.4321 17.1815 53.4245 16.8619V12.2575H52.123V10.9562H52.1078ZM57.8999 10.9562H59.5286V12.014H59.5591C59.8026 11.5574 60.1375 11.2377 60.5714 11.0399C61.0052 10.842 61.4695 10.7431 61.9794 10.7431C62.5959 10.7431 63.1287 10.8496 63.5854 11.0703C64.0421 11.2834 64.4226 11.5802 64.7271 11.9607C65.0315 12.3413 65.2522 12.7827 65.4045 13.285C65.5567 13.7872 65.6328 14.3276 65.6328 14.8984C65.6328 15.4235 65.5643 15.9334 65.4273 16.4205C65.2903 16.9151 65.0848 17.3489 64.8108 17.7295C64.5368 18.11 64.1867 18.4068 63.7604 18.6351C63.3342 18.8634 62.8395 18.9776 62.2611 18.9776C62.0099 18.9776 61.7587 18.9547 61.5075 18.9091C61.2564 18.8634 61.0128 18.7873 60.7845 18.6884C60.5561 18.5894 60.3354 18.4601 60.1451 18.3002C59.9473 18.1404 59.7874 17.9578 59.6504 17.7523H59.62V21.6488H57.8999V10.9562ZM63.9127 14.8679C63.9127 14.5178 63.867 14.1754 63.7757 13.8405C63.6843 13.5057 63.5473 13.2165 63.3647 12.9577C63.182 12.6989 62.9537 12.4935 62.6873 12.3413C62.4133 12.189 62.1012 12.1053 61.7511 12.1053C61.028 12.1053 60.48 12.3565 60.1147 12.8588C59.7494 13.3611 59.5667 14.0308 59.5667 14.8679C59.5667 15.2637 59.6124 15.629 59.7113 15.9638C59.8103 16.2987 59.9473 16.5879 60.1451 16.8314C60.3354 17.075 60.5638 17.2652 60.8302 17.4022C61.0965 17.5468 61.4086 17.6153 61.7587 17.6153C62.1545 17.6153 62.4818 17.5316 62.7558 17.3718C63.0298 17.2119 63.2505 16.9989 63.4256 16.7477C63.6006 16.489 63.73 16.1998 63.8061 15.8725C63.8746 15.5453 63.9127 15.2104 63.9127 14.8679ZM66.9495 7.98047H68.6696V9.60911H66.9495V7.98047ZM66.9495 10.9562H68.6696V18.7645H66.9495V10.9562ZM70.2071 7.98047H71.9272V18.7645H70.2071V7.98047ZM77.2017 18.9776C76.5776 18.9776 76.022 18.871 75.5349 18.6655C75.0478 18.4601 74.6368 18.1709 74.2943 17.8132C73.9594 17.4479 73.7006 17.0141 73.5256 16.5118C73.3505 16.0095 73.2592 15.4539 73.2592 14.8527C73.2592 14.2591 73.3505 13.7111 73.5256 13.2088C73.7006 12.7066 73.9594 12.2728 74.2943 11.9075C74.6292 11.5422 75.0478 11.2606 75.5349 11.0551C76.022 10.8496 76.5776 10.7431 77.2017 10.7431C77.8259 10.7431 78.3815 10.8496 78.8686 11.0551C79.3557 11.2606 79.7667 11.5498 80.1092 11.9075C80.4441 12.2728 80.7029 12.7066 80.8779 13.2088C81.053 13.7111 81.1443 14.2591 81.1443 14.8527C81.1443 15.4539 81.053 16.0095 80.8779 16.5118C80.7029 17.0141 80.4441 17.4479 80.1092 17.8132C79.7743 18.1785 79.3557 18.4601 78.8686 18.6655C78.3815 18.871 77.8259 18.9776 77.2017 18.9776ZM77.2017 17.6153C77.5823 17.6153 77.9172 17.5316 78.1988 17.3718C78.4804 17.2119 78.7088 16.9989 78.8914 16.7401C79.0741 16.4813 79.2035 16.1845 79.2948 15.8573C79.3785 15.53 79.4242 15.1952 79.4242 14.8527C79.4242 14.5178 79.3785 14.1906 79.2948 13.8557C79.2111 13.5209 79.0741 13.2317 78.8914 12.9729C78.7088 12.7142 78.4804 12.5087 78.1988 12.3489C77.9172 12.189 77.5823 12.1053 77.2017 12.1053C76.8212 12.1053 76.4863 12.189 76.2047 12.3489C75.9231 12.5087 75.6947 12.7218 75.5121 12.9729C75.3294 13.2317 75.2 13.5209 75.1087 13.8557C75.025 14.1906 74.9793 14.5178 74.9793 14.8527C74.9793 15.1952 75.025 15.53 75.1087 15.8573C75.1924 16.1845 75.3294 16.4813 75.5121 16.7401C75.6947 16.9989 75.9231 17.2119 76.2047 17.3718C76.4863 17.5392 76.8212 17.6153 77.2017 17.6153ZM81.6467 10.9562H82.9482V8.61214H84.6683V10.9562H86.221V12.2423H84.6683V16.4128C84.6683 16.5955 84.6759 16.7477 84.6911 16.8847C84.7063 17.0141 84.7444 17.1282 84.7977 17.2196C84.851 17.3109 84.9347 17.3794 85.0489 17.425C85.163 17.4707 85.3076 17.4935 85.5055 17.4935C85.6273 17.4935 85.7491 17.4935 85.8709 17.4859C85.9926 17.4783 86.1144 17.4631 86.2362 17.4327V18.7645C86.0459 18.7873 85.8556 18.8025 85.6806 18.8254C85.4979 18.8482 85.3152 18.8558 85.125 18.8558C84.6683 18.8558 84.303 18.8101 84.029 18.7264C83.755 18.6427 83.5342 18.5133 83.382 18.3459C83.2222 18.1785 83.1232 17.973 83.0623 17.7218C83.0091 17.4707 82.971 17.1815 82.9634 16.8619V12.2575H81.6619V10.9562H81.6467Z" fill="#454545"/>
<path d="M20.653 7.98047H12.7678L10.3322 0.476562L7.88906 7.98047L0.00390625 7.97286L6.38967 12.6152L3.94649 20.1115L10.3322 15.4768L16.7104 20.1115L14.2748 12.6152L20.653 7.98047Z" fill="#00B67A"/>
<path d="M14.8226 14.3125L14.2746 12.6152L10.332 15.477L14.8226 14.3125Z" fill="#005128"/>
</g>
<defs>
<clipPath id="clip0_1_1316">
<rect width="86.2255" height="21.1723" fill="white" transform="translate(0 0.476562)"/>
</clipPath>
</defs>
</svg>
