<svg width="681" height="383" viewBox="0 0 681 383" fill="none" xmlns="http://www.w3.org/2000/svg">
<path d="M681 192L-1.09673e-05 192" stroke="#034737" stroke-dasharray="6 6"/>
<path d="M239 192L234 189.113V194.887L239 192ZM230.038 191.5H224.062V192.5H230.038V191.5ZM218.087 191.5H212.112V192.5H218.087V191.5ZM206.138 191.5H200.163V192.5H206.138V191.5ZM194.188 191.5H188.213V192.5H194.188V191.5ZM182.238 191.5H176.263V192.5H182.238V191.5ZM170.288 191.5H164.313V192.5H170.288V191.5ZM158.338 191.5H152.363V192.5H158.338V191.5ZM146.388 191.5H140.413V192.5H146.388V191.5ZM134.438 191.5H128.463V192.5H134.438V191.5ZM122.488 191.5H116.513V192.5H122.488V191.5ZM110.538 191.5H104.563V192.5H110.538V191.5ZM98.5875 191.5H92.6125V192.5H98.5875V191.5ZM86.6375 191.5H80.6625V192.5H86.6375V191.5ZM74.6875 191.5H68.7125V192.5H74.6875V191.5ZM62.7375 191.5H56.7625V192.5H62.7375V191.5ZM50.7875 191.5H44.8125V192.5H50.7875V191.5ZM38.8374 191.5H32.8624V192.5H38.8374V191.5ZM26.8874 191.5H20.9124V192.5H26.8874V191.5ZM14.9374 191.5H8.96242V192.5H14.9374V191.5ZM2.98741 191.5H0V192.5H2.98741V191.5Z" fill="#034737"/>
<path d="M634 192L629 189.113V194.887L634 192ZM624.938 191.5H618.896V192.5H624.938V191.5ZM612.854 191.5H606.813V192.5H612.854V191.5ZM600.771 191.5H594.729V192.5H600.771V191.5ZM588.688 191.5H582.646V192.5H588.688V191.5ZM576.604 191.5H570.562V192.5H576.604V191.5ZM564.521 191.5H558.479V192.5H564.521V191.5ZM552.438 191.5H546.396V192.5H552.438V191.5ZM540.354 191.5H534.313V192.5H540.354V191.5ZM528.271 191.5H522.229V192.5H528.271V191.5ZM516.188 191.5H510.146V192.5H516.188V191.5ZM504.104 191.5H498.063V192.5H504.104V191.5ZM492.021 191.5H485.979V192.5H492.021V191.5ZM479.938 191.5H473.896V192.5H479.938V191.5ZM467.854 191.5H461.812V192.5H467.854V191.5ZM455.771 191.5H449.729V192.5H455.771V191.5ZM443.687 191.5H437.646V192.5H443.687V191.5ZM431.604 191.5H425.562V192.5H431.604V191.5ZM419.521 191.5H413.479V192.5H419.521V191.5ZM407.437 191.5H401.396V192.5H407.437V191.5ZM395.354 191.5H389.312V192.5H395.354V191.5ZM383.271 191.5H377.229V192.5H383.271V191.5ZM371.187 191.5H365.146V192.5H371.187V191.5ZM359.104 191.5H353.062V192.5H359.104V191.5ZM347.021 191.5H344V192.5H347.021V191.5Z" fill="#034737"/>
<path d="M225 114L227.518 119.196L230.758 114.418L225 114ZM231.907 119.289L236.699 122.539L237.26 121.711L232.468 118.461L231.907 119.289ZM241.49 125.789L246.282 129.039L246.843 128.211L242.051 124.961L241.49 125.789ZM251.074 132.289L255.865 135.539L256.426 134.711L251.635 131.461L251.074 132.289ZM260.657 138.789L265.449 142.039L266.01 141.211L261.218 137.961L260.657 138.789ZM270.24 145.289L275.032 148.539L275.593 147.711L270.801 144.461L270.24 145.289ZM279.824 151.789L284.615 155.039L285.177 154.211L280.385 150.961L279.824 151.789ZM289.407 158.289L294.199 161.539L294.76 160.711L289.968 157.461L289.407 158.289ZM298.99 164.789L303.782 168.039L304.343 167.211L299.552 163.961L298.99 164.789ZM308.574 171.289L313.365 174.539L313.927 173.711L309.135 170.461L308.574 171.289ZM318.157 177.789L322.949 181.039L323.51 180.211L318.718 176.961L318.157 177.789ZM327.74 184.289L332.532 187.539L333.093 186.711L328.302 183.461L327.74 184.289ZM337.324 190.789L339.719 192.414L340.281 191.586L337.885 189.961L337.324 190.789Z" fill="#034737"/>
<path d="M455.41 114L449.652 114.418L452.893 119.196L455.41 114ZM340.281 192.699L342.685 191.068L342.124 190.241L339.719 191.872L340.281 192.699ZM347.494 187.807L352.303 184.545L351.741 183.717L346.932 186.979L347.494 187.807ZM357.111 181.283L361.92 178.021L361.359 177.193L356.55 180.455L357.111 181.283ZM366.729 174.759L371.538 171.497L370.976 170.67L366.167 173.931L366.729 174.759ZM376.346 168.235L381.155 164.973L380.594 164.146L375.785 167.408L376.346 168.235ZM385.964 161.711L390.773 158.45L390.211 157.622L385.403 160.884L385.964 161.711ZM395.581 155.188L400.39 151.926L399.829 151.098L395.02 154.36L395.581 155.188ZM405.199 148.664L410.008 145.402L409.446 144.574L404.638 147.836L405.199 148.664ZM414.816 142.14L419.625 138.878L419.064 138.051L414.255 141.312L414.816 142.14ZM424.434 135.616L429.243 132.354L428.681 131.527L423.873 134.789L424.434 135.616ZM434.051 129.092L438.86 125.831L438.299 125.003L433.49 128.265L434.051 129.092ZM443.669 122.569L448.478 119.307L447.916 118.479L443.108 121.741L443.669 122.569Z" fill="#034737"/>
<path d="M225 114L227.518 119.196L230.758 114.418L225 114ZM231.907 119.289L236.699 122.539L237.26 121.711L232.468 118.461L231.907 119.289ZM241.49 125.789L246.282 129.039L246.843 128.211L242.051 124.961L241.49 125.789ZM251.074 132.289L255.865 135.539L256.426 134.711L251.635 131.461L251.074 132.289ZM260.657 138.789L265.449 142.039L266.01 141.211L261.218 137.961L260.657 138.789ZM270.24 145.289L275.032 148.539L275.593 147.711L270.801 144.461L270.24 145.289ZM279.824 151.789L284.615 155.039L285.177 154.211L280.385 150.961L279.824 151.789ZM289.407 158.289L294.199 161.539L294.76 160.711L289.968 157.461L289.407 158.289ZM298.99 164.789L303.782 168.039L304.343 167.211L299.552 163.961L298.99 164.789ZM308.574 171.289L313.365 174.539L313.927 173.711L309.135 170.461L308.574 171.289ZM318.157 177.789L322.949 181.039L323.51 180.211L318.718 176.961L318.157 177.789ZM327.74 184.289L332.532 187.539L333.093 186.711L328.302 183.461L327.74 184.289ZM337.324 190.789L339.719 192.414L340.281 191.586L337.885 189.961L337.324 190.789Z" fill="#034737"/>
<path d="M455.41 114L449.652 114.418L452.893 119.196L455.41 114ZM340.281 192.699L342.685 191.068L342.124 190.241L339.719 191.872L340.281 192.699ZM347.494 187.807L352.303 184.545L351.741 183.717L346.932 186.979L347.494 187.807ZM357.111 181.283L361.92 178.021L361.359 177.193L356.55 180.455L357.111 181.283ZM366.729 174.759L371.538 171.497L370.976 170.67L366.167 173.931L366.729 174.759ZM376.346 168.235L381.155 164.973L380.594 164.146L375.785 167.408L376.346 168.235ZM385.964 161.711L390.773 158.45L390.211 157.622L385.403 160.884L385.964 161.711ZM395.581 155.188L400.39 151.926L399.829 151.098L395.02 154.36L395.581 155.188ZM405.199 148.664L410.008 145.402L409.446 144.574L404.638 147.836L405.199 148.664ZM414.816 142.14L419.625 138.878L419.064 138.051L414.255 141.312L414.816 142.14ZM424.434 135.616L429.243 132.354L428.681 131.527L423.873 134.789L424.434 135.616ZM434.051 129.092L438.86 125.831L438.299 125.003L433.49 128.265L434.051 129.092ZM443.669 122.569L448.478 119.307L447.916 118.479L443.108 121.741L443.669 122.569Z" fill="#034737"/>
<path d="M225 268L227.523 262.894L230.838 267.621L225 268ZM232.554 262.447L237.781 259.018L238.355 259.837L233.128 263.266L232.554 262.447ZM243.008 255.589L248.236 252.16L248.81 252.979L243.583 256.408L243.008 255.589ZM253.463 248.731L258.69 245.302L259.264 246.121L254.037 249.55L253.463 248.731ZM263.917 241.873L269.145 238.444L269.719 239.263L264.492 242.692L263.917 241.873ZM274.372 235.015L279.599 231.586L280.173 232.405L274.946 235.834L274.372 235.015ZM284.827 228.157L290.054 224.728L290.628 225.547L285.401 228.976L284.827 228.157ZM295.281 221.299L300.508 217.87L301.083 218.689L295.855 222.118L295.281 221.299ZM305.736 214.441L310.963 211.012L311.537 211.831L306.31 215.26L305.736 214.441ZM316.19 207.583L321.417 204.154L321.992 204.973L316.764 208.402L316.19 207.583ZM326.645 200.725L331.872 197.296L332.446 198.115L327.219 201.544L326.645 200.725ZM337.099 193.867L339.713 192.153L340.287 192.971L337.673 194.686L337.099 193.867Z" fill="#034737"/>
<path d="M455.41 268L449.572 267.621L452.887 262.894L455.41 268ZM340.287 191.876L342.691 193.454L342.117 194.272L339.713 192.695L340.287 191.876ZM347.5 196.608L352.309 199.763L351.735 200.582L346.926 197.427L347.5 196.608ZM357.118 202.918L361.927 206.073L361.352 206.891L356.544 203.737L357.118 202.918ZM366.735 209.227L371.544 212.382L370.97 213.201L366.161 210.046L366.735 209.227ZM376.353 215.537L381.162 218.692L380.587 219.51L375.779 216.356L376.353 215.537ZM385.97 221.847L390.779 225.001L390.205 225.82L385.396 222.665L385.97 221.847ZM395.588 228.156L400.397 231.311L399.822 232.13L395.014 228.975L395.588 228.156ZM405.205 234.466L410.014 237.62L409.44 238.439L404.631 235.284L405.205 234.466ZM414.823 240.775L419.632 243.93L419.057 244.749L414.249 241.594L414.823 240.775ZM424.44 247.085L429.249 250.239L428.675 251.058L423.866 247.903L424.44 247.085ZM434.058 253.394L438.867 256.549L438.292 257.368L433.484 254.213L434.058 253.394ZM443.675 259.704L448.484 262.858L447.91 263.677L443.101 260.522L443.675 259.704Z" fill="#034737"/>
<rect x="130" y="268" width="90" height="90" rx="20" fill="#034737"/>
<path d="M174.573 331.75H160.417C158.115 331.75 156.25 329.885 156.25 327.583V302.583C156.25 300.282 158.115 298.417 160.417 298.417H185.417C187.718 298.417 189.583 300.282 189.583 302.583V310.917" stroke="white" stroke-width="2.70833" stroke-linecap="round" stroke-linejoin="round"/>
<path d="M187.5 317.167V325.5H195.833" stroke="white" stroke-width="2.70833" stroke-linecap="round" stroke-linejoin="round"/>
<circle cx="187.5" cy="325.5" r="8.33333" stroke="white" stroke-width="2.70833" stroke-linecap="round" stroke-linejoin="round"/>
<path d="M181.25 294.25V302.583" stroke="white" stroke-width="2.70833" stroke-linecap="round" stroke-linejoin="round"/>
<path d="M164.583 294.25V302.583" stroke="white" stroke-width="2.70833" stroke-linecap="round" stroke-linejoin="round"/>
<path d="M156.25 310.917H189.583" stroke="white" stroke-width="2.70833" stroke-linecap="round" stroke-linejoin="round"/>
<rect x="454" y="268" width="90" height="90" rx="20" fill="#034737"/>
<path d="M504.001 334.014C503.982 334.014 503.965 334.025 503.945 334.025H487.539C487.155 334.025 486.786 333.872 486.514 333.6C486.242 333.328 486.089 332.96 486.089 332.575C486.089 332.191 486.242 331.822 486.514 331.55C486.786 331.278 487.155 331.125 487.539 331.125H503.903L503.945 331.117C506.932 331.117 509.853 330.24 512.345 328.594C514.837 326.948 516.791 324.606 517.963 321.859C519.135 319.112 519.475 316.082 518.939 313.143C518.404 310.205 517.016 307.489 514.95 305.333C512.884 303.176 510.229 301.674 507.317 301.014C504.404 300.353 501.362 300.563 498.567 301.617C495.773 302.672 493.35 304.524 491.599 306.943C489.848 309.363 488.847 312.244 488.72 315.228C488.698 315.608 488.528 315.964 488.246 316.219C487.963 316.475 487.592 316.609 487.212 316.593C486.831 316.577 486.472 316.412 486.213 316.134C485.953 315.856 485.813 315.486 485.823 315.106C485.986 311.065 487.5 307.196 490.121 304.117L489.251 303.247C489.112 303.113 489.002 302.953 488.926 302.776C488.85 302.6 488.81 302.409 488.808 302.217C488.806 302.024 488.843 301.833 488.916 301.655C488.989 301.477 489.097 301.315 489.233 301.179C489.369 301.043 489.531 300.935 489.709 300.862C489.887 300.789 490.078 300.753 490.271 300.754C490.463 300.756 490.653 300.796 490.83 300.872C491.007 300.948 491.167 301.058 491.301 301.197L492.178 302.073C494.4 300.177 497.047 298.845 499.894 298.191C502.74 297.537 505.703 297.579 508.53 298.316C511.357 299.052 513.964 300.46 516.129 302.42C518.295 304.38 519.956 306.834 520.97 309.574C521.984 312.313 522.321 315.257 521.954 318.155C521.586 321.053 520.524 323.819 518.858 326.218C517.192 328.618 514.971 330.579 512.385 331.936C509.798 333.293 506.922 334.007 504.001 334.014ZM510.624 309.205C510.352 308.933 509.984 308.781 509.599 308.781C509.215 308.781 508.846 308.933 508.574 309.205L504.373 313.406C504.233 313.364 504.09 313.335 503.945 313.319C503.438 313.319 502.942 313.47 502.52 313.751C502.099 314.033 501.77 314.434 501.576 314.902C501.382 315.371 501.331 315.887 501.43 316.384C501.529 316.881 501.773 317.338 502.132 317.697C502.49 318.056 502.947 318.3 503.445 318.399C503.942 318.498 504.458 318.447 504.927 318.253C505.395 318.059 505.796 317.73 506.077 317.308C506.359 316.886 506.51 316.39 506.51 315.883C506.493 315.738 506.464 315.595 506.423 315.456L510.624 311.254C510.896 310.982 511.048 310.614 511.048 310.23C511.048 309.846 510.896 309.477 510.624 309.205ZM501.589 294.875H506.303C506.687 294.875 507.056 294.722 507.328 294.45C507.6 294.178 507.753 293.81 507.753 293.425C507.753 293.041 507.6 292.672 507.328 292.4C507.056 292.128 506.687 291.975 506.303 291.975H501.589C501.204 291.975 500.835 292.128 500.563 292.4C500.292 292.672 500.139 293.041 500.139 293.425C500.139 293.81 500.292 294.178 500.563 294.45C500.835 294.722 501.204 294.875 501.589 294.875ZM500.552 326.775C500.552 326.391 500.4 326.022 500.128 325.75C499.856 325.478 499.487 325.325 499.102 325.325H481.055C480.67 325.325 480.302 325.478 480.03 325.75C479.758 326.022 479.605 326.391 479.605 326.775C479.605 327.16 479.758 327.528 480.03 327.8C480.302 328.072 480.67 328.225 481.055 328.225H499.102C499.487 328.225 499.856 328.072 500.128 327.8C500.4 327.528 500.552 327.16 500.552 326.775ZM501.124 320.975C501.124 320.591 500.971 320.222 500.7 319.95C500.428 319.678 500.059 319.525 499.674 319.525H477.352C476.968 319.525 476.599 319.678 476.327 319.95C476.055 320.222 475.902 320.591 475.902 320.975C475.902 321.36 476.055 321.728 476.327 322C476.599 322.272 476.968 322.425 477.352 322.425H499.674C500.059 322.425 500.428 322.272 500.7 322C500.971 321.728 501.124 321.36 501.124 320.975Z" fill="white"/>
<rect x="458" y="26" width="90" height="90" rx="20" fill="#034737"/>
<path d="M523.314 84.1554L518.893 88.5762L518.893 81.9451C518.893 73.3998 511.966 66.4725 503.421 66.4725C494.875 66.4725 487.948 73.3998 487.948 81.9451L487.948 88.5762L483.527 84.1554" stroke="white" stroke-width="2.16667" stroke-linecap="round" stroke-linejoin="round"/>
<path d="M504.505 51C504.505 50.4017 504.02 49.9167 503.422 49.9167C502.823 49.9167 502.338 50.4017 502.338 51L504.505 51ZM503.422 90.7866L502.338 90.7866C502.338 91.2248 502.602 91.6198 503.007 91.7875C503.412 91.9552 503.878 91.8625 504.188 91.5527L503.422 90.7866ZM508.608 87.1319C509.031 86.7089 509.031 86.0229 508.608 85.5999C508.185 85.1768 507.499 85.1768 507.076 85.5999L508.608 87.1319ZM499.766 85.5999C499.343 85.1768 498.657 85.1768 498.234 85.5999C497.811 86.0229 497.811 86.7089 498.234 87.1319L499.766 85.5999ZM502.655 91.5527C503.078 91.9757 503.764 91.9757 504.187 91.5527C504.61 91.1296 504.61 90.4437 504.187 90.0206L502.655 91.5527ZM502.338 51L502.338 90.7866L504.505 90.7866L504.505 51L502.338 51ZM504.188 91.5527L508.608 87.1319L507.076 85.5999L502.656 90.0206L504.188 91.5527ZM498.234 87.1319L502.655 91.5527L504.187 90.0206L499.766 85.5999L498.234 87.1319Z" fill="white"/>
<path d="M467.432 3.242L464.604 13H463.176L460.908 5.146L458.556 13L457.142 13.014L454.412 3.242H455.77L457.898 11.516L460.25 3.242H461.678L463.918 11.488L466.06 3.242H467.432ZM475.868 8.87C475.868 9.11267 475.854 9.36933 475.826 9.64H469.694C469.741 10.396 469.998 10.9887 470.464 11.418C470.94 11.838 471.514 12.048 472.186 12.048C472.737 12.048 473.194 11.922 473.558 11.67C473.932 11.4087 474.193 11.0633 474.342 10.634H475.714C475.509 11.3713 475.098 11.9733 474.482 12.44C473.866 12.8973 473.101 13.126 472.186 13.126C471.458 13.126 470.805 12.9627 470.226 12.636C469.657 12.3093 469.209 11.8473 468.882 11.25C468.556 10.6433 468.392 9.94333 468.392 9.15C468.392 8.35667 468.551 7.66133 468.868 7.064C469.186 6.46667 469.629 6.00933 470.198 5.692C470.777 5.36533 471.44 5.202 472.186 5.202C472.914 5.202 473.558 5.36067 474.118 5.678C474.678 5.99533 475.108 6.434 475.406 6.994C475.714 7.54467 475.868 8.17 475.868 8.87ZM474.552 8.604C474.552 8.11867 474.445 7.70333 474.23 7.358C474.016 7.00333 473.722 6.73733 473.348 6.56C472.984 6.37333 472.578 6.28 472.13 6.28C471.486 6.28 470.936 6.48533 470.478 6.896C470.03 7.30667 469.774 7.876 469.708 8.604H474.552ZM478.866 6.756C479.127 6.29867 479.51 5.92533 480.014 5.636C480.518 5.34667 481.092 5.202 481.736 5.202C482.427 5.202 483.047 5.36533 483.598 5.692C484.149 6.01867 484.583 6.48067 484.9 7.078C485.217 7.666 485.376 8.352 485.376 9.136C485.376 9.91067 485.217 10.6013 484.9 11.208C484.583 11.8147 484.144 12.286 483.584 12.622C483.033 12.958 482.417 13.126 481.736 13.126C481.073 13.126 480.49 12.9813 479.986 12.692C479.491 12.4027 479.118 12.034 478.866 11.586V13H477.592V2.64H478.866V6.756ZM484.074 9.136C484.074 8.55733 483.957 8.05333 483.724 7.624C483.491 7.19467 483.173 6.868 482.772 6.644C482.38 6.42 481.946 6.308 481.47 6.308C481.003 6.308 480.569 6.42467 480.168 6.658C479.776 6.882 479.459 7.21333 479.216 7.652C478.983 8.08133 478.866 8.58067 478.866 9.15C478.866 9.72867 478.983 10.2373 479.216 10.676C479.459 11.1053 479.776 11.4367 480.168 11.67C480.569 11.894 481.003 12.006 481.47 12.006C481.946 12.006 482.38 11.894 482.772 11.67C483.173 11.4367 483.491 11.1053 483.724 10.676C483.957 10.2373 484.074 9.724 484.074 9.136ZM493.585 13.126C492.997 13.126 492.47 13.028 492.003 12.832C491.537 12.6267 491.168 12.3467 490.897 11.992C490.627 11.628 490.477 11.2127 490.449 10.746H491.765C491.803 11.1287 491.98 11.4413 492.297 11.684C492.624 11.9267 493.049 12.048 493.571 12.048C494.057 12.048 494.439 11.9407 494.719 11.726C494.999 11.5113 495.139 11.2407 495.139 10.914C495.139 10.578 494.99 10.3307 494.691 10.172C494.393 10.004 493.931 9.84067 493.305 9.682C492.736 9.53267 492.269 9.38333 491.905 9.234C491.551 9.07533 491.243 8.84667 490.981 8.548C490.729 8.24 490.603 7.83867 490.603 7.344C490.603 6.952 490.72 6.59267 490.953 6.266C491.187 5.93933 491.518 5.68267 491.947 5.496C492.377 5.3 492.867 5.202 493.417 5.202C494.267 5.202 494.953 5.41667 495.475 5.846C495.998 6.27533 496.278 6.86333 496.315 7.61H495.041C495.013 7.20867 494.85 6.88667 494.551 6.644C494.262 6.40133 493.87 6.28 493.375 6.28C492.918 6.28 492.554 6.378 492.283 6.574C492.013 6.77 491.877 7.02667 491.877 7.344C491.877 7.596 491.957 7.806 492.115 7.974C492.283 8.13267 492.489 8.26333 492.731 8.366C492.983 8.45933 493.329 8.56667 493.767 8.688C494.318 8.83733 494.766 8.98667 495.111 9.136C495.457 9.276 495.751 9.49067 495.993 9.78C496.245 10.0693 496.376 10.4473 496.385 10.914C496.385 11.334 496.269 11.712 496.035 12.048C495.802 12.384 495.471 12.65 495.041 12.846C494.621 13.0327 494.136 13.126 493.585 13.126ZM497.75 9.15C497.75 8.35667 497.909 7.666 498.226 7.078C498.543 6.48067 498.982 6.01867 499.542 5.692C500.111 5.36533 500.76 5.202 501.488 5.202C502.431 5.202 503.205 5.43067 503.812 5.888C504.428 6.34533 504.834 6.98 505.03 7.792H503.658C503.527 7.32533 503.271 6.95667 502.888 6.686C502.515 6.41533 502.048 6.28 501.488 6.28C500.76 6.28 500.172 6.532 499.724 7.036C499.276 7.53067 499.052 8.23533 499.052 9.15C499.052 10.074 499.276 10.788 499.724 11.292C500.172 11.796 500.76 12.048 501.488 12.048C502.048 12.048 502.515 11.9173 502.888 11.656C503.261 11.3947 503.518 11.0213 503.658 10.536H505.03C504.825 11.32 504.414 11.95 503.798 12.426C503.182 12.8927 502.412 13.126 501.488 13.126C500.76 13.126 500.111 12.9627 499.542 12.636C498.982 12.3093 498.543 11.8473 498.226 11.25C497.909 10.6527 497.75 9.95267 497.75 9.15ZM508.046 6.574C508.27 6.13533 508.587 5.79467 508.998 5.552C509.418 5.30933 509.927 5.188 510.524 5.188V6.504H510.188C508.76 6.504 508.046 7.27867 508.046 8.828V13H506.772V5.328H508.046V6.574ZM511.561 9.136C511.561 8.352 511.719 7.666 512.037 7.078C512.354 6.48067 512.788 6.01867 513.339 5.692C513.899 5.36533 514.519 5.202 515.201 5.202C515.873 5.202 516.456 5.34667 516.951 5.636C517.445 5.92533 517.814 6.28933 518.057 6.728V5.328H519.345V13H518.057V11.572C517.805 12.02 517.427 12.3933 516.923 12.692C516.428 12.9813 515.849 13.126 515.187 13.126C514.505 13.126 513.889 12.958 513.339 12.622C512.788 12.286 512.354 11.8147 512.037 11.208C511.719 10.6013 511.561 9.91067 511.561 9.136ZM518.057 9.15C518.057 8.57133 517.94 8.06733 517.707 7.638C517.473 7.20867 517.156 6.882 516.755 6.658C516.363 6.42467 515.929 6.308 515.453 6.308C514.977 6.308 514.543 6.42 514.151 6.644C513.759 6.868 513.446 7.19467 513.213 7.624C512.979 8.05333 512.863 8.55733 512.863 9.136C512.863 9.724 512.979 10.2373 513.213 10.676C513.446 11.1053 513.759 11.4367 514.151 11.67C514.543 11.894 514.977 12.006 515.453 12.006C515.929 12.006 516.363 11.894 516.755 11.67C517.156 11.4367 517.473 11.1053 517.707 10.676C517.94 10.2373 518.057 9.72867 518.057 9.15ZM522.813 6.742C523.065 6.30333 523.439 5.93933 523.933 5.65C524.437 5.35133 525.021 5.202 525.683 5.202C526.365 5.202 526.981 5.36533 527.531 5.692C528.091 6.01867 528.53 6.48067 528.847 7.078C529.165 7.666 529.323 8.352 529.323 9.136C529.323 9.91067 529.165 10.6013 528.847 11.208C528.53 11.8147 528.091 12.286 527.531 12.622C526.981 12.958 526.365 13.126 525.683 13.126C525.03 13.126 524.451 12.9813 523.947 12.692C523.453 12.3933 523.075 12.0247 522.813 11.586V16.64H521.539V5.328H522.813V6.742ZM528.021 9.136C528.021 8.55733 527.905 8.05333 527.671 7.624C527.438 7.19467 527.121 6.868 526.719 6.644C526.327 6.42 525.893 6.308 525.417 6.308C524.951 6.308 524.517 6.42467 524.115 6.658C523.723 6.882 523.406 7.21333 523.163 7.652C522.93 8.08133 522.813 8.58067 522.813 9.15C522.813 9.72867 522.93 10.2373 523.163 10.676C523.406 11.1053 523.723 11.4367 524.115 11.67C524.517 11.894 524.951 12.006 525.417 12.006C525.893 12.006 526.327 11.894 526.719 11.67C527.121 11.4367 527.438 11.1053 527.671 10.676C527.905 10.2373 528.021 9.724 528.021 9.136ZM531.7 4.082C531.458 4.082 531.252 3.998 531.084 3.83C530.916 3.662 530.832 3.45667 530.832 3.214C530.832 2.97133 530.916 2.766 531.084 2.598C531.252 2.43 531.458 2.346 531.7 2.346C531.934 2.346 532.13 2.43 532.288 2.598C532.456 2.766 532.54 2.97133 532.54 3.214C532.54 3.45667 532.456 3.662 532.288 3.83C532.13 3.998 531.934 4.082 531.7 4.082ZM532.316 5.328V13H531.042V5.328H532.316ZM538.268 5.188C539.201 5.188 539.957 5.47267 540.536 6.042C541.114 6.602 541.404 7.414 541.404 8.478V13H540.144V8.66C540.144 7.89467 539.952 7.31133 539.57 6.91C539.187 6.49933 538.664 6.294 538.002 6.294C537.33 6.294 536.793 6.504 536.392 6.924C536 7.344 535.804 7.95533 535.804 8.758V13H534.53V5.328H535.804V6.42C536.056 6.028 536.396 5.72467 536.826 5.51C537.264 5.29533 537.745 5.188 538.268 5.188ZM546.691 5.202C547.353 5.202 547.932 5.34667 548.427 5.636C548.931 5.92533 549.304 6.28933 549.547 6.728V5.328H550.835V13.168C550.835 13.868 550.685 14.4887 550.387 15.03C550.088 15.5807 549.659 16.01 549.099 16.318C548.548 16.626 547.904 16.78 547.167 16.78C546.159 16.78 545.319 16.542 544.647 16.066C543.975 15.59 543.578 14.9413 543.457 14.12H544.717C544.857 14.5867 545.146 14.96 545.585 15.24C546.023 15.5293 546.551 15.674 547.167 15.674C547.867 15.674 548.436 15.4547 548.875 15.016C549.323 14.5773 549.547 13.9613 549.547 13.168V11.558C549.295 12.006 548.921 12.3793 548.427 12.678C547.932 12.9767 547.353 13.126 546.691 13.126C546.009 13.126 545.389 12.958 544.829 12.622C544.278 12.286 543.844 11.8147 543.527 11.208C543.209 10.6013 543.051 9.91067 543.051 9.136C543.051 8.352 543.209 7.666 543.527 7.078C543.844 6.48067 544.278 6.01867 544.829 5.692C545.389 5.36533 546.009 5.202 546.691 5.202ZM549.547 9.15C549.547 8.57133 549.43 8.06733 549.197 7.638C548.963 7.20867 548.646 6.882 548.245 6.658C547.853 6.42467 547.419 6.308 546.943 6.308C546.467 6.308 546.033 6.42 545.641 6.644C545.249 6.868 544.936 7.19467 544.703 7.624C544.469 8.05333 544.353 8.55733 544.353 9.136C544.353 9.724 544.469 10.2373 544.703 10.676C544.936 11.1053 545.249 11.4367 545.641 11.67C546.033 11.894 546.467 12.006 546.943 12.006C547.419 12.006 547.853 11.894 548.245 11.67C548.646 11.4367 548.963 11.1053 549.197 10.676C549.43 10.2373 549.547 9.72867 549.547 9.15Z" fill="#666666"/>
<path d="M460.369 380.848L458.423 378.902C457.947 379.033 457.461 379.098 456.967 379.098C456.061 379.098 455.235 378.888 454.489 378.468C453.742 378.039 453.149 377.446 452.711 376.69C452.281 375.925 452.067 375.066 452.067 374.114C452.067 373.162 452.281 372.308 452.711 371.552C453.149 370.787 453.742 370.194 454.489 369.774C455.235 369.345 456.061 369.13 456.967 369.13C457.881 369.13 458.712 369.345 459.459 369.774C460.205 370.194 460.793 370.782 461.223 371.538C461.652 372.294 461.867 373.153 461.867 374.114C461.867 375.047 461.661 375.887 461.251 376.634C460.84 377.381 460.275 377.969 459.557 378.398L462.021 380.848H460.369ZM453.369 374.114C453.369 374.889 453.523 375.57 453.831 376.158C454.148 376.746 454.577 377.199 455.119 377.516C455.669 377.833 456.285 377.992 456.967 377.992C457.648 377.992 458.259 377.833 458.801 377.516C459.351 377.199 459.781 376.746 460.089 376.158C460.406 375.57 460.565 374.889 460.565 374.114C460.565 373.33 460.406 372.649 460.089 372.07C459.781 371.482 459.356 371.029 458.815 370.712C458.273 370.395 457.657 370.236 456.967 370.236C456.276 370.236 455.66 370.395 455.119 370.712C454.577 371.029 454.148 371.482 453.831 372.07C453.523 372.649 453.369 373.33 453.369 374.114ZM470.422 371.328V379H469.148V377.866C468.905 378.258 468.565 378.566 468.126 378.79C467.697 379.005 467.221 379.112 466.698 379.112C466.101 379.112 465.564 378.991 465.088 378.748C464.612 378.496 464.234 378.123 463.954 377.628C463.683 377.133 463.548 376.531 463.548 375.822V371.328H464.808V375.654C464.808 376.41 464.999 376.993 465.382 377.404C465.765 377.805 466.287 378.006 466.95 378.006C467.631 378.006 468.168 377.796 468.56 377.376C468.952 376.956 469.148 376.345 469.148 375.542V371.328H470.422ZM473.273 370.082C473.03 370.082 472.825 369.998 472.657 369.83C472.489 369.662 472.405 369.457 472.405 369.214C472.405 368.971 472.489 368.766 472.657 368.598C472.825 368.43 473.03 368.346 473.273 368.346C473.506 368.346 473.702 368.43 473.861 368.598C474.029 368.766 474.113 368.971 474.113 369.214C474.113 369.457 474.029 369.662 473.861 369.83C473.702 369.998 473.506 370.082 473.273 370.082ZM473.889 371.328V379H472.615V371.328H473.889ZM475.626 375.15C475.626 374.357 475.785 373.666 476.102 373.078C476.42 372.481 476.858 372.019 477.418 371.692C477.988 371.365 478.636 371.202 479.364 371.202C480.307 371.202 481.082 371.431 481.688 371.888C482.304 372.345 482.71 372.98 482.906 373.792H481.534C481.404 373.325 481.147 372.957 480.764 372.686C480.391 372.415 479.924 372.28 479.364 372.28C478.636 372.28 478.048 372.532 477.6 373.036C477.152 373.531 476.928 374.235 476.928 375.15C476.928 376.074 477.152 376.788 477.6 377.292C478.048 377.796 478.636 378.048 479.364 378.048C479.924 378.048 480.391 377.917 480.764 377.656C481.138 377.395 481.394 377.021 481.534 376.536H482.906C482.701 377.32 482.29 377.95 481.674 378.426C481.058 378.893 480.288 379.126 479.364 379.126C478.636 379.126 477.988 378.963 477.418 378.636C476.858 378.309 476.42 377.847 476.102 377.25C475.785 376.653 475.626 375.953 475.626 375.15ZM488.932 379L485.922 375.612V379H484.648V368.64H485.922V374.73L488.876 371.328H490.654L487.042 375.15L490.668 379H488.932ZM496.944 372.742C497.196 372.303 497.569 371.939 498.064 371.65C498.568 371.351 499.151 371.202 499.814 371.202C500.495 371.202 501.111 371.365 501.662 371.692C502.222 372.019 502.66 372.481 502.978 373.078C503.295 373.666 503.454 374.352 503.454 375.136C503.454 375.911 503.295 376.601 502.978 377.208C502.66 377.815 502.222 378.286 501.662 378.622C501.111 378.958 500.495 379.126 499.814 379.126C499.16 379.126 498.582 378.981 498.078 378.692C497.583 378.393 497.205 378.025 496.944 377.586V382.64H495.67V371.328H496.944V372.742ZM502.152 375.136C502.152 374.557 502.035 374.053 501.802 373.624C501.568 373.195 501.251 372.868 500.85 372.644C500.458 372.42 500.024 372.308 499.548 372.308C499.081 372.308 498.647 372.425 498.246 372.658C497.854 372.882 497.536 373.213 497.294 373.652C497.06 374.081 496.944 374.581 496.944 375.15C496.944 375.729 497.06 376.237 497.294 376.676C497.536 377.105 497.854 377.437 498.246 377.67C498.647 377.894 499.081 378.006 499.548 378.006C500.024 378.006 500.458 377.894 500.85 377.67C501.251 377.437 501.568 377.105 501.802 376.676C502.035 376.237 502.152 375.724 502.152 375.136ZM508.519 379.126C507.8 379.126 507.147 378.963 506.559 378.636C505.98 378.309 505.523 377.847 505.187 377.25C504.86 376.643 504.697 375.943 504.697 375.15C504.697 374.366 504.865 373.675 505.201 373.078C505.546 372.471 506.013 372.009 506.601 371.692C507.189 371.365 507.847 371.202 508.575 371.202C509.303 371.202 509.961 371.365 510.549 371.692C511.137 372.009 511.599 372.467 511.935 373.064C512.28 373.661 512.453 374.357 512.453 375.15C512.453 375.943 512.275 376.643 511.921 377.25C511.575 377.847 511.104 378.309 510.507 378.636C509.909 378.963 509.247 379.126 508.519 379.126ZM508.519 378.006C508.976 378.006 509.405 377.899 509.807 377.684C510.208 377.469 510.53 377.147 510.773 376.718C511.025 376.289 511.151 375.766 511.151 375.15C511.151 374.534 511.029 374.011 510.787 373.582C510.544 373.153 510.227 372.835 509.835 372.63C509.443 372.415 509.018 372.308 508.561 372.308C508.094 372.308 507.665 372.415 507.273 372.63C506.89 372.835 506.582 373.153 506.349 373.582C506.115 374.011 505.999 374.534 505.999 375.15C505.999 375.775 506.111 376.303 506.335 376.732C506.568 377.161 506.876 377.483 507.259 377.698C507.641 377.903 508.061 378.006 508.519 378.006ZM516.886 379.126C516.298 379.126 515.77 379.028 515.304 378.832C514.837 378.627 514.468 378.347 514.198 377.992C513.927 377.628 513.778 377.213 513.75 376.746H515.066C515.103 377.129 515.28 377.441 515.598 377.684C515.924 377.927 516.349 378.048 516.872 378.048C517.357 378.048 517.74 377.941 518.02 377.726C518.3 377.511 518.44 377.241 518.44 376.914C518.44 376.578 518.29 376.331 517.992 376.172C517.693 376.004 517.231 375.841 516.606 375.682C516.036 375.533 515.57 375.383 515.206 375.234C514.851 375.075 514.543 374.847 514.282 374.548C514.03 374.24 513.904 373.839 513.904 373.344C513.904 372.952 514.02 372.593 514.254 372.266C514.487 371.939 514.818 371.683 515.248 371.496C515.677 371.3 516.167 371.202 516.718 371.202C517.567 371.202 518.253 371.417 518.776 371.846C519.298 372.275 519.578 372.863 519.616 373.61H518.342C518.314 373.209 518.15 372.887 517.852 372.644C517.562 372.401 517.17 372.28 516.676 372.28C516.218 372.28 515.854 372.378 515.584 372.574C515.313 372.77 515.178 373.027 515.178 373.344C515.178 373.596 515.257 373.806 515.416 373.974C515.584 374.133 515.789 374.263 516.032 374.366C516.284 374.459 516.629 374.567 517.068 374.688C517.618 374.837 518.066 374.987 518.412 375.136C518.757 375.276 519.051 375.491 519.294 375.78C519.546 376.069 519.676 376.447 519.686 376.914C519.686 377.334 519.569 377.712 519.336 378.048C519.102 378.384 518.771 378.65 518.342 378.846C517.922 379.033 517.436 379.126 516.886 379.126ZM523.08 372.378V376.9C523.08 377.273 523.16 377.539 523.318 377.698C523.477 377.847 523.752 377.922 524.144 377.922H525.082V379H523.934C523.225 379 522.693 378.837 522.338 378.51C521.984 378.183 521.806 377.647 521.806 376.9V372.378H520.812V371.328H521.806V369.396H523.08V371.328H525.082V372.378H523.08ZM527.326 370.082C527.083 370.082 526.878 369.998 526.71 369.83C526.542 369.662 526.458 369.457 526.458 369.214C526.458 368.971 526.542 368.766 526.71 368.598C526.878 368.43 527.083 368.346 527.326 368.346C527.559 368.346 527.755 368.43 527.914 368.598C528.082 368.766 528.166 368.971 528.166 369.214C528.166 369.457 528.082 369.662 527.914 369.83C527.755 369.998 527.559 370.082 527.326 370.082ZM527.942 371.328V379H526.668V371.328H527.942ZM533.893 371.188C534.827 371.188 535.583 371.473 536.161 372.042C536.74 372.602 537.029 373.414 537.029 374.478V379H535.769V374.66C535.769 373.895 535.578 373.311 535.195 372.91C534.813 372.499 534.29 372.294 533.627 372.294C532.955 372.294 532.419 372.504 532.017 372.924C531.625 373.344 531.429 373.955 531.429 374.758V379H530.155V371.328H531.429V372.42C531.681 372.028 532.022 371.725 532.451 371.51C532.89 371.295 533.371 371.188 533.893 371.188ZM542.316 371.202C542.979 371.202 543.558 371.347 544.052 371.636C544.556 371.925 544.93 372.289 545.172 372.728V371.328H546.46V379.168C546.46 379.868 546.311 380.489 546.012 381.03C545.714 381.581 545.284 382.01 544.724 382.318C544.174 382.626 543.53 382.78 542.792 382.78C541.784 382.78 540.944 382.542 540.272 382.066C539.6 381.59 539.204 380.941 539.082 380.12H540.342C540.482 380.587 540.772 380.96 541.21 381.24C541.649 381.529 542.176 381.674 542.792 381.674C543.492 381.674 544.062 381.455 544.5 381.016C544.948 380.577 545.172 379.961 545.172 379.168V377.558C544.92 378.006 544.547 378.379 544.052 378.678C543.558 378.977 542.979 379.126 542.316 379.126C541.635 379.126 541.014 378.958 540.454 378.622C539.904 378.286 539.47 377.815 539.152 377.208C538.835 376.601 538.676 375.911 538.676 375.136C538.676 374.352 538.835 373.666 539.152 373.078C539.47 372.481 539.904 372.019 540.454 371.692C541.014 371.365 541.635 371.202 542.316 371.202ZM545.172 375.15C545.172 374.571 545.056 374.067 544.822 373.638C544.589 373.209 544.272 372.882 543.87 372.658C543.478 372.425 543.044 372.308 542.568 372.308C542.092 372.308 541.658 372.42 541.266 372.644C540.874 372.868 540.562 373.195 540.328 373.624C540.095 374.053 539.978 374.557 539.978 375.136C539.978 375.724 540.095 376.237 540.328 376.676C540.562 377.105 540.874 377.437 541.266 377.67C541.658 377.894 542.092 378.006 542.568 378.006C543.044 378.006 543.478 377.894 543.87 377.67C544.272 377.437 544.589 377.105 544.822 376.676C545.056 376.237 545.172 375.729 545.172 375.15Z" fill="#666666"/>
<rect x="130" y="26" width="90" height="90" rx="20" fill="#034737"/>
<circle cx="175.092" cy="70.8719" r="23.872" stroke="white" stroke-width="2.16667" stroke-linecap="round" stroke-linejoin="round"/>
<circle cx="175.092" cy="65.5672" r="7.95732" stroke="white" stroke-width="2.16667" stroke-linecap="round" stroke-linejoin="round"/>
<path d="M159.623 89.0385C160.971 84.5518 165.102 81.4803 169.787 81.4817H180.396C185.088 81.4801 189.223 84.5595 190.566 89.0544" stroke="white" stroke-width="2.16667" stroke-linecap="round" stroke-linejoin="round"/>
<path d="M143.853 8.114C143.853 7.162 144.068 6.308 144.497 5.552C144.927 4.78667 145.51 4.18933 146.247 3.76C146.994 3.33067 147.82 3.116 148.725 3.116C149.789 3.116 150.718 3.37267 151.511 3.886C152.305 4.39933 152.883 5.12733 153.247 6.07H151.721C151.451 5.482 151.059 5.02933 150.545 4.712C150.041 4.39467 149.435 4.236 148.725 4.236C148.044 4.236 147.433 4.39467 146.891 4.712C146.35 5.02933 145.925 5.482 145.617 6.07C145.309 6.64867 145.155 7.33 145.155 8.114C145.155 8.88867 145.309 9.57 145.617 10.158C145.925 10.7367 146.35 11.1847 146.891 11.502C147.433 11.8193 148.044 11.978 148.725 11.978C149.435 11.978 150.041 11.824 150.545 11.516C151.059 11.1987 151.451 10.746 151.721 10.158H153.247C152.883 11.0913 152.305 11.8147 151.511 12.328C150.718 12.832 149.789 13.084 148.725 13.084C147.82 13.084 146.994 12.874 146.247 12.454C145.51 12.0247 144.927 11.432 144.497 10.676C144.068 9.92 143.853 9.066 143.853 8.114ZM158.532 13.126C157.813 13.126 157.16 12.9627 156.572 12.636C155.993 12.3093 155.536 11.8473 155.2 11.25C154.873 10.6433 154.71 9.94333 154.71 9.15C154.71 8.366 154.878 7.67533 155.214 7.078C155.559 6.47133 156.026 6.00933 156.614 5.692C157.202 5.36533 157.86 5.202 158.588 5.202C159.316 5.202 159.974 5.36533 160.562 5.692C161.15 6.00933 161.612 6.46667 161.948 7.064C162.293 7.66133 162.466 8.35667 162.466 9.15C162.466 9.94333 162.289 10.6433 161.934 11.25C161.589 11.8473 161.117 12.3093 160.52 12.636C159.923 12.9627 159.26 13.126 158.532 13.126ZM158.532 12.006C158.989 12.006 159.419 11.8987 159.82 11.684C160.221 11.4693 160.543 11.1473 160.786 10.718C161.038 10.2887 161.164 9.766 161.164 9.15C161.164 8.534 161.043 8.01133 160.8 7.582C160.557 7.15267 160.24 6.83533 159.848 6.63C159.456 6.41533 159.031 6.308 158.574 6.308C158.107 6.308 157.678 6.41533 157.286 6.63C156.903 6.83533 156.595 7.15267 156.362 7.582C156.129 8.01133 156.012 8.534 156.012 9.15C156.012 9.77533 156.124 10.3027 156.348 10.732C156.581 11.1613 156.889 11.4833 157.272 11.698C157.655 11.9033 158.075 12.006 158.532 12.006ZM167.921 5.188C168.854 5.188 169.61 5.47267 170.189 6.042C170.768 6.602 171.057 7.414 171.057 8.478V13H169.797V8.66C169.797 7.89467 169.606 7.31133 169.223 6.91C168.84 6.49933 168.318 6.294 167.655 6.294C166.983 6.294 166.446 6.504 166.045 6.924C165.653 7.344 165.457 7.95533 165.457 8.758V13H164.183V5.328H165.457V6.42C165.709 6.028 166.05 5.72467 166.479 5.51C166.918 5.29533 167.398 5.188 167.921 5.188ZM174.734 6.378V10.9C174.734 11.2733 174.813 11.5393 174.972 11.698C175.131 11.8473 175.406 11.922 175.798 11.922H176.736V13H175.588C174.879 13 174.347 12.8367 173.992 12.51C173.637 12.1833 173.46 11.6467 173.46 10.9V6.378H172.466V5.328H173.46V3.396H174.734V5.328H176.736V6.378H174.734ZM177.846 9.136C177.846 8.352 178.004 7.666 178.322 7.078C178.639 6.48067 179.073 6.01867 179.624 5.692C180.184 5.36533 180.804 5.202 181.486 5.202C182.158 5.202 182.741 5.34667 183.236 5.636C183.73 5.92533 184.099 6.28933 184.342 6.728V5.328H185.63V13H184.342V11.572C184.09 12.02 183.712 12.3933 183.208 12.692C182.713 12.9813 182.134 13.126 181.472 13.126C180.79 13.126 180.174 12.958 179.624 12.622C179.073 12.286 178.639 11.8147 178.322 11.208C178.004 10.6013 177.846 9.91067 177.846 9.136ZM184.342 9.15C184.342 8.57133 184.225 8.06733 183.992 7.638C183.758 7.20867 183.441 6.882 183.04 6.658C182.648 6.42467 182.214 6.308 181.738 6.308C181.262 6.308 180.828 6.42 180.436 6.644C180.044 6.868 179.731 7.19467 179.498 7.624C179.264 8.05333 179.148 8.55733 179.148 9.136C179.148 9.724 179.264 10.2373 179.498 10.676C179.731 11.1053 180.044 11.4367 180.436 11.67C180.828 11.894 181.262 12.006 181.738 12.006C182.214 12.006 182.648 11.894 183.04 11.67C183.441 11.4367 183.758 11.1053 183.992 10.676C184.225 10.2373 184.342 9.72867 184.342 9.15ZM187.349 9.15C187.349 8.35667 187.507 7.666 187.825 7.078C188.142 6.48067 188.581 6.01867 189.141 5.692C189.71 5.36533 190.359 5.202 191.087 5.202C192.029 5.202 192.804 5.43067 193.411 5.888C194.027 6.34533 194.433 6.98 194.629 7.792H193.257C193.126 7.32533 192.869 6.95667 192.487 6.686C192.113 6.41533 191.647 6.28 191.087 6.28C190.359 6.28 189.771 6.532 189.323 7.036C188.875 7.53067 188.651 8.23533 188.651 9.15C188.651 10.074 188.875 10.788 189.323 11.292C189.771 11.796 190.359 12.048 191.087 12.048C191.647 12.048 192.113 11.9173 192.487 11.656C192.86 11.3947 193.117 11.0213 193.257 10.536H194.629C194.423 11.32 194.013 11.95 193.397 12.426C192.781 12.8927 192.011 13.126 191.087 13.126C190.359 13.126 189.71 12.9627 189.141 12.636C188.581 12.3093 188.142 11.8473 187.825 11.25C187.507 10.6527 187.349 9.95267 187.349 9.15ZM197.924 6.378V10.9C197.924 11.2733 198.004 11.5393 198.162 11.698C198.321 11.8473 198.596 11.922 198.988 11.922H199.926V13H198.778C198.069 13 197.537 12.8367 197.182 12.51C196.828 12.1833 196.65 11.6467 196.65 10.9V6.378H195.656V5.328H196.65V3.396H197.924V5.328H199.926V6.378H197.924ZM204.228 13.126C203.64 13.126 203.113 13.028 202.646 12.832C202.179 12.6267 201.811 12.3467 201.54 11.992C201.269 11.628 201.12 11.2127 201.092 10.746H202.408C202.445 11.1287 202.623 11.4413 202.94 11.684C203.267 11.9267 203.691 12.048 204.214 12.048C204.699 12.048 205.082 11.9407 205.362 11.726C205.642 11.5113 205.782 11.2407 205.782 10.914C205.782 10.578 205.633 10.3307 205.334 10.172C205.035 10.004 204.573 9.84067 203.948 9.682C203.379 9.53267 202.912 9.38333 202.548 9.234C202.193 9.07533 201.885 8.84667 201.624 8.548C201.372 8.24 201.246 7.83867 201.246 7.344C201.246 6.952 201.363 6.59267 201.596 6.266C201.829 5.93933 202.161 5.68267 202.59 5.496C203.019 5.3 203.509 5.202 204.06 5.202C204.909 5.202 205.595 5.41667 206.118 5.846C206.641 6.27533 206.921 6.86333 206.958 7.61H205.684C205.656 7.20867 205.493 6.88667 205.194 6.644C204.905 6.40133 204.513 6.28 204.018 6.28C203.561 6.28 203.197 6.378 202.926 6.574C202.655 6.77 202.52 7.02667 202.52 7.344C202.52 7.596 202.599 7.806 202.758 7.974C202.926 8.13267 203.131 8.26333 203.374 8.366C203.626 8.45933 203.971 8.56667 204.41 8.688C204.961 8.83733 205.409 8.98667 205.754 9.136C206.099 9.276 206.393 9.49067 206.636 9.78C206.888 10.0693 207.019 10.4473 207.028 10.914C207.028 11.334 206.911 11.712 206.678 12.048C206.445 12.384 206.113 12.65 205.684 12.846C205.264 13.0327 204.779 13.126 204.228 13.126Z" fill="#666666"/>
<path d="M144.442 379.098C143.798 379.098 143.22 378.986 142.706 378.762C142.202 378.529 141.806 378.211 141.516 377.81C141.227 377.399 141.078 376.928 141.068 376.396H142.426C142.473 376.853 142.66 377.241 142.986 377.558C143.322 377.866 143.808 378.02 144.442 378.02C145.049 378.02 145.525 377.871 145.87 377.572C146.225 377.264 146.402 376.872 146.402 376.396C146.402 376.023 146.3 375.719 146.094 375.486C145.889 375.253 145.632 375.075 145.324 374.954C145.016 374.833 144.601 374.702 144.078 374.562C143.434 374.394 142.916 374.226 142.524 374.058C142.142 373.89 141.81 373.629 141.53 373.274C141.26 372.91 141.124 372.425 141.124 371.818C141.124 371.286 141.26 370.815 141.53 370.404C141.801 369.993 142.179 369.676 142.664 369.452C143.159 369.228 143.724 369.116 144.358 369.116C145.273 369.116 146.02 369.345 146.598 369.802C147.186 370.259 147.518 370.866 147.592 371.622H146.192C146.146 371.249 145.95 370.922 145.604 370.642C145.259 370.353 144.802 370.208 144.232 370.208C143.7 370.208 143.266 370.348 142.93 370.628C142.594 370.899 142.426 371.281 142.426 371.776C142.426 372.131 142.524 372.42 142.72 372.644C142.926 372.868 143.173 373.041 143.462 373.162C143.761 373.274 144.176 373.405 144.708 373.554C145.352 373.731 145.87 373.909 146.262 374.086C146.654 374.254 146.99 374.52 147.27 374.884C147.55 375.239 147.69 375.724 147.69 376.34C147.69 376.816 147.564 377.264 147.312 377.684C147.06 378.104 146.687 378.445 146.192 378.706C145.698 378.967 145.114 379.098 144.442 379.098ZM149.131 375.15C149.131 374.357 149.29 373.666 149.607 373.078C149.925 372.481 150.363 372.019 150.923 371.692C151.493 371.365 152.141 371.202 152.869 371.202C153.812 371.202 154.587 371.431 155.193 371.888C155.809 372.345 156.215 372.98 156.411 373.792H155.039C154.909 373.325 154.652 372.957 154.269 372.686C153.896 372.415 153.429 372.28 152.869 372.28C152.141 372.28 151.553 372.532 151.105 373.036C150.657 373.531 150.433 374.235 150.433 375.15C150.433 376.074 150.657 376.788 151.105 377.292C151.553 377.796 152.141 378.048 152.869 378.048C153.429 378.048 153.896 377.917 154.269 377.656C154.643 377.395 154.899 377.021 155.039 376.536H156.411C156.206 377.32 155.795 377.95 155.179 378.426C154.563 378.893 153.793 379.126 152.869 379.126C152.141 379.126 151.493 378.963 150.923 378.636C150.363 378.309 149.925 377.847 149.607 377.25C149.29 376.653 149.131 375.953 149.131 375.15ZM161.961 371.188C162.54 371.188 163.063 371.314 163.529 371.566C163.996 371.809 164.36 372.177 164.621 372.672C164.892 373.167 165.027 373.769 165.027 374.478V379H163.767V374.66C163.767 373.895 163.576 373.311 163.193 372.91C162.811 372.499 162.288 372.294 161.625 372.294C160.953 372.294 160.417 372.504 160.015 372.924C159.623 373.344 159.427 373.955 159.427 374.758V379H158.153V368.64H159.427V372.42C159.679 372.028 160.025 371.725 160.463 371.51C160.911 371.295 161.411 371.188 161.961 371.188ZM174.15 374.87C174.15 375.113 174.136 375.369 174.108 375.64H167.976C168.023 376.396 168.28 376.989 168.746 377.418C169.222 377.838 169.796 378.048 170.468 378.048C171.019 378.048 171.476 377.922 171.84 377.67C172.214 377.409 172.475 377.063 172.624 376.634H173.996C173.791 377.371 173.38 377.973 172.764 378.44C172.148 378.897 171.383 379.126 170.468 379.126C169.74 379.126 169.087 378.963 168.508 378.636C167.939 378.309 167.491 377.847 167.164 377.25C166.838 376.643 166.674 375.943 166.674 375.15C166.674 374.357 166.833 373.661 167.15 373.064C167.468 372.467 167.911 372.009 168.48 371.692C169.059 371.365 169.722 371.202 170.468 371.202C171.196 371.202 171.84 371.361 172.4 371.678C172.96 371.995 173.39 372.434 173.688 372.994C173.996 373.545 174.15 374.17 174.15 374.87ZM172.834 374.604C172.834 374.119 172.727 373.703 172.512 373.358C172.298 373.003 172.004 372.737 171.63 372.56C171.266 372.373 170.86 372.28 170.412 372.28C169.768 372.28 169.218 372.485 168.76 372.896C168.312 373.307 168.056 373.876 167.99 374.604H172.834ZM175.398 375.136C175.398 374.352 175.557 373.666 175.874 373.078C176.191 372.481 176.625 372.019 177.176 371.692C177.736 371.365 178.361 371.202 179.052 371.202C179.649 371.202 180.205 371.342 180.718 371.622C181.231 371.893 181.623 372.252 181.894 372.7V368.64H183.182V379H181.894V377.558C181.642 378.015 181.269 378.393 180.774 378.692C180.279 378.981 179.701 379.126 179.038 379.126C178.357 379.126 177.736 378.958 177.176 378.622C176.625 378.286 176.191 377.815 175.874 377.208C175.557 376.601 175.398 375.911 175.398 375.136ZM181.894 375.15C181.894 374.571 181.777 374.067 181.544 373.638C181.311 373.209 180.993 372.882 180.592 372.658C180.2 372.425 179.766 372.308 179.29 372.308C178.814 372.308 178.38 372.42 177.988 372.644C177.596 372.868 177.283 373.195 177.05 373.624C176.817 374.053 176.7 374.557 176.7 375.136C176.7 375.724 176.817 376.237 177.05 376.676C177.283 377.105 177.596 377.437 177.988 377.67C178.38 377.894 178.814 378.006 179.29 378.006C179.766 378.006 180.2 377.894 180.592 377.67C180.993 377.437 181.311 377.105 181.544 376.676C181.777 376.237 181.894 375.729 181.894 375.15ZM192.181 371.328V379H190.907V377.866C190.664 378.258 190.324 378.566 189.885 378.79C189.456 379.005 188.98 379.112 188.457 379.112C187.86 379.112 187.323 378.991 186.847 378.748C186.371 378.496 185.993 378.123 185.713 377.628C185.442 377.133 185.307 376.531 185.307 375.822V371.328H186.567V375.654C186.567 376.41 186.758 376.993 187.141 377.404C187.524 377.805 188.046 378.006 188.709 378.006C189.39 378.006 189.927 377.796 190.319 377.376C190.711 376.956 190.907 376.345 190.907 375.542V371.328H192.181ZM195.648 368.64V379H194.374V368.64H195.648ZM204.861 374.87C204.861 375.113 204.847 375.369 204.819 375.64H198.687C198.734 376.396 198.991 376.989 199.457 377.418C199.933 377.838 200.507 378.048 201.179 378.048C201.73 378.048 202.187 377.922 202.551 377.67C202.925 377.409 203.186 377.063 203.335 376.634H204.707C204.502 377.371 204.091 377.973 203.475 378.44C202.859 378.897 202.094 379.126 201.179 379.126C200.451 379.126 199.798 378.963 199.219 378.636C198.65 378.309 198.202 377.847 197.875 377.25C197.549 376.643 197.385 375.943 197.385 375.15C197.385 374.357 197.544 373.661 197.861 373.064C198.179 372.467 198.622 372.009 199.191 371.692C199.77 371.365 200.433 371.202 201.179 371.202C201.907 371.202 202.551 371.361 203.111 371.678C203.671 371.995 204.101 372.434 204.399 372.994C204.707 373.545 204.861 374.17 204.861 374.87ZM203.545 374.604C203.545 374.119 203.438 373.703 203.223 373.358C203.009 373.003 202.715 372.737 202.341 372.56C201.977 372.373 201.571 372.28 201.123 372.28C200.479 372.28 199.929 372.485 199.471 372.896C199.023 373.307 198.767 373.876 198.701 374.604H203.545ZM207.859 372.574C208.083 372.135 208.4 371.795 208.811 371.552C209.231 371.309 209.74 371.188 210.337 371.188V372.504H210.001C208.573 372.504 207.859 373.279 207.859 374.828V379H206.585V371.328H207.859V372.574Z" fill="#666666"/>
<g filter="url(#filter0_bd_6869_7301)">
<rect x="297" y="146" width="86.6484" height="91.8193" rx="27.0776" fill="#034737"/>
<rect x="296.323" y="145.323" width="88.0023" height="93.1732" rx="27.7546" stroke="#EAEAEA" stroke-width="1.35388"/>
</g>
<circle cx="354.208" cy="206.043" r="3.91667" transform="rotate(-180 354.208 206.043)" stroke="white" stroke-width="2.54583" stroke-linecap="round" stroke-linejoin="round"/>
<circle cx="326.792" cy="178.626" r="3.91667" transform="rotate(-180 326.792 178.626)" stroke="white" stroke-width="2.54583" stroke-linecap="round" stroke-linejoin="round"/>
<circle cx="326.792" cy="206.043" r="3.91667" transform="rotate(-180 326.792 206.043)" stroke="white" stroke-width="2.54583" stroke-linecap="round" stroke-linejoin="round"/>
<circle cx="354.208" cy="178.626" r="3.91667" transform="rotate(-180 354.208 178.626)" stroke="white" stroke-width="2.54583" stroke-linecap="round" stroke-linejoin="round"/>
<path d="M352.171 182.464C352.668 181.967 352.668 181.161 352.171 180.663C351.674 180.166 350.868 180.166 350.371 180.663L352.171 182.464ZM328.829 202.205C328.332 202.702 328.332 203.508 328.829 204.005C329.326 204.502 330.132 204.502 330.629 204.005L328.829 202.205ZM352.936 202.126C352.936 202.829 353.505 203.399 354.208 203.399C354.912 203.399 355.481 202.829 355.481 202.126L352.936 202.126ZM355.481 182.543C355.481 181.84 354.912 181.27 354.208 181.27C353.505 181.27 352.936 181.84 352.936 182.543L355.481 182.543ZM325.519 202.126C325.519 202.829 326.089 203.399 326.792 203.399C327.495 203.399 328.065 202.829 328.065 202.126L325.519 202.126ZM328.065 182.543C328.065 181.84 327.495 181.27 326.792 181.27C326.089 181.27 325.519 181.84 325.519 182.543L328.065 182.543ZM350.371 180.663L328.829 202.205L330.629 204.005L352.171 182.464L350.371 180.663ZM355.481 202.126L355.481 182.543L352.936 182.543L352.936 202.126L355.481 202.126ZM328.065 202.126L328.065 182.543L325.519 182.543L325.519 202.126L328.065 202.126Z" fill="white"/>
<defs>
<filter id="filter0_bd_6869_7301" x="238.602" y="87.6027" width="203.444" height="208.614" filterUnits="userSpaceOnUse" color-interpolation-filters="sRGB">
<feFlood flood-opacity="0" result="BackgroundImageFix"/>
<feGaussianBlur in="BackgroundImageFix" stdDeviation="28.5218"/>
<feComposite in2="SourceAlpha" operator="in" result="effect1_backgroundBlur_6869_7301"/>
<feColorMatrix in="SourceAlpha" type="matrix" values="0 0 0 0 0 0 0 0 0 0 0 0 0 0 0 0 0 0 127 0" result="hardAlpha"/>
<feOffset dy="8.66484"/>
<feGaussianBlur stdDeviation="6.85967"/>
<feComposite in2="hardAlpha" operator="out"/>
<feColorMatrix type="matrix" values="0 0 0 0 0.0867708 0 0 0 0 0.115317 0 0 0 0 0.141667 0 0 0 0.08 0"/>
<feBlend mode="normal" in2="effect1_backgroundBlur_6869_7301" result="effect2_dropShadow_6869_7301"/>
<feBlend mode="normal" in="SourceGraphic" in2="effect2_dropShadow_6869_7301" result="shape"/>
</filter>
</defs>
</svg>
