<svg width="681" height="432" viewBox="0 0 681 432" fill="none" xmlns="http://www.w3.org/2000/svg">
<path d="M239 217L234 214.113V219.887L239 217ZM230.038 216.5H224.062V217.5H230.038V216.5ZM218.087 216.5H212.112V217.5H218.087V216.5ZM206.138 216.5H200.163V217.5H206.138V216.5ZM194.188 216.5H188.213V217.5H194.188V216.5ZM182.238 216.5H176.263V217.5H182.238V216.5ZM170.288 216.5H164.313V217.5H170.288V216.5ZM158.338 216.5H152.363V217.5H158.338V216.5ZM146.388 216.5H140.413V217.5H146.388V216.5ZM134.438 216.5H128.463V217.5H134.438V216.5ZM122.488 216.5H116.513V217.5H122.488V216.5ZM110.538 216.5H104.563V217.5H110.538V216.5ZM98.5875 216.5H92.6125V217.5H98.5875V216.5ZM86.6375 216.5H80.6625V217.5H86.6375V216.5ZM74.6875 216.5H68.7125V217.5H74.6875V216.5ZM62.7375 216.5H56.7625V217.5H62.7375V216.5ZM50.7875 216.5H44.8125V217.5H50.7875V216.5ZM38.8374 216.5H32.8624V217.5H38.8374V216.5ZM26.8874 216.5H20.9124V217.5H26.8874V216.5ZM14.9374 216.5H8.96242V217.5H14.9374V216.5ZM2.98741 216.5H0V217.5H2.98741V216.5Z" fill="#034737"/>
<path d="M225 139L227.518 144.196L230.758 139.418L225 139ZM231.907 144.289L236.699 147.539L237.26 146.711L232.468 143.461L231.907 144.289ZM241.49 150.789L246.282 154.039L246.843 153.211L242.051 149.961L241.49 150.789ZM251.074 157.289L255.865 160.539L256.426 159.711L251.635 156.461L251.074 157.289ZM260.657 163.789L265.449 167.039L266.01 166.211L261.218 162.961L260.657 163.789ZM270.24 170.289L275.032 173.539L275.593 172.711L270.801 169.461L270.24 170.289ZM279.824 176.789L284.615 180.039L285.177 179.211L280.385 175.961L279.824 176.789ZM289.407 183.289L294.199 186.539L294.76 185.711L289.968 182.461L289.407 183.289ZM298.99 189.789L303.782 193.039L304.343 192.211L299.552 188.961L298.99 189.789ZM308.574 196.289L313.365 199.539L313.927 198.711L309.135 195.461L308.574 196.289ZM318.157 202.789L322.949 206.039L323.51 205.211L318.718 201.961L318.157 202.789ZM327.74 209.289L332.532 212.539L333.093 211.711L328.302 208.461L327.74 209.289ZM337.324 215.789L339.719 217.414L340.281 216.586L337.885 214.961L337.324 215.789Z" fill="#034737"/>
<path d="M455.41 139L449.652 139.418L452.893 144.196L455.41 139ZM340.281 217.699L342.685 216.068L342.124 215.241L339.719 216.872L340.281 217.699ZM347.494 212.807L352.303 209.545L351.741 208.717L346.932 211.979L347.494 212.807ZM357.111 206.283L361.92 203.021L361.359 202.193L356.55 205.455L357.111 206.283ZM366.729 199.759L371.538 196.497L370.976 195.67L366.167 198.931L366.729 199.759ZM376.346 193.235L381.155 189.973L380.594 189.146L375.785 192.408L376.346 193.235ZM385.964 186.711L390.773 183.45L390.211 182.622L385.403 185.884L385.964 186.711ZM395.581 180.188L400.39 176.926L399.829 176.098L395.02 179.36L395.581 180.188ZM405.199 173.664L410.008 170.402L409.446 169.574L404.638 172.836L405.199 173.664ZM414.816 167.14L419.625 163.878L419.064 163.051L414.255 166.312L414.816 167.14ZM424.434 160.616L429.243 157.354L428.681 156.527L423.873 159.789L424.434 160.616ZM434.051 154.092L438.86 150.831L438.299 150.003L433.49 153.265L434.051 154.092ZM443.669 147.569L448.478 144.307L447.916 143.479L443.108 146.741L443.669 147.569Z" fill="#034737"/>
<path d="M460.369 405.848L458.423 403.902C457.947 404.033 457.461 404.098 456.967 404.098C456.061 404.098 455.235 403.888 454.489 403.468C453.742 403.039 453.149 402.446 452.711 401.69C452.281 400.925 452.067 400.066 452.067 399.114C452.067 398.162 452.281 397.308 452.711 396.552C453.149 395.787 453.742 395.194 454.489 394.774C455.235 394.345 456.061 394.13 456.967 394.13C457.881 394.13 458.712 394.345 459.459 394.774C460.205 395.194 460.793 395.782 461.223 396.538C461.652 397.294 461.867 398.153 461.867 399.114C461.867 400.047 461.661 400.887 461.251 401.634C460.84 402.381 460.275 402.969 459.557 403.398L462.021 405.848H460.369ZM453.369 399.114C453.369 399.889 453.523 400.57 453.831 401.158C454.148 401.746 454.577 402.199 455.119 402.516C455.669 402.833 456.285 402.992 456.967 402.992C457.648 402.992 458.259 402.833 458.801 402.516C459.351 402.199 459.781 401.746 460.089 401.158C460.406 400.57 460.565 399.889 460.565 399.114C460.565 398.33 460.406 397.649 460.089 397.07C459.781 396.482 459.356 396.029 458.815 395.712C458.273 395.395 457.657 395.236 456.967 395.236C456.276 395.236 455.66 395.395 455.119 395.712C454.577 396.029 454.148 396.482 453.831 397.07C453.523 397.649 453.369 398.33 453.369 399.114ZM470.422 396.328V404H469.148V402.866C468.905 403.258 468.565 403.566 468.126 403.79C467.697 404.005 467.221 404.112 466.698 404.112C466.101 404.112 465.564 403.991 465.088 403.748C464.612 403.496 464.234 403.123 463.954 402.628C463.683 402.133 463.548 401.531 463.548 400.822V396.328H464.808V400.654C464.808 401.41 464.999 401.993 465.382 402.404C465.765 402.805 466.287 403.006 466.95 403.006C467.631 403.006 468.168 402.796 468.56 402.376C468.952 401.956 469.148 401.345 469.148 400.542V396.328H470.422ZM473.273 395.082C473.03 395.082 472.825 394.998 472.657 394.83C472.489 394.662 472.405 394.457 472.405 394.214C472.405 393.971 472.489 393.766 472.657 393.598C472.825 393.43 473.03 393.346 473.273 393.346C473.506 393.346 473.702 393.43 473.861 393.598C474.029 393.766 474.113 393.971 474.113 394.214C474.113 394.457 474.029 394.662 473.861 394.83C473.702 394.998 473.506 395.082 473.273 395.082ZM473.889 396.328V404H472.615V396.328H473.889ZM475.626 400.15C475.626 399.357 475.785 398.666 476.102 398.078C476.42 397.481 476.858 397.019 477.418 396.692C477.988 396.365 478.636 396.202 479.364 396.202C480.307 396.202 481.082 396.431 481.688 396.888C482.304 397.345 482.71 397.98 482.906 398.792H481.534C481.404 398.325 481.147 397.957 480.764 397.686C480.391 397.415 479.924 397.28 479.364 397.28C478.636 397.28 478.048 397.532 477.6 398.036C477.152 398.531 476.928 399.235 476.928 400.15C476.928 401.074 477.152 401.788 477.6 402.292C478.048 402.796 478.636 403.048 479.364 403.048C479.924 403.048 480.391 402.917 480.764 402.656C481.138 402.395 481.394 402.021 481.534 401.536H482.906C482.701 402.32 482.29 402.95 481.674 403.426C481.058 403.893 480.288 404.126 479.364 404.126C478.636 404.126 477.988 403.963 477.418 403.636C476.858 403.309 476.42 402.847 476.102 402.25C475.785 401.653 475.626 400.953 475.626 400.15ZM488.932 404L485.922 400.612V404H484.648V393.64H485.922V399.73L488.876 396.328H490.654L487.042 400.15L490.668 404H488.932ZM496.944 397.742C497.196 397.303 497.569 396.939 498.064 396.65C498.568 396.351 499.151 396.202 499.814 396.202C500.495 396.202 501.111 396.365 501.662 396.692C502.222 397.019 502.66 397.481 502.978 398.078C503.295 398.666 503.454 399.352 503.454 400.136C503.454 400.911 503.295 401.601 502.978 402.208C502.66 402.815 502.222 403.286 501.662 403.622C501.111 403.958 500.495 404.126 499.814 404.126C499.16 404.126 498.582 403.981 498.078 403.692C497.583 403.393 497.205 403.025 496.944 402.586V407.64H495.67V396.328H496.944V397.742ZM502.152 400.136C502.152 399.557 502.035 399.053 501.802 398.624C501.568 398.195 501.251 397.868 500.85 397.644C500.458 397.42 500.024 397.308 499.548 397.308C499.081 397.308 498.647 397.425 498.246 397.658C497.854 397.882 497.536 398.213 497.294 398.652C497.06 399.081 496.944 399.581 496.944 400.15C496.944 400.729 497.06 401.237 497.294 401.676C497.536 402.105 497.854 402.437 498.246 402.67C498.647 402.894 499.081 403.006 499.548 403.006C500.024 403.006 500.458 402.894 500.85 402.67C501.251 402.437 501.568 402.105 501.802 401.676C502.035 401.237 502.152 400.724 502.152 400.136ZM508.519 404.126C507.8 404.126 507.147 403.963 506.559 403.636C505.98 403.309 505.523 402.847 505.187 402.25C504.86 401.643 504.697 400.943 504.697 400.15C504.697 399.366 504.865 398.675 505.201 398.078C505.546 397.471 506.013 397.009 506.601 396.692C507.189 396.365 507.847 396.202 508.575 396.202C509.303 396.202 509.961 396.365 510.549 396.692C511.137 397.009 511.599 397.467 511.935 398.064C512.28 398.661 512.453 399.357 512.453 400.15C512.453 400.943 512.275 401.643 511.921 402.25C511.575 402.847 511.104 403.309 510.507 403.636C509.909 403.963 509.247 404.126 508.519 404.126ZM508.519 403.006C508.976 403.006 509.405 402.899 509.807 402.684C510.208 402.469 510.53 402.147 510.773 401.718C511.025 401.289 511.151 400.766 511.151 400.15C511.151 399.534 511.029 399.011 510.787 398.582C510.544 398.153 510.227 397.835 509.835 397.63C509.443 397.415 509.018 397.308 508.561 397.308C508.094 397.308 507.665 397.415 507.273 397.63C506.89 397.835 506.582 398.153 506.349 398.582C506.115 399.011 505.999 399.534 505.999 400.15C505.999 400.775 506.111 401.303 506.335 401.732C506.568 402.161 506.876 402.483 507.259 402.698C507.641 402.903 508.061 403.006 508.519 403.006ZM516.886 404.126C516.298 404.126 515.77 404.028 515.304 403.832C514.837 403.627 514.468 403.347 514.198 402.992C513.927 402.628 513.778 402.213 513.75 401.746H515.066C515.103 402.129 515.28 402.441 515.598 402.684C515.924 402.927 516.349 403.048 516.872 403.048C517.357 403.048 517.74 402.941 518.02 402.726C518.3 402.511 518.44 402.241 518.44 401.914C518.44 401.578 518.29 401.331 517.992 401.172C517.693 401.004 517.231 400.841 516.606 400.682C516.036 400.533 515.57 400.383 515.206 400.234C514.851 400.075 514.543 399.847 514.282 399.548C514.03 399.24 513.904 398.839 513.904 398.344C513.904 397.952 514.02 397.593 514.254 397.266C514.487 396.939 514.818 396.683 515.248 396.496C515.677 396.3 516.167 396.202 516.718 396.202C517.567 396.202 518.253 396.417 518.776 396.846C519.298 397.275 519.578 397.863 519.616 398.61H518.342C518.314 398.209 518.15 397.887 517.852 397.644C517.562 397.401 517.17 397.28 516.676 397.28C516.218 397.28 515.854 397.378 515.584 397.574C515.313 397.77 515.178 398.027 515.178 398.344C515.178 398.596 515.257 398.806 515.416 398.974C515.584 399.133 515.789 399.263 516.032 399.366C516.284 399.459 516.629 399.567 517.068 399.688C517.618 399.837 518.066 399.987 518.412 400.136C518.757 400.276 519.051 400.491 519.294 400.78C519.546 401.069 519.676 401.447 519.686 401.914C519.686 402.334 519.569 402.712 519.336 403.048C519.102 403.384 518.771 403.65 518.342 403.846C517.922 404.033 517.436 404.126 516.886 404.126ZM523.08 397.378V401.9C523.08 402.273 523.16 402.539 523.318 402.698C523.477 402.847 523.752 402.922 524.144 402.922H525.082V404H523.934C523.225 404 522.693 403.837 522.338 403.51C521.984 403.183 521.806 402.647 521.806 401.9V397.378H520.812V396.328H521.806V394.396H523.08V396.328H525.082V397.378H523.08ZM527.326 395.082C527.083 395.082 526.878 394.998 526.71 394.83C526.542 394.662 526.458 394.457 526.458 394.214C526.458 393.971 526.542 393.766 526.71 393.598C526.878 393.43 527.083 393.346 527.326 393.346C527.559 393.346 527.755 393.43 527.914 393.598C528.082 393.766 528.166 393.971 528.166 394.214C528.166 394.457 528.082 394.662 527.914 394.83C527.755 394.998 527.559 395.082 527.326 395.082ZM527.942 396.328V404H526.668V396.328H527.942ZM533.893 396.188C534.827 396.188 535.583 396.473 536.161 397.042C536.74 397.602 537.029 398.414 537.029 399.478V404H535.769V399.66C535.769 398.895 535.578 398.311 535.195 397.91C534.813 397.499 534.29 397.294 533.627 397.294C532.955 397.294 532.419 397.504 532.017 397.924C531.625 398.344 531.429 398.955 531.429 399.758V404H530.155V396.328H531.429V397.42C531.681 397.028 532.022 396.725 532.451 396.51C532.89 396.295 533.371 396.188 533.893 396.188ZM542.316 396.202C542.979 396.202 543.558 396.347 544.052 396.636C544.556 396.925 544.93 397.289 545.172 397.728V396.328H546.46V404.168C546.46 404.868 546.311 405.489 546.012 406.03C545.714 406.581 545.284 407.01 544.724 407.318C544.174 407.626 543.53 407.78 542.792 407.78C541.784 407.78 540.944 407.542 540.272 407.066C539.6 406.59 539.204 405.941 539.082 405.12H540.342C540.482 405.587 540.772 405.96 541.21 406.24C541.649 406.529 542.176 406.674 542.792 406.674C543.492 406.674 544.062 406.455 544.5 406.016C544.948 405.577 545.172 404.961 545.172 404.168V402.558C544.92 403.006 544.547 403.379 544.052 403.678C543.558 403.977 542.979 404.126 542.316 404.126C541.635 404.126 541.014 403.958 540.454 403.622C539.904 403.286 539.47 402.815 539.152 402.208C538.835 401.601 538.676 400.911 538.676 400.136C538.676 399.352 538.835 398.666 539.152 398.078C539.47 397.481 539.904 397.019 540.454 396.692C541.014 396.365 541.635 396.202 542.316 396.202ZM545.172 400.15C545.172 399.571 545.056 399.067 544.822 398.638C544.589 398.209 544.272 397.882 543.87 397.658C543.478 397.425 543.044 397.308 542.568 397.308C542.092 397.308 541.658 397.42 541.266 397.644C540.874 397.868 540.562 398.195 540.328 398.624C540.095 399.053 539.978 399.557 539.978 400.136C539.978 400.724 540.095 401.237 540.328 401.676C540.562 402.105 540.874 402.437 541.266 402.67C541.658 402.894 542.092 403.006 542.568 403.006C543.044 403.006 543.478 402.894 543.87 402.67C544.272 402.437 544.589 402.105 544.822 401.676C545.056 401.237 545.172 400.729 545.172 400.15Z" fill="#666666"/>
<path d="M144.442 404.098C143.798 404.098 143.22 403.986 142.706 403.762C142.202 403.529 141.806 403.211 141.516 402.81C141.227 402.399 141.078 401.928 141.068 401.396H142.426C142.473 401.853 142.66 402.241 142.986 402.558C143.322 402.866 143.808 403.02 144.442 403.02C145.049 403.02 145.525 402.871 145.87 402.572C146.225 402.264 146.402 401.872 146.402 401.396C146.402 401.023 146.3 400.719 146.094 400.486C145.889 400.253 145.632 400.075 145.324 399.954C145.016 399.833 144.601 399.702 144.078 399.562C143.434 399.394 142.916 399.226 142.524 399.058C142.142 398.89 141.81 398.629 141.53 398.274C141.26 397.91 141.124 397.425 141.124 396.818C141.124 396.286 141.26 395.815 141.53 395.404C141.801 394.993 142.179 394.676 142.664 394.452C143.159 394.228 143.724 394.116 144.358 394.116C145.273 394.116 146.02 394.345 146.598 394.802C147.186 395.259 147.518 395.866 147.592 396.622H146.192C146.146 396.249 145.95 395.922 145.604 395.642C145.259 395.353 144.802 395.208 144.232 395.208C143.7 395.208 143.266 395.348 142.93 395.628C142.594 395.899 142.426 396.281 142.426 396.776C142.426 397.131 142.524 397.42 142.72 397.644C142.926 397.868 143.173 398.041 143.462 398.162C143.761 398.274 144.176 398.405 144.708 398.554C145.352 398.731 145.87 398.909 146.262 399.086C146.654 399.254 146.99 399.52 147.27 399.884C147.55 400.239 147.69 400.724 147.69 401.34C147.69 401.816 147.564 402.264 147.312 402.684C147.06 403.104 146.687 403.445 146.192 403.706C145.698 403.967 145.114 404.098 144.442 404.098ZM149.131 400.15C149.131 399.357 149.29 398.666 149.607 398.078C149.925 397.481 150.363 397.019 150.923 396.692C151.493 396.365 152.141 396.202 152.869 396.202C153.812 396.202 154.587 396.431 155.193 396.888C155.809 397.345 156.215 397.98 156.411 398.792H155.039C154.909 398.325 154.652 397.957 154.269 397.686C153.896 397.415 153.429 397.28 152.869 397.28C152.141 397.28 151.553 397.532 151.105 398.036C150.657 398.531 150.433 399.235 150.433 400.15C150.433 401.074 150.657 401.788 151.105 402.292C151.553 402.796 152.141 403.048 152.869 403.048C153.429 403.048 153.896 402.917 154.269 402.656C154.643 402.395 154.899 402.021 155.039 401.536H156.411C156.206 402.32 155.795 402.95 155.179 403.426C154.563 403.893 153.793 404.126 152.869 404.126C152.141 404.126 151.493 403.963 150.923 403.636C150.363 403.309 149.925 402.847 149.607 402.25C149.29 401.653 149.131 400.953 149.131 400.15ZM161.961 396.188C162.54 396.188 163.063 396.314 163.529 396.566C163.996 396.809 164.36 397.177 164.621 397.672C164.892 398.167 165.027 398.769 165.027 399.478V404H163.767V399.66C163.767 398.895 163.576 398.311 163.193 397.91C162.811 397.499 162.288 397.294 161.625 397.294C160.953 397.294 160.417 397.504 160.015 397.924C159.623 398.344 159.427 398.955 159.427 399.758V404H158.153V393.64H159.427V397.42C159.679 397.028 160.025 396.725 160.463 396.51C160.911 396.295 161.411 396.188 161.961 396.188ZM174.15 399.87C174.15 400.113 174.136 400.369 174.108 400.64H167.976C168.023 401.396 168.28 401.989 168.746 402.418C169.222 402.838 169.796 403.048 170.468 403.048C171.019 403.048 171.476 402.922 171.84 402.67C172.214 402.409 172.475 402.063 172.624 401.634H173.996C173.791 402.371 173.38 402.973 172.764 403.44C172.148 403.897 171.383 404.126 170.468 404.126C169.74 404.126 169.087 403.963 168.508 403.636C167.939 403.309 167.491 402.847 167.164 402.25C166.838 401.643 166.674 400.943 166.674 400.15C166.674 399.357 166.833 398.661 167.15 398.064C167.468 397.467 167.911 397.009 168.48 396.692C169.059 396.365 169.722 396.202 170.468 396.202C171.196 396.202 171.84 396.361 172.4 396.678C172.96 396.995 173.39 397.434 173.688 397.994C173.996 398.545 174.15 399.17 174.15 399.87ZM172.834 399.604C172.834 399.119 172.727 398.703 172.512 398.358C172.298 398.003 172.004 397.737 171.63 397.56C171.266 397.373 170.86 397.28 170.412 397.28C169.768 397.28 169.218 397.485 168.76 397.896C168.312 398.307 168.056 398.876 167.99 399.604H172.834ZM175.398 400.136C175.398 399.352 175.557 398.666 175.874 398.078C176.191 397.481 176.625 397.019 177.176 396.692C177.736 396.365 178.361 396.202 179.052 396.202C179.649 396.202 180.205 396.342 180.718 396.622C181.231 396.893 181.623 397.252 181.894 397.7V393.64H183.182V404H181.894V402.558C181.642 403.015 181.269 403.393 180.774 403.692C180.279 403.981 179.701 404.126 179.038 404.126C178.357 404.126 177.736 403.958 177.176 403.622C176.625 403.286 176.191 402.815 175.874 402.208C175.557 401.601 175.398 400.911 175.398 400.136ZM181.894 400.15C181.894 399.571 181.777 399.067 181.544 398.638C181.311 398.209 180.993 397.882 180.592 397.658C180.2 397.425 179.766 397.308 179.29 397.308C178.814 397.308 178.38 397.42 177.988 397.644C177.596 397.868 177.283 398.195 177.05 398.624C176.817 399.053 176.7 399.557 176.7 400.136C176.7 400.724 176.817 401.237 177.05 401.676C177.283 402.105 177.596 402.437 177.988 402.67C178.38 402.894 178.814 403.006 179.29 403.006C179.766 403.006 180.2 402.894 180.592 402.67C180.993 402.437 181.311 402.105 181.544 401.676C181.777 401.237 181.894 400.729 181.894 400.15ZM192.181 396.328V404H190.907V402.866C190.664 403.258 190.324 403.566 189.885 403.79C189.456 404.005 188.98 404.112 188.457 404.112C187.86 404.112 187.323 403.991 186.847 403.748C186.371 403.496 185.993 403.123 185.713 402.628C185.442 402.133 185.307 401.531 185.307 400.822V396.328H186.567V400.654C186.567 401.41 186.758 401.993 187.141 402.404C187.524 402.805 188.046 403.006 188.709 403.006C189.39 403.006 189.927 402.796 190.319 402.376C190.711 401.956 190.907 401.345 190.907 400.542V396.328H192.181ZM195.648 393.64V404H194.374V393.64H195.648ZM204.861 399.87C204.861 400.113 204.847 400.369 204.819 400.64H198.687C198.734 401.396 198.991 401.989 199.457 402.418C199.933 402.838 200.507 403.048 201.179 403.048C201.73 403.048 202.187 402.922 202.551 402.67C202.925 402.409 203.186 402.063 203.335 401.634H204.707C204.502 402.371 204.091 402.973 203.475 403.44C202.859 403.897 202.094 404.126 201.179 404.126C200.451 404.126 199.798 403.963 199.219 403.636C198.65 403.309 198.202 402.847 197.875 402.25C197.549 401.643 197.385 400.943 197.385 400.15C197.385 399.357 197.544 398.661 197.861 398.064C198.179 397.467 198.622 397.009 199.191 396.692C199.77 396.365 200.433 396.202 201.179 396.202C201.907 396.202 202.551 396.361 203.111 396.678C203.671 396.995 204.101 397.434 204.399 397.994C204.707 398.545 204.861 399.17 204.861 399.87ZM203.545 399.604C203.545 399.119 203.438 398.703 203.223 398.358C203.009 398.003 202.715 397.737 202.341 397.56C201.977 397.373 201.571 397.28 201.123 397.28C200.479 397.28 199.929 397.485 199.471 397.896C199.023 398.307 198.767 398.876 198.701 399.604H203.545ZM207.859 397.574C208.083 397.135 208.4 396.795 208.811 396.552C209.231 396.309 209.74 396.188 210.337 396.188V397.504H210.001C208.573 397.504 207.859 398.279 207.859 399.828V404H206.585V396.328H207.859V397.574Z" fill="#666666"/>
<path d="M681 217L-1.09673e-05 217" stroke="#034737" stroke-dasharray="6 6"/>
<path d="M634 217L629 214.113V219.887L634 217ZM624.938 216.5H618.896V217.5H624.938V216.5ZM612.854 216.5H606.813V217.5H612.854V216.5ZM600.771 216.5H594.729V217.5H600.771V216.5ZM588.688 216.5H582.646V217.5H588.688V216.5ZM576.604 216.5H570.562V217.5H576.604V216.5ZM564.521 216.5H558.479V217.5H564.521V216.5ZM552.438 216.5H546.396V217.5H552.438V216.5ZM540.354 216.5H534.313V217.5H540.354V216.5ZM528.271 216.5H522.229V217.5H528.271V216.5ZM516.188 216.5H510.146V217.5H516.188V216.5ZM504.104 216.5H498.063V217.5H504.104V216.5ZM492.021 216.5H485.979V217.5H492.021V216.5ZM479.938 216.5H473.896V217.5H479.938V216.5ZM467.854 216.5H461.812V217.5H467.854V216.5ZM455.771 216.5H449.729V217.5H455.771V216.5ZM443.687 216.5H437.646V217.5H443.687V216.5ZM431.604 216.5H425.562V217.5H431.604V216.5ZM419.521 216.5H413.479V217.5H419.521V216.5ZM407.437 216.5H401.396V217.5H407.437V216.5ZM395.354 216.5H389.312V217.5H395.354V216.5ZM383.271 216.5H377.229V217.5H383.271V216.5ZM371.187 216.5H365.146V217.5H371.187V216.5ZM359.104 216.5H353.062V217.5H359.104V216.5ZM347.021 216.5H344V217.5H347.021V216.5Z" fill="#034737"/>
<path d="M225 139L227.518 144.196L230.758 139.418L225 139ZM231.907 144.289L236.699 147.539L237.26 146.711L232.468 143.461L231.907 144.289ZM241.49 150.789L246.282 154.039L246.843 153.211L242.051 149.961L241.49 150.789ZM251.074 157.289L255.865 160.539L256.426 159.711L251.635 156.461L251.074 157.289ZM260.657 163.789L265.449 167.039L266.01 166.211L261.218 162.961L260.657 163.789ZM270.24 170.289L275.032 173.539L275.593 172.711L270.801 169.461L270.24 170.289ZM279.824 176.789L284.615 180.039L285.177 179.211L280.385 175.961L279.824 176.789ZM289.407 183.289L294.199 186.539L294.76 185.711L289.968 182.461L289.407 183.289ZM298.99 189.789L303.782 193.039L304.343 192.211L299.552 188.961L298.99 189.789ZM308.574 196.289L313.365 199.539L313.927 198.711L309.135 195.461L308.574 196.289ZM318.157 202.789L322.949 206.039L323.51 205.211L318.718 201.961L318.157 202.789ZM327.74 209.289L332.532 212.539L333.093 211.711L328.302 208.461L327.74 209.289ZM337.324 215.789L339.719 217.414L340.281 216.586L337.885 214.961L337.324 215.789Z" fill="#034737"/>
<path d="M455.41 139L449.652 139.418L452.893 144.196L455.41 139ZM340.281 217.699L342.685 216.068L342.124 215.241L339.719 216.872L340.281 217.699ZM347.494 212.807L352.303 209.545L351.741 208.717L346.932 211.979L347.494 212.807ZM357.111 206.283L361.92 203.021L361.359 202.193L356.55 205.455L357.111 206.283ZM366.729 199.759L371.538 196.497L370.976 195.67L366.167 198.931L366.729 199.759ZM376.346 193.235L381.155 189.973L380.594 189.146L375.785 192.408L376.346 193.235ZM385.964 186.711L390.773 183.45L390.211 182.622L385.403 185.884L385.964 186.711ZM395.581 180.188L400.39 176.926L399.829 176.098L395.02 179.36L395.581 180.188ZM405.199 173.664L410.008 170.402L409.446 169.574L404.638 172.836L405.199 173.664ZM414.816 167.14L419.625 163.878L419.064 163.051L414.255 166.312L414.816 167.14ZM424.434 160.616L429.243 157.354L428.681 156.527L423.873 159.789L424.434 160.616ZM434.051 154.092L438.86 150.831L438.299 150.003L433.49 153.265L434.051 154.092ZM443.669 147.569L448.478 144.307L447.916 143.479L443.108 146.741L443.669 147.569Z" fill="#034737"/>
<path d="M225 293L227.523 287.894L230.838 292.621L225 293ZM232.554 287.447L237.781 284.018L238.355 284.837L233.128 288.266L232.554 287.447ZM243.008 280.589L248.236 277.16L248.81 277.979L243.583 281.408L243.008 280.589ZM253.463 273.731L258.69 270.302L259.264 271.121L254.037 274.55L253.463 273.731ZM263.917 266.873L269.145 263.444L269.719 264.263L264.492 267.692L263.917 266.873ZM274.372 260.015L279.599 256.586L280.173 257.405L274.946 260.834L274.372 260.015ZM284.827 253.157L290.054 249.728L290.628 250.547L285.401 253.976L284.827 253.157ZM295.281 246.299L300.508 242.87L301.083 243.689L295.855 247.118L295.281 246.299ZM305.736 239.441L310.963 236.012L311.537 236.831L306.31 240.26L305.736 239.441ZM316.19 232.583L321.417 229.154L321.992 229.973L316.764 233.402L316.19 232.583ZM326.645 225.725L331.872 222.296L332.446 223.115L327.219 226.544L326.645 225.725ZM337.099 218.867L339.713 217.153L340.287 217.971L337.673 219.686L337.099 218.867Z" fill="#034737"/>
<path d="M455.41 293L449.572 292.621L452.887 287.894L455.41 293ZM340.287 216.876L342.691 218.454L342.117 219.272L339.713 217.695L340.287 216.876ZM347.5 221.608L352.309 224.763L351.735 225.582L346.926 222.427L347.5 221.608ZM357.118 227.918L361.927 231.073L361.352 231.891L356.544 228.737L357.118 227.918ZM366.735 234.227L371.544 237.382L370.97 238.201L366.161 235.046L366.735 234.227ZM376.353 240.537L381.162 243.692L380.587 244.51L375.779 241.356L376.353 240.537ZM385.97 246.847L390.779 250.001L390.205 250.82L385.396 247.665L385.97 246.847ZM395.588 253.156L400.397 256.311L399.822 257.13L395.014 253.975L395.588 253.156ZM405.205 259.466L410.014 262.62L409.44 263.439L404.631 260.284L405.205 259.466ZM414.823 265.775L419.632 268.93L419.057 269.749L414.249 266.594L414.823 265.775ZM424.44 272.085L429.249 275.239L428.675 276.058L423.866 272.903L424.44 272.085ZM434.058 278.394L438.867 281.549L438.292 282.368L433.484 279.213L434.058 278.394ZM443.675 284.704L448.484 287.858L447.91 288.677L443.101 285.522L443.675 284.704Z" fill="#034737"/>
<rect x="130" y="293" width="90" height="90" rx="20" fill="#034737"/>
<path d="M174.573 356.75H160.417C158.115 356.75 156.25 354.885 156.25 352.583V327.583C156.25 325.282 158.115 323.417 160.417 323.417H185.417C187.718 323.417 189.583 325.282 189.583 327.583V335.917" stroke="white" stroke-width="2.70833" stroke-linecap="round" stroke-linejoin="round"/>
<path d="M187.5 342.167V350.5H195.833" stroke="white" stroke-width="2.70833" stroke-linecap="round" stroke-linejoin="round"/>
<circle cx="187.5" cy="350.5" r="8.33333" stroke="white" stroke-width="2.70833" stroke-linecap="round" stroke-linejoin="round"/>
<path d="M181.25 319.25V327.583" stroke="white" stroke-width="2.70833" stroke-linecap="round" stroke-linejoin="round"/>
<path d="M164.583 319.25V327.583" stroke="white" stroke-width="2.70833" stroke-linecap="round" stroke-linejoin="round"/>
<path d="M156.25 335.917H189.583" stroke="white" stroke-width="2.70833" stroke-linecap="round" stroke-linejoin="round"/>
<rect x="454" y="293" width="90" height="90" rx="20" fill="#034737"/>
<path d="M504.001 359.014C503.982 359.014 503.965 359.025 503.945 359.025H487.539C487.155 359.025 486.786 358.872 486.514 358.6C486.242 358.328 486.089 357.96 486.089 357.575C486.089 357.191 486.242 356.822 486.514 356.55C486.786 356.278 487.155 356.125 487.539 356.125H503.903L503.945 356.117C506.932 356.117 509.853 355.24 512.345 353.594C514.837 351.948 516.791 349.606 517.963 346.859C519.135 344.112 519.475 341.082 518.939 338.143C518.404 335.205 517.016 332.489 514.95 330.333C512.884 328.176 510.229 326.674 507.317 326.014C504.404 325.353 501.362 325.563 498.567 326.617C495.773 327.672 493.35 329.524 491.599 331.943C489.848 334.363 488.847 337.244 488.72 340.228C488.698 340.608 488.528 340.964 488.246 341.219C487.963 341.475 487.592 341.609 487.212 341.593C486.831 341.577 486.472 341.412 486.213 341.134C485.953 340.856 485.813 340.486 485.823 340.106C485.986 336.065 487.5 332.196 490.121 329.117L489.251 328.247C489.112 328.113 489.002 327.953 488.926 327.776C488.85 327.6 488.81 327.409 488.808 327.217C488.806 327.024 488.843 326.833 488.916 326.655C488.989 326.477 489.097 326.315 489.233 326.179C489.369 326.043 489.531 325.935 489.709 325.862C489.887 325.789 490.078 325.753 490.271 325.754C490.463 325.756 490.653 325.796 490.83 325.872C491.007 325.948 491.167 326.058 491.301 326.197L492.178 327.073C494.4 325.177 497.047 323.845 499.894 323.191C502.74 322.537 505.703 322.579 508.53 323.316C511.357 324.052 513.964 325.46 516.129 327.42C518.295 329.38 519.956 331.834 520.97 334.574C521.984 337.313 522.321 340.257 521.954 343.155C521.586 346.053 520.524 348.819 518.858 351.218C517.192 353.618 514.971 355.579 512.385 356.936C509.798 358.293 506.922 359.007 504.001 359.014ZM510.624 334.205C510.352 333.933 509.984 333.781 509.599 333.781C509.215 333.781 508.846 333.933 508.574 334.205L504.373 338.406C504.233 338.364 504.09 338.335 503.945 338.319C503.438 338.319 502.942 338.47 502.52 338.751C502.099 339.033 501.77 339.434 501.576 339.902C501.382 340.371 501.331 340.887 501.43 341.384C501.529 341.881 501.773 342.338 502.132 342.697C502.49 343.056 502.947 343.3 503.445 343.399C503.942 343.498 504.458 343.447 504.927 343.253C505.395 343.059 505.796 342.73 506.077 342.308C506.359 341.886 506.51 341.39 506.51 340.883C506.493 340.738 506.464 340.595 506.423 340.456L510.624 336.254C510.896 335.982 511.048 335.614 511.048 335.23C511.048 334.846 510.896 334.477 510.624 334.205ZM501.589 319.875H506.303C506.687 319.875 507.056 319.722 507.328 319.45C507.6 319.178 507.753 318.81 507.753 318.425C507.753 318.041 507.6 317.672 507.328 317.4C507.056 317.128 506.687 316.975 506.303 316.975H501.589C501.204 316.975 500.835 317.128 500.563 317.4C500.292 317.672 500.139 318.041 500.139 318.425C500.139 318.81 500.292 319.178 500.563 319.45C500.835 319.722 501.204 319.875 501.589 319.875ZM500.552 351.775C500.552 351.391 500.4 351.022 500.128 350.75C499.856 350.478 499.487 350.325 499.102 350.325H481.055C480.67 350.325 480.302 350.478 480.03 350.75C479.758 351.022 479.605 351.391 479.605 351.775C479.605 352.16 479.758 352.528 480.03 352.8C480.302 353.072 480.67 353.225 481.055 353.225H499.102C499.487 353.225 499.856 353.072 500.128 352.8C500.4 352.528 500.552 352.16 500.552 351.775ZM501.124 345.975C501.124 345.591 500.971 345.222 500.7 344.95C500.428 344.678 500.059 344.525 499.674 344.525H477.352C476.968 344.525 476.599 344.678 476.327 344.95C476.055 345.222 475.902 345.591 475.902 345.975C475.902 346.36 476.055 346.728 476.327 347C476.599 347.272 476.968 347.425 477.352 347.425H499.674C500.059 347.425 500.428 347.272 500.7 347C500.971 346.728 501.124 346.36 501.124 345.975Z" fill="white"/>
<rect x="458" y="51" width="90" height="90" rx="20" fill="#034737"/>
<path d="M523.314 109.155L518.893 113.576L518.893 106.945C518.893 98.3998 511.966 91.4725 503.421 91.4725C494.875 91.4725 487.948 98.3998 487.948 106.945L487.948 113.576L483.527 109.155" stroke="white" stroke-width="2.16667" stroke-linecap="round" stroke-linejoin="round"/>
<path d="M504.505 76C504.505 75.4017 504.02 74.9167 503.422 74.9167C502.823 74.9167 502.338 75.4017 502.338 76L504.505 76ZM503.422 115.787L502.338 115.787C502.338 116.225 502.602 116.62 503.007 116.787C503.412 116.955 503.878 116.862 504.188 116.553L503.422 115.787ZM508.608 112.132C509.031 111.709 509.031 111.023 508.608 110.6C508.185 110.177 507.499 110.177 507.076 110.6L508.608 112.132ZM499.766 110.6C499.343 110.177 498.657 110.177 498.234 110.6C497.811 111.023 497.811 111.709 498.234 112.132L499.766 110.6ZM502.655 116.553C503.078 116.976 503.764 116.976 504.187 116.553C504.61 116.13 504.61 115.444 504.187 115.021L502.655 116.553ZM502.338 76L502.338 115.787L504.505 115.787L504.505 76L502.338 76ZM504.188 116.553L508.608 112.132L507.076 110.6L502.656 115.021L504.188 116.553ZM498.234 112.132L502.655 116.553L504.187 115.021L499.766 110.6L498.234 112.132Z" fill="white"/>
<path d="M467.432 28.242L464.604 38H463.176L460.908 30.146L458.556 38L457.142 38.014L454.412 28.242H455.77L457.898 36.516L460.25 28.242H461.678L463.918 36.488L466.06 28.242H467.432ZM475.868 33.87C475.868 34.1127 475.854 34.3693 475.826 34.64H469.694C469.741 35.396 469.998 35.9887 470.464 36.418C470.94 36.838 471.514 37.048 472.186 37.048C472.737 37.048 473.194 36.922 473.558 36.67C473.932 36.4087 474.193 36.0633 474.342 35.634H475.714C475.509 36.3713 475.098 36.9733 474.482 37.44C473.866 37.8973 473.101 38.126 472.186 38.126C471.458 38.126 470.805 37.9627 470.226 37.636C469.657 37.3093 469.209 36.8473 468.882 36.25C468.556 35.6433 468.392 34.9433 468.392 34.15C468.392 33.3567 468.551 32.6613 468.868 32.064C469.186 31.4667 469.629 31.0093 470.198 30.692C470.777 30.3653 471.44 30.202 472.186 30.202C472.914 30.202 473.558 30.3607 474.118 30.678C474.678 30.9953 475.108 31.434 475.406 31.994C475.714 32.5447 475.868 33.17 475.868 33.87ZM474.552 33.604C474.552 33.1187 474.445 32.7033 474.23 32.358C474.016 32.0033 473.722 31.7373 473.348 31.56C472.984 31.3733 472.578 31.28 472.13 31.28C471.486 31.28 470.936 31.4853 470.478 31.896C470.03 32.3067 469.774 32.876 469.708 33.604H474.552ZM478.866 31.756C479.127 31.2987 479.51 30.9253 480.014 30.636C480.518 30.3467 481.092 30.202 481.736 30.202C482.427 30.202 483.047 30.3653 483.598 30.692C484.149 31.0187 484.583 31.4807 484.9 32.078C485.217 32.666 485.376 33.352 485.376 34.136C485.376 34.9107 485.217 35.6013 484.9 36.208C484.583 36.8147 484.144 37.286 483.584 37.622C483.033 37.958 482.417 38.126 481.736 38.126C481.073 38.126 480.49 37.9813 479.986 37.692C479.491 37.4027 479.118 37.034 478.866 36.586V38H477.592V27.64H478.866V31.756ZM484.074 34.136C484.074 33.5573 483.957 33.0533 483.724 32.624C483.491 32.1947 483.173 31.868 482.772 31.644C482.38 31.42 481.946 31.308 481.47 31.308C481.003 31.308 480.569 31.4247 480.168 31.658C479.776 31.882 479.459 32.2133 479.216 32.652C478.983 33.0813 478.866 33.5807 478.866 34.15C478.866 34.7287 478.983 35.2373 479.216 35.676C479.459 36.1053 479.776 36.4367 480.168 36.67C480.569 36.894 481.003 37.006 481.47 37.006C481.946 37.006 482.38 36.894 482.772 36.67C483.173 36.4367 483.491 36.1053 483.724 35.676C483.957 35.2373 484.074 34.724 484.074 34.136ZM493.585 38.126C492.997 38.126 492.47 38.028 492.003 37.832C491.537 37.6267 491.168 37.3467 490.897 36.992C490.627 36.628 490.477 36.2127 490.449 35.746H491.765C491.803 36.1287 491.98 36.4413 492.297 36.684C492.624 36.9267 493.049 37.048 493.571 37.048C494.057 37.048 494.439 36.9407 494.719 36.726C494.999 36.5113 495.139 36.2407 495.139 35.914C495.139 35.578 494.99 35.3307 494.691 35.172C494.393 35.004 493.931 34.8407 493.305 34.682C492.736 34.5327 492.269 34.3833 491.905 34.234C491.551 34.0753 491.243 33.8467 490.981 33.548C490.729 33.24 490.603 32.8387 490.603 32.344C490.603 31.952 490.72 31.5927 490.953 31.266C491.187 30.9393 491.518 30.6827 491.947 30.496C492.377 30.3 492.867 30.202 493.417 30.202C494.267 30.202 494.953 30.4167 495.475 30.846C495.998 31.2753 496.278 31.8633 496.315 32.61H495.041C495.013 32.2087 494.85 31.8867 494.551 31.644C494.262 31.4013 493.87 31.28 493.375 31.28C492.918 31.28 492.554 31.378 492.283 31.574C492.013 31.77 491.877 32.0267 491.877 32.344C491.877 32.596 491.957 32.806 492.115 32.974C492.283 33.1327 492.489 33.2633 492.731 33.366C492.983 33.4593 493.329 33.5667 493.767 33.688C494.318 33.8373 494.766 33.9867 495.111 34.136C495.457 34.276 495.751 34.4907 495.993 34.78C496.245 35.0693 496.376 35.4473 496.385 35.914C496.385 36.334 496.269 36.712 496.035 37.048C495.802 37.384 495.471 37.65 495.041 37.846C494.621 38.0327 494.136 38.126 493.585 38.126ZM497.75 34.15C497.75 33.3567 497.909 32.666 498.226 32.078C498.543 31.4807 498.982 31.0187 499.542 30.692C500.111 30.3653 500.76 30.202 501.488 30.202C502.431 30.202 503.205 30.4307 503.812 30.888C504.428 31.3453 504.834 31.98 505.03 32.792H503.658C503.527 32.3253 503.271 31.9567 502.888 31.686C502.515 31.4153 502.048 31.28 501.488 31.28C500.76 31.28 500.172 31.532 499.724 32.036C499.276 32.5307 499.052 33.2353 499.052 34.15C499.052 35.074 499.276 35.788 499.724 36.292C500.172 36.796 500.76 37.048 501.488 37.048C502.048 37.048 502.515 36.9173 502.888 36.656C503.261 36.3947 503.518 36.0213 503.658 35.536H505.03C504.825 36.32 504.414 36.95 503.798 37.426C503.182 37.8927 502.412 38.126 501.488 38.126C500.76 38.126 500.111 37.9627 499.542 37.636C498.982 37.3093 498.543 36.8473 498.226 36.25C497.909 35.6527 497.75 34.9527 497.75 34.15ZM508.046 31.574C508.27 31.1353 508.587 30.7947 508.998 30.552C509.418 30.3093 509.927 30.188 510.524 30.188V31.504H510.188C508.76 31.504 508.046 32.2787 508.046 33.828V38H506.772V30.328H508.046V31.574ZM511.561 34.136C511.561 33.352 511.719 32.666 512.037 32.078C512.354 31.4807 512.788 31.0187 513.339 30.692C513.899 30.3653 514.519 30.202 515.201 30.202C515.873 30.202 516.456 30.3467 516.951 30.636C517.445 30.9253 517.814 31.2893 518.057 31.728V30.328H519.345V38H518.057V36.572C517.805 37.02 517.427 37.3933 516.923 37.692C516.428 37.9813 515.849 38.126 515.187 38.126C514.505 38.126 513.889 37.958 513.339 37.622C512.788 37.286 512.354 36.8147 512.037 36.208C511.719 35.6013 511.561 34.9107 511.561 34.136ZM518.057 34.15C518.057 33.5713 517.94 33.0673 517.707 32.638C517.473 32.2087 517.156 31.882 516.755 31.658C516.363 31.4247 515.929 31.308 515.453 31.308C514.977 31.308 514.543 31.42 514.151 31.644C513.759 31.868 513.446 32.1947 513.213 32.624C512.979 33.0533 512.863 33.5573 512.863 34.136C512.863 34.724 512.979 35.2373 513.213 35.676C513.446 36.1053 513.759 36.4367 514.151 36.67C514.543 36.894 514.977 37.006 515.453 37.006C515.929 37.006 516.363 36.894 516.755 36.67C517.156 36.4367 517.473 36.1053 517.707 35.676C517.94 35.2373 518.057 34.7287 518.057 34.15ZM522.813 31.742C523.065 31.3033 523.439 30.9393 523.933 30.65C524.437 30.3513 525.021 30.202 525.683 30.202C526.365 30.202 526.981 30.3653 527.531 30.692C528.091 31.0187 528.53 31.4807 528.847 32.078C529.165 32.666 529.323 33.352 529.323 34.136C529.323 34.9107 529.165 35.6013 528.847 36.208C528.53 36.8147 528.091 37.286 527.531 37.622C526.981 37.958 526.365 38.126 525.683 38.126C525.03 38.126 524.451 37.9813 523.947 37.692C523.453 37.3933 523.075 37.0247 522.813 36.586V41.64H521.539V30.328H522.813V31.742ZM528.021 34.136C528.021 33.5573 527.905 33.0533 527.671 32.624C527.438 32.1947 527.121 31.868 526.719 31.644C526.327 31.42 525.893 31.308 525.417 31.308C524.951 31.308 524.517 31.4247 524.115 31.658C523.723 31.882 523.406 32.2133 523.163 32.652C522.93 33.0813 522.813 33.5807 522.813 34.15C522.813 34.7287 522.93 35.2373 523.163 35.676C523.406 36.1053 523.723 36.4367 524.115 36.67C524.517 36.894 524.951 37.006 525.417 37.006C525.893 37.006 526.327 36.894 526.719 36.67C527.121 36.4367 527.438 36.1053 527.671 35.676C527.905 35.2373 528.021 34.724 528.021 34.136ZM531.7 29.082C531.458 29.082 531.252 28.998 531.084 28.83C530.916 28.662 530.832 28.4567 530.832 28.214C530.832 27.9713 530.916 27.766 531.084 27.598C531.252 27.43 531.458 27.346 531.7 27.346C531.934 27.346 532.13 27.43 532.288 27.598C532.456 27.766 532.54 27.9713 532.54 28.214C532.54 28.4567 532.456 28.662 532.288 28.83C532.13 28.998 531.934 29.082 531.7 29.082ZM532.316 30.328V38H531.042V30.328H532.316ZM538.268 30.188C539.201 30.188 539.957 30.4727 540.536 31.042C541.114 31.602 541.404 32.414 541.404 33.478V38H540.144V33.66C540.144 32.8947 539.952 32.3113 539.57 31.91C539.187 31.4993 538.664 31.294 538.002 31.294C537.33 31.294 536.793 31.504 536.392 31.924C536 32.344 535.804 32.9553 535.804 33.758V38H534.53V30.328H535.804V31.42C536.056 31.028 536.396 30.7247 536.826 30.51C537.264 30.2953 537.745 30.188 538.268 30.188ZM546.691 30.202C547.353 30.202 547.932 30.3467 548.427 30.636C548.931 30.9253 549.304 31.2893 549.547 31.728V30.328H550.835V38.168C550.835 38.868 550.685 39.4887 550.387 40.03C550.088 40.5807 549.659 41.01 549.099 41.318C548.548 41.626 547.904 41.78 547.167 41.78C546.159 41.78 545.319 41.542 544.647 41.066C543.975 40.59 543.578 39.9413 543.457 39.12H544.717C544.857 39.5867 545.146 39.96 545.585 40.24C546.023 40.5293 546.551 40.674 547.167 40.674C547.867 40.674 548.436 40.4547 548.875 40.016C549.323 39.5773 549.547 38.9613 549.547 38.168V36.558C549.295 37.006 548.921 37.3793 548.427 37.678C547.932 37.9767 547.353 38.126 546.691 38.126C546.009 38.126 545.389 37.958 544.829 37.622C544.278 37.286 543.844 36.8147 543.527 36.208C543.209 35.6013 543.051 34.9107 543.051 34.136C543.051 33.352 543.209 32.666 543.527 32.078C543.844 31.4807 544.278 31.0187 544.829 30.692C545.389 30.3653 546.009 30.202 546.691 30.202ZM549.547 34.15C549.547 33.5713 549.43 33.0673 549.197 32.638C548.963 32.2087 548.646 31.882 548.245 31.658C547.853 31.4247 547.419 31.308 546.943 31.308C546.467 31.308 546.033 31.42 545.641 31.644C545.249 31.868 544.936 32.1947 544.703 32.624C544.469 33.0533 544.353 33.5573 544.353 34.136C544.353 34.724 544.469 35.2373 544.703 35.676C544.936 36.1053 545.249 36.4367 545.641 36.67C546.033 36.894 546.467 37.006 546.943 37.006C547.419 37.006 547.853 36.894 548.245 36.67C548.646 36.4367 548.963 36.1053 549.197 35.676C549.43 35.2373 549.547 34.7287 549.547 34.15Z" fill="#666666"/>
<rect x="130" y="51" width="90" height="90" rx="20" fill="#034737"/>
<circle cx="175.092" cy="95.8719" r="23.872" stroke="white" stroke-width="2.16667" stroke-linecap="round" stroke-linejoin="round"/>
<circle cx="175.092" cy="90.5672" r="7.95732" stroke="white" stroke-width="2.16667" stroke-linecap="round" stroke-linejoin="round"/>
<path d="M159.623 114.038C160.971 109.552 165.102 106.48 169.787 106.482H180.396C185.088 106.48 189.223 109.559 190.566 114.054" stroke="white" stroke-width="2.16667" stroke-linecap="round" stroke-linejoin="round"/>
<path d="M143.853 33.114C143.853 32.162 144.068 31.308 144.497 30.552C144.927 29.7867 145.51 29.1893 146.247 28.76C146.994 28.3307 147.82 28.116 148.725 28.116C149.789 28.116 150.718 28.3727 151.511 28.886C152.305 29.3993 152.883 30.1273 153.247 31.07H151.721C151.451 30.482 151.059 30.0293 150.545 29.712C150.041 29.3947 149.435 29.236 148.725 29.236C148.044 29.236 147.433 29.3947 146.891 29.712C146.35 30.0293 145.925 30.482 145.617 31.07C145.309 31.6487 145.155 32.33 145.155 33.114C145.155 33.8887 145.309 34.57 145.617 35.158C145.925 35.7367 146.35 36.1847 146.891 36.502C147.433 36.8193 148.044 36.978 148.725 36.978C149.435 36.978 150.041 36.824 150.545 36.516C151.059 36.1987 151.451 35.746 151.721 35.158H153.247C152.883 36.0913 152.305 36.8147 151.511 37.328C150.718 37.832 149.789 38.084 148.725 38.084C147.82 38.084 146.994 37.874 146.247 37.454C145.51 37.0247 144.927 36.432 144.497 35.676C144.068 34.92 143.853 34.066 143.853 33.114ZM158.532 38.126C157.813 38.126 157.16 37.9627 156.572 37.636C155.993 37.3093 155.536 36.8473 155.2 36.25C154.873 35.6433 154.71 34.9433 154.71 34.15C154.71 33.366 154.878 32.6753 155.214 32.078C155.559 31.4713 156.026 31.0093 156.614 30.692C157.202 30.3653 157.86 30.202 158.588 30.202C159.316 30.202 159.974 30.3653 160.562 30.692C161.15 31.0093 161.612 31.4667 161.948 32.064C162.293 32.6613 162.466 33.3567 162.466 34.15C162.466 34.9433 162.289 35.6433 161.934 36.25C161.589 36.8473 161.117 37.3093 160.52 37.636C159.923 37.9627 159.26 38.126 158.532 38.126ZM158.532 37.006C158.989 37.006 159.419 36.8987 159.82 36.684C160.221 36.4693 160.543 36.1473 160.786 35.718C161.038 35.2887 161.164 34.766 161.164 34.15C161.164 33.534 161.043 33.0113 160.8 32.582C160.557 32.1527 160.24 31.8353 159.848 31.63C159.456 31.4153 159.031 31.308 158.574 31.308C158.107 31.308 157.678 31.4153 157.286 31.63C156.903 31.8353 156.595 32.1527 156.362 32.582C156.129 33.0113 156.012 33.534 156.012 34.15C156.012 34.7753 156.124 35.3027 156.348 35.732C156.581 36.1613 156.889 36.4833 157.272 36.698C157.655 36.9033 158.075 37.006 158.532 37.006ZM167.921 30.188C168.854 30.188 169.61 30.4727 170.189 31.042C170.768 31.602 171.057 32.414 171.057 33.478V38H169.797V33.66C169.797 32.8947 169.606 32.3113 169.223 31.91C168.84 31.4993 168.318 31.294 167.655 31.294C166.983 31.294 166.446 31.504 166.045 31.924C165.653 32.344 165.457 32.9553 165.457 33.758V38H164.183V30.328H165.457V31.42C165.709 31.028 166.05 30.7247 166.479 30.51C166.918 30.2953 167.398 30.188 167.921 30.188ZM174.734 31.378V35.9C174.734 36.2733 174.813 36.5393 174.972 36.698C175.131 36.8473 175.406 36.922 175.798 36.922H176.736V38H175.588C174.879 38 174.347 37.8367 173.992 37.51C173.637 37.1833 173.46 36.6467 173.46 35.9V31.378H172.466V30.328H173.46V28.396H174.734V30.328H176.736V31.378H174.734ZM177.846 34.136C177.846 33.352 178.004 32.666 178.322 32.078C178.639 31.4807 179.073 31.0187 179.624 30.692C180.184 30.3653 180.804 30.202 181.486 30.202C182.158 30.202 182.741 30.3467 183.236 30.636C183.73 30.9253 184.099 31.2893 184.342 31.728V30.328H185.63V38H184.342V36.572C184.09 37.02 183.712 37.3933 183.208 37.692C182.713 37.9813 182.134 38.126 181.472 38.126C180.79 38.126 180.174 37.958 179.624 37.622C179.073 37.286 178.639 36.8147 178.322 36.208C178.004 35.6013 177.846 34.9107 177.846 34.136ZM184.342 34.15C184.342 33.5713 184.225 33.0673 183.992 32.638C183.758 32.2087 183.441 31.882 183.04 31.658C182.648 31.4247 182.214 31.308 181.738 31.308C181.262 31.308 180.828 31.42 180.436 31.644C180.044 31.868 179.731 32.1947 179.498 32.624C179.264 33.0533 179.148 33.5573 179.148 34.136C179.148 34.724 179.264 35.2373 179.498 35.676C179.731 36.1053 180.044 36.4367 180.436 36.67C180.828 36.894 181.262 37.006 181.738 37.006C182.214 37.006 182.648 36.894 183.04 36.67C183.441 36.4367 183.758 36.1053 183.992 35.676C184.225 35.2373 184.342 34.7287 184.342 34.15ZM187.349 34.15C187.349 33.3567 187.507 32.666 187.825 32.078C188.142 31.4807 188.581 31.0187 189.141 30.692C189.71 30.3653 190.359 30.202 191.087 30.202C192.029 30.202 192.804 30.4307 193.411 30.888C194.027 31.3453 194.433 31.98 194.629 32.792H193.257C193.126 32.3253 192.869 31.9567 192.487 31.686C192.113 31.4153 191.647 31.28 191.087 31.28C190.359 31.28 189.771 31.532 189.323 32.036C188.875 32.5307 188.651 33.2353 188.651 34.15C188.651 35.074 188.875 35.788 189.323 36.292C189.771 36.796 190.359 37.048 191.087 37.048C191.647 37.048 192.113 36.9173 192.487 36.656C192.86 36.3947 193.117 36.0213 193.257 35.536H194.629C194.423 36.32 194.013 36.95 193.397 37.426C192.781 37.8927 192.011 38.126 191.087 38.126C190.359 38.126 189.71 37.9627 189.141 37.636C188.581 37.3093 188.142 36.8473 187.825 36.25C187.507 35.6527 187.349 34.9527 187.349 34.15ZM197.924 31.378V35.9C197.924 36.2733 198.004 36.5393 198.162 36.698C198.321 36.8473 198.596 36.922 198.988 36.922H199.926V38H198.778C198.069 38 197.537 37.8367 197.182 37.51C196.828 37.1833 196.65 36.6467 196.65 35.9V31.378H195.656V30.328H196.65V28.396H197.924V30.328H199.926V31.378H197.924ZM204.228 38.126C203.64 38.126 203.113 38.028 202.646 37.832C202.179 37.6267 201.811 37.3467 201.54 36.992C201.269 36.628 201.12 36.2127 201.092 35.746H202.408C202.445 36.1287 202.623 36.4413 202.94 36.684C203.267 36.9267 203.691 37.048 204.214 37.048C204.699 37.048 205.082 36.9407 205.362 36.726C205.642 36.5113 205.782 36.2407 205.782 35.914C205.782 35.578 205.633 35.3307 205.334 35.172C205.035 35.004 204.573 34.8407 203.948 34.682C203.379 34.5327 202.912 34.3833 202.548 34.234C202.193 34.0753 201.885 33.8467 201.624 33.548C201.372 33.24 201.246 32.8387 201.246 32.344C201.246 31.952 201.363 31.5927 201.596 31.266C201.829 30.9393 202.161 30.6827 202.59 30.496C203.019 30.3 203.509 30.202 204.06 30.202C204.909 30.202 205.595 30.4167 206.118 30.846C206.641 31.2753 206.921 31.8633 206.958 32.61H205.684C205.656 32.2087 205.493 31.8867 205.194 31.644C204.905 31.4013 204.513 31.28 204.018 31.28C203.561 31.28 203.197 31.378 202.926 31.574C202.655 31.77 202.52 32.0267 202.52 32.344C202.52 32.596 202.599 32.806 202.758 32.974C202.926 33.1327 203.131 33.2633 203.374 33.366C203.626 33.4593 203.971 33.5667 204.41 33.688C204.961 33.8373 205.409 33.9867 205.754 34.136C206.099 34.276 206.393 34.4907 206.636 34.78C206.888 35.0693 207.019 35.4473 207.028 35.914C207.028 36.334 206.911 36.712 206.678 37.048C206.445 37.384 206.113 37.65 205.684 37.846C205.264 38.0327 204.779 38.126 204.228 38.126Z" fill="#666666"/>
<g filter="url(#filter0_bd_6882_4715)">
<rect x="297" y="171" width="86.6484" height="91.8193" rx="27.0776" fill="#034737"/>
<rect x="296.323" y="170.323" width="88.0023" height="93.1732" rx="27.7546" stroke="#EAEAEA" stroke-width="1.35388"/>
</g>
<circle cx="354.208" cy="231.043" r="3.91667" transform="rotate(-180 354.208 231.043)" stroke="white" stroke-width="2.54583" stroke-linecap="round" stroke-linejoin="round"/>
<circle cx="326.792" cy="203.626" r="3.91667" transform="rotate(-180 326.792 203.626)" stroke="white" stroke-width="2.54583" stroke-linecap="round" stroke-linejoin="round"/>
<circle cx="326.792" cy="231.043" r="3.91667" transform="rotate(-180 326.792 231.043)" stroke="white" stroke-width="2.54583" stroke-linecap="round" stroke-linejoin="round"/>
<circle cx="354.208" cy="203.626" r="3.91667" transform="rotate(-180 354.208 203.626)" stroke="white" stroke-width="2.54583" stroke-linecap="round" stroke-linejoin="round"/>
<path d="M352.171 207.464C352.668 206.967 352.668 206.161 352.171 205.663C351.674 205.166 350.868 205.166 350.371 205.663L352.171 207.464ZM328.829 227.205C328.332 227.702 328.332 228.508 328.829 229.005C329.326 229.502 330.132 229.502 330.629 229.005L328.829 227.205ZM352.936 227.126C352.936 227.829 353.505 228.399 354.208 228.399C354.912 228.399 355.481 227.829 355.481 227.126L352.936 227.126ZM355.481 207.543C355.481 206.84 354.912 206.27 354.208 206.27C353.505 206.27 352.936 206.84 352.936 207.543L355.481 207.543ZM325.519 227.126C325.519 227.829 326.089 228.399 326.792 228.399C327.495 228.399 328.065 227.829 328.065 227.126L325.519 227.126ZM328.065 207.543C328.065 206.84 327.495 206.27 326.792 206.27C326.089 206.27 325.519 206.84 325.519 207.543L328.065 207.543ZM350.371 205.663L328.829 227.205L330.629 229.005L352.171 207.464L350.371 205.663ZM355.481 227.126L355.481 207.543L352.936 207.543L352.936 227.126L355.481 227.126ZM328.065 227.126L328.065 207.543L325.519 207.543L325.519 227.126L328.065 227.126Z" fill="white"/>
<defs>
<filter id="filter0_bd_6882_4715" x="238.602" y="112.603" width="203.444" height="208.614" filterUnits="userSpaceOnUse" color-interpolation-filters="sRGB">
<feFlood flood-opacity="0" result="BackgroundImageFix"/>
<feGaussianBlur in="BackgroundImageFix" stdDeviation="28.5218"/>
<feComposite in2="SourceAlpha" operator="in" result="effect1_backgroundBlur_6882_4715"/>
<feColorMatrix in="SourceAlpha" type="matrix" values="0 0 0 0 0 0 0 0 0 0 0 0 0 0 0 0 0 0 127 0" result="hardAlpha"/>
<feOffset dy="8.66484"/>
<feGaussianBlur stdDeviation="6.85967"/>
<feComposite in2="hardAlpha" operator="out"/>
<feColorMatrix type="matrix" values="0 0 0 0 0.0867708 0 0 0 0 0.115317 0 0 0 0 0.141667 0 0 0 0.08 0"/>
<feBlend mode="normal" in2="effect1_backgroundBlur_6882_4715" result="effect2_dropShadow_6882_4715"/>
<feBlend mode="normal" in="SourceGraphic" in2="effect2_dropShadow_6882_4715" result="shape"/>
</filter>
</defs>
</svg>
