<svg width="681" height="300" viewBox="0 0 681 300" fill="none" xmlns="http://www.w3.org/2000/svg">
<path d="M389 90L389 150" stroke="#034737" stroke-dasharray="6 6"/>
<path d="M172 90L172 150" stroke="#034737" stroke-dasharray="6 6"/>
<path d="M276 210L276 150" stroke="#034737" stroke-dasharray="6 6"/>
<path d="M503 217L503 150" stroke="#034737" stroke-dasharray="6 6"/>
<path d="M276 177L280.33 184.5L271.67 184.5L276 177Z" fill="#034737"/>
<path d="M389 123L384.67 115.5L393.33 115.5L389 123Z" fill="#034737"/>
<path d="M172 123L167.67 115.5L176.33 115.5L172 123Z" fill="#034737"/>
<path d="M503 177L507.33 184.5L498.67 184.5L503 177Z" fill="#034737"/>
<path d="M681 150L-1.09673e-05 150" stroke="#034737" stroke-dasharray="6 6"/>
<path d="M239 150L234 147.113V152.887L239 150ZM230.038 149.5H224.062V150.5H230.038V149.5ZM218.087 149.5H212.112V150.5H218.087V149.5ZM206.138 149.5H200.163V150.5H206.138V149.5ZM194.188 149.5H188.213V150.5H194.188V149.5ZM182.238 149.5H176.263V150.5H182.238V149.5ZM170.288 149.5H164.313V150.5H170.288V149.5ZM158.338 149.5H152.363V150.5H158.338V149.5ZM146.388 149.5H140.413V150.5H146.388V149.5ZM134.438 149.5H128.463V150.5H134.438V149.5ZM122.488 149.5H116.513V150.5H122.488V149.5ZM110.538 149.5H104.563V150.5H110.538V149.5ZM98.5875 149.5H92.6125V150.5H98.5875V149.5ZM86.6375 149.5H80.6625V150.5H86.6375V149.5ZM74.6875 149.5H68.7125V150.5H74.6875V149.5ZM62.7375 149.5H56.7625V150.5H62.7375V149.5ZM50.7875 149.5H44.8125V150.5H50.7875V149.5ZM38.8374 149.5H32.8624V150.5H38.8374V149.5ZM26.8874 149.5H20.9124V150.5H26.8874V149.5ZM14.9374 149.5H8.96242V150.5H14.9374V149.5ZM2.98741 149.5H0V150.5H2.98741V149.5Z" fill="#034737"/>
<path d="M634 150L629 147.113V152.887L634 150ZM624.938 149.5H618.896V150.5H624.938V149.5ZM612.854 149.5H606.813V150.5H612.854V149.5ZM600.771 149.5H594.729V150.5H600.771V149.5ZM588.688 149.5H582.646V150.5H588.688V149.5ZM576.604 149.5H570.562V150.5H576.604V149.5ZM564.521 149.5H558.479V150.5H564.521V149.5ZM552.438 149.5H546.396V150.5H552.438V149.5ZM540.354 149.5H534.313V150.5H540.354V149.5ZM528.271 149.5H522.229V150.5H528.271V149.5ZM516.188 149.5H510.146V150.5H516.188V149.5ZM504.104 149.5H498.063V150.5H504.104V149.5ZM492.021 149.5H485.979V150.5H492.021V149.5ZM479.938 149.5H473.896V150.5H479.938V149.5ZM467.854 149.5H461.812V150.5H467.854V149.5ZM455.771 149.5H449.729V150.5H455.771V149.5ZM443.687 149.5H437.646V150.5H443.687V149.5ZM431.604 149.5H425.562V150.5H431.604V149.5ZM419.521 149.5H413.479V150.5H419.521V149.5ZM407.437 149.5H401.396V150.5H407.437V149.5ZM395.354 149.5H389.312V150.5H395.354V149.5ZM383.271 149.5H377.229V150.5H383.271V149.5ZM371.187 149.5H365.146V150.5H371.187V149.5ZM359.104 149.5H353.062V150.5H359.104V149.5ZM347.021 149.5H344V150.5H347.021V149.5Z" fill="#034737"/>
<path d="M231 242C231 230.799 231 225.198 233.18 220.92C235.097 217.157 238.157 214.097 241.92 212.18C246.198 210 251.799 210 263 210H289C300.201 210 305.802 210 310.08 212.18C313.843 214.097 316.903 217.157 318.82 220.92C321 225.198 321 230.799 321 242V268C321 279.201 321 284.802 318.82 289.08C316.903 292.843 313.843 295.903 310.08 297.82C305.802 300 300.201 300 289 300H263C251.799 300 246.198 300 241.92 297.82C238.157 295.903 235.097 292.843 233.18 289.08C231 284.802 231 279.201 231 268V242Z" fill="#034737"/>
<path d="M289.575 255.381C289.257 254.546 288.649 253.843 287.833 253.427C286.216 252.583 284.19 253.062 283.125 254.548L280.382 258.376C279.893 257.828 279.246 257.413 278.485 257.223L272.407 255.709C269.989 255.105 267.438 255.594 265.412 257.048L258.975 261.666C258.7 261.863 258.537 262.181 258.537 262.519V272.963C258.537 273.543 259.007 274.013 259.587 274.013H264.131C264.322 274.013 264.51 273.961 264.674 273.862L269.565 270.908L281.848 270.465C282.083 270.456 282.309 270.369 282.488 270.217L292.378 261.846C293.884 260.571 294.119 258.35 292.913 256.789C292.108 255.748 290.826 255.251 289.575 255.381ZM284.832 255.771C285.292 255.133 286.162 254.925 286.87 255.294C287.218 255.471 287.469 255.774 287.606 256.129L282.517 259.004L284.832 255.771ZM291.021 260.243L281.409 268.379L269.217 268.818C269.039 268.825 268.865 268.877 268.712 268.969L263.838 271.912H260.638V263.058L266.637 258.755C268.162 257.661 270.08 257.294 271.9 257.747L277.976 259.261C278.833 259.475 279.38 260.316 279.223 261.178C279.062 262.053 278.237 262.647 277.342 262.536L274.415 262.159C273.841 262.082 273.313 262.49 273.239 263.066C273.164 263.641 273.571 264.168 274.146 264.242L277.074 264.619C278.844 264.847 280.496 263.82 281.106 262.214L289.178 257.654C289.872 257.264 290.764 257.441 291.25 258.073C291.768 258.743 291.667 259.696 291.021 260.243ZM267.041 242.734C266.862 242.183 266.27 241.88 265.717 242.059L264.882 242.331V241.453C264.882 240.873 264.412 240.402 263.832 240.402C263.252 240.402 262.782 240.873 262.782 241.453V242.331L261.948 242.059C261.396 241.88 260.803 242.183 260.624 242.734C260.445 243.286 260.746 243.878 261.298 244.057L262.133 244.328L261.617 245.038C261.276 245.508 261.38 246.165 261.849 246.506C262.313 246.842 262.979 246.737 263.316 246.273L263.832 245.563L264.348 246.273C264.671 246.718 265.352 246.842 265.815 246.506C266.285 246.165 266.389 245.508 266.048 245.038L265.532 244.329L266.367 244.057C266.918 243.878 267.22 243.286 267.041 242.734ZM277.666 244.057L278.501 244.329L277.985 245.038C277.644 245.508 277.748 246.165 278.217 246.506C278.683 246.843 279.347 246.738 279.685 246.273L280.201 245.563C280.201 245.563 280.714 246.27 280.716 246.273C281.049 246.731 281.728 246.836 282.184 246.506C282.653 246.165 282.757 245.508 282.416 245.038L281.9 244.329L282.735 244.057C283.287 243.878 283.588 243.286 283.409 242.734C283.23 242.183 282.639 241.88 282.086 242.059L281.251 242.331V241.453C281.251 240.873 280.781 240.402 280.201 240.402C279.621 240.402 279.15 240.873 279.15 241.453V242.331L278.315 242.059C277.762 241.88 277.171 242.183 276.992 242.734C276.813 243.286 277.114 243.878 277.666 244.057ZM272.017 240.402C271.437 240.402 270.966 240.873 270.966 241.453V242.331L270.131 242.059C269.579 241.88 268.987 242.183 268.808 242.734C268.629 243.286 268.93 243.878 269.482 244.057L270.317 244.329L269.801 245.038C269.46 245.508 269.564 246.165 270.033 246.506C270.48 246.83 271.163 246.738 271.501 246.273L272.017 245.563L272.533 246.273C272.856 246.719 273.526 246.85 274 246.506C274.469 246.165 274.573 245.508 274.232 245.038L273.716 244.329L274.551 244.057C275.103 243.878 275.404 243.286 275.225 242.734C275.046 242.183 274.455 241.88 273.902 242.059L273.067 242.331V241.453C273.067 240.873 272.597 240.402 272.017 240.402ZM288.385 240.402C287.805 240.402 287.335 240.873 287.335 241.453V242.331L286.5 242.059C285.948 241.88 285.355 242.183 285.176 242.734C284.997 243.286 285.299 243.878 285.851 244.057L286.685 244.329L286.169 245.038C285.828 245.508 285.933 246.165 286.402 246.506C286.847 246.829 287.526 246.745 287.869 246.273L288.385 245.563L288.901 246.273C289.225 246.719 289.896 246.848 290.368 246.506C290.837 246.165 290.941 245.508 290.6 245.038L290.085 244.328L290.919 244.057C291.471 243.878 291.772 243.286 291.593 242.734C291.414 242.183 290.824 241.88 290.27 242.059L289.435 242.331V241.453C289.435 240.873 288.965 240.402 288.385 240.402Z" fill="white"/>
<path d="M292.913 236.202H280.309C279.729 236.202 279.259 236.672 279.259 237.252C279.259 237.832 279.729 238.303 280.309 238.303H292.913C293.492 238.303 293.963 238.774 293.963 239.353V247.755C293.963 248.334 293.492 248.806 292.913 248.806H278.293C277.981 248.806 277.685 248.944 277.486 249.184L276.108 250.84L274.731 249.184C274.531 248.944 274.235 248.806 273.923 248.806H259.303C258.724 248.806 258.253 248.334 258.253 247.755V239.353C258.253 238.774 258.724 238.303 259.303 238.303H271.907C272.487 238.303 272.957 237.832 272.957 237.252C272.957 236.672 272.487 236.202 271.907 236.202H259.303C257.566 236.202 256.152 237.616 256.152 239.353V247.755C256.152 249.493 257.566 250.906 259.303 250.906H273.431C273.431 250.906 275.299 253.151 275.301 253.154C275.716 253.652 276.501 253.652 276.915 253.154L278.785 250.906H292.913C294.65 250.906 296.064 249.493 296.064 247.755V239.353C296.064 237.616 294.65 236.202 292.913 236.202Z" fill="white"/>
<path d="M276.109 238.303C276.689 238.303 277.159 237.833 277.159 237.252C277.159 236.672 276.689 236.202 276.109 236.202C275.529 236.202 275.059 236.672 275.059 237.252C275.059 237.833 275.529 238.303 276.109 238.303Z" fill="white"/>
<path d="M457.969 239C457.969 227.799 457.969 222.198 460.149 217.92C462.066 214.157 465.126 211.097 468.889 209.18C473.167 207 478.768 207 489.969 207H515.969C527.17 207 532.77 207 537.049 209.18C540.812 211.097 543.871 214.157 545.789 217.92C547.969 222.198 547.969 227.799 547.969 239V265C547.969 276.201 547.969 281.802 545.789 286.08C543.871 289.843 540.812 292.903 537.049 294.82C532.77 297 527.17 297 515.969 297H489.969C478.768 297 473.167 297 468.889 294.82C465.126 292.903 462.066 289.843 460.149 286.08C457.969 281.802 457.969 276.201 457.969 265V239Z" fill="#034737"/>
<path d="M496.75 252V243.667" stroke="white" stroke-width="2.70833" stroke-linecap="round" stroke-linejoin="round"/>
<path d="M509.25 252V247.833" stroke="white" stroke-width="2.70833" stroke-linecap="round" stroke-linejoin="round"/>
<path d="M503 252V249.917" stroke="white" stroke-width="2.70833" stroke-linecap="round" stroke-linejoin="round"/>
<path d="M484.25 235.333H521.75" stroke="white" stroke-width="2.70833" stroke-linecap="round" stroke-linejoin="round"/>
<path d="M486.333 235.333V256.167C486.333 258.468 488.199 260.333 490.5 260.333H515.5C517.801 260.333 519.667 258.468 519.667 256.167V235.333" stroke="white" stroke-width="2.70833" stroke-linecap="round" stroke-linejoin="round"/>
<path d="M503 260.333V268.667" stroke="white" stroke-width="2.70833" stroke-linecap="round" stroke-linejoin="round"/>
<path d="M496.75 268.667H509.25" stroke="white" stroke-width="2.70833" stroke-linecap="round" stroke-linejoin="round"/>
<rect x="130" width="90" height="90" rx="20" fill="#034737"/>
<path d="M186.732 51.4223L185.07 49.764C185.249 49.3921 185.406 49.0101 185.542 48.6201H187.892C188.118 48.6201 188.334 48.5305 188.493 48.371C188.653 48.2116 188.743 47.9952 188.743 47.7697V42.0887C188.743 41.8632 188.653 41.6469 188.493 41.4874C188.334 41.3279 188.118 41.2383 187.892 41.2383H185.542C185.406 40.8483 185.249 40.4664 185.07 40.0944L186.732 38.4361C186.811 38.3571 186.874 38.2633 186.916 38.1601C186.959 38.0568 186.981 37.9462 186.981 37.8344C186.981 37.7226 186.959 37.612 186.916 37.5087C186.874 37.4055 186.811 37.3117 186.732 37.2327L182.715 33.2144C182.635 33.1355 182.541 33.0732 182.437 33.0309C182.334 32.9885 182.223 32.9671 182.111 32.9677C181.886 32.9676 181.671 33.0562 181.512 33.2144L179.854 34.877C179.482 34.6986 179.1 34.541 178.71 34.405V32.0535C178.71 31.828 178.621 31.6116 178.461 31.4522C178.302 31.2927 178.085 31.2031 177.86 31.2031H172.181C171.955 31.2031 171.739 31.2927 171.579 31.4522C171.42 31.6116 171.33 31.828 171.33 32.0535V34.405C170.941 34.541 170.559 34.6986 170.187 34.877L168.529 33.2144C168.366 33.0607 168.151 32.975 167.928 32.975C167.704 32.975 167.489 33.0607 167.326 33.2144L163.309 37.2327C163.23 37.3117 163.167 37.4055 163.124 37.5087C163.082 37.612 163.06 37.7226 163.06 37.8344C163.06 37.9462 163.082 38.0568 163.124 38.1601C163.167 38.2633 163.23 38.3571 163.309 38.4361L164.971 40.0944C164.792 40.4664 164.634 40.8483 164.499 41.2383H162.148C161.923 41.2383 161.707 41.3279 161.547 41.4874C161.388 41.6469 161.298 41.8632 161.298 42.0887V47.7697C161.298 47.9952 161.388 48.2116 161.547 48.371C161.707 48.5305 161.923 48.6201 162.148 48.6201H164.499C164.634 49.0101 164.792 49.3921 164.971 49.764L163.309 51.4223C163.23 51.5013 163.167 51.5951 163.124 51.6984C163.082 51.8016 163.06 51.9123 163.06 52.024C163.06 52.1358 163.082 52.2465 163.124 52.3497C163.167 52.4529 163.23 52.5467 163.309 52.6257L167.326 56.6441C167.405 56.7229 167.5 56.7852 167.603 56.8276C167.707 56.8699 167.818 56.8913 167.93 56.8907C168.154 56.8909 168.37 56.8022 168.529 56.6441L170.187 54.9814C170.559 55.1598 170.941 55.3174 171.33 55.4534V57.8049C171.33 58.0305 171.42 58.2468 171.579 58.4063C171.739 58.5658 171.955 58.6554 172.181 58.6554H177.86C178.085 58.6554 178.302 58.5658 178.461 58.4063C178.621 58.2468 178.71 58.0305 178.71 57.8049V55.4534C179.1 55.3174 179.482 55.1598 179.854 54.9814L181.512 56.6441C181.674 56.7978 181.889 56.8834 182.113 56.8834C182.337 56.8834 182.552 56.7978 182.715 56.6441L186.732 52.6257C186.811 52.5467 186.874 52.4529 186.916 52.3497C186.959 52.2465 186.981 52.1358 186.981 52.024C186.981 51.9123 186.959 51.8016 186.916 51.6984C186.874 51.5951 186.811 51.5013 186.732 51.4223ZM182.111 54.8241L180.615 53.3273C180.484 53.1975 180.315 53.1136 180.132 53.0883C179.95 53.063 179.764 53.0976 179.603 53.187C178.977 53.5331 178.314 53.807 177.626 54.0034C177.449 54.0542 177.293 54.1613 177.182 54.3086C177.07 54.4558 177.01 54.6353 177.01 54.8199V56.946H173.031V54.8199C173.031 54.6353 172.97 54.4558 172.859 54.3086C172.748 54.1613 172.592 54.0542 172.414 54.0034C171.727 53.807 171.064 53.5331 170.438 53.187C170.277 53.0976 170.091 53.063 169.908 53.0883C169.726 53.1136 169.557 53.1975 169.426 53.3273L167.93 54.8369L165.116 52.0219L166.612 50.5251C166.742 50.3944 166.826 50.225 166.851 50.0425C166.876 49.86 166.842 49.6742 166.752 49.5131C166.405 48.8874 166.132 48.224 165.936 47.5358C165.885 47.3584 165.778 47.2023 165.631 47.091C165.484 46.9798 165.304 46.9195 165.12 46.9193H162.994V42.9392H165.12C165.304 42.9389 165.484 42.8786 165.631 42.7674C165.778 42.6562 165.885 42.5 165.936 42.3226C166.132 41.6345 166.405 40.971 166.752 40.3453C166.842 40.1842 166.876 39.9984 166.851 39.8159C166.826 39.6334 166.742 39.464 166.612 39.3333L165.116 37.8365L167.93 35.0216L169.426 36.5183C169.557 36.6482 169.726 36.7321 169.908 36.7574C170.091 36.7827 170.277 36.7481 170.438 36.6587C171.064 36.3126 171.727 36.0387 172.414 35.8422C172.592 35.7915 172.748 35.6844 172.859 35.5371C172.97 35.3898 173.031 35.2104 173.031 35.0258V32.8997H177.01V35.0258C177.01 35.2104 177.07 35.3898 177.182 35.5371C177.293 35.6844 177.449 35.7915 177.626 35.8422C178.314 36.0387 178.977 36.3126 179.603 36.6587C179.764 36.7481 179.95 36.7827 180.132 36.7574C180.315 36.7321 180.484 36.6482 180.615 36.5183L182.111 35.0216L184.925 37.8365L183.429 39.3333C183.299 39.464 183.215 39.6334 183.19 39.8159C183.164 39.9984 183.199 40.1842 183.288 40.3453C183.635 40.971 183.909 41.6345 184.105 42.3226C184.155 42.5 184.262 42.6562 184.41 42.7674C184.557 42.8786 184.736 42.9389 184.921 42.9392H187.046V46.9193H184.921C184.736 46.9195 184.557 46.9798 184.41 47.091C184.262 47.2023 184.155 47.3584 184.105 47.5358C183.909 48.224 183.635 48.8874 183.288 49.5131C183.199 49.6742 183.164 49.86 183.19 50.0425C183.215 50.225 183.299 50.3944 183.429 50.5251L184.925 52.0219L182.111 54.8241ZM175.02 37.1264C173.478 37.1264 171.969 37.584 170.687 38.4414C169.404 39.2988 168.404 40.5174 167.814 41.9432C167.223 43.369 167.069 44.9379 167.37 46.4515C167.671 47.9651 168.414 49.3554 169.504 50.4466C170.595 51.5379 171.985 52.281 173.499 52.5821C175.012 52.8832 176.58 52.7286 178.005 52.1381C179.431 51.5475 180.649 50.5474 181.506 49.2642C182.363 47.9811 182.821 46.4725 182.821 44.9292C182.819 42.8605 181.996 40.8771 180.534 39.4143C179.071 37.9515 177.088 37.1287 175.02 37.1264ZM175.02 51.0311C173.814 51.0311 172.634 50.6733 171.631 50.0028C170.628 49.3323 169.846 48.3793 169.385 47.2643C168.923 46.1493 168.802 44.9224 169.037 43.7388C169.273 42.5551 169.854 41.4679 170.707 40.6145C171.56 39.7611 172.647 39.18 173.83 38.9445C175.014 38.7091 176.24 38.8299 177.355 39.2918C178.469 39.7536 179.422 40.5357 180.092 41.5392C180.763 42.5426 181.12 43.7224 181.12 44.9292C181.118 46.5469 180.475 48.0976 179.331 49.2414C178.188 50.3853 176.637 51.0289 175.02 51.0311ZM195 44.9292C195 41.3007 194.012 37.7407 192.143 34.6311C190.273 31.5215 187.593 28.9796 184.389 27.2782C181.185 25.5767 177.578 24.7799 173.956 24.9732C170.334 25.1665 166.832 26.3426 163.827 28.3753C163.103 27.7994 162.203 27.4887 161.277 27.4951C160.498 27.494 159.734 27.7153 159.076 28.1332C158.418 28.5511 157.893 29.1481 157.563 29.8541C157.233 30.5601 157.111 31.3458 157.211 32.1188C157.312 32.8918 157.631 33.62 158.131 34.2179C155.673 38.0763 154.612 42.6616 155.127 47.208C155.642 51.7544 157.7 55.9865 160.959 59.1973C164.218 62.4082 168.479 64.4033 173.031 64.8495C177.584 65.2957 182.151 64.166 185.971 61.6489C186.757 62.2951 187.755 62.6256 188.771 62.5759C189.786 62.5263 190.748 62.1001 191.467 61.3804C192.185 60.6606 192.611 59.699 192.66 58.6827C192.709 57.6664 192.378 56.6683 191.731 55.8829C193.871 52.6313 195.008 48.8221 195 44.9292ZM161.298 29.196C161.934 29.196 162.544 29.4487 162.993 29.8985C163.443 30.3482 163.696 30.9582 163.696 31.5943C163.696 32.2303 163.443 32.8403 162.993 33.2901C162.544 33.7399 161.934 33.9925 161.298 33.9925C160.663 33.9892 160.055 33.7354 159.607 33.2864C159.158 32.8374 158.904 32.2293 158.901 31.5943C158.902 30.9586 159.155 30.3492 159.604 29.8997C160.053 29.4502 160.663 29.1971 161.298 29.196ZM175.02 63.2137C171.761 63.2142 168.56 62.3427 165.75 60.6896C162.94 59.0364 160.624 56.6617 159.04 53.8116C157.457 50.9615 156.664 47.7397 156.744 44.48C156.824 41.2203 157.774 38.0413 159.496 35.2724H159.538C159.664 35.3357 159.793 35.391 159.925 35.4383C160.053 35.4808 160.18 35.5191 160.312 35.5531L160.435 35.5786C160.537 35.5984 160.639 35.6154 160.741 35.6296H160.865C161.006 35.6468 161.148 35.6553 161.29 35.6551C162.376 35.654 163.418 35.2218 164.186 34.4533C164.954 33.6848 165.386 32.6428 165.388 31.556C165.388 31.4072 165.388 31.2583 165.362 31.1095C165.362 31.067 165.362 31.0245 165.362 30.982C165.345 30.8714 165.324 30.7608 165.298 30.6503L165.273 30.5312C165.235 30.3909 165.192 30.2506 165.141 30.106L165.116 30.0507C165.069 29.9317 165.013 29.8126 164.958 29.6978L164.933 29.6468C168.432 27.3145 172.629 26.2607 176.815 26.6628C181.001 27.065 184.92 28.8985 187.912 31.8544C190.904 34.8103 192.786 38.7077 193.24 42.8895C193.694 47.0714 192.693 51.2819 190.405 54.8114H190.354C190.238 54.752 190.119 54.6995 189.997 54.654H189.958C189.819 54.6047 189.677 54.5635 189.533 54.5307L189.414 54.5009C189.308 54.5009 189.202 54.4584 189.095 54.4457H188.972C188.831 54.429 188.689 54.4205 188.547 54.4202C187.46 54.4213 186.419 54.8535 185.651 55.622C184.882 56.3905 184.45 57.4325 184.449 58.5193C184.449 58.6614 184.458 58.8034 184.475 58.9445C184.475 58.987 184.475 59.0296 184.475 59.0721C184.475 59.1784 184.509 59.2847 184.53 59.391C184.538 59.4312 184.548 59.4709 184.56 59.5101C184.592 59.6543 184.633 59.7963 184.683 59.9353C184.681 59.9522 184.681 59.9693 184.683 59.9863C184.725 60.104 184.775 60.219 184.832 60.3307C184.838 60.3499 184.847 60.3684 184.857 60.386C181.916 62.2507 178.502 63.2321 175.02 63.2137ZM188.551 60.8665C187.932 60.8404 187.347 60.5762 186.919 60.1288C186.49 59.6815 186.25 59.0858 186.25 58.4661C186.25 57.8464 186.49 57.2507 186.919 56.8034C187.347 56.3561 187.932 56.0918 188.551 56.0658C189.117 56.0665 189.664 56.2651 190.099 56.6271C190.48 56.9433 190.754 57.3697 190.884 57.848C191.014 58.3263 190.992 58.8329 190.823 59.2986C190.653 59.7642 190.344 60.1661 189.937 60.4491C189.531 60.732 189.047 60.8823 188.551 60.8793V60.8665ZM179.038 41.9527C179.117 42.0316 179.179 42.1254 179.222 42.2287C179.265 42.3319 179.287 42.4426 179.287 42.5544C179.287 42.6661 179.265 42.7768 179.222 42.88C179.179 42.9833 179.117 43.0771 179.038 43.156L174.302 47.9058C174.223 47.9848 174.129 48.0476 174.026 48.0904C173.923 48.1332 173.812 48.1552 173.7 48.1552C173.589 48.1552 173.478 48.1332 173.375 48.0904C173.272 48.0476 173.178 47.9848 173.099 47.9058L171.003 45.8052C170.844 45.6456 170.754 45.4292 170.754 45.2035C170.754 44.9778 170.844 44.7614 171.003 44.6018C171.163 44.4422 171.379 44.3526 171.605 44.3526C171.83 44.3526 172.047 44.4422 172.206 44.6018L173.698 46.0986L177.834 41.9527C177.913 41.8736 178.007 41.8109 178.11 41.7681C178.214 41.7253 178.324 41.7032 178.436 41.7032C178.548 41.7032 178.658 41.7253 178.762 41.7681C178.865 41.8109 178.959 41.8736 179.038 41.9527Z" fill="white" stroke="white" stroke-width="0.265763"/>
<rect x="344" width="90" height="90" rx="20" fill="#034737"/>
<circle cx="405.672" cy="27.8055" r="4.80553" transform="rotate(90 405.672 27.8055)" stroke="white" stroke-width="1.66667" stroke-linecap="round" stroke-linejoin="round"/>
<circle cx="405.672" cy="61.4442" r="4.80553" transform="rotate(90 405.672 61.4442)" stroke="white" stroke-width="1.66667" stroke-linecap="round" stroke-linejoin="round"/>
<circle cx="372.034" cy="27.8055" r="4.80553" transform="rotate(90 372.034 27.8055)" stroke="white" stroke-width="1.66667" stroke-linecap="round" stroke-linejoin="round"/>
<circle cx="372.034" cy="61.4442" r="4.80553" transform="rotate(90 372.034 61.4442)" stroke="white" stroke-width="1.66667" stroke-linecap="round" stroke-linejoin="round"/>
<path d="M400.867 27.8056H376.839" stroke="white" stroke-width="1.66667" stroke-linecap="round" stroke-linejoin="round"/>
<path d="M405.673 32.6111V56.6387" stroke="white" stroke-width="1.66667" stroke-linecap="round" stroke-linejoin="round"/>
<path d="M372.034 32.6111V56.6387" stroke="white" stroke-width="1.66667" stroke-linecap="round" stroke-linejoin="round"/>
<path d="M400.867 61.4443H376.839" stroke="white" stroke-width="1.66667" stroke-linecap="round" stroke-linejoin="round"/>
</svg>
