<svg width="681" height="432" viewBox="0 0 681 432" fill="none" xmlns="http://www.w3.org/2000/svg">
<path d="M389 157L389 217" stroke="#034737" stroke-dasharray="6 6"/>
<path d="M172 157L172 217" stroke="#034737" stroke-dasharray="6 6"/>
<path d="M276 277L276 217" stroke="#034737" stroke-dasharray="6 6"/>
<path d="M503 284L503 217" stroke="#034737" stroke-dasharray="6 6"/>
<path d="M276 244L280.33 251.5L271.67 251.5L276 244Z" fill="#034737"/>
<path d="M389 190L384.67 182.5L393.33 182.5L389 190Z" fill="#034737"/>
<path d="M172 190L167.67 182.5L176.33 182.5L172 190Z" fill="#034737"/>
<path d="M503 244L507.33 251.5L498.67 251.5L503 244Z" fill="#034737"/>
<path d="M681 217L-1.09673e-05 217" stroke="#034737" stroke-dasharray="6 6"/>
<path d="M239 217L234 214.113V219.887L239 217ZM230.038 216.5H224.062V217.5H230.038V216.5ZM218.087 216.5H212.112V217.5H218.087V216.5ZM206.138 216.5H200.163V217.5H206.138V216.5ZM194.188 216.5H188.213V217.5H194.188V216.5ZM182.238 216.5H176.263V217.5H182.238V216.5ZM170.288 216.5H164.313V217.5H170.288V216.5ZM158.338 216.5H152.363V217.5H158.338V216.5ZM146.388 216.5H140.413V217.5H146.388V216.5ZM134.438 216.5H128.463V217.5H134.438V216.5ZM122.488 216.5H116.513V217.5H122.488V216.5ZM110.538 216.5H104.563V217.5H110.538V216.5ZM98.5875 216.5H92.6125V217.5H98.5875V216.5ZM86.6375 216.5H80.6625V217.5H86.6375V216.5ZM74.6875 216.5H68.7125V217.5H74.6875V216.5ZM62.7375 216.5H56.7625V217.5H62.7375V216.5ZM50.7875 216.5H44.8125V217.5H50.7875V216.5ZM38.8374 216.5H32.8624V217.5H38.8374V216.5ZM26.8874 216.5H20.9124V217.5H26.8874V216.5ZM14.9374 216.5H8.96242V217.5H14.9374V216.5ZM2.98741 216.5H0V217.5H2.98741V216.5Z" fill="#034737"/>
<path d="M634 217L629 214.113V219.887L634 217ZM624.938 216.5H618.896V217.5H624.938V216.5ZM612.854 216.5H606.813V217.5H612.854V216.5ZM600.771 216.5H594.729V217.5H600.771V216.5ZM588.688 216.5H582.646V217.5H588.688V216.5ZM576.604 216.5H570.562V217.5H576.604V216.5ZM564.521 216.5H558.479V217.5H564.521V216.5ZM552.438 216.5H546.396V217.5H552.438V216.5ZM540.354 216.5H534.313V217.5H540.354V216.5ZM528.271 216.5H522.229V217.5H528.271V216.5ZM516.188 216.5H510.146V217.5H516.188V216.5ZM504.104 216.5H498.063V217.5H504.104V216.5ZM492.021 216.5H485.979V217.5H492.021V216.5ZM479.938 216.5H473.896V217.5H479.938V216.5ZM467.854 216.5H461.812V217.5H467.854V216.5ZM455.771 216.5H449.729V217.5H455.771V216.5ZM443.687 216.5H437.646V217.5H443.687V216.5ZM431.604 216.5H425.562V217.5H431.604V216.5ZM419.521 216.5H413.479V217.5H419.521V216.5ZM407.437 216.5H401.396V217.5H407.437V216.5ZM395.354 216.5H389.312V217.5H395.354V216.5ZM383.271 216.5H377.229V217.5H383.271V216.5ZM371.187 216.5H365.146V217.5H371.187V216.5ZM359.104 216.5H353.062V217.5H359.104V216.5ZM347.021 216.5H344V217.5H347.021V216.5Z" fill="#034737"/>
<path d="M231 309C231 297.799 231 292.198 233.18 287.92C235.097 284.157 238.157 281.097 241.92 279.18C246.198 277 251.799 277 263 277H289C300.201 277 305.802 277 310.08 279.18C313.843 281.097 316.903 284.157 318.82 287.92C321 292.198 321 297.799 321 309V335C321 346.201 321 351.802 318.82 356.08C316.903 359.843 313.843 362.903 310.08 364.82C305.802 367 300.201 367 289 367H263C251.799 367 246.198 367 241.92 364.82C238.157 362.903 235.097 359.843 233.18 356.08C231 351.802 231 346.201 231 335V309Z" fill="#034737"/>
<path d="M289.575 322.381C289.257 321.546 288.649 320.843 287.833 320.427C286.216 319.583 284.19 320.062 283.125 321.548L280.382 325.376C279.893 324.828 279.246 324.413 278.485 324.223L272.407 322.709C269.989 322.105 267.438 322.594 265.412 324.048L258.975 328.666C258.7 328.863 258.537 329.181 258.537 329.519V339.963C258.537 340.543 259.007 341.013 259.587 341.013H264.131C264.322 341.013 264.51 340.961 264.674 340.862L269.565 337.908L281.848 337.465C282.083 337.456 282.309 337.369 282.488 337.217L292.378 328.846C293.884 327.571 294.119 325.35 292.913 323.789C292.108 322.748 290.826 322.251 289.575 322.381ZM284.832 322.771C285.292 322.133 286.162 321.925 286.87 322.294C287.218 322.471 287.469 322.774 287.606 323.129L282.517 326.004L284.832 322.771ZM291.021 327.243L281.409 335.379L269.217 335.818C269.039 335.825 268.865 335.877 268.712 335.969L263.838 338.912H260.638V330.058L266.637 325.755C268.162 324.661 270.08 324.294 271.9 324.747L277.976 326.261C278.833 326.475 279.38 327.316 279.223 328.178C279.062 329.053 278.237 329.647 277.342 329.536L274.415 329.159C273.841 329.082 273.313 329.49 273.239 330.066C273.164 330.641 273.571 331.168 274.146 331.242L277.074 331.619C278.844 331.847 280.496 330.82 281.106 329.214L289.178 324.654C289.872 324.264 290.764 324.441 291.25 325.073C291.768 325.743 291.667 326.696 291.021 327.243ZM267.041 309.734C266.862 309.183 266.27 308.88 265.717 309.059L264.882 309.331V308.453C264.882 307.873 264.412 307.402 263.832 307.402C263.252 307.402 262.782 307.873 262.782 308.453V309.331L261.948 309.059C261.396 308.88 260.803 309.183 260.624 309.734C260.445 310.286 260.746 310.878 261.298 311.057L262.133 311.328L261.617 312.038C261.276 312.508 261.38 313.165 261.849 313.506C262.313 313.842 262.979 313.737 263.316 313.273L263.832 312.563L264.348 313.273C264.671 313.718 265.352 313.842 265.815 313.506C266.285 313.165 266.389 312.508 266.048 312.038L265.532 311.329L266.367 311.057C266.918 310.878 267.22 310.286 267.041 309.734ZM277.666 311.057L278.501 311.329L277.985 312.038C277.644 312.508 277.748 313.165 278.217 313.506C278.683 313.843 279.347 313.738 279.685 313.273L280.201 312.563C280.201 312.563 280.714 313.27 280.716 313.273C281.049 313.731 281.728 313.836 282.184 313.506C282.653 313.165 282.757 312.508 282.416 312.038L281.9 311.329L282.735 311.057C283.287 310.878 283.588 310.286 283.409 309.734C283.23 309.183 282.639 308.88 282.086 309.059L281.251 309.331V308.453C281.251 307.873 280.781 307.402 280.201 307.402C279.621 307.402 279.15 307.873 279.15 308.453V309.331L278.315 309.059C277.762 308.88 277.171 309.183 276.992 309.734C276.813 310.286 277.114 310.878 277.666 311.057ZM272.017 307.402C271.437 307.402 270.966 307.873 270.966 308.453V309.331L270.131 309.059C269.579 308.88 268.987 309.183 268.808 309.734C268.629 310.286 268.93 310.878 269.482 311.057L270.317 311.329L269.801 312.038C269.46 312.508 269.564 313.165 270.033 313.506C270.48 313.83 271.163 313.738 271.501 313.273L272.017 312.563L272.533 313.273C272.856 313.719 273.526 313.85 274 313.506C274.469 313.165 274.573 312.508 274.232 312.038L273.716 311.329L274.551 311.057C275.103 310.878 275.404 310.286 275.225 309.734C275.046 309.183 274.455 308.88 273.902 309.059L273.067 309.331V308.453C273.067 307.873 272.597 307.402 272.017 307.402ZM288.385 307.402C287.805 307.402 287.335 307.873 287.335 308.453V309.331L286.5 309.059C285.948 308.88 285.355 309.183 285.176 309.734C284.997 310.286 285.299 310.878 285.851 311.057L286.685 311.329L286.169 312.038C285.828 312.508 285.933 313.165 286.402 313.506C286.847 313.829 287.526 313.745 287.869 313.273L288.385 312.563L288.901 313.273C289.225 313.719 289.896 313.848 290.368 313.506C290.837 313.165 290.941 312.508 290.6 312.038L290.085 311.328L290.919 311.057C291.471 310.878 291.772 310.286 291.593 309.734C291.414 309.183 290.824 308.88 290.27 309.059L289.435 309.331V308.453C289.435 307.873 288.965 307.402 288.385 307.402Z" fill="white"/>
<path d="M292.913 303.202H280.309C279.729 303.202 279.259 303.672 279.259 304.252C279.259 304.832 279.729 305.303 280.309 305.303H292.913C293.492 305.303 293.963 305.774 293.963 306.353V314.755C293.963 315.334 293.492 315.806 292.913 315.806H278.293C277.981 315.806 277.685 315.944 277.486 316.184L276.108 317.84L274.731 316.184C274.531 315.944 274.235 315.806 273.923 315.806H259.303C258.724 315.806 258.253 315.334 258.253 314.755V306.353C258.253 305.774 258.724 305.303 259.303 305.303H271.907C272.487 305.303 272.957 304.832 272.957 304.252C272.957 303.672 272.487 303.202 271.907 303.202H259.303C257.566 303.202 256.152 304.616 256.152 306.353V314.755C256.152 316.493 257.566 317.906 259.303 317.906H273.431C273.431 317.906 275.299 320.151 275.301 320.154C275.716 320.652 276.501 320.652 276.915 320.154L278.785 317.906H292.913C294.65 317.906 296.064 316.493 296.064 314.755V306.353C296.064 304.616 294.65 303.202 292.913 303.202Z" fill="white"/>
<path d="M276.109 305.303C276.689 305.303 277.159 304.833 277.159 304.252C277.159 303.672 276.689 303.202 276.109 303.202C275.529 303.202 275.059 303.672 275.059 304.252C275.059 304.833 275.529 305.303 276.109 305.303Z" fill="white"/>
<path d="M457.969 306C457.969 294.799 457.969 289.198 460.149 284.92C462.066 281.157 465.126 278.097 468.889 276.18C473.167 274 478.768 274 489.969 274H515.969C527.17 274 532.77 274 537.049 276.18C540.812 278.097 543.871 281.157 545.789 284.92C547.969 289.198 547.969 294.799 547.969 306V332C547.969 343.201 547.969 348.802 545.789 353.08C543.871 356.843 540.812 359.903 537.049 361.82C532.77 364 527.17 364 515.969 364H489.969C478.768 364 473.167 364 468.889 361.82C465.126 359.903 462.066 356.843 460.149 353.08C457.969 348.802 457.969 343.201 457.969 332V306Z" fill="#034737"/>
<path d="M496.75 319V310.667" stroke="white" stroke-width="2.70833" stroke-linecap="round" stroke-linejoin="round"/>
<path d="M509.25 319V314.833" stroke="white" stroke-width="2.70833" stroke-linecap="round" stroke-linejoin="round"/>
<path d="M503 319V316.917" stroke="white" stroke-width="2.70833" stroke-linecap="round" stroke-linejoin="round"/>
<path d="M484.25 302.333H521.75" stroke="white" stroke-width="2.70833" stroke-linecap="round" stroke-linejoin="round"/>
<path d="M486.333 302.333V323.167C486.333 325.468 488.199 327.333 490.5 327.333H515.5C517.801 327.333 519.667 325.468 519.667 323.167V302.333" stroke="white" stroke-width="2.70833" stroke-linecap="round" stroke-linejoin="round"/>
<path d="M503 327.333V335.667" stroke="white" stroke-width="2.70833" stroke-linecap="round" stroke-linejoin="round"/>
<path d="M496.75 335.667H509.25" stroke="white" stroke-width="2.70833" stroke-linecap="round" stroke-linejoin="round"/>
<path d="M243.712 386.757L241.388 382.767H239.848V386.757H238.574V376.999H241.724C242.461 376.999 243.082 377.125 243.586 377.377C244.099 377.629 244.482 377.97 244.734 378.399C244.986 378.828 245.112 379.318 245.112 379.869C245.112 380.541 244.916 381.134 244.524 381.647C244.141 382.16 243.562 382.501 242.788 382.669L245.238 386.757H243.712ZM239.848 381.745H241.724C242.414 381.745 242.932 381.577 243.278 381.241C243.623 380.896 243.796 380.438 243.796 379.869C243.796 379.29 243.623 378.842 243.278 378.525C242.942 378.208 242.424 378.049 241.724 378.049H239.848V381.745ZM254.133 382.627C254.133 382.87 254.119 383.126 254.091 383.397H247.959C248.006 384.153 248.262 384.746 248.729 385.175C249.205 385.595 249.779 385.805 250.451 385.805C251.002 385.805 251.459 385.679 251.823 385.427C252.196 385.166 252.458 384.82 252.607 384.391H253.979C253.774 385.128 253.363 385.73 252.747 386.197C252.131 386.654 251.366 386.883 250.451 386.883C249.723 386.883 249.07 386.72 248.491 386.393C247.922 386.066 247.474 385.604 247.147 385.007C246.82 384.4 246.657 383.7 246.657 382.907C246.657 382.114 246.816 381.418 247.133 380.821C247.45 380.224 247.894 379.766 248.463 379.449C249.042 379.122 249.704 378.959 250.451 378.959C251.179 378.959 251.823 379.118 252.383 379.435C252.943 379.752 253.372 380.191 253.671 380.751C253.979 381.302 254.133 381.927 254.133 382.627ZM252.817 382.361C252.817 381.876 252.71 381.46 252.495 381.115C252.28 380.76 251.986 380.494 251.613 380.317C251.249 380.13 250.843 380.037 250.395 380.037C249.751 380.037 249.2 380.242 248.743 380.653C248.295 381.064 248.038 381.633 247.973 382.361H252.817ZM257.131 380.499C257.383 380.06 257.756 379.696 258.251 379.407C258.755 379.108 259.338 378.959 260.001 378.959C260.682 378.959 261.298 379.122 261.849 379.449C262.409 379.776 262.847 380.238 263.165 380.835C263.482 381.423 263.641 382.109 263.641 382.893C263.641 383.668 263.482 384.358 263.165 384.965C262.847 385.572 262.409 386.043 261.849 386.379C261.298 386.715 260.682 386.883 260.001 386.883C259.347 386.883 258.769 386.738 258.265 386.449C257.77 386.15 257.392 385.782 257.131 385.343V390.397H255.857V379.085H257.131V380.499ZM262.339 382.893C262.339 382.314 262.222 381.81 261.989 381.381C261.755 380.952 261.438 380.625 261.037 380.401C260.645 380.177 260.211 380.065 259.735 380.065C259.268 380.065 258.834 380.182 258.433 380.415C258.041 380.639 257.723 380.97 257.481 381.409C257.247 381.838 257.131 382.338 257.131 382.907C257.131 383.486 257.247 383.994 257.481 384.433C257.723 384.862 258.041 385.194 258.433 385.427C258.834 385.651 259.268 385.763 259.735 385.763C260.211 385.763 260.645 385.651 261.037 385.427C261.438 385.194 261.755 384.862 261.989 384.433C262.222 383.994 262.339 383.481 262.339 382.893ZM272.164 379.085V386.757H270.89V385.623C270.647 386.015 270.306 386.323 269.868 386.547C269.438 386.762 268.962 386.869 268.44 386.869C267.842 386.869 267.306 386.748 266.83 386.505C266.354 386.253 265.976 385.88 265.696 385.385C265.425 384.89 265.29 384.288 265.29 383.579V379.085H266.55V383.411C266.55 384.167 266.741 384.75 267.124 385.161C267.506 385.562 268.029 385.763 268.692 385.763C269.373 385.763 269.91 385.553 270.302 385.133C270.694 384.713 270.89 384.102 270.89 383.299V379.085H272.164ZM275.911 380.135V384.657C275.911 385.03 275.99 385.296 276.149 385.455C276.307 385.604 276.583 385.679 276.975 385.679H277.913V386.757H276.765C276.055 386.757 275.523 386.594 275.169 386.267C274.814 385.94 274.637 385.404 274.637 384.657V380.135H273.643V379.085H274.637V377.153H275.911V379.085H277.913V380.135H275.911ZM279.022 382.893C279.022 382.109 279.181 381.423 279.498 380.835C279.816 380.238 280.25 379.776 280.8 379.449C281.36 379.122 281.981 378.959 282.662 378.959C283.334 378.959 283.918 379.104 284.412 379.393C284.907 379.682 285.276 380.046 285.518 380.485V379.085H286.806V386.757H285.518V385.329C285.266 385.777 284.888 386.15 284.384 386.449C283.89 386.738 283.311 386.883 282.648 386.883C281.967 386.883 281.351 386.715 280.8 386.379C280.25 386.043 279.816 385.572 279.498 384.965C279.181 384.358 279.022 383.668 279.022 382.893ZM285.518 382.907C285.518 382.328 285.402 381.824 285.168 381.395C284.935 380.966 284.618 380.639 284.216 380.415C283.824 380.182 283.39 380.065 282.914 380.065C282.438 380.065 282.004 380.177 281.612 380.401C281.22 380.625 280.908 380.952 280.674 381.381C280.441 381.81 280.324 382.314 280.324 382.893C280.324 383.481 280.441 383.994 280.674 384.433C280.908 384.862 281.22 385.194 281.612 385.427C282.004 385.651 282.438 385.763 282.914 385.763C283.39 385.763 283.824 385.651 284.216 385.427C284.618 385.194 284.935 384.862 285.168 384.433C285.402 383.994 285.518 383.486 285.518 382.907ZM290.555 380.135V384.657C290.555 385.03 290.635 385.296 290.793 385.455C290.952 385.604 291.227 385.679 291.619 385.679H292.557V386.757H291.409C290.7 386.757 290.168 386.594 289.813 386.267C289.459 385.94 289.281 385.404 289.281 384.657V380.135H288.287V379.085H289.281V377.153H290.555V379.085H292.557V380.135H290.555ZM294.801 377.839C294.558 377.839 294.353 377.755 294.185 377.587C294.017 377.419 293.933 377.214 293.933 376.971C293.933 376.728 294.017 376.523 294.185 376.355C294.353 376.187 294.558 376.103 294.801 376.103C295.034 376.103 295.23 376.187 295.389 376.355C295.557 376.523 295.641 376.728 295.641 376.971C295.641 377.214 295.557 377.419 295.389 377.587C295.23 377.755 295.034 377.839 294.801 377.839ZM295.417 379.085V386.757H294.143V379.085H295.417ZM300.976 386.883C300.258 386.883 299.604 386.72 299.016 386.393C298.438 386.066 297.98 385.604 297.644 385.007C297.318 384.4 297.154 383.7 297.154 382.907C297.154 382.123 297.322 381.432 297.658 380.835C298.004 380.228 298.47 379.766 299.058 379.449C299.646 379.122 300.304 378.959 301.032 378.959C301.76 378.959 302.418 379.122 303.006 379.449C303.594 379.766 304.056 380.224 304.392 380.821C304.738 381.418 304.91 382.114 304.91 382.907C304.91 383.7 304.733 384.4 304.378 385.007C304.033 385.604 303.562 386.066 302.964 386.393C302.367 386.72 301.704 386.883 300.976 386.883ZM300.976 385.763C301.434 385.763 301.863 385.656 302.264 385.441C302.666 385.226 302.988 384.904 303.23 384.475C303.482 384.046 303.608 383.523 303.608 382.907C303.608 382.291 303.487 381.768 303.244 381.339C303.002 380.91 302.684 380.592 302.292 380.387C301.9 380.172 301.476 380.065 301.018 380.065C300.552 380.065 300.122 380.172 299.73 380.387C299.348 380.592 299.04 380.91 298.806 381.339C298.573 381.768 298.456 382.291 298.456 382.907C298.456 383.532 298.568 384.06 298.792 384.489C299.026 384.918 299.334 385.24 299.716 385.455C300.099 385.66 300.519 385.763 300.976 385.763ZM310.365 378.945C311.299 378.945 312.055 379.23 312.633 379.799C313.212 380.359 313.501 381.171 313.501 382.235V386.757H312.241V382.417C312.241 381.652 312.05 381.068 311.667 380.667C311.285 380.256 310.762 380.051 310.099 380.051C309.427 380.051 308.891 380.261 308.489 380.681C308.097 381.101 307.901 381.712 307.901 382.515V386.757H306.627V379.085H307.901V380.177C308.153 379.785 308.494 379.482 308.923 379.267C309.362 379.052 309.843 378.945 310.365 378.945ZM253.345 394.945C253.942 394.945 254.474 395.071 254.941 395.323C255.408 395.566 255.776 395.934 256.047 396.429C256.318 396.924 256.453 397.526 256.453 398.235V402.757H255.193V398.417C255.193 397.652 255.002 397.068 254.619 396.667C254.246 396.256 253.737 396.051 253.093 396.051C252.43 396.051 251.903 396.266 251.511 396.695C251.119 397.115 250.923 397.726 250.923 398.529V402.757H249.663V398.417C249.663 397.652 249.472 397.068 249.089 396.667C248.716 396.256 248.207 396.051 247.563 396.051C246.9 396.051 246.373 396.266 245.981 396.695C245.589 397.115 245.393 397.726 245.393 398.529V402.757H244.119V395.085H245.393V396.191C245.645 395.79 245.981 395.482 246.401 395.267C246.83 395.052 247.302 394.945 247.815 394.945C248.459 394.945 249.028 395.09 249.523 395.379C250.018 395.668 250.386 396.093 250.629 396.653C250.844 396.112 251.198 395.692 251.693 395.393C252.188 395.094 252.738 394.945 253.345 394.945ZM258.109 398.893C258.109 398.109 258.267 397.423 258.585 396.835C258.902 396.238 259.336 395.776 259.887 395.449C260.447 395.122 261.067 394.959 261.749 394.959C262.421 394.959 263.004 395.104 263.499 395.393C263.993 395.682 264.362 396.046 264.605 396.485V395.085H265.893V402.757H264.605V401.329C264.353 401.777 263.975 402.15 263.471 402.449C262.976 402.738 262.397 402.883 261.735 402.883C261.053 402.883 260.437 402.715 259.887 402.379C259.336 402.043 258.902 401.572 258.585 400.965C258.267 400.358 258.109 399.668 258.109 398.893ZM264.605 398.907C264.605 398.328 264.488 397.824 264.255 397.395C264.021 396.966 263.704 396.639 263.303 396.415C262.911 396.182 262.477 396.065 262.001 396.065C261.525 396.065 261.091 396.177 260.699 396.401C260.307 396.625 259.994 396.952 259.761 397.381C259.527 397.81 259.411 398.314 259.411 398.893C259.411 399.481 259.527 399.994 259.761 400.433C259.994 400.862 260.307 401.194 260.699 401.427C261.091 401.651 261.525 401.763 262.001 401.763C262.477 401.763 262.911 401.651 263.303 401.427C263.704 401.194 264.021 400.862 264.255 400.433C264.488 399.994 264.605 399.486 264.605 398.907ZM271.826 394.945C272.759 394.945 273.515 395.23 274.094 395.799C274.672 396.359 274.962 397.171 274.962 398.235V402.757H273.702V398.417C273.702 397.652 273.51 397.068 273.128 396.667C272.745 396.256 272.222 396.051 271.56 396.051C270.888 396.051 270.351 396.261 269.95 396.681C269.558 397.101 269.362 397.712 269.362 398.515V402.757H268.088V395.085H269.362V396.177C269.614 395.785 269.954 395.482 270.384 395.267C270.822 395.052 271.303 394.945 271.826 394.945ZM276.609 398.893C276.609 398.109 276.768 397.423 277.085 396.835C277.402 396.238 277.836 395.776 278.387 395.449C278.947 395.122 279.568 394.959 280.249 394.959C280.921 394.959 281.504 395.104 281.999 395.393C282.494 395.682 282.862 396.046 283.105 396.485V395.085H284.393V402.757H283.105V401.329C282.853 401.777 282.475 402.15 281.971 402.449C281.476 402.738 280.898 402.883 280.235 402.883C279.554 402.883 278.938 402.715 278.387 402.379C277.836 402.043 277.402 401.572 277.085 400.965C276.768 400.358 276.609 399.668 276.609 398.893ZM283.105 398.907C283.105 398.328 282.988 397.824 282.755 397.395C282.522 396.966 282.204 396.639 281.803 396.415C281.411 396.182 280.977 396.065 280.501 396.065C280.025 396.065 279.591 396.177 279.199 396.401C278.807 396.625 278.494 396.952 278.261 397.381C278.028 397.81 277.911 398.314 277.911 398.893C277.911 399.481 278.028 399.994 278.261 400.433C278.494 400.862 278.807 401.194 279.199 401.427C279.591 401.651 280.025 401.763 280.501 401.763C280.977 401.763 281.411 401.651 281.803 401.427C282.204 401.194 282.522 400.862 282.755 400.433C282.988 399.994 283.105 399.486 283.105 398.907ZM289.752 394.959C290.414 394.959 290.993 395.104 291.488 395.393C291.992 395.682 292.365 396.046 292.608 396.485V395.085H293.896V402.925C293.896 403.625 293.746 404.246 293.448 404.787C293.149 405.338 292.72 405.767 292.16 406.075C291.609 406.383 290.965 406.537 290.228 406.537C289.22 406.537 288.38 406.299 287.708 405.823C287.036 405.347 286.639 404.698 286.518 403.877H287.778C287.918 404.344 288.207 404.717 288.646 404.997C289.084 405.286 289.612 405.431 290.228 405.431C290.928 405.431 291.497 405.212 291.936 404.773C292.384 404.334 292.608 403.718 292.608 402.925V401.315C292.356 401.763 291.982 402.136 291.488 402.435C290.993 402.734 290.414 402.883 289.752 402.883C289.07 402.883 288.45 402.715 287.89 402.379C287.339 402.043 286.905 401.572 286.588 400.965C286.27 400.358 286.112 399.668 286.112 398.893C286.112 398.109 286.27 397.423 286.588 396.835C286.905 396.238 287.339 395.776 287.89 395.449C288.45 395.122 289.07 394.959 289.752 394.959ZM292.608 398.907C292.608 398.328 292.491 397.824 292.258 397.395C292.024 396.966 291.707 396.639 291.306 396.415C290.914 396.182 290.48 396.065 290.004 396.065C289.528 396.065 289.094 396.177 288.702 396.401C288.31 396.625 287.997 396.952 287.764 397.381C287.53 397.81 287.414 398.314 287.414 398.893C287.414 399.481 287.53 399.994 287.764 400.433C287.997 400.862 288.31 401.194 288.702 401.427C289.094 401.651 289.528 401.763 290.004 401.763C290.48 401.763 290.914 401.651 291.306 401.427C291.707 401.194 292.024 400.862 292.258 400.433C292.491 399.994 292.608 399.486 292.608 398.907ZM303.091 398.627C303.091 398.87 303.077 399.126 303.049 399.397H296.917C296.963 400.153 297.22 400.746 297.687 401.175C298.163 401.595 298.737 401.805 299.409 401.805C299.959 401.805 300.417 401.679 300.781 401.427C301.154 401.166 301.415 400.82 301.565 400.391H302.937C302.731 401.128 302.321 401.73 301.705 402.197C301.089 402.654 300.323 402.883 299.409 402.883C298.681 402.883 298.027 402.72 297.449 402.393C296.879 402.066 296.431 401.604 296.105 401.007C295.778 400.4 295.615 399.7 295.615 398.907C295.615 398.114 295.773 397.418 296.091 396.821C296.408 396.224 296.851 395.766 297.421 395.449C297.999 395.122 298.662 394.959 299.409 394.959C300.137 394.959 300.781 395.118 301.341 395.435C301.901 395.752 302.33 396.191 302.629 396.751C302.937 397.302 303.091 397.927 303.091 398.627ZM301.775 398.361C301.775 397.876 301.667 397.46 301.453 397.115C301.238 396.76 300.944 396.494 300.571 396.317C300.207 396.13 299.801 396.037 299.353 396.037C298.709 396.037 298.158 396.242 297.701 396.653C297.253 397.064 296.996 397.633 296.931 398.361H301.775ZM306.088 396.331C306.312 395.892 306.63 395.552 307.04 395.309C307.46 395.066 307.969 394.945 308.566 394.945V396.261H308.23C306.802 396.261 306.088 397.036 306.088 398.585V402.757H304.814V395.085H306.088V396.331Z" fill="#666666"/>
<path d="M461.325 387.098C460.681 387.098 460.102 386.986 459.589 386.762C459.085 386.529 458.688 386.211 458.399 385.81C458.109 385.399 457.96 384.928 457.951 384.396H459.309C459.355 384.853 459.542 385.241 459.869 385.558C460.205 385.866 460.69 386.02 461.325 386.02C461.931 386.02 462.407 385.871 462.753 385.572C463.107 385.264 463.285 384.872 463.285 384.396C463.285 384.023 463.182 383.719 462.977 383.486C462.771 383.253 462.515 383.075 462.207 382.954C461.899 382.833 461.483 382.702 460.961 382.562C460.317 382.394 459.799 382.226 459.407 382.058C459.024 381.89 458.693 381.629 458.413 381.274C458.142 380.91 458.007 380.425 458.007 379.818C458.007 379.286 458.142 378.815 458.413 378.404C458.683 377.993 459.061 377.676 459.547 377.452C460.041 377.228 460.606 377.116 461.241 377.116C462.155 377.116 462.902 377.345 463.481 377.802C464.069 378.259 464.4 378.866 464.475 379.622H463.075C463.028 379.249 462.832 378.922 462.487 378.642C462.141 378.353 461.684 378.208 461.115 378.208C460.583 378.208 460.149 378.348 459.813 378.628C459.477 378.899 459.309 379.281 459.309 379.776C459.309 380.131 459.407 380.42 459.603 380.644C459.808 380.868 460.055 381.041 460.345 381.162C460.643 381.274 461.059 381.405 461.591 381.554C462.235 381.731 462.753 381.909 463.145 382.086C463.537 382.254 463.873 382.52 464.153 382.884C464.433 383.239 464.573 383.724 464.573 384.34C464.573 384.816 464.447 385.264 464.195 385.684C463.943 386.104 463.569 386.445 463.075 386.706C462.58 386.967 461.997 387.098 461.325 387.098ZM469.836 387.126C469.117 387.126 468.464 386.963 467.876 386.636C467.297 386.309 466.84 385.847 466.504 385.25C466.177 384.643 466.014 383.943 466.014 383.15C466.014 382.366 466.182 381.675 466.518 381.078C466.863 380.471 467.33 380.009 467.918 379.692C468.506 379.365 469.164 379.202 469.892 379.202C470.62 379.202 471.278 379.365 471.866 379.692C472.454 380.009 472.916 380.467 473.252 381.064C473.597 381.661 473.77 382.357 473.77 383.15C473.77 383.943 473.592 384.643 473.238 385.25C472.892 385.847 472.421 386.309 471.824 386.636C471.226 386.963 470.564 387.126 469.836 387.126ZM469.836 386.006C470.293 386.006 470.722 385.899 471.124 385.684C471.525 385.469 471.847 385.147 472.09 384.718C472.342 384.289 472.468 383.766 472.468 383.15C472.468 382.534 472.346 382.011 472.104 381.582C471.861 381.153 471.544 380.835 471.152 380.63C470.76 380.415 470.335 380.308 469.878 380.308C469.411 380.308 468.982 380.415 468.59 380.63C468.207 380.835 467.899 381.153 467.666 381.582C467.432 382.011 467.316 382.534 467.316 383.15C467.316 383.775 467.428 384.303 467.652 384.732C467.885 385.161 468.193 385.483 468.576 385.698C468.958 385.903 469.378 386.006 469.836 386.006ZM475.011 383.15C475.011 382.357 475.169 381.666 475.487 381.078C475.804 380.481 476.243 380.019 476.803 379.692C477.372 379.365 478.021 379.202 478.749 379.202C479.691 379.202 480.466 379.431 481.073 379.888C481.689 380.345 482.095 380.98 482.291 381.792H480.919C480.788 381.325 480.531 380.957 480.149 380.686C479.775 380.415 479.309 380.28 478.749 380.28C478.021 380.28 477.433 380.532 476.985 381.036C476.537 381.531 476.313 382.235 476.313 383.15C476.313 384.074 476.537 384.788 476.985 385.292C477.433 385.796 478.021 386.048 478.749 386.048C479.309 386.048 479.775 385.917 480.149 385.656C480.522 385.395 480.779 385.021 480.919 384.536H482.291C482.085 385.32 481.675 385.95 481.059 386.426C480.443 386.893 479.673 387.126 478.749 387.126C478.021 387.126 477.372 386.963 476.803 386.636C476.243 386.309 475.804 385.847 475.487 385.25C475.169 384.653 475.011 383.953 475.011 383.15ZM484.691 378.082C484.448 378.082 484.243 377.998 484.075 377.83C483.907 377.662 483.823 377.457 483.823 377.214C483.823 376.971 483.907 376.766 484.075 376.598C484.243 376.43 484.448 376.346 484.691 376.346C484.924 376.346 485.12 376.43 485.279 376.598C485.447 376.766 485.531 376.971 485.531 377.214C485.531 377.457 485.447 377.662 485.279 377.83C485.12 377.998 484.924 378.082 484.691 378.082ZM485.307 379.328V387H484.033V379.328H485.307ZM487.044 383.136C487.044 382.352 487.203 381.666 487.52 381.078C487.837 380.481 488.271 380.019 488.822 379.692C489.382 379.365 490.003 379.202 490.684 379.202C491.356 379.202 491.939 379.347 492.434 379.636C492.929 379.925 493.297 380.289 493.54 380.728V379.328H494.828V387H493.54V385.572C493.288 386.02 492.91 386.393 492.406 386.692C491.911 386.981 491.333 387.126 490.67 387.126C489.989 387.126 489.373 386.958 488.822 386.622C488.271 386.286 487.837 385.815 487.52 385.208C487.203 384.601 487.044 383.911 487.044 383.136ZM493.54 383.15C493.54 382.571 493.423 382.067 493.19 381.638C492.957 381.209 492.639 380.882 492.238 380.658C491.846 380.425 491.412 380.308 490.936 380.308C490.46 380.308 490.026 380.42 489.634 380.644C489.242 380.868 488.929 381.195 488.696 381.624C488.463 382.053 488.346 382.557 488.346 383.136C488.346 383.724 488.463 384.237 488.696 384.676C488.929 385.105 489.242 385.437 489.634 385.67C490.026 385.894 490.46 386.006 490.936 386.006C491.412 386.006 491.846 385.894 492.238 385.67C492.639 385.437 492.957 385.105 493.19 384.676C493.423 384.237 493.54 383.729 493.54 383.15ZM498.297 376.64V387H497.023V376.64H498.297ZM513.511 379.188C514.108 379.188 514.64 379.314 515.107 379.566C515.573 379.809 515.942 380.177 516.213 380.672C516.483 381.167 516.619 381.769 516.619 382.478V387H515.359V382.66C515.359 381.895 515.167 381.311 514.785 380.91C514.411 380.499 513.903 380.294 513.259 380.294C512.596 380.294 512.069 380.509 511.677 380.938C511.285 381.358 511.089 381.969 511.089 382.772V387H509.829V382.66C509.829 381.895 509.637 381.311 509.255 380.91C508.881 380.499 508.373 380.294 507.729 380.294C507.066 380.294 506.539 380.509 506.147 380.938C505.755 381.358 505.559 381.969 505.559 382.772V387H504.285V379.328H505.559V380.434C505.811 380.033 506.147 379.725 506.567 379.51C506.996 379.295 507.467 379.188 507.981 379.188C508.625 379.188 509.194 379.333 509.689 379.622C510.183 379.911 510.552 380.336 510.795 380.896C511.009 380.355 511.364 379.935 511.859 379.636C512.353 379.337 512.904 379.188 513.511 379.188ZM525.75 382.87C525.75 383.113 525.736 383.369 525.708 383.64H519.576C519.623 384.396 519.88 384.989 520.346 385.418C520.822 385.838 521.396 386.048 522.068 386.048C522.619 386.048 523.076 385.922 523.44 385.67C523.814 385.409 524.075 385.063 524.224 384.634H525.596C525.391 385.371 524.98 385.973 524.364 386.44C523.748 386.897 522.983 387.126 522.068 387.126C521.34 387.126 520.687 386.963 520.108 386.636C519.539 386.309 519.091 385.847 518.764 385.25C518.438 384.643 518.274 383.943 518.274 383.15C518.274 382.357 518.433 381.661 518.75 381.064C519.068 380.467 519.511 380.009 520.08 379.692C520.659 379.365 521.322 379.202 522.068 379.202C522.796 379.202 523.44 379.361 524 379.678C524.56 379.995 524.99 380.434 525.288 380.994C525.596 381.545 525.75 382.17 525.75 382.87ZM524.434 382.604C524.434 382.119 524.327 381.703 524.112 381.358C523.898 381.003 523.604 380.737 523.23 380.56C522.866 380.373 522.46 380.28 522.012 380.28C521.368 380.28 520.818 380.485 520.36 380.896C519.912 381.307 519.656 381.876 519.59 382.604H524.434ZM526.998 383.136C526.998 382.352 527.157 381.666 527.474 381.078C527.791 380.481 528.225 380.019 528.776 379.692C529.336 379.365 529.961 379.202 530.652 379.202C531.249 379.202 531.805 379.342 532.318 379.622C532.831 379.893 533.223 380.252 533.494 380.7V376.64H534.782V387H533.494V385.558C533.242 386.015 532.869 386.393 532.374 386.692C531.879 386.981 531.301 387.126 530.638 387.126C529.957 387.126 529.336 386.958 528.776 386.622C528.225 386.286 527.791 385.815 527.474 385.208C527.157 384.601 526.998 383.911 526.998 383.136ZM533.494 383.15C533.494 382.571 533.377 382.067 533.144 381.638C532.911 381.209 532.593 380.882 532.192 380.658C531.8 380.425 531.366 380.308 530.89 380.308C530.414 380.308 529.98 380.42 529.588 380.644C529.196 380.868 528.883 381.195 528.65 381.624C528.417 382.053 528.3 382.557 528.3 383.136C528.3 383.724 528.417 384.237 528.65 384.676C528.883 385.105 529.196 385.437 529.588 385.67C529.98 385.894 530.414 386.006 530.89 386.006C531.366 386.006 531.8 385.894 532.192 385.67C532.593 385.437 532.911 385.105 533.144 384.676C533.377 384.237 533.494 383.729 533.494 383.15ZM537.635 378.082C537.392 378.082 537.187 377.998 537.019 377.83C536.851 377.662 536.767 377.457 536.767 377.214C536.767 376.971 536.851 376.766 537.019 376.598C537.187 376.43 537.392 376.346 537.635 376.346C537.868 376.346 538.064 376.43 538.223 376.598C538.391 376.766 538.475 376.971 538.475 377.214C538.475 377.457 538.391 377.662 538.223 377.83C538.064 377.998 537.868 378.082 537.635 378.082ZM538.251 379.328V387H536.977V379.328H538.251ZM539.988 383.136C539.988 382.352 540.147 381.666 540.464 381.078C540.782 380.481 541.216 380.019 541.766 379.692C542.326 379.365 542.947 379.202 543.628 379.202C544.3 379.202 544.884 379.347 545.378 379.636C545.873 379.925 546.242 380.289 546.484 380.728V379.328H547.772V387H546.484V385.572C546.232 386.02 545.854 386.393 545.35 386.692C544.856 386.981 544.277 387.126 543.614 387.126C542.933 387.126 542.317 386.958 541.766 386.622C541.216 386.286 540.782 385.815 540.464 385.208C540.147 384.601 539.988 383.911 539.988 383.136ZM546.484 383.15C546.484 382.571 546.368 382.067 546.134 381.638C545.901 381.209 545.584 380.882 545.182 380.658C544.79 380.425 544.356 380.308 543.88 380.308C543.404 380.308 542.97 380.42 542.578 380.644C542.186 380.868 541.874 381.195 541.64 381.624C541.407 382.053 541.29 382.557 541.29 383.136C541.29 383.724 541.407 384.237 541.64 384.676C541.874 385.105 542.186 385.437 542.578 385.67C542.97 385.894 543.404 386.006 543.88 386.006C544.356 386.006 544.79 385.894 545.182 385.67C545.584 385.437 545.901 385.105 546.134 384.676C546.368 384.237 546.484 383.729 546.484 383.15ZM471.647 399.136C471.647 398.352 471.806 397.666 472.123 397.078C472.44 396.481 472.874 396.019 473.425 395.692C473.985 395.365 474.606 395.202 475.287 395.202C475.959 395.202 476.542 395.347 477.037 395.636C477.532 395.925 477.9 396.289 478.143 396.728V395.328H479.431V403H478.143V401.572C477.891 402.02 477.513 402.393 477.009 402.692C476.514 402.981 475.936 403.126 475.273 403.126C474.592 403.126 473.976 402.958 473.425 402.622C472.874 402.286 472.44 401.815 472.123 401.208C471.806 400.601 471.647 399.911 471.647 399.136ZM478.143 399.15C478.143 398.571 478.026 398.067 477.793 397.638C477.56 397.209 477.242 396.882 476.841 396.658C476.449 396.425 476.015 396.308 475.539 396.308C475.063 396.308 474.629 396.42 474.237 396.644C473.845 396.868 473.532 397.195 473.299 397.624C473.066 398.053 472.949 398.557 472.949 399.136C472.949 399.724 473.066 400.237 473.299 400.676C473.532 401.105 473.845 401.437 474.237 401.67C474.629 401.894 475.063 402.006 475.539 402.006C476.015 402.006 476.449 401.894 476.841 401.67C477.242 401.437 477.56 401.105 477.793 400.676C478.026 400.237 478.143 399.729 478.143 399.15ZM485.364 395.188C486.297 395.188 487.053 395.473 487.632 396.042C488.21 396.602 488.5 397.414 488.5 398.478V403H487.24V398.66C487.24 397.895 487.048 397.311 486.666 396.91C486.283 396.499 485.76 396.294 485.098 396.294C484.426 396.294 483.889 396.504 483.488 396.924C483.096 397.344 482.9 397.955 482.9 398.758V403H481.626V395.328H482.9V396.42C483.152 396.028 483.492 395.725 483.922 395.51C484.36 395.295 484.841 395.188 485.364 395.188ZM490.147 399.136C490.147 398.352 490.306 397.666 490.623 397.078C490.94 396.481 491.374 396.019 491.925 395.692C492.485 395.365 493.106 395.202 493.787 395.202C494.459 395.202 495.042 395.347 495.537 395.636C496.032 395.925 496.4 396.289 496.643 396.728V395.328H497.931V403H496.643V401.572C496.391 402.02 496.013 402.393 495.509 402.692C495.014 402.981 494.436 403.126 493.773 403.126C493.092 403.126 492.476 402.958 491.925 402.622C491.374 402.286 490.94 401.815 490.623 401.208C490.306 400.601 490.147 399.911 490.147 399.136ZM496.643 399.15C496.643 398.571 496.526 398.067 496.293 397.638C496.06 397.209 495.742 396.882 495.341 396.658C494.949 396.425 494.515 396.308 494.039 396.308C493.563 396.308 493.129 396.42 492.737 396.644C492.345 396.868 492.032 397.195 491.799 397.624C491.566 398.053 491.449 398.557 491.449 399.136C491.449 399.724 491.566 400.237 491.799 400.676C492.032 401.105 492.345 401.437 492.737 401.67C493.129 401.894 493.563 402.006 494.039 402.006C494.515 402.006 494.949 401.894 495.341 401.67C495.742 401.437 496.06 401.105 496.293 400.676C496.526 400.237 496.643 399.729 496.643 399.15ZM501.4 392.64V403H500.126V392.64H501.4ZM510.221 395.328L505.601 406.612H504.285L505.797 402.916L502.703 395.328H504.117L506.525 401.544L508.905 395.328H510.221ZM513.098 396.378V400.9C513.098 401.273 513.177 401.539 513.336 401.698C513.494 401.847 513.77 401.922 514.162 401.922H515.1V403H513.952C513.242 403 512.71 402.837 512.356 402.51C512.001 402.183 511.824 401.647 511.824 400.9V396.378H510.83V395.328H511.824V393.396H513.098V395.328H515.1V396.378H513.098ZM517.343 394.082C517.101 394.082 516.895 393.998 516.727 393.83C516.559 393.662 516.475 393.457 516.475 393.214C516.475 392.971 516.559 392.766 516.727 392.598C516.895 392.43 517.101 392.346 517.343 392.346C517.577 392.346 517.773 392.43 517.931 392.598C518.099 392.766 518.183 392.971 518.183 393.214C518.183 393.457 518.099 393.662 517.931 393.83C517.773 393.998 517.577 394.082 517.343 394.082ZM517.959 395.328V403H516.685V395.328H517.959ZM519.697 399.15C519.697 398.357 519.855 397.666 520.173 397.078C520.49 396.481 520.929 396.019 521.489 395.692C522.058 395.365 522.707 395.202 523.435 395.202C524.377 395.202 525.152 395.431 525.759 395.888C526.375 396.345 526.781 396.98 526.977 397.792H525.605C525.474 397.325 525.217 396.957 524.835 396.686C524.461 396.415 523.995 396.28 523.435 396.28C522.707 396.28 522.119 396.532 521.671 397.036C521.223 397.531 520.999 398.235 520.999 399.15C520.999 400.074 521.223 400.788 521.671 401.292C522.119 401.796 522.707 402.048 523.435 402.048C523.995 402.048 524.461 401.917 524.835 401.656C525.208 401.395 525.465 401.021 525.605 400.536H526.977C526.771 401.32 526.361 401.95 525.745 402.426C525.129 402.893 524.359 403.126 523.435 403.126C522.707 403.126 522.058 402.963 521.489 402.636C520.929 402.309 520.49 401.847 520.173 401.25C519.855 400.653 519.697 399.953 519.697 399.15ZM531.435 403.126C530.847 403.126 530.319 403.028 529.853 402.832C529.386 402.627 529.017 402.347 528.747 401.992C528.476 401.628 528.327 401.213 528.299 400.746H529.615C529.652 401.129 529.829 401.441 530.147 401.684C530.473 401.927 530.898 402.048 531.421 402.048C531.906 402.048 532.289 401.941 532.569 401.726C532.849 401.511 532.989 401.241 532.989 400.914C532.989 400.578 532.839 400.331 532.541 400.172C532.242 400.004 531.78 399.841 531.155 399.682C530.585 399.533 530.119 399.383 529.755 399.234C529.4 399.075 529.092 398.847 528.831 398.548C528.579 398.24 528.453 397.839 528.453 397.344C528.453 396.952 528.569 396.593 528.803 396.266C529.036 395.939 529.367 395.683 529.797 395.496C530.226 395.3 530.716 395.202 531.267 395.202C532.116 395.202 532.802 395.417 533.325 395.846C533.847 396.275 534.127 396.863 534.165 397.61H532.891C532.863 397.209 532.699 396.887 532.401 396.644C532.111 396.401 531.719 396.28 531.225 396.28C530.767 396.28 530.403 396.378 530.133 396.574C529.862 396.77 529.727 397.027 529.727 397.344C529.727 397.596 529.806 397.806 529.965 397.974C530.133 398.133 530.338 398.263 530.581 398.366C530.833 398.459 531.178 398.567 531.617 398.688C532.167 398.837 532.615 398.987 532.961 399.136C533.306 399.276 533.6 399.491 533.843 399.78C534.095 400.069 534.225 400.447 534.235 400.914C534.235 401.334 534.118 401.712 533.885 402.048C533.651 402.384 533.32 402.65 532.891 402.846C532.471 403.033 531.985 403.126 531.435 403.126Z" fill="#666666"/>
<rect x="130" y="67" width="90" height="90" rx="20" fill="#034737"/>
<path d="M186.732 118.422L185.07 116.764C185.249 116.392 185.406 116.01 185.542 115.62H187.892C188.118 115.62 188.334 115.531 188.493 115.371C188.653 115.212 188.743 114.995 188.743 114.77V109.089C188.743 108.863 188.653 108.647 188.493 108.487C188.334 108.328 188.118 108.238 187.892 108.238H185.542C185.406 107.848 185.249 107.466 185.07 107.094L186.732 105.436C186.811 105.357 186.874 105.263 186.916 105.16C186.959 105.057 186.981 104.946 186.981 104.834C186.981 104.723 186.959 104.612 186.916 104.509C186.874 104.405 186.811 104.312 186.732 104.233L182.715 100.214C182.635 100.136 182.541 100.073 182.437 100.031C182.334 99.9885 182.223 99.9671 182.111 99.9677C181.886 99.9676 181.671 100.056 181.512 100.214L179.854 101.877C179.482 101.699 179.1 101.541 178.71 101.405V99.0535C178.71 98.828 178.621 98.6116 178.461 98.4522C178.302 98.2927 178.085 98.2031 177.86 98.2031H172.181C171.955 98.2031 171.739 98.2927 171.579 98.4522C171.42 98.6116 171.33 98.828 171.33 99.0535V101.405C170.941 101.541 170.559 101.699 170.187 101.877L168.529 100.214C168.366 100.061 168.151 99.975 167.928 99.975C167.704 99.975 167.489 100.061 167.326 100.214L163.309 104.233C163.23 104.312 163.167 104.405 163.124 104.509C163.082 104.612 163.06 104.723 163.06 104.834C163.06 104.946 163.082 105.057 163.124 105.16C163.167 105.263 163.23 105.357 163.309 105.436L164.971 107.094C164.792 107.466 164.634 107.848 164.499 108.238H162.148C161.923 108.238 161.707 108.328 161.547 108.487C161.388 108.647 161.298 108.863 161.298 109.089V114.77C161.298 114.995 161.388 115.212 161.547 115.371C161.707 115.531 161.923 115.62 162.148 115.62H164.499C164.634 116.01 164.792 116.392 164.971 116.764L163.309 118.422C163.23 118.501 163.167 118.595 163.124 118.698C163.082 118.802 163.06 118.912 163.06 119.024C163.06 119.136 163.082 119.246 163.124 119.35C163.167 119.453 163.23 119.547 163.309 119.626L167.326 123.644C167.405 123.723 167.5 123.785 167.603 123.828C167.707 123.87 167.818 123.891 167.93 123.891C168.154 123.891 168.37 123.802 168.529 123.644L170.187 121.981C170.559 122.16 170.941 122.317 171.33 122.453V124.805C171.33 125.03 171.42 125.247 171.579 125.406C171.739 125.566 171.955 125.655 172.181 125.655H177.86C178.085 125.655 178.302 125.566 178.461 125.406C178.621 125.247 178.71 125.03 178.71 124.805V122.453C179.1 122.317 179.482 122.16 179.854 121.981L181.512 123.644C181.674 123.798 181.889 123.883 182.113 123.883C182.337 123.883 182.552 123.798 182.715 123.644L186.732 119.626C186.811 119.547 186.874 119.453 186.916 119.35C186.959 119.246 186.981 119.136 186.981 119.024C186.981 118.912 186.959 118.802 186.916 118.698C186.874 118.595 186.811 118.501 186.732 118.422ZM182.111 121.824L180.615 120.327C180.484 120.197 180.315 120.114 180.132 120.088C179.95 120.063 179.764 120.098 179.603 120.187C178.977 120.533 178.314 120.807 177.626 121.003C177.449 121.054 177.293 121.161 177.182 121.309C177.07 121.456 177.01 121.635 177.01 121.82V123.946H173.031V121.82C173.031 121.635 172.97 121.456 172.859 121.309C172.748 121.161 172.592 121.054 172.414 121.003C171.727 120.807 171.064 120.533 170.438 120.187C170.277 120.098 170.091 120.063 169.908 120.088C169.726 120.114 169.557 120.197 169.426 120.327L167.93 121.837L165.116 119.022L166.612 117.525C166.742 117.394 166.826 117.225 166.851 117.043C166.876 116.86 166.842 116.674 166.752 116.513C166.405 115.887 166.132 115.224 165.936 114.536C165.885 114.358 165.778 114.202 165.631 114.091C165.484 113.98 165.304 113.92 165.12 113.919H162.994V109.939H165.12C165.304 109.939 165.484 109.879 165.631 109.767C165.778 109.656 165.885 109.5 165.936 109.323C166.132 108.634 166.405 107.971 166.752 107.345C166.842 107.184 166.876 106.998 166.851 106.816C166.826 106.633 166.742 106.464 166.612 106.333L165.116 104.837L167.93 102.022L169.426 103.518C169.557 103.648 169.726 103.732 169.908 103.757C170.091 103.783 170.277 103.748 170.438 103.659C171.064 103.313 171.727 103.039 172.414 102.842C172.592 102.791 172.748 102.684 172.859 102.537C172.97 102.39 173.031 102.21 173.031 102.026V99.8997H177.01V102.026C177.01 102.21 177.07 102.39 177.182 102.537C177.293 102.684 177.449 102.791 177.626 102.842C178.314 103.039 178.977 103.313 179.603 103.659C179.764 103.748 179.95 103.783 180.132 103.757C180.315 103.732 180.484 103.648 180.615 103.518L182.111 102.022L184.925 104.837L183.429 106.333C183.299 106.464 183.215 106.633 183.19 106.816C183.164 106.998 183.199 107.184 183.288 107.345C183.635 107.971 183.909 108.634 184.105 109.323C184.155 109.5 184.262 109.656 184.41 109.767C184.557 109.879 184.736 109.939 184.921 109.939H187.046V113.919H184.921C184.736 113.92 184.557 113.98 184.41 114.091C184.262 114.202 184.155 114.358 184.105 114.536C183.909 115.224 183.635 115.887 183.288 116.513C183.199 116.674 183.164 116.86 183.19 117.043C183.215 117.225 183.299 117.394 183.429 117.525L184.925 119.022L182.111 121.824ZM175.02 104.126C173.478 104.126 171.969 104.584 170.687 105.441C169.404 106.299 168.404 107.517 167.814 108.943C167.223 110.369 167.069 111.938 167.37 113.451C167.671 114.965 168.414 116.355 169.504 117.447C170.595 118.538 171.985 119.281 173.499 119.582C175.012 119.883 176.58 119.729 178.005 119.138C179.431 118.547 180.649 117.547 181.506 116.264C182.363 114.981 182.821 113.472 182.821 111.929C182.819 109.86 181.996 107.877 180.534 106.414C179.071 104.951 177.088 104.129 175.02 104.126ZM175.02 118.031C173.814 118.031 172.634 117.673 171.631 117.003C170.628 116.332 169.846 115.379 169.385 114.264C168.923 113.149 168.802 111.922 169.037 110.739C169.273 109.555 169.854 108.468 170.707 107.615C171.56 106.761 172.647 106.18 173.83 105.945C175.014 105.709 176.24 105.83 177.355 106.292C178.469 106.754 179.422 107.536 180.092 108.539C180.763 109.543 181.12 110.722 181.12 111.929C181.118 113.547 180.475 115.098 179.331 116.241C178.188 117.385 176.637 118.029 175.02 118.031ZM195 111.929C195 108.301 194.012 104.741 192.143 101.631C190.273 98.5215 187.593 95.9796 184.389 94.2782C181.185 92.5767 177.578 91.7799 173.956 91.9732C170.334 92.1665 166.832 93.3426 163.827 95.3753C163.103 94.7994 162.203 94.4887 161.277 94.4951C160.498 94.494 159.734 94.7153 159.076 95.1332C158.418 95.5511 157.893 96.1481 157.563 96.8541C157.233 97.5601 157.111 98.3458 157.211 99.1188C157.312 99.8918 157.631 100.62 158.131 101.218C155.673 105.076 154.612 109.662 155.127 114.208C155.642 118.754 157.7 122.986 160.959 126.197C164.218 129.408 168.479 131.403 173.031 131.85C177.584 132.296 182.151 131.166 185.971 128.649C186.757 129.295 187.755 129.626 188.771 129.576C189.786 129.526 190.748 129.1 191.467 128.38C192.185 127.661 192.611 126.699 192.66 125.683C192.709 124.666 192.378 123.668 191.731 122.883C193.871 119.631 195.008 115.822 195 111.929ZM161.298 96.196C161.934 96.196 162.544 96.4487 162.993 96.8985C163.443 97.3482 163.696 97.9582 163.696 98.5943C163.696 99.2303 163.443 99.8403 162.993 100.29C162.544 100.74 161.934 100.993 161.298 100.993C160.663 100.989 160.055 100.735 159.607 100.286C159.158 99.8374 158.904 99.2293 158.901 98.5943C158.902 97.9586 159.155 97.3492 159.604 96.8997C160.053 96.4502 160.663 96.1971 161.298 96.196ZM175.02 130.214C171.761 130.214 168.56 129.343 165.75 127.69C162.94 126.036 160.624 123.662 159.04 120.812C157.457 117.962 156.664 114.74 156.744 111.48C156.824 108.22 157.774 105.041 159.496 102.272H159.538C159.664 102.336 159.793 102.391 159.925 102.438C160.053 102.481 160.18 102.519 160.312 102.553L160.435 102.579C160.537 102.598 160.639 102.615 160.741 102.63H160.865C161.006 102.647 161.148 102.655 161.29 102.655C162.376 102.654 163.418 102.222 164.186 101.453C164.954 100.685 165.386 99.6428 165.388 98.556C165.388 98.4072 165.388 98.2583 165.362 98.1095C165.362 98.067 165.362 98.0245 165.362 97.982C165.345 97.8714 165.324 97.7608 165.298 97.6503L165.273 97.5312C165.235 97.3909 165.192 97.2506 165.141 97.106L165.116 97.0507C165.069 96.9317 165.013 96.8126 164.958 96.6978L164.933 96.6468C168.432 94.3145 172.629 93.2607 176.815 93.6628C181.001 94.065 184.92 95.8985 187.912 98.8544C190.904 101.81 192.786 105.708 193.24 109.89C193.694 114.071 192.693 118.282 190.405 121.811H190.354C190.238 121.752 190.119 121.7 189.997 121.654H189.958C189.819 121.605 189.677 121.564 189.533 121.531L189.414 121.501C189.308 121.501 189.202 121.458 189.095 121.446H188.972C188.831 121.429 188.689 121.421 188.547 121.42C187.46 121.421 186.419 121.854 185.651 122.622C184.882 123.39 184.45 124.432 184.449 125.519C184.449 125.661 184.458 125.803 184.475 125.945C184.475 125.987 184.475 126.03 184.475 126.072C184.475 126.178 184.509 126.285 184.53 126.391C184.538 126.431 184.548 126.471 184.56 126.51C184.592 126.654 184.633 126.796 184.683 126.935C184.681 126.952 184.681 126.969 184.683 126.986C184.725 127.104 184.775 127.219 184.832 127.331C184.838 127.35 184.847 127.368 184.857 127.386C181.916 129.251 178.502 130.232 175.02 130.214ZM188.551 127.867C187.932 127.84 187.347 127.576 186.919 127.129C186.49 126.682 186.25 126.086 186.25 125.466C186.25 124.846 186.49 124.251 186.919 123.803C187.347 123.356 187.932 123.092 188.551 123.066C189.117 123.067 189.664 123.265 190.099 123.627C190.48 123.943 190.754 124.37 190.884 124.848C191.014 125.326 190.992 125.833 190.823 126.299C190.653 126.764 190.344 127.166 189.937 127.449C189.531 127.732 189.047 127.882 188.551 127.879V127.867ZM179.038 108.953C179.117 109.032 179.179 109.125 179.222 109.229C179.265 109.332 179.287 109.443 179.287 109.554C179.287 109.666 179.265 109.777 179.222 109.88C179.179 109.983 179.117 110.077 179.038 110.156L174.302 114.906C174.223 114.985 174.129 115.048 174.026 115.09C173.923 115.133 173.812 115.155 173.7 115.155C173.589 115.155 173.478 115.133 173.375 115.09C173.272 115.048 173.178 114.985 173.099 114.906L171.003 112.805C170.844 112.646 170.754 112.429 170.754 112.203C170.754 111.978 170.844 111.761 171.003 111.602C171.163 111.442 171.379 111.353 171.605 111.353C171.83 111.353 172.047 111.442 172.206 111.602L173.698 113.099L177.834 108.953C177.913 108.874 178.007 108.811 178.11 108.768C178.214 108.725 178.324 108.703 178.436 108.703C178.548 108.703 178.658 108.725 178.762 108.768C178.865 108.811 178.959 108.874 179.038 108.953Z" fill="white" stroke="white" stroke-width="0.265763"/>
<rect x="344" y="67" width="90" height="90" rx="20" fill="#034737"/>
<circle cx="405.672" cy="94.8055" r="4.80553" transform="rotate(90 405.672 94.8055)" stroke="white" stroke-width="1.66667" stroke-linecap="round" stroke-linejoin="round"/>
<circle cx="405.672" cy="128.444" r="4.80553" transform="rotate(90 405.672 128.444)" stroke="white" stroke-width="1.66667" stroke-linecap="round" stroke-linejoin="round"/>
<circle cx="372.034" cy="94.8055" r="4.80553" transform="rotate(90 372.034 94.8055)" stroke="white" stroke-width="1.66667" stroke-linecap="round" stroke-linejoin="round"/>
<circle cx="372.034" cy="128.444" r="4.80553" transform="rotate(90 372.034 128.444)" stroke="white" stroke-width="1.66667" stroke-linecap="round" stroke-linejoin="round"/>
<path d="M400.867 94.8056H376.839" stroke="white" stroke-width="1.66667" stroke-linecap="round" stroke-linejoin="round"/>
<path d="M405.673 99.6111V123.639" stroke="white" stroke-width="1.66667" stroke-linecap="round" stroke-linejoin="round"/>
<path d="M372.034 99.6111V123.639" stroke="white" stroke-width="1.66667" stroke-linecap="round" stroke-linejoin="round"/>
<path d="M400.867 128.444H376.839" stroke="white" stroke-width="1.66667" stroke-linecap="round" stroke-linejoin="round"/>
<path d="M143.342 28.242L140.514 38H139.086L136.818 30.146L134.466 38L133.052 38.014L130.322 28.242H131.68L133.808 36.516L136.16 28.242H137.588L139.828 36.488L141.97 28.242H143.342ZM150.546 35.83H146.29L145.506 38H144.162L147.69 28.298H149.16L152.674 38H151.33L150.546 35.83ZM150.182 34.794L148.418 29.866L146.654 34.794H150.182ZM165.518 38L164.244 36.712C163.768 37.2067 163.26 37.5753 162.718 37.818C162.177 38.0513 161.566 38.168 160.884 38.168C160.212 38.168 159.615 38.0467 159.092 37.804C158.579 37.5613 158.178 37.216 157.888 36.768C157.608 36.32 157.468 35.7973 157.468 35.2C157.468 34.5187 157.66 33.9213 158.042 33.408C158.434 32.8853 159.008 32.4747 159.764 32.176C159.466 31.8213 159.251 31.4947 159.12 31.196C158.99 30.8973 158.924 30.5707 158.924 30.216C158.924 29.8053 159.027 29.4367 159.232 29.11C159.447 28.774 159.75 28.5127 160.142 28.326C160.534 28.1393 160.987 28.046 161.5 28.046C162.004 28.046 162.443 28.144 162.816 28.34C163.19 28.536 163.47 28.8113 163.656 29.166C163.843 29.5113 163.927 29.8987 163.908 30.328H162.634C162.644 29.9453 162.536 29.6467 162.312 29.432C162.088 29.208 161.799 29.096 161.444 29.096C161.071 29.096 160.768 29.2033 160.534 29.418C160.31 29.6233 160.198 29.8893 160.198 30.216C160.198 30.496 160.273 30.7667 160.422 31.028C160.581 31.2893 160.842 31.6113 161.206 31.994L164.118 34.92L164.37 34.528L165.322 32.932H166.694L165.546 34.92C165.388 35.2 165.201 35.494 164.986 35.802L167.184 38H165.518ZM160.884 37.076C161.388 37.076 161.841 36.978 162.242 36.782C162.653 36.586 163.04 36.2827 163.404 35.872L160.534 32.988C159.34 33.4453 158.742 34.1687 158.742 35.158C158.742 35.7087 158.938 36.166 159.33 36.53C159.732 36.894 160.25 37.076 160.884 37.076ZM178.2 28.242V29.278H175.54V38H174.266V29.278H171.592V28.242H178.2ZM186.81 33.87C186.81 34.1127 186.796 34.3693 186.768 34.64H180.636C180.683 35.396 180.94 35.9887 181.406 36.418C181.882 36.838 182.456 37.048 183.128 37.048C183.679 37.048 184.136 36.922 184.5 36.67C184.874 36.4087 185.135 36.0633 185.284 35.634H186.656C186.451 36.3713 186.04 36.9733 185.424 37.44C184.808 37.8973 184.043 38.126 183.128 38.126C182.4 38.126 181.747 37.9627 181.168 37.636C180.599 37.3093 180.151 36.8473 179.824 36.25C179.498 35.6433 179.334 34.9433 179.334 34.15C179.334 33.3567 179.493 32.6613 179.81 32.064C180.128 31.4667 180.571 31.0093 181.14 30.692C181.719 30.3653 182.382 30.202 183.128 30.202C183.856 30.202 184.5 30.3607 185.06 30.678C185.62 30.9953 186.05 31.434 186.348 31.994C186.656 32.5447 186.81 33.17 186.81 33.87ZM185.494 33.604C185.494 33.1187 185.387 32.7033 185.172 32.358C184.958 32.0033 184.664 31.7373 184.29 31.56C183.926 31.3733 183.52 31.28 183.072 31.28C182.428 31.28 181.878 31.4853 181.42 31.896C180.972 32.3067 180.716 32.876 180.65 33.604H185.494ZM189.808 27.64V38H188.534V27.64H189.808ZM130.602 50.136C130.602 49.352 130.761 48.666 131.078 48.078C131.395 47.4807 131.829 47.0187 132.38 46.692C132.94 46.3653 133.561 46.202 134.242 46.202C134.914 46.202 135.497 46.3467 135.992 46.636C136.487 46.9253 136.855 47.2893 137.098 47.728V46.328H138.386V54H137.098V52.572C136.846 53.02 136.468 53.3933 135.964 53.692C135.469 53.9813 134.891 54.126 134.228 54.126C133.547 54.126 132.931 53.958 132.38 53.622C131.829 53.286 131.395 52.8147 131.078 52.208C130.761 51.6013 130.602 50.9107 130.602 50.136ZM137.098 50.15C137.098 49.5713 136.981 49.0673 136.748 48.638C136.515 48.2087 136.197 47.882 135.796 47.658C135.404 47.4247 134.97 47.308 134.494 47.308C134.018 47.308 133.584 47.42 133.192 47.644C132.8 47.868 132.487 48.1947 132.254 48.624C132.021 49.0533 131.904 49.5573 131.904 50.136C131.904 50.724 132.021 51.2373 132.254 51.676C132.487 52.1053 132.8 52.4367 133.192 52.67C133.584 52.894 134.018 53.006 134.494 53.006C134.97 53.006 135.404 52.894 135.796 52.67C136.197 52.4367 136.515 52.1053 136.748 51.676C136.981 51.2373 137.098 50.7287 137.098 50.15ZM147.385 46.328V54H146.111V52.866C145.868 53.258 145.528 53.566 145.089 53.79C144.66 54.0047 144.184 54.112 143.661 54.112C143.064 54.112 142.527 53.9907 142.051 53.748C141.575 53.496 141.197 53.1227 140.917 52.628C140.646 52.1333 140.511 51.5313 140.511 50.822V46.328H141.771V50.654C141.771 51.41 141.962 51.9933 142.345 52.404C142.728 52.8053 143.25 53.006 143.913 53.006C144.594 53.006 145.131 52.796 145.523 52.376C145.915 51.956 146.111 51.3447 146.111 50.542V46.328H147.385ZM151.132 47.378V51.9C151.132 52.2733 151.211 52.5393 151.37 52.698C151.529 52.8473 151.804 52.922 152.196 52.922H153.134V54H151.986C151.277 54 150.745 53.8367 150.39 53.51C150.035 53.1833 149.858 52.6467 149.858 51.9V47.378H148.864V46.328H149.858V44.396H151.132V46.328H153.134V47.378H151.132ZM158.066 54.126C157.347 54.126 156.694 53.9627 156.106 53.636C155.527 53.3093 155.07 52.8473 154.734 52.25C154.407 51.6433 154.244 50.9433 154.244 50.15C154.244 49.366 154.412 48.6753 154.748 48.078C155.093 47.4713 155.56 47.0093 156.148 46.692C156.736 46.3653 157.394 46.202 158.122 46.202C158.85 46.202 159.508 46.3653 160.096 46.692C160.684 47.0093 161.146 47.4667 161.482 48.064C161.827 48.6613 162 49.3567 162 50.15C162 50.9433 161.822 51.6433 161.468 52.25C161.122 52.8473 160.651 53.3093 160.054 53.636C159.456 53.9627 158.794 54.126 158.066 54.126ZM158.066 53.006C158.523 53.006 158.952 52.8987 159.354 52.684C159.755 52.4693 160.077 52.1473 160.32 51.718C160.572 51.2887 160.698 50.766 160.698 50.15C160.698 49.534 160.576 49.0113 160.334 48.582C160.091 48.1527 159.774 47.8353 159.382 47.63C158.99 47.4153 158.565 47.308 158.108 47.308C157.641 47.308 157.212 47.4153 156.82 47.63C156.437 47.8353 156.129 48.1527 155.896 48.582C155.662 49.0113 155.546 49.534 155.546 50.15C155.546 50.7753 155.658 51.3027 155.882 51.732C156.115 52.1613 156.423 52.4833 156.806 52.698C157.188 52.9033 157.608 53.006 158.066 53.006ZM172.943 46.188C173.54 46.188 174.072 46.314 174.539 46.566C175.005 46.8087 175.374 47.1773 175.645 47.672C175.915 48.1667 176.051 48.7687 176.051 49.478V54H174.791V49.66C174.791 48.8947 174.599 48.3113 174.217 47.91C173.843 47.4993 173.335 47.294 172.691 47.294C172.028 47.294 171.501 47.5087 171.109 47.938C170.717 48.358 170.521 48.9693 170.521 49.772V54H169.261V49.66C169.261 48.8947 169.069 48.3113 168.687 47.91C168.313 47.4993 167.805 47.294 167.161 47.294C166.498 47.294 165.971 47.5087 165.579 47.938C165.187 48.358 164.991 48.9693 164.991 49.772V54H163.717V46.328H164.991V47.434C165.243 47.0327 165.579 46.7247 165.999 46.51C166.428 46.2953 166.899 46.188 167.413 46.188C168.057 46.188 168.626 46.3327 169.121 46.622C169.615 46.9113 169.984 47.336 170.227 47.896C170.441 47.3547 170.796 46.9347 171.291 46.636C171.785 46.3373 172.336 46.188 172.943 46.188ZM177.707 50.136C177.707 49.352 177.865 48.666 178.183 48.078C178.5 47.4807 178.934 47.0187 179.485 46.692C180.045 46.3653 180.665 46.202 181.347 46.202C182.019 46.202 182.602 46.3467 183.097 46.636C183.591 46.9253 183.96 47.2893 184.203 47.728V46.328H185.491V54H184.203V52.572C183.951 53.02 183.573 53.3933 183.069 53.692C182.574 53.9813 181.995 54.126 181.333 54.126C180.651 54.126 180.035 53.958 179.485 53.622C178.934 53.286 178.5 52.8147 178.183 52.208C177.865 51.6013 177.707 50.9107 177.707 50.136ZM184.203 50.15C184.203 49.5713 184.086 49.0673 183.853 48.638C183.619 48.2087 183.302 47.882 182.901 47.658C182.509 47.4247 182.075 47.308 181.599 47.308C181.123 47.308 180.689 47.42 180.297 47.644C179.905 47.868 179.592 48.1947 179.359 48.624C179.125 49.0533 179.009 49.5573 179.009 50.136C179.009 50.724 179.125 51.2373 179.359 51.676C179.592 52.1053 179.905 52.4367 180.297 52.67C180.689 52.894 181.123 53.006 181.599 53.006C182.075 53.006 182.509 52.894 182.901 52.67C183.302 52.4367 183.619 52.1053 183.853 51.676C184.086 51.2373 184.203 50.7287 184.203 50.15ZM189.239 47.378V51.9C189.239 52.2733 189.319 52.5393 189.477 52.698C189.636 52.8473 189.911 52.922 190.303 52.922H191.241V54H190.093C189.384 54 188.852 53.8367 188.497 53.51C188.143 53.1833 187.965 52.6467 187.965 51.9V47.378H186.971V46.328H187.965V44.396H189.239V46.328H191.241V47.378H189.239ZM193.485 45.082C193.242 45.082 193.037 44.998 192.869 44.83C192.701 44.662 192.617 44.4567 192.617 44.214C192.617 43.9713 192.701 43.766 192.869 43.598C193.037 43.43 193.242 43.346 193.485 43.346C193.718 43.346 193.914 43.43 194.073 43.598C194.241 43.766 194.325 43.9713 194.325 44.214C194.325 44.4567 194.241 44.662 194.073 44.83C193.914 44.998 193.718 45.082 193.485 45.082ZM194.101 46.328V54H192.827V46.328H194.101ZM199.66 54.126C198.942 54.126 198.288 53.9627 197.7 53.636C197.122 53.3093 196.664 52.8473 196.328 52.25C196.002 51.6433 195.838 50.9433 195.838 50.15C195.838 49.366 196.006 48.6753 196.342 48.078C196.688 47.4713 197.154 47.0093 197.742 46.692C198.33 46.3653 198.988 46.202 199.716 46.202C200.444 46.202 201.102 46.3653 201.69 46.692C202.278 47.0093 202.74 47.4667 203.076 48.064C203.422 48.6613 203.594 49.3567 203.594 50.15C203.594 50.9433 203.417 51.6433 203.062 52.25C202.717 52.8473 202.246 53.3093 201.648 53.636C201.051 53.9627 200.388 54.126 199.66 54.126ZM199.66 53.006C200.118 53.006 200.547 52.8987 200.948 52.684C201.35 52.4693 201.672 52.1473 201.914 51.718C202.166 51.2887 202.292 50.766 202.292 50.15C202.292 49.534 202.171 49.0113 201.928 48.582C201.686 48.1527 201.368 47.8353 200.976 47.63C200.584 47.4153 200.16 47.308 199.702 47.308C199.236 47.308 198.806 47.4153 198.414 47.63C198.032 47.8353 197.724 48.1527 197.49 48.582C197.257 49.0113 197.14 49.534 197.14 50.15C197.14 50.7753 197.252 51.3027 197.476 51.732C197.71 52.1613 198.018 52.4833 198.4 52.698C198.783 52.9033 199.203 53.006 199.66 53.006ZM209.049 46.188C209.983 46.188 210.739 46.4727 211.317 47.042C211.896 47.602 212.185 48.414 212.185 49.478V54H210.925V49.66C210.925 48.8947 210.734 48.3113 210.351 47.91C209.969 47.4993 209.446 47.294 208.783 47.294C208.111 47.294 207.575 47.504 207.173 47.924C206.781 48.344 206.585 48.9553 206.585 49.758V54H205.311V46.328H206.585V47.42C206.837 47.028 207.178 46.7247 207.607 46.51C208.046 46.2953 208.527 46.188 209.049 46.188Z" fill="#666666"/>
<path d="M356.418 54.098C355.774 54.098 355.195 53.986 354.682 53.762C354.178 53.5287 353.781 53.2113 353.492 52.81C353.202 52.3993 353.053 51.928 353.044 51.396H354.402C354.448 51.8533 354.635 52.2407 354.962 52.558C355.298 52.866 355.783 53.02 356.418 53.02C357.024 53.02 357.5 52.8707 357.846 52.572C358.2 52.264 358.378 51.872 358.378 51.396C358.378 51.0227 358.275 50.7193 358.07 50.486C357.864 50.2527 357.608 50.0753 357.3 49.954C356.992 49.8327 356.576 49.702 356.054 49.562C355.41 49.394 354.892 49.226 354.5 49.058C354.117 48.89 353.786 48.6287 353.506 48.274C353.235 47.91 353.1 47.4247 353.1 46.818C353.1 46.286 353.235 45.8147 353.506 45.404C353.776 44.9933 354.154 44.676 354.64 44.452C355.134 44.228 355.699 44.116 356.334 44.116C357.248 44.116 357.995 44.3447 358.574 44.802C359.162 45.2593 359.493 45.866 359.568 46.622H358.168C358.121 46.2487 357.925 45.922 357.58 45.642C357.234 45.3527 356.777 45.208 356.208 45.208C355.676 45.208 355.242 45.348 354.906 45.628C354.57 45.8987 354.402 46.2813 354.402 46.776C354.402 47.1307 354.5 47.42 354.696 47.644C354.901 47.868 355.148 48.0407 355.438 48.162C355.736 48.274 356.152 48.4047 356.684 48.554C357.328 48.7313 357.846 48.9087 358.238 49.086C358.63 49.254 358.966 49.52 359.246 49.884C359.526 50.2387 359.666 50.724 359.666 51.34C359.666 51.816 359.54 52.264 359.288 52.684C359.036 53.104 358.662 53.4447 358.168 53.706C357.673 53.9673 357.09 54.098 356.418 54.098ZM364.928 54.126C364.21 54.126 363.556 53.9627 362.968 53.636C362.39 53.3093 361.932 52.8473 361.596 52.25C361.27 51.6433 361.106 50.9433 361.106 50.15C361.106 49.366 361.274 48.6753 361.61 48.078C361.956 47.4713 362.422 47.0093 363.01 46.692C363.598 46.3653 364.256 46.202 364.984 46.202C365.712 46.202 366.37 46.3653 366.958 46.692C367.546 47.0093 368.008 47.4667 368.344 48.064C368.69 48.6613 368.862 49.3567 368.862 50.15C368.862 50.9433 368.685 51.6433 368.33 52.25C367.985 52.8473 367.514 53.3093 366.916 53.636C366.319 53.9627 365.656 54.126 364.928 54.126ZM364.928 53.006C365.386 53.006 365.815 52.8987 366.216 52.684C366.618 52.4693 366.94 52.1473 367.182 51.718C367.434 51.2887 367.56 50.766 367.56 50.15C367.56 49.534 367.439 49.0113 367.196 48.582C366.954 48.1527 366.636 47.8353 366.244 47.63C365.852 47.4153 365.428 47.308 364.97 47.308C364.504 47.308 364.074 47.4153 363.682 47.63C363.3 47.8353 362.992 48.1527 362.758 48.582C362.525 49.0113 362.408 49.534 362.408 50.15C362.408 50.7753 362.52 51.3027 362.744 51.732C362.978 52.1613 363.286 52.4833 363.668 52.698C364.051 52.9033 364.471 53.006 364.928 53.006ZM370.103 50.15C370.103 49.3567 370.262 48.666 370.579 48.078C370.897 47.4807 371.335 47.0187 371.895 46.692C372.465 46.3653 373.113 46.202 373.841 46.202C374.784 46.202 375.559 46.4307 376.165 46.888C376.781 47.3453 377.187 47.98 377.383 48.792H376.011C375.881 48.3253 375.624 47.9567 375.241 47.686C374.868 47.4153 374.401 47.28 373.841 47.28C373.113 47.28 372.525 47.532 372.077 48.036C371.629 48.5307 371.405 49.2353 371.405 50.15C371.405 51.074 371.629 51.788 372.077 52.292C372.525 52.796 373.113 53.048 373.841 53.048C374.401 53.048 374.868 52.9173 375.241 52.656C375.615 52.3947 375.871 52.0213 376.011 51.536H377.383C377.178 52.32 376.767 52.95 376.151 53.426C375.535 53.8927 374.765 54.126 373.841 54.126C373.113 54.126 372.465 53.9627 371.895 53.636C371.335 53.3093 370.897 52.8473 370.579 52.25C370.262 51.6527 370.103 50.9527 370.103 50.15ZM379.783 45.082C379.541 45.082 379.335 44.998 379.167 44.83C378.999 44.662 378.915 44.4567 378.915 44.214C378.915 43.9713 378.999 43.766 379.167 43.598C379.335 43.43 379.541 43.346 379.783 43.346C380.017 43.346 380.213 43.43 380.371 43.598C380.539 43.766 380.623 43.9713 380.623 44.214C380.623 44.4567 380.539 44.662 380.371 44.83C380.213 44.998 380.017 45.082 379.783 45.082ZM380.399 46.328V54H379.125V46.328H380.399ZM382.137 50.136C382.137 49.352 382.295 48.666 382.613 48.078C382.93 47.4807 383.364 47.0187 383.915 46.692C384.475 46.3653 385.095 46.202 385.777 46.202C386.449 46.202 387.032 46.3467 387.527 46.636C388.021 46.9253 388.39 47.2893 388.633 47.728V46.328H389.921V54H388.633V52.572C388.381 53.02 388.003 53.3933 387.499 53.692C387.004 53.9813 386.425 54.126 385.763 54.126C385.081 54.126 384.465 53.958 383.915 53.622C383.364 53.286 382.93 52.8147 382.613 52.208C382.295 51.6013 382.137 50.9107 382.137 50.136ZM388.633 50.15C388.633 49.5713 388.516 49.0673 388.283 48.638C388.049 48.2087 387.732 47.882 387.331 47.658C386.939 47.4247 386.505 47.308 386.029 47.308C385.553 47.308 385.119 47.42 384.727 47.644C384.335 47.868 384.022 48.1947 383.789 48.624C383.555 49.0533 383.439 49.5573 383.439 50.136C383.439 50.724 383.555 51.2373 383.789 51.676C384.022 52.1053 384.335 52.4367 384.727 52.67C385.119 52.894 385.553 53.006 386.029 53.006C386.505 53.006 386.939 52.894 387.331 52.67C387.732 52.4367 388.049 52.1053 388.283 51.676C388.516 51.2373 388.633 50.7287 388.633 50.15ZM393.39 43.64V54H392.116V43.64H393.39ZM403.185 46.188C403.764 46.188 404.287 46.314 404.753 46.566C405.22 46.8087 405.584 47.1773 405.845 47.672C406.116 48.1667 406.251 48.7687 406.251 49.478V54H404.991V49.66C404.991 48.8947 404.8 48.3113 404.417 47.91C404.035 47.4993 403.512 47.294 402.849 47.294C402.177 47.294 401.641 47.504 401.239 47.924C400.847 48.344 400.651 48.9553 400.651 49.758V54H399.377V43.64H400.651V47.42C400.903 47.028 401.249 46.7247 401.687 46.51C402.135 46.2953 402.635 46.188 403.185 46.188ZM415.178 46.328V54H413.904V52.866C413.662 53.258 413.321 53.566 412.882 53.79C412.453 54.0047 411.977 54.112 411.454 54.112C410.857 54.112 410.32 53.9907 409.844 53.748C409.368 53.496 408.99 53.1227 408.71 52.628C408.44 52.1333 408.304 51.5313 408.304 50.822V46.328H409.564V50.654C409.564 51.41 409.756 51.9933 410.138 52.404C410.521 52.8053 411.044 53.006 411.706 53.006C412.388 53.006 412.924 52.796 413.316 52.376C413.708 51.956 413.904 51.3447 413.904 50.542V46.328H415.178ZM418.645 47.756C418.907 47.2987 419.289 46.9253 419.793 46.636C420.297 46.3467 420.871 46.202 421.515 46.202C422.206 46.202 422.827 46.3653 423.377 46.692C423.928 47.0187 424.362 47.4807 424.679 48.078C424.997 48.666 425.155 49.352 425.155 50.136C425.155 50.9107 424.997 51.6013 424.679 52.208C424.362 52.8147 423.923 53.286 423.363 53.622C422.813 53.958 422.197 54.126 421.515 54.126C420.853 54.126 420.269 53.9813 419.765 53.692C419.271 53.4027 418.897 53.034 418.645 52.586V54H417.371V43.64H418.645V47.756ZM423.853 50.136C423.853 49.5573 423.737 49.0533 423.503 48.624C423.27 48.1947 422.953 47.868 422.551 47.644C422.159 47.42 421.725 47.308 421.249 47.308C420.783 47.308 420.349 47.4247 419.947 47.658C419.555 47.882 419.238 48.2133 418.995 48.652C418.762 49.0813 418.645 49.5807 418.645 50.15C418.645 50.7287 418.762 51.2373 418.995 51.676C419.238 52.1053 419.555 52.4367 419.947 52.67C420.349 52.894 420.783 53.006 421.249 53.006C421.725 53.006 422.159 52.894 422.551 52.67C422.953 52.4367 423.27 52.1053 423.503 51.676C423.737 51.2373 423.853 50.724 423.853 50.136Z" fill="#666666"/>
</svg>
