<svg width="54" height="53" viewBox="0 0 54 53" fill="none" xmlns="http://www.w3.org/2000/svg">
<rect x="0.778076" y="-0.000976562" width="53" height="53" rx="17.0727" fill="#FAE8F1"/>
<g clip-path="url(#clip0_1_5394)">
<path fill-rule="evenodd" clip-rule="evenodd" d="M27.4238 13.0624H14.3682C13.8359 13.0624 13.3237 13.274 12.9488 13.6506C12.5705 14.0275 12.3596 14.5383 12.3596 15.0709C12.3596 19.8955 12.3596 36.3576 12.3596 41.1822C12.3596 42.2916 13.2601 43.1907 14.3682 43.1907H34.4537C35.5618 43.1907 36.4623 42.2916 36.4623 41.1822C36.4623 37.7907 36.4623 29.1308 36.4623 29.1308C36.4623 28.7613 36.161 28.4613 35.7928 28.4613C35.4245 28.4613 35.1233 28.7613 35.1233 29.1308C35.1233 29.1308 35.1233 37.7907 35.1233 41.1822C35.1233 41.5521 34.8253 41.8517 34.4537 41.8517H14.3682C13.9966 41.8517 13.6987 41.5521 13.6987 41.1822C13.6987 36.3576 13.6987 19.8955 13.6987 15.0709C13.6987 14.8935 13.769 14.7231 13.8962 14.5976C14.0201 14.4721 14.1908 14.4014 14.3682 14.4014H27.4238C27.792 14.4014 28.0933 14.1015 28.0933 13.7319C28.0933 13.3623 27.792 13.0624 27.4238 13.0624ZM17.5484 35.826H31.2735C31.6418 35.826 31.943 35.5261 31.943 35.1565C31.943 34.7869 31.6418 34.487 31.2735 34.487H17.5484C17.1802 34.487 16.8789 34.7869 16.8789 35.1565C16.8789 35.5261 17.1802 35.826 17.5484 35.826ZM17.5484 32.1437H31.2735C31.6418 32.1437 31.943 31.8437 31.943 31.4742C31.943 31.1046 31.6418 30.8046 31.2735 30.8046H17.5484C17.1802 30.8046 16.8789 31.1046 16.8789 31.4742C16.8789 31.8437 17.1802 32.1437 17.5484 32.1437ZM23.7414 20.7619H17.7158C17.3475 20.7619 17.0463 21.0618 17.0463 21.4314C17.0463 21.8009 17.3475 22.1009 17.7158 22.1009H20.0591V28.7961C20.0591 29.1657 20.3604 29.4656 20.7286 29.4656C21.0968 29.4656 21.3981 29.1657 21.3981 28.7961V22.1009H23.7414C24.1097 22.1009 24.411 21.8009 24.411 21.4314C24.411 21.0618 24.1097 20.7619 23.7414 20.7619ZM24.5783 28.7961H31.2735C31.6418 28.7961 31.943 28.4961 31.943 28.1266C31.943 27.757 31.6418 27.457 31.2735 27.457H24.5783C24.2101 27.457 23.9088 27.757 23.9088 28.1266C23.9088 28.4961 24.2101 28.7961 24.5783 28.7961ZM38.4173 20.1948C38.3202 19.932 38.0691 19.7576 37.7913 19.7576C37.5101 19.7576 37.2591 19.932 37.162 20.1948L36.3652 22.3496L34.2094 23.1467C33.9483 23.2441 33.7742 23.4945 33.7742 23.7747C33.7742 24.0549 33.9483 24.3053 34.2094 24.4027L36.3652 25.1998L37.162 27.3546C37.2591 27.6174 37.5101 27.7918 37.7913 27.7918C38.0691 27.7918 38.3202 27.6174 38.4173 27.3546L39.214 25.1998L41.3698 24.4027C41.6343 24.3053 41.8084 24.0549 41.8084 23.7747C41.8084 23.4945 41.6343 23.2441 41.3698 23.1467L39.214 22.3496L38.4173 20.1948ZM26.4195 25.4485H29.0976C29.4658 25.4485 29.7671 25.1485 29.7671 24.779C29.7671 24.4094 29.4658 24.1094 29.0976 24.1094H26.4195C26.0513 24.1094 25.75 24.4094 25.75 24.779C25.75 25.1485 26.0513 25.4485 26.4195 25.4485ZM37.7913 22.3563L38.0658 23.1028C38.1328 23.2863 38.28 23.4306 38.4608 23.4985L39.2073 23.7747L38.4608 24.0509C38.28 24.1188 38.1328 24.2631 38.0658 24.4466L37.7913 25.1931L37.5134 24.4466C37.4465 24.2631 37.3025 24.1188 37.1184 24.0509L36.3719 23.7747L37.1184 23.4985C37.3025 23.4306 37.4465 23.2863 37.5134 23.1028L37.7913 22.3563ZM32.405 11.491C32.3079 11.2282 32.0569 11.0538 31.7757 11.0538C31.4945 11.0538 31.2434 11.2282 31.1464 11.491L29.5361 15.8449L25.1843 17.4558C24.9198 17.5532 24.7457 17.8036 24.7457 18.0838C24.7457 18.364 24.9198 18.6144 25.1843 18.7118L29.5361 20.3227L31.1464 24.6765C31.2434 24.9393 31.4945 25.1137 31.7757 25.1137C32.0569 25.1137 32.3079 24.9393 32.405 24.6765L34.0152 20.3227L38.3671 18.7118C38.6315 18.6144 38.8056 18.364 38.8056 18.0838C38.8056 17.8036 38.6315 17.5532 38.3671 17.4558L34.0152 15.8449L32.405 11.491ZM31.7757 13.6526L32.867 16.5981C32.9339 16.7816 33.0779 16.9258 33.262 16.9938L36.2079 18.0838L33.262 19.1738C33.0779 19.2417 32.9339 19.386 32.867 19.5694L31.7757 22.515L30.6843 19.5694C30.6174 19.386 30.4735 19.2417 30.2894 19.1738L27.3435 18.0838L30.2894 16.9938C30.4735 16.9258 30.6174 16.7816 30.6843 16.5981L31.7757 13.6526ZM26.4195 22.1009H27.7586C28.1268 22.1009 28.4281 21.8009 28.4281 21.4314C28.4281 21.0618 28.1268 20.7619 27.7586 20.7619H26.4195C26.0513 20.7619 25.75 21.0618 25.75 21.4314C25.75 21.8009 26.0513 22.1009 26.4195 22.1009ZM37.1318 13.3971H36.4623C36.0941 13.3971 35.7928 13.6971 35.7928 14.0667C35.7928 14.4362 36.0941 14.7362 36.4623 14.7362H37.1318V15.4057C37.1318 15.7753 37.4331 16.0752 37.8013 16.0752C38.1696 16.0752 38.4709 15.7753 38.4709 15.4057V14.7362H39.1404C39.5086 14.7362 39.8099 14.4362 39.8099 14.0667C39.8099 13.6971 39.5086 13.3971 39.1404 13.3971H38.4709V12.7276C38.4709 12.3581 38.1696 12.0581 37.8013 12.0581C37.4331 12.0581 37.1318 12.3581 37.1318 12.7276V13.3971Z" fill="#FF76BB"/>
</g>
<defs>
<clipPath id="clip0_1_5394">
<rect width="32.1369" height="32.1369" fill="white" transform="translate(11.0217 11.0537)"/>
</clipPath>
</defs>
</svg>
