<svg width="47" height="47" viewBox="0 0 47 47" fill="none" xmlns="http://www.w3.org/2000/svg">
<rect width="46.5655" height="46.5655" rx="13.1789" fill="#DCEFFF"/>
<path d="M23.3604 22.8042H26.7714C27.0416 22.8042 27.2959 22.9322 27.4566 23.1492L35.7285 34.3163H38.7644C39.2354 34.3163 39.6173 34.6982 39.6173 35.1692C39.6173 35.64 39.2355 36.0219 38.7644 36.0219H35.299C35.0288 36.0219 34.7746 35.8939 34.6138 35.6766L26.3419 24.51H23.3604V35.1693C23.3604 35.6401 22.9786 36.0219 22.5075 36.0219C22.0367 36.0219 21.6549 35.6401 21.6549 35.1693V33.0372H13.1272V35.1693C13.1272 35.6401 12.7453 36.0219 12.2745 36.0219C11.8035 36.0219 11.4216 35.6401 11.4216 35.1693V12.9976C11.4216 12.7715 11.5114 12.5547 11.6714 12.3947L16.7879 7.27814C17.121 6.94505 17.6608 6.94505 17.9939 7.27814L23.1104 12.3947C23.2702 12.5546 23.3602 12.7714 23.3602 12.9976L23.3604 22.8042ZM21.6549 22.8042V13.3508L17.3911 9.08691L13.1274 13.3508V22.8042H21.6549ZM13.1272 24.5097V27.0678H21.6549V24.5097H13.1272ZM13.1272 31.3314H21.6549V28.7733H13.1272V31.3314ZM17.3909 19.3928C15.7426 19.3928 14.4064 18.0566 14.4064 16.4082C14.4064 14.7599 15.7426 13.4237 17.3909 13.4237C19.0394 13.4237 20.3756 14.7599 20.3756 16.4082C20.3756 18.0567 19.0393 19.3928 17.3909 19.3928ZM17.3909 17.6874C18.0974 17.6874 18.6701 17.1146 18.6701 16.4082C18.6701 15.7017 18.0974 15.129 17.3909 15.129C16.6845 15.129 16.1119 15.7017 16.1119 16.4082C16.1119 17.1146 16.6845 17.6874 17.3909 17.6874ZM28.9034 35.1688C28.9034 35.6397 28.5216 36.0215 28.0505 36.0215C27.5797 36.0215 27.1978 35.6397 27.1978 35.1688V30.0523C27.1978 29.5813 27.5797 29.1995 28.0505 29.1995C28.5215 29.1995 28.9034 29.5813 28.9034 30.0523V35.1688Z" fill="#71BEFF"/>
</svg>
