<svg width="53" height="53" viewBox="0 0 53 53" fill="none" xmlns="http://www.w3.org/2000/svg">
<rect width="53" height="53" rx="15" fill="#DCEFFF"/>
<path fill-rule="evenodd" clip-rule="evenodd" d="M37.1238 21.5014C39.27 23.196 40.6662 25.8625 40.6662 28.8682C40.6662 31.4935 39.5799 33.9901 37.6924 35.7475C37.5224 35.9056 37.4287 36.1514 37.4424 36.4046L37.6624 40.6897L35.7461 39.1809C34.7499 38.395 33.5561 38.0219 32.3561 38.1229C32.3461 38.1229 32.3398 38.1243 32.3298 38.1258C32.0836 38.158 31.8336 38.1682 31.5836 38.1682C30.9898 38.1682 30.4098 38.1097 29.8498 37.9985C29.4861 37.9268 29.1436 38.2121 29.0798 38.638C29.0198 39.0624 29.2636 39.4662 29.6261 39.538C30.2598 39.6638 30.9123 39.7297 31.5823 39.7297C31.8786 39.7297 32.1761 39.7165 32.4686 39.6784C33.3623 39.6067 34.2548 39.8877 35.0023 40.4775L38.0361 42.8672C38.2461 43.0326 38.5198 43.0443 38.7398 42.8979C38.9598 42.7501 39.0899 42.4692 39.0736 42.1735L38.7936 36.7076C40.8436 34.6589 42 31.8273 42 28.8681C42 25.3412 40.3862 22.1962 37.8662 20.2077C37.5625 19.9662 37.1462 20.0614 36.9425 20.4184C36.7362 20.7755 36.8162 21.2613 37.1225 21.5028L37.1238 21.5014ZM36.6663 24.8745C36.6663 17.2444 30.7136 11 23.3338 11C15.9539 11 10 17.2444 10 24.8745C10 28.6883 11.5062 32.335 14.1699 34.9574L13.7999 42.1721C13.7862 42.4692 13.9162 42.7487 14.1362 42.8965C14.3562 43.0443 14.63 43.0326 14.8399 42.8657L18.6163 39.8892C19.7125 39.0258 21.02 38.6058 22.3363 38.6965C22.6725 38.7375 23.0025 38.7506 23.3325 38.7506C30.7124 38.7506 36.6663 32.5048 36.6663 24.8761L36.6663 24.8745ZM35.3325 24.8745C35.3325 31.6985 29.9363 37.1891 23.3325 37.1891C23.0425 37.1891 22.7562 37.1788 22.4687 37.1437C22.4587 37.1423 22.4487 37.1408 22.4387 37.1408C20.8187 37.0252 19.2151 37.5359 17.8688 38.5954L15.2126 40.6895L15.5226 34.6516C15.5363 34.397 15.4426 34.1526 15.2726 33.9945C12.7701 31.6663 11.3337 28.3544 11.3337 24.8745C11.3337 18.0505 16.7337 12.5599 23.3337 12.5599C29.9363 12.5599 35.3337 18.0505 35.3337 24.8745L35.3325 24.8745ZM20.3024 25.9472C20.2062 25.6414 19.9562 25.4379 19.6762 25.4379C19.3999 25.4379 19.1499 25.6414 19.0524 25.9472L18.2587 28.4599L16.1124 29.3892C15.8487 29.5033 15.6762 29.7945 15.6762 30.1209C15.6762 30.4472 15.8499 30.7399 16.1124 30.8525L18.2587 31.7818L19.0524 34.2945C19.1487 34.6003 19.3987 34.8038 19.6762 34.8038C19.9562 34.8038 20.2062 34.6003 20.3024 34.2945L21.0962 31.7818L23.2424 30.8525C23.5024 30.7384 23.6762 30.4472 23.6762 30.1209C23.6762 29.7945 23.5024 29.5018 23.2424 29.3892L21.0962 28.4599L20.3024 25.9472ZM19.6762 28.4672L19.9524 29.3379C20.0187 29.5516 20.1624 29.7199 20.3462 29.7989L21.0899 30.1209L20.3462 30.4428C20.1624 30.5219 20.0199 30.6902 19.9524 30.9038L19.6762 31.7745L19.4024 30.9038C19.3362 30.6902 19.1887 30.5219 19.0087 30.4428L18.2662 30.1209L19.0099 29.7989C19.1899 29.7199 19.3361 29.5516 19.4037 29.3379L19.6762 28.4672ZM26.2938 15.8013C26.1963 15.4954 25.9463 15.292 25.6663 15.292C25.3863 15.292 25.1363 15.4954 25.04 15.8013L23.4363 20.8764L19.1025 22.754C18.84 22.8681 18.6663 23.1608 18.6663 23.4871C18.6663 23.8135 18.84 24.1061 19.1025 24.2188L23.4363 26.0964L25.04 31.1715C25.1363 31.4788 25.3863 31.6822 25.6663 31.6822C25.9463 31.6822 26.1963 31.4788 26.2925 31.173L27.8963 26.0978L32.23 24.2203C32.4938 24.1061 32.6663 23.8135 32.6663 23.4871C32.6663 23.1608 32.4938 22.8681 32.23 22.7554L27.8963 20.8779L26.2925 15.8027L26.2938 15.8013ZM25.6675 18.3213L26.7538 21.7544C26.82 21.9681 26.9638 22.1364 27.1475 22.2154L30.08 23.4871L27.1463 24.7573C26.9625 24.8364 26.82 25.0047 26.7525 25.2183L25.6663 28.653L24.58 25.2198C24.5138 25.0061 24.37 24.8379 24.1863 24.7588L21.2538 23.4871L24.1875 22.2169C24.3713 22.1379 24.5138 21.9696 24.5813 21.7559L25.6675 18.3213ZM19 18.0242H18.3338C17.9675 18.0242 17.6675 18.3739 17.6675 18.8042C17.6675 19.2344 17.9675 19.5842 18.3338 19.5842H19V20.3641C19 20.7944 19.3 21.1441 19.6662 21.1441C20.0325 21.1441 20.3325 20.7944 20.3325 20.3641V19.5842H20.9987C21.365 19.5842 21.665 19.2344 21.665 18.8042C21.665 18.3739 21.365 18.0242 20.9987 18.0242H20.3325V17.2442C20.3325 16.814 20.0325 16.4642 19.6662 16.4642C19.3 16.4642 19 16.814 19 17.2442V18.0242Z" fill="#71BEFF"/>
</svg>
