<svg width="66" height="66" viewBox="0 0 66 66" fill="none" xmlns="http://www.w3.org/2000/svg">
<rect x="0.709059" y="0.709059" width="64.5819" height="64.5819" rx="19.2909" fill="#F0FFC4"/>
<rect x="0.709059" y="0.709059" width="64.5819" height="64.5819" rx="19.2909" stroke="white" stroke-width="1.41812"/>
<path d="M43.685 33.2165C43.4323 32.554 42.9504 31.996 42.3024 31.6662C41.0195 30.9965 39.4126 31.3769 38.5671 32.5553L36.3912 35.5932C36.0031 35.1585 35.4896 34.8288 34.8854 34.6781L30.0636 33.4769C28.1447 32.998 26.1208 33.3854 24.5135 34.5393L19.4061 38.2031C19.188 38.3597 19.0586 38.6116 19.0586 38.8802V47.1663C19.0586 47.6265 19.4317 47.9996 19.8919 47.9996H23.4967C23.6484 47.9996 23.7974 47.9581 23.9276 47.8796L27.8082 45.5363L37.5539 45.1847C37.7406 45.1778 37.9197 45.1086 38.0621 44.9878L45.9088 38.3459C47.1038 37.3348 47.2902 35.5725 46.3332 34.3339C45.6948 33.5075 44.6773 33.1135 43.685 33.2165ZM39.9216 33.5262C40.2862 33.0196 40.9771 32.8548 41.5382 33.1473C41.8151 33.2882 42.0138 33.5286 42.1228 33.8103L38.0845 36.0915L39.9216 33.5262ZM44.8321 37.0739L37.2056 43.5294L27.5323 43.8781C27.3907 43.8834 27.2528 43.9245 27.1315 43.9978L23.2647 46.333H20.7253V39.3078L25.4852 35.8935C26.6949 35.026 28.2171 34.7347 29.6608 35.094L34.4822 36.2951C35.1621 36.4648 35.5963 37.1325 35.4709 37.8157C35.3432 38.5103 34.6889 38.9815 33.9792 38.8932L31.6562 38.5941C31.2013 38.5331 30.7818 38.857 30.7232 39.3139C30.6642 39.7705 30.9869 40.1884 31.443 40.247L33.7664 40.546C35.1706 40.7275 36.4817 39.9121 36.9651 38.6381L43.3697 35.0199C43.9206 34.7103 44.6278 34.8514 45.014 35.3527C45.4246 35.8842 45.3448 36.6402 44.8321 37.0739ZM25.8058 23.1819C25.6638 22.7449 25.1938 22.5048 24.7556 22.6469L24.0932 22.8621V22.1655C24.0932 21.7053 23.7201 21.3322 23.2599 21.3322C22.7996 21.3322 22.4265 21.7053 22.4265 22.1655V22.862L21.7645 22.6469C21.3271 22.5048 20.8563 22.7449 20.7143 23.1819C20.5723 23.6198 20.8115 24.0897 21.2494 24.2321L21.9113 24.4472L21.502 25.0105C21.2315 25.3829 21.3141 25.9041 21.6864 26.1747C22.0542 26.4414 22.5825 26.3586 22.8505 25.9904L23.2599 25.427L23.6692 25.9903C23.9257 26.3433 24.4659 26.4412 24.8333 26.1747C25.2057 25.9041 25.2883 25.3828 25.0177 25.0105L24.6084 24.4473L25.2708 24.2321C25.7086 24.0897 25.9478 23.6198 25.8058 23.1819ZM34.236 24.2321L34.8983 24.4473L34.4891 25.0105C34.2185 25.3829 34.3011 25.9041 34.6735 26.1747C35.0429 26.4426 35.5696 26.3592 35.8376 25.9904L36.2469 25.427C36.2469 25.427 36.6545 25.988 36.6562 25.9903C36.9202 26.3536 37.4589 26.4369 37.8204 26.1747C38.1927 25.9041 38.2753 25.3828 38.0047 25.0105L37.5955 24.4473L38.2578 24.2321C38.6956 24.0897 38.9349 23.6198 38.7929 23.1819C38.6509 22.7449 38.1813 22.5048 37.7427 22.6469L37.0802 22.8621V22.1655C37.0802 21.7053 36.7071 21.3322 36.2469 21.3322C35.7867 21.3322 35.4136 21.7053 35.4136 22.1655V22.8621L34.7511 22.6469C34.3125 22.5048 33.8433 22.7449 33.7009 23.1819C33.5589 23.6198 33.7982 24.0897 34.236 24.2321ZM29.7536 21.3322C29.2934 21.3322 28.9202 21.7053 28.9202 22.1655V22.8621L28.2578 22.6469C27.8196 22.5048 27.3496 22.7449 27.2076 23.1819C27.0656 23.6198 27.3049 24.0897 27.7427 24.2321L28.405 24.4473L27.9958 25.0105C27.7252 25.3828 27.8078 25.904 28.18 26.1746C28.534 26.4319 29.0759 26.3591 29.3442 25.9904L29.7536 25.427L30.1629 25.9903C30.4199 26.344 30.9511 26.4479 31.3271 26.1747C31.6994 25.9041 31.782 25.3828 31.5114 25.0105L31.1022 24.4473L31.7645 24.2321C32.2023 24.0897 32.4416 23.6197 32.2996 23.1819C32.1576 22.7449 31.6884 22.5048 31.2494 22.6468L30.5869 22.8621V22.1655C30.5869 21.7053 30.2138 21.3322 29.7536 21.3322ZM42.7406 21.3322C42.2804 21.3322 41.9073 21.7053 41.9073 22.1655V22.8621L41.2449 22.6469C40.8071 22.5048 40.3367 22.7449 40.1947 23.1819C40.0527 23.6198 40.2919 24.0897 40.7297 24.2321L41.3921 24.4473L40.9828 25.0105C40.7123 25.3828 40.7948 25.904 41.1671 26.1746C41.5202 26.4313 42.0591 26.3644 42.3313 25.9904L42.7407 25.427L43.15 25.9904C43.407 26.344 43.9396 26.4463 44.3141 26.1747C44.6865 25.9041 44.7691 25.3828 44.4985 25.0105L44.0892 24.4472L44.7511 24.2321C45.189 24.0897 45.4282 23.6198 45.2862 23.1819C45.1438 22.7449 44.6759 22.5048 44.236 22.6469L43.574 22.862V22.1655C43.574 21.7053 43.2008 21.3322 42.7406 21.3322Z" fill="#A7BB6B"/>
<path d="M46.3332 17.9996H36.3332C35.873 17.9996 35.4998 18.3728 35.4998 18.833C35.4998 19.2932 35.873 19.6663 36.3332 19.6663H46.3332C46.7926 19.6663 47.1665 20.0402 47.1665 20.4996V27.1663C47.1665 27.6257 46.7926 27.9996 46.3332 27.9996H34.7332C34.4858 27.9996 34.2511 28.1095 34.0928 28.2999L32.9998 29.6134L31.9069 28.2999C31.7486 28.1095 31.5138 27.9996 31.2664 27.9996H19.6665C19.2071 27.9996 18.8332 27.6257 18.8332 27.1663V20.4996C18.8332 20.0402 19.2071 19.6663 19.6665 19.6663H29.6665C30.1267 19.6663 30.4998 19.2932 30.4998 18.833C30.4998 18.3728 30.1267 17.9996 29.6665 17.9996H19.6665C18.2879 17.9996 17.1665 19.1211 17.1665 20.4996V27.1663C17.1665 28.5449 18.2879 29.6663 19.6665 29.6663H30.8758C30.8758 29.6663 32.3576 31.4472 32.3594 31.4493C32.6886 31.845 33.3114 31.8451 33.6403 31.4493L35.1239 29.6663H46.3332C47.7118 29.6663 48.8332 28.5449 48.8332 27.1663V20.4996C48.8332 19.1211 47.7118 17.9996 46.3332 17.9996Z" fill="#A7BB6B"/>
<path d="M32.9998 19.6663C33.4601 19.6663 33.8332 19.2932 33.8332 18.833C33.8332 18.3727 33.4601 17.9996 32.9998 17.9996C32.5396 17.9996 32.1665 18.3727 32.1665 18.833C32.1665 19.2932 32.5396 19.6663 32.9998 19.6663Z" fill="#A7BB6B"/>
</svg>
