<svg width="639" height="431" viewBox="0 0 639 431" fill="none" xmlns="http://www.w3.org/2000/svg">
<line x1="639" y1="221.5" y2="221.5" stroke="#034737" stroke-dasharray="6 6"/>
<path d="M228 221.5L233 224.387V218.613L228 221.5ZM639 221H635.978V222H639V221ZM629.934 221H623.89V222H629.934V221ZM617.846 221H611.801V222H617.846V221ZM605.757 221H599.713V222H605.757V221ZM593.669 221H587.625V222H593.669V221ZM581.581 221H575.537V222H581.581V221ZM569.493 221H563.449V222H569.493V221ZM557.404 221H551.36V222H557.404V221ZM545.316 221H539.272V222H545.316V221ZM533.228 221H527.184V222H533.228V221ZM521.14 221H515.096V222H521.14V221ZM509.051 221H503.007V222H509.051V221ZM496.963 221H490.919V222H496.963V221ZM484.875 221H478.831V222H484.875V221ZM472.787 221H466.743V222H472.787V221ZM460.699 221H454.654V222H460.699V221ZM448.61 221H442.566V222H448.61V221ZM436.522 221H430.478V222H436.522V221ZM424.434 221H418.39V222H424.434V221ZM412.346 221H406.302V222H412.346V221ZM400.257 221H394.213V222H400.257V221ZM388.169 221H382.125V222H388.169V221ZM376.081 221H370.037V222H376.081V221ZM363.993 221H357.949V222H363.993V221ZM351.904 221H345.86V222H351.904V221ZM339.816 221H333.772V222H339.816V221ZM327.728 221H321.684V222H327.728V221ZM315.64 221H309.596V222H315.64V221ZM303.551 221H297.507V222H303.551V221ZM291.463 221L285.419 221V222L291.463 222V221ZM279.375 221H273.331V222H279.375V221ZM267.287 221H261.242V222H267.287V221ZM255.198 221H249.154V222H255.198V221ZM243.11 221H237.066V222H243.11V221Z" fill="#034737"/>
<path d="M258 313L261.138 308.154L263.766 313.295L258 313ZM438.228 221.445L435.58 222.798L435.125 221.908L437.772 220.555L438.228 221.445ZM430.286 225.504L424.992 228.21L424.537 227.319L429.831 224.614L430.286 225.504ZM419.698 230.916L414.404 233.622L413.949 232.731L419.243 230.025L419.698 230.916ZM409.11 236.328L403.816 239.033L403.361 238.143L408.655 235.437L409.11 236.328ZM398.522 241.739L393.228 244.445L392.772 243.555L398.067 240.849L398.522 241.739ZM387.933 247.151L382.639 249.857L382.184 248.967L387.478 246.261L387.933 247.151ZM377.345 252.563L372.051 255.269L371.596 254.378L376.89 251.672L377.345 252.563ZM366.757 257.975L361.463 260.681L361.008 259.79L366.302 257.084L366.757 257.975ZM356.169 263.386L350.875 266.092L350.419 265.202L355.714 262.496L356.169 263.386ZM345.58 268.798L340.286 271.504L339.831 270.614L345.125 267.908L345.58 268.798ZM334.992 274.21L329.698 276.916L329.243 276.025L334.537 273.32L334.992 274.21ZM324.404 279.622L319.11 282.328L318.655 281.437L323.949 278.731L324.404 279.622ZM313.816 285.033L308.522 287.739L308.066 286.849L313.361 284.143L313.816 285.033ZM303.227 290.445L297.933 293.151L297.478 292.261L302.772 289.555L303.227 290.445ZM292.639 295.857L287.345 298.563L286.89 297.672L292.184 294.967L292.639 295.857ZM282.051 301.269L276.757 303.975L276.302 303.084L281.596 300.378L282.051 301.269ZM271.463 306.681L266.169 309.386L265.714 308.496L271.008 305.79L271.463 306.681Z" fill="#034737"/>
<path d="M345 358L350.197 355.484L345.42 352.242L345 358ZM437.586 220.719L435.926 223.166L436.753 223.727L438.414 221.281L437.586 220.719ZM432.604 228.058L429.283 232.951L430.11 233.513L433.432 228.62L432.604 228.058ZM425.961 237.844L422.64 242.737L423.467 243.299L426.789 238.406L425.961 237.844ZM419.318 247.63L415.997 252.523L416.824 253.084L420.146 248.192L419.318 247.63ZM412.676 257.416L409.354 262.308L410.182 262.87L413.503 257.977L412.676 257.416ZM406.033 267.201L402.711 272.094L403.539 272.656L406.86 267.763L406.033 267.201ZM399.39 276.987L396.068 281.88L396.896 282.442L400.217 277.549L399.39 276.987ZM392.747 286.773L389.426 291.666L390.253 292.227L393.574 287.334L392.747 286.773ZM386.104 296.558L382.783 301.451L383.61 302.013L386.932 297.12L386.104 296.558ZM379.461 306.344L376.14 311.237L376.967 311.799L380.289 306.906L379.461 306.344ZM372.818 316.13L369.497 321.023L370.324 321.584L373.646 316.692L372.818 316.13ZM366.176 325.916L362.854 330.808L363.682 331.37L367.003 326.477L366.176 325.916ZM359.533 335.701L356.211 340.594L357.039 341.156L360.36 336.263L359.533 335.701ZM352.89 345.487L349.568 350.38L350.396 350.942L353.717 346.049L352.89 345.487Z" fill="#034737"/>
<path d="M258 127L263.768 126.759L261.093 131.875L258 127ZM437.768 221.577L435.121 220.193L435.585 219.306L438.232 220.691L437.768 221.577ZM429.827 217.424L424.533 214.655L424.996 213.769L430.291 216.538L429.827 217.424ZM419.239 211.887L413.945 209.118L414.408 208.232L419.702 211L419.239 211.887ZM408.651 206.349L403.357 203.581L403.82 202.695L409.114 205.463L408.651 206.349ZM398.062 200.812L392.768 198.043L393.232 197.157L398.526 199.926L398.062 200.812ZM387.474 195.275L382.18 192.506L382.643 191.62L387.938 194.389L387.474 195.275ZM376.886 189.737L371.592 186.969L372.055 186.083L377.349 188.851L376.886 189.737ZM366.298 184.2L361.004 181.432L361.467 180.545L366.761 183.314L366.298 184.2ZM355.709 178.663L350.415 175.894L350.879 175.008L356.173 177.777L355.709 178.663ZM345.121 173.126L339.827 170.357L340.29 169.471L345.585 172.239L345.121 173.126ZM334.533 167.588L329.239 164.82L329.702 163.934L334.996 166.702L334.533 167.588ZM323.945 162.051L318.651 159.282L319.114 158.396L324.408 161.165L323.945 162.051ZM313.356 156.514L308.062 153.745L308.526 152.859L313.82 155.628L313.356 156.514ZM302.768 150.976L297.474 148.208L297.938 147.322L303.232 150.09L302.768 150.976ZM292.18 145.439L286.886 142.671L287.349 141.784L292.643 144.553L292.18 145.439ZM281.592 139.902L276.298 137.133L276.761 136.247L282.055 139.016L281.592 139.902ZM271.004 134.365L265.709 131.596L266.173 130.71L271.467 133.478L271.004 134.365Z" fill="#034737"/>
<path d="M337 75.0004L342.217 77.4741L337.466 80.7551L337 75.0004ZM437.589 221.526L435.905 219.089L436.728 218.521L438.411 220.958L437.589 221.526ZM432.539 214.214L429.172 209.34L429.995 208.771L433.361 213.646L432.539 214.214ZM425.805 204.465L422.439 199.59L423.261 199.022L426.628 203.897L425.805 204.465ZM419.072 194.715L415.705 189.841L416.528 189.272L419.895 194.147L419.072 194.715ZM412.339 184.966L408.972 180.091L409.795 179.523L413.161 184.398L412.339 184.966ZM405.605 175.216L402.239 170.342L403.061 169.773L406.428 174.648L405.605 175.216ZM398.872 165.467L395.505 160.592L396.328 160.024L399.695 164.899L398.872 165.467ZM392.139 155.718L388.772 150.843L389.595 150.275L392.961 155.149L392.139 155.718ZM385.405 145.968L382.039 141.093L382.861 140.525L386.228 145.4L385.405 145.968ZM378.672 136.219L375.305 131.344L376.128 130.776L379.495 135.65L378.672 136.219ZM371.939 126.469L368.572 121.594L369.395 121.026L372.761 125.901L371.939 126.469ZM365.205 116.72L361.839 111.845L362.661 111.277L366.028 116.151L365.205 116.72ZM358.472 106.97L355.105 102.096L355.928 101.527L359.295 106.402L358.472 106.97ZM351.739 97.2208L348.372 92.3461L349.195 91.7778L352.561 96.6525L351.739 97.2208ZM345.005 87.4714L341.639 82.5966L342.461 82.0284L345.828 86.9031L345.005 87.4714Z" fill="#034737"/>
<path d="M339.965 388C244.42 388 166.965 310.769 166.965 215.5C166.965 120.231 244.42 43 339.965 43" stroke="#034737" stroke-width="0.887064" stroke-dasharray="13.31 13.31"/>
<circle cx="5" cy="5" r="5" transform="matrix(-1 0 0 1 443 216)" fill="#034737"/>
<g filter="url(#filter0_bd_6882_7278)">
<rect width="70" height="70" rx="15.5555" transform="matrix(-1 -1.74846e-07 -1.74846e-07 1 342 5)" fill="#034737"/>
<rect x="0.526509" y="-0.526509" width="71.053" height="71.053" rx="16.0821" transform="matrix(-1 -1.74846e-07 -1.74846e-07 1 343.053 5)" stroke="#EAEAEA" stroke-width="1.05302"/>
<path d="M287.213 39.8656H293.366" stroke="white" stroke-width="1.7591" stroke-linecap="round" stroke-linejoin="round"/>
<path d="M285.674 27C288.222 27 290.288 29.1601 290.288 31.8247V47.9072C290.288 50.5718 288.222 52.7319 285.674 52.7319" stroke="white" stroke-width="1.7591" stroke-linecap="round" stroke-linejoin="round"/>
<path d="M294.905 27C292.356 27 290.29 29.1601 290.29 31.8247V47.9072C290.29 50.5718 292.356 52.7319 294.905 52.7319" stroke="white" stroke-width="1.7591" stroke-linecap="round" stroke-linejoin="round"/>
<path fill-rule="evenodd" clip-rule="evenodd" d="M319.515 36.6503L326.518 32.9899C326.995 32.7409 327.561 32.7675 328.014 33.0604C328.467 33.3532 328.744 33.8705 328.744 34.4277V45.3059C328.744 45.863 328.467 46.3803 328.014 46.6732C327.561 46.966 326.995 46.9927 326.518 46.7436L319.515 43.0833V36.6503Z" stroke="white" stroke-width="1.7591" stroke-linecap="round" stroke-linejoin="round"/>
<rect x="301.057" y="30.2168" width="18.4584" height="19.2989" rx="2.31969" stroke="white" stroke-width="1.7591" stroke-linecap="round" stroke-linejoin="round"/>
</g>
<g filter="url(#filter1_bd_6882_7278)">
<rect width="70" height="70" rx="15.5555" transform="matrix(-1 -1.74846e-07 -1.74846e-07 1 249 67)" fill="#034737"/>
<rect x="0.526509" y="-0.526509" width="71.053" height="71.053" rx="16.0821" transform="matrix(-1 -1.74846e-07 -1.74846e-07 1 250.053 67)" stroke="#EAEAEA" stroke-width="1.05302"/>
<path fill-rule="evenodd" clip-rule="evenodd" d="M230.876 93.9725C230.876 93.2682 230.579 92.5926 230.05 92.0949C229.521 91.5972 228.801 91.3172 228.053 91.3172H221.289L217.965 88.1941C217.834 88.0697 217.654 88 217.467 88H210.409C210.222 88 210.042 88.0697 209.911 88.1941L206.587 91.3172H199.823C199.075 91.3172 198.355 91.5972 197.826 92.0949C197.296 92.5926 197 93.2682 197 93.9725V112.553C197 113.257 197.296 113.933 197.826 114.431C198.355 114.928 199.075 115.207 199.823 115.207H228.052C228.799 115.207 229.519 114.927 230.049 114.429C230.579 113.933 230.876 113.257 230.876 112.553L230.876 93.9725ZM229.464 93.9725V112.553C229.464 112.905 229.316 113.242 229.051 113.491C228.786 113.74 228.426 113.881 228.053 113.881H199.823C199.45 113.881 199.09 113.74 198.825 113.491C198.56 113.242 198.412 112.905 198.412 112.553V93.9725C198.412 93.6203 198.56 93.2831 198.825 93.0343C199.09 92.7842 199.45 92.6448 199.823 92.6448H206.88C207.066 92.6448 207.246 92.5752 207.377 92.4507L210.703 89.3264H217.175L220.499 92.4495C220.628 92.5752 220.808 92.6448 220.995 92.6448H228.052C228.426 92.6448 228.786 92.7842 229.051 93.0343C229.315 93.2832 229.464 93.6203 229.464 93.9725ZM222.015 102.498C222.04 102.75 222.054 103.005 222.054 103.262C222.054 107.474 218.416 110.895 213.938 110.895C209.46 110.895 205.823 107.474 205.823 103.262C205.823 99.0503 209.46 95.6312 213.938 95.6312C214.336 95.6312 214.732 95.6586 215.117 95.7108C215.502 95.7631 215.858 95.5118 215.915 95.1497C215.971 94.7876 215.702 94.4504 215.318 94.3981C214.866 94.3359 214.408 94.3036 213.938 94.3036C208.681 94.3036 204.411 98.3177 204.411 103.262C204.411 108.207 208.681 112.221 213.938 112.221C219.196 112.221 223.466 108.207 223.466 103.262C223.466 102.96 223.448 102.661 223.419 102.368C223.381 102.003 223.034 101.737 222.647 101.773C222.259 101.809 221.976 102.135 222.015 102.498ZM212.484 101.706C212.382 101.444 212.117 101.271 211.821 101.271C211.524 101.271 211.26 101.444 211.158 101.704L210.318 103.841L208.048 104.631C207.77 104.728 207.586 104.976 207.586 105.253C207.586 105.531 207.77 105.779 208.048 105.875L210.318 106.665L211.158 108.802C211.26 109.062 211.524 109.235 211.821 109.235C212.117 109.235 212.382 109.062 212.484 108.802L213.324 106.665L215.593 105.875C215.871 105.779 216.055 105.532 216.055 105.253C216.055 104.976 215.871 104.728 215.593 104.631L213.324 103.841L212.484 101.704V101.706ZM211.821 103.848L212.113 104.589C212.183 104.77 212.336 104.913 212.53 104.981L213.317 105.253L212.53 105.527C212.336 105.594 212.185 105.737 212.113 105.919L211.821 106.659L211.531 105.919C211.457 105.737 211.305 105.594 211.111 105.527L210.324 105.253L211.111 104.979C211.306 104.912 211.457 104.769 211.531 104.587L211.821 103.848ZM218.822 93.0781C218.719 92.8181 218.454 92.6451 218.162 92.6451C217.865 92.6451 217.601 92.8181 217.499 93.0781L215.801 97.3933L211.211 98.9897C210.935 99.0867 210.752 99.3343 210.752 99.6118C210.752 99.8893 210.935 100.138 211.211 100.234L215.801 101.83L217.499 106.145C217.601 106.406 217.865 106.579 218.162 106.579C218.454 106.579 218.719 106.406 218.822 106.145L220.523 101.83L225.11 100.234C225.39 100.137 225.572 99.8893 225.572 99.6118C225.572 99.3343 225.388 99.0855 225.11 98.9897L220.523 97.3933L218.822 93.0781ZM218.162 95.2208L219.309 98.1398C219.383 98.3215 219.535 98.4646 219.729 98.5318L222.83 99.6131L219.729 100.693C219.534 100.76 219.383 100.903 219.309 101.085L218.162 104.004L217.012 101.085C216.942 100.903 216.79 100.76 216.595 100.693L213.489 99.6131L216.595 98.533C216.79 98.4659 216.94 98.3228 217.012 98.1411L218.162 95.2208ZM223.465 94.9682H222.76C222.372 94.9682 222.055 95.2656 222.055 95.6314C222.055 95.9972 222.372 96.2946 222.76 96.2946H223.465V96.9577C223.465 97.3236 223.783 97.6209 224.171 97.6209C224.558 97.6209 224.876 97.3236 224.876 96.9577V96.2946H225.581C225.969 96.2946 226.287 95.9972 226.287 95.6314C226.287 95.2656 225.969 94.9682 225.581 94.9682H224.876V94.305C224.876 93.9392 224.558 93.6418 224.171 93.6418C223.783 93.6418 223.465 93.9392 223.465 94.305V94.9682Z" fill="white"/>
</g>
<g filter="url(#filter2_bd_6882_7278)">
<rect width="70" height="70" rx="15.5555" transform="matrix(-1 -1.74846e-07 -1.74846e-07 1 202 186)" fill="#034737"/>
<rect x="0.526509" y="-0.526509" width="71.053" height="71.053" rx="16.0821" transform="matrix(-1 -1.74846e-07 -1.74846e-07 1 203.053 186)" stroke="#EAEAEA" stroke-width="1.05302"/>
<path fill-rule="evenodd" clip-rule="evenodd" d="M167.606 206.151H152.347C151.725 206.151 151.127 206.378 150.689 206.781C150.246 207.185 150 207.732 150 208.302C150 213.469 150 231.1 150 236.267C150 237.455 151.052 238.418 152.347 238.418H175.822C177.117 238.418 178.17 237.455 178.17 236.267C178.17 232.634 178.17 223.36 178.17 223.36C178.17 222.964 177.817 222.643 177.387 222.643C176.957 222.643 176.605 222.964 176.605 223.36C176.605 223.36 176.605 232.634 176.605 236.267C176.605 236.663 176.256 236.984 175.822 236.984H152.347C151.913 236.984 151.565 236.663 151.565 236.267C151.565 231.1 151.565 213.469 151.565 208.302C151.565 208.112 151.647 207.93 151.796 207.795C151.941 207.661 152.14 207.585 152.347 207.585H167.606C168.036 207.585 168.388 207.264 168.388 206.868C168.388 206.472 168.036 206.151 167.606 206.151ZM156.064 230.53H172.105C172.536 230.53 172.888 230.209 172.888 229.813C172.888 229.417 172.536 229.096 172.105 229.096H156.064C155.634 229.096 155.282 229.417 155.282 229.813C155.282 230.209 155.634 230.53 156.064 230.53ZM156.064 226.587H172.105C172.536 226.587 172.888 226.265 172.888 225.87C172.888 225.474 172.536 225.153 172.105 225.153H156.064C155.634 225.153 155.282 225.474 155.282 225.87C155.282 226.265 155.634 226.587 156.064 226.587ZM163.302 214.397H156.26C155.83 214.397 155.477 214.718 155.477 215.114C155.477 215.51 155.83 215.831 156.26 215.831H158.999V223.001C158.999 223.397 159.351 223.718 159.781 223.718C160.211 223.718 160.564 223.397 160.564 223.001V215.831H163.302C163.733 215.831 164.085 215.51 164.085 215.114C164.085 214.718 163.733 214.397 163.302 214.397ZM164.28 223.001H172.105C172.536 223.001 172.888 222.68 172.888 222.284C172.888 221.889 172.536 221.567 172.105 221.567H164.28C163.85 221.567 163.498 221.889 163.498 222.284C163.498 222.68 163.85 223.001 164.28 223.001ZM180.454 213.79C180.341 213.508 180.047 213.321 179.723 213.321C179.394 213.321 179.101 213.508 178.987 213.79L178.056 216.097L175.536 216.951C175.231 217.055 175.028 217.324 175.028 217.624C175.028 217.924 175.231 218.192 175.536 218.296L178.056 219.15L178.987 221.458C179.101 221.739 179.394 221.926 179.723 221.926C180.047 221.926 180.341 221.739 180.454 221.458L181.386 219.15L183.905 218.296C184.214 218.192 184.418 217.924 184.418 217.624C184.418 217.324 184.214 217.055 183.905 216.951L181.386 216.097L180.454 213.79ZM166.432 219.416H169.562C169.993 219.416 170.345 219.095 170.345 218.699C170.345 218.303 169.993 217.982 169.562 217.982H166.432C166.002 217.982 165.65 218.303 165.65 218.699C165.65 219.095 166.002 219.416 166.432 219.416ZM179.723 216.105L180.044 216.904C180.122 217.101 180.294 217.255 180.505 217.328L181.378 217.624L180.505 217.919C180.294 217.992 180.122 218.147 180.044 218.343L179.723 219.143L179.398 218.343C179.32 218.147 179.152 217.992 178.936 217.919L178.064 217.624L178.936 217.328C179.152 217.255 179.32 217.101 179.398 216.904L179.723 216.105ZM173.428 204.468C173.314 204.187 173.021 204 172.692 204C172.363 204 172.07 204.187 171.957 204.468L170.075 209.131L164.989 210.856C164.679 210.961 164.476 211.229 164.476 211.529C164.476 211.829 164.679 212.097 164.989 212.201L170.075 213.927L171.957 218.59C172.07 218.871 172.363 219.058 172.692 219.058C173.021 219.058 173.314 218.871 173.428 218.59L175.31 213.927L180.396 212.201C180.705 212.097 180.908 211.829 180.908 211.529C180.908 211.229 180.705 210.961 180.396 210.856L175.31 209.131L173.428 204.468ZM172.692 206.783L173.968 209.938C174.046 210.134 174.214 210.289 174.429 210.362L177.872 211.529L174.429 212.696C174.214 212.769 174.046 212.924 173.968 213.12L172.692 216.275L171.417 213.12C171.338 212.924 171.17 212.769 170.955 212.696L167.512 211.529L170.955 210.362C171.17 210.289 171.338 210.134 171.417 209.938L172.692 206.783ZM166.432 215.831H167.997C168.428 215.831 168.78 215.51 168.78 215.114C168.78 214.718 168.428 214.397 167.997 214.397H166.432C166.002 214.397 165.65 214.718 165.65 215.114C165.65 215.51 166.002 215.831 166.432 215.831ZM178.952 206.51H178.17C177.739 206.51 177.387 206.831 177.387 207.227C177.387 207.622 177.739 207.944 178.17 207.944H178.952V208.661C178.952 209.057 179.304 209.378 179.735 209.378C180.165 209.378 180.517 209.057 180.517 208.661V207.944H181.299C181.73 207.944 182.082 207.622 182.082 207.227C182.082 206.831 181.73 206.51 181.299 206.51H180.517V205.793C180.517 205.397 180.165 205.076 179.735 205.076C179.304 205.076 178.952 205.397 178.952 205.793V206.51Z" fill="white"/>
</g>
<g filter="url(#filter3_bd_6882_7278)">
<rect width="70" height="70" rx="15.5555" transform="matrix(-1 -1.74846e-07 -1.74846e-07 1 252 304)" fill="#034737"/>
<rect x="0.526509" y="-0.526509" width="71.053" height="71.053" rx="16.0821" transform="matrix(-1 -1.74846e-07 -1.74846e-07 1 253.053 304)" stroke="#EAEAEA" stroke-width="1.05302"/>
<rect x="234" y="321.787" width="34.2124" height="34.2124" rx="3.75" transform="rotate(90 234 321.787)" stroke="white" stroke-width="2" stroke-linecap="round" stroke-linejoin="round"/>
<path d="M223.309 321.787V338.893" stroke="white" stroke-width="2" stroke-linecap="round" stroke-linejoin="round"/>
<path d="M210.48 338.894V356" stroke="white" stroke-width="2" stroke-linecap="round" stroke-linejoin="round"/>
<path d="M234 338.893H199.788" stroke="white" stroke-width="2" stroke-linecap="round" stroke-linejoin="round"/>
</g>
<g filter="url(#filter4_bd_6882_7278)">
<rect width="70" height="70" rx="15.5555" transform="matrix(-1 -1.74846e-07 -1.74846e-07 1 342 358)" fill="#034737"/>
<rect x="0.526509" y="-0.526509" width="71.053" height="71.053" rx="16.0821" transform="matrix(-1 -1.74846e-07 -1.74846e-07 1 343.053 358)" stroke="#EAEAEA" stroke-width="1.05302"/>
<rect x="288.786" y="379.39" width="36.2134" height="28.166" rx="4.94596" stroke="white" stroke-width="2" stroke-linecap="round" stroke-linejoin="round"/>
<path d="M288.786 383.413L306.893 395.484L325 383.413" stroke="white" stroke-width="2" stroke-linecap="round" stroke-linejoin="round"/>
</g>
<path d="M360.132 84.7425L357.821 81.1687L355.573 81.6888L354.843 80.5603L364.906 78.2541L365.704 79.4884L359.466 87.7078L358.736 86.5792L360.132 84.7425ZM360.804 83.8743L363.985 79.7169L358.889 80.9118L360.804 83.8743ZM369.209 84.8049L361.015 90.104L360.323 89.0342L368.517 83.7351L369.209 84.8049ZM370.671 92.8407L366.874 95.2964C366.561 95.4991 366.38 95.7102 366.333 95.9296C366.294 96.1439 366.381 96.4157 366.594 96.7448L367.103 97.5325L366.198 98.1179L365.575 97.1539C365.189 96.5583 365.038 96.0228 365.119 95.5476C365.201 95.0724 365.555 94.6321 366.182 94.2266L369.979 91.7709L369.44 90.9363L370.321 90.3661L370.861 91.2007L372.483 90.1516L373.175 91.2214L371.553 92.2705L372.64 93.9516L371.758 94.5218L370.671 92.8407ZM374.328 103.084C374.125 103.216 373.901 103.344 373.659 103.467L370.329 98.3183C369.72 98.768 369.361 99.3054 369.254 99.9304C369.16 100.558 369.295 101.154 369.66 101.718C369.959 102.181 370.313 102.496 370.723 102.665C371.145 102.837 371.577 102.869 372.018 102.761L372.763 103.913C372.033 104.141 371.304 104.123 370.578 103.859C369.859 103.59 369.252 103.072 368.755 102.304C368.36 101.693 368.142 101.055 368.102 100.392C368.067 99.7365 368.212 99.1094 368.536 98.5107C368.868 97.907 369.367 97.3897 370.033 96.9589C370.7 96.5281 371.37 96.2837 372.043 96.2258C372.717 96.1679 373.342 96.2918 373.918 96.5975C374.506 96.906 375.003 97.3738 375.409 98.0008C375.804 98.6121 376.021 99.239 376.058 99.8815C376.096 100.524 375.961 101.123 375.653 101.678C375.358 102.235 374.916 102.704 374.328 103.084ZM373.837 101.835C374.245 101.571 374.535 101.256 374.708 100.888C374.89 100.515 374.953 100.124 374.9 99.7139C374.859 99.3069 374.717 98.9153 374.473 98.5391C374.124 97.9984 373.652 97.6475 373.059 97.4865C372.471 97.3333 371.853 97.4269 371.207 97.7674L373.837 101.835ZM373.971 110.137L375.381 107.058L372.032 107.139L371.31 106.022L375.853 106.035L377.752 101.856L378.535 103.067L377.137 106.138L380.466 106.053L381.188 107.17L376.665 107.161L374.754 111.348L373.971 110.137ZM381.862 110.144L378.064 112.6C377.751 112.802 377.571 113.013 377.524 113.233C377.484 113.447 377.571 113.719 377.784 114.048L378.293 114.836L377.388 115.421L376.765 114.457C376.38 113.862 376.228 113.326 376.31 112.851C376.391 112.376 376.746 111.935 377.373 111.53L381.17 109.074L380.63 108.24L381.512 107.669L382.051 108.504L383.674 107.455L384.366 108.525L382.743 109.574L383.83 111.255L382.949 111.825L381.862 110.144ZM386.703 117.631L382.906 120.086C382.593 120.289 382.413 120.5 382.365 120.72C382.326 120.934 382.413 121.206 382.626 121.535L383.135 122.323L382.23 122.908L381.607 121.944C381.221 121.348 381.07 120.813 381.151 120.338C381.233 119.863 381.587 119.422 382.214 119.017L386.012 116.561L385.472 115.726L386.353 115.156L386.893 115.991L388.516 114.942L389.207 116.011L387.585 117.061L388.672 118.742L387.791 119.312L386.703 117.631ZM384.802 127.117C384.412 126.514 384.194 125.877 384.149 125.206C384.11 124.542 384.249 123.907 384.568 123.301C384.9 122.697 385.399 122.18 386.066 121.749C386.724 121.323 387.395 121.089 388.079 121.047C388.776 121.008 389.417 121.148 390.003 121.47C390.597 121.786 391.091 122.25 391.487 122.861C391.882 123.473 392.102 124.114 392.147 124.785C392.2 125.451 392.067 126.087 391.748 126.694C391.434 127.308 390.944 127.831 390.277 128.262C389.611 128.693 388.927 128.924 388.225 128.955C387.536 128.99 386.892 128.845 386.293 128.521C385.695 128.197 385.198 127.729 384.802 127.117ZM385.743 126.509C385.991 126.893 386.314 127.196 386.713 127.416C387.111 127.636 387.556 127.732 388.048 127.703C388.546 127.681 389.053 127.503 389.57 127.168C390.088 126.834 390.461 126.448 390.689 126.011C390.918 125.574 391.012 125.136 390.972 124.695C390.939 124.249 390.799 123.834 390.55 123.45C390.297 123.058 389.974 122.756 389.58 122.544C389.2 122.334 388.766 122.247 388.279 122.285C387.792 122.322 387.29 122.508 386.773 122.842C386.247 123.182 385.865 123.562 385.627 123.984C385.393 124.413 385.29 124.846 385.317 125.284C385.353 125.717 385.494 126.125 385.743 126.509ZM392.565 136.723L399.312 135.194L400.05 136.334L391.973 137.973L391.167 136.727L395.975 130.033L396.72 131.185L392.565 136.723ZM402.157 137.298C402.025 137.094 401.984 136.876 402.034 136.644C402.084 136.412 402.211 136.23 402.414 136.098C402.618 135.966 402.836 135.925 403.069 135.975C403.301 136.025 403.483 136.152 403.615 136.356C403.741 136.551 403.777 136.762 403.722 136.986C403.673 137.218 403.546 137.4 403.342 137.532C403.138 137.664 402.92 137.705 402.688 137.655C402.461 137.613 402.284 137.494 402.157 137.298ZM401.445 138.492L395.003 142.658L394.311 141.589L400.753 137.422L401.445 138.492ZM399.191 142.019C399.849 141.593 400.512 141.354 401.178 141.301C401.852 141.243 402.475 141.357 403.049 141.642C403.627 141.934 404.104 142.371 404.479 142.951C404.803 143.452 404.987 143.995 405.031 144.578C405.082 145.156 404.993 145.68 404.764 146.151L408.173 143.946L408.873 145.027L400.174 150.653L399.474 149.572L400.685 148.789C400.164 148.826 399.644 148.717 399.124 148.464C398.613 148.206 398.177 147.799 397.817 147.242C397.447 146.67 397.251 146.058 397.229 145.405C397.212 144.76 397.373 144.14 397.71 143.544C398.047 142.948 398.541 142.44 399.191 142.019ZM402.707 147.481C403.193 147.167 403.553 146.795 403.786 146.366C404.02 145.937 404.122 145.493 404.092 145.035C404.075 144.579 403.938 144.151 403.679 143.751C403.421 143.352 403.091 143.048 402.69 142.84C402.289 142.633 401.845 142.548 401.358 142.585C400.871 142.622 400.384 142.798 399.898 143.112C399.404 143.431 399.037 143.808 398.795 144.242C398.561 144.671 398.453 145.114 398.47 145.57C398.494 146.021 398.636 146.446 398.895 146.846C399.153 147.245 399.483 147.549 399.884 147.756C400.298 147.967 400.748 148.053 401.235 148.016C401.731 147.974 402.221 147.795 402.707 147.481ZM408.635 156.132C408.431 156.263 408.208 156.391 407.965 156.515L404.635 151.366C404.026 151.815 403.668 152.353 403.561 152.978C403.466 153.605 403.602 154.201 403.967 154.766C404.266 155.228 404.62 155.544 405.029 155.712C405.451 155.884 405.883 155.916 406.325 155.808L407.07 156.96C406.339 157.188 405.611 157.17 404.884 156.907C404.166 156.638 403.558 156.119 403.061 155.351C402.666 154.74 402.449 154.102 402.409 153.439C402.374 152.784 402.518 152.157 402.843 151.558C403.175 150.954 403.674 150.437 404.34 150.006C405.006 149.575 405.676 149.331 406.35 149.273C407.024 149.215 407.649 149.339 408.224 149.645C408.813 149.953 409.31 150.421 409.715 151.048C410.111 151.659 410.327 152.286 410.365 152.929C410.402 153.571 410.267 154.17 409.959 154.725C409.664 155.283 409.223 155.752 408.635 156.132ZM408.143 154.882C408.551 154.619 408.841 154.303 409.015 153.935C409.196 153.562 409.26 153.171 409.206 152.761C409.165 152.354 409.023 151.963 408.78 151.586C408.43 151.046 407.958 150.695 407.365 150.534C406.777 150.381 406.16 150.474 405.513 150.815L408.143 154.882ZM407.814 162.7C407.424 162.096 407.206 161.459 407.161 160.788C407.121 160.125 407.261 159.49 407.58 158.883C407.912 158.279 408.411 157.762 409.077 157.331C409.735 156.906 410.407 156.672 411.091 156.629C411.788 156.59 412.429 156.731 413.015 157.052C413.608 157.369 414.103 157.832 414.498 158.444C414.894 159.055 415.114 159.696 415.159 160.367C415.212 161.034 415.078 161.67 414.759 162.276C414.445 162.891 413.955 163.413 413.289 163.844C412.623 164.275 411.939 164.506 411.237 164.538C410.548 164.572 409.904 164.427 409.305 164.103C408.706 163.779 408.209 163.311 407.814 162.7ZM408.755 162.092C409.003 162.476 409.326 162.778 409.724 162.998C410.123 163.219 410.568 163.314 411.06 163.285C411.557 163.263 412.065 163.085 412.582 162.751C413.099 162.416 413.472 162.031 413.701 161.594C413.93 161.157 414.024 160.718 413.983 160.277C413.951 159.832 413.81 159.417 413.562 159.033C413.309 158.641 412.985 158.339 412.592 158.126C412.212 157.916 411.778 157.83 411.291 157.867C410.804 157.904 410.301 158.09 409.784 158.425C409.259 158.764 408.877 159.145 408.638 159.566C408.404 159.995 408.301 160.428 408.329 160.866C408.364 161.299 408.506 161.708 408.755 162.092Z" fill="#666666"/>
<path d="M280.81 121.234C280.409 121.939 279.831 122.389 279.076 122.583C278.335 122.773 277.469 122.587 276.479 122.024L274.849 121.096L272.834 124.637L271.727 124.008L276.551 115.526L279.289 117.083C280.247 117.627 280.841 118.272 281.073 119.015C281.313 119.764 281.225 120.503 280.81 121.234ZM276.998 121.111C277.615 121.462 278.145 121.586 278.59 121.485C279.034 121.383 279.397 121.085 279.678 120.59C280.274 119.543 279.971 118.678 278.77 117.996L277.14 117.068L275.368 120.183L276.998 121.111ZM283.095 123.081C283.507 122.81 283.951 122.671 284.428 122.663C284.913 122.66 285.415 122.806 285.934 123.101L285.284 124.245L284.992 124.079C283.75 123.373 282.747 123.693 281.981 125.04L279.918 128.666L278.811 128.037L282.604 121.368L283.711 121.998L283.095 123.081ZM286.233 132.403C285.608 132.048 285.121 131.583 284.772 131.008C284.43 130.438 284.261 129.81 284.264 129.125C284.28 128.436 284.484 127.747 284.877 127.057C285.264 126.376 285.752 125.859 286.339 125.506C286.939 125.149 287.573 124.978 288.241 124.993C288.914 125 289.567 125.183 290.199 125.543C290.832 125.903 291.323 126.37 291.673 126.945C292.027 127.511 292.203 128.137 292.2 128.823C292.204 129.513 292.011 130.202 291.618 130.892C291.226 131.582 290.726 132.102 290.118 132.454C289.522 132.803 288.884 132.971 288.203 132.96C287.523 132.949 286.866 132.763 286.233 132.403ZM286.787 131.43C287.184 131.656 287.611 131.775 288.066 131.786C288.521 131.798 288.96 131.678 289.383 131.424C289.814 131.176 290.182 130.784 290.487 130.248C290.791 129.713 290.944 129.199 290.946 128.705C290.947 128.212 290.828 127.779 290.589 127.407C290.354 127.027 290.038 126.724 289.64 126.497C289.235 126.267 288.809 126.148 288.362 126.141C287.928 126.13 287.503 126.253 287.088 126.511C286.673 126.769 286.313 127.166 286.008 127.701C285.699 128.245 285.536 128.758 285.518 129.242C285.509 129.731 285.617 130.163 285.844 130.539C286.075 130.907 286.389 131.203 286.787 131.43ZM292.704 131.493C293.092 130.812 293.569 130.294 294.135 129.94C294.707 129.577 295.312 129.39 295.952 129.379C296.601 129.372 297.225 129.539 297.825 129.88C298.345 130.176 298.758 130.572 299.066 131.069C299.378 131.558 299.541 132.064 299.555 132.587L301.562 129.058L302.682 129.695L297.56 138.7L296.44 138.064L297.153 136.81C296.708 137.083 296.197 137.227 295.619 137.242C295.046 137.249 294.472 137.089 293.896 136.761C293.303 136.424 292.847 135.972 292.526 135.403C292.214 134.838 292.069 134.214 292.094 133.53C292.118 132.846 292.321 132.167 292.704 131.493ZM298.344 134.717C298.63 134.214 298.778 133.718 298.787 133.23C298.797 132.741 298.682 132.3 298.444 131.907C298.219 131.511 297.899 131.195 297.485 130.959C297.072 130.724 296.639 130.607 296.188 130.608C295.736 130.609 295.303 130.738 294.888 130.996C294.473 131.254 294.122 131.634 293.836 132.137C293.545 132.648 293.393 133.152 293.379 133.649C293.369 134.137 293.477 134.58 293.703 134.977C293.933 135.365 294.255 135.677 294.668 135.912C295.082 136.148 295.515 136.265 295.966 136.264C296.43 136.26 296.87 136.128 297.285 135.871C297.705 135.605 298.058 135.22 298.344 134.717ZM309.175 136.481L305.382 143.149L304.275 142.52L304.835 141.534C304.431 141.755 303.982 141.854 303.49 141.832C303.011 141.806 302.544 141.664 302.09 141.406C301.571 141.11 301.164 140.74 300.87 140.293C300.581 139.839 300.437 139.328 300.438 138.759C300.448 138.195 300.628 137.605 300.978 136.989L303.2 133.082L304.295 133.705L302.157 137.465C301.783 138.123 301.661 138.724 301.79 139.27C301.925 139.808 302.28 140.241 302.856 140.569C303.448 140.906 304.018 140.989 304.567 140.817C305.115 140.646 305.588 140.211 305.984 139.514L308.068 135.851L309.175 136.481ZM308.778 140.652C309.17 139.962 309.65 139.44 310.216 139.086C310.787 138.724 311.397 138.539 312.045 138.532C312.702 138.529 313.346 138.708 313.979 139.068C314.799 139.534 315.359 140.116 315.66 140.813C315.97 141.515 316.009 142.268 315.778 143.071L314.585 142.392C314.702 141.922 314.661 141.475 314.463 141.05C314.272 140.63 313.933 140.282 313.446 140.005C312.814 139.645 312.178 139.574 311.539 139.79C310.905 139.999 310.362 140.5 309.91 141.295C309.453 142.099 309.295 142.83 309.435 143.49C309.575 144.149 309.962 144.659 310.595 145.019C311.081 145.296 311.552 145.413 312.005 145.37C312.459 145.328 312.867 145.13 313.228 144.777L314.421 145.456C313.855 146.036 313.187 146.38 312.416 146.49C311.65 146.591 310.865 146.413 310.062 145.956C309.429 145.596 308.946 145.133 308.612 144.568C308.287 144.007 308.134 143.389 308.154 142.713C308.173 142.036 308.381 141.35 308.778 140.652ZM319.342 143.471L317.106 147.402C316.921 147.726 316.859 147.997 316.918 148.213C316.982 148.421 317.185 148.622 317.526 148.816L318.341 149.28L317.808 150.217L316.81 149.649C316.194 149.299 315.812 148.894 315.665 148.434C315.518 147.975 315.629 147.421 315.999 146.772L318.234 142.841L317.37 142.35L317.889 141.437L318.753 141.928L319.709 140.249L320.816 140.879L319.861 142.558L321.601 143.548L321.082 144.461L319.342 143.471ZM328.554 153.832L324.854 151.728L323.1 153.227L321.932 152.562L329.795 145.873L331.073 146.6L329.331 156.77L328.162 156.106L328.554 153.832ZM328.75 152.752L329.653 147.596L325.683 151.007L328.75 152.752ZM336.635 149.699L331.811 158.181L330.704 157.551L335.528 149.069L336.635 149.699Z" fill="#666666"/>
<path d="M236.297 211.689L232.041 211.733L231.279 213.911L229.935 213.925L233.363 204.187L234.833 204.172L238.447 213.837L237.103 213.851L236.297 211.689ZM235.922 210.657L234.107 205.747L232.394 210.693L235.922 210.657ZM241.2 204.051L241.3 213.808L240.026 213.821L239.926 204.064L241.2 204.051ZM246.772 209.888C246.764 209.104 246.915 208.416 247.227 207.825C247.538 207.224 247.967 206.758 248.514 206.426C249.071 206.093 249.69 205.924 250.371 205.917C251.043 205.91 251.628 206.048 252.126 206.333C252.623 206.617 252.996 206.977 253.243 207.413L253.229 206.013L254.516 206L254.595 213.672L253.307 213.685L253.293 212.257C253.045 212.707 252.671 213.085 252.17 213.389C251.678 213.683 251.101 213.834 250.439 213.84C249.757 213.847 249.14 213.686 248.586 213.355C248.032 213.025 247.593 212.558 247.269 211.955C246.946 211.351 246.78 210.662 246.772 209.888ZM253.268 209.835C253.262 209.256 253.14 208.754 252.902 208.327C252.665 207.9 252.344 207.576 251.94 207.357C251.546 207.127 251.111 207.015 250.635 207.02C250.159 207.025 249.726 207.141 249.336 207.369C248.947 207.597 248.637 207.927 248.408 208.359C248.179 208.791 248.068 209.296 248.074 209.874C248.08 210.462 248.202 210.974 248.44 211.411C248.677 211.838 248.993 212.166 249.388 212.395C249.782 212.615 250.217 212.723 250.693 212.718C251.169 212.713 251.602 212.596 251.992 212.368C252.391 212.131 252.704 211.796 252.933 211.365C253.162 210.924 253.274 210.414 253.268 209.835ZM257.998 207.21C258.217 206.769 258.531 206.426 258.939 206.179C259.357 205.932 259.864 205.805 260.462 205.799L260.475 207.115L260.139 207.118C258.711 207.133 258.005 207.915 258.021 209.464L258.064 213.636L256.79 213.649L256.711 205.978L257.985 205.964L257.998 207.21ZM263.54 206.958L263.587 211.479C263.591 211.853 263.673 212.118 263.833 212.275C263.993 212.422 264.269 212.494 264.661 212.49L265.599 212.481L265.61 213.559L264.462 213.57C263.753 213.578 263.219 213.42 262.861 213.097C262.503 212.774 262.32 212.239 262.313 211.492L262.266 206.971L261.272 206.981L261.262 205.931L262.256 205.921L262.236 203.989L263.51 203.976L263.53 205.908L265.531 205.887L265.542 206.937L263.54 206.958ZM267.762 204.618C267.52 204.621 267.313 204.539 267.144 204.372C266.974 204.206 266.888 204.002 266.885 203.759C266.883 203.516 266.965 203.31 267.131 203.14C267.297 202.971 267.502 202.885 267.744 202.882C267.978 202.88 268.175 202.962 268.335 203.128C268.505 203.294 268.591 203.499 268.593 203.741C268.596 203.984 268.514 204.19 268.348 204.36C268.191 204.53 267.995 204.616 267.762 204.618ZM268.391 205.858L268.47 213.529L267.196 213.542L267.117 205.871L268.391 205.858ZM270.167 209.662C270.159 208.868 270.311 208.176 270.622 207.585C270.933 206.984 271.367 206.518 271.924 206.185C272.49 205.853 273.137 205.683 273.865 205.676C274.807 205.666 275.584 205.887 276.196 206.338C276.816 206.789 277.229 207.419 277.433 208.229L276.061 208.243C275.926 207.778 275.665 207.412 275.28 207.145C274.904 206.878 274.436 206.748 273.876 206.753C273.148 206.761 272.562 207.019 272.12 207.528C271.677 208.027 271.46 208.734 271.469 209.648C271.479 210.572 271.71 211.284 272.163 211.783C272.616 212.283 273.207 212.529 273.935 212.521C274.495 212.515 274.96 212.38 275.331 212.115C275.701 211.85 275.954 211.474 276.089 210.987L277.461 210.973C277.264 211.759 276.86 212.393 276.249 212.875C275.637 213.348 274.87 213.59 273.946 213.599C273.218 213.607 272.568 213.45 271.995 213.129C271.432 212.808 270.988 212.351 270.665 211.757C270.341 211.163 270.176 210.464 270.167 209.662ZM280.396 203.046L280.502 213.406L279.228 213.419L279.122 203.059L280.396 203.046ZM289.673 209.181C289.675 209.424 289.664 209.681 289.639 209.952L283.507 210.015C283.561 210.77 283.824 211.36 284.295 211.785C284.775 212.2 285.352 212.404 286.023 212.397C286.574 212.391 287.03 212.261 287.392 212.005C287.762 211.74 288.02 211.392 288.165 210.961L289.537 210.947C289.339 211.686 288.935 212.293 288.323 212.766C287.712 213.229 286.949 213.466 286.035 213.475C285.307 213.483 284.652 213.326 284.07 213.005C283.497 212.684 283.044 212.227 282.711 211.633C282.379 211.03 282.208 210.331 282.2 209.538C282.192 208.745 282.343 208.048 282.655 207.447C282.966 206.847 283.404 206.385 283.97 206.062C284.546 205.729 285.207 205.559 285.953 205.551C286.681 205.544 287.327 205.696 287.89 206.008C288.453 206.319 288.887 206.753 289.191 207.31C289.505 207.858 289.665 208.482 289.673 209.181ZM288.354 208.929C288.349 208.444 288.237 208.029 288.019 207.686C287.801 207.334 287.504 207.071 287.129 206.897C286.763 206.715 286.356 206.625 285.908 206.63C285.264 206.637 284.716 206.848 284.263 207.263C283.819 207.678 283.568 208.25 283.51 208.979L288.354 208.929ZM305.354 205.478L303.038 213.175L301.722 213.188L299.812 207.117L298.027 213.226L296.711 213.239L294.224 205.593L295.526 205.579L297.356 212.001L299.194 205.542L300.496 205.528L302.424 211.963L304.094 205.491L305.354 205.478ZM307.305 204.212C307.062 204.215 306.856 204.133 306.686 203.967C306.517 203.8 306.431 203.596 306.428 203.353C306.426 203.111 306.508 202.904 306.674 202.735C306.84 202.565 307.045 202.479 307.287 202.476C307.521 202.474 307.717 202.556 307.878 202.722C308.048 202.889 308.134 203.093 308.136 203.336C308.139 203.578 308.057 203.785 307.89 203.954C307.733 204.124 307.538 204.21 307.305 204.212ZM307.934 205.452L308.013 213.124L306.739 213.137L306.66 205.465L307.934 205.452ZM311.167 212.041L314.933 212.002L314.943 213.052L309.722 213.106L309.711 212.056L313.377 206.432L309.682 206.47L309.671 205.434L314.837 205.381L314.847 206.417L311.167 212.041ZM316.123 209.176C316.115 208.392 316.266 207.705 316.578 207.113C316.889 206.513 317.318 206.046 317.865 205.714C318.422 205.382 319.041 205.212 319.722 205.205C320.394 205.198 320.979 205.337 321.477 205.621C321.974 205.905 322.347 206.265 322.594 206.702L322.579 205.302L323.867 205.288L323.946 212.96L322.658 212.973L322.644 211.545C322.396 211.996 322.022 212.373 321.521 212.677C321.029 212.971 320.452 213.122 319.79 213.129C319.108 213.136 318.491 212.974 317.937 212.644C317.382 212.313 316.944 211.846 316.62 211.243C316.297 210.64 316.131 209.951 316.123 209.176ZM322.619 209.123C322.613 208.545 322.491 208.042 322.253 207.615C322.015 207.188 321.695 206.865 321.291 206.645C320.897 206.416 320.462 206.303 319.986 206.308C319.51 206.313 319.077 206.43 318.687 206.658C318.297 206.886 317.988 207.216 317.759 207.647C317.53 208.079 317.419 208.584 317.425 209.163C317.431 209.751 317.553 210.263 317.791 210.699C318.028 211.126 318.344 211.454 318.739 211.683C319.133 211.903 319.568 212.011 320.044 212.006C320.52 212.001 320.953 211.885 321.343 211.657C321.741 211.419 322.055 211.085 322.284 210.653C322.513 210.212 322.625 209.702 322.619 209.123ZM327.349 206.499C327.568 206.058 327.882 205.714 328.29 205.467C328.708 205.22 329.215 205.094 329.813 205.087L329.826 206.403L329.49 206.407C328.062 206.421 327.356 207.203 327.372 208.753L327.415 212.924L326.141 212.938L326.062 205.266L327.336 205.253L327.349 206.499ZM330.89 209.025C330.882 208.241 331.033 207.553 331.345 206.962C331.656 206.361 332.085 205.895 332.632 205.563C333.189 205.23 333.812 205.06 334.503 205.053C335.1 205.047 335.657 205.181 336.173 205.456C336.689 205.722 337.085 206.077 337.36 206.522L337.319 202.462L338.607 202.449L338.713 212.808L337.425 212.822L337.41 211.38C337.163 211.84 336.793 212.221 336.302 212.525C335.81 212.82 335.233 212.97 334.57 212.977C333.889 212.984 333.267 212.822 332.703 212.492C332.149 212.162 331.71 211.695 331.387 211.092C331.063 210.488 330.898 209.799 330.89 209.025ZM337.385 208.972C337.38 208.393 337.258 207.891 337.02 207.464C336.782 207.037 336.462 206.713 336.058 206.493C335.664 206.264 335.228 206.152 334.752 206.157C334.276 206.162 333.844 206.278 333.454 206.506C333.064 206.734 332.755 207.064 332.526 207.496C332.297 207.927 332.186 208.433 332.192 209.011C332.198 209.599 332.32 210.111 332.557 210.548C332.795 210.974 333.111 211.303 333.506 211.532C333.9 211.752 334.335 211.859 334.811 211.854C335.287 211.85 335.72 211.733 336.109 211.505C336.508 211.268 336.822 210.933 337.051 210.501C337.28 210.06 337.391 209.551 337.385 208.972Z" fill="#666666"/>
<path d="M268.009 297.006L264.201 298.908L264.47 301.199L263.267 301.8L262.089 291.544L263.404 290.887L270.882 297.997L269.68 298.597L268.009 297.006ZM267.221 296.242L263.441 292.621L264.064 297.818L267.221 296.242ZM269.076 287.992L273.435 296.722L272.296 297.291L267.936 288.561L269.076 287.992ZM284.508 282.617L285.794 290.55L284.616 291.138L280.242 286.515L281.31 292.79L280.132 293.377L274.551 287.59L275.715 287.008L280.171 291.981L278.997 285.369L280.162 284.787L284.711 289.73L283.381 283.18L284.508 282.617ZM293.522 282.075C293.63 282.292 293.732 282.528 293.828 282.783L288.342 285.522C288.722 286.178 289.216 286.593 289.825 286.769C290.439 286.932 291.046 286.863 291.647 286.563C292.14 286.317 292.493 286 292.706 285.612C292.923 285.211 293.003 284.786 292.945 284.335L294.172 283.722C294.318 284.473 294.219 285.195 293.877 285.888C293.53 286.572 292.947 287.119 292.129 287.527C291.478 287.853 290.82 287.999 290.157 287.965C289.501 287.927 288.894 287.714 288.335 287.325C287.772 286.928 287.313 286.375 286.958 285.665C286.604 284.956 286.435 284.263 286.452 283.586C286.469 282.91 286.662 282.303 287.029 281.765C287.401 281.214 287.921 280.772 288.589 280.438C289.24 280.113 289.887 279.967 290.53 280.001C291.173 280.035 291.753 280.235 292.27 280.603C292.792 280.958 293.209 281.449 293.522 282.075ZM292.226 282.425C292.009 281.991 291.727 281.667 291.381 281.454C291.03 281.233 290.648 281.126 290.235 281.134C289.826 281.13 289.421 281.228 289.02 281.428C288.444 281.715 288.043 282.145 287.818 282.717C287.6 283.284 287.625 283.908 287.892 284.589L292.226 282.425ZM295.259 278.844C295.289 278.318 295.464 277.813 295.786 277.329C296.107 276.845 296.556 276.46 297.133 276.172C297.75 275.863 298.379 275.732 299.017 275.778C299.656 275.825 300.251 276.044 300.801 276.437C301.348 276.821 301.796 277.364 302.147 278.065C302.493 278.758 302.659 279.447 302.646 280.132C302.634 280.816 302.452 281.434 302.101 281.985C301.758 282.531 301.282 282.957 300.673 283.261C300.08 283.557 299.493 283.688 298.913 283.655C298.341 283.617 297.843 283.454 297.417 283.166L298.049 284.431L296.909 285L292.28 275.731L293.42 275.162L295.259 278.844ZM300.982 278.647C300.723 278.129 300.394 277.73 299.993 277.451C299.593 277.171 299.163 277.02 298.704 276.999C298.253 276.974 297.815 277.067 297.389 277.28C296.971 277.489 296.635 277.787 296.38 278.175C296.13 278.551 295.994 278.989 295.973 279.49C295.956 279.978 296.074 280.477 296.329 280.986C296.587 281.504 296.919 281.907 297.324 282.195C297.733 282.471 298.164 282.625 298.619 282.659C299.079 282.68 299.517 282.586 299.934 282.378C300.36 282.165 300.698 281.871 300.949 281.496C301.204 281.108 301.34 280.669 301.357 280.181C301.369 279.684 301.244 279.173 300.982 278.647ZM307.897 279.653C307.371 279.916 306.855 280.064 306.35 280.097C305.841 280.122 305.386 280.036 304.985 279.84C304.581 279.635 304.262 279.33 304.028 278.925L305.205 278.337C305.41 278.663 305.708 278.863 306.1 278.939C306.501 279.01 306.935 278.929 307.403 278.695C307.837 278.478 308.131 278.211 308.286 277.894C308.441 277.577 308.445 277.272 308.299 276.98C308.149 276.68 307.905 276.525 307.567 276.517C307.224 276.5 306.738 276.56 306.108 276.697C305.532 276.818 305.047 276.893 304.655 276.922C304.267 276.939 303.889 276.872 303.522 276.721C303.159 276.558 302.867 276.255 302.646 275.813C302.471 275.462 302.415 275.089 302.477 274.692C302.54 274.296 302.722 273.918 303.023 273.559C303.319 273.192 303.714 272.885 304.206 272.639C304.966 272.26 305.676 272.145 306.335 272.296C306.995 272.447 307.508 272.848 307.875 273.499L306.735 274.068C306.531 273.722 306.241 273.506 305.865 273.423C305.498 273.335 305.093 273.401 304.65 273.622C304.241 273.827 303.959 274.077 303.805 274.373C303.65 274.67 303.644 274.96 303.786 275.244C303.898 275.469 304.063 275.622 304.28 275.701C304.501 275.768 304.743 275.793 305.006 275.776C305.273 275.747 305.63 275.689 306.077 275.602C306.636 275.489 307.104 275.423 307.48 275.402C307.851 275.373 308.21 275.434 308.556 275.584C308.911 275.73 309.197 276.01 309.414 276.424C309.601 276.799 309.666 277.19 309.607 277.594C309.549 277.999 309.371 278.385 309.074 278.752C308.782 279.107 308.39 279.407 307.897 279.653ZM308.597 269.195C308.38 269.303 308.158 269.32 307.933 269.245C307.708 269.17 307.541 269.023 307.432 268.806C307.324 268.589 307.307 268.368 307.383 268.143C307.458 267.917 307.604 267.75 307.821 267.642C308.03 267.538 308.243 267.525 308.46 267.605C308.685 267.68 308.852 267.826 308.96 268.043C309.069 268.26 309.085 268.482 309.01 268.707C308.943 268.928 308.805 269.091 308.597 269.195ZM309.704 270.035L313.132 276.898L311.992 277.468L308.565 270.604L309.704 270.035ZM313.544 269.291L315.564 273.336C315.731 273.67 315.921 273.873 316.134 273.944C316.342 274.007 316.622 273.951 316.973 273.775L317.812 273.356L318.294 274.321L317.266 274.834C316.632 275.151 316.083 275.242 315.62 275.108C315.156 274.975 314.758 274.574 314.424 273.906L312.404 269.86L311.515 270.304L311.046 269.365L311.935 268.921L311.072 267.192L312.212 266.623L313.075 268.351L314.866 267.457L315.335 268.396L313.544 269.291ZM324.13 266.79C324.238 267.007 324.34 267.243 324.436 267.498L318.95 270.237C319.329 270.893 319.824 271.308 320.433 271.484C321.047 271.647 321.654 271.579 322.255 271.278C322.748 271.032 323.101 270.715 323.314 270.327C323.531 269.927 323.611 269.501 323.552 269.05L324.78 268.437C324.926 269.188 324.827 269.911 324.484 270.603C324.138 271.288 323.555 271.834 322.737 272.243C322.086 272.568 321.428 272.714 320.764 272.68C320.109 272.642 319.502 272.429 318.943 272.041C318.379 271.644 317.921 271.09 317.566 270.381C317.212 269.671 317.043 268.978 317.06 268.302C317.077 267.626 317.269 267.018 317.637 266.48C318.009 265.929 318.529 265.487 319.197 265.154C319.848 264.828 320.495 264.683 321.138 264.716C321.781 264.75 322.361 264.951 322.878 265.318C323.4 265.673 323.817 266.164 324.13 266.79ZM322.833 267.14C322.616 266.706 322.335 266.382 321.989 266.169C321.638 265.948 321.256 265.841 320.843 265.849C320.434 265.845 320.029 265.943 319.628 266.143C319.052 266.431 318.651 266.86 318.425 267.432C318.208 268 318.233 268.624 318.5 269.304L322.833 267.14ZM329.244 261.873C329.273 261.347 329.449 260.842 329.77 260.358C330.092 259.874 330.541 259.489 331.117 259.201C331.735 258.892 332.363 258.761 333.002 258.807C333.64 258.854 334.235 259.073 334.786 259.466C335.332 259.85 335.781 260.393 336.131 261.094C336.477 261.787 336.644 262.476 336.631 263.161C336.618 263.845 336.436 264.463 336.085 265.013C335.743 265.56 335.267 265.986 334.657 266.29C334.064 266.586 333.478 266.717 332.898 266.684C332.326 266.646 331.827 266.483 331.402 266.194L332.033 267.46L330.893 268.029L326.265 258.76L327.405 258.191L329.244 261.873ZM334.966 261.676C334.708 261.158 334.378 260.759 333.978 260.479C333.577 260.2 333.147 260.049 332.688 260.028C332.237 260.003 331.799 260.096 331.373 260.309C330.956 260.518 330.62 260.816 330.365 261.204C330.114 261.579 329.978 262.018 329.957 262.519C329.94 263.007 330.059 263.506 330.313 264.015C330.572 264.533 330.903 264.936 331.308 265.224C331.717 265.5 332.149 265.654 332.604 265.688C333.063 265.709 333.501 265.615 333.919 265.407C334.345 265.194 334.683 264.9 334.934 264.525C335.188 264.137 335.324 263.698 335.341 263.21C335.354 262.713 335.229 262.202 334.966 261.676ZM342.055 253.88L345.483 260.743L344.343 261.312L343.836 260.298C343.794 260.757 343.627 261.185 343.335 261.581C343.046 261.965 342.668 262.274 342.201 262.507C341.666 262.774 341.132 262.905 340.598 262.901C340.059 262.888 339.554 262.723 339.083 262.406C338.62 262.084 338.23 261.606 337.913 260.971L335.905 256.951L337.032 256.388L338.965 260.258C339.303 260.934 339.735 261.371 340.26 261.567C340.782 261.755 341.339 261.701 341.932 261.405C342.542 261.101 342.928 260.673 343.091 260.122C343.254 259.571 343.156 258.937 342.798 258.219L340.915 254.449L342.055 253.88ZM344.049 251.491C343.832 251.599 343.611 251.616 343.385 251.541C343.16 251.466 342.993 251.319 342.885 251.102C342.776 250.885 342.76 250.664 342.835 250.439C342.91 250.213 343.056 250.046 343.273 249.938C343.482 249.834 343.695 249.821 343.912 249.901C344.137 249.976 344.304 250.122 344.413 250.339C344.521 250.556 344.538 250.778 344.462 251.003C344.396 251.224 344.258 251.387 344.049 251.491ZM345.157 252.331L348.584 259.194L347.445 259.764L344.017 252.9L345.157 252.331ZM347.076 248.368L351.704 257.636L350.564 258.205L345.936 248.937L347.076 248.368ZM351.532 253.403C351.182 252.702 351.017 252.017 351.039 251.349C351.056 250.673 351.238 250.066 351.584 249.528C351.939 248.985 352.426 248.56 353.044 248.251C353.578 247.984 354.138 247.861 354.722 247.883C355.302 247.895 355.813 248.042 356.256 248.322L354.442 244.689L355.594 244.114L360.223 253.383L359.07 253.958L358.426 252.668C358.405 253.19 358.24 253.695 357.931 254.183C357.617 254.663 357.164 255.051 356.571 255.347C355.962 255.651 355.331 255.778 354.68 255.728C354.038 255.673 353.439 255.445 352.884 255.044C352.329 254.643 351.878 254.096 351.532 253.403ZM357.35 250.514C357.092 249.996 356.762 249.597 356.362 249.317C355.961 249.037 355.531 248.887 355.072 248.866C354.617 248.832 354.177 248.922 353.751 249.134C353.325 249.347 352.987 249.641 352.736 250.017C352.485 250.392 352.352 250.824 352.335 251.312C352.318 251.801 352.439 252.304 352.697 252.822C352.96 253.348 353.293 253.755 353.698 254.043C354.099 254.323 354.527 254.48 354.981 254.513C355.432 254.538 355.871 254.445 356.296 254.232C356.722 254.019 357.061 253.725 357.311 253.35C357.566 252.962 357.702 252.524 357.719 252.035C357.732 251.538 357.609 251.031 357.35 250.514ZM366.604 245.58C366.712 245.797 366.814 246.033 366.91 246.287L361.424 249.027C361.804 249.682 362.298 250.098 362.907 250.274C363.521 250.437 364.128 250.368 364.729 250.068C365.222 249.822 365.575 249.505 365.788 249.117C366.005 248.716 366.085 248.29 366.026 247.84L367.254 247.227C367.4 247.978 367.301 248.7 366.959 249.393C366.612 250.077 366.029 250.624 365.211 251.032C364.56 251.357 363.902 251.503 363.239 251.47C362.583 251.432 361.976 251.218 361.417 250.83C360.854 250.433 360.395 249.88 360.04 249.17C359.686 248.46 359.517 247.767 359.534 247.091C359.551 246.415 359.744 245.808 360.111 245.27C360.483 244.719 361.003 244.277 361.671 243.943C362.322 243.618 362.969 243.472 363.612 243.506C364.255 243.539 364.835 243.74 365.352 244.108C365.874 244.463 366.291 244.953 366.604 245.58ZM365.307 245.93C365.091 245.495 364.809 245.172 364.463 244.959C364.112 244.737 363.73 244.631 363.317 244.639C362.908 244.634 362.503 244.732 362.102 244.932C361.526 245.22 361.125 245.65 360.9 246.222C360.682 246.789 360.707 247.413 360.974 248.094L365.307 245.93ZM368.26 242.186C368.264 241.694 368.396 241.247 368.655 240.847C368.922 240.442 369.323 240.106 369.857 239.839L370.445 241.017L370.145 241.167C368.867 241.805 368.575 242.817 369.267 244.203L371.131 247.935L369.991 248.504L366.563 241.641L367.703 241.072L368.26 242.186Z" fill="#666666"/>
<path d="M343.127 344.625L340.701 348.122L342.037 350.003L341.271 351.107L335.31 342.679L336.148 341.471L346.123 344.113L345.357 345.217L343.127 344.625ZM342.068 344.333L337.013 342.974L340.057 347.232L342.068 344.333ZM339.731 336.207L347.749 341.768L347.023 342.815L339.005 337.253L339.731 336.207ZM351.757 328.742C351.957 328.88 352.16 329.038 352.366 329.215L348.871 334.254C349.519 334.647 350.152 334.773 350.771 334.635C351.388 334.483 351.887 334.131 352.27 333.579C352.584 333.126 352.741 332.679 352.742 332.236C352.74 331.78 352.605 331.369 352.337 331.001L353.119 329.874C353.608 330.463 353.868 331.143 353.901 331.916C353.926 332.682 353.677 333.442 353.156 334.193C352.741 334.791 352.235 335.235 351.636 335.524C351.043 335.806 350.408 335.911 349.731 335.839C349.047 335.762 348.379 335.497 347.727 335.045C347.075 334.593 346.594 334.066 346.284 333.465C345.974 332.864 345.851 332.239 345.914 331.59C345.976 330.928 346.219 330.291 346.645 329.677C347.06 329.079 347.557 328.64 348.137 328.361C348.717 328.082 349.322 327.979 349.952 328.053C350.58 328.113 351.182 328.343 351.757 328.742ZM350.789 329.672C350.39 329.395 349.987 329.247 349.581 329.226C349.168 329.201 348.781 329.291 348.423 329.496C348.062 329.689 347.754 329.969 347.499 330.338C347.132 330.867 346.987 331.436 347.063 332.046C347.145 332.648 347.467 333.184 348.028 333.652L350.789 329.672ZM354.972 317.646C355.313 317.155 355.719 316.79 356.192 316.55C356.658 316.305 357.171 316.212 357.732 316.272C358.292 316.331 358.864 316.563 359.447 316.968L363.163 319.545L362.445 320.58L358.878 318.107C358.25 317.67 357.661 317.495 357.113 317.581C356.563 317.654 356.104 317.955 355.737 318.484C355.36 319.028 355.236 319.584 355.365 320.151C355.487 320.712 355.877 321.222 356.537 321.679L360.011 324.089L359.293 325.124L355.727 322.651C355.098 322.214 354.509 322.039 353.962 322.125C353.411 322.198 352.953 322.499 352.586 323.028C352.208 323.572 352.084 324.128 352.213 324.695C352.335 325.256 352.726 325.766 353.385 326.223L356.859 328.633L356.133 329.68L349.829 325.307L350.555 324.26L351.464 324.891C351.278 324.455 351.216 324.003 351.279 323.536C351.348 323.061 351.528 322.612 351.821 322.19C352.188 321.661 352.631 321.276 353.151 321.034C353.67 320.793 354.229 320.732 354.828 320.851C354.505 320.367 354.362 319.836 354.399 319.259C354.435 318.682 354.626 318.145 354.972 317.646ZM360.931 315.982C360.287 315.535 359.814 315.014 359.512 314.418C359.202 313.817 359.069 313.197 359.115 312.558C359.165 311.912 359.385 311.309 359.773 310.749C360.156 310.197 360.608 309.8 361.127 309.558C361.647 309.317 362.156 309.221 362.655 309.272L361.504 308.474L362.239 307.416L368.543 311.788L367.809 312.846L366.635 312.033C366.86 312.495 366.951 313.018 366.909 313.603C366.865 314.174 366.654 314.732 366.276 315.276C365.888 315.836 365.399 316.247 364.809 316.508C364.219 316.769 363.584 316.857 362.905 316.772C362.226 316.687 361.568 316.423 360.931 315.982ZM364.645 310.652C364.17 310.322 363.689 310.131 363.203 310.078C362.717 310.025 362.268 310.1 361.855 310.302C361.44 310.491 361.097 310.781 360.826 311.172C360.554 311.563 360.399 311.984 360.36 312.433C360.32 312.883 360.411 313.326 360.63 313.763C360.85 314.199 361.198 314.582 361.673 314.912C362.156 315.247 362.645 315.444 363.138 315.502C363.624 315.555 364.074 315.487 364.49 315.298C364.897 315.103 365.236 314.811 365.508 314.42C365.779 314.028 365.934 313.608 365.974 313.158C366.011 312.695 365.919 312.246 365.699 311.809C365.472 311.368 365.121 310.982 364.645 310.652ZM362.841 304.361C362.702 304.561 362.516 304.681 362.283 304.724C362.049 304.766 361.832 304.718 361.633 304.58C361.433 304.441 361.312 304.255 361.27 304.022C361.228 303.788 361.276 303.571 361.414 303.372C361.547 303.18 361.728 303.067 361.956 303.032C362.19 302.99 362.407 303.038 362.606 303.176C362.806 303.315 362.926 303.501 362.969 303.734C363.016 303.961 362.974 304.169 362.841 304.361ZM364.216 304.565L370.52 308.938L369.794 309.984L363.489 305.612L364.216 304.565ZM363.994 300.168L372.507 306.072L371.781 307.119L363.268 301.215L363.994 300.168ZM371.515 296.547C371.288 296.071 371.2 295.544 371.249 294.965C371.299 294.386 371.507 293.832 371.874 293.303C372.267 292.735 372.755 292.318 373.338 292.052C373.92 291.786 374.547 291.692 375.219 291.772C375.883 291.846 376.537 292.107 377.181 292.554C377.817 292.995 378.295 293.519 378.612 294.126C378.93 294.732 379.067 295.361 379.024 296.013C378.986 296.657 378.773 297.259 378.385 297.819C378.007 298.363 377.556 298.76 377.031 299.009C376.511 299.251 375.996 299.347 375.484 299.299L376.646 300.105L375.92 301.152L367.407 295.248L368.133 294.201L371.515 296.547ZM376.439 293.624C375.963 293.294 375.483 293.102 374.997 293.049C374.511 292.996 374.062 293.071 373.649 293.273C373.242 293.468 372.902 293.76 372.631 294.151C372.365 294.535 372.214 294.958 372.177 295.421C372.137 295.871 372.229 296.32 372.451 296.77C372.671 297.206 373.014 297.586 373.482 297.911C373.958 298.241 374.442 298.435 374.936 298.493C375.427 298.538 375.88 298.466 376.295 298.277C376.708 298.075 377.047 297.782 377.313 297.399C377.584 297.008 377.74 296.587 377.779 296.138C377.816 295.675 377.725 295.225 377.505 294.789C377.277 294.347 376.922 293.959 376.439 293.624ZM378.909 283.38L385.213 287.753L384.487 288.799L383.555 288.153C383.739 288.576 383.798 289.031 383.732 289.52C383.664 289.995 383.481 290.447 383.183 290.876C382.843 291.367 382.437 291.739 381.966 291.992C381.488 292.239 380.966 292.337 380.4 292.285C379.839 292.226 379.267 291.994 378.684 291.59L374.992 289.028L375.71 287.993L379.264 290.459C379.886 290.889 380.474 291.065 381.03 290.984C381.577 290.899 382.04 290.584 382.418 290.039C382.806 289.479 382.939 288.918 382.818 288.357C382.696 287.796 382.305 287.286 381.646 286.829L378.183 284.427L378.909 283.38ZM379.51 280.327C379.372 280.527 379.186 280.648 378.952 280.69C378.718 280.732 378.502 280.684 378.302 280.546C378.103 280.408 377.982 280.221 377.94 279.988C377.898 279.754 377.946 279.537 378.084 279.338C378.217 279.146 378.398 279.033 378.626 278.998C378.86 278.956 379.076 279.004 379.276 279.142C379.475 279.281 379.596 279.467 379.638 279.7C379.686 279.927 379.643 280.136 379.51 280.327ZM380.885 280.531L387.189 284.904L386.463 285.951L380.159 281.578L380.885 280.531ZM380.664 276.134L389.177 282.038L388.451 283.085L379.938 277.181L380.664 276.134ZM386.992 278.408C386.348 277.962 385.874 277.44 385.572 276.844C385.262 276.243 385.13 275.623 385.175 274.985C385.226 274.338 385.448 273.731 385.842 273.164C386.182 272.673 386.614 272.296 387.136 272.034C387.651 271.767 388.17 271.649 388.692 271.682L385.356 269.368L386.09 268.31L394.603 274.214L393.869 275.273L392.684 274.451C392.916 274.919 393.014 275.441 392.978 276.018C392.934 276.589 392.723 277.147 392.345 277.691C391.957 278.251 391.465 278.666 390.87 278.934C390.28 279.195 389.645 279.283 388.966 279.198C388.286 279.113 387.628 278.85 386.992 278.408ZM390.706 273.079C390.23 272.749 389.749 272.557 389.264 272.505C388.778 272.452 388.329 272.526 387.916 272.728C387.501 272.917 387.158 273.207 386.886 273.599C386.615 273.99 386.46 274.41 386.42 274.86C386.381 275.31 386.471 275.753 386.691 276.189C386.911 276.626 387.258 277.009 387.734 277.339C388.217 277.674 388.705 277.87 389.199 277.929C389.685 277.982 390.135 277.914 390.55 277.724C390.958 277.53 391.297 277.237 391.568 276.846C391.84 276.455 391.995 276.034 392.034 275.585C392.071 275.122 391.98 274.672 391.76 274.236C391.533 273.794 391.181 273.408 390.706 273.079ZM396.45 264.305C396.649 264.444 396.852 264.601 397.059 264.779L393.564 269.817C394.212 270.21 394.845 270.337 395.464 270.198C396.08 270.046 396.58 269.694 396.963 269.142C397.277 268.689 397.434 268.242 397.434 267.799C397.432 267.343 397.297 266.932 397.03 266.565L397.812 265.437C398.301 266.026 398.561 266.707 398.594 267.479C398.618 268.246 398.37 269.005 397.849 269.756C397.434 270.355 396.927 270.798 396.329 271.088C395.736 271.369 395.101 271.474 394.424 271.402C393.739 271.325 393.071 271.06 392.419 270.608C391.767 270.156 391.287 269.629 390.977 269.028C390.667 268.427 390.543 267.802 390.607 267.153C390.669 266.491 390.912 265.854 391.338 265.24C391.752 264.642 392.25 264.203 392.83 263.924C393.41 263.645 394.015 263.542 394.645 263.616C395.273 263.676 395.875 263.906 396.45 264.305ZM395.481 265.235C395.083 264.958 394.68 264.81 394.274 264.789C393.86 264.764 393.474 264.854 393.116 265.059C392.755 265.252 392.447 265.533 392.191 265.901C391.824 266.43 391.679 266.999 391.756 267.609C391.838 268.211 392.16 268.747 392.721 269.215L395.481 265.235ZM396.272 260.534C396.039 260.099 395.94 259.645 395.975 259.169C396.015 258.685 396.205 258.198 396.545 257.707L397.627 258.457L397.435 258.734C396.621 259.907 396.851 260.935 398.124 261.818L401.552 264.196L400.826 265.243L394.522 260.87L395.248 259.823L396.272 260.534Z" fill="#666666"/>
<defs>
<filter id="filter0_bd_6882_7278" x="226.58" y="-40.4199" width="160.84" height="160.84" filterUnits="userSpaceOnUse" color-interpolation-filters="sRGB">
<feFlood flood-opacity="0" result="BackgroundImageFix"/>
<feGaussianBlur in="BackgroundImageFix" stdDeviation="22.1836"/>
<feComposite in2="SourceAlpha" operator="in" result="effect1_backgroundBlur_6882_7278"/>
<feColorMatrix in="SourceAlpha" type="matrix" values="0 0 0 0 0 0 0 0 0 0 0 0 0 0 0 0 0 0 127 0" result="hardAlpha"/>
<feOffset dy="6.73932"/>
<feGaussianBlur stdDeviation="5.33529"/>
<feComposite in2="hardAlpha" operator="out"/>
<feColorMatrix type="matrix" values="0 0 0 0 0.0867708 0 0 0 0 0.115317 0 0 0 0 0.141667 0 0 0 0.08 0"/>
<feBlend mode="normal" in2="effect1_backgroundBlur_6882_7278" result="effect2_dropShadow_6882_7278"/>
<feBlend mode="normal" in="SourceGraphic" in2="effect2_dropShadow_6882_7278" result="shape"/>
</filter>
<filter id="filter1_bd_6882_7278" x="133.58" y="21.5801" width="160.84" height="160.84" filterUnits="userSpaceOnUse" color-interpolation-filters="sRGB">
<feFlood flood-opacity="0" result="BackgroundImageFix"/>
<feGaussianBlur in="BackgroundImageFix" stdDeviation="22.1836"/>
<feComposite in2="SourceAlpha" operator="in" result="effect1_backgroundBlur_6882_7278"/>
<feColorMatrix in="SourceAlpha" type="matrix" values="0 0 0 0 0 0 0 0 0 0 0 0 0 0 0 0 0 0 127 0" result="hardAlpha"/>
<feOffset dy="6.73932"/>
<feGaussianBlur stdDeviation="5.33529"/>
<feComposite in2="hardAlpha" operator="out"/>
<feColorMatrix type="matrix" values="0 0 0 0 0.0867708 0 0 0 0 0.115317 0 0 0 0 0.141667 0 0 0 0.08 0"/>
<feBlend mode="normal" in2="effect1_backgroundBlur_6882_7278" result="effect2_dropShadow_6882_7278"/>
<feBlend mode="normal" in="SourceGraphic" in2="effect2_dropShadow_6882_7278" result="shape"/>
</filter>
<filter id="filter2_bd_6882_7278" x="86.5801" y="140.58" width="160.84" height="160.84" filterUnits="userSpaceOnUse" color-interpolation-filters="sRGB">
<feFlood flood-opacity="0" result="BackgroundImageFix"/>
<feGaussianBlur in="BackgroundImageFix" stdDeviation="22.1836"/>
<feComposite in2="SourceAlpha" operator="in" result="effect1_backgroundBlur_6882_7278"/>
<feColorMatrix in="SourceAlpha" type="matrix" values="0 0 0 0 0 0 0 0 0 0 0 0 0 0 0 0 0 0 127 0" result="hardAlpha"/>
<feOffset dy="6.73932"/>
<feGaussianBlur stdDeviation="5.33529"/>
<feComposite in2="hardAlpha" operator="out"/>
<feColorMatrix type="matrix" values="0 0 0 0 0.0867708 0 0 0 0 0.115317 0 0 0 0 0.141667 0 0 0 0.08 0"/>
<feBlend mode="normal" in2="effect1_backgroundBlur_6882_7278" result="effect2_dropShadow_6882_7278"/>
<feBlend mode="normal" in="SourceGraphic" in2="effect2_dropShadow_6882_7278" result="shape"/>
</filter>
<filter id="filter3_bd_6882_7278" x="136.58" y="258.58" width="160.84" height="160.84" filterUnits="userSpaceOnUse" color-interpolation-filters="sRGB">
<feFlood flood-opacity="0" result="BackgroundImageFix"/>
<feGaussianBlur in="BackgroundImageFix" stdDeviation="22.1836"/>
<feComposite in2="SourceAlpha" operator="in" result="effect1_backgroundBlur_6882_7278"/>
<feColorMatrix in="SourceAlpha" type="matrix" values="0 0 0 0 0 0 0 0 0 0 0 0 0 0 0 0 0 0 127 0" result="hardAlpha"/>
<feOffset dy="6.73932"/>
<feGaussianBlur stdDeviation="5.33529"/>
<feComposite in2="hardAlpha" operator="out"/>
<feColorMatrix type="matrix" values="0 0 0 0 0.0867708 0 0 0 0 0.115317 0 0 0 0 0.141667 0 0 0 0.08 0"/>
<feBlend mode="normal" in2="effect1_backgroundBlur_6882_7278" result="effect2_dropShadow_6882_7278"/>
<feBlend mode="normal" in="SourceGraphic" in2="effect2_dropShadow_6882_7278" result="shape"/>
</filter>
<filter id="filter4_bd_6882_7278" x="226.58" y="312.58" width="160.84" height="160.84" filterUnits="userSpaceOnUse" color-interpolation-filters="sRGB">
<feFlood flood-opacity="0" result="BackgroundImageFix"/>
<feGaussianBlur in="BackgroundImageFix" stdDeviation="22.1836"/>
<feComposite in2="SourceAlpha" operator="in" result="effect1_backgroundBlur_6882_7278"/>
<feColorMatrix in="SourceAlpha" type="matrix" values="0 0 0 0 0 0 0 0 0 0 0 0 0 0 0 0 0 0 127 0" result="hardAlpha"/>
<feOffset dy="6.73932"/>
<feGaussianBlur stdDeviation="5.33529"/>
<feComposite in2="hardAlpha" operator="out"/>
<feColorMatrix type="matrix" values="0 0 0 0 0.0867708 0 0 0 0 0.115317 0 0 0 0 0.141667 0 0 0 0.08 0"/>
<feBlend mode="normal" in2="effect1_backgroundBlur_6882_7278" result="effect2_dropShadow_6882_7278"/>
<feBlend mode="normal" in="SourceGraphic" in2="effect2_dropShadow_6882_7278" result="shape"/>
</filter>
</defs>
</svg>
