<svg width="66" height="66" viewBox="0 0 66 66" fill="none" xmlns="http://www.w3.org/2000/svg">
<rect x="0.709059" y="0.709059" width="64.5819" height="64.5819" rx="19.2909" fill="#F0FFC4"/>
<rect x="0.709059" y="0.709059" width="64.5819" height="64.5819" rx="19.2909" stroke="white" stroke-width="1.41812"/>
<g clip-path="url(#clip0_5777_41707)">
<path d="M34.9776 17.3499L34.9911 17.0315C41.644 17.8546 47.045 22.7467 48.6217 29.1378L48.6217 29.138L48.6929 29.4259L48.7499 29.6564L48.9804 29.5995L49.5566 29.4573L49.7871 29.4004L49.7303 29.1699L49.6594 28.8817L49.6594 28.8815C47.9708 22.0385 42.1722 16.8066 35.0362 15.9603L35.0527 15.5701L35.0689 15.1861L34.7182 15.3433L32.9011 16.158L32.4677 16.3523L32.8831 16.5824L34.6252 17.5476L34.9613 17.7338L34.9776 17.3499ZM48.648 34.979L48.9664 34.9925C48.1713 41.4203 43.5776 46.6793 37.5036 48.4499L37.5036 48.45L37.2186 48.5331L36.9906 48.5996L37.0571 48.8276L37.2233 49.3976L37.2898 49.6256L37.5178 49.5591L37.8028 49.476C37.8028 49.476 37.8028 49.476 37.8028 49.476C44.3073 47.5798 49.2199 41.9332 50.0376 35.0377L50.4278 35.0541L50.8118 35.0704L50.6546 34.7197L49.8399 32.9025L49.6456 32.4691L49.4155 32.8846L48.4503 34.6266L48.2641 34.9627L48.648 34.979ZM31.0189 48.6495L31.0054 48.9678C24.3524 48.1447 18.9514 43.2526 17.3748 36.8616L17.3748 36.8614L17.3035 36.5734L17.2465 36.343L17.0161 36.3999L16.4398 36.5421L16.2094 36.599L16.2661 36.8294L16.3371 37.1177L16.3371 37.1178C18.0257 43.9609 23.8242 49.1927 30.9602 50.0391L30.9438 50.4293L30.9275 50.8132L31.2782 50.656L33.0954 49.8414L33.5288 49.6471L33.1133 49.4169L31.3713 48.4518L31.0352 48.2656L31.0189 48.6495ZM17.0301 31.0068C17.8806 24.132 23.0757 18.5945 29.7796 17.2315L30.0705 17.1724L30.3032 17.1251L30.256 16.8924L30.1378 16.3105L30.0906 16.0777L29.8578 16.125L29.5669 16.1841L29.5668 16.1841C22.389 17.6437 16.8332 23.5888 15.9588 30.9617L15.5686 30.9452L15.1847 30.929L15.3419 31.2797L16.1565 33.0968L16.3508 33.5302L16.581 33.1148L17.5461 31.3727L17.7323 31.0366L17.3484 31.0203L17.0301 31.0068Z" fill="#A7BB6A" stroke="#A7BB6A" stroke-width="0.475"/>
<path d="M40.5735 41.4052L40.3466 41.2057L40.058 40.952L40.4139 40.8073L42.2587 40.0574L42.6987 39.8785L42.5778 40.3378L42.0711 42.2637L41.9733 42.6353L41.6846 42.3816L41.3814 42.1151C37.7393 45.4695 32.4309 46.3049 27.9602 44.3104C27.9602 44.3103 27.9602 44.3103 27.9601 44.3103L27.6892 44.1895L27.4722 44.0928L27.569 43.8759L27.8109 43.3335L27.9077 43.1164L28.1247 43.2134L28.3956 43.3344L40.5735 41.4052ZM40.5735 41.4052C37.2498 44.4054 32.446 45.1414 28.3958 43.3345L40.5735 41.4052ZM25.6549 24.7939L25.428 24.5944C28.7518 21.5942 33.5556 20.8582 37.6059 22.6652L37.8768 22.7862L38.0938 22.8832L38.1906 22.6662L38.4326 22.1238L38.5293 21.9068L38.3124 21.8101L38.0414 21.6893C33.5707 19.6947 28.2622 20.5301 24.6202 23.8845L24.3169 23.618L24.0282 23.3643L23.9304 23.736L23.4237 25.6618L23.3028 26.1211L23.7428 25.9422L25.5876 25.1923L25.9435 25.0476L25.6549 24.7939ZM41.2066 25.654L41.4061 25.4271C44.3004 28.6336 45.0877 33.2174 43.5171 37.1732L43.517 37.1735L43.4078 37.4496L43.3205 37.6701L43.5409 37.7577L44.0925 37.9768L44.3133 38.0645L44.4009 37.8436L44.5105 37.5676C46.2443 33.1998 45.353 28.1337 42.1161 24.6192L42.3826 24.3159L42.6363 24.0273L42.2646 23.9295L40.3388 23.4227L39.8795 23.3019L40.0583 23.7418L40.8082 25.5866L40.9529 25.9426L41.2066 25.654ZM24.7949 40.3456L24.5954 40.5725C21.4909 37.133 20.8109 32.1092 22.8638 27.9751L22.9959 27.7095L23.1017 27.4968L22.8889 27.3911L22.3569 27.1269L22.144 27.0211L22.0384 27.2341L21.9067 27.4999C19.6409 32.0619 20.4155 37.6129 23.8854 41.3804L23.6189 41.6837L23.3653 41.9723L23.7369 42.0701L25.6627 42.5769L26.122 42.6978L25.9432 42.2578L25.1933 40.413L25.0486 40.057L24.7949 40.3456Z" fill="#A7BB6A" stroke="#A7BB6A" stroke-width="0.475"/>
<path d="M32.1963 28.3652L31.3217 36.9054L32.9981 36.9277L33.3446 33.5457L34.0375 33.5549C34.5092 33.5611 34.8842 33.4611 35.1626 33.2542C35.4408 33.0472 35.6498 32.753 35.789 32.371C35.9286 31.9889 36.0248 31.5391 36.0779 31.0217C36.1328 30.4846 36.1204 30.0212 36.0405 29.6314C35.9609 29.2416 35.7935 28.9397 35.5391 28.7259C35.2844 28.5119 34.9213 28.4017 34.4495 28.3955L32.1963 28.3652Z" fill="#A7BB6A"/>
<path d="M29.7476 36.165C29.3961 36.6917 28.9004 36.9505 28.2609 36.9422C27.0428 36.9259 26.5236 36.0442 26.7023 34.2974L27.0796 30.6146C27.2429 29.0198 28.0225 28.2316 29.4178 28.2503C29.9929 28.258 30.4221 28.3795 30.7053 28.6149C30.9886 28.8503 31.1655 29.1905 31.2365 29.6352C31.3074 30.08 31.3101 30.6209 31.2448 31.2583L29.5781 31.236L29.6556 30.479C29.6743 30.2946 29.6651 30.1396 29.628 30.0147C29.5906 29.8894 29.4926 29.8255 29.3344 29.8235C29.1373 29.8208 29.0007 29.8855 28.9241 30.0173C28.8475 30.1491 28.8009 30.2943 28.7849 30.4528L28.3609 34.5919C28.3372 34.8214 28.3482 35.0087 28.393 35.1533C28.4381 35.2981 28.548 35.3718 28.7222 35.3741C28.9033 35.3765 29.031 35.3062 29.1055 35.1628C29.18 35.0197 29.2293 34.83 29.2533 34.594L29.3783 33.3762L28.9226 33.3699L29.0737 31.8948L31.1575 31.9227L30.6481 36.8962L29.9646 36.8873L29.7476 36.165Z" fill="#A7BB6A"/>
<path d="M38.5405 37.0004L36.8346 36.9779L37.5415 30.0779L36.5289 30.0642L36.6966 28.4243L40.428 28.4742L40.26 30.1141L39.247 30.1005L38.5405 37.0004Z" fill="#A7BB6A"/>
</g>
<defs>
<clipPath id="clip0_5777_41707">
<rect width="38" height="38" fill="white" transform="translate(14 14)"/>
</clipPath>
</defs>
</svg>
