<svg width="66" height="66" viewBox="0 0 66 66" fill="none" xmlns="http://www.w3.org/2000/svg">
<rect x="0.709059" y="0.709059" width="64.5819" height="64.5819" rx="19.2909" fill="#9AEEE7"/>
<rect x="0.709059" y="0.709059" width="64.5819" height="64.5819" rx="19.2909" stroke="white" stroke-width="1.41812"/>
<path d="M31.75 22.375C32.0952 22.375 32.375 22.0952 32.375 21.75C32.375 21.4048 32.0952 21.125 31.75 21.125C31.4048 21.125 31.125 21.4048 31.125 21.75C31.125 22.0952 31.4048 22.375 31.75 22.375Z" fill="#21C4B6"/>
<path d="M36.4377 27.6875V23.9375C36.4377 23.5923 36.1582 23.3125 35.8127 23.3125C35.4673 23.3125 35.1877 23.5923 35.1877 23.9375V27.6875C35.1877 28.0327 35.4673 28.3125 35.8127 28.3125C36.1582 28.3125 36.4377 28.0327 36.4377 27.6875ZM29.2832 28.2466C29.5926 28.4007 29.9668 28.2759 30.1218 27.967L30.2616 27.6875H32.6139L32.7536 27.967C32.8635 28.1862 33.0838 28.3128 33.3133 28.3125C33.4073 28.3125 33.5025 28.2914 33.5923 28.2466C33.9011 28.0922 34.0262 27.7168 33.8718 27.408L31.9968 23.658C31.7844 23.2344 31.0911 23.2344 30.8787 23.658L29.0037 27.408C28.8492 27.7168 28.9744 28.0922 29.2832 28.2466ZM31.4377 25.3349L31.989 26.4375H30.8865L31.4377 25.3349Z" fill="#21C4B6"/>
<path d="M43.625 21.125C43.2813 21.125 43 21.4063 43 21.75V24.875C43 25.2187 42.7187 25.5 42.375 25.5H42.0625C42.0625 24.4687 41.2188 23.625 40.1875 23.625H39.5625C39.5625 22.2437 38.4438 21.125 37.0625 21.125H34.25C33.9063 21.125 33.625 21.4063 33.625 21.75C33.625 22.0937 33.9063 22.375 34.25 22.375H37.0625C37.75 22.375 38.3125 22.9375 38.3125 23.625V28C38.3125 28.6875 37.75 29.25 37.0625 29.25H28.9375C28.25 29.25 27.6875 28.6875 27.6875 28V23.625C27.6875 22.9375 28.25 22.375 28.9375 22.375H29.25C29.5937 22.375 29.875 22.0937 29.875 21.75C29.875 21.4063 29.5937 21.125 29.25 21.125H28.9375C27.5562 21.125 26.4375 22.2437 26.4375 23.625H25.8125C24.7812 23.625 23.9375 24.4687 23.9375 25.5H23.625C23.2813 25.5 23 25.2187 23 24.875V21.75C23 21.4063 22.7187 21.125 22.375 21.125C22.0313 21.125 21.75 21.4063 21.75 21.75V24.875C21.75 25.9062 22.5937 26.75 23.625 26.75H23.9375C23.9375 27.7812 24.7812 28.625 25.8125 28.625H26.525C26.8063 29.7 27.775 30.5 28.9375 30.5H31.125V32.375C27.3312 32.375 24.25 35.4562 24.25 39.25V43C24.25 44.0312 25.0937 44.875 26.125 44.875H39.875C40.9063 44.875 41.75 44.0312 41.75 43V39.25C41.75 35.4562 38.6688 32.375 34.875 32.375V30.5H37.0625C38.225 30.5 39.1937 29.7 39.475 28.625H40.1875C41.2188 28.625 42.0625 27.7812 42.0625 26.75H42.375C43.4063 26.75 44.25 25.9062 44.25 24.875V21.75C44.25 21.4063 43.9687 21.125 43.625 21.125ZM26.4375 27.375H25.8125C25.4688 27.375 25.1875 27.0937 25.1875 26.75V25.5C25.1875 25.1563 25.4688 24.875 25.8125 24.875H26.4375V27.375ZM32.375 30.5H33.625V32.375H32.375V30.5ZM40.5 39.25V43C40.5 43.3437 40.2187 43.625 39.875 43.625H26.125C25.7813 43.625 25.5 43.3437 25.5 43V39.25C25.5 36.15 28.025 33.625 31.125 33.625H34.875C37.975 33.625 40.5 36.15 40.5 39.25ZM40.8125 26.75C40.8125 27.0937 40.5312 27.375 40.1875 27.375H39.5625V24.875H40.1875C40.5312 24.875 40.8125 25.1563 40.8125 25.5V26.75Z" fill="#21C4B6"/>
<path d="M38 38H37.375V36.75C37.375 36.4063 37.0937 36.125 36.75 36.125H36.125V35.5C36.125 35.1563 35.8437 34.875 35.5 34.875C35.1563 34.875 34.875 35.1563 34.875 35.5V36.125H33.625V35.5C33.625 35.1563 33.3437 34.875 33 34.875C32.6563 34.875 32.375 35.1563 32.375 35.5V36.125H31.125V35.5C31.125 35.1563 30.8437 34.875 30.5 34.875C30.1563 34.875 29.875 35.1563 29.875 35.5V36.125H29.25C28.9063 36.125 28.625 36.4063 28.625 36.75V38H28C27.6563 38 27.375 38.2813 27.375 38.625C27.375 38.9687 27.6563 39.25 28 39.25H28.625V40.5C28.625 40.8437 28.9063 41.125 29.25 41.125H29.875V41.75C29.875 42.0937 30.1563 42.375 30.5 42.375C30.8437 42.375 31.125 42.0937 31.125 41.75V41.125H32.375V41.75C32.375 42.0937 32.6563 42.375 33 42.375C33.3437 42.375 33.625 42.0937 33.625 41.75V41.125H34.875V41.75C34.875 42.0937 35.1563 42.375 35.5 42.375C35.8437 42.375 36.125 42.0937 36.125 41.75V41.125H36.75C37.0937 41.125 37.375 40.8437 37.375 40.5V39.25H38C38.3437 39.25 38.625 38.9687 38.625 38.625C38.625 38.2813 38.3437 38 38 38ZM36.125 39.875H29.875V37.375H36.125V39.875Z" fill="#21C4B6"/>
</svg>
