<svg width="393" height="258" viewBox="0 0 393 258" fill="none" xmlns="http://www.w3.org/2000/svg">
<rect x="59.5039" y="129" width="181.018" height="181.018" transform="rotate(-45 59.5039 129)" stroke="#034737" stroke-width="0.88951" stroke-dasharray="5.34 5.34"/>
<g filter="url(#filter0_bd_8909_3038)">
<rect x="217" y="30.9998" width="66" height="66" rx="10" fill="#034737"/>
<rect x="216.571" y="30.5707" width="66.8581" height="66.8581" rx="10.4291" stroke="#EAEAEA" stroke-width="0.858128"/>
</g>
<path d="M249 51.4998C249.414 51.4998 249.75 51.164 249.75 50.7498C249.75 50.3355 249.414 49.9998 249 49.9998C248.586 49.9998 248.25 50.3355 248.25 50.7498C248.25 51.164 248.586 51.4998 249 51.4998Z" fill="white"/>
<path d="M254.625 57.8748V53.3748C254.625 52.9606 254.29 52.6248 253.875 52.6248C253.461 52.6248 253.125 52.9606 253.125 53.3748V57.8748C253.125 58.2889 253.461 58.6248 253.875 58.6248C254.29 58.6248 254.625 58.2889 254.625 57.8748ZM246.04 58.5457C246.411 58.7306 246.86 58.5808 247.046 58.2102L247.214 57.8748H250.037L250.204 58.2102C250.336 58.4732 250.601 58.6251 250.876 58.6248C250.989 58.6248 251.103 58.5995 251.211 58.5457C251.581 58.3604 251.731 57.9099 251.546 57.5393L249.296 53.0393C249.041 52.531 248.209 52.531 247.954 53.0393L245.704 57.5393C245.519 57.9099 245.669 58.3604 246.04 58.5457ZM248.625 55.0516L249.287 56.3748H247.964L248.625 55.0516Z" fill="white"/>
<path d="M263.25 49.9998C262.838 49.9998 262.5 50.3373 262.5 50.7498V54.4998C262.5 54.9122 262.162 55.2498 261.75 55.2498H261.375C261.375 54.0122 260.363 52.9998 259.125 52.9998H258.375C258.375 51.3422 257.033 49.9998 255.375 49.9998H252C251.588 49.9998 251.25 50.3373 251.25 50.7498C251.25 51.1622 251.588 51.4998 252 51.4998H255.375C256.2 51.4998 256.875 52.1747 256.875 52.9998V58.2498C256.875 59.0747 256.2 59.7498 255.375 59.7498H245.625C244.8 59.7498 244.125 59.0747 244.125 58.2498V52.9998C244.125 52.1747 244.8 51.4998 245.625 51.4998H246C246.412 51.4998 246.75 51.1622 246.75 50.7498C246.75 50.3373 246.412 49.9998 246 49.9998H245.625C243.967 49.9998 242.625 51.3422 242.625 52.9998H241.875C240.637 52.9998 239.625 54.0122 239.625 55.2498H239.25C238.838 55.2498 238.5 54.9122 238.5 54.4998V50.7498C238.5 50.3373 238.162 49.9998 237.75 49.9998C237.338 49.9998 237 50.3373 237 50.7498V54.4998C237 55.7372 238.012 56.7498 239.25 56.7498H239.625C239.625 57.9872 240.637 58.9998 241.875 58.9998H242.73C243.068 60.2897 244.23 61.2498 245.625 61.2498H248.25V63.4998C243.697 63.4998 240 67.1972 240 71.7498V76.2498C240 77.4872 241.012 78.4998 242.25 78.4998H258.75C259.988 78.4998 261 77.4872 261 76.2498V71.7498C261 67.1972 257.303 63.4998 252.75 63.4998V61.2498H255.375C256.77 61.2498 257.932 60.2897 258.27 58.9998H259.125C260.363 58.9998 261.375 57.9872 261.375 56.7498H261.75C262.988 56.7498 264 55.7372 264 54.4998V50.7498C264 50.3373 263.662 49.9998 263.25 49.9998ZM242.625 57.4998H241.875C241.463 57.4998 241.125 57.1622 241.125 56.7498V55.2498C241.125 54.8373 241.463 54.4998 241.875 54.4998H242.625V57.4998ZM249.75 61.2498H251.25V63.4998H249.75V61.2498ZM259.5 71.7498V76.2498C259.5 76.6622 259.162 76.9998 258.75 76.9998H242.25C241.838 76.9998 241.5 76.6622 241.5 76.2498V71.7498C241.5 68.0297 244.53 64.9998 248.25 64.9998H252.75C256.47 64.9998 259.5 68.0297 259.5 71.7498ZM259.875 56.7498C259.875 57.1622 259.537 57.4998 259.125 57.4998H258.375V54.4998H259.125C259.537 54.4998 259.875 54.8373 259.875 55.2498V56.7498Z" fill="white"/>
<path d="M256.5 70.2498H255.75V68.7498C255.75 68.3373 255.412 67.9998 255 67.9998H254.25V67.2498C254.25 66.8373 253.912 66.4998 253.5 66.4998C253.088 66.4998 252.75 66.8373 252.75 67.2498V67.9998H251.25V67.2498C251.25 66.8373 250.912 66.4998 250.5 66.4998C250.088 66.4998 249.75 66.8373 249.75 67.2498V67.9998H248.25V67.2498C248.25 66.8373 247.912 66.4998 247.5 66.4998C247.088 66.4998 246.75 66.8373 246.75 67.2498V67.9998H246C245.588 67.9998 245.25 68.3373 245.25 68.7498V70.2498H244.5C244.088 70.2498 243.75 70.5873 243.75 70.9998C243.75 71.4122 244.088 71.7498 244.5 71.7498H245.25V73.2498C245.25 73.6622 245.588 73.9998 246 73.9998H246.75V74.7498C246.75 75.1622 247.088 75.4998 247.5 75.4998C247.912 75.4998 248.25 75.1622 248.25 74.7498V73.9998H249.75V74.7498C249.75 75.1622 250.088 75.4998 250.5 75.4998C250.912 75.4998 251.25 75.1622 251.25 74.7498V73.9998H252.75V74.7498C252.75 75.1622 253.088 75.4998 253.5 75.4998C253.912 75.4998 254.25 75.1622 254.25 74.7498V73.9998H255C255.412 73.9998 255.75 73.6622 255.75 73.2498V71.7498H256.5C256.912 71.7498 257.25 71.4122 257.25 70.9998C257.25 70.5873 256.912 70.2498 256.5 70.2498ZM254.25 72.4998H246.75V69.4998H254.25V72.4998Z" fill="white"/>
<path d="M298.849 65.2948H295.505L294.889 66.9998H293.833L296.605 59.3768H297.76L300.521 66.9998H299.465L298.849 65.2948ZM298.563 64.4808L297.177 60.6088L295.791 64.4808H298.563ZM302.763 59.3328V66.9998H301.762V59.3328H302.763ZM307.094 63.9638C307.094 63.3478 307.218 62.8088 307.468 62.3468C307.717 61.8774 308.058 61.5144 308.491 61.2578C308.931 61.0011 309.418 60.8728 309.954 60.8728C310.482 60.8728 310.94 60.9864 311.329 61.2138C311.717 61.4411 312.007 61.7271 312.198 62.0718V60.9718H313.21V66.9998H312.198V65.8778C312 66.2298 311.703 66.5231 311.307 66.7578C310.918 66.9851 310.463 67.0988 309.943 67.0988C309.407 67.0988 308.923 66.9668 308.491 66.7028C308.058 66.4388 307.717 66.0684 307.468 65.5918C307.218 65.1151 307.094 64.5724 307.094 63.9638ZM312.198 63.9748C312.198 63.5201 312.106 63.1241 311.923 62.7868C311.739 62.4494 311.49 62.1928 311.175 62.0168C310.867 61.8334 310.526 61.7418 310.152 61.7418C309.778 61.7418 309.437 61.8298 309.129 62.0058C308.821 62.1818 308.575 62.4384 308.392 62.7758C308.208 63.1131 308.117 63.5091 308.117 63.9638C308.117 64.4258 308.208 64.8291 308.392 65.1738C308.575 65.5111 308.821 65.7714 309.129 65.9548C309.437 66.1308 309.778 66.2188 310.152 66.2188C310.526 66.2188 310.867 66.1308 311.175 65.9548C311.49 65.7714 311.739 65.5111 311.923 65.1738C312.106 64.8291 312.198 64.4294 312.198 63.9748ZM317.068 67.0988C316.606 67.0988 316.192 67.0218 315.825 66.8678C315.459 66.7064 315.169 66.4864 314.956 66.2078C314.744 65.9218 314.626 65.5954 314.604 65.2288H315.638C315.668 65.5294 315.807 65.7751 316.056 65.9658C316.313 66.1564 316.647 66.2518 317.057 66.2518C317.439 66.2518 317.739 66.1674 317.959 65.9988C318.179 65.8301 318.289 65.6174 318.289 65.3608C318.289 65.0968 318.172 64.9024 317.937 64.7778C317.703 64.6458 317.34 64.5174 316.848 64.3928C316.401 64.2754 316.034 64.1581 315.748 64.0408C315.47 63.9161 315.228 63.7364 315.022 63.5018C314.824 63.2598 314.725 62.9444 314.725 62.5558C314.725 62.2478 314.817 61.9654 315 61.7088C315.184 61.4521 315.444 61.2504 315.781 61.1038C316.119 60.9498 316.504 60.8728 316.936 60.8728C317.604 60.8728 318.143 61.0414 318.553 61.3788C318.964 61.7161 319.184 62.1781 319.213 62.7648H318.212C318.19 62.4494 318.062 62.1964 317.827 62.0058C317.6 61.8151 317.292 61.7198 316.903 61.7198C316.544 61.7198 316.258 61.7968 316.045 61.9508C315.833 62.1048 315.726 62.3064 315.726 62.5558C315.726 62.7538 315.789 62.9188 315.913 63.0508C316.045 63.1754 316.207 63.2781 316.397 63.3588C316.595 63.4321 316.867 63.5164 317.211 63.6118C317.644 63.7291 317.996 63.8464 318.267 63.9638C318.539 64.0738 318.77 64.2424 318.96 64.4698C319.158 64.6971 319.261 64.9941 319.268 65.3608C319.268 65.6908 319.177 65.9878 318.993 66.2518C318.81 66.5158 318.55 66.7248 318.212 66.8788C317.882 67.0254 317.501 67.0988 317.068 67.0988ZM322.848 67.0988C322.386 67.0988 321.972 67.0218 321.605 66.8678C321.239 66.7064 320.949 66.4864 320.736 66.2078C320.524 65.9218 320.406 65.5954 320.384 65.2288H321.418C321.448 65.5294 321.587 65.7751 321.836 65.9658C322.093 66.1564 322.427 66.2518 322.837 66.2518C323.219 66.2518 323.519 66.1674 323.739 65.9988C323.959 65.8301 324.069 65.6174 324.069 65.3608C324.069 65.0968 323.952 64.9024 323.717 64.7778C323.483 64.6458 323.12 64.5174 322.628 64.3928C322.181 64.2754 321.814 64.1581 321.528 64.0408C321.25 63.9161 321.008 63.7364 320.802 63.5018C320.604 63.2598 320.505 62.9444 320.505 62.5558C320.505 62.2478 320.597 61.9654 320.78 61.7088C320.964 61.4521 321.224 61.2504 321.561 61.1038C321.899 60.9498 322.284 60.8728 322.716 60.8728C323.384 60.8728 323.923 61.0414 324.333 61.3788C324.744 61.7161 324.964 62.1781 324.993 62.7648H323.992C323.97 62.4494 323.842 62.1964 323.607 62.0058C323.38 61.8151 323.072 61.7198 322.683 61.7198C322.324 61.7198 322.038 61.7968 321.825 61.9508C321.613 62.1048 321.506 62.3064 321.506 62.5558C321.506 62.7538 321.569 62.9188 321.693 63.0508C321.825 63.1754 321.987 63.2781 322.177 63.3588C322.375 63.4321 322.647 63.5164 322.991 63.6118C323.424 63.7291 323.776 63.8464 324.047 63.9638C324.319 64.0738 324.55 64.2424 324.74 64.4698C324.938 64.6971 325.041 64.9941 325.048 65.3608C325.048 65.6908 324.957 65.9878 324.773 66.2518C324.59 66.5158 324.33 66.7248 323.992 66.8788C323.662 67.0254 323.281 67.0988 322.848 67.0988ZM327.011 59.9928C326.821 59.9928 326.659 59.9268 326.527 59.7948C326.395 59.6628 326.329 59.5014 326.329 59.3108C326.329 59.1201 326.395 58.9588 326.527 58.8268C326.659 58.6948 326.821 58.6288 327.011 58.6288C327.195 58.6288 327.349 58.6948 327.473 58.8268C327.605 58.9588 327.671 59.1201 327.671 59.3108C327.671 59.5014 327.605 59.6628 327.473 59.7948C327.349 59.9268 327.195 59.9928 327.011 59.9928ZM327.495 60.9718V66.9998H326.494V60.9718H327.495ZM331.368 67.0988C330.906 67.0988 330.492 67.0218 330.125 66.8678C329.759 66.7064 329.469 66.4864 329.256 66.2078C329.044 65.9218 328.926 65.5954 328.904 65.2288H329.938C329.968 65.5294 330.107 65.7751 330.356 65.9658C330.613 66.1564 330.947 66.2518 331.357 66.2518C331.739 66.2518 332.039 66.1674 332.259 65.9988C332.479 65.8301 332.589 65.6174 332.589 65.3608C332.589 65.0968 332.472 64.9024 332.237 64.7778C332.003 64.6458 331.64 64.5174 331.148 64.3928C330.701 64.2754 330.334 64.1581 330.048 64.0408C329.77 63.9161 329.528 63.7364 329.322 63.5018C329.124 63.2598 329.025 62.9444 329.025 62.5558C329.025 62.2478 329.117 61.9654 329.3 61.7088C329.484 61.4521 329.744 61.2504 330.081 61.1038C330.419 60.9498 330.804 60.8728 331.236 60.8728C331.904 60.8728 332.443 61.0414 332.853 61.3788C333.264 61.7161 333.484 62.1781 333.513 62.7648H332.512C332.49 62.4494 332.362 62.1964 332.127 62.0058C331.9 61.8151 331.592 61.7198 331.203 61.7198C330.844 61.7198 330.558 61.7968 330.345 61.9508C330.133 62.1048 330.026 62.3064 330.026 62.5558C330.026 62.7538 330.089 62.9188 330.213 63.0508C330.345 63.1754 330.507 63.2781 330.697 63.3588C330.895 63.4321 331.167 63.5164 331.511 63.6118C331.944 63.7291 332.296 63.8464 332.567 63.9638C332.839 64.0738 333.07 64.2424 333.26 64.4698C333.458 64.6971 333.561 64.9941 333.568 65.3608C333.568 65.6908 333.477 65.9878 333.293 66.2518C333.11 66.5158 332.85 66.7248 332.512 66.8788C332.182 67.0254 331.801 67.0988 331.368 67.0988ZM336.236 61.7968V65.3498C336.236 65.6431 336.298 65.8521 336.423 65.9768C336.547 66.0941 336.764 66.1528 337.072 66.1528H337.809V66.9998H336.907C336.349 66.9998 335.931 66.8714 335.653 66.6148C335.374 66.3581 335.235 65.9364 335.235 65.3498V61.7968H334.454V60.9718H335.235V59.4538H336.236V60.9718H337.809V61.7968H336.236ZM338.68 63.9638C338.68 63.3478 338.805 62.8088 339.054 62.3468C339.304 61.8774 339.645 61.5144 340.077 61.2578C340.517 61.0011 341.005 60.8728 341.54 60.8728C342.068 60.8728 342.527 60.9864 342.915 61.2138C343.304 61.4411 343.594 61.7271 343.784 62.0718V60.9718H344.796V66.9998H343.784V65.8778C343.586 66.2298 343.289 66.5231 342.893 66.7578C342.505 66.9851 342.05 67.0988 341.529 67.0988C340.994 67.0988 340.51 66.9668 340.077 66.7028C339.645 66.4388 339.304 66.0684 339.054 65.5918C338.805 65.1151 338.68 64.5724 338.68 63.9638ZM343.784 63.9748C343.784 63.5201 343.693 63.1241 343.509 62.7868C343.326 62.4494 343.077 62.1928 342.761 62.0168C342.453 61.8334 342.112 61.7418 341.738 61.7418C341.364 61.7418 341.023 61.8298 340.715 62.0058C340.407 62.1818 340.162 62.4384 339.978 62.7758C339.795 63.1131 339.703 63.5091 339.703 63.9638C339.703 64.4258 339.795 64.8291 339.978 65.1738C340.162 65.5111 340.407 65.7714 340.715 65.9548C341.023 66.1308 341.364 66.2188 341.738 66.2188C342.112 66.2188 342.453 66.1308 342.761 65.9548C343.077 65.7714 343.326 65.5111 343.509 65.1738C343.693 64.8291 343.784 64.4294 343.784 63.9748ZM349.458 60.8618C350.191 60.8618 350.785 61.0854 351.24 61.5328C351.695 61.9728 351.922 62.6108 351.922 63.4468V66.9998H350.932V63.5898C350.932 62.9884 350.782 62.5301 350.481 62.2148C350.18 61.8921 349.77 61.7308 349.249 61.7308C348.721 61.7308 348.299 61.8958 347.984 62.2258C347.676 62.5558 347.522 63.0361 347.522 63.6668V66.9998H346.521V60.9718H347.522V61.8298C347.72 61.5218 347.988 61.2834 348.325 61.1148C348.67 60.9461 349.047 60.8618 349.458 60.8618ZM354.811 61.7968V65.3498C354.811 65.6431 354.873 65.8521 354.998 65.9768C355.123 66.0941 355.339 66.1528 355.647 66.1528H356.384V66.9998H355.482C354.925 66.9998 354.507 66.8714 354.228 66.6148C353.949 66.3581 353.81 65.9364 353.81 65.3498V61.7968H353.029V60.9718H353.81V59.4538H354.811V60.9718H356.384V61.7968H354.811ZM359.764 67.0988C359.302 67.0988 358.888 67.0218 358.521 66.8678C358.154 66.7064 357.865 66.4864 357.652 66.2078C357.439 65.9218 357.322 65.5954 357.3 65.2288H358.334C358.363 65.5294 358.503 65.7751 358.752 65.9658C359.009 66.1564 359.342 66.2518 359.753 66.2518C360.134 66.2518 360.435 66.1674 360.655 65.9988C360.875 65.8301 360.985 65.6174 360.985 65.3608C360.985 65.0968 360.868 64.9024 360.633 64.7778C360.398 64.6458 360.035 64.5174 359.544 64.3928C359.097 64.2754 358.73 64.1581 358.444 64.0408C358.165 63.9161 357.923 63.7364 357.718 63.5018C357.52 63.2598 357.421 62.9444 357.421 62.5558C357.421 62.2478 357.513 61.9654 357.696 61.7088C357.879 61.4521 358.14 61.2504 358.477 61.1038C358.814 60.9498 359.199 60.8728 359.632 60.8728C360.299 60.8728 360.838 61.0414 361.249 61.3788C361.66 61.7161 361.88 62.1781 361.909 62.7648H360.908C360.886 62.4494 360.758 62.1964 360.523 62.0058C360.296 61.8151 359.988 61.7198 359.599 61.7198C359.24 61.7198 358.954 61.7968 358.741 61.9508C358.528 62.1048 358.422 62.3064 358.422 62.5558C358.422 62.7538 358.484 62.9188 358.609 63.0508C358.741 63.1754 358.902 63.2781 359.093 63.3588C359.291 63.4321 359.562 63.5164 359.907 63.6118C360.34 63.7291 360.692 63.8464 360.963 63.9638C361.234 64.0738 361.465 64.2424 361.656 64.4698C361.854 64.6971 361.957 64.9941 361.964 65.3608C361.964 65.6908 361.872 65.9878 361.689 66.2518C361.506 66.5158 361.245 66.7248 360.908 66.8788C360.578 67.0254 360.197 67.0988 359.764 67.0988Z" fill="#666666"/>
<g filter="url(#filter1_bd_8909_3038)">
<rect x="91" y="156" width="66" height="66" rx="10" fill="#034737"/>
<rect x="90.5709" y="155.571" width="66.8581" height="66.8581" rx="10.4291" stroke="#EAEAEA" stroke-width="0.858128"/>
</g>
<path d="M132.663 186.887C134.378 185.699 134.925 183.369 133.864 181.53C132.802 179.693 130.51 179.001 128.625 179.891L126.428 176.086C125.942 175.245 125.075 174.752 124.1 174.771C123.129 174.789 122.277 175.312 121.822 176.171C121.51 176.761 121.216 177.373 120.907 178.021C119.648 180.65 118.221 183.63 115.144 185.408L111.168 187.704C109.784 188.503 108.793 189.797 108.377 191.35C107.96 192.902 108.171 194.519 108.97 195.903C109.769 197.287 111.064 198.277 112.616 198.694C113.137 198.833 113.664 198.902 114.189 198.902C114.937 198.902 115.678 198.761 116.377 198.483L119.128 203.248C119.716 204.265 120.784 204.833 121.881 204.833C122.418 204.833 122.963 204.696 123.462 204.408C124.977 203.534 125.498 201.59 124.624 200.075L121.925 195.399C124.771 194.071 127.759 194.3 130.421 194.507C131.138 194.562 131.815 194.615 132.482 194.64C133.45 194.675 134.331 194.2 134.833 193.367C135.334 192.534 135.343 191.535 134.858 190.694L132.661 186.889L132.663 186.887ZM132.345 182.408C132.922 183.407 132.66 184.665 131.78 185.359L129.506 181.42C130.548 181.007 131.766 181.408 132.343 182.408L132.345 182.408ZM113.073 196.999C111.972 196.704 111.057 196.003 110.491 195.026C109.927 194.049 109.779 192.903 110.073 191.804C110.368 190.704 111.069 189.789 112.046 189.223L115.262 187.367L119.509 194.724L116.294 196.581C115.317 197.145 114.171 197.293 113.073 196.999ZM122.588 202.89C121.911 203.281 121.043 203.048 120.651 202.371L117.931 197.66L120.388 196.242L123.107 200.953C123.498 201.63 123.265 202.498 122.588 202.89ZM121.047 193.875L116.767 186.461C119.789 184.413 121.217 181.442 122.484 178.795L130.544 192.757C127.618 192.531 124.329 192.281 121.047 193.875ZM133.333 192.462C133.175 192.724 132.939 192.869 132.645 192.886L123.422 176.911C123.584 176.666 123.827 176.532 124.132 176.526H124.153C124.482 176.526 124.743 176.678 124.909 176.965L133.341 191.569C133.511 191.862 133.508 192.17 133.333 192.46L133.333 192.462ZM131.221 176.511L132.9 173.605C133.142 173.186 133.679 173.042 134.099 173.284C134.518 173.527 134.662 174.064 134.419 174.483L132.741 177.389C132.578 177.67 132.283 177.828 131.98 177.828C131.831 177.828 131.68 177.789 131.543 177.71C131.124 177.467 130.98 176.93 131.223 176.511H131.221ZM138.853 179.665L135.877 181.383C135.739 181.463 135.588 181.501 135.44 181.501C135.137 181.501 134.843 181.343 134.679 181.063C134.437 180.643 134.581 180.106 135 179.864L137.976 178.146C138.395 177.903 138.932 178.047 139.175 178.466C139.417 178.885 139.274 179.423 138.854 179.665H138.853ZM141.125 185.454C141.125 185.939 140.731 186.332 140.246 186.332H136.891C136.406 186.332 136.013 185.939 136.013 185.455C136.013 184.97 136.406 184.577 136.891 184.577H140.246C140.731 184.577 141.125 184.97 141.125 185.454Z" fill="white"/>
<path d="M29.6878 184.388V192H28.6868V186.324L26.1568 192H25.4528L22.9118 186.313V192H21.9108V184.388H22.9888L25.8048 190.68L28.6208 184.388H29.6878ZM33.8054 184.333C34.6414 184.333 35.3637 184.49 35.9724 184.806C36.5884 185.114 37.0577 185.557 37.3804 186.137C37.7104 186.716 37.8754 187.398 37.8754 188.183C37.8754 188.967 37.7104 189.649 37.3804 190.229C37.0577 190.801 36.5884 191.241 35.9724 191.549C35.3637 191.849 34.6414 192 33.8054 192H31.4184V184.333H33.8054ZM33.8054 191.175C34.7954 191.175 35.5507 190.914 36.0714 190.394C36.5921 189.866 36.8524 189.129 36.8524 188.183C36.8524 187.229 36.5884 186.485 36.0604 185.95C35.5397 185.414 34.7881 185.147 33.8054 185.147H32.4194V191.175H33.8054ZM43.2658 192L41.4398 188.865H40.2298V192H39.2288V184.333H41.7038C42.2831 184.333 42.7708 184.432 43.1668 184.63C43.5701 184.828 43.8708 185.095 44.0688 185.433C44.2668 185.77 44.3658 186.155 44.3658 186.588C44.3658 187.116 44.2118 187.581 43.9038 187.985C43.6031 188.388 43.1484 188.656 42.5398 188.788L44.4648 192H43.2658ZM40.2298 188.062H41.7038C42.2464 188.062 42.6534 187.93 42.9248 187.666C43.1961 187.394 43.3318 187.035 43.3318 186.588C43.3318 186.133 43.1961 185.781 42.9248 185.532C42.6608 185.282 42.2538 185.158 41.7038 185.158H40.2298V188.062ZM48.5458 188.964C48.5458 188.348 48.6704 187.809 48.9198 187.347C49.1691 186.877 49.5101 186.514 49.9428 186.258C50.3828 186.001 50.8704 185.873 51.4058 185.873C51.9338 185.873 52.3921 185.986 52.7808 186.214C53.1694 186.441 53.4591 186.727 53.6498 187.072V185.972H54.6618V192H53.6498V190.878C53.4518 191.23 53.1548 191.523 52.7588 191.758C52.3701 191.985 51.9154 192.099 51.3948 192.099C50.8594 192.099 50.3754 191.967 49.9428 191.703C49.5101 191.439 49.1691 191.068 48.9198 190.592C48.6704 190.115 48.5458 189.572 48.5458 188.964ZM53.6498 188.975C53.6498 188.52 53.5581 188.124 53.3748 187.787C53.1914 187.449 52.9421 187.193 52.6268 187.017C52.3188 186.833 51.9778 186.742 51.6038 186.742C51.2298 186.742 50.8888 186.83 50.5808 187.006C50.2728 187.182 50.0271 187.438 49.8438 187.776C49.6604 188.113 49.5688 188.509 49.5688 188.964C49.5688 189.426 49.6604 189.829 49.8438 190.174C50.0271 190.511 50.2728 190.771 50.5808 190.955C50.8888 191.131 51.2298 191.219 51.6038 191.219C51.9778 191.219 52.3188 191.131 52.6268 190.955C52.9421 190.771 53.1914 190.511 53.3748 190.174C53.5581 189.829 53.6498 189.429 53.6498 188.975ZM58.8723 185.873C59.393 185.873 59.8477 185.986 60.2363 186.214C60.6323 186.441 60.9257 186.727 61.1163 187.072V185.972H62.1283V192.132C62.1283 192.682 62.011 193.169 61.7763 193.595C61.5417 194.027 61.2043 194.365 60.7643 194.607C60.3317 194.849 59.8257 194.97 59.2463 194.97C58.4543 194.97 57.7943 194.783 57.2663 194.409C56.7383 194.035 56.4267 193.525 56.3313 192.88H57.3213C57.4313 193.246 57.6587 193.54 58.0033 193.76C58.348 193.987 58.7623 194.101 59.2463 194.101C59.7963 194.101 60.2437 193.928 60.5883 193.584C60.9403 193.239 61.1163 192.755 61.1163 192.132V190.867C60.9183 191.219 60.625 191.512 60.2363 191.747C59.8477 191.981 59.393 192.099 58.8723 192.099C58.337 192.099 57.8493 191.967 57.4093 191.703C56.9767 191.439 56.6357 191.068 56.3863 190.592C56.137 190.115 56.0123 189.572 56.0123 188.964C56.0123 188.348 56.137 187.809 56.3863 187.347C56.6357 186.877 56.9767 186.514 57.4093 186.258C57.8493 186.001 58.337 185.873 58.8723 185.873ZM61.1163 188.975C61.1163 188.52 61.0247 188.124 60.8413 187.787C60.658 187.449 60.4087 187.193 60.0933 187.017C59.7853 186.833 59.4443 186.742 59.0703 186.742C58.6963 186.742 58.3553 186.83 58.0473 187.006C57.7393 187.182 57.4937 187.438 57.3103 187.776C57.127 188.113 57.0353 188.509 57.0353 188.964C57.0353 189.426 57.127 189.829 57.3103 190.174C57.4937 190.511 57.7393 190.771 58.0473 190.955C58.3553 191.131 58.6963 191.219 59.0703 191.219C59.4443 191.219 59.7853 191.131 60.0933 190.955C60.4087 190.771 60.658 190.511 60.8413 190.174C61.0247 189.829 61.1163 189.429 61.1163 188.975ZM69.3529 188.755C69.3529 188.945 69.3419 189.147 69.3199 189.36H64.5019C64.5386 189.954 64.7403 190.419 65.1069 190.757C65.4809 191.087 65.9319 191.252 66.4599 191.252C66.8926 191.252 67.2519 191.153 67.5379 190.955C67.8313 190.749 68.0366 190.478 68.1539 190.141H69.2319C69.0706 190.72 68.7479 191.193 68.2639 191.56C67.7799 191.919 67.1786 192.099 66.4599 192.099C65.8879 192.099 65.3746 191.97 64.9199 191.714C64.4726 191.457 64.1206 191.094 63.8639 190.625C63.6073 190.148 63.4789 189.598 63.4789 188.975C63.4789 188.351 63.6036 187.805 63.8529 187.336C64.1023 186.866 64.4506 186.507 64.8979 186.258C65.3526 186.001 65.8733 185.873 66.4599 185.873C67.0319 185.873 67.5379 185.997 67.9779 186.247C68.4179 186.496 68.7553 186.841 68.9899 187.281C69.2319 187.713 69.3529 188.205 69.3529 188.755ZM68.3189 188.546C68.3189 188.164 68.2346 187.838 68.0659 187.567C67.8973 187.288 67.6663 187.079 67.3729 186.94C67.0869 186.793 66.7679 186.72 66.4159 186.72C65.9099 186.72 65.4773 186.881 65.1179 187.204C64.7659 187.526 64.5643 187.974 64.5129 188.546H68.3189ZM73.6442 185.862C74.3776 185.862 74.9716 186.085 75.4262 186.533C75.8809 186.973 76.1082 187.611 76.1082 188.447V192H75.1182V188.59C75.1182 187.988 74.9679 187.53 74.6672 187.215C74.3666 186.892 73.9559 186.731 73.4352 186.731C72.9072 186.731 72.4856 186.896 72.1702 187.226C71.8622 187.556 71.7082 188.036 71.7082 188.667V192H70.7072V185.972H71.7082V186.83C71.9062 186.522 72.1739 186.283 72.5112 186.115C72.8559 185.946 73.2336 185.862 73.6442 185.862ZM78.9974 186.797V190.35C78.9974 190.643 79.0597 190.852 79.1844 190.977C79.309 191.094 79.5254 191.153 79.8334 191.153H80.5704V192H79.6684C79.111 192 78.693 191.871 78.4144 191.615C78.1357 191.358 77.9964 190.936 77.9964 190.35V186.797H77.2154V185.972H77.9964V184.454H78.9974V185.972H80.5704V186.797H78.9974Z" fill="#666666"/>
<g filter="url(#filter2_bd_8909_3038)">
<rect x="91" y="30.9998" width="66" height="66" rx="10" fill="#034737"/>
<rect x="90.5709" y="30.5707" width="66.8581" height="66.8581" rx="10.4291" stroke="#EAEAEA" stroke-width="0.858128"/>
</g>
<path d="M113.955 49.0677C111.63 49.487 109.788 51.1767 109.152 53.4635L109 54.0606V64.0083V73.956L109.152 74.5404C109.737 76.6367 111.35 78.2629 113.459 78.8473L114.044 78.9997H123.991H133.939L134.524 78.8473C134.841 78.7584 135.375 78.5424 135.692 78.3899C137.217 77.6276 138.36 76.2174 138.818 74.5404L138.97 73.956V64.0083V54.0606L138.818 53.4762C138.233 51.3799 136.62 49.7538 134.511 49.1693L133.926 49.0169L124.169 49.0042C116.153 48.9915 114.323 49.0042 113.955 49.0677ZM133.393 50.2111C134.142 50.2873 134.663 50.4398 135.26 50.7447C136.112 51.2021 136.785 51.8754 137.242 52.7266C137.56 53.3237 137.712 53.8446 137.776 54.5942C137.852 55.4454 137.852 72.5458 137.776 73.397C137.7 74.1466 137.547 74.6675 137.242 75.2646C136.785 76.1158 136.112 76.7891 135.26 77.2465C134.663 77.5641 134.142 77.7166 133.393 77.7801C132.542 77.8563 115.441 77.8563 114.59 77.7801C113.84 77.7039 113.32 77.5514 112.722 77.2465C111.871 76.7891 111.198 76.1158 110.741 75.2646C110.423 74.6675 110.27 74.1466 110.207 73.397C110.131 72.5458 110.131 55.4454 110.207 54.5942C110.283 53.8446 110.436 53.3237 110.741 52.7266C111.503 51.3037 112.9 50.3636 114.488 50.2111C115.238 50.1476 132.643 50.1476 133.393 50.2111Z" fill="white"/>
<path d="M115.546 53.857C115.368 53.8952 115.012 54.0222 114.758 54.1493C113.767 54.632 113.195 55.5213 113.195 56.6266C113.195 58.418 114.796 59.7139 116.664 59.4471C118.353 59.2057 119.433 57.7192 119.103 56.1185C118.874 55.0513 118.163 54.2636 117.134 53.946C116.778 53.8316 115.952 53.7808 115.546 53.857ZM116.537 55.0259C116.74 55.0513 116.994 55.1275 117.07 55.1783C118.061 55.6865 118.277 57.0205 117.489 57.8082C117.121 58.1893 116.384 58.3672 115.787 58.2528C115.33 58.1639 115.076 58.0242 114.796 57.7192C114.491 57.3889 114.402 57.1094 114.402 56.5885C114.402 55.7754 114.936 55.1783 115.787 55.0386C115.965 55.0132 116.117 54.9878 116.13 54.9751C116.155 54.9751 116.333 55.0005 116.537 55.0259Z" fill="white"/>
<path d="M113.625 59.8159C113.549 59.8286 113.435 59.9049 113.359 59.9811L113.219 60.1336V67.3117V74.4898L113.359 74.6295L113.498 74.7693L116.128 74.782L118.758 74.7947L118.949 74.6168L119.139 74.4516L119.152 67.3625C119.165 61.7724 119.152 60.2479 119.088 60.1336C119.05 60.0573 118.923 59.943 118.809 59.8922C118.618 59.8032 118.377 59.7905 116.166 59.7905C114.845 59.7905 113.689 59.8032 113.625 59.8159ZM118.008 67.3117V73.6131H116.192H114.375V67.3117V61.0102H116.192H118.008V67.3117Z" fill="white"/>
<path d="M120.254 59.8158C120.178 59.8285 120.051 59.9175 119.962 60.0191L119.797 60.197V67.3242V74.4515L119.962 74.604L120.114 74.7691L122.757 74.7818L125.387 74.7945L125.577 74.6167L125.768 74.4515L125.793 70.1447C125.819 67.248 125.844 65.787 125.895 65.6599C126.225 64.7452 126.962 64.4022 127.941 64.7071C128.182 64.7833 128.461 65.0755 128.627 65.4313L128.766 65.7235L128.792 70.0811L128.817 74.4515L129.008 74.6167L129.198 74.7945L131.828 74.7818L134.458 74.7691L134.598 74.6294L134.737 74.4896V69.8143C134.737 64.6944 134.75 64.8468 134.369 63.7034C133.645 61.4801 131.879 60.0445 129.567 59.8285C128.868 59.765 127.979 59.8285 127.407 59.981C127 60.0953 126.276 60.4129 126.022 60.5908C125.933 60.667 125.844 60.7178 125.819 60.7178C125.806 60.7178 125.781 60.5908 125.755 60.4383C125.73 60.2224 125.679 60.108 125.539 59.981L125.387 59.8031H122.884C121.512 59.7904 120.318 59.8031 120.254 59.8158ZM124.587 61.7469L124.612 62.4838L124.802 62.6489C124.942 62.776 125.044 62.8141 125.222 62.8141C125.425 62.8141 125.476 62.776 125.87 62.344C126.721 61.3912 127.636 60.9973 128.97 60.9973C131.015 60.9973 132.565 62.0772 133.213 63.9702C133.569 64.9993 133.569 64.9866 133.594 69.484L133.619 73.613H131.803H129.973V69.7127C129.973 67.0574 129.948 65.7108 129.91 65.5075C129.605 64.11 128.55 63.3223 127.077 63.4239C126.441 63.462 125.997 63.6399 125.603 63.9956C125.184 64.3768 124.955 64.7325 124.752 65.3042L124.599 65.7743L124.587 69.6873L124.574 73.613H122.795H121.004V67.3115V61.0101H122.782H124.561L124.587 61.7469Z" fill="white"/>
<path d="M2.22627 66.1858H4.91027V66.9998H1.22527V59.3328H2.22627V66.1858ZM6.52332 59.9928C6.33265 59.9928 6.17132 59.9268 6.03932 59.7948C5.90732 59.6628 5.84132 59.5014 5.84132 59.3108C5.84132 59.1201 5.90732 58.9588 6.03932 58.8268C6.17132 58.6948 6.33265 58.6288 6.52332 58.6288C6.70665 58.6288 6.86065 58.6948 6.98532 58.8268C7.11732 58.9588 7.18332 59.1201 7.18332 59.3108C7.18332 59.5014 7.11732 59.6628 6.98532 59.7948C6.86065 59.9268 6.70665 59.9928 6.52332 59.9928ZM7.00732 60.9718V66.9998H6.00632V60.9718H7.00732ZM11.6834 60.8618C12.4167 60.8618 13.0107 61.0854 13.4654 61.5328C13.92 61.9728 14.1474 62.6108 14.1474 63.4468V66.9998H13.1574V63.5898C13.1574 62.9884 13.007 62.5301 12.7064 62.2148C12.4057 61.8921 11.995 61.7308 11.4744 61.7308C10.9464 61.7308 10.5247 61.8958 10.2094 62.2258C9.90135 62.5558 9.74735 63.0361 9.74735 63.6668V66.9998H8.74635V60.9718H9.74735V61.8298C9.94535 61.5218 10.213 61.2834 10.5504 61.1148C10.895 60.9461 11.2727 60.8618 11.6834 60.8618ZM19.1815 66.9998L16.8165 64.3378V66.9998H15.8155V58.8598H16.8165V63.6448L19.1375 60.9718H20.5345L17.6965 63.9748L20.5455 66.9998H19.1815ZM27.0096 63.7548C27.0096 63.9454 26.9986 64.1471 26.9766 64.3598H22.1586C22.1953 64.9538 22.397 65.4194 22.7636 65.7568C23.1376 66.0868 23.5886 66.2518 24.1166 66.2518C24.5493 66.2518 24.9086 66.1528 25.1946 65.9548C25.488 65.7494 25.6933 65.4781 25.8106 65.1408H26.8886C26.7273 65.7201 26.4046 66.1931 25.9206 66.5598C25.4366 66.9191 24.8353 67.0988 24.1166 67.0988C23.5446 67.0988 23.0313 66.9704 22.5766 66.7138C22.1293 66.4571 21.7773 66.0941 21.5206 65.6248C21.264 65.1481 21.1356 64.5981 21.1356 63.9748C21.1356 63.3514 21.2603 62.8051 21.5096 62.3358C21.759 61.8664 22.1073 61.5071 22.5546 61.2578C23.0093 61.0011 23.53 60.8728 24.1166 60.8728C24.6886 60.8728 25.1946 60.9974 25.6346 61.2468C26.0746 61.4961 26.412 61.8408 26.6466 62.2808C26.8886 62.7134 27.0096 63.2048 27.0096 63.7548ZM25.9756 63.5458C25.9756 63.1644 25.8913 62.8381 25.7226 62.5668C25.554 62.2881 25.323 62.0791 25.0296 61.9398C24.7436 61.7931 24.4246 61.7198 24.0726 61.7198C23.5666 61.7198 23.134 61.8811 22.7746 62.2038C22.4226 62.5264 22.221 62.9738 22.1696 63.5458H25.9756ZM27.9899 63.9638C27.9899 63.3478 28.1146 62.8088 28.3639 62.3468C28.6132 61.8774 28.9542 61.5144 29.3869 61.2578C29.8269 61.0011 30.3182 60.8728 30.8609 60.8728C31.3302 60.8728 31.7666 60.9828 32.1699 61.2028C32.5732 61.4154 32.8812 61.6978 33.0939 62.0498V58.8598H34.1059V66.9998H33.0939V65.8668C32.8959 66.2261 32.6026 66.5231 32.2139 66.7578C31.8252 66.9851 31.3706 67.0988 30.8499 67.0988C30.3146 67.0988 29.8269 66.9668 29.3869 66.7028C28.9542 66.4388 28.6132 66.0684 28.3639 65.5918C28.1146 65.1151 27.9899 64.5724 27.9899 63.9638ZM33.0939 63.9748C33.0939 63.5201 33.0022 63.1241 32.8189 62.7868C32.6356 62.4494 32.3862 62.1928 32.0709 62.0168C31.7629 61.8334 31.4219 61.7418 31.0479 61.7418C30.6739 61.7418 30.3329 61.8298 30.0249 62.0058C29.7169 62.1818 29.4712 62.4384 29.2879 62.7758C29.1046 63.1131 29.0129 63.5091 29.0129 63.9638C29.0129 64.4258 29.1046 64.8291 29.2879 65.1738C29.4712 65.5111 29.7169 65.7714 30.0249 65.9548C30.3329 66.1308 30.6739 66.2188 31.0479 66.2188C31.4219 66.2188 31.7629 66.1308 32.0709 65.9548C32.3862 65.7714 32.6356 65.5111 32.8189 65.1738C33.0022 64.8291 33.0939 64.4294 33.0939 63.9748ZM36.8315 59.3328V66.9998H35.8305V59.3328H36.8315ZM41.5075 60.8618C42.2409 60.8618 42.8349 61.0854 43.2895 61.5328C43.7442 61.9728 43.9715 62.6108 43.9715 63.4468V66.9998H42.9815V63.5898C42.9815 62.9884 42.8312 62.5301 42.5305 62.2148C42.2299 61.8921 41.8192 61.7308 41.2985 61.7308C40.7705 61.7308 40.3489 61.8958 40.0335 62.2258C39.7255 62.5558 39.5715 63.0361 39.5715 63.6668V66.9998H38.5705V60.9718H39.5715V61.8298C39.7695 61.5218 40.0372 61.2834 40.3745 61.1148C40.7192 60.9461 41.0969 60.8618 41.5075 60.8618ZM48.2313 63.9638C48.2313 63.3478 48.3559 62.8088 48.6053 62.3468C48.8546 61.8774 49.1956 61.5144 49.6283 61.2578C50.0683 61.0011 50.5559 60.8728 51.0913 60.8728C51.6193 60.8728 52.0776 60.9864 52.4663 61.2138C52.8549 61.4411 53.1446 61.7271 53.3353 62.0718V60.9718H54.3473V66.9998H53.3353V65.8778C53.1373 66.2298 52.8403 66.5231 52.4443 66.7578C52.0556 66.9851 51.6009 67.0988 51.0803 67.0988C50.5449 67.0988 50.0609 66.9668 49.6283 66.7028C49.1956 66.4388 48.8546 66.0684 48.6053 65.5918C48.3559 65.1151 48.2313 64.5724 48.2313 63.9638ZM53.3353 63.9748C53.3353 63.5201 53.2436 63.1241 53.0603 62.7868C52.8769 62.4494 52.6276 62.1928 52.3123 62.0168C52.0043 61.8334 51.6633 61.7418 51.2893 61.7418C50.9153 61.7418 50.5743 61.8298 50.2663 62.0058C49.9583 62.1818 49.7126 62.4384 49.5293 62.7758C49.3459 63.1131 49.2543 63.5091 49.2543 63.9638C49.2543 64.4258 49.3459 64.8291 49.5293 65.1738C49.7126 65.5111 49.9583 65.7714 50.2663 65.9548C50.5743 66.1308 50.9153 66.2188 51.2893 66.2188C51.6633 66.2188 52.0043 66.1308 52.3123 65.9548C52.6276 65.7714 52.8769 65.5111 53.0603 65.1738C53.2436 64.8291 53.3353 64.4294 53.3353 63.9748ZM58.5579 60.8728C59.0785 60.8728 59.5332 60.9864 59.9219 61.2138C60.3179 61.4411 60.6112 61.7271 60.8019 62.0718V60.9718H61.8139V67.1318C61.8139 67.6818 61.6965 68.1694 61.4619 68.5948C61.2272 69.0274 60.8899 69.3648 60.4499 69.6068C60.0172 69.8488 59.5112 69.9698 58.9319 69.9698C58.1399 69.9698 57.4799 69.7828 56.9519 69.4088C56.4239 69.0348 56.1122 68.5251 56.0169 67.8798H57.0069C57.1169 68.2464 57.3442 68.5398 57.6889 68.7598C58.0335 68.9871 58.4479 69.1008 58.9319 69.1008C59.4819 69.1008 59.9292 68.9284 60.2739 68.5838C60.6259 68.2391 60.8019 67.7551 60.8019 67.1318V65.8668C60.6039 66.2188 60.3105 66.5121 59.9219 66.7468C59.5332 66.9814 59.0785 67.0988 58.5579 67.0988C58.0225 67.0988 57.5349 66.9668 57.0949 66.7028C56.6622 66.4388 56.3212 66.0684 56.0719 65.5918C55.8225 65.1151 55.6979 64.5724 55.6979 63.9638C55.6979 63.3478 55.8225 62.8088 56.0719 62.3468C56.3212 61.8774 56.6622 61.5144 57.0949 61.2578C57.5349 61.0011 58.0225 60.8728 58.5579 60.8728ZM60.8019 63.9748C60.8019 63.5201 60.7102 63.1241 60.5269 62.7868C60.3435 62.4494 60.0942 62.1928 59.7789 62.0168C59.4709 61.8334 59.1299 61.7418 58.7559 61.7418C58.3819 61.7418 58.0409 61.8298 57.7329 62.0058C57.4249 62.1818 57.1792 62.4384 56.9959 62.7758C56.8125 63.1131 56.7209 63.5091 56.7209 63.9638C56.7209 64.4258 56.8125 64.8291 56.9959 65.1738C57.1792 65.5111 57.4249 65.7714 57.7329 65.9548C58.0409 66.1308 58.3819 66.2188 58.7559 66.2188C59.1299 66.2188 59.4709 66.1308 59.7789 65.9548C60.0942 65.7714 60.3435 65.5111 60.5269 65.1738C60.7102 64.8291 60.8019 64.4294 60.8019 63.9748ZM69.0385 63.7548C69.0385 63.9454 69.0275 64.1471 69.0055 64.3598H64.1875C64.2241 64.9538 64.4258 65.4194 64.7925 65.7568C65.1665 66.0868 65.6175 66.2518 66.1455 66.2518C66.5781 66.2518 66.9375 66.1528 67.2235 65.9548C67.5168 65.7494 67.7221 65.4781 67.8395 65.1408H68.9175C68.7561 65.7201 68.4335 66.1931 67.9495 66.5598C67.4655 66.9191 66.8641 67.0988 66.1455 67.0988C65.5735 67.0988 65.0601 66.9704 64.6055 66.7138C64.1581 66.4571 63.8061 66.0941 63.5495 65.6248C63.2928 65.1481 63.1645 64.5981 63.1645 63.9748C63.1645 63.3514 63.2891 62.8051 63.5385 62.3358C63.7878 61.8664 64.1361 61.5071 64.5835 61.2578C65.0381 61.0011 65.5588 60.8728 66.1455 60.8728C66.7175 60.8728 67.2235 60.9974 67.6635 61.2468C68.1035 61.4961 68.4408 61.8408 68.6755 62.2808C68.9175 62.7134 69.0385 63.2048 69.0385 63.7548ZM68.0045 63.5458C68.0045 63.1644 67.9201 62.8381 67.7515 62.5668C67.5828 62.2881 67.3518 62.0791 67.0585 61.9398C66.7725 61.7931 66.4535 61.7198 66.1015 61.7198C65.5955 61.7198 65.1628 61.8811 64.8035 62.2038C64.4515 62.5264 64.2498 62.9738 64.1985 63.5458H68.0045ZM73.3298 60.8618C74.0631 60.8618 74.6571 61.0854 75.1118 61.5328C75.5664 61.9728 75.7938 62.6108 75.7938 63.4468V66.9998H74.8038V63.5898C74.8038 62.9884 74.6534 62.5301 74.3528 62.2148C74.0521 61.8921 73.6414 61.7308 73.1208 61.7308C72.5928 61.7308 72.1711 61.8958 71.8558 62.2258C71.5478 62.5558 71.3938 63.0361 71.3938 63.6668V66.9998H70.3928V60.9718H71.3938V61.8298C71.5918 61.5218 71.8594 61.2834 72.1968 61.1148C72.5414 60.9461 72.9191 60.8618 73.3298 60.8618ZM78.6829 61.7968V65.3498C78.6829 65.6431 78.7452 65.8521 78.8699 65.9768C78.9946 66.0941 79.2109 66.1528 79.5189 66.1528H80.2559V66.9998H79.3539C78.7966 66.9998 78.3786 66.8714 78.0999 66.6148C77.8212 66.3581 77.6819 65.9364 77.6819 65.3498V61.7968H76.9009V60.9718H77.6819V59.4538H78.6829V60.9718H80.2559V61.7968H78.6829Z" fill="#666666"/>
<g filter="url(#filter3_bd_8909_3038)">
<rect x="217" y="156" width="66" height="66" rx="10" fill="#034737"/>
<rect x="216.571" y="155.571" width="66.8581" height="66.8581" rx="10.4291" stroke="#EAEAEA" stroke-width="0.858128"/>
</g>
<g clip-path="url(#clip0_8909_3038)">
<path d="M263.5 189C263.5 196.456 257.456 202.5 250 202.5C242.544 202.5 236.5 196.456 236.5 189C236.5 181.544 242.544 175.5 250 175.5" stroke="white" stroke-width="2.05833" stroke-linecap="round" stroke-linejoin="round"/>
<ellipse cx="250" cy="186" rx="4.5" ry="4.5" stroke="white" stroke-width="2.05833" stroke-linecap="round" stroke-linejoin="round"/>
<path d="M241.254 199.273C242.016 196.736 244.353 194.999 247.002 195H253.002C255.655 194.999 257.994 196.74 258.753 199.282" stroke="white" stroke-width="2.05833" stroke-linecap="round" stroke-linejoin="round"/>
<path fill-rule="evenodd" clip-rule="evenodd" d="M254.361 174.124C254.332 173.958 254.093 173.958 254.065 174.124C253.848 175.371 252.871 176.347 251.624 176.565C251.459 176.593 251.459 176.832 251.624 176.86C252.871 177.078 253.848 178.054 254.065 179.302C254.093 179.467 254.332 179.467 254.361 179.302C254.578 178.054 255.554 177.078 256.802 176.86C256.967 176.832 256.967 176.593 256.802 176.565C255.554 176.347 254.578 175.371 254.361 174.124ZM260.399 177.338C260.45 177.048 260.867 177.048 260.918 177.338C261.298 179.521 263.007 181.23 265.189 181.61C265.48 181.661 265.48 182.078 265.189 182.129C263.007 182.509 261.298 184.218 260.918 186.4C260.867 186.69 260.45 186.69 260.399 186.4C260.019 184.218 258.31 182.509 256.128 182.129C255.838 182.078 255.838 181.661 256.128 181.61C258.31 181.23 260.019 179.521 260.399 177.338Z" fill="white"/>
</g>
<path d="M297.884 187L296.058 183.865H294.848V187H293.847V179.333H296.322C296.901 179.333 297.389 179.432 297.785 179.63C298.188 179.828 298.489 180.095 298.687 180.433C298.885 180.77 298.984 181.155 298.984 181.588C298.984 182.116 298.83 182.581 298.522 182.985C298.221 183.388 297.767 183.656 297.158 183.788L299.083 187H297.884ZM294.848 183.062H296.322C296.865 183.062 297.272 182.93 297.543 182.666C297.814 182.394 297.95 182.035 297.95 181.588C297.95 181.133 297.814 180.781 297.543 180.532C297.279 180.282 296.872 180.158 296.322 180.158H294.848V183.062ZM306.072 183.755C306.072 183.945 306.061 184.147 306.039 184.36H301.221C301.258 184.954 301.46 185.419 301.826 185.757C302.2 186.087 302.651 186.252 303.179 186.252C303.612 186.252 303.971 186.153 304.257 185.955C304.551 185.749 304.756 185.478 304.873 185.141H305.951C305.79 185.72 305.467 186.193 304.983 186.56C304.499 186.919 303.898 187.099 303.179 187.099C302.607 187.099 302.094 186.97 301.639 186.714C301.192 186.457 300.84 186.094 300.583 185.625C300.327 185.148 300.198 184.598 300.198 183.975C300.198 183.351 300.323 182.805 300.572 182.336C300.822 181.866 301.17 181.507 301.617 181.258C302.072 181.001 302.593 180.873 303.179 180.873C303.751 180.873 304.257 180.997 304.697 181.247C305.137 181.496 305.475 181.841 305.709 182.281C305.951 182.713 306.072 183.205 306.072 183.755ZM305.038 183.546C305.038 183.164 304.954 182.838 304.785 182.567C304.617 182.288 304.386 182.079 304.092 181.94C303.806 181.793 303.487 181.72 303.135 181.72C302.629 181.72 302.197 181.881 301.837 182.204C301.485 182.526 301.284 182.974 301.232 183.546H305.038ZM307.053 183.975C307.053 183.351 307.177 182.809 307.427 182.347C307.676 181.877 308.021 181.514 308.461 181.258C308.908 181.001 309.418 180.873 309.99 180.873C310.73 180.873 311.339 181.052 311.816 181.412C312.3 181.771 312.619 182.27 312.773 182.908H311.695C311.592 182.541 311.39 182.251 311.09 182.039C310.796 181.826 310.43 181.72 309.99 181.72C309.418 181.72 308.956 181.918 308.604 182.314C308.252 182.702 308.076 183.256 308.076 183.975C308.076 184.701 308.252 185.262 308.604 185.658C308.956 186.054 309.418 186.252 309.99 186.252C310.43 186.252 310.796 186.149 311.09 185.944C311.383 185.738 311.585 185.445 311.695 185.064H312.773C312.611 185.68 312.289 186.175 311.805 186.549C311.321 186.915 310.716 187.099 309.99 187.099C309.418 187.099 308.908 186.97 308.461 186.714C308.021 186.457 307.676 186.094 307.427 185.625C307.177 185.155 307.053 184.605 307.053 183.975ZM316.77 187.099C316.206 187.099 315.692 186.97 315.23 186.714C314.776 186.457 314.416 186.094 314.152 185.625C313.896 185.148 313.767 184.598 313.767 183.975C313.767 183.359 313.899 182.816 314.163 182.347C314.435 181.87 314.801 181.507 315.263 181.258C315.725 181.001 316.242 180.873 316.814 180.873C317.386 180.873 317.903 181.001 318.365 181.258C318.827 181.507 319.19 181.866 319.454 182.336C319.726 182.805 319.861 183.351 319.861 183.975C319.861 184.598 319.722 185.148 319.443 185.625C319.172 186.094 318.802 186.457 318.332 186.714C317.863 186.97 317.342 187.099 316.77 187.099ZM316.77 186.219C317.13 186.219 317.467 186.134 317.782 185.966C318.098 185.797 318.351 185.544 318.541 185.207C318.739 184.869 318.838 184.459 318.838 183.975C318.838 183.491 318.743 183.08 318.552 182.743C318.362 182.405 318.112 182.156 317.804 181.995C317.496 181.826 317.163 181.742 316.803 181.742C316.437 181.742 316.099 181.826 315.791 181.995C315.491 182.156 315.249 182.405 315.065 182.743C314.882 183.08 314.79 183.491 314.79 183.975C314.79 184.466 314.878 184.88 315.054 185.218C315.238 185.555 315.48 185.808 315.78 185.977C316.081 186.138 316.411 186.219 316.77 186.219ZM328.459 180.862C328.929 180.862 329.347 180.961 329.713 181.159C330.08 181.349 330.37 181.639 330.582 182.028C330.795 182.416 330.901 182.889 330.901 183.447V187H329.911V183.59C329.911 182.988 329.761 182.53 329.46 182.215C329.167 181.892 328.767 181.731 328.261 181.731C327.741 181.731 327.326 181.899 327.018 182.237C326.71 182.567 326.556 183.047 326.556 183.678V187H325.566V183.59C325.566 182.988 325.416 182.53 325.115 182.215C324.822 181.892 324.422 181.731 323.916 181.731C323.396 181.731 322.981 181.899 322.673 182.237C322.365 182.567 322.211 183.047 322.211 183.678V187H321.21V180.972H322.211V181.841C322.409 181.525 322.673 181.283 323.003 181.115C323.341 180.946 323.711 180.862 324.114 180.862C324.62 180.862 325.068 180.975 325.456 181.203C325.845 181.43 326.135 181.764 326.325 182.204C326.494 181.778 326.773 181.448 327.161 181.214C327.55 180.979 327.983 180.862 328.459 180.862ZM339.825 180.862C340.295 180.862 340.713 180.961 341.079 181.159C341.446 181.349 341.736 181.639 341.948 182.028C342.161 182.416 342.267 182.889 342.267 183.447V187H341.277V183.59C341.277 182.988 341.127 182.53 340.826 182.215C340.533 181.892 340.133 181.731 339.627 181.731C339.107 181.731 338.692 181.899 338.384 182.237C338.076 182.567 337.922 183.047 337.922 183.678V187H336.932V183.59C336.932 182.988 336.782 182.53 336.481 182.215C336.188 181.892 335.788 181.731 335.282 181.731C334.762 181.731 334.347 181.899 334.039 182.237C333.731 182.567 333.577 183.047 333.577 183.678V187H332.576V180.972H333.577V181.841C333.775 181.525 334.039 181.283 334.369 181.115C334.707 180.946 335.077 180.862 335.48 180.862C335.986 180.862 336.434 180.975 336.822 181.203C337.211 181.43 337.501 181.764 337.691 182.204C337.86 181.778 338.139 181.448 338.527 181.214C338.916 180.979 339.349 180.862 339.825 180.862ZM349.442 183.755C349.442 183.945 349.431 184.147 349.409 184.36H344.591C344.628 184.954 344.83 185.419 345.196 185.757C345.57 186.087 346.021 186.252 346.549 186.252C346.982 186.252 347.341 186.153 347.627 185.955C347.921 185.749 348.126 185.478 348.243 185.141H349.321C349.16 185.72 348.837 186.193 348.353 186.56C347.869 186.919 347.268 187.099 346.549 187.099C345.977 187.099 345.464 186.97 345.009 186.714C344.562 186.457 344.21 186.094 343.953 185.625C343.697 185.148 343.568 184.598 343.568 183.975C343.568 183.351 343.693 182.805 343.942 182.336C344.192 181.866 344.54 181.507 344.987 181.258C345.442 181.001 345.963 180.873 346.549 180.873C347.121 180.873 347.627 180.997 348.067 181.247C348.507 181.496 348.845 181.841 349.079 182.281C349.321 182.713 349.442 183.205 349.442 183.755ZM348.408 183.546C348.408 183.164 348.324 182.838 348.155 182.567C347.987 182.288 347.756 182.079 347.462 181.94C347.176 181.793 346.857 181.72 346.505 181.72C345.999 181.72 345.567 181.881 345.207 182.204C344.855 182.526 344.654 182.974 344.602 183.546H348.408ZM353.734 180.862C354.467 180.862 355.061 181.085 355.516 181.533C355.97 181.973 356.198 182.611 356.198 183.447V187H355.208V183.59C355.208 182.988 355.057 182.53 354.757 182.215C354.456 181.892 354.045 181.731 353.525 181.731C352.997 181.731 352.575 181.896 352.26 182.226C351.952 182.556 351.798 183.036 351.798 183.667V187H350.797V180.972H351.798V181.83C351.996 181.522 352.263 181.283 352.601 181.115C352.945 180.946 353.323 180.862 353.734 180.862ZM357.492 183.964C357.492 183.348 357.617 182.809 357.866 182.347C358.115 181.877 358.456 181.514 358.889 181.258C359.329 181.001 359.82 180.873 360.363 180.873C360.832 180.873 361.269 180.983 361.672 181.203C362.075 181.415 362.383 181.698 362.596 182.05V178.86H363.608V187H362.596V185.867C362.398 186.226 362.105 186.523 361.716 186.758C361.327 186.985 360.873 187.099 360.352 187.099C359.817 187.099 359.329 186.967 358.889 186.703C358.456 186.439 358.115 186.068 357.866 185.592C357.617 185.115 357.492 184.572 357.492 183.964ZM362.596 183.975C362.596 183.52 362.504 183.124 362.321 182.787C362.138 182.449 361.888 182.193 361.573 182.017C361.265 181.833 360.924 181.742 360.55 181.742C360.176 181.742 359.835 181.83 359.527 182.006C359.219 182.182 358.973 182.438 358.79 182.776C358.607 183.113 358.515 183.509 358.515 183.964C358.515 184.426 358.607 184.829 358.79 185.174C358.973 185.511 359.219 185.771 359.527 185.955C359.835 186.131 360.176 186.219 360.55 186.219C360.924 186.219 361.265 186.131 361.573 185.955C361.888 185.771 362.138 185.511 362.321 185.174C362.504 184.829 362.596 184.429 362.596 183.975ZM364.958 183.964C364.958 183.348 365.083 182.809 365.332 182.347C365.582 181.877 365.923 181.514 366.355 181.258C366.795 181.001 367.283 180.873 367.818 180.873C368.346 180.873 368.805 180.986 369.193 181.214C369.582 181.441 369.872 181.727 370.062 182.072V180.972H371.074V187H370.062V185.878C369.864 186.23 369.567 186.523 369.171 186.758C368.783 186.985 368.328 187.099 367.807 187.099C367.272 187.099 366.788 186.967 366.355 186.703C365.923 186.439 365.582 186.068 365.332 185.592C365.083 185.115 364.958 184.572 364.958 183.964ZM370.062 183.975C370.062 183.52 369.971 183.124 369.787 182.787C369.604 182.449 369.355 182.193 369.039 182.017C368.731 181.833 368.39 181.742 368.016 181.742C367.642 181.742 367.301 181.83 366.993 182.006C366.685 182.182 366.44 182.438 366.256 182.776C366.073 183.113 365.981 183.509 365.981 183.964C365.981 184.426 366.073 184.829 366.256 185.174C366.44 185.511 366.685 185.771 366.993 185.955C367.301 186.131 367.642 186.219 368.016 186.219C368.39 186.219 368.731 186.131 369.039 185.955C369.355 185.771 369.604 185.511 369.787 185.174C369.971 184.829 370.062 184.429 370.062 183.975ZM374.02 181.797V185.35C374.02 185.643 374.082 185.852 374.207 185.977C374.332 186.094 374.548 186.153 374.856 186.153H375.593V187H374.691C374.134 187 373.716 186.871 373.437 186.615C373.158 186.358 373.019 185.936 373.019 185.35V181.797H372.238V180.972H373.019V179.454H374.02V180.972H375.593V181.797H374.02ZM377.356 179.993C377.165 179.993 377.004 179.927 376.872 179.795C376.74 179.663 376.674 179.501 376.674 179.311C376.674 179.12 376.74 178.959 376.872 178.827C377.004 178.695 377.165 178.629 377.356 178.629C377.539 178.629 377.693 178.695 377.818 178.827C377.95 178.959 378.016 179.12 378.016 179.311C378.016 179.501 377.95 179.663 377.818 179.795C377.693 179.927 377.539 179.993 377.356 179.993ZM377.84 180.972V187H376.839V180.972H377.84ZM382.208 187.099C381.643 187.099 381.13 186.97 380.668 186.714C380.213 186.457 379.854 186.094 379.59 185.625C379.333 185.148 379.205 184.598 379.205 183.975C379.205 183.359 379.337 182.816 379.601 182.347C379.872 181.87 380.239 181.507 380.701 181.258C381.163 181.001 381.68 180.873 382.252 180.873C382.824 180.873 383.341 181.001 383.803 181.258C384.265 181.507 384.628 181.866 384.892 182.336C385.163 182.805 385.299 183.351 385.299 183.975C385.299 184.598 385.16 185.148 384.881 185.625C384.61 186.094 384.239 186.457 383.77 186.714C383.301 186.97 382.78 187.099 382.208 187.099ZM382.208 186.219C382.567 186.219 382.905 186.134 383.22 185.966C383.535 185.797 383.788 185.544 383.979 185.207C384.177 184.869 384.276 184.459 384.276 183.975C384.276 183.491 384.181 183.08 383.99 182.743C383.799 182.405 383.55 182.156 383.242 181.995C382.934 181.826 382.6 181.742 382.241 181.742C381.874 181.742 381.537 181.826 381.229 181.995C380.928 182.156 380.686 182.405 380.503 182.743C380.32 183.08 380.228 183.491 380.228 183.975C380.228 184.466 380.316 184.88 380.492 185.218C380.675 185.555 380.917 185.808 381.218 185.977C381.519 186.138 381.849 186.219 382.208 186.219ZM389.585 180.862C390.318 180.862 390.912 181.085 391.367 181.533C391.822 181.973 392.049 182.611 392.049 183.447V187H391.059V183.59C391.059 182.988 390.909 182.53 390.608 182.215C390.307 181.892 389.897 181.731 389.376 181.731C388.848 181.731 388.426 181.896 388.111 182.226C387.803 182.556 387.649 183.036 387.649 183.667V187H386.648V180.972H387.649V181.83C387.847 181.522 388.115 181.283 388.452 181.115C388.797 180.946 389.174 180.862 389.585 180.862ZM299.347 195.755C299.347 195.945 299.336 196.147 299.314 196.36H294.496C294.533 196.954 294.734 197.419 295.101 197.757C295.475 198.087 295.926 198.252 296.454 198.252C296.887 198.252 297.246 198.153 297.532 197.955C297.825 197.749 298.031 197.478 298.148 197.141H299.226C299.065 197.72 298.742 198.193 298.258 198.56C297.774 198.919 297.173 199.099 296.454 199.099C295.882 199.099 295.369 198.97 294.914 198.714C294.467 198.457 294.115 198.094 293.858 197.625C293.601 197.148 293.473 196.598 293.473 195.975C293.473 195.351 293.598 194.805 293.847 194.336C294.096 193.866 294.445 193.507 294.892 193.258C295.347 193.001 295.867 192.873 296.454 192.873C297.026 192.873 297.532 192.997 297.972 193.247C298.412 193.496 298.749 193.841 298.984 194.281C299.226 194.713 299.347 195.205 299.347 195.755ZM298.313 195.546C298.313 195.164 298.229 194.838 298.06 194.567C297.891 194.288 297.66 194.079 297.367 193.94C297.081 193.793 296.762 193.72 296.41 193.72C295.904 193.72 295.471 193.881 295.112 194.204C294.76 194.526 294.558 194.974 294.507 195.546H298.313ZM303.638 192.862C304.372 192.862 304.966 193.085 305.42 193.533C305.875 193.973 306.102 194.611 306.102 195.447V199H305.112V195.59C305.112 194.988 304.962 194.53 304.661 194.215C304.361 193.892 303.95 193.731 303.429 193.731C302.901 193.731 302.48 193.896 302.164 194.226C301.856 194.556 301.702 195.036 301.702 195.667V199H300.701V192.972H301.702V193.83C301.9 193.522 302.168 193.283 302.505 193.115C302.85 192.946 303.228 192.862 303.638 192.862ZM310.256 192.873C310.777 192.873 311.232 192.986 311.62 193.214C312.016 193.441 312.31 193.727 312.5 194.072V192.972H313.512V199.132C313.512 199.682 313.395 200.169 313.16 200.595C312.926 201.027 312.588 201.365 312.148 201.607C311.716 201.849 311.21 201.97 310.63 201.97C309.838 201.97 309.178 201.783 308.65 201.409C308.122 201.035 307.811 200.525 307.715 199.88H308.705C308.815 200.246 309.043 200.54 309.387 200.76C309.732 200.987 310.146 201.101 310.63 201.101C311.18 201.101 311.628 200.928 311.972 200.584C312.324 200.239 312.5 199.755 312.5 199.132V197.867C312.302 198.219 312.009 198.512 311.62 198.747C311.232 198.981 310.777 199.099 310.256 199.099C309.721 199.099 309.233 198.967 308.793 198.703C308.361 198.439 308.02 198.068 307.77 197.592C307.521 197.115 307.396 196.572 307.396 195.964C307.396 195.348 307.521 194.809 307.77 194.347C308.02 193.877 308.361 193.514 308.793 193.258C309.233 193.001 309.721 192.873 310.256 192.873ZM312.5 195.975C312.5 195.52 312.409 195.124 312.225 194.787C312.042 194.449 311.793 194.193 311.477 194.017C311.169 193.833 310.828 193.742 310.454 193.742C310.08 193.742 309.739 193.83 309.431 194.006C309.123 194.182 308.878 194.438 308.694 194.776C308.511 195.113 308.419 195.509 308.419 195.964C308.419 196.426 308.511 196.829 308.694 197.174C308.878 197.511 309.123 197.771 309.431 197.955C309.739 198.131 310.08 198.219 310.454 198.219C310.828 198.219 311.169 198.131 311.477 197.955C311.793 197.771 312.042 197.511 312.225 197.174C312.409 196.829 312.5 196.429 312.5 195.975ZM315.754 191.993C315.563 191.993 315.402 191.927 315.27 191.795C315.138 191.663 315.072 191.501 315.072 191.311C315.072 191.12 315.138 190.959 315.27 190.827C315.402 190.695 315.563 190.629 315.754 190.629C315.937 190.629 316.091 190.695 316.216 190.827C316.348 190.959 316.414 191.12 316.414 191.311C316.414 191.501 316.348 191.663 316.216 191.795C316.091 191.927 315.937 191.993 315.754 191.993ZM316.238 192.972V199H315.237V192.972H316.238ZM320.914 192.862C321.647 192.862 322.241 193.085 322.696 193.533C323.151 193.973 323.378 194.611 323.378 195.447V199H322.388V195.59C322.388 194.988 322.238 194.53 321.937 194.215C321.636 193.892 321.226 193.731 320.705 193.731C320.177 193.731 319.755 193.896 319.44 194.226C319.132 194.556 318.978 195.036 318.978 195.667V199H317.977V192.972H318.978V193.83C319.176 193.522 319.444 193.283 319.781 193.115C320.126 192.946 320.503 192.862 320.914 192.862ZM330.546 195.755C330.546 195.945 330.535 196.147 330.513 196.36H325.695C325.732 196.954 325.934 197.419 326.3 197.757C326.674 198.087 327.125 198.252 327.653 198.252C328.086 198.252 328.445 198.153 328.731 197.955C329.025 197.749 329.23 197.478 329.347 197.141H330.425C330.264 197.72 329.941 198.193 329.457 198.56C328.973 198.919 328.372 199.099 327.653 199.099C327.081 199.099 326.568 198.97 326.113 198.714C325.666 198.457 325.314 198.094 325.057 197.625C324.801 197.148 324.672 196.598 324.672 195.975C324.672 195.351 324.797 194.805 325.046 194.336C325.296 193.866 325.644 193.507 326.091 193.258C326.546 193.001 327.067 192.873 327.653 192.873C328.225 192.873 328.731 192.997 329.171 193.247C329.611 193.496 329.949 193.841 330.183 194.281C330.425 194.713 330.546 195.205 330.546 195.755ZM329.512 195.546C329.512 195.164 329.428 194.838 329.259 194.567C329.091 194.288 328.86 194.079 328.566 193.94C328.28 193.793 327.961 193.72 327.609 193.72C327.103 193.72 326.671 193.881 326.311 194.204C325.959 194.526 325.758 194.974 325.706 195.546H329.512Z" fill="#666666"/>
<defs>
<filter id="filter0_bd_8909_3038" x="179.985" y="-6.01418" width="140.03" height="140.028" filterUnits="userSpaceOnUse" color-interpolation-filters="sRGB">
<feFlood flood-opacity="0" result="BackgroundImageFix"/>
<feGaussianBlur in="BackgroundImageFix" stdDeviation="18.0779"/>
<feComposite in2="SourceAlpha" operator="in" result="effect1_backgroundBlur_8909_3038"/>
<feColorMatrix in="SourceAlpha" type="matrix" values="0 0 0 0 0 0 0 0 0 0 0 0 0 0 0 0 0 0 127 0" result="hardAlpha"/>
<feOffset dy="5.49202"/>
<feGaussianBlur stdDeviation="4.34785"/>
<feComposite in2="hardAlpha" operator="out"/>
<feColorMatrix type="matrix" values="0 0 0 0 0.0867708 0 0 0 0 0.115317 0 0 0 0 0.141667 0 0 0 0.08 0"/>
<feBlend mode="normal" in2="effect1_backgroundBlur_8909_3038" result="effect2_dropShadow_8909_3038"/>
<feBlend mode="normal" in="SourceGraphic" in2="effect2_dropShadow_8909_3038" result="shape"/>
</filter>
<filter id="filter1_bd_8909_3038" x="53.9848" y="118.986" width="140.03" height="140.028" filterUnits="userSpaceOnUse" color-interpolation-filters="sRGB">
<feFlood flood-opacity="0" result="BackgroundImageFix"/>
<feGaussianBlur in="BackgroundImageFix" stdDeviation="18.0779"/>
<feComposite in2="SourceAlpha" operator="in" result="effect1_backgroundBlur_8909_3038"/>
<feColorMatrix in="SourceAlpha" type="matrix" values="0 0 0 0 0 0 0 0 0 0 0 0 0 0 0 0 0 0 127 0" result="hardAlpha"/>
<feOffset dy="5.49202"/>
<feGaussianBlur stdDeviation="4.34785"/>
<feComposite in2="hardAlpha" operator="out"/>
<feColorMatrix type="matrix" values="0 0 0 0 0.0867708 0 0 0 0 0.115317 0 0 0 0 0.141667 0 0 0 0.08 0"/>
<feBlend mode="normal" in2="effect1_backgroundBlur_8909_3038" result="effect2_dropShadow_8909_3038"/>
<feBlend mode="normal" in="SourceGraphic" in2="effect2_dropShadow_8909_3038" result="shape"/>
</filter>
<filter id="filter2_bd_8909_3038" x="53.9848" y="-6.01418" width="140.03" height="140.028" filterUnits="userSpaceOnUse" color-interpolation-filters="sRGB">
<feFlood flood-opacity="0" result="BackgroundImageFix"/>
<feGaussianBlur in="BackgroundImageFix" stdDeviation="18.0779"/>
<feComposite in2="SourceAlpha" operator="in" result="effect1_backgroundBlur_8909_3038"/>
<feColorMatrix in="SourceAlpha" type="matrix" values="0 0 0 0 0 0 0 0 0 0 0 0 0 0 0 0 0 0 127 0" result="hardAlpha"/>
<feOffset dy="5.49202"/>
<feGaussianBlur stdDeviation="4.34785"/>
<feComposite in2="hardAlpha" operator="out"/>
<feColorMatrix type="matrix" values="0 0 0 0 0.0867708 0 0 0 0 0.115317 0 0 0 0 0.141667 0 0 0 0.08 0"/>
<feBlend mode="normal" in2="effect1_backgroundBlur_8909_3038" result="effect2_dropShadow_8909_3038"/>
<feBlend mode="normal" in="SourceGraphic" in2="effect2_dropShadow_8909_3038" result="shape"/>
</filter>
<filter id="filter3_bd_8909_3038" x="179.985" y="118.986" width="140.03" height="140.028" filterUnits="userSpaceOnUse" color-interpolation-filters="sRGB">
<feFlood flood-opacity="0" result="BackgroundImageFix"/>
<feGaussianBlur in="BackgroundImageFix" stdDeviation="18.0779"/>
<feComposite in2="SourceAlpha" operator="in" result="effect1_backgroundBlur_8909_3038"/>
<feColorMatrix in="SourceAlpha" type="matrix" values="0 0 0 0 0 0 0 0 0 0 0 0 0 0 0 0 0 0 127 0" result="hardAlpha"/>
<feOffset dy="5.49202"/>
<feGaussianBlur stdDeviation="4.34785"/>
<feComposite in2="hardAlpha" operator="out"/>
<feColorMatrix type="matrix" values="0 0 0 0 0.0867708 0 0 0 0 0.115317 0 0 0 0 0.141667 0 0 0 0.08 0"/>
<feBlend mode="normal" in2="effect1_backgroundBlur_8909_3038" result="effect2_dropShadow_8909_3038"/>
<feBlend mode="normal" in="SourceGraphic" in2="effect2_dropShadow_8909_3038" result="shape"/>
</filter>
<clipPath id="clip0_8909_3038">
<rect width="36" height="36" fill="white" transform="translate(232 171)"/>
</clipPath>
</defs>
</svg>
