<svg width="247" height="251" viewBox="0 0 247 251" fill="none" xmlns="http://www.w3.org/2000/svg">
<rect x="1.40778" y="184.858" width="243.852" height="65.7339" rx="9.37891" fill="white"/>
<rect x="1.40778" y="184.858" width="243.852" height="65.7339" rx="9.37891" stroke="#E5E7EB" stroke-width="0.815557"/>
<g clip-path="url(#clip0_8372_21626)">
<rect x="14.6992" y="198.15" width="39.1467" height="39.1467" rx="4.89334" fill="#034737"/>
<path d="M32.234 223.834H29.5155C29.155 223.834 28.8093 223.69 28.5544 223.435C28.2995 223.181 28.1562 222.835 28.1562 222.474V212.959C28.1562 212.599 28.2995 212.253 28.5544 211.998C28.8093 211.743 29.155 211.6 29.5155 211.6H32.234" stroke="white" stroke-width="1.35926" stroke-linecap="round" stroke-linejoin="round"/>
<path d="M36.9922 221.107L40.3903 217.709L36.9922 214.311" stroke="white" stroke-width="1.35926" stroke-linecap="round" stroke-linejoin="round"/>
<path d="M40.386 217.71H32.2305" stroke="white" stroke-width="1.35926" stroke-linecap="round" stroke-linejoin="round"/>
<g clip-path="url(#clip1_8372_21626)">
<path d="M72.0097 212.406C71.1659 212.406 70.3873 212.21 69.6739 211.818C68.9693 211.418 68.4082 210.866 67.9906 210.161C67.5818 209.448 67.3773 208.648 67.3773 207.76C67.3773 206.873 67.5818 206.077 67.9906 205.372C68.4082 204.668 68.9693 204.12 69.6739 203.728C70.3873 203.328 71.1659 203.128 72.0097 203.128C72.8622 203.128 73.6408 203.328 74.3455 203.728C75.0588 204.12 75.6199 204.668 76.0288 205.372C76.4376 206.077 76.6421 206.873 76.6421 207.76C76.6421 208.648 76.4376 209.448 76.0288 210.161C75.6199 210.866 75.0588 211.418 74.3455 211.818C73.6408 212.21 72.8622 212.406 72.0097 212.406ZM72.0097 211.114C72.61 211.114 73.145 210.979 73.6147 210.709C74.0845 210.431 74.4499 210.039 74.7108 209.535C74.9805 209.022 75.1153 208.43 75.1153 207.76C75.1153 207.09 74.9805 206.503 74.7108 205.999C74.4499 205.494 74.0845 205.107 73.6147 204.837C73.145 204.568 72.61 204.433 72.0097 204.433C71.4095 204.433 70.8744 204.568 70.4047 204.837C69.9349 205.107 69.5652 205.494 69.2955 205.999C69.0346 206.503 68.9041 207.09 68.9041 207.76C68.9041 208.43 69.0346 209.022 69.2955 209.535C69.5652 210.039 69.9349 210.431 70.4047 210.709C70.8744 210.979 71.4095 211.114 72.0097 211.114ZM84.6173 205.124V212.314H83.1297V211.466C82.8948 211.762 82.586 211.997 82.2032 212.171C81.8292 212.336 81.429 212.419 81.0027 212.419C80.4373 212.419 79.9284 212.301 79.476 212.066C79.0324 211.832 78.68 211.484 78.4191 211.022C78.1668 210.561 78.0406 210.005 78.0406 209.352V205.124H79.5152V209.13C79.5152 209.774 79.6761 210.27 79.998 210.618C80.3199 210.957 80.7592 211.127 81.3159 211.127C81.8727 211.127 82.312 210.957 82.6339 210.618C82.9644 210.27 83.1297 209.774 83.1297 209.13V205.124H84.6173ZM88.3155 206.338V210.318C88.3155 210.588 88.3764 210.783 88.4982 210.905C88.6287 211.018 88.8462 211.075 89.1507 211.075H90.0641V212.314H88.8897C88.2198 212.314 87.7066 212.158 87.3499 211.845C86.9933 211.531 86.8149 211.022 86.8149 210.318V206.338H85.9667V205.124H86.8149V203.337H88.3155V205.124H90.0641V206.338H88.3155ZM92.9227 206.181C93.175 205.851 93.5186 205.572 93.9536 205.346C94.3886 205.12 94.8801 205.007 95.4281 205.007C96.0545 205.007 96.6243 205.164 97.1375 205.477C97.6595 205.781 98.0683 206.212 98.3641 206.769C98.6599 207.325 98.8078 207.965 98.8078 208.687C98.8078 209.409 98.6599 210.057 98.3641 210.631C98.0683 211.196 97.6595 211.64 97.1375 211.962C96.6243 212.275 96.0545 212.432 95.4281 212.432C94.8801 212.432 94.3929 212.323 93.9666 212.106C93.5404 211.879 93.1924 211.601 92.9227 211.27V215.733H91.4351V205.124H92.9227V206.181ZM97.2941 208.687C97.2941 208.191 97.1897 207.765 96.9809 207.408C96.7809 207.043 96.5112 206.769 96.1719 206.586C95.8413 206.394 95.4847 206.299 95.1019 206.299C94.7278 206.299 94.3712 206.394 94.0319 206.586C93.7013 206.777 93.4316 207.056 93.2228 207.421C93.0228 207.786 92.9227 208.217 92.9227 208.713C92.9227 209.209 93.0228 209.644 93.2228 210.018C93.4316 210.383 93.7013 210.661 94.0319 210.853C94.3712 211.044 94.7278 211.14 95.1019 211.14C95.4847 211.14 95.8413 211.044 96.1719 210.853C96.5112 210.653 96.7809 210.366 96.9809 209.992C97.1897 209.618 97.2941 209.183 97.2941 208.687ZM106.79 205.124V212.314H105.303V211.466C105.068 211.762 104.759 211.997 104.376 212.171C104.002 212.336 103.602 212.419 103.176 212.419C102.61 212.419 102.101 212.301 101.649 212.066C101.205 211.832 100.853 211.484 100.592 211.022C100.34 210.561 100.214 210.005 100.214 209.352V205.124H101.688V209.13C101.688 209.774 101.849 210.27 102.171 210.618C102.493 210.957 102.932 211.127 103.489 211.127C104.046 211.127 104.485 210.957 104.807 210.618C105.137 210.27 105.303 209.774 105.303 209.13V205.124H106.79ZM110.488 206.338V210.318C110.488 210.588 110.549 210.783 110.671 210.905C110.802 211.018 111.019 211.075 111.324 211.075H112.237V212.314H111.063C110.393 212.314 109.88 212.158 109.523 211.845C109.166 211.531 108.988 211.022 108.988 210.318V206.338H108.14V205.124H108.988V203.337H110.488V205.124H112.237V206.338H110.488Z" fill="#14171B"/>
</g>
<path opacity="0.5" d="M67.3154 228.222C67.3154 227.557 67.4654 226.96 67.7655 226.431C68.0657 225.896 68.4734 225.479 68.9889 225.178C69.5108 224.878 70.0883 224.728 70.7211 224.728C71.4649 224.728 72.1141 224.908 72.6687 225.267C73.2233 225.625 73.6278 226.134 73.8822 226.793H72.8155C72.6263 226.382 72.3522 226.066 71.9934 225.844C71.6411 225.622 71.217 225.511 70.7211 225.511C70.2448 225.511 69.8175 225.622 69.4391 225.844C69.0607 226.066 68.7638 226.382 68.5485 226.793C68.3332 227.198 68.2255 227.674 68.2255 228.222C68.2255 228.764 68.3332 229.24 68.5485 229.651C68.7638 230.056 69.0607 230.369 69.4391 230.591C69.8175 230.812 70.2448 230.923 70.7211 230.923C71.217 230.923 71.6411 230.816 71.9934 230.6C72.3522 230.378 72.6263 230.062 72.8155 229.651H73.8822C73.6278 230.303 73.2233 230.809 72.6687 231.168C72.1141 231.52 71.4649 231.696 70.7211 231.696C70.0883 231.696 69.5108 231.55 68.9889 231.256C68.4734 230.956 68.0657 230.542 67.7655 230.013C67.4654 229.485 67.3154 228.888 67.3154 228.222ZM76.0985 224.396V231.638H75.2079V224.396H76.0985ZM78.0764 225.404C77.9067 225.404 77.7632 225.345 77.6457 225.227C77.5283 225.11 77.4696 224.966 77.4696 224.797C77.4696 224.627 77.5283 224.484 77.6457 224.366C77.7632 224.249 77.9067 224.19 78.0764 224.19C78.2395 224.19 78.3765 224.249 78.4874 224.366C78.6048 224.484 78.6636 224.627 78.6636 224.797C78.6636 224.966 78.6048 225.11 78.4874 225.227C78.3765 225.345 78.2395 225.404 78.0764 225.404ZM78.507 226.275V231.638H77.6164V226.275H78.507ZM79.6921 228.946C79.6921 228.392 79.803 227.909 80.0248 227.498C80.2467 227.08 80.5533 226.757 80.9448 226.529C81.3428 226.301 81.7962 226.187 82.3051 226.187C82.9641 226.187 83.5056 226.346 83.9297 226.666C84.3603 226.986 84.6441 227.429 84.7811 227.997H83.8221C83.7307 227.671 83.5513 227.413 83.2838 227.224C83.0228 227.035 82.6966 226.94 82.3051 226.94C81.7962 226.94 81.3852 227.116 81.072 227.469C80.7588 227.814 80.6022 228.307 80.6022 228.946C80.6022 229.592 80.7588 230.091 81.072 230.444C81.3852 230.796 81.7962 230.972 82.3051 230.972C82.6966 230.972 83.0228 230.881 83.2838 230.698C83.5448 230.515 83.7242 230.255 83.8221 229.915H84.7811C84.6376 230.463 84.3505 230.904 83.9199 231.236C83.4893 231.563 82.951 231.726 82.3051 231.726C81.7962 231.726 81.3428 231.612 80.9448 231.383C80.5533 231.155 80.2467 230.832 80.0248 230.414C79.803 229.997 79.6921 229.507 79.6921 228.946ZM88.9642 231.638L86.8601 229.269V231.638H85.9695V224.396H86.8601V228.653L88.925 226.275H90.168L87.643 228.946L90.1777 231.638H88.9642ZM94.7016 227.009V230.17C94.7016 230.431 94.7571 230.617 94.868 230.728C94.9789 230.832 95.1714 230.884 95.4454 230.884H96.1011V231.638H95.2986C94.8028 231.638 94.4309 231.524 94.1829 231.295C93.935 231.067 93.811 230.692 93.811 230.17V227.009H93.1162V226.275H93.811V224.924H94.7016V226.275H96.1011V227.009H94.7016ZM99.5192 231.726C99.0168 231.726 98.5601 231.612 98.1491 231.383C97.7446 231.155 97.4249 230.832 97.19 230.414C96.9616 229.99 96.8474 229.501 96.8474 228.946C96.8474 228.398 96.9649 227.915 97.1998 227.498C97.4412 227.074 97.7674 226.751 98.1784 226.529C98.5895 226.301 99.0494 226.187 99.5584 226.187C100.067 226.187 100.527 226.301 100.938 226.529C101.349 226.751 101.672 227.071 101.907 227.488C102.149 227.906 102.269 228.392 102.269 228.946C102.269 229.501 102.145 229.99 101.897 230.414C101.656 230.832 101.326 231.155 100.909 231.383C100.491 231.612 100.028 231.726 99.5192 231.726ZM99.5192 230.943C99.8389 230.943 100.139 230.868 100.42 230.718C100.7 230.568 100.925 230.343 101.095 230.042C101.271 229.742 101.359 229.377 101.359 228.946C101.359 228.516 101.274 228.15 101.105 227.85C100.935 227.55 100.713 227.328 100.439 227.185C100.165 227.035 99.8683 226.96 99.5486 226.96C99.2223 226.96 98.9222 227.035 98.6482 227.185C98.3807 227.328 98.1654 227.55 98.0023 227.85C97.8392 228.15 97.7576 228.516 97.7576 228.946C97.7576 229.383 97.8359 229.752 97.9925 230.052C98.1556 230.352 98.3709 230.577 98.6384 230.728C98.9059 230.871 99.1995 230.943 99.5192 230.943ZM105.717 228.937C105.717 228.389 105.828 227.909 106.049 227.498C106.271 227.08 106.575 226.757 106.96 226.529C107.351 226.301 107.785 226.187 108.261 226.187C108.731 226.187 109.139 226.288 109.484 226.49C109.83 226.692 110.088 226.947 110.258 227.253V226.275H111.158V231.638H110.258V230.639C110.081 230.953 109.817 231.214 109.465 231.422C109.119 231.625 108.715 231.726 108.251 231.726C107.775 231.726 107.344 231.608 106.96 231.373C106.575 231.139 106.271 230.809 106.049 230.385C105.828 229.961 105.717 229.478 105.717 228.937ZM110.258 228.946C110.258 228.542 110.176 228.19 110.013 227.889C109.85 227.589 109.628 227.361 109.347 227.204C109.073 227.041 108.77 226.96 108.437 226.96C108.105 226.96 107.801 227.038 107.527 227.195C107.253 227.351 107.035 227.579 106.871 227.88C106.708 228.18 106.627 228.532 106.627 228.937C106.627 229.348 106.708 229.706 106.871 230.013C107.035 230.313 107.253 230.545 107.527 230.708C107.801 230.865 108.105 230.943 108.437 230.943C108.77 230.943 109.073 230.865 109.347 230.708C109.628 230.545 109.85 230.313 110.013 230.013C110.176 229.706 110.258 229.351 110.258 228.946ZM112.33 228.937C112.33 228.389 112.441 227.909 112.663 227.498C112.885 227.08 113.188 226.757 113.573 226.529C113.965 226.301 114.402 226.187 114.885 226.187C115.302 226.187 115.69 226.284 116.049 226.48C116.408 226.669 116.682 226.921 116.871 227.234V224.396H117.772V231.638H116.871V230.63C116.695 230.949 116.434 231.214 116.088 231.422C115.743 231.625 115.338 231.726 114.875 231.726C114.399 231.726 113.965 231.608 113.573 231.373C113.188 231.139 112.885 230.809 112.663 230.385C112.441 229.961 112.33 229.478 112.33 228.937ZM116.871 228.946C116.871 228.542 116.79 228.19 116.627 227.889C116.464 227.589 116.242 227.361 115.961 227.204C115.687 227.041 115.384 226.96 115.051 226.96C114.718 226.96 114.415 227.038 114.141 227.195C113.867 227.351 113.648 227.579 113.485 227.88C113.322 228.18 113.24 228.532 113.24 228.937C113.24 229.348 113.322 229.706 113.485 230.013C113.648 230.313 113.867 230.545 114.141 230.708C114.415 230.865 114.718 230.943 115.051 230.943C115.384 230.943 115.687 230.865 115.961 230.708C116.242 230.545 116.464 230.313 116.627 230.013C116.79 229.706 116.871 229.351 116.871 228.946ZM118.944 228.937C118.944 228.389 119.055 227.909 119.277 227.498C119.499 227.08 119.802 226.757 120.187 226.529C120.578 226.301 121.015 226.187 121.498 226.187C121.916 226.187 122.304 226.284 122.663 226.48C123.022 226.669 123.296 226.921 123.485 227.234V224.396H124.385V231.638H123.485V230.63C123.309 230.949 123.048 231.214 122.702 231.422C122.356 231.625 121.952 231.726 121.488 231.726C121.012 231.726 120.578 231.608 120.187 231.373C119.802 231.139 119.499 230.809 119.277 230.385C119.055 229.961 118.944 229.478 118.944 228.937ZM123.485 228.946C123.485 228.542 123.403 228.19 123.24 227.889C123.077 227.589 122.855 227.361 122.575 227.204C122.301 227.041 121.997 226.96 121.665 226.96C121.332 226.96 121.029 227.038 120.754 227.195C120.48 227.351 120.262 227.579 120.099 227.88C119.936 228.18 119.854 228.532 119.854 228.937C119.854 229.348 119.936 229.706 120.099 230.013C120.262 230.313 120.48 230.545 120.754 230.708C121.029 230.865 121.332 230.943 121.665 230.943C121.997 230.943 122.301 230.865 122.575 230.708C122.855 230.545 123.077 230.313 123.24 230.013C123.403 229.706 123.485 229.351 123.485 228.946ZM130.839 231.726C130.336 231.726 129.879 231.612 129.468 231.383C129.064 231.155 128.744 230.832 128.509 230.414C128.281 229.99 128.167 229.501 128.167 228.946C128.167 228.398 128.284 227.915 128.519 227.498C128.76 227.074 129.087 226.751 129.498 226.529C129.909 226.301 130.369 226.187 130.878 226.187C131.387 226.187 131.847 226.301 132.258 226.529C132.669 226.751 132.992 227.071 133.226 227.488C133.468 227.906 133.589 228.392 133.589 228.946C133.589 229.501 133.465 229.99 133.217 230.414C132.975 230.832 132.646 231.155 132.228 231.383C131.811 231.612 131.347 231.726 130.839 231.726ZM130.839 230.943C131.158 230.943 131.458 230.868 131.739 230.718C132.019 230.568 132.245 230.343 132.414 230.042C132.59 229.742 132.678 229.377 132.678 228.946C132.678 228.516 132.594 228.15 132.424 227.85C132.254 227.55 132.032 227.328 131.758 227.185C131.484 227.035 131.188 226.96 130.868 226.96C130.542 226.96 130.242 227.035 129.967 227.185C129.7 227.328 129.485 227.55 129.322 227.85C129.158 228.15 129.077 228.516 129.077 228.946C129.077 229.383 129.155 229.752 129.312 230.052C129.475 230.352 129.69 230.577 129.958 230.728C130.225 230.871 130.519 230.943 130.839 230.943ZM139.516 226.275V231.638H138.625V230.845C138.456 231.119 138.217 231.334 137.911 231.491C137.611 231.641 137.278 231.716 136.913 231.716C136.495 231.716 136.12 231.631 135.787 231.462C135.454 231.285 135.19 231.024 134.994 230.679C134.805 230.333 134.711 229.912 134.711 229.416V226.275H135.591V229.299C135.591 229.827 135.725 230.235 135.993 230.522C136.26 230.803 136.626 230.943 137.089 230.943C137.565 230.943 137.94 230.796 138.214 230.502C138.488 230.209 138.625 229.781 138.625 229.22V226.275H139.516ZM142.106 227.009V230.17C142.106 230.431 142.161 230.617 142.272 230.728C142.383 230.832 142.576 230.884 142.85 230.884H143.505V231.638H142.703C142.207 231.638 141.835 231.524 141.587 231.295C141.339 231.067 141.215 230.692 141.215 230.17V227.009H140.52V226.275H141.215V224.924H142.106V226.275H143.505V227.009H142.106ZM145.475 227.263C145.651 226.956 145.912 226.702 146.258 226.5C146.61 226.291 147.018 226.187 147.481 226.187C147.958 226.187 148.388 226.301 148.773 226.529C149.165 226.757 149.471 227.08 149.693 227.498C149.915 227.909 150.026 228.389 150.026 228.937C150.026 229.478 149.915 229.961 149.693 230.385C149.471 230.809 149.165 231.139 148.773 231.373C148.388 231.608 147.958 231.726 147.481 231.726C147.025 231.726 146.62 231.625 146.268 231.422C145.922 231.214 145.658 230.956 145.475 230.649V234.182H144.584V226.275H145.475V227.263ZM149.116 228.937C149.116 228.532 149.034 228.18 148.871 227.88C148.708 227.579 148.486 227.351 148.206 227.195C147.931 227.038 147.628 226.96 147.295 226.96C146.969 226.96 146.666 227.041 146.385 227.204C146.111 227.361 145.889 227.593 145.72 227.899C145.557 228.199 145.475 228.548 145.475 228.946C145.475 229.351 145.557 229.706 145.72 230.013C145.889 230.313 146.111 230.545 146.385 230.708C146.666 230.865 146.969 230.943 147.295 230.943C147.628 230.943 147.931 230.865 148.206 230.708C148.486 230.545 148.708 230.313 148.871 230.013C149.034 229.706 149.116 229.348 149.116 228.937ZM155.954 226.275V231.638H155.064V230.845C154.894 231.119 154.656 231.334 154.349 231.491C154.049 231.641 153.717 231.716 153.351 231.716C152.934 231.716 152.558 231.631 152.226 231.462C151.893 231.285 151.629 231.024 151.433 230.679C151.244 230.333 151.149 229.912 151.149 229.416V226.275H152.03V229.299C152.03 229.827 152.164 230.235 152.431 230.522C152.699 230.803 153.064 230.943 153.527 230.943C154.004 230.943 154.379 230.796 154.653 230.502C154.927 230.209 155.064 229.781 155.064 229.22V226.275H155.954ZM158.544 227.009V230.17C158.544 230.431 158.6 230.617 158.711 230.728C158.822 230.832 159.014 230.884 159.288 230.884H159.944V231.638H159.141C158.646 231.638 158.274 231.524 158.026 231.295C157.778 231.067 157.654 230.692 157.654 230.17V227.009H156.959V226.275H157.654V224.924H158.544V226.275H159.944V227.009H158.544ZM162.922 231.726C162.511 231.726 162.142 231.657 161.816 231.52C161.49 231.377 161.232 231.181 161.043 230.933C160.853 230.679 160.749 230.388 160.729 230.062H161.649C161.675 230.33 161.799 230.548 162.021 230.718C162.25 230.887 162.546 230.972 162.912 230.972C163.251 230.972 163.519 230.897 163.714 230.747C163.91 230.597 164.008 230.408 164.008 230.179C164.008 229.945 163.904 229.772 163.695 229.661C163.486 229.543 163.163 229.429 162.726 229.318C162.328 229.214 162.002 229.109 161.747 229.005C161.499 228.894 161.284 228.734 161.101 228.526C160.925 228.31 160.837 228.03 160.837 227.684C160.837 227.41 160.919 227.159 161.082 226.93C161.245 226.702 161.476 226.523 161.777 226.392C162.077 226.255 162.419 226.187 162.804 226.187C163.398 226.187 163.877 226.337 164.243 226.637C164.608 226.937 164.804 227.348 164.83 227.87H163.939C163.92 227.589 163.806 227.364 163.597 227.195C163.395 227.025 163.121 226.94 162.775 226.94C162.455 226.94 162.201 227.009 162.011 227.146C161.822 227.283 161.728 227.462 161.728 227.684C161.728 227.86 161.783 228.007 161.894 228.124C162.011 228.235 162.155 228.327 162.325 228.398C162.501 228.464 162.742 228.539 163.049 228.623C163.434 228.728 163.747 228.832 163.988 228.937C164.23 229.034 164.435 229.184 164.605 229.387C164.781 229.589 164.872 229.853 164.879 230.179C164.879 230.473 164.797 230.737 164.634 230.972C164.471 231.207 164.24 231.393 163.939 231.53C163.646 231.661 163.307 231.726 162.922 231.726Z" fill="#14171B"/>
</g>
<rect x="1" y="94.5476" width="244.667" height="65.2446" rx="9.78668" fill="white"/>
<path d="M88.1777 130.675H83.9058L83.1718 132.759H81.4249L85.0802 122.542H87.018L90.6733 132.759H88.9117L88.1777 130.675ZM87.708 129.309L86.0491 124.568L84.3756 129.309H87.708ZM91.7048 128.678C91.7048 127.866 91.8712 127.147 92.2039 126.52C92.5465 125.894 93.0064 125.409 93.5839 125.067C94.1711 124.715 94.8219 124.538 95.5363 124.538C96.0648 124.538 96.5835 124.656 97.0924 124.891C97.6111 125.116 98.0221 125.419 98.3255 125.801V121.896H100.014V132.759H98.3255V131.541C98.0515 131.932 97.6698 132.255 97.1805 132.51C96.7009 132.764 96.148 132.891 95.5216 132.891C94.817 132.891 94.1711 132.715 93.5839 132.363C93.0064 132.001 92.5465 131.502 92.2039 130.866C91.8712 130.22 91.7048 129.491 91.7048 128.678ZM98.3255 128.708C98.3255 128.15 98.2081 127.665 97.9732 127.254C97.7481 126.843 97.4496 126.53 97.0777 126.315C96.7058 126.099 96.3046 125.992 95.8739 125.992C95.4433 125.992 95.0421 126.099 94.6702 126.315C94.2983 126.52 93.9949 126.829 93.76 127.24C93.5349 127.641 93.4224 128.12 93.4224 128.678C93.4224 129.236 93.5349 129.725 93.76 130.146C93.9949 130.567 94.2983 130.89 94.6702 131.115C95.0519 131.33 95.4531 131.438 95.8739 131.438C96.3046 131.438 96.7058 131.33 97.0777 131.115C97.4496 130.9 97.7481 130.587 97.9732 130.176C98.2081 129.755 98.3255 129.265 98.3255 128.708ZM101.654 128.678C101.654 127.866 101.82 127.147 102.153 126.52C102.496 125.894 102.956 125.409 103.533 125.067C104.12 124.715 104.771 124.538 105.485 124.538C106.014 124.538 106.533 124.656 107.042 124.891C107.56 125.116 107.971 125.419 108.275 125.801V121.896H109.963V132.759H108.275V131.541C108.001 131.932 107.619 132.255 107.13 132.51C106.65 132.764 106.097 132.891 105.471 132.891C104.766 132.891 104.12 132.715 103.533 132.363C102.956 132.001 102.496 131.502 102.153 130.866C101.82 130.22 101.654 129.491 101.654 128.678ZM108.275 128.708C108.275 128.15 108.157 127.665 107.922 127.254C107.697 126.843 107.399 126.53 107.027 126.315C106.655 126.099 106.254 125.992 105.823 125.992C105.392 125.992 104.991 126.099 104.619 126.315C104.247 126.52 103.944 126.829 103.709 127.24C103.484 127.641 103.372 128.12 103.372 128.678C103.372 129.236 103.484 129.725 103.709 130.146C103.944 130.567 104.247 130.89 104.619 131.115C105.001 131.33 105.402 131.438 105.823 131.438C106.254 131.438 106.655 131.33 107.027 131.115C107.399 130.9 107.697 130.587 107.922 130.176C108.157 129.755 108.275 129.265 108.275 128.708ZM119.336 132.862C118.651 132.862 118.034 132.745 117.486 132.51C116.938 132.265 116.508 131.923 116.195 131.482C115.881 131.042 115.725 130.528 115.725 129.941H117.516C117.555 130.381 117.726 130.743 118.03 131.027C118.343 131.311 118.778 131.453 119.336 131.453C119.913 131.453 120.364 131.316 120.687 131.042C121.01 130.758 121.171 130.396 121.171 129.955C121.171 129.613 121.068 129.334 120.863 129.119C120.667 128.903 120.417 128.737 120.114 128.62C119.821 128.502 119.409 128.375 118.881 128.238C118.215 128.062 117.672 127.886 117.252 127.709C116.84 127.523 116.488 127.24 116.195 126.858C115.901 126.476 115.754 125.967 115.754 125.331C115.754 124.744 115.901 124.23 116.195 123.79C116.488 123.349 116.899 123.012 117.428 122.777C117.956 122.542 118.568 122.425 119.263 122.425C120.251 122.425 121.059 122.674 121.685 123.173C122.321 123.663 122.673 124.338 122.742 125.199H120.892C120.863 124.827 120.687 124.509 120.364 124.245C120.041 123.981 119.615 123.849 119.087 123.849C118.607 123.849 118.215 123.971 117.912 124.216C117.609 124.46 117.457 124.812 117.457 125.272C117.457 125.586 117.55 125.845 117.736 126.051C117.932 126.246 118.176 126.403 118.47 126.52C118.764 126.638 119.165 126.765 119.674 126.902C120.349 127.088 120.897 127.274 121.318 127.46C121.748 127.646 122.111 127.934 122.404 128.326C122.708 128.708 122.859 129.221 122.859 129.867C122.859 130.386 122.717 130.875 122.434 131.335C122.16 131.795 121.753 132.167 121.215 132.451C120.687 132.725 120.06 132.862 119.336 132.862ZM126.786 126.036V130.513C126.786 130.817 126.855 131.037 126.992 131.174C127.139 131.301 127.383 131.365 127.726 131.365H128.754V132.759H127.432C126.679 132.759 126.101 132.583 125.7 132.231C125.299 131.878 125.098 131.306 125.098 130.513V126.036H124.144V124.671H125.098V122.659H126.786V124.671H128.754V126.036H126.786ZM137.709 128.517C137.709 128.82 137.69 129.094 137.651 129.339H131.47C131.519 129.985 131.759 130.503 132.19 130.895C132.62 131.286 133.149 131.482 133.775 131.482C134.676 131.482 135.312 131.105 135.684 130.352H137.489C137.245 131.096 136.799 131.707 136.153 132.187C135.517 132.657 134.724 132.891 133.775 132.891C133.002 132.891 132.307 132.72 131.691 132.378C131.084 132.025 130.604 131.536 130.252 130.91C129.909 130.273 129.738 129.539 129.738 128.708C129.738 127.876 129.904 127.147 130.237 126.52C130.58 125.884 131.054 125.395 131.661 125.052C132.278 124.71 132.982 124.538 133.775 124.538C134.538 124.538 135.219 124.705 135.816 125.038C136.413 125.37 136.878 125.84 137.21 126.447C137.543 127.044 137.709 127.734 137.709 128.517ZM135.962 127.988C135.953 127.372 135.732 126.877 135.302 126.506C134.871 126.134 134.338 125.948 133.702 125.948C133.124 125.948 132.63 126.134 132.219 126.506C131.808 126.868 131.563 127.362 131.485 127.988H135.962ZM141.03 125.86C141.314 125.488 141.7 125.175 142.19 124.92C142.679 124.666 143.232 124.538 143.848 124.538C144.553 124.538 145.194 124.715 145.771 125.067C146.359 125.409 146.819 125.894 147.151 126.52C147.484 127.147 147.651 127.866 147.651 128.678C147.651 129.491 147.484 130.22 147.151 130.866C146.819 131.502 146.359 132.001 145.771 132.363C145.194 132.715 144.553 132.891 143.848 132.891C143.232 132.891 142.684 132.769 142.204 132.524C141.725 132.27 141.333 131.957 141.03 131.585V136.605H139.356V124.671H141.03V125.86ZM145.948 128.678C145.948 128.12 145.83 127.641 145.595 127.24C145.37 126.829 145.067 126.52 144.685 126.315C144.313 126.099 143.912 125.992 143.481 125.992C143.061 125.992 142.659 126.099 142.278 126.315C141.906 126.53 141.602 126.843 141.367 127.254C141.142 127.665 141.03 128.15 141.03 128.708C141.03 129.265 141.142 129.755 141.367 130.176C141.602 130.587 141.906 130.9 142.278 131.115C142.659 131.33 143.061 131.438 143.481 131.438C143.912 131.438 144.313 131.33 144.685 131.115C145.067 130.89 145.37 130.567 145.595 130.146C145.83 129.725 145.948 129.236 145.948 128.678Z" fill="#14171B"/>
<path d="M155.723 127.26H163.335" stroke="black" stroke-width="1.08741" stroke-linecap="round" stroke-linejoin="round"/>
<path d="M159.527 123.458V131.07" stroke="black" stroke-width="1.08741" stroke-linecap="round" stroke-linejoin="round"/>
<rect x="1.40778" y="1.40778" width="243.852" height="65.7339" rx="9.37891" fill="white"/>
<rect x="1.40778" y="1.40778" width="243.852" height="65.7339" rx="9.37891" stroke="#E5E7EB" stroke-width="0.815557"/>
<rect x="0.592222" y="0.592222" width="245.483" height="67.365" rx="10.1945" stroke="#034737" stroke-width="0.815557"/>
<g clip-path="url(#clip2_8372_21626)">
<rect x="14.6992" y="14.6946" width="39.1467" height="39.1467" rx="4.89334" fill="#034737"/>
<path d="M36.3125 28.1604H39.031C39.3915 28.1604 39.7373 28.3036 39.9922 28.5585C40.2471 28.8134 40.3903 29.1592 40.3903 29.5197V39.0345C40.3903 39.395 40.2471 39.7407 39.9922 39.9956C39.7373 40.2505 39.3915 40.3938 39.031 40.3938H36.3125" stroke="white" stroke-width="1.35926" stroke-linecap="round" stroke-linejoin="round"/>
<path d="M32.9141 37.6784L36.3122 34.2802L32.9141 30.8821" stroke="white" stroke-width="1.35926" stroke-linecap="round" stroke-linejoin="round"/>
<path d="M36.3118 34.2812H28.1562" stroke="white" stroke-width="1.35926" stroke-linecap="round" stroke-linejoin="round"/>
<g clip-path="url(#clip3_8372_21626)">
<path d="M69.3608 21.4331V30.5021H67.8732V21.4331H69.3608ZM74.9414 23.1947C75.5069 23.1947 76.0114 23.3121 76.4551 23.547C76.9075 23.7819 77.2598 24.1299 77.5121 24.5909C77.7643 25.052 77.8905 25.6087 77.8905 26.2612V30.5021H76.416V26.483C76.416 25.8393 76.255 25.3478 75.9331 25.0085C75.6113 24.6605 75.172 24.4865 74.6152 24.4865C74.0585 24.4865 73.6148 24.6605 73.2842 25.0085C72.9623 25.3478 72.8014 25.8393 72.8014 26.483V30.5021H71.3138V23.3121H72.8014V24.1342C73.045 23.8384 73.3538 23.6079 73.7279 23.4426C74.1106 23.2773 74.5152 23.1947 74.9414 23.1947ZM81.2756 24.3691C81.5278 24.0385 81.8715 23.7601 82.3064 23.534C82.7414 23.3078 83.2329 23.1947 83.7809 23.1947C84.4073 23.1947 84.9771 23.3513 85.4904 23.6644C86.0123 23.9689 86.4212 24.3995 86.7169 24.9563C87.0127 25.513 87.1606 26.1524 87.1606 26.8745C87.1606 27.5965 87.0127 28.2446 86.7169 28.8188C86.4212 29.3842 86.0123 29.8279 85.4904 30.1498C84.9771 30.4629 84.4073 30.6195 83.7809 30.6195C83.2329 30.6195 82.7457 30.5108 82.3195 30.2933C81.8932 30.0671 81.5452 29.7887 81.2756 29.4582V33.9209H79.788V23.3121H81.2756V24.3691ZM85.6469 26.8745C85.6469 26.3786 85.5425 25.9524 85.3338 25.5957C85.1337 25.2303 84.864 24.9563 84.5247 24.7736C84.1942 24.5822 83.8375 24.4865 83.4547 24.4865C83.0807 24.4865 82.724 24.5822 82.3847 24.7736C82.0541 24.965 81.7845 25.2434 81.5757 25.6087C81.3756 25.9741 81.2756 26.4047 81.2756 26.9006C81.2756 27.3964 81.3756 27.8314 81.5757 28.2055C81.7845 28.5708 82.0541 28.8492 82.3847 29.0406C82.724 29.232 83.0807 29.3277 83.4547 29.3277C83.8375 29.3277 84.1942 29.232 84.5247 29.0406C84.864 28.8405 85.1337 28.5534 85.3338 28.1794C85.5425 27.8053 85.6469 27.3703 85.6469 26.8745ZM95.1431 23.3121V30.5021H93.6555V29.6539C93.4206 29.9497 93.1118 30.1846 92.729 30.3585C92.355 30.5238 91.9548 30.6065 91.5285 30.6065C90.9631 30.6065 90.4542 30.489 90.0018 30.2541C89.5581 30.0193 89.2058 29.6713 88.9448 29.2102C88.6926 28.7492 88.5664 28.1924 88.5664 27.54V23.3121H90.041V27.3181C90.041 27.9619 90.2019 28.4577 90.5238 28.8057C90.8456 29.145 91.285 29.3146 91.8417 29.3146C92.3985 29.3146 92.8378 29.145 93.1596 28.8057C93.4902 28.4577 93.6555 27.9619 93.6555 27.3181V23.3121H95.1431ZM98.8413 24.5257V28.5056C98.8413 28.7753 98.9022 28.971 99.024 29.0928C99.1545 29.2059 99.372 29.2624 99.6765 29.2624H100.59V30.5021H99.4155C98.7456 30.5021 98.2324 30.3455 97.8757 30.0323C97.519 29.7191 97.3407 29.2102 97.3407 28.5056V24.5257H96.4925V23.3121H97.3407V21.5244H98.8413V23.3121H100.59V24.5257H98.8413Z" fill="#14171B"/>
</g>
<path opacity="0.5" d="M67.3154 46.4082C67.3154 45.7427 67.4654 45.1457 67.7655 44.6172C68.0657 44.0822 68.4734 43.6646 68.9889 43.3645C69.5108 43.0644 70.0883 42.9143 70.7211 42.9143C71.4649 42.9143 72.1141 43.0938 72.6687 43.4526C73.2233 43.8114 73.6278 44.3204 73.8822 44.9793H72.8155C72.6263 44.5683 72.3522 44.2518 71.9934 44.03C71.6411 43.8082 71.217 43.6973 70.7211 43.6973C70.2448 43.6973 69.8175 43.8082 69.4391 44.03C69.0607 44.2518 68.7638 44.5683 68.5485 44.9793C68.3332 45.3838 68.2255 45.8601 68.2255 46.4082C68.2255 46.9497 68.3332 47.426 68.5485 47.837C68.7638 48.2415 69.0607 48.5547 69.4391 48.7766C69.8175 48.9984 70.2448 49.1093 70.7211 49.1093C71.217 49.1093 71.6411 49.0016 71.9934 48.7863C72.3522 48.5645 72.6263 48.2481 72.8155 47.837H73.8822C73.6278 48.4895 73.2233 48.9951 72.6687 49.354C72.1141 49.7063 71.4649 49.8825 70.7211 49.8825C70.0883 49.8825 69.5108 49.7357 68.9889 49.442C68.4734 49.1419 68.0657 48.7276 67.7655 48.1991C67.4654 47.6707 67.3154 47.0737 67.3154 46.4082ZM76.0985 42.5816V49.8237H75.2079V42.5816H76.0985ZM78.0764 43.5896C77.9067 43.5896 77.7632 43.5309 77.6457 43.4135C77.5283 43.296 77.4696 43.1525 77.4696 42.9828C77.4696 42.8132 77.5283 42.6697 77.6457 42.5522C77.7632 42.4348 77.9067 42.3761 78.0764 42.3761C78.2395 42.3761 78.3765 42.4348 78.4874 42.5522C78.6048 42.6697 78.6636 42.8132 78.6636 42.9828C78.6636 43.1525 78.6048 43.296 78.4874 43.4135C78.3765 43.5309 78.2395 43.5896 78.0764 43.5896ZM78.507 44.4606V49.8237H77.6164V44.4606H78.507ZM79.6921 47.1324C79.6921 46.5778 79.803 46.095 80.0248 45.684C80.2467 45.2664 80.5533 44.9434 80.9448 44.7151C81.3428 44.4867 81.7962 44.3725 82.3051 44.3725C82.9641 44.3725 83.5056 44.5324 83.9297 44.8521C84.3603 45.1718 84.6441 45.6155 84.7811 46.1831H83.8221C83.7307 45.8569 83.5513 45.5991 83.2838 45.4099C83.0228 45.2207 82.6966 45.1261 82.3051 45.1261C81.7962 45.1261 81.3852 45.3023 81.072 45.6546C80.7588 46.0004 80.6022 46.493 80.6022 47.1324C80.6022 47.7783 80.7588 48.2774 81.072 48.6298C81.3852 48.9821 81.7962 49.1582 82.3051 49.1582C82.6966 49.1582 83.0228 49.0669 83.2838 48.8842C83.5448 48.7015 83.7242 48.4405 83.8221 48.1013H84.7811C84.6376 48.6493 84.3505 49.0897 83.9199 49.4225C83.4893 49.7487 82.951 49.9118 82.3051 49.9118C81.7962 49.9118 81.3428 49.7976 80.9448 49.5693C80.5533 49.3409 80.2467 49.018 80.0248 48.6004C79.803 48.1828 79.6921 47.6935 79.6921 47.1324ZM88.9642 49.8237L86.8601 47.4554V49.8237H85.9695V42.5816H86.8601V46.8388L88.925 44.4606H90.168L87.643 47.1324L90.1777 49.8237H88.9642ZM94.7016 45.1946V48.3557C94.7016 48.6167 94.7571 48.8027 94.868 48.9136C94.9789 49.018 95.1714 49.0702 95.4454 49.0702H96.1011V49.8237H95.2986C94.8028 49.8237 94.4309 49.7096 94.1829 49.4812C93.935 49.2528 93.811 48.8777 93.811 48.3557V45.1946H93.1162V44.4606H93.811V43.1101H94.7016V44.4606H96.1011V45.1946H94.7016ZM99.5192 49.9118C99.0168 49.9118 98.5601 49.7976 98.1491 49.5693C97.7446 49.3409 97.4249 49.018 97.19 48.6004C96.9616 48.1763 96.8474 47.687 96.8474 47.1324C96.8474 46.5843 96.9649 46.1015 97.1998 45.684C97.4412 45.2599 97.7674 44.9369 98.1784 44.7151C98.5895 44.4867 99.0494 44.3725 99.5584 44.3725C100.067 44.3725 100.527 44.4867 100.938 44.7151C101.349 44.9369 101.672 45.2566 101.907 45.6742C102.149 46.0917 102.269 46.5778 102.269 47.1324C102.269 47.687 102.145 48.1763 101.897 48.6004C101.656 49.018 101.326 49.3409 100.909 49.5693C100.491 49.7976 100.028 49.9118 99.5192 49.9118ZM99.5192 49.1289C99.8389 49.1289 100.139 49.0538 100.42 48.9038C100.7 48.7537 100.925 48.5286 101.095 48.2285C101.271 47.9284 101.359 47.563 101.359 47.1324C101.359 46.7018 101.274 46.3364 101.105 46.0363C100.935 45.7362 100.713 45.5143 100.439 45.3708C100.165 45.2207 99.8683 45.1457 99.5486 45.1457C99.2223 45.1457 98.9222 45.2207 98.6482 45.3708C98.3807 45.5143 98.1654 45.7362 98.0023 46.0363C97.8392 46.3364 97.7576 46.7018 97.7576 47.1324C97.7576 47.5695 97.8359 47.9382 97.9925 48.2383C98.1556 48.5384 98.3709 48.7635 98.6384 48.9136C98.9059 49.0571 99.1995 49.1289 99.5192 49.1289ZM110.081 48.3068H107.106L106.558 49.8237H105.619L108.085 43.0416H109.113L111.569 49.8237H110.63L110.081 48.3068ZM109.827 47.5826L108.594 44.1377L107.361 47.5826H109.827ZM112.311 47.1226C112.311 46.5746 112.422 46.095 112.644 45.684C112.866 45.2664 113.169 44.9434 113.554 44.7151C113.946 44.4867 114.383 44.3725 114.865 44.3725C115.283 44.3725 115.671 44.4704 116.03 44.6661C116.389 44.8554 116.663 45.1065 116.852 45.4197V42.5816H117.753V49.8237H116.852V48.8157C116.676 49.1354 116.415 49.3996 116.069 49.6084C115.723 49.8107 115.319 49.9118 114.856 49.9118C114.379 49.9118 113.946 49.7944 113.554 49.5595C113.169 49.3246 112.866 48.9951 112.644 48.571C112.422 48.1469 112.311 47.6641 112.311 47.1226ZM116.852 47.1324C116.852 46.7279 116.771 46.3756 116.608 46.0754C116.444 45.7753 116.223 45.5469 115.942 45.3904C115.668 45.2273 115.365 45.1457 115.032 45.1457C114.699 45.1457 114.396 45.224 114.122 45.3806C113.848 45.5372 113.629 45.7655 113.466 46.0656C113.303 46.3658 113.221 46.7181 113.221 47.1226C113.221 47.5336 113.303 47.8925 113.466 48.1991C113.629 48.4993 113.848 48.7309 114.122 48.894C114.396 49.0506 114.699 49.1289 115.032 49.1289C115.365 49.1289 115.668 49.0506 115.942 48.894C116.223 48.7309 116.444 48.4993 116.608 48.1991C116.771 47.8925 116.852 47.5369 116.852 47.1324ZM118.925 47.1226C118.925 46.5746 119.036 46.095 119.258 45.684C119.479 45.2664 119.783 44.9434 120.168 44.7151C120.559 44.4867 120.996 44.3725 121.479 44.3725C121.897 44.3725 122.285 44.4704 122.644 44.6661C123.003 44.8554 123.277 45.1065 123.466 45.4197V42.5816H124.366V49.8237H123.466V48.8157C123.29 49.1354 123.029 49.3996 122.683 49.6084C122.337 49.8107 121.933 49.9118 121.469 49.9118C120.993 49.9118 120.559 49.7944 120.168 49.5595C119.783 49.3246 119.479 48.9951 119.258 48.571C119.036 48.1469 118.925 47.6641 118.925 47.1226ZM123.466 47.1324C123.466 46.7279 123.384 46.3756 123.221 46.0754C123.058 45.7753 122.836 45.5469 122.556 45.3904C122.282 45.2273 121.978 45.1457 121.646 45.1457C121.313 45.1457 121.009 45.224 120.735 45.3806C120.461 45.5372 120.243 45.7655 120.08 46.0656C119.917 46.3658 119.835 46.7181 119.835 47.1226C119.835 47.5336 119.917 47.8925 120.08 48.1991C120.243 48.4993 120.461 48.7309 120.735 48.894C121.009 49.0506 121.313 49.1289 121.646 49.1289C121.978 49.1289 122.282 49.0506 122.556 48.894C122.836 48.7309 123.058 48.4993 123.221 48.1991C123.384 47.8925 123.466 47.5369 123.466 47.1324ZM129.371 43.0024V49.8237H128.48V43.0024H129.371ZM133.502 44.3628C134.154 44.3628 134.683 44.5618 135.087 44.9597C135.492 45.3512 135.694 45.9188 135.694 46.6626V49.8237H134.813V46.7899C134.813 46.2549 134.68 45.8471 134.412 45.5665C134.145 45.2794 133.779 45.1359 133.316 45.1359C132.846 45.1359 132.471 45.2827 132.19 45.5763C131.916 45.8699 131.779 46.2973 131.779 46.8584V49.8237H130.889V44.4606H131.779V45.224C131.956 44.95 132.194 44.7379 132.494 44.5879C132.8 44.4378 133.136 44.3628 133.502 44.3628ZM138.039 45.4491C138.216 45.1424 138.477 44.888 138.822 44.6857C139.175 44.4769 139.582 44.3725 140.046 44.3725C140.522 44.3725 140.953 44.4867 141.338 44.7151C141.729 44.9434 142.036 45.2664 142.258 45.684C142.479 46.095 142.59 46.5746 142.59 47.1226C142.59 47.6641 142.479 48.1469 142.258 48.571C142.036 48.9951 141.729 49.3246 141.338 49.5595C140.953 49.7944 140.522 49.9118 140.046 49.9118C139.589 49.9118 139.184 49.8107 138.832 49.6084C138.486 49.3996 138.222 49.1419 138.039 48.8353V52.3683H137.149V44.4606H138.039V45.4491ZM141.68 47.1226C141.68 46.7181 141.599 46.3658 141.435 46.0656C141.272 45.7655 141.05 45.5372 140.77 45.3806C140.496 45.224 140.193 45.1457 139.86 45.1457C139.534 45.1457 139.23 45.2273 138.95 45.3904C138.676 45.5469 138.454 45.7786 138.284 46.0852C138.121 46.3853 138.039 46.7344 138.039 47.1324C138.039 47.5369 138.121 47.8925 138.284 48.1991C138.454 48.4993 138.676 48.7309 138.95 48.894C139.23 49.0506 139.534 49.1289 139.86 49.1289C140.193 49.1289 140.496 49.0506 140.77 48.894C141.05 48.7309 141.272 48.4993 141.435 48.1991C141.599 47.8925 141.68 47.5336 141.68 47.1226ZM148.519 44.4606V49.8237H147.628V49.031C147.459 49.305 147.22 49.5203 146.914 49.6769C146.614 49.827 146.281 49.902 145.916 49.902C145.498 49.902 145.123 49.8172 144.79 49.6476C144.457 49.4714 144.193 49.2104 143.997 48.8646C143.808 48.5188 143.714 48.098 143.714 47.6022V44.4606H144.594V47.4847C144.594 48.0132 144.728 48.421 144.996 48.708C145.263 48.9886 145.629 49.1289 146.092 49.1289C146.568 49.1289 146.943 48.9821 147.217 48.6885C147.491 48.3949 147.628 47.9675 147.628 47.4064V44.4606H148.519ZM151.109 45.1946V48.3557C151.109 48.6167 151.164 48.8027 151.275 48.9136C151.386 49.018 151.579 49.0702 151.853 49.0702H152.508V49.8237H151.706C151.21 49.8237 150.838 49.7096 150.59 49.4812C150.342 49.2528 150.218 48.8777 150.218 48.3557V45.1946H149.523V44.4606H150.218V43.1101H151.109V44.4606H152.508V45.1946H151.109ZM155.486 49.9118C155.075 49.9118 154.706 49.8433 154.38 49.7063C154.054 49.5628 153.796 49.367 153.607 49.1191C153.418 48.8646 153.313 48.5743 153.294 48.2481H154.214C154.24 48.5156 154.364 48.7341 154.586 48.9038C154.814 49.0734 155.111 49.1582 155.476 49.1582C155.816 49.1582 156.083 49.0832 156.279 48.9331C156.474 48.7831 156.572 48.5939 156.572 48.3655C156.572 48.1306 156.468 47.9577 156.259 47.8468C156.05 47.7294 155.727 47.6152 155.29 47.5043C154.892 47.3999 154.566 47.2955 154.312 47.1911C154.064 47.0802 153.848 46.9203 153.666 46.7116C153.49 46.4963 153.401 46.2157 153.401 45.8699C153.401 45.5959 153.483 45.3447 153.646 45.1163C153.809 44.888 154.041 44.7086 154.341 44.5781C154.641 44.4411 154.984 44.3725 155.369 44.3725C155.962 44.3725 156.442 44.5226 156.807 44.8227C157.173 45.1229 157.368 45.5339 157.394 46.0559H156.504C156.484 45.7753 156.37 45.5502 156.161 45.3806C155.959 45.2109 155.685 45.1261 155.339 45.1261C155.02 45.1261 154.765 45.1946 154.576 45.3316C154.387 45.4687 154.292 45.6481 154.292 45.8699C154.292 46.0461 154.348 46.1929 154.458 46.3103C154.576 46.4212 154.719 46.5126 154.889 46.5843C155.065 46.6496 155.307 46.7246 155.613 46.8094C155.998 46.9138 156.311 47.0182 156.553 47.1226C156.794 47.2205 157 47.3705 157.169 47.5728C157.346 47.7751 157.437 48.0393 157.443 48.3655C157.443 48.6591 157.362 48.9234 157.199 49.1582C157.036 49.3931 156.804 49.5791 156.504 49.7161C156.21 49.8466 155.871 49.9118 155.486 49.9118Z" fill="#14171B"/>
</g>
<path d="M123.707 70.2496C123.707 82.3987 123.707 82.3987 123.707 94.5477" stroke="#034737" stroke-width="0.939216" stroke-dasharray="5.64 5.64"/>
<path d="M123.332 160.153C123.332 172.302 123.332 172.302 123.332 184.451" stroke="#034737" stroke-width="0.939216" stroke-dasharray="5.64 5.64"/>
<defs>
<clipPath id="clip0_8372_21626">
<rect width="217.264" height="39.1467" fill="white" transform="translate(14.6992 198.155)"/>
</clipPath>
<clipPath id="clip1_8372_21626">
<rect width="95.8361" height="19.5734" fill="white" transform="translate(66.8945 201.411)"/>
</clipPath>
<clipPath id="clip2_8372_21626">
<rect width="217.264" height="39.1467" fill="white" transform="translate(14.6992 14.6923)"/>
</clipPath>
<clipPath id="clip3_8372_21626">
<rect width="87.4603" height="19.5734" fill="white" transform="translate(66.8945 16.505)"/>
</clipPath>
</defs>
</svg>
