<svg width="464" height="267" viewBox="0 0 464 267" fill="none" xmlns="http://www.w3.org/2000/svg">
<ellipse cx="226.73" cy="256.765" rx="9.73132" ry="9.76517" transform="rotate(-180 226.73 256.765)" fill="#034737"/>
<path d="M62 88.306C62 181.413 137.216 256.89 230 256.89C322.784 256.89 398 181.413 398 88.3061" stroke="#034737" stroke-width="1.1111" stroke-dasharray="6.67 6.67"/>
<rect x="431.332" y="88.306" width="65.9999" height="66.2295" rx="10" transform="rotate(-180 431.332 88.306)" fill="#034737"/>
<path d="M384.5 43H411.5" stroke="white" stroke-width="1.95" stroke-linecap="round" stroke-linejoin="round"/>
<path d="M386 43V58C386 59.6569 387.343 61 389 61H407C408.657 61 410 59.6569 410 58V43" stroke="white" stroke-width="1.95" stroke-linecap="round" stroke-linejoin="round"/>
<path d="M398 61V67" stroke="white" stroke-width="1.95" stroke-linecap="round" stroke-linejoin="round"/>
<path d="M393.5 67H402.5" stroke="white" stroke-width="1.95" stroke-linecap="round" stroke-linejoin="round"/>
<path d="M392 55L396.5 50.5L399.5 53.5L404 49" stroke="white" stroke-width="1.95" stroke-linecap="round" stroke-linejoin="round"/>
<rect x="95" y="88.306" width="65.9999" height="66.2295" rx="10" transform="rotate(-180 95 88.306)" fill="#034737"/>
<path d="M57.1406 54.9557L57.1406 48.9557" stroke="white" stroke-width="1.95" stroke-linecap="round" stroke-linejoin="round"/>
<path d="M66.1406 54.9557L66.1406 51.9557" stroke="white" stroke-width="1.95" stroke-linecap="round" stroke-linejoin="round"/>
<path d="M61.6406 54.9557L61.6406 53.4557" stroke="white" stroke-width="1.95" stroke-linecap="round" stroke-linejoin="round"/>
<path d="M48.1406 42.9557L75.1406 42.9557" stroke="white" stroke-width="1.95" stroke-linecap="round" stroke-linejoin="round"/>
<path d="M49.6406 42.9557L49.6406 57.9557C49.6406 59.6125 50.9838 60.9557 52.6406 60.9557L70.6406 60.9557C72.2975 60.9557 73.6406 59.6125 73.6406 57.9557L73.6406 42.9557" stroke="white" stroke-width="1.95" stroke-linecap="round" stroke-linejoin="round"/>
<path d="M61.6406 60.9557L61.6406 66.9557" stroke="white" stroke-width="1.95" stroke-linecap="round" stroke-linejoin="round"/>
<path d="M57.1406 66.9557L66.1406 66.9557" stroke="white" stroke-width="1.95" stroke-linecap="round" stroke-linejoin="round"/>
<path d="M336.355 10.0775C335.849 10.0775 335.394 9.98949 334.991 9.81349C334.595 9.63015 334.283 9.38082 334.056 9.06549C333.828 8.74282 333.711 8.37249 333.704 7.95449H334.771C334.807 8.31382 334.954 8.61815 335.211 8.86749C335.475 9.10949 335.856 9.23049 336.355 9.23049C336.831 9.23049 337.205 9.11315 337.477 8.87849C337.755 8.63649 337.895 8.32849 337.895 7.95449C337.895 7.66115 337.814 7.42282 337.653 7.23949C337.491 7.05615 337.29 6.91682 337.048 6.82149C336.806 6.72615 336.479 6.62349 336.069 6.51349C335.563 6.38149 335.156 6.24949 334.848 6.11749C334.547 5.98549 334.287 5.78015 334.067 5.50149C333.854 5.21549 333.748 4.83415 333.748 4.35749C333.748 3.93949 333.854 3.56915 334.067 3.24649C334.279 2.92382 334.576 2.67449 334.958 2.49849C335.346 2.32249 335.79 2.23449 336.289 2.23449C337.007 2.23449 337.594 2.41415 338.049 2.77349C338.511 3.13282 338.771 3.60949 338.83 4.20349H337.73C337.693 3.91015 337.539 3.65349 337.268 3.43349C336.996 3.20615 336.637 3.09249 336.19 3.09249C335.772 3.09249 335.431 3.20249 335.167 3.42249C334.903 3.63515 334.771 3.93582 334.771 4.32449C334.771 4.60315 334.848 4.83049 335.002 5.00649C335.163 5.18249 335.357 5.31815 335.585 5.41349C335.819 5.50149 336.146 5.60415 336.564 5.72149C337.07 5.86082 337.477 6.00015 337.785 6.13949C338.093 6.27149 338.357 6.48049 338.577 6.76649C338.797 7.04515 338.907 7.42649 338.907 7.91049C338.907 8.28449 338.808 8.63649 338.61 8.96649C338.412 9.29649 338.118 9.56415 337.73 9.76949C337.341 9.97482 336.883 10.0775 336.355 10.0775ZM343.042 10.0995C342.477 10.0995 341.964 9.97115 341.502 9.71449C341.047 9.45782 340.688 9.09482 340.424 8.62549C340.167 8.14882 340.039 7.59882 340.039 6.97549C340.039 6.35949 340.171 5.81682 340.435 5.34749C340.706 4.87082 341.073 4.50782 341.535 4.25849C341.997 4.00182 342.514 3.87349 343.086 3.87349C343.658 3.87349 344.175 4.00182 344.637 4.25849C345.099 4.50782 345.462 4.86715 345.726 5.33649C345.997 5.80582 346.133 6.35215 346.133 6.97549C346.133 7.59882 345.993 8.14882 345.715 8.62549C345.443 9.09482 345.073 9.45782 344.604 9.71449C344.134 9.97115 343.614 10.0995 343.042 10.0995ZM343.042 9.21949C343.401 9.21949 343.738 9.13515 344.054 8.96649C344.369 8.79782 344.622 8.54482 344.813 8.20749C345.011 7.87015 345.11 7.45949 345.11 6.97549C345.11 6.49149 345.014 6.08082 344.824 5.74349C344.633 5.40615 344.384 5.15682 344.076 4.99549C343.768 4.82682 343.434 4.74249 343.075 4.74249C342.708 4.74249 342.371 4.82682 342.063 4.99549C341.762 5.15682 341.52 5.40615 341.337 5.74349C341.153 6.08082 341.062 6.49149 341.062 6.97549C341.062 7.46682 341.15 7.88115 341.326 8.21849C341.509 8.55582 341.751 8.80882 342.052 8.97749C342.352 9.13882 342.682 9.21949 343.042 9.21949ZM347.108 6.97549C347.108 6.35215 347.232 5.80949 347.482 5.34749C347.731 4.87815 348.076 4.51515 348.516 4.25849C348.963 4.00182 349.473 3.87349 350.045 3.87349C350.785 3.87349 351.394 4.05315 351.871 4.41249C352.355 4.77182 352.674 5.27049 352.828 5.90849H351.75C351.647 5.54182 351.445 5.25215 351.145 5.03949C350.851 4.82682 350.485 4.72049 350.045 4.72049C349.473 4.72049 349.011 4.91849 348.659 5.31449C348.307 5.70315 348.131 6.25682 348.131 6.97549C348.131 7.70149 348.307 8.26249 348.659 8.65849C349.011 9.05449 349.473 9.25249 350.045 9.25249C350.485 9.25249 350.851 9.14982 351.145 8.94449C351.438 8.73915 351.64 8.44582 351.75 8.06449H352.828C352.666 8.68049 352.344 9.17549 351.86 9.54949C351.376 9.91615 350.771 10.0995 350.045 10.0995C349.473 10.0995 348.963 9.97115 348.516 9.71449C348.076 9.45782 347.731 9.09482 347.482 8.62549C347.232 8.15615 347.108 7.60615 347.108 6.97549ZM354.713 2.99349C354.523 2.99349 354.361 2.92749 354.229 2.79549C354.097 2.66349 354.031 2.50215 354.031 2.31149C354.031 2.12082 354.097 1.95949 354.229 1.82749C354.361 1.69549 354.523 1.62949 354.713 1.62949C354.897 1.62949 355.051 1.69549 355.175 1.82749C355.307 1.95949 355.373 2.12082 355.373 2.31149C355.373 2.50215 355.307 2.66349 355.175 2.79549C355.051 2.92749 354.897 2.99349 354.713 2.99349ZM355.197 3.97249V10.0005H354.196V3.97249H355.197ZM356.562 6.96449C356.562 6.34849 356.687 5.80949 356.936 5.34749C357.186 4.87815 357.527 4.51515 357.959 4.25849C358.399 4.00182 358.887 3.87349 359.422 3.87349C359.95 3.87349 360.409 3.98715 360.797 4.21449C361.186 4.44182 361.476 4.72782 361.666 5.07249V3.97249H362.678V10.0005H361.666V8.87849C361.468 9.23049 361.171 9.52382 360.775 9.75849C360.387 9.98582 359.932 10.0995 359.411 10.0995C358.876 10.0995 358.392 9.96749 357.959 9.70349C357.527 9.43949 357.186 9.06915 356.936 8.59249C356.687 8.11582 356.562 7.57315 356.562 6.96449ZM361.666 6.97549C361.666 6.52082 361.575 6.12482 361.391 5.78749C361.208 5.45015 360.959 5.19349 360.643 5.01749C360.335 4.83415 359.994 4.74249 359.62 4.74249C359.246 4.74249 358.905 4.83049 358.597 5.00649C358.289 5.18249 358.044 5.43915 357.86 5.77649C357.677 6.11382 357.585 6.50982 357.585 6.96449C357.585 7.42649 357.677 7.82982 357.86 8.17449C358.044 8.51182 358.289 8.77215 358.597 8.95549C358.905 9.13149 359.246 9.21949 359.62 9.21949C359.994 9.21949 360.335 9.13149 360.643 8.95549C360.959 8.77215 361.208 8.51182 361.391 8.17449C361.575 7.82982 361.666 7.43015 361.666 6.97549ZM365.404 1.86049V10.0005H364.403V1.86049H365.404ZM377.358 3.86249C377.827 3.86249 378.245 3.96149 378.612 4.15949C378.978 4.35015 379.268 4.63982 379.481 5.02849C379.693 5.41715 379.8 5.89015 379.8 6.44749V10.0005H378.81V6.59049C378.81 5.98915 378.659 5.53082 378.359 5.21549C378.065 4.89282 377.666 4.73149 377.16 4.73149C376.639 4.73149 376.225 4.90015 375.917 5.23749C375.609 5.56749 375.455 6.04782 375.455 6.67849V10.0005H374.465V6.59049C374.465 5.98915 374.314 5.53082 374.014 5.21549C373.72 4.89282 373.321 4.73149 372.815 4.73149C372.294 4.73149 371.88 4.90015 371.572 5.23749C371.264 5.56749 371.11 6.04782 371.11 6.67849V10.0005H370.109V3.97249H371.11V4.84149C371.308 4.52615 371.572 4.28415 371.902 4.11549C372.239 3.94682 372.609 3.86249 373.013 3.86249C373.519 3.86249 373.966 3.97615 374.355 4.20349C374.743 4.43082 375.033 4.76449 375.224 5.20449C375.392 4.77915 375.671 4.44915 376.06 4.21449C376.448 3.97982 376.881 3.86249 377.358 3.86249ZM386.975 6.75549C386.975 6.94615 386.964 7.14782 386.942 7.36049H382.124C382.16 7.95449 382.362 8.42015 382.729 8.75749C383.103 9.08749 383.554 9.25249 384.082 9.25249C384.514 9.25249 384.874 9.15349 385.16 8.95549C385.453 8.75015 385.658 8.47882 385.776 8.14149H386.854C386.692 8.72082 386.37 9.19382 385.886 9.56049C385.402 9.91982 384.8 10.0995 384.082 10.0995C383.51 10.0995 382.996 9.97115 382.542 9.71449C382.094 9.45782 381.742 9.09482 381.486 8.62549C381.229 8.14882 381.101 7.59882 381.101 6.97549C381.101 6.35215 381.225 5.80582 381.475 5.33649C381.724 4.86715 382.072 4.50782 382.52 4.25849C382.974 4.00182 383.495 3.87349 384.082 3.87349C384.654 3.87349 385.16 3.99815 385.6 4.24749C386.04 4.49682 386.377 4.84149 386.612 5.28149C386.854 5.71415 386.975 6.20549 386.975 6.75549ZM385.941 6.54649C385.941 6.16515 385.856 5.83882 385.688 5.56749C385.519 5.28882 385.288 5.07982 384.995 4.94049C384.709 4.79382 384.39 4.72049 384.038 4.72049C383.532 4.72049 383.099 4.88182 382.74 5.20449C382.388 5.52715 382.186 5.97449 382.135 6.54649H385.941ZM387.955 6.96449C387.955 6.34849 388.08 5.80949 388.329 5.34749C388.578 4.87815 388.919 4.51515 389.352 4.25849C389.792 4.00182 390.283 3.87349 390.826 3.87349C391.295 3.87349 391.732 3.98349 392.135 4.20349C392.538 4.41615 392.846 4.69849 393.059 5.05049V1.86049H394.071V10.0005H393.059V8.86749C392.861 9.22682 392.568 9.52382 392.179 9.75849C391.79 9.98582 391.336 10.0995 390.815 10.0995C390.28 10.0995 389.792 9.96749 389.352 9.70349C388.919 9.43949 388.578 9.06915 388.329 8.59249C388.08 8.11582 387.955 7.57315 387.955 6.96449ZM393.059 6.97549C393.059 6.52082 392.967 6.12482 392.784 5.78749C392.601 5.45015 392.351 5.19349 392.036 5.01749C391.728 4.83415 391.387 4.74249 391.013 4.74249C390.639 4.74249 390.298 4.83049 389.99 5.00649C389.682 5.18249 389.436 5.43915 389.253 5.77649C389.07 6.11382 388.978 6.50982 388.978 6.96449C388.978 7.42649 389.07 7.82982 389.253 8.17449C389.436 8.51182 389.682 8.77215 389.99 8.95549C390.298 9.13149 390.639 9.21949 391.013 9.21949C391.387 9.21949 391.728 9.13149 392.036 8.95549C392.351 8.77215 392.601 8.51182 392.784 8.17449C392.967 7.82982 393.059 7.43015 393.059 6.97549ZM396.313 2.99349C396.122 2.99349 395.961 2.92749 395.829 2.79549C395.697 2.66349 395.631 2.50215 395.631 2.31149C395.631 2.12082 395.697 1.95949 395.829 1.82749C395.961 1.69549 396.122 1.62949 396.313 1.62949C396.496 1.62949 396.65 1.69549 396.775 1.82749C396.907 1.95949 396.973 2.12082 396.973 2.31149C396.973 2.50215 396.907 2.66349 396.775 2.79549C396.65 2.92749 396.496 2.99349 396.313 2.99349ZM396.797 3.97249V10.0005H395.796V3.97249H396.797ZM398.162 6.96449C398.162 6.34849 398.286 5.80949 398.536 5.34749C398.785 4.87815 399.126 4.51515 399.559 4.25849C399.999 4.00182 400.486 3.87349 401.022 3.87349C401.55 3.87349 402.008 3.98715 402.397 4.21449C402.785 4.44182 403.075 4.72782 403.266 5.07249V3.97249H404.278V10.0005H403.266V8.87849C403.068 9.23049 402.771 9.52382 402.375 9.75849C401.986 9.98582 401.531 10.0995 401.011 10.0995C400.475 10.0995 399.991 9.96749 399.559 9.70349C399.126 9.43949 398.785 9.06915 398.536 8.59249C398.286 8.11582 398.162 7.57315 398.162 6.96449ZM403.266 6.97549C403.266 6.52082 403.174 6.12482 402.991 5.78749C402.807 5.45015 402.558 5.19349 402.243 5.01749C401.935 4.83415 401.594 4.74249 401.22 4.74249C400.846 4.74249 400.505 4.83049 400.197 5.00649C399.889 5.18249 399.643 5.43915 399.46 5.77649C399.276 6.11382 399.185 6.50982 399.185 6.96449C399.185 7.42649 399.276 7.82982 399.46 8.17449C399.643 8.51182 399.889 8.77215 400.197 8.95549C400.505 9.13149 400.846 9.21949 401.22 9.21949C401.594 9.21949 401.935 9.13149 402.243 8.95549C402.558 8.77215 402.807 8.51182 402.991 8.17449C403.174 7.82982 403.266 7.43015 403.266 6.97549ZM413.5 8.29549H410.156L409.54 10.0005H408.484L411.256 2.37749H412.411L415.172 10.0005H414.116L413.5 8.29549ZM413.214 7.48149L411.828 3.60949L410.442 7.48149H413.214ZM417.414 2.33349V10.0005H416.413V2.33349H417.414ZM422.636 2.99349C422.445 2.99349 422.284 2.92749 422.152 2.79549C422.02 2.66349 421.954 2.50215 421.954 2.31149C421.954 2.12082 422.02 1.95949 422.152 1.82749C422.284 1.69549 422.445 1.62949 422.636 1.62949C422.819 1.62949 422.973 1.69549 423.098 1.82749C423.23 1.95949 423.296 2.12082 423.296 2.31149C423.296 2.50215 423.23 2.66349 423.098 2.79549C422.973 2.92749 422.819 2.99349 422.636 2.99349ZM423.12 3.97249V10.0005H422.119V3.97249H423.12ZM427.796 3.86249C428.529 3.86249 429.123 4.08615 429.578 4.53349C430.032 4.97349 430.26 5.61149 430.26 6.44749V10.0005H429.27V6.59049C429.27 5.98915 429.119 5.53082 428.819 5.21549C428.518 4.89282 428.107 4.73149 427.587 4.73149C427.059 4.73149 426.637 4.89649 426.322 5.22649C426.014 5.55649 425.86 6.03682 425.86 6.66749V10.0005H424.859V3.97249H425.86V4.83049C426.058 4.52249 426.325 4.28415 426.663 4.11549C427.007 3.94682 427.385 3.86249 427.796 3.86249ZM434.062 10.0995C433.6 10.0995 433.185 10.0225 432.819 9.86849C432.452 9.70715 432.162 9.48715 431.95 9.20849C431.737 8.92249 431.62 8.59615 431.598 8.22949H432.632C432.661 8.53015 432.8 8.77582 433.05 8.96649C433.306 9.15715 433.64 9.25249 434.051 9.25249C434.432 9.25249 434.733 9.16815 434.953 8.99949C435.173 8.83082 435.283 8.61815 435.283 8.36149C435.283 8.09749 435.165 7.90315 434.931 7.77849C434.696 7.64649 434.333 7.51815 433.842 7.39349C433.394 7.27615 433.028 7.15882 432.742 7.04149C432.463 6.91682 432.221 6.73715 432.016 6.50249C431.818 6.26049 431.719 5.94515 431.719 5.55649C431.719 5.24849 431.81 4.96615 431.994 4.70949C432.177 4.45282 432.437 4.25115 432.775 4.10449C433.112 3.95049 433.497 3.87349 433.93 3.87349C434.597 3.87349 435.136 4.04215 435.547 4.37949C435.957 4.71682 436.177 5.17882 436.207 5.76549H435.206C435.184 5.45015 435.055 5.19715 434.821 5.00649C434.593 4.81582 434.285 4.72049 433.897 4.72049C433.537 4.72049 433.251 4.79749 433.039 4.95149C432.826 5.10549 432.72 5.30715 432.72 5.55649C432.72 5.75449 432.782 5.91949 432.907 6.05149C433.039 6.17615 433.2 6.27882 433.391 6.35949C433.589 6.43282 433.86 6.51715 434.205 6.61249C434.637 6.72982 434.989 6.84715 435.261 6.96449C435.532 7.07449 435.763 7.24315 435.954 7.47049C436.152 7.69782 436.254 7.99482 436.262 8.36149C436.262 8.69149 436.17 8.98849 435.987 9.25249C435.803 9.51649 435.543 9.72549 435.206 9.87949C434.876 10.0262 434.494 10.0995 434.062 10.0995ZM438.225 2.99349C438.034 2.99349 437.873 2.92749 437.741 2.79549C437.609 2.66349 437.543 2.50215 437.543 2.31149C437.543 2.12082 437.609 1.95949 437.741 1.82749C437.873 1.69549 438.034 1.62949 438.225 1.62949C438.408 1.62949 438.562 1.69549 438.687 1.82749C438.819 1.95949 438.885 2.12082 438.885 2.31149C438.885 2.50215 438.819 2.66349 438.687 2.79549C438.562 2.92749 438.408 2.99349 438.225 2.99349ZM438.709 3.97249V10.0005H437.708V3.97249H438.709ZM442.934 3.87349C443.454 3.87349 443.909 3.98715 444.298 4.21449C444.694 4.44182 444.987 4.72782 445.178 5.07249V3.97249H446.19V10.1325C446.19 10.6825 446.072 11.1702 445.838 11.5955C445.603 12.0282 445.266 12.3655 444.826 12.6075C444.393 12.8495 443.887 12.9705 443.308 12.9705C442.516 12.9705 441.856 12.7835 441.328 12.4095C440.8 12.0355 440.488 11.5258 440.393 10.8805H441.383C441.493 11.2472 441.72 11.5405 442.065 11.7605C442.409 11.9878 442.824 12.1015 443.308 12.1015C443.858 12.1015 444.305 11.9292 444.65 11.5845C445.002 11.2398 445.178 10.7558 445.178 10.1325V8.86749C444.98 9.21949 444.686 9.51282 444.298 9.74749C443.909 9.98215 443.454 10.0995 442.934 10.0995C442.398 10.0995 441.911 9.96749 441.471 9.70349C441.038 9.43949 440.697 9.06915 440.448 8.59249C440.198 8.11582 440.074 7.57315 440.074 6.96449C440.074 6.34849 440.198 5.80949 440.448 5.34749C440.697 4.87815 441.038 4.51515 441.471 4.25849C441.911 4.00182 442.398 3.87349 442.934 3.87349ZM445.178 6.97549C445.178 6.52082 445.086 6.12482 444.903 5.78749C444.719 5.45015 444.47 5.19349 444.155 5.01749C443.847 4.83415 443.506 4.74249 443.132 4.74249C442.758 4.74249 442.417 4.83049 442.109 5.00649C441.801 5.18249 441.555 5.43915 441.372 5.77649C441.188 6.11382 441.097 6.50982 441.097 6.96449C441.097 7.42649 441.188 7.82982 441.372 8.17449C441.555 8.51182 441.801 8.77215 442.109 8.95549C442.417 9.13149 442.758 9.21949 443.132 9.21949C443.506 9.21949 443.847 9.13149 444.155 8.95549C444.47 8.77215 444.719 8.51182 444.903 8.17449C445.086 7.82982 445.178 7.43015 445.178 6.97549ZM450.906 3.86249C451.361 3.86249 451.772 3.96149 452.138 4.15949C452.505 4.35015 452.791 4.63982 452.996 5.02849C453.209 5.41715 453.315 5.89015 453.315 6.44749V10.0005H452.325V6.59049C452.325 5.98915 452.175 5.53082 451.874 5.21549C451.574 4.89282 451.163 4.73149 450.642 4.73149C450.114 4.73149 449.693 4.89649 449.377 5.22649C449.069 5.55649 448.915 6.03682 448.915 6.66749V10.0005H447.914V1.86049H448.915V4.83049C449.113 4.52249 449.385 4.28415 449.729 4.11549C450.081 3.94682 450.474 3.86249 450.906 3.86249ZM456.205 4.79749V8.35049C456.205 8.64382 456.267 8.85282 456.392 8.97749C456.516 9.09482 456.733 9.15349 457.041 9.15349H457.778V10.0005H456.876C456.318 10.0005 455.9 9.87215 455.622 9.61549C455.343 9.35882 455.204 8.93715 455.204 8.35049V4.79749H454.423V3.97249H455.204V2.45449H456.205V3.97249H457.778V4.79749H456.205ZM461.157 10.0995C460.695 10.0995 460.281 10.0225 459.914 9.86849C459.548 9.70715 459.258 9.48715 459.045 9.20849C458.833 8.92249 458.715 8.59615 458.693 8.22949H459.727C459.757 8.53015 459.896 8.77582 460.145 8.96649C460.402 9.15715 460.736 9.25249 461.146 9.25249C461.528 9.25249 461.828 9.16815 462.048 8.99949C462.268 8.83082 462.378 8.61815 462.378 8.36149C462.378 8.09749 462.261 7.90315 462.026 7.77849C461.792 7.64649 461.429 7.51815 460.937 7.39349C460.49 7.27615 460.123 7.15882 459.837 7.04149C459.559 6.91682 459.317 6.73715 459.111 6.50249C458.913 6.26049 458.814 5.94515 458.814 5.55649C458.814 5.24849 458.906 4.96615 459.089 4.70949C459.273 4.45282 459.533 4.25115 459.87 4.10449C460.208 3.95049 460.593 3.87349 461.025 3.87349C461.693 3.87349 462.232 4.04215 462.642 4.37949C463.053 4.71682 463.273 5.17882 463.302 5.76549H462.301C462.279 5.45015 462.151 5.19715 461.916 5.00649C461.689 4.81582 461.381 4.72049 460.992 4.72049C460.633 4.72049 460.347 4.79749 460.134 4.95149C459.922 5.10549 459.815 5.30715 459.815 5.55649C459.815 5.75449 459.878 5.91949 460.002 6.05149C460.134 6.17615 460.296 6.27882 460.486 6.35949C460.684 6.43282 460.956 6.51715 461.3 6.61249C461.733 6.72982 462.085 6.84715 462.356 6.96449C462.628 7.07449 462.859 7.24315 463.049 7.47049C463.247 7.69782 463.35 7.99482 463.357 8.36149C463.357 8.69149 463.266 8.98849 463.082 9.25249C462.899 9.51649 462.639 9.72549 462.301 9.87949C461.971 10.0262 461.59 10.0995 461.157 10.0995Z" fill="#666666"/>
<path d="M3.6483 10.077C3.1423 10.077 2.68763 9.989 2.2843 9.813C1.8883 9.62967 1.57663 9.38033 1.3493 9.065C1.12196 8.74233 1.00463 8.372 0.997297 7.954H2.0643C2.10096 8.31333 2.24763 8.61767 2.5043 8.867C2.7683 9.109 3.14963 9.23 3.6483 9.23C4.12496 9.23 4.49896 9.11267 4.7703 8.878C5.04896 8.636 5.1883 8.328 5.1883 7.954C5.1883 7.66067 5.10763 7.42233 4.9463 7.239C4.78496 7.05567 4.5833 6.91633 4.3413 6.821C4.0993 6.72567 3.77296 6.623 3.3623 6.513C2.8563 6.381 2.4493 6.249 2.1413 6.117C1.84063 5.985 1.5803 5.77967 1.3603 5.501C1.14763 5.215 1.0413 4.83367 1.0413 4.357C1.0413 3.939 1.14763 3.56867 1.3603 3.246C1.57296 2.92333 1.86996 2.674 2.2513 2.498C2.63996 2.322 3.08363 2.234 3.5823 2.234C4.30096 2.234 4.88763 2.41367 5.3423 2.773C5.8043 3.13233 6.06463 3.609 6.1233 4.203H5.0233C4.98663 3.90967 4.83263 3.653 4.5613 3.433C4.28996 3.20567 3.93063 3.092 3.4833 3.092C3.0653 3.092 2.7243 3.202 2.4603 3.422C2.1963 3.63467 2.0643 3.93533 2.0643 4.324C2.0643 4.60267 2.1413 4.83 2.2953 5.006C2.45663 5.182 2.65096 5.31767 2.8783 5.413C3.11296 5.501 3.4393 5.60367 3.8573 5.721C4.3633 5.86033 4.7703 5.99967 5.0783 6.139C5.3863 6.271 5.6503 6.48 5.8703 6.766C6.0903 7.04467 6.2003 7.426 6.2003 7.91C6.2003 8.284 6.1013 8.636 5.9033 8.966C5.7053 9.296 5.41196 9.56367 5.0233 9.769C4.63463 9.97433 4.1763 10.077 3.6483 10.077ZM10.3354 10.099C9.77068 10.099 9.25735 9.97067 8.79535 9.714C8.34068 9.45733 7.98135 9.09433 7.71735 8.625C7.46068 8.14833 7.33235 7.59833 7.33235 6.975C7.33235 6.359 7.46435 5.81633 7.72835 5.347C7.99968 4.87033 8.36635 4.50733 8.82835 4.258C9.29035 4.00133 9.80735 3.873 10.3794 3.873C10.9514 3.873 11.4684 4.00133 11.9304 4.258C12.3924 4.50733 12.7554 4.86667 13.0194 5.336C13.2907 5.80533 13.4264 6.35167 13.4264 6.975C13.4264 7.59833 13.287 8.14833 13.0084 8.625C12.737 9.09433 12.3667 9.45733 11.8974 9.714C11.428 9.97067 10.9074 10.099 10.3354 10.099ZM10.3354 9.219C10.6947 9.219 11.032 9.13467 11.3474 8.966C11.6627 8.79733 11.9157 8.54433 12.1064 8.207C12.3044 7.86967 12.4034 7.459 12.4034 6.975C12.4034 6.491 12.308 6.08033 12.1174 5.743C11.9267 5.40567 11.6774 5.15633 11.3694 4.995C11.0614 4.82633 10.7277 4.742 10.3684 4.742C10.0017 4.742 9.66435 4.82633 9.35635 4.995C9.05568 5.15633 8.81368 5.40567 8.63035 5.743C8.44702 6.08033 8.35535 6.491 8.35535 6.975C8.35535 7.46633 8.44335 7.88067 8.61935 8.218C8.80268 8.55533 9.04468 8.80833 9.34535 8.977C9.64602 9.13833 9.97602 9.219 10.3354 9.219ZM14.4015 6.975C14.4015 6.35167 14.5262 5.809 14.7755 5.347C15.0248 4.87767 15.3695 4.51467 15.8095 4.258C16.2568 4.00133 16.7665 3.873 17.3385 3.873C18.0792 3.873 18.6878 4.05267 19.1645 4.412C19.6485 4.77133 19.9675 5.27 20.1215 5.908H19.0435C18.9408 5.54133 18.7392 5.25167 18.4385 5.039C18.1452 4.82633 17.7785 4.72 17.3385 4.72C16.7665 4.72 16.3045 4.918 15.9525 5.314C15.6005 5.70267 15.4245 6.25633 15.4245 6.975C15.4245 7.701 15.6005 8.262 15.9525 8.658C16.3045 9.054 16.7665 9.252 17.3385 9.252C17.7785 9.252 18.1452 9.14933 18.4385 8.944C18.7318 8.73867 18.9335 8.44533 19.0435 8.064H20.1215C19.9602 8.68 19.6375 9.175 19.1535 9.549C18.6695 9.91567 18.0645 10.099 17.3385 10.099C16.7665 10.099 16.2568 9.97067 15.8095 9.714C15.3695 9.45733 15.0248 9.09433 14.7755 8.625C14.5262 8.15567 14.4015 7.60567 14.4015 6.975ZM22.0071 2.993C21.8165 2.993 21.6551 2.927 21.5231 2.795C21.3911 2.663 21.3251 2.50167 21.3251 2.311C21.3251 2.12033 21.3911 1.959 21.5231 1.827C21.6551 1.695 21.8165 1.629 22.0071 1.629C22.1905 1.629 22.3445 1.695 22.4691 1.827C22.6011 1.959 22.6671 2.12033 22.6671 2.311C22.6671 2.50167 22.6011 2.663 22.4691 2.795C22.3445 2.927 22.1905 2.993 22.0071 2.993ZM22.4911 3.972V10H21.4901V3.972H22.4911ZM23.8562 6.964C23.8562 6.348 23.9808 5.809 24.2302 5.347C24.4795 4.87767 24.8205 4.51467 25.2532 4.258C25.6932 4.00133 26.1808 3.873 26.7162 3.873C27.2442 3.873 27.7025 3.98667 28.0912 4.214C28.4798 4.44133 28.7695 4.72733 28.9602 5.072V3.972H29.9722V10H28.9602V8.878C28.7622 9.23 28.4652 9.52333 28.0692 9.758C27.6805 9.98533 27.2258 10.099 26.7052 10.099C26.1698 10.099 25.6858 9.967 25.2532 9.703C24.8205 9.439 24.4795 9.06867 24.2302 8.592C23.9808 8.11533 23.8562 7.57267 23.8562 6.964ZM28.9602 6.975C28.9602 6.52033 28.8685 6.12433 28.6852 5.787C28.5018 5.44967 28.2525 5.193 27.9372 5.017C27.6292 4.83367 27.2882 4.742 26.9142 4.742C26.5402 4.742 26.1992 4.83 25.8912 5.006C25.5832 5.182 25.3375 5.43867 25.1542 5.776C24.9708 6.11333 24.8792 6.50933 24.8792 6.964C24.8792 7.426 24.9708 7.82933 25.1542 8.174C25.3375 8.51133 25.5832 8.77167 25.8912 8.955C26.1992 9.131 26.5402 9.219 26.9142 9.219C27.2882 9.219 27.6292 9.131 27.9372 8.955C28.2525 8.77167 28.5018 8.51133 28.6852 8.174C28.8685 7.82933 28.9602 7.42967 28.9602 6.975ZM32.6978 1.86V10H31.6968V1.86H32.6978ZM44.6514 3.862C45.1207 3.862 45.5387 3.961 45.9054 4.159C46.2721 4.34967 46.5617 4.63933 46.7744 5.028C46.9871 5.41667 47.0934 5.88967 47.0934 6.447V10H46.1034V6.59C46.1034 5.98867 45.9531 5.53033 45.6524 5.215C45.3591 4.89233 44.9594 4.731 44.4534 4.731C43.9327 4.731 43.5184 4.89967 43.2104 5.237C42.9024 5.567 42.7484 6.04733 42.7484 6.678V10H41.7584V6.59C41.7584 5.98867 41.6081 5.53033 41.3074 5.215C41.0141 4.89233 40.6144 4.731 40.1084 4.731C39.5877 4.731 39.1734 4.89967 38.8654 5.237C38.5574 5.567 38.4034 6.04733 38.4034 6.678V10H37.4024V3.972H38.4034V4.841C38.6014 4.52567 38.8654 4.28367 39.1954 4.115C39.5327 3.94633 39.9031 3.862 40.3064 3.862C40.8124 3.862 41.2597 3.97567 41.6484 4.203C42.0371 4.43033 42.3267 4.764 42.5174 5.204C42.6861 4.77867 42.9647 4.44867 43.3534 4.214C43.7421 3.97933 44.1747 3.862 44.6514 3.862ZM54.2684 6.755C54.2684 6.94567 54.2574 7.14733 54.2354 7.36H49.4174C49.4541 7.954 49.6557 8.41967 50.0224 8.757C50.3964 9.087 50.8474 9.252 51.3754 9.252C51.8081 9.252 52.1674 9.153 52.4534 8.955C52.7467 8.74967 52.9521 8.47833 53.0694 8.141H54.1474C53.9861 8.72033 53.6634 9.19333 53.1794 9.56C52.6954 9.91933 52.0941 10.099 51.3754 10.099C50.8034 10.099 50.2901 9.97067 49.8354 9.714C49.3881 9.45733 49.0361 9.09433 48.7794 8.625C48.5227 8.14833 48.3944 7.59833 48.3944 6.975C48.3944 6.35167 48.5191 5.80533 48.7684 5.336C49.0177 4.86667 49.3661 4.50733 49.8134 4.258C50.2681 4.00133 50.7887 3.873 51.3754 3.873C51.9474 3.873 52.4534 3.99767 52.8934 4.247C53.3334 4.49633 53.6707 4.841 53.9054 5.281C54.1474 5.71367 54.2684 6.205 54.2684 6.755ZM53.2344 6.546C53.2344 6.16467 53.1501 5.83833 52.9814 5.567C52.8127 5.28833 52.5817 5.07933 52.2884 4.94C52.0024 4.79333 51.6834 4.72 51.3314 4.72C50.8254 4.72 50.3927 4.88133 50.0334 5.204C49.6814 5.52667 49.4797 5.974 49.4284 6.546H53.2344ZM55.2487 6.964C55.2487 6.348 55.3734 5.809 55.6227 5.347C55.872 4.87767 56.213 4.51467 56.6457 4.258C57.0857 4.00133 57.577 3.873 58.1197 3.873C58.589 3.873 59.0254 3.983 59.4287 4.203C59.832 4.41567 60.14 4.698 60.3527 5.05V1.86H61.3647V10H60.3527V8.867C60.1547 9.22633 59.8614 9.52333 59.4727 9.758C59.084 9.98533 58.6294 10.099 58.1087 10.099C57.5734 10.099 57.0857 9.967 56.6457 9.703C56.213 9.439 55.872 9.06867 55.6227 8.592C55.3734 8.11533 55.2487 7.57267 55.2487 6.964ZM60.3527 6.975C60.3527 6.52033 60.261 6.12433 60.0777 5.787C59.8944 5.44967 59.645 5.193 59.3297 5.017C59.0217 4.83367 58.6807 4.742 58.3067 4.742C57.9327 4.742 57.5917 4.83 57.2837 5.006C56.9757 5.182 56.73 5.43867 56.5467 5.776C56.3634 6.11333 56.2717 6.50933 56.2717 6.964C56.2717 7.426 56.3634 7.82933 56.5467 8.174C56.73 8.51133 56.9757 8.77167 57.2837 8.955C57.5917 9.131 57.9327 9.219 58.3067 9.219C58.6807 9.219 59.0217 9.131 59.3297 8.955C59.645 8.77167 59.8944 8.51133 60.0777 8.174C60.261 7.82933 60.3527 7.42967 60.3527 6.975ZM63.6063 2.993C63.4156 2.993 63.2543 2.927 63.1223 2.795C62.9903 2.663 62.9243 2.50167 62.9243 2.311C62.9243 2.12033 62.9903 1.959 63.1223 1.827C63.2543 1.695 63.4156 1.629 63.6063 1.629C63.7896 1.629 63.9436 1.695 64.0683 1.827C64.2003 1.959 64.2663 2.12033 64.2663 2.311C64.2663 2.50167 64.2003 2.663 64.0683 2.795C63.9436 2.927 63.7896 2.993 63.6063 2.993ZM64.0903 3.972V10H63.0893V3.972H64.0903ZM65.4553 6.964C65.4553 6.348 65.58 5.809 65.8293 5.347C66.0786 4.87767 66.4196 4.51467 66.8523 4.258C67.2923 4.00133 67.78 3.873 68.3153 3.873C68.8433 3.873 69.3016 3.98667 69.6903 4.214C70.079 4.44133 70.3686 4.72733 70.5593 5.072V3.972H71.5713V10H70.5593V8.878C70.3613 9.23 70.0643 9.52333 69.6683 9.758C69.2796 9.98533 68.825 10.099 68.3043 10.099C67.769 10.099 67.285 9.967 66.8523 9.703C66.4196 9.439 66.0786 9.06867 65.8293 8.592C65.58 8.11533 65.4553 7.57267 65.4553 6.964ZM70.5593 6.975C70.5593 6.52033 70.4676 6.12433 70.2843 5.787C70.101 5.44967 69.8516 5.193 69.5363 5.017C69.2283 4.83367 68.8873 4.742 68.5133 4.742C68.1393 4.742 67.7983 4.83 67.4903 5.006C67.1823 5.182 66.9366 5.43867 66.7533 5.776C66.57 6.11333 66.4783 6.50933 66.4783 6.964C66.4783 7.426 66.57 7.82933 66.7533 8.174C66.9366 8.51133 67.1823 8.77167 67.4903 8.955C67.7983 9.131 68.1393 9.219 68.5133 9.219C68.8873 9.219 69.2283 9.131 69.5363 8.955C69.8516 8.77167 70.101 8.51133 70.2843 8.174C70.4676 7.82933 70.5593 7.42967 70.5593 6.975ZM75.8875 6.964C75.8875 6.348 76.0122 5.809 76.2615 5.347C76.5109 4.87767 76.8519 4.51467 77.2845 4.258C77.7245 4.00133 78.2122 3.873 78.7475 3.873C79.2755 3.873 79.7339 3.98667 80.1225 4.214C80.5112 4.44133 80.8009 4.72733 80.9915 5.072V3.972H82.0035V10H80.9915V8.878C80.7935 9.23 80.4965 9.52333 80.1005 9.758C79.7119 9.98533 79.2572 10.099 78.7365 10.099C78.2012 10.099 77.7172 9.967 77.2845 9.703C76.8519 9.439 76.5109 9.06867 76.2615 8.592C76.0122 8.11533 75.8875 7.57267 75.8875 6.964ZM80.9915 6.975C80.9915 6.52033 80.8999 6.12433 80.7165 5.787C80.5332 5.44967 80.2839 5.193 79.9685 5.017C79.6605 4.83367 79.3195 4.742 78.9455 4.742C78.5715 4.742 78.2305 4.83 77.9225 5.006C77.6145 5.182 77.3689 5.43867 77.1855 5.776C77.0022 6.11333 76.9105 6.50933 76.9105 6.964C76.9105 7.426 77.0022 7.82933 77.1855 8.174C77.3689 8.51133 77.6145 8.77167 77.9225 8.955C78.2305 9.131 78.5715 9.219 78.9455 9.219C79.3195 9.219 79.6605 9.131 79.9685 8.955C80.2839 8.77167 80.5332 8.51133 80.7165 8.174C80.8999 7.82933 80.9915 7.42967 80.9915 6.975ZM86.6651 3.862C87.3985 3.862 87.9925 4.08567 88.4471 4.533C88.9018 4.973 89.1291 5.611 89.1291 6.447V10H88.1391V6.59C88.1391 5.98867 87.9888 5.53033 87.6881 5.215C87.3875 4.89233 86.9768 4.731 86.4561 4.731C85.9281 4.731 85.5065 4.896 85.1911 5.226C84.8831 5.556 84.7291 6.03633 84.7291 6.667V10H83.7281V3.972H84.7291V4.83C84.9271 4.522 85.1948 4.28367 85.5321 4.115C85.8768 3.94633 86.2545 3.862 86.6651 3.862ZM90.4233 6.964C90.4233 6.348 90.5479 5.809 90.7973 5.347C91.0466 4.87767 91.3876 4.51467 91.8203 4.258C92.2603 4.00133 92.7479 3.873 93.2833 3.873C93.8113 3.873 94.2696 3.98667 94.6583 4.214C95.0469 4.44133 95.3366 4.72733 95.5273 5.072V3.972H96.5393V10H95.5273V8.878C95.3293 9.23 95.0323 9.52333 94.6363 9.758C94.2476 9.98533 93.7929 10.099 93.2723 10.099C92.7369 10.099 92.2529 9.967 91.8203 9.703C91.3876 9.439 91.0466 9.06867 90.7973 8.592C90.5479 8.11533 90.4233 7.57267 90.4233 6.964ZM95.5273 6.975C95.5273 6.52033 95.4356 6.12433 95.2523 5.787C95.0689 5.44967 94.8196 5.193 94.5043 5.017C94.1963 4.83367 93.8553 4.742 93.4813 4.742C93.1073 4.742 92.7663 4.83 92.4583 5.006C92.1503 5.182 91.9046 5.43867 91.7213 5.776C91.5379 6.11333 91.4463 6.50933 91.4463 6.964C91.4463 7.426 91.5379 7.82933 91.7213 8.174C91.9046 8.51133 92.1503 8.77167 92.4583 8.955C92.7663 9.131 93.1073 9.219 93.4813 9.219C93.8553 9.219 94.1963 9.131 94.5043 8.955C94.8196 8.77167 95.0689 8.51133 95.2523 8.174C95.4356 7.82933 95.5273 7.42967 95.5273 6.975ZM99.2649 1.86V10H98.2639V1.86H99.2649ZM106.196 3.972L102.566 12.838H101.532L102.72 9.934L100.289 3.972H101.4L103.292 8.856L105.162 3.972H106.196ZM108.456 4.797V8.35C108.456 8.64333 108.518 8.85233 108.643 8.977C108.768 9.09433 108.984 9.153 109.292 9.153H110.029V10H109.127C108.57 10 108.152 9.87167 107.873 9.615C107.594 9.35833 107.455 8.93667 107.455 8.35V4.797H106.674V3.972H107.455V2.454H108.456V3.972H110.029V4.797H108.456ZM111.792 2.993C111.601 2.993 111.44 2.927 111.308 2.795C111.176 2.663 111.11 2.50167 111.11 2.311C111.11 2.12033 111.176 1.959 111.308 1.827C111.44 1.695 111.601 1.629 111.792 1.629C111.975 1.629 112.129 1.695 112.254 1.827C112.386 1.959 112.452 2.12033 112.452 2.311C112.452 2.50167 112.386 2.663 112.254 2.795C112.129 2.927 111.975 2.993 111.792 2.993ZM112.276 3.972V10H111.275V3.972H112.276ZM113.641 6.975C113.641 6.35167 113.766 5.809 114.015 5.347C114.264 4.87767 114.609 4.51467 115.049 4.258C115.496 4.00133 116.006 3.873 116.578 3.873C117.319 3.873 117.927 4.05267 118.404 4.412C118.888 4.77133 119.207 5.27 119.361 5.908H118.283C118.18 5.54133 117.979 5.25167 117.678 5.039C117.385 4.82633 117.018 4.72 116.578 4.72C116.006 4.72 115.544 4.918 115.192 5.314C114.84 5.70267 114.664 6.25633 114.664 6.975C114.664 7.701 114.84 8.262 115.192 8.658C115.544 9.054 116.006 9.252 116.578 9.252C117.018 9.252 117.385 9.14933 117.678 8.944C117.971 8.73867 118.173 8.44533 118.283 8.064H119.361C119.2 8.68 118.877 9.175 118.393 9.549C117.909 9.91567 117.304 10.099 116.578 10.099C116.006 10.099 115.496 9.97067 115.049 9.714C114.609 9.45733 114.264 9.09433 114.015 8.625C113.766 8.15567 113.641 7.60567 113.641 6.975ZM122.864 10.099C122.402 10.099 121.987 10.022 121.621 9.868C121.254 9.70667 120.964 9.48667 120.752 9.208C120.539 8.922 120.422 8.59567 120.4 8.229H121.434C121.463 8.52967 121.602 8.77533 121.852 8.966C122.108 9.15667 122.442 9.252 122.853 9.252C123.234 9.252 123.535 9.16767 123.755 8.999C123.975 8.83033 124.085 8.61767 124.085 8.361C124.085 8.097 123.967 7.90267 123.733 7.778C123.498 7.646 123.135 7.51767 122.644 7.393C122.196 7.27567 121.83 7.15833 121.544 7.041C121.265 6.91633 121.023 6.73667 120.818 6.502C120.62 6.26 120.521 5.94467 120.521 5.556C120.521 5.248 120.612 4.96567 120.796 4.709C120.979 4.45233 121.239 4.25067 121.577 4.104C121.914 3.95 122.299 3.873 122.732 3.873C123.399 3.873 123.938 4.04167 124.349 4.379C124.759 4.71633 124.979 5.17833 125.009 5.765H124.008C123.986 5.44967 123.857 5.19667 123.623 5.006C123.395 4.81533 123.087 4.72 122.699 4.72C122.339 4.72 122.053 4.797 121.841 4.951C121.628 5.105 121.522 5.30667 121.522 5.556C121.522 5.754 121.584 5.919 121.709 6.051C121.841 6.17567 122.002 6.27833 122.193 6.359C122.391 6.43233 122.662 6.51667 123.007 6.612C123.439 6.72933 123.791 6.84667 124.063 6.964C124.334 7.074 124.565 7.24267 124.756 7.47C124.954 7.69733 125.056 7.99433 125.064 8.361C125.064 8.691 124.972 8.988 124.789 9.252C124.605 9.516 124.345 9.725 124.008 9.879C123.678 10.0257 123.296 10.099 122.864 10.099Z" fill="#666666"/>
</svg>
