<svg width="16" height="14" viewBox="0 0 16 14" fill="none" xmlns="http://www.w3.org/2000/svg">
<path fill-rule="evenodd" clip-rule="evenodd" d="M11.3489 0.333496C13.6205 0.333496 15.3334 2.19127 15.3334 4.65486V9.35093C15.3334 10.6118 14.8886 11.7509 14.0803 12.5591C13.3551 13.2832 12.4144 13.6668 11.3598 13.6668H4.63834C3.58576 13.6668 2.64572 13.2839 1.9199 12.5591C1.11152 11.7509 0.666748 10.6118 0.666748 9.35093V4.65486C0.666748 2.19127 2.37968 0.333496 4.65131 0.333496H11.3489ZM11.3489 1.35914H4.65131C2.93565 1.35914 1.69 2.74512 1.69 4.65486V9.35093C1.69 10.3376 2.02836 11.219 2.64231 11.8323C3.17168 12.3622 3.86272 12.6412 4.64039 12.6412H11.3489C11.3502 12.6398 11.3557 12.6412 11.3598 12.6412C12.1381 12.6412 12.8285 12.3622 13.3578 11.8323C13.9725 11.219 14.3102 10.3376 14.3102 9.35093V4.65486C14.3102 2.74512 13.0645 1.35914 11.3489 1.35914ZM12.424 4.52413C12.602 4.74362 12.5686 5.06635 12.3496 5.2455L9.31803 7.71524C8.93465 8.0202 8.47624 8.17268 8.0185 8.17268C7.56213 8.17268 7.10712 8.02157 6.72647 7.71934L3.66693 5.24686C3.44659 5.06909 3.41248 4.74567 3.58917 4.5255C3.76721 4.30601 4.0892 4.27114 4.30886 4.44823L7.36566 6.91798C7.74972 7.22293 8.29069 7.22293 8.67748 6.91524L11.7036 4.4496C11.9232 4.26977 12.2452 4.30396 12.424 4.52413Z" fill="#667085"/>
</svg>
