<svg width="12" height="16" viewBox="0 0 12 16" fill="none" xmlns="http://www.w3.org/2000/svg">
<path fill-rule="evenodd" clip-rule="evenodd" d="M6.0089 0.667799C8.10396 0.667799 9.81015 2.41153 9.81015 4.55489L9.81007 5.71098C11.0838 6.164 12 7.40324 12 8.85761V12.0026C12 13.8395 10.5385 15.3332 8.74117 15.3332H3.25883C1.46152 15.3332 0 13.8395 0 12.0026V8.85761C0 7.40351 0.915889 6.16447 2.18921 5.71123L2.1897 4.55489C2.19401 3.49898 2.59365 2.52445 3.31473 1.79411C4.03652 1.06304 4.98935 0.639935 6.0089 0.667799ZM8.74117 6.62699H3.25883C2.05489 6.62699 1.07623 7.62717 1.07623 8.85761V12.0026C1.07623 13.2331 2.05489 14.2333 3.25883 14.2333H8.74117C9.94439 14.2333 10.9238 13.2331 10.9238 12.0026V8.85761C10.9238 7.62717 9.94439 6.62699 8.74117 6.62699ZM5.99986 9.06571C6.2969 9.06571 6.53797 9.31209 6.53797 9.61567V11.2443C6.53797 11.5479 6.2969 11.7942 5.99986 11.7942C5.70282 11.7942 5.46174 11.5479 5.46174 11.2443V9.61567C5.46174 9.31209 5.70282 9.06571 5.99986 9.06571ZM6.00674 1.76771H5.99526C5.26845 1.76771 4.58755 2.05369 4.07311 2.57505C3.55509 3.09861 3.26881 3.79742 3.26594 4.54243L3.26529 5.52666H8.73327L8.73392 4.55489C8.73392 3.01795 7.5106 1.76771 6.00674 1.76771Z" fill="#667085"/>
</svg>
