<svg width="201" height="34" viewBox="0 0 201 34" fill="none" xmlns="http://www.w3.org/2000/svg">
<path d="M66.64 12.14C66.08 10.852 65.2213 9.844 64.064 9.116C62.9253 8.36933 61.5813 7.996 60.032 7.996C58.576 7.996 57.2693 8.332 56.112 9.004C54.9547 9.676 54.04 10.6373 53.368 11.888C52.696 13.12 52.36 14.5573 52.36 16.2C52.36 17.8427 52.696 19.2893 53.368 20.54C54.04 21.7907 54.9547 22.752 56.112 23.424C57.2693 24.096 58.576 24.432 60.032 24.432C61.3947 24.432 62.6173 24.1427 63.7 23.564C64.8013 22.9667 65.6787 22.1267 66.332 21.044C67.004 19.9427 67.3867 18.664 67.48 17.208H59.248V15.612H69.552V17.04C69.4587 18.7573 68.992 20.316 68.152 21.716C67.312 23.0973 66.1827 24.1893 64.764 24.992C63.364 25.7947 61.7867 26.196 60.032 26.196C58.2213 26.196 56.5787 25.776 55.104 24.936C53.6293 24.0773 52.4627 22.892 51.604 21.38C50.764 19.8493 50.344 18.1227 50.344 16.2C50.344 14.2773 50.764 12.56 51.604 11.048C52.4627 9.51733 53.6293 8.332 55.104 7.492C56.5787 6.63333 58.2213 6.204 60.032 6.204C62.1227 6.204 63.952 6.72667 65.52 7.772C67.088 8.81733 68.2267 10.2733 68.936 12.14H66.64ZM75.1023 13.428C75.5317 12.476 76.185 11.7387 77.0623 11.216C77.9583 10.6933 79.0503 10.432 80.3383 10.432V12.476H79.8063C78.3877 12.476 77.249 12.8587 76.3903 13.624C75.5317 14.3893 75.1023 15.668 75.1023 17.46V26H73.1423V10.712H75.1023V13.428ZM89.9789 26.224C88.5415 26.224 87.2442 25.9067 86.0869 25.272C84.9482 24.6187 84.0429 23.704 83.3709 22.528C82.7175 21.3333 82.3909 19.9427 82.3909 18.356C82.3909 16.7693 82.7269 15.388 83.3989 14.212C84.0709 13.0173 84.9855 12.1027 86.1429 11.468C87.3002 10.8147 88.5975 10.488 90.0349 10.488C91.4722 10.488 92.7695 10.8147 93.9269 11.468C95.1029 12.1027 96.0175 13.0173 96.6709 14.212C97.3429 15.388 97.6789 16.7693 97.6789 18.356C97.6789 19.924 97.3429 21.3053 96.6709 22.5C95.9989 23.6947 95.0749 24.6187 93.8989 25.272C92.7229 25.9067 91.4162 26.224 89.9789 26.224ZM89.9789 24.516C90.9869 24.516 91.9202 24.292 92.7789 23.844C93.6375 23.3773 94.3282 22.6867 94.8509 21.772C95.3922 20.8387 95.6629 19.7 95.6629 18.356C95.6629 17.012 95.4015 15.8827 94.8789 14.968C94.3562 14.0347 93.6655 13.344 92.8069 12.896C91.9482 12.4293 91.0149 12.196 90.0069 12.196C88.9989 12.196 88.0655 12.4293 87.2069 12.896C86.3482 13.344 85.6575 14.0347 85.1349 14.968C84.6309 15.8827 84.3789 17.012 84.3789 18.356C84.3789 19.7 84.6309 20.8387 85.1349 21.772C85.6575 22.6867 86.3389 23.3773 87.1789 23.844C88.0375 24.292 88.9709 24.516 89.9789 24.516ZM121.412 10.712L116.624 26H114.664L110.436 13.176L106.208 26H104.22L99.4317 10.712H101.42L105.228 24.012L109.512 10.712H111.472L115.7 24.04L119.48 10.712H121.412Z" fill="#14171B"/>
<path d="M130.356 26.196C129.049 26.196 127.873 25.972 126.828 25.524C125.782 25.0573 124.961 24.404 124.364 23.564C123.766 22.724 123.468 21.744 123.468 20.624H126.884C126.958 21.464 127.285 22.1547 127.864 22.696C128.461 23.2373 129.292 23.508 130.356 23.508C131.457 23.508 132.316 23.2467 132.932 22.724C133.548 22.1827 133.856 21.492 133.856 20.652C133.856 19.9987 133.66 19.4667 133.268 19.056C132.894 18.6453 132.418 18.328 131.84 18.104C131.28 17.88 130.496 17.6373 129.488 17.376C128.218 17.04 127.182 16.704 126.38 16.368C125.596 16.0133 124.924 15.472 124.364 14.744C123.804 14.016 123.524 13.0453 123.524 11.832C123.524 10.712 123.804 9.732 124.364 8.892C124.924 8.052 125.708 7.408 126.716 6.96C127.724 6.512 128.89 6.288 130.216 6.288C132.101 6.288 133.641 6.764 134.836 7.716C136.049 8.64933 136.721 9.93733 136.852 11.58H133.324C133.268 10.8707 132.932 10.264 132.316 9.76C131.7 9.256 130.888 9.004 129.88 9.004C128.965 9.004 128.218 9.23733 127.64 9.704C127.061 10.1707 126.772 10.8427 126.772 11.72C126.772 12.3173 126.949 12.812 127.304 13.204C127.677 13.5773 128.144 13.876 128.704 14.1C129.264 14.324 130.029 14.5667 131 14.828C132.288 15.1827 133.333 15.5373 134.136 15.892C134.957 16.2467 135.648 16.7973 136.208 17.544C136.786 18.272 137.076 19.252 137.076 20.484C137.076 21.4733 136.805 22.4067 136.264 23.284C135.741 24.1613 134.966 24.8707 133.94 25.412C132.932 25.9347 131.737 26.196 130.356 26.196ZM144.566 13.176V21.716C144.566 22.2947 144.697 22.7147 144.958 22.976C145.238 23.2187 145.705 23.34 146.358 23.34H148.318V26H145.798C144.361 26 143.26 25.664 142.494 24.992C141.729 24.32 141.346 23.228 141.346 21.716V13.176H139.526V10.572H141.346V6.736H144.566V10.572H148.318V13.176H144.566ZM150.196 18.216C150.196 16.6667 150.513 15.2947 151.148 14.1C151.801 12.9053 152.679 11.9813 153.78 11.328C154.9 10.656 156.132 10.32 157.476 10.32C158.689 10.32 159.744 10.5627 160.64 11.048C161.555 11.5147 162.283 12.1027 162.824 12.812V10.572H166.044V26H162.824V23.704C162.283 24.432 161.545 25.0387 160.612 25.524C159.679 26.0093 158.615 26.252 157.42 26.252C156.095 26.252 154.881 25.916 153.78 25.244C152.679 24.5533 151.801 23.6013 151.148 22.388C150.513 21.156 150.196 19.7653 150.196 18.216ZM162.824 18.272C162.824 17.208 162.6 16.284 162.152 15.5C161.723 14.716 161.153 14.1187 160.444 13.708C159.735 13.2973 158.969 13.092 158.148 13.092C157.327 13.092 156.561 13.2973 155.852 13.708C155.143 14.1 154.564 14.688 154.116 15.472C153.687 16.2373 153.472 17.152 153.472 18.216C153.472 19.28 153.687 20.2133 154.116 21.016C154.564 21.8187 155.143 22.4347 155.852 22.864C156.58 23.2747 157.345 23.48 158.148 23.48C158.969 23.48 159.735 23.2747 160.444 22.864C161.153 22.4533 161.723 21.856 162.152 21.072C162.6 20.2693 162.824 19.336 162.824 18.272ZM169.173 18.272C169.173 16.6853 169.49 15.2947 170.125 14.1C170.778 12.8867 171.674 11.9533 172.813 11.3C173.951 10.6467 175.258 10.32 176.733 10.32C178.599 10.32 180.139 10.768 181.353 11.664C182.585 12.5413 183.415 13.8013 183.845 15.444H180.401C180.121 14.6787 179.673 14.0813 179.057 13.652C178.441 13.2227 177.666 13.008 176.733 13.008C175.426 13.008 174.381 13.4747 173.597 14.408C172.831 15.3227 172.449 16.6107 172.449 18.272C172.449 19.9333 172.831 21.2307 173.597 22.164C174.381 23.0973 175.426 23.564 176.733 23.564C178.581 23.564 179.803 22.752 180.401 21.128H183.845C183.397 22.696 182.557 23.9467 181.325 24.88C180.093 25.7947 178.562 26.252 176.733 26.252C175.258 26.252 173.951 25.9253 172.813 25.272C171.674 24.6 170.778 23.6667 170.125 22.472C169.49 21.2587 169.173 19.8587 169.173 18.272ZM193.13 18.3L200.242 26H195.93L190.218 19.364V26H187.026V5.28H190.218V17.32L195.818 10.572H200.242L193.13 18.3Z" fill="#034737"/>
<path fill-rule="evenodd" clip-rule="evenodd" d="M17 34C26.3888 34 34 26.3888 34 17C34 7.61116 26.3888 0 17 0C7.61116 0 0 7.61116 0 17C0 26.3888 7.61116 34 17 34ZM18.001 3C15.6676 7.16667 13.401 16.4 23.001 20L18.001 31.5L3 17.5C4.00064 13.1667 8.40174 4.2 18.001 3Z" fill="#034737"/>
</svg>
