<svg width="17" height="16" viewBox="0 0 17 16" fill="none" xmlns="http://www.w3.org/2000/svg">
<path fill-rule="evenodd" clip-rule="evenodd" d="M15.86 8.17414C15.86 7.6305 15.8112 7.10778 15.7206 6.60596H8.5V9.57156H12.6261C12.4483 10.5299 11.9082 11.3419 11.0962 11.8855V13.8091H13.5739C15.0236 12.4744 15.86 10.509 15.86 8.17414Z" fill="#4285F4"/>
<path fill-rule="evenodd" clip-rule="evenodd" d="M8.49989 15.6665C10.5699 15.6665 12.3053 14.98 13.5738 13.8091L11.0961 11.8855C10.4096 12.3455 9.53141 12.6173 8.49989 12.6173C6.50308 12.6173 4.81292 11.2687 4.21005 9.45654H1.64868V11.4429C2.9102 13.9485 5.50292 15.6665 8.49989 15.6665Z" fill="#34A853"/>
<path fill-rule="evenodd" clip-rule="evenodd" d="M4.21007 9.45683C4.05674 8.99683 3.96962 8.50546 3.96962 8.00016C3.96962 7.49486 4.05674 7.00349 4.21007 6.54349V4.55713H1.64871C1.12946 5.59213 0.833252 6.76304 0.833252 8.00016C0.833252 9.23728 1.12946 10.4082 1.64871 11.4432L4.21007 9.45683Z" fill="#FBBC05"/>
<path fill-rule="evenodd" clip-rule="evenodd" d="M8.49989 3.38274C9.6255 3.38274 10.6361 3.76956 11.4307 4.52925L13.6296 2.33031C12.3019 1.09319 10.5664 0.333496 8.49989 0.333496C5.50292 0.333496 2.9102 2.05153 1.64868 4.55713L4.21005 6.5435C4.81292 4.73137 6.50308 3.38274 8.49989 3.38274Z" fill="#EA4335"/>
</svg>
