<svg width="20" height="19" viewBox="0 0 20 19" fill="none" xmlns="http://www.w3.org/2000/svg">
<path d="M0.555625 12.2197H2.77771C3.08448 12.2197 3.33333 12.4683 3.33333 12.7751V18.3307C3.33333 18.6375 3.08453 18.8864 2.77771 18.8864H0.555625C0.248854 18.8864 0 18.6376 0 18.3307V12.7751C0 12.4683 0.248802 12.2197 0.555625 12.2197ZM6.11104 7.7751H8.33333C8.6401 7.7751 8.88896 8.02391 8.88896 8.33073V18.3307C8.88896 18.6375 8.64016 18.8864 8.33333 18.8864H6.11104C5.80427 18.8864 5.55562 18.6376 5.55562 18.3307V8.33073C5.55562 8.02396 5.80422 7.7751 6.11104 7.7751ZM11.6667 9.9974H13.889C14.1957 9.9974 14.4444 10.2462 14.4444 10.553V18.3307C14.4444 18.6375 14.1958 18.8864 13.889 18.8864H11.6667C11.3599 18.8864 11.111 18.6376 11.111 18.3307V10.553C11.111 10.2463 11.3598 9.9974 11.6667 9.9974ZM17.2223 6.66406H19.4444C19.7511 6.66406 20 6.91286 20 7.21969V18.3307C20 18.6375 19.7512 18.8864 19.4444 18.8864H17.2223C16.9155 18.8864 16.6667 18.6376 16.6667 18.3307V7.21969C16.6667 6.91292 16.9155 6.66406 17.2223 6.66406Z" fill="#27C9AA"/>
<path d="M18.3333 0C17.4133 0.00104167 16.6677 0.746667 16.6667 1.66667C16.6689 1.84813 16.701 2.02802 16.7619 2.19891L13.9807 3.85208C13.8008 3.66125 13.578 3.51599 13.3308 3.42831C13.0836 3.34063 12.8191 3.31306 12.5591 3.34787C12.2991 3.38268 12.0512 3.47888 11.8358 3.6285C11.6203 3.77812 11.4436 3.97688 11.3202 4.20833L8.86719 2.99339C8.87917 2.92198 8.8863 2.84995 8.88896 2.77771C8.88959 2.44784 8.79232 2.12521 8.60947 1.85066C8.42662 1.57611 8.16641 1.36199 7.86179 1.23542C7.55717 1.10885 7.22184 1.07552 6.89827 1.13965C6.5747 1.20378 6.27743 1.36249 6.04411 1.59568C5.81074 1.82881 5.65182 2.12597 5.58749 2.44951C5.52316 2.77305 5.55632 3.1084 5.68276 3.41307L2.50083 5.78776C2.24845 5.63739 1.96045 5.55724 1.66667 5.55563C0.74625 5.55563 0 6.30167 0 7.22229C0 8.14271 0.74625 8.88896 1.66667 8.88896C2.58708 8.88896 3.33333 8.14271 3.33333 7.22229C3.33191 7.02182 3.29406 6.82328 3.22161 6.63635L6.43536 4.23792C7.06401 4.58844 7.84812 4.48568 8.36505 3.98479L11.1546 5.36641C11.3405 6.19469 12.1199 6.75047 12.9636 6.65651C13.8074 6.5625 14.4454 5.84901 14.4444 5C14.4444 4.95766 14.435 4.91781 14.432 4.8763L17.4569 3.07802C17.7192 3.24386 18.023 3.33235 18.3333 3.33333C19.2537 3.33333 20 2.58708 20 1.66667C20 0.74625 19.2537 0 18.3333 0Z" fill="#27C9AA"/>
</svg>
