<svg width="21" height="18" viewBox="0 0 21 18" fill="none" xmlns="http://www.w3.org/2000/svg">
<path d="M6.86872 10.6313C7.21043 10.973 7.21043 11.527 6.86872 11.8687C6.52701 12.2104 5.97299 12.2104 5.63128 11.8687L6.86872 10.6313ZM1.25 6.25L0.63128 6.86872C0.467185 6.70462 0.374998 6.48206 0.374998 6.25C0.374998 6.01793 0.467186 5.79537 0.631281 5.63128L1.25 6.25ZM5.63128 0.63128C5.97299 0.289572 6.52701 0.289572 6.86872 0.63128C7.21043 0.972989 7.21043 1.52701 6.86872 1.86872L5.63128 0.63128ZM1.25 7.125C0.766748 7.125 0.374998 6.73325 0.374998 6.25C0.374998 5.76675 0.766748 5.375 1.25 5.375L1.25 7.125ZM15 16.25L15 17.125L15 16.25ZM13.75 17.125C13.2667 17.125 12.875 16.7332 12.875 16.25C12.875 15.7667 13.2667 15.375 13.75 15.375L13.75 17.125ZM5.63128 11.8687L0.63128 6.86872L1.86872 5.63128L6.86872 10.6313L5.63128 11.8687ZM0.631281 5.63128L5.63128 0.63128L6.86872 1.86872L1.86872 6.86872L0.631281 5.63128ZM1.25 5.375L15 5.375L15 7.125L1.25 7.125L1.25 5.375ZM15 5.375C18.2447 5.375 20.875 8.00533 20.875 11.25L19.125 11.25C19.125 8.97182 17.2782 7.125 15 7.125L15 5.375ZM20.875 11.25C20.875 14.4947 18.2447 17.125 15 17.125L15 15.375C17.2782 15.375 19.125 13.5282 19.125 11.25L20.875 11.25ZM15 17.125L13.75 17.125L13.75 15.375L15 15.375L15 17.125Z" fill="#212833"/>
</svg>
