<svg width="18" height="20" viewBox="0 0 18 20" fill="none" xmlns="http://www.w3.org/2000/svg">
<path d="M15.9375 1.21875H15.6562V1.15625C15.6562 0.53125 15.125 0 14.5 0H2.09375C1.46875 0 0.9375 0.53125 0.9375 1.15625V17.4688C0.9375 18.0938 1.46875 18.625 2.09375 18.625H2.28125V18.875C2.28125 19.5 2.78125 20 3.40625 20H15.9375C16.5625 20 17.0625 19.5 17.0625 18.875V2.34375C17.0625 1.71875 16.5625 1.21875 15.9375 1.21875ZM1.71875 17.4688V1.15625C1.71875 0.9375 1.875 0.78125 2.09375 0.78125H14.5C14.7187 0.78125 14.875 0.96875 14.875 1.15625V17.4688C14.875 17.6875 14.6875 17.8438 14.5 17.8438H2.09375C1.875 17.875 1.71875 17.6875 1.71875 17.4688Z" fill="#B785FF"/>
<path d="M2.875 5.28125H14.1562C14.3125 5.28125 14.4375 5.15625 14.4375 5V3.0625C14.4375 2.90625 14.3125 2.78125 14.1562 2.78125H2.875C2.71875 2.78125 2.59375 2.90625 2.59375 3.0625V5C2.59375 5.15625 2.71875 5.28125 2.875 5.28125ZM4.8125 6.1875H2.9375C2.78125 6.1875 2.65625 6.3125 2.65625 6.46875V8.34375C2.65625 8.5 2.78125 8.625 2.9375 8.625H4.8125C4.96875 8.625 5.09375 8.5 5.09375 8.34375V6.46875C5.09375 6.3125 4.96875 6.1875 4.8125 6.1875ZM2.65625 11.4375C2.65625 11.5938 2.78125 11.7188 2.9375 11.7188H4.8125C4.96875 11.7188 5.09375 11.5938 5.09375 11.4375V9.5625C5.09375 9.40625 4.96875 9.28125 4.8125 9.28125H2.9375C2.78125 9.28125 2.65625 9.40625 2.65625 9.5625V11.4375ZM13.5938 6.3125H6.90625C6.75 6.3125 6.625 6.4375 6.625 6.59375C6.625 6.75 6.75 6.875 6.90625 6.875H13.625C13.7812 6.875 13.9062 6.75 13.9062 6.59375C13.875 6.4375 13.75 6.3125 13.5938 6.3125ZM6.90625 8.5H11.25C11.4062 8.5 11.5312 8.375 11.5312 8.21875C11.5312 8.0625 11.4062 7.9375 11.25 7.9375H6.90625C6.75 7.9375 6.625 8.0625 6.625 8.21875C6.625 8.375 6.75 8.5 6.90625 8.5ZM13.5938 9.40625H6.90625C6.75 9.40625 6.625 9.53125 6.625 9.6875C6.625 9.84375 6.75 9.96875 6.90625 9.96875H13.625C13.7812 9.96875 13.9062 9.84375 13.9062 9.6875C13.875 9.53125 13.75 9.40625 13.5938 9.40625ZM11.25 11.5938C11.4062 11.5938 11.5312 11.4688 11.5312 11.3125C11.5312 11.1562 11.4062 11.0312 11.25 11.0312H6.90625C6.75 11.0312 6.625 11.1562 6.625 11.3125C6.625 11.4688 6.75 11.5938 6.90625 11.5938H11.25ZM2.65625 14.8438C2.65625 15 2.78125 15.125 2.9375 15.125H7.71875C7.875 15.125 8 15 8 14.8438C8 14.6875 7.875 14.5625 7.71875 14.5625H2.9375C2.78125 14.5625 2.65625 14.6875 2.65625 14.8438ZM8.5 16.0625H2.9375C2.78125 16.0625 2.65625 16.1875 2.65625 16.3438C2.65625 16.5 2.78125 16.625 2.9375 16.625H8.53125C8.6875 16.625 8.8125 16.5 8.8125 16.3438C8.8125 16.1875 8.65625 16.0625 8.5 16.0625Z" fill="#B785FF"/>
</svg>
