<svg width="18" height="20" viewBox="0 0 18 20" fill="none" xmlns="http://www.w3.org/2000/svg">
<path d="M12.6691 13.3494C12.9685 13.3996 13.2423 13.5488 13.4469 13.773L15.4861 12.3954C15.4679 12.3421 15.4429 12.2913 15.4116 12.2444C15.3148 12.0993 15.1689 12.0017 15.0003 11.9692C14.8375 11.9379 14.6736 11.9717 14.5386 12.0645L12.6691 13.3494ZM8.99684 13.6876L11.3537 12.0685C11.3438 12.0479 11.3326 12.028 11.32 12.009C11.2458 11.8992 11.1315 11.8243 10.9986 11.799C10.8681 11.7743 10.737 11.801 10.6296 11.8745L8.35938 13.4299L8.60023 13.5374C8.72943 13.5951 8.86185 13.6452 8.99684 13.6876ZM10.8386 13.7152L11.3515 13.5776L13.6871 11.9723C13.6751 11.9472 13.6614 11.9229 13.6463 11.8995C13.6026 11.8334 13.5462 11.7768 13.4803 11.7328C13.4144 11.6889 13.3404 11.6586 13.2626 11.6436C13.1097 11.6141 12.9558 11.6455 12.8291 11.7322L9.77481 13.8305C10.1233 13.8502 10.4764 13.8122 10.8386 13.7152Z" fill="#27C9AA"/>
<path d="M17.0586 12.8517C16.8437 12.534 16.4095 12.4502 16.091 12.665L13.7283 14.2612C13.7362 14.2855 13.7436 14.31 13.7503 14.335C13.843 14.6812 13.7948 15.044 13.6144 15.3565C13.4339 15.6693 13.1436 15.8925 12.7968 15.9852L8.42066 17.1585C8.34915 17.1776 8.27296 17.1676 8.20884 17.1306C8.14472 17.0936 8.09794 17.0326 8.07877 16.9611C8.0596 16.8896 8.06963 16.8134 8.10664 16.7493C8.14366 16.6852 8.20462 16.6384 8.27613 16.6192L12.6525 15.4459C12.8552 15.3917 13.025 15.2609 13.1309 15.0774C13.2368 14.894 13.2652 14.6816 13.211 14.4793C13.0986 14.0588 12.6649 13.8082 12.2443 13.9208L10.9827 14.2592C10.0807 14.5008 9.22691 14.4329 8.3723 14.052L7.15332 13.5078C6.35508 13.1514 5.55687 13.0882 4.71289 13.3145C4.01387 13.5015 3.36531 13.8654 2.79312 14.1864C2.3068 14.4593 1.84742 14.717 1.42129 14.8311L0.828125 14.9906V19.6875L2.05793 19.3582C2.44699 19.2534 4.23285 19.3231 4.56848 19.3705L4.99258 19.4316C5.29059 19.475 5.55316 19.4593 5.8443 19.381C6.02379 19.333 6.29215 19.2659 6.60281 19.1881C7.89172 18.8656 10.2908 18.2654 10.8427 17.893L16.8718 13.8194C17.0251 13.7159 17.1289 13.5579 17.1643 13.3745C17.1998 13.1909 17.1622 13.0053 17.0586 12.8517ZM3.03195 10.4745H5.51766C5.59169 10.4745 5.66269 10.4451 5.71504 10.3927C5.76739 10.3404 5.7968 10.2694 5.7968 10.1954V7.41012C5.7968 7.33608 5.76739 7.26508 5.71504 7.21273C5.66269 7.16039 5.59169 7.13098 5.51766 7.13098H3.03195C2.95792 7.13098 2.88692 7.16039 2.83457 7.21273C2.78222 7.26508 2.75281 7.33608 2.75281 7.41012V10.1954C2.75281 10.2694 2.78222 10.3404 2.83457 10.3927C2.88692 10.4451 2.95792 10.4745 3.03195 10.4745ZM9.87859 10.1954V5.14594C9.87859 5.10928 9.87137 5.07298 9.85735 5.03911C9.84332 5.00525 9.82276 4.97448 9.79683 4.94855C9.77092 4.92263 9.74014 4.90207 9.70628 4.88805C9.67241 4.87402 9.63611 4.8668 9.59945 4.8668H7.11488C7.04085 4.8668 6.96985 4.89621 6.9175 4.94855C6.86515 5.0009 6.83574 5.0719 6.83574 5.14594V10.1953C6.83574 10.2693 6.86515 10.3403 6.9175 10.3927C6.96985 10.445 7.04085 10.4745 7.11488 10.4745H9.59945C9.63611 10.4745 9.67241 10.4672 9.70627 10.4532C9.74014 10.4392 9.77091 10.4186 9.79683 10.3927C9.82275 10.3668 9.84332 10.336 9.85734 10.3022C9.87137 10.2683 9.87859 10.232 9.87859 10.1954ZM10.4789 3.3825H10.9175V10.1954C10.9175 10.2694 10.9469 10.3404 10.9993 10.3927C11.0516 10.4451 11.1226 10.4745 11.1966 10.4745H13.6823C13.7563 10.4745 13.8273 10.4451 13.8797 10.3927C13.932 10.3404 13.9614 10.2694 13.9614 10.1954V3.3825H14.4001C14.4524 3.38252 14.5036 3.36784 14.548 3.34014C14.5924 3.31244 14.6281 3.27283 14.651 3.22582C14.674 3.17881 14.6832 3.12631 14.6778 3.07429C14.6723 3.02227 14.6524 2.97282 14.6202 2.9316L12.6601 0.419883C12.634 0.386439 12.6006 0.359384 12.5625 0.340776C12.5244 0.322168 12.4825 0.312498 12.4401 0.3125H12.4401C12.3977 0.312505 12.3558 0.322174 12.3177 0.340774C12.2796 0.359374 12.2462 0.386415 12.2201 0.419844L10.2589 2.93156C10.2267 2.97278 10.2067 3.02222 10.2012 3.07424C10.1958 3.12626 10.205 3.17877 10.228 3.22578C10.2509 3.27279 10.2866 3.31241 10.3309 3.34012C10.3753 3.36783 10.4266 3.38251 10.4789 3.3825ZM7.30055 2.54621L7.1709 3.44793C7.16366 3.49822 7.17029 3.54953 7.19007 3.59633C7.20984 3.64313 7.24202 3.68365 7.28312 3.71351C7.32423 3.74338 7.37271 3.76145 7.42333 3.7658C7.47395 3.77014 7.5248 3.76059 7.57039 3.73816L8.38777 3.33637L9.20629 3.73824C9.2519 3.76066 9.30277 3.7702 9.3534 3.76582C9.40403 3.76145 9.45251 3.74333 9.4936 3.71343C9.53469 3.68352 9.56684 3.64296 9.58657 3.59612C9.60629 3.54929 9.61286 3.49795 9.60555 3.44766L9.47492 2.54609L10.1104 1.89297C10.1458 1.85655 10.1706 1.81114 10.1822 1.76164C10.1937 1.71214 10.1915 1.66043 10.1758 1.61209C10.1601 1.56375 10.1315 1.52061 10.0931 1.48733C10.0547 1.45405 10.0079 1.43189 9.95785 1.42324L9.06 1.26801L8.63461 0.461406C8.61089 0.41648 8.57536 0.378877 8.53185 0.352648C8.48834 0.326419 8.4385 0.312558 8.3877 0.312558C8.33689 0.312558 8.28705 0.326419 8.24354 0.352648C8.20003 0.378877 8.1645 0.41648 8.14078 0.461406L7.71535 1.26801L6.8175 1.42324C6.76741 1.43188 6.72062 1.45403 6.6822 1.48731C6.64378 1.52059 6.61517 1.56373 6.59948 1.61208C6.58378 1.66043 6.58159 1.71214 6.59313 1.76164C6.60468 1.81115 6.62953 1.85656 6.665 1.89297L7.30055 2.54621ZM3.46746 2.54621L3.33781 3.44797C3.33058 3.49825 3.33721 3.54956 3.35699 3.59635C3.37676 3.64315 3.40893 3.68366 3.45003 3.71352C3.49113 3.74339 3.5396 3.76147 3.59022 3.76581C3.64083 3.77016 3.69167 3.76062 3.73727 3.7382L4.55465 3.33641L5.37316 3.73828C5.41878 3.76067 5.46964 3.77019 5.52027 3.7658C5.57089 3.76141 5.61936 3.74329 5.66045 3.71339C5.70153 3.68348 5.73367 3.64293 5.7534 3.5961C5.77314 3.54927 5.77971 3.49795 5.77242 3.44766L5.6418 2.54609L6.27727 1.89297C6.31272 1.85655 6.33756 1.81114 6.3491 1.76164C6.36063 1.71213 6.35843 1.66042 6.34273 1.61208C6.32704 1.56373 6.29843 1.5206 6.26001 1.48732C6.22159 1.45404 6.17482 1.43188 6.12473 1.42324L5.22688 1.26801L4.80148 0.461406C4.77776 0.41648 4.74223 0.378877 4.69872 0.352648C4.65522 0.326419 4.60537 0.312558 4.55457 0.312558C4.50377 0.312558 4.45393 0.326419 4.41042 0.352648C4.36691 0.378877 4.33138 0.41648 4.30766 0.461406L3.88227 1.26801L2.98441 1.42324C2.93432 1.43188 2.88754 1.45403 2.84911 1.48731C2.81069 1.52059 2.78209 1.56373 2.76639 1.61208C2.75069 1.66043 2.7485 1.71214 2.76005 1.76164C2.7716 1.81115 2.79645 1.85656 2.83191 1.89297L3.46746 2.54621Z" fill="#27C9AA"/>
</svg>
