<svg width="20" height="19" viewBox="0 0 20 19" fill="none" xmlns="http://www.w3.org/2000/svg">
<path d="M18.2143 0H1.78571C1.31235 0.000755578 0.858581 0.189136 0.523858 0.523858C0.189136 0.858581 0.000755578 1.31235 0 1.78571V4.03214H20V1.78571C19.9992 1.31235 19.8109 0.858581 19.4761 0.523858C19.1414 0.189136 18.6877 0.000755578 18.2143 0ZM3.05 3.61786C2.72037 3.61786 2.40425 3.48691 2.17117 3.25383C1.93809 3.02075 1.80714 2.70463 1.80714 2.375C1.80714 2.04537 1.93809 1.72925 2.17117 1.49617C2.40425 1.26309 2.72037 1.13214 3.05 1.13214C3.37963 1.13214 3.69575 1.26309 3.92883 1.49617C4.16191 1.72925 4.29286 2.04537 4.29286 2.375C4.29286 2.70463 4.16191 3.02075 3.92883 3.25383C3.69575 3.48691 3.37963 3.61786 3.05 3.61786ZM6.6 3.61786C6.27037 3.61786 5.95425 3.48691 5.72117 3.25383C5.48809 3.02075 5.35714 2.70463 5.35714 2.375C5.35714 2.04537 5.48809 1.72925 5.72117 1.49617C5.95425 1.26309 6.27037 1.13214 6.6 1.13214C6.92963 1.13214 7.24575 1.26309 7.47883 1.49617C7.71191 1.72925 7.84286 2.04537 7.84286 2.375C7.84286 2.70463 7.71191 3.02075 7.47883 3.25383C7.24575 3.48691 6.92963 3.61786 6.6 3.61786ZM10.1464 3.61786C9.8168 3.61786 9.50068 3.48691 9.2676 3.25383C9.03452 3.02075 8.90357 2.70463 8.90357 2.375C8.90357 2.04537 9.03452 1.72925 9.2676 1.49617C9.50068 1.26309 9.8168 1.13214 10.1464 1.13214C10.4761 1.13214 10.7922 1.26309 11.0253 1.49617C11.2583 1.72925 11.3893 2.04537 11.3893 2.375C11.3893 2.70463 11.2583 3.02075 11.0253 3.25383C10.7922 3.48691 10.4761 3.61786 10.1464 3.61786ZM0 4.74643V16.6714C0.000755578 17.1448 0.189136 17.5986 0.523858 17.9333C0.858581 18.268 1.31235 18.4564 1.78571 18.4571H18.2143C18.6877 18.4564 19.1414 18.268 19.4761 17.9333C19.8109 17.5986 19.9992 17.1448 20 16.6714V4.74643H0ZM17.45 13.9179C17.4495 14.486 17.2236 15.0308 16.8218 15.4326C16.4201 15.8343 15.8753 16.0602 15.3071 16.0607H4.69286C4.12468 16.0602 3.57991 15.8343 3.17815 15.4326C2.77639 15.0308 2.55047 14.486 2.55 13.9179V8.56786C2.55104 7.99986 2.77714 7.45541 3.17878 7.05378C3.58041 6.65214 4.12486 6.42604 4.69286 6.425H15.3071C15.8751 6.42604 16.4196 6.65214 16.8212 7.05378C17.2229 7.45541 17.449 7.99986 17.45 8.56786V13.9179Z" fill="#B785FF"/>
<path d="M3.05201 1.84375C2.91182 1.84375 2.77738 1.89944 2.67825 1.99857C2.57913 2.09769 2.52344 2.23214 2.52344 2.37232C2.52344 2.51251 2.57913 2.64695 2.67825 2.74608C2.77738 2.8452 2.91182 2.90089 3.05201 2.90089C3.19219 2.90089 3.32664 2.8452 3.42577 2.74608C3.52489 2.64695 3.58058 2.51251 3.58058 2.37232C3.58058 2.23214 3.52489 2.09769 3.42577 1.99857C3.32664 1.89944 3.19219 1.84375 3.05201 1.84375ZM6.60201 1.84375C6.46182 1.84375 6.32738 1.89944 6.22825 1.99857C6.12913 2.09769 6.07344 2.23214 6.07344 2.37232C6.07344 2.51251 6.12913 2.64695 6.22825 2.74608C6.32738 2.8452 6.46182 2.90089 6.60201 2.90089C6.74219 2.90089 6.87664 2.8452 6.97577 2.74608C7.07489 2.64695 7.13058 2.51251 7.13058 2.37232C7.13058 2.23214 7.07489 2.09769 6.97577 1.99857C6.87664 1.89944 6.74219 1.84375 6.60201 1.84375ZM10.1484 1.84375C10.0083 1.84375 9.87381 1.89944 9.77468 1.99857C9.67555 2.09769 9.61987 2.23214 9.61987 2.37232C9.61987 2.51251 9.67555 2.64695 9.77468 2.74608C9.87381 2.8452 10.0083 2.90089 10.1484 2.90089C10.2886 2.90089 10.4231 2.8452 10.5222 2.74608C10.6213 2.64695 10.677 2.51251 10.677 2.37232C10.677 2.23214 10.6213 2.09769 10.5222 1.99857C10.4231 1.89944 10.2886 1.84375 10.1484 1.84375ZM15.3092 7.13661H4.69487C4.31613 7.13708 3.95304 7.28774 3.68524 7.55555C3.41743 7.82335 3.26677 8.18644 3.26629 8.56518V13.9152C3.26625 14.1028 3.30317 14.2886 3.37494 14.4619C3.44672 14.6353 3.55194 14.7928 3.68461 14.9254C3.81727 15.0581 3.97478 15.1633 4.14812 15.2351C4.32146 15.3069 4.50725 15.3438 4.69487 15.3438H15.3092C15.4968 15.3438 15.6826 15.3069 15.8559 15.2351C16.0292 15.1633 16.1867 15.0581 16.3194 14.9254C16.4521 14.7928 16.5573 14.6353 16.6291 14.4619C16.7009 14.2886 16.7378 14.1028 16.7377 13.9152V8.56518C16.7373 8.18644 16.5866 7.82335 16.3188 7.55555C16.051 7.28774 15.6879 7.13708 15.3092 7.13661ZM15.4342 8.66518L11.0056 11.9866C10.7154 12.2023 10.3635 12.3188 10.002 12.3188C9.64048 12.3188 9.28858 12.2023 8.99844 11.9866L4.56987 8.66518C4.53235 8.63704 4.50074 8.60178 4.47684 8.56143C4.45294 8.52107 4.43723 8.4764 4.4306 8.42997C4.42397 8.38354 4.42654 8.33626 4.43818 8.29083C4.44982 8.2454 4.4703 8.2027 4.49844 8.16518C4.52658 8.12766 4.56183 8.09605 4.60219 8.07215C4.64255 8.04826 4.68721 8.03254 4.73364 8.02591C4.78007 8.01928 4.82735 8.02185 4.87279 8.03349C4.91822 8.04514 4.96092 8.06561 4.99844 8.09375L9.42701 11.4152C9.59258 11.5403 9.79446 11.608 10.002 11.608C10.2096 11.608 10.4114 11.5403 10.577 11.4152L15.0056 8.09375C15.0814 8.03692 15.1766 8.01252 15.2704 8.02591C15.3641 8.03931 15.4487 8.0894 15.5056 8.16518C15.5624 8.24096 15.5868 8.3362 15.5734 8.42997C15.56 8.52374 15.5099 8.60835 15.4342 8.66518Z" fill="#B785FF"/>
</svg>
