<svg width="20" height="20" viewBox="0 0 20 20" fill="none" xmlns="http://www.w3.org/2000/svg">
<path d="M15.2577 0H4.7423C4.19367 0 3.74725 0.446432 3.74725 0.995052V7.05495H16.2527V0.995052C16.2527 0.446432 15.8063 0 15.2577 0ZM7.77074 4.73475C7.85659 4.82047 7.85659 4.95975 7.77074 5.04547C7.72789 5.08846 7.67156 5.1099 7.61539 5.1099C7.55921 5.1099 7.50289 5.08846 7.46004 5.04547L6.43806 4.02349C6.35221 3.93777 6.35221 3.79849 6.43806 3.71277L7.46004 2.69079C7.54576 2.60495 7.68504 2.60495 7.77076 2.69079C7.8566 2.77651 7.8566 2.91579 7.77076 3.00151L6.90427 3.86813L7.77074 4.73475ZM11.1773 3.00151L9.13337 5.04547C9.09052 5.08846 9.03419 5.1099 8.97802 5.1099C8.92171 5.1099 8.86552 5.08846 8.82267 5.04547C8.73682 4.95975 8.73682 4.82047 8.82267 4.73475L10.8666 2.69079C10.9525 2.60495 11.0916 2.60495 11.1773 2.69079C11.2632 2.77651 11.2632 2.91579 11.1773 3.00151ZM13.562 4.02349L12.54 5.04547C12.4971 5.08846 12.4408 5.1099 12.3846 5.1099C12.3283 5.1099 12.2721 5.08846 12.2293 5.04547C12.1434 4.95975 12.1434 4.82047 12.2293 4.73475L13.0958 3.86813L12.2293 3.00151C12.1434 2.91579 12.1434 2.77651 12.2293 2.69079C12.315 2.60495 12.4543 2.60495 12.54 2.69079L13.562 3.71277C13.6032 3.75398 13.6264 3.80988 13.6264 3.86813C13.6264 3.92637 13.6032 3.98228 13.562 4.02349ZM17.6088 7.4945C17.5305 8.39217 16.7749 9.09891 15.8571 9.09891H4.14285C3.22513 9.09891 2.46951 8.39217 2.39134 7.4945H17.6088ZM0 13.6264V17.956H4.32967V13.6264H0ZM3.34217 15.2652L1.97953 16.6279C1.93832 16.6691 1.88242 16.6923 1.82418 16.6923C1.76594 16.6923 1.71003 16.6691 1.66883 16.6279L0.987513 15.9466C0.901667 15.8609 0.901667 15.7216 0.987513 15.6359C1.07323 15.55 1.21251 15.55 1.29823 15.6359L1.82419 16.1617L3.03147 14.9545C3.11732 14.8687 3.25647 14.8687 3.34219 14.9545C3.42802 15.0402 3.42802 15.1795 3.34217 15.2652ZM7.83517 15.6703V20H12.1648V15.6703H7.83517ZM11.1773 17.3092L9.81469 18.6718C9.77184 18.7148 9.71551 18.7363 9.65934 18.7363C9.60315 18.7363 9.54684 18.7148 9.50398 18.6718L8.82267 17.9905C8.73682 17.9048 8.73682 17.7655 8.82267 17.6798C8.90851 17.594 9.04767 17.594 9.13338 17.6798L9.65935 18.2056L10.8666 16.9985C10.9523 16.9126 11.0916 16.9126 11.1773 16.9985C11.2632 17.0842 11.2632 17.2235 11.1773 17.3092ZM15.6703 13.6264V17.956H20V13.6264H15.6703ZM19.0125 15.2652L17.6499 16.6279C17.6086 16.6691 17.5527 16.6923 17.4945 16.6923C17.4363 16.6923 17.3804 16.6691 17.3392 16.6279L16.6578 15.9466C16.572 15.8609 16.572 15.7216 16.6578 15.6359C16.7437 15.55 16.8828 15.55 16.9686 15.6359L17.4945 16.1617L18.7018 14.9545C18.7875 14.8687 18.9268 14.8687 19.0125 14.9545C19.0983 15.0402 19.0983 15.1795 19.0125 15.2652Z" fill="#B785FF"/>
<path d="M18.0552 11.3632V13.1874H17.6157V11.583H10.2201V15.2314H9.78049V11.583H2.38487V13.1874H1.94531V11.3632C1.94531 11.2418 2.04366 11.1435 2.16509 11.1435H9.78048V9.53906H10.22V11.1435H17.8354C17.9568 11.1434 18.0552 11.2418 18.0552 11.3632Z" fill="#B785FF"/>
</svg>
