<svg width="21" height="20" viewBox="0 0 21 20" fill="none" xmlns="http://www.w3.org/2000/svg">
<g clip-path="url(#clip0_11693_43183)">
<path fill-rule="evenodd" clip-rule="evenodd" d="M7.76828 12.552C7.76828 11.1679 6.64219 10.0416 5.25789 10.0416C3.87359 10.0416 2.74734 11.1679 2.74734 12.552C2.74734 13.9363 3.87363 15.0626 5.25789 15.0626C6.64215 15.0626 7.76828 13.9363 7.76828 12.552ZM5.25773 15.0626C2.85449 15.0626 0.90625 17.0108 0.90625 19.4141C0.90625 19.7377 1.16855 20 1.49219 20H9.02344C9.34711 20 9.60938 19.7377 9.60938 19.4141C9.60938 17.0108 7.66117 15.0626 5.25773 15.0626ZM15.2996 10.0416C13.9153 10.0416 12.789 11.1679 12.789 12.552C12.789 13.9363 13.9153 15.0626 15.2996 15.0626C16.6839 15.0626 17.8099 13.9363 17.8099 12.552C17.8099 11.1679 16.6838 10.0416 15.2996 10.0416ZM15.2996 15.0626C12.8963 15.0626 10.9479 17.0108 10.9479 19.4141C10.9479 19.7377 11.2104 20 11.5338 20H19.0651C19.3888 20 19.6511 19.7377 19.6511 19.4141C19.6511 17.0108 17.7028 15.0626 15.2996 15.0626ZM15.2996 8.70312C16.3147 8.70312 17.1407 7.87719 17.1407 6.86203V1.84113C17.1407 0.815234 16.3083 0 15.2996 0H5.25789C4.23133 0 3.41664 0.832969 3.41664 1.84113V6.86203C3.41664 7.87719 4.24258 8.70316 5.25789 8.70316H8.19629L9.75469 11.8198C9.80332 11.9171 9.87812 11.999 9.97068 12.0562C10.0632 12.1135 10.1699 12.1438 10.2788 12.1438C10.3876 12.1438 10.4943 12.1135 10.5868 12.0562C10.6794 11.999 10.7542 11.9171 10.8028 11.8198L12.361 8.70316L15.2996 8.70312ZM11.5338 2.51043C11.8573 2.51043 12.1198 2.77301 12.1198 3.09637C12.1198 3.4198 11.8573 3.6823 11.5338 3.6823C11.2105 3.6823 10.9479 3.4198 10.9479 3.09637C10.9479 2.77301 11.2105 2.51043 11.5338 2.51043ZM9.02348 2.51043C9.34695 2.51043 9.60941 2.77301 9.60941 3.09637C9.60941 3.4198 9.34695 3.6823 9.02348 3.6823C8.7 3.6823 8.43754 3.4198 8.43754 3.09637C8.43754 2.77301 8.7 2.51043 9.02348 2.51043ZM10.2787 6.50652C9.35809 6.50652 8.47887 6.06691 7.92695 5.3307C7.73289 5.07172 7.78555 4.70449 8.04445 4.51039C8.30344 4.31629 8.6707 4.36879 8.86461 4.62773C9.19648 5.07039 9.72508 5.33465 10.2787 5.33465C10.8323 5.33465 11.3608 5.07039 11.6927 4.62773C11.8868 4.36875 12.254 4.31613 12.513 4.51039C12.772 4.70449 12.8244 5.07172 12.6304 5.3307C12.0784 6.06691 11.1992 6.50652 10.2787 6.50652Z" fill="#27C9AA"/>
</g>
<defs>
<clipPath id="clip0_11693_43183">
<rect width="20" height="20" fill="white" transform="translate(0.90625)"/>
</clipPath>
</defs>
</svg>
