<svg width="25" height="24" viewBox="0 0 25 24" fill="none" xmlns="http://www.w3.org/2000/svg">
<path d="M0 12.7979V15.275C0 15.959 0.554539 16.5136 1.23854 16.5136C1.46654 16.5136 1.65138 16.3287 1.65138 16.1007V11.9722C1.65138 11.7442 1.46654 11.5594 1.23854 11.5594C0.554539 11.5594 0 12.1139 0 12.7979ZM23.5323 11.5594C23.3043 11.5594 23.1195 11.7442 23.1195 11.9722V16.1007C23.1195 16.3287 23.3043 16.5136 23.5323 16.5136C24.2163 16.5136 24.7709 15.959 24.7709 15.275V12.7979C24.7709 12.1139 24.2164 11.5594 23.5323 11.5594ZM14.4497 2.06387C14.448 2.71878 14.1398 3.313 13.649 3.6945C13.2146 4.03225 12.7983 4.48146 12.7983 5.03176V5.77948C12.7983 6.00749 12.6135 6.19234 12.3855 6.19234C12.1574 6.19234 11.9726 6.00749 11.9726 5.77948V5.03323C11.9726 4.48243 11.5549 4.03341 11.1199 3.69548C10.5561 3.25746 10.2383 2.54026 10.3398 1.78815C10.485 0.711682 11.4398 -0.0680197 12.5236 0.00469636C13.6074 0.0774124 14.4495 0.977631 14.4497 2.06387Z" fill="#F985F9"/>
<path d="M17.3401 14.0396C18.0241 14.0396 18.5787 13.4851 18.5787 12.801C18.5787 12.117 18.0241 11.5625 17.3401 11.5625C16.6561 11.5625 16.1016 12.117 16.1016 12.801C16.1016 13.4851 16.6561 14.0396 17.3401 14.0396Z" fill="#F985F9"/>
<path d="M7.43386 14.0396C8.11789 14.0396 8.6724 13.4851 8.6724 12.801C8.6724 12.117 8.11789 11.5625 7.43386 11.5625C6.74983 11.5625 6.19531 12.117 6.19531 12.801C6.19531 13.4851 6.74983 14.0396 7.43386 14.0396Z" fill="#F985F9"/>
<path d="M19.8162 7.01562H4.95365C3.58559 7.01562 2.47656 8.12465 2.47656 9.49271V18.5754C2.47656 19.94 3.58032 21.0477 4.94499 21.0524C4.99981 21.0517 5.05423 21.0619 5.10513 21.0823C5.15602 21.1027 5.20238 21.1329 5.24155 21.1713C5.28072 21.2097 5.31193 21.2554 5.33337 21.3058C5.35482 21.3563 5.36609 21.4105 5.36653 21.4653V23.5837C5.36644 23.6584 5.38667 23.7318 5.42504 23.796C5.46342 23.8602 5.51851 23.9127 5.58442 23.9481C5.65034 23.9834 5.72461 24.0001 5.79929 23.9965C5.87398 23.9929 5.94629 23.9691 6.00849 23.9276L10.1143 21.1912C10.2494 21.1011 10.4081 21.0529 10.5704 21.0525H19.8162C21.1842 21.0525 22.2933 19.9435 22.2933 18.5754V9.49266C22.2933 8.12465 21.1842 7.01562 19.8162 7.01562ZM7.43074 14.8597C6.2907 14.8597 5.36648 13.9355 5.36648 12.7955C5.36648 11.6554 6.2907 10.7312 7.43074 10.7312C8.57078 10.7312 9.49499 11.6554 9.49499 12.7955C9.49359 13.935 8.5702 14.8584 7.43074 14.8597ZM14.7993 16.317C14.7732 16.3587 14.1416 17.3368 12.3849 17.3368C10.6283 17.3368 9.9966 16.3587 9.97058 16.317C9.91413 16.2247 9.89623 16.1138 9.92072 16.0084C9.94521 15.9029 10.0101 15.8113 10.1015 15.7533C10.1929 15.6953 10.3034 15.6754 10.4093 15.6981C10.5151 15.7208 10.6078 15.7841 10.6675 15.8745C10.6922 15.91 11.1241 16.511 12.3849 16.511C13.6569 16.511 14.0854 15.8996 14.1028 15.8736C14.1635 15.7836 14.257 15.7208 14.3633 15.6986C14.4697 15.6765 14.5805 15.6968 14.6721 15.7551C14.7629 15.8133 14.8272 15.9048 14.851 16.01C14.8748 16.1152 14.8562 16.2255 14.7993 16.317ZM17.3391 14.8597C16.199 14.8597 15.2748 13.9355 15.2748 12.7955C15.2748 11.6554 16.199 10.7312 17.3391 10.7312C18.4791 10.7312 19.4033 11.6554 19.4033 12.7955C19.4019 13.935 18.4785 14.8584 17.3391 14.8597Z" fill="#F985F9"/>
</svg>
