<svg width="16" height="18" viewBox="0 0 16 18" fill="none" xmlns="http://www.w3.org/2000/svg">
<path d="M15.5358 13.2082V3.96246C15.5358 3.10239 14.7679 2.36519 13.7849 2.36519C13.5392 2.36519 13.3242 2.3959 13.1399 2.48805V1.90444C13.1399 1.04437 12.372 0.307167 11.389 0.307167C10.9897 0.307167 10.6518 0.430034 10.3754 0.614334C10.0682 0.245734 9.54603 0 8.99313 0C8.1945 0 7.54945 0.491468 7.33443 1.13652C7.11941 1.04437 6.87368 0.982935 6.59723 0.982935C5.64501 0.982935 4.84637 1.68942 4.84637 2.5802V9.52218L4.20132 8.72355C3.55627 7.86348 2.3276 7.58703 1.4061 8.0785C0.945351 8.32423 0.638184 8.75427 0.515317 9.24573C0.39245 9.76792 0.515317 10.2901 0.853201 10.7201C1.4061 11.4573 1.98972 12.2253 2.54262 12.9625L3.55627 14.314C3.70986 14.4983 3.83272 14.7133 3.98631 14.8976C4.41634 15.5119 4.87709 16.1263 5.49143 16.6485C6.65866 17.6314 8.25593 18 9.76105 18C10.4983 18 11.2047 17.9079 11.8498 17.785C15.5358 17.0171 15.5358 14.2526 15.5358 13.2082ZM11.6348 16.7713C10.0375 17.1092 7.6416 17.0785 6.19791 15.8805C5.70644 15.4505 5.30713 14.8976 4.87709 14.314C4.72351 14.099 4.56992 13.884 4.41634 13.6997L3.40269 12.3481C2.84979 11.6109 2.26617 10.843 1.71327 10.1058C1.55969 9.9215 1.52897 9.70648 1.55969 9.49147C1.5904 9.30717 1.71327 9.15358 1.89757 9.03072C2.35832 8.78498 3.00337 8.93857 3.31054 9.3686C3.31054 9.3686 3.31054 9.39932 3.34125 9.39932L4.96924 11.3345C5.12283 11.5188 5.33784 11.5802 5.55286 11.4881C5.76788 11.3959 5.92146 11.2116 5.92146 10.9966V2.61092C5.92146 2.33447 6.22863 2.08874 6.59723 2.08874C6.93511 2.08874 7.24228 2.30375 7.24228 2.5802V7.92491C7.24228 8.23208 7.48801 8.47782 7.79518 8.47782C8.10235 8.47782 8.34808 8.23208 8.34808 7.92491V1.62799C8.34808 1.35154 8.65525 1.1058 9.02385 1.1058C9.39245 1.1058 9.69962 1.35154 9.69962 1.62799V8.17065C9.69962 8.47782 9.94535 8.72355 10.2525 8.72355C10.5597 8.72355 10.8054 8.47782 10.8054 8.17065V1.90444C10.8054 1.62799 11.1126 1.38225 11.4812 1.38225C11.8498 1.38225 12.157 1.62799 12.157 1.90444V8.72355C12.157 9.03072 12.4027 9.27645 12.7099 9.27645C13.017 9.27645 13.2628 9.03072 13.2628 8.72355V3.93174C13.2935 3.65529 13.5699 3.44027 13.9078 3.44027C14.2764 3.44027 14.5836 3.68601 14.5836 3.96246V13.2389C14.4607 14.2526 14.4607 16.157 11.6348 16.7713Z" fill="#2DA771"/>
</svg>
