<svg width="30" height="30" viewBox="0 0 30 30" fill="none" xmlns="http://www.w3.org/2000/svg">
<g clip-path="url(#clip0_11722_19798)">
<path d="M12.5267 29.187V26.6503C10.7018 26.6503 9.21783 25.1663 9.21783 23.3415C9.21783 21.5166 10.7018 20.0326 12.5267 20.0326V17.551H7.90268L8.2961 16.4459C8.35913 16.2697 8.39111 16.0838 8.39062 15.8966C8.39062 14.9846 7.64824 14.2422 6.73621 14.2422C5.82419 14.2422 5.0818 14.9846 5.0818 15.8966C5.0818 16.0856 5.11329 16.2706 5.17632 16.4459L5.56974 17.551H0.890625C1.30108 23.7326 6.34511 28.7766 12.5267 29.187Z" fill="#FB8491"/>
<path d="M6.73621 12.5895C8.56108 12.5895 10.045 14.0735 10.045 15.8983H12.5267V11.2744L13.6317 11.6678C14.6504 12.0305 15.8347 11.2081 15.8355 10.1079C15.8347 9.00684 14.6512 8.17803 13.6317 8.54802L12.5267 8.94143V4.35938C6.34511 4.76983 1.30108 9.7168 0.890625 15.8983H3.42739C3.42739 14.0735 4.91134 12.5895 6.73621 12.5895ZM25.72 17.5528H23.2803C23.2803 19.3776 21.7964 20.8616 19.9715 20.8616C18.1466 20.8616 16.6627 19.3776 16.6627 17.5528H14.1811V22.1767L13.076 21.7833C12.0533 21.4158 10.8714 22.2421 10.8722 23.3432C10.8714 24.4443 12.0541 25.2706 13.076 24.9031L14.1811 24.5097V29.1888C20.3626 28.7783 25.3096 23.7343 25.72 17.5528Z" fill="#FB8491"/>
<path d="M25.7606 7.62592V4.3171H22.4517C22.4517 2.49222 20.9678 0.953125 19.1429 0.953125C17.3181 0.953125 15.8341 2.49222 15.8341 4.3171H14.1797V6.79871C16.0046 6.79871 17.4885 8.28267 17.4885 10.1075C17.4885 11.9324 16.0046 13.4164 14.1797 13.4164V15.898H18.8037L18.4102 17.0031C18.3472 17.1793 18.3152 17.3652 18.3157 17.5524C18.3157 18.4644 19.0581 19.2068 19.9701 19.2068C20.8822 19.2068 21.6245 18.4644 21.6245 17.5524C21.6245 17.3633 21.5931 17.1784 21.53 17.0031L21.1366 15.898H25.7606V14.2436C27.5854 14.2436 29.1245 12.7596 29.1245 10.9347C29.1245 9.10987 27.5854 7.62592 25.7606 7.62592Z" fill="#FB8491"/>
</g>
<defs>
<clipPath id="clip0_11722_19798">
<rect width="28.2353" height="28.2353" fill="white" transform="translate(0.890625 0.945312)"/>
</clipPath>
</defs>
</svg>
