<svg width="20" height="20" viewBox="0 0 20 20" fill="none" xmlns="http://www.w3.org/2000/svg">
<path d="M18.2396 8.30383L10.4393 0.502383C9.97922 0.0434766 9.23504 0.0489062 8.78102 0.501797C8.32442 0.95957 8.32442 1.70285 8.78102 2.16004L16.5825 9.96094C17.0395 10.418 17.7825 10.418 18.2396 9.96094C18.6979 9.50266 18.6979 8.76203 18.2396 8.30383ZM8.20231 3.23848L8.1436 3.53277C7.73004 5.60145 6.72497 7.56672 5.36555 9.15957L9.60958 13.4036C11.2022 12.0445 13.1404 11.0124 15.2092 10.5983L15.504 10.5396L8.20231 3.23848ZM4.58747 10.0386L1.68696 12.9386C1.00161 13.6239 0.998755 14.7366 1.68696 15.4248L3.34407 17.0819C4.02942 17.7672 5.14208 17.77 5.83028 17.0819L8.73051 14.1816L4.58747 10.0386ZM5.00176 14.5963C4.7729 14.8251 4.40208 14.8251 4.17321 14.5963C3.94434 14.3674 3.94434 13.9966 4.17321 13.7677L5.00176 12.9391C5.23063 12.7103 5.60145 12.7103 5.83032 12.9391C6.05918 13.168 6.05918 13.5388 5.83032 13.7677L5.00176 14.5963ZM11.177 17.3937L11.974 16.5966C12.6623 15.9085 12.66 14.7958 11.9741 14.111L11.382 13.5186C11.0548 13.7384 10.7423 13.9772 10.4385 14.232L11.1455 14.9401C11.3738 15.1673 11.3754 15.537 11.1455 15.7681L10.3353 16.5783L9.14457 15.4247L7.48739 17.0819L10.1459 19.6579C10.5995 20.1128 11.3444 20.1154 11.8024 19.6573C12.2596 19.2002 12.2596 18.4569 11.8024 17.9996L11.177 17.3937ZM13.5441 0C13.2202 0 12.9581 0.26207 12.9581 0.585938V1.75781C12.9581 2.08168 13.2202 2.34375 13.5441 2.34375C13.8679 2.34375 14.13 2.08168 14.13 1.75781V0.585938C14.13 0.26207 13.8679 0 13.5441 0ZM18.2316 4.6875H17.0597C16.7358 4.6875 16.4738 4.94957 16.4738 5.27344C16.4738 5.59731 16.7358 5.85938 17.0597 5.85938H18.2316C18.5554 5.85938 18.8175 5.59731 18.8175 5.27344C18.8175 4.94957 18.5554 4.6875 18.2316 4.6875ZM17.4739 1.34352C17.2451 1.11465 16.8743 1.11465 16.6454 1.34352L15.4735 2.51539C15.2447 2.74426 15.2447 3.11508 15.4735 3.34395C15.7024 3.57281 16.0732 3.57285 16.3021 3.34395L17.4739 2.17207C17.7028 1.9432 17.7028 1.57238 17.4739 1.34352Z" fill="#27C9AA"/>
</svg>
