<svg width="25" height="20" viewBox="0 0 25 20" fill="none" xmlns="http://www.w3.org/2000/svg">
<path d="M0 5.21212V10.4452C0.000224953 11.1364 0.274318 11.7993 0.762272 12.2889C1.25023 12.7785 1.91228 13.0548 2.6035 13.0573H6.94267V2.59994H2.6035C1.91228 2.60246 1.25023 2.87876 0.762272 3.36834C0.274318 3.85792 0.000224953 4.5209 0 5.21212ZM16.2111 0.447713C15.8599 0.208903 15.4553 0.0602334 15.0331 0.0148278C14.6108 -0.0305779 14.1838 0.0286774 13.7899 0.187363L8.67834 2.22677V13.4739L13.7899 15.5133C14.0968 15.6337 14.4235 15.6956 14.7532 15.6955C15.0954 15.6967 15.4345 15.6301 15.7508 15.4997C16.0672 15.3693 16.3547 15.1775 16.5967 14.9356C16.8387 14.6936 17.0304 14.4061 17.1608 14.0897C17.2913 13.7733 17.3578 13.4343 17.3567 13.092V2.59994C17.3566 2.17481 17.2522 1.75619 17.0524 1.38091C16.8527 1.00562 16.5638 0.685162 16.2111 0.447713ZM1.73567 17.3965C1.73567 18.087 2.00996 18.7492 2.49821 19.2375C2.98647 19.7257 3.64868 20 4.33917 20C5.02966 20 5.69187 19.7257 6.18012 19.2375C6.66837 18.7492 6.94267 18.087 6.94267 17.3965V14.7496H1.73567V17.3965ZM23.4315 6.98076H20.828C20.5978 6.98076 20.3771 7.0722 20.2144 7.23495C20.0516 7.3977 19.9602 7.61843 19.9602 7.8486C19.9602 8.07876 20.0516 8.2995 20.2144 8.46225C20.3771 8.625 20.5978 8.71643 20.828 8.71643H23.4315C23.6617 8.71643 23.8824 8.625 24.0452 8.46225C24.2079 8.2995 24.2993 8.07876 24.2993 7.8486C24.2993 7.61843 24.2079 7.3977 24.0452 7.23495C23.8824 7.0722 23.6617 6.98076 23.4315 6.98076ZM20.828 2.6416C20.9624 2.64161 21.095 2.6101 21.2151 2.54961L22.9507 1.68177C23.0536 1.63137 23.1454 1.56111 23.221 1.47505C23.2966 1.38898 23.3543 1.2888 23.391 1.18029C23.4277 1.07179 23.4425 0.957096 23.4346 0.842832C23.4268 0.728568 23.3964 0.616993 23.3452 0.514538C23.294 0.412084 23.223 0.320777 23.1363 0.245883C23.0497 0.170989 22.949 0.113989 22.8403 0.0781697C22.7315 0.04235 22.6167 0.0284194 22.5025 0.0371808C22.3883 0.0459423 22.2769 0.0772223 22.1749 0.129218L20.4392 0.997051C20.264 1.08436 20.1235 1.22833 20.0405 1.40558C19.9574 1.58283 19.9367 1.78294 19.9818 1.97343C20.0268 2.16391 20.1349 2.33358 20.2885 2.45488C20.4422 2.57617 20.6323 2.64198 20.828 2.6416ZM22.9516 14.0146L21.2159 13.1467C21.1139 13.0947 21.0025 13.0634 20.8883 13.0547C20.7741 13.0459 20.6593 13.0599 20.5505 13.0957C20.4418 13.1315 20.3411 13.1885 20.2545 13.2634C20.1678 13.3383 20.0969 13.4296 20.0457 13.532C19.9945 13.6345 19.964 13.7461 19.9562 13.8603C19.9483 13.9746 19.9631 14.0893 19.9998 14.1978C20.0365 14.3063 20.0942 14.4065 20.1698 14.4925C20.2454 14.5786 20.3372 14.6489 20.4401 14.6993L22.1757 15.5671C22.2958 15.6276 22.4284 15.6591 22.5628 15.6591C22.7585 15.6595 22.9487 15.5937 23.1023 15.4724C23.2559 15.3511 23.364 15.1814 23.409 14.9909C23.4541 14.8004 23.4334 14.6003 23.3503 14.4231C23.2673 14.2458 23.1268 14.1019 22.9516 14.0146Z" fill="#B785FF"/>
</svg>
