<svg width="35" height="35" viewBox="0 0 35 35" fill="none" xmlns="http://www.w3.org/2000/svg">
<g clip-path="url(#clip0_11693_44726)">
<path d="M-0.015625 17.4844V34.9844H17.4844H34.9844V17.4844V-0.0156288H17.4844H-0.015625V17.4844ZM13.5119 7.78937L16.8719 10.8694L16.9244 7.78937L16.9594 4.70937H17.4844H18.0094V7.78937C18.0094 9.60937 18.0794 10.8344 18.1669 10.7994C18.2544 10.7644 19.9169 9.39937 21.8594 7.77187C23.8019 6.12687 25.4644 4.76187 25.5519 4.74437C25.6394 4.70937 25.7094 6.10937 25.7094 8.19187V11.7094H26.8469H27.9844V16.9594V22.2094H26.4969H25.0094V25.3594C25.0094 27.0919 24.9744 28.5094 24.9219 28.5094C24.8694 28.5094 23.3994 27.2319 21.6669 25.6744C19.9169 24.0994 18.3944 22.7519 18.2544 22.6819C18.0444 22.5594 18.0094 23.0319 18.0094 25.5344V28.5094H17.4844H16.9594L16.9244 25.4119L16.8719 22.3144L13.5119 25.4119C11.6744 27.1094 10.1169 28.5094 10.0644 28.5094C10.0119 28.5094 9.95938 27.0919 9.95938 25.3594V22.2094H8.47188H6.98438V16.9594V11.7269L8.43688 11.6744L9.87188 11.6219L9.92438 8.15687C9.94188 6.26687 10.0119 4.70937 10.0644 4.70937C10.0994 4.70937 11.6569 6.09187 13.5119 7.78937Z" fill="black"/>
<path d="M11.0447 9.37375L11.0972 11.6313L13.5472 11.6662L15.9972 11.7188L14.8597 10.6513C14.2297 10.0562 13.1097 9.02375 12.3572 8.35875L10.9922 7.11625L11.0447 9.37375Z" fill="black"/>
<path d="M21.7812 9.3835L19.1562 11.6235L21.7638 11.676C23.1988 11.6935 24.4062 11.6935 24.4412 11.6585C24.4763 11.606 24.4763 10.591 24.4588 9.366L24.4062 7.1435L21.7812 9.3835Z" fill="black"/>
<path d="M8.21875 16.8719V20.9844H9.09375H9.96875V19.9694V18.9719L12.9437 15.9969C14.5887 14.3694 15.9187 12.9694 15.9187 12.8994C15.9187 12.8119 14.1863 12.7594 12.0687 12.7594H8.21875V16.8719Z" fill="black"/>
<path d="M19.0547 12.8994C19.0547 12.9694 20.4022 14.3694 22.0297 15.9969L25.0047 18.9719V19.9694V20.9844H25.8797H26.7547V16.8719V12.7594H22.9047C20.7872 12.7594 19.0547 12.8119 19.0547 12.8994Z" fill="black"/>
<path d="M13.835 16.6669L11 19.5194L11.035 22.7919L11.0875 26.0469L14.01 23.3869L16.9325 20.7269V17.2619C16.95 15.3719 16.8975 13.8144 16.81 13.8144C16.74 13.8144 15.41 15.0919 13.835 16.6669Z" fill="black"/>
<path d="M18 17.3378L18.0175 20.8903L20.94 23.4803L23.8625 26.0703L23.915 22.7803L23.95 19.5078L21.115 16.6553C19.54 15.0803 18.21 13.8028 18.14 13.8028C18.0525 13.8028 18 15.3953 18 17.3378Z" fill="black"/>
</g>
<defs>
<clipPath id="clip0_11693_44726">
<rect width="35" height="35" fill="white"/>
</clipPath>
</defs>
</svg>
