<svg width="18" height="20" viewBox="0 0 18 20" fill="none" xmlns="http://www.w3.org/2000/svg">
<path d="M6.79481 3.67974C7.11846 3.67974 7.38084 3.41736 7.38084 3.09371V0.582937C7.34986 -0.194605 6.23945 -0.194019 6.20879 0.582937V3.09375C6.20879 3.4174 6.47117 3.67974 6.79481 3.67974ZM3.86963 3.50811C4.09842 3.73694 4.46953 3.73702 4.6984 3.50811C4.92726 3.27925 4.92726 2.90822 4.6984 2.67935L4.07072 2.05168C3.8419 1.82282 3.47082 1.82282 3.24196 2.05168C3.0131 2.28054 3.0131 2.65158 3.24196 2.88044L3.86963 3.50811ZM9.71999 3.50811L10.3477 2.88044C10.5765 2.65158 10.5765 2.28054 10.3477 2.05168C10.1188 1.82282 9.74777 1.82282 9.51891 2.05168L8.89123 2.67935C8.66237 2.90822 8.66237 3.27925 8.89123 3.50811C9.12002 3.73694 9.49113 3.73702 9.71999 3.50811ZM13.8694 8.94813C14.204 8.61351 14.2045 8.07132 13.8694 7.73627C13.5347 7.40157 12.9926 7.40118 12.6575 7.73627L10.6168 9.77693C10.2827 10.111 10.2827 10.6547 10.6168 10.9888C10.951 11.3228 11.4948 11.3228 11.8288 10.9888L13.8693 8.94833L13.8694 8.94813ZM13.8694 13.0295L15.3999 11.4989C15.7346 11.1643 15.7351 10.6221 15.4 10.287C15.0653 9.95235 14.5232 9.95184 14.1881 10.287L12.6575 11.8176C12.3234 12.1516 12.3235 12.6953 12.6576 13.0296C12.9922 13.3641 13.5343 13.3645 13.8694 13.0295ZM16.9305 12.838C16.5988 12.5063 16.0564 12.5 15.7187 12.8377L14.6984 13.858C14.3632 14.1932 14.3637 14.7354 14.6982 15.0698C15.0369 15.409 15.5802 15.4001 15.9098 15.0701L16.9302 14.0497L16.9305 14.0494C17.2606 13.7197 17.2692 13.1762 16.9305 12.838Z" fill="#27C9AA"/>
<path d="M13.2778 14.4661C13.2778 14.4622 13.278 14.4583 13.278 14.4543C12.7322 14.4584 12.217 14.2462 11.8312 13.8604C11.4324 13.4614 11.235 12.9364 11.2383 12.4125C10.7138 12.4165 10.1897 12.2182 9.79063 11.8198C8.99941 11.0286 8.99941 9.74136 9.79051 8.95026L15.4024 3.33869C15.7224 3.01833 15.7491 2.47301 15.4047 2.12858C15.118 1.8419 14.5739 1.74336 14.1906 2.12678L6.95269 9.36462L7.04841 9.46034C8.68338 11.0953 8.68338 13.7556 7.04841 15.3906C6.81954 15.6195 6.44843 15.6194 6.21964 15.3906C5.99078 15.1618 5.99078 14.7907 6.21964 14.5618C7.3976 13.3838 7.3976 11.4671 6.21964 10.2891C6.21964 10.2891 5.70933 9.77851 5.70929 9.77835C5.63181 9.7009 5.57764 9.60325 5.55294 9.49651L4.88233 6.59068C4.67585 5.69581 3.72856 5.1771 2.85975 5.49594C2.74698 5.53736 2.64965 5.61243 2.58094 5.71098C2.51224 5.80954 2.47546 5.92682 2.47559 6.04696L2.4836 14.3384L0.976335 15.845C0.747472 16.0738 0.747472 16.4449 0.976335 16.6737L4.13307 19.8305C4.18749 19.8849 4.2521 19.928 4.3232 19.9575C4.39431 19.9869 4.47051 20.0021 4.54747 20.0021H10.329C10.7503 20.0021 11.1466 19.8378 11.4449 19.5395L14.6114 16.3732C14.3364 16.2731 14.0844 16.1135 13.8716 15.9004C13.4887 15.5175 13.2778 15.0081 13.2778 14.4661Z" fill="#27C9AA"/>
</svg>
