<svg width="20" height="20" viewBox="0 0 20 20" fill="none" xmlns="http://www.w3.org/2000/svg">
<g clip-path="url(#clip0_11693_43163)">
<path d="M17.9508 2.04922C16.6293 0.727891 14.8723 0 13.003 0C11.1343 0 9.37727 0.727852 8.05582 2.04922C6.73426 3.37082 6.0066 5.12785 6.0066 6.99723C6.0066 8.66945 6.58945 10.2519 7.65852 11.5134L6.24367 12.9279C5.51875 12.554 4.60383 12.6707 3.99684 13.2779L0.564414 16.7104C0.200313 17.0744 0 17.5584 0 18.0734C0 18.5883 0.200352 19.0723 0.564453 19.4363C0.940234 19.8121 1.43398 20 1.92734 20C2.42109 20 2.91445 19.8121 3.29023 19.4363L6.72273 16.0037C7.0868 15.6396 7.28715 15.1557 7.28715 14.6408C7.28715 14.328 7.21281 14.0264 7.07309 13.7559L8.48711 12.3419C9.7484 13.4116 11.3312 13.994 13.0031 13.994C14.8723 13.994 16.6293 13.2661 17.9507 11.9446C19.2723 10.623 20 8.86602 20 6.99727C20 5.12789 19.2723 3.37086 17.9508 2.0493V2.04922ZM10.6202 9.49727C10.6202 9.82074 10.3582 10.0834 10.0343 10.0834C9.71098 10.0834 9.44836 9.82074 9.44836 9.49727V7.6218C9.44836 7.29848 9.71098 7.03586 10.0343 7.03586C10.3582 7.03586 10.6202 7.29832 10.6202 7.6218V9.49727ZM12.5734 9.49727C12.5734 9.82074 12.3114 10.0834 11.9874 10.0834C11.6641 10.0834 11.4015 9.82074 11.4015 9.49727V5.66867C11.4015 5.3452 11.6641 5.08258 11.9874 5.08258C12.3114 5.08258 12.5734 5.3452 12.5734 5.66867V9.49727ZM14.5265 9.49727C14.5265 9.82074 14.2645 10.0834 13.9405 10.0834C13.6172 10.0834 13.3546 9.82074 13.3546 9.49727V6.44992C13.3546 6.12645 13.6172 5.86398 13.9405 5.86398C14.2645 5.86398 14.5265 6.12645 14.5265 6.44992V9.49727ZM16.4796 9.49727C16.4796 9.82074 16.2176 10.0834 15.8937 10.0834C15.5704 10.0834 15.3077 9.82074 15.3077 9.49727V4.4966C15.3077 4.17328 15.5704 3.91066 15.8937 3.91066C16.2176 3.91066 16.4796 4.17312 16.4796 4.4966V9.49727Z" fill="#27C9AA"/>
</g>
<defs>
<clipPath id="clip0_11693_43163">
<rect width="20" height="20" fill="white"/>
</clipPath>
</defs>
</svg>
