<svg width="18" height="20" viewBox="0 0 18 20" fill="none" xmlns="http://www.w3.org/2000/svg">
<path fill-rule="evenodd" clip-rule="evenodd" d="M10.7043 2.58717C8.01642 6.55002 3.03428 7.83502 3.03428 7.83502C2.85071 7.882 2.656 7.85413 2.49298 7.75755C2.41226 7.70973 2.34175 7.64648 2.28547 7.57141C2.2292 7.49633 2.18826 7.41091 2.165 7.32002C2.14173 7.22913 2.1366 7.13454 2.14989 7.04166C2.16319 6.94879 2.19464 6.85944 2.24246 6.77872C2.33904 6.61569 2.49643 6.49772 2.68 6.45073C2.68 6.45073 7.42428 5.24859 9.74356 1.44074L8.33856 1.4286C8.14912 1.42689 7.96812 1.35 7.83537 1.21484C7.70262 1.07968 7.629 0.897325 7.6307 0.707885C7.63241 0.518445 7.7093 0.337441 7.84446 0.204692C7.97962 0.0719437 8.16198 -0.00167599 8.35142 2.89671e-05L11.4086 0.0271719C11.5959 0.0284813 11.7752 0.103479 11.9076 0.235945C12.0401 0.368411 12.1151 0.547697 12.1164 0.735028L12.1428 3.72145C12.1445 3.91089 12.0709 4.09325 11.9382 4.22841C11.8054 4.36357 11.6244 4.44046 11.435 4.44217C11.2455 4.44387 11.0632 4.37025 10.928 4.2375C10.7929 4.10475 10.716 3.92375 10.7143 3.73431L10.7043 2.58717ZM4.63214 20H1.42857C1.04969 20 0.686327 19.8495 0.418418 19.5816C0.15051 19.3137 0 18.9503 0 18.5714V12.1429C0 11.764 0.15051 11.4006 0.418418 11.1327C0.686327 10.8648 1.04969 10.7143 1.42857 10.7143H4.63214V20ZM6.06071 10.025C6.06071 9.22216 6.71142 8.57145 7.51428 8.57145H9.56927C10.3721 8.57145 11.0228 9.22216 11.0228 10.025V20H6.06071V10.025ZM12.4514 7.16788C12.4514 6.36502 13.1021 5.71431 13.9043 5.71431H15.7143C16.0931 5.71431 16.4565 5.86482 16.7244 6.13273C16.9923 6.40063 17.1428 6.764 17.1428 7.14288V18.5714C17.1428 18.9503 16.9923 19.3137 16.7244 19.5816C16.4565 19.8495 16.0931 20 15.7143 20H12.4514V7.16788Z" fill="#27C9AA"/>
</svg>
