<svg width="21" height="20" viewBox="0 0 21 20" fill="none" xmlns="http://www.w3.org/2000/svg">
<path d="M5.81309 15.6069C5.86087 15.6512 5.89882 15.7051 5.9245 15.765C5.95017 15.8249 5.963 15.8895 5.96214 15.9547C5.96335 16.0198 5.94976 16.0844 5.92239 16.1435C5.90144 16.2056 5.86359 16.2607 5.81309 16.3025C5.76825 16.3496 5.71431 16.3871 5.65452 16.4128C5.59473 16.4384 5.53035 16.4517 5.4653 16.4517C5.40024 16.4517 5.33586 16.4384 5.27607 16.4128C5.21629 16.3871 5.16234 16.3496 5.1175 16.3025C5.067 16.2607 5.02915 16.2056 5.0082 16.1435C4.98083 16.0844 4.96724 16.0198 4.96845 15.9547C4.96623 15.8895 4.97987 15.8247 5.0082 15.7659C5.06143 15.6464 5.157 15.5508 5.27649 15.4976C5.39746 15.4479 5.53313 15.4479 5.6541 15.4976C5.71622 15.5185 5.77128 15.5564 5.81309 15.6069ZM18.7907 13.7586C19.1797 14.0827 19.4926 14.4883 19.7072 14.9469C19.9219 15.4054 20.033 15.9055 20.0328 16.4118C20.0055 17.3702 19.6065 18.2804 18.9203 18.95C18.2341 19.6196 17.3144 19.9961 16.3557 20C15.3969 20.0038 14.4742 19.6347 13.7826 18.9707C13.091 18.3067 12.6848 17.3997 12.6497 16.4416V16.4317L10.9306 14.9511V16.9484C10.9306 17.3437 10.7736 17.7228 10.494 18.0023C10.2145 18.2819 9.83537 18.4389 9.44006 18.4389H1.49054C1.09522 18.4389 0.716097 18.2819 0.436568 18.0023C0.157038 17.7228 0 17.3437 0 16.9484V3.03671C0 2.64139 0.157038 2.26227 0.436568 1.98274C0.716097 1.70321 1.09522 1.54617 1.49054 1.54617H9.44006C9.83537 1.54617 10.2145 1.70321 10.494 1.98274C10.7736 2.26227 10.9306 2.64139 10.9306 3.03671V6.05753L13.1366 4.61668C13.0089 4.2562 12.945 3.87622 12.9478 3.49381C12.9482 2.80215 13.1537 2.12615 13.5385 1.55136C13.9232 0.976571 14.4697 0.528821 15.109 0.264772C15.7483 0.000722884 16.4515 -0.0677563 17.1297 0.0679998C17.8079 0.203756 18.4306 0.537646 18.919 1.02742C19.4074 1.51719 19.7395 2.14083 19.8733 2.81941C20.0072 3.498 19.9367 4.20104 19.6708 4.83955C19.4049 5.47807 18.9556 6.02337 18.3798 6.40645C17.8039 6.78953 17.1273 6.99317 16.4356 6.9916C15.6812 6.98465 14.9479 6.74138 14.3389 6.29601L14.2098 6.31589H14.1998L10.9306 6.77298V9.44601L12.2125 9.01872C12.2918 8.47428 12.4995 7.95654 12.8186 7.50831L14.1203 7.32945C14.2839 7.42862 14.4531 7.51821 14.6271 7.59775L14.6072 7.61762C14.5574 7.66081 14.5174 7.71422 14.49 7.77423C14.4625 7.83424 14.4484 7.89944 14.4484 7.96541C14.4484 8.03139 14.4625 8.09659 14.49 8.1566C14.5174 8.2166 14.5574 8.27001 14.6072 8.3132C14.6432 8.36539 14.6957 8.40391 14.7563 8.42251C14.8151 8.45083 14.8799 8.46447 14.9451 8.46226C15.0102 8.46347 15.0748 8.44988 15.1339 8.42251C15.1978 8.39932 15.2555 8.36194 15.3028 8.3132C15.3928 8.21986 15.4427 8.09505 15.4419 7.96541C15.4431 7.93199 15.4398 7.89857 15.432 7.86604C15.7607 7.94485 16.0976 7.98487 16.4356 7.98528C17.4738 7.98109 18.4796 7.62363 19.2875 6.97172C19.3728 6.91285 19.4497 6.84265 19.5161 6.76305C19.9416 7.07492 20.2888 7.48144 20.5302 7.95052C20.7716 8.41959 20.9007 8.93836 20.9072 9.46588C20.857 10.3488 20.5064 11.1879 19.9135 11.8441C19.3207 12.5002 18.5212 12.9338 17.6479 13.073C17.2871 13.1617 16.9165 13.2051 16.5449 13.2022C16.1048 13.2034 15.6667 13.1431 15.2432 13.0233H15.2333C14.6837 12.8884 14.1666 12.6448 13.7127 12.3069C13.2587 11.969 12.877 11.5436 12.5901 11.0558L10.9306 10.6384V13.8182L13.4446 14.2455C13.6169 14.0253 13.8136 13.8253 14.0309 13.6493C14.3348 13.79 14.6507 13.9031 14.9749 13.9872L15.0544 14.007C15.5409 14.1345 16.042 14.198 16.5449 14.1958C16.9867 14.2017 17.4274 14.1516 17.8566 14.0468C18.1757 13.9778 18.4882 13.8814 18.7907 13.7586ZM16.0481 10.9465C16.0464 11.0114 16.0577 11.0759 16.0814 11.1363C16.1052 11.1967 16.1408 11.2518 16.1862 11.2981C16.2317 11.3445 16.2859 11.3812 16.3459 11.4062C16.4058 11.4311 16.4701 11.4437 16.535 11.4433C16.6668 11.4433 16.7931 11.391 16.8863 11.2978C16.9795 11.2046 17.0318 11.0783 17.0318 10.9465V9.66462C17.0318 9.43607 17.4393 9.43607 17.4393 9.66462V10.9465C17.4393 11.0783 17.4916 11.2046 17.5848 11.2978C17.678 11.391 17.8043 11.4433 17.9361 11.4433C18.0679 11.4433 18.1943 11.391 18.2874 11.2978C18.3806 11.2046 18.433 11.0783 18.433 10.9465V9.66462C18.433 9.34837 18.3073 9.04507 18.0837 8.82145C17.8601 8.59782 17.5568 8.47219 17.2405 8.47219C16.9243 8.47219 16.621 8.59782 16.3974 8.82145C16.1737 9.04507 16.0481 9.34837 16.0481 9.66462V10.9465ZM14.4483 10.9465C14.4483 11.0783 14.5006 11.2046 14.5938 11.2978C14.687 11.391 14.8133 11.4433 14.9451 11.4433C15.0108 11.4448 15.076 11.433 15.137 11.4086C15.1979 11.3841 15.2533 11.3476 15.2997 11.3011C15.3462 11.2547 15.3827 11.1993 15.4072 11.1384C15.4316 11.0774 15.4434 11.0121 15.4419 10.9465V9.37645C15.4419 9.24468 15.3896 9.11831 15.2964 9.02513C15.2032 8.93195 15.0769 8.87961 14.9451 8.87961C14.814 8.88166 14.6888 8.93466 14.596 9.0274C14.5033 9.12013 14.4503 9.24532 14.4483 9.37645V10.9465ZM15.4419 4.98434C15.4419 5.11611 15.4943 5.24249 15.5875 5.33566C15.6806 5.42884 15.807 5.48119 15.9388 5.48119C16.0044 5.48268 16.0697 5.47085 16.1307 5.44641C16.1916 5.42197 16.247 5.38543 16.2934 5.33899C16.3399 5.29255 16.3764 5.23719 16.4009 5.17623C16.4253 5.11527 16.4371 5.05 16.4356 4.98434V3.99065H16.9325C17.0643 3.99065 17.1906 3.93831 17.2838 3.84513C17.377 3.75195 17.4293 3.62558 17.4293 3.49381C17.4293 3.36204 17.377 3.23566 17.2838 3.14248C17.1906 3.04931 17.0643 2.99696 16.9325 2.99696H16.4356V2.79822C16.4356 2.75908 16.4433 2.72031 16.4583 2.68414C16.4733 2.64797 16.4953 2.61511 16.5229 2.58743C16.5506 2.55975 16.5835 2.53779 16.6197 2.52281C16.6558 2.50783 16.6946 2.50012 16.7337 2.50012H17.2703C17.4021 2.50012 17.5285 2.44777 17.6217 2.35459C17.7148 2.26142 17.7672 2.13504 17.7672 2.00327C17.7672 1.8715 17.7148 1.74513 17.6217 1.65195C17.5285 1.55877 17.4021 1.50643 17.2703 1.50643H16.7337C16.3911 1.50643 16.0626 1.64253 15.8203 1.88479C15.578 2.12704 15.4419 2.45562 15.4419 2.79822V4.98434ZM9.9369 14.1014L9.28106 13.54L9.9369 13.6503V10.39L8.90346 10.1267L9.9369 9.77691V6.9121L9.53942 6.96874L9.9369 6.71336V3.03671C9.9369 2.90494 9.88455 2.77856 9.79138 2.68539C9.6982 2.59221 9.57183 2.53986 9.44006 2.53986H6.94987C6.94257 2.66555 6.88783 2.78379 6.79671 2.87067C6.70559 2.95755 6.58488 3.00659 6.45899 3.00789H4.47161C4.34571 3.00659 4.225 2.95755 4.13388 2.87067C4.04276 2.78379 3.98802 2.66555 3.98072 2.53986H1.49054C1.35876 2.53986 1.23239 2.59221 1.13921 2.68539C1.04604 2.77856 0.99369 2.90494 0.99369 3.03671V16.9484C0.99369 17.0801 1.04604 17.2065 1.13921 17.2997C1.23239 17.3929 1.35876 17.4452 1.49054 17.4452H9.44006C9.57183 17.4452 9.6982 17.3929 9.79138 17.2997C9.88455 17.2065 9.9369 17.0801 9.9369 16.9484V14.1014ZM17.7672 17.9023C17.7672 17.7705 17.7148 17.6442 17.6217 17.551C17.5285 17.4578 17.4021 17.4055 17.2703 17.4055H16.7337C16.6946 17.4055 16.6558 17.3978 16.6197 17.3828C16.5835 17.3678 16.5506 17.3458 16.5229 17.3182C16.4953 17.2905 16.4733 17.2576 16.4583 17.2214C16.4433 17.1853 16.4356 17.1465 16.4356 17.1074V16.4118H16.9325C17.0643 16.4118 17.1906 16.3594 17.2838 16.2663C17.377 16.1731 17.4293 16.0467 17.4293 15.9149C17.4293 15.7832 17.377 15.6568 17.2838 15.5636C17.1906 15.4704 17.0643 15.4181 16.9325 15.4181H16.4356V14.9312C16.4371 14.8655 16.4253 14.8002 16.4009 14.7393C16.3764 14.6783 16.3399 14.623 16.2934 14.5765C16.247 14.5301 16.1916 14.4935 16.1307 14.4691C16.0697 14.4447 16.0044 14.4328 15.9388 14.4343C15.807 14.4343 15.6806 14.4867 15.5875 14.5799C15.4943 14.673 15.4419 14.7994 15.4419 14.9312V17.1074C15.4419 17.277 15.4754 17.445 15.5403 17.6017C15.6052 17.7584 15.7003 17.9008 15.8203 18.0208C15.9403 18.1408 16.0827 18.2359 16.2394 18.3008C16.3961 18.3657 16.5641 18.3992 16.7337 18.3992H17.2703C17.4021 18.3992 17.5285 18.3468 17.6217 18.2536C17.7148 18.1605 17.7672 18.0341 17.7672 17.9023Z" fill="#B785FF"/>
</svg>
