<svg width="20" height="20" viewBox="0 0 20 20" fill="none" xmlns="http://www.w3.org/2000/svg">
<g clip-path="url(#clip0_11693_43189)">
<path d="M10.5924 9.83031V14.2942L14.4582 12.0623V7.5984L10.5924 9.83031ZM6.14062 6.58352L10.0064 8.81547L13.8723 6.58352L10.0064 4.35156L6.14062 6.58352ZM9.42051 9.83031L5.55469 7.5984V12.0623L9.42051 14.2942V9.83031Z" fill="#27C9AA"/>
<path d="M17.6505 3.35758C17.2291 3.35758 16.8432 3.51098 16.5447 3.76445L10.0245 0L3.48078 3.77801C3.18023 3.51648 2.78812 3.35758 2.35937 3.35758C1.41594 3.35758 0.648438 4.12508 0.648438 5.06852C0.648438 5.82035 1.13613 6.46004 1.81164 6.68898V14.225L8.28906 17.9647C8.26838 18.0716 8.25793 18.1802 8.25785 18.289C8.25785 19.2324 9.02535 19.9999 9.96879 19.9999C10.9122 19.9999 11.6797 19.2324 11.6797 18.289C11.6797 18.1986 11.6725 18.1097 11.6589 18.023L18.2373 14.225V6.67574C18.8925 6.43574 19.3614 5.80586 19.3614 5.06852C19.3614 4.12512 18.5939 3.35758 17.6505 3.35758ZM17.0636 13.5474L11.0885 16.9971C10.7882 16.7365 10.3967 16.5782 9.96875 16.5782C9.56203 16.5782 9.1882 16.7211 8.89426 16.9589L2.98535 13.5474V6.66031C3.61992 6.40988 4.07027 5.79102 4.07027 5.06852C4.07027 4.97879 4.06324 4.8907 4.04988 4.80469L10.0245 1.35523L15.9636 4.78418C15.9477 4.87812 15.9396 4.97323 15.9395 5.06852C15.9395 5.80586 16.4084 6.43574 17.0636 6.67574V13.5474Z" fill="#27C9AA"/>
</g>
<defs>
<clipPath id="clip0_11693_43189">
<rect width="20" height="20" fill="white"/>
</clipPath>
</defs>
</svg>
