<svg width="18" height="24" viewBox="0 0 18 24" fill="none" xmlns="http://www.w3.org/2000/svg">
<g clip-path="url(#clip0_11722_19791)">
<path d="M6.65731 0C3.60373 0 1.26073 2.75831 1.78442 5.79164C1.8507 6.17541 2.21563 6.43102 2.59686 6.36492C2.97955 6.29883 3.23623 5.93517 3.17014 5.55248C2.79566 3.38269 4.46942 1.40625 6.65736 1.40625C8.83869 1.40625 10.5155 3.37336 10.1463 5.54391C10.0811 5.92678 10.3387 6.28988 10.7214 6.35503C11.1042 6.42042 11.4673 6.16261 11.5325 5.77974C12.0465 2.75859 9.71464 0 6.65731 0Z" fill="#B785FF"/>
<path d="M14.1409 11.2798C13.6101 10.2383 12.3499 9.83731 11.3284 10.3423C10.8468 9.39753 9.74671 8.96023 8.75774 9.30359V4.99798C8.75774 3.85029 7.83543 2.89137 6.70148 2.86025C5.51329 2.8265 4.52873 3.77815 4.52873 4.96887V15.8008L3.70279 14.9359C2.9099 14.1058 1.5824 14.0474 0.743197 14.806C-0.142272 15.6064 -0.186428 16.9692 0.628963 17.8258L5.37613 22.8892C6.03824 23.5951 6.97302 24.0002 7.9409 24.0002H13.6664C15.605 24.0002 17.1821 22.4231 17.1821 20.4845V13.172C17.1821 11.6096 15.5339 10.591 14.1408 11.2798H14.1409Z" fill="#B785FF"/>
</g>
<defs>
<clipPath id="clip0_11722_19791">
<rect width="17.7391" height="24" fill="white"/>
</clipPath>
</defs>
</svg>
