<svg width="24" height="24" viewBox="0 0 24 24" fill="none" xmlns="http://www.w3.org/2000/svg">
<g clip-path="url(#clip0_11722_19806)">
<path d="M6.04836 4.83829L8.12961 5.97735C8.3968 6.12266 8.49523 6.45547 8.34992 6.72266C8.29836 6.81641 8.22336 6.89141 8.12961 6.94298L6.04836 8.07735C5.95461 8.12891 5.87961 8.20391 5.82805 8.29766L4.68898 10.3789C4.54367 10.6461 4.21086 10.7445 3.94367 10.5992C3.84992 10.5477 3.77492 10.4727 3.72336 10.3789L2.58898 8.29766C2.53742 8.20391 2.46242 8.12891 2.36867 8.07735L0.287421 6.94298C0.0202334 6.79766 -0.0782041 6.46485 0.0671084 6.19766C0.118671 6.10391 0.193671 6.02891 0.287421 5.97735L2.36867 4.83829C2.46242 4.78672 2.53742 4.71172 2.58898 4.61797L3.72805 2.54141C3.87336 2.27422 4.21086 2.17579 4.47805 2.32579C4.56711 2.37735 4.64211 2.45235 4.69367 2.54141L5.83273 4.61797C5.87961 4.71172 5.95461 4.78672 6.04836 4.83829ZM21.5405 15.9477L23.6218 17.0867C23.889 17.232 23.9874 17.5648 23.8421 17.832C23.7905 17.9258 23.7155 18.0008 23.6218 18.0523L21.5405 19.1914C21.4468 19.243 21.3718 19.318 21.3202 19.4117L20.1812 21.493C20.0359 21.7602 19.6984 21.8586 19.4312 21.7133C19.3374 21.6617 19.2624 21.5867 19.2109 21.493L18.0812 19.407C18.0296 19.3133 17.9546 19.2383 17.8609 19.1867L15.7796 18.0477C15.5124 17.9023 15.414 17.5648 15.5593 17.2977C15.6109 17.2039 15.6859 17.1289 15.7796 17.0773L17.8609 15.9383C17.9546 15.8867 18.0296 15.8117 18.0812 15.718L19.2202 13.6414C19.3655 13.3742 19.703 13.2758 19.9702 13.4211C20.064 13.4727 20.139 13.5477 20.1905 13.6414L21.3296 15.7227C21.3718 15.8211 21.4468 15.8961 21.5405 15.9477ZM12.5312 2.45704L13.8952 3.20235C14.0687 3.30079 14.1343 3.5211 14.0405 3.69454C14.0077 3.75547 13.9562 3.80235 13.8952 3.83985L12.5312 4.58516C12.4702 4.61797 12.4187 4.66954 12.3859 4.73047L11.6405 6.09454C11.5421 6.26797 11.3218 6.3336 11.1484 6.23985C11.0874 6.20704 11.0405 6.15547 11.003 6.09454L10.2577 4.73047C10.2249 4.66954 10.1734 4.61797 10.1124 4.58516L8.74836 3.83985C8.57492 3.7461 8.5093 3.52579 8.60305 3.34766C8.63586 3.28672 8.68742 3.23516 8.74836 3.20235L10.1124 2.45704C10.1734 2.42422 10.2249 2.37266 10.2577 2.31172L11.003 0.947662C11.1015 0.774225 11.3218 0.7086 11.4952 0.80235C11.5562 0.835162 11.603 0.886725 11.6405 0.947662L12.3859 2.31172C12.4187 2.37266 12.4702 2.42422 12.5312 2.45704ZM23.4671 3.08047L21.5405 1.15391C20.828 0.441412 19.6702 0.436725 18.953 1.14922L18.9484 1.15391L1.77336 18.3336C1.06086 19.0461 1.05617 20.2039 1.77336 20.9211L3.69992 22.8477C4.41242 23.5602 5.57023 23.5648 6.28742 22.8477L23.4671 5.66797C24.1796 4.95547 24.1796 3.79766 23.4671 3.08047ZM16.7687 9.57735L15.0437 7.85235L20.1296 2.76172L21.8546 4.48672L16.7687 9.57735Z" fill="#F1B917"/>
</g>
<defs>
<clipPath id="clip0_11722_19806">
<rect width="24" height="24" fill="white"/>
</clipPath>
</defs>
</svg>
