<svg width="20" height="20" viewBox="0 0 20 20" fill="none" xmlns="http://www.w3.org/2000/svg">
<path d="M18.95 2.82144V15.2857C18.95 17.3071 17.3071 18.95 15.2857 18.95H2.82144C3.21429 19.5786 3.91427 20 4.71427 20H17.7643C18.9929 20 20 18.9928 20 17.7643V4.71427C20 3.91427 19.5786 3.21429 18.95 2.82144ZM17.5215 2.23572C17.5215 1.00712 16.5214 0 15.2857 0H2.23572C1.00712 0 0 1.00712 0 2.23572V4.02143H17.5215V2.23572Z" fill="#B785FF"/>
<path d="M17.5215 15.2888V5.45312H0V15.2888C0 16.5246 1.00712 17.5245 2.23572 17.5245H15.2857C16.5214 17.5245 17.5215 16.5246 17.5215 15.2888Z" fill="#B785FF"/>
</svg>
