<svg width="18" height="18" viewBox="0 0 18 18" fill="none" xmlns="http://www.w3.org/2000/svg">
<path d="M16.875 4.5L18 4.5L18 0.5625C18 0.251824 17.7482 -1.10076e-08 17.4375 -2.45877e-08L13.5 -1.96701e-07L13.5 1.125L16.0819 1.125L10.8563 6.35062L11.6494 7.14375L16.875 1.91812L16.875 4.5ZM18 17.4375L18 13.5L16.875 13.5L16.875 16.0819L11.6494 10.8562L10.8562 11.6494L16.0819 16.875L13.5 16.875L13.5 18L17.4375 18C17.7482 18 18 17.7482 18 17.4375ZM1.91812 16.875L7.14375 11.6494L6.35063 10.8562L1.125 16.0819L1.125 13.5L-5.90104e-07 13.5L-7.62217e-07 17.4375C-7.75797e-07 17.7482 0.251823 18 0.562499 18L4.5 18L4.5 16.875L1.91812 16.875ZM7.14937 6.35062L1.91813 1.125L4.5 1.125L4.5 -5.90104e-07L0.5625 -7.62217e-07C0.251823 -7.75797e-07 -1.10076e-08 0.251823 -2.45877e-08 0.562499L-1.96701e-07 4.5L1.125 4.5L1.125 1.91812L6.35063 7.14375L7.14937 6.35062Z" fill="#2DA771"/>
</svg>
