<svg width="175" height="60" viewBox="0 0 175 60" fill="none" xmlns="http://www.w3.org/2000/svg">
<rect x="0.363281" y="0.910156" width="174.545" height="58.1818" rx="10" fill="#0C0D10"/>
<path d="M118.947 28.8373V32.1696H116.858V34.355H118.947V41.7804C118.947 44.316 120.094 45.3302 122.98 45.3302C123.487 45.3302 123.97 45.2698 124.392 45.1973V43.0361C124.03 43.0723 123.801 43.0965 123.402 43.0965C122.111 43.0965 121.543 42.4928 121.543 41.1164V34.355H124.392V32.1696H121.543V28.8373H118.947Z" fill="white"/>
<path d="M131.744 45.5113C135.583 45.5113 137.937 42.9395 137.937 38.6775C137.937 34.4395 135.571 31.8557 131.744 31.8557C127.904 31.8557 125.538 34.4395 125.538 38.6775C125.538 42.9395 127.892 45.5113 131.744 45.5113ZM131.744 43.2052C129.486 43.2052 128.218 41.551 128.218 38.6775C128.218 35.828 129.486 34.1618 131.744 34.1618C133.989 34.1618 135.269 35.828 135.269 38.6775C135.269 41.539 133.989 43.2052 131.744 43.2052Z" fill="white"/>
<path d="M139.952 45.2577H142.548V37.4942C142.548 35.6469 143.936 34.4033 145.904 34.4033C146.363 34.4033 147.136 34.4878 147.353 34.5603V32.0006C147.075 31.9282 146.58 31.8919 146.194 31.8919C144.48 31.8919 143.019 32.8337 142.644 34.1256H142.451V32.1093H139.952V45.2577Z" fill="white"/>
<path d="M153.799 34.0652C155.718 34.0652 156.974 35.4054 157.034 37.4701H150.394C150.539 35.4175 151.879 34.0652 153.799 34.0652ZM157.022 41.708C156.539 42.7343 155.465 43.3017 153.895 43.3017C151.818 43.3017 150.478 41.8408 150.394 39.5347V39.3898H159.679V38.4843C159.679 34.355 157.469 31.8557 153.811 31.8557C150.104 31.8557 147.75 34.524 147.75 38.7258C147.75 42.9275 150.056 45.5113 153.823 45.5113C156.829 45.5113 158.93 44.0624 159.522 41.708H157.022Z" fill="white"/>
<path d="M101.924 40.4022C102.124 43.6309 104.815 45.6957 108.819 45.6957C113.099 45.6957 115.777 43.5308 115.777 40.0768C115.777 37.3613 114.25 35.8595 110.546 34.9961L108.556 34.508C106.204 33.9574 105.253 33.219 105.253 31.9301C105.253 30.3032 106.729 29.2395 108.944 29.2395C111.047 29.2395 112.498 30.2782 112.761 31.9426H115.489C115.326 28.9016 112.648 26.7617 108.982 26.7617C105.04 26.7617 102.412 28.9016 102.412 32.1178C102.412 34.7708 103.901 36.3476 107.167 37.111L109.495 37.6741C111.885 38.2372 112.936 39.0632 112.936 40.4397C112.936 42.0416 111.284 43.2054 109.032 43.2054C106.617 43.2054 104.94 42.1166 104.702 40.4022H101.924Z" fill="white"/>
<path d="M75.0331 31.8919C73.2462 31.8919 71.7007 32.7854 70.9038 34.2826H70.7107V32.1093H68.2114V49.6285H70.8072V43.2655H71.0125C71.7007 44.654 73.1858 45.475 75.0572 45.475C78.3776 45.475 80.4905 42.855 80.4905 38.6775C80.4905 34.4999 78.3776 31.8919 75.0331 31.8919ZM74.2966 43.1448C72.1233 43.1448 70.7589 41.4303 70.7589 38.6895C70.7589 35.9367 72.1233 34.2222 74.3087 34.2222C76.5061 34.2222 77.8222 35.9005 77.8222 38.6775C77.8222 41.4665 76.5061 43.1448 74.2966 43.1448Z" fill="white"/>
<path d="M89.5739 31.8919C87.787 31.8919 86.2415 32.7854 85.4446 34.2826H85.2514V32.1093H82.7522V49.6285H85.348V43.2655H85.5533C86.2415 44.654 87.7266 45.475 89.598 45.475C92.9183 45.475 95.0313 42.855 95.0313 38.6775C95.0313 34.4999 92.9183 31.8919 89.5739 31.8919ZM88.8374 43.1448C86.6641 43.1448 85.2997 41.4303 85.2997 38.6895C85.2997 35.9367 86.6641 34.2222 88.8495 34.2222C91.0469 34.2222 92.363 35.9005 92.363 38.6775C92.363 41.4665 91.0469 43.1448 88.8374 43.1448Z" fill="white"/>
<path d="M63.5539 45.2577H66.5323L60.0124 27.1997H56.9965L50.4766 45.2577H53.3548L55.0192 40.4648H61.902L63.5539 45.2577ZM58.3605 30.4784H58.5733L61.1887 38.1121H55.7325L58.3605 30.4784Z" fill="white"/>
<path d="M52.2188 13.581V22.2923H55.364C57.9599 22.2923 59.4631 20.6925 59.4631 17.9094C59.4631 15.1687 57.9478 13.581 55.364 13.581H52.2188ZM53.571 14.8125H55.2131C57.0181 14.8125 58.0866 15.9595 58.0866 17.9276C58.0866 19.9258 57.0362 21.0607 55.2131 21.0607H53.571V14.8125Z" fill="white"/>
<path d="M64.0668 22.419C65.9866 22.419 67.1638 21.1332 67.1638 19.0021C67.1638 16.8832 65.9805 15.5913 64.0668 15.5913C62.1471 15.5913 60.9638 16.8832 60.9638 19.0021C60.9638 21.1332 62.1411 22.419 64.0668 22.419ZM64.0668 21.266C62.9379 21.266 62.304 20.4389 62.304 19.0021C62.304 17.5774 62.9379 16.7443 64.0668 16.7443C65.1897 16.7443 65.8296 17.5774 65.8296 19.0021C65.8296 20.4329 65.1897 21.266 64.0668 21.266Z" fill="white"/>
<path d="M77.1887 15.718H75.8908L74.7196 20.7347H74.617L73.2647 15.718H72.0211L70.6688 20.7347H70.5722L69.395 15.718H68.079L69.8901 22.2923H71.2242L72.5765 17.4506H72.6791L74.0374 22.2923H75.3837L77.1887 15.718Z" fill="white"/>
<path d="M78.6834 22.2923H79.9814V18.4467C79.9814 17.4205 80.5911 16.7805 81.551 16.7805C82.5109 16.7805 82.9697 17.3058 82.9697 18.3622V22.2923H84.2676V18.0362C84.2676 16.4727 83.4587 15.5913 81.9917 15.5913C81.0016 15.5913 80.3496 16.032 80.0297 16.7624H79.9331V15.718H78.6834V22.2923Z" fill="white"/>
<path d="M86.3117 22.2923H87.6097V13.1523H86.3117V22.2923Z" fill="white"/>
<path d="M92.4911 22.419C94.4109 22.419 95.5881 21.1332 95.5881 19.0021C95.5881 16.8832 94.4048 15.5913 92.4911 15.5913C90.5714 15.5913 89.3881 16.8832 89.3881 19.0021C89.3881 21.1332 90.5653 22.419 92.4911 22.419ZM92.4911 21.266C91.3622 21.266 90.7283 20.4389 90.7283 19.0021C90.7283 17.5774 91.3622 16.7443 92.4911 16.7443C93.614 16.7443 94.2539 17.5774 94.2539 19.0021C94.2539 20.4329 93.614 21.266 92.4911 21.266Z" fill="white"/>
<path d="M99.4553 21.3082C98.749 21.3082 98.2359 20.9641 98.2359 20.3725C98.2359 19.793 98.6464 19.4851 99.5519 19.4247L101.158 19.3221V19.8714C101.158 20.6864 100.433 21.3082 99.4553 21.3082ZM99.1233 22.4009C99.9866 22.4009 100.705 22.0266 101.097 21.3686H101.2V22.2923H102.45V17.8008C102.45 16.4123 101.52 15.5913 99.8719 15.5913C98.3807 15.5913 97.3182 16.3157 97.1854 17.4446H98.4411C98.586 16.9798 99.0871 16.7141 99.8115 16.7141C100.699 16.7141 101.158 17.1065 101.158 17.8008V18.3683L99.3768 18.4709C97.8133 18.5675 96.9319 19.2496 96.9319 20.4329C96.9319 21.6342 97.8555 22.4009 99.1233 22.4009Z" fill="white"/>
<path d="M106.854 22.4009C107.76 22.4009 108.526 21.9723 108.919 21.2539H109.021V22.2923H110.265V13.1523H108.967V16.7624H108.871C108.514 16.038 107.754 15.6094 106.854 15.6094C105.194 15.6094 104.125 16.9254 104.125 19.0021C104.125 21.0849 105.182 22.4009 106.854 22.4009ZM107.222 16.7745C108.309 16.7745 108.991 17.6378 108.991 19.0082C108.991 20.3846 108.315 21.2358 107.222 21.2358C106.124 21.2358 105.466 20.3967 105.466 19.0021C105.466 17.6197 106.13 16.7745 107.222 16.7745Z" fill="white"/>
<path d="M118.682 22.419C120.601 22.419 121.779 21.1332 121.779 19.0021C121.779 16.8832 120.595 15.5913 118.682 15.5913C116.762 15.5913 115.579 16.8832 115.579 19.0021C115.579 21.1332 116.756 22.419 118.682 22.419ZM118.682 21.266C117.553 21.266 116.919 20.4389 116.919 19.0021C116.919 17.5774 117.553 16.7443 118.682 16.7443C119.805 16.7443 120.445 17.5774 120.445 19.0021C120.445 20.4329 119.805 21.266 118.682 21.266Z" fill="white"/>
<path d="M123.497 22.2923H124.795V18.4467C124.795 17.4205 125.404 16.7805 126.364 16.7805C127.324 16.7805 127.783 17.3058 127.783 18.3622V22.2923H129.081V18.0362C129.081 16.4727 128.272 15.5913 126.805 15.5913C125.815 15.5913 125.163 16.032 124.843 16.7624H124.746V15.718H123.497V22.2923Z" fill="white"/>
<path d="M135.059 14.082V15.7482H134.014V16.8409H135.059V20.5536C135.059 21.8214 135.632 22.3285 137.075 22.3285C137.329 22.3285 137.57 22.2983 137.781 22.2621V21.1815C137.6 21.1996 137.486 21.2116 137.286 21.2116C136.64 21.2116 136.357 20.9098 136.357 20.2216V16.8409H137.781V15.7482H136.357V14.082H135.059Z" fill="white"/>
<path d="M139.524 22.2923H140.822V18.4528C140.822 17.4567 141.413 16.7866 142.476 16.7866C143.393 16.7866 143.882 17.3178 143.882 18.3683V22.2923H145.18V18.0483C145.18 16.4847 144.317 15.5973 142.916 15.5973C141.926 15.5973 141.232 16.038 140.912 16.7745H140.81V13.1523H139.524V22.2923Z" fill="white"/>
<path d="M149.862 16.696C150.822 16.696 151.45 17.3661 151.48 18.3984H148.16C148.233 17.3722 148.903 16.696 149.862 16.696ZM151.474 20.5174C151.233 21.0305 150.696 21.3143 149.911 21.3143C148.872 21.3143 148.202 20.5838 148.16 19.4308V19.3583H152.802V18.9055C152.802 16.8409 151.698 15.5913 149.869 15.5913C148.015 15.5913 146.838 16.9254 146.838 19.0263C146.838 21.1271 147.991 22.419 149.875 22.419C151.378 22.419 152.428 21.6946 152.724 20.5174H151.474Z" fill="white"/>
<path d="M36.3906 30.4399C36.4221 27.9948 37.7352 25.6812 39.8183 24.4005C38.5041 22.5237 36.303 21.3337 34.0129 21.2621C31.5704 21.0057 29.2025 22.7236 27.9578 22.7236C26.6891 22.7236 24.7727 21.2875 22.7091 21.33C20.0193 21.4169 17.5117 22.9462 16.203 25.2978C13.3899 30.1682 15.4883 37.3261 18.183 41.263C19.5312 43.1908 21.1069 45.3442 23.1686 45.2678C25.1861 45.1841 25.9397 43.9813 28.375 43.9813C30.7877 43.9813 31.4947 45.2678 33.5983 45.2192C35.7632 45.1841 37.1272 43.2829 38.4281 41.3368C39.3968 39.9632 40.1422 38.4451 40.6367 36.8387C38.0925 35.7626 36.3935 33.2022 36.3906 30.4399Z" fill="white"/>
<path d="M32.4172 18.673C33.5976 17.2559 34.1792 15.4346 34.0383 13.5957C32.2349 13.7851 30.5691 14.647 29.3728 16.0097C28.2029 17.3411 27.5941 19.1304 27.7092 20.899C29.5132 20.9176 31.2868 20.079 32.4172 18.673Z" fill="white"/>
</svg>
