<svg width="60" height="60" viewBox="0 0 60 60" fill="none" xmlns="http://www.w3.org/2000/svg">
<rect width="60" height="60" rx="20" fill="#9068D0" fill-opacity="0.2"/>
<path d="M30 13.65C28.564 13.65 27.4 14.8141 27.4 16.25C27.4 17.1917 27.9007 18.0164 28.65 18.4725V18.65H21.25C18.4333 18.65 16.15 20.9333 16.15 23.75V36.25C16.15 39.0332 18.3795 41.2958 21.15 41.349V45C21.15 45.7456 21.7544 46.35 22.5 46.35C23.2456 46.35 23.85 45.7456 23.85 45V41.35H36.15V45C36.15 45.7456 36.7544 46.35 37.5 46.35C38.2456 46.35 38.85 45.7456 38.85 45V41.349C41.6205 41.2958 43.85 39.0332 43.85 36.25V23.75C43.85 20.9333 41.5666 18.65 38.75 18.65H31.35V18.4725C32.0993 18.0164 32.6 17.1917 32.6 16.25C32.6 14.8141 31.436 13.65 30 13.65ZM38.75 39.0667H37.5H22.5H21.25C20.5917 39.0667 19.7887 38.6975 19.1468 38.15C18.5035 37.6013 18.0494 36.8974 18.0494 36.25V23.75C18.0494 23.0992 18.507 22.3033 19.1524 21.6629C19.7976 21.0227 20.5986 20.5695 21.25 20.5695H38.75C39.4019 20.5695 40.2166 21.0231 40.8756 21.6637C41.5349 22.3045 42.005 23.1002 42.005 23.75V36.25C42.005 36.8964 41.5386 37.6001 40.8812 38.1494C40.2255 38.6972 39.4087 39.0667 38.75 39.0667ZM36.35 25C36.35 24.2544 35.7456 23.65 35 23.65C34.2544 23.65 33.65 24.2544 33.65 25V27.5C33.65 28.2456 34.2544 28.85 35 28.85C35.7456 28.85 36.35 28.2456 36.35 27.5V25ZM26.35 25C26.35 24.2544 25.7456 23.65 25 23.65C24.2544 23.65 23.65 24.2544 23.65 25V27.5C23.65 28.2456 24.2544 28.85 25 28.85C25.7456 28.85 26.35 28.2456 26.35 27.5V25ZM26.35 32.5C26.35 31.7544 25.7456 31.15 25 31.15C24.2544 31.15 23.65 31.7544 23.65 32.5V33.75C23.65 35.186 24.814 36.35 26.25 36.35H33.75C35.186 36.35 36.35 35.186 36.35 33.75V32.5C36.35 31.7544 35.7456 31.15 35 31.15C34.2544 31.15 33.65 31.7544 33.65 32.5V33.65H26.35V32.5Z" fill="#363636" stroke="#363636" stroke-width="0.2"/>
</svg>
