<svg width="60" height="60" viewBox="0 0 60 60" fill="none" xmlns="http://www.w3.org/2000/svg">
<rect width="60" height="60" rx="20" fill="#49DDFE" fill-opacity="0.2"/>
<g clip-path="url(#clip0_5328_22439)">
<mask id="path-2-outside-1_5328_22439" maskUnits="userSpaceOnUse" x="14" y="14" width="32" height="32" fill="black">
<rect fill="white" x="14" y="14" width="32" height="32"/>
<path d="M25.5294 16.7831C25.8702 16.7831 26.1971 16.9183 26.438 17.1591C26.679 17.3998 26.8144 17.7264 26.8144 18.0669V25.5201C26.8156 25.689 26.7832 25.8565 26.719 26.0127C26.6548 26.169 26.5602 26.311 26.4407 26.4305C26.3211 26.5499 26.179 26.6445 26.0226 26.7086C25.8661 26.7727 25.6985 26.805 25.5294 26.8039H18.1053C17.9336 26.8086 17.7626 26.7789 17.6026 26.7166C17.4426 26.6542 17.2967 26.5604 17.1735 26.4407C17.0504 26.321 16.9526 26.1779 16.8858 26.0197C16.819 25.8616 16.7846 25.6917 16.7847 25.5201V18.1025C16.781 17.9283 16.8127 17.755 16.8777 17.5933C16.9428 17.4316 17.04 17.2847 17.1633 17.1614C17.2867 17.0381 17.4337 16.9411 17.5956 16.8761C17.7575 16.8111 17.9309 16.7794 18.1053 16.7831H25.5294ZM25.5294 15H18.1053C17.2817 15 16.4919 15.3269 15.9095 15.9087C15.3272 16.4905 15 17.2797 15 18.1025L15 25.5201C15 26.3437 15.3269 27.1338 15.909 27.717C16.4911 28.3003 17.2809 28.6291 18.1053 28.6315H25.5294C26.3547 28.6291 27.1454 28.3006 27.7289 27.7176C28.3124 27.1346 28.6413 26.3445 28.6437 25.5201V18.1025C28.6413 17.2789 28.3122 16.4897 27.7284 15.9082C27.1446 15.3266 26.3538 15 25.5294 15ZM41.8858 16.7831C42.2266 16.7831 42.5534 16.9183 42.7944 17.1591C43.0354 17.3998 43.1707 17.7264 43.1707 18.0669V25.5201C43.1719 25.689 43.1395 25.8565 43.0753 26.0127C43.0112 26.169 42.9166 26.311 42.797 26.4305C42.6775 26.5499 42.5353 26.6445 42.3789 26.7086C42.2225 26.7727 42.0549 26.805 41.8858 26.8039H34.4616C34.1208 26.8039 33.794 26.6686 33.553 26.4278C33.3121 26.1871 33.1767 25.8605 33.1767 25.5201V18.1025C33.1731 17.9313 33.2037 17.761 33.2666 17.6017C33.3294 17.4423 33.4234 17.297 33.5429 17.1743C33.6625 17.0515 33.8053 16.9537 33.963 16.8865C34.1207 16.8194 34.2902 16.7842 34.4616 16.7831H41.8858ZM41.8858 15H34.4616C33.6381 15 32.8482 15.3269 32.2659 15.9087C31.6835 16.4905 31.3563 17.2797 31.3563 18.1025V25.5201C31.3563 26.3437 31.6832 27.1338 32.2653 27.717C32.8474 28.3003 33.6372 28.6291 34.4616 28.6315H41.8858C42.711 28.6291 43.5017 28.3006 44.0853 27.7176C44.6688 27.1346 44.9976 26.3445 45 25.5201V18.1025C44.9976 17.2789 44.6685 16.4897 44.0847 15.9082C43.5009 15.3266 42.7102 15 41.8858 15ZM41.8858 33.1872C42.0545 33.1872 42.2216 33.2204 42.3775 33.2849C42.5334 33.3495 42.6751 33.444 42.7944 33.5632C42.9137 33.6824 43.0083 33.824 43.0729 33.9797C43.1375 34.1355 43.1707 34.3024 43.1707 34.471V41.8886C43.1719 42.0575 43.1395 42.225 43.0753 42.3812C43.0112 42.5375 42.9166 42.6795 42.797 42.799C42.6775 42.9184 42.5353 43.013 42.3789 43.0771C42.2225 43.1411 42.0549 43.1735 41.8858 43.1724H34.4616C34.1208 43.1724 33.794 43.0371 33.553 42.7963C33.3121 42.5556 33.1767 42.229 33.1767 41.8886V34.471C33.179 34.1313 33.3151 33.8061 33.5556 33.5658C33.7961 33.3256 34.1216 33.1896 34.4616 33.1872H41.8858ZM41.8858 31.4042H34.4616C33.6381 31.4042 32.8482 31.731 32.2659 32.3129C31.6835 32.8947 31.3563 33.6838 31.3563 34.5067V41.9242C31.3563 42.7479 31.6832 43.5379 32.2653 44.1212C32.8474 44.7044 33.6372 45.0333 34.4616 45.0357H41.8858C42.711 45.0333 43.5017 44.7047 44.0853 44.1217C44.6688 43.5387 44.9976 42.7487 45 41.9242V34.471C44.9976 33.6474 44.6685 32.8582 44.0847 32.2767C43.5009 31.6951 42.7102 31.3685 41.8858 31.3685V31.4042ZM25.5294 33.1872C25.6982 33.1872 25.8653 33.2204 26.0212 33.2849C26.1771 33.3495 26.3187 33.444 26.438 33.5632C26.5574 33.6824 26.652 33.824 26.7166 33.9797C26.7812 34.1355 26.8144 34.3024 26.8144 34.471V41.8886C26.8156 42.0575 26.7832 42.225 26.719 42.3812C26.6548 42.5375 26.5602 42.6795 26.4407 42.799C26.3211 42.9184 26.179 43.013 26.0226 43.0771C25.8661 43.1411 25.6985 43.1735 25.5294 43.1724H18.1053C17.9336 43.1771 17.7626 43.1474 17.6026 43.0851C17.4426 43.0227 17.2967 42.9289 17.1735 42.8092C17.0504 42.6895 16.9526 42.5464 16.8858 42.3882C16.819 42.2301 16.7846 42.0602 16.7847 41.8886V34.471C16.7858 34.2997 16.821 34.1304 16.8882 33.9728C16.9554 33.8152 17.0533 33.6726 17.1762 33.5531C17.2991 33.4337 17.4445 33.3398 17.604 33.277C17.7635 33.2142 17.9339 33.1837 18.1053 33.1872H25.5294ZM25.5294 31.4042H18.1053C17.2879 31.4041 16.5034 31.7261 15.922 32.3002C15.3407 32.8744 15.0094 33.6544 15 34.471L15 41.8886C15 42.7122 15.3269 43.5023 15.909 44.0855C16.4911 44.6688 17.2809 44.9976 18.1053 45H25.5294C26.3547 44.9976 27.1454 44.6691 27.7289 44.0861C28.3124 43.5031 28.6413 42.713 28.6437 41.8886V34.471C28.6413 33.6474 28.3122 32.8582 27.7284 32.2767C27.1446 31.6951 26.3538 31.3685 25.5294 31.3685V31.4042Z"/>
</mask>
<path d="M25.5294 16.7831C25.8702 16.7831 26.1971 16.9183 26.438 17.1591C26.679 17.3998 26.8144 17.7264 26.8144 18.0669V25.5201C26.8156 25.689 26.7832 25.8565 26.719 26.0127C26.6548 26.169 26.5602 26.311 26.4407 26.4305C26.3211 26.5499 26.179 26.6445 26.0226 26.7086C25.8661 26.7727 25.6985 26.805 25.5294 26.8039H18.1053C17.9336 26.8086 17.7626 26.7789 17.6026 26.7166C17.4426 26.6542 17.2967 26.5604 17.1735 26.4407C17.0504 26.321 16.9526 26.1779 16.8858 26.0197C16.819 25.8616 16.7846 25.6917 16.7847 25.5201V18.1025C16.781 17.9283 16.8127 17.755 16.8777 17.5933C16.9428 17.4316 17.04 17.2847 17.1633 17.1614C17.2867 17.0381 17.4337 16.9411 17.5956 16.8761C17.7575 16.8111 17.9309 16.7794 18.1053 16.7831H25.5294ZM25.5294 15H18.1053C17.2817 15 16.4919 15.3269 15.9095 15.9087C15.3272 16.4905 15 17.2797 15 18.1025L15 25.5201C15 26.3437 15.3269 27.1338 15.909 27.717C16.4911 28.3003 17.2809 28.6291 18.1053 28.6315H25.5294C26.3547 28.6291 27.1454 28.3006 27.7289 27.7176C28.3124 27.1346 28.6413 26.3445 28.6437 25.5201V18.1025C28.6413 17.2789 28.3122 16.4897 27.7284 15.9082C27.1446 15.3266 26.3538 15 25.5294 15ZM41.8858 16.7831C42.2266 16.7831 42.5534 16.9183 42.7944 17.1591C43.0354 17.3998 43.1707 17.7264 43.1707 18.0669V25.5201C43.1719 25.689 43.1395 25.8565 43.0753 26.0127C43.0112 26.169 42.9166 26.311 42.797 26.4305C42.6775 26.5499 42.5353 26.6445 42.3789 26.7086C42.2225 26.7727 42.0549 26.805 41.8858 26.8039H34.4616C34.1208 26.8039 33.794 26.6686 33.553 26.4278C33.3121 26.1871 33.1767 25.8605 33.1767 25.5201V18.1025C33.1731 17.9313 33.2037 17.761 33.2666 17.6017C33.3294 17.4423 33.4234 17.297 33.5429 17.1743C33.6625 17.0515 33.8053 16.9537 33.963 16.8865C34.1207 16.8194 34.2902 16.7842 34.4616 16.7831H41.8858ZM41.8858 15H34.4616C33.6381 15 32.8482 15.3269 32.2659 15.9087C31.6835 16.4905 31.3563 17.2797 31.3563 18.1025V25.5201C31.3563 26.3437 31.6832 27.1338 32.2653 27.717C32.8474 28.3003 33.6372 28.6291 34.4616 28.6315H41.8858C42.711 28.6291 43.5017 28.3006 44.0853 27.7176C44.6688 27.1346 44.9976 26.3445 45 25.5201V18.1025C44.9976 17.2789 44.6685 16.4897 44.0847 15.9082C43.5009 15.3266 42.7102 15 41.8858 15ZM41.8858 33.1872C42.0545 33.1872 42.2216 33.2204 42.3775 33.2849C42.5334 33.3495 42.6751 33.444 42.7944 33.5632C42.9137 33.6824 43.0083 33.824 43.0729 33.9797C43.1375 34.1355 43.1707 34.3024 43.1707 34.471V41.8886C43.1719 42.0575 43.1395 42.225 43.0753 42.3812C43.0112 42.5375 42.9166 42.6795 42.797 42.799C42.6775 42.9184 42.5353 43.013 42.3789 43.0771C42.2225 43.1411 42.0549 43.1735 41.8858 43.1724H34.4616C34.1208 43.1724 33.794 43.0371 33.553 42.7963C33.3121 42.5556 33.1767 42.229 33.1767 41.8886V34.471C33.179 34.1313 33.3151 33.8061 33.5556 33.5658C33.7961 33.3256 34.1216 33.1896 34.4616 33.1872H41.8858ZM41.8858 31.4042H34.4616C33.6381 31.4042 32.8482 31.731 32.2659 32.3129C31.6835 32.8947 31.3563 33.6838 31.3563 34.5067V41.9242C31.3563 42.7479 31.6832 43.5379 32.2653 44.1212C32.8474 44.7044 33.6372 45.0333 34.4616 45.0357H41.8858C42.711 45.0333 43.5017 44.7047 44.0853 44.1217C44.6688 43.5387 44.9976 42.7487 45 41.9242V34.471C44.9976 33.6474 44.6685 32.8582 44.0847 32.2767C43.5009 31.6951 42.7102 31.3685 41.8858 31.3685V31.4042ZM25.5294 33.1872C25.6982 33.1872 25.8653 33.2204 26.0212 33.2849C26.1771 33.3495 26.3187 33.444 26.438 33.5632C26.5574 33.6824 26.652 33.824 26.7166 33.9797C26.7812 34.1355 26.8144 34.3024 26.8144 34.471V41.8886C26.8156 42.0575 26.7832 42.225 26.719 42.3812C26.6548 42.5375 26.5602 42.6795 26.4407 42.799C26.3211 42.9184 26.179 43.013 26.0226 43.0771C25.8661 43.1411 25.6985 43.1735 25.5294 43.1724H18.1053C17.9336 43.1771 17.7626 43.1474 17.6026 43.0851C17.4426 43.0227 17.2967 42.9289 17.1735 42.8092C17.0504 42.6895 16.9526 42.5464 16.8858 42.3882C16.819 42.2301 16.7846 42.0602 16.7847 41.8886V34.471C16.7858 34.2997 16.821 34.1304 16.8882 33.9728C16.9554 33.8152 17.0533 33.6726 17.1762 33.5531C17.2991 33.4337 17.4445 33.3398 17.604 33.277C17.7635 33.2142 17.9339 33.1837 18.1053 33.1872H25.5294ZM25.5294 31.4042H18.1053C17.2879 31.4041 16.5034 31.7261 15.922 32.3002C15.3407 32.8744 15.0094 33.6544 15 34.471L15 41.8886C15 42.7122 15.3269 43.5023 15.909 44.0855C16.4911 44.6688 17.2809 44.9976 18.1053 45H25.5294C26.3547 44.9976 27.1454 44.6691 27.7289 44.0861C28.3124 43.5031 28.6413 42.713 28.6437 41.8886V34.471C28.6413 33.6474 28.3122 32.8582 27.7284 32.2767C27.1446 31.6951 26.3538 31.3685 25.5294 31.3685V31.4042Z" fill="#363636"/>
<path d="M25.5294 16.7831C25.8702 16.7831 26.1971 16.9183 26.438 17.1591C26.679 17.3998 26.8144 17.7264 26.8144 18.0669V25.5201C26.8156 25.689 26.7832 25.8565 26.719 26.0127C26.6548 26.169 26.5602 26.311 26.4407 26.4305C26.3211 26.5499 26.179 26.6445 26.0226 26.7086C25.8661 26.7727 25.6985 26.805 25.5294 26.8039H18.1053C17.9336 26.8086 17.7626 26.7789 17.6026 26.7166C17.4426 26.6542 17.2967 26.5604 17.1735 26.4407C17.0504 26.321 16.9526 26.1779 16.8858 26.0197C16.819 25.8616 16.7846 25.6917 16.7847 25.5201V18.1025C16.781 17.9283 16.8127 17.755 16.8777 17.5933C16.9428 17.4316 17.04 17.2847 17.1633 17.1614C17.2867 17.0381 17.4337 16.9411 17.5956 16.8761C17.7575 16.8111 17.9309 16.7794 18.1053 16.7831H25.5294ZM25.5294 15H18.1053C17.2817 15 16.4919 15.3269 15.9095 15.9087C15.3272 16.4905 15 17.2797 15 18.1025L15 25.5201C15 26.3437 15.3269 27.1338 15.909 27.717C16.4911 28.3003 17.2809 28.6291 18.1053 28.6315H25.5294C26.3547 28.6291 27.1454 28.3006 27.7289 27.7176C28.3124 27.1346 28.6413 26.3445 28.6437 25.5201V18.1025C28.6413 17.2789 28.3122 16.4897 27.7284 15.9082C27.1446 15.3266 26.3538 15 25.5294 15ZM41.8858 16.7831C42.2266 16.7831 42.5534 16.9183 42.7944 17.1591C43.0354 17.3998 43.1707 17.7264 43.1707 18.0669V25.5201C43.1719 25.689 43.1395 25.8565 43.0753 26.0127C43.0112 26.169 42.9166 26.311 42.797 26.4305C42.6775 26.5499 42.5353 26.6445 42.3789 26.7086C42.2225 26.7727 42.0549 26.805 41.8858 26.8039H34.4616C34.1208 26.8039 33.794 26.6686 33.553 26.4278C33.3121 26.1871 33.1767 25.8605 33.1767 25.5201V18.1025C33.1731 17.9313 33.2037 17.761 33.2666 17.6017C33.3294 17.4423 33.4234 17.297 33.5429 17.1743C33.6625 17.0515 33.8053 16.9537 33.963 16.8865C34.1207 16.8194 34.2902 16.7842 34.4616 16.7831H41.8858ZM41.8858 15H34.4616C33.6381 15 32.8482 15.3269 32.2659 15.9087C31.6835 16.4905 31.3563 17.2797 31.3563 18.1025V25.5201C31.3563 26.3437 31.6832 27.1338 32.2653 27.717C32.8474 28.3003 33.6372 28.6291 34.4616 28.6315H41.8858C42.711 28.6291 43.5017 28.3006 44.0853 27.7176C44.6688 27.1346 44.9976 26.3445 45 25.5201V18.1025C44.9976 17.2789 44.6685 16.4897 44.0847 15.9082C43.5009 15.3266 42.7102 15 41.8858 15ZM41.8858 33.1872C42.0545 33.1872 42.2216 33.2204 42.3775 33.2849C42.5334 33.3495 42.6751 33.444 42.7944 33.5632C42.9137 33.6824 43.0083 33.824 43.0729 33.9797C43.1375 34.1355 43.1707 34.3024 43.1707 34.471V41.8886C43.1719 42.0575 43.1395 42.225 43.0753 42.3812C43.0112 42.5375 42.9166 42.6795 42.797 42.799C42.6775 42.9184 42.5353 43.013 42.3789 43.0771C42.2225 43.1411 42.0549 43.1735 41.8858 43.1724H34.4616C34.1208 43.1724 33.794 43.0371 33.553 42.7963C33.3121 42.5556 33.1767 42.229 33.1767 41.8886V34.471C33.179 34.1313 33.3151 33.8061 33.5556 33.5658C33.7961 33.3256 34.1216 33.1896 34.4616 33.1872H41.8858ZM41.8858 31.4042H34.4616C33.6381 31.4042 32.8482 31.731 32.2659 32.3129C31.6835 32.8947 31.3563 33.6838 31.3563 34.5067V41.9242C31.3563 42.7479 31.6832 43.5379 32.2653 44.1212C32.8474 44.7044 33.6372 45.0333 34.4616 45.0357H41.8858C42.711 45.0333 43.5017 44.7047 44.0853 44.1217C44.6688 43.5387 44.9976 42.7487 45 41.9242V34.471C44.9976 33.6474 44.6685 32.8582 44.0847 32.2767C43.5009 31.6951 42.7102 31.3685 41.8858 31.3685V31.4042ZM25.5294 33.1872C25.6982 33.1872 25.8653 33.2204 26.0212 33.2849C26.1771 33.3495 26.3187 33.444 26.438 33.5632C26.5574 33.6824 26.652 33.824 26.7166 33.9797C26.7812 34.1355 26.8144 34.3024 26.8144 34.471V41.8886C26.8156 42.0575 26.7832 42.225 26.719 42.3812C26.6548 42.5375 26.5602 42.6795 26.4407 42.799C26.3211 42.9184 26.179 43.013 26.0226 43.0771C25.8661 43.1411 25.6985 43.1735 25.5294 43.1724H18.1053C17.9336 43.1771 17.7626 43.1474 17.6026 43.0851C17.4426 43.0227 17.2967 42.9289 17.1735 42.8092C17.0504 42.6895 16.9526 42.5464 16.8858 42.3882C16.819 42.2301 16.7846 42.0602 16.7847 41.8886V34.471C16.7858 34.2997 16.821 34.1304 16.8882 33.9728C16.9554 33.8152 17.0533 33.6726 17.1762 33.5531C17.2991 33.4337 17.4445 33.3398 17.604 33.277C17.7635 33.2142 17.9339 33.1837 18.1053 33.1872H25.5294ZM25.5294 31.4042H18.1053C17.2879 31.4041 16.5034 31.7261 15.922 32.3002C15.3407 32.8744 15.0094 33.6544 15 34.471L15 41.8886C15 42.7122 15.3269 43.5023 15.909 44.0855C16.4911 44.6688 17.2809 44.9976 18.1053 45H25.5294C26.3547 44.9976 27.1454 44.6691 27.7289 44.0861C28.3124 43.5031 28.6413 42.713 28.6437 41.8886V34.471C28.6413 33.6474 28.3122 32.8582 27.7284 32.2767C27.1446 31.6951 26.3538 31.3685 25.5294 31.3685V31.4042Z" stroke="#363636" stroke-width="0.6" mask="url(#path-2-outside-1_5328_22439)"/>
</g>
<defs>
<clipPath id="clip0_5328_22439">
<rect width="30" height="30" fill="white" transform="translate(15 15)"/>
</clipPath>
</defs>
</svg>
