<svg width="25" height="25" viewBox="0 0 25 25" fill="none" xmlns="http://www.w3.org/2000/svg">
<g id="automation (1) 1" clip-path="url(#clip0_470_20137)">
<path id="Vector" d="M17.8534 13.5684H19.175V10.5684H17.8534C17.714 10.0265 17.4989 9.50698 17.2145 9.02515L18.1488 8.09087L16.0275 5.96955L15.0932 6.90386C14.6114 6.61947 14.0919 6.4044 13.55 6.26501V4.94336H10.55V6.26501C10.0082 6.4044 9.48869 6.61947 9.00686 6.90386L8.07256 5.96956L5.95126 8.09088L6.88554 9.02516C6.60114 9.50699 6.38608 10.0265 6.2467 10.5684H4.92505V13.5684H6.2467C6.38609 14.1102 6.60116 14.6297 6.88555 15.1115L5.95127 16.0458L8.07257 18.1671L9.00685 17.2329C9.48868 17.5173 10.0082 17.7323 10.55 17.8717V19.1934H13.55V17.8717C14.0919 17.7323 14.6114 17.5173 15.0933 17.2329L16.0275 18.1671L18.1488 16.0458L17.2146 15.1115C17.4989 14.6297 17.714 14.1102 17.8534 13.5684ZM12.05 16.1934C11.2342 16.1934 10.4367 15.9514 9.75832 15.4982C9.07997 15.0449 8.55126 14.4007 8.23905 13.6469C7.92683 12.8932 7.84515 12.0638 8.00431 11.2636C8.16347 10.4634 8.55634 9.72844 9.13323 9.15154C9.71012 8.57465 10.4451 8.18178 11.2453 8.02262C12.0455 7.86346 12.8749 7.94515 13.6286 8.25736C14.3824 8.56957 15.0266 9.09828 15.4799 9.77663C15.9331 10.455 16.175 11.2525 16.175 12.0684C16.175 13.1624 15.7405 14.2116 14.9669 14.9852C14.1933 15.7588 13.1441 16.1934 12.05 16.1934Z" fill="#034737"/>
<path id="Vector_2" d="M10.925 14.3184L14.675 12.0684L10.925 9.81836V14.3184Z" fill="#034737"/>
<path id="Vector_3" d="M21.8 3.81836C22.6285 3.81836 23.3 3.14679 23.3 2.31836C23.3 1.48993 22.6285 0.818359 21.8 0.818359C20.9716 0.818359 20.3 1.48993 20.3 2.31836C20.3 3.14679 20.9716 3.81836 21.8 3.81836Z" fill="#034737"/>
<path id="Vector_4" d="M2.30005 3.81836C3.12848 3.81836 3.80005 3.14679 3.80005 2.31836C3.80005 1.48993 3.12848 0.818359 2.30005 0.818359C1.47162 0.818359 0.800049 1.48993 0.800049 2.31836C0.800049 3.14679 1.47162 3.81836 2.30005 3.81836Z" fill="#034737"/>
<path id="Vector_5" d="M21.8 23.3184C22.6285 23.3184 23.3 22.6468 23.3 21.8184C23.3 20.9899 22.6285 20.3184 21.8 20.3184C20.9716 20.3184 20.3 20.9899 20.3 21.8184C20.3 22.6468 20.9716 23.3184 21.8 23.3184Z" fill="#034737"/>
<path id="Vector_6" d="M2.30005 23.3184C3.12848 23.3184 3.80005 22.6468 3.80005 21.8184C3.80005 20.9899 3.12848 20.3184 2.30005 20.3184C1.47162 20.3184 0.800049 20.9899 0.800049 21.8184C0.800049 22.6468 1.47162 23.3184 2.30005 23.3184Z" fill="#034737"/>
<path id="Vector_7" d="M21.05 12.0684H20.3V12.8184H21.05V12.0684Z" fill="#034737"/>
<path id="Vector_8" d="M22.55 12.0684H21.8V12.8184H22.55V12.0684Z" fill="#034737"/>
<path id="Vector_9" d="M22.55 10.5684H21.8V11.3184H22.55V10.5684Z" fill="#034737"/>
<path id="Vector_10" d="M22.55 9.06836H21.8V9.81836H22.55V9.06836Z" fill="#034737"/>
<path id="Vector_11" d="M22.55 7.56836H21.8V8.31836H22.55V7.56836Z" fill="#034737"/>
<path id="Vector_12" d="M22.55 6.06836H21.8V6.81836H22.55V6.06836Z" fill="#034737"/>
<path id="Vector_13" d="M22.55 4.56836H21.8V5.31836H22.55V4.56836Z" fill="#034737"/>
<path id="Vector_14" d="M5.30005 1.56836H4.55005V2.31836H5.30005V1.56836Z" fill="#034737"/>
<path id="Vector_15" d="M6.80005 1.56836H6.05005V2.31836H6.80005V1.56836Z" fill="#034737"/>
<path id="Vector_16" d="M8.30005 1.56836H7.55005V2.31836H8.30005V1.56836Z" fill="#034737"/>
<path id="Vector_17" d="M9.80005 1.56836H9.05005V2.31836H9.80005V1.56836Z" fill="#034737"/>
<path id="Vector_18" d="M11.3 1.56836H10.55V2.31836H11.3V1.56836Z" fill="#034737"/>
<path id="Vector_19" d="M12.8 1.56836H12.05V2.31836H12.8V1.56836Z" fill="#034737"/>
<path id="Vector_20" d="M12.8 3.06836H12.05V3.81836H12.8V3.06836Z" fill="#034737"/>
<path id="Vector_21" d="M2.30005 18.8184H1.55005V19.5684H2.30005V18.8184Z" fill="#034737"/>
<path id="Vector_22" d="M2.30005 17.3184H1.55005V18.0684H2.30005V17.3184Z" fill="#034737"/>
<path id="Vector_23" d="M2.30005 15.8184H1.55005V16.5684H2.30005V15.8184Z" fill="#034737"/>
<path id="Vector_24" d="M2.30005 14.3184H1.55005V15.0684H2.30005V14.3184Z" fill="#034737"/>
<path id="Vector_25" d="M2.30005 12.8184H1.55005V13.5684H2.30005V12.8184Z" fill="#034737"/>
<path id="Vector_26" d="M2.30005 11.3184H1.55005V12.0684H2.30005V11.3184Z" fill="#034737"/>
<path id="Vector_27" d="M3.80005 11.3184H3.05005V12.0684H3.80005V11.3184Z" fill="#034737"/>
<path id="Vector_28" d="M12.05 20.3184H11.3V21.0684H12.05V20.3184Z" fill="#034737"/>
<path id="Vector_29" d="M12.05 21.8184H11.3V22.5684H12.05V21.8184Z" fill="#034737"/>
<path id="Vector_30" d="M13.55 21.8184H12.8V22.5684H13.55V21.8184Z" fill="#034737"/>
<path id="Vector_31" d="M15.05 21.8184H14.3V22.5684H15.05V21.8184Z" fill="#034737"/>
<path id="Vector_32" d="M16.55 21.8184H15.8V22.5684H16.55V21.8184Z" fill="#034737"/>
<path id="Vector_33" d="M18.05 21.8184H17.3V22.5684H18.05V21.8184Z" fill="#034737"/>
<path id="Vector_34" d="M19.55 21.8184H18.8V22.5684H19.55V21.8184Z" fill="#F582A5"/>
</g>
<defs>
<clipPath id="clip0_470_20137">
<rect width="24" height="24" fill="white" transform="translate(0.0500488 0.0683594)"/>
</clipPath>
</defs>
</svg>
