<svg width="60" height="60" viewBox="0 0 60 60" fill="none" xmlns="http://www.w3.org/2000/svg">
<g id="Icon">
<path id="Circle 2" opacity="0.21" fill-rule="evenodd" clip-rule="evenodd" d="M0 30V37C0 49.7025 10.2975 60 23 60H30H37C49.7025 60 60 49.7025 60 37V30V23C60 10.2975 49.7025 0 37 0H30H23C10.2975 0 0 10.2975 0 23V30Z" fill="#FEC53D"/>
<g id="icon">
<path id="Combined Shape" fill-rule="evenodd" clip-rule="evenodd" d="M15 24.3152L27.9005 31.7633C28.0394 31.8435 28.1851 31.9014 28.3333 31.9382V46.3834L15.9201 39.0372C15.3498 38.6997 15 38.0863 15 37.4236L15 24.3152ZM45 24.1172V37.4236C45 38.0863 44.6502 38.6997 44.0799 39.0372L31.6667 46.3834V31.8116C31.6969 31.7965 31.7269 31.7804 31.7566 31.7633L45 24.1172Z" fill="#FEC53D"/>
<path id="Path" opacity="0.499209" fill-rule="evenodd" clip-rule="evenodd" d="M15.4052 20.7014C15.5628 20.5024 15.7617 20.3343 15.9936 20.2108L29.1186 13.2201C29.6695 12.9266 30.3305 12.9266 30.8814 13.2201L44.0064 20.2108C44.1852 20.306 44.3443 20.4277 44.4801 20.5697L30.0899 28.8778C29.9953 28.9325 29.908 28.995 29.8285 29.064C29.749 28.995 29.6618 28.9325 29.5672 28.8778L15.4052 20.7014Z" fill="#FEC53D"/>
</g>
</g>
</svg>
