<svg width="16" height="16" viewBox="0 0 16 16" fill="none" xmlns="http://www.w3.org/2000/svg">
<g id="vuesax/linear/calendar-edit">
<g id="calendar-edit">
<path id="Vector" d="M5.33398 1.33325V3.33325" stroke="#3D3D3D" stroke-miterlimit="10" stroke-linecap="round" stroke-linejoin="round"/>
<path id="Vector_2" d="M10.666 1.33325V3.33325" stroke="#3D3D3D" stroke-miterlimit="10" stroke-linecap="round" stroke-linejoin="round"/>
<path id="Vector_3" d="M2.33398 6.06006H13.6673" stroke="#3D3D3D" stroke-miterlimit="10" stroke-linecap="round" stroke-linejoin="round"/>
<g id="Group">
<path id="Vector_4" d="M12.806 10.5134L10.446 12.8734C10.3527 12.9667 10.266 13.14 10.246 13.2667L10.1194 14.1667C10.0727 14.4934 10.2994 14.72 10.626 14.6734L11.526 14.5467C11.6527 14.5267 11.8327 14.44 11.9194 14.3467L14.2794 11.9867C14.686 11.58 14.8794 11.1067 14.2794 10.5067C13.686 9.91337 13.2127 10.1067 12.806 10.5134Z" stroke="#3D3D3D" stroke-miterlimit="10" stroke-linecap="round" stroke-linejoin="round"/>
<path id="Vector_5" d="M12.4668 10.8533C12.6668 11.5733 13.2268 12.1333 13.9468 12.3333" stroke="#3D3D3D" stroke-miterlimit="10" stroke-linecap="round" stroke-linejoin="round"/>
</g>
<path id="Vector_6" d="M8 14.6667H5.33333C3 14.6667 2 13.3334 2 11.3334V5.66671C2 3.66671 3 2.33337 5.33333 2.33337H10.6667C13 2.33337 14 3.66671 14 5.66671V8.00004" stroke="#3D3D3D" stroke-miterlimit="10" stroke-linecap="round" stroke-linejoin="round"/>
<path id="Vector_7" d="M7.99569 9.13338H8.00168" stroke="#3D3D3D" stroke-width="1.33333" stroke-linecap="round" stroke-linejoin="round"/>
<path id="Vector_8" d="M5.53084 9.13338H5.53683" stroke="#3D3D3D" stroke-width="1.33333" stroke-linecap="round" stroke-linejoin="round"/>
<path id="Vector_9" d="M5.53084 11.1334H5.53683" stroke="#3D3D3D" stroke-width="1.33333" stroke-linecap="round" stroke-linejoin="round"/>
</g>
</g>
</svg>
