<svg width="26" height="27" viewBox="0 0 26 27" fill="none" xmlns="http://www.w3.org/2000/svg">
<g id="campaign 1">
<path id="Vector" d="M24.3246 1.74495C24.2763 3.46172 23.9503 5.15933 23.3593 6.77189L19.2968 2.70939C20.9087 2.11473 22.6071 1.78946 24.3246 1.74495ZM18.4843 3.03845L23.0546 7.60877L22.6988 8.29452L17.7734 3.41952C18.1845 3.18227 18.2398 3.1717 18.4843 3.03845ZM17.0373 3.85095L22.2925 9.03064C19.9931 12.9079 16.3613 15.828 12.7213 17.6886C12.2492 17.9251 11.7731 18.1583 11.2734 18.3744C11.1921 18.4101 11.1011 18.4418 11.0191 18.476L7.59196 15.0228C9.35671 10.8604 12.5604 6.49645 17.0373 3.85095ZM16.631 7.7867C16.3947 7.7876 16.1608 7.83514 15.9429 7.92661C15.725 8.01807 15.5273 8.15166 15.3611 8.3197C14.6623 9.01845 14.6623 10.1608 15.3611 10.8588C16.0598 11.5575 17.2022 11.5575 17.9001 10.8588C18.5989 10.16 18.5989 9.01845 17.9001 8.3197C17.7341 8.152 17.5366 8.01867 17.319 7.92736C17.1013 7.83604 16.8678 7.78852 16.6318 7.78752L16.631 7.7867ZM16.631 8.5992C16.8837 8.5992 17.1478 8.68452 17.342 8.8787C17.4342 8.97011 17.5074 9.07888 17.5574 9.19875C17.6074 9.31861 17.6331 9.44719 17.6331 9.57705C17.6331 9.70691 17.6074 9.83548 17.5574 9.95535C17.5074 10.0752 17.4342 10.184 17.342 10.2754C17.1523 10.4619 16.897 10.5664 16.631 10.5664C16.3651 10.5664 16.1097 10.4619 15.9201 10.2754C15.8277 10.184 15.7544 10.0751 15.7043 9.95521C15.6543 9.83527 15.6285 9.7066 15.6285 9.57664C15.6285 9.44668 15.6543 9.31801 15.7043 9.19807C15.7544 9.07814 15.8277 8.96931 15.9201 8.87789C16.1108 8.69455 16.3665 8.59433 16.631 8.5992ZM8.68315 8.8787C9.1414 8.88439 9.58177 8.99733 10.0043 9.1322C9.68821 9.56608 9.38921 10.0373 9.0894 10.5037C8.89358 10.8027 8.68802 11.1147 8.50602 11.4178C8.22948 11.8926 7.96693 12.3754 7.71871 12.8656C7.5424 13.2053 7.39452 13.5416 7.23608 13.8813C7.22308 13.9097 7.19871 13.93 7.18571 13.9576C6.59583 13.3239 5.8459 12.9583 4.90015 13.1191C4.08521 13.2581 3.1159 13.7805 2.0564 14.4655C3.10371 12.5975 4.33465 10.9945 5.68746 10.0463C6.54627 9.44502 7.40915 9.05177 8.22652 8.90389C8.37779 8.88034 8.53021 8.8719 8.68315 8.8787ZM16.9357 16.0645C17.3444 17.3482 17.0901 18.8538 16.0216 20.3805C15.0735 21.7349 13.4728 22.9642 11.6033 24.0115C12.2906 22.9488 12.8098 21.9843 12.9488 21.1678C13.1088 20.2285 12.7351 19.4713 12.1119 18.8822C12.5506 18.6799 12.9918 18.48 13.4314 18.2476C13.8435 18.0296 14.2499 17.801 14.6501 17.5619C15.4367 17.1015 16.1995 16.6017 16.9357 16.0645ZM6.70796 16.4756L9.34858 19.091L8.7644 19.4461L6.37808 17.085L6.70796 16.4756ZM5.18452 18.71L3.25483 20.6396L3.66108 21.0207L5.56558 19.091L5.18452 18.71ZM5.97183 19.4713L2.87377 22.5693L3.25565 22.9504L6.3529 19.8523L5.97183 19.4713ZM6.73315 20.2594L4.42321 22.5693L4.80346 22.9504L7.11421 20.6396L6.73315 20.2594ZM2.87377 21.0207L2.49352 21.401L2.87377 21.7828L3.25565 21.401L2.87377 21.0207ZM2.49352 22.9504L2.11165 23.3306L2.49352 23.7125L2.87377 23.3306L2.49352 22.9504ZM4.04215 22.9504L3.66108 23.3306L4.04215 23.7125L4.42321 23.3306L4.04215 22.9504Z" fill="#034737"/>
</g>
</svg>
