<svg width="60" height="60" viewBox="0 0 60 60" fill="none" xmlns="http://www.w3.org/2000/svg">
<rect width="60" height="60" rx="20" fill="#FFE0D3"/>
<g clip-path="url(#clip0_7457_19197)">
<path d="M31.4168 38.4999C29.8542 38.4999 28.5835 37.2292 28.5835 35.6666C28.5835 34.104 29.8542 32.8333 31.4168 32.8333C32.9794 32.8333 34.2502 34.104 34.2502 35.6666C34.2502 37.2292 32.9794 38.4999 31.4168 38.4999ZM31.4168 34.9583C31.3236 34.9584 31.2314 34.977 31.1453 35.0128C31.0593 35.0487 30.9812 35.1011 30.9154 35.1671C30.8496 35.2332 30.7975 35.3115 30.762 35.3977C30.7265 35.4839 30.7083 35.5762 30.7085 35.6694C30.7087 35.7626 30.7272 35.8549 30.7631 35.9409C30.7989 36.027 30.8513 36.1051 30.9174 36.1709C30.9834 36.2366 31.0618 36.2888 31.1479 36.3243C31.2341 36.3598 31.3265 36.3779 31.4197 36.3778C31.6079 36.3774 31.7883 36.3022 31.9211 36.1689C32.054 36.0355 32.1284 35.8548 32.128 35.6666C32.1276 35.4783 32.0525 35.298 31.9191 35.1651C31.7857 35.0323 31.6051 34.9579 31.4168 34.9583ZM22.9168 38.4999C21.3542 38.4999 20.0835 37.2292 20.0835 35.6666C20.0835 34.104 21.3542 32.8333 22.9168 32.8333C24.4794 32.8333 25.7502 34.104 25.7502 35.6666C25.7502 37.2292 24.4794 38.4999 22.9168 38.4999ZM22.9168 34.9583C22.8236 34.9584 22.7314 34.977 22.6453 35.0128C22.5593 35.0487 22.4812 35.1011 22.4154 35.1671C22.3496 35.2332 22.2975 35.3115 22.262 35.3977C22.2265 35.4839 22.2083 35.5762 22.2085 35.6694C22.2087 35.7626 22.2272 35.8549 22.2631 35.9409C22.2989 36.027 22.3513 36.1051 22.4174 36.1709C22.4834 36.2366 22.5618 36.2888 22.6479 36.3243C22.7341 36.3598 22.8265 36.3779 22.9197 36.3778C23.1079 36.3774 23.2883 36.3022 23.4211 36.1689C23.554 36.0355 23.6284 35.8548 23.628 35.6666C23.6276 35.4783 23.5525 35.298 23.4191 35.1651C23.2857 35.0323 23.1051 34.9579 22.9168 34.9583Z" fill="#14171B"/>
<path d="M34.6043 46.9999H19.7293C18.6963 46.9992 17.7058 46.5885 16.9754 45.858C16.2449 45.1276 15.8342 44.1371 15.8335 43.1041V32.4791C15.8342 31.4461 16.2449 30.4556 16.9754 29.7251C17.7058 28.9947 18.6963 28.584 19.7293 28.5833H31.771C32.0528 28.5833 32.323 28.6952 32.5223 28.8945C32.7216 29.0937 32.8335 29.364 32.8335 29.6458C32.8335 29.9275 32.7216 30.1978 32.5223 30.3971C32.323 30.5963 32.0528 30.7083 31.771 30.7083H19.7293C18.7532 30.7083 17.9585 31.503 17.9585 32.4791V43.1041C17.9585 44.0802 18.7532 44.8749 19.7293 44.8749H34.6043C35.5804 44.8749 36.3752 44.0802 36.3752 43.1041V32.4791C36.3752 32.1973 36.4871 31.927 36.6864 31.7278C36.8856 31.5285 37.1559 31.4166 37.4377 31.4166C37.7195 31.4166 37.9897 31.5285 38.189 31.7278C38.3882 31.927 38.5002 32.1973 38.5002 32.4791V43.1041C38.4994 44.1371 38.0887 45.1276 37.3583 45.858C36.6278 46.5885 35.6373 46.9992 34.6043 46.9999Z" fill="#14171B"/>
<path d="M27.1665 30.7084C26.8847 30.7084 26.6145 30.5965 26.4152 30.3972C26.2159 30.198 26.104 29.9277 26.104 29.6459V25.0417C26.104 24.76 26.2159 24.4897 26.4152 24.2904C26.6145 24.0912 26.8847 23.9792 27.1665 23.9792C27.4483 23.9792 27.7185 24.0912 27.9178 24.2904C28.1171 24.4897 28.229 24.76 28.229 25.0417V29.6459C28.229 29.9277 28.1171 30.198 27.9178 30.3972C27.7185 30.5965 27.4483 30.7084 27.1665 30.7084ZM30.354 42.7501H23.979C23.6972 42.7501 23.427 42.6381 23.2277 42.4389C23.0284 42.2396 22.9165 41.9694 22.9165 41.6876C22.9165 41.4058 23.0284 41.1355 23.2277 40.9363C23.427 40.737 23.6972 40.6251 23.979 40.6251H30.354C30.6358 40.6251 30.906 40.737 31.1053 40.9363C31.3046 41.1355 31.4165 41.4058 31.4165 41.6876C31.4165 41.9694 31.3046 42.2396 31.1053 42.4389C30.906 42.6381 30.6358 42.7501 30.354 42.7501Z" fill="#14171B"/>
<path d="M27.1668 25.7499C25.6042 25.7499 24.3335 24.4792 24.3335 22.9166C24.3335 21.354 25.6042 20.0833 27.1668 20.0833C27.4486 20.0833 27.7189 20.1952 27.9181 20.3945C28.1174 20.5937 28.2293 20.864 28.2293 21.1458C28.2293 21.4275 28.1174 21.6978 27.9181 21.8971C27.7189 22.0963 27.4486 22.2083 27.1668 22.2083C26.979 22.2083 26.7988 22.2829 26.666 22.4157C26.5331 22.5486 26.4585 22.7287 26.4585 22.9166C26.4585 23.1044 26.5331 23.2846 26.666 23.4175C26.7988 23.5503 26.979 23.6249 27.1668 23.6249C27.4486 23.6249 27.7189 23.7369 27.9181 23.9361C28.1174 24.1354 28.2293 24.4056 28.2293 24.6874C28.2293 24.9692 28.1174 25.2395 27.9181 25.4387C27.7189 25.638 27.4486 25.7499 27.1668 25.7499ZM40.271 38.8541H37.4377C37.1559 38.8541 36.8856 38.7421 36.6864 38.5429C36.4871 38.3436 36.3752 38.0734 36.3752 37.7916C36.3752 37.5098 36.4871 37.2395 36.6864 37.0403C36.8856 36.841 37.1559 36.7291 37.4377 36.7291H40.271C40.5528 36.7291 40.823 36.841 41.0223 37.0403C41.2216 37.2395 41.3335 37.5098 41.3335 37.7916C41.3335 38.0734 41.2216 38.3436 41.0223 38.5429C40.823 38.7421 40.5528 38.8541 40.271 38.8541Z" fill="#14171B"/>
<path d="M40.2708 41.3333C39.989 41.3333 39.7188 41.2214 39.5195 41.0221C39.3203 40.8229 39.2083 40.5526 39.2083 40.2708V35.3125C39.2083 35.0307 39.3203 34.7605 39.5195 34.5612C39.7188 34.3619 39.989 34.25 40.2708 34.25C40.5526 34.25 40.8229 34.3619 41.0221 34.5612C41.2214 34.7605 41.3333 35.0307 41.3333 35.3125V40.2708C41.3333 40.5526 41.2214 40.8229 41.0221 41.0221C40.8229 41.2214 40.5526 41.3333 40.2708 41.3333ZM16.8958 38.8542H14.0625C13.7807 38.8542 13.5105 38.7422 13.3112 38.543C13.1119 38.3437 13 38.0735 13 37.7917C13 37.5099 13.1119 37.2396 13.3112 37.0404C13.5105 36.8411 13.7807 36.7292 14.0625 36.7292H16.8958C17.1776 36.7292 17.4479 36.8411 17.6471 37.0404C17.8464 37.2396 17.9583 37.5099 17.9583 37.7917C17.9583 38.0735 17.8464 38.3437 17.6471 38.543C17.4479 38.7422 17.1776 38.8542 16.8958 38.8542Z" fill="#14171B"/>
<path d="M14.0625 41.3333C13.7807 41.3333 13.5105 41.2214 13.3112 41.0221C13.1119 40.8229 13 40.5526 13 40.2708V35.3125C13 35.0307 13.1119 34.7605 13.3112 34.5612C13.5105 34.3619 13.7807 34.25 14.0625 34.25C14.3443 34.25 14.6145 34.3619 14.8138 34.5612C15.0131 34.7605 15.125 35.0307 15.125 35.3125V40.2708C15.125 40.5526 15.0131 40.8229 14.8138 41.0221C14.6145 41.2214 14.3443 41.3333 14.0625 41.3333ZM35.3125 28.5833C35.0307 28.5833 34.7605 28.4714 34.5612 28.2721C34.3619 28.0729 34.25 27.8026 34.25 27.5208V24.3333H32.4792C31.1121 24.3333 30 23.2213 30 21.8542V15.4792C30 14.1121 31.1121 13 32.4792 13H44.5208C45.8879 13 47 14.1121 47 15.4792V21.8542C47 23.2213 45.8879 24.3333 44.5208 24.3333H40.3317L36.0322 28.3014C35.8366 28.483 35.5794 28.5837 35.3125 28.5833ZM32.4792 15.125C32.3856 15.1261 32.2961 15.1638 32.23 15.23C32.1638 15.2961 32.1261 15.3856 32.125 15.4792V21.8542C32.125 22.0468 32.2865 22.2083 32.4792 22.2083H35.3125C35.5943 22.2083 35.8645 22.3203 36.0638 22.5195C36.2631 22.7188 36.375 22.989 36.375 23.2708V25.0941L39.1956 22.4903C39.3921 22.3092 39.6495 22.2085 39.9167 22.2083H44.5208C44.7135 22.2083 44.875 22.0468 44.875 21.8542V15.4792C44.8739 15.3856 44.8362 15.2961 44.77 15.23C44.7039 15.1638 44.6144 15.1261 44.5208 15.125H32.4792Z" fill="#14171B"/>
</g>
<defs>
<clipPath id="clip0_7457_19197">
<rect width="34" height="34" fill="white" transform="translate(13 13)"/>
</clipPath>
</defs>
</svg>
