<svg width="60" height="60" viewBox="0 0 60 60" fill="none" xmlns="http://www.w3.org/2000/svg">
<rect width="60" height="60" rx="20" fill="#D84C10"/>
<g clip-path="url(#clip0_1551_9289)">
<path d="M31.4167 38.4999C29.8541 38.4999 28.5833 37.2292 28.5833 35.6666C28.5833 34.104 29.8541 32.8333 31.4167 32.8333C32.9792 32.8333 34.25 34.104 34.25 35.6666C34.25 37.2292 32.9792 38.4999 31.4167 38.4999ZM31.4167 34.9583C31.3235 34.9584 31.2312 34.977 31.1452 35.0128C31.0591 35.0487 30.981 35.1011 30.9152 35.1671C30.8494 35.2332 30.7973 35.3115 30.7618 35.3977C30.7263 35.4839 30.7081 35.5762 30.7083 35.6694C30.7085 35.7626 30.7271 35.8549 30.7629 35.9409C30.7987 36.027 30.8512 36.1051 30.9172 36.1709C30.9832 36.2366 31.0616 36.2888 31.1478 36.3243C31.234 36.3598 31.3263 36.3779 31.4195 36.3778C31.6077 36.3774 31.7881 36.3022 31.9209 36.1689C32.0538 36.0355 32.1282 35.8548 32.1278 35.6666C32.1275 35.4783 32.0523 35.298 31.9189 35.1651C31.7856 35.0323 31.6049 34.9579 31.4167 34.9583ZM22.9167 38.4999C21.3541 38.4999 20.0833 37.2292 20.0833 35.6666C20.0833 34.104 21.3541 32.8333 22.9167 32.8333C24.4792 32.8333 25.75 34.104 25.75 35.6666C25.75 37.2292 24.4792 38.4999 22.9167 38.4999ZM22.9167 34.9583C22.8235 34.9584 22.7312 34.977 22.6452 35.0128C22.5591 35.0487 22.481 35.1011 22.4152 35.1671C22.3494 35.2332 22.2973 35.3115 22.2618 35.3977C22.2263 35.4839 22.2081 35.5762 22.2083 35.6694C22.2085 35.7626 22.2271 35.8549 22.2629 35.9409C22.2987 36.027 22.3512 36.1051 22.4172 36.1709C22.4832 36.2366 22.5616 36.2888 22.6478 36.3243C22.734 36.3598 22.8263 36.3779 22.9195 36.3778C23.1077 36.3774 23.2881 36.3022 23.4209 36.1689C23.5538 36.0355 23.6282 35.8548 23.6278 35.6666C23.6275 35.4783 23.5523 35.298 23.4189 35.1651C23.2856 35.0323 23.1049 34.9579 22.9167 34.9583Z" fill="white"/>
<path d="M34.6042 46.9999H19.7292C18.6962 46.9992 17.7057 46.5885 16.9752 45.858C16.2448 45.1276 15.8341 44.1371 15.8333 43.1041V32.4791C15.8341 31.4461 16.2448 30.4556 16.9752 29.7251C17.7057 28.9947 18.6962 28.584 19.7292 28.5833H31.7708C32.0526 28.5833 32.3229 28.6952 32.5221 28.8945C32.7214 29.0937 32.8333 29.364 32.8333 29.6458C32.8333 29.9275 32.7214 30.1978 32.5221 30.3971C32.3229 30.5963 32.0526 30.7083 31.7708 30.7083H19.7292C18.7531 30.7083 17.9583 31.503 17.9583 32.4791V43.1041C17.9583 44.0802 18.7531 44.8749 19.7292 44.8749H34.6042C35.5802 44.8749 36.375 44.0802 36.375 43.1041V32.4791C36.375 32.1973 36.4869 31.927 36.6862 31.7278C36.8855 31.5285 37.1557 31.4166 37.4375 31.4166C37.7193 31.4166 37.9895 31.5285 38.1888 31.7278C38.3881 31.927 38.5 32.1973 38.5 32.4791V43.1041C38.4992 44.1371 38.0886 45.1276 37.3581 45.858C36.6277 46.5885 35.6372 46.9992 34.6042 46.9999Z" fill="white"/>
<path d="M27.1667 30.7084C26.8849 30.7084 26.6146 30.5965 26.4154 30.3972C26.2161 30.198 26.1042 29.9277 26.1042 29.6459V25.0417C26.1042 24.76 26.2161 24.4897 26.4154 24.2904C26.6146 24.0912 26.8849 23.9792 27.1667 23.9792C27.4485 23.9792 27.7187 24.0912 27.918 24.2904C28.1172 24.4897 28.2292 24.76 28.2292 25.0417V29.6459C28.2292 29.9277 28.1172 30.198 27.918 30.3972C27.7187 30.5965 27.4485 30.7084 27.1667 30.7084ZM30.3542 42.7501H23.9792C23.6974 42.7501 23.4271 42.6381 23.2279 42.4389C23.0286 42.2396 22.9167 41.9694 22.9167 41.6876C22.9167 41.4058 23.0286 41.1355 23.2279 40.9363C23.4271 40.737 23.6974 40.6251 23.9792 40.6251H30.3542C30.636 40.6251 30.9062 40.737 31.1055 40.9363C31.3047 41.1355 31.4167 41.4058 31.4167 41.6876C31.4167 41.9694 31.3047 42.2396 31.1055 42.4389C30.9062 42.6381 30.636 42.7501 30.3542 42.7501Z" fill="white"/>
<path d="M27.1667 25.7499C25.6041 25.7499 24.3333 24.4792 24.3333 22.9166C24.3333 21.354 25.6041 20.0833 27.1667 20.0833C27.4485 20.0833 27.7187 20.1952 27.918 20.3945C28.1172 20.5937 28.2292 20.864 28.2292 21.1458C28.2292 21.4275 28.1172 21.6978 27.918 21.8971C27.7187 22.0963 27.4485 22.2083 27.1667 22.2083C26.9788 22.2083 26.7986 22.2829 26.6658 22.4157C26.533 22.5486 26.4583 22.7287 26.4583 22.9166C26.4583 23.1044 26.533 23.2846 26.6658 23.4175C26.7986 23.5503 26.9788 23.6249 27.1667 23.6249C27.4485 23.6249 27.7187 23.7369 27.918 23.9361C28.1172 24.1354 28.2292 24.4056 28.2292 24.6874C28.2292 24.9692 28.1172 25.2395 27.918 25.4387C27.7187 25.638 27.4485 25.7499 27.1667 25.7499ZM40.2708 38.8541H37.4375C37.1557 38.8541 36.8855 38.7421 36.6862 38.5429C36.4869 38.3436 36.375 38.0734 36.375 37.7916C36.375 37.5098 36.4869 37.2395 36.6862 37.0403C36.8855 36.841 37.1557 36.7291 37.4375 36.7291H40.2708C40.5526 36.7291 40.8229 36.841 41.0221 37.0403C41.2214 37.2395 41.3333 37.5098 41.3333 37.7916C41.3333 38.0734 41.2214 38.3436 41.0221 38.5429C40.8229 38.7421 40.5526 38.8541 40.2708 38.8541Z" fill="white"/>
<path d="M40.2708 41.3333C39.989 41.3333 39.7188 41.2214 39.5195 41.0221C39.3203 40.8229 39.2083 40.5526 39.2083 40.2708V35.3125C39.2083 35.0307 39.3203 34.7605 39.5195 34.5612C39.7188 34.3619 39.989 34.25 40.2708 34.25C40.5526 34.25 40.8229 34.3619 41.0221 34.5612C41.2214 34.7605 41.3333 35.0307 41.3333 35.3125V40.2708C41.3333 40.5526 41.2214 40.8229 41.0221 41.0221C40.8229 41.2214 40.5526 41.3333 40.2708 41.3333ZM16.8958 38.8542H14.0625C13.7807 38.8542 13.5105 38.7422 13.3112 38.543C13.1119 38.3437 13 38.0735 13 37.7917C13 37.5099 13.1119 37.2396 13.3112 37.0404C13.5105 36.8411 13.7807 36.7292 14.0625 36.7292H16.8958C17.1776 36.7292 17.4479 36.8411 17.6471 37.0404C17.8464 37.2396 17.9583 37.5099 17.9583 37.7917C17.9583 38.0735 17.8464 38.3437 17.6471 38.543C17.4479 38.7422 17.1776 38.8542 16.8958 38.8542Z" fill="white"/>
<path d="M14.0625 41.3333C13.7807 41.3333 13.5105 41.2214 13.3112 41.0221C13.1119 40.8229 13 40.5526 13 40.2708V35.3125C13 35.0307 13.1119 34.7605 13.3112 34.5612C13.5105 34.3619 13.7807 34.25 14.0625 34.25C14.3443 34.25 14.6145 34.3619 14.8138 34.5612C15.0131 34.7605 15.125 35.0307 15.125 35.3125V40.2708C15.125 40.5526 15.0131 40.8229 14.8138 41.0221C14.6145 41.2214 14.3443 41.3333 14.0625 41.3333ZM35.3125 28.5833C35.0307 28.5833 34.7605 28.4714 34.5612 28.2721C34.3619 28.0729 34.25 27.8026 34.25 27.5208V24.3333H32.4792C31.1121 24.3333 30 23.2213 30 21.8542V15.4792C30 14.1121 31.1121 13 32.4792 13H44.5208C45.8879 13 47 14.1121 47 15.4792V21.8542C47 23.2213 45.8879 24.3333 44.5208 24.3333H40.3317L36.0322 28.3014C35.8366 28.483 35.5794 28.5837 35.3125 28.5833ZM32.4792 15.125C32.3856 15.1261 32.2961 15.1638 32.23 15.23C32.1638 15.2961 32.1261 15.3856 32.125 15.4792V21.8542C32.125 22.0468 32.2865 22.2083 32.4792 22.2083H35.3125C35.5943 22.2083 35.8645 22.3203 36.0638 22.5195C36.2631 22.7188 36.375 22.989 36.375 23.2708V25.0941L39.1956 22.4903C39.3921 22.3092 39.6495 22.2085 39.9167 22.2083H44.5208C44.7135 22.2083 44.875 22.0468 44.875 21.8542V15.4792C44.8739 15.3856 44.8362 15.2961 44.77 15.23C44.7039 15.1638 44.6144 15.1261 44.5208 15.125H32.4792Z" fill="white"/>
</g>
<defs>
<clipPath id="clip0_1551_9289">
<rect width="34" height="34" fill="white" transform="translate(13 13)"/>
</clipPath>
</defs>
</svg>
