<svg width="60" height="60" viewBox="0 0 60 60" fill="none" xmlns="http://www.w3.org/2000/svg">
<g id="Icon">
<path id="Circle 2" opacity="0.3" fill-rule="evenodd" clip-rule="evenodd" d="M0 30V37C0 49.7025 10.2975 60 23 60H30H37C49.7025 60 60 49.7025 60 37V30V23C60 10.2975 49.7025 0 37 0H30H23C10.2975 0 0 10.2975 0 23V30Z" fill="#FF9066"/>
<g id="icon">
<path id="Path 107" opacity="0.78" fill-rule="evenodd" clip-rule="evenodd" d="M28.6312 23.8093C28.6512 23.5488 28.8684 23.3477 29.1297 23.3477H29.5475C29.8044 23.3477 30.0195 23.5423 30.045 23.7979L30.6667 30.0143L35.0814 32.537C35.2372 32.626 35.3333 32.7917 35.3333 32.9712V33.3597C35.3333 33.6894 35.0199 33.9288 34.7018 33.8421L28.3987 32.123C28.1673 32.0599 28.0133 31.8414 28.0317 31.6023L28.6312 23.8093Z" fill="#FF9066"/>
<path id="Combined Shape" opacity="0.901274" fill-rule="evenodd" clip-rule="evenodd" d="M22.7218 14.9836C22.4577 14.6689 21.9477 14.7893 21.8524 15.189L20.2189 22.0371C20.1412 22.3628 20.3993 22.6713 20.7336 22.6523L27.7783 22.2531C28.1892 22.2298 28.3976 21.7478 28.133 21.4325L26.3316 19.2857C27.4965 18.8876 28.7317 18.6797 30 18.6797C36.2592 18.6797 41.3333 23.7538 41.3333 30.0131C41.3333 36.2723 36.2592 41.3464 30 41.3464C23.7408 41.3464 18.6667 36.2723 18.6667 30.0131C18.6667 28.9623 18.809 27.9332 19.0864 26.944L16.5188 26.2238C16.1808 27.429 16 28.6999 16 30.0131C16 37.7451 22.268 44.0131 30 44.0131C37.732 44.0131 44 37.7451 44 30.0131C44 22.2811 37.732 16.0131 30 16.0131C28.0551 16.0131 26.2029 16.4096 24.5197 17.1263L22.7218 14.9836Z" fill="#FF9066"/>
</g>
</g>
</svg>
