<svg width="88" height="89" viewBox="0 0 88 89" fill="none" xmlns="http://www.w3.org/2000/svg">
<g filter="url(#filter0_d_1551_9169)">
<rect x="16" y="8.5" width="56" height="56" rx="28" fill="#4B0082" shape-rendering="crispEdges"/>
<g clip-path="url(#clip0_1551_9169)">
<path d="M44 27.9625C39.0125 27.9625 34.9625 32.0125 34.9625 37C34.9625 41.9875 39.0125 46.0375 44 46.0375C48.9875 46.0375 53.0375 41.9875 53.0375 37C53.0375 32.0125 48.9875 27.9625 44 27.9625ZM44 45.2875C39.425 45.2875 35.7125 41.575 35.7125 37C35.7125 32.425 39.425 28.7125 44 28.7125C48.575 28.7125 52.2875 32.425 52.2875 37C52.2875 41.575 48.575 45.2875 44 45.2875Z" fill="white"/>
<path d="M40.475 30.1751C40.1375 30.3626 39.8 30.5501 39.4625 30.7751C39.3125 30.8876 39.275 31.1501 39.3875 31.3001C39.4625 31.4126 39.575 31.4501 39.6875 31.4501C39.7625 31.4501 39.8375 31.4126 39.9125 31.3751C40.2125 31.1501 40.5125 30.9626 40.8125 30.8126C41 30.7001 41.075 30.4751 40.9625 30.3251C40.8875 30.1751 40.6625 30.1001 40.475 30.1751ZM38.45 31.7126C37.7375 32.4626 37.175 33.3251 36.8375 34.3001C36.7625 34.4876 36.875 34.7126 37.0625 34.7876C37.1 34.7876 37.1375 34.8251 37.2125 34.8251C37.3625 34.8251 37.5125 34.7501 37.55 34.6001C37.8875 33.7376 38.375 32.9501 39.0125 32.2751C39.1625 32.1251 39.1625 31.9001 39.0125 31.7501C38.8625 31.6001 38.5625 31.5626 38.45 31.7126ZM50.4125 40.4876C50.225 40.3751 50 40.4501 49.8875 40.6001C48.6125 42.6626 46.4 43.9001 44 43.9001C43.775 43.9001 43.625 44.0501 43.625 44.2751C43.625 44.5001 43.775 44.6501 44 44.6501C46.7 44.6501 49.1375 43.3001 50.525 40.9751C50.6375 40.8251 50.6 40.6001 50.4125 40.4876ZM51.3125 36.6251C51.0875 36.6251 50.9375 36.7751 50.9375 37.0001C50.9375 37.7501 50.825 38.4626 50.6 39.1376C50.525 39.3251 50.6375 39.5501 50.825 39.6251C50.8625 39.6251 50.9 39.6251 50.9375 39.6251C51.0875 39.6251 51.2375 39.5126 51.3125 39.3626C51.575 38.6126 51.6875 37.7876 51.6875 36.9626C51.6875 36.7751 51.5 36.6251 51.3125 36.6251Z" fill="white"/>
<path d="M44 26.125C38 26.125 33.125 31 33.125 37C33.125 43 38 47.875 44 47.875C50 47.875 54.875 43 54.875 37C54.875 31 50 26.125 44 26.125ZM44 47.125C38.4125 47.125 33.875 42.5875 33.875 37C33.875 31.4125 38.4125 26.875 44 26.875C49.5875 26.875 54.125 31.4125 54.125 37C54.125 42.5875 49.5875 47.125 44 47.125Z" fill="white"/>
</g>
</g>
<defs>
<filter id="filter0_d_1551_9169" x="0" y="0.5" width="88" height="88" filterUnits="userSpaceOnUse" color-interpolation-filters="sRGB">
<feFlood flood-opacity="0" result="BackgroundImageFix"/>
<feColorMatrix in="SourceAlpha" type="matrix" values="0 0 0 0 0 0 0 0 0 0 0 0 0 0 0 0 0 0 127 0" result="hardAlpha"/>
<feOffset dy="8"/>
<feGaussianBlur stdDeviation="8"/>
<feComposite in2="hardAlpha" operator="out"/>
<feColorMatrix type="matrix" values="0 0 0 0 0.294118 0 0 0 0 0 0 0 0 0 0.509804 0 0 0 0.4 0"/>
<feBlend mode="normal" in2="BackgroundImageFix" result="effect1_dropShadow_1551_9169"/>
<feBlend mode="normal" in="SourceGraphic" in2="effect1_dropShadow_1551_9169" result="shape"/>
</filter>
<clipPath id="clip0_1551_9169">
<rect width="24" height="24" fill="white" transform="translate(32 24.5)"/>
</clipPath>
</defs>
</svg>
