<svg width="32" height="32" viewBox="0 0 32 32" fill="none" xmlns="http://www.w3.org/2000/svg">
<g id="competitive-advantage 1">
<path id="Vector" d="M4.18778 24.8003C4.405 25.3746 4.42929 26.004 4.25696 26.5933L4.07625 27.2107H8.4499L8.46967 27.1618C8.74167 26.4978 8.87955 25.7971 8.87955 25.0785C8.87955 23.3825 8.31814 22.8719 6.18072 17.07H6.05931C5.9139 17.07 5.78214 17.1312 5.68896 17.2427C5.6431 17.2966 5.60981 17.36 5.59149 17.4284C5.57318 17.4968 5.5703 17.5684 5.58308 17.638L6.67625 22.8766L5.75531 23.069L4.65931 17.8159C4.62072 17.6089 4.62838 17.396 4.68175 17.1924C4.73512 16.9887 4.83288 16.7994 4.96802 16.638C5.10155 16.4784 5.2685 16.3501 5.45707 16.2621C5.64564 16.1741 5.85123 16.1286 6.05931 16.1288H6.19672L7.68002 12.7735C7.72064 12.6866 7.74339 12.5924 7.74693 12.4965C7.75047 12.4007 7.73472 12.305 7.70062 12.2154C7.66652 12.1257 7.61476 12.0438 7.54841 11.9745C7.48206 11.9052 7.40248 11.8499 7.31437 11.8119C7.22626 11.7739 7.13143 11.754 7.03549 11.7534C6.93954 11.7528 6.84445 11.7714 6.75585 11.8082C6.66724 11.845 6.58692 11.8992 6.51966 11.9676C6.45239 12.036 6.39955 12.1172 6.36425 12.2065L2.97743 20.1674C2.79535 20.5981 2.78491 21.0822 2.94825 21.5203L4.18778 24.8003ZM2.19531 30.5886H9.51625V28.1519H2.19578L2.19531 30.5886ZM2.92284 28.8996H3.85602V29.8408H2.92331L2.92284 28.8996ZM25.9393 17.0695H25.8179L23.4894 23.0935C22.9822 24.4045 22.9964 25.8599 23.529 27.1608L23.5492 27.2107H27.9228L27.7426 26.5952C27.3238 25.1401 28.1115 24.3599 29.0508 21.5218C29.2144 21.0833 29.204 20.5989 29.0217 20.1679L25.6344 12.2055C25.5586 12.0313 25.4167 11.8943 25.24 11.8247C25.0632 11.755 24.866 11.7585 24.6918 11.8342C24.5176 11.91 24.3806 12.0519 24.3109 12.2286C24.2413 12.4054 24.2447 12.6026 24.3205 12.7768L25.8028 16.1288C25.8706 16.142 26.5224 16.0305 27.0311 16.638C27.3026 16.9613 27.416 17.3853 27.3421 17.8013L26.2443 23.069L25.3233 22.8766L26.4193 17.6234C26.4293 17.5547 26.4244 17.4846 26.4049 17.418C26.3854 17.3513 26.3518 17.2896 26.3063 17.2371C26.2609 17.1846 26.2047 17.1425 26.1415 17.1137C26.0783 17.0848 26.0097 17.0699 25.9403 17.07L25.9393 17.0695ZM22.4819 28.1519V30.5886H29.8028V28.1519H22.4819ZM29.0753 29.8413H28.1421V28.9001H29.0753V29.8413ZM20.7054 8.64505L18.6207 10.0098L16.9925 7.4074C16.6772 7.62858 16.296 7.76034 15.8819 7.76034C15.4678 7.76034 15.0819 7.62858 14.7666 7.41211L13.1478 10.0098L11.2278 8.77681C10.9501 9.2427 10.4843 9.58623 9.93837 9.69446C10.1972 11.0121 10.5407 12.6498 10.7948 13.5251C14.1265 12.5556 17.6655 12.5556 20.9972 13.5251C21.2466 12.6686 21.6419 11.0168 21.9525 9.66623C21.683 9.59672 21.4318 9.46937 21.2165 9.29302C21.0011 9.11668 20.8267 8.89557 20.7054 8.64505ZM10.5572 7.79093C10.5572 7.23846 10.1101 6.7867 9.55719 6.7867C9.00472 6.7867 8.55249 7.23846 8.55249 7.79093C8.55249 8.3434 9.00425 8.79093 9.55719 8.79093C10.1097 8.79093 10.5572 8.34387 10.5572 7.79093ZM23.4466 7.79093C23.4466 7.23846 22.9991 6.7867 22.4461 6.7867C21.8937 6.7867 21.4419 7.23846 21.4419 7.79093C21.4419 8.3434 21.8937 8.79093 22.4466 8.79093C22.9991 8.79093 23.4466 8.34387 23.4466 7.79093ZM15.88 6.81917C16.433 6.81917 16.88 6.37211 16.88 5.81917C16.88 5.26623 16.433 4.81446 15.88 4.81446C15.3275 4.81446 14.8758 5.26623 14.8758 5.81917C14.8758 6.37211 15.3275 6.81917 15.88 6.81917ZM10.9661 3.68882L12.633 4.94152L12.0678 5.69399L10.401 4.44129L10.9661 3.68882ZM15.529 1.41211H16.4701V3.49587H15.529V1.41211ZM21.0339 3.68882L21.5986 4.44129L19.9313 5.69305L19.3666 4.94058L21.0339 3.68882Z" fill="white"/>
</g>
</svg>
