<svg width="88" height="89" viewBox="0 0 88 89" fill="none" xmlns="http://www.w3.org/2000/svg">
<g filter="url(#filter0_d_1551_9159)">
<rect x="16" y="8.5" width="56" height="56" rx="28" fill="#228B22" shape-rendering="crispEdges"/>
<path d="M46 35.5H42C40.9 35.5 40 34.6 40 33.5C40 32.4 40.9 31.5 42 31.5H47C47.6 31.5 48 31.9 48 32.5C48 33.1 48.4 33.5 49 33.5C49.6 33.5 50 33.1 50 32.5C50 30.8 48.7 29.5 47 29.5H45V27.5C45 26.9 44.6 26.5 44 26.5C43.4 26.5 43 26.9 43 27.5V29.5H42C39.8 29.5 38 31.3 38 33.5C38 35.7 39.8 37.5 42 37.5H46C47.1 37.5 48 38.4 48 39.5C48 40.6 47.1 41.5 46 41.5H41C40.4 41.5 40 41.1 40 40.5C40 39.9 39.6 39.5 39 39.5C38.4 39.5 38 39.9 38 40.5C38 42.2 39.3 43.5 41 43.5H43V45.5C43 46.1 43.4 46.5 44 46.5C44.6 46.5 45 46.1 45 45.5V43.5H46C48.2 43.5 50 41.7 50 39.5C50 37.3 48.2 35.5 46 35.5Z" fill="white"/>
</g>
<defs>
<filter id="filter0_d_1551_9159" x="0" y="0.5" width="88" height="88" filterUnits="userSpaceOnUse" color-interpolation-filters="sRGB">
<feFlood flood-opacity="0" result="BackgroundImageFix"/>
<feColorMatrix in="SourceAlpha" type="matrix" values="0 0 0 0 0 0 0 0 0 0 0 0 0 0 0 0 0 0 127 0" result="hardAlpha"/>
<feOffset dy="8"/>
<feGaussianBlur stdDeviation="8"/>
<feComposite in2="hardAlpha" operator="out"/>
<feColorMatrix type="matrix" values="0 0 0 0 0.133333 0 0 0 0 0.545098 0 0 0 0 0.133333 0 0 0 0.4 0"/>
<feBlend mode="normal" in2="BackgroundImageFix" result="effect1_dropShadow_1551_9159"/>
<feBlend mode="normal" in="SourceGraphic" in2="effect1_dropShadow_1551_9159" result="shape"/>
</filter>
</defs>
</svg>
