<svg width="31" height="31" viewBox="0 0 31 31" fill="none" xmlns="http://www.w3.org/2000/svg">
<g id="efficiency 1" clip-path="url(#clip0_470_21939)">
<path id="Vector" d="M27.0702 11.8514C26.8638 11.1764 26.5923 10.5231 26.2595 9.90074C27.7455 7.35636 28.4957 6.9338 28.0241 6.44782L24.5521 2.96151C24.4758 2.88455 24.3752 2.83633 24.2674 2.82504C24.1597 2.81374 24.0513 2.84005 23.9607 2.89951L21.0848 4.72613C20.5531 4.44617 19.6517 4.0861 19.1533 3.92967L18.4188 0.61505C18.3711 0.395666 18.1756 0.238281 17.9514 0.238281H13.0487C12.8245 0.238281 12.6338 0.395666 12.5861 0.61505L11.8516 3.92967C11.4066 4.0694 10.4971 4.41994 9.90099 4.72613L7.04422 2.89951C6.85345 2.77551 6.60545 2.80413 6.44806 2.96151L2.96176 6.44782C2.80437 6.60521 2.77576 6.85321 2.89976 7.04397L4.72637 9.90074C4.39539 10.5284 4.14929 11.1655 3.94899 11.8323L0.610525 12.5858C0.39591 12.6335 0.238525 12.8291 0.238525 13.0484V17.9703C0.238525 18.1944 0.39591 18.39 0.615295 18.4377L3.93468 19.1531C4.15883 19.8494 4.42591 20.5027 4.73114 21.0989L2.89976 23.9795C2.77576 24.1655 2.80437 24.4135 2.96653 24.5709L6.45283 28.0238C6.61022 28.1812 6.85345 28.2051 7.03945 28.0858L9.90099 26.2735C10.5305 26.6026 11.1839 26.8744 11.8516 27.0747L12.5861 30.3894C12.6338 30.6087 12.8245 30.7614 13.0487 30.7614H17.9514C18.1756 30.7614 18.3711 30.6087 18.4188 30.3894L19.1533 27.07C19.8067 26.8697 20.4601 26.6026 21.0991 26.2735L23.9607 28.0858C24.1467 28.2051 24.3947 28.1812 24.5521 28.0238L28.0193 24.5709C28.1814 24.4135 28.2053 24.1655 28.0861 23.9795L26.2595 21.1037C26.5933 20.4741 26.8651 19.8207 27.0702 19.1531L30.3848 18.4377C30.6042 18.39 30.7616 18.1944 30.7616 17.9703V13.0484C30.7616 12.3784 29.9599 12.6168 27.0702 11.8514ZM22.3592 21.6874L21.2222 20.5509L20.5478 21.2253L21.6843 22.3618C20.1106 23.7836 18.0938 24.6179 15.9756 24.7235V23.1187H15.0217V24.723C12.9037 24.617 10.8874 23.7817 9.31485 22.3589L10.4494 21.2248L9.7746 20.5504L8.64096 21.6846C7.2198 20.1115 6.38612 18.0955 6.28114 15.9782H7.88122V15.0243H6.28114C6.38781 12.9077 7.22206 10.8928 8.64286 9.32033L9.77413 10.4516L10.4494 9.77674L9.31723 8.64501C10.8891 7.2225 12.9044 6.38727 15.0217 6.2809V7.88288H15.9756V6.28042C18.0932 6.38621 20.1093 7.22053 21.6824 8.64214L20.5478 9.77722L21.2222 10.4516L22.3573 9.31651C23.7805 10.8892 24.6164 12.9055 24.7233 15.0239H23.1165V15.9777H24.7238C24.6183 18.0967 23.7829 20.1144 22.3592 21.6874Z" fill="white"/>
<path id="Vector_2" d="M16.4832 13.2104H14.5183C14.256 13.2104 14.0414 13.4202 14.0414 13.6873V19.2673C14.0414 19.5296 14.256 19.7442 14.5183 19.7442H16.4832C16.7503 19.7442 16.9601 19.5296 16.9601 19.2673V13.6873C16.9601 13.4202 16.7503 13.2104 16.4832 13.2104ZM12.9301 14.6555H10.9652C10.7029 14.6555 10.4883 14.8653 10.4883 15.1324V19.2673C10.4883 19.5296 10.7029 19.7442 10.9652 19.7442H12.9301C13.1924 19.7442 13.4071 19.5296 13.4071 19.2673V15.1324C13.4071 14.8653 13.1924 14.6555 12.9301 14.6555ZM20.0411 11.2598H18.0714C17.8091 11.2598 17.5944 11.4696 17.5944 11.7367V19.2673C17.5944 19.5296 17.8091 19.7442 18.0714 19.7442H20.0411C20.3034 19.7442 20.518 19.5296 20.518 19.2673V11.7367C20.518 11.4696 20.3034 11.2598 20.0411 11.2598Z" fill="white"/>
</g>
<defs>
<clipPath id="clip0_470_21939">
<rect width="31" height="31" fill="white"/>
</clipPath>
</defs>
</svg>
