<svg width="27" height="27" viewBox="0 0 27 27" fill="none" xmlns="http://www.w3.org/2000/svg">
<g id="engagement 1">
<path id="Vector" d="M18.7375 8.19336C20.0837 8.19336 21.175 7.10205 21.175 5.75586C21.175 4.40967 20.0837 3.31836 18.7375 3.31836C17.3914 3.31836 16.3 4.40967 16.3 5.75586C16.3 7.10205 17.3914 8.19336 18.7375 8.19336Z" fill="#034737"/>
<path id="Vector_2" d="M15.2113 21.7337L15.0813 20.9821C15.0681 20.9035 15.0321 20.8304 14.9778 20.7721C14.9234 20.7138 14.853 20.6728 14.7755 20.6541C14.698 20.6355 14.6167 20.6401 14.5417 20.6674C14.4668 20.6946 14.4016 20.7433 14.3541 20.8074L13.501 22.0059C13.4385 22.0928 13.4128 22.2008 13.4295 22.3066C13.4463 22.4123 13.5041 22.5072 13.5904 22.5705L14.7766 23.4318C14.8425 23.4813 14.922 23.5095 15.0043 23.5128C15.0867 23.5161 15.1681 23.4942 15.2377 23.4501C15.3074 23.4061 15.362 23.3418 15.3942 23.266C15.4265 23.1902 15.435 23.1063 15.4185 23.0255L15.3413 22.5421C17.0801 22.1212 18.6696 21.2299 19.9358 19.966C21.2019 18.702 22.0959 17.114 22.5197 15.3759L23.1251 15.4977C23.2026 15.5103 23.2822 15.5001 23.3541 15.4684C23.426 15.4367 23.4872 15.3848 23.5302 15.319C23.5732 15.2532 23.5962 15.1763 23.5964 15.0977C23.5966 15.0191 23.574 14.9422 23.5313 14.8762L22.7188 13.6574C22.6592 13.5684 22.5669 13.5064 22.4619 13.4851C22.3569 13.4638 22.2477 13.4849 22.1582 13.5437L20.9394 14.3562C20.87 14.4005 20.8158 14.4649 20.7838 14.5408C20.7518 14.6167 20.7437 14.7005 20.7604 14.7811C20.7772 14.8617 20.818 14.9353 20.8775 14.9922C20.9371 15.0491 21.0125 15.0866 21.0938 15.0996L21.7235 15.2255C21.3307 16.7991 20.5171 18.2362 19.3699 19.3827C18.2227 20.5291 16.7851 21.3418 15.2113 21.7337ZM18.7376 1.28711C17.5323 1.28711 16.3542 1.6445 15.352 2.31409C14.3499 2.98368 13.5689 3.9354 13.1077 5.04888C12.6464 6.16237 12.5258 7.38762 12.7609 8.56969C12.996 9.75176 13.5764 10.8376 14.4286 11.6898C15.2808 12.542 16.3666 13.1224 17.5487 13.3575C18.7308 13.5926 19.956 13.472 21.0695 13.0107C22.183 12.5495 23.1347 11.7685 23.8043 10.7664C24.4739 9.76425 24.8313 8.58609 24.8313 7.38086C24.8313 5.7647 24.1893 4.21473 23.0465 3.07193C21.9037 1.92913 20.3537 1.28711 18.7376 1.28711ZM22.2638 11.3012C22.052 10.5283 21.5922 9.84649 20.9551 9.36048C20.318 8.87447 19.5389 8.61122 18.7376 8.61122C17.9362 8.61122 17.1571 8.87447 16.52 9.36048C15.8829 9.84649 15.4231 10.5283 15.2113 11.3012C14.4155 10.5874 13.8551 9.64901 13.604 8.60994C13.353 7.57088 13.4231 6.48008 13.8053 5.48175C14.1874 4.48341 14.8634 3.62454 15.7441 3.01864C16.6248 2.41275 17.6686 2.08836 18.7376 2.08836C19.8065 2.08836 20.8503 2.41275 21.731 3.01864C22.6117 3.62454 23.2877 4.48341 23.6699 5.48175C24.052 6.48008 24.1221 7.57088 23.8711 8.60994C23.62 9.64901 23.0596 10.5874 22.2638 11.3012Z" fill="#034737"/>
<path id="Vector_3" d="M7.36255 19.5684C8.70874 19.5684 9.80005 18.4771 9.80005 17.1309C9.80005 15.7847 8.70874 14.6934 7.36255 14.6934C6.01635 14.6934 4.92505 15.7847 4.92505 17.1309C4.92505 18.4771 6.01635 19.5684 7.36255 19.5684Z" fill="#034737"/>
<path id="Vector_4" d="M3.36911 12.4802C3.42868 12.5693 3.52101 12.6312 3.62601 12.6525C3.73101 12.6738 3.84017 12.6528 3.92974 12.594L5.14849 11.7815C5.21773 11.738 5.27223 11.6746 5.30486 11.5996C5.33748 11.5246 5.34672 11.4415 5.33136 11.3612C5.316 11.2809 5.27675 11.2071 5.21875 11.1494C5.16076 11.0917 5.08671 11.0529 5.0063 11.038L4.37661 10.9121C4.76972 9.34152 5.58207 7.90722 6.7269 6.76239C7.87172 5.61756 9.30603 4.80521 10.8766 4.4121L10.9985 5.16367C11.0116 5.24231 11.0477 5.31534 11.102 5.37367C11.1564 5.43199 11.2267 5.47302 11.3043 5.49164C11.3818 5.51026 11.4631 5.50566 11.538 5.4784C11.613 5.45115 11.6782 5.40244 11.7257 5.33836L12.5991 4.13179C12.6616 4.04488 12.6873 3.93681 12.6706 3.83107C12.6538 3.72532 12.596 3.63046 12.5097 3.5671L11.3235 2.71804C11.2576 2.66857 11.1781 2.64032 11.0958 2.63704C11.0134 2.63376 10.932 2.65562 10.8624 2.6997C10.7927 2.74378 10.7381 2.808 10.7059 2.88384C10.6736 2.95967 10.6651 3.04354 10.6816 3.12429L10.7588 3.60773C9.02148 4.02767 7.43302 4.91709 6.16703 6.17879C4.90103 7.44049 4.00621 9.02591 3.58036 10.7618L2.97505 10.6318C2.89746 10.6192 2.81789 10.6294 2.74598 10.6611C2.67407 10.6928 2.61291 10.7447 2.5699 10.8105C2.5269 10.8763 2.50391 10.9532 2.50371 11.0318C2.50352 11.1104 2.52613 11.1873 2.5688 11.2534L3.36911 12.4802ZM7.36255 24.8505C8.56778 24.8505 9.74594 24.4932 10.7481 23.8236C11.7502 23.154 12.5312 22.2023 12.9924 21.0888C13.4537 19.9753 13.5743 18.75 13.3392 17.568C13.1041 16.3859 12.5237 15.3001 11.6715 14.4479C10.8193 13.5956 9.73345 13.0153 8.55138 12.7801C7.36931 12.545 6.14406 12.6657 5.03057 13.1269C3.91708 13.5881 2.96537 14.3692 2.29578 15.3713C1.62619 16.3734 1.2688 17.5516 1.2688 18.7568C1.2688 20.373 1.91082 21.9229 3.05362 23.0657C4.19642 24.2085 5.74639 24.8505 7.36255 24.8505ZM7.36255 13.4755C8.42902 13.4781 9.46973 13.8034 10.3478 14.4087C11.2258 15.0141 11.9 15.8711 12.2816 16.8669C12.6632 17.8628 12.7344 18.9508 12.4858 19.9879C12.2372 21.025 11.6805 21.9625 10.8888 22.6771C10.677 21.9043 10.2172 21.2224 9.58011 20.7364C8.943 20.2504 8.16387 19.9871 7.36255 19.9871C6.56123 19.9871 5.7821 20.2504 5.14499 20.7364C4.50788 21.2224 4.04808 21.9043 3.8363 22.6771C3.04465 21.9625 2.48789 21.025 2.23928 19.9879C1.99067 18.9508 2.06187 17.8628 2.4435 16.8669C2.82514 15.8711 3.49932 15.0141 4.37734 14.4087C5.25536 13.8034 6.29608 13.4781 7.36255 13.4755Z" fill="#034737"/>
</g>
</svg>
