<svg width="34" height="34" viewBox="0 0 34 34" fill="none" xmlns="http://www.w3.org/2000/svg">
<g id="facebook (1) 1">
<path id="Vector" d="M19.0001 2.125C10.7963 2.125 4.12238 8.79909 4.12238 17.0027C4.12238 25.2065 10.7963 31.8808 19.0001 31.8808C27.2035 31.8808 33.8779 25.2065 33.8779 17.0027C33.8779 8.79909 27.2035 2.125 19.0001 2.125ZM23.205 11.517C23.205 11.5874 23.177 11.655 23.1272 11.7048C23.0774 11.7546 23.0098 11.7826 22.9394 11.7826L21.2481 11.7837C20.1323 11.7837 19.9283 12.2182 19.9283 13.0741V14.8495H22.8289C22.9051 14.8495 22.9779 14.8824 23.0281 14.9398C23.0783 14.9972 23.1017 15.0734 23.0924 15.1491L22.6793 18.3454C22.6711 18.4094 22.6398 18.4683 22.5913 18.5109C22.5428 18.5535 22.4804 18.577 22.4158 18.577H19.9283V26.5136C19.9283 26.5841 19.9003 26.6516 19.8504 26.7015C19.8006 26.7513 19.7331 26.7793 19.6626 26.7793H16.3625C16.292 26.7793 16.2245 26.7513 16.1746 26.7015C16.1248 26.6516 16.0968 26.5841 16.0968 26.5136V18.577H13.6013C13.5308 18.577 13.4633 18.549 13.4135 18.4992C13.3636 18.4494 13.3357 18.3818 13.3357 18.3114V15.1151C13.3357 15.0447 13.3636 14.9771 13.4135 14.9273C13.4633 14.8775 13.5308 14.8495 13.6013 14.8495H16.0968V12.7577C16.0968 9.98724 17.7735 8.26652 20.4731 8.26652C21.6336 8.26652 22.6592 8.35284 22.9742 8.39455C23.038 8.40298 23.0967 8.43433 23.1391 8.48275C23.1816 8.53118 23.205 8.59338 23.205 8.65778V11.517Z" fill="white"/>
</g>
</svg>
