<svg width="17" height="16" viewBox="0 0 17 16" fill="none" xmlns="http://www.w3.org/2000/svg">
<g id="Google Logo">
<rect width="16" height="16" transform="translate(0.5)" fill="white"/>
<g id="logo googleg 48dp">
<path id="Shape" fill-rule="evenodd" clip-rule="evenodd" d="M15.86 8.17414C15.86 7.6305 15.8112 7.10778 15.7206 6.60596H8.5V9.57156H12.6261C12.4483 10.5299 11.9082 11.3419 11.0962 11.8855V13.8091H13.5739C15.0236 12.4744 15.86 10.509 15.86 8.17414Z" fill="#4285F4"/>
<path id="Shape_2" fill-rule="evenodd" clip-rule="evenodd" d="M8.50002 15.6665C10.57 15.6665 12.3055 14.98 13.574 13.8091L11.0962 11.8855C10.4097 12.3455 9.53153 12.6173 8.50002 12.6173C6.5032 12.6173 4.81305 11.2687 4.21017 9.45654H1.6488V11.4429C2.91032 13.9485 5.50305 15.6665 8.50002 15.6665Z" fill="#34A853"/>
<path id="Shape_3" fill-rule="evenodd" clip-rule="evenodd" d="M4.21019 9.45683C4.05686 8.99683 3.96974 8.50546 3.96974 8.00016C3.96974 7.49486 4.05686 7.00349 4.21019 6.54349V4.55713H1.64883C1.12959 5.59213 0.833374 6.76304 0.833374 8.00016C0.833374 9.23728 1.12959 10.4082 1.64883 11.4432L4.21019 9.45683Z" fill="#FBBC05"/>
<path id="Shape_4" fill-rule="evenodd" clip-rule="evenodd" d="M8.50002 3.38274C9.62562 3.38274 10.6362 3.76956 11.4308 4.52925L13.6297 2.33031C12.302 1.09319 10.5665 0.333496 8.50002 0.333496C5.50305 0.333496 2.91032 2.05153 1.6488 4.55713L4.21017 6.5435C4.81305 4.73137 6.5032 3.38274 8.50002 3.38274Z" fill="#EA4335"/>
</g>
</g>
</svg>
