<svg width="38" height="33" viewBox="0 0 38 33" fill="none" xmlns="http://www.w3.org/2000/svg">
<g id="google-my-business-logo 1" clip-path="url(#clip0_993_8761)">
<g id="Group">
<g id="Group_2">
<path id="Vector" d="M33.8418 8.27344H3.22608C2.49864 8.27344 1.90894 8.85938 1.90894 9.58217V31.6681C1.90894 32.3909 2.49864 32.9769 3.22608 32.9769H33.8418C34.5692 32.9769 35.1589 32.3909 35.1589 31.6681V9.58217C35.1589 8.85938 34.5692 8.27344 33.8418 8.27344Z" fill="white"/>
<path id="Vector_2" d="M33.4575 8.08789H3.57356C2.64785 8.08789 1.92749 15.2064 1.92749 16.1263L18.2928 32.9769H33.4575C34.3861 32.9744 35.1382 32.2271 35.1407 31.3045V9.76001C35.138 8.8375 34.3859 8.09041 33.4575 8.08789Z" fill="#E1E1E1"/>
<path id="Vector_3" d="M9.50107 12.4105H19.0011V0.0214844H10.9236L9.50107 12.4105Z" fill="#3C4BA6"/>
<path id="Vector_4" d="M28.5011 12.4105H19.0011V0.0214844H27.0786L28.5011 12.4105ZM35.1589 2.36997L35.1707 2.4122C35.1679 2.39729 35.1621 2.38345 35.1589 2.36997Z" fill="#7BABF7"/>
<path id="Vector_5" d="M35.1707 2.4122L35.1589 2.36997C34.8578 0.999594 33.637 0.0223715 32.2254 0.0214844H27.0786L28.5 12.4108H38L35.1707 2.4122Z" fill="#3F51B5"/>
<path id="Vector_6" d="M2.84321 2.37109L2.83142 2.41332C2.83428 2.39842 2.83999 2.38458 2.84321 2.37109Z" fill="#7BABF7"/>
<path id="Vector_7" d="M2.83107 2.4122L2.84286 2.36997C3.14404 0.999594 4.36475 0.0223715 5.77643 0.0214844H10.9236L9.5 12.4108H0L2.83107 2.4122Z" fill="#7BABF7"/>
</g>
<path id="Vector_8" fill-rule="evenodd" clip-rule="evenodd" d="M9.51713 12.4082C9.51713 15.0133 7.39167 17.1252 4.76981 17.1252C2.14796 17.1252 0.0224915 15.0133 0.0224915 12.4082H9.51713Z" fill="#709BE0"/>
<path id="Vector_9" fill-rule="evenodd" clip-rule="evenodd" d="M19.0118 12.4082C19.0118 15.0133 16.8863 17.1252 14.2645 17.1252C11.6426 17.1252 9.51715 15.0133 9.51715 12.4082H19.0118Z" fill="#3C4BA6"/>
<path id="Vector_10" fill-rule="evenodd" clip-rule="evenodd" d="M28.5064 12.4082C28.5064 15.0133 26.381 17.1252 23.7591 17.1252C21.1372 17.1252 19.0118 15.0133 19.0118 12.4082H28.5064Z" fill="#709BE0"/>
<path id="Vector_11" fill-rule="evenodd" clip-rule="evenodd" d="M38 12.4082C38 15.0133 35.8745 17.1252 33.2527 17.1252C30.6308 17.1252 28.5054 15.0133 28.5054 12.4082H38Z" fill="#3C4BA6"/>
<path id="Vector_12" d="M33.2529 25.1867C33.2361 24.9621 33.2082 24.7569 33.1686 24.4951H27.99C27.99 25.2147 27.99 26 27.9872 26.7201H30.9872C30.9234 27.0556 30.7936 27.3753 30.6051 27.6609C30.4167 27.9465 30.1733 28.1922 29.8889 28.384C29.8889 28.384 29.8889 28.3716 29.8868 28.3712C29.5196 28.6108 29.106 28.7712 28.6725 28.8421C28.238 28.9211 27.7924 28.9192 27.3586 28.8365C26.9181 28.7459 26.501 28.5663 26.1332 28.3088C25.5904 27.9263 25.1718 27.3948 24.9286 26.7793C24.91 26.7314 24.8929 26.6831 24.8754 26.6342V26.6289L24.88 26.6253C24.644 25.937 24.6434 25.1905 24.8782 24.5018C25.0437 24.0187 25.3159 23.5785 25.675 23.2136C26.5174 22.3478 27.7761 22.0222 28.9364 22.3698C29.3814 22.5054 29.788 22.7432 30.1232 23.0639L31.1354 22.0582C31.3139 21.879 31.4993 21.7055 31.6711 21.5202C31.1579 21.0446 30.5555 20.6739 29.8982 20.4294C28.7021 19.9984 27.3936 19.987 26.19 20.3971C26.1481 20.4113 26.1064 20.4261 26.065 20.4415C24.7666 20.9265 23.6984 21.8777 23.0714 23.1072C22.8501 23.5424 22.6888 24.0053 22.5922 24.4834C22.0189 27.3142 23.7573 30.1006 26.5639 30.8496C27.4814 31.0937 28.4568 31.0877 29.3814 30.879C30.2216 30.6906 30.9984 30.2895 31.6364 29.7147C32.3022 29.1062 32.7793 28.2953 33.0293 27.434C33.2383 26.7042 33.314 25.9431 33.2529 25.1867Z" fill="#4989F5"/>
</g>
</g>
<defs>
<clipPath id="clip0_993_8761">
<rect width="38" height="33" fill="white"/>
</clipPath>
</defs>
</svg>
