<svg width="33" height="33" viewBox="0 0 33 33" fill="none" xmlns="http://www.w3.org/2000/svg">
<g id="instagram (1) 1" clip-path="url(#clip0_993_8804)">
<path id="Vector" d="M23.1997 11.4314C23.0565 11.0606 22.8372 10.7239 22.556 10.4429C22.2748 10.162 21.9378 9.9431 21.5669 9.80031C21.0561 9.61112 20.5166 9.51113 19.9719 9.50469C19.0661 9.46344 18.7945 9.45312 16.5 9.45312C14.2055 9.45312 13.9339 9.46344 13.0281 9.50469C12.4829 9.51093 11.9428 9.61093 11.4314 9.80031C11.0606 9.94349 10.7239 10.1628 10.4429 10.444C10.162 10.7252 9.9431 11.0622 9.80031 11.4331C9.61112 11.9439 9.51113 12.4834 9.50469 13.0281C9.46344 13.9339 9.45312 14.2055 9.45312 16.5C9.45312 18.7945 9.46344 19.0661 9.50469 19.9719C9.51093 20.5171 9.61093 21.0572 9.80031 21.5686C9.94349 21.9394 10.1628 22.2761 10.444 22.5571C10.7252 22.838 11.0622 23.0569 11.4331 23.1997C11.9439 23.3889 12.4834 23.4889 13.0281 23.4953C13.9339 23.5366 14.2055 23.5469 16.5 23.5469C18.7945 23.5469 19.0661 23.5366 19.9719 23.4953C20.5171 23.4891 21.0572 23.3891 21.5686 23.1997C21.9394 23.0565 22.2761 22.8372 22.5571 22.556C22.838 22.2748 23.0569 21.9378 23.1997 21.5669C23.3889 21.0561 23.4889 20.5166 23.4953 19.9719C23.5366 19.0661 23.5469 18.7945 23.5469 16.5C23.5469 14.2055 23.5366 13.9339 23.4953 13.0281C23.4891 12.4829 23.3891 11.9428 23.1997 11.4314ZM16.5 20.9137C15.627 20.9137 14.7737 20.6549 14.0479 20.1699C13.322 19.6849 12.7563 18.9956 12.4222 18.1891C12.0882 17.3826 12.0008 16.4951 12.1711 15.6389C12.3414 14.7827 12.7617 13.9963 13.379 13.379C13.9963 12.7617 14.7827 12.3414 15.6389 12.1711C16.4951 12.0008 17.3826 12.0882 18.1891 12.4222C18.9956 12.7563 19.6849 13.322 20.1699 14.0479C20.6549 14.7737 20.9137 15.627 20.9137 16.5C20.9137 17.6706 20.4487 18.7933 19.621 19.621C18.7933 20.4487 17.6706 20.9137 16.5 20.9137ZM21.0873 12.9439C20.8834 12.9439 20.684 12.8834 20.5144 12.7701C20.3448 12.6568 20.2126 12.4957 20.1346 12.3073C20.0565 12.1189 20.0361 11.9115 20.0759 11.7115C20.1157 11.5114 20.2139 11.3277 20.3581 11.1835C20.5024 11.0392 20.6861 10.941 20.8862 10.9012C21.0862 10.8614 21.2935 10.8819 21.482 10.9599C21.6704 11.038 21.8315 11.1701 21.9448 11.3397C22.0581 11.5093 22.1186 11.7087 22.1186 11.9127C22.1186 12.1862 22.0099 12.4485 21.8165 12.6419C21.6231 12.8353 21.3608 12.9439 21.0873 12.9439Z" fill="white"/>
<path id="Vector_2" d="M16.5 19.3651C18.0824 19.3651 19.3652 18.0823 19.3652 16.4999C19.3652 14.9175 18.0824 13.6348 16.5 13.6348C14.9176 13.6348 13.6348 14.9175 13.6348 16.4999C13.6348 18.0823 14.9176 19.3651 16.5 19.3651Z" fill="white"/>
<path id="Vector_3" d="M16.5 0C13.2366 0 10.0465 0.967708 7.3331 2.78075C4.61969 4.59379 2.50484 7.17074 1.256 10.1857C0.00714916 13.2007 -0.319606 16.5183 0.31705 19.719C0.953707 22.9197 2.52518 25.8597 4.83275 28.1673C7.14031 30.4748 10.0803 32.0463 13.281 32.683C16.4817 33.3196 19.7993 32.9929 22.8143 31.744C25.8293 30.4952 28.4062 28.3803 30.2193 25.6669C32.0323 22.9535 33 19.7634 33 16.5C33 12.1239 31.2616 7.92709 28.1673 4.83274C25.0729 1.73839 20.8761 0 16.5 0ZM25.0422 20.0441C25.0275 20.7566 24.892 21.4616 24.6417 22.1289C24.421 22.6997 24.0835 23.218 23.6507 23.6507C23.218 24.0834 22.6997 24.421 22.1289 24.6417C21.4616 24.892 20.7567 25.0274 20.0441 25.0422C19.1263 25.0834 18.8341 25.0938 16.5 25.0938C14.1659 25.0938 13.8738 25.0834 12.9559 25.0422C12.2434 25.0274 11.5384 24.892 10.8711 24.6417C10.3003 24.421 9.78199 24.0834 9.34927 23.6507C8.91656 23.218 8.57902 22.6997 8.35829 22.1289C8.10797 21.4616 7.97257 20.7566 7.95782 20.0441C7.91657 19.1262 7.90626 18.8341 7.90626 16.5C7.90626 14.1659 7.91657 13.8737 7.95782 12.9559C7.97257 12.2434 8.10797 11.5384 8.35829 10.8711C8.57902 10.3003 8.91656 9.78198 9.34927 9.34927C9.78199 8.91655 10.3003 8.57901 10.8711 8.35828C11.5384 8.10796 12.2434 7.97256 12.9559 7.95781C13.8738 7.91656 14.1659 7.90625 16.5 7.90625C18.8341 7.90625 19.1263 7.91656 20.0441 7.95781C20.7567 7.97256 21.4616 8.10796 22.1289 8.35828C22.6997 8.57901 23.218 8.91655 23.6507 9.34927C24.0835 9.78198 24.421 10.3003 24.6417 10.8711C24.892 11.5384 25.0275 12.2434 25.0422 12.9559C25.0834 13.8737 25.0938 14.1659 25.0938 16.5C25.0938 18.8341 25.0834 19.1262 25.0422 20.0441Z" fill="white"/>
</g>
<defs>
<clipPath id="clip0_993_8804">
<rect width="33" height="33" fill="white"/>
</clipPath>
</defs>
</svg>
