<svg width="34" height="34" viewBox="0 0 34 34" fill="none" xmlns="http://www.w3.org/2000/svg">
<g id="Group 1437252915">
<path id="Vector" d="M16.8582 0C7.54807 0 0 7.55242 0 16.868C0 26.1838 7.54777 33.7365 16.8582 33.7365C26.169 33.7365 33.7174 26.1838 33.7174 16.868C33.7171 7.55242 26.169 0 16.8582 0ZM9.86286 7.60783C11.0096 7.60783 11.9398 8.45658 11.9398 9.50367C11.9398 10.5507 11.0096 11.3995 9.86286 11.3995C8.71552 11.3995 7.78593 10.5507 7.78593 9.50367C7.78593 8.45658 8.71552 7.60783 9.86286 7.60783ZM11.9555 23.823H7.85181V13.1087H11.9555V23.823ZM25.9002 23.823H21.7767V17.9314C21.7767 17.2588 21.6519 16.7828 21.4033 16.5034C21.1544 16.2245 20.8048 16.0845 20.3551 16.0845C19.8575 16.0845 19.4537 16.273 19.1448 16.6498C18.8355 17.0266 18.6813 17.7024 18.6813 18.6777V23.823H14.5773V13.1087H18.3985V14.8537C18.9696 14.1412 19.5479 13.6316 20.1326 13.3254C20.7174 13.0194 21.4295 12.8666 22.2699 12.8666C23.4062 12.8666 24.295 13.2043 24.9371 13.8804C25.5787 14.5562 25.8999 15.6004 25.8999 17.0129L25.9002 23.823Z" fill="white"/>
</g>
</svg>
