<svg width="60" height="60" viewBox="0 0 60 60" fill="none" xmlns="http://www.w3.org/2000/svg">
<g id="feature icon/photo">
<rect width="60" height="60" rx="20" fill="#9068D0" fill-opacity="0.2"/>
<g id="Group 1171275612">
<path id="Vector" d="M30 18C28.6236 18 27.1783 18.0322 25.747 18.0837C22.8448 18.1882 21.3937 18.2404 20.0492 18.7608C17.7887 19.6357 15.8361 21.6599 15.0431 23.9503C14.5714 25.3127 14.5714 26.8752 14.5714 30C14.5714 33.1248 14.5714 34.6872 15.0431 36.0497C15.8361 38.3402 17.7887 40.3644 20.0492 41.2392C21.3937 41.7595 22.8448 41.8118 25.747 41.9162C27.1783 41.9678 28.6236 42 30 42C31.3764 42 32.8217 41.9678 34.253 41.9162C37.1553 41.8118 38.6062 41.7595 39.9509 41.2392C42.2112 40.3644 44.1639 38.3402 44.957 36.0497C45.4286 34.6872 45.4286 33.1248 45.4286 30C45.4286 26.8752 45.4286 25.3127 44.957 23.9503C44.1639 21.6599 42.2112 19.6357 39.9509 18.7608C38.6062 18.2404 37.1553 18.1882 34.253 18.0837C32.8217 18.0322 31.3764 18 30 18Z" stroke="#363636" stroke-width="2.57143" stroke-linejoin="round"/>
<path id="Vector_2" d="M26.5713 30.451V29.5493C26.5713 26.7293 26.5713 25.3193 27.4766 24.8347C28.3821 24.3502 29.5554 25.1323 31.9017 26.6966L32.5778 27.1474C34.5133 28.4376 35.4808 29.0827 35.4808 30.0002C35.4808 30.9176 34.5133 31.5627 32.578 32.8529L31.9017 33.3038C29.5554 34.868 28.3821 35.6501 27.4766 35.1656C26.5713 34.681 26.5713 33.271 26.5713 30.451Z" stroke="#363636" stroke-width="2.57143" stroke-linecap="round" stroke-linejoin="round"/>
</g>
</g>
</svg>
