<svg width="88" height="89" viewBox="0 0 88 89" fill="none" xmlns="http://www.w3.org/2000/svg">
<g filter="url(#filter0_d_1551_9192)">
<rect x="16" y="8.5" width="56" height="56" rx="28" fill="#708090" shape-rendering="crispEdges"/>
<g clip-path="url(#clip0_1551_9192)">
<path d="M49.5 28.5C48.0383 28.5026 46.62 28.9973 45.4737 29.9044C44.3275 30.8114 43.52 32.078 43.1815 33.5H38.5C38.4463 33.5 38.393 33.5086 38.342 33.5255L36 34.306V34C36 33.8674 35.9473 33.7402 35.8536 33.6464C35.7598 33.5527 35.6326 33.5 35.5 33.5H32.5C32.3674 33.5 32.2402 33.5527 32.1464 33.6464C32.0527 33.7402 32 33.8674 32 34V44C32 44.1326 32.0527 44.2598 32.1464 44.3536C32.2402 44.4473 32.3674 44.5 32.5 44.5H35.5C35.6326 44.5 35.7598 44.4473 35.8536 44.3536C35.9473 44.2598 36 44.1326 36 44V42.694L38.342 43.4745C38.393 43.4914 38.4463 43.5 38.5 43.5H41C41.1136 43.5001 41.2238 43.4614 41.3125 43.3905L43.6755 41.5H45C45.5304 41.5 46.0391 41.2893 46.4142 40.9142C46.7893 40.5391 47 40.0304 47 39.5C47 38.9696 46.7893 38.4609 46.4142 38.0858C46.0391 37.7107 45.5304 37.5 45 37.5H40.5C40.3674 37.5 40.2402 37.5527 40.1464 37.6464C40.0527 37.7402 40 37.8674 40 38C40 38.1326 40.0527 38.2598 40.1464 38.3536C40.2402 38.4473 40.3674 38.5 40.5 38.5H45C45.2652 38.5 45.5196 38.6054 45.7071 38.7929C45.8946 38.9804 46 39.2348 46 39.5C46 39.7652 45.8946 40.0196 45.7071 40.2071C45.5196 40.3946 45.2652 40.5 45 40.5H43.5C43.3864 40.4999 43.2762 40.5386 43.1875 40.6095L40.8245 42.5H38.581L36 41.6395V35.3605L38.581 34.5H43.0255C43.0125 34.6655 43 34.831 43 35C43.0005 35.3631 43.0312 35.7255 43.092 36.0835C43.1141 36.2143 43.1873 36.3309 43.2954 36.4076C43.349 36.4457 43.4095 36.4728 43.4735 36.4874C43.5375 36.5021 43.6038 36.504 43.6685 36.493C43.7332 36.482 43.7952 36.4584 43.8508 36.4235C43.9064 36.3886 43.9546 36.3431 43.9926 36.2896C44.0307 36.236 44.0578 36.1755 44.0724 36.1115C44.0871 36.0475 44.089 35.9812 44.078 35.9165C43.8847 34.7588 44.0678 33.5697 44.6003 32.5237C45.1327 31.4777 45.9866 30.6301 47.0364 30.1052C48.0862 29.5803 49.2766 29.4059 50.4329 29.6076C51.5891 29.8093 52.6503 30.3764 53.4604 31.2257C54.2705 32.0749 54.787 33.1616 54.9339 34.3261C55.0809 35.4905 54.8505 36.6714 54.2768 37.6953C53.703 38.7192 52.816 39.5322 51.7461 40.0147C50.6762 40.4973 49.4798 40.6241 48.3325 40.3765C48.2029 40.348 48.0674 40.3721 47.9556 40.4436C47.8438 40.515 47.765 40.6279 47.7365 40.7575C47.708 40.8871 47.7321 41.0226 47.8036 41.1344C47.875 41.2462 47.9879 41.325 48.1175 41.3535C49.0083 41.5459 49.9297 41.5488 50.8217 41.3621C51.7137 41.1753 52.5565 40.803 53.2953 40.2695C54.0341 39.7359 54.6525 39.0529 55.1103 38.2648C55.568 37.4768 55.855 36.6012 55.9524 35.6951C56.0499 34.789 55.9557 33.8725 55.676 33.0051C55.3963 32.1377 54.9373 31.3388 54.3289 30.6603C53.7204 29.9818 52.976 29.4389 52.1441 29.0667C51.3122 28.6945 50.4114 28.5014 49.5 28.5ZM35 43.5H33V34.5H35V43.5Z" fill="white"/>
<path d="M48 36.5C47.8674 36.5 47.7402 36.5527 47.6464 36.6464C47.5527 36.7402 47.5 36.8674 47.5 37C47.5 37.1326 47.5527 37.2598 47.6464 37.3536C47.7402 37.4473 47.8674 37.5 48 37.5H49V38C49 38.1326 49.0527 38.2598 49.1464 38.3536C49.2402 38.4473 49.3674 38.5 49.5 38.5C49.6326 38.5 49.7598 38.4473 49.8536 38.3536C49.9473 38.2598 50 38.1326 50 38V37.5H51C51.1326 37.5 51.2598 37.4473 51.3536 37.3536C51.4473 37.2598 51.5 37.1326 51.5 37V35C51.5 34.8674 51.4473 34.7402 51.3536 34.6464C51.2598 34.5527 51.1326 34.5 51 34.5H48.5V33.5H51C51.1326 33.5 51.2598 33.4473 51.3536 33.3536C51.4473 33.2598 51.5 33.1326 51.5 33C51.5 32.8674 51.4473 32.7402 51.3536 32.6464C51.2598 32.5527 51.1326 32.5 51 32.5H50V32C50 31.8674 49.9473 31.7402 49.8536 31.6464C49.7598 31.5527 49.6326 31.5 49.5 31.5C49.3674 31.5 49.2402 31.5527 49.1464 31.6464C49.0527 31.7402 49 31.8674 49 32V32.5H48C47.8674 32.5 47.7402 32.5527 47.6464 32.6464C47.5527 32.7402 47.5 32.8674 47.5 33V35C47.5 35.1326 47.5527 35.2598 47.6464 35.3536C47.7402 35.4473 47.8674 35.5 48 35.5H50.5V36.5H48Z" fill="white"/>
</g>
</g>
<defs>
<filter id="filter0_d_1551_9192" x="0" y="0.5" width="88" height="88" filterUnits="userSpaceOnUse" color-interpolation-filters="sRGB">
<feFlood flood-opacity="0" result="BackgroundImageFix"/>
<feColorMatrix in="SourceAlpha" type="matrix" values="0 0 0 0 0 0 0 0 0 0 0 0 0 0 0 0 0 0 127 0" result="hardAlpha"/>
<feOffset dy="8"/>
<feGaussianBlur stdDeviation="8"/>
<feComposite in2="hardAlpha" operator="out"/>
<feColorMatrix type="matrix" values="0 0 0 0 0.439216 0 0 0 0 0.501961 0 0 0 0 0.564706 0 0 0 0.4 0"/>
<feBlend mode="normal" in2="BackgroundImageFix" result="effect1_dropShadow_1551_9192"/>
<feBlend mode="normal" in="SourceGraphic" in2="effect1_dropShadow_1551_9192" result="shape"/>
</filter>
<clipPath id="clip0_1551_9192">
<rect width="24" height="24" fill="white" transform="translate(32 24.5)"/>
</clipPath>
</defs>
</svg>
