<svg width="88" height="89" viewBox="0 0 88 89" fill="none" xmlns="http://www.w3.org/2000/svg">
<g filter="url(#filter0_d_1551_9182)">
<rect x="16" y="8.5" width="56" height="56" rx="28" fill="#8E4585" shape-rendering="crispEdges"/>
<g clip-path="url(#clip0_1551_9182)">
<path d="M38.5 28.5C39.9617 28.5026 41.38 28.9973 42.5263 29.9044C43.6725 30.8114 44.48 32.078 44.8185 33.5H49.5C49.5537 33.5 49.607 33.5086 49.658 33.5255L52 34.306V34C52 33.8674 52.0527 33.7402 52.1464 33.6464C52.2402 33.5527 52.3674 33.5 52.5 33.5H55.5C55.6326 33.5 55.7598 33.5527 55.8536 33.6464C55.9473 33.7402 56 33.8674 56 34V44C56 44.1326 55.9473 44.2598 55.8536 44.3536C55.7598 44.4473 55.6326 44.5 55.5 44.5H52.5C52.3674 44.5 52.2402 44.4473 52.1464 44.3536C52.0527 44.2598 52 44.1326 52 44V42.694L49.658 43.4745C49.607 43.4914 49.5537 43.5 49.5 43.5H47C46.8864 43.5001 46.7762 43.4614 46.6875 43.3905L44.3245 41.5H43C42.4696 41.5 41.9609 41.2893 41.5858 40.9142C41.2107 40.5391 41 40.0304 41 39.5C41 38.9696 41.2107 38.4609 41.5858 38.0858C41.9609 37.7107 42.4696 37.5 43 37.5H47.5C47.6326 37.5 47.7598 37.5527 47.8536 37.6464C47.9473 37.7402 48 37.8674 48 38C48 38.1326 47.9473 38.2598 47.8536 38.3536C47.7598 38.4473 47.6326 38.5 47.5 38.5H43C42.7348 38.5 42.4804 38.6054 42.2929 38.7929C42.1054 38.9804 42 39.2348 42 39.5C42 39.7652 42.1054 40.0196 42.2929 40.2071C42.4804 40.3946 42.7348 40.5 43 40.5H44.5C44.6136 40.4999 44.7238 40.5386 44.8125 40.6095L47.1755 42.5H49.419L52 41.6395V35.3605L49.419 34.5H44.9745C44.9875 34.6655 45 34.831 45 35C44.9995 35.3631 44.9688 35.7255 44.908 36.0835C44.8859 36.2143 44.8127 36.3309 44.7046 36.4076C44.651 36.4457 44.5905 36.4728 44.5265 36.4874C44.4625 36.5021 44.3962 36.504 44.3315 36.493C44.2668 36.482 44.2048 36.4584 44.1492 36.4235C44.0936 36.3886 44.0454 36.3431 44.0074 36.2896C43.9693 36.236 43.9422 36.1755 43.9276 36.1115C43.9129 36.0475 43.911 35.9812 43.922 35.9165C44.1153 34.7588 43.9322 33.5697 43.3997 32.5237C42.8673 31.4777 42.0134 30.6301 40.9636 30.1052C39.9138 29.5803 38.7234 29.4059 37.5671 29.6076C36.4109 29.8093 35.3497 30.3764 34.5396 31.2257C33.7295 32.0749 33.213 33.1616 33.0661 34.3261C32.9191 35.4905 33.1495 36.6714 33.7232 37.6953C34.297 38.7192 35.184 39.5322 36.2539 40.0147C37.3238 40.4973 38.5202 40.6241 39.6675 40.3765C39.7971 40.348 39.9326 40.3721 40.0444 40.4436C40.1562 40.515 40.235 40.6279 40.2635 40.7575C40.292 40.8871 40.2679 41.0226 40.1964 41.1344C40.125 41.2462 40.0121 41.325 39.8825 41.3535C38.9917 41.5459 38.0703 41.5488 37.1783 41.3621C36.2863 41.1753 35.4435 40.803 34.7047 40.2695C33.9659 39.7359 33.3475 39.0529 32.8897 38.2648C32.432 37.4768 32.145 36.6012 32.0476 35.6951C31.9501 34.789 32.0443 33.8725 32.324 33.0051C32.6037 32.1377 33.0627 31.3388 33.6711 30.6603C34.2796 29.9818 35.024 29.4389 35.8559 29.0667C36.6878 28.6945 37.5886 28.5014 38.5 28.5ZM53 43.5H55V34.5H53V43.5Z" fill="white"/>
</g>
</g>
<defs>
<filter id="filter0_d_1551_9182" x="0" y="0.5" width="88" height="88" filterUnits="userSpaceOnUse" color-interpolation-filters="sRGB">
<feFlood flood-opacity="0" result="BackgroundImageFix"/>
<feColorMatrix in="SourceAlpha" type="matrix" values="0 0 0 0 0 0 0 0 0 0 0 0 0 0 0 0 0 0 127 0" result="hardAlpha"/>
<feOffset dy="8"/>
<feGaussianBlur stdDeviation="8"/>
<feComposite in2="hardAlpha" operator="out"/>
<feColorMatrix type="matrix" values="0 0 0 0 0.556863 0 0 0 0 0.270588 0 0 0 0 0.521569 0 0 0 0.4 0"/>
<feBlend mode="normal" in2="BackgroundImageFix" result="effect1_dropShadow_1551_9182"/>
<feBlend mode="normal" in="SourceGraphic" in2="effect1_dropShadow_1551_9182" result="shape"/>
</filter>
<clipPath id="clip0_1551_9182">
<rect width="24" height="24" fill="white" transform="matrix(-1 0 0 1 56 24.5)"/>
</clipPath>
</defs>
</svg>
