<svg width="34" height="34" viewBox="0 0 34 34" fill="none" xmlns="http://www.w3.org/2000/svg">
<g id="pinterest-svgrepo-com 1">
<path id="Vector" d="M26.8958 3.48415C24.5554 1.23742 21.3166 0 17.776 0C12.3675 0 9.04111 2.21698 7.20298 4.0767C4.93759 6.36858 3.63861 9.41179 3.63861 12.4261C3.63861 16.2108 5.22168 19.1157 7.87269 20.1964C8.05066 20.2693 8.22976 20.306 8.40534 20.306C8.96461 20.306 9.40774 19.9401 9.56127 19.3531C9.65079 19.0164 9.85811 18.1856 9.94829 17.8249C10.1413 17.1127 9.98535 16.7701 9.56446 16.2741C8.79773 15.3669 8.44066 14.2941 8.44066 12.8979C8.44066 8.75072 11.5287 4.34318 17.2521 4.34318C21.7934 4.34318 24.6143 6.92427 24.6143 11.0791C24.6143 13.7009 24.0496 16.129 23.0238 17.9163C22.311 19.1583 21.0576 20.6387 19.1334 20.6387C18.3013 20.6387 17.5538 20.2969 17.0822 19.701C16.6367 19.1376 16.4898 18.4099 16.669 17.6515C16.8714 16.7946 17.1475 15.9008 17.4146 15.0367C17.9019 13.4585 18.3625 11.9678 18.3625 10.7786C18.3625 8.74441 17.1119 7.37756 15.2509 7.37756C12.8857 7.37756 11.0328 9.77975 11.0328 12.8464C11.0328 14.3504 11.4325 15.4753 11.6134 15.9072C11.3155 17.1696 9.54467 24.6749 9.20879 26.0901C9.01455 26.9163 7.8446 33.4417 9.78108 33.9619C11.9568 34.5465 13.9017 28.1913 14.0996 27.4732C14.2601 26.8891 14.8214 24.6806 15.1654 23.3231C16.2157 24.3348 17.9069 25.0188 19.5525 25.0188C22.6546 25.0188 25.4445 23.6228 27.4082 21.0882C29.3127 18.6299 30.3616 15.2034 30.3616 11.4406C30.3615 8.49891 29.0981 5.5988 26.8958 3.48415Z" fill="white"/>
</g>
</svg>
