<svg width="28" height="28" viewBox="0 0 28 28" fill="none" xmlns="http://www.w3.org/2000/svg">
<g id="social-engagement 1" clip-path="url(#clip0_470_21931)">
<path id="Vector" d="M19.2229 1.51355C19.0054 1.43633 18.7913 1.34859 18.5702 1.27139C18.3877 1.20822 18.1876 1.14504 17.97 1.08186C17.77 1.00817 17.5559 0.959034 17.3383 0.895865C16.8476 0.773557 16.3509 0.676333 15.8503 0.604569C15.6319 0.56962 15.4115 0.548522 15.1905 0.541401C15.0008 0.517786 14.8096 0.508398 14.6184 0.513317C14.4187 0.483644 14.2167 0.471899 14.0148 0.478223H13.8007C13.6701 0.478822 13.5398 0.49056 13.4112 0.513311C13.22 0.508391 13.0288 0.517779 12.8391 0.541394C12.6169 0.548515 12.3954 0.569613 12.1758 0.604562C11.6762 0.675655 11.1807 0.772887 10.6913 0.895859C10.4772 0.959027 10.2596 1.00817 10.0455 1.08185C9.85952 1.14504 9.65596 1.20821 9.46996 1.27138C9.04671 1.41428 8.63492 1.58909 8.23811 1.7943C8.01701 1.88906 7.83451 1.98029 7.64852 2.07155C6.69712 2.57644 5.81382 3.2003 5.01987 3.92811C4.08132 4.73281 3.26965 5.67462 2.61231 6.72168C2.37718 7.07615 2.1631 7.4657 1.94551 7.84824C1.78055 8.18866 1.61914 8.52909 1.48225 8.86951C0.816644 10.4981 0.475684 12.2411 0.478533 14.0005V27.5227H14.2183C14.3567 27.5262 14.4952 27.5191 14.6325 27.5016C14.7263 27.5038 14.8201 27.4991 14.9132 27.4876C15.0321 27.4914 15.1509 27.482 15.2677 27.4595C15.4895 27.4538 15.7103 27.4279 15.9275 27.3823C15.9485 27.3963 15.9626 27.3823 15.9907 27.3823C16.1907 27.3507 16.3943 27.3191 16.5943 27.2735C16.6992 27.2633 16.8027 27.2421 16.9031 27.2103C17.1242 27.1682 17.3383 27.1191 17.5559 27.0559C17.756 26.9963 17.97 26.9331 18.1876 26.8699C18.8129 26.6717 19.4219 26.4253 20.0091 26.1329C20.1951 26.0206 20.3846 25.9294 20.5811 25.8206C20.7723 25.7243 20.9575 25.6165 21.1356 25.4977C22.9679 24.3631 24.5003 22.8043 25.6033 20.9528C25.7085 20.7668 25.8209 20.5703 25.9261 20.3808C26.1262 19.9947 26.3157 19.6122 26.4807 19.2086C27.2006 17.4932 27.5545 15.6464 27.5195 13.7864C27.4759 11.1564 26.6683 8.59597 25.1953 6.41688C23.7222 4.2378 21.6471 2.53417 19.2229 1.51355ZM9.80686 20.1351H7.62394V12.6423H9.80686V20.1351ZM20.2126 17.8504C20.1156 18.0002 19.986 18.1261 19.8336 18.2189C19.7123 18.284 19.603 18.3694 19.5107 18.4716C19.3879 18.6436 19.5949 18.7594 19.6792 18.8892C19.7923 19.0879 19.8393 19.3173 19.8134 19.5444C19.7876 19.7715 19.6902 19.9846 19.5353 20.1527C19.23 20.4966 18.8334 20.458 18.4157 20.458H13.9972C12.3232 20.458 11.6213 19.6192 10.9089 19.2858H10.3859V12.6528L11.9547 12.2983C12.1448 12.255 12.32 12.162 12.4625 12.0288C12.6049 11.8957 12.7094 11.7271 12.7654 11.5403C12.9689 10.8629 13.3585 9.39945 13.6323 8.36413C13.7036 8.09902 13.8706 7.86971 14.101 7.72041C14.3314 7.5711 14.6089 7.51237 14.8801 7.55553C15.1512 7.59869 15.3968 7.74068 15.5694 7.95414C15.7421 8.1676 15.8296 8.43742 15.8152 8.71159C15.7485 9.98556 15.6327 12.0176 15.6327 12.0176C15.6327 12.0176 19.3317 12.0211 19.3353 12.0211C20.3214 12.0211 20.7215 13.3722 19.9284 13.9408C19.8982 13.9624 19.8737 13.9908 19.8567 14.0238C19.8398 14.0567 19.831 14.0932 19.831 14.1303C19.831 14.1674 19.8398 14.2039 19.8567 14.2368C19.8737 14.2698 19.8982 14.2982 19.9284 14.3198C20.049 14.4138 20.1488 14.5319 20.2214 14.6666C20.294 14.8012 20.3378 14.9495 20.35 15.1019C20.3622 15.2544 20.3426 15.4078 20.2923 15.5523C20.2421 15.6967 20.1624 15.8292 20.0582 15.9412C20.0182 15.9799 19.9865 16.0263 19.9648 16.0775C19.9431 16.1288 19.9319 16.1839 19.9319 16.2395C19.9319 16.2952 19.9431 16.3503 19.9648 16.4015C19.9865 16.4528 20.0182 16.4991 20.0582 16.5378C20.2224 16.7105 20.3261 16.9318 20.354 17.1684C20.3818 17.405 20.3322 17.6443 20.2126 17.8504Z" fill="black"/>
</g>
<defs>
<clipPath id="clip0_470_21931">
<rect width="28" height="28" fill="white"/>
</clipPath>
</defs>
</svg>
