<svg width="60" height="60" viewBox="0 0 60 60" fill="none" xmlns="http://www.w3.org/2000/svg">
<rect width="60" height="60" rx="20" fill="#0084FF" fill-opacity="0.2"/>
<path d="M42.6013 33.9631C42.6938 33.3547 42.7436 32.7404 42.75 32.125C42.762 29.882 42.1781 27.676 41.0581 25.7327C39.938 23.7893 38.3219 22.1783 36.375 21.0644C36.3856 20.8556 36.3856 20.6463 36.375 20.4375C36.375 18.7467 35.7034 17.1252 34.5078 15.9297C33.3123 14.7341 31.6908 14.0625 30 14.0625C28.3092 14.0625 26.6877 14.7341 25.4922 15.9297C24.2967 17.1252 23.625 18.7467 23.625 20.4375C23.6144 20.6463 23.6144 20.8556 23.625 21.0644C21.6781 22.1783 20.062 23.7893 18.9419 25.7327C17.8219 27.676 17.238 29.882 17.25 32.125C17.2565 32.7404 17.3062 33.3547 17.3988 33.9631C16.5811 34.4015 15.869 35.013 15.3121 35.755C14.7552 36.497 14.367 37.3516 14.1745 38.2591C13.982 39.1667 13.99 40.1053 14.1978 41.0095C14.4055 41.9137 14.8082 42.7616 15.3775 43.4941C15.9469 44.2265 16.6693 44.8259 17.4942 45.2504C18.3192 45.6748 19.2268 45.9141 20.1538 45.9515C21.0808 45.9889 22.0047 45.8235 22.8612 45.4669C23.7177 45.1103 24.486 44.5711 25.1125 43.8869C26.6594 44.5391 28.3212 44.8751 30 44.8751C31.6788 44.8751 33.3406 44.5391 34.8875 43.8869C35.514 44.5711 36.2823 45.1103 37.1388 45.4669C37.9953 45.8235 38.9192 45.9889 39.8462 45.9515C40.7732 45.9141 41.6809 45.6748 42.5058 45.2504C43.3307 44.8259 44.0531 44.2265 44.6225 43.4941C45.1918 42.7616 45.5945 41.9137 45.8022 41.0095C46.01 40.1053 46.018 39.1667 45.8255 38.2591C45.633 37.3516 45.2448 36.497 44.6879 35.755C44.131 35.013 43.4189 34.4015 42.6013 33.9631ZM30 16.1875C30.8406 16.1875 31.6623 16.4368 32.3612 16.9038C33.0601 17.3708 33.6048 18.0345 33.9265 18.8111C34.2482 19.5877 34.3323 20.4422 34.1683 21.2666C34.0044 22.0911 33.5996 22.8483 33.0052 23.4427C32.4108 24.0371 31.6536 24.4419 30.8291 24.6058C30.0047 24.7698 29.1502 24.6857 28.3736 24.364C27.597 24.0423 26.9333 23.4976 26.4663 22.7987C25.9993 22.0998 25.75 21.2781 25.75 20.4375C25.75 19.3103 26.1978 18.2293 26.9948 17.4323C27.7918 16.6353 28.8728 16.1875 30 16.1875ZM20.4375 43.8125C19.5969 43.8125 18.7752 43.5632 18.0763 43.0962C17.3774 42.6292 16.8327 41.9655 16.511 41.1889C16.1893 40.4123 16.1052 39.5578 16.2692 38.7334C16.4332 37.9089 16.8379 37.1517 17.4323 36.5573C18.0267 35.9629 18.7839 35.5581 19.6084 35.3942C20.4328 35.2302 21.2873 35.3143 22.0639 35.636C22.8405 35.9577 23.5043 36.5024 23.9712 37.2013C24.4382 37.9002 24.6875 38.7219 24.6875 39.5625C24.6875 40.6897 24.2397 41.7707 23.4427 42.5677C22.6457 43.3647 21.5647 43.8125 20.4375 43.8125ZM26.2919 42.0806C26.7088 41.1111 26.8784 40.0531 26.7856 39.0018C26.6928 37.9505 26.3404 36.9387 25.7601 36.0572C25.1798 35.1756 24.3897 34.452 23.4607 33.9511C22.5317 33.4503 21.4929 33.1879 20.4375 33.1875C20.1028 33.1885 19.7688 33.217 19.4388 33.2725C19.396 32.8915 19.3748 32.5084 19.375 32.125C19.3701 30.3457 19.8158 28.5942 20.6704 27.0336C21.525 25.473 22.7607 24.1542 24.2625 23.2C24.7845 24.2778 25.5996 25.1868 26.6143 25.8228C27.629 26.4589 28.8024 26.7962 30 26.7962C31.1976 26.7962 32.371 26.4589 33.3857 25.8228C34.4004 25.1868 35.2155 24.2778 35.7375 23.2C37.2393 24.1542 38.475 25.473 39.3296 27.0336C40.1842 28.5942 40.6299 30.3457 40.625 32.125C40.6252 32.5084 40.604 32.8915 40.5613 33.2725C40.2312 33.217 39.8972 33.1885 39.5625 33.1875C38.5071 33.1879 37.4683 33.4503 36.5393 33.9511C35.6103 34.452 34.8202 35.1756 34.2399 36.0572C33.6596 36.9387 33.3072 37.9505 33.2144 39.0018C33.1216 40.0531 33.2912 41.1111 33.7081 42.0806C31.3148 42.9629 28.6852 42.9629 26.2919 42.0806ZM39.5625 43.8125C38.7219 43.8125 37.9002 43.5632 37.2013 43.0962C36.5024 42.6292 35.9577 41.9655 35.636 41.1889C35.3143 40.4123 35.2302 39.5578 35.3942 38.7334C35.5582 37.9089 35.9629 37.1517 36.5573 36.5573C37.1517 35.9629 37.9089 35.5581 38.7334 35.3942C39.5578 35.2302 40.4123 35.3143 41.1889 35.636C41.9655 35.9577 42.6293 36.5024 43.0962 37.2013C43.5632 37.9002 43.8125 38.7219 43.8125 39.5625C43.8125 40.6897 43.3647 41.7707 42.5677 42.5677C41.7707 43.3647 40.6897 43.8125 39.5625 43.8125Z" fill="black"/>
</svg>
