<svg width="60" height="60" viewBox="0 0 60 60" fill="none" xmlns="http://www.w3.org/2000/svg">
<rect width="60" height="60" rx="20" fill="#FEAB49" fill-opacity="0.2"/>
<path fill-rule="evenodd" clip-rule="evenodd" d="M30.375 14.25H15.75C15.1537 14.25 14.58 14.487 14.16 14.9089C13.7363 15.3311 13.5 15.9034 13.5 16.5C13.5 21.9045 13.5 40.3455 13.5 45.75C13.5 46.9927 14.5087 48 15.75 48H38.25C39.4912 48 40.5 46.9927 40.5 45.75C40.5 41.9509 40.5 32.25 40.5 32.25C40.5 31.836 40.1625 31.5 39.75 31.5C39.3375 31.5 39 31.836 39 32.25C39 32.25 39 41.9509 39 45.75C39 46.1644 38.6663 46.5 38.25 46.5H15.75C15.3338 46.5 15 46.1644 15 45.75C15 40.3455 15 21.9045 15 16.5C15 16.3012 15.0788 16.1104 15.2213 15.9697C15.36 15.8291 15.5512 15.75 15.75 15.75H30.375C30.7875 15.75 31.125 15.414 31.125 15C31.125 14.586 30.7875 14.25 30.375 14.25ZM19.3125 39.75H34.6875C35.1 39.75 35.4375 39.414 35.4375 39C35.4375 38.586 35.1 38.25 34.6875 38.25H19.3125C18.9 38.25 18.5625 38.586 18.5625 39C18.5625 39.414 18.9 39.75 19.3125 39.75ZM19.3125 35.625H34.6875C35.1 35.625 35.4375 35.289 35.4375 34.875C35.4375 34.461 35.1 34.125 34.6875 34.125H19.3125C18.9 34.125 18.5625 34.461 18.5625 34.875C18.5625 35.289 18.9 35.625 19.3125 35.625ZM26.25 22.875H19.5C19.0875 22.875 18.75 23.211 18.75 23.625C18.75 24.039 19.0875 24.375 19.5 24.375H22.125V31.875C22.125 32.289 22.4625 32.625 22.875 32.625C23.2875 32.625 23.625 32.289 23.625 31.875V24.375H26.25C26.6625 24.375 27 24.039 27 23.625C27 23.211 26.6625 22.875 26.25 22.875ZM27.1875 31.875H34.6875C35.1 31.875 35.4375 31.539 35.4375 31.125C35.4375 30.711 35.1 30.375 34.6875 30.375H27.1875C26.775 30.375 26.4375 30.711 26.4375 31.125C26.4375 31.539 26.775 31.875 27.1875 31.875ZM42.69 22.2397C42.5813 21.9454 42.3 21.75 41.9887 21.75C41.6737 21.75 41.3925 21.9454 41.2838 22.2397L40.3912 24.6536L37.9763 25.5465C37.6838 25.6556 37.4887 25.9361 37.4887 26.25C37.4887 26.5639 37.6838 26.8444 37.9763 26.9535L40.3912 27.8464L41.2838 30.2603C41.3925 30.5546 41.6737 30.75 41.9887 30.75C42.3 30.75 42.5813 30.5546 42.69 30.2603L43.5825 27.8464L45.9975 26.9535C46.2937 26.8444 46.4887 26.5639 46.4887 26.25C46.4887 25.9361 46.2937 25.6556 45.9975 25.5465L43.5825 24.6536L42.69 22.2397ZM29.25 28.125H32.25C32.6625 28.125 33 27.789 33 27.375C33 26.961 32.6625 26.625 32.25 26.625H29.25C28.8375 26.625 28.5 26.961 28.5 27.375C28.5 27.789 28.8375 28.125 29.25 28.125ZM41.9887 24.6611L42.2963 25.4974C42.3713 25.7029 42.5362 25.8645 42.7387 25.9406L43.575 26.25L42.7387 26.5594C42.5362 26.6355 42.3713 26.7971 42.2963 27.0026L41.9887 27.8389L41.6775 27.0026C41.6025 26.7971 41.4412 26.6355 41.235 26.5594L40.3987 26.25L41.235 25.9406C41.4412 25.8645 41.6025 25.7029 41.6775 25.4974L41.9887 24.6611ZM35.955 12.4897C35.8462 12.1954 35.565 12 35.25 12C34.935 12 34.6538 12.1954 34.545 12.4897L32.7413 17.367L27.8663 19.1715C27.57 19.2806 27.375 19.5611 27.375 19.875C27.375 20.1889 27.57 20.4694 27.8663 20.5785L32.7413 22.383L34.545 27.2603C34.6538 27.5546 34.935 27.75 35.25 27.75C35.565 27.75 35.8462 27.5546 35.955 27.2603L37.7587 22.383L42.6337 20.5785C42.93 20.4694 43.125 20.1889 43.125 19.875C43.125 19.5611 42.93 19.2806 42.6337 19.1715L37.7587 17.367L35.955 12.4897ZM35.25 14.9111L36.4725 18.2107C36.5475 18.4162 36.7087 18.5779 36.915 18.654L40.215 19.875L36.915 21.096C36.7087 21.1721 36.5475 21.3338 36.4725 21.5393L35.25 24.8389L34.0275 21.5393C33.9525 21.3338 33.7913 21.1721 33.585 21.096L30.285 19.875L33.585 18.654C33.7913 18.5779 33.9525 18.4162 34.0275 18.2107L35.25 14.9111ZM29.25 24.375H30.75C31.1625 24.375 31.5 24.039 31.5 23.625C31.5 23.211 31.1625 22.875 30.75 22.875H29.25C28.8375 22.875 28.5 23.211 28.5 23.625C28.5 24.039 28.8375 24.375 29.25 24.375ZM41.25 14.625H40.5C40.0875 14.625 39.75 14.961 39.75 15.375C39.75 15.789 40.0875 16.125 40.5 16.125H41.25V16.875C41.25 17.289 41.5875 17.625 42 17.625C42.4125 17.625 42.75 17.289 42.75 16.875V16.125H43.5C43.9125 16.125 44.25 15.789 44.25 15.375C44.25 14.961 43.9125 14.625 43.5 14.625H42.75V13.875C42.75 13.461 42.4125 13.125 42 13.125C41.5875 13.125 41.25 13.461 41.25 13.875V14.625Z" fill="#363636" stroke="#363636" stroke-width="0.25"/>
</svg>
