<svg width="60" height="60" viewBox="0 0 60 60" fill="none" xmlns="http://www.w3.org/2000/svg">
<rect width="60" height="60" rx="20" fill="#52BA69" fill-opacity="0.2"/>
<path fill-rule="evenodd" clip-rule="evenodd" d="M17.2511 14.0625C15.5036 14.0625 14.0625 15.5025 14.0625 17.25V42.7492C14.0625 44.4967 15.5036 45.9377 17.2511 45.9377H42.7492C44.4967 45.9377 45.9377 44.4967 45.9377 42.7492V17.25C45.9377 15.5025 44.4967 14.0625 42.7492 14.0625H17.2511ZM17.2511 16.1875H42.7492C43.3562 16.1875 43.8127 16.643 43.8127 17.25V22.5646H16.1886V17.25C16.1886 16.643 16.6441 16.1875 17.2511 16.1875ZM19.375 18.3125C19.2355 18.3125 19.0973 18.34 18.9684 18.3934C18.8395 18.4468 18.7224 18.5251 18.6237 18.6237C18.5251 18.7224 18.4468 18.8395 18.3934 18.9684C18.34 19.0973 18.3125 19.2355 18.3125 19.375C18.3125 19.5146 18.34 19.6527 18.3934 19.7816C18.4468 19.9106 18.5251 20.0277 18.6237 20.1263C18.7224 20.225 18.8395 20.3033 18.9684 20.3567C19.0973 20.4101 19.2355 20.4375 19.375 20.4375C19.5146 20.4375 19.6527 20.4101 19.7816 20.3567C19.9106 20.3033 20.0277 20.225 20.1263 20.1263C20.225 20.0277 20.3033 19.9106 20.3567 19.7816C20.4101 19.6527 20.4375 19.5146 20.4375 19.375C20.4375 19.2355 20.4101 19.0973 20.3567 18.9684C20.3033 18.8395 20.225 18.7224 20.1263 18.6237C20.0277 18.5251 19.9106 18.4468 19.7816 18.3934C19.6527 18.34 19.5146 18.3125 19.375 18.3125ZM22.5626 18.3125C22.423 18.3125 22.2849 18.34 22.156 18.3934C22.027 18.4468 21.9099 18.5251 21.8113 18.6237C21.7126 18.7224 21.6343 18.8395 21.5809 18.9684C21.5275 19.0973 21.5001 19.2355 21.5001 19.375C21.5001 19.5146 21.5275 19.6527 21.5809 19.7816C21.6343 19.9106 21.7126 20.0277 21.8113 20.1263C21.9099 20.225 22.027 20.3033 22.156 20.3567C22.2849 20.4101 22.423 20.4375 22.5626 20.4375C22.7021 20.4375 22.8403 20.4101 22.9692 20.3567C23.0981 20.3033 23.2152 20.225 23.3139 20.1263C23.4125 20.0277 23.4908 19.9106 23.5442 19.7816C23.5976 19.6527 23.6251 19.5146 23.6251 19.375C23.6251 19.2355 23.5976 19.0973 23.5442 18.9684C23.4908 18.8395 23.4125 18.7224 23.3139 18.6237C23.2152 18.5251 23.0981 18.4468 22.9692 18.3934C22.8403 18.34 22.7021 18.3125 22.5626 18.3125ZM25.7501 18.3125C25.6106 18.3125 25.4724 18.34 25.3435 18.3934C25.2146 18.4468 25.0974 18.5251 24.9988 18.6237C24.9001 18.7224 24.8218 18.8395 24.7685 18.9684C24.7151 19.0973 24.6876 19.2355 24.6876 19.375C24.6876 19.5146 24.7151 19.6527 24.7685 19.7816C24.8218 19.9106 24.9001 20.0277 24.9988 20.1263C25.0974 20.225 25.2146 20.3033 25.3435 20.3567C25.4724 20.4101 25.6106 20.4375 25.7501 20.4375C25.8896 20.4375 26.0278 20.4101 26.1567 20.3567C26.2856 20.3033 26.4027 20.225 26.5014 20.1263C26.6001 20.0277 26.6783 19.9106 26.7317 19.7816C26.7851 19.6527 26.8126 19.5146 26.8126 19.375C26.8126 19.2355 26.7851 19.0973 26.7317 18.9684C26.6783 18.8395 26.6001 18.7224 26.5014 18.6237C26.4027 18.5251 26.2856 18.4468 26.1567 18.3934C26.0278 18.34 25.8896 18.3125 25.7501 18.3125ZM16.1886 24.6855H43.8127V42.7492C43.8127 43.3562 43.3562 43.8117 42.7492 43.8117H17.2511C16.6441 43.8117 16.1886 43.3562 16.1886 42.7492V24.6855ZM28.9376 28.9366C28.6557 28.9366 28.3853 29.0486 28.1859 29.2479C27.9866 29.4473 27.8746 29.7177 27.8746 29.9996C27.8746 30.2815 27.9866 30.5519 28.1859 30.7513C28.3853 30.9506 28.6557 31.0626 28.9376 31.0626H36.3772C36.6592 31.0626 36.9296 30.9506 37.1289 30.7513C37.3283 30.5519 37.4403 30.2815 37.4403 29.9996C37.4403 29.7177 37.3283 29.4473 37.1289 29.2479C36.9296 29.0486 36.6592 28.9366 36.3772 28.9366H28.9376ZM25.7501 28.9376C25.6106 28.9376 25.4724 28.9651 25.3435 29.0185C25.2146 29.0719 25.0974 29.1501 24.9988 29.2488C24.9001 29.3475 24.8218 29.4646 24.7685 29.5935C24.7151 29.7224 24.6876 29.8606 24.6876 30.0001C24.6876 30.1396 24.7151 30.2778 24.7685 30.4067C24.8218 30.5356 24.9001 30.6528 24.9988 30.7514C25.0974 30.8501 25.2146 30.9283 25.3435 30.9817C25.4724 31.0351 25.6106 31.0626 25.7501 31.0626C25.8896 31.0626 26.0278 31.0351 26.1567 30.9817C26.2856 30.9283 26.4027 30.8501 26.5014 30.7514C26.6001 30.6528 26.6783 30.5356 26.7317 30.4067C26.7851 30.2778 26.8126 30.1396 26.8126 30.0001C26.8126 29.8606 26.7851 29.7224 26.7317 29.5935C26.6783 29.4646 26.6001 29.3475 26.5014 29.2488C26.4027 29.1501 26.2856 29.0719 26.1567 29.0185C26.0278 28.9651 25.8896 28.9376 25.7501 28.9376ZM23.624 33.1876C23.3421 33.1876 23.0717 33.2996 22.8724 33.499C22.673 33.6983 22.561 33.9687 22.561 34.2507C22.561 34.5326 22.673 34.803 22.8724 35.0023C23.0717 35.2017 23.3421 35.3137 23.624 35.3137H36.3772C36.6592 35.3137 36.9296 35.2017 37.1289 35.0023C37.3283 34.803 37.4403 34.5326 37.4403 34.2507C37.4403 33.9687 37.3283 33.6983 37.1289 33.499C36.9296 33.2996 36.6592 33.1876 36.3772 33.1876H23.624ZM36.4385 37.4377C36.418 37.4374 36.3976 37.4378 36.3772 37.4387H23.624C23.4797 37.4306 23.3353 37.4521 23.1995 37.5017C23.0638 37.5514 22.9396 37.6282 22.8345 37.7276C22.7295 37.8269 22.6458 37.9466 22.5887 38.0793C22.5315 38.2121 22.502 38.3551 22.502 38.4997C22.502 38.6442 22.5315 38.7872 22.5887 38.92C22.6458 39.0527 22.7295 39.1724 22.8345 39.2718C22.9396 39.3711 23.0638 39.4479 23.1995 39.4976C23.3353 39.5472 23.4797 39.5687 23.624 39.5606H36.3772C36.5197 39.5699 36.6626 39.5504 36.7974 39.5032C36.9322 39.4561 37.0561 39.3822 37.1617 39.2861C37.2673 39.19 37.3525 39.0736 37.4121 38.9438C37.4717 38.8141 37.5045 38.6736 37.5086 38.5309C37.5127 38.3881 37.4881 38.246 37.436 38.1131C37.384 37.9801 37.3057 37.859 37.2058 37.7569C37.1059 37.6549 36.9865 37.574 36.8546 37.5192C36.7228 37.4643 36.5812 37.4366 36.4385 37.4377Z" fill="black"/>
</svg>
