<svg width="60" height="60" viewBox="0 0 60 60" fill="none" xmlns="http://www.w3.org/2000/svg">
<rect width="60" height="60" rx="20" fill="#FE4949" fill-opacity="0.2"/>
<circle cx="17.75" cy="17.75" r="3.5" stroke="#14171B" stroke-width="2.08" stroke-linecap="round" stroke-linejoin="round"/>
<circle cx="42.25" cy="42.25" r="3.5" stroke="#14171B" stroke-width="2.08" stroke-linecap="round" stroke-linejoin="round"/>
<circle cx="42.25" cy="17.75" r="3.5" stroke="#14171B" stroke-width="2.08" stroke-linecap="round" stroke-linejoin="round"/>
<circle cx="17.75" cy="42.25" r="3.5" stroke="#14171B" stroke-width="2.08" stroke-linecap="round" stroke-linejoin="round"/>
<path d="M19.6396 38.8896C19.2335 39.2958 19.2335 39.9542 19.6396 40.3604C20.0458 40.7665 20.7042 40.7665 21.1104 40.3604L19.6396 38.8896ZM40.3604 21.1104C40.7665 20.7042 40.7665 20.0458 40.3604 19.6396C39.9542 19.2335 39.2958 19.2335 38.8896 19.6396L40.3604 21.1104ZM18.79 21.25C18.79 20.6756 18.3244 20.21 17.75 20.21C17.1756 20.21 16.71 20.6756 16.71 21.25H18.79ZM16.71 38.75C16.71 39.3244 17.1756 39.79 17.75 39.79C18.3244 39.79 18.79 39.3244 18.79 38.75H16.71ZM43.29 21.25C43.29 20.6756 42.8244 20.21 42.25 20.21C41.6756 20.21 41.21 20.6756 41.21 21.25H43.29ZM41.21 38.75C41.21 39.3244 41.6756 39.79 42.25 39.79C42.8244 39.79 43.29 39.3244 43.29 38.75H41.21ZM21.1104 40.3604L40.3604 21.1104L38.8896 19.6396L19.6396 38.8896L21.1104 40.3604ZM16.71 21.25V38.75H18.79V21.25H16.71ZM41.21 21.25V38.75H43.29V21.25H41.21Z" fill="#14171B"/>
</svg>
