<svg width="60" height="60" viewBox="0 0 60 60" fill="none" xmlns="http://www.w3.org/2000/svg">
<rect width="60" height="60" rx="20" fill="#FE4949" fill-opacity="0.2"/>
<g clip-path="url(#clip0_1551_9340)">
<path d="M44.5191 36.3625H40.7791V34.1332C40.7784 33.452 40.5074 32.7989 40.0258 32.3173C39.5441 31.8356 38.891 31.5647 38.2098 31.564H30.8633V27.9853H34.6033C35.2611 27.9846 35.8917 27.723 36.3568 27.2579C36.8219 26.7928 37.0835 26.1622 37.0842 25.5044V16.2978C37.0835 15.6401 36.8219 15.0094 36.3568 14.5443C35.8917 14.0792 35.2611 13.8176 34.6033 13.8169H25.3967C24.7389 13.8176 24.1083 14.0792 23.6432 14.5443C23.1781 15.0094 22.9165 15.6401 22.9158 16.2978V25.5044C22.9165 26.1622 23.1781 26.7928 23.6432 27.2579C24.1083 27.723 24.7389 27.9846 25.3967 27.9853H29.1367V31.564H21.7895C21.1083 31.5647 20.4552 31.8356 19.9736 32.3173C19.4919 32.7989 19.221 33.452 19.2203 34.1332V36.3625H15.4809C14.8232 36.3632 14.1925 36.6248 13.7274 37.0899C13.2623 37.555 13.0007 38.1856 13 38.8434V43.7024C13.0007 44.3601 13.2623 44.9908 13.7274 45.4559C14.1925 45.921 14.8232 46.1826 15.4809 46.1833H24.6875C25.3453 46.1826 25.9759 45.921 26.441 45.4559C26.9061 44.9908 27.1677 44.3601 27.1684 43.7024V38.8434C27.1677 38.1856 26.9061 37.555 26.441 37.0899C25.9759 36.6248 25.3453 36.3632 24.6875 36.3625H20.9475V34.1332C20.9477 33.9098 21.0365 33.6955 21.1945 33.5375C21.3525 33.3795 21.5668 33.2907 21.7902 33.2905H38.2105C38.4339 33.2907 38.6482 33.3795 38.8062 33.5375C38.9641 33.6955 39.053 33.9098 39.0532 34.1332V36.3625H35.3125C34.6547 36.3632 34.0241 36.6248 33.559 37.0899C33.0939 37.555 32.8323 38.1856 32.8316 38.8434V43.7024C32.8324 44.36 33.0941 44.9905 33.5592 45.4554C34.0243 45.9204 34.6548 46.1819 35.3125 46.1826H44.5191C45.1767 46.1819 45.8072 45.9204 46.2723 45.4554C46.7374 44.9905 46.9991 44.36 47 43.7024V38.8434C46.9993 38.1856 46.7377 37.555 46.2726 37.0899C45.8075 36.6248 45.1768 36.3632 44.5191 36.3625ZM24.6423 25.5044V16.2978C24.6425 16.0978 24.7221 15.906 24.8635 15.7646C25.0049 15.6232 25.1967 15.5436 25.3967 15.5435H34.6033C34.8033 15.5436 34.9951 15.6232 35.1365 15.7646C35.2779 15.906 35.3575 16.0978 35.3577 16.2978V25.5044C35.3575 25.7044 35.2779 25.8962 35.1365 26.0376C34.9951 26.1791 34.8033 26.2586 34.6033 26.2588H25.3967C25.1967 26.2586 25.0049 26.1791 24.8635 26.0376C24.7221 25.8962 24.6425 25.7044 24.6423 25.5044ZM25.4392 38.8434V43.7024C25.4389 43.9018 25.3596 44.093 25.2188 44.2342C25.0779 44.3754 24.8869 44.4552 24.6875 44.4561H15.4809C15.281 44.4559 15.0894 44.3765 14.9479 44.2352C14.8065 44.0939 14.7269 43.9023 14.7266 43.7024V38.8434C14.7267 38.6434 14.8063 38.4516 14.9477 38.3102C15.0891 38.1688 15.2809 38.0892 15.4809 38.089H24.6875C24.8874 38.0894 25.079 38.169 25.2203 38.3104C25.3616 38.4518 25.441 38.6435 25.4412 38.8434H25.4392ZM45.2734 43.7024C45.2733 43.9024 45.1937 44.0942 45.0523 44.2356C44.9109 44.377 44.7191 44.4566 44.5191 44.4567H35.3125C35.1125 44.4566 34.9207 44.377 34.7793 44.2356C34.6378 44.0942 34.5583 43.9024 34.5581 43.7024V38.8434C34.5583 38.6434 34.6378 38.4516 34.7793 38.3102C34.9207 38.1688 35.1125 38.0892 35.3125 38.089H44.5191C44.7191 38.0892 44.9109 38.1688 45.0523 38.3102C45.1937 38.4516 45.2733 38.6434 45.2734 38.8434V43.7024Z" fill="black"/>
<path d="M42.2088 40.4092H37.6234C37.3945 40.4092 37.1749 40.5002 37.013 40.6621C36.8511 40.824 36.7602 41.0436 36.7602 41.2725C36.7602 41.5015 36.8511 41.7211 37.013 41.883C37.1749 42.0449 37.3945 42.1358 37.6234 42.1358H42.2088C42.4377 42.1358 42.6573 42.0449 42.8192 41.883C42.9811 41.7211 43.0721 41.5015 43.0721 41.2725C43.0721 41.0436 42.9811 40.824 42.8192 40.6621C42.6573 40.5002 42.4377 40.4092 42.2088 40.4092ZM17.7912 42.1358H22.3766C22.6055 42.1358 22.8251 42.0449 22.987 41.883C23.1489 41.7211 23.2398 41.5015 23.2398 41.2725C23.2398 41.0436 23.1489 40.824 22.987 40.6621C22.8251 40.5002 22.6055 40.4092 22.3766 40.4092H17.7912C17.5623 40.4092 17.3427 40.5002 17.1808 40.6621C17.0189 40.824 16.9279 41.0436 16.9279 41.2725C16.9279 41.5015 17.0189 41.7211 17.1808 41.883C17.3427 42.0449 17.5623 42.1358 17.7912 42.1358ZM32.293 22.0612H27.707C27.478 22.0612 27.2585 22.1522 27.0966 22.3141C26.9347 22.4759 26.8437 22.6955 26.8437 22.9245C26.8437 23.1534 26.9347 23.373 27.0966 23.5349C27.2585 23.6968 27.478 23.7878 27.707 23.7878H32.2923C32.5213 23.7878 32.7409 23.6968 32.9028 23.5349C33.0647 23.373 33.1556 23.1534 33.1556 22.9245C33.1556 22.6955 33.0647 22.4759 32.9028 22.3141C32.7409 22.1522 32.5213 22.0612 32.2923 22.0612H32.293ZM32.293 18.0144H27.707C27.478 18.0144 27.2585 18.1054 27.0966 18.2673C26.9347 18.4292 26.8437 18.6487 26.8437 18.8777C26.8437 19.1066 26.9347 19.3262 27.0966 19.4881C27.2585 19.65 27.478 19.741 27.707 19.741H32.2923C32.5213 19.741 32.7409 19.65 32.9028 19.4881C33.0647 19.3262 33.1556 19.1066 33.1556 18.8777C33.1556 18.6487 33.0647 18.4292 32.9028 18.2673C32.7409 18.1054 32.5213 18.0144 32.2923 18.0144H32.293Z" fill="black"/>
</g>
<defs>
<clipPath id="clip0_1551_9340">
<rect width="34" height="34" fill="white" transform="translate(13 13)"/>
</clipPath>
</defs>
</svg>
