<svg width="93" height="93" viewBox="0 0 93 93" fill="none" xmlns="http://www.w3.org/2000/svg">
<path fill-rule="evenodd" clip-rule="evenodd" d="M46.5 0C20.86 0 0 20.86 0 46.5C0 72.14 20.8594 93 46.5 93C72.1406 93 93 72.1402 93 46.5C93 20.8598 72.1404 0 46.5 0ZM37.4323 20.7668C37.4324 20.3659 37.5916 19.9815 37.875 19.698C38.1583 19.4145 38.5427 19.2551 38.9436 19.2548H54.0561C54.4571 19.2557 54.8414 19.4156 55.1247 19.6993C55.4081 19.9831 55.5673 20.3676 55.5677 20.7686V24.5062H37.4323V20.7668ZM62.2808 71.5824C62.2422 72.1719 61.9797 72.7243 61.547 73.1266C61.1144 73.5288 60.5443 73.7505 59.9536 73.7461H32.871C32.2805 73.7445 31.7125 73.5197 31.281 73.1166C30.8495 72.7135 30.5864 72.1621 30.5447 71.5731L28.2282 37.6723H64.7527L62.2798 71.5824H62.2808ZM68.3005 34.6025H24.6995V31.0898C24.7003 30.1584 25.0706 29.2653 25.7292 28.6066C26.3878 27.948 27.2808 27.5775 28.2122 27.5767L64.7872 27.5756C65.7187 27.5769 66.6117 27.9476 67.2702 28.6065C67.9287 29.2653 68.299 30.1585 68.2998 31.09V34.6022L68.3005 34.6025ZM39.4796 65.6645V44.1387C39.4797 43.7316 39.6416 43.3413 39.9295 43.0535C40.2175 42.7658 40.6079 42.6042 41.015 42.6044C41.4221 42.6045 41.8124 42.7663 42.1002 43.0543C42.3879 43.3422 42.5495 43.7327 42.5493 44.1398V65.6645C42.5524 65.8681 42.5151 66.0702 42.4393 66.2592C42.3636 66.4482 42.251 66.6202 42.1082 66.7652C41.9654 66.9103 41.7951 67.0255 41.6073 67.1041C41.4196 67.1827 41.218 67.2232 41.0145 67.2232C40.8109 67.2232 40.6093 67.1827 40.4216 67.1041C40.2338 67.0255 40.0635 66.9103 39.9207 66.7652C39.7779 66.6202 39.6653 66.4482 39.5896 66.2592C39.5138 66.0702 39.4765 65.8681 39.4796 65.6645ZM50.4311 65.6645V44.1387C50.4374 43.7357 50.602 43.3514 50.8892 43.0687C51.1765 42.786 51.5634 42.6276 51.9665 42.6278C52.3695 42.6279 52.7563 42.7866 53.0434 43.0695C53.3304 43.3523 53.4947 43.7368 53.5008 44.1398V65.6655C53.5052 65.8698 53.4688 66.073 53.3937 66.2631C53.3186 66.4532 53.2062 66.6264 53.0632 66.7725C52.9203 66.9187 52.7496 67.0347 52.5611 67.114C52.3727 67.1932 52.1703 67.2341 51.9659 67.2341C51.7615 67.2341 51.5591 67.1932 51.3707 67.114C51.1823 67.0347 51.0116 66.9187 50.8686 66.7725C50.7257 66.6264 50.6133 66.4532 50.5382 66.2631C50.463 66.073 50.4266 65.8698 50.4311 65.6655V65.6645Z" fill="#FF2147"/>
</svg>
