<svg width="39" height="39" viewBox="0 0 39 39" fill="none" xmlns="http://www.w3.org/2000/svg">
<rect x="0.9" y="38.1" width="37.2" height="37.2" rx="18.6" transform="rotate(-90 0.9 38.1)" fill="white" stroke="#2DA771" stroke-width="1.2"/>
<path d="M20.5 30.25H18.5C15.2 30.25 13.21 29.59 12.84 26.24C12.78 25.79 12.75 25.25 12.75 24.5V14.5C12.75 13.75 12.78 13.21 12.85 12.73C13.21 9.41 15.2 8.75 18.5 8.75H20.5C23.8 8.75 25.79 9.41 26.16 12.76C26.22 13.21 26.25 13.75 26.25 14.5V24.5C26.25 25.25 26.22 25.79 26.15 26.27C25.79 29.59 23.8 30.25 20.5 30.25ZM18.5 10.25C15.19 10.25 14.56 10.92 14.34 12.92C14.28 13.35 14.25 13.82 14.25 14.5V24.5C14.25 25.18 14.28 25.65 14.33 26.05C14.55 28.08 15.19 28.75 18.5 28.75H20.5C23.81 28.75 24.44 28.08 24.66 26.08C24.72 25.66 24.75 25.18 24.75 24.5V14.5C24.75 13.83 24.72 13.35 24.67 12.95C24.45 10.92 23.81 10.25 20.5 10.25H18.5Z" fill="#2DA771"/>
<path d="M13.17 26.9181H12.83C9.74 26.9181 8.75 25.9281 8.75 22.8281V16.1681C8.75 13.0681 9.74 12.0781 12.83 12.0781H13.17C13.34 12.0781 13.48 12.0781 13.64 12.0881C13.85 12.0981 14.04 12.1981 14.17 12.3681C14.3 12.5381 14.36 12.7381 14.33 12.9481C14.28 13.3481 14.25 13.8181 14.25 14.4981V24.4981C14.25 25.1781 14.28 25.6481 14.33 26.0481C14.36 26.2581 14.3 26.4681 14.17 26.6281C14.04 26.7881 13.85 26.8881 13.64 26.9081C13.48 26.9181 13.34 26.9181 13.17 26.9181ZM12.77 13.5781C10.58 13.5881 10.25 13.9381 10.25 16.1681V22.8281C10.25 25.0581 10.58 25.4081 12.77 25.4181C12.76 25.1481 12.75 24.8481 12.75 24.4981V14.4981C12.75 14.1481 12.76 13.8481 12.77 13.5781ZM26.17 26.9181H25.83C25.66 26.9181 25.52 26.9181 25.36 26.9081C25.2565 26.9034 25.1553 26.8758 25.0637 26.8274C24.972 26.779 24.8922 26.711 24.83 26.6281C24.7648 26.5477 24.717 26.4546 24.6895 26.3548C24.6619 26.255 24.6553 26.1506 24.67 26.0481C24.73 25.6481 24.75 25.1681 24.75 24.4981V14.4981C24.75 13.8281 24.72 13.3481 24.67 12.9481C24.64 12.7381 24.7 12.5281 24.83 12.3681C24.96 12.2081 25.15 12.1081 25.36 12.0881C25.52 12.0781 25.66 12.0781 25.83 12.0781H26.17C29.26 12.0781 30.25 13.0681 30.25 16.1681V22.8281C30.25 25.9281 29.26 26.9181 26.17 26.9181ZM26.23 13.5781C26.24 13.8481 26.25 14.1481 26.25 14.4981V24.4981C26.25 24.8481 26.24 25.1481 26.23 25.4181C28.42 25.4081 28.75 25.0581 28.75 22.8281V16.1681C28.75 13.9381 28.42 13.5881 26.23 13.5781Z" fill="#2DA771"/>
</svg>
