<svg width="120" height="120" viewBox="0 0 120 120" fill="none" xmlns="http://www.w3.org/2000/svg">
<path d="M69.0035 114.077C69.2269 113.914 69.2764 113.602 69.1141 113.378L73.9685 109.851C74.1308 110.075 74.4435 110.124 74.6669 109.962L80.3304 105.847C80.5538 105.685 80.6033 105.372 80.441 105.149L85.2955 101.622C85.4578 101.845 85.7705 101.895 85.9939 101.732L91.6573 97.6176C91.8807 97.4553 91.9303 97.1426 91.7679 96.9192L96.6224 93.3923C96.7847 93.6157 97.0974 93.6652 97.3208 93.5029L102.984 89.3882C103.208 89.2258 103.257 88.9132 103.095 88.6898L107.949 85.1628C108.112 85.3862 108.424 85.4357 108.648 85.2734L111.479 83.216C112.388 82.5557 113.167 81.769 113.803 80.8934C113.965 80.67 113.916 80.3573 113.692 80.195C113.689 80.1926 113.685 80.1902 113.682 80.1878C114.649 78.7053 115.207 76.9891 115.296 75.2212C115.3 75.2213 115.304 75.2214 115.308 75.2214C115.584 75.2214 115.808 74.9976 115.808 74.7215C115.809 73.6393 115.641 72.5452 115.294 71.4767L114.212 68.1478C114.127 67.8852 113.845 67.7414 113.582 67.8268L111.728 62.12C111.991 62.0347 112.134 61.7526 112.049 61.49L109.886 54.8322C109.8 54.5696 109.518 54.4258 109.256 54.5112L107.401 48.8044C107.664 48.7191 107.808 48.437 107.722 48.1744L105.559 41.5166C105.474 41.254 105.192 41.1102 104.929 41.1956L103.075 35.4888C103.338 35.4035 103.481 35.1214 103.396 34.8588L101.233 28.201C101.147 27.9384 100.865 27.7946 100.603 27.88L98.7484 22.1732C99.011 22.0879 99.1548 21.8058 99.0694 21.5432L97.9878 18.2143C97.6406 17.1458 97.133 16.1621 96.4969 15.2868C96.3345 15.0634 96.0218 15.0139 95.7985 15.1762C95.7951 15.1787 95.7917 15.1812 95.7884 15.1837C94.6774 13.8058 93.2174 12.7451 91.5636 12.1142C91.565 12.1103 91.5663 12.1063 91.5676 12.1024C91.653 11.8397 91.5093 11.5576 91.2467 11.4723C90.2176 11.1377 89.1252 10.959 88.0017 10.959L84.5015 10.959C84.2253 10.959 84.0015 11.1828 84.0015 11.459L78.0011 11.459C78.0011 11.1828 77.7772 10.959 77.5011 10.959L70.5006 10.959C70.2245 10.959 70.0006 11.1828 70.0006 11.459L64.0002 11.459C64.0002 11.1828 63.7764 10.959 63.5002 10.959L56.4998 10.959C56.2236 10.959 55.9998 11.1828 55.9998 11.459L49.9994 11.459C49.9994 11.1828 49.7755 10.959 49.4994 10.959L42.4989 10.959C42.2228 10.959 41.9989 11.1828 41.9989 11.459L35.9985 11.459C35.9985 11.1828 35.7747 10.959 35.4985 10.959L31.9983 10.959C30.8748 10.959 29.7824 11.1377 28.7533 11.4723C28.4907 11.5576 28.347 11.8397 28.4324 12.1023C28.4337 12.1063 28.435 12.1103 28.4364 12.1142C26.7826 12.7451 25.3226 13.8058 24.2116 15.1837C24.2083 15.1812 24.2049 15.1787 24.2016 15.1762C23.9782 15.0139 23.6655 15.0634 23.5031 15.2867C22.867 16.1621 22.3594 17.1458 22.0122 18.2143L20.9306 21.5432C20.8453 21.8058 20.989 22.0879 21.2516 22.1732L19.3974 27.88C19.1348 27.7946 18.8527 27.9384 18.7673 28.201L16.6041 34.8588C16.5188 35.1214 16.6625 35.4035 16.9251 35.4888L15.0709 41.1956C14.8083 41.1102 14.5262 41.254 14.4408 41.5166L12.2776 48.1744C12.1923 48.437 12.336 48.7191 12.5986 48.8044L10.7444 54.5112C10.4818 54.4258 10.1997 54.5696 10.1143 54.8322L7.9511 61.49C7.86577 61.7526 8.00949 62.0347 8.27212 62.12L6.41789 67.8268C6.15526 67.7414 5.87318 67.8851 5.78785 68.1478L4.70623 71.4767C4.35904 72.5452 4.19149 73.6393 4.19163 74.7215C4.19167 74.9976 4.41556 75.2214 4.6917 75.2214C4.69589 75.2214 4.70007 75.2213 4.70424 75.2212C4.79315 76.9891 5.3508 78.7053 6.31797 80.1878C6.31453 80.1902 6.31112 80.1926 6.30774 80.195C6.08432 80.3573 6.03475 80.67 6.19702 80.8934C6.83296 81.769 7.61163 82.5556 8.52057 83.216L11.3523 85.2734C11.5757 85.4357 11.8884 85.3862 12.0507 85.1628L16.9051 88.6897C16.7428 88.9131 16.7924 89.2258 17.0158 89.3881L22.6792 93.5029C22.9026 93.6652 23.2153 93.6157 23.3776 93.3923L28.2321 96.9192C28.0698 97.1426 28.1193 97.4553 28.3427 97.6176L34.0061 101.732C34.2295 101.895 34.5422 101.845 34.7045 101.622L39.559 105.149C39.3967 105.372 39.4462 105.685 39.6696 105.847L45.3331 109.962C45.5565 110.124 45.8692 110.075 46.0315 109.851L50.8859 113.378C50.7236 113.602 50.7731 113.914 50.9965 114.077L53.8283 116.134C54.7372 116.794 55.726 117.292 56.7552 117.626C57.0178 117.711 57.2999 117.568 57.3852 117.305C57.3865 117.301 57.3877 117.297 57.3889 117.293C59.0977 117.755 60.9023 117.755 62.6111 117.293C62.6123 117.297 62.6135 117.301 62.6148 117.305C62.7001 117.568 62.9822 117.711 63.2448 117.626C64.274 117.292 65.2628 116.794 66.1717 116.134L69.0035 114.077Z" fill="#DAEAF6" stroke="#2DA771" stroke-linecap="round" stroke-dasharray="8 8"/>
<rect x="25" y="25" width="70" height="70" rx="35" fill="white"/>
<path fill-rule="evenodd" clip-rule="evenodd" d="M68.4489 43.125C68.704 43.125 68.9514 43.2117 69.1507 43.3709C69.35 43.53 69.4893 43.7521 69.5458 44.0008L70.1685 46.7379C70.3096 47.3583 70.6231 47.9261 71.073 48.376C71.5228 48.8258 72.0907 49.1394 72.711 49.2804L75.4487 49.9031C75.6972 49.9598 75.9192 50.0992 76.0782 50.2984C76.2371 50.4977 76.3237 50.7451 76.3237 51C76.3237 51.2549 76.2371 51.5023 76.0782 51.7016C75.9192 51.9008 75.6972 52.0402 75.4487 52.0969L72.711 52.7196C72.0907 52.8606 71.5228 53.1742 71.073 53.624C70.6231 54.0739 70.3096 54.6417 70.1685 55.2621L69.5458 57.9992C69.4892 58.2477 69.3498 58.4697 69.1505 58.6287C68.9512 58.7876 68.7039 58.8742 68.4489 58.8742C68.194 58.8742 67.9467 58.7876 67.7474 58.6287C67.5481 58.4697 67.4087 58.2477 67.3521 57.9992L66.7294 55.2621C66.5883 54.6417 66.2747 54.0739 65.8249 53.624C65.3751 53.1742 64.8072 52.8606 64.1869 52.7196L61.4492 52.0969C61.2006 52.0402 60.9787 51.9008 60.8197 51.7016C60.6607 51.5023 60.5742 51.2549 60.5742 51C60.5742 50.7451 60.6607 50.4977 60.8197 50.2984C60.9787 50.0992 61.2006 49.9598 61.4492 49.9031L64.1869 49.2804C64.8072 49.1394 65.3751 48.8258 65.8249 48.376C66.2747 47.9261 66.5883 47.3583 66.7294 46.7379L67.3521 44.0008C67.4086 43.7521 67.5479 43.53 67.7472 43.3709C67.9465 43.2117 68.1939 43.125 68.4489 43.125ZM61.8047 54.9375C60.9842 54.9375 60.1973 55.2634 59.6171 55.8436C59.0369 56.4238 58.7109 57.2107 58.7109 58.0312C58.7109 58.8518 59.0369 59.6387 59.6171 60.2189C60.1973 60.7991 60.9842 61.125 61.8047 61.125C62.6252 61.125 63.4121 60.7991 63.9923 60.2189C64.5725 59.6387 64.8984 58.8518 64.8984 58.0312C64.8984 57.2107 64.5725 56.4238 63.9923 55.8436C63.4121 55.2634 62.6252 54.9375 61.8047 54.9375Z" fill="#14171B"/>
<path fill-rule="evenodd" clip-rule="evenodd" d="M48.1875 49.875H59.1096C58.9577 50.2215 58.875 50.6029 58.875 51C58.875 51.3971 58.9583 51.7785 59.1096 52.125H48.1875C47.5908 52.125 47.0185 52.3621 46.5965 52.784C46.1746 53.206 45.9375 53.7783 45.9375 54.375V63.9499C50.8892 62.6972 55.8836 64.0309 59.5027 67.1213C61.8934 65.5912 64.7126 65.211 67.3125 65.8528V60.3279C67.659 60.4798 68.0404 60.5625 68.4375 60.5625C68.8346 60.5625 69.216 60.4792 69.5625 60.3279V72.375C69.5625 73.5685 69.0884 74.7131 68.2445 75.557C67.4006 76.4009 66.256 76.875 65.0625 76.875H48.1875C46.994 76.875 45.8494 76.4009 45.0055 75.557C44.1616 74.7131 43.6875 73.5685 43.6875 72.375V54.375C43.6875 53.1815 44.1616 52.0369 45.0055 51.193C45.8494 50.3491 46.994 49.875 48.1875 49.875Z" fill="#14171B"/>
</svg>
