<svg width="28" height="28" viewBox="0 0 28 28" fill="none" xmlns="http://www.w3.org/2000/svg">
<path fill-rule="evenodd" clip-rule="evenodd" d="M20.574 0.875C20.7724 0.875032 20.9648 0.942459 21.1198 1.06623C21.2748 1.18999 21.3832 1.36276 21.4271 1.55619L21.9114 3.68506C22.0212 4.16755 22.265 4.6092 22.6149 4.95908C22.9648 5.30896 23.4065 5.55283 23.8889 5.66256L26.0183 6.14687C26.2116 6.19093 26.3842 6.29934 26.5078 6.45434C26.6315 6.60933 26.6988 6.80173 26.6988 7C26.6988 7.19827 26.6315 7.39067 26.5078 7.54566C26.3842 7.70066 26.2116 7.80907 26.0183 7.85313L23.8889 8.33744C23.4065 8.44717 22.9648 8.69104 22.6149 9.04092C22.265 9.3908 22.0212 9.83245 21.9114 10.3149L21.4271 12.4438C21.3831 12.6371 21.2747 12.8098 21.1197 12.9334C20.9647 13.057 20.7723 13.1244 20.574 13.1244C20.3757 13.1244 20.1833 13.057 20.0283 12.9334C19.8733 12.8098 19.7649 12.6371 19.7209 12.4438L19.2366 10.3149C19.1268 9.83245 18.883 9.3908 18.5331 9.04092C18.1832 8.69104 17.7416 8.44717 17.2591 8.33744L15.1298 7.85313C14.9364 7.80907 14.7638 7.70066 14.6402 7.54566C14.5165 7.39067 14.4492 7.19827 14.4492 7C14.4492 6.80173 14.5165 6.60933 14.6402 6.45434C14.7638 6.29934 14.9364 6.19093 15.1298 6.14687L17.2591 5.66256C17.7416 5.55283 18.1832 5.30896 18.5331 4.95908C18.883 4.6092 19.1268 4.16755 19.2366 3.68506L19.7209 1.55619C19.7648 1.36276 19.8732 1.18999 20.0282 1.06623C20.1832 0.942459 20.3756 0.875032 20.574 0.875ZM15.4063 10.0625C14.7681 10.0625 14.156 10.316 13.7048 10.7673C13.2535 11.2185 13 11.8306 13 12.4688C13 13.1069 13.2535 13.719 13.7048 14.1702C14.156 14.6215 14.7681 14.875 15.4063 14.875C16.0444 14.875 16.6565 14.6215 17.1077 14.1702C17.559 13.719 17.8125 13.1069 17.8125 12.4688C17.8125 11.8306 17.559 11.2185 17.1077 10.7673C16.6565 10.316 16.0444 10.0625 15.4063 10.0625Z" fill="#14171B"/>
<path fill-rule="evenodd" clip-rule="evenodd" d="M4.8125 6.125H13.3074C13.1893 6.3945 13.125 6.69113 13.125 7C13.125 7.30887 13.1897 7.6055 13.3074 7.875H4.8125C4.34837 7.875 3.90325 8.05937 3.57506 8.38756C3.24687 8.71575 3.0625 9.16087 3.0625 9.625V17.0721C6.91381 16.0978 10.7984 17.1351 13.6132 19.5387C15.4726 18.3488 17.6654 18.053 19.6875 18.5522V14.2551C19.957 14.3732 20.2536 14.4375 20.5625 14.4375C20.8714 14.4375 21.168 14.3728 21.4375 14.2551V23.625C21.4375 24.5533 21.0688 25.4435 20.4124 26.0999C19.756 26.7563 18.8658 27.125 17.9375 27.125H4.8125C3.88424 27.125 2.994 26.7563 2.33763 26.0999C1.68125 25.4435 1.3125 24.5533 1.3125 23.625V9.625C1.3125 8.69674 1.68125 7.8065 2.33763 7.15013C2.994 6.49375 3.88424 6.125 4.8125 6.125Z" fill="#14171B"/>
</svg>
