<svg width="34" height="34" viewBox="0 0 34 34" fill="none" xmlns="http://www.w3.org/2000/svg">
<g clip-path="url(#clip0_13079_25111)">
<path d="M2.31818 29.7549H7.7273V16.6185L4.18532 10.4336L0 10.8231V27.4367C0 28.7175 1.0374 29.7549 2.31818 29.7549Z" fill="#0085F7"/>
<path d="M26.2734 29.7549H31.6826C32.9633 29.7549 34.0007 28.7175 34.0007 27.4367V10.8231L29.8215 10.4336L26.2735 16.6185V29.7549H26.2734Z" fill="#00A94B"/>
<path d="M26.2711 6.57441L23.0938 12.6375L26.2711 16.6199L33.9984 10.8244V7.73353C33.9984 4.86863 30.7278 3.23238 28.4347 4.9517L26.2711 6.57441Z" fill="#FFBC00"/>
<path fill-rule="evenodd" clip-rule="evenodd" d="M7.73078 16.6197L4.70312 10.2241L7.73078 6.57422L17.0035 13.5287L26.2762 6.57422V16.6197L17.0035 23.5742L7.73078 16.6197Z" fill="#FF4131"/>
<path d="M0 7.73353V10.8244L7.7273 16.6199V6.57441L5.56365 4.9517C3.27057 3.23238 0 4.86863 0 7.73353Z" fill="#E51C19"/>
</g>
<defs>
<clipPath id="clip0_13079_25111">
<rect width="34" height="34" fill="white"/>
</clipPath>
</defs>
</svg>
