<svg width="120" height="120" viewBox="0 0 120 120" fill="none" xmlns="http://www.w3.org/2000/svg">
<path d="M67.7418 116.827C67.9906 116.707 68.0951 116.408 67.9753 116.159L73.4464 113.525C73.5662 113.773 73.865 113.878 74.1138 113.758L80.4859 110.689C80.7347 110.57 80.8392 110.271 80.7194 110.022L86.1905 107.387C86.3103 107.636 86.6091 107.741 86.8579 107.621L93.2299 104.552C93.4787 104.432 93.5833 104.134 93.4635 103.885L98.9345 101.25C99.0544 101.499 99.3532 101.603 99.602 101.484L102.788 99.9493C103.503 99.6049 104.17 99.1841 104.779 98.6985C104.995 98.5263 105.03 98.2117 104.858 97.9958C104.855 97.9925 104.853 97.9893 104.85 97.9861C105.724 97.2148 106.456 96.2963 107.014 95.273C107.018 95.2749 107.021 95.2767 107.025 95.2785C107.274 95.3984 107.573 95.2938 107.692 95.045C108.03 94.3432 108.292 93.5996 108.469 92.8256L109.256 89.3781C109.317 89.1089 109.149 88.8408 108.88 88.7794L110.231 82.8592C110.5 82.9206 110.768 82.7522 110.83 82.483L112.403 75.5879C112.465 75.3187 112.296 75.0506 112.027 74.9892L113.378 69.069C113.648 69.1304 113.916 68.962 113.977 68.6928L115.551 61.7977C115.612 61.5285 115.444 61.2604 115.175 61.1989L116.526 55.2788C116.795 55.3402 117.063 55.1718 117.125 54.9026L117.912 51.455C118.088 50.681 118.175 49.8974 118.175 49.1185C118.175 48.8424 117.951 48.6185 117.675 48.6185C117.671 48.6185 117.667 48.6186 117.662 48.6187C117.604 47.4548 117.343 46.3094 116.89 45.2354C116.894 45.2337 116.898 45.232 116.901 45.2302C117.15 45.1104 117.255 44.8115 117.135 44.5627C116.797 43.8609 116.379 43.1926 115.884 42.5719L113.679 39.8072C113.507 39.5913 113.192 39.5558 112.977 39.728L109.19 34.9804C109.406 34.8082 109.442 34.4936 109.27 34.2777L104.86 28.7483C104.688 28.5324 104.373 28.4969 104.157 28.6691L100.371 23.9215C100.587 23.7493 100.623 23.4347 100.45 23.2188L96.0409 17.6894C95.8687 17.4735 95.5541 17.438 95.3382 17.6102L91.5521 12.8626C91.768 12.6904 91.8035 12.3758 91.6313 12.1599L89.4265 9.39522C88.9315 8.77454 88.373 8.21819 87.764 7.73254C87.5481 7.56038 87.2335 7.59583 87.0613 7.81174C87.0587 7.815 87.0561 7.8183 87.0536 7.82161C86.1073 7.1415 85.0488 6.63178 83.927 6.31593C83.9281 6.3119 83.929 6.30785 83.93 6.30377C83.9914 6.03455 83.823 5.76649 83.5538 5.70504C82.7944 5.53169 82.0112 5.44186 81.2173 5.44186H77.6811C77.4049 5.44186 77.1811 5.66572 77.1811 5.94186H71.1086C71.1086 5.66572 70.8848 5.44186 70.6086 5.44186H63.5362C63.2601 5.44186 63.0362 5.66572 63.0362 5.94186H56.9638C56.9638 5.66572 56.7399 5.44186 56.4638 5.44186H49.3913C49.1152 5.44186 48.8913 5.66572 48.8913 5.94186H42.8189C42.8189 5.66572 42.5951 5.44186 42.3189 5.44186H38.7827C37.9888 5.44186 37.2056 5.53169 36.4462 5.70504C36.177 5.76649 36.0085 6.03455 36.07 6.30377C36.0709 6.30785 36.0719 6.3119 36.0729 6.31593C34.9512 6.63178 33.8927 7.14151 32.9464 7.82162C32.9438 7.81831 32.9413 7.81501 32.9387 7.81174C32.7665 7.59584 32.4519 7.56039 32.236 7.73255C31.627 8.21819 31.0685 8.77454 30.5735 9.39523L28.3687 12.16C28.1965 12.3758 28.2319 12.6904 28.4478 12.8626L24.6618 17.6102C24.4459 17.438 24.1313 17.4735 23.9591 17.6894L19.5495 23.2188C19.3773 23.4347 19.4128 23.7493 19.6287 23.9215L15.8426 28.6691C15.6267 28.4969 15.3121 28.5324 15.1399 28.7483L10.7303 34.2777C10.5582 34.4936 10.5936 34.8082 10.8095 34.9804L7.02341 39.728C6.80752 39.5558 6.49292 39.5913 6.32075 39.8072L4.11596 42.5719C3.62098 43.1926 3.20287 43.8609 2.86492 44.5627C2.74512 44.8115 2.84969 45.1104 3.09848 45.2302C3.10225 45.232 3.10603 45.2337 3.10982 45.2355C2.65734 46.3094 2.39593 47.4548 2.33762 48.6187C2.33346 48.6186 2.32929 48.6185 2.32511 48.6185C2.04897 48.6185 1.8251 48.8424 1.8251 49.1185C1.82507 49.8974 1.91179 50.681 2.08844 51.455L2.87532 54.9026C2.93677 55.1718 3.20483 55.3402 3.47404 55.2788L4.82529 61.1989C4.55607 61.2604 4.38764 61.5285 4.44909 61.7977L6.02285 68.6928C6.0843 68.962 6.35236 69.1304 6.62157 69.069L7.97282 74.9892C7.7036 75.0506 7.53516 75.3187 7.59661 75.5879L9.17038 82.483C9.23183 82.7522 9.49989 82.9206 9.7691 82.8592L11.1203 88.7794C10.8511 88.8408 10.6827 89.1089 10.7441 89.3781L11.531 92.8256C11.7077 93.5996 11.9695 94.3432 12.3075 95.045C12.4273 95.2938 12.7262 95.3984 12.975 95.2785C12.9787 95.2767 12.9825 95.2749 12.9862 95.273C13.5437 96.2963 14.2762 97.2148 15.1498 97.9861C15.1471 97.9893 15.1445 97.9925 15.1419 97.9958C14.9697 98.2117 15.0052 98.5263 15.221 98.6985C15.83 99.1841 16.4967 99.6049 17.212 99.9493L20.398 101.484C20.6468 101.603 20.9456 101.499 21.0654 101.25L26.5365 103.885C26.4167 104.134 26.5212 104.432 26.77 104.552L33.1421 107.621C33.3909 107.741 33.6897 107.636 33.8095 107.387L39.2806 110.022C39.1608 110.271 39.2653 110.57 39.5141 110.689L45.8862 113.758C46.1349 113.878 46.4338 113.773 46.5536 113.525L52.0247 116.159C51.9048 116.408 52.0094 116.707 52.2582 116.827L55.4442 118.361C56.1595 118.705 56.9041 118.964 57.6635 119.138C57.9327 119.199 58.2008 119.031 58.2622 118.761C58.2632 118.757 58.264 118.753 58.2649 118.749C59.4126 118.951 60.5874 118.951 61.7351 118.749C61.7359 118.753 61.7368 118.757 61.7377 118.761C61.7992 119.031 62.0672 119.199 62.3365 119.138C63.0959 118.964 63.8405 118.705 64.5558 118.361L67.7418 116.827Z" fill="#FFE6FF" stroke="#2DA771" stroke-linecap="round" stroke-dasharray="8 8"/>
<rect x="25" y="25" width="70" height="70" rx="35" fill="white"/>
<path d="M47.8438 55.1133H71.1771" stroke="#14171B" stroke-width="2.5" stroke-linecap="round" stroke-linejoin="round"/>
<path d="M47.8438 63.8555H71.1771" stroke="#14171B" stroke-width="2.5" stroke-linecap="round" stroke-linejoin="round"/>
<path d="M56.5807 46.3672L53.6641 72.6172" stroke="#14171B" stroke-width="2.5" stroke-linecap="round" stroke-linejoin="round"/>
<path d="M65.3229 46.3672L62.4062 72.6172" stroke="#14171B" stroke-width="2.5" stroke-linecap="round" stroke-linejoin="round"/>
</svg>
