<svg width="120" height="120" viewBox="0 0 120 120" fill="none" xmlns="http://www.w3.org/2000/svg">
<path d="M69.0035 114.077C69.2269 113.914 69.2764 113.602 69.1141 113.378L73.9685 109.851C74.1308 110.075 74.4435 110.124 74.6669 109.962L80.3304 105.847C80.5538 105.685 80.6033 105.372 80.441 105.149L85.2955 101.622C85.4578 101.845 85.7705 101.895 85.9939 101.732L91.6573 97.6176C91.8807 97.4553 91.9303 97.1426 91.7679 96.9192L96.6224 93.3923C96.7847 93.6157 97.0974 93.6652 97.3208 93.5029L102.984 89.3882C103.208 89.2258 103.257 88.9132 103.095 88.6898L107.949 85.1628C108.112 85.3862 108.424 85.4357 108.648 85.2734L111.479 83.216C112.388 82.5557 113.167 81.769 113.803 80.8934C113.965 80.67 113.916 80.3573 113.692 80.195C113.689 80.1926 113.685 80.1902 113.682 80.1878C114.649 78.7053 115.207 76.9891 115.296 75.2212C115.3 75.2213 115.304 75.2214 115.308 75.2214C115.584 75.2214 115.808 74.9976 115.808 74.7215C115.809 73.6393 115.641 72.5452 115.294 71.4767L114.212 68.1478C114.127 67.8852 113.845 67.7414 113.582 67.8268L111.728 62.12C111.991 62.0347 112.134 61.7526 112.049 61.49L109.886 54.8322C109.8 54.5696 109.518 54.4258 109.256 54.5112L107.401 48.8044C107.664 48.7191 107.808 48.437 107.722 48.1744L105.559 41.5166C105.474 41.254 105.192 41.1102 104.929 41.1956L103.075 35.4888C103.338 35.4035 103.481 35.1214 103.396 34.8588L101.233 28.201C101.147 27.9384 100.865 27.7946 100.603 27.88L98.7484 22.1732C99.011 22.0879 99.1548 21.8058 99.0694 21.5432L97.9878 18.2143C97.6406 17.1458 97.133 16.1621 96.4969 15.2868C96.3345 15.0634 96.0218 15.0139 95.7985 15.1762C95.7951 15.1787 95.7917 15.1812 95.7884 15.1837C94.6774 13.8058 93.2174 12.7451 91.5636 12.1142C91.565 12.1103 91.5663 12.1063 91.5676 12.1024C91.653 11.8397 91.5093 11.5576 91.2467 11.4723C90.2176 11.1377 89.1252 10.959 88.0017 10.959L84.5015 10.959C84.2253 10.959 84.0015 11.1828 84.0015 11.459L78.0011 11.459C78.0011 11.1828 77.7772 10.959 77.5011 10.959L70.5006 10.959C70.2245 10.959 70.0006 11.1828 70.0006 11.459L64.0002 11.459C64.0002 11.1828 63.7764 10.959 63.5002 10.959L56.4998 10.959C56.2236 10.959 55.9998 11.1828 55.9998 11.459L49.9994 11.459C49.9994 11.1828 49.7755 10.959 49.4994 10.959L42.4989 10.959C42.2228 10.959 41.9989 11.1828 41.9989 11.459L35.9985 11.459C35.9985 11.1828 35.7747 10.959 35.4985 10.959L31.9983 10.959C30.8748 10.959 29.7824 11.1377 28.7533 11.4723C28.4907 11.5576 28.347 11.8397 28.4324 12.1023C28.4337 12.1063 28.435 12.1103 28.4364 12.1142C26.7826 12.7451 25.3226 13.8058 24.2116 15.1837C24.2083 15.1812 24.2049 15.1787 24.2016 15.1762C23.9782 15.0139 23.6655 15.0634 23.5031 15.2867C22.867 16.1621 22.3594 17.1458 22.0122 18.2143L20.9306 21.5432C20.8453 21.8058 20.989 22.0879 21.2516 22.1732L19.3974 27.88C19.1348 27.7946 18.8527 27.9384 18.7673 28.201L16.6041 34.8588C16.5188 35.1214 16.6625 35.4035 16.9251 35.4888L15.0709 41.1956C14.8083 41.1102 14.5262 41.254 14.4408 41.5166L12.2776 48.1744C12.1923 48.437 12.336 48.7191 12.5986 48.8044L10.7444 54.5112C10.4818 54.4258 10.1997 54.5696 10.1143 54.8322L7.9511 61.49C7.86577 61.7526 8.00949 62.0347 8.27212 62.12L6.41789 67.8268C6.15526 67.7414 5.87318 67.8851 5.78785 68.1478L4.70623 71.4767C4.35904 72.5452 4.19149 73.6393 4.19163 74.7215C4.19167 74.9976 4.41556 75.2214 4.6917 75.2214C4.69589 75.2214 4.70007 75.2213 4.70424 75.2212C4.79315 76.9891 5.3508 78.7053 6.31797 80.1878C6.31453 80.1902 6.31112 80.1926 6.30774 80.195C6.08432 80.3573 6.03475 80.67 6.19702 80.8934C6.83296 81.769 7.61163 82.5556 8.52057 83.216L11.3523 85.2734C11.5757 85.4357 11.8884 85.3862 12.0507 85.1628L16.9051 88.6897C16.7428 88.9131 16.7924 89.2258 17.0158 89.3881L22.6792 93.5029C22.9026 93.6652 23.2153 93.6157 23.3776 93.3923L28.2321 96.9192C28.0698 97.1426 28.1193 97.4553 28.3427 97.6176L34.0061 101.732C34.2295 101.895 34.5422 101.845 34.7045 101.622L39.559 105.149C39.3967 105.372 39.4462 105.685 39.6696 105.847L45.3331 109.962C45.5565 110.124 45.8692 110.075 46.0315 109.851L50.8859 113.378C50.7236 113.602 50.7731 113.914 50.9965 114.077L53.8283 116.134C54.7372 116.794 55.726 117.292 56.7552 117.626C57.0178 117.711 57.2999 117.568 57.3852 117.305C57.3865 117.301 57.3877 117.297 57.3889 117.293C59.0977 117.755 60.9023 117.755 62.6111 117.293C62.6123 117.297 62.6135 117.301 62.6148 117.305C62.7001 117.568 62.9822 117.711 63.2448 117.626C64.274 117.292 65.2628 116.794 66.1717 116.134L69.0035 114.077Z" fill="#DAEAF6" stroke="#2DA771" stroke-linecap="round" stroke-dasharray="8 8"/>
<rect x="25" y="25" width="70" height="70" rx="35" fill="white"/>
<path d="M73.0281 56.6856C73.3746 55.6439 73.4901 54.535 73.3746 53.4428C73.2756 52.3507 72.9125 51.2921 72.3845 50.3512C71.5759 48.923 70.3383 47.7805 68.8531 47.1084C67.368 46.4363 65.7178 46.2515 64.1337 46.6043C63.4241 45.781 62.533 45.1257 61.5429 44.6721C60.5528 44.2352 59.4967 44 58.4076 44C56.7904 44 55.2063 44.5209 53.8861 45.4954C52.5825 46.4699 51.5924 47.8309 51.0974 49.4103C50.0413 49.6287 49.0512 50.0824 48.1766 50.7209C47.302 51.3762 46.5759 52.1995 46.0314 53.1572C45.2063 54.5854 44.8762 56.2488 45.0413 57.8954C45.2063 59.542 45.8828 61.0878 46.9719 62.3144C46.6254 63.3561 46.5099 64.465 46.6254 65.5572C46.7409 66.6493 47.0875 67.7079 47.6155 68.6488C48.4241 70.077 49.6617 71.2195 51.1469 71.8916C52.632 72.5637 54.2822 72.7485 55.8663 72.3957C56.5759 73.219 57.467 73.8743 58.4571 74.3279C59.4472 74.7648 60.5033 75 61.5924 75C63.2096 75 64.8102 74.4791 66.1139 73.5046C67.4175 72.5301 68.4076 71.1691 68.9026 69.5897C69.9587 69.3713 70.9488 68.9176 71.8234 68.2791C72.698 67.6238 73.4241 66.8005 73.9686 65.8428C74.7937 64.4146 75.1238 62.7512 74.9587 61.1046C74.7937 59.458 74.1172 57.9122 73.0281 56.6856ZM61.6749 72.9501C60.1568 72.9501 58.9851 72.4797 57.962 71.606C58.0116 71.5724 58.0776 71.5387 58.1436 71.5051L64.1997 67.9431C64.3482 67.8591 64.4802 67.7247 64.5627 67.5734C64.6452 67.4222 64.6947 67.2374 64.6947 67.0694V58.3827L67.2525 59.8948C67.2525 59.8948 67.2855 59.9117 67.2855 59.9285C67.2855 59.9285 67.2855 59.9621 67.302 59.9621V67.1534C67.302 70.413 64.6287 72.9501 61.6749 72.9501ZM49.3647 67.6238C48.7046 66.4477 48.4571 65.0699 48.6881 63.7425C48.7376 63.7762 48.8036 63.8266 48.8696 63.8434L54.9257 67.4054C55.0743 67.4894 55.2558 67.5398 55.4208 67.5398C55.5858 67.5398 55.7673 67.4894 55.9158 67.4054L63.3086 63.0537V66.1116C63.3086 66.1116 63.2921 66.1453 63.2756 66.1453L57.1535 69.7409C55.8498 70.497 54.2987 70.7154 52.83 70.329C51.3614 69.9257 50.1238 68.9512 49.3647 67.6238ZM47.764 54.1653C48.4241 52.9892 49.4802 52.0818 50.7343 51.6282V58.9539C50.7343 59.122 50.7838 59.3068 50.8663 59.458C50.9488 59.6092 51.0809 59.7436 51.2294 59.8276L58.6221 64.1794L56.0644 65.6916C56.0644 65.6916 56.0314 65.6916 56.0314 65.7084H55.9818L49.8597 62.1127C48.5561 61.3398 47.599 60.0797 47.203 58.5843C46.8069 57.0889 47.005 55.5095 47.764 54.1821V54.1653ZM68.8036 59.1556L61.4109 54.8038L63.9686 53.3084C63.9686 53.3084 64.0017 53.3084 64.0017 53.2916H64.0512L70.1733 56.8873C71.1139 57.4417 71.8729 58.2482 72.3845 59.2228C72.896 60.1973 73.0941 61.3062 73.0116 62.3984C72.9125 63.5073 72.5165 64.5491 71.8564 65.4228C71.1964 66.2965 70.3218 66.9686 69.2987 67.355V60.0293C69.2987 59.8612 69.2492 59.6764 69.1667 59.5252C69.0842 59.374 68.9521 59.2396 68.8036 59.1556ZM71.3449 55.2407C71.3449 55.2407 71.2294 55.1566 71.1634 55.1398L65.1073 51.5778C64.9587 51.4938 64.7772 51.4434 64.6122 51.4434C64.4472 51.4434 64.2657 51.4938 64.1172 51.5778L56.7244 55.9295V52.8715C56.7244 52.8715 56.7409 52.8379 56.7574 52.8379L62.8795 49.2423C63.8201 48.6878 64.8762 48.419 65.9653 48.4694C67.0545 48.5198 68.0941 48.8726 68.9851 49.5111C69.8762 50.1328 70.5693 51.0233 70.9818 52.0314C71.3944 53.0396 71.5264 54.1653 71.3449 55.2575V55.2407ZM55.3383 60.6173L52.7805 59.1051C52.7805 59.1051 52.7475 59.0883 52.7475 59.0715C52.7475 59.0715 52.7475 59.0379 52.731 59.0379V51.8466C52.731 50.7377 53.0446 49.6623 53.6221 48.7382C54.1997 47.8141 55.0248 47.058 56.0149 46.6043C56.9884 46.1339 58.0941 45.9659 59.1667 46.1003C60.2393 46.2515 61.2624 46.6883 62.0875 47.394C62.038 47.4276 61.9719 47.4612 61.9059 47.4949L55.8498 51.0569C55.7013 51.1409 55.5693 51.2753 55.4868 51.4266C55.4043 51.5778 55.3548 51.7626 55.3548 51.9306V60.6173H55.3383ZM56.7244 57.5593L60.0083 55.6271L63.2921 57.5593V61.4238L60.0083 63.3561L56.7244 61.4238V57.5593Z" fill="#14171B"/>
</svg>
