<svg width="23" height="23" viewBox="0 0 23 23" fill="none" xmlns="http://www.w3.org/2000/svg">
<path d="M20.795 9.41193C21.0521 8.63903 21.1378 7.81626 21.0521 7.00596C20.9787 6.19566 20.7093 5.4103 20.3175 4.71219C19.7176 3.65257 18.7994 2.80488 17.6975 2.30623C16.5956 1.80759 15.3713 1.67046 14.1959 1.93225C13.6695 1.32141 13.0084 0.83523 12.2738 0.498645C11.5392 0.174526 10.7556 0 9.94757 0C8.74774 0 7.57239 0.386451 6.59294 1.10949C5.62573 1.83252 4.89114 2.84228 4.52385 4.01409C3.74029 4.17615 3.0057 4.51274 2.35681 4.98645C1.70792 5.47263 1.16922 6.08347 0.765197 6.79404C0.153039 7.85366 -0.0918237 9.0878 0.0306079 10.3095C0.153039 11.5312 0.65501 12.6781 1.46306 13.5881C1.20595 14.361 1.12025 15.1837 1.20595 15.994C1.29165 16.8043 1.54876 17.5897 1.94054 18.2878C2.54046 19.3474 3.45869 20.1951 4.56058 20.6938C5.66246 21.1924 6.88678 21.3295 8.06212 21.0678C8.58858 21.6786 9.24971 22.1648 9.9843 22.5014C10.7189 22.8255 11.5024 23 12.3105 23C13.5103 23 14.6979 22.6135 15.6651 21.8905C16.6323 21.1675 17.3669 20.1577 17.7342 18.9859C18.5178 18.8238 19.2524 18.4873 19.9013 18.0135C20.5501 17.5274 21.0888 16.9165 21.4929 16.206C22.105 15.1463 22.3499 13.9122 22.2275 12.6905C22.105 11.4688 21.6031 10.322 20.795 9.41193ZM12.3717 21.4791C11.2453 21.4791 10.3761 21.1301 9.617 20.4818C9.65373 20.4569 9.7027 20.432 9.75168 20.407L14.2449 17.7642C14.3551 17.7019 14.453 17.6022 14.5143 17.49C14.5755 17.3778 14.6122 17.2407 14.6122 17.116V10.671L16.5099 11.793C16.5099 11.793 16.5344 11.8054 16.5344 11.8179C16.5344 11.8179 16.5344 11.8428 16.5466 11.8428V17.1783C16.5466 19.5967 14.5632 21.4791 12.3717 21.4791ZM3.23832 17.5274C2.74859 16.6547 2.56494 15.6325 2.73635 14.6477C2.77308 14.6726 2.82205 14.71 2.87102 14.7225L7.36426 17.3653C7.47445 17.4276 7.60912 17.465 7.73156 17.465C7.85399 17.465 7.98866 17.4276 8.09885 17.3653L13.5838 14.1366V16.4054C13.5838 16.4054 13.5715 16.4304 13.5593 16.4304L9.01709 19.0981C8.04988 19.6591 6.89902 19.8211 5.80938 19.5344C4.71974 19.2352 3.8015 18.5122 3.23832 17.5274ZM2.05073 7.54201C2.54046 6.66938 3.32402 5.99621 4.2545 5.65962V11.0949C4.2545 11.2195 4.29123 11.3566 4.35244 11.4688C4.41366 11.581 4.5116 11.6808 4.62179 11.7431L10.1067 14.9718L8.20904 16.0938C8.20904 16.0938 8.18455 16.0938 8.18455 16.1062H8.14782L3.60561 13.4385C2.6384 12.865 1.9283 11.9301 1.63446 10.8206C1.34063 9.71111 1.48754 8.53929 2.05073 7.55447V7.54201ZM17.6608 11.2444L12.1758 8.01572L14.0735 6.90623C14.0735 6.90623 14.098 6.90623 14.098 6.89377H14.1347L18.6769 9.56152C19.3748 9.9729 19.938 10.5713 20.3175 11.2943C20.6971 12.0173 20.844 12.8401 20.7828 13.6504C20.7093 14.4732 20.4155 15.2461 19.9257 15.8943C19.436 16.5425 18.7871 17.0412 18.0281 17.3279V11.8927C18.0281 11.768 17.9913 11.6309 17.9301 11.5187C17.8689 11.4065 17.7709 11.3068 17.6608 11.2444ZM19.5462 8.33984C19.5462 8.33984 19.4605 8.27751 19.4115 8.26504L14.9183 5.62222C14.8081 5.55989 14.6734 5.52249 14.551 5.52249C14.4286 5.52249 14.2939 5.55989 14.1837 5.62222L8.69876 8.85095V6.58211C8.69876 6.58211 8.71101 6.55718 8.72325 6.55718L13.2655 3.88943C13.9633 3.47805 14.7469 3.27859 15.5549 3.31599C16.363 3.35339 17.1343 3.61518 17.7954 4.08889C18.4566 4.55014 18.9708 5.21084 19.2769 5.95881C19.5829 6.70677 19.6809 7.54201 19.5462 8.3523V8.33984ZM7.67034 12.329L5.77265 11.207C5.77265 11.207 5.74816 11.1946 5.74816 11.1821C5.74816 11.1821 5.74816 11.1572 5.73592 11.1572V5.82168C5.73592 4.99892 5.96854 4.20108 6.39705 3.51545C6.82556 2.82981 7.43772 2.26883 8.17231 1.93225C8.89466 1.5832 9.71495 1.45854 10.5108 1.55827C11.3066 1.67046 12.0656 1.99458 12.6778 2.51816C12.6411 2.54309 12.5921 2.56802 12.5431 2.59295L8.04988 5.23577C7.93969 5.2981 7.84174 5.39783 7.78053 5.51003C7.71931 5.62222 7.68258 5.75935 7.68258 5.88401V12.329H7.67034ZM8.69876 10.0602L11.1352 8.62656L13.5715 10.0602V12.9274L11.1352 14.361L8.69876 12.9274V10.0602Z" fill="#14171B"/>
</svg>
