<svg width="26" height="26" viewBox="0 0 26 26" fill="none" xmlns="http://www.w3.org/2000/svg">
<path d="M1.875 5.6875C1.875 3.58307 3.58307 1.875 5.6875 1.875H8.9375C9.08668 1.875 9.22976 1.93426 9.33525 2.03975C9.44074 2.14524 9.5 2.28832 9.5 2.4375C9.5 2.58668 9.44074 2.72976 9.33525 2.83525C9.22976 2.94074 9.08668 3 8.9375 3H5.6875C4.20393 3 3 4.20393 3 5.6875V8.9375C3 9.08668 2.94074 9.22976 2.83525 9.33525C2.72976 9.44074 2.58668 9.5 2.4375 9.5C2.28832 9.5 2.14524 9.44074 2.03975 9.33525C1.93426 9.22976 1.875 9.08668 1.875 8.9375V5.6875ZM16.6648 2.03975C16.7702 1.93426 16.9133 1.875 17.0625 1.875H20.3125C22.4169 1.875 24.125 3.58307 24.125 5.6875V8.9375C24.125 9.08668 24.0657 9.22976 23.9602 9.33525C23.8548 9.44074 23.7117 9.5 23.5625 9.5C23.4133 9.5 23.2702 9.44074 23.1648 9.33525C23.0593 9.22976 23 9.08668 23 8.9375V5.6875C23 4.20393 21.7961 3 20.3125 3H17.0625C16.9133 3 16.7702 2.94074 16.6648 2.83525C16.5593 2.72976 16.5 2.58668 16.5 2.4375C16.5 2.28832 16.5593 2.14524 16.6648 2.03975ZM2.03975 16.6648C2.14524 16.5593 2.28832 16.5 2.4375 16.5C2.58668 16.5 2.72976 16.5593 2.83525 16.6648C2.94074 16.7702 3 16.9133 3 17.0625V20.3125C3 21.7961 4.20393 23 5.6875 23H8.9375C9.08668 23 9.22976 23.0593 9.33525 23.1648C9.44074 23.2702 9.5 23.4133 9.5 23.5625C9.5 23.7117 9.44074 23.8548 9.33525 23.9602C9.22976 24.0657 9.08668 24.125 8.9375 24.125H5.6875C3.58307 24.125 1.875 22.4169 1.875 20.3125V17.0625C1.875 16.9133 1.93426 16.7702 2.03975 16.6648ZM23.1648 16.6648C23.2702 16.5593 23.4133 16.5 23.5625 16.5C23.7117 16.5 23.8548 16.5593 23.9602 16.6648C24.0657 16.7702 24.125 16.9133 24.125 17.0625V20.3125C24.125 22.4169 22.4169 24.125 20.3125 24.125H17.0625C16.9133 24.125 16.7702 24.0657 16.6648 23.9602C16.5593 23.8548 16.5 23.7117 16.5 23.5625C16.5 23.4133 16.5593 23.2702 16.6648 23.1648C16.7702 23.0593 16.9133 23 17.0625 23H20.3125C21.7961 23 23 21.7961 23 20.3125V17.0625C23 16.9133 23.0593 16.7702 23.1648 16.6648Z" fill="black" stroke="#DAEAF6" stroke-width="0.5"/>
<path d="M7.4 13C7.4 9.93099 9.93099 7.4 13 7.4C16.069 7.4 18.6 9.93099 18.6 13C18.6 16.069 16.069 18.6 13 18.6C9.93099 18.6 7.4 16.069 7.4 13Z" fill="black" stroke="#DAEAF6" stroke-width="1.8"/>
</svg>
