<svg width="22" height="22" viewBox="0 0 22 22" fill="none" xmlns="http://www.w3.org/2000/svg">
<path d="M15.5911 20.1732H14.6745C13.702 20.1732 12.7694 19.7869 12.0818 19.0992C11.3941 18.4116 11.0078 17.479 11.0078 16.5065V5.50651C11.0078 4.53405 11.3941 3.60142 12.0818 2.91379C12.7694 2.22615 13.702 1.83984 14.6745 1.83984H15.5911" stroke="#14171B" stroke-width="1.57143" stroke-linecap="round" stroke-linejoin="round"/>
<path d="M6.42188 20.1615H7.33854C8.311 20.1615 9.24363 19.7751 9.93127 19.0875C10.6189 18.3999 11.0052 17.4673 11.0052 16.4948V15.5781" stroke="#14171B" stroke-width="1.57143" stroke-linecap="round" stroke-linejoin="round"/>
<path d="M6.42188 1.83984H7.33854C8.311 1.83984 9.24363 2.22615 9.93127 2.91379C10.6189 3.60142 11.0052 4.53405 11.0052 5.50651V6.42318" stroke="#14171B" stroke-width="1.57143" stroke-linecap="round" stroke-linejoin="round"/>
</svg>
