<svg width="105" height="36" viewBox="0 0 105 36" fill="none" xmlns="http://www.w3.org/2000/svg">
<mask id="path-1-outside-1_1_6" maskUnits="userSpaceOnUse" x="0" y="0" width="105" height="36" fill="black">
<rect fill="white" width="105" height="36"/>
<path fill-rule="evenodd" clip-rule="evenodd" d="M11 1C5.47715 1 1 5.47715 1 11V19C1 24.5228 5.47715 29 11 29H17L20.1318 34.4806C20.5156 35.1524 21.4843 35.1524 21.8682 34.4806L25 29H94C99.5229 29 104 24.5228 104 19V11C104 5.47715 99.5229 1 94 1H11Z"/>
</mask>
<path fill-rule="evenodd" clip-rule="evenodd" d="M11 1C5.47715 1 1 5.47715 1 11V19C1 24.5228 5.47715 29 11 29H17L20.1318 34.4806C20.5156 35.1524 21.4843 35.1524 21.8682 34.4806L25 29H94C99.5229 29 104 24.5228 104 19V11C104 5.47715 99.5229 1 94 1H11Z" fill="white"/>
<path d="M17 29L17.4341 28.7519L17.2902 28.5H17V29ZM20.1318 34.4806L19.6976 34.7286L19.6976 34.7286L20.1318 34.4806ZM21.8682 34.4806L22.3024 34.7286L22.3024 34.7286L21.8682 34.4806ZM25 29V28.5H24.7098L24.5659 28.7519L25 29ZM1.5 11C1.5 5.7533 5.75329 1.5 11 1.5V0.5C5.20101 0.5 0.5 5.20101 0.5 11H1.5ZM1.5 19V11H0.5V19H1.5ZM11 28.5C5.7533 28.5 1.5 24.2467 1.5 19H0.5C0.5 24.799 5.20101 29.5 11 29.5V28.5ZM17 28.5H11V29.5H17V28.5ZM20.5659 34.2325L17.4341 28.7519L16.5659 29.2481L19.6976 34.7286L20.5659 34.2325ZM21.4341 34.2325C21.2422 34.5684 20.7578 34.5684 20.5659 34.2325L19.6976 34.7286C20.2735 35.7364 21.7265 35.7364 22.3024 34.7286L21.4341 34.2325ZM24.5659 28.7519L21.4341 34.2325L22.3024 34.7286L25.4341 29.2481L24.5659 28.7519ZM94 28.5H25V29.5H94V28.5ZM103.5 19C103.5 24.2467 99.2467 28.5 94 28.5V29.5C99.799 29.5 104.5 24.799 104.5 19H103.5ZM103.5 11V19H104.5V11H103.5ZM94 1.5C99.2467 1.5 103.5 5.7533 103.5 11H104.5C104.5 5.20101 99.799 0.5 94 0.5V1.5ZM11 1.5H94V0.5H11V1.5Z" fill="#D3D3D3" mask="url(#path-1-outside-1_1_6)"/>
</svg>
