<svg width="24" height="24" viewBox="0 0 24 24" fill="none" xmlns="http://www.w3.org/2000/svg">
<path d="M15.0156 2.00391H6.01562C5.48519 2.00391 4.97648 2.21462 4.60141 2.58969C4.22634 2.96477 4.01563 3.47347 4.01562 4.00391V20.0039C4.01563 20.5343 4.22634 21.043 4.60141 21.4181C4.97648 21.7932 5.48519 22.0039 6.01562 22.0039H18.0156C18.5461 22.0039 19.0548 21.7932 19.4298 21.4181C19.8049 21.043 20.0156 20.5343 20.0156 20.0039V7.00391L15.0156 2.00391Z" stroke="#14171B" stroke-width="1.71429" stroke-linecap="round" stroke-linejoin="round"/>
<path d="M14 2.00391V6.00391C14 6.53434 14.2107 7.04305 14.5858 7.41812C14.9609 7.79319 15.4696 8.00391 16 8.00391H20" stroke="#14171B" stroke-width="1.71429" stroke-linecap="round" stroke-linejoin="round"/>
<path d="M12.0078 12V18" stroke="#14171B" stroke-width="1.71429" stroke-linecap="round" stroke-linejoin="round"/>
<path d="M15.0078 15L12.0078 12L9.00781 15" stroke="#14171B" stroke-width="1.71429" stroke-linecap="round" stroke-linejoin="round"/>
</svg>
