<svg width="80" height="40" viewBox="0 0 80 40" fill="none" xmlns="http://www.w3.org/2000/svg">
<g clip-path="url(#clip0_8_749)">
<path d="M24.3205 23.8115C24.3205 25.3665 24.6557 26.5553 25.0939 27.2763C25.3274 27.6867 25.6636 28.0271 26.0685 28.2627C26.4733 28.4983 26.9323 28.6208 27.3988 28.6178C28.5255 28.6178 29.5563 28.3351 31.5426 25.5418C33.134 23.304 35.009 20.1701 36.2721 18.191L38.4087 14.8549C39.8929 12.538 41.608 9.96236 43.5805 8.21089C45.1871 6.79162 46.9217 6 48.6674 6C51.5983 6 54.39 7.72602 56.5266 10.9632C58.8649 14.5085 60.0042 18.9741 60.0042 23.5825C60.0042 26.3221 59.4728 28.3351 58.5686 29.9254C57.6965 31.4634 55.9883 33 53.1242 33V28.6178C55.5766 28.6178 56.1844 26.3277 56.1844 23.7069C56.1844 19.9721 55.3276 15.8274 53.44 12.8659C52.1004 10.7653 50.3644 9.48173 48.4546 9.48173C46.3889 9.48173 44.7267 11.065 42.8585 13.888C41.8653 15.3878 40.8457 17.2156 39.7009 19.2781L38.4407 21.5398C35.909 26.1016 35.2678 27.1406 34.0019 28.8553C31.7875 31.8691 29.8929 33 27.3988 33C24.4401 33 22.5692 31.6981 21.4174 29.736C20.4646 28.1372 20 26.0394 20 23.649L24.3205 23.8115Z" fill="#0081FB"/>
<path d="M23.4062 11.2728C25.3871 8.16989 28.2456 6 31.5242 6C33.4229 6 35.3105 6.56545 37.2816 8.20665C39.4377 9.99487 41.7329 12.9394 44.6025 17.7924L45.6305 19.5339C48.1121 23.7352 49.5253 25.8952 50.3502 26.9158C51.4129 28.2248 52.1585 28.6121 53.1239 28.6121C55.5762 28.6121 56.1841 26.3221 56.1841 23.7013L59.9955 23.5797C59.9955 26.3193 59.4641 28.3323 58.56 29.9226C57.6961 31.4634 55.988 33 53.1239 33C51.3434 33 49.766 32.607 48.0216 30.9347C46.6807 29.6512 45.113 27.371 43.907 25.3213L40.3196 19.2314C38.5196 16.1752 36.8685 13.8964 35.9129 12.8702C34.8835 11.7548 33.5634 10.4147 31.4547 10.4147C29.7479 10.4147 28.2984 11.6318 27.0855 13.4936L23.4062 11.2728Z" fill="url(#paint0_linear_8_749)"/>
<path d="M31.455 10.4147C29.7482 10.4147 28.2988 11.6318 27.0858 13.4936C25.3707 16.1243 24.3205 20.0428 24.3205 23.8115C24.3205 25.3665 24.6557 26.5553 25.0939 27.2763L21.4105 29.736C20.4646 28.1372 20 26.0394 20 23.649C20 19.3021 21.174 14.7715 23.4066 11.2728C25.3874 8.1699 28.2459 6 31.5246 6L31.455 10.4147Z" fill="url(#paint1_linear_8_749)"/>
</g>
<defs>
<linearGradient id="paint0_linear_8_749" x1="28.6712" y1="18.8003" x2="56.2155" y2="20.1691" gradientUnits="userSpaceOnUse">
<stop stop-color="#0064E1"/>
<stop offset="0.4" stop-color="#0064E1"/>
<stop offset="0.83" stop-color="#0073EE"/>
<stop offset="1" stop-color="#0082FB"/>
</linearGradient>
<linearGradient id="paint1_linear_8_749" x1="25.7616" y1="25.6492" x2="25.7616" y2="15.3298" gradientUnits="userSpaceOnUse">
<stop stop-color="#0082FB"/>
<stop offset="1" stop-color="#0064E0"/>
</linearGradient>
<clipPath id="clip0_8_749">
<rect width="40" height="27" fill="white" transform="translate(20 6)"/>
</clipPath>
</defs>
</svg>
