<svg width="80" height="40" viewBox="0 0 80 40" fill="none" xmlns="http://www.w3.org/2000/svg">
<g clip-path="url(#clip0_8_756)">
<path d="M52.3645 7H47.0918V12.3937H52.3645V7Z" fill="black"/>
<path d="M54.9993 7H49.7266V12.3937H54.9993V7Z" fill="#F7D046"/>
<path d="M31.2727 7H26V12.3937H31.2727V7Z" fill="black"/>
<path d="M31.2727 12.3936H26V17.7872H31.2727V12.3936Z" fill="black"/>
<path d="M31.2727 17.7881H26V23.1818H31.2727V17.7881Z" fill="black"/>
<path d="M31.2727 23.1816H26V28.5753H31.2727V23.1816Z" fill="black"/>
<path d="M31.2727 28.5752H26V33.9689H31.2727V28.5752Z" fill="black"/>
<path d="M33.9094 7H28.6367V12.3937H33.9094V7Z" fill="#F7D046"/>
<path d="M54.9993 12.3936H49.7266V17.7872H54.9993V12.3936Z" fill="#F2A73B"/>
<path d="M33.9094 12.3936H28.6367V17.7872H33.9094V12.3936Z" fill="#F2A73B"/>
<path d="M47.0911 12.3936H41.8184V17.7872H47.0911V12.3936Z" fill="black"/>
<path d="M49.7278 12.3936H44.4551V17.7872H49.7278V12.3936Z" fill="#F2A73B"/>
<path d="M39.1809 12.3936H33.9082V17.7872H39.1809V12.3936Z" fill="#F2A73B"/>
<path d="M44.4544 17.7891H39.1816V23.1827H44.4544V17.7891Z" fill="#EE792F"/>
<path d="M49.7278 17.7891H44.4551V23.1827H49.7278V17.7891Z" fill="#EE792F"/>
<path d="M39.1829 17.7891H33.9102V23.1827H39.1829V17.7891Z" fill="#EE792F"/>
<path d="M41.8176 23.1816H36.5449V28.5753H41.8176V23.1816Z" fill="black"/>
<path d="M44.4544 23.1816H39.1816V28.5753H44.4544V23.1816Z" fill="#EB5829"/>
<path d="M54.9993 17.7891H49.7266V23.1827H54.9993V17.7891Z" fill="#EE792F"/>
<path d="M33.9094 17.7891H28.6367V23.1827H33.9094V17.7891Z" fill="#EE792F"/>
<path d="M52.3645 23.1816H47.0918V28.5753H52.3645V23.1816Z" fill="black"/>
<path d="M54.9993 23.1816H49.7266V28.5753H54.9993V23.1816Z" fill="#EB5829"/>
<path d="M52.3645 28.5742H47.0918V33.9679H52.3645V28.5742Z" fill="black"/>
<path d="M33.9094 23.1816H28.6367V28.5753H33.9094V23.1816Z" fill="#EB5829"/>
<path d="M54.9993 28.5742H49.7266V33.9679H54.9993V28.5742Z" fill="#EA3326"/>
<path d="M33.9094 28.5742H28.6367V33.9679H33.9094V28.5742Z" fill="#EA3326"/>
</g>
<defs>
<clipPath id="clip0_8_756">
<rect width="29" height="27" fill="white" transform="translate(26 7)"/>
</clipPath>
</defs>
</svg>
