<svg width="60" height="60" viewBox="0 0 60 60" fill="none" xmlns="http://www.w3.org/2000/svg">
<rect x="0.46875" y="0.46875" width="59.0625" height="59.0625" rx="18.2812" stroke="#7243D5" stroke-width="0.9375"/>
<rect x="3" y="3" width="54" height="54" rx="18.75" fill="#7243D5"/>
<path d="M30 21.1969C25.8656 21.1969 22.4953 24.5859 22.4953 28.7531C22.4953 30.7828 23.2875 32.6906 24.7219 34.1297C25.5609 34.9594 26.0437 36.1313 26.0437 37.3406V37.9172C26.0437 38.1 26.1937 38.2594 26.3812 38.2594H33.6422L33.6562 38.2547H33.7266L33.7922 38.2125C33.9 38.1516 33.9609 38.0391 33.9609 37.9172V36.9047C33.9609 35.9203 34.3687 34.9781 35.0859 34.3125C36.6281 32.8828 37.5094 30.8484 37.5094 28.7344C37.4953 24.5813 34.125 21.1969 30 21.1969ZM29.3344 27.5297C29.5219 27.7172 29.7703 27.8203 30.0328 27.8203C31.0547 27.8438 31.875 28.6969 31.875 29.7234C31.875 30.2344 31.6781 30.7125 31.3125 31.0734C31.0781 31.3078 30.7969 31.4672 30.4875 31.5562V32.0531C30.4875 32.3109 30.2812 32.5125 30.0281 32.5125C29.7703 32.5125 29.5687 32.3109 29.5687 32.0531V31.5891C28.7062 31.4062 28.0594 30.6375 28.0594 29.7234C28.0594 29.4703 28.2656 29.2641 28.5187 29.2641C28.7766 29.2641 28.9781 29.4703 28.9781 29.7234C28.9781 30.2672 29.4187 30.7078 29.9672 30.7078C30.2297 30.7078 30.4781 30.6047 30.6609 30.4172C30.8437 30.2344 30.9516 29.9859 30.9516 29.7234C30.9516 29.1891 30.5344 28.7484 30.0187 28.7391C29.5172 28.7391 29.0391 28.5422 28.6781 28.1813C28.3172 27.8156 28.1203 27.3375 28.1203 26.8313C28.1203 26.3203 28.3172 25.8422 28.6781 25.4813C28.9266 25.2328 29.2312 25.0641 29.5641 24.9844V24.4969C29.5641 24.2438 29.7703 24.0422 30.0234 24.0422C30.2766 24.0422 30.4828 24.2438 30.4828 24.5016V24.9844C30.825 25.0687 31.125 25.2422 31.3641 25.4859C31.7156 25.8281 31.9266 26.3062 31.9266 26.8313C31.9266 27.0844 31.7203 27.2906 31.4672 27.2906C31.2141 27.2906 31.0078 27.0844 31.0078 26.8313C31.0078 26.5687 30.9047 26.3203 30.7172 26.1375C30.5344 25.95 30.2859 25.8469 30.0234 25.8469C29.7609 25.8469 29.5125 25.95 29.325 26.1328C29.1422 26.3203 29.0391 26.5687 29.0391 26.8313C29.0484 27.0984 29.1469 27.3469 29.3344 27.5297ZM29.6297 19.4391C30.0375 19.4391 30.3656 19.1109 30.3656 18.7031V15.7359C30.3656 15.3281 30.0375 15 29.6297 15C29.2219 15 28.8937 15.3281 28.8937 15.7359V18.7031C28.8937 19.1109 29.2266 19.4391 29.6297 19.4391ZM24.7172 20.0531C24.8391 20.3109 25.1016 20.4797 25.3828 20.4797C25.4906 20.4797 25.5937 20.4563 25.6922 20.4094C26.0578 20.2359 26.2219 19.8 26.0484 19.4297L24.7969 16.7437C24.675 16.4859 24.4125 16.3172 24.1312 16.3172C24.0234 16.3172 23.9203 16.3406 23.8219 16.3875C23.4562 16.5609 23.2922 16.9969 23.4656 17.3672L24.7172 20.0531ZM22.7062 22.4156C22.6875 22.2188 22.5984 22.0406 22.4484 21.9141L20.175 20.0063C20.0437 19.8938 19.875 19.8328 19.7016 19.8328C19.4812 19.8328 19.2797 19.9266 19.1391 20.0953C19.0125 20.2453 18.9516 20.4375 18.9703 20.6344C18.9891 20.8313 19.0781 21.0094 19.2281 21.1359L21.5016 23.0437C21.6328 23.1562 21.8016 23.2172 21.975 23.2172C22.1953 23.2172 22.3969 23.1234 22.5375 22.9547C22.6641 22.8047 22.725 22.6125 22.7062 22.4156ZM20.2312 25.6922L17.3625 24.9234C17.3016 24.9047 17.2359 24.9 17.1703 24.9C16.8375 24.9 16.5469 25.125 16.4625 25.4438C16.4109 25.6313 16.4391 25.8328 16.5375 26.0016C16.6359 26.1703 16.7953 26.2922 16.9828 26.3438L19.8516 27.1125C19.9125 27.1313 19.9781 27.1359 20.0437 27.1359C20.3766 27.1359 20.6672 26.9109 20.7562 26.5922C20.8078 26.4047 20.7797 26.2031 20.6812 26.0344C20.5781 25.8656 20.4234 25.7437 20.2312 25.6922ZM34.3031 20.4094C34.4016 20.4563 34.5047 20.4797 34.6125 20.4797C34.8984 20.4797 35.1609 20.3109 35.2781 20.0531L36.5344 17.3625C36.7078 16.9922 36.5437 16.5562 36.1781 16.3828C36.0797 16.3359 35.9766 16.3125 35.8687 16.3125C35.5828 16.3125 35.3203 16.4813 35.2031 16.7391L33.9469 19.4297C33.7781 19.8 33.9375 20.2406 34.3031 20.4094ZM41.0344 20.6391C41.0531 20.4422 40.9922 20.25 40.8656 20.1C40.725 19.9313 40.5187 19.8375 40.3031 19.8375C40.1297 19.8375 39.9609 19.8984 39.8297 20.0109L37.5562 21.9188C37.4062 22.0453 37.3125 22.2234 37.2937 22.4203C37.275 22.6172 37.3359 22.8094 37.4625 22.9594C37.6031 23.1281 37.8094 23.2219 38.025 23.2219C38.1984 23.2219 38.3672 23.1609 38.4984 23.0484L40.7719 21.1406C40.9219 21.0094 41.0156 20.8312 41.0344 20.6391ZM43.5375 25.4438C43.4531 25.1203 43.1578 24.8953 42.825 24.8953C42.7594 24.8953 42.6937 24.9047 42.6328 24.9187L39.7641 25.6875C39.5719 25.7391 39.4172 25.8609 39.3187 26.0297C39.2203 26.1984 39.1922 26.4 39.2437 26.5875C39.3281 26.9109 39.6234 27.1312 39.9562 27.1312C40.0219 27.1312 40.0875 27.1219 40.1484 27.1078L43.0172 26.3391C43.2094 26.2875 43.3641 26.1656 43.4625 25.9969C43.5609 25.8328 43.5891 25.6313 43.5375 25.4438ZM26.5453 40.9031L26.55 40.9266V40.95L26.5687 41.0578C26.5734 41.1 26.5781 41.1375 26.5875 41.1797V41.2125L26.6109 41.2641C26.6203 41.2828 26.625 41.3016 26.6344 41.3438C26.7891 41.7984 27.1031 42.15 27.5203 42.3234C27.6937 42.4031 27.8953 42.4547 28.125 42.4641L28.1625 42.4688H31.8281L31.8562 42.4641C32.5453 42.4547 33.1547 42 33.3797 41.3438L33.3844 41.3203L33.4172 41.2828V41.2031C33.4312 41.1281 33.4359 41.0812 33.4312 41.0812L33.4453 40.9875C33.45 40.9641 33.4594 40.8375 33.4594 40.8375V38.6156H26.5453V40.9031ZM31.875 42.8391C31.8516 42.8391 31.8281 42.8391 31.8047 42.8438H28.1859C28.1531 42.8438 28.1109 42.8391 28.0781 42.8344L28.0078 42.825L27.6047 42.7594L27.6937 43.1578C27.9422 44.2453 28.8891 45 30 45C31.1109 45 32.0578 44.2453 32.3016 43.1672L32.3859 42.7969L32.0062 42.8344C31.9641 42.8344 31.9172 42.8391 31.875 42.8391Z" fill="white"/>
</svg>
