<svg width="48" height="48" viewBox="0 0 48 48" fill="none" xmlns="http://www.w3.org/2000/svg">
<g id="calander 1">
<path id="Vector" d="M10.1344 17.9234H9.94687C9.34687 17.9234 8.85938 17.4359 8.85938 16.8359V10.1422C8.85938 9.54219 9.34687 9.05469 9.94687 9.05469H10.1344C10.7344 9.05469 11.2219 9.54219 11.2219 10.1422V16.8359C11.2219 17.4359 10.7344 17.9234 10.1344 17.9234Z" fill="#034737"/>
<path id="Vector_2" d="M10.1345 18.4141H9.94697C9.0751 18.4141 8.37197 17.7109 8.37197 16.8391V15.2547C7.77197 15.7516 7.39697 16.5016 7.39697 17.3359C7.39697 18.8266 8.60635 20.0359 10.097 20.0359C11.5876 20.0359 12.797 18.8266 12.797 17.3359C12.797 16.4547 12.3657 15.6672 11.7095 15.1703V16.8391C11.7095 17.7109 11.0063 18.4141 10.1345 18.4141ZM24.0938 18.4141H23.9063C23.0345 18.4141 22.3313 17.7109 22.3313 16.8391V15.2172C21.7032 15.7141 21.3001 16.4828 21.3001 17.3359C21.3001 18.8266 22.5095 20.0359 24.0001 20.0359C25.4907 20.0359 26.7001 18.8266 26.7001 17.3359C26.7001 16.4734 26.297 15.7141 25.6688 15.2172V16.8391C25.6688 17.7109 24.9657 18.4141 24.0938 18.4141ZM12.797 9.67656C12.797 8.18594 11.5876 6.97656 10.097 6.97656C8.60635 6.97656 7.39697 8.18594 7.39697 9.67656C7.39697 10.5109 7.78135 11.2609 8.37197 11.7578V10.1547C8.37197 9.28281 9.0751 8.57969 9.94697 8.57969H10.1345C11.0063 8.57969 11.7095 9.28281 11.7095 10.1547V11.8422C12.3751 11.3453 12.797 10.5578 12.797 9.67656Z" fill="#034737"/>
<path id="Vector_3" d="M41.8313 3.66406H6.16875C3.075 3.66406 0.5625 6.17656 0.5625 9.27031V36.8703C0.5625 40.9859 3.9 44.3328 8.025 44.3328H39.9844C44.1 44.3328 47.4469 40.9953 47.4469 36.8703V9.27031C47.4375 6.17656 44.925 3.66406 41.8313 3.66406ZM45.6094 36.3547C45.6094 39.7484 42.8531 42.5047 39.4594 42.5047H8.54062C5.14687 42.5047 2.39062 39.7484 2.39062 36.3547V14.0891H8.38125V12.3547C7.5 11.7828 6.91875 10.7984 6.91875 9.67344C6.91875 7.91094 8.35313 6.48594 10.1063 6.48594C11.8594 6.48594 13.2938 7.92031 13.2938 9.67344C13.2938 10.8453 12.6562 11.8672 11.7188 12.4203V14.0891H22.3406V12.3828C21.4312 11.8203 20.8219 10.8172 20.8219 9.66406C20.8219 7.90156 22.2563 6.47656 24.0094 6.47656C25.7625 6.47656 27.1969 7.91094 27.1969 9.66406C27.1969 10.8078 26.5875 11.8203 25.6781 12.3828V14.0891H36.2438V12.3828C35.3344 11.8203 34.725 10.8172 34.725 9.66406C34.725 7.90156 36.1594 6.47656 37.9125 6.47656C39.6656 6.47656 41.1 7.91094 41.1 9.66406C41.1 10.8078 40.4906 11.8203 39.5813 12.3828V14.0891H45.6281V36.3547H45.6094Z" fill="#034737"/>
<path id="Vector_4" d="M26.6998 9.67656C26.6998 8.18594 25.4904 6.97656 23.9998 6.97656C22.5092 6.97656 21.2998 8.18594 21.2998 9.67656C21.2998 10.5391 21.7029 11.2984 22.3311 11.7953V10.1453C22.3311 9.27344 23.0342 8.57031 23.9061 8.57031H24.0936C24.9654 8.57031 25.6686 9.27344 25.6686 10.1453V11.7953C26.2967 11.2984 26.6998 10.5391 26.6998 9.67656Z" fill="#034737"/>
<path id="Vector_5" d="M24.0938 17.9266H23.9063C23.3063 17.9266 22.8188 17.4391 22.8188 16.8391V10.1453C22.8188 9.54531 23.3063 9.05781 23.9063 9.05781H24.0938C24.6938 9.05781 25.1813 9.54531 25.1813 10.1453V16.8391C25.1813 17.4391 24.6938 17.9266 24.0938 17.9266ZM37.997 18.4141H37.8095C36.9376 18.4141 36.2345 17.7109 36.2345 16.8391V15.2172C35.6063 15.7141 35.2032 16.4828 35.2032 17.3359C35.2032 18.8266 36.4126 20.0359 37.9032 20.0359C39.3938 20.0359 40.6032 18.8266 40.6032 17.3359C40.6032 16.4734 40.2001 15.7141 39.572 15.2172V16.8391C39.572 17.7109 38.8595 18.4141 37.997 18.4141ZM40.6032 9.67656C40.6032 8.18594 39.3938 6.97656 37.9032 6.97656C36.4126 6.97656 35.2032 8.18594 35.2032 9.67656C35.2032 10.5391 35.6063 11.2984 36.2345 11.7953V10.1453C36.2345 9.27344 36.9376 8.57031 37.8095 8.57031H37.997C38.8688 8.57031 39.572 9.27344 39.572 10.1453V11.7953C40.2001 11.2984 40.6032 10.5391 40.6032 9.67656Z" fill="#034737"/>
<path id="Vector_6" d="M37.9969 17.9234H37.8094C37.2094 17.9234 36.7219 17.4359 36.7219 16.8359V10.1422C36.7219 9.54219 37.2094 9.05469 37.8094 9.05469H37.9969C38.5969 9.05469 39.0844 9.54219 39.0844 10.1422V16.8359C39.0844 17.4359 38.5969 17.9234 37.9969 17.9234ZM18.6938 27.8234C19.2281 27.8234 19.6406 27.6828 19.9219 27.3922C20.2125 27.1016 20.3531 26.7078 20.3531 26.1922C20.3531 25.7891 20.2031 25.4516 19.9125 25.1797C19.6219 24.8984 19.2188 24.7578 18.7219 24.7578C18.3469 24.7578 18.0281 24.8703 17.7656 25.0859C17.5031 25.3016 17.3719 25.5922 17.3719 25.9484H14.4844L14.4656 25.8922C14.4281 24.8703 14.8313 24.0453 15.6656 23.4078C16.5 22.7703 17.5125 22.4609 18.7125 22.4609C20.1 22.4609 21.2156 22.7797 22.05 23.4172C22.8844 24.0547 23.3063 24.9547 23.3063 26.1266C23.3063 26.7078 23.1281 27.2422 22.7813 27.7297C22.425 28.2172 21.9469 28.6016 21.3469 28.8828C22.0406 29.1359 22.575 29.5109 22.95 30.0266C23.325 30.5328 23.5125 31.1516 23.5125 31.8734C23.5125 33.0453 23.0625 33.9641 22.1625 34.6391C21.2625 35.3141 20.1188 35.6422 18.7219 35.6422C17.5125 35.6422 16.4625 35.3234 15.5719 34.6953C14.6813 34.0672 14.25 33.1484 14.2781 31.9578L14.2969 31.9016H17.1938C17.1938 32.3141 17.3344 32.6609 17.625 32.9422C17.9156 33.2141 18.2813 33.3547 18.7219 33.3547C19.2563 33.3547 19.6969 33.2047 20.0344 32.9141C20.3813 32.6141 20.55 32.2484 20.55 31.8078C20.55 31.1891 20.3906 30.7297 20.0625 30.4484C19.7344 30.1672 19.275 30.0172 18.6844 30.0172H17.2781V27.8141H18.6938V27.8234ZM33.7125 30.7578C33.7125 32.2859 33.3094 33.4859 32.4938 34.3484C31.6781 35.2109 30.6 35.6422 29.2688 35.6422C27.9188 35.6422 26.8406 35.2109 26.025 34.3484C25.2094 33.4859 24.8063 32.2859 24.8063 30.7578V27.3641C24.8063 25.8359 25.2094 24.6359 26.0156 23.7734C26.8219 22.9109 27.9 22.4797 29.25 22.4797C30.5906 22.4797 31.6688 22.9109 32.4844 23.7828C33.3094 24.6547 33.7125 25.8453 33.7125 27.3734V30.7578ZM30.75 27.1672C30.75 26.3891 30.6188 25.7891 30.3469 25.3859C30.0844 24.9734 29.7094 24.7672 29.2406 24.7672C28.7625 24.7672 28.3969 24.9734 28.1438 25.3859C27.8813 25.7984 27.7594 26.3891 27.7594 27.1672V30.9453C27.7594 31.7422 27.8906 32.3422 28.1531 32.7547C28.4156 33.1578 28.7813 33.3641 29.2688 33.3641C29.7375 33.3641 30.1031 33.1578 30.3656 32.7547C30.6281 32.3516 30.7594 31.7422 30.7594 30.9453V27.1672H30.75Z" fill="#034737"/>
</g>
</svg>
