<svg width="60" height="60" viewBox="0 0 60 60" fill="none" xmlns="http://www.w3.org/2000/svg">
<rect x="0.46875" y="0.46875" width="59.0625" height="59.0625" rx="18.2812" stroke="#E6A55B" stroke-width="0.9375"/>
<rect x="3" y="3" width="54" height="54" rx="18.75" fill="#E6A55B"/>
<path d="M44.0012 30.0006C42.9933 30.0006 42.1231 30.5529 41.6511 31.3633H30.3633V34.091H41.6511C42.1231 34.9035 42.9933 35.4549 44.0012 35.4549C44.3593 35.4548 44.7138 35.3841 45.0446 35.247C45.3754 35.1098 45.6759 34.9089 45.9289 34.6556C46.182 34.4023 46.3827 34.1016 46.5196 33.7707C46.6564 33.4398 46.7267 33.0852 46.7265 32.7271C46.7262 32.0043 46.439 31.3112 45.928 30.8C45.417 30.2888 44.724 30.0013 44.0012 30.0006ZM44.0012 19.0908C42.9933 19.0908 42.1231 19.6447 41.6511 20.4547H30.3633V23.1829H41.6511C42.1231 23.9953 42.9933 24.5467 44.0012 24.5467C44.7244 24.5463 45.4178 24.2586 45.9288 23.747C46.4399 23.2354 46.7269 22.5417 46.7265 21.8186C46.7265 21.0956 46.4395 20.4021 45.9285 19.8906C45.4174 19.3791 44.7242 19.0915 44.0012 19.0908Z" fill="white"/>
<path d="M27.6355 17.7278H33.091C33.0911 17.3695 33.0206 17.0148 32.8836 16.6838C32.7466 16.3528 32.5456 16.052 32.2923 15.7987C32.039 15.5454 31.7383 15.3445 31.4073 15.2074C31.0763 15.0704 30.7215 14.9999 30.3633 15H16.7265C16.0033 15.0003 15.3098 15.2879 14.7985 15.7994C14.2872 16.3109 14 17.0045 14 17.7278V42.2731C13.9999 42.6311 14.0704 42.9857 14.2074 43.3166C14.3444 43.6474 14.5453 43.948 14.7984 44.2013C15.0516 44.4545 15.3522 44.6554 15.683 44.7924C16.0139 44.9295 16.3684 45 16.7265 45H30.3633C30.7215 45.0002 31.0762 44.9297 31.4071 44.7928C31.7381 44.6558 32.0388 44.4549 32.2922 44.2017C32.5455 43.9485 32.7464 43.6478 32.8835 43.3169C33.0205 42.9859 33.0911 42.6313 33.091 42.2731H27.6355V17.7278ZM24.909 39.5457H16.7265V36.8188H24.909V39.5457ZM24.909 34.091H16.7265V31.3633H24.909V34.091ZM24.909 28.6367H16.7265V25.9094H24.909V28.6367ZM24.909 23.1825H16.7265V20.4543H24.909V23.1825Z" fill="white"/>
<path d="M35.8188 35.454C34.8108 35.454 33.9419 36.0071 33.4686 36.8179H30.3633V39.5448H33.4686C33.9419 40.3572 34.8108 40.9087 35.8188 40.9087C36.177 40.9087 36.5316 40.8381 36.8625 40.701C37.1934 40.5639 37.4941 40.363 37.7473 40.1097C38.0005 39.8564 38.2014 39.5557 38.3384 39.2247C38.4754 38.8938 38.5458 38.5391 38.5457 38.1809C38.5453 37.4578 38.2578 36.7645 37.7465 36.2532C37.2352 35.7419 36.5419 35.4544 35.8188 35.454ZM38.5465 24.5454C37.5386 24.5454 36.6684 25.0981 36.1964 25.9081H30.3633V28.6358H36.1964C36.6684 29.4483 37.5386 29.9997 38.5465 29.9997C38.9046 29.9996 39.2592 29.9289 39.59 29.7918C39.9207 29.6547 40.2213 29.4537 40.4744 29.2004C40.7275 28.9471 40.9282 28.6464 41.0651 28.3155C41.202 27.9846 41.2724 27.63 41.2722 27.2719C41.2719 26.5491 40.9847 25.8559 40.4736 25.3446C39.9625 24.8334 39.2694 24.546 38.5465 24.5454Z" fill="white"/>
</svg>
