<svg width="60" height="60" viewBox="0 0 60 60" fill="none" xmlns="http://www.w3.org/2000/svg">
<rect x="0.46875" y="0.46875" width="59.0625" height="59.0625" rx="18.2812" stroke="#DD504E" stroke-width="0.9375"/>
<rect x="3" y="3" width="54" height="54" rx="18.75" fill="#DD504E"/>
<path d="M33.4406 17.5498H26.5594C25.8136 17.5503 25.0985 17.8468 24.5712 18.3741C24.0438 18.9015 23.7474 19.6165 23.7469 20.3623V39.6373C23.7474 40.3831 24.0438 41.0982 24.5712 41.6255C25.0985 42.1528 25.8136 42.4493 26.5594 42.4498H33.4406C34.1864 42.4493 34.9015 42.1528 35.4288 41.6255C35.9562 41.0982 36.2526 40.3831 36.2531 39.6373V20.3623C36.2526 19.6165 35.9562 18.9015 35.4288 18.3741C34.9015 17.8468 34.1864 17.5503 33.4406 17.5498ZM19.9866 19.4211H17.8125C17.5639 19.4211 17.3254 19.5198 17.1496 19.6956C16.9738 19.8715 16.875 20.1099 16.875 20.3586C16.875 20.6072 16.9738 20.8457 17.1496 21.0215C17.3254 21.1973 17.5639 21.2961 17.8125 21.2961H19.9866C20.2077 21.2963 20.4197 21.3843 20.5759 21.5408C20.7322 21.6972 20.82 21.9093 20.82 22.1304V36.702C20.82 36.9233 20.7321 37.1355 20.5756 37.292C20.4191 37.4485 20.2069 37.5364 19.9856 37.5364H17.8125C17.5639 37.5364 17.3254 37.6351 17.1496 37.811C16.9738 37.9868 16.875 38.2252 16.875 38.4739C16.875 38.7225 16.9738 38.961 17.1496 39.1368C17.3254 39.3126 17.5639 39.4114 17.8125 39.4114H19.9866C20.7048 39.4106 21.3934 39.1249 21.9012 38.6169C22.409 38.109 22.6945 37.4202 22.695 36.702V22.1295C22.6945 21.4111 22.4089 20.7222 21.9009 20.2142C21.3929 19.7062 20.704 19.4206 19.9856 19.4201L19.9866 19.4211ZM42.1875 37.5364H40.0144C39.7932 37.5361 39.5811 37.4481 39.4247 37.2917C39.2682 37.1353 39.1802 36.9232 39.18 36.702V22.1295C39.1802 21.9083 39.2682 21.6962 39.4247 21.5398C39.5811 21.3834 39.7932 21.2954 40.0144 21.2951H42.1875C42.4361 21.2951 42.6746 21.1963 42.8504 21.0205C43.0262 20.8447 43.125 20.6063 43.125 20.3576C43.125 20.109 43.0262 19.8705 42.8504 19.6947C42.6746 19.5189 42.4361 19.4201 42.1875 19.4201H40.0144C39.296 19.4206 38.6071 19.7062 38.0991 20.2142C37.5911 20.7222 37.3055 21.4111 37.305 22.1295V36.7029C37.3055 37.4213 37.5911 38.1102 38.0991 38.6182C38.6071 39.1262 39.296 39.4118 40.0144 39.4123H42.1875C42.4361 39.4123 42.6746 39.3135 42.8504 39.1377C43.0262 38.9619 43.125 38.7234 43.125 38.4748C43.125 38.2262 43.0262 37.9877 42.8504 37.8119C42.6746 37.6361 42.4361 37.5373 42.1875 37.5373V37.5364Z" fill="white"/>
</svg>
