<svg width="182" height="93" viewBox="0 0 182 93" fill="none" xmlns="http://www.w3.org/2000/svg">
<g clip-path="url(#clip0_2674_8724)">
<mask id="mask0_2674_8724" style="mask-type:alpha" maskUnits="userSpaceOnUse" x="60" y="16" width="61" height="61">
<path d="M114.99 16.8008H66.99C63.6763 16.8008 60.99 19.4871 60.99 22.8008V70.8008C60.99 74.1145 63.6763 76.8008 66.99 76.8008H114.99C118.304 76.8008 120.99 74.1145 120.99 70.8008V22.8008C120.99 19.4871 118.304 16.8008 114.99 16.8008Z" fill="#EEEEFF"/>
</mask>
<g mask="url(#mask0_2674_8724)">
<path d="M114.99 16.8008H66.99C63.6763 16.8008 60.99 19.4871 60.99 22.8008V70.8008C60.99 74.1145 63.6763 76.8008 66.99 76.8008H114.99C118.304 76.8008 120.99 74.1145 120.99 70.8008V22.8008C120.99 19.4871 118.304 16.8008 114.99 16.8008Z" fill="#034737" fill-opacity="0.12"/>
<path d="M81.99 40.8008C85.3037 40.8008 87.99 38.1145 87.99 34.8008C87.99 31.4871 85.3037 28.8008 81.99 28.8008C78.6763 28.8008 75.99 31.4871 75.99 34.8008C75.99 38.1145 78.6763 40.8008 81.99 40.8008Z" fill="#034737"/>
<path opacity="0.3" d="M109.634 89.3183L75.9922 55.0805C73.6697 52.7169 69.8709 52.6835 67.5072 55.006L33.2695 88.6479C30.9058 90.9704 30.8725 94.7692 33.195 97.1328L66.8368 131.371C69.1593 133.734 72.9582 133.768 75.3218 131.445L109.56 97.8032C111.923 95.4807 111.957 91.6819 109.634 89.3183Z" fill="#034737"/>
<path d="M137.634 81.3183L103.992 47.0805C101.67 44.7169 97.8709 44.6835 95.5072 47.006L61.2695 80.6479C58.9058 82.9704 58.8725 86.7692 61.195 89.1328L94.8368 123.371C97.1593 125.734 100.958 125.768 103.322 123.445L137.56 89.8032C139.923 87.4807 139.957 83.6819 137.634 81.3183Z" fill="#034737"/>
</g>
</g>
<g opacity="0.2" clip-path="url(#clip1_2674_8724)">
<mask id="mask1_2674_8724" style="mask-type:alpha" maskUnits="userSpaceOnUse" x="111" y="22" width="70" height="70">
<path d="M128.087 22.9574L175.183 32.2314C178.434 32.8716 180.551 36.0263 179.911 39.2776L170.637 86.3732C169.997 89.6244 166.842 91.7411 163.591 91.1009L116.495 81.8269C113.244 81.1867 111.127 78.032 111.767 74.7807L121.041 27.6852C121.682 24.4339 124.836 22.3172 128.087 22.9574Z" fill="#EEEEFF"/>
</mask>
<g mask="url(#mask1_2674_8724)">
<path d="M128.087 22.9574L175.183 32.2314C178.434 32.8716 180.551 36.0263 179.911 39.2776L170.637 86.3732C169.997 89.6244 166.842 91.7411 163.591 91.1009L116.495 81.8269C113.244 81.1867 111.127 78.032 111.767 74.7807L121.041 27.6852C121.682 24.4339 124.836 22.3172 128.087 22.9574Z" fill="#EEEEFF"/>
<path d="M155.829 52.8803C152.577 52.24 150.461 49.0854 151.101 45.8341C151.741 42.5828 154.896 40.4662 158.147 41.1064C161.398 41.7466 163.515 44.9013 162.875 48.1526C162.235 51.4038 159.08 53.5205 155.829 52.8803Z" fill="#034737"/>
<path opacity="0.3" d="M119.332 95.1435L158.955 68.0507C161.69 66.1803 165.424 66.8815 167.294 69.6169L194.387 109.24C196.257 111.975 195.556 115.709 192.821 117.579L153.198 144.672C150.462 146.543 146.729 145.841 144.858 143.106L117.765 103.483C115.895 100.748 116.596 97.0139 119.332 95.1435Z" fill="#034737"/>
<path d="M93.4048 81.8857L133.028 54.7929C135.763 52.9225 139.497 53.6237 141.367 56.3591L168.46 95.9821C170.33 98.7175 169.629 102.451 166.894 104.322L127.271 131.414C124.535 133.285 120.802 132.584 118.931 129.848L91.8386 90.2251C89.9682 87.4898 90.6694 83.756 93.4048 81.8857Z" fill="#034737"/>
</g>
</g>
<g opacity="0.2" clip-path="url(#clip2_2674_8724)">
<mask id="mask2_2674_8724" style="mask-type:alpha" maskUnits="userSpaceOnUse" x="1" y="22" width="70" height="70">
<path d="M53.8825 22.9574L6.78694 32.2314C3.53567 32.8716 1.419 36.0263 2.05924 39.2776L11.3332 86.3732C11.9734 89.6244 15.1281 91.7411 18.3794 91.1009L65.4749 81.8269C68.7262 81.1867 70.8429 78.032 70.2027 74.7807L60.9287 27.6852C60.2885 24.4339 57.1338 22.3172 53.8825 22.9574Z" fill="#EEEEFF"/>
</mask>
<g mask="url(#mask2_2674_8724)">
<path d="M53.8825 22.9574L6.78694 32.2314C3.53567 32.8716 1.419 36.0263 2.05924 39.2776L11.3332 86.3732C11.9734 89.6244 15.1281 91.7411 18.3794 91.1009L65.4749 81.8269C68.7262 81.1867 70.8429 78.032 70.2027 74.7807L60.9287 27.6852C60.2885 24.4339 57.1338 22.3172 53.8825 22.9574Z" fill="#EEEEFF"/>
<path d="M26.1413 52.8803C29.3926 52.24 31.5092 49.0854 30.869 45.8341C30.2288 42.5828 27.0741 40.4662 23.8228 41.1064C20.5715 41.7466 18.4549 44.9013 19.0951 48.1526C19.7353 51.4038 22.89 53.5205 26.1413 52.8803Z" fill="#034737"/>
<path opacity="0.3" d="M62.6384 95.1435L23.0154 68.0507C20.28 66.1803 16.5463 66.8815 14.676 69.6169L-12.4169 109.24C-14.2872 111.975 -13.586 115.709 -10.8506 117.579L28.7724 144.672C31.5077 146.543 35.2415 145.841 37.1118 143.106L64.2046 103.483C66.075 100.748 65.3738 97.0139 62.6384 95.1435Z" fill="#034737"/>
<path d="M88.5652 81.8857L48.9422 54.7929C46.2068 52.9225 42.4731 53.6237 40.6027 56.3591L13.5099 95.9821C11.6396 98.7175 12.3408 102.451 15.0762 104.322L54.6991 131.414C57.4345 133.285 61.1682 132.584 63.0386 129.848L90.1314 90.2251C92.0018 87.4898 91.3006 83.756 88.5652 81.8857Z" fill="#034737"/>
</g>
</g>
<defs>
<clipPath id="clip0_2674_8724">
<rect width="60" height="60" fill="white" transform="translate(60.99 16.8008)"/>
</clipPath>
<clipPath id="clip1_2674_8724">
<rect width="60" height="60" fill="white" transform="matrix(-0.981158 -0.193207 -0.193207 0.981158 181.07 33.3906)"/>
</clipPath>
<clipPath id="clip2_2674_8724">
<rect width="60" height="60" fill="white" transform="translate(0.899994 33.3906) rotate(-11.14)"/>
</clipPath>
</defs>
</svg>
