<svg width="54" height="16" viewBox="0 0 54 16" fill="none" xmlns="http://www.w3.org/2000/svg">
<path d="M5.9711 12.6344C5.0861 12.6344 4.29065 12.4975 3.58476 12.2235C2.88941 11.9391 2.29414 11.5387 1.79896 11.0225C1.31432 10.4957 0.9403 9.8688 0.676908 9.14183C0.424051 8.41487 0.297622 7.60889 0.297622 6.72389C0.297622 5.79675 0.434586 4.97496 0.708515 4.25854C0.992979 3.53157 1.38807 2.91523 1.89378 2.40952C2.3995 1.89327 3.0053 1.50345 3.71119 1.24006C4.41708 0.966128 5.20199 0.829164 6.06592 0.829164C7.06681 0.829164 7.94654 0.997735 8.70511 1.33488C9.46368 1.66148 10.0695 2.12506 10.5225 2.72559C10.9861 3.31559 11.2653 4.01095 11.3601 4.81166H9.21083C9.11601 4.34809 8.9211 3.95827 8.6261 3.6422C8.34163 3.31559 7.97815 3.068 7.53565 2.89943C7.10369 2.72032 6.61378 2.63077 6.06592 2.63077C5.33896 2.63077 4.70155 2.7888 4.15369 3.10488C3.60583 3.41041 3.1844 3.86871 2.88941 4.47978C2.59441 5.09086 2.44691 5.83889 2.44691 6.72389C2.44691 7.38764 2.52592 7.98291 2.68396 8.50969C2.85253 9.02594 3.09485 9.4579 3.41092 9.80558C3.72699 10.1533 4.10101 10.4219 4.53297 10.6116C4.97547 10.7907 5.46538 10.8802 6.00271 10.8802C6.7086 10.8802 7.31967 10.7538 7.83592 10.5009C8.35217 10.2375 8.75252 9.86353 9.03699 9.37889C9.32145 8.88371 9.46368 8.29898 9.46368 7.62469V7.2138L10.08 7.94076H6.03431V6.42362H11.5814V7.38764C11.5814 8.18835 11.4444 8.91532 11.1705 9.56853C10.9071 10.2112 10.5278 10.7591 10.0326 11.2121C9.54797 11.6651 8.95797 12.0181 8.26261 12.2709C7.57779 12.5133 6.81395 12.6344 5.9711 12.6344ZM35.8236 15.2894C35.1178 15.2894 34.5067 15.1841 33.9904 14.9733C33.4742 14.7732 33.0633 14.4834 32.7578 14.1042C32.4628 13.7354 32.2942 13.3034 32.252 12.8083H34.1485C34.1906 13.019 34.2854 13.2033 34.4329 13.3614C34.591 13.5194 34.7911 13.6406 35.0335 13.7249C35.2758 13.8197 35.555 13.8671 35.8711 13.8671C36.3452 13.8671 36.735 13.7986 37.0405 13.6617C37.3566 13.5247 37.5884 13.314 37.7359 13.0295C37.8939 12.745 37.9729 12.3763 37.9729 11.9233V10.3745H37.8623C37.6832 10.8592 37.3566 11.2542 36.8825 11.5598C36.4084 11.8548 35.85 12.0023 35.2073 12.0023C34.7016 12.0023 34.2433 11.9127 33.8324 11.7336C33.432 11.5545 33.0844 11.2964 32.7894 10.9592C32.4944 10.6116 32.2678 10.1901 32.1098 9.69496C31.9518 9.18924 31.8728 8.60978 31.8728 7.95657C31.8728 7.0821 32.0097 6.34987 32.2836 5.75987C32.5681 5.15934 32.9632 4.7063 33.4689 4.40077C33.9746 4.0847 34.5646 3.92666 35.2389 3.92666C35.8711 3.92666 36.4189 4.07416 36.8825 4.36916C37.3566 4.66416 37.6832 5.04871 37.8623 5.52282H37.9729L38.0361 4.0847H39.9484V11.6072C39.9484 12.2815 39.8483 12.8504 39.6481 13.314C39.4585 13.7881 39.1793 14.1674 38.8105 14.4518C38.4418 14.7468 38.0045 14.9575 37.4988 15.084C37.0036 15.2209 36.4453 15.2894 35.8236 15.2894ZM35.9185 10.4693C36.361 10.4693 36.7297 10.3745 37.0247 10.1849C37.3302 9.98469 37.562 9.73183 37.7201 9.4263C37.8781 9.11023 37.9624 8.78889 37.9729 8.46228V7.45085C37.9624 7.11371 37.8781 6.79764 37.7201 6.50264C37.562 6.1971 37.3355 5.94952 37.0405 5.75987C36.7455 5.55969 36.3768 5.45961 35.9343 5.45961C35.5234 5.45961 35.1599 5.55443 34.8438 5.74407C34.5383 5.93371 34.3012 6.21291 34.1327 6.58166C33.9641 6.95041 33.8798 7.40871 33.8798 7.95657C33.8798 8.51496 33.9641 8.9838 34.1327 9.36308C34.3118 9.73183 34.5541 10.011 34.8596 10.2007C35.1652 10.3798 35.5181 10.4693 35.9185 10.4693Z" fill="#3074F1"/>
<path d="M16.9695 12.6344C16.3374 12.6344 15.7684 12.5396 15.2627 12.35C14.757 12.1498 14.3145 11.86 13.9352 11.4808C13.5665 11.1015 13.282 10.6432 13.0818 10.1059C12.8922 9.56853 12.7974 8.96273 12.7974 8.28844C12.7974 7.42451 12.9607 6.66594 13.2873 6.01273C13.6244 5.35952 14.1038 4.84853 14.7254 4.47978C15.347 4.11104 16.095 3.92666 16.9695 3.92666C17.5911 3.92666 18.1548 4.02675 18.6605 4.22693C19.1662 4.42711 19.5982 4.71684 19.9564 5.09612C20.3251 5.47541 20.6096 5.93371 20.8098 6.47103C21.01 6.99782 21.11 7.60362 21.11 8.28844C21.11 9.14183 20.9415 9.89514 20.6043 10.5484C20.2777 11.2016 19.8036 11.7125 19.182 12.0813C18.5709 12.45 17.8334 12.6344 16.9695 12.6344ZM16.9537 11.0067C17.3857 11.0067 17.765 10.9066 18.0916 10.7064C18.4182 10.4957 18.671 10.1901 18.8501 9.78978C19.0292 9.37889 19.1188 8.87844 19.1188 8.28844C19.1188 7.84594 19.0661 7.45612 18.9608 7.11898C18.8659 6.7713 18.7237 6.48157 18.5341 6.24978C18.3444 6.018 18.1179 5.84416 17.8545 5.72827C17.5911 5.61237 17.2961 5.55443 16.9695 5.55443C16.5375 5.55443 16.153 5.65978 15.8158 5.8705C15.4892 6.07068 15.2364 6.37621 15.0573 6.7871C14.8782 7.18746 14.7886 7.68791 14.7886 8.28844C14.7886 8.73094 14.836 9.12603 14.9308 9.47371C15.0362 9.81085 15.1837 10.0953 15.3733 10.3271C15.563 10.5484 15.7895 10.7169 16.0529 10.8328C16.3268 10.9487 16.6271 11.0067 16.9537 11.0067ZM49.5915 12.6344C48.7381 12.6344 48.0111 12.4606 47.4106 12.1129C46.8206 11.7547 46.3676 11.2542 46.0515 10.6116C45.7354 9.95835 45.5774 9.19978 45.5774 8.33585C45.5774 7.44032 45.7354 6.66594 46.0515 6.01273C46.3676 5.34898 46.8206 4.838 47.4106 4.47978C48.0006 4.12157 48.7012 3.94246 49.5125 3.94246C50.4396 3.94246 51.1982 4.14791 51.7882 4.5588C52.3887 4.95916 52.8207 5.51755 53.0841 6.23398C53.3475 6.95041 53.437 7.77219 53.3527 8.69933H47.5054C47.5054 9.23666 47.5897 9.68969 47.7583 10.0584C47.9374 10.4167 48.1797 10.6906 48.4853 10.8802C48.8013 11.0593 49.1701 11.1489 49.5915 11.1489C50.0867 11.1489 50.4976 11.033 50.8242 10.8012C51.1508 10.5589 51.3615 10.2481 51.4563 9.8688H53.3053C53.2421 10.4377 53.0419 10.9329 52.7048 11.3543C52.3677 11.7652 51.9304 12.0813 51.3931 12.3025C50.8558 12.5238 50.2553 12.6344 49.5915 12.6344ZM47.5054 7.6405L47.3316 7.43505H51.6144L51.4247 7.6563C51.4458 7.14005 51.3773 6.71862 51.2193 6.39202C51.0612 6.06541 50.8347 5.82309 50.5397 5.66505C50.2447 5.50702 49.9023 5.428 49.5125 5.428C49.1121 5.428 48.7644 5.51228 48.4694 5.68086C48.1744 5.84943 47.9427 6.10228 47.7741 6.43943C47.6055 6.76603 47.516 7.16639 47.5054 7.6405Z" fill="#E73124"/>
<path d="M26.5072 12.6344C25.8751 12.6344 25.3061 12.5396 24.8004 12.35C24.2947 12.1498 23.8522 11.86 23.4729 11.4808C23.1042 11.1015 22.8197 10.6432 22.6195 10.1059C22.4299 9.56853 22.3351 8.96273 22.3351 8.28844C22.3351 7.42451 22.4984 6.66594 22.825 6.01273C23.1621 5.35952 23.6415 4.84853 24.2631 4.47978C24.8847 4.11104 25.6327 3.92666 26.5072 3.92666C27.1288 3.92666 27.6925 4.02675 28.1982 4.22693C28.7039 4.42711 29.1359 4.71684 29.4941 5.09612C29.8628 5.47541 30.1473 5.93371 30.3475 6.47103C30.5476 6.99782 30.6477 7.60362 30.6477 8.28844C30.6477 9.14183 30.4792 9.89514 30.142 10.5484C29.8154 11.2016 29.3413 11.7125 28.7197 12.0813C28.1086 12.45 27.3711 12.6344 26.5072 12.6344ZM26.4914 11.0067C26.9234 11.0067 27.3026 10.9066 27.6293 10.7064C27.9559 10.4957 28.2087 10.1901 28.3878 9.78978C28.5669 9.37889 28.6565 8.87844 28.6565 8.28844C28.6565 7.84594 28.6038 7.45612 28.4984 7.11898C28.4036 6.7713 28.2614 6.48157 28.0718 6.24978C27.8821 6.018 27.6556 5.84416 27.3922 5.72827C27.1288 5.61237 26.8338 5.55443 26.5072 5.55443C26.0752 5.55443 25.6907 5.65978 25.3535 5.8705C25.0269 6.07068 24.7741 6.37621 24.595 6.7871C24.4159 7.18746 24.3263 7.68791 24.3263 8.28844C24.3263 8.73094 24.3737 9.12603 24.4685 9.47371C24.5739 9.81085 24.7214 10.0953 24.911 10.3271C25.1007 10.5484 25.3272 10.7169 25.5906 10.8328C25.8645 10.9487 26.1648 11.0067 26.4914 11.0067Z" fill="#FCB002"/>
<path d="M41.9937 12.4922V0.971396H43.9691V12.4922H41.9937Z" fill="#249B41"/>
</svg>
