<svg width="106" height="20" viewBox="0 0 106 20" fill="none" xmlns="http://www.w3.org/2000/svg">
<g id="SVG" clip-path="url(#clip0_470_19946)">
<g id="Layer_1_starsRatingFeb21Serchen">
<g id="Group">
<g id="Clip path group">
<mask id="mask0_470_19946" style="mask-type:luminance" maskUnits="userSpaceOnUse" x="0" y="0" width="21" height="20">
<g id="SVGID_2_starsRatingFeb21Serchen">
<path id="Vector" d="M20.2599 7.83909L13.0939 7.37569L10.3876 0.587891L7.68123 7.37569L0.531006 7.83909L6.01741 12.51L4.21669 19.5874L10.3876 15.6801L16.5585 19.5874L14.7577 12.51L20.2599 7.83909Z" fill="white"/>
</g>
</mask>
<g mask="url(#mask0_470_19946)">
<path id="Vector_2" d="M97.4118 0.587891H0.531006V19.5874H97.4118V0.587891Z" fill="#FCB002"/>
</g>
</g>
</g>
<g id="Group_2">
<g id="Clip path group_2">
<mask id="mask1_470_19946" style="mask-type:luminance" maskUnits="userSpaceOnUse" x="21" y="0" width="21" height="20">
<g id="SVGID_4_starsRatingFeb21Serchen">
<path id="Vector_3" d="M41.6506 7.83909L34.4845 7.37569L31.7782 0.587891L29.0771 7.37569L21.9216 7.83909L27.408 12.51L25.6073 19.5874L31.7782 15.6801L37.9543 19.5874L36.1484 12.51L41.6506 7.83909Z" fill="white"/>
</g>
</mask>
<g mask="url(#mask1_470_19946)">
<path id="Vector_4" d="M97.4059 0.587891H0.525146V19.5874H97.4059V0.587891Z" fill="#FCB002"/>
</g>
</g>
</g>
<g id="Group_3">
<g id="Clip path group_3">
<mask id="mask2_470_19946" style="mask-type:luminance" maskUnits="userSpaceOnUse" x="43" y="0" width="21" height="20">
<g id="SVGID_6_starsRatingFeb21Serchen">
<path id="Vector_5" d="M63.0398 7.83909L55.8738 7.37569L53.1727 0.587891L50.4664 7.37569L43.3162 7.83909L48.8026 12.51L46.9966 19.5874L53.1727 15.6801L59.3436 19.5874L57.5376 12.51L63.0398 7.83909Z" fill="white"/>
</g>
</mask>
<g mask="url(#mask2_470_19946)">
<path id="Vector_6" d="M97.4059 0.587891H0.525146V19.5874H97.4059V0.587891Z" fill="#FCB002"/>
</g>
</g>
</g>
<g id="Group_4">
<g id="Clip path group_4">
<mask id="mask3_470_19946" style="mask-type:luminance" maskUnits="userSpaceOnUse" x="64" y="0" width="21" height="20">
<g id="SVGID_8_starsRatingFeb21Serchen">
<path id="Vector_7" d="M84.4416 7.83909L77.2756 7.37569L74.5692 0.587891L71.8629 7.37569L64.7126 7.83909L70.1991 12.51L68.3931 19.5874L74.5692 15.6801L80.7401 19.5874L78.9394 12.51L84.4416 7.83909Z" fill="white"/>
</g>
</mask>
<g mask="url(#mask3_470_19946)">
<path id="Vector_8" d="M97.4098 0.587891H0.529053V19.5874H97.4098V0.587891Z" fill="#FCB002"/>
</g>
</g>
</g>
<g id="Group_5">
<g id="Clip path group_5">
<mask id="mask4_470_19946" style="mask-type:luminance" maskUnits="userSpaceOnUse" x="86" y="0" width="20" height="20">
<g id="SVGID_10_starsRatingFeb21Serchen">
<path id="Vector_9" d="M105.83 7.83909L98.6642 7.37569L95.9579 0.587891L93.2515 7.37569L86.1013 7.83909L91.5877 12.51L89.787 19.5874L95.9579 15.6801L102.129 19.5874L100.328 12.51L105.83 7.83909Z" fill="white"/>
</g>
</mask>
<g mask="url(#mask4_470_19946)">
<path id="Vector_10" d="M97.4079 0.587891H0.5271V19.5874H97.4079V0.587891Z" fill="#FCB002"/>
</g>
</g>
</g>
</g>
<g id="Layer_1_starsRatingFeb21_copy_2Serchen">
<path id="Vector_11" d="M10.3817 2.00969L12.5984 7.57053L12.7195 7.88122L13.0512 7.90228L18.9167 8.28143L14.4096 12.1098L14.1569 12.3204L14.2359 12.6416L15.7102 18.4342L10.6555 15.2325L10.3764 15.0534L10.0974 15.2325L5.04274 18.4342L6.51701 12.6416L6.59599 12.3257L6.34852 12.115L1.85199 8.2867L7.70696 7.90755L8.03867 7.88649L8.15977 7.5758L10.3817 2.00969ZM10.3817 0.587891L7.67537 7.37569L0.525146 7.83909L6.01155 12.51L4.21083 19.5874L10.3817 15.6801L16.5526 19.5874L14.7519 12.51L20.2541 7.83909L13.0881 7.37569L10.3817 0.587891Z" fill="#FCB002"/>
<path id="Vector_12" d="M31.7723 2.00969L33.989 7.57053L34.1101 7.88122L34.4418 7.90228L40.3073 8.28143L35.8003 12.1098L35.5475 12.3204L35.6265 12.6416L37.1008 18.4342L32.0461 15.2325L31.7671 15.0534L31.488 15.2325L26.4334 18.4342L27.9076 12.6416L27.9866 12.3257L27.7391 12.115L23.2426 8.2867L29.0976 7.90755L29.4293 7.88649L29.5504 7.5758L31.7723 2.00969ZM31.7723 0.587891L29.066 7.37569L21.9158 7.83909L27.4022 12.51L25.6015 19.5874L31.7723 15.6801L37.9432 19.5874L36.1425 12.51L41.6447 7.83909L34.4787 7.37569L31.7723 0.587891Z" fill="#FCB002"/>
<path id="Vector_13" d="M53.1747 2.00969L55.3914 7.57053L55.5125 7.88122L55.8442 7.90228L61.7097 8.28143L57.2026 12.1098L56.9499 12.3204L57.0289 12.6416L58.5031 18.4342L53.4485 15.2325L53.1694 15.0534L52.8904 15.2325L47.8357 18.4342L49.31 12.6416L49.389 12.3257L49.1415 12.115L44.645 8.2867L50.4999 7.90755L50.8316 7.88649L50.9527 7.5758L53.1747 2.00969ZM53.1747 0.587891L50.4683 7.37569L43.3181 7.83909L48.8045 12.51L47.0038 19.5874L53.1747 15.6801L59.3456 19.5874L57.5448 12.51L63.047 7.83909L55.881 7.37569L53.1747 0.587891Z" fill="#FCB002"/>
<path id="Vector_14" d="M74.5653 2.00969L76.782 7.57053L76.9031 7.88122L77.2348 7.90228L83.1003 8.28143L78.5932 12.1098L78.3405 12.3204L78.4195 12.6416L79.8938 18.4342L74.8391 15.2325L74.56 15.0534L74.281 15.2325L69.2263 18.4342L70.7006 12.6416L70.7796 12.3257L70.5321 12.115L66.0356 8.2867L71.8906 7.90755L72.2223 7.88649L72.3434 7.5758L74.5653 2.00969ZM74.5653 0.587891L71.859 7.37569L64.7087 7.83909L70.1951 12.51L68.3944 19.5874L74.5653 15.6801L80.7362 19.5874L78.9355 12.51L84.4377 7.83909L77.2716 7.37569L74.5653 0.587891Z" fill="#FCB002"/>
<path id="Vector_15" d="M95.9559 2.00969L98.1726 7.57053L98.2937 7.88122L98.6254 7.90228L104.491 8.28143L99.9839 12.1098L99.7311 12.3204L99.8101 12.6416L101.284 18.4342L96.2297 15.2325L95.9507 15.0534L95.6716 15.2325L90.617 18.4342L92.0912 12.6416L92.1702 12.3257L91.9227 12.115L87.4262 8.2867L93.2812 7.90755L93.6129 7.88649L93.734 7.5758L95.9559 2.00969ZM95.9559 0.587891L93.2496 7.37569L86.0994 7.83909L91.5858 12.51L89.785 19.5874L95.9559 15.6801L102.127 19.5874L100.326 12.51L105.828 7.83909L98.6623 7.37569L95.9559 0.587891Z" fill="#FCB002"/>
</g>
</g>
<defs>
<clipPath id="clip0_470_19946">
<rect width="105.356" height="18.9995" fill="white" transform="translate(0.5 0.587891)"/>
</clipPath>
</defs>
</svg>
