<svg width="64" height="64" viewBox="0 0 64 64" fill="none" xmlns="http://www.w3.org/2000/svg">
<g id="google-calendar 1">
<path id="Vector" d="M43.2687 20.7305H20.731V43.2682H43.2687V20.7305Z" fill="white"/>
<path id="Vector_2" d="M43.2687 43.2695H20.731V53.4318H43.2687V43.2695Z" fill="#34A853"/>
<path id="Vector_3" d="M43.2689 10.5703H13.9563C13.0599 10.5768 12.202 10.9357 11.5681 11.5696C10.9343 12.2035 10.5753 13.0613 10.5688 13.9578V43.2704H20.7312V20.7326H43.2689V10.5703Z" fill="#4285F4"/>
<path id="Vector_4" d="M10.5688 43.2695V50.0444C10.5753 50.9408 10.9343 51.7987 11.5681 52.4326C12.202 53.0664 13.0599 53.4254 13.9563 53.4318H20.7312V43.2695H10.5688Z" fill="#188038"/>
<path id="Vector_5" d="M53.4314 20.7305H43.269V43.2682H53.4314V20.7305Z" fill="#FBBC04"/>
<path id="Vector_6" d="M53.4314 20.7326V13.9578C53.4249 13.0613 53.0659 12.2035 52.4321 11.5696C51.7982 10.9357 50.9403 10.5768 50.0439 10.5703H43.269V20.7326H53.4314Z" fill="#1967D2"/>
<path id="Vector_7" d="M43.269 53.4318L53.4314 43.2695H43.269V53.4318Z" fill="#EA4335"/>
<path id="Vector_8" d="M35.1914 29.9802L34.1138 28.4545L37.9488 25.6836H39.404V38.727H37.3187V28.3502L35.1914 29.9802Z" fill="#2A83F8"/>
<path id="Vector_9" d="M30.3961 31.8678C30.8732 31.5464 31.2655 31.1143 31.5393 30.6084C31.8132 30.1024 31.9605 29.5377 31.9686 28.9625C31.9686 26.9345 30.1619 25.295 27.9307 25.295C27.0406 25.2664 26.1668 25.5385 25.4501 26.0673C24.7335 26.5961 24.2159 27.3509 23.9808 28.2099L25.7705 28.9247C25.8662 28.4644 26.1213 28.0526 26.4909 27.7621C26.8605 27.4715 27.3209 27.3208 27.7908 27.3365C28.0488 27.312 28.309 27.3413 28.5551 27.4228C28.8011 27.5042 29.0275 27.6359 29.2199 27.8096C29.4123 27.9832 29.5665 28.195 29.6727 28.4314C29.7789 28.6678 29.8347 28.9237 29.8367 29.1829C29.8387 29.4421 29.7867 29.6988 29.6841 29.9368C29.5816 30.1748 29.4306 30.3889 29.2409 30.5654C29.0511 30.7419 28.8267 30.8771 28.5819 30.9623C28.3372 31.0474 28.0774 31.0807 27.819 31.0601V31.0624H27.7938L27.7908 31.0627L27.7864 31.0624H26.7158V32.8134H27.9382L27.9488 32.8127C28.2432 32.7854 28.54 32.8198 28.8203 32.9137C29.1007 33.0076 29.3583 33.159 29.5768 33.3581C29.7953 33.5573 29.9698 33.7998 30.0892 34.0703C30.2087 34.3407 30.2703 34.6331 30.2703 34.9287C30.2703 35.2244 30.2087 35.5167 30.0892 35.7872C29.9698 36.0576 29.7953 36.3002 29.5768 36.4993C29.3583 36.6985 29.1007 36.8498 28.8203 36.9438C28.54 37.0377 28.2432 37.0721 27.9488 37.0447C27.6135 37.0483 27.2812 36.9821 26.9728 36.8505C26.6645 36.7188 26.3869 36.5245 26.1576 36.2798C26.007 36.1134 25.8843 35.9236 25.7944 35.7179L25.4794 34.9503L23.5903 35.6807C23.8704 37.6364 25.7086 39.1495 27.9308 39.1495C30.3517 39.1495 32.3119 37.3609 32.3119 35.1613C32.3009 34.4943 32.119 33.8413 31.7836 33.2646C31.4482 32.688 30.9704 32.207 30.3961 31.8678Z" fill="#2A83F8"/>
</g>
</svg>
