<svg width="60" height="60" viewBox="0 0 60 60" fill="none" xmlns="http://www.w3.org/2000/svg">
<rect x="0.46875" y="0.46875" width="59.0625" height="59.0625" rx="18.2812" stroke="#E6A55B" stroke-width="0.9375"/>
<rect x="3" y="3" width="54" height="54" rx="18.75" fill="#E6A55B"/>
<path d="M44.4116 31.0415L42.1122 28.7375C41.7986 28.4202 41.2872 28.4172 40.97 28.7308L40.9633 28.7375L33.2578 36.4429L30.4396 33.6201C30.1261 33.3028 29.6147 33.2998 29.2975 33.6134L29.2907 33.6201L26.9868 35.9241C26.6702 36.2417 26.6702 36.7555 26.9868 37.073L32.6832 42.7801C32.997 43.0975 33.5087 43.1005 33.8261 42.7867L33.8327 42.7801L44.4117 32.1904C44.728 31.8726 44.7276 31.3588 44.4107 31.0415H44.4116ZM29.1854 29.9998H33.832C36.0293 29.9998 38.0026 28.3621 38.1303 26.168C38.1653 25.5717 38.0683 24.9751 37.8463 24.4206C37.6242 23.8661 37.2825 23.3675 36.8456 22.9602C37.2191 22.2602 37.3793 21.4661 37.3064 20.6761C37.1146 18.5343 35.1514 16.9795 33 16.9795H29.1854C28.736 16.9795 28.3717 17.3438 28.3717 17.7932V29.186C28.3716 29.6355 28.736 29.9998 29.1854 29.9998ZM31.2198 19.8277H33.2543C33.9284 19.8277 34.4749 20.3742 34.4749 21.0484C34.4749 21.7225 33.9284 22.269 33.2543 22.269H31.2198V19.8277ZM31.2198 24.7103H34.068C34.7421 24.7103 35.2887 25.2568 35.2887 25.931C35.2887 26.6052 34.7422 27.1517 34.068 27.1517H31.2198V24.7103ZM23.2408 18.1111C23.1357 17.7825 22.9289 17.4959 22.6503 17.2925C22.3716 17.0891 22.0356 16.9795 21.6906 16.9795H20.4048C20.0598 16.9795 19.7238 17.0891 19.4451 17.2925C19.1665 17.4959 18.9597 17.7825 18.8545 18.1111L15.3813 28.9689C15.2613 29.402 15.5152 29.8504 15.9484 29.9703C16.0189 29.9899 16.0918 29.9998 16.165 29.9998H17.433C17.611 29.9999 17.7841 29.9415 17.9257 29.8338C18.0674 29.726 18.1698 29.5748 18.2173 29.4032L18.8245 27.5585H23.2708L23.8781 29.4032C23.9256 29.5748 24.028 29.726 24.1696 29.8338C24.3113 29.9415 24.4844 29.9999 24.6624 29.9998H25.9303C26.3797 29.9998 26.7441 29.6355 26.7441 29.1861C26.7441 29.1127 26.7342 29.0396 26.7146 28.9689L23.2408 18.1111ZM19.8967 24.3034L21.0476 20.8093L22.1986 24.3034H19.8967Z" fill="white"/>
</svg>
