<svg width="56" height="56" viewBox="0 0 56 56" fill="none" xmlns="http://www.w3.org/2000/svg">
<g id="video-comment 1">
<path id="Vector" d="M26.7498 23.1643H40.1766V3.41602H14.3499V27.1139H22.5935C22.7153 24.9175 24.5246 23.1643 26.7498 23.1643ZM22.6602 11.9165C22.6602 11.3746 22.9385 10.8846 23.4038 10.6071C23.6306 10.4711 23.8891 10.3969 24.1535 10.3919C24.4179 10.3868 24.679 10.4511 24.9109 10.5783L31.0709 13.9308C31.3118 14.0615 31.5129 14.2547 31.6531 14.4902C31.7933 14.7257 31.8673 14.9946 31.8673 15.2687C31.8673 15.5427 31.7933 15.8116 31.6531 16.0471C31.5129 16.2826 31.3118 16.4759 31.0709 16.6065L24.91 19.9525C24.6782 20.0796 24.4173 20.144 24.1529 20.1394C23.8886 20.1347 23.6301 20.0612 23.4028 19.9261C23.1756 19.7909 22.9876 19.5988 22.8573 19.3688C22.7271 19.1387 22.6591 18.8786 22.6602 18.6143V11.9165ZM47.9886 3.96531C47.9886 3.66225 47.7416 3.41602 47.4385 3.41602H41.8237V23.1643H47.9886V3.96531ZM7.08723 27.1139H12.7029V3.41602H7.08723C6.94147 3.41602 6.80167 3.47386 6.69853 3.57685C6.59538 3.67984 6.53733 3.81955 6.53711 3.96531V26.5646C6.53711 26.8677 6.78417 27.1139 7.08723 27.1139Z" fill="white"/>
<path id="Vector_2" d="M48.249 24.8115H26.75C26.0784 24.8124 25.4346 25.0796 24.9597 25.5544C24.4848 26.0293 24.2177 26.6731 24.2168 27.3447V42.3263C24.2168 42.9344 24.4365 43.522 24.8354 43.981C25.2342 44.4399 25.7855 44.7393 26.3876 44.8241C26.5326 44.8529 26.6281 44.8612 26.75 44.8612H38.4079C38.8559 44.8612 39.2767 45.0366 39.5954 45.3553L44.7968 50.6555L44.8166 46.5214C44.8166 45.6056 45.566 44.8612 46.4883 44.8612H48.249C48.921 44.8603 49.5651 44.5929 50.0402 44.1177C50.5152 43.6425 50.7824 42.9983 50.783 42.3263V27.3447C50.7822 26.673 50.5149 26.029 50.0398 25.5541C49.5648 25.0792 48.9207 24.8122 48.249 24.8115ZM37.9384 41.3027C37.8073 41.3855 37.6554 41.4295 37.5003 41.4295C37.3452 41.4295 37.1933 41.3855 37.0622 41.3027C36.3556 40.8588 30.1577 36.8449 30.1577 32.7438C30.159 31.5507 30.6335 30.407 31.4771 29.5634C32.3207 28.7198 33.4645 28.2453 34.6575 28.244C35.7026 28.244 36.6999 28.6047 37.4987 29.2569C38.3008 28.5999 39.3063 28.2418 40.3431 28.244C42.8203 28.244 44.8355 30.2625 44.8355 32.7438C44.8355 36.8449 38.645 40.858 37.9384 41.3027Z" fill="white"/>
<path id="Vector_3" d="M24.9239 46.0746C24.8942 46.0598 24.8621 46.0491 24.8333 46.0334C24.6817 45.9531 24.5353 45.8631 24.3951 45.7641C24.3474 45.732 24.2988 45.7024 24.2535 45.6686C24.1329 45.5762 24.0174 45.4772 23.9076 45.3721C23.8472 45.3168 23.7884 45.2597 23.7314 45.2009C23.5675 45.0277 23.4188 44.8409 23.2867 44.6425C23.2214 44.5465 23.1601 44.4479 23.103 44.3469C23.0424 44.235 22.9869 44.1204 22.9367 44.0034C22.8955 43.9112 22.8535 43.8206 22.8189 43.7251C22.7696 43.5803 22.7284 43.433 22.6954 43.2837C22.6756 43.2038 22.6501 43.1272 22.6361 43.0465C22.5931 42.8087 22.5711 42.5676 22.5702 42.3259V33.1436H7.00138C6.52973 33.1429 6.07705 33.3292 5.74254 33.6617C5.40803 33.9942 5.21898 34.4458 5.2168 34.9174V46.5424C5.21723 47.0158 5.40548 47.4696 5.74021 47.8044C6.07495 48.1391 6.52882 48.3274 7.00221 48.3278H8.3668C9.1788 48.3278 9.84091 48.9883 9.84091 49.8011V52.5838L13.5797 48.7626C13.7173 48.624 13.881 48.5142 14.0614 48.4395C14.2418 48.3649 14.4353 48.3269 14.6306 48.3278H23.6787C24.1506 48.3258 24.6025 48.1368 24.9352 47.802C25.2679 47.4673 25.4543 47.0143 25.4534 46.5424V46.2937H25.4517C25.271 46.2335 25.094 46.1603 24.9239 46.0746ZM18.805 45.5896H9.44974C9.23132 45.5896 9.02186 45.5028 8.86741 45.3483C8.71297 45.1939 8.62621 44.9844 8.62621 44.766C8.62621 44.5476 8.71297 44.3381 8.86741 44.1837C9.02186 44.0293 9.23132 43.9425 9.44974 43.9425H18.805C19.0234 43.9425 19.2329 44.0293 19.3874 44.1837C19.5418 44.3381 19.6286 44.5476 19.6286 44.766C19.6286 44.9844 19.5418 45.1939 19.3874 45.3483C19.2329 45.5028 19.0234 45.5896 18.805 45.5896ZM18.805 41.5996H9.44974C9.23132 41.5996 9.02186 41.5128 8.86741 41.3584C8.71297 41.2039 8.62621 40.9944 8.62621 40.776C8.62621 40.5576 8.71297 40.3481 8.86741 40.1937C9.02186 40.0393 9.23132 39.9525 9.44974 39.9525H18.805C19.0234 39.9525 19.2329 40.0393 19.3874 40.1937C19.5418 40.3481 19.6286 40.5576 19.6286 40.776C19.6286 40.9944 19.5418 41.2039 19.3874 41.3584C19.2329 41.5128 19.0234 41.5996 18.805 41.5996ZM18.805 37.6087H9.44974C9.23132 37.6087 9.02186 37.522 8.86741 37.3675C8.71297 37.2131 8.62621 37.0036 8.62621 36.7852C8.62621 36.5668 8.71297 36.3573 8.86741 36.2029C9.02186 36.0484 9.23132 35.9617 9.44974 35.9617H18.805C19.0234 35.9617 19.2329 36.0484 19.3874 36.2029C19.5418 36.3573 19.6286 36.5668 19.6286 36.7852C19.6286 37.0036 19.5418 37.2131 19.3874 37.3675C19.2329 37.522 19.0234 37.6087 18.805 37.6087Z" fill="white"/>
</g>
</svg>
