<svg width="44" height="44" viewBox="0 0 44 44" fill="none" xmlns="http://www.w3.org/2000/svg">
<g id="web 1">
<path id="Vector" d="M34.7602 16.7212V18.4813C34.7602 18.7241 34.5631 18.9212 34.3202 18.9212H9.68023C9.43735 18.9212 9.24023 18.7241 9.24023 18.4813V16.7212C9.24023 16.4784 9.43735 16.2812 9.68023 16.2812H34.3202C34.5631 16.2812 34.7602 16.4784 34.7602 16.7212ZM21.1202 22.0012V30.8012C21.1202 31.0441 20.9231 31.2413 20.6802 31.2413H9.68023C9.43735 31.2413 9.24023 31.0441 9.24023 30.8012V22.0012C9.24023 21.7584 9.43735 21.5612 9.68023 21.5612H20.6802C20.9231 21.5612 21.1202 21.7584 21.1202 22.0012ZM34.7602 22.0012V30.8012C34.7602 31.0441 34.5631 31.2413 34.3202 31.2413H23.3202C23.0774 31.2413 22.8802 31.0441 22.8802 30.8012V22.0012C22.8802 21.7584 23.0774 21.5612 23.3202 21.5612H34.3202C34.5631 21.5612 34.7602 21.7584 34.7602 22.0012Z" fill="black"/>
<path id="Vector_2" d="M38.2801 6.59961H5.72008C4.26192 6.59961 3.08008 7.78145 3.08008 9.23961V34.7596C3.08008 36.2178 4.26192 37.3996 5.72008 37.3996H38.2801C39.7382 37.3996 40.9201 36.2178 40.9201 34.7596V9.23961C40.9201 7.78145 39.7382 6.59961 38.2801 6.59961ZM35.2001 8.35961C35.9292 8.35961 36.5201 8.95053 36.5201 9.67961C36.5201 10.4087 35.9292 10.9996 35.2001 10.9996C34.471 10.9996 33.8801 10.4087 33.8801 9.67961C33.8801 8.95053 34.471 8.35961 35.2001 8.35961ZM29.9201 8.35961C30.6492 8.35961 31.2401 8.95053 31.2401 9.67961C31.2401 10.4087 30.6492 10.9996 29.9201 10.9996C29.191 10.9996 28.6001 10.4087 28.6001 9.67961C28.6001 8.95053 29.191 8.35961 29.9201 8.35961ZM24.6401 8.35961C25.3692 8.35961 25.9601 8.95053 25.9601 9.67961C25.9601 10.4087 25.3692 10.9996 24.6401 10.9996C23.911 10.9996 23.3201 10.4087 23.3201 9.67961C23.3201 8.95053 23.911 8.35961 24.6401 8.35961ZM38.2801 34.3196C38.2801 34.5625 38.083 34.7596 37.8401 34.7596H6.16008C5.9172 34.7596 5.72008 34.5625 5.72008 34.3196V13.1996C5.72008 12.9567 5.9172 12.7596 6.16008 12.7596H37.8401C38.083 12.7596 38.2801 12.9567 38.2801 13.1996V34.3196Z" fill="black"/>
</g>
</svg>
