<svg width="50" height="50" viewBox="0 0 50 50" fill="none" xmlns="http://www.w3.org/2000/svg">
<g id="marketing (1) 1">
<path id="Vector" d="M3.125 17.2036V26.6254C3.12541 27.8699 3.6189 29.0636 4.49744 29.9451C5.37598 30.8265 6.56799 31.324 7.8125 31.3285H15.625V12.5004H7.8125C6.56799 12.505 5.37598 13.0024 4.49744 13.8839C3.6189 14.7654 3.12541 15.959 3.125 17.2036ZM32.3125 8.62543C31.6802 8.19546 30.9517 7.92778 30.1914 7.84603C29.4311 7.76428 28.6624 7.87097 27.9531 8.15668L18.75 11.8286V32.0786L27.9531 35.7504C28.5056 35.9673 29.0939 36.0786 29.6875 36.0786C30.3036 36.0806 30.9141 35.9608 31.4838 35.7259C32.0534 35.4911 32.571 35.1459 33.0067 34.7102C33.4424 34.2745 33.7876 33.757 34.0224 33.1873C34.2572 32.6177 34.3771 32.0072 34.375 31.3911V12.5004C34.375 11.735 34.1868 10.9813 33.8272 10.3056C33.4676 9.62992 32.9474 9.05294 32.3125 8.62543ZM6.25 39.141C6.25 40.3843 6.74386 41.5765 7.62294 42.4556C8.50201 43.3347 9.6943 43.8285 10.9375 43.8285C12.1807 43.8285 13.373 43.3347 14.2521 42.4556C15.1311 41.5765 15.625 40.3843 15.625 39.141V34.3754H6.25V39.141ZM45.3125 20.3879H40.625C40.2106 20.3879 39.8132 20.5525 39.5201 20.8456C39.2271 21.1386 39.0625 21.536 39.0625 21.9504C39.0625 22.3648 39.2271 22.7623 39.5201 23.0553C39.8132 23.3483 40.2106 23.5129 40.625 23.5129H45.3125C45.7269 23.5129 46.1243 23.3483 46.4174 23.0553C46.7104 22.7623 46.875 22.3648 46.875 21.9504C46.875 21.536 46.7104 21.1386 46.4174 20.8456C46.1243 20.5525 45.7269 20.3879 45.3125 20.3879ZM40.625 12.5754C40.867 12.5754 41.1057 12.5187 41.3219 12.4098L44.4469 10.8473C44.6321 10.7566 44.7974 10.6301 44.9335 10.4751C45.0695 10.3201 45.1736 10.1398 45.2396 9.94441C45.3056 9.74905 45.3323 9.54255 45.3181 9.33682C45.304 9.13109 45.2492 8.93021 45.157 8.74574C45.0648 8.56128 44.9371 8.39688 44.781 8.26204C44.625 8.1272 44.4439 8.02457 44.248 7.96008C44.0521 7.89559 43.8454 7.8705 43.6398 7.88628C43.4342 7.90205 43.2337 7.95837 43.05 8.05199L39.925 9.61449C39.6096 9.77169 39.3566 10.0309 39.2071 10.35C39.0575 10.6692 39.0203 11.0295 39.1014 11.3724C39.1825 11.7154 39.3771 12.0209 39.6537 12.2392C39.9303 12.4576 40.2726 12.5761 40.625 12.5754ZM44.4484 33.052L41.3234 31.4895C41.1397 31.3959 40.9392 31.3396 40.7336 31.3238C40.528 31.308 40.3213 31.3331 40.1254 31.3976C39.9296 31.4621 39.7484 31.5647 39.5924 31.6995C39.4364 31.8344 39.3086 31.9988 39.2164 32.1832C39.1242 32.3677 39.0695 32.5686 39.0553 32.7743C39.0411 32.9801 39.0678 33.1865 39.1338 33.3819C39.1999 33.5773 39.3039 33.7576 39.4399 33.9126C39.576 34.0676 39.7414 34.1941 39.9266 34.2848L43.0516 35.8473C43.2677 35.9562 43.5064 36.0129 43.7484 36.0129C44.1009 36.0136 44.4431 35.8951 44.7197 35.6767C44.9963 35.4584 45.191 35.1529 45.272 34.8099C45.3531 34.467 45.3159 34.1067 45.1664 33.7875C45.0169 33.4684 44.7639 33.2092 44.4484 33.052Z" fill="white"/>
</g>
</svg>
