<svg width="53" height="53" viewBox="0 0 53 53" fill="none" xmlns="http://www.w3.org/2000/svg">
<g id="sales-person 1" clip-path="url(#clip0_1692_11674)">
<path id="Vector" fill-rule="evenodd" clip-rule="evenodd" d="M17.187 31.2664C16.8441 31.2664 16.5609 30.9906 16.5609 30.6477V26.3323C16.5609 25.9895 16.8441 25.7137 17.187 25.7137C17.5298 25.7137 17.8056 25.9895 17.8056 26.3323V30.6477C17.8056 30.9906 17.5298 31.2664 17.187 31.2664ZM28.3147 31.2664C27.9718 31.2664 27.6886 30.9906 27.6886 30.6477V26.3323C27.6886 25.9895 27.9718 25.7137 28.3147 25.7137C28.6575 25.7137 28.9333 25.9895 28.9333 26.3323V30.6477C28.9333 30.9906 28.6575 31.2664 28.3147 31.2664ZM33.4201 13.8109C33.0773 13.8109 32.7941 13.5351 32.7941 13.1922V12.6705L30.5879 10.2631L27.6439 11.9625L23.3359 12.8345L18.9907 12.2308L15.0181 10.0991L12.7001 11.955V12.5065C12.7001 12.8494 12.4244 13.1252 12.0815 13.1252C11.7387 13.1252 11.4629 12.8494 11.4629 12.5065V7.31163C11.4629 3.27943 14.7423 0 18.7745 0H28.4339C28.7768 0 29.0525 0.27577 29.0525 0.618619V3.45085C31.8401 3.69681 34.0388 6.04458 34.0388 8.89172V13.1922C34.0388 13.5351 33.7555 13.8109 33.4201 13.8109Z" fill="white"/>
<path id="Vector_2" fill-rule="evenodd" clip-rule="evenodd" d="M22.7471 28.5306C16.5236 28.5306 11.4629 23.4699 11.4629 17.2464V12.5062C11.4629 12.3198 11.5449 12.1484 11.6865 12.0292L14.6156 9.59195C14.8392 9.40562 15.1597 9.39817 15.3907 9.57704C15.4057 9.5845 17.269 10.9857 20.0118 11.6714C23.6415 12.5807 27.0402 11.8726 30.1184 9.56959C30.3643 9.38326 30.7146 9.41307 30.9308 9.63667L33.8599 12.6329C33.9717 12.7521 34.0388 12.9086 34.0388 13.0652V17.2464C34.0388 23.4699 28.9706 28.5306 22.7471 28.5306ZM12.7001 12.7968V17.2464C12.7001 22.7842 17.2093 27.2859 22.7471 27.2859C28.2849 27.2859 32.7941 22.7842 32.7941 17.2464V13.3186L30.4165 10.8814C26.3321 13.7285 22.3372 13.5422 19.6615 12.8639C17.4404 12.3049 15.7783 11.3286 15.0479 10.8441L12.7001 12.7968Z" fill="white"/>
<path id="Vector_3" fill-rule="evenodd" clip-rule="evenodd" d="M22.7474 24.3363C21.5698 24.3363 20.4593 23.8742 19.6245 23.0394C19.386 22.8009 19.386 22.4059 19.6245 22.1599C19.8705 21.9214 20.2655 21.9214 20.504 22.1599C21.7487 23.4046 23.7536 23.4046 24.9983 22.1599C25.2368 21.9214 25.6318 21.9214 25.8778 22.1599C26.1163 22.4059 26.1163 22.7934 25.8778 23.0394C25.0356 23.8742 23.9325 24.3363 22.7474 24.3363ZM19.4233 16.7936C19.3487 16.7936 19.2742 16.7787 19.2071 16.7563C18.2531 16.406 17.3885 16.3986 16.5687 16.7414C16.2557 16.8756 15.8904 16.7265 15.7563 16.406C15.6221 16.093 15.7712 15.7278 16.0917 15.5936C17.1948 15.1315 18.3873 15.1315 19.632 15.5862C20.2804 15.8247 20.109 16.7936 19.4233 16.7936ZM29.1721 16.7936C29.0976 16.7936 29.0305 16.7787 28.956 16.7563C28.002 16.406 27.1374 16.3986 26.3175 16.7414C26.0045 16.8756 25.6393 16.7265 25.5051 16.406C25.371 16.093 25.5275 15.7278 25.8405 15.5936C26.9436 15.1315 28.1361 15.1315 29.3808 15.5862C30.0292 15.8247 29.8578 16.7936 29.1721 16.7936ZM31.7733 50.6313H23.6269L23.4331 50.1394L31.7808 30.0678C34.5832 30.3138 37.162 31.7224 38.8837 33.9435C33.5248 34.1447 29.2317 38.5645 29.2317 43.9681C29.2317 46.5246 30.1932 48.8574 31.7733 50.6313ZM21.8828 50.6313H5.3292C4.98635 50.6313 4.70312 50.3555 4.70312 50.0127V40.1222C4.70312 34.8528 8.75769 30.515 13.9153 30.0678L22.0841 50.1394L21.8828 50.6313ZM15.242 30.0231H17.1873C17.3587 30.0231 17.5227 30.0976 17.642 30.2243L22.8443 35.8217L27.8305 30.2541C27.9647 30.0976 28.1361 30.0231 28.3523 30.0231H30.4541L22.7623 48.5071L15.242 30.0231Z" fill="white"/>
<path id="Vector_4" fill-rule="evenodd" clip-rule="evenodd" d="M39.2634 53.0003C34.2772 53.0003 30.2227 48.9457 30.2227 43.9669C30.2227 38.9807 34.2772 34.9336 39.2634 34.9336C44.2422 34.9336 48.2968 38.9807 48.2968 43.9669C48.2968 48.9457 44.2422 53.0003 39.2634 53.0003ZM38.6374 49.1171C37.6237 49.0351 36.625 48.655 36.0809 47.9171C35.8797 47.6339 35.9393 47.2463 36.2151 47.0451C36.4908 46.8439 36.8784 46.9035 37.0871 47.1793C37.8548 48.2302 41.3205 48.2451 41.3205 46.3147C41.3205 45.3532 40.6348 45.0402 39.0771 44.5557C37.6908 44.1234 35.9617 43.5868 35.9617 41.6117C35.9617 40.0018 37.2063 39.1149 38.6374 38.8689V38.213C38.6374 37.8702 38.9206 37.5944 39.2634 37.5944C39.6063 37.5944 39.8821 37.8702 39.8821 38.213V38.8093C40.933 38.8913 41.9242 39.3086 42.446 40.0167C42.6472 40.2925 42.5876 40.68 42.3118 40.8813C42.036 41.09 41.641 41.0303 41.4398 40.7546C40.6721 39.6962 37.2063 39.6888 37.2063 41.6117C37.2063 42.5732 37.8846 42.8862 39.4498 43.3707C40.8361 43.803 42.5652 44.3396 42.5652 46.3147C42.5652 47.9171 41.3354 48.819 39.8821 49.0649V49.7134C39.8821 50.0562 39.6063 50.332 39.2634 50.332C38.9206 50.332 38.6374 50.0562 38.6374 49.7134V49.1171Z" fill="white"/>
</g>
<defs>
<clipPath id="clip0_1692_11674">
<rect width="53" height="53" fill="white"/>
</clipPath>
</defs>
</svg>
