<svg width="44" height="44" viewBox="0 0 44 44" fill="none" xmlns="http://www.w3.org/2000/svg">
<g id="chat 1">
<path id="Vector" d="M22.0013 3.66699C26.8578 3.66699 31.5328 5.59199 34.9611 9.03866C38.4078 12.4872 40.3346 17.142 40.3346 22.0187C40.3346 28.4353 36.9595 34.3937 31.4595 37.712C25.9595 41.0303 19.1211 41.2137 13.4396 38.1887H13.3828C12.8346 37.9687 12.3928 37.5837 11.8795 37.327C11.313 37.0887 10.6695 37.052 10.0846 37.2372C8.72614 37.712 7.35114 38.097 5.93947 38.427C5.20614 38.4453 4.98614 38.0053 4.98614 37.2903C5.31614 35.842 5.75614 34.4102 6.2713 33.0187C6.47114 32.4137 6.41797 31.772 6.1063 31.2018L5.73964 30.4887C4.38114 27.9037 3.66797 25.0253 3.66797 22.1122V22.0003C3.66797 17.142 5.59114 12.467 9.0378 9.03866C12.4845 5.59199 17.1411 3.66699 22.0013 3.66699ZM30.4511 19.672C29.1678 19.672 28.1063 20.717 28.1063 22.0187C28.1063 23.302 29.1678 24.3653 30.4511 24.3653C31.7528 24.3653 32.7978 23.302 32.7978 22.0187C32.7978 20.717 31.7528 19.672 30.4511 19.672ZM22.0013 19.672C20.6996 19.672 19.6528 20.717 19.6528 22.0187C19.6528 23.302 20.6996 24.3653 22.0013 24.3653C23.303 24.3653 24.3461 23.302 24.3461 22.0187C24.3461 20.717 23.303 19.672 22.0013 19.672ZM13.5478 19.672C12.2461 19.672 11.2011 20.717 11.2011 22.0187C11.2011 23.302 12.2461 24.3653 13.5478 24.3653C14.8311 24.3653 15.8963 23.302 15.8963 22.0187C15.8963 20.717 14.8311 19.672 13.5478 19.672Z" fill="white"/>
</g>
</svg>
