<svg width="36" height="36" viewBox="0 0 36 36" fill="none" xmlns="http://www.w3.org/2000/svg">
<g id="build-website 1">
<path id="Vector" fill-rule="evenodd" clip-rule="evenodd" d="M1.5 3C1.5 2.17158 2.17158 1.5 3 1.5H33C33.8284 1.5 34.5 2.17158 34.5 3V10.5C34.5 11.3284 33.8284 12 33 12H3C2.17158 12 1.5 11.3284 1.5 10.5V3ZM4.5 4.5V9H31.5V4.5H4.5Z" fill="black"/>
<path id="Vector_2" fill-rule="evenodd" clip-rule="evenodd" d="M9.75 8.25H6.75V5.25H9.75V8.25ZM15.75 8.25H12.75V5.25H15.75V8.25ZM21.75 8.25H18.75V5.25H21.75V8.25ZM1.5 10.5C1.5 9.67158 2.17158 9 3 9H33C33.8284 9 34.5 9.67158 34.5 10.5V33C34.5 33.8284 33.8284 34.5 33 34.5H3C2.17158 34.5 1.5 33.8284 1.5 33V10.5ZM20.6894 13.9393C21.2751 13.3536 22.2249 13.3536 22.8106 13.9393L25.8106 16.9394C26.3964 17.5251 26.3964 18.4749 25.8106 19.0606L15.3106 29.5606C15.0294 29.8419 14.6478 30 14.25 30H11.25C10.4216 30 9.75 29.3284 9.75 28.5V25.5C9.75 25.1022 9.90804 24.7206 10.1893 24.4394L20.6894 13.9393Z" fill="black"/>
</g>
</svg>
