<svg width="85" height="13" viewBox="0 0 85 13" fill="none" xmlns="http://www.w3.org/2000/svg">
<path d="M0.686876 12V0.479187H2.77295V5.53633L2.50429 5.26767H8.98376L8.7151 5.53633V0.479187H10.8012V12H8.7151V6.78482L8.98376 7.05348H2.50429L2.77295 6.78482V12H0.686876ZM16.8167 12.1422C16.1845 12.1422 15.6156 12.0474 15.1099 11.8578C14.6042 11.6576 14.1617 11.3679 13.7824 10.9886C13.4136 10.6093 13.1292 10.151 12.929 9.61366C12.7393 9.07634 12.6445 8.47053 12.6445 7.79625C12.6445 6.93232 12.8078 6.17375 13.1344 5.52053C13.4716 4.86732 13.9509 4.35633 14.5725 3.98758C15.1942 3.61883 15.9422 3.43446 16.8167 3.43446C17.4383 3.43446 18.0019 3.53455 18.5076 3.73473C19.0134 3.9349 19.4453 4.22464 19.8035 4.60392C20.1723 4.98321 20.4567 5.44151 20.6569 5.97883C20.8571 6.50562 20.9572 7.11142 20.9572 7.79625C20.9572 8.64964 20.7886 9.40294 20.4515 10.0562C20.1249 10.7094 19.6508 11.2204 19.0292 11.5891C18.4181 11.9579 17.6806 12.1422 16.8167 12.1422ZM16.8009 10.5145C17.2328 10.5145 17.6121 10.4144 17.9387 10.2142C18.2653 10.0035 18.5182 9.69794 18.6973 9.29759C18.8764 8.88669 18.9659 8.38625 18.9659 7.79625C18.9659 7.35375 18.9133 6.96392 18.8079 6.62678C18.7131 6.2791 18.5709 5.98937 18.3812 5.75758C18.1916 5.5258 17.965 5.35196 17.7017 5.23607C17.4383 5.12017 17.1433 5.06223 16.8167 5.06223C16.3847 5.06223 16.0001 5.16758 15.663 5.3783C15.3364 5.57848 15.0835 5.88401 14.9044 6.29491C14.7253 6.69526 14.6358 7.19571 14.6358 7.79625C14.6358 8.23875 14.6832 8.63384 14.778 8.98152C14.8834 9.31866 15.0309 9.60312 15.2205 9.83491C15.4101 10.0562 15.6367 10.2247 15.9 10.3406C16.174 10.4565 16.4742 10.5145 16.8009 10.5145ZM25.6153 12.158C24.8673 12.158 24.2246 12.0421 23.6873 11.8104C23.1499 11.568 22.7338 11.2362 22.4388 10.8147C22.1543 10.3933 22.0121 9.90339 22.0121 9.345H23.9559C23.9665 9.82964 24.1298 10.1826 24.4458 10.4038C24.7619 10.6251 25.1728 10.7357 25.6785 10.7357C26.1737 10.7357 26.5477 10.6462 26.8006 10.4671C27.064 10.2774 27.1957 10.0193 27.1957 9.69268C27.1957 9.42928 27.1377 9.2291 27.0218 9.09214C26.9059 8.94464 26.7163 8.83402 26.4529 8.76027C26.1895 8.67598 25.8418 8.60223 25.4099 8.53902C24.704 8.43366 24.114 8.29143 23.6399 8.11232C23.1657 7.92268 22.8128 7.66455 22.581 7.33794C22.3492 7.01134 22.2333 6.57937 22.2333 6.04205C22.2333 5.51526 22.3756 5.05696 22.66 4.66714C22.9445 4.27732 23.3449 3.97705 23.8611 3.76633C24.3774 3.54508 24.9832 3.43446 25.6785 3.43446C26.3528 3.43446 26.9375 3.54508 27.4327 3.76633C27.9384 3.97705 28.3282 4.28258 28.6022 4.68294C28.8866 5.07276 29.0341 5.5416 29.0447 6.08946H27.1008C27.1008 5.79446 27.0376 5.55741 26.9112 5.3783C26.7953 5.18866 26.6267 5.05169 26.4055 4.96741C26.1842 4.88312 25.9261 4.84098 25.6311 4.84098C25.1886 4.84098 24.8409 4.9358 24.5881 5.12544C24.3352 5.30455 24.2088 5.55214 24.2088 5.86821C24.2088 6.1 24.272 6.28964 24.3984 6.43714C24.5354 6.5741 24.7514 6.68473 25.0464 6.76901C25.3414 6.8533 25.7207 6.92705 26.1842 6.99026C26.6899 7.06401 27.1272 7.15884 27.4959 7.27473C27.8752 7.39062 28.1913 7.54866 28.4441 7.74884C28.697 7.93848 28.8866 8.1808 29.0131 8.4758C29.15 8.76027 29.2185 9.10794 29.2185 9.51884C29.2185 10.3617 28.8866 11.0149 28.2229 11.4785C27.5697 11.9315 26.7005 12.158 25.6153 12.158ZM33.4292 12C32.9129 12 32.5073 11.9262 32.2123 11.7787C31.9278 11.6207 31.7277 11.3995 31.6118 11.115C31.4959 10.8305 31.4379 10.4881 31.4379 10.0878V5.18866H29.8892V3.59249H31.4379V1.22196L33.3976 1.01651V3.59249H35.1834V5.18866H33.3976V9.72428C33.3976 9.98768 33.4555 10.1668 33.5714 10.2616C33.6873 10.3459 33.8664 10.388 34.1087 10.388H35.1834V12H33.4292ZM39.346 12.1422C38.8403 12.1422 38.3767 12.0527 37.9553 11.8736C37.5444 11.6839 37.1862 11.4047 36.8807 11.036C36.5857 10.6672 36.3591 10.2142 36.2011 9.67687C36.0431 9.12902 35.9641 8.50214 35.9641 7.79625C35.9641 6.8375 36.101 6.03678 36.3749 5.3941C36.6594 4.74089 37.0545 4.25098 37.5602 3.92437C38.0765 3.59776 38.6717 3.43446 39.346 3.43446C39.8096 3.43446 40.2205 3.50821 40.5787 3.65571C40.9474 3.79267 41.2635 3.98758 41.5269 4.24044C41.7903 4.4933 41.9905 4.79357 42.1275 5.14124H42.2381L42.3171 3.59249H44.2135V12H42.2381V10.4354H42.1275C41.9273 10.9517 41.5849 11.3679 41.1002 11.6839C40.6156 11.9895 40.0308 12.1422 39.346 12.1422ZM40.0888 10.5303C40.5629 10.5303 40.9527 10.4196 41.2583 10.1984C41.5743 9.97714 41.8114 9.69268 41.9694 9.345C42.1275 8.98678 42.2065 8.61277 42.2065 8.22294V7.35375C42.2065 6.95339 42.1275 6.57937 41.9694 6.23169C41.8114 5.87348 41.5743 5.58901 41.2583 5.3783C40.9527 5.15705 40.5629 5.04642 40.0888 5.04642C39.6674 5.04642 39.2986 5.14651 38.9825 5.34669C38.6665 5.54687 38.4189 5.85241 38.2398 6.2633C38.0607 6.66366 37.9711 7.17464 37.9711 7.79625C37.9711 8.39678 38.0607 8.9025 38.2398 9.31339C38.4189 9.72428 38.6665 10.0298 38.9825 10.23C39.2986 10.4302 39.6674 10.5303 40.0888 10.5303ZM49.0998 12.1422C48.5941 12.1422 48.1305 12.0527 47.7091 11.8736C47.2982 11.6839 46.94 11.4047 46.6344 11.036C46.3394 10.6672 46.1129 10.2142 45.9549 9.67687C45.7968 9.12902 45.7178 8.50214 45.7178 7.79625C45.7178 6.8375 45.8548 6.03678 46.1287 5.3941C46.4132 4.74089 46.8083 4.25098 47.314 3.92437C47.8302 3.59776 48.4255 3.43446 49.0998 3.43446C49.5634 3.43446 49.9743 3.50821 50.3325 3.65571C50.7012 3.79267 51.0173 3.98758 51.2807 4.24044C51.5441 4.4933 51.7443 4.79357 51.8812 5.14124H51.9918V0.479187H53.9673L53.9515 12H52.0551L51.9918 10.4354H51.8812C51.681 10.9517 51.3386 11.3679 50.854 11.6839C50.3693 11.9895 49.7846 12.1422 49.0998 12.1422ZM49.8426 10.5303C50.3167 10.5303 50.7065 10.4196 51.012 10.1984C51.3281 9.97714 51.5652 9.69268 51.7232 9.345C51.8812 8.98678 51.9602 8.61277 51.9602 8.22294V7.35375C51.9602 7.04821 51.9128 6.75848 51.818 6.48455C51.7337 6.21062 51.602 5.9683 51.4229 5.75758C51.2543 5.53633 51.0331 5.36249 50.7592 5.23607C50.4958 5.10964 50.1902 5.04642 49.8426 5.04642C49.4211 5.04642 49.0524 5.14651 48.7363 5.34669C48.4202 5.54687 48.1726 5.85241 47.9935 6.2633C47.8144 6.66366 47.7249 7.17464 47.7249 7.79625C47.7249 8.39678 47.8144 8.9025 47.9935 9.31339C48.1726 9.72428 48.4202 10.0298 48.7363 10.23C49.0524 10.4302 49.4211 10.5303 49.8426 10.5303ZM57.9347 12L54.9953 3.57669H57.1288L58.5985 8.41259L59.12 10.3406H59.1832L59.7047 8.42839L61.1745 3.57669H63.308L60.3843 12H57.9347ZM64.3425 12V3.59249H66.3179V12H64.3425ZM64.3425 2.40722V0.479187H66.3179V2.40722H64.3425ZM72.0509 12.1422C71.4293 12.1422 70.8657 12.0421 70.3599 11.842C69.8542 11.6312 69.417 11.3362 69.0482 10.957C68.6795 10.5671 68.4003 10.1088 68.2106 9.58205C68.021 9.04473 67.9262 8.44946 67.9262 7.79625C67.9262 6.91125 68.0948 6.14741 68.4319 5.50473C68.7796 4.85151 69.2642 4.3458 69.8858 3.98758C70.518 3.61883 71.2607 3.43446 72.1141 3.43446C72.82 3.43446 73.4469 3.56615 73.9948 3.82955C74.5426 4.09294 74.9799 4.46169 75.3065 4.9358C75.6436 5.39937 75.828 5.94196 75.8596 6.56357H73.9315C73.8789 6.23696 73.763 5.96303 73.5839 5.74178C73.4153 5.52053 73.1993 5.35196 72.9359 5.23607C72.6725 5.12017 72.3828 5.06223 72.0667 5.06223C71.6137 5.06223 71.2239 5.17812 70.8973 5.40991C70.5707 5.63116 70.3231 5.94723 70.1545 6.35812C69.9965 6.76901 69.9174 7.24839 69.9174 7.79625C69.9174 8.39678 70.007 8.89723 70.1861 9.29759C70.3652 9.69794 70.6128 10.0035 70.9289 10.2142C71.2555 10.4144 71.6295 10.5145 72.0509 10.5145C72.4197 10.5145 72.741 10.4512 73.0149 10.3248C73.2889 10.1879 73.5048 10.0035 73.6629 9.77169C73.8315 9.52937 73.9315 9.25544 73.9632 8.94991H75.8912C75.849 9.59259 75.6594 10.1562 75.3223 10.6409C74.9851 11.115 74.5374 11.4837 73.979 11.7471C73.4206 12.0105 72.7779 12.1422 72.0509 12.1422ZM80.9224 12.1422C80.069 12.1422 79.3421 11.9684 78.7415 11.6207C78.1515 11.2625 77.6985 10.7621 77.3824 10.1194C77.0663 9.46616 76.9083 8.70759 76.9083 7.84366C76.9083 6.94812 77.0663 6.17375 77.3824 5.52053C77.6985 4.85678 78.1515 4.3458 78.7415 3.98758C79.3315 3.62937 80.0321 3.45026 80.8434 3.45026C81.7705 3.45026 82.5291 3.65571 83.1191 4.0666C83.7196 4.46696 84.1516 5.02535 84.415 5.74178C84.6784 6.45821 84.768 7.28 84.6837 8.20714H78.8363C78.8363 8.74446 78.9206 9.1975 79.0892 9.56625C79.2683 9.92446 79.5106 10.1984 79.8162 10.388C80.1322 10.5671 80.501 10.6567 80.9224 10.6567C81.4176 10.6567 81.8285 10.5408 82.1551 10.309C82.4817 10.0667 82.6924 9.75589 82.7872 9.37661H84.6363C84.573 9.94553 84.3729 10.4407 84.0357 10.8621C83.6986 11.273 83.2613 11.5891 82.724 11.8104C82.1867 12.0316 81.5862 12.1422 80.9224 12.1422ZM78.8363 7.1483L78.6625 6.94285H82.9453L82.7556 7.1641C82.7767 6.64785 82.7082 6.22642 82.5502 5.89982C82.3921 5.57321 82.1656 5.33089 81.8706 5.17285C81.5756 5.01482 81.2332 4.9358 80.8434 4.9358C80.443 4.9358 80.0954 5.02008 79.8004 5.18866C79.5054 5.35723 79.2736 5.61008 79.105 5.94723C78.9364 6.27383 78.8469 6.67419 78.8363 7.1483Z" fill="#454545"/>
</svg>
