<svg width="60" height="60" viewBox="0 0 60 60" fill="none" xmlns="http://www.w3.org/2000/svg">
<rect x="0.46875" y="0.46875" width="59.0625" height="59.0625" rx="18.2812" stroke="#E6A55B" stroke-width="0.9375"/>
<rect x="3" y="3" width="54" height="54" rx="18.75" fill="#E6A55B"/>
<g clip-path="url(#clip0_654_1355)">
<path d="M44.6625 32.55C44.5765 32.4636 44.4742 32.395 44.3616 32.3484C44.2489 32.3017 44.1282 32.2778 44.0062 32.2781H43.9969C43.9089 32.2744 43.8227 32.2524 43.7436 32.2137C43.6646 32.175 43.5944 32.1203 43.5375 32.0531C43.4121 31.9085 43.3168 31.7403 43.2572 31.5584C43.1977 31.3765 43.175 31.1845 43.1906 30.9937C43.1972 30.8662 43.1779 30.7387 43.1338 30.6189C43.0898 30.499 43.0219 30.3894 42.9343 30.2965C42.8466 30.2036 42.7411 30.1295 42.6241 30.0785C42.507 30.0276 42.3808 30.0008 42.2531 30H32.7469C32.6192 30.0008 32.493 30.0276 32.3759 30.0785C32.2589 30.1295 32.1533 30.2036 32.0657 30.2965C31.9781 30.3894 31.9102 30.499 31.8662 30.6189C31.8221 30.7387 31.8028 30.8662 31.8094 30.9937C31.825 31.1845 31.8023 31.3765 31.7427 31.5584C31.6832 31.7403 31.5879 31.9085 31.4625 32.0531C31.4056 32.1203 31.3354 32.175 31.2564 32.2137C31.1773 32.2524 31.0911 32.2744 31.0031 32.2781H30.9656C30.8481 32.2792 30.7319 32.3038 30.6241 32.3505C30.5162 32.3972 30.4187 32.465 30.3375 32.55C30.2489 32.6368 30.1784 32.7404 30.1302 32.8546C30.0819 32.9689 30.0568 33.0916 30.0562 33.2156C30.0562 42.8719 37.1812 44.9437 37.2469 44.9625C37.4119 45.0125 37.5881 45.0125 37.7531 44.9625C37.8187 44.9437 44.9437 42.8719 44.9437 33.2156C44.9432 33.0916 44.9181 32.9689 44.8698 32.8546C44.8215 32.7404 44.7511 32.6368 44.6625 32.55ZM40.7437 35.6344L37.9312 38.4469C37.8442 38.5345 37.7404 38.6038 37.6261 38.6505C37.5117 38.6972 37.3891 38.7204 37.2656 38.7187C37.1435 38.7203 37.0224 38.697 36.9095 38.6503C36.7967 38.6036 36.6946 38.5343 36.6094 38.4469L35.0906 36.9281C34.9153 36.7528 34.8169 36.5151 34.8169 36.2672C34.8169 36.0193 34.9153 35.7815 35.0906 35.6062C35.2659 35.431 35.5037 35.3325 35.7516 35.3325C35.9995 35.3325 36.2372 35.431 36.4125 35.6062L37.2656 36.4594L39.4219 34.3125C39.5972 34.1372 39.8349 34.0387 40.0828 34.0387C40.3307 34.0387 40.5685 34.1372 40.7437 34.3125C40.919 34.4878 41.0175 34.7255 41.0175 34.9734C41.0175 35.2213 40.919 35.4591 40.7437 35.6344Z" fill="white"/>
<path d="M35.625 15H20.625C19.8798 15.0022 19.1657 15.2993 18.6387 15.8262C18.1118 16.3532 17.8147 17.0673 17.8125 17.8125V40.3125C17.8147 41.0577 18.1118 41.7718 18.6387 42.2988C19.1657 42.8257 19.8798 43.1228 20.625 43.125H31.4625C30.3642 41.8195 29.5317 40.3118 29.0119 38.6869C28.9599 38.8829 28.8449 39.0565 28.6847 39.1808C28.5245 39.3051 28.3278 39.3734 28.125 39.375H22.5C22.2514 39.375 22.0129 39.2762 21.8371 39.1004C21.6613 38.9246 21.5625 38.6861 21.5625 38.4375C21.5625 38.1889 21.6613 37.9504 21.8371 37.7746C22.0129 37.5988 22.2514 37.5 22.5 37.5H28.125C28.3463 37.5027 28.5593 37.5849 28.725 37.7316C28.3541 36.2552 28.1714 34.7378 28.1813 33.2156C28.1864 32.7457 28.3099 32.2846 28.5403 31.875H22.5C22.2514 31.875 22.0129 31.7762 21.8371 31.6004C21.6613 31.4246 21.5625 31.1861 21.5625 30.9375C21.5625 30.6889 21.6613 30.4504 21.8371 30.2746C22.0129 30.0988 22.2514 30 22.5 30H29.0625C29.2526 30.0005 29.4381 30.0591 29.5939 30.1681C29.7498 30.277 29.8686 30.431 29.9344 30.6094L29.9531 30.6C30.0364 29.9175 30.3665 29.2891 30.8811 28.8332C31.3957 28.3773 32.0594 28.1254 32.7469 28.125H22.5C22.2514 28.125 22.0129 28.0262 21.8371 27.8504C21.6613 27.6746 21.5625 27.4361 21.5625 27.1875C21.5625 26.9389 21.6613 26.7004 21.8371 26.5246C22.0129 26.3488 22.2514 26.25 22.5 26.25H33.75C33.9986 26.25 34.2371 26.3488 34.4129 26.5246C34.5887 26.7004 34.6875 26.9389 34.6875 27.1875C34.6875 27.4361 34.5887 27.6746 34.4129 27.8504C34.2371 28.0262 33.9986 28.125 33.75 28.125H38.4375V17.8125C38.4353 17.0673 38.1382 16.3532 37.6113 15.8262C37.0843 15.2993 36.3702 15.0022 35.625 15ZM22.5 33.75H27.1875C27.4361 33.75 27.6746 33.8488 27.8504 34.0246C28.0262 34.2004 28.125 34.4389 28.125 34.6875C28.125 34.9361 28.0262 35.1746 27.8504 35.3504C27.6746 35.5262 27.4361 35.625 27.1875 35.625H22.5C22.2514 35.625 22.0129 35.5262 21.8371 35.3504C21.6613 35.1746 21.5625 34.9361 21.5625 34.6875C21.5625 34.4389 21.6613 34.2004 21.8371 34.0246C22.0129 33.8488 22.2514 33.75 22.5 33.75ZM25.3125 18.75H30.9375C31.1861 18.75 31.4246 18.8488 31.6004 19.0246C31.7762 19.2004 31.875 19.4389 31.875 19.6875C31.875 19.9361 31.7762 20.1746 31.6004 20.3504C31.4246 20.5262 31.1861 20.625 30.9375 20.625H25.3125C25.0639 20.625 24.8254 20.5262 24.6496 20.3504C24.4738 20.1746 24.375 19.9361 24.375 19.6875C24.375 19.4389 24.4738 19.2004 24.6496 19.0246C24.8254 18.8488 25.0639 18.75 25.3125 18.75ZM33.75 24.375H22.5C22.2514 24.375 22.0129 24.2762 21.8371 24.1004C21.6613 23.9246 21.5625 23.6861 21.5625 23.4375C21.5625 23.1889 21.6613 22.9504 21.8371 22.7746C22.0129 22.5988 22.2514 22.5 22.5 22.5H33.75C33.9986 22.5 34.2371 22.5988 34.4129 22.7746C34.5887 22.9504 34.6875 23.1889 34.6875 23.4375C34.6875 23.6861 34.5887 23.9246 34.4129 24.1004C34.2371 24.2762 33.9986 24.375 33.75 24.375Z" fill="white"/>
</g>
<defs>
<clipPath id="clip0_654_1355">
<rect width="30" height="30" fill="white" transform="translate(15 15)"/>
</clipPath>
</defs>
</svg>
