<svg width="60" height="60" viewBox="0 0 60 60" fill="none" xmlns="http://www.w3.org/2000/svg">
<rect x="0.46875" y="0.46875" width="59.0625" height="59.0625" rx="18.2812" stroke="#5ABE86" stroke-width="0.9375"/>
<rect x="3" y="3" width="54" height="54" rx="18.75" fill="#5ABE86"/>
<path d="M36.4414 43.7301L36.8206 41.885L38.7813 38.7497H39.3131V30.3058H30.7443C30.097 30.3058 29.5698 30.833 29.5698 31.4804V32.6445C29.6848 32.6068 29.8053 32.5813 29.9327 32.5813H31.8885V33.4497H29.9327C29.762 33.4497 29.6229 33.5886 29.6229 33.7595C29.623 33.8031 29.6238 34.7957 29.6238 34.8604C29.6683 34.8603 31.7517 34.8592 31.8885 34.8591V35.7275H29.5823C29.5778 35.7275 29.5742 35.7299 29.5698 35.7301V37.0665C29.1536 37.2469 28.8669 37.6584 28.8669 38.1393V39.0457C28.8669 39.4942 29.2322 39.8596 29.6808 39.8596H34.1802C33.3763 42.0588 33.3755 41.972 33.3755 42.1116V43.4526C33.3755 44.3081 34.0692 44.9971 34.9201 44.9971C35.6738 44.9971 36.312 44.4607 36.4414 43.7301ZM45.001 30.2596H40.1825V38.7497H45.001V30.2596ZM42.4119 33.0182H41.544V32.227H42.4119V33.0182ZM16.1764 37.2286L16.9658 36.8673C16.2374 35.275 15.868 33.5653 15.868 31.7856H15C15 33.6908 15.3956 35.522 16.1764 37.2286ZM28.2144 44.1316C26.4342 44.1316 24.7245 43.7624 23.1327 43.034L22.7714 43.8234C24.4775 44.6042 26.3087 45 28.2144 45V44.1316ZM44.1316 28.2144H44.9995C44.9995 26.1452 44.5105 24.0916 43.5847 22.2756L42.8116 22.6698C43.675 24.3644 44.1316 26.2816 44.1316 28.2144ZM31.7851 15V15.8684C33.741 15.8684 35.6083 16.311 37.3356 17.1843L37.7276 16.4094C35.8774 15.4744 33.8783 15 31.7851 15ZM19.1189 43.8411C20.7466 43.8411 22.0738 42.5139 22.0738 40.8815C22.0738 39.2538 20.7466 37.9266 19.1189 37.9266C17.4865 37.9266 16.1594 39.2538 16.1594 40.8815C16.1594 42.5139 17.4865 43.8411 19.1189 43.8411ZM43.7571 19.1983C43.7571 17.5659 42.4345 16.2388 40.8021 16.2388C39.1744 16.2388 37.8472 17.5659 37.8472 19.1983C37.8472 20.826 39.1744 22.1532 40.8021 22.1532C42.4345 22.1532 43.7571 20.826 43.7571 19.1983ZM26.6391 16.5483C26.6391 15.6928 25.9455 15.0038 25.0946 15.0038C24.3408 15.0038 23.7027 15.5402 23.5732 16.2708L23.194 18.1159L21.2333 21.2512H20.7015V29.6951H29.2703C29.9177 29.6951 30.4449 29.1679 30.4449 28.5205V27.3565C30.3299 27.3941 30.2094 27.4196 30.0819 27.4196H28.1261V26.5512H30.0819C30.2526 26.5512 30.3917 26.4124 30.3917 26.2414C30.3917 26.1978 30.3909 25.2052 30.3908 25.1406C30.3464 25.1406 28.2629 25.1417 28.1261 25.1418V24.2734H30.4324C30.4368 24.2734 30.4405 24.2711 30.4449 24.2709V22.9344C30.861 22.7541 31.1478 22.3425 31.1478 21.8616V20.9552C31.1478 20.5067 30.7824 20.1413 30.3339 20.1413H25.8345C26.6384 17.9422 26.6391 18.029 26.6391 17.8893V16.5483ZM19.8321 21.2512H15.0137V29.7414H19.8321V21.2512ZM18.4707 27.7739H17.6027V26.9827H18.4707V27.7739Z" fill="white"/>
</svg>
