<svg width="60" height="60" viewBox="0 0 60 60" fill="none" xmlns="http://www.w3.org/2000/svg">
<rect x="0.46875" y="0.46875" width="59.0625" height="59.0625" rx="18.2812" stroke="#DD504E" stroke-width="0.9375"/>
<rect x="3" y="3" width="54" height="54" rx="18.75" fill="#DD504E"/>
<path d="M26.603 39.9267L24 44.3385C23.9118 44.4708 23.7794 44.5591 23.603 44.5591C23.4265 44.5591 23.2941 44.4708 23.2059 44.3385L20.603 39.9267C20.4706 39.7061 20.5588 39.4414 20.7794 39.3091C22.6324 38.2943 24.5294 38.2943 26.3824 39.3091C26.6471 39.4414 26.7353 39.7061 26.603 39.9267ZM41.8236 15.4414H18.1765C17.4706 15.4414 16.853 16.0149 16.853 16.7649V30.6179C16.853 31.3238 17.4265 31.9414 18.1765 31.9414H19.6765V19.7649C19.6765 18.6179 20.6471 17.6914 21.8824 17.6914H25.3236C26.5147 17.6914 27.5294 18.6179 27.5294 19.7649V31.8973H34.6765L37.6324 34.5443C38.3824 35.2061 39.5736 34.8532 39.7941 33.8826L40.2353 31.8973H41.8236C42.5294 31.8973 43.1471 31.3238 43.1471 30.5738V16.7649C43.103 16.0149 42.5294 15.4414 41.8236 15.4414ZM38.6912 27.9708H30.1765V27.0885H38.6912V27.9708ZM38.6912 24.1326H30.1765V23.2502H38.6912V24.1326ZM38.6912 20.2502H30.1765V19.3679H38.6912V20.2502Z" fill="white"/>
<path d="M23.1618 22.9409H20.5588V38.4262C21.3971 37.985 22.2794 37.7644 23.1618 37.6762V22.9409ZM26.6471 22.0585V19.7644C26.6471 19.1027 26.0735 18.5732 25.3235 18.5732H21.8824C21.1765 18.5732 20.5588 19.1027 20.5588 19.7644V22.0585H26.6471ZM24.0441 22.9409V37.6762C24.9265 37.7203 25.8088 37.985 26.6471 38.4262V22.9409H24.0441Z" fill="white"/>
</svg>
