<svg width="109" height="21" viewBox="0 0 109 21" fill="none" xmlns="http://www.w3.org/2000/svg">
<g id="SVG" clip-path="url(#clip0_470_20018)">
<g id="Layer_1_starsRatingFeb21Serchen">
<g id="Group">
<g id="Clip path group">
<mask id="mask0_470_20018" style="mask-type:luminance" maskUnits="userSpaceOnUse" x="0" y="0" width="21" height="21">
<g id="SVGID_2_starsRatingFeb21Serchen">
<path id="Vector" d="M20.3596 8.25616L12.9724 7.77846L10.1825 0.78125L7.39265 7.77846L0.0217285 8.25616L5.67747 13.0712L3.82117 20.3669L10.1825 16.3391L16.5439 20.3669L14.6876 13.0712L20.3596 8.25616Z" fill="white"/>
</g>
</mask>
<g mask="url(#mask0_470_20018)">
<path id="Vector_2" d="M99.8928 0.78125H0.0217285V20.3669H99.8928V0.78125Z" fill="#73CF11"/>
</g>
</g>
</g>
<g id="Group_2">
<g id="Clip path group_2">
<mask id="mask1_470_20018" style="mask-type:luminance" maskUnits="userSpaceOnUse" x="22" y="0" width="21" height="21">
<g id="SVGID_4_starsRatingFeb21Serchen">
<path id="Vector_3" d="M42.4084 8.25616L35.0212 7.77846L32.2314 0.78125L29.4469 7.77846L22.0706 8.25616L27.7263 13.0712L25.87 20.3669L32.2314 16.3391L38.5981 20.3669L36.7364 13.0712L42.4084 8.25616Z" fill="white"/>
</g>
</mask>
<g mask="url(#mask1_470_20018)">
<path id="Vector_4" d="M99.8889 0.78125H0.0178223V20.3669H99.8889V0.78125Z" fill="#73CF11"/>
</g>
</g>
</g>
<g id="Group_3">
<g id="Clip path group_3">
<mask id="mask2_470_20018" style="mask-type:luminance" maskUnits="userSpaceOnUse" x="44" y="0" width="21" height="21">
<g id="SVGID_6_starsRatingFeb21Serchen">
<path id="Vector_5" d="M64.4733 8.25616L57.0861 7.77846L54.3017 0.78125L51.5118 7.77846L44.1409 8.25616L49.7966 13.0712L47.9349 20.3669L54.3017 16.3391L60.663 20.3669L58.8013 13.0712L64.4733 8.25616Z" fill="white"/>
</g>
</mask>
<g mask="url(#mask2_470_20018)">
<path id="Vector_6" d="M99.8989 0.78125H0.027832V20.3669H99.8989V0.78125Z" fill="#73CF11"/>
</g>
</g>
</g>
<g id="Group_4">
<g id="Clip path group_4">
<mask id="mask3_470_20018" style="mask-type:luminance" maskUnits="userSpaceOnUse" x="66" y="0" width="21" height="21">
<g id="SVGID_8_starsRatingFeb21Serchen">
<path id="Vector_7" d="M86.5295 8.25616L79.1423 7.77846L76.3524 0.78125L73.5626 7.77846L66.1917 8.25616L71.8474 13.0712L69.9857 20.3669L76.3524 16.3391L82.7138 20.3669L80.8575 13.0712L86.5295 8.25616Z" fill="white"/>
</g>
</mask>
<g mask="url(#mask3_470_20018)">
<path id="Vector_8" d="M99.8967 0.78125H0.0256348V20.3669H99.8967V0.78125Z" fill="#73CF11"/>
</g>
</g>
</g>
<g id="Group_5">
<g id="Clip path group_5">
<mask id="mask4_470_20018" style="mask-type:luminance" maskUnits="userSpaceOnUse" x="88" y="0" width="21" height="21">
<g id="SVGID_10_starsRatingFeb21Serchen">
<path id="Vector_9" d="M108.58 8.25616L101.193 7.77846L98.403 0.78125L95.6131 7.77846L88.2422 8.25616L93.8979 13.0712L92.0416 20.3669L98.403 16.3391L104.764 20.3669L102.908 13.0712L108.58 8.25616Z" fill="white"/>
</g>
</mask>
<g mask="url(#mask4_470_20018)">
<path id="Vector_10" d="M99.8965 0.78125H0.0253906V20.3669H99.8965V0.78125Z" fill="#73CF11"/>
</g>
</g>
</g>
</g>
<g id="Layer_1_starsRatingFeb21_copy_2Serchen">
<path id="Vector_11" d="M10.1842 2.24692L12.4693 7.97931L12.5942 8.29959L12.9361 8.3213L18.9827 8.71215L14.3365 12.6586L14.076 12.8757L14.1574 13.2069L15.6771 19.1781L10.4665 15.8776L10.1788 15.6931L9.89114 15.8776L4.68047 19.1781L6.20025 13.2069L6.28166 12.8812L6.02656 12.664L1.39124 8.71758L7.42692 8.32673L7.76888 8.30502L7.89371 7.98474L10.1842 2.24692ZM10.1842 0.78125L7.39436 7.77846L0.0234375 8.25616L5.67918 13.0712L3.82288 20.3669L10.1842 16.3391L16.5456 20.3669L14.6893 13.0712L20.3613 8.25616L12.9741 7.77846L10.1842 0.78125Z" fill="#73CF11"/>
<path id="Vector_12" d="M32.235 2.24692L34.5201 7.97931L34.6449 8.29959L34.9869 8.3213L41.0334 8.71215L36.3873 12.6586L36.1267 12.8757L36.2081 13.2069L37.7279 19.1781L32.5173 15.8776L32.2296 15.6931L31.9419 15.8776L26.7312 19.1781L28.251 13.2069L28.3324 12.8812L28.0773 12.664L23.442 8.71758L29.4777 8.32673L29.8197 8.30502L29.9445 7.98474L32.235 2.24692ZM32.235 0.78125L29.4451 7.77846L22.0742 8.25616L27.73 13.0712L25.8737 20.3669L32.235 16.3391L38.5964 20.3669L36.7401 13.0712L42.4121 8.25616L35.0249 7.77846L32.235 0.78125Z" fill="#73CF11"/>
<path id="Vector_13" d="M54.2956 2.24692L56.5807 7.97931L56.7055 8.29959L57.0474 8.3213L63.094 8.71215L58.4478 12.6586L58.1873 12.8757L58.2687 13.2069L59.7885 19.1781L54.5778 15.8776L54.2901 15.6931L54.0025 15.8776L48.7918 19.1781L50.3116 13.2069L50.393 12.8812L50.1379 12.664L45.5026 8.71758L51.5383 8.32673L51.8802 8.30502L52.005 7.98474L54.2956 2.24692ZM54.2956 0.78125L51.5057 7.77846L44.1348 8.25616L49.7905 13.0712L47.9342 20.3669L54.2956 16.3391L60.6569 20.3669L58.8006 13.0712L64.4726 8.25616L57.0854 7.77846L54.2956 0.78125Z" fill="#73CF11"/>
<path id="Vector_14" d="M76.3502 2.24692L78.6353 7.97931L78.7602 8.29959L79.1021 8.3213L85.1487 8.71215L80.5025 12.6586L80.242 12.8757L80.3234 13.2069L81.8432 19.1781L76.6325 15.8776L76.3448 15.6931L76.0572 15.8776L70.8465 19.1781L72.3663 13.2069L72.4477 12.8812L72.1926 12.664L67.5573 8.71758L73.5929 8.32673L73.9349 8.30502L74.0597 7.98474L76.3502 2.24692ZM76.3502 0.78125L73.5604 7.77846L66.1895 8.25616L71.8452 13.0712L69.9889 20.3669L76.3502 16.3391L82.7116 20.3669L80.8553 13.0712L86.5273 8.25616L79.1401 7.77846L76.3502 0.78125Z" fill="#73CF11"/>
<path id="Vector_15" d="M98.4008 2.24692L100.686 7.97931L100.811 8.29959L101.153 8.3213L107.199 8.71215L102.553 12.6586L102.293 12.8757L102.374 13.2069L103.894 19.1781L98.683 15.8776L98.3954 15.6931L98.1077 15.8776L92.897 19.1781L94.4168 13.2069L94.4982 12.8812L94.2431 12.664L89.6078 8.71758L95.6435 8.32673L95.9854 8.30502L96.1103 7.98474L98.4008 2.24692ZM98.4008 0.78125L95.6109 7.77846L88.24 8.25616L93.8957 13.0712L92.0394 20.3669L98.4008 16.3391L104.762 20.3669L102.906 13.0712L108.578 8.25616L101.191 7.77846L98.4008 0.78125Z" fill="#73CF11"/>
</g>
</g>
<defs>
<clipPath id="clip0_470_20018">
<rect width="108.608" height="19.5857" fill="white" transform="translate(0 0.78125)"/>
</clipPath>
</defs>
</svg>
