<svg width="64" height="14" viewBox="0 0 64 14" fill="none" xmlns="http://www.w3.org/2000/svg">
<path d="M5.42498 13.1466C4.37148 13.1466 3.48632 12.9837 2.76951 12.6579C2.06356 12.3321 1.53138 11.8759 1.17297 11.2894C0.814562 10.7029 0.629928 10.035 0.619067 9.2856H2.81838C2.82924 9.73089 2.92699 10.1165 3.11163 10.4423C3.30712 10.7681 3.60036 11.0233 3.99135 11.208C4.38234 11.3926 4.88737 11.4849 5.50644 11.4849C6.24497 11.4849 6.83689 11.3492 7.28218 11.0776C7.72747 10.7953 7.95012 10.3825 7.95012 9.8395C7.95012 9.52454 7.90125 9.26388 7.8035 9.05752C7.70575 8.84031 7.54284 8.6611 7.31476 8.51991C7.08669 8.37872 6.78258 8.25925 6.40245 8.1615C6.03319 8.06376 5.56617 7.96601 5.00141 7.86826C4.32804 7.75965 3.73069 7.61846 3.20937 7.44469C2.69891 7.26006 2.26991 7.03741 1.92237 6.77675C1.57482 6.51609 1.31416 6.20113 1.14039 5.83186C0.966613 5.45173 0.879727 5.00101 0.879727 4.47969C0.879727 3.76287 1.05893 3.1438 1.41734 2.62249C1.78661 2.10117 2.30792 1.69932 2.9813 1.41693C3.65467 1.12369 4.45837 0.977071 5.3924 0.977071C6.31557 0.977071 7.10298 1.12369 7.75463 1.41693C8.41714 1.71018 8.92759 2.12289 9.286 2.65507C9.64441 3.17639 9.82361 3.78459 9.82361 4.47969H7.65688C7.63516 4.05611 7.52112 3.70857 7.31476 3.43705C7.10841 3.15467 6.83146 2.94831 6.48391 2.81798C6.14722 2.68765 5.75624 2.62249 5.31094 2.62249C4.85479 2.62249 4.45837 2.68765 4.12168 2.81798C3.79586 2.94831 3.54606 3.13294 3.37229 3.37188C3.19851 3.59996 3.11163 3.87691 3.11163 4.20273C3.11163 4.60459 3.20937 4.91412 3.40487 5.13134C3.61122 5.33769 3.93705 5.5006 4.38234 5.62007C4.8385 5.73954 5.42498 5.85901 6.14179 5.97848C6.65225 6.06537 7.14642 6.17397 7.6243 6.3043C8.11303 6.43463 8.54747 6.63013 8.9276 6.89079C9.31858 7.14059 9.62812 7.48813 9.8562 7.93343C10.0843 8.36786 10.1983 8.93262 10.1983 9.62771C10.1983 10.3228 10.0191 10.9364 9.6607 11.4686C9.30229 12.0008 8.77011 12.4135 8.06416 12.7068C7.35821 13 6.47848 13.1466 5.42498 13.1466ZM15.558 13.1466C14.6783 13.1466 13.9289 12.9674 13.3098 12.609C12.7016 12.2397 12.2346 11.7239 11.9088 11.0613C11.5829 10.388 11.42 9.60599 11.42 8.71541C11.42 7.79224 11.5829 6.99397 11.9088 6.32059C12.2346 5.63636 12.7016 5.10961 13.3098 4.74035C13.918 4.37108 14.6403 4.18644 15.4765 4.18644C16.4323 4.18644 17.2143 4.39823 17.8225 4.8218C18.4415 5.23451 18.8868 5.81014 19.1584 6.54867C19.4299 7.28721 19.5222 8.13435 19.4353 9.0901H13.4076C13.4076 9.64401 13.4944 10.111 13.6682 10.4912C13.8529 10.8604 14.1026 11.1428 14.4176 11.3383C14.7434 11.5229 15.1236 11.6152 15.558 11.6152C16.0685 11.6152 16.492 11.4958 16.8287 11.2568C17.1654 11.007 17.3826 10.6866 17.4804 10.2957H19.3864C19.3213 10.8821 19.1149 11.3926 18.7674 11.827C18.4198 12.2506 17.9691 12.5764 17.4152 12.8045C16.8613 13.0326 16.2422 13.1466 15.558 13.1466ZM13.4076 7.99859L13.2284 7.78681H17.6433L17.4478 8.01488C17.4695 7.4827 17.3989 7.04827 17.236 6.71158C17.0731 6.3749 16.8396 6.1251 16.5355 5.96219C16.2314 5.79928 15.8784 5.71782 15.4765 5.71782C15.0638 5.71782 14.7054 5.80471 14.4013 5.97848C14.0972 6.15225 13.8583 6.41291 13.6845 6.76046C13.5107 7.09714 13.4184 7.50985 13.4076 7.99859ZM21.0896 13V4.33306H22.9305L23.0283 5.78298H23.0935C23.289 5.22908 23.6039 4.83266 24.0383 4.59372C24.4836 4.34393 24.9887 4.21903 25.5534 4.21903C25.6512 4.21903 25.7381 4.21903 25.8141 4.21903C25.901 4.21903 25.9824 4.21903 26.0585 4.21903V6.14139C25.9933 6.14139 25.9118 6.14139 25.8141 6.14139C25.7272 6.13053 25.6295 6.1251 25.5209 6.1251C24.9995 6.1251 24.5651 6.21199 24.2176 6.38576C23.87 6.54867 23.6039 6.78761 23.4193 7.10257C23.2455 7.41754 23.1478 7.8031 23.126 8.25925V13H21.0896ZM30.8814 13.1466C30.2406 13.1466 29.6596 13.0434 29.1383 12.8371C28.6169 12.6199 28.1662 12.3158 27.7861 11.9248C27.406 11.5229 27.1182 11.0505 26.9227 10.5074C26.7272 9.95354 26.6294 9.3399 26.6294 8.66653C26.6294 7.75422 26.8032 6.96681 27.1507 6.3043C27.5091 5.63093 28.0087 5.10961 28.6495 4.74035C29.3012 4.36022 30.0669 4.17015 30.9466 4.17015C31.6743 4.17015 32.3205 4.30591 32.8853 4.57743C33.45 4.84895 33.9007 5.22908 34.2374 5.71782C34.585 6.1957 34.775 6.75503 34.8076 7.39582H32.8201C32.7658 7.05913 32.6463 6.77675 32.4617 6.54867C32.2879 6.32059 32.0653 6.14682 31.7937 6.02735C31.5222 5.90788 31.2235 5.84815 30.8977 5.84815C30.4307 5.84815 30.0289 5.96762 29.6922 6.20656C29.3555 6.43463 29.1003 6.76046 28.9265 7.18403C28.7636 7.6076 28.6821 8.10177 28.6821 8.66653C28.6821 9.2856 28.7744 9.80149 28.9591 10.2142C29.1437 10.6269 29.3989 10.9419 29.7248 11.1591C30.0614 11.3654 30.447 11.4686 30.8814 11.4686C31.2616 11.4686 31.5928 11.4035 31.8752 11.2731C32.1576 11.1319 32.3802 10.9419 32.5431 10.7029C32.7169 10.4531 32.8201 10.1708 32.8527 9.85579H34.8402C34.7968 10.5183 34.6013 11.0994 34.2537 11.599C33.9062 12.0877 33.4446 12.4678 32.869 12.7393C32.2933 13.0109 31.6308 13.1466 30.8814 13.1466ZM36.4263 13V1.12369H38.4627V5.97848H38.5605C38.8103 5.37027 39.1904 4.91955 39.7008 4.62631C40.2113 4.3222 40.7815 4.17015 41.4114 4.17015C41.8459 4.17015 42.2477 4.24075 42.617 4.38194C42.9971 4.51227 43.3229 4.72405 43.5944 5.0173C43.8768 5.29968 44.094 5.67438 44.2461 6.14139C44.409 6.59755 44.4905 7.15145 44.4905 7.8031V13H42.4541V8.24296C42.4541 7.69992 42.3889 7.25463 42.2586 6.90708C42.1282 6.54867 41.9273 6.28258 41.6558 6.10881C41.3951 5.93504 41.053 5.84815 40.6294 5.84815C40.1733 5.84815 39.7823 5.95676 39.4565 6.17397C39.1415 6.39119 38.8971 6.679 38.7234 7.03741C38.5496 7.39582 38.4627 7.79224 38.4627 8.22667V13H36.4263ZM50.1928 13.1466C49.313 13.1466 48.5637 12.9674 47.9446 12.609C47.3364 12.2397 46.8694 11.7239 46.5435 11.0613C46.2177 10.388 46.0548 9.60599 46.0548 8.71541C46.0548 7.79224 46.2177 6.99397 46.5435 6.32059C46.8694 5.63636 47.3364 5.10961 47.9446 4.74035C48.5528 4.37108 49.275 4.18644 50.1113 4.18644C51.0671 4.18644 51.8491 4.39823 52.4573 4.8218C53.0763 5.23451 53.5216 5.81014 53.7931 6.54867C54.0647 7.28721 54.157 8.13435 54.0701 9.0901H48.0423C48.0423 9.64401 48.1292 10.111 48.303 10.4912C48.4876 10.8604 48.7374 11.1428 49.0524 11.3383C49.3782 11.5229 49.7583 11.6152 50.1928 11.6152C50.7032 11.6152 51.1268 11.4958 51.4635 11.2568C51.8002 11.007 52.0174 10.6866 52.1151 10.2957H54.0212C53.956 10.8821 53.7497 11.3926 53.4021 11.827C53.0546 12.2506 52.6039 12.5764 52.05 12.8045C51.4961 13.0326 50.877 13.1466 50.1928 13.1466ZM48.0423 7.99859L47.8631 7.78681H52.2781L52.0826 8.01488C52.1043 7.4827 52.0337 7.04827 51.8708 6.71158C51.7079 6.3749 51.4744 6.1251 51.1702 5.96219C50.8661 5.79928 50.5132 5.71782 50.1113 5.71782C49.6986 5.71782 49.3402 5.80471 49.0361 5.97848C48.732 6.15225 48.4931 6.41291 48.3193 6.76046C48.1455 7.09714 48.0532 7.50985 48.0423 7.99859ZM55.7244 13V4.33306H57.6794L57.7608 5.97848H57.8586C58.1084 5.37027 58.4885 4.91955 58.999 4.62631C59.5094 4.3222 60.0796 4.17015 60.7095 4.17015C61.144 4.17015 61.5458 4.24075 61.9151 4.38194C62.2952 4.51227 62.621 4.72405 62.8926 5.0173C63.1749 5.29968 63.3922 5.67438 63.5442 6.14139C63.7071 6.59755 63.7886 7.15145 63.7886 7.8031V13H61.7522V8.24296C61.7522 7.69992 61.687 7.25463 61.5567 6.90708C61.4263 6.54867 61.2254 6.28258 60.9539 6.10881C60.6932 5.93504 60.3511 5.84815 59.9276 5.84815C59.4714 5.84815 59.0804 5.95676 58.7546 6.17397C58.4396 6.39119 58.1952 6.679 58.0215 7.03741C57.8477 7.39582 57.7608 7.79224 57.7608 8.22667V13H55.7244Z" fill="#454545"/>
</svg>
