<svg width="60" height="60" viewBox="0 0 60 60" fill="none" xmlns="http://www.w3.org/2000/svg">
<rect x="0.46875" y="0.46875" width="59.0625" height="59.0625" rx="18.2812" stroke="#CC63D4" stroke-width="0.9375"/>
<rect x="3" y="3" width="54" height="54" rx="18.75" fill="#CC63D4"/>
<g clip-path="url(#clip0_654_1265)">
<path fill-rule="evenodd" clip-rule="evenodd" d="M20.3067 18.4642H22.9271V17.9044C22.9271 17.169 23.5142 16.5679 24.2323 16.5679H26.6873C26.7862 15.6858 27.5185 15 28.4061 15C29.2937 15 30.0259 15.6858 30.1248 16.5679H32.5798C33.298 16.5679 33.885 17.169 33.885 17.9044V18.4642H36.5054C37.736 18.4642 38.7446 19.4949 38.7446 20.7571V32.7236C38.3956 32.6637 38.0386 32.6307 37.6734 32.6307C37.3648 32.6307 37.0642 32.6534 36.7677 32.6968V20.7571C36.7677 20.6083 36.6507 20.4865 36.5054 20.4865H33.8789C33.8184 21.164 33.2576 21.7011 32.5798 21.7011H24.2323C23.5545 21.7011 22.9937 21.164 22.9332 20.4865H20.3067C20.1615 20.4865 20.0424 20.6083 20.0424 20.7571V40.0052C20.0424 40.1539 20.1615 40.2758 20.3067 40.2758H31.3573C31.44 40.7881 31.5853 41.29 31.785 41.7713L31.4925 42.2981H20.3067C19.0762 42.2981 18.0675 41.2673 18.0675 40.0052V20.7571C18.0675 19.4949 19.0762 18.4642 20.3067 18.4642ZM37.6734 33.804C40.5783 33.804 42.9325 36.2146 42.9325 39.1892C42.9325 42.1638 40.5783 44.5745 37.6734 44.5745C36.4328 44.5745 35.2951 44.1345 34.3954 43.4012L31.6821 44.9773C31.6156 45.0145 31.5349 45.0041 31.4824 44.9484C31.4279 44.8926 31.4158 44.812 31.4542 44.7439L33.0781 41.8106C32.6544 41.0359 32.4144 40.1415 32.4144 39.1892C32.4144 36.2146 34.7685 33.804 37.6734 33.804ZM34.8129 38.2741C35.3072 38.2741 35.7066 38.6831 35.7066 39.1892C35.7066 39.6932 35.3072 40.1023 34.8129 40.1023C34.3207 40.1023 33.9213 39.6932 33.9213 39.1892C33.9213 38.6831 34.3207 38.2741 34.8129 38.2741ZM40.5319 38.2741C41.0261 38.2741 41.4256 38.6831 41.4256 39.1892C41.4256 39.6932 41.0261 40.1023 40.5319 40.1023C40.0397 40.1023 39.6403 39.6932 39.6403 39.1892C39.6403 38.6831 40.0397 38.2741 40.5319 38.2741ZM37.6734 38.2741C38.1656 38.2741 38.5651 38.6831 38.5651 39.1892C38.5651 39.6932 38.1656 40.1023 37.6734 40.1023C37.1792 40.1023 36.7798 39.6932 36.7798 39.1892C36.7798 38.6831 37.1792 38.2741 37.6734 38.2741ZM21.2205 34.6819H23.958C24.1738 34.6819 24.3493 34.8616 24.3493 35.0826V37.6048C24.3493 37.8238 24.1738 38.0035 23.958 38.0035H21.2205C21.0047 38.0035 20.8292 37.8238 20.8292 37.6048V35.0826C20.8292 34.8616 21.0047 34.6819 21.2205 34.6819ZM21.1842 36.1113L21.1983 36.0969C21.2851 36.0081 21.4283 36.0081 21.5151 36.0969L22.1929 36.791L23.6453 35.3057C23.7381 35.2086 23.8914 35.2086 23.9842 35.3057C24.077 35.4007 24.077 35.5557 23.9842 35.6528L22.2372 37.4416C22.2292 37.4478 22.2191 37.452 22.209 37.4499V37.452C22.207 37.454 22.2029 37.454 22.2029 37.452L22.1929 37.4416H22.1908L21.8983 37.1401H21.8963L21.1842 36.4109C21.1035 36.3282 21.1035 36.194 21.1842 36.1113ZM21.2568 29.0157H23.9963C24.2122 29.0157 24.3877 29.1975 24.3877 29.4164V31.9386C24.3877 32.1597 24.2122 32.3394 23.9963 32.3394H21.2568C21.043 32.3394 20.8675 32.1597 20.8675 31.9386V29.4164C20.8675 29.1975 21.043 29.0157 21.2568 29.0157ZM21.2226 30.4452L21.2347 30.4328C21.3234 30.3419 21.4666 30.3419 21.5534 30.4328L22.2312 31.1268L23.6836 29.6395C23.7764 29.5445 23.9277 29.5445 24.0225 29.6395C24.1153 29.7346 24.1153 29.8916 24.0225 29.9866L22.2756 31.7755C22.2675 31.7837 22.2574 31.7858 22.2473 31.7837L22.2453 31.7858C22.2453 31.7879 22.2413 31.7879 22.2413 31.7858L22.2292 31.7755L21.9367 31.4739L21.2226 30.7447C21.1419 30.6621 21.1419 30.5278 21.2226 30.4452ZM26.0257 35.6156H32.3034C32.017 36.0659 31.783 36.5534 31.6115 37.0719H26.0257C25.6343 37.0719 25.3156 36.7434 25.3156 36.3427C25.3156 35.942 25.6343 35.6156 26.0257 35.6156ZM26.0257 29.9494H34.7423C35.1337 29.9494 35.4524 30.2778 35.4524 30.6786C35.4524 31.0773 35.1337 31.4057 34.7423 31.4057H26.0257C25.6343 31.4057 25.3156 31.0773 25.3156 30.6786C25.3156 30.2778 25.6343 29.9494 26.0257 29.9494ZM26.0257 24.4856H34.7423C35.1337 24.4856 35.4524 24.8141 35.4524 25.2148C35.4524 25.6156 35.1337 25.942 34.7423 25.942H26.0257C25.6343 25.942 25.3156 25.6156 25.3156 25.2148C25.3156 24.8141 25.6343 24.4856 26.0257 24.4856ZM21.3476 23.554H24.0871C24.3029 23.554 24.4784 23.7337 24.4784 23.9527V26.4749C24.4784 26.6959 24.3029 26.8756 24.0871 26.8756H21.3476C21.1338 26.8756 20.9563 26.6959 20.9563 26.4749V23.9527C20.9563 23.7337 21.1338 23.554 21.3476 23.554ZM21.3133 24.9814L21.3254 24.969C21.4142 24.8802 21.5554 24.8802 21.6442 24.969L22.322 25.6631L23.7724 24.1758C23.8672 24.0808 24.0185 24.0808 24.1113 24.1758C24.2061 24.2708 24.2061 24.4278 24.1133 24.5228L22.3643 26.3117C22.3583 26.32 22.3482 26.322 22.3381 26.322L22.3361 26.3241C22.3341 26.3241 22.3321 26.3241 22.33 26.3241L22.32 26.3138V26.3117L22.0254 26.0122L21.3133 25.2809C21.2326 25.1983 21.2326 25.064 21.3133 24.9814ZM28.4061 15.6073C29.0334 15.6073 29.5438 16.1279 29.5438 16.7724C29.5438 17.4148 29.0334 17.9353 28.4061 17.9353C27.7787 17.9353 27.2683 17.4148 27.2683 16.7724C27.2683 16.1279 27.7787 15.6073 28.4061 15.6073Z" fill="white"/>
</g>
<defs>
<clipPath id="clip0_654_1265">
<rect width="25" height="30" fill="white" transform="translate(18 15)"/>
</clipPath>
</defs>
</svg>
