<svg width="60" height="60" viewBox="0 0 60 60" fill="none" xmlns="http://www.w3.org/2000/svg">
<rect x="0.46875" y="0.46875" width="59.0625" height="59.0625" rx="18.2812" stroke="#CC63D2" stroke-width="0.9375"/>
<rect x="3" y="3" width="54" height="54" rx="18.75" fill="#CC63D2"/>
<path d="M45.8048 42.7655C45.3088 42.3733 44.559 41.0814 43.8554 38.5091C45.3747 36.6469 46.348 34.4001 46.6673 32.0181C46.9867 29.6361 46.6395 27.2122 45.6643 25.0157C44.6891 22.8191 43.1241 20.9359 41.1432 19.5751C39.1622 18.2144 36.8428 17.4294 34.4426 17.3073C32.2691 15.7882 29.6772 14.982 27.0255 15.0003C24.5662 14.9999 22.1571 15.6958 20.0769 17.0075C17.9966 18.3193 16.3303 20.1932 15.2708 22.4125C14.2112 24.6318 13.8017 27.1058 14.0896 29.5482C14.3775 31.9905 15.351 34.3014 16.8976 36.2135C16.5949 37.7635 15.9266 39.2189 14.9481 40.4585C14.8055 40.5478 14.6821 40.6645 14.585 40.8019C14.4879 40.9393 14.4191 41.0946 14.3826 41.2589C14.3461 41.4231 14.3427 41.5929 14.3724 41.7585C14.4022 41.9241 14.4646 42.0821 14.556 42.2234C14.6965 42.3873 14.8753 42.5141 15.0765 42.5926C15.2776 42.671 15.495 42.6987 15.7095 42.6733C17.682 42.6848 21.1426 40.9084 22.4806 40.2163C23.7087 40.6735 25.0011 40.9343 26.3103 40.9891C28.4874 42.5099 31.0834 43.3161 33.739 43.2962C35.2861 43.2982 36.8211 43.0247 38.2723 42.4887C39.5989 43.2154 43.0594 44.9918 45.032 44.9918C45.2474 45.0159 45.4654 44.9864 45.6666 44.9059C45.8679 44.8254 46.0461 44.6964 46.1855 44.5304C46.2774 44.3899 46.3405 44.2325 46.3711 44.0673C46.4017 43.9022 46.3993 43.7326 46.3639 43.5685C46.3284 43.4043 46.2608 43.2488 46.1648 43.111C46.0689 42.9731 45.9465 42.8557 45.8048 42.7655ZM22.2961 37.667L21.8001 37.9438C20.6115 38.6027 19.378 39.177 18.1088 39.6626C18.5935 38.5449 18.9794 37.387 19.2623 36.202L19.4007 35.6137L18.997 35.1638C17.6116 33.6209 16.7041 31.7088 16.3848 29.6599C16.0655 27.611 16.3483 25.5134 17.1986 23.6222C18.049 21.7309 19.4303 20.1273 21.1748 19.0063C22.9193 17.8852 24.9519 17.295 27.0255 17.3073C29.3124 17.2982 31.5399 18.0353 33.3699 19.4068C35.1816 20.7432 36.5253 22.6173 37.2095 24.7621C37.8937 26.9069 37.8836 29.2129 37.1805 31.3516C36.4774 33.4902 35.1173 35.3524 33.2938 36.6728C31.4704 37.9932 29.2768 38.7045 27.0255 38.7051H26.8179L24.903 38.4975C24.2024 38.3623 23.5181 38.1535 22.8613 37.8746L22.2961 37.667Z" fill="white"/>
<path d="M34.0389 27.6896C34.0389 27.4938 33.9611 27.306 33.8227 27.1676C33.6843 27.0291 33.4965 26.9513 33.3007 26.9513H20.0929C19.9144 26.9738 19.7503 27.0606 19.6313 27.1955C19.5124 27.3303 19.4467 27.504 19.4467 27.6838C19.4467 27.8637 19.5124 28.0373 19.6313 28.1722C19.7503 28.3071 19.9144 28.3939 20.0929 28.4163H33.3122C33.504 28.4133 33.6871 28.3358 33.8228 28.2002C33.9584 28.0645 34.036 27.8814 34.0389 27.6896ZM23.7611 25.7632H29.6325C29.8109 25.7408 29.975 25.654 30.094 25.5191C30.213 25.3842 30.2786 25.2106 30.2786 25.0307C30.2786 24.8509 30.213 24.6772 30.094 24.5424C29.975 24.4075 29.8109 24.3207 29.6325 24.2982H23.7611C23.6572 24.2852 23.5517 24.2944 23.4516 24.3252C23.3515 24.356 23.2591 24.4078 23.1806 24.4771C23.1021 24.5464 23.0392 24.6316 22.9961 24.727C22.953 24.8225 22.9307 24.926 22.9307 25.0307C22.9307 25.1355 22.953 25.239 22.9961 25.3344C23.0392 25.4299 23.1021 25.5151 23.1806 25.5844C23.2591 25.6536 23.3515 25.7054 23.4516 25.7363C23.5517 25.7671 23.6572 25.7763 23.7611 25.7632ZM29.6325 29.7083H23.7611C23.6572 29.6952 23.5517 29.7044 23.4516 29.7352C23.3515 29.7661 23.2591 29.8178 23.1806 29.8871C23.1021 29.9564 23.0392 30.0416 22.9961 30.137C22.953 30.2325 22.9307 30.336 22.9307 30.4407C22.9307 30.5455 22.953 30.649 22.9961 30.7444C23.0392 30.8399 23.1021 30.9251 23.1806 30.9944C23.2591 31.0637 23.3515 31.1154 23.4516 31.1463C23.5517 31.1771 23.6572 31.1863 23.7611 31.1732H29.6325C29.8109 31.1508 29.975 31.064 30.094 30.9291C30.213 30.7943 30.2786 30.6206 30.2786 30.4407C30.2786 30.2609 30.213 30.0872 30.094 29.9524C29.975 29.8175 29.8109 29.7307 29.6325 29.7083Z" fill="white"/>
</svg>
