<svg width="60" height="60" viewBox="0 0 60 60" fill="none" xmlns="http://www.w3.org/2000/svg">
<rect x="0.46875" y="0.46875" width="59.0625" height="59.0625" rx="18.2812" stroke="#674AE3" stroke-width="0.9375"/>
<rect x="3" y="3" width="54" height="54" rx="18.75" fill="#674AE3"/>
<path d="M39 35H21.5C20.837 35 20.2011 35.2634 19.7322 35.7322C19.2634 36.2011 19 36.837 19 37.5V42.5C19 43.163 19.2634 43.7989 19.7322 44.2678C20.2011 44.7366 20.837 45 21.5 45H39C39.663 45 40.2989 44.7366 40.7677 44.2678C41.2366 43.7989 41.5 43.163 41.5 42.5V37.5C41.5 36.837 41.2366 36.2011 40.7677 35.7322C40.2989 35.2634 39.663 35 39 35ZM31.5 41.875C31.5 42.0408 31.4341 42.1997 31.3169 42.3169C31.1997 42.4342 31.0407 42.5 30.875 42.5H22.125C21.9592 42.5 21.8003 42.4342 21.6831 42.3169C21.5658 42.1997 21.5 42.0408 21.5 41.875V38.125C21.5 37.9592 21.5658 37.8003 21.6831 37.6831C21.8003 37.5659 21.9592 37.5 22.125 37.5H30.875C31.0407 37.5 31.1997 37.5659 31.3169 37.6831C31.4341 37.8003 31.5 37.9592 31.5 38.125V41.875ZM38.9 38.475L36.4 42.225C36.3428 42.3101 36.2656 42.3798 36.1751 42.428C36.0847 42.4762 35.9837 42.5014 35.8812 42.5014C35.7787 42.5014 35.6778 42.4762 35.5873 42.428C35.4969 42.3798 35.4197 42.3101 35.3625 42.225L32.8625 38.475C32.8079 38.4073 32.7681 38.3289 32.7456 38.2449C32.723 38.1609 32.7183 38.0732 32.7316 37.9872C32.7449 37.9013 32.776 37.8191 32.8229 37.7459C32.8698 37.6726 32.9315 37.61 33.004 37.5619C33.0765 37.5139 33.1582 37.4815 33.2439 37.4669C33.3296 37.4522 33.4175 37.4556 33.5018 37.4769C33.5861 37.4981 33.6651 37.5367 33.7337 37.5902C33.8022 37.6437 33.8589 37.7109 33.9 37.7875L35.875 40.75L37.85 37.775C37.8911 37.6984 37.9477 37.6312 38.0163 37.5777C38.0849 37.5242 38.1638 37.4856 38.2482 37.4644C38.3325 37.4431 38.4203 37.4397 38.506 37.4544C38.5918 37.469 38.6735 37.5014 38.746 37.5495C38.8185 37.5975 38.8801 37.6601 38.927 37.7334C38.9739 37.8066 39.005 37.8888 39.0184 37.9747C39.0317 38.0607 39.0269 38.1484 39.0044 38.2324C38.9818 38.3164 38.942 38.3948 38.8875 38.4625L38.9 38.475ZM22.75 31.25V31.8625C22.75 32.0283 22.8158 32.1873 22.9331 32.3045C23.0503 32.4217 23.2092 32.4875 23.375 32.4875H24.625C24.7908 32.4875 24.9497 32.4217 25.0669 32.3045C25.1841 32.1873 25.25 32.0283 25.25 31.8625V31.4875L26.9125 27.5H33.575L35.25 31.5V31.875C35.25 32.0408 35.3158 32.1997 35.433 32.317C35.5502 32.4342 35.7092 32.5 35.875 32.5H37.125C37.2907 32.5 37.4497 32.4342 37.5669 32.317C37.6841 32.1997 37.75 32.0408 37.75 31.875V31.25C37.748 31.0867 37.714 30.9253 37.65 30.775L31.4 15.775C31.3058 15.5458 31.1456 15.3497 30.9397 15.2117C30.7338 15.0737 30.4916 15 30.2437 15C29.9959 15 29.7536 15.0737 29.5477 15.2117C29.3419 15.3497 29.1817 15.5458 29.0875 15.775L22.8375 30.775C22.7777 30.9262 22.748 31.0875 22.75 31.25ZM30.25 19.5L32.5375 25H27.9625L30.25 19.5Z" fill="white"/>
</svg>
