<svg width="60" height="60" viewBox="0 0 60 60" fill="none" xmlns="http://www.w3.org/2000/svg">
<rect x="0.46875" y="0.46875" width="59.0625" height="59.0625" rx="18.2812" stroke="#E6A55B" stroke-width="0.9375"/>
<rect x="3" y="3" width="54" height="54" rx="18.75" fill="#E6A55B"/>
<path d="M17.3438 29.5312H18.75V32.3438H17.3438V29.5312ZM22.0312 26.7188H23.4375V35.1562H22.0312V26.7188ZM24.375 27.6562H25.7812V34.2188H24.375V27.6562ZM29.0625 22.9688H30.4688V38.4375H29.0625V22.9688ZM34.2188 25.3125H35.625V36.5625H34.2188V25.3125ZM36.5625 27.6562H37.9688V34.2188H36.5625V27.6562ZM41.25 28.5938H42.6562V33.2812H41.25V28.5938Z" fill="white"/>
<path d="M33.2812 40.0968V19.9031C33.6387 19.6967 33.9181 19.3782 34.076 18.9968C34.234 18.6155 34.2617 18.1927 34.1549 17.794C34.048 17.3953 33.8126 17.043 33.4852 16.7918C33.1577 16.5405 32.7565 16.4043 32.3438 16.4043C31.931 16.4043 31.5298 16.5405 31.2023 16.7918C30.8749 17.043 30.6395 17.3953 30.5326 17.794C30.4258 18.1927 30.4535 18.6155 30.6115 18.9968C30.7694 19.3782 31.0488 19.6967 31.4062 19.9031V40.0968C31.0488 40.3032 30.7694 40.6218 30.6115 41.0031C30.4535 41.3844 30.4258 41.8072 30.5326 42.2059C30.6395 42.6046 30.8749 42.9569 31.2023 43.2082C31.5298 43.4594 31.931 43.5956 32.3438 43.5956C32.7565 43.5956 33.1577 43.4594 33.4852 43.2082C33.8126 42.9569 34.048 42.6046 34.1549 42.2059C34.2617 41.8072 34.234 41.3844 34.076 41.0031C33.9181 40.6218 33.6387 40.3032 33.2812 40.0968ZM26.7188 25.3125H28.125V36.5625H26.7188V25.3125ZM38.9062 25.3125H40.3125V36.5625H38.9062V25.3125ZM19.6875 28.5937H21.0938V33.2812H19.6875V28.5937Z" fill="white"/>
</svg>
