<svg width="120" height="23" viewBox="0 0 120 23" fill="none" xmlns="http://www.w3.org/2000/svg">
<g id="Frame">
<path id="Vector" d="M119.07 0.0117188H0V22.7909H119.07V0.0117188Z" fill="#00B67A"/>
<g id="Layer_1_starsRatingFeb21_copy_2TrustpilotReview">
<path id="Vector_2" d="M11.3894 15.364L14.8541 14.486L16.3016 18.9469L11.3894 15.364ZM19.3628 9.59797H13.2641L11.3894 3.85571L9.51472 9.59797H3.41602L8.35194 13.1572L6.47724 18.8995L11.4132 15.3402L14.4506 13.1572L19.3628 9.59797Z" fill="white"/>
<path id="Vector_3" d="M25.514 0.0117188H23.084V22.7909H25.514V0.0117188Z" fill="white"/>
<path id="Vector_4" d="M36.0691 15.364L39.5337 14.486L40.9813 18.9469L36.0691 15.364ZM44.0425 9.59797H37.9438L36.0691 3.85571L34.1944 9.59797H28.0957L33.0316 13.1572L31.1569 18.8995L36.0928 15.3402L39.1303 13.1572L44.0425 9.59797Z" fill="white"/>
<path id="Vector_5" d="M49.8128 0.0117188H47.3828V22.7909H49.8128V0.0117188Z" fill="white"/>
<path id="Vector_6" d="M60.7486 15.364L64.2132 14.486L65.6607 18.9469L60.7486 15.364ZM68.722 9.59797H62.6233L60.7486 3.85571L58.8739 9.59797H52.7751L57.7111 13.1572L55.8364 18.8995L60.7723 15.3402L63.8098 13.1572L68.722 9.59797Z" fill="white"/>
<path id="Vector_7" d="M74.1136 0.0117188H71.6836V22.7909H74.1136V0.0117188Z" fill="white"/>
<path id="Vector_8" d="M85.4285 15.3637L88.8931 14.4858L90.3407 18.9467L85.4285 15.3637ZM93.4019 9.59773H87.3032L85.4285 3.85547L83.5538 9.59773H77.4551L82.391 13.157L80.5163 18.8992L85.4522 15.34L88.4897 13.157L93.4019 9.59773Z" fill="white"/>
<path id="Vector_9" d="M98.4124 0.0117188H95.9824V22.7909H98.4124V0.0117188Z" fill="white"/>
<path id="Vector_10" d="M110.108 15.3637L113.573 14.4858L115.02 18.9467L110.108 15.3637ZM118.082 9.59773H111.983L110.108 3.85547L108.233 9.59773H102.135L107.071 13.157L105.196 18.8992L110.132 15.34L113.169 13.157L118.082 9.59773Z" fill="white"/>
</g>
</g>
</svg>
