<svg width="87" height="22" viewBox="0 0 87 22" fill="none" xmlns="http://www.w3.org/2000/svg">
<g id="Link &#226;&#134;&#146; SVG" clip-path="url(#clip0_470_19926)">
<path id="Vector" d="M22.6602 7.50391H31.3902V9.13254H27.9576V18.2879H26.07V9.13254H22.6526V7.50391H22.6602ZM31.0172 10.4796H32.6308V11.9865H32.6613C32.7145 11.7734 32.8135 11.5679 32.9581 11.37C33.1027 11.1721 33.2778 10.9819 33.4833 10.8221C33.6888 10.6546 33.9171 10.5253 34.1683 10.4187C34.4194 10.3198 34.6782 10.2665 34.937 10.2665C35.1349 10.2665 35.2795 10.2741 35.3556 10.2817C35.4317 10.2893 35.5078 10.3046 35.5916 10.3122V11.9712C35.4698 11.9484 35.348 11.9332 35.2186 11.918C35.0892 11.9027 34.9674 11.8951 34.8457 11.8951C34.5564 11.8951 34.2824 11.956 34.0237 12.0702C33.7649 12.1843 33.5442 12.3594 33.3539 12.5801C33.1636 12.8084 33.0114 13.0824 32.8972 13.4172C32.783 13.7521 32.7298 14.1326 32.7298 14.5664V18.2803H31.0096V10.4796H31.0172ZM43.4995 18.2879H41.8099V17.1996H41.7794C41.5663 17.5954 41.2543 17.9074 40.8356 18.1433C40.417 18.3792 39.9908 18.501 39.557 18.501C38.5295 18.501 37.7836 18.2499 37.3269 17.74C36.8702 17.2301 36.6419 16.4614 36.6419 15.434V10.4796H38.362V15.2666C38.362 15.9515 38.4914 16.4386 38.7578 16.7202C39.0166 17.0017 39.3895 17.1463 39.8614 17.1463C40.2267 17.1463 40.5236 17.0931 40.7671 16.9789C41.0107 16.8648 41.2086 16.7202 41.3532 16.5299C41.5054 16.3473 41.612 16.1189 41.6805 15.8602C41.749 15.6014 41.7794 15.3198 41.7794 15.0154V10.4872H43.4995V18.2879ZM46.4298 15.7841C46.4831 16.2864 46.6734 16.6364 47.0007 16.8419C47.3356 17.0398 47.7313 17.1463 48.1956 17.1463C48.3555 17.1463 48.5381 17.1311 48.7436 17.1083C48.9491 17.0855 49.147 17.0322 49.3221 16.9637C49.5047 16.8952 49.6494 16.7887 49.7711 16.6517C49.8853 16.5147 49.9386 16.3396 49.931 16.1189C49.9234 15.8982 49.8396 15.7156 49.6874 15.5786C49.5352 15.434 49.3449 15.3275 49.109 15.2361C48.873 15.1524 48.6066 15.0763 48.3022 15.0154C47.9977 14.9545 47.6933 14.886 47.3812 14.8176C47.0616 14.7491 46.7495 14.6577 46.4527 14.5588C46.1558 14.4599 45.8894 14.3229 45.6535 14.1478C45.4176 13.9804 45.2273 13.7597 45.0903 13.4933C44.9457 13.227 44.8772 12.8997 44.8772 12.504C44.8772 12.0778 44.9837 11.7277 45.1892 11.4385C45.3947 11.1493 45.6611 10.921 45.9732 10.746C46.2928 10.5709 46.643 10.4492 47.0311 10.373C47.4193 10.3046 47.7922 10.2665 48.1424 10.2665C48.5457 10.2665 48.9339 10.3122 49.2992 10.3959C49.6646 10.4796 49.9995 10.6166 50.2963 10.8145C50.5931 11.0047 50.8367 11.2559 51.0346 11.5603C51.2325 11.8647 51.3543 12.2376 51.4075 12.6714H49.6113C49.5276 12.2604 49.3449 11.9789 49.0481 11.8419C48.7512 11.6973 48.4087 11.6288 48.0282 11.6288C47.9064 11.6288 47.7618 11.6364 47.5943 11.6592C47.4269 11.682 47.2747 11.7201 47.1225 11.7734C46.9778 11.8266 46.8561 11.9104 46.7495 12.0169C46.6506 12.1235 46.5973 12.2604 46.5973 12.4355C46.5973 12.6486 46.6734 12.816 46.818 12.9454C46.9626 13.0748 47.1529 13.1813 47.3888 13.2726C47.6248 13.3563 47.8912 13.4324 48.1956 13.4933C48.5001 13.5542 48.8121 13.6227 49.1318 13.6912C49.4439 13.7597 49.7483 13.851 50.0528 13.95C50.3572 14.0489 50.6236 14.1859 50.8595 14.3609C51.0955 14.536 51.2858 14.7491 51.4304 15.0078C51.575 15.2666 51.6511 15.5938 51.6511 15.9743C51.6511 16.4386 51.5445 16.8267 51.3314 17.154C51.1183 17.4736 50.8443 17.74 50.5094 17.9378C50.1745 18.1357 49.794 18.2879 49.383 18.3792C48.972 18.4706 48.561 18.5162 48.1576 18.5162C47.6628 18.5162 47.2062 18.463 46.7876 18.3488C46.369 18.2346 46.0036 18.0672 45.6992 17.8465C45.3947 17.6182 45.1512 17.3366 44.9761 17.0017C44.8011 16.6669 44.7097 16.2635 44.6945 15.7993H46.4298V15.7841ZM52.1078 10.4796H53.4093V8.13557H55.1294V10.4796H56.6821V11.7658H55.1294V15.9363C55.1294 16.1189 55.137 16.2711 55.1522 16.4081C55.1674 16.5375 55.2055 16.6517 55.2588 16.743C55.3121 16.8343 55.3958 16.9028 55.51 16.9485C55.6241 16.9941 55.7687 17.017 55.9666 17.017C56.0884 17.017 56.2102 17.017 56.332 17.0094C56.4537 17.0018 56.5755 16.9865 56.6973 16.9561V18.2879C56.507 18.3107 56.3167 18.326 56.1417 18.3488C55.959 18.3716 55.7763 18.3792 55.5861 18.3792C55.1294 18.3792 54.7641 18.3336 54.4901 18.2499C54.2161 18.1662 53.9953 18.0368 53.8431 17.8693C53.6833 17.7019 53.5843 17.4964 53.5234 17.2453C53.4702 16.9941 53.4321 16.7049 53.4245 16.3853V11.781H52.123V10.4796H52.1078ZM57.8999 10.4796H59.5286V11.5374H59.5591C59.8026 11.0808 60.1375 10.7612 60.5714 10.5633C61.0052 10.3654 61.4695 10.2665 61.9794 10.2665C62.5959 10.2665 63.1287 10.373 63.5854 10.5937C64.0421 10.8068 64.4226 11.1036 64.7271 11.4842C65.0315 11.8647 65.2522 12.3061 65.4045 12.8084C65.5567 13.3107 65.6328 13.851 65.6328 14.4218C65.6328 14.9469 65.5643 15.4568 65.4273 15.9439C65.2903 16.4386 65.0848 16.8724 64.8108 17.2529C64.5368 17.6334 64.1867 17.9302 63.7604 18.1585C63.3342 18.3869 62.8395 18.501 62.2611 18.501C62.0099 18.501 61.7587 18.4782 61.5075 18.4325C61.2564 18.3869 61.0128 18.3107 60.7845 18.2118C60.5561 18.1129 60.3354 17.9835 60.1451 17.8237C59.9473 17.6639 59.7874 17.4812 59.6504 17.2757H59.62V21.1723H57.8999V10.4796ZM63.9127 14.3914C63.9127 14.0413 63.867 13.6988 63.7757 13.364C63.6843 13.0291 63.5473 12.7399 63.3647 12.4811C63.182 12.2224 62.9537 12.0169 62.6873 11.8647C62.4133 11.7125 62.1012 11.6288 61.7511 11.6288C61.028 11.6288 60.48 11.8799 60.1147 12.3822C59.7494 12.8845 59.5667 13.5542 59.5667 14.3914C59.5667 14.7871 59.6124 15.1524 59.7113 15.4873C59.8103 15.8221 59.9473 16.1113 60.1451 16.3549C60.3354 16.5984 60.5638 16.7887 60.8302 16.9256C61.0965 17.0702 61.4086 17.1387 61.7587 17.1387C62.1545 17.1387 62.4818 17.055 62.7558 16.8952C63.0298 16.7354 63.2505 16.5223 63.4256 16.2711C63.6006 16.0124 63.73 15.7232 63.8061 15.3959C63.8746 15.0687 63.9127 14.7338 63.9127 14.3914ZM66.9495 7.50391H68.6696V9.13254H66.9495V7.50391ZM66.9495 10.4796H68.6696V18.2879H66.9495V10.4796ZM70.2071 7.50391H71.9272V18.2879H70.2071V7.50391ZM77.2017 18.501C76.5776 18.501 76.022 18.3945 75.5349 18.189C75.0478 17.9835 74.6368 17.6943 74.2943 17.3366C73.9594 16.9713 73.7006 16.5375 73.5256 16.0352C73.3505 15.5329 73.2592 14.9774 73.2592 14.3761C73.2592 13.7825 73.3505 13.2346 73.5256 12.7323C73.7006 12.23 73.9594 11.7962 74.2943 11.4309C74.6292 11.0656 75.0478 10.784 75.5349 10.5785C76.022 10.373 76.5776 10.2665 77.2017 10.2665C77.8259 10.2665 78.3815 10.373 78.8686 10.5785C79.3557 10.784 79.7667 11.0732 80.1092 11.4309C80.4441 11.7962 80.7029 12.23 80.8779 12.7323C81.053 13.2346 81.1443 13.7825 81.1443 14.3761C81.1443 14.9774 81.053 15.5329 80.8779 16.0352C80.7029 16.5375 80.4441 16.9713 80.1092 17.3366C79.7743 17.7019 79.3557 17.9835 78.8686 18.189C78.3815 18.3945 77.8259 18.501 77.2017 18.501ZM77.2017 17.1387C77.5823 17.1387 77.9172 17.055 78.1988 16.8952C78.4804 16.7354 78.7088 16.5223 78.8914 16.2635C79.0741 16.0048 79.2035 15.708 79.2948 15.3807C79.3785 15.0535 79.4242 14.7186 79.4242 14.3761C79.4242 14.0413 79.3785 13.714 79.2948 13.3792C79.2111 13.0443 79.0741 12.7551 78.8914 12.4964C78.7088 12.2376 78.4804 12.0321 78.1988 11.8723C77.9172 11.7125 77.5823 11.6288 77.2017 11.6288C76.8212 11.6288 76.4863 11.7125 76.2047 11.8723C75.9231 12.0321 75.6947 12.2452 75.5121 12.4964C75.3294 12.7551 75.2 13.0443 75.1087 13.3792C75.025 13.714 74.9793 14.0413 74.9793 14.3761C74.9793 14.7186 75.025 15.0535 75.1087 15.3807C75.1924 15.708 75.3294 16.0048 75.5121 16.2635C75.6947 16.5223 75.9231 16.7354 76.2047 16.8952C76.4863 17.0626 76.8212 17.1387 77.2017 17.1387ZM81.6467 10.4796H82.9482V8.13557H84.6683V10.4796H86.221V11.7658H84.6683V15.9363C84.6683 16.1189 84.6759 16.2711 84.6911 16.4081C84.7063 16.5375 84.7444 16.6517 84.7977 16.743C84.851 16.8343 84.9347 16.9028 85.0489 16.9485C85.163 16.9941 85.3076 17.017 85.5055 17.017C85.6273 17.017 85.7491 17.017 85.8709 17.0094C85.9926 17.0018 86.1144 16.9865 86.2362 16.9561V18.2879C86.0459 18.3107 85.8556 18.326 85.6806 18.3488C85.4979 18.3716 85.3152 18.3792 85.125 18.3792C84.6683 18.3792 84.303 18.3336 84.029 18.2499C83.755 18.1662 83.5342 18.0368 83.382 17.8693C83.2222 17.7019 83.1232 17.4964 83.0623 17.2453C83.0091 16.9941 82.971 16.7049 82.9634 16.3853V11.781H81.6619V10.4796H81.6467Z" fill="#454545"/>
<path id="Vector_2" d="M20.653 7.50391H12.7678L10.3322 0L7.88906 7.50391L0.00390625 7.4963L6.38967 12.1387L3.94649 19.635L10.3322 15.0002L16.7104 19.635L14.2748 12.1387L20.653 7.50391Z" fill="#00B67A"/>
<path id="Vector_3" d="M14.8226 13.836L14.2746 12.1387L10.332 15.0005L14.8226 13.836Z" fill="#005128"/>
</g>
<defs>
<clipPath id="clip0_470_19926">
<rect width="86.2255" height="21.1723" fill="white"/>
</clipPath>
</defs>
</svg>
