<svg width="42" height="42" viewBox="0 0 42 42" fill="none" xmlns="http://www.w3.org/2000/svg">
<g id="zapier (1) 1" clip-path="url(#clip0_813_21673)">
<path id="Vector" d="M26.2498 21.0092C26.2506 22.5236 25.9774 24.0256 25.4435 25.4428C24.0258 25.9766 22.5234 26.2502 21.0085 26.2505H20.9908C19.4309 26.2485 17.9363 25.9634 16.5572 25.4435C16.023 24.0261 15.7495 22.5239 15.75 21.0092V20.9908C15.7493 19.4767 16.0222 17.9749 16.5555 16.5578C17.9731 16.023 19.4759 15.7493 20.991 15.75H21.0087C22.5236 15.7493 24.0262 16.0229 25.4436 16.5577C25.9776 17.9746 26.2508 19.4765 26.25 20.9906V21.009L26.2498 21.0092ZM41.7083 17.5001H29.4502L38.1175 8.83214C37.4372 7.8765 36.6783 6.9793 35.8488 6.14988V6.14923C35.0193 5.32069 34.1223 4.56252 33.1672 3.88254L24.4993 12.5505V0.292359C23.3465 0.0984257 22.1795 0.000636054 21.0105 0L20.9888 0C19.7997 0.00065625 18.635 0.101719 17.5001 0.292359V12.5505L8.83214 3.88254C7.87688 4.56234 6.9803 5.32105 6.15185 6.1507L6.14726 6.15398C5.31916 6.98237 4.56137 7.87818 3.88172 8.83214L12.5503 17.5001H0.292359C0.292359 17.5001 0 19.8023 0 20.9928V21.0072C0 22.1977 0.100898 23.3643 0.292359 24.4999H12.5505L3.88188 33.1679C5.24551 35.0815 6.91851 36.7545 8.83214 38.1181L17.5001 29.4495V41.7083C18.6516 41.9013 19.8171 41.9988 20.9847 42H21.0144C22.1821 41.9989 23.3476 41.9014 24.4991 41.7083V29.4495L33.1679 38.1181C34.1228 37.4379 35.0195 36.6795 35.8488 35.8508L35.8508 35.8488C36.6791 35.0193 37.4373 34.1226 38.1175 33.1679L29.4489 24.4999H41.7083C41.8991 23.3663 41.9987 22.2031 42 21.0153V20.9847C41.9987 19.7969 41.8991 18.6337 41.7083 17.5001Z" fill="#FF4A00"/>
</g>
<defs>
<clipPath id="clip0_813_21673">
<rect width="42" height="42" fill="white"/>
</clipPath>
</defs>
</svg>
