<svg width="58" height="58" viewBox="0 0 58 58" fill="none" xmlns="http://www.w3.org/2000/svg">
<rect opacity="0.2" width="58" height="58" rx="10" fill="#F582A5"/>
<path fill-rule="evenodd" clip-rule="evenodd" d="M21.26 18.3274C21.4495 18.1189 21.7182 18 22 18H36C36.2818 18 36.5505 18.1189 36.74 18.3274L41.74 23.8283C42.0748 24.1966 42.0877 24.7551 41.7704 25.1385L29.7704 39.6378C29.5804 39.8674 29.298 40.0002 29 40.0002C28.702 40.0002 28.4196 39.8674 28.2296 39.6378L16.2296 25.1385C15.9123 24.7551 15.9252 24.1966 16.26 23.8283L21.26 18.3274ZM21.6261 20.8981L22.5724 23.5009H19.2603L21.6261 20.8981ZM19.1257 25.5009H23.2871L26.2595 34.1205L19.1257 25.5009ZM31.7405 34.1205L38.8743 25.5009H34.7129L31.7405 34.1205ZM35.4276 23.5009H38.7397L36.3739 20.8981L35.4276 23.5009ZM34.5724 20H31.2603L33.6261 22.6028L34.5724 20ZM31.7397 23.5009L29 20.4867L26.2603 23.5009H31.7397ZM25.4026 25.5009H32.5974L29 35.9328L25.4026 25.5009ZM24.3739 22.6028L26.7397 20H23.4276L24.3739 22.6028Z" fill="#FD6392"/>
</svg>
