<svg width="162" height="112" viewBox="0 0 162 112" fill="none" xmlns="http://www.w3.org/2000/svg">
<g clip-path="url(#clip0_170_531)">
<path d="M56.3711 0.5H105.742C136.394 0.5 161.242 25.3482 161.242 56C161.242 86.6518 136.394 111.5 105.742 111.5H56.3711C25.7193 111.5 0.871094 86.6518 0.871094 56C0.871094 25.3482 25.7193 0.5 56.3711 0.5Z" fill="white" stroke="#DBDBDB"/>
<path d="M117.831 48.4163C125.005 48.4163 129.744 53.4502 129.744 61.0585C129.744 68.6669 124.989 73.75 117.831 73.75C110.381 73.75 105.414 68.6669 105.414 61.0585C105.414 53.4502 110.397 48.4163 117.831 48.4163ZM79.5735 48.9246V73.2253L74.2172 72.1103V49.9904L79.5735 48.9246ZM101.031 48.3507V54.0569L97.9473 54.6308C95.3016 55.1391 93.5811 56.5329 93.5811 59.632V73.2253L88.2248 72.1103V58.8121C88.2248 52.204 92.0554 50.2528 97.9473 48.8754L101.031 48.3507ZM44.0757 48.4163C46.1858 48.4163 48.7503 49.5969 50.2111 51.7285C51.672 49.7936 54.1066 48.5147 57.1094 48.4819C60.8751 48.4327 65.5659 50.8267 65.5659 58.0087V73.2253L60.2096 72.1103V58.0087C60.2096 55.5983 58.4891 53.8766 55.9408 53.8766C53.3925 53.8766 51.672 55.5983 51.672 58.0087V73.2253L46.3156 72.1103V58.0087C46.3156 55.5983 44.5951 53.8766 42.0468 53.8766C39.466 53.8766 37.7293 55.5983 37.7293 58.0087V73.2253L32.373 72.1103V49.9904L37.7293 48.9246V51.4334C39.2226 49.5805 41.4949 48.4163 44.0757 48.4163ZM117.831 53.5486C113.676 53.5486 110.884 56.5329 110.884 61.0585C110.884 65.5842 113.676 68.6177 117.831 68.6177C121.71 68.6177 124.275 65.5842 124.275 61.0585C124.275 56.5329 121.71 53.5486 117.831 53.5486ZM77.009 38.25C78.9567 38.25 80.2552 39.6274 80.2552 41.6934C80.2552 43.7595 78.9567 45.1368 77.009 45.1368C74.9801 45.1368 73.6329 43.7595 73.6329 41.6934C73.6329 39.6274 74.9801 38.25 77.009 38.25Z" fill="#0A0B1E"/>
</g>
<defs>
<clipPath id="clip0_170_531">
<rect width="162" height="112" fill="white"/>
</clipPath>
</defs>
</svg>
