<svg width="230" height="112" viewBox="0 0 230 112" fill="none" xmlns="http://www.w3.org/2000/svg">
<g clip-path="url(#clip0_170_536)">
<path d="M56.7715 0.5H173.709C204.361 0.5 229.209 25.3482 229.209 56C229.209 86.6518 204.361 111.5 173.709 111.5H56.7715C26.1197 111.5 1.27148 86.6518 1.27148 56C1.27148 25.3482 26.1197 0.5 56.7715 0.5Z" fill="white" stroke="#DBDBDB"/>
<mask id="mask0_170_536" style="mask-type:luminance" maskUnits="userSpaceOnUse" x="32" y="45" width="166" height="22">
<path d="M197.709 45.7617H32.7715V66.2407H197.709V45.7617Z" fill="white"/>
</mask>
<g mask="url(#mask0_170_536)">
<path d="M82.8623 57.1052H89.0293V54.0799H82.8623V49.251H89.4947V46.1094H78.6152V65.8902H89.6111V62.9231H82.8623V57.1052Z" fill="#0A0B1E"/>
<path d="M71.2859 46.1094H63.7227V65.8902H67.9697V57.8615H70.9369C74.6021 57.8615 76.4639 55.9416 76.4639 52.0436C76.4639 48.0875 74.7185 46.1094 71.2859 46.1094ZM70.1805 54.8944H67.9697V49.251H70.006C71.4605 49.251 72.2168 50.2401 72.2168 52.2182C72.2168 54.0217 71.5186 54.8944 70.1805 54.8944Z" fill="#0A0B1E"/>
<path d="M100.609 56.1158C103.111 55.7085 104.391 54.0795 104.391 51.2287C104.391 47.7962 102.82 46.0508 99.6784 46.0508H92.1152V65.8316H96.1877V57.6866H97.2931C99.1548 57.6866 100.144 58.6756 100.26 60.6537C100.377 63.7954 100.493 65.5408 100.551 65.8316H104.624C104.333 65.1917 104.158 63.2718 104.158 60.0137C104.275 57.7448 103.053 56.4648 100.609 56.1158ZM98.1076 54.7195H96.2459V49.2506H98.1076C99.4457 49.2506 100.144 50.0651 100.144 51.7523C100.144 53.7304 99.5039 54.7195 98.1076 54.7195Z" fill="#0A0B1E"/>
<path d="M54.7637 54.429L51.7966 46.1094H47.375L52.5529 58.9669V65.8902H56.6836V58.9669L62.1525 46.1094H57.9054L54.7637 54.429Z" fill="#0A0B1E"/>
<path d="M153.9 46.1094L148.373 65.8902H152.446L153.551 61.4686H159.194L160.3 65.8902H164.721L159.369 46.1094H153.9ZM154.482 58.5015L156.344 50.0074L158.38 58.5015H154.482Z" fill="#0A0B1E"/>
<path d="M177.461 59.7814L172.225 46.1094H166.582V65.8902H170.538V51.4037L175.891 65.8902H181.359V46.1094H177.461V59.7814Z" fill="#0A0B1E"/>
<path d="M191.425 46.1094H184.502V65.8902H191.251C195.556 65.8902 197.709 62.5159 197.709 55.8253C197.709 49.3092 195.614 46.1094 191.425 46.1094ZM190.611 62.9231H188.574V49.251H190.785C192.647 49.251 193.636 51.52 193.636 55.9998C193.636 60.596 192.647 62.9231 190.611 62.9231Z" fill="#0A0B1E"/>
<path d="M130.222 54.7212C127.429 53.1504 126.033 51.8705 126.033 50.8232C126.033 49.4851 126.789 48.787 128.244 48.787C129.523 48.787 130.105 49.776 130.105 51.7541H134.061C134.352 47.7979 132.491 45.7617 128.418 45.7617C124.113 45.7617 121.96 47.6234 121.96 51.405C121.96 53.4995 123.298 55.3612 126.033 57.0484C128.767 58.7356 130.105 60.0155 130.105 61.0046C130.105 62.459 129.407 63.2154 128.069 63.2154C126.498 63.2154 125.742 62.0518 125.742 59.7828H121.669C121.378 64.088 123.298 66.2407 127.487 66.2407C132.083 66.2407 134.411 64.3789 134.411 60.5973C134.411 58.212 133.014 56.2921 130.222 54.7212Z" fill="#0A0B1E"/>
<path d="M140.985 46.1094H136.912V65.8902H147.268V62.574H140.985V46.1094Z" fill="#0A0B1E"/>
<path d="M119.166 46.1094H115.094V65.8902H119.166V46.1094Z" fill="#0A0B1E"/>
<path d="M41.5565 54.0799H36.844V46.1094H32.7715V65.8902H36.844V57.1052H41.5565V65.8902H45.6872V46.1094H41.5565V54.0799Z" fill="#0A0B1E"/>
</g>
</g>
<defs>
<clipPath id="clip0_170_536">
<rect width="230" height="112" fill="white"/>
</clipPath>
</defs>
</svg>
