<svg width="202" height="112" viewBox="0 0 202 112" fill="none" xmlns="http://www.w3.org/2000/svg">
<g clip-path="url(#clip0_170_553)">
<path d="M56.709 0.5H145.76C176.412 0.5 201.26 25.3482 201.26 56C201.26 86.6518 176.412 111.5 145.76 111.5H56.709C26.0572 111.5 1.20898 86.6518 1.20898 56C1.20898 25.3482 26.0572 0.5 56.709 0.5Z" fill="white" stroke="#DBDBDB"/>
<path d="M75.9419 52.5383H62.9275C62.174 52.5383 61.6261 53.2917 61.8772 53.9995L65.0053 62.105C65.1423 62.4703 64.8683 62.8585 64.4801 62.8356L60.4845 62.5845C60.3018 62.5617 60.1191 62.653 60.0278 62.8128L56.9226 67.2195C56.7628 67.4706 56.4203 67.5619 56.1691 67.3793L51.557 64.2513C51.3743 64.1371 51.1232 64.1371 50.9634 64.2513L44.5703 68.5666C44.1593 68.8406 43.6113 68.4524 43.7483 67.9729L45.5293 61.6255C45.5978 61.3515 45.4836 61.1004 45.2096 60.9862L41.8304 59.6163C41.4879 59.4793 41.3966 59.0683 41.6249 58.7943L44.5931 55.0955C44.7301 54.9128 44.753 54.6617 44.616 54.4562L42.1044 50.8258C41.8761 50.4833 42.0816 50.0267 42.5154 50.0039L46.4197 49.707C46.6937 49.6842 46.922 49.4331 46.922 49.1362L46.6024 43.6793C46.5796 43.2912 46.9677 43.0172 47.3559 43.1542L52.1963 45.1634C52.4018 45.2547 52.653 45.2091 52.79 45.0264L56.1235 41.3047C56.3975 41.0079 56.8769 41.0993 57.0368 41.4417L59.046 46.6018C59.32 47.2412 60.1191 47.4695 60.6671 47.0357L68.4986 41.2134C69.3891 40.5513 68.8183 39.1357 67.7223 39.2955L62.5622 39.9805C62.311 40.0261 62.0827 39.8663 61.9914 39.638L59.2743 32.6741C58.9775 31.9435 58.0414 31.7608 57.4934 32.3545L51.6027 38.7475C51.4428 38.9073 51.2145 38.953 51.009 38.8617L43.246 35.5967C42.5611 35.3227 41.7848 35.8021 41.7619 36.5556L41.4879 44.5698C41.4651 44.8438 41.2596 45.0721 40.9856 45.0721L33.9076 45.5287C33.0856 45.5744 32.629 46.5105 33.0856 47.1955L37.7891 54.1365C37.9261 54.342 37.9033 54.5932 37.7434 54.7987L32.9715 60.2784C32.492 60.8264 32.6975 61.6712 33.3596 61.968L38.8394 64.3426C39.0905 64.4567 39.2047 64.7079 39.1362 64.9591L35.62 78.6585C35.3689 79.6403 36.4648 80.3709 37.2868 79.8001L50.4611 70.3475C50.6437 70.2333 50.8949 70.2105 51.0775 70.3475L57.0824 74.5715C57.5847 74.9368 58.2469 74.777 58.5894 74.2975L62.3339 68.5437C62.448 68.3611 62.6535 68.2697 62.8362 68.3154L71.8093 69.3885C72.5399 69.5027 73.2706 68.8862 72.9966 68.2241L69.2521 58.566C69.1379 58.292 69.2521 58.018 69.5717 57.8582L76.3986 54.6388C77.4489 54.0909 77.0836 52.5383 75.9419 52.5383Z" fill="#8039E9"/>
<path d="M169.305 52.5369H159.19C158.984 52.5369 158.825 52.6967 158.825 52.9022V57.3774C158.825 57.5829 158.984 57.7427 159.19 57.7427H163.505C163.711 57.7427 163.87 57.9025 163.87 58.108C163.825 60.4141 163.368 64.5467 159.167 64.5467C155.742 64.5467 154.395 60.4141 154.395 55.5965C154.395 49.8655 155.811 46.3265 158.984 46.3265C161.29 46.3265 162.044 48.2673 162.249 48.9979C162.295 49.1577 162.455 49.2719 162.615 49.2719H167.866C168.072 49.2719 168.254 49.0892 168.231 48.8837C168.026 46.0069 165.56 40.9838 159.076 40.9838C154.532 40.9838 150.285 43.7465 148.938 50.5733V41.7829C148.938 41.6687 148.847 41.6002 148.755 41.6002H143.184C143.07 41.6002 143.002 41.6916 143.002 41.7829V57.4687C143.002 57.6742 142.728 57.7199 142.636 57.5372L135.33 41.6916C135.284 41.6231 135.239 41.5774 135.17 41.5774H130.238C130.124 41.5774 130.056 41.6687 130.056 41.7601V50.5505C128.229 44.9794 123.275 40.9609 116.836 40.9609C109.644 40.9609 104.324 45.9384 103.091 52.5369H93.0217C92.9075 52.5369 92.839 52.6283 92.839 52.7196V57.56C92.839 57.6742 92.9304 57.7427 93.0217 57.7427H97.7252C97.8393 57.7427 97.9078 57.834 97.9078 57.9254C97.885 60.1629 97.4968 64.5467 93.2043 64.5467C89.7795 64.5467 88.4324 60.4141 88.4324 55.5965C88.4324 49.8655 89.848 46.3265 93.0217 46.3265C95.4648 46.3265 96.1726 48.5413 96.3324 49.1349C96.3552 49.2262 96.4237 49.2719 96.515 49.2719H102.155C102.269 49.2719 102.36 49.1806 102.337 49.0664C102.223 46.2352 99.8029 40.9838 93.1587 40.9838C87.6561 40.9838 82.5645 45.0479 82.5645 55.5508C82.5645 62.7658 85.3957 69.9123 93.25 69.9123C99.0494 69.9123 102.771 65.4144 103.593 60.0031C105.351 65.7569 110.351 69.9123 116.927 69.9123C123.275 69.9123 128.321 65.8939 130.147 60.2771V69.1589C130.147 69.273 130.238 69.3415 130.33 69.3415H135.901C136.015 69.3415 136.084 69.2502 136.084 69.1589V53.7242C136.084 53.5187 136.357 53.4731 136.449 53.6557L143.755 69.2502C143.801 69.3187 143.847 69.3644 143.915 69.3644H148.847C148.961 69.3644 149.029 69.273 149.029 69.1817V60.3684C150.103 65.6655 153.162 69.958 159.235 69.958C165.857 69.958 169.761 64.1358 169.761 57.7655V52.9936C169.67 52.6967 169.51 52.5369 169.305 52.5369ZM116.881 64.1358C112.201 64.1358 108.959 60.5511 108.959 55.4595C108.959 50.3679 112.201 46.7832 116.881 46.7832C121.539 46.7832 124.804 50.3679 124.804 55.4595C124.804 60.5511 121.539 64.1358 116.881 64.1358Z" fill="#3E0075"/>
</g>
<defs>
<clipPath id="clip0_170_553">
<rect width="202" height="112" fill="white"/>
</clipPath>
</defs>
</svg>
