<svg width="173" height="112" viewBox="0 0 173 112" fill="none" xmlns="http://www.w3.org/2000/svg">
<path d="M56 0.5H116.587C147.239 0.5 172.087 25.3482 172.087 56C172.087 86.6518 147.239 111.5 116.587 111.5H56C25.3482 111.5 0.5 86.6518 0.5 56C0.5 25.3482 25.3482 0.5 56 0.5Z" fill="white" stroke="#DBDBDB"/>
<path fill-rule="evenodd" clip-rule="evenodd" d="M79.3187 54.1307L73.5698 43.1152H65.6095L79.3187 69.2462L92.9867 43.1152H85.0676L79.3187 54.1307ZM129.41 48.9447L140.587 68.6437H131.983L130.616 65.9094H120.887L119.56 68.6437H110.958L125.751 42.4721L129.41 48.9447ZM129.41 44.9649C129.731 44.9649 130.013 44.8442 130.214 44.6033C130.456 44.3619 130.576 44.0804 130.576 43.7588C130.576 43.4373 130.456 43.1958 130.214 42.955C130.013 42.7135 129.731 42.5928 129.41 42.5928C129.088 42.5928 128.807 42.7135 128.566 42.955C128.324 43.1964 128.244 43.4373 128.244 43.7588C128.244 44.0804 128.365 44.3619 128.566 44.6033C128.807 44.8442 129.088 44.9649 129.41 44.9649ZM129.41 42.3513C129.049 42.3513 128.686 42.4721 128.446 42.7536C128.124 42.9944 128.002 43.3566 128.002 43.7582C128.002 44.1605 128.124 44.5221 128.405 44.7629C128.685 45.0444 129.008 45.2052 129.41 45.2052C129.771 45.2052 130.133 45.0444 130.414 44.803C130.696 44.5221 130.816 44.1599 130.816 43.7577C130.816 43.3961 130.696 43.0339 130.414 42.753C130.134 42.4721 129.811 42.3513 129.41 42.3513ZM129.41 43.9997C129.45 43.9997 129.491 44.0403 129.531 44.0403C129.571 44.0403 129.611 44.0804 129.611 44.161C129.652 44.2011 129.652 44.2411 129.652 44.3619C129.652 44.4425 129.652 44.5226 129.691 44.5627H130.053V44.5226V44.4826V44.2818C130.053 44.121 130.013 44.0003 129.892 43.9202C129.853 43.8801 129.772 43.8801 129.691 43.8395C129.797 43.835 129.897 43.792 129.972 43.7188C130.013 43.6787 130.053 43.598 130.053 43.4373C130.053 43.2765 130.013 43.1558 129.852 43.0751C129.752 43.0248 129.642 42.9973 129.53 42.9944H128.766V44.5627H129.208V43.9997H129.41ZM129.41 43.2765H129.208V43.7188H129.41C129.49 43.7188 129.53 43.6787 129.571 43.6787C129.651 43.6387 129.651 43.558 129.651 43.4779C129.651 43.3972 129.611 43.3171 129.53 43.3171C129.491 43.2765 129.45 43.2765 129.41 43.2765ZM125.751 56.3815L123.299 61.1257H128.204L125.751 56.3815ZM64.0418 68.6437V43.1157H56.6045V68.6437H64.0418ZM110.274 49.95V43.1157H94.5543V68.6437H110.274V61.8501H102.033V58.5127H110.274V53.166H102.033V49.95H110.274ZM52.1818 43.1157H44.7445V53.0453L32 41.4668V68.6437H39.4373V59.1552L52.1812 70.5335L52.1818 43.1157Z" fill="black"/>
</svg>
