<svg width="48" height="48" viewBox="0 0 48 48" fill="none" xmlns="http://www.w3.org/2000/svg">
<rect width="48" height="48" rx="10" fill="#10A1F3"/>
<path d="M23.5401 13.2349C21.0987 13.2386 18.7584 14.2101 17.0321 15.9364C15.3058 17.6627 14.3344 20.003 14.3306 22.4444C14.3279 24.6853 15.15 26.8489 16.6401 28.5226C17.735 30.1647 18.4022 32.0544 18.5811 34.02C18.6354 34.5254 18.8702 34.9942 19.2424 35.3404C19.6146 35.6866 20.0992 35.8868 20.6072 35.9044H26.4729C26.9932 35.9039 27.4951 35.7113 27.8821 35.3635C28.2691 35.0157 28.514 34.5373 28.5699 34.02C28.7298 32.0656 29.3724 30.1815 30.4401 28.5368C31.9335 26.8594 32.7557 24.6902 32.7496 22.4444C32.7458 20.003 31.7743 17.6627 30.048 15.9364C28.3217 14.2101 25.9814 13.2386 23.5401 13.2349ZM28.584 18.5481C27.6568 17.3467 26.3298 16.5173 24.8436 16.2103C24.7471 16.1969 24.6545 16.1637 24.5714 16.1129C24.4884 16.062 24.4167 15.9946 24.3608 15.9149C24.305 15.8351 24.2662 15.7447 24.2469 15.6492C24.2275 15.5538 24.2281 15.4554 24.2485 15.3602C24.2669 15.2694 24.3034 15.1832 24.3557 15.1066C24.408 15.0301 24.475 14.9649 24.5529 14.9147C24.6308 14.8645 24.718 14.8304 24.8093 14.8145C24.9006 14.7985 24.9941 14.801 25.0844 14.8218C26.892 15.1982 28.5081 16.202 29.6467 17.6554C29.7051 17.7283 29.7482 17.8121 29.7735 17.902C29.7988 17.9918 29.8057 18.0859 29.7938 18.1785C29.7818 18.271 29.7514 18.3603 29.7042 18.4408C29.657 18.5214 29.5941 18.5916 29.5192 18.6472C29.3977 18.7528 29.2408 18.8084 29.0799 18.8031C28.9841 18.7972 28.8906 18.7714 28.8053 18.7276C28.7199 18.6837 28.6446 18.6225 28.584 18.5481ZM30.1992 20.73C30.0144 20.7311 29.8364 20.6599 29.7033 20.5316C29.6342 20.4662 29.5795 20.387 29.5429 20.2992C29.5063 20.2113 29.4886 20.1167 29.4908 20.0216C29.4897 19.9287 29.508 19.8365 29.5446 19.7511C29.5812 19.6657 29.6353 19.5889 29.7033 19.5257C29.8374 19.3991 30.0149 19.3287 30.1992 19.3287C30.3836 19.3287 30.561 19.3991 30.6951 19.5257C30.7632 19.5889 30.8173 19.6657 30.8539 19.7511C30.8905 19.8365 30.9088 19.9287 30.9077 20.0216C30.909 20.1166 30.8909 20.2109 30.8543 20.2987C30.8178 20.3864 30.7636 20.4657 30.6951 20.5316C30.562 20.6599 30.3841 20.7311 30.1992 20.73ZM27.0822 38.0296C27.0822 38.2175 27.0075 38.3977 26.8747 38.5306C26.7418 38.6634 26.5616 38.7381 26.3738 38.7381H20.7064C20.5185 38.7381 20.3383 38.6634 20.2055 38.5306C20.0726 38.3977 19.998 38.2175 19.998 38.0296C19.998 37.8418 20.0726 37.6616 20.2055 37.5287C20.3383 37.3959 20.5185 37.3212 20.7064 37.3212H26.3738C26.5616 37.3212 26.7418 37.3959 26.8747 37.5287C27.0075 37.6616 27.0822 37.8418 27.0822 38.0296ZM22.8317 11.1096V9.6928C22.8317 9.50491 22.9063 9.32472 23.0391 9.19187C23.172 9.05901 23.3522 8.98438 23.5401 8.98438C23.728 8.98438 23.9082 9.05901 24.041 9.19187C24.1739 9.32472 24.2485 9.50491 24.2485 9.6928V11.1096C24.2485 11.2975 24.1739 11.4777 24.041 11.6106C23.9082 11.7434 23.728 11.8181 23.5401 11.8181C23.3522 11.8181 23.172 11.7434 23.0391 11.6106C22.9063 11.4777 22.8317 11.2975 22.8317 11.1096ZM33.0613 12.9232C33.192 13.058 33.2651 13.2384 33.2651 13.4262C33.2651 13.6139 33.192 13.7943 33.0613 13.9292L32.0553 14.9351C31.9206 15.0609 31.7437 15.1317 31.5594 15.1335C31.3707 15.1325 31.1891 15.0619 31.0493 14.9351C30.9186 14.8003 30.8455 14.6199 30.8455 14.4321C30.8455 14.2444 30.9186 14.064 31.0493 13.9292L32.0553 12.9232C32.1901 12.7925 32.3705 12.7194 32.5583 12.7194C32.746 12.7194 32.9264 12.7925 33.0613 12.9232ZM37.0001 22.4444C37.0001 22.6323 36.9254 22.8125 36.7926 22.9453C36.6597 23.0782 36.4795 23.1528 36.2917 23.1528H34.8748C34.6869 23.1528 34.5067 23.0782 34.3739 22.9453C34.241 22.8125 34.1664 22.6323 34.1664 22.4444C34.1664 22.2565 34.241 22.0763 34.3739 21.9434C34.5067 21.8106 34.6869 21.736 34.8748 21.736H36.2917C36.4795 21.736 36.6597 21.8106 36.7926 21.9434C36.9254 22.0763 37.0001 22.2565 37.0001 22.4444ZM33.0613 30.9454C33.192 31.0802 33.2651 31.2606 33.2651 31.4484C33.2651 31.6362 33.192 31.8166 33.0613 31.9514C32.9248 32.0789 32.745 32.1498 32.5583 32.1498C32.3715 32.1498 32.1918 32.0789 32.0553 31.9514L31.0493 30.9454C30.9159 30.812 30.841 30.6311 30.841 30.4424C30.841 30.2538 30.9159 30.0729 31.0493 29.9395C31.1827 29.8061 31.3637 29.7311 31.5523 29.7311C31.741 29.7311 31.9219 29.8061 32.0553 29.9395L33.0613 30.9454ZM16.0592 29.9395C16.1899 30.0743 16.2629 30.2547 16.2629 30.4424C16.2629 30.6302 16.1899 30.8106 16.0592 30.9454L15.0532 31.9514C14.9167 32.0789 14.737 32.1498 14.5502 32.1498C14.3635 32.1498 14.1837 32.0789 14.0472 31.9514C13.9165 31.8166 13.8434 31.6362 13.8434 31.4484C13.8434 31.2606 13.9165 31.0802 14.0472 30.9454L15.0532 29.9395C15.1883 29.8189 15.3637 29.7535 15.5448 29.7561C15.7258 29.7587 15.8993 29.8292 16.0308 29.9536L16.0592 29.9395ZM12.9138 22.4444C12.9138 22.6323 12.8391 22.8125 12.7063 22.9453C12.5734 23.0782 12.3932 23.1528 12.2053 23.1528H10.7885C10.6006 23.1528 10.4204 23.0782 10.2876 22.9453C10.1547 22.8125 10.0801 22.6323 10.0801 22.4444C10.0801 22.2565 10.1547 22.0763 10.2876 21.9434C10.4204 21.8106 10.6006 21.736 10.7885 21.736H12.2053C12.3932 21.736 12.5734 21.8106 12.7063 21.9434C12.8391 22.0763 12.9138 22.2565 12.9138 22.4444ZM14.0189 13.9433C13.9528 13.8773 13.9005 13.7989 13.8647 13.7126C13.829 13.6263 13.8106 13.5338 13.8106 13.4403C13.8106 13.3469 13.829 13.2544 13.8647 13.1681C13.9005 13.0818 13.9528 13.0034 14.0189 12.9374C14.085 12.8713 14.1634 12.8189 14.2497 12.7832C14.336 12.7474 14.4285 12.729 14.5219 12.729C14.6153 12.729 14.7078 12.7474 14.7941 12.7832C14.8804 12.8189 14.9588 12.8713 15.0249 12.9374L16.0308 13.9433C16.1615 14.0781 16.2346 14.2585 16.2346 14.4463C16.2346 14.6341 16.1615 14.8145 16.0308 14.9493C15.8911 15.076 15.7094 15.1467 15.5208 15.1476C15.3365 15.1459 15.1595 15.0751 15.0249 14.9493L14.0189 13.9433Z" fill="white"/>
</svg>
