<svg width="48" height="48" viewBox="0 0 48 48" fill="none" xmlns="http://www.w3.org/2000/svg">
<rect width="48" height="48" rx="10" fill="#6B66DA"/>
<g clip-path="url(#clip0_195_863)">
<path d="M36.3715 25.1566V17.5705C36.4015 17.5867 36.4315 17.603 36.4621 17.6192C36.4983 17.638 36.5377 17.6474 36.5777 17.6474C36.6171 17.6474 36.6571 17.638 36.6927 17.6192C38.6452 16.6024 39.7533 15.138 39.4508 13.9756C39.3095 13.4312 38.8327 12.7906 38.1221 12.6724C37.5714 12.5806 36.9933 12.8074 36.5777 13.2606C36.5127 13.1899 36.4433 13.1249 36.3715 13.0656V11.2218C36.3715 9.99686 35.3633 9 34.1252 9H10.2462C9.00749 9 8 9.99686 8 11.2218V27.5066C8 28.7316 9.00749 29.7284 10.2462 29.7284H23.4916C23.4035 30.1941 23.3573 30.6734 23.3573 31.1641C23.3573 35.4846 26.9141 38.9996 31.2865 38.9996C35.6583 38.9996 39.2152 35.4846 39.2152 31.1641C39.2152 28.7541 38.1083 26.5954 36.3715 25.1566ZM27.5547 35.659C27.5547 35.3321 27.8253 35.0665 28.1578 35.0665H28.8359H29.0109C29.1491 35.0665 29.2609 34.9546 29.2609 34.8165C29.2609 34.6784 29.1491 34.5665 29.0109 34.5665H28.8359H28.1578C27.8253 34.5665 27.5547 34.3003 27.5547 33.9734C27.5547 33.6465 27.8253 33.3809 28.1578 33.3809H28.7653H29.0109C29.1491 33.3809 29.2609 33.2684 29.2609 33.1309C29.2609 32.9928 29.1491 32.8809 29.0109 32.8809H28.7653H28.1578C27.8253 32.8809 27.5547 32.6147 27.5547 32.2878C27.5547 31.9609 27.8253 31.6947 28.1578 31.6947H28.8359H29.0109C29.1491 31.6947 29.2609 31.5828 29.2609 31.4447C29.2609 31.3072 29.1491 31.1947 29.0109 31.1947H28.8359H28.1578C27.8253 31.1947 27.5547 30.9291 27.5547 30.6022C27.5547 30.2753 27.8253 30.0091 28.1578 30.0091H30.584C30.8965 30.0091 31.1953 29.8766 31.4034 29.6459C31.6109 29.4153 31.7109 29.1066 31.679 28.7985C31.5009 27.0941 31.8371 25.7673 32.5159 25.4966C32.6346 25.4498 32.7621 25.4635 32.8671 25.5348C32.969 25.6041 33.0271 25.7135 33.0271 25.8341V27.2585C33.0271 27.9535 33.274 28.6447 33.7221 29.2041C33.8959 29.421 34.0571 29.6516 34.2009 29.8884C34.2265 29.9309 34.2509 29.9728 34.2752 30.0141C34.7609 30.8597 35.0177 31.8428 35.0177 32.8578V34.2646C35.0177 35.3609 34.114 36.2521 33.0034 36.2521H28.1578C27.8253 36.2521 27.5547 35.9859 27.5547 35.659ZM36.369 13.8031C36.4152 13.8731 36.4933 13.9156 36.5777 13.9156C36.6615 13.9156 36.7396 13.8731 36.7858 13.8031C37.0921 13.3399 37.5846 13.0899 38.0402 13.1656C38.5645 13.2531 38.8814 13.7731 38.967 14.1018C39.1964 14.9837 38.1964 16.238 36.5777 17.1143C34.959 16.238 33.9584 14.9837 34.1877 14.1018C34.2734 13.7731 34.5909 13.2531 35.1146 13.1656C35.169 13.1568 35.2233 13.1524 35.2783 13.1524C35.6852 13.1524 36.0996 13.3949 36.369 13.8031ZM34.7334 11.2168C34.7334 11.5437 34.4627 11.8093 34.1302 11.8093C33.7977 11.8093 33.5271 11.5437 33.5271 11.2168C33.5271 10.89 33.7977 10.6237 34.1302 10.6237C34.4627 10.6237 34.7334 10.89 34.7334 11.2168ZM31.8896 11.2168C31.8896 11.5437 31.619 11.8093 31.2865 11.8093C30.9534 11.8093 30.6834 11.5437 30.6834 11.2168C30.6834 10.89 30.9534 10.6237 31.2865 10.6237C31.619 10.6237 31.8896 10.89 31.8896 11.2168ZM19.5917 29.2285V24.9829C19.5917 24.8448 19.4798 24.7329 19.3417 24.7329H11.3781C11.2406 24.7329 11.1281 24.8448 11.1281 24.9829V29.2285H10.2462C9.28311 29.2285 8.49999 28.456 8.49999 27.5066V13.4331H33.9471C33.8327 13.6099 33.7502 13.7981 33.704 13.9756C33.4334 15.0149 34.2915 16.2949 35.8715 17.2818V24.7748C34.5759 23.8642 32.9934 23.3285 31.2865 23.3285C29.6059 23.3285 28.046 23.8479 26.7622 24.7329H21.6167C21.4786 24.7329 21.3667 24.8448 21.3667 24.9829C21.3667 25.121 21.4786 25.2329 21.6167 25.2329H26.1104C25.3547 25.8779 24.7235 26.6616 24.2566 27.5429H21.6167C21.4786 27.5429 21.3667 27.6547 21.3667 27.7929C21.3667 27.9303 21.4786 28.0428 21.6167 28.0428H24.0148C23.8466 28.4235 23.7079 28.8191 23.6029 29.2285H19.5917Z" fill="white"/>
<path d="M32.9576 22.174C32.9576 22.0359 32.8457 21.924 32.7076 21.924H12.231C12.0929 21.924 11.9811 22.0359 11.9811 22.174C11.9811 22.3122 12.0929 22.424 12.231 22.424H32.7076C32.8457 22.424 32.9576 22.3122 32.9576 22.174ZM11.9811 19.9266C11.9811 20.0647 12.0929 20.1766 12.231 20.1766H27.5883C27.7264 20.1766 27.8383 20.0647 27.8383 19.9266C27.8383 19.7884 27.7264 19.6766 27.5883 19.6766H12.231C12.0929 19.6766 11.9811 19.7884 11.9811 19.9266ZM23.0378 36.5332C22.4296 36.5332 21.9347 37.0238 21.9347 37.6263C21.9347 38.2288 22.4296 38.7188 23.0378 38.7188C23.6465 38.7188 24.1415 38.2288 24.1415 37.6263C24.1415 37.0238 23.6465 36.5332 23.0378 36.5332ZM23.0378 38.2188C22.7053 38.2188 22.4346 37.9532 22.4346 37.6263C22.4346 37.2994 22.7053 37.0332 23.0378 37.0332C23.3709 37.0332 23.6415 37.2994 23.6415 37.6263C23.6415 37.9532 23.3709 38.2188 23.0378 38.2188ZM22.1015 33.6426C21.9603 33.0976 21.484 32.4576 20.7734 32.3395C20.2228 32.2476 19.6447 32.4745 19.2284 32.927C18.8122 32.4745 18.2347 32.2476 17.6835 32.3395C16.9729 32.4576 16.4966 33.0976 16.3547 33.6426C16.0529 34.8051 17.161 36.2695 19.1128 37.2863C19.1491 37.3051 19.1884 37.3144 19.2284 37.3144C19.2678 37.3144 19.3078 37.3051 19.3441 37.2863C21.2959 36.2695 22.404 34.8051 22.1015 33.6426ZM19.2284 36.7813C17.6097 35.9051 16.6091 34.6507 16.8391 33.7682C16.9241 33.4401 17.2416 32.9195 17.766 32.8326C17.8197 32.8233 17.8747 32.8189 17.9291 32.8189C18.336 32.8189 18.7503 33.062 19.0197 33.4701C19.0659 33.5401 19.1447 33.582 19.2284 33.582C19.3122 33.582 19.3909 33.5401 19.4372 33.4701C19.7428 33.007 20.2353 32.7564 20.6909 32.8326C21.2153 32.9195 21.5328 33.4401 21.6178 33.7682C21.8472 34.6507 20.8472 35.9051 19.2284 36.7813ZM21.8659 16.5554C21.8659 15.7979 21.2497 15.1816 20.4922 15.1816H11.3636C10.6061 15.1816 9.98983 15.7979 9.98983 16.5554C9.98983 17.3129 10.6061 17.9291 11.3636 17.9291H20.4922C21.2497 17.9291 21.8659 17.3129 21.8659 16.5554ZM14.506 31.4764H13.6185V30.6027C13.6185 30.4645 13.5067 30.3527 13.3685 30.3527C13.2304 30.3527 13.1185 30.4645 13.1185 30.6027V31.4764H12.231C12.0929 31.4764 11.9811 31.5883 11.9811 31.7264C11.9811 31.8645 12.0929 31.9764 12.231 31.9764H13.1185V32.8501C13.1185 32.9883 13.2304 33.1001 13.3685 33.1001C13.5067 33.1001 13.6185 32.9883 13.6185 32.8501V31.9764H14.506C14.6441 31.9764 14.756 31.8645 14.756 31.7264C14.756 31.5883 14.6441 31.4764 14.506 31.4764ZM14.506 37.0951H13.6185V36.2213C13.6185 36.0832 13.5067 35.9713 13.3685 35.9713C13.2304 35.9713 13.1185 36.0832 13.1185 36.2213V37.0951H12.231C12.0929 37.0951 11.9811 37.2069 11.9811 37.3451C11.9811 37.4832 12.0929 37.5951 12.231 37.5951H13.1185V38.4688C13.1185 38.6069 13.2304 38.7188 13.3685 38.7188C13.5067 38.7188 13.6185 38.6069 13.6185 38.4688V37.5951H14.506C14.6441 37.5951 14.756 37.4832 14.756 37.3451C14.756 37.2069 14.6441 37.0951 14.506 37.0951ZM10.2398 34.2857C9.63171 34.2857 9.13672 34.7764 9.13672 35.3788C9.13672 35.9813 9.63171 36.4713 10.2398 36.4713C10.8486 36.4713 11.3429 35.9813 11.3429 35.3788C11.3429 34.7764 10.8486 34.2857 10.2398 34.2857ZM10.2398 35.9713C9.90733 35.9713 9.63671 35.7057 9.63671 35.3788C9.63671 35.052 9.90733 34.7857 10.2398 34.7857C10.5729 34.7857 10.8429 35.052 10.8429 35.3788C10.8429 35.7057 10.5729 35.9713 10.2398 35.9713Z" fill="white"/>
</g>
<defs>
<clipPath id="clip0_195_863">
<rect width="31.5002" height="29.9996" fill="white" transform="translate(8 9)"/>
</clipPath>
</defs>
</svg>
