<svg width="48" height="48" viewBox="0 0 48 48" fill="none" xmlns="http://www.w3.org/2000/svg">
<rect width="48" height="48" rx="10" fill="#FFCC29"/>
<path d="M24 31.9694C25.5761 31.9694 27.1167 31.502 28.4272 30.6264C29.7377 29.7508 30.759 28.5062 31.3622 27.0501C31.9653 25.594 32.1231 23.9918 31.8156 22.446C31.5082 20.9002 30.7492 19.4803 29.6348 18.3658C28.5203 17.2514 27.1004 16.4924 25.5546 16.185C24.0088 15.8775 22.4066 16.0353 20.9505 16.6384C19.4944 17.2416 18.2498 18.263 17.3742 19.5734C16.4986 20.8839 16.0312 22.4245 16.0312 24.0006C16.032 26.1138 16.8717 28.1403 18.366 29.6346C19.8603 31.1289 21.8868 31.9686 24 31.9694ZM24 24.5319C23.3413 24.5325 22.7058 24.2884 22.2169 23.8469C21.7281 23.4054 21.4207 22.7979 21.3545 22.1426C21.2883 21.4872 21.468 20.8306 21.8587 20.3002C22.2494 19.7698 22.8232 19.4036 23.4688 19.2725V18.6881H24.5312V19.2725C25.1312 19.3949 25.6705 19.721 26.0577 20.1953C26.4449 20.6697 26.6564 21.2633 26.6562 21.8756H25.5938C25.5938 21.5604 25.5003 21.2523 25.3252 20.9902C25.15 20.7281 24.9011 20.5238 24.6099 20.4032C24.3187 20.2825 23.9982 20.251 23.6891 20.3125C23.3799 20.374 23.0959 20.5258 22.873 20.7487C22.6502 20.9715 22.4984 21.2555 22.4369 21.5647C22.3754 21.8738 22.4069 22.1943 22.5276 22.4855C22.6482 22.7767 22.8525 23.0256 23.1146 23.2008C23.3767 23.3759 23.6848 23.4694 24 23.4694C24.6587 23.4687 25.2942 23.7128 25.7831 24.1543C26.2719 24.5959 26.5793 25.2033 26.6455 25.8587C26.7117 26.514 26.532 27.1707 26.1413 27.701C25.7506 28.2314 25.1768 28.5976 24.5312 28.7287V29.3131H23.4688V28.7287C22.8688 28.6063 22.3295 28.2803 21.9423 27.8059C21.5551 27.3315 21.3436 26.738 21.3438 26.1256H22.4062C22.4062 26.4408 22.4997 26.749 22.6748 27.011C22.85 27.2731 23.0989 27.4774 23.3901 27.598C23.6813 27.7187 24.0018 27.7502 24.3109 27.6887C24.6201 27.6272 24.9041 27.4754 25.127 27.2526C25.3498 27.0297 25.5016 26.7457 25.5631 26.4365C25.6246 26.1274 25.5931 25.8069 25.4724 25.5157C25.3518 25.2245 25.1475 24.9756 24.8854 24.8005C24.6233 24.6253 24.3152 24.5319 24 24.5319ZM36.75 24.5319H37.8125V24.5345L38.875 24.5319H39.9375L38.3438 19.2194L36.75 24.5319ZM21.4266 10.3321L21.2768 9.28073C20.9134 9.33385 20.5495 9.3976 20.1941 9.47464L20.4188 10.5132C20.7525 10.4409 21.0887 10.3805 21.4266 10.3321ZM9.16059 25.5545C9.13673 25.2141 9.12486 24.8731 9.125 24.5319H8.0625C8.0625 24.8979 8.07525 25.2671 8.10075 25.6294L9.16059 25.5545ZM9.70247 20.489L8.683 20.1899C8.57986 20.5418 8.48932 20.8973 8.41153 21.2556L9.44959 21.4814C9.52238 21.1478 9.60737 20.8131 9.70247 20.489ZM9.2695 22.4887L8.21763 22.3389C8.1645 22.7001 8.12678 23.0677 8.10128 23.4316L9.16112 23.5071C9.18503 23.1676 9.22169 22.8249 9.2695 22.4887ZM36.0594 31.4068C35.8954 31.706 35.7211 31.9994 35.5366 32.2865L36.4313 32.8613C36.6294 32.5537 36.8185 32.2355 36.9933 31.9168L36.0594 31.4068ZM19.4265 10.7656L19.1284 9.74557C18.7767 9.84864 18.4256 9.96551 18.084 10.093L18.4559 11.088C18.7755 10.969 19.0992 10.8615 19.4265 10.7656ZM34.3636 35.4225L33.6124 34.6734C33.3713 34.9146 33.1189 35.1515 32.8628 35.372L33.5588 36.1747C33.834 35.9357 34.1049 35.6839 34.3636 35.4225ZM31.7993 37.4944C32.1069 37.2967 32.4108 37.0853 32.7024 36.8659L32.0649 36.0159C31.7934 36.2199 31.5103 36.4164 31.2245 36.6003L31.7993 37.4944ZM22.445 10.2237C22.6411 10.2099 22.8408 10.2088 23.04 10.203C23.1685 10.5563 23.4178 10.8528 23.7438 11.0401C24.0698 11.2274 24.4515 11.2934 24.8214 11.2265C25.1914 11.1596 25.5258 10.9641 25.7655 10.6745C26.0052 10.3848 26.1349 10.0198 26.1315 9.64386C26.1281 9.26792 25.9919 8.90528 25.747 8.62003C25.5021 8.33478 25.1643 8.14529 24.7932 8.08505C24.4221 8.02481 24.0416 8.0977 23.7191 8.29083C23.3965 8.48397 23.1526 8.78491 23.0305 9.14048C22.8095 9.14632 22.5879 9.14845 22.3707 9.16332L22.445 10.2237ZM14.2372 36.8669L14.8747 36.0169C14.6018 35.8117 14.336 35.5971 14.0778 35.3736L13.3814 36.1769C13.656 36.4149 13.944 36.647 14.2372 36.8669ZM15.7125 12.4645L15.1366 11.5694C14.8285 11.768 14.5246 11.9795 14.2335 12.1984L14.871 13.0484C15.1442 12.8434 15.4249 12.6487 15.7125 12.4645ZM16.0844 38.0564L16.5944 37.1241C16.2949 36.9603 16.0013 36.7859 15.7141 36.6013L15.1398 37.4944C15.4469 37.6925 15.7656 37.8816 16.0844 38.0564ZM17.5092 11.4812L17.0667 10.5148C16.7336 10.6673 16.4026 10.8336 16.0828 11.0084L16.5928 11.9407C16.8927 11.7766 17.1983 11.6234 17.5092 11.4812ZM14.0736 13.6944L13.3777 12.8916C13.1014 13.1307 12.831 13.383 12.5728 13.6418L13.3245 14.3924C13.5647 14.1507 13.817 13.9159 14.0736 13.6944ZM12.6259 15.1409L11.8232 14.4455C11.5847 14.7207 11.3525 15.0087 11.1326 15.3014L11.9826 15.9389C12.1877 15.6658 12.4039 15.3975 12.6259 15.1409ZM8.21763 26.7233C8.27075 27.0861 8.3345 27.45 8.411 27.8054L9.44959 27.5807C9.37751 27.2465 9.31726 26.9098 9.26897 26.5713L8.21763 26.7233ZM11.3987 16.7783L10.5062 16.2034C10.308 16.5115 10.1206 16.8264 9.94419 17.1475L10.876 17.6575C11.0375 17.36 11.2155 17.0635 11.3987 16.7783ZM10.4175 18.5728L9.45119 18.1314C9.29896 18.4645 9.15862 18.8029 9.03044 19.146L10.026 19.5179C10.1439 19.2002 10.2762 18.8825 10.4175 18.5728ZM36.5189 30.4925L37.4858 30.9339C37.6377 30.6019 37.779 30.2603 37.9065 29.9193L36.911 29.5474C36.7917 29.867 36.6609 30.1823 36.5189 30.4925ZM38.8368 25.6337L37.7769 25.5582C37.752 25.8987 37.7166 26.2383 37.6707 26.5766L38.722 26.727C38.7714 26.3668 38.8107 25.9992 38.8368 25.6337ZM30.3431 37.1225C30.0451 37.2856 29.737 37.4412 29.4272 37.582L29.8693 38.5478C30.2018 38.3959 30.5333 38.2291 30.8531 38.0548L30.3431 37.1225ZM37.2345 28.5763L38.254 28.8754C38.3565 28.5258 38.4479 28.1672 38.5254 27.8097L37.4874 27.5839C37.4145 27.9175 37.3302 28.2485 37.2345 28.5763ZM21.2747 39.783C21.6359 39.8361 22.0041 39.8733 22.368 39.8993L22.4429 38.8395C22.1024 38.815 21.7627 38.7795 21.4245 38.7332L21.2747 39.783ZM19.1263 39.3171C19.4753 39.4196 19.8339 39.511 20.192 39.5885L20.4173 38.5505C20.0842 38.4777 19.75 38.3911 19.4249 38.2976L19.1263 39.3171ZM17.0672 38.5494C17.3998 38.7014 17.7413 38.8427 18.0819 38.9702L18.4537 37.9746C18.135 37.8561 17.8163 37.7244 17.5087 37.5825L17.0672 38.5494ZM28.48 37.9762C28.1613 38.0941 27.8372 38.203 27.5094 38.2992L27.8075 39.3181C28.1598 39.2154 28.5081 39.0997 28.8519 38.9712L28.48 37.9762ZM26.7418 39.5896L26.5171 38.551C26.185 38.6227 25.8461 38.6838 25.5077 38.7316L25.6575 39.7835C26.0187 39.732 26.3853 39.6666 26.7418 39.5896ZM24.4909 38.84C24.1507 38.8639 23.8098 38.8757 23.4688 38.8756V39.9381C23.8343 39.9381 24.2035 39.9254 24.5652 39.8999L24.4909 38.84ZM9.45119 30.9334C9.60366 31.2665 9.76994 31.5975 9.94472 31.9168L10.8771 31.4068C10.714 31.1093 10.5583 30.8011 10.4175 30.4909L9.45119 30.9334ZM8.68247 28.8716C8.78553 29.2244 8.90241 29.5755 9.02991 29.9161L10.0249 29.5442C9.90647 29.2254 9.79809 28.9009 9.70194 28.5731L8.68247 28.8716ZM11.8269 34.6256C12.066 34.9013 12.3183 35.1723 12.5771 35.4304L13.3277 34.6787C13.086 34.4374 12.8532 34.1874 12.6297 33.9291L11.8269 34.6256ZM10.5062 32.8629C10.7039 33.1705 10.9158 33.4744 11.1347 33.766L11.9847 33.1285C11.7802 32.8554 11.5854 32.5751 11.4009 32.2881L10.5062 32.8629ZM34.9533 33.1269C34.7484 33.4 34.534 33.6658 34.3105 33.9238L35.1127 34.6203C35.3512 34.3456 35.5834 34.0577 35.8033 33.7644L34.9533 33.1269ZM34.0938 11.2506H35.1562V12.3131H34.0938V11.2506ZM34.0938 13.3756H35.1562V14.4381H34.0938V13.3756ZM35.1562 12.3131H36.2188V13.3756H35.1562V12.3131ZM33.0312 12.3131H34.0938V13.3756H33.0312V12.3131Z" fill="#14171B"/>
</svg>
