<svg width="60" height="60" viewBox="0 0 60 60" fill="none" xmlns="http://www.w3.org/2000/svg">
<rect x="0.46875" y="0.46875" width="59.0625" height="59.0625" rx="18.2812" stroke="#CC63D2" stroke-width="0.9375"/>
<rect x="3" y="3" width="54" height="54" rx="18.75" fill="#CC63D2"/>
<path d="M33.4406 17.5508H26.5594C25.8136 17.5513 25.0985 17.8478 24.5712 18.3751C24.0438 18.9024 23.7474 19.6175 23.7469 20.3633V39.6383C23.7474 40.3841 24.0438 41.0991 24.5712 41.6265C25.0985 42.1538 25.8136 42.4503 26.5594 42.4508H33.4406C34.1864 42.4503 34.9015 42.1538 35.4288 41.6265C35.9562 41.0991 36.2526 40.3841 36.2531 39.6383V20.3633C36.2526 19.6175 35.9562 18.9024 35.4288 18.3751C34.9015 17.8478 34.1864 17.5513 33.4406 17.5508ZM19.9866 19.422H17.8125C17.5639 19.422 17.3254 19.5208 17.1496 19.6966C16.9738 19.8724 16.875 20.1109 16.875 20.3595C16.875 20.6082 16.9738 20.8466 17.1496 21.0224C17.3254 21.1983 17.5639 21.297 17.8125 21.297H19.9866C20.2077 21.2973 20.4197 21.3853 20.5759 21.5417C20.7322 21.6982 20.82 21.9103 20.82 22.1314V36.703C20.82 36.9243 20.7321 37.1365 20.5756 37.293C20.4191 37.4494 20.2069 37.5373 19.9856 37.5373H17.8125C17.5639 37.5373 17.3254 37.6361 17.1496 37.8119C16.9738 37.9877 16.875 38.2262 16.875 38.4748C16.875 38.7235 16.9738 38.9619 17.1496 39.1378C17.3254 39.3136 17.5639 39.4123 17.8125 39.4123H19.9866C20.7048 39.4116 21.3934 39.1259 21.9012 38.6179C22.409 38.1099 22.6945 37.4212 22.695 36.703V22.1305C22.6945 21.4121 22.4089 20.7232 21.9009 20.2152C21.3929 19.7072 20.704 19.4216 19.9856 19.4211L19.9866 19.422ZM42.1875 37.5373H40.0144C39.7932 37.5371 39.5811 37.4491 39.4247 37.2927C39.2682 37.1363 39.1802 36.9242 39.18 36.703V22.1305C39.1802 21.9093 39.2682 21.6972 39.4247 21.5408C39.5811 21.3843 39.7932 21.2963 40.0144 21.2961H42.1875C42.4361 21.2961 42.6746 21.1973 42.8504 21.0215C43.0262 20.8457 43.125 20.6072 43.125 20.3586C43.125 20.11 43.0262 19.8715 42.8504 19.6957C42.6746 19.5199 42.4361 19.4211 42.1875 19.4211H40.0144C39.296 19.4216 38.6071 19.7072 38.0991 20.2152C37.5911 20.7232 37.3055 21.4121 37.305 22.1305V36.7039C37.3055 37.4223 37.5911 38.1112 38.0991 38.6192C38.6071 39.1272 39.296 39.4128 40.0144 39.4133H42.1875C42.4361 39.4133 42.6746 39.3145 42.8504 39.1387C43.0262 38.9629 43.125 38.7244 43.125 38.4758C43.125 38.2271 43.0262 37.9887 42.8504 37.8129C42.6746 37.6371 42.4361 37.5383 42.1875 37.5383V37.5373Z" fill="white"/>
</svg>
