<svg width="60" height="60" viewBox="0 0 60 60" fill="none" xmlns="http://www.w3.org/2000/svg">
<rect x="0.46875" y="0.46875" width="59.0625" height="59.0625" rx="18.2812" stroke="#E6A55B" stroke-width="0.9375"/>
<rect x="3" y="3" width="54" height="54" rx="18.75" fill="#E6A55B"/>
<path d="M44.0012 29.9996C42.9933 29.9996 42.1232 30.5519 41.6511 31.3623H30.3633V34.09H41.6511C42.1232 34.9025 42.9933 35.4539 44.0012 35.4539C44.3593 35.4538 44.7139 35.3832 45.0446 35.246C45.3754 35.1089 45.6759 34.9079 45.929 34.6546C46.182 34.4013 46.3827 34.1006 46.5196 33.7697C46.6564 33.4388 46.7268 33.0842 46.7265 32.7262C46.7262 32.0034 46.439 31.3102 45.928 30.799C45.4171 30.2878 44.7241 30.0003 44.0012 29.9996ZM44.0012 19.0898C42.9933 19.0898 42.1232 19.6437 41.6511 20.4537H30.3633V23.1819H41.6511C42.1232 23.9943 42.9933 24.5458 44.0012 24.5458C44.7244 24.5453 45.4178 24.2577 45.9289 23.7461C46.4399 23.2344 46.7269 22.5408 46.7265 21.8176C46.7265 21.0946 46.4395 20.4011 45.9285 19.8897C45.4174 19.3782 44.7243 19.0905 44.0012 19.0898Z" fill="white"/>
<path d="M27.6355 17.7278H33.091C33.0911 17.3695 33.0206 17.0148 32.8836 16.6838C32.7466 16.3528 32.5456 16.052 32.2923 15.7987C32.039 15.5454 31.7383 15.3445 31.4073 15.2074C31.0763 15.0704 30.7215 14.9999 30.3633 15H16.7265C16.0033 15.0003 15.3098 15.2879 14.7985 15.7994C14.2872 16.3109 14 17.0045 14 17.7278V42.2731C13.9999 42.6311 14.0704 42.9857 14.2074 43.3166C14.3444 43.6474 14.5453 43.948 14.7984 44.2013C15.0516 44.4545 15.3522 44.6554 15.683 44.7924C16.0139 44.9295 16.3684 45 16.7265 45H30.3633C30.7215 45.0002 31.0762 44.9297 31.4071 44.7928C31.7381 44.6558 32.0388 44.4549 32.2921 44.2017C32.5455 43.9485 32.7464 43.6478 32.8835 43.3169C33.0205 42.9859 33.0911 42.6313 33.091 42.2731H27.6355V17.7278ZM24.909 39.5457H16.7265V36.8188H24.909V39.5457ZM24.909 34.091H16.7265V31.3633H24.909V34.091ZM24.909 28.6367H16.7265V25.9094H24.909V28.6367ZM24.909 23.1825H16.7265V20.4543H24.909V23.1825Z" fill="white"/>
<path d="M35.8188 35.4535C34.8108 35.4535 33.9419 36.0066 33.4686 36.8174H30.3633V39.5443H33.4686C33.9419 40.3567 34.8108 40.9082 35.8188 40.9082C36.177 40.9082 36.5316 40.8376 36.8625 40.7005C37.1934 40.5634 37.4941 40.3625 37.7473 40.1092C38.0005 39.8559 38.2014 39.5552 38.3384 39.2242C38.4754 38.8933 38.5458 38.5386 38.5457 38.1804C38.5453 37.4573 38.2579 36.764 37.7466 36.2527C37.2352 35.7414 36.5419 35.4539 35.8188 35.4535ZM38.5465 24.5449C37.5386 24.5449 36.6685 25.0976 36.1964 25.9076H30.3633V28.6353H36.1964C36.6685 29.4478 37.5386 29.9992 38.5465 29.9992C38.9046 29.9991 39.2592 29.9285 39.59 29.7913C39.9208 29.6542 40.2213 29.4532 40.4744 29.1999C40.7275 28.9466 40.9283 28.6459 41.0651 28.315C41.202 27.9842 41.2724 27.6295 41.2723 27.2715C41.2719 26.5486 40.9847 25.8554 40.4736 25.3442C39.9625 24.8329 39.2694 24.5455 38.5465 24.5449Z" fill="white"/>
</svg>
