<svg width="60" height="60" viewBox="0 0 60 60" fill="none" xmlns="http://www.w3.org/2000/svg">
<rect x="0.46875" y="0.46875" width="59.0625" height="59.0625" rx="18.2812" stroke="#CC63D2" stroke-width="0.9375"/>
<g clip-path="url(#clip0_170_376)">
<rect x="3" y="3" width="54" height="54" rx="18.75" fill="#CC63D2"/>
<g clip-path="url(#clip1_170_376)">
<mask id="mask0_170_376" style="mask-type:luminance" maskUnits="userSpaceOnUse" x="-1" y="-1" width="62" height="62">
<path d="M30 61C47.1208 61 61 47.1208 61 30C61 12.8792 47.1208 -1 30 -1C12.8792 -1 -1 12.8792 -1 30C-1 47.1208 12.8792 61 30 61Z" fill="white"/>
</mask>
<g mask="url(#mask0_170_376)">
<path d="M12.3203 124.453C49.1033 124.453 78.9219 94.6346 78.9219 57.8516C78.9219 21.0685 49.1033 -8.75 12.3203 -8.75C-24.4627 -8.75 -54.2812 21.0685 -54.2812 57.8516C-54.2812 94.6346 -24.4627 124.453 12.3203 124.453Z" fill="url(#paint0_radial_170_376)"/>
</g>
<path d="M38.7188 23.7031C40.0563 23.7031 41.1406 22.6188 41.1406 21.2812C41.1406 19.9437 40.0563 18.8594 38.7188 18.8594C37.3812 18.8594 36.2969 19.9437 36.2969 21.2812C36.2969 22.6188 37.3812 23.7031 38.7188 23.7031Z" fill="white"/>
<path d="M30 22.25C28.4672 22.25 26.9688 22.7045 25.6943 23.5561C24.4199 24.4077 23.4265 25.6181 22.8399 27.0342C22.2534 28.4503 22.0999 30.0086 22.3989 31.5119C22.698 33.0153 23.4361 34.3962 24.5199 35.4801C25.6038 36.5639 26.9847 37.3021 28.4881 37.6011C29.9914 37.9001 31.5497 37.7466 32.9658 37.1601C34.3819 36.5735 35.5923 35.5801 36.4439 34.3057C37.2955 33.0312 37.75 31.5328 37.75 30C37.75 27.9446 36.9335 25.9733 35.4801 24.5199C34.0267 23.0665 32.0554 22.25 30 22.25ZM30 33.875C29.2336 33.875 28.4844 33.6477 27.8472 33.2219C27.2099 32.7962 26.7133 32.191 26.42 31.4829C26.1267 30.7748 26.0499 29.9957 26.1995 29.244C26.349 28.4923 26.718 27.8019 27.26 27.26C27.8019 26.718 28.4924 26.349 29.244 26.1995C29.9957 26.0499 30.7748 26.1267 31.4829 26.42C32.191 26.7133 32.7962 27.2099 33.2219 27.8472C33.6477 28.4844 33.875 29.2336 33.875 30C33.875 31.0277 33.4667 32.0133 32.74 32.74C32.0133 33.4667 31.0277 33.875 30 33.875Z" fill="white"/>
<path d="M39.6875 14.5H20.3125C17.1023 14.5 14.5 17.1023 14.5 20.3125V39.6875C14.5 42.8977 17.1023 45.5 20.3125 45.5H39.6875C42.8977 45.5 45.5 42.8977 45.5 39.6875V20.3125C45.5 17.1023 42.8977 14.5 39.6875 14.5Z" stroke="white" stroke-width="3.875" stroke-miterlimit="10"/>
</g>
</g>
<defs>
<radialGradient id="paint0_radial_170_376" cx="0" cy="0" r="1" gradientUnits="userSpaceOnUse" gradientTransform="translate(12.3203 57.8516) scale(66.6016)">
<stop stop-color="#FFD676"/>
<stop offset="0.25" stop-color="#F2A454"/>
<stop offset="0.38" stop-color="#F05C3C"/>
<stop offset="0.7" stop-color="#C22F86"/>
<stop offset="0.96" stop-color="#6666AD"/>
<stop offset="0.99" stop-color="#5C6CB2"/>
</radialGradient>
<clipPath id="clip0_170_376">
<rect x="3" y="3" width="54" height="54" rx="18.75" fill="white"/>
</clipPath>
<clipPath id="clip1_170_376">
<rect width="62" height="62" fill="white" transform="translate(-1 -1)"/>
</clipPath>
</defs>
</svg>
