<svg width="60" height="60" viewBox="0 0 60 60" fill="none" xmlns="http://www.w3.org/2000/svg">
<rect x="0.46875" y="0.46875" width="59.0625" height="59.0625" rx="18.2812" stroke="#987EFC" stroke-width="0.9375"/>
<rect x="3" y="3" width="54" height="54" rx="18.75" fill="#987EFC"/>
<path d="M42.587 23.2145C42.162 23.0231 41.6901 22.9609 41.23 23.0355C40.77 23.1101 40.3419 23.3182 39.9992 23.6341L36.9918 26.4317V24.4034C36.9918 23.2905 36.5497 22.2231 35.7627 21.4361C34.9757 20.6492 33.9083 20.207 32.7954 20.207H20.2062C19.0932 20.207 18.0258 20.6492 17.2389 21.4361C16.4519 22.2231 16.0098 23.2905 16.0098 24.4034V35.5938C16.0098 36.7068 16.4519 37.7742 17.2389 38.5611C18.0258 39.3481 19.0932 39.7902 20.2062 39.7902H32.7954C33.9083 39.7902 34.9757 39.3481 35.7627 38.5611C36.5497 37.7742 36.9918 36.7068 36.9918 35.5938V33.5656L40.0132 36.3632C40.458 36.7658 41.0358 36.99 41.6358 36.9926C41.9687 36.9919 42.2977 36.9203 42.601 36.7828C43.0135 36.6159 43.367 36.3298 43.6161 35.9611C43.8653 35.5923 43.9989 35.1576 43.9998 34.7126V25.2847C43.9977 24.838 43.8621 24.4022 43.6103 24.0333C43.3586 23.6643 43.0022 23.3792 42.587 23.2145Z" fill="white"/>
</svg>
