<svg width="62" height="63" viewBox="0 0 62 63" fill="none" xmlns="http://www.w3.org/2000/svg">
<path d="M0 -1H62V33C62 49.5685 48.5685 63 32 63H30C13.4315 63 0 49.5685 0 33V-1Z" fill="#034737"/>
<path d="M40.9084 34.306C40.9617 33.8793 41.0017 33.4527 41.0017 32.9993C41.0017 32.546 40.9617 32.1193 40.9084 31.6927L43.7217 29.4927C43.9751 29.2927 44.0417 28.9327 43.8817 28.6393L41.2151 24.026C41.0551 23.7327 40.6951 23.626 40.4017 23.7327L37.0817 25.066C36.3884 24.5327 35.6417 24.0927 34.8284 23.7593L34.3217 20.226C34.2817 19.906 34.0017 19.666 33.6684 19.666H28.3351C28.0017 19.666 27.7217 19.906 27.6817 20.226L27.1751 23.7593C26.3617 24.0927 25.6151 24.546 24.9217 25.066L21.6017 23.7327C21.2951 23.6127 20.9484 23.7327 20.7884 24.026L18.1217 28.6393C17.9484 28.9327 18.0284 29.2927 18.2817 29.4927L21.0951 31.6927C21.0417 32.1193 21.0017 32.5593 21.0017 32.9993C21.0017 33.4393 21.0417 33.8793 21.0951 34.306L18.2817 36.506C18.0284 36.706 17.9617 37.066 18.1217 37.3593L20.7884 41.9727C20.9484 42.266 21.3084 42.3727 21.6017 42.266L24.9217 40.9327C25.6151 41.466 26.3617 41.906 27.1751 42.2393L27.6817 45.7727C27.7217 46.0927 28.0017 46.3327 28.3351 46.3327H33.6684C34.0017 46.3327 34.2817 46.0927 34.3217 45.7727L34.8284 42.2393C35.6417 41.906 36.3884 41.4527 37.0817 40.9327L40.4017 42.266C40.7084 42.386 41.0551 42.266 41.2151 41.9727L43.8817 37.3593C44.0417 37.066 43.9751 36.706 43.7217 36.506L40.9084 34.306ZM31.0017 37.666C28.4284 37.666 26.3351 35.5727 26.3351 32.9993C26.3351 30.426 28.4284 28.3327 31.0017 28.3327C33.5751 28.3327 35.6684 30.426 35.6684 32.9993C35.6684 35.5727 33.5751 37.666 31.0017 37.666Z" fill="white"/>
</svg>
