<svg width="62" height="63" viewBox="0 0 62 63" fill="none" xmlns="http://www.w3.org/2000/svg">
<path d="M0 -1H62V33C62 49.5685 48.5685 63 32 63H30C13.4315 63 0 49.5685 0 33V-1Z" fill="#034737"/>
<path d="M40.7255 39.8235C40.6562 40.8903 40.3498 41.9282 39.8288 42.8616C39.3079 43.7951 38.5853 44.6006 37.7137 45.2196C37.4475 45.4193 37.1128 45.5051 36.7833 45.458C36.4538 45.4109 36.1566 45.2349 35.9569 44.9686C35.7572 44.7024 35.6714 44.3677 35.7185 44.0382C35.7656 43.7087 35.9416 43.4115 36.2078 43.2118C36.9566 42.6685 37.5425 41.9308 37.902 41.0784H36.3333C36.0005 41.0784 35.6813 40.9462 35.446 40.7109C35.2106 40.4755 35.0784 40.1564 35.0784 39.8235C35.0784 39.4907 35.2106 39.1715 35.446 38.9362C35.6813 38.7008 36.0005 38.5686 36.3333 38.5686H39.4706C39.8034 38.5686 40.1226 38.7008 40.3579 38.9362C40.5933 39.1715 40.7255 39.4907 40.7255 39.8235ZM45.7451 38.5686H42.6078C42.275 38.5686 41.9558 38.7008 41.7205 38.9362C41.4852 39.1715 41.3529 39.4907 41.3529 39.8235C41.3529 40.1564 41.4852 40.4755 41.7205 40.7109C41.9558 40.9462 42.275 41.0784 42.6078 41.0784H44.1765C43.817 41.9308 43.2311 42.6685 42.4824 43.2118C42.3505 43.3106 42.2394 43.4345 42.1555 43.5763C42.0715 43.7181 42.0163 43.8751 41.993 44.0382C41.9697 44.2014 41.9788 44.3675 42.0197 44.5271C42.0606 44.6868 42.1325 44.8368 42.2314 44.9686C42.3303 45.1005 42.4541 45.2115 42.5959 45.2955C42.7377 45.3795 42.8947 45.4347 43.0578 45.458C43.221 45.4813 43.3871 45.4722 43.5467 45.4313C43.7064 45.3904 43.8564 45.3185 43.9882 45.2196C44.8598 44.6006 45.5824 43.7951 46.1034 42.8616C46.6244 41.9282 46.9307 40.8903 47 39.8235C47 39.4907 46.8678 39.1715 46.6324 38.9362C46.3971 38.7008 46.0779 38.5686 45.7451 38.5686ZM22.5294 27.902H25.6667C25.9995 27.902 26.3187 27.7698 26.554 27.5344C26.7894 27.2991 26.9216 26.9799 26.9216 26.6471C26.9216 26.3142 26.7894 25.9951 26.554 25.7597C26.3187 25.5244 25.9995 25.3922 25.6667 25.3922H24.098C24.4575 24.5398 25.0434 23.8021 25.7922 23.2588C26.0584 23.0591 26.2344 22.7619 26.2815 22.4324C26.3286 22.1029 26.2428 21.7682 26.0431 21.502C25.8434 21.2357 25.5462 21.0597 25.2167 21.0126C24.8872 20.9655 24.5525 21.0513 24.2863 21.251C23.4147 21.87 22.6922 22.6755 22.1712 23.609C21.6502 24.5424 21.3438 25.5803 21.2745 26.6471C21.2745 26.9799 21.4067 27.2991 21.6421 27.5344C21.8774 27.7698 22.1966 27.902 22.5294 27.902ZM16.2549 27.902H19.3922C19.725 27.902 20.0442 27.7698 20.2795 27.5344C20.5148 27.2991 20.6471 26.9799 20.6471 26.6471C20.6471 26.3142 20.5148 25.9951 20.2795 25.7597C20.0442 25.5244 19.725 25.3922 19.3922 25.3922H17.8235C18.183 24.5398 18.7689 23.8021 19.5176 23.2588C19.6495 23.16 19.7606 23.0361 19.8445 22.8943C19.9285 22.7525 19.9837 22.5955 20.007 22.4324C20.0303 22.2692 20.0212 22.1031 19.9803 21.9435C19.9394 21.7838 19.8675 21.6338 19.7686 21.502C19.6698 21.3701 19.5459 21.2591 19.4041 21.1751C19.2623 21.0911 19.1053 21.0359 18.9422 21.0126C18.779 20.9893 18.6129 20.9984 18.4533 21.0393C18.2936 21.0802 18.1436 21.1521 18.0118 21.251C17.1402 21.87 16.4176 22.6755 15.8966 23.609C15.3756 24.5424 15.0693 25.5803 15 26.6471C15 26.9799 15.1322 27.2991 15.3676 27.5344C15.6029 27.7698 15.9221 27.902 16.2549 27.902ZM30.0588 27.902H45.7451C46.0779 27.902 46.3971 27.7698 46.6324 27.5344C46.8678 27.2991 47 26.9799 47 26.6471C47 26.3142 46.8678 25.9951 46.6324 25.7597C46.3971 25.5244 46.0779 25.3922 45.7451 25.3922H30.0588C29.726 25.3922 29.4068 25.5244 29.1715 25.7597C28.9361 25.9951 28.8039 26.3142 28.8039 26.6471C28.8039 26.9799 28.9361 27.2991 29.1715 27.5344C29.4068 27.7698 29.726 27.902 30.0588 27.902ZM45.7451 29.7843H16.2549C15.9221 29.7843 15.6029 29.9165 15.3676 30.1519C15.1322 30.3872 15 30.7064 15 31.0392C15 31.372 15.1322 31.6912 15.3676 31.9266C15.6029 32.1619 15.9221 32.2941 16.2549 32.2941H45.7451C46.0779 32.2941 46.3971 32.1619 46.6324 31.9266C46.8678 31.6912 47 31.372 47 31.0392C47 30.7064 46.8678 30.3872 46.6324 30.1519C46.3971 29.9165 46.0779 29.7843 45.7451 29.7843ZM45.7451 34.1765H16.2549C15.9221 34.1765 15.6029 34.3087 15.3676 34.544C15.1322 34.7794 15 35.0986 15 35.4314C15 35.7642 15.1322 36.0834 15.3676 36.3187C15.6029 36.5541 15.9221 36.6863 16.2549 36.6863H45.7451C46.0779 36.6863 46.3971 36.5541 46.6324 36.3187C46.8678 36.0834 47 35.7642 47 35.4314C47 35.0986 46.8678 34.7794 46.6324 34.544C46.3971 34.3087 46.0779 34.1765 45.7451 34.1765ZM31.9412 38.5686H16.2549C15.9221 38.5686 15.6029 38.7008 15.3676 38.9362C15.1322 39.1715 15 39.4907 15 39.8235C15 40.1564 15.1322 40.4755 15.3676 40.7109C15.6029 40.9462 15.9221 41.0784 16.2549 41.0784H31.9412C32.274 41.0784 32.5932 40.9462 32.8285 40.7109C33.0639 40.4755 33.1961 40.1564 33.1961 39.8235C33.1961 39.4907 33.0639 39.1715 32.8285 38.9362C32.5932 38.7008 32.274 38.5686 31.9412 38.5686Z" fill="white"/>
</svg>
