<svg width="62" height="63" viewBox="0 0 62 63" fill="none" xmlns="http://www.w3.org/2000/svg">
<path d="M0 -1H62V33C62 49.5685 48.5685 63 32 63H30C13.4315 63 0 49.5685 0 33V-1Z" fill="#034737"/>
<g clip-path="url(#clip0_193_857)">
<path d="M41.934 13.334H20.0673C17.4673 13.334 15.334 15.4673 15.334 18.0673V39.934C15.334 42.534 17.4673 44.6673 20.0673 44.6673H41.934C44.534 44.6673 46.6673 42.534 46.6673 39.934V18.0673C46.6673 15.4673 44.534 13.334 41.934 13.334ZM32.4673 34.6673L31.4673 32.4007H27.0673L26.0673 34.6673H23.6007L28.134 24.2007H30.4007L34.934 34.6673H32.4673ZM38.2007 34.6673H35.934V26.6007H38.2007V34.6673ZM38.0007 25.6007C37.734 25.8673 37.4007 26.0007 37.0673 26.0007C36.6673 26.0007 36.4007 25.8673 36.134 25.6007C35.8673 25.334 35.734 25.0007 35.734 24.6673C35.734 24.2673 35.8673 24.0007 36.134 23.734C36.4007 23.4673 36.734 23.334 37.0673 23.334C37.4673 23.334 37.734 23.4673 38.0007 23.734C38.2673 24.0007 38.4007 24.334 38.4007 24.6673C38.4007 25.0007 38.2673 25.334 38.0007 25.6007Z" fill="white"/>
<path d="M28 30.334H30.6L29.2667 27.334L28 30.334Z" fill="white"/>
</g>
<defs>
<clipPath id="clip0_193_857">
<rect width="32" height="32" fill="white" transform="translate(15 13)"/>
</clipPath>
</defs>
</svg>
