<svg width="62" height="63" viewBox="0 0 62 63" fill="none" xmlns="http://www.w3.org/2000/svg">
<path d="M0 -1H62V33C62 49.5685 48.5685 63 32 63H30C13.4315 63 0 49.5685 0 33V-1Z" fill="#034737"/>
<path d="M30.4493 35.3008C30.2993 35.1008 30.1493 35.0508 29.9493 35.1008C28.9493 35.4008 27.9493 35.3008 26.9493 34.8008C25.8993 34.3008 25.2493 33.6508 24.8993 32.8008C24.7993 32.5508 24.6493 32.4508 24.3493 32.5008C24.1493 32.5008 23.8993 32.5508 23.6993 32.5508H23.5493C23.2493 32.6008 22.8493 32.6008 22.4993 32.6508C22.2493 32.6508 22.0993 32.8508 22.0493 32.9508C22.0493 33.0008 21.9993 33.0508 21.9993 33.1008V33.1508C21.9493 33.3508 21.8993 33.6008 21.7993 33.8508C21.7493 33.9508 21.6993 34.0008 21.6493 34.1008C21.1993 34.8008 20.6493 35.3008 20.0993 35.6508C19.3493 36.1508 18.4993 36.3508 17.5493 36.2508C17.2493 36.2008 17.0993 36.4008 16.9993 36.5508L16.2493 38.2008C16.1493 38.4508 16.1993 38.6008 16.3493 38.8008C17.5493 39.9508 17.8993 41.4508 17.3993 43.3508C17.3993 43.4508 17.3493 43.5508 17.2993 43.6008C17.1993 43.8008 17.0493 44.0508 16.9493 44.2008L16.8993 44.2508C16.8493 44.3008 16.8493 44.3508 16.7993 44.4008C16.6993 44.6008 16.7493 44.7508 16.8493 44.9508C17.0493 45.2508 17.2493 45.5508 17.4493 45.8008L17.4993 45.8508C17.6493 46.0508 17.7493 46.2508 17.8993 46.4008C18.0493 46.6008 18.2493 46.6508 18.4993 46.6008C19.3993 46.3008 20.2993 46.4008 21.3493 46.8508C22.3993 47.3008 23.0993 48.0008 23.4993 48.9508C23.5993 49.1508 23.7493 49.2508 23.9993 49.2008C24.6993 49.1508 25.2993 49.1008 25.8993 49.0508C25.9493 49.0508 26.0493 49.0508 26.1493 48.9508L26.2993 48.8008C26.2993 48.7508 26.3493 48.7008 26.3493 48.6508C26.3993 48.4008 26.4493 48.1508 26.5493 47.9508C26.8993 47.2508 27.5493 46.5508 28.3493 46.0508C29.1993 45.5508 30.0493 45.3508 30.7993 45.5008C30.8993 45.5008 31.0493 45.5508 31.1993 45.4508C31.2993 45.4008 31.3493 45.3008 31.4493 45.1508C31.5993 44.8508 31.6993 44.5508 31.7993 44.4008C31.8993 44.2008 31.9993 43.9008 32.1493 43.6008C32.2993 43.2008 32.1493 43.0008 31.9993 42.9008C31.4493 42.4508 30.9993 41.6508 30.8493 40.7008C30.6993 39.7508 30.7993 38.8008 31.0993 38.1008C31.1993 37.8508 31.3493 37.6508 31.4993 37.4508C31.5493 37.3508 31.6493 37.2508 31.5993 37.0508C31.5993 37.0008 31.5493 36.9008 31.4993 36.8508C31.1493 36.3008 30.7993 35.7508 30.4493 35.3008ZM27.4493 42.3508C27.1493 42.9508 26.6993 43.5008 26.1493 43.8508C25.1493 44.5008 23.9493 44.6008 22.8493 44.1508C21.9493 43.7508 21.2493 43.0508 20.8993 42.1508C20.5493 41.2508 20.5993 40.2508 20.9993 39.3508C21.2993 38.7508 21.7493 38.2008 22.2993 37.8508C22.5493 37.7008 22.7993 37.6008 23.0493 37.5008C23.9493 37.2008 24.9493 37.2508 25.8493 37.7008C27.4993 38.5508 28.1993 40.6008 27.4493 42.3508Z" fill="white"/>
<path d="M26.0838 41.7276C26.5679 40.6737 26.106 39.4269 25.052 38.9427C23.9981 38.4586 22.7513 38.9206 22.2672 39.9745C21.7831 41.0284 22.245 42.2753 23.2989 42.7594C24.3529 43.2435 25.5997 42.7815 26.0838 41.7276Z" fill="white"/>
<path d="M32.9993 21.0002C32.8993 20.8502 32.7493 20.8002 32.5493 20.8502C31.6993 21.1002 30.8993 21.0502 30.0493 20.6002C29.1993 20.2002 28.6493 19.6502 28.3493 18.9502C28.2493 18.7502 28.1493 18.6502 27.8993 18.7002C27.6993 18.7002 27.5493 18.7502 27.3493 18.7502H27.2493C26.9993 18.8002 26.6993 18.8002 26.3993 18.8502C26.1993 18.8502 26.0493 19.0002 26.0493 19.1002C26.0493 19.1502 25.9993 19.2002 25.9993 19.2502V19.3002C25.9493 19.5002 25.8993 19.7002 25.7993 19.8502C25.7493 19.9502 25.7493 20.0002 25.6993 20.0502C25.2993 20.6002 24.8993 21.0502 24.4493 21.3502C23.7993 21.7502 23.0993 21.9002 22.2993 21.8502C22.0493 21.8502 21.8993 21.9502 21.8493 22.1002L21.2493 23.4502C21.1493 23.6502 21.1993 23.8002 21.3493 23.9502C22.3493 24.9002 22.5993 26.1502 22.1993 27.7002C22.1993 27.7502 22.1493 27.8502 22.0993 27.9002C21.9993 28.1002 21.8993 28.2502 21.7993 28.4002L21.7493 28.4502C21.6993 28.5002 21.6993 28.5502 21.6993 28.5502C21.6493 28.7002 21.6493 28.8502 21.7493 29.0002C21.8993 29.2502 22.0993 29.5002 22.2493 29.7002L22.2993 29.7502C22.3993 29.9002 22.4993 30.0502 22.6493 30.2002C22.7493 30.3502 22.9493 30.4502 23.1493 30.3502C23.8993 30.1002 24.6493 30.2002 25.4993 30.5502C26.3493 30.9002 26.9493 31.5002 27.2993 32.3002C27.3493 32.4502 27.4993 32.5502 27.6993 32.5502C28.2993 32.5002 28.7493 32.4502 29.2493 32.4002C29.2993 32.4002 29.3993 32.4002 29.4493 32.3502C29.4993 32.3002 29.5493 32.2502 29.5493 32.2002C29.5493 32.1502 29.5993 32.1002 29.5993 32.0502C29.6493 31.8502 29.6993 31.6502 29.7993 31.4502C30.0493 30.8502 30.5993 30.3002 31.2993 29.9002C31.9993 29.5002 32.6993 29.3002 33.2993 29.4502C33.3993 29.4502 33.4993 29.5002 33.6493 29.4002C33.7493 29.3502 33.7993 29.3002 33.8493 29.1502C33.9493 28.9002 34.0493 28.6502 34.1493 28.5002C34.1993 28.3502 34.3493 28.1002 34.4493 27.8502C34.5993 27.5502 34.4493 27.3502 34.2993 27.2502C33.8493 26.9002 33.4993 26.2002 33.3493 25.4002C33.1993 24.6502 33.2993 23.8502 33.5493 23.2502C33.6493 23.0502 33.7493 22.8502 33.8993 22.7002C33.9493 22.7002 33.9993 22.5502 33.9993 22.4002C33.9993 22.3502 33.9493 22.3002 33.8993 22.2502C33.5993 21.8002 33.2993 21.4002 32.9993 21.0002ZM30.4993 26.8502C30.2493 27.3502 29.8993 27.8002 29.3993 28.1002C28.5993 28.6502 27.5493 28.7002 26.6993 28.3502C25.9493 28.0502 25.3493 27.4502 25.0493 26.7002C24.7493 25.9502 24.7993 25.1502 25.1493 24.4002C25.3993 23.9002 25.7493 23.4502 26.1993 23.1502C26.3993 23.0502 26.5993 22.9002 26.7993 22.8502C27.5493 22.6002 28.3993 22.6502 29.0993 23.0002C30.5493 23.6502 31.1493 25.3502 30.4993 26.8502Z" fill="white"/>
<path d="M44.3997 37.7991C44.2997 37.6491 44.1497 37.5991 43.9497 37.6491C43.0997 37.8991 42.2997 37.8491 41.4497 37.3991C40.5997 36.9991 40.0497 36.4491 39.7497 35.7491C39.6497 35.5491 39.5497 35.4491 39.2997 35.4991C39.0997 35.4991 38.9497 35.5491 38.7497 35.5491H38.6497C38.3997 35.5991 38.0997 35.5991 37.7997 35.6491C37.5997 35.6491 37.4497 35.7991 37.4497 35.8991C37.4497 35.9491 37.3997 35.9991 37.3997 36.0491V36.0991C37.3497 36.2991 37.2997 36.4991 37.1997 36.6491C37.1497 36.7491 37.1497 36.7991 37.0997 36.8491C36.6997 37.3991 36.2997 37.8491 35.8497 38.1491C35.1997 38.5491 34.4997 38.6991 33.6997 38.6491C33.4497 38.6491 33.2997 38.7491 33.2497 38.8991L32.6497 40.2491C32.5497 40.4491 32.5997 40.5991 32.7497 40.7491C33.7497 41.6991 33.9997 42.9491 33.5997 44.4991C33.5997 44.5491 33.5497 44.6491 33.4997 44.6991C33.3997 44.8991 33.2997 45.0491 33.1997 45.1991L33.1497 45.2491C33.0997 45.2991 33.0997 45.3491 33.0997 45.3491C33.0497 45.4991 33.0497 45.6491 33.1497 45.7991C33.2997 46.0491 33.4997 46.2991 33.6497 46.4991L33.6997 46.5491C33.7997 46.6991 33.8997 46.8491 34.0497 46.9991C34.1497 47.1491 34.3497 47.2491 34.5497 47.1491C35.2997 46.8991 36.0497 46.9991 36.8997 47.3491C37.7497 47.6991 38.3497 48.2991 38.6997 49.0991C38.7497 49.2491 38.8997 49.3491 39.0997 49.3491C39.6997 49.2991 40.1497 49.2491 40.6497 49.1991C40.6997 49.1991 40.7997 49.1991 40.8497 49.1491C40.8997 49.0991 40.9497 49.0491 40.9497 48.9991C40.9497 48.9491 40.9997 48.8991 40.9997 48.8491C41.0497 48.6491 41.0997 48.4491 41.1997 48.2491C41.4497 47.6491 41.9997 47.0991 42.6997 46.6991C43.3997 46.2991 44.0997 46.0991 44.6997 46.2491C44.7997 46.2491 44.8997 46.2991 45.0497 46.1991C45.1497 46.1491 45.1997 46.0991 45.2497 45.9491C45.3497 45.6991 45.4497 45.4491 45.5497 45.2991C45.5997 45.1491 45.7497 44.8991 45.8497 44.6491C45.9997 44.3491 45.8497 44.1491 45.6997 44.0491C45.2497 43.6991 44.8997 42.9991 44.7497 42.1991C44.5997 41.4491 44.6997 40.6491 44.9497 40.0491C45.0497 39.8491 45.1497 39.6491 45.2997 39.4991C45.3497 39.4491 45.4497 39.2991 45.3997 39.1991C45.3997 39.1491 45.3497 39.0991 45.2997 39.0491C44.9997 38.5991 44.6497 38.1991 44.3997 37.7991ZM41.8997 43.6491C41.6497 44.1491 41.2997 44.5991 40.7997 44.8991C39.9997 45.4491 38.9497 45.4991 38.0997 45.1491C37.3497 44.8491 36.7497 44.2491 36.4497 43.4991C36.1497 42.7491 36.1997 41.9491 36.5497 41.1991C36.7997 40.6991 37.1497 40.2491 37.5997 39.9491C37.7997 39.8491 37.9997 39.6991 38.1997 39.6491C38.9497 39.3991 39.7997 39.4491 40.4997 39.7991C41.9497 40.4491 42.5497 42.1491 41.8997 43.6491Z" fill="white"/>
</svg>
