<svg width="62" height="63" viewBox="0 0 62 63" fill="none" xmlns="http://www.w3.org/2000/svg">
<path d="M0 -1H62V33C62 49.5685 48.5685 63 32 63H30C13.4315 63 0 49.5685 0 33V-1Z" fill="#034737"/>
<path d="M17.6219 24.0015C16.1746 24.0015 15 25.1746 15 26.6219V29.6859V33.8308V36.3406V41.6208C14.9986 42.1422 15.3382 42.6448 15.8226 42.8368C16.3069 43.0288 16.9033 42.8935 17.259 42.5131L20.3529 39.196H21.1907H21.6394H22.0511H27.0643H27.2119H27.625H27.801H29.6432H34.8354H35.8252C35.7634 38.8462 35.727 38.4905 35.727 38.1349C35.727 37.0745 36.0128 36.0214 36.5256 35.0933C34.8412 34.6308 33.5982 33.0911 33.5982 31.2605C33.5982 29.0663 35.3823 27.283 37.5772 27.283C38.8187 27.283 39.9926 27.8677 40.7446 28.8554L40.7489 28.8612C40.7635 28.8787 40.7773 28.8961 40.7904 28.915C40.8762 29.0387 40.9228 29.1863 40.9228 29.3368C40.9228 29.7434 40.5875 30.0787 40.1809 30.0787C39.9511 30.0787 39.7286 29.971 39.5875 29.7834L39.586 29.7819H39.5846C39.1046 29.1528 38.3547 28.7252 37.5772 28.7252C36.2681 28.7252 35.0419 29.9521 35.0419 31.2605C35.0419 32.5398 36.2143 33.7319 37.4892 33.7864C37.5089 33.7653 37.5271 33.7413 37.5474 33.7209C38.6965 32.5616 40.3133 31.8758 41.9453 31.8613C41.9468 31.8613 41.9497 31.8613 41.9512 31.8613C41.9693 31.8613 41.9868 31.8613 42.005 31.8613C42.2683 31.8613 42.5308 31.8853 42.7919 31.9195V29.6852V26.6197C42.7919 25.1717 41.6159 24 40.1686 24H34.9859H34.8354H29.6549H29.6432H28.4003H27.8337H27.801H27.4192H27.0643H22.0511H21.3994H17.6219V24.0015ZM26.7945 27.2713H28.8629C30.1596 27.2713 31.2207 28.3325 31.2207 29.6292C31.2207 30.0365 31.0993 30.4103 30.9153 30.7442C31.7691 31.0983 32.3866 31.9173 32.3866 32.8962C32.3866 34.193 31.3255 35.2526 30.0287 35.2526H28.7705H28.6003H26.7952C26.6243 35.2526 26.4534 35.1821 26.3319 35.0606C26.2104 34.9392 26.1413 34.769 26.1413 34.5973V31.334V31.1936C26.1413 31.1914 26.1413 31.1885 26.1413 31.1863V27.9266C26.1413 27.7557 26.2104 27.5848 26.3319 27.4634C26.4534 27.3419 26.6228 27.2713 26.7945 27.2713ZM20.8336 27.2786C20.9238 27.275 20.9289 27.2823 20.8649 27.283H20.8663C20.9347 27.283 20.9783 27.2975 21.0001 27.3012H21.0009C21.0241 27.3055 21.0721 27.3099 21.1376 27.3368C21.0794 27.3135 21.0947 27.3092 21.1747 27.347V27.3484C21.254 27.3855 21.2801 27.4204 21.2685 27.4124C21.2838 27.4233 21.3231 27.443 21.3681 27.4881C21.4256 27.5441 21.4583 27.6008 21.4831 27.643C21.4591 27.6023 21.4809 27.6168 21.5187 27.6968L21.5398 27.7412L24.5879 34.2155C24.7573 34.5762 24.6002 35.0097 24.2395 35.1784C23.8795 35.3479 23.4453 35.1901 23.2766 34.8301L22.5107 33.2068H19.219L18.4517 34.8301C18.283 35.1893 17.8488 35.3479 17.4888 35.1784C17.1288 35.009 16.9731 34.5755 17.1419 34.2155L20.1899 27.7412L20.2081 27.6968C20.2459 27.6168 20.2685 27.6023 20.2445 27.643C20.2692 27.6008 20.3034 27.5441 20.3609 27.4881C20.4067 27.4423 20.443 27.4248 20.4561 27.4153C20.4561 27.4153 20.4569 27.4146 20.4576 27.4139C20.4459 27.4219 20.4721 27.3863 20.5529 27.3484C20.6401 27.307 20.6598 27.3099 20.5958 27.3353L20.5943 27.3368C20.6547 27.3121 20.7012 27.3063 20.7267 27.3012C20.7114 27.3041 20.7434 27.2815 20.8336 27.2786ZM27.5916 28.723V30.5369H28.6003H28.7705H28.8629C29.3821 30.5369 29.7691 30.1485 29.7691 29.6292C29.7691 29.1099 29.3821 28.723 28.8629 28.723H27.5916ZM20.8641 29.7056L19.8983 31.7565H21.8314L20.8641 29.7056ZM27.5916 31.9885V33.8009H28.6003H28.7705H30.0287C30.548 33.8009 30.9364 33.4155 30.9364 32.8962C30.9364 32.3769 30.548 31.9885 30.0287 31.9885H28.8621H28.7698H28.5996H27.5916ZM41.9562 33.1348C39.2136 33.1595 37.0027 35.3908 37.0027 38.1334C37.0027 40.8942 39.2406 43.1321 42.0013 43.1321C44.7621 43.1321 47 40.8942 47 38.1334C47 35.3726 44.7621 33.1348 42.0013 33.1348C41.9861 33.1348 41.9723 33.1348 41.9562 33.1348ZM44.4538 36.0228V36.0243C44.7505 36.0272 44.893 36.3894 44.677 36.5923C44.5992 36.6665 44.2872 36.8432 43.9694 37.1138C43.4705 37.5392 42.725 38.265 42.1824 38.996C41.8457 39.4505 41.6413 39.8942 41.485 40.3495C41.4013 40.5793 41.1817 40.7327 40.9366 40.7327C40.7169 40.7327 40.5148 40.6113 40.4151 40.4156C40.2784 40.1589 40.1111 39.8884 39.9264 39.6374C39.5838 39.1727 39.3453 38.8811 38.9547 38.5538C38.8027 38.4265 38.7984 38.196 38.9431 38.0607C38.994 38.0127 39.0805 37.9276 39.226 37.8876C39.3729 37.8461 39.5431 37.8694 39.7191 37.9399C39.9751 38.044 40.3809 38.1974 40.7264 38.4098C40.9482 38.0301 41.1468 37.7581 41.3999 37.4861C41.645 37.2032 41.8973 37.0367 42.1643 36.8512C42.7359 36.4548 43.2654 36.2017 44.4014 36.0257C44.4196 36.0243 44.4356 36.0228 44.4538 36.0228Z" fill="white"/>
</svg>
