<svg width="83" height="82" viewBox="0 0 83 82" fill="none" xmlns="http://www.w3.org/2000/svg">
<path d="M81.9777 66.9485L81.5678 65.4455C81.2946 64.3525 80.6114 63.3961 79.5184 62.8496C79.3818 62.8496 79.3818 62.8496 79.2451 62.713V24.5933H60.117V8.19777H50.5529V0H47.8203V8.19777H38.2563V13.663H20.4944V50.2797C18.8549 51.2361 17.4886 52.1925 16.3955 53.0123V49.1866H0V81.9777H16.3955V74.0532L41.1255 77.7422C41.9453 77.8788 42.9017 77.8788 43.7214 77.8788H55.7448C56.8379 77.8788 58.0675 77.7422 59.1606 77.3323L69.8177 75.2829C71.184 75.0096 72.4136 74.5997 73.5067 73.9166L80.8847 69.8177C81.8411 69.2712 82.251 68.0415 81.9777 66.9485ZM76.5125 27.3259V62.713C76.3759 62.713 76.3759 62.713 76.2393 62.713L72.4136 63.5327V57.3844H64.2159V64.899L62.3031 65.1723C61.6199 65.3089 60.8001 65.3089 60.117 65.3089V27.3259H76.5125ZM69.6811 64.2159L66.9485 64.6258V60.117H69.6811V64.2159ZM40.9889 10.9304H57.3844V24.5933V65.0357C56.8379 64.899 56.2914 64.899 55.7448 64.7624L45.6343 62.3031L52.3291 60.5269C54.5152 60.117 56.2914 58.6141 56.8379 56.428L57.1111 55.1983C57.3844 54.3786 57.2478 53.5588 56.7013 52.8756C56.1547 52.1925 55.4716 51.7826 54.6518 51.7826L42.3552 51.0994V13.663H40.9889V10.9304ZM23.227 16.3955H39.6226V50.9628C38.8028 50.9628 37.8464 50.6896 37.0266 50.143C36.3435 49.7332 35.7969 49.4599 35.1138 49.1866H36.89V46.454H25.9596V48.0936C25.0032 48.2302 24.1834 48.6401 23.227 48.9134V16.3955ZM13.663 79.2451H2.73259V51.9192H13.663V79.2451ZM72.1404 71.7305C71.184 72.277 70.2276 72.6869 69.2712 72.8235L58.6141 74.873C57.6577 75.0096 56.7013 75.1462 55.7448 75.1462H43.7214C43.0383 75.1462 42.2185 75.1462 41.5354 74.873L16.3955 71.184V56.7013C17.8985 55.335 23.6369 50.6896 28.1457 50.6896C30.8783 50.6896 33.6109 51.3727 35.6603 52.6024C36.89 53.2855 38.2563 53.6954 39.6226 53.832L54.5152 54.5152L54.2419 55.7449C53.9687 56.8379 53.0123 57.6577 51.9192 57.7943L34.9772 62.4397L55.335 67.495C57.7943 68.0415 60.3902 68.1781 62.8496 67.9049L70.2276 66.9485L77.0591 65.3089H77.1957C77.4689 65.1723 77.8788 65.1723 78.2887 65.3089C78.562 65.4455 78.8352 65.7188 78.9719 66.1287L79.3818 67.6316L72.1404 71.7305Z" fill="white"/>
<path d="M8.19654 53.2856C5.87384 53.2856 4.09766 55.0618 4.09766 57.3845C4.09766 59.7072 5.87384 61.4834 8.19654 61.4834C10.5192 61.4834 12.2954 59.7072 12.2954 57.3845C12.2954 55.0618 10.5192 53.2856 8.19654 53.2856ZM8.19654 58.7508C7.37677 58.7508 6.83025 58.2043 6.83025 57.3845C6.83025 56.5648 7.37677 56.0182 8.19654 56.0182C9.01632 56.0182 9.56284 56.5648 9.56284 57.3845C9.56284 58.2043 9.01632 58.7508 8.19654 58.7508Z" fill="white"/>
<path d="M36.8913 19.1279H25.9609V21.8605H36.8913V19.1279Z" fill="white"/>
<path d="M36.8913 24.5933H25.9609V27.3259H36.8913V24.5933Z" fill="white"/>
<path d="M36.8913 30.0586H25.9609V32.7912H36.8913V30.0586Z" fill="white"/>
<path d="M36.8913 35.5234H25.9609V38.256H36.8913V35.5234Z" fill="white"/>
<path d="M36.8913 40.9888H25.9609V43.7214H36.8913V40.9888Z" fill="white"/>
<path d="M47.8215 13.6631H43.7227V16.3957H47.8215V13.6631Z" fill="white"/>
<path d="M54.6536 13.6631H50.5547V16.3957H54.6536V13.6631Z" fill="white"/>
<path d="M47.8215 19.1279H43.7227V21.8605H47.8215V19.1279Z" fill="white"/>
<path d="M54.6536 19.1279H50.5547V21.8605H54.6536V19.1279Z" fill="white"/>
<path d="M47.8215 24.5933H43.7227V27.3259H47.8215V24.5933Z" fill="white"/>
<path d="M54.6536 24.5933H50.5547V27.3259H54.6536V24.5933Z" fill="white"/>
<path d="M47.8215 30.0586H43.7227V32.7912H47.8215V30.0586Z" fill="white"/>
<path d="M54.6536 30.0586H50.5547V32.7912H54.6536V30.0586Z" fill="white"/>
<path d="M47.8215 35.5234H43.7227V38.256H47.8215V35.5234Z" fill="white"/>
<path d="M54.6536 35.5234H50.5547V38.256H54.6536V35.5234Z" fill="white"/>
<path d="M47.8215 40.9888H43.7227V43.7214H47.8215V40.9888Z" fill="white"/>
<path d="M54.6536 40.9888H50.5547V43.7214H54.6536V40.9888Z" fill="white"/>
<path d="M47.8215 46.4541H43.7227V49.1867H47.8215V46.4541Z" fill="white"/>
<path d="M54.6536 46.4541H50.5547V49.1867H54.6536V46.4541Z" fill="white"/>
<path d="M66.9465 30.0586H62.8477V32.7912H66.9465V30.0586Z" fill="white"/>
<path d="M73.7786 30.0586H69.6797V32.7912H73.7786V30.0586Z" fill="white"/>
<path d="M66.9465 35.5234H62.8477V38.256H66.9465V35.5234Z" fill="white"/>
<path d="M73.7786 35.5234H69.6797V38.256H73.7786V35.5234Z" fill="white"/>
<path d="M66.9465 40.9888H62.8477V43.7214H66.9465V40.9888Z" fill="white"/>
<path d="M73.7786 40.9888H69.6797V43.7214H73.7786V40.9888Z" fill="white"/>
<path d="M66.9465 46.4541H62.8477V49.1867H66.9465V46.4541Z" fill="white"/>
<path d="M73.7786 46.4541H69.6797V49.1867H73.7786V46.4541Z" fill="white"/>
<path d="M66.9465 51.9194H62.8477V54.652H66.9465V51.9194Z" fill="white"/>
<path d="M73.7786 51.9194H69.6797V54.652H73.7786V51.9194Z" fill="white"/>
</svg>
