<svg width="79" height="82" viewBox="0 0 79 82" fill="none" xmlns="http://www.w3.org/2000/svg">
<path d="M72.2818 65.8588C73.7577 64.6497 74.704 62.8121 74.704 60.7594C74.704 58.8398 73.8773 57.1081 72.562 55.9024C73.1769 53.3237 73.4912 50.6663 73.4912 47.9919C73.4912 40.2488 70.9529 32.9534 66.1529 26.8939C61.5817 21.1249 55.1863 16.9512 48.1074 15.1036C46.956 13.6145 45.4289 12.4292 43.6661 11.6949C45.142 10.4858 46.0883 8.64821 46.0883 6.5955C46.0883 2.95787 43.1297 0 39.498 0C35.863 0 32.9078 2.95787 32.9078 6.5955C32.9078 8.64829 33.8507 10.4858 35.33 11.6949C33.5671 12.4293 32.04 13.611 30.8887 15.1036C23.8099 16.9515 17.4147 21.1287 12.8432 26.8939C8.04315 32.9497 5.50481 40.2457 5.50481 47.9919C5.50481 50.6561 5.81912 53.3065 6.43066 55.8853C5.11877 57.091 4.29542 58.8193 4.29542 60.7388C4.29542 62.7916 5.24174 64.6291 6.71761 65.8382C2.78194 67.4777 0.0078125 71.3646 0.0078125 75.8832C0.0078125 76.5253 0.527103 77.0445 1.16936 77.0445L20.5985 77.0479C20.8957 77.0479 21.1622 76.9352 21.3672 76.7541C26.7924 80.1766 33.0168 81.98 39.4879 81.98C45.9585 81.98 52.1835 80.18 57.6016 76.7576C57.81 76.9488 58.0833 77.065 58.3874 77.065H77.827C78.4693 77.065 78.9885 76.5458 78.9885 75.9037C78.9885 71.3814 76.2144 67.4945 72.2753 65.8552L72.2818 65.8588ZM68.1105 65.0254C65.7566 65.0254 63.8434 63.1127 63.8434 60.7593C63.8434 58.406 65.7566 56.4933 68.1105 56.4933C70.4643 56.4933 72.3775 58.406 72.3775 60.7593C72.3775 63.1127 70.4643 65.0254 68.1105 65.0254ZM35.2213 6.59889C35.2213 4.24557 37.1345 2.32603 39.4884 2.32603C41.8423 2.32603 43.7555 4.24216 43.7555 6.59889C43.7555 8.95562 41.8423 10.8649 39.4884 10.8649C37.1345 10.8649 35.2213 8.95221 35.2213 6.59889ZM39.4884 13.1876C43.8135 13.1876 47.4008 16.4119 47.9679 20.5823H31.0086C31.5757 16.4119 35.1633 13.1876 39.4884 13.1876ZM6.6089 60.7393C6.6089 58.386 8.52549 56.4665 10.8828 56.4665C13.2401 56.4665 15.1498 58.3826 15.1498 60.7393C15.1498 63.0961 13.2367 65.0054 10.8828 65.0054C8.5289 65.0054 6.6089 63.0926 6.6089 60.7393ZM2.39992 74.7225C2.96704 70.5521 6.55424 67.3278 10.8794 67.3278C15.2045 67.3278 18.7917 70.5521 19.3588 74.7225H2.39992ZM21.6209 74.1385C21.0128 70.3779 18.4709 67.2595 15.0512 65.8386C16.5271 64.6295 17.4734 62.7919 17.4734 60.7392C17.4734 57.1016 14.5148 54.1437 10.8831 54.1437C10.0495 54.1437 9.25009 54.3008 8.51219 54.5843C8.0544 52.4222 7.81867 50.2124 7.81867 47.9888C7.81867 34.2994 16.5134 22.3273 29.2698 18.007C28.8428 19.1716 28.6071 20.432 28.6071 21.7436C28.6071 22.3857 29.1264 22.9048 29.7686 22.9048H49.2082C49.8505 22.9048 50.3698 22.3857 50.3698 21.7436C50.3698 20.432 50.1375 19.1716 49.707 18.007C62.4638 22.3277 71.1582 34.3029 71.1582 47.9888C71.1582 50.2192 70.9224 52.4392 70.4612 54.6013C69.7267 54.3213 68.9341 54.1641 68.1039 54.1641C64.4689 54.1641 61.5137 57.122 61.5137 60.7528C61.5137 62.8056 62.4566 64.6431 63.9359 65.8522C60.5264 67.2731 57.9913 70.3779 57.373 74.1213C52.0982 77.7418 45.9246 79.6511 39.4884 79.6511C33.0519 79.6511 26.896 77.7452 21.617 74.1316L21.6209 74.1385ZM59.6316 74.7396C60.1987 70.5692 63.7859 67.3449 68.1111 67.3449C72.4362 67.3449 76.0234 70.5692 76.5905 74.7396H59.6316ZM56.7209 46.3867C58.1626 44.8531 59.1397 42.5237 59.1397 39.4361H59.1363C59.1363 39.2585 59.0953 39.0774 59.0098 38.9135L54.3602 29.8006C54.162 29.4112 53.7623 29.1653 53.325 29.1653H25.6519C25.2146 29.1653 24.8149 29.4112 24.6168 29.8006L19.9671 38.9135C19.8817 39.0808 19.8407 39.2653 19.8407 39.4463H19.8373C19.8373 42.5339 20.8143 44.86 22.256 46.3936V63.8918C22.2731 66.31 23.6875 66.8053 25.8091 66.8053H53.0885C55.3092 66.8053 56.6894 66.3168 56.7167 63.885V46.3868L56.7209 46.3867ZM22.226 40.6042H32.1098C31.7169 44.4808 29.3665 46.2604 27.1663 46.2604C24.9662 46.2604 22.6155 44.4808 22.226 40.6042ZM51.8153 46.2535C49.6186 46.2535 47.2681 44.4739 46.8752 40.6042H56.7555C56.3626 44.4774 54.012 46.2535 51.8153 46.2535ZM26.3663 31.4912H52.6182L56.0823 38.2779L22.902 38.2848L26.3662 31.498L26.3663 31.4912ZM44.4355 40.6041C44.0426 44.4773 41.6921 46.2568 39.492 46.2568C37.2919 46.2568 34.9414 44.4773 34.5485 40.6041H44.4355ZM37.2235 64.4792H29.9978V52.6785H37.2235V64.4792ZM54.3568 64.3665C54.2406 64.4075 53.9229 64.4792 53.0927 64.4792H39.547V52.5421C39.547 51.3364 38.5665 50.3527 37.3571 50.3527H29.8582C28.6522 50.3527 27.6683 51.333 27.6683 52.5421V64.4792H25.8097C25.0376 64.4792 24.7336 64.4143 24.6208 64.3767C24.6037 64.3084 24.5832 64.1615 24.5832 63.8849V48.0436C25.41 48.4023 26.288 48.5867 27.1626 48.5867C29.1202 48.5867 30.9343 47.7362 32.277 46.1924C32.6801 45.7278 33.032 45.2121 33.3258 44.6485C33.623 45.2121 33.9715 45.7245 34.3746 46.1889C35.7173 47.7328 37.5313 48.5833 39.489 48.5833C41.8702 48.5833 44.2684 47.2409 45.6453 44.6349C45.9425 45.2019 46.2944 45.7211 46.7009 46.1889C48.0436 47.7328 49.8577 48.5833 51.8153 48.5833C52.6899 48.5833 53.5679 48.3988 54.3947 48.0402V50.3593H44.6097C43.5403 50.3593 42.6727 51.2269 42.6727 52.2994V59.8547C42.6727 60.9238 43.5404 61.7913 44.6097 61.7913H54.3947V63.8782C54.3913 64.1616 54.3708 64.3085 54.3537 64.3768L54.3568 64.3665ZM54.3978 52.6751V59.4584H44.9994V52.6751H54.3978Z" fill="white"/>
</svg>
