<svg width="82" height="80" viewBox="0 0 82 80" fill="none" xmlns="http://www.w3.org/2000/svg">
<path d="M56.2096 58.3984H64.6067C65.6026 58.3984 66.5391 58.0105 67.2415 57.3046L73.5384 51.0077C74.0696 52.4194 75.4324 53.4293 77.0293 53.4293C79.0841 53.4293 80.7579 51.7589 80.7579 49.7007V42.2471C80.7579 40.1924 79.0875 38.5186 77.0293 38.5186H69.5758C67.521 38.5186 65.8472 40.1889 65.8472 42.2471C65.8472 43.8441 66.8571 45.2069 68.2688 45.738L63.0621 50.9447H54.665C53.6691 50.9447 52.7326 51.3326 52.0303 52.0385L44.4264 59.6423H36.0294C33.9746 59.6423 32.3008 61.3127 32.3008 63.3709C32.3008 65.4256 33.9711 67.0995 36.0294 67.0995H45.9671C46.9631 67.0995 47.8996 66.7116 48.6019 66.0057L56.2096 58.3984ZM45.9677 64.6115H36.0299C35.345 64.6115 34.7859 64.0524 34.7859 63.3675C34.7859 62.6826 35.345 62.1235 36.0299 62.1235H44.9406C45.2691 62.1235 45.5871 61.9907 45.8177 61.7601L53.7885 53.7893C54.0192 53.5587 54.3406 53.4259 54.6656 53.4259H63.5763C63.9048 53.4259 64.2228 53.2931 64.4535 53.0624L71.907 45.6089C72.2634 45.2524 72.3683 44.7178 72.1761 44.2566C71.9839 43.7918 71.5296 43.4913 71.03 43.4913H69.5728C68.8879 43.4913 68.3288 42.9322 68.3288 42.2473C68.3288 41.5624 68.8844 41.0033 69.5728 41.0033H77.0264C77.7113 41.0033 78.2703 41.5624 78.2703 42.2473V49.7008C78.2703 50.3857 77.7147 50.9448 77.0264 50.9448C76.3414 50.9448 75.7824 50.3857 75.7824 49.7008V48.2437C75.7824 47.7405 75.4818 47.2897 75.0171 47.0976C74.5523 46.9054 74.0177 47.0102 73.6648 47.3666L65.4809 55.5505C65.2502 55.7811 64.9288 55.9139 64.6038 55.9139H55.693C55.3646 55.9139 55.0466 56.0467 54.8159 56.2774L46.8451 64.2482C46.6145 64.4788 46.2927 64.6115 45.9677 64.6115Z" fill="#034737"/>
<path d="M40.9963 69.5801H38.5118C36.457 69.5801 34.7832 71.2504 34.7832 73.3086V75.7931C34.7832 77.8479 36.4535 79.5217 38.5118 79.5217H40.9963C43.051 79.5217 44.7248 77.8514 44.7248 75.7931V73.3086C44.7248 71.2539 43.0545 69.5801 40.9963 69.5801ZM42.2403 75.7931C42.2403 76.478 41.6811 77.0371 40.9963 77.0371H38.5118C37.8269 77.0371 37.2678 76.478 37.2678 75.7931V73.3086C37.2678 72.6237 37.8269 72.0647 38.5118 72.0647H40.9963C41.6812 72.0647 42.2403 72.6238 42.2403 73.3086V75.7931Z" fill="#034737"/>
<path d="M53.424 69.5801H50.9395C48.8848 69.5801 47.2109 71.2504 47.2109 73.3086V75.7931C47.2109 77.8479 48.8813 79.5217 50.9395 79.5217H53.424C55.4787 79.5217 57.1526 77.8514 57.1526 75.7931V73.3086C57.1526 71.2539 55.4822 69.5801 53.424 69.5801ZM54.6645 75.7931C54.6645 76.478 54.1089 77.0371 53.4205 77.0371H50.936C50.2511 77.0371 49.692 76.478 49.692 75.7931V73.3086C49.692 72.6237 50.2476 72.0647 50.936 72.0647H53.4205C54.1054 72.0647 54.6645 72.6238 54.6645 73.3086V75.7931Z" fill="#034737"/>
<path d="M65.8439 60.8823H63.3594C61.3047 60.8823 59.6309 62.5527 59.6309 64.6109V75.793C59.6309 77.8478 61.3012 79.5216 63.3594 79.5216H65.8439C67.8987 79.5216 69.5725 77.8513 69.5725 75.793V64.6109C69.5725 62.5562 67.9021 60.8823 65.8439 60.8823ZM67.0879 75.793C67.0879 76.4779 66.5323 77.037 65.8439 77.037H63.3594C62.6745 77.037 62.1154 76.4779 62.1154 75.793V64.6109C62.1154 63.926 62.671 63.3669 63.3594 63.3669H65.8439C66.5288 63.3669 67.0879 63.926 67.0879 64.6109V75.793Z" fill="#034737"/>
<path d="M78.2717 55.9141H75.7872C73.7324 55.9141 72.0586 57.5844 72.0586 59.6426V75.7941C72.0586 77.8488 73.7289 79.5227 75.7872 79.5227H78.2717C80.3264 79.5227 82.0002 77.8523 82.0002 75.7941V59.6426C82.0002 57.5879 80.3299 55.9141 78.2717 55.9141ZM79.5122 75.7941C79.5122 76.479 78.9565 77.0381 78.2682 77.0381H75.7837C75.0988 77.0381 74.5397 76.479 74.5397 75.7941V59.6426C74.5397 58.9577 75.0953 58.3986 75.7837 58.3986H78.2682C78.9531 58.3986 79.5122 58.9577 79.5122 59.6426V75.7941Z" fill="#034737"/>
<path d="M33.5434 58.3983C33.5434 57.7134 32.9878 57.1543 32.2994 57.1543L6.20653 57.1578C4.15179 57.1578 2.47796 55.4875 2.47796 53.4292V22.8814L11.3258 31.7293C12.3043 32.7077 13.5553 33.2913 14.9006 33.4695V34.7904C14.9006 36.8451 16.5709 38.519 18.6292 38.519H21.1137C23.1684 38.519 24.8422 36.8486 24.8422 34.7904V33.5464H43.4779V34.7904C43.4779 36.8451 45.1483 38.519 47.2065 38.519H49.691C51.7457 38.519 53.4196 36.8486 53.4196 34.7904V33.4835C54.716 33.3402 55.9425 32.8196 56.921 31.932L67.086 22.6893V36.157C67.086 36.8419 67.6416 37.401 68.33 37.401C69.0184 37.401 69.574 36.8454 69.574 36.157V13.6702C69.574 10.2457 66.7854 7.45714 63.3609 7.45714H49.1176L45.9935 2.76762C44.8369 1.03439 42.9045 0 40.8253 0H28.7486C26.666 0 24.7335 1.0343 23.5804 2.76762L20.4564 7.45714H6.21306C2.78856 7.45714 0 10.2457 0 13.6702V53.4294C0 56.8539 2.78856 59.6425 6.21306 59.6425H32.3059C32.9908 59.6425 33.5499 59.0869 33.5499 58.3985L33.5434 58.3983ZM22.3612 34.7933C22.3612 35.4782 21.8021 36.0372 21.1172 36.0372H18.6327C17.9478 36.0372 17.3888 35.4781 17.3888 34.7933V33.5493H22.3578V34.7933H22.3612ZM50.9347 34.7933C50.9347 35.4782 50.3791 36.0372 49.6907 36.0372H47.2062C46.5213 36.0372 45.9622 35.4781 45.9622 34.7933V33.5493H50.9313V34.7933H50.9347ZM25.6452 4.14705C26.3371 3.10916 27.4972 2.48717 28.7447 2.48717H40.8214C42.0689 2.48717 43.2291 3.10917 43.9209 4.14705L46.1294 7.45624H23.4369L25.6418 4.14705H25.6452ZM6.20617 9.94431H63.3612C65.4159 9.94431 67.0898 11.6147 67.0898 13.6729V19.3373L55.251 30.0999C54.5626 30.7254 53.6716 31.0678 52.742 31.0678L15.722 31.0643C14.74 31.0643 13.7791 30.666 13.0872 29.974L2.48208 19.3689V13.6695C2.48208 11.6147 4.15242 9.94091 6.21065 9.94091L6.20617 9.94431Z" fill="#034737"/>
</svg>
