<svg width="80" height="80" viewBox="0 0 80 80" fill="none" xmlns="http://www.w3.org/2000/svg">
<path d="M72.4265 53.1114V51.3426C72.4265 48.3246 69.972 45.8667 66.9505 45.8667C65.4873 45.8667 64.1124 46.437 63.0804 47.4691C60.2219 50.3276 56.423 51.8995 52.3802 51.8995H51.9049C47.2472 51.8995 43.4551 55.6881 43.4551 60.3493C43.4551 64.654 46.6938 68.2118 50.8626 68.7278C50.0784 71.9122 48.8698 74.9913 47.2335 77.8567C47.0196 78.2301 47.023 78.6884 47.2369 79.0618C47.4542 79.4353 47.8514 79.6627 48.2791 79.6627H51.9015C52.2681 79.6627 52.6144 79.4964 52.8452 79.2078L57.6727 73.1718C58.0903 72.6524 58.0054 71.8919 57.4826 71.4744C56.9632 71.0602 56.2027 71.1417 55.7852 71.6645L51.321 77.2457H50.2957C51.6367 74.5705 52.6517 71.746 53.3273 68.8433C57.0108 69.0708 60.4464 70.5951 63.0776 73.2295C64.113 74.2649 65.4879 74.8319 66.9477 74.8319C69.9658 74.8319 72.4237 72.3775 72.4237 69.356V67.5872C76.4161 67.5872 79.6649 64.3383 79.6649 60.346C79.6649 56.3537 76.416 53.1048 72.4237 53.1048L72.4265 53.1114ZM70.0127 69.3624C70.0127 71.0497 68.6379 72.4246 66.9506 72.4246C66.1324 72.4246 65.3652 72.1054 64.7847 71.5284C61.8074 68.551 57.9474 66.7891 53.7986 66.4598C54.1381 64.4229 54.318 62.3554 54.318 60.2812V57.9421C54.318 57.2767 53.7782 56.7336 53.1094 56.7336C52.444 56.7336 51.9009 57.2734 51.9009 57.9421V60.2812C51.9009 62.3181 51.7074 64.3415 51.3611 66.3377C48.2887 66.0593 45.8648 63.4996 45.8648 60.3559C45.8648 57.029 48.5739 54.3199 51.9009 54.3199H52.3762C57.0611 54.3199 61.4677 52.4934 64.7806 49.18C65.3578 48.6029 66.1284 48.2838 66.9466 48.2838C68.6338 48.2838 70.0087 49.6587 70.0087 51.3459V69.3655L70.0127 69.3624ZM72.4265 65.1833V55.5287C75.088 55.5287 77.254 57.6946 77.254 60.3562C77.254 63.0177 75.088 65.1833 72.4265 65.1833Z" fill="white"/>
<path d="M45.8703 51.9072C45.8703 51.2418 45.3305 50.6986 44.6618 50.6986H41.0394L41.0428 14.4856H48.284V49.4897C48.284 50.1551 48.8238 50.6983 49.4926 50.6983C50.158 50.6983 50.7011 50.1585 50.7011 49.4897V20.5214H57.9424V39.8351C57.9424 40.5004 58.4821 41.0436 59.1509 41.0436H68.8056C69.471 41.0436 70.0141 40.5038 70.0141 39.8351L70.0107 1.20855C70.0107 0.543152 69.4709 0 68.8022 0H59.1475C58.4821 0 57.939 0.53978 57.939 1.20855V18.1079H50.6977V13.2804C50.6977 12.615 50.158 12.0719 49.4892 12.0719H39.8345C39.1691 12.0719 38.626 12.6116 38.626 13.2804V30.1798H31.3848V25.3523C31.3848 24.6869 30.845 24.1437 30.1762 24.1437H20.5215C19.8561 24.1437 19.313 24.6835 19.313 25.3523V42.2516H12.0718V37.4241C12.0718 36.7587 11.532 36.2156 10.8632 36.2156L1.20855 36.2122C0.543152 36.2122 0 36.752 0 37.4207V76.0472C0 76.7126 0.53978 77.2558 1.20855 77.2558H10.8632C11.5286 77.2558 12.0718 76.716 12.0718 76.0472V44.6654H19.313V63.9791C19.313 64.6445 19.8528 65.1877 20.5215 65.1877H30.1762C30.8416 65.1877 31.3848 64.6479 31.3848 63.9791V32.5973H38.626V51.911C38.626 52.5764 39.1658 53.1195 39.8345 53.1195H44.662C45.3274 53.1195 45.8706 52.5798 45.8706 51.911L45.8703 51.9072ZM60.3528 2.4171H67.594V38.6301H60.3528V2.4171ZM9.65728 74.8397H2.41606V38.6267H9.65728V74.8397ZM28.971 62.7707H21.7297V26.5577H28.971V62.7707Z" fill="white"/>
</svg>
