<svg width="77" height="77" viewBox="0 0 77 77" fill="none" xmlns="http://www.w3.org/2000/svg">
<path d="M0.25 38.5C0.25 17.4031 17.4031 0.25 38.5 0.25C59.5969 0.25 76.75 17.4031 76.75 38.5C76.75 59.5969 59.5969 76.75 38.5 76.75C17.4031 76.75 0.25 59.5969 0.25 38.5ZM3.55866 38.5C3.55866 57.7681 19.2319 73.4413 38.5 73.4413C57.7681 73.4413 73.4413 57.7681 73.4413 38.5C73.4413 19.2319 57.7681 3.55866 38.5 3.55866C19.2319 3.55866 3.55866 19.2319 3.55866 38.5Z" fill="white" stroke="white" stroke-width="0.5"/>
<path d="M32.2915 57.0012L32.2798 56.9952L32.2676 56.9905C31.3329 56.6312 30.9205 55.7114 31.1992 54.8717C31.1993 54.8715 31.1993 54.8713 31.1994 54.8711L42.6273 21.076C42.9879 20.1444 43.9062 19.7339 44.7446 20.0123C45.5873 20.2952 46.0726 21.2809 45.7264 22.114L45.7231 22.1218L45.7204 22.1298L34.2904 55.928L34.2902 55.9279L34.2878 55.9361C34.0782 56.6327 33.4537 57.0562 32.7447 57.0562C32.6625 57.0562 32.5734 57.056 32.4866 57.0472C32.3969 57.0381 32.3316 57.0216 32.2915 57.0012Z" fill="white" stroke="white" stroke-width="0.5"/>
<path d="M28.4028 29.1518L28.403 29.1521C28.8924 29.9205 28.6918 30.9103 27.9033 31.4883L17.7758 38.2926L17.4658 38.5009L17.7765 38.7081L27.9819 45.5137C28.6791 46.0029 28.8946 46.984 28.4008 47.7643C28.1238 48.1811 27.6358 48.4608 27.0719 48.4608C26.7794 48.4608 26.4337 48.3888 26.1682 48.1884L26.1684 48.1881L26.1575 48.1807L13.677 39.7528L13.6136 39.71H13.6001C13.5872 39.6992 13.5714 39.6872 13.5534 39.6764C13.5374 39.6668 13.5205 39.6584 13.5029 39.6514L13.4701 39.6186L13.4701 39.6186L13.4666 39.6152C13.4492 39.5985 13.4245 39.5641 13.3794 39.4964C13.3772 39.4931 13.3748 39.4896 13.3724 39.486C13.3405 39.4379 13.2948 39.3692 13.243 39.3132C12.9118 38.8382 12.9033 38.2181 13.191 37.6399L13.2121 37.5974C13.2242 37.5836 13.2382 37.5657 13.2508 37.5448C13.2604 37.5288 13.2688 37.512 13.2758 37.4943L13.3877 37.3823L13.2118 37.2064L13.3877 37.3823L13.4701 37.3L13.6965 37.0736L26.1598 28.738L26.1684 28.7322L26.1766 28.7257C26.8621 28.1795 27.9096 28.3747 28.4028 29.1518Z" fill="white" stroke="white" stroke-width="0.5"/>
<path d="M64.0765 38.7873C64.0627 38.8282 64.0439 38.8837 64.033 38.9526C64.0164 38.9715 63.9962 38.9974 63.9794 39.0303C63.9739 39.041 63.9693 39.0518 63.9653 39.0625C63.9328 39.0927 63.9108 39.1259 63.8962 39.1551C63.8896 39.1683 63.8843 39.1811 63.8799 39.1933C63.845 39.2404 63.8236 39.2836 63.8093 39.3122C63.8083 39.3143 63.8073 39.3162 63.8064 39.3182C63.7872 39.3564 63.7816 39.3648 63.7713 39.3751L63.7708 39.3756L63.7703 39.376L63.7698 39.3765L63.7693 39.377L63.7689 39.3775L63.7684 39.378L63.7679 39.3785L63.7674 39.3789L63.7669 39.3794L63.7664 39.3799L63.766 39.3804L63.7655 39.3809L63.765 39.3813L63.7645 39.3818L63.764 39.3823L63.7636 39.3828L63.7631 39.3833L63.7626 39.3837L63.7621 39.3842L63.7616 39.3847L63.7612 39.3852L63.7607 39.3857L63.7602 39.3862L63.7597 39.3866L63.7592 39.3871L63.7588 39.3876L63.7583 39.3881L63.7578 39.3886L63.7573 39.389L63.7568 39.3895L63.7563 39.39L63.7559 39.3905L63.7554 39.391L63.7549 39.3914L63.7544 39.3919L63.7539 39.3924L63.7535 39.3929L63.753 39.3934L63.7525 39.3938L63.752 39.3943L63.7515 39.3948L63.7511 39.3953L63.7506 39.3958L63.7501 39.3962L63.7496 39.3967L63.7492 39.3972L63.7487 39.3977L63.7482 39.3982L63.7477 39.3986L63.7472 39.3991L63.7468 39.3996L63.7463 39.4001L63.7458 39.4005L63.7453 39.401L63.7448 39.4015L63.7444 39.402L63.7439 39.4025L63.7434 39.4029L63.7429 39.4034L63.7424 39.4039L63.742 39.4044L63.7415 39.4049L63.741 39.4053L63.7405 39.4058L63.7401 39.4063L63.7396 39.4068L63.7391 39.4072L63.7386 39.4077L63.7381 39.4082L63.7377 39.4087L63.7372 39.4092L63.7367 39.4096L63.7362 39.4101L63.7358 39.4106L63.7353 39.4111L63.7348 39.4115L63.7343 39.412L63.7338 39.4125L63.7334 39.413L63.7329 39.4135L63.7324 39.4139L63.7319 39.4144L63.7315 39.4149L63.731 39.4154L63.7305 39.4158L63.73 39.4163L63.7295 39.4168L63.7291 39.4173L63.7286 39.4178L63.7281 39.4182L63.7276 39.4187L63.7272 39.4192L63.7267 39.4197L63.7262 39.4201L63.7257 39.4206L63.7253 39.4211L63.7248 39.4216L63.7243 39.422L63.7238 39.4225L63.7233 39.423L63.7229 39.4235L63.7224 39.4239L63.7219 39.4244L63.7214 39.4249L63.721 39.4254L63.7205 39.4259L63.72 39.4263L63.7195 39.4268L63.7191 39.4273L63.7186 39.4278L63.7181 39.4282L63.7176 39.4287L63.7172 39.4292L63.7167 39.4297L63.7162 39.4301L63.7157 39.4306L63.7153 39.4311L63.7148 39.4316L63.7143 39.432L63.7138 39.4325L63.7134 39.433L63.7129 39.4335L63.7124 39.4339L63.7119 39.4344L63.7115 39.4349L63.711 39.4354L63.7105 39.4358L63.71 39.4363L63.7095 39.4368L63.7091 39.4373L63.7086 39.4377L63.7081 39.4382L63.7076 39.4387L63.7072 39.4392L63.7067 39.4396L63.7062 39.4401L63.7057 39.4406L63.7053 39.4411L63.7048 39.4415L63.7043 39.442L63.7038 39.4425L63.7034 39.443L63.7029 39.4434L63.7024 39.4439L63.7019 39.4444L63.7015 39.4449L63.701 39.4453L63.7005 39.4458L63.7 39.4463L63.6996 39.4468L63.6991 39.4472L63.6986 39.4477L63.6981 39.4482L63.6977 39.4487L63.6972 39.4491L63.6967 39.4496L63.6963 39.4501L63.6958 39.4506L63.6953 39.451L63.6948 39.4515L63.6944 39.452L63.6939 39.4525L63.6934 39.4529L63.6929 39.4534L63.6925 39.4539L63.692 39.4544L63.6915 39.4548L63.691 39.4553L63.6906 39.4558L63.6901 39.4563L63.6896 39.4567L63.6891 39.4572L63.6887 39.4577L63.6882 39.4582L63.6877 39.4586L63.6872 39.4591L63.6868 39.4596L63.6863 39.4601L63.6858 39.4605L63.6853 39.461L63.6849 39.4615L63.6844 39.4619L63.6839 39.4624L63.6835 39.4629L63.683 39.4634L63.6825 39.4638L63.682 39.4643L63.6816 39.4648L63.6811 39.4653L63.6806 39.4657L63.6801 39.4662L63.6797 39.4667L63.6792 39.4672L63.6787 39.4676L63.6782 39.4681L63.6778 39.4686L63.6773 39.4691L63.6768 39.4695L63.6763 39.47L63.6759 39.4705L63.6754 39.4709L63.6749 39.4714L63.6745 39.4719L63.674 39.4724L63.6735 39.4728L63.673 39.4733L63.6726 39.4738L63.6721 39.4743L63.6716 39.4747L63.6711 39.4752L63.6707 39.4757L63.6702 39.4762L63.6697 39.4766L63.6692 39.4771L63.6688 39.4776L63.6683 39.478L63.6678 39.4785L63.6674 39.479L63.6669 39.4795L63.6664 39.4799L63.6659 39.4804L63.6655 39.4809L63.665 39.4814L63.6645 39.4818L63.664 39.4823L63.6636 39.4828L63.6631 39.4833L63.6626 39.4837L63.6621 39.4842L63.6617 39.4847L63.6612 39.4851L63.6607 39.4856L63.6603 39.4861L63.6598 39.4866L63.6593 39.487L63.6588 39.4875L63.6584 39.488L63.6579 39.4885L63.6574 39.4889L63.6569 39.4894L63.6565 39.4899L63.656 39.4904L63.6555 39.4908L63.655 39.4913L63.6546 39.4918L63.6541 39.4922L63.6536 39.4927L63.6532 39.4932L63.6527 39.4937L63.6522 39.4941L63.6517 39.4946L63.6513 39.4951L63.6508 39.4956L63.6503 39.496L63.6498 39.4965L63.6494 39.497L63.6489 39.4974L63.6484 39.4979L63.648 39.4984L63.6475 39.4989L63.647 39.4993L63.6465 39.4998L63.6461 39.5003L63.6456 39.5008L63.6451 39.5012L63.6446 39.5017L63.6442 39.5022L63.6437 39.5027L63.6432 39.5031L63.6427 39.5036L63.6423 39.5041L63.6418 39.5045L63.6413 39.505L63.6409 39.5055L63.6404 39.506L63.6399 39.5064L63.6394 39.5069L63.639 39.5074L63.6385 39.5079L63.638 39.5083L63.6375 39.5088L63.6371 39.5093L63.6366 39.5097L63.6361 39.5102L63.6357 39.5107L63.6352 39.5112L63.6347 39.5116L63.6342 39.5121L63.6338 39.5126L63.6333 39.5131L63.6328 39.5135L63.6323 39.514L63.6319 39.5145L63.6314 39.515L63.6309 39.5154L63.6304 39.5159L63.63 39.5164L63.6295 39.5168L63.629 39.5173L63.6286 39.5178L63.6281 39.5183L63.6276 39.5187L63.6271 39.5192L63.6267 39.5197L63.6262 39.5202L63.6257 39.5206L63.6252 39.5211L63.6248 39.5216L63.6243 39.5221L63.6238 39.5225L63.6233 39.523L63.6229 39.5235L63.6224 39.5239L63.6219 39.5244L63.6215 39.5249L63.621 39.5254L63.6205 39.5258L63.62 39.5263L63.6196 39.5268L63.6191 39.5273L63.6186 39.5277L63.6181 39.5282L63.6177 39.5287L63.6172 39.5292L63.6167 39.5296L63.6162 39.5301L63.6158 39.5306L63.6153 39.5311L63.6148 39.5315L63.6143 39.532L63.6139 39.5325L63.6134 39.5329L63.6129 39.5334L63.6125 39.5339L63.612 39.5344L63.6115 39.5348L63.611 39.5353L63.6106 39.5358L63.6101 39.5363L63.6096 39.5367L63.6091 39.5372L63.6087 39.5377L63.6082 39.5382L63.6077 39.5386L63.6072 39.5391L63.6068 39.5396L63.6063 39.5401L63.6058 39.5405L63.6053 39.541L63.6049 39.5415L63.6044 39.542L63.6039 39.5424L63.6034 39.5429L63.603 39.5434L63.6025 39.5439L63.602 39.5443L63.6015 39.5448L63.6011 39.5453L63.6006 39.5458L63.6001 39.5462L63.5996 39.5467L63.5992 39.5472L63.5987 39.5477L63.5982 39.5481L63.5977 39.5486L63.5973 39.5491L63.5968 39.5495L63.5963 39.55L63.5958 39.5505L63.5954 39.551L63.5949 39.5514L63.5944 39.5519L63.5939 39.5524L63.5935 39.5529L63.593 39.5533L63.5925 39.5538L63.592 39.5543L63.5916 39.5548L63.5911 39.5552L63.5906 39.5557L63.5901 39.5562L63.5897 39.5567L63.5892 39.5572L63.5887 39.5576L63.5882 39.5581L63.5878 39.5586L63.5873 39.5591L63.5868 39.5595L63.5863 39.56L63.5859 39.5605L63.5854 39.561L63.5849 39.5614L63.5844 39.5619L63.584 39.5624L63.5835 39.5629L63.583 39.5633L63.5825 39.5638L63.5821 39.5643L63.5816 39.5648L63.5811 39.5652L63.5806 39.5657L63.5802 39.5662L63.5797 39.5667L63.5792 39.5671L63.5787 39.5676L63.5783 39.5681L63.5778 39.5686L63.5773 39.569L63.5768 39.5695L63.5763 39.57L63.5759 39.5705L63.5754 39.571L63.5749 39.5714L63.5744 39.5719L63.574 39.5724L63.5735 39.5729L63.573 39.5733L63.5725 39.5738L63.5721 39.5743L63.5716 39.5748L63.5711 39.5752L63.5706 39.5757L63.5702 39.5762L63.5697 39.5767L63.5692 39.5772L63.5687 39.5776L63.5682 39.5781L63.5678 39.5786L63.5673 39.5791L63.5668 39.5795L63.5663 39.58L63.5659 39.5805L63.5654 39.581L63.5649 39.5814L63.5644 39.5819L63.5639 39.5824L63.5635 39.5829L63.563 39.5834L63.5625 39.5838L63.562 39.5843L63.5616 39.5848L63.5611 39.5853L63.5606 39.5857L63.5601 39.5862L63.5596 39.5867L63.5592 39.5872L63.5587 39.5877L63.5582 39.5881L63.5577 39.5886L63.5573 39.5891L63.5568 39.5896L63.5563 39.5901L63.5558 39.5905L63.5553 39.591L63.5549 39.5915L63.5544 39.592L63.5539 39.5924L63.5534 39.5929L63.5529 39.5934L63.5525 39.5939L63.552 39.5944L63.5515 39.5948L63.551 39.5953L63.5506 39.5958L63.5501 39.5963L63.5496 39.5968L63.5491 39.5972L63.5486 39.5977L63.5482 39.5982L63.5477 39.5987L63.5472 39.5992L63.5467 39.5996L63.5462 39.6001L63.5458 39.6006L63.5453 39.6011L63.5448 39.6016L63.5443 39.602L63.5438 39.6025L63.5434 39.603L63.5429 39.6035L63.5424 39.604L63.5419 39.6044L63.5414 39.6049L63.541 39.6054L63.5405 39.6059L63.54 39.6064L63.5395 39.6068L63.539 39.6073L63.5386 39.6078L63.5381 39.6083L63.5376 39.6088L63.5371 39.6092L63.5366 39.6097L63.5361 39.6102L63.5357 39.6107L63.5352 39.6112L63.5347 39.6116L63.5342 39.6121L63.5337 39.6126L63.5333 39.6131L63.5328 39.6136L63.5323 39.614L63.5318 39.6145L63.5313 39.615L63.5309 39.6155L63.5304 39.616L63.5299 39.6165L63.5294 39.6169L63.5289 39.6174L63.5284 39.6179L63.528 39.6184L63.5275 39.6189L63.4452 39.7012L63.3798 39.7666L50.9192 48.1809L50.9191 48.1808L50.9107 48.187C50.6399 48.3868 50.292 48.4611 50.0048 48.4611C49.5147 48.4611 49.0255 48.253 48.6695 47.7551L48.6697 47.7549L48.6616 47.7448C48.1154 47.0593 48.3106 46.0118 49.0877 45.5186L49.0877 45.5187L49.0931 45.515L59.2247 38.7079L59.5329 38.5008L59.2251 38.2932L49.0159 31.4049C48.3191 30.9164 48.103 29.9366 48.5947 29.1566C49.0877 28.4572 50.1464 28.2524 50.8367 28.7351L50.8367 28.7351L50.8401 28.7374L63.3007 37.1494L63.3176 37.1664C63.3265 37.1878 63.3378 37.2086 63.3517 37.2285C63.3876 37.2796 63.4314 37.3104 63.4533 37.3251C63.4755 37.34 63.4889 37.3482 63.4982 37.3539C63.5121 37.3625 63.5165 37.3653 63.5275 37.3762L63.6007 37.4494H63.6156C63.6337 37.4755 63.6574 37.5061 63.6889 37.5377L63.8657 37.3609L63.689 37.5377L63.7696 37.6183C63.7754 37.6244 63.7809 37.63 63.7861 37.6354C63.7998 37.6496 63.8116 37.6618 63.8235 37.6746C63.8398 37.6921 63.851 37.7053 63.8589 37.7157C63.8591 37.716 63.8593 37.7163 63.8595 37.7165V37.937H64.0055L64.0186 37.9495L64.0241 37.9549V37.9909L64.0514 38.0443C64.0841 38.1084 64.0946 38.1449 64.0997 38.1751C64.1058 38.2115 64.1065 38.2504 64.1065 38.3361V38.4975V38.659C64.1065 38.6945 64.0991 38.7206 64.0784 38.7817L64.0765 38.7873ZM63.5748 37.3867C63.5748 37.3866 63.5752 37.3871 63.576 37.3883C63.5752 37.3873 63.5748 37.3867 63.5748 37.3867Z" fill="white" stroke="white" stroke-width="0.5"/>
</svg>
