<svg width="85" height="79" viewBox="0 0 85 79" fill="none" xmlns="http://www.w3.org/2000/svg">
<path d="M82.7457 49.515C81.0738 47.7338 78.5113 47.1556 76.2145 48.0462C73.5583 49.0462 70.5583 50.8118 67.2926 53.265C65.8707 54.3275 64.0582 55.1088 62.0895 55.6869C62.4645 53.8119 62.0582 51.2807 60.2457 49.9057C59.5582 49.3901 58.7301 49.0776 57.7613 48.9995C52.8707 48.562 45.7923 46.5776 37.8393 43.3901C27.4173 39.2182 15.4643 49.0307 14.9643 49.4526C14.808 49.5932 14.683 49.7495 14.5893 49.9213C13.1205 48.4994 10.8549 48.1401 8.99549 49.2182L2.33929 53.062C0.104889 54.3589 -0.660712 57.2339 0.620488 59.4682L10.1049 75.8902C10.9799 77.3902 12.558 78.234 14.1674 78.234C14.9643 78.234 15.7612 78.0309 16.5112 77.609L23.1674 73.7652C25.0736 72.6714 25.9018 70.4214 25.308 68.4058C29.2299 66.7652 33.9799 67.5308 39.855 68.5152C43.9331 69.2027 48.4175 69.9527 53.308 69.9527C55.058 69.9527 56.8705 69.8589 58.7455 69.6246C69.1205 68.3277 77.3545 62.6246 82.4485 58.0306C83.6829 56.9056 84.386 55.2962 84.386 53.6244C84.386 52.0775 83.7925 50.6244 82.7457 49.515ZM21.6047 71.046L14.9485 74.8898C14.5891 75.093 14.1672 75.1555 13.761 75.0461C13.3547 74.9367 13.0266 74.6867 12.8079 74.3117L3.32347 57.8897C3.12035 57.5303 3.05785 57.1085 3.16722 56.7022C3.27659 56.296 3.5266 55.9678 3.9016 55.7491L10.5578 51.9053C10.7922 51.7647 11.0734 51.7022 11.339 51.7022C11.4797 51.7022 11.6047 51.7178 11.7453 51.749C12.1515 51.8584 12.4797 52.1084 12.6984 52.4834L21.8859 68.4054C21.8859 68.4054 21.8859 68.4367 21.9015 68.4523L21.9328 68.4835L22.1828 68.9054C22.6203 69.6554 22.3547 70.6085 21.6047 71.046ZM80.3547 55.718C76.4641 59.218 68.4487 65.2649 58.3707 66.515C51.7769 67.3432 45.7297 66.3275 40.3867 65.4212C34.1523 64.3743 28.6837 63.4681 23.8707 65.5931L16.1207 52.1711C16.4176 52.1399 16.7144 52.0617 16.9644 51.843C17.0738 51.7492 27.9954 42.8118 36.6834 46.2805C44.9178 49.5774 52.3084 51.6399 57.5114 52.093C57.6521 52.093 58.0583 52.1399 58.3708 52.3742C58.9802 52.843 59.2614 54.0617 59.0271 55.1242C59.0271 55.1399 59.0271 55.1711 59.0114 55.1867C58.8552 55.7805 58.3864 56.2805 57.777 56.5773C50.7301 57.6085 43.371 56.8273 43.261 56.8117C42.386 56.718 41.636 57.343 41.5422 58.1867C41.4485 59.0461 42.0579 59.8117 42.9172 59.9055C43.6516 59.9837 61.0423 61.843 69.1982 55.7336C72.9794 52.8898 75.7138 51.5461 77.3544 50.9211C78.4638 50.4992 79.6982 50.7649 80.495 51.6242C81.0107 52.1555 81.2763 52.8586 81.2763 53.5773C81.2763 54.3898 80.9482 55.1242 80.3544 55.6711L80.3547 55.718Z" fill="white"/>
<path d="M26.9336 39.0474C26.9336 39.9067 27.6367 40.6099 28.4961 40.6099C29.3555 40.6099 30.0586 39.9067 30.0586 39.0474C30.0586 32.3443 35.5117 26.9064 42.1996 26.9064C48.8875 26.9064 54.3406 32.3595 54.3406 39.0474C54.3406 39.9067 55.0437 40.6099 55.9031 40.6099C56.7625 40.6099 57.4656 39.9067 57.4656 39.0474C57.4656 32.4849 53.2937 26.8754 47.4656 24.7354C49.4812 23.1573 50.7937 20.7198 50.7937 17.9542C50.7937 13.2198 46.9343 9.36035 42.1999 9.36035C37.4655 9.36035 33.6061 13.2198 33.6061 17.9542C33.6061 20.7042 34.9186 23.1573 36.9342 24.7354C31.1061 26.8916 26.9336 32.4854 26.9336 39.0474ZM42.1996 12.4854C45.2152 12.4854 47.6684 14.9385 47.6684 17.9542C47.6684 20.9699 45.2153 23.423 42.1996 23.423C39.1839 23.423 36.7308 20.9699 36.7308 17.9542C36.7308 14.9385 39.1839 12.4854 42.1996 12.4854Z" fill="white"/>
<path d="M7.82422 37.4845C8.6836 37.4845 9.38672 36.7814 9.38672 35.922C9.38672 34.922 9.43359 33.922 9.52734 32.9376C9.60546 32.0782 8.96484 31.3126 8.10544 31.2345C7.24604 31.1564 6.48044 31.797 6.40234 32.6564C6.30859 33.7345 6.26172 34.8283 6.26172 35.922C6.26172 36.7814 6.96484 37.4845 7.82422 37.4845Z" fill="white"/>
<path d="M8.82315 27.5153C8.9794 27.5622 9.12003 27.5778 9.27627 27.5778C9.94815 27.5778 10.5732 27.1403 10.7763 26.4684C11.4013 24.359 12.2607 22.3122 13.3075 20.3903C13.7137 19.6247 13.4325 18.6872 12.6669 18.2809C11.9012 17.8746 10.9638 18.1559 10.5575 18.9215C9.41685 21.0465 8.47935 23.2809 7.79185 25.5934C7.54185 26.4215 8.0106 27.2965 8.83875 27.5465L8.82315 27.5153Z" fill="white"/>
<path d="M15.7931 15.4843C16.2462 15.4843 16.6837 15.2968 16.9962 14.9218C17.6212 14.1718 18.3087 13.4218 19.0118 12.7187C25.2149 6.51555 33.4498 3.10925 42.2148 3.10925C58.9338 3.10925 72.7458 15.6873 74.7458 31.8753L71.7927 28.9222C71.1833 28.3128 70.1989 28.3128 69.5896 28.9222C68.9803 29.5315 68.9802 30.516 69.5896 31.1253L75.4958 37.0315C75.6364 37.1721 75.8083 37.2815 75.9958 37.3752C76.1833 37.4533 76.3864 37.5002 76.6051 37.5002H76.7301C76.7926 37.5002 76.8551 37.4533 76.9333 37.4377C77.0583 37.4065 77.1833 37.3908 77.3083 37.3283C77.3864 37.2971 77.4489 37.2346 77.5114 37.1877C77.6208 37.1096 77.7145 37.0315 77.7926 36.9377C77.8239 36.9065 77.8551 36.8908 77.8708 36.8596L82.8239 30.1408C83.3395 29.4533 83.1832 28.4689 82.4957 27.9533C81.8082 27.4377 80.8238 27.5939 80.3082 28.2814L77.902 31.547C75.7301 13.797 60.574 0 42.246 0C32.6522 0 23.621 3.7344 16.84 10.531C16.0744 11.2966 15.3244 12.1091 14.6369 12.9372C14.0901 13.5935 14.1682 14.5778 14.8401 15.1403C15.1369 15.3903 15.4807 15.4997 15.8401 15.4997L15.7931 15.4843Z" fill="white"/>
</svg>
