<svg width="54" height="54" viewBox="0 0 54 54" fill="none" xmlns="http://www.w3.org/2000/svg">
<rect x="0.782715" y="0.0703125" width="53" height="53" rx="20" fill="#CC63D4"/>
<path d="M25.5385 14.9662C25.9314 14.9662 26.2499 14.6477 26.2499 14.2548C26.2499 13.8619 25.9314 13.5435 25.5385 13.5435C25.1456 13.5435 24.8271 13.8619 24.8271 14.2548C24.8271 14.6477 25.1456 14.9662 25.5385 14.9662Z" fill="white"/>
<path d="M30.874 21.0127V16.7446C30.874 16.3517 30.5559 16.0332 30.1627 16.0332C29.7695 16.0332 29.4513 16.3517 29.4513 16.7446V21.0127C29.4513 21.4056 29.7695 21.7241 30.1627 21.7241C30.5559 21.7241 30.874 21.4056 30.874 21.0127ZM22.7309 21.6491C23.0831 21.8245 23.5089 21.6824 23.6854 21.3309L23.8445 21.0127H26.5218L26.6809 21.3309C26.8059 21.5803 27.0567 21.7245 27.3179 21.7241C27.4249 21.7241 27.5333 21.7001 27.6354 21.6491C27.9869 21.4733 28.1293 21.0461 27.9536 20.6946L25.8195 16.4264C25.5777 15.9443 24.7885 15.9443 24.5468 16.4264L22.4127 20.6946C22.2369 21.0461 22.3793 21.4733 22.7309 21.6491ZM25.1831 18.3351L25.8105 19.59H24.5557L25.1831 18.3351Z" fill="white"/>
<path d="M39.0545 13.5435C38.6632 13.5435 38.3431 13.8636 38.3431 14.2548V17.8116C38.3431 18.2029 38.023 18.523 37.6317 18.523H37.2761C37.2761 17.3492 36.3157 16.3889 35.142 16.3889H34.4306C34.4306 14.8168 33.1573 13.5435 31.5851 13.5435H28.384C27.9928 13.5435 27.6726 13.8636 27.6726 14.2548C27.6726 14.6461 27.9928 14.9662 28.384 14.9662H31.5851C32.3676 14.9662 33.0079 15.6064 33.0079 16.3889V21.3685C33.0079 22.1509 32.3676 22.7912 31.5851 22.7912H22.3374C21.5549 22.7912 20.9147 22.1509 20.9147 21.3685V16.3889C20.9147 15.6064 21.5549 14.9662 22.3374 14.9662H22.6931C23.0843 14.9662 23.4045 14.6461 23.4045 14.2548C23.4045 13.8636 23.0843 13.5435 22.6931 13.5435H22.3374C20.7653 13.5435 19.492 14.8168 19.492 16.3889H18.7806C17.6068 16.3889 16.6465 17.3492 16.6465 18.523H16.2908C15.8996 18.523 15.5795 18.2029 15.5795 17.8116V14.2548C15.5795 13.8636 15.2593 13.5435 14.8681 13.5435C14.4769 13.5435 14.1567 13.8636 14.1567 14.2548V17.8116C14.1567 18.9854 15.1171 19.9457 16.2908 19.9457H16.6465C16.6465 21.1195 17.6068 22.0798 18.7806 22.0798H19.5916C19.9117 23.3033 21.0143 24.2139 22.3374 24.2139H24.8272V26.348C20.5092 26.348 17.0022 29.855 17.0022 34.173V38.4412C17.0022 39.6149 17.9625 40.5753 19.1363 40.5753H34.7863C35.96 40.5753 36.9204 39.6149 36.9204 38.4412V34.173C36.9204 29.855 33.4134 26.348 29.0954 26.348V24.2139H31.5851C32.9083 24.2139 34.0109 23.3033 34.331 22.0798H35.142C36.3157 22.0798 37.2761 21.1195 37.2761 19.9457H37.6317C38.8055 19.9457 39.7658 18.9854 39.7658 17.8116V14.2548C39.7658 13.8636 39.4457 13.5435 39.0545 13.5435ZM19.492 20.6571H18.7806C18.3894 20.6571 18.0692 20.337 18.0692 19.9457V18.523C18.0692 18.1318 18.3894 17.8116 18.7806 17.8116H19.492V20.6571ZM26.2499 24.2139H27.6726V26.348H26.2499V24.2139ZM35.4976 34.173V38.4412C35.4976 38.8324 35.1775 39.1525 34.7863 39.1525H19.1363C18.745 39.1525 18.4249 38.8324 18.4249 38.4412V34.173C18.4249 30.6446 21.2988 27.7707 24.8272 27.7707H29.0954C32.6238 27.7707 35.4976 30.6446 35.4976 34.173ZM35.8533 19.9457C35.8533 20.337 35.5332 20.6571 35.142 20.6571H34.4306V17.8116H35.142C35.5332 17.8116 35.8533 18.1318 35.8533 18.523V19.9457Z" fill="white"/>
<path d="M32.6523 32.7497H31.9409V31.327C31.9409 30.9357 31.6208 30.6156 31.2295 30.6156H30.5182V29.9042C30.5182 29.513 30.1981 29.1929 29.8068 29.1929C29.4156 29.1929 29.0954 29.513 29.0954 29.9042V30.6156H27.6727V29.9042C27.6727 29.513 27.3526 29.1929 26.9614 29.1929C26.5701 29.1929 26.25 29.513 26.25 29.9042V30.6156H24.8273V29.9042C24.8273 29.513 24.5071 29.1929 24.1159 29.1929C23.7247 29.1929 23.4045 29.513 23.4045 29.9042V30.6156H22.6932C22.3019 30.6156 21.9818 30.9357 21.9818 31.327V32.7497H21.2704C20.8792 32.7497 20.5591 33.0698 20.5591 33.4611C20.5591 33.8523 20.8792 34.1724 21.2704 34.1724H21.9818V35.5951C21.9818 35.9864 22.3019 36.3065 22.6932 36.3065H23.4045V37.0179C23.4045 37.4091 23.7247 37.7292 24.1159 37.7292C24.5071 37.7292 24.8273 37.4091 24.8273 37.0179V36.3065H26.25V37.0179C26.25 37.4091 26.5701 37.7292 26.9614 37.7292C27.3526 37.7292 27.6727 37.4091 27.6727 37.0179V36.3065H29.0954V37.0179C29.0954 37.4091 29.4156 37.7292 29.8068 37.7292C30.1981 37.7292 30.5182 37.4091 30.5182 37.0179V36.3065H31.2295C31.6208 36.3065 31.9409 35.9864 31.9409 35.5951V34.1724H32.6523C33.0435 34.1724 33.3636 33.8523 33.3636 33.4611C33.3636 33.0698 33.0435 32.7497 32.6523 32.7497ZM30.5182 34.8838H23.4045V32.0383H30.5182V34.8838Z" fill="white"/>
</svg>
