<svg width="53" height="53" viewBox="0 0 53 53" fill="none" xmlns="http://www.w3.org/2000/svg">
<rect width="53" height="53" rx="20" fill="#5ABA87"/>
<path d="M35.5449 26.1735C35.3427 25.6435 34.9572 25.1971 34.4388 24.9333C33.4124 24.3975 32.127 24.7018 31.4505 25.6445L29.7098 28.0748C29.3993 27.7271 28.9886 27.4633 28.5052 27.3428L24.6478 26.3818C23.1126 25.9987 21.4935 26.3086 20.2077 27.2318L16.1217 30.1628C15.9473 30.2881 15.8438 30.4896 15.8438 30.7044V37.3333C15.8438 37.7015 16.1422 38 16.5104 38H19.3942C19.5156 38 19.6348 37.9668 19.7389 37.904L22.8434 36.0293L30.64 35.748C30.7894 35.7425 30.9326 35.6872 31.0465 35.5905L37.3239 30.277C38.2799 29.4681 38.429 28.0583 37.6634 27.0674C37.1527 26.4063 36.3387 26.0911 35.5449 26.1735ZM32.5342 26.4212C32.8258 26.016 33.3786 25.8841 33.8275 26.1182C34.0489 26.2308 34.2079 26.4231 34.2951 26.6486L31.0644 28.4735L32.5342 26.4212ZM36.4626 29.2594L30.3613 34.4238L22.6227 34.7028C22.5094 34.707 22.3991 34.7399 22.3021 34.7985L19.2087 36.6667H17.1771V31.0465L20.985 28.3151C21.9528 27.6211 23.1706 27.388 24.3255 27.6755L28.1826 28.6364C28.7266 28.7721 29.0739 29.3063 28.9736 29.8529C28.8714 30.4085 28.348 30.7855 27.7803 30.7148L25.9219 30.4756C25.5579 30.4268 25.2223 30.6859 25.1754 31.0514C25.1282 31.4167 25.3864 31.751 25.7513 31.7979L27.61 32.0371C28.7334 32.1823 29.7822 31.53 30.1689 30.5107L35.2926 27.6162C35.7334 27.3685 36.2991 27.4814 36.6081 27.8825C36.9365 28.3076 36.8727 28.9124 36.4626 29.2594ZM21.2415 18.1458C21.1279 17.7962 20.7519 17.6042 20.4014 17.7178L19.8714 17.89V17.3327C19.8714 16.9645 19.5729 16.666 19.2048 16.666C18.8366 16.666 18.5381 16.9645 18.5381 17.3327V17.8899L18.0085 17.7178C17.6585 17.6042 17.2819 17.7962 17.1683 18.1458C17.0547 18.4961 17.2461 18.8721 17.5964 18.986L18.1259 19.1581L17.7985 19.6087C17.582 19.9066 17.6481 20.3236 17.946 20.5401C18.2402 20.7534 18.6629 20.6871 18.8773 20.3926L19.2048 19.9419L19.5322 20.3926C19.7374 20.6749 20.1696 20.7532 20.4635 20.54C20.7614 20.3236 20.8275 19.9066 20.611 19.6087L20.2836 19.1582L20.8135 18.986C21.1637 18.8721 21.3551 18.4961 21.2415 18.1458ZM27.9857 18.986L28.5155 19.1582L28.1881 19.6087C27.9717 19.9066 28.0378 20.3236 28.3356 20.5401C28.6312 20.7544 29.0525 20.6877 29.2669 20.3926L29.5944 19.9419C29.5944 19.9419 29.9205 20.3907 29.9219 20.3926C30.133 20.6832 30.564 20.7498 30.8532 20.54C31.151 20.3236 31.2171 19.9066 31.0006 19.6087L30.6733 19.1582L31.2031 18.986C31.5534 18.8721 31.7448 18.4961 31.6312 18.1458C31.5176 17.7962 31.1419 17.6042 30.791 17.7178L30.2611 17.89V17.3327C30.2611 16.9645 29.9626 16.666 29.5944 16.666C29.2262 16.666 28.9277 16.9645 28.9277 17.3327V17.89L28.3978 17.7178C28.0469 17.6042 27.6715 17.7962 27.5576 18.1458C27.444 18.4961 27.6354 18.8721 27.9857 18.986ZM24.3997 16.666C24.0316 16.666 23.7331 16.9645 23.7331 17.3327V17.89L23.2031 17.7178C22.8525 17.6042 22.4766 17.7962 22.363 18.1458C22.2494 18.4961 22.4408 18.8721 22.791 18.986L23.3209 19.1582L22.9935 19.6087C22.777 19.9066 22.8431 20.3235 23.1409 20.54C23.4241 20.7458 23.8576 20.6875 24.0723 20.3926L24.3997 19.9419L24.7272 20.3926C24.9328 20.6755 25.3578 20.7586 25.6585 20.54C25.9564 20.3236 26.0225 19.9066 25.806 19.6087L25.4786 19.1582L26.0085 18.986C26.3587 18.8721 26.5501 18.4961 26.4365 18.1458C26.3229 17.7962 25.9476 17.6042 25.5964 17.7178L25.0664 17.89V17.3327C25.0664 16.9645 24.7679 16.666 24.3997 16.666ZM34.7894 16.666C34.4212 16.666 34.1227 16.9645 34.1227 17.3327V17.89L33.5928 17.7178C33.2425 17.6042 32.8662 17.7962 32.7526 18.1458C32.639 18.4961 32.8304 18.8721 33.1807 18.986L33.7105 19.1582L33.3831 19.6087C33.1667 19.9066 33.2327 20.3235 33.5306 20.54C33.813 20.7453 34.2441 20.6918 34.4619 20.3926L34.7894 19.9419L35.1169 20.3926C35.3225 20.6755 35.7485 20.7574 36.0482 20.54C36.346 20.3236 36.4121 19.9066 36.1956 19.6087L35.8682 19.1581L36.3978 18.986C36.7481 18.8721 36.9395 18.4961 36.8258 18.1458C36.7119 17.7962 36.3376 17.6042 35.9857 17.7178L35.4561 17.8899V17.3327C35.4561 16.9645 35.1575 16.666 34.7894 16.666Z" fill="white"/>
<path d="M37.6654 14H29.6654C29.2972 14 28.9987 14.2985 28.9987 14.6667C28.9987 15.0348 29.2972 15.3333 29.6654 15.3333H37.6654C38.0329 15.3333 38.332 15.6325 38.332 16V21.3333C38.332 21.7008 38.0329 22 37.6654 22H28.3854C28.1875 22 27.9997 22.0879 27.8731 22.2402L26.9987 23.291L26.1244 22.2402C25.9977 22.0879 25.8099 22 25.612 22H16.332C15.9645 22 15.6654 21.7008 15.6654 21.3333V16C15.6654 15.6325 15.9645 15.3333 16.332 15.3333H24.332C24.7002 15.3333 24.9987 15.0348 24.9987 14.6667C24.9987 14.2985 24.7002 14 24.332 14H16.332C15.2292 14 14.332 14.8971 14.332 16V21.3333C14.332 22.4362 15.2292 23.3333 16.332 23.3333H25.2995C25.2995 23.3333 26.4849 24.758 26.4863 24.7598C26.7497 25.0763 27.2479 25.0763 27.5111 24.7598L28.6979 23.3333H37.6654C38.7682 23.3333 39.6654 22.4362 39.6654 21.3333V16C39.6654 14.8971 38.7682 14 37.6654 14Z" fill="white"/>
<path d="M26.9987 15.3333C27.3669 15.3333 27.6654 15.0349 27.6654 14.6667C27.6654 14.2985 27.3669 14 26.9987 14C26.6305 14 26.332 14.2985 26.332 14.6667C26.332 15.0349 26.6305 15.3333 26.9987 15.3333Z" fill="white"/>
</svg>
