<svg width="54" height="54" viewBox="0 0 54 54" fill="none" xmlns="http://www.w3.org/2000/svg">
<rect x="0.977539" y="0.0703125" width="53" height="53" rx="20" fill="#E6A55B"/>
<g clip-path="url(#clip0_5288_652)">
<mask id="path-2-outside-1_5288_652" maskUnits="userSpaceOnUse" x="9" y="8" width="36" height="36" fill="black">
<rect fill="white" x="9" y="8" width="36" height="36"/>
<path d="M21.9844 11.0294C22.3723 11.0294 22.7443 11.1834 23.0186 11.4574C23.2928 11.7315 23.4469 12.1031 23.4469 12.4906V20.9737C23.4483 21.166 23.4114 21.3566 23.3384 21.5345C23.2653 21.7124 23.1577 21.874 23.0216 22.01C22.8855 22.1459 22.7237 22.2535 22.5457 22.3265C22.3676 22.3994 22.1769 22.4363 21.9844 22.4349H13.5344C13.3389 22.4404 13.1444 22.4066 12.9622 22.3356C12.7801 22.2646 12.614 22.1578 12.4739 22.0216C12.3337 21.8854 12.2224 21.7224 12.1463 21.5425C12.0703 21.3625 12.0312 21.1691 12.0313 20.9737V12.5312C12.0271 12.3329 12.0631 12.1357 12.1372 11.9517C12.2113 11.7676 12.3219 11.6004 12.4623 11.4601C12.6027 11.3198 12.77 11.2093 12.9543 11.1353C13.1385 11.0613 13.3359 11.0253 13.5344 11.0294H21.9844ZM21.9844 9H13.5344C12.597 9 11.698 9.37204 11.0352 10.0343C10.3724 10.6965 10 11.5947 10 12.5312L10 20.9737C10 21.9112 10.372 22.8104 11.0346 23.4743C11.6971 24.1381 12.5961 24.5124 13.5344 24.5151H21.9844C22.9237 24.5124 23.8237 24.1385 24.4878 23.4749C25.152 22.8114 25.5263 21.9121 25.529 20.9737V12.5312C25.5263 11.5938 25.1517 10.6956 24.4872 10.0337C23.8228 9.37171 22.9227 9 21.9844 9ZM40.6009 11.0294C40.9888 11.0294 41.3608 11.1834 41.6351 11.4574C41.9093 11.7315 42.0634 12.1031 42.0634 12.4906V20.9737C42.0648 21.166 42.0279 21.3566 41.9548 21.5345C41.8818 21.7124 41.7741 21.874 41.6381 22.01C41.502 22.1459 41.3402 22.2535 41.1622 22.3265C40.9841 22.3994 40.7933 22.4363 40.6009 22.4349H32.1509C31.763 22.4349 31.391 22.281 31.1167 22.007C30.8425 21.7329 30.6884 21.3613 30.6884 20.9737V12.5312C30.6843 12.3363 30.7191 12.1425 30.7907 11.9612C30.8622 11.7798 30.9691 11.6144 31.1052 11.4747C31.2413 11.335 31.4038 11.2237 31.5833 11.1472C31.7628 11.0708 31.9557 11.0308 32.1509 11.0294H40.6009ZM40.6009 9H32.1509C31.2135 9 30.3145 9.37204 29.6517 10.0343C28.9889 10.6965 28.6165 11.5947 28.6165 12.5312V20.9737C28.6165 21.9112 28.9885 22.8104 29.6511 23.4743C30.3136 24.1381 31.2126 24.5124 32.1509 24.5151H40.6009C41.5402 24.5124 42.4402 24.1385 43.1043 23.4749C43.7685 22.8114 44.1428 21.9121 44.1455 20.9737V12.5312C44.1428 11.5938 43.7681 10.6956 43.1037 10.0337C42.4393 9.37171 41.5392 9 40.6009 9ZM40.6009 29.7004C40.793 29.7004 40.9831 29.7382 41.1606 29.8116C41.338 29.885 41.4993 29.9927 41.6351 30.1283C41.7709 30.264 41.8786 30.4251 41.9521 30.6024C42.0256 30.7797 42.0634 30.9697 42.0634 31.1616V39.6041C42.0648 39.7963 42.0279 39.9869 41.9548 40.1648C41.8818 40.3427 41.7741 40.5043 41.6381 40.6403C41.502 40.7763 41.3402 40.8838 41.1622 40.9568C40.9841 41.0297 40.7933 41.0666 40.6009 41.0653H32.1509C31.763 41.0653 31.391 40.9113 31.1167 40.6373C30.8425 40.3633 30.6884 39.9916 30.6884 39.6041V31.1616C30.691 30.7749 30.846 30.4047 31.1197 30.1313C31.3934 29.8578 31.7638 29.703 32.1509 29.7004H40.6009ZM40.6009 27.6709H32.1509C31.2135 27.6709 30.3145 28.043 29.6517 28.7052C28.9889 29.3674 28.6165 30.2656 28.6165 31.2022V39.6447C28.6165 40.5821 28.9885 41.4814 29.6511 42.1452C30.3136 42.8091 31.2126 43.1834 32.1509 43.186H40.6009C41.5402 43.1834 42.4402 42.8094 43.1043 42.1458C43.7685 41.4823 44.1428 40.5831 44.1455 39.6447V31.1616C44.1428 30.2241 43.7681 29.3259 43.1037 28.664C42.4393 28.002 41.5392 27.6303 40.6009 27.6303V27.6709ZM21.9844 29.7004C22.1765 29.7004 22.3667 29.7382 22.5441 29.8116C22.7215 29.885 22.8828 29.9927 23.0186 30.1283C23.1544 30.264 23.2621 30.4251 23.3356 30.6024C23.4091 30.7797 23.4469 30.9697 23.4469 31.1616V39.6041C23.4483 39.7963 23.4114 39.9869 23.3384 40.1648C23.2653 40.3427 23.1577 40.5043 23.0216 40.6403C22.8855 40.7763 22.7237 40.8838 22.5457 40.9568C22.3676 41.0297 22.1769 41.0666 21.9844 41.0653H13.5344C13.3389 41.0707 13.1444 41.0369 12.9622 40.9659C12.7801 40.8949 12.614 40.7881 12.4739 40.6519C12.3337 40.5157 12.2224 40.3528 12.1463 40.1728C12.0703 39.9928 12.0312 39.7994 12.0313 39.6041V31.1616C12.0326 30.9666 12.0726 30.7739 12.1491 30.5945C12.2256 30.4152 12.3371 30.2528 12.4769 30.1168C12.6168 29.9809 12.7823 29.8741 12.9638 29.8026C13.1454 29.7311 13.3393 29.6963 13.5344 29.7004H21.9844ZM21.9844 27.6709H13.5344C12.604 27.6709 11.7111 28.0373 11.0495 28.6908C10.3878 29.3443 10.0107 30.2321 10 31.1616V39.6041C10 40.5415 10.372 41.4408 11.0346 42.1046C11.6971 42.7685 12.5961 43.1428 13.5344 43.1455H21.9844C22.9237 43.1428 23.8237 42.7688 24.4878 42.1052C25.152 41.4417 25.5263 40.5425 25.529 39.6041V31.1616C25.5263 30.2241 25.1517 29.3259 24.4872 28.664C23.8228 28.002 22.9227 27.6303 21.9844 27.6303V27.6709Z"/>
</mask>
<path d="M21.9844 11.0294C22.3723 11.0294 22.7443 11.1834 23.0186 11.4574C23.2928 11.7315 23.4469 12.1031 23.4469 12.4906V20.9737C23.4483 21.166 23.4114 21.3566 23.3384 21.5345C23.2653 21.7124 23.1577 21.874 23.0216 22.01C22.8855 22.1459 22.7237 22.2535 22.5457 22.3265C22.3676 22.3994 22.1769 22.4363 21.9844 22.4349H13.5344C13.3389 22.4404 13.1444 22.4066 12.9622 22.3356C12.7801 22.2646 12.614 22.1578 12.4739 22.0216C12.3337 21.8854 12.2224 21.7224 12.1463 21.5425C12.0703 21.3625 12.0312 21.1691 12.0313 20.9737V12.5312C12.0271 12.3329 12.0631 12.1357 12.1372 11.9517C12.2113 11.7676 12.3219 11.6004 12.4623 11.4601C12.6027 11.3198 12.77 11.2093 12.9543 11.1353C13.1385 11.0613 13.3359 11.0253 13.5344 11.0294H21.9844ZM21.9844 9H13.5344C12.597 9 11.698 9.37204 11.0352 10.0343C10.3724 10.6965 10 11.5947 10 12.5312L10 20.9737C10 21.9112 10.372 22.8104 11.0346 23.4743C11.6971 24.1381 12.5961 24.5124 13.5344 24.5151H21.9844C22.9237 24.5124 23.8237 24.1385 24.4878 23.4749C25.152 22.8114 25.5263 21.9121 25.529 20.9737V12.5312C25.5263 11.5938 25.1517 10.6956 24.4872 10.0337C23.8228 9.37171 22.9227 9 21.9844 9ZM40.6009 11.0294C40.9888 11.0294 41.3608 11.1834 41.6351 11.4574C41.9093 11.7315 42.0634 12.1031 42.0634 12.4906V20.9737C42.0648 21.166 42.0279 21.3566 41.9548 21.5345C41.8818 21.7124 41.7741 21.874 41.6381 22.01C41.502 22.1459 41.3402 22.2535 41.1622 22.3265C40.9841 22.3994 40.7933 22.4363 40.6009 22.4349H32.1509C31.763 22.4349 31.391 22.281 31.1167 22.007C30.8425 21.7329 30.6884 21.3613 30.6884 20.9737V12.5312C30.6843 12.3363 30.7191 12.1425 30.7907 11.9612C30.8622 11.7798 30.9691 11.6144 31.1052 11.4747C31.2413 11.335 31.4038 11.2237 31.5833 11.1472C31.7628 11.0708 31.9557 11.0308 32.1509 11.0294H40.6009ZM40.6009 9H32.1509C31.2135 9 30.3145 9.37204 29.6517 10.0343C28.9889 10.6965 28.6165 11.5947 28.6165 12.5312V20.9737C28.6165 21.9112 28.9885 22.8104 29.6511 23.4743C30.3136 24.1381 31.2126 24.5124 32.1509 24.5151H40.6009C41.5402 24.5124 42.4402 24.1385 43.1043 23.4749C43.7685 22.8114 44.1428 21.9121 44.1455 20.9737V12.5312C44.1428 11.5938 43.7681 10.6956 43.1037 10.0337C42.4393 9.37171 41.5392 9 40.6009 9ZM40.6009 29.7004C40.793 29.7004 40.9831 29.7382 41.1606 29.8116C41.338 29.885 41.4993 29.9927 41.6351 30.1283C41.7709 30.264 41.8786 30.4251 41.9521 30.6024C42.0256 30.7797 42.0634 30.9697 42.0634 31.1616V39.6041C42.0648 39.7963 42.0279 39.9869 41.9548 40.1648C41.8818 40.3427 41.7741 40.5043 41.6381 40.6403C41.502 40.7763 41.3402 40.8838 41.1622 40.9568C40.9841 41.0297 40.7933 41.0666 40.6009 41.0653H32.1509C31.763 41.0653 31.391 40.9113 31.1167 40.6373C30.8425 40.3633 30.6884 39.9916 30.6884 39.6041V31.1616C30.691 30.7749 30.846 30.4047 31.1197 30.1313C31.3934 29.8578 31.7638 29.703 32.1509 29.7004H40.6009ZM40.6009 27.6709H32.1509C31.2135 27.6709 30.3145 28.043 29.6517 28.7052C28.9889 29.3674 28.6165 30.2656 28.6165 31.2022V39.6447C28.6165 40.5821 28.9885 41.4814 29.6511 42.1452C30.3136 42.8091 31.2126 43.1834 32.1509 43.186H40.6009C41.5402 43.1834 42.4402 42.8094 43.1043 42.1458C43.7685 41.4823 44.1428 40.5831 44.1455 39.6447V31.1616C44.1428 30.2241 43.7681 29.3259 43.1037 28.664C42.4393 28.002 41.5392 27.6303 40.6009 27.6303V27.6709ZM21.9844 29.7004C22.1765 29.7004 22.3667 29.7382 22.5441 29.8116C22.7215 29.885 22.8828 29.9927 23.0186 30.1283C23.1544 30.264 23.2621 30.4251 23.3356 30.6024C23.4091 30.7797 23.4469 30.9697 23.4469 31.1616V39.6041C23.4483 39.7963 23.4114 39.9869 23.3384 40.1648C23.2653 40.3427 23.1577 40.5043 23.0216 40.6403C22.8855 40.7763 22.7237 40.8838 22.5457 40.9568C22.3676 41.0297 22.1769 41.0666 21.9844 41.0653H13.5344C13.3389 41.0707 13.1444 41.0369 12.9622 40.9659C12.7801 40.8949 12.614 40.7881 12.4739 40.6519C12.3337 40.5157 12.2224 40.3528 12.1463 40.1728C12.0703 39.9928 12.0312 39.7994 12.0313 39.6041V31.1616C12.0326 30.9666 12.0726 30.7739 12.1491 30.5945C12.2256 30.4152 12.3371 30.2528 12.4769 30.1168C12.6168 29.9809 12.7823 29.8741 12.9638 29.8026C13.1454 29.7311 13.3393 29.6963 13.5344 29.7004H21.9844ZM21.9844 27.6709H13.5344C12.604 27.6709 11.7111 28.0373 11.0495 28.6908C10.3878 29.3443 10.0107 30.2321 10 31.1616V39.6041C10 40.5415 10.372 41.4408 11.0346 42.1046C11.6971 42.7685 12.5961 43.1428 13.5344 43.1455H21.9844C22.9237 43.1428 23.8237 42.7688 24.4878 42.1052C25.152 41.4417 25.5263 40.5425 25.529 39.6041V31.1616C25.5263 30.2241 25.1517 29.3259 24.4872 28.664C23.8228 28.002 22.9227 27.6303 21.9844 27.6303V27.6709Z" fill="white"/>
<path d="M21.9844 11.0294C22.3723 11.0294 22.7443 11.1834 23.0186 11.4574C23.2928 11.7315 23.4469 12.1031 23.4469 12.4906V20.9737C23.4483 21.166 23.4114 21.3566 23.3384 21.5345C23.2653 21.7124 23.1577 21.874 23.0216 22.01C22.8855 22.1459 22.7237 22.2535 22.5457 22.3265C22.3676 22.3994 22.1769 22.4363 21.9844 22.4349H13.5344C13.3389 22.4404 13.1444 22.4066 12.9622 22.3356C12.7801 22.2646 12.614 22.1578 12.4739 22.0216C12.3337 21.8854 12.2224 21.7224 12.1463 21.5425C12.0703 21.3625 12.0312 21.1691 12.0313 20.9737V12.5312C12.0271 12.3329 12.0631 12.1357 12.1372 11.9517C12.2113 11.7676 12.3219 11.6004 12.4623 11.4601C12.6027 11.3198 12.77 11.2093 12.9543 11.1353C13.1385 11.0613 13.3359 11.0253 13.5344 11.0294H21.9844ZM21.9844 9H13.5344C12.597 9 11.698 9.37204 11.0352 10.0343C10.3724 10.6965 10 11.5947 10 12.5312L10 20.9737C10 21.9112 10.372 22.8104 11.0346 23.4743C11.6971 24.1381 12.5961 24.5124 13.5344 24.5151H21.9844C22.9237 24.5124 23.8237 24.1385 24.4878 23.4749C25.152 22.8114 25.5263 21.9121 25.529 20.9737V12.5312C25.5263 11.5938 25.1517 10.6956 24.4872 10.0337C23.8228 9.37171 22.9227 9 21.9844 9ZM40.6009 11.0294C40.9888 11.0294 41.3608 11.1834 41.6351 11.4574C41.9093 11.7315 42.0634 12.1031 42.0634 12.4906V20.9737C42.0648 21.166 42.0279 21.3566 41.9548 21.5345C41.8818 21.7124 41.7741 21.874 41.6381 22.01C41.502 22.1459 41.3402 22.2535 41.1622 22.3265C40.9841 22.3994 40.7933 22.4363 40.6009 22.4349H32.1509C31.763 22.4349 31.391 22.281 31.1167 22.007C30.8425 21.7329 30.6884 21.3613 30.6884 20.9737V12.5312C30.6843 12.3363 30.7191 12.1425 30.7907 11.9612C30.8622 11.7798 30.9691 11.6144 31.1052 11.4747C31.2413 11.335 31.4038 11.2237 31.5833 11.1472C31.7628 11.0708 31.9557 11.0308 32.1509 11.0294H40.6009ZM40.6009 9H32.1509C31.2135 9 30.3145 9.37204 29.6517 10.0343C28.9889 10.6965 28.6165 11.5947 28.6165 12.5312V20.9737C28.6165 21.9112 28.9885 22.8104 29.6511 23.4743C30.3136 24.1381 31.2126 24.5124 32.1509 24.5151H40.6009C41.5402 24.5124 42.4402 24.1385 43.1043 23.4749C43.7685 22.8114 44.1428 21.9121 44.1455 20.9737V12.5312C44.1428 11.5938 43.7681 10.6956 43.1037 10.0337C42.4393 9.37171 41.5392 9 40.6009 9ZM40.6009 29.7004C40.793 29.7004 40.9831 29.7382 41.1606 29.8116C41.338 29.885 41.4993 29.9927 41.6351 30.1283C41.7709 30.264 41.8786 30.4251 41.9521 30.6024C42.0256 30.7797 42.0634 30.9697 42.0634 31.1616V39.6041C42.0648 39.7963 42.0279 39.9869 41.9548 40.1648C41.8818 40.3427 41.7741 40.5043 41.6381 40.6403C41.502 40.7763 41.3402 40.8838 41.1622 40.9568C40.9841 41.0297 40.7933 41.0666 40.6009 41.0653H32.1509C31.763 41.0653 31.391 40.9113 31.1167 40.6373C30.8425 40.3633 30.6884 39.9916 30.6884 39.6041V31.1616C30.691 30.7749 30.846 30.4047 31.1197 30.1313C31.3934 29.8578 31.7638 29.703 32.1509 29.7004H40.6009ZM40.6009 27.6709H32.1509C31.2135 27.6709 30.3145 28.043 29.6517 28.7052C28.9889 29.3674 28.6165 30.2656 28.6165 31.2022V39.6447C28.6165 40.5821 28.9885 41.4814 29.6511 42.1452C30.3136 42.8091 31.2126 43.1834 32.1509 43.186H40.6009C41.5402 43.1834 42.4402 42.8094 43.1043 42.1458C43.7685 41.4823 44.1428 40.5831 44.1455 39.6447V31.1616C44.1428 30.2241 43.7681 29.3259 43.1037 28.664C42.4393 28.002 41.5392 27.6303 40.6009 27.6303V27.6709ZM21.9844 29.7004C22.1765 29.7004 22.3667 29.7382 22.5441 29.8116C22.7215 29.885 22.8828 29.9927 23.0186 30.1283C23.1544 30.264 23.2621 30.4251 23.3356 30.6024C23.4091 30.7797 23.4469 30.9697 23.4469 31.1616V39.6041C23.4483 39.7963 23.4114 39.9869 23.3384 40.1648C23.2653 40.3427 23.1577 40.5043 23.0216 40.6403C22.8855 40.7763 22.7237 40.8838 22.5457 40.9568C22.3676 41.0297 22.1769 41.0666 21.9844 41.0653H13.5344C13.3389 41.0707 13.1444 41.0369 12.9622 40.9659C12.7801 40.8949 12.614 40.7881 12.4739 40.6519C12.3337 40.5157 12.2224 40.3528 12.1463 40.1728C12.0703 39.9928 12.0312 39.7994 12.0313 39.6041V31.1616C12.0326 30.9666 12.0726 30.7739 12.1491 30.5945C12.2256 30.4152 12.3371 30.2528 12.4769 30.1168C12.6168 29.9809 12.7823 29.8741 12.9638 29.8026C13.1454 29.7311 13.3393 29.6963 13.5344 29.7004H21.9844ZM21.9844 27.6709H13.5344C12.604 27.6709 11.7111 28.0373 11.0495 28.6908C10.3878 29.3443 10.0107 30.2321 10 31.1616V39.6041C10 40.5415 10.372 41.4408 11.0346 42.1046C11.6971 42.7685 12.5961 43.1428 13.5344 43.1455H21.9844C22.9237 43.1428 23.8237 42.7688 24.4878 42.1052C25.152 41.4417 25.5263 40.5425 25.529 39.6041V31.1616C25.5263 30.2241 25.1517 29.3259 24.4872 28.664C23.8228 28.002 22.9227 27.6303 21.9844 27.6303V27.6709Z" stroke="white" stroke-width="0.682909" mask="url(#path-2-outside-1_5288_652)"/>
</g>
<defs>
<clipPath id="clip0_5288_652">
<rect width="34.1455" height="34.1455" fill="white" transform="translate(10 9)"/>
</clipPath>
</defs>
</svg>
