<svg width="53" height="53" viewBox="0 0 53 53" fill="none" xmlns="http://www.w3.org/2000/svg">
<rect width="53" height="53" rx="20" fill="#5ABA87"/>
<path d="M25.9999 10.9077C24.6744 10.9077 23.5999 11.9822 23.5999 13.3077C23.5999 14.177 24.0621 14.9382 24.7538 15.3592V15.5231H17.923C15.323 15.5231 13.2153 17.6308 13.2153 20.2308V31.7692C13.2153 34.3383 15.2733 36.4269 17.8307 36.476V39.8462C17.8307 40.5344 18.3886 41.0923 19.0768 41.0923C19.7651 41.0923 20.323 40.5344 20.323 39.8462V36.4769H31.6768V39.8462C31.6768 40.5344 32.2348 41.0923 32.923 41.0923C33.6112 41.0923 34.1692 40.5344 34.1692 39.8462V36.476C36.7265 36.4269 38.7845 34.3383 38.7845 31.7692V20.2308C38.7845 17.6308 36.6768 15.5231 34.0768 15.5231H27.2461V15.3592C27.9377 14.9382 28.3999 14.177 28.3999 13.3077C28.3999 11.9822 27.3254 10.9077 25.9999 10.9077ZM34.0768 34.3692H32.923H19.0768H17.923C17.3153 34.3692 16.5741 34.0285 15.9816 33.5231C15.3877 33.0166 14.9686 32.3669 14.9686 31.7692V20.2308C14.9686 19.63 15.391 18.8954 15.9867 18.3043C16.5823 17.7132 17.3217 17.2949 17.923 17.2949H34.0768C34.6786 17.2949 35.4307 17.7137 36.0389 18.3049C36.6475 18.8965 37.0815 19.6309 37.0815 20.2308V31.7692C37.0815 32.3659 36.651 33.0155 36.0441 33.5225C35.4388 34.0282 34.6849 34.3692 34.0768 34.3692ZM31.8615 21.3846C31.8615 20.6964 31.3036 20.1385 30.6153 20.1385C29.9271 20.1385 29.3692 20.6964 29.3692 21.3846V23.6923C29.3692 24.3806 29.9271 24.9385 30.6153 24.9385C31.3036 24.9385 31.8615 24.3806 31.8615 23.6923V21.3846ZM22.6307 21.3846C22.6307 20.6964 22.0728 20.1385 21.3845 20.1385C20.6963 20.1385 20.1384 20.6964 20.1384 21.3846V23.6923C20.1384 24.3806 20.6963 24.9385 21.3845 24.9385C22.0728 24.9385 22.6307 24.3806 22.6307 23.6923V21.3846ZM22.6307 28.3077C22.6307 27.6194 22.0728 27.0615 21.3845 27.0615C20.6963 27.0615 20.1384 27.6194 20.1384 28.3077V29.4615C20.1384 30.7871 21.2129 31.8615 22.5384 31.8615H29.4615C30.787 31.8615 31.8615 30.7871 31.8615 29.4615V28.3077C31.8615 27.6194 31.3036 27.0615 30.6153 27.0615C29.9271 27.0615 29.3692 27.6194 29.3692 28.3077V29.3692H22.6307V28.3077Z" fill="white" stroke="white" stroke-width="0.184615"/>
</svg>
