<svg width="66" height="66" viewBox="0 0 66 66" fill="none" xmlns="http://www.w3.org/2000/svg">
<rect x="0.709059" y="0.709059" width="64.5819" height="64.5819" rx="19.2909" fill="#9AEEE7"/>
<rect x="0.709059" y="0.709059" width="64.5819" height="64.5819" rx="19.2909" stroke="white" stroke-width="1.41812"/>
<path d="M31.3328 18.8327C31.7931 18.8327 32.1662 18.4596 32.1662 17.9993C32.1662 17.5391 31.7931 17.166 31.3328 17.166C30.8726 17.166 30.4995 17.5391 30.4995 17.9993C30.4995 18.4596 30.8726 18.8327 31.3328 18.8327Z" fill="#22C4B6"/>
<path d="M37.5833 25.916V20.916C37.5833 20.4558 37.2106 20.0827 36.75 20.0827C36.2894 20.0827 35.9167 20.4558 35.9167 20.916V25.916C35.9167 26.3762 36.2894 26.7494 36.75 26.7494C37.2106 26.7494 37.5833 26.3762 37.5833 25.916ZM28.0439 26.6615C28.4565 26.867 28.9554 26.7005 29.1621 26.2888L29.3485 25.916H32.4848L32.6712 26.2888C32.8177 26.5809 33.1115 26.7498 33.4175 26.7494C33.5428 26.7494 33.6697 26.7213 33.7894 26.6615C34.2012 26.4556 34.368 25.9551 34.1621 25.5433L31.6621 20.5433C31.3789 19.9785 30.4544 19.9785 30.1712 20.5433L27.6712 25.5433C27.4653 25.9551 27.6321 26.4556 28.0439 26.6615ZM30.9167 22.7792L31.6516 24.2494H30.1817L30.9167 22.7792Z" fill="#22C4B6"/>
<path d="M47.1662 17.166C46.7079 17.166 46.3328 17.541 46.3328 17.9993V22.166C46.3328 22.6243 45.9578 22.9993 45.4995 22.9993H45.0828C45.0828 21.6243 43.9579 20.4993 42.5828 20.4993H41.7495C41.7495 18.6577 40.2579 17.166 38.4162 17.166H34.6662C34.2079 17.166 33.8328 17.541 33.8328 17.9993C33.8328 18.4577 34.2079 18.8327 34.6662 18.8327H38.4162C39.3328 18.8327 40.0828 19.5826 40.0828 20.4993V26.3327C40.0828 27.2493 39.3328 27.9993 38.4162 27.9993H27.5828C26.6662 27.9993 25.9162 27.2493 25.9162 26.3327V20.4993C25.9162 19.5826 26.6662 18.8327 27.5828 18.8327H27.9995C28.4578 18.8327 28.8328 18.4577 28.8328 17.9993C28.8328 17.541 28.4578 17.166 27.9995 17.166H27.5828C25.7412 17.166 24.2495 18.6577 24.2495 20.4993H23.4162C22.0412 20.4993 20.9162 21.6243 20.9162 22.9993H20.4995C20.0412 22.9993 19.6662 22.6243 19.6662 22.166V17.9993C19.6662 17.541 19.2912 17.166 18.8328 17.166C18.3745 17.166 17.9995 17.541 17.9995 17.9993V22.166C17.9995 23.541 19.1245 24.666 20.4995 24.666H20.9162C20.9162 26.041 22.0412 27.166 23.4162 27.166H24.3662C24.7412 28.5993 26.0329 29.666 27.5828 29.666H30.4995V32.166C25.4412 32.166 21.3328 36.2743 21.3328 41.3327V46.3327C21.3328 47.7076 22.4578 48.8327 23.8328 48.8327H42.1662C43.5412 48.8327 44.6662 47.7076 44.6662 46.3327V41.3327C44.6662 36.2743 40.5579 32.166 35.4995 32.166V29.666H38.4162C39.9662 29.666 41.2578 28.5993 41.6328 27.166H42.5828C43.9579 27.166 45.0828 26.041 45.0828 24.666H45.4995C46.8745 24.666 47.9995 23.541 47.9995 22.166V17.9993C47.9995 17.541 47.6245 17.166 47.1662 17.166ZM24.2495 25.4993H23.4162C22.9579 25.4993 22.5828 25.1243 22.5828 24.666V22.9993C22.5828 22.541 22.9579 22.166 23.4162 22.166H24.2495V25.4993ZM32.1662 29.666H33.8328V32.166H32.1662V29.666ZM42.9995 41.3327V46.3327C42.9995 46.791 42.6245 47.166 42.1662 47.166H23.8328C23.3745 47.166 22.9995 46.791 22.9995 46.3327V41.3327C22.9995 37.1993 26.3662 33.8327 30.4995 33.8327H35.4995C39.6329 33.8327 42.9995 37.1993 42.9995 41.3327ZM43.4162 24.666C43.4162 25.1243 43.0412 25.4993 42.5828 25.4993H41.7495V22.166H42.5828C43.0412 22.166 43.4162 22.541 43.4162 22.9993V24.666Z" fill="#22C4B6"/>
<path d="M39.6662 39.666H38.8328V37.9993C38.8328 37.541 38.4578 37.166 37.9995 37.166H37.1662V36.3327C37.1662 35.8743 36.7912 35.4993 36.3328 35.4993C35.8745 35.4993 35.4995 35.8743 35.4995 36.3327V37.166H33.8328V36.3327C33.8328 35.8743 33.4578 35.4993 32.9995 35.4993C32.5412 35.4993 32.1662 35.8743 32.1662 36.3327V37.166H30.4995V36.3327C30.4995 35.8743 30.1245 35.4993 29.6662 35.4993C29.2079 35.4993 28.8328 35.8743 28.8328 36.3327V37.166H27.9995C27.5412 37.166 27.1662 37.541 27.1662 37.9993V39.666H26.3328C25.8745 39.666 25.4995 40.041 25.4995 40.4993C25.4995 40.9577 25.8745 41.3327 26.3328 41.3327H27.1662V42.9993C27.1662 43.4577 27.5412 43.8327 27.9995 43.8327H28.8328V44.666C28.8328 45.1243 29.2079 45.4993 29.6662 45.4993C30.1245 45.4993 30.4995 45.1243 30.4995 44.666V43.8327H32.1662V44.666C32.1662 45.1243 32.5412 45.4993 32.9995 45.4993C33.4578 45.4993 33.8328 45.1243 33.8328 44.666V43.8327H35.4995V44.666C35.4995 45.1243 35.8745 45.4993 36.3328 45.4993C36.7912 45.4993 37.1662 45.1243 37.1662 44.666V43.8327H37.9995C38.4578 43.8327 38.8328 43.4577 38.8328 42.9993V41.3327H39.6662C40.1245 41.3327 40.4995 40.9577 40.4995 40.4993C40.4995 40.041 40.1245 39.666 39.6662 39.666ZM37.1662 42.166H28.8328V38.8327H37.1662V42.166Z" fill="#22C4B6"/>
</svg>
