<svg width="133" height="134" viewBox="0 0 133 134" fill="none" xmlns="http://www.w3.org/2000/svg">
<g opacity="0.7">
<mask id="path-1-inside-1_12529_34068" fill="white">
<path d="M7.53906 24.5352L105.939 0.00121854L130.473 98.4015L32.073 122.935L7.53906 24.5352Z"/>
</mask>
<path d="M7.53906 24.5352L105.939 0.00121854L130.473 98.4015L32.073 122.935L7.53906 24.5352Z" fill="#C9F5E1"/>
<path d="M105.939 0.00121854L107.88 -0.482625L107.396 -2.42322L105.455 -1.93937L105.939 0.00121854ZM8.02291 26.4757L106.423 1.94181L105.455 -1.93937L7.05522 22.5946L8.02291 26.4757ZM103.999 0.485062L128.533 98.8853L132.414 97.9176L107.88 -0.482625L103.999 0.485062Z" fill="#2DA771" mask="url(#path-1-inside-1_12529_34068)"/>
<g filter="url(#filter0_i_12529_34068)">
<path d="M2.1764 35.1431L7.53873 24.5344L32.4694 122.836L27.0082 133.048L2.1764 35.1431Z" fill="#2DA771"/>
</g>
<g filter="url(#filter1_i_12529_34068)">
<path d="M27.0078 133.047L32.4691 122.835L130.076 98.4989L124.516 108.314L27.0078 133.047Z" fill="#2DA771"/>
</g>
<path fill-rule="evenodd" clip-rule="evenodd" d="M62.0828 35.6691C59.8343 36.2298 58.4661 38.5069 59.0267 40.7554C59.4024 42.2623 60.5492 43.3738 61.9416 43.7744L62.0774 44.319L49.8639 47.3642C45.367 48.4854 42.6304 53.0397 43.7516 57.5366L48.8269 77.8925C49.9481 82.3893 54.5025 85.1259 58.9994 84.0047L60.522 90.1115C60.8023 91.2357 61.9409 91.9198 63.0651 91.6395C64.1893 91.3592 64.8734 90.2207 64.5931 89.0964L63.0705 82.9897L83.4264 77.9144L84.949 84.0211C85.2293 85.1454 86.3678 85.8295 87.4921 85.5492C88.6164 85.2689 89.3005 84.1303 89.0202 83.0061L87.4976 76.8993C91.9944 75.7781 94.731 71.2237 93.6098 66.7269L88.5345 46.371C87.4133 41.8741 82.8589 39.1376 78.3621 40.2588L66.1485 43.304L66.0128 42.7593C67.0541 41.752 67.5448 40.2322 67.1691 38.7253C66.6085 36.4768 64.3314 35.1085 62.0828 35.6691ZM86.6517 73.5067L84.6161 74.0142L60.1891 80.1046L58.1535 80.6121C55.905 81.1727 52.1549 79.451 51.5943 77.2025L46.519 56.8466C45.9584 54.5982 48.3136 50.7249 50.562 50.1643L79.0602 43.0589C81.3087 42.4982 85.2951 44.7905 85.8557 47.0389L90.931 67.3948C91.4916 69.6433 88.9002 72.9461 86.6517 73.5067ZM74.2854 49.9237C75.4097 49.6434 76.5482 50.3275 76.8285 51.4518L77.8436 55.5229C78.1239 56.6472 77.4398 57.7857 76.3155 58.0661C75.1913 58.3464 74.0527 57.6622 73.7724 56.538L72.7574 52.4668C72.4771 51.3426 73.1612 50.204 74.2854 49.9237ZM60.5438 55.512C60.2635 54.3877 59.125 53.7036 58.0007 53.9839C56.8765 54.2642 56.1924 55.4028 56.4727 56.5271L57.4877 60.5982C57.768 61.7225 58.9066 62.4066 60.0308 62.1263C61.1551 61.846 61.8392 60.7074 61.5589 59.5832L60.5438 55.512ZM63.589 67.7255C63.3087 66.6013 62.1702 65.9171 61.0459 66.1975C59.9216 66.4778 59.2375 67.6163 59.5178 68.7406L60.0254 70.7761C60.586 73.0247 62.8631 74.3929 65.1116 73.8323L77.3251 70.7871C79.5736 70.2265 80.9418 67.9494 80.3812 65.7009L79.8737 63.6653C79.5934 62.541 78.4548 61.8569 77.3306 62.1372C76.2063 62.4175 75.5222 63.5561 75.8025 64.6803L76.3101 66.7159L64.0965 69.7611L63.589 67.7255Z" fill="#2DA771"/>
</g>
<defs>
<filter id="filter0_i_12529_34068" x="2.17578" y="24.5352" width="30.293" height="109.512" filterUnits="userSpaceOnUse" color-interpolation-filters="sRGB">
<feFlood flood-opacity="0" result="BackgroundImageFix"/>
<feBlend mode="normal" in="SourceGraphic" in2="BackgroundImageFix" result="shape"/>
<feColorMatrix in="SourceAlpha" type="matrix" values="0 0 0 0 0 0 0 0 0 0 0 0 0 0 0 0 0 0 127 0" result="hardAlpha"/>
<feOffset dy="1"/>
<feGaussianBlur stdDeviation="2.25"/>
<feComposite in2="hardAlpha" operator="arithmetic" k2="-1" k3="1"/>
<feColorMatrix type="matrix" values="0 0 0 0 0 0 0 0 0 0 0 0 0 0 0 0 0 0 0.82 0"/>
<feBlend mode="normal" in2="shape" result="effect1_innerShadow_12529_34068"/>
</filter>
<filter id="filter1_i_12529_34068" x="27.0078" y="98.498" width="103.068" height="35.5488" filterUnits="userSpaceOnUse" color-interpolation-filters="sRGB">
<feFlood flood-opacity="0" result="BackgroundImageFix"/>
<feBlend mode="normal" in="SourceGraphic" in2="BackgroundImageFix" result="shape"/>
<feColorMatrix in="SourceAlpha" type="matrix" values="0 0 0 0 0 0 0 0 0 0 0 0 0 0 0 0 0 0 127 0" result="hardAlpha"/>
<feOffset dy="1"/>
<feGaussianBlur stdDeviation="2.25"/>
<feComposite in2="hardAlpha" operator="arithmetic" k2="-1" k3="1"/>
<feColorMatrix type="matrix" values="0 0 0 0 0 0 0 0 0 0 0 0 0 0 0 0 0 0 0.82 0"/>
<feBlend mode="normal" in2="shape" result="effect1_innerShadow_12529_34068"/>
</filter>
</defs>
</svg>
