<svg width="125" height="133" viewBox="0 0 125 133" fill="none" xmlns="http://www.w3.org/2000/svg">
<mask id="path-1-inside-1_12529_34067" fill="white">
<path d="M7.9082 21.7988L107.105 0.713958L122.969 100.878L23.7726 121.963L7.9082 21.7988Z"/>
</mask>
<path d="M7.9082 21.7988L107.105 0.713958L122.969 100.878L23.7726 121.963L7.9082 21.7988Z" fill="#C9F5E1"/>
<path d="M107.105 0.713958L109.061 0.298134L108.748 -1.67724L106.792 -1.26142L107.105 0.713958ZM8.22107 23.7742L107.418 2.68933L106.792 -1.26142L7.59533 19.8235L8.22107 23.7742ZM105.148 1.12978L121.013 101.294L124.925 100.462L109.061 0.298134L105.148 1.12978Z" fill="#2DA771" mask="url(#path-1-inside-1_12529_34067)"/>
<g filter="url(#filter0_i_12529_34067)">
<path d="M1.71592 32.2996L7.90833 21.7987L24.1727 121.878L17.9164 131.975L1.71592 32.2996Z" fill="#2DA771"/>
</g>
<g filter="url(#filter1_i_12529_34067)">
<path d="M17.916 131.975L24.1724 121.878L122.569 100.963L116.249 110.656L17.916 131.975Z" fill="#2DA771"/>
</g>
<path fill-rule="evenodd" clip-rule="evenodd" d="M80.774 49.2724C84.3945 51.152 87.1244 54.7403 87.8444 59.2861C88.4733 63.2567 87.4444 67.3784 85.0382 70.6372C84.8214 70.9304 84.7399 71.332 84.8212 71.7106L86.1771 78.1212L82.9456 76.4495C81.2651 75.5781 79.3877 75.3938 77.6145 75.9286C77.5995 75.9317 77.5905 75.936 77.5759 75.9413C77.2148 76.0684 76.8428 76.1635 76.4683 76.2431C75.579 76.4321 74.6963 76.5283 73.8309 76.5383C73.2689 76.5457 72.8242 77.0863 72.8308 77.7507C72.8426 78.4116 73.3044 78.9448 73.8645 78.9379C74.8439 78.9265 75.8369 78.8183 76.8405 78.605C77.2842 78.5107 77.7267 78.3961 78.1556 78.2454C79.4771 77.8524 80.8812 77.9932 82.1421 78.6472L87.2584 81.2956C87.6126 81.4788 88.0254 81.4094 88.3198 81.118C88.614 80.8244 88.7414 80.3581 88.6462 79.9162L86.9175 71.7387C89.4972 67.9875 90.551 63.3369 89.8422 58.8614C88.9974 53.5274 85.8269 49.2847 81.5762 47.0795C81.0634 46.811 80.4627 47.0874 80.2431 47.6923C80.0197 48.2979 80.2559 49.0073 80.7724 49.275L80.774 49.2724ZM80.8967 54.5196C79.069 42.9798 68.6574 35.4309 57.604 37.7804C46.5505 40.1299 39.1286 51.4694 40.9563 63.0092C41.8699 68.7771 44.9994 73.8128 49.6172 76.931L50.7913 87.9602C50.8419 88.4139 51.1035 88.7952 51.4684 88.9487C51.8334 89.1022 52.2406 88.9974 52.5151 88.6782L57.4583 82.9742C58.8934 81.3194 60.7511 80.2679 62.7444 79.9861C63.2578 79.941 63.7552 79.8558 64.2495 79.7508C75.3029 77.4013 82.7245 66.0595 80.8972 54.522L80.8967 54.5196ZM78.899 54.9442C80.5337 65.2647 73.7666 75.2867 63.8754 77.3891C63.441 77.4814 63.0098 77.5571 62.5708 77.5955C62.5555 77.5965 62.5402 77.5974 62.5252 77.6006C60.0711 77.9415 57.7914 79.2245 56.0289 81.2555L52.552 85.2683L51.57 76.0378C51.5296 75.6483 51.3306 75.3086 51.0381 75.1237C46.7322 72.3991 43.7875 67.8476 42.9539 62.5845C41.3193 52.264 48.0921 42.2408 57.9775 40.1396C67.8668 38.0376 77.2662 44.6232 78.9008 54.9437L78.899 54.9442ZM56.6441 61.3516C56.4267 60.9197 56.0035 60.6916 55.5841 60.7808C55.1704 60.8687 54.8447 61.2559 54.7719 61.7496L54.1849 65.8024L51.1929 67.8911C50.8252 68.1477 50.6365 68.6431 50.7147 69.1366C50.7929 69.6302 51.1232 70.0175 51.5434 70.1044L54.9806 70.8265L56.7714 74.374C56.9888 74.8059 57.412 75.034 57.8276 74.9456C58.247 74.8565 58.5727 74.4692 58.6436 73.976L59.2306 69.9231L62.2226 67.8344C62.5847 67.579 62.7752 67.0833 62.697 66.5897C62.6189 66.0962 62.2885 65.7088 61.8721 65.6212L58.4349 64.899L56.6441 61.3516ZM56.3098 65.3622L56.9321 66.5912C57.0825 66.8932 57.3381 67.1019 57.6323 67.163L58.8234 67.4131L57.7865 68.1368C57.5302 68.3149 57.3571 68.6147 57.3072 68.9594L57.102 70.3642L56.4834 69.1345C56.333 68.8324 56.0718 68.6249 55.7832 68.5627L54.594 68.3121L55.6308 67.5884C55.8815 67.4116 56.0602 67.1105 56.1102 66.7659L56.3098 65.3622ZM63.1875 44.0994C62.9682 43.6679 62.5451 43.4398 62.1257 43.529C61.7063 43.6181 61.3806 44.0054 61.3097 44.4986L60.1233 52.6848L54.082 56.9041C53.7162 57.1603 53.5261 57.6583 53.6042 58.1518C53.6824 58.6454 54.0128 59.0327 54.4329 59.1196L61.3737 60.5794L64.9915 67.7445C65.2093 68.1787 65.6324 68.4067 66.0518 68.3176C66.4712 68.2284 66.7969 67.8412 66.8678 67.348L68.0542 59.1618L74.0955 54.9424C74.4632 54.6858 74.6515 54.1883 74.5733 53.6947C74.4951 53.2012 74.1666 52.8135 73.7446 52.727L66.8038 51.2671L63.186 44.102L63.1875 44.0994ZM62.8532 48.1101L65.3025 52.9566C65.4529 53.2586 65.7086 53.4674 66.0027 53.5284L70.6996 54.5181L66.6098 57.3732C66.3535 57.5512 66.1804 57.8511 66.1304 58.1958L65.3262 63.7361L62.8768 58.8896C62.7264 58.5876 62.4708 58.3788 62.1767 58.3178L57.4797 57.3281L61.5696 54.473C61.8259 54.295 61.999 53.9951 62.049 53.6504L62.8532 48.1101ZM52.7955 49.7835L51.7976 49.9956C51.2491 50.1122 50.8835 50.7367 50.9866 51.3873C51.0896 52.038 51.6227 52.4715 52.1713 52.3549L53.1692 52.1428L53.356 53.3224C53.4591 53.9731 53.9922 54.4066 54.5407 54.29C55.0893 54.1734 55.4548 53.5489 55.3518 52.8982L55.1649 51.7186L56.1628 51.5065C56.7114 51.3899 57.0769 50.7654 56.9739 50.1147C56.8708 49.464 56.3377 49.0306 55.7892 49.1472L54.7913 49.3593L54.6044 48.1796C54.5014 47.5289 53.9683 47.0955 53.4197 47.2121C52.8712 47.3287 52.5056 47.9531 52.6087 48.6038L52.7955 49.7835Z" fill="#2DA771"/>
<defs>
<filter id="filter0_i_12529_34067" x="1.7168" y="21.7988" width="22.4551" height="111.176" filterUnits="userSpaceOnUse" color-interpolation-filters="sRGB">
<feFlood flood-opacity="0" result="BackgroundImageFix"/>
<feBlend mode="normal" in="SourceGraphic" in2="BackgroundImageFix" result="shape"/>
<feColorMatrix in="SourceAlpha" type="matrix" values="0 0 0 0 0 0 0 0 0 0 0 0 0 0 0 0 0 0 127 0" result="hardAlpha"/>
<feOffset dy="1"/>
<feGaussianBlur stdDeviation="2.25"/>
<feComposite in2="hardAlpha" operator="arithmetic" k2="-1" k3="1"/>
<feColorMatrix type="matrix" values="0 0 0 0 0 0 0 0 0 0 0 0 0 0 0 0 0 0 0.82 0"/>
<feBlend mode="normal" in2="shape" result="effect1_innerShadow_12529_34067"/>
</filter>
<filter id="filter1_i_12529_34067" x="17.916" y="100.963" width="104.653" height="32.0117" filterUnits="userSpaceOnUse" color-interpolation-filters="sRGB">
<feFlood flood-opacity="0" result="BackgroundImageFix"/>
<feBlend mode="normal" in="SourceGraphic" in2="BackgroundImageFix" result="shape"/>
<feColorMatrix in="SourceAlpha" type="matrix" values="0 0 0 0 0 0 0 0 0 0 0 0 0 0 0 0 0 0 127 0" result="hardAlpha"/>
<feOffset dy="1"/>
<feGaussianBlur stdDeviation="2.25"/>
<feComposite in2="hardAlpha" operator="arithmetic" k2="-1" k3="1"/>
<feColorMatrix type="matrix" values="0 0 0 0 0 0 0 0 0 0 0 0 0 0 0 0 0 0 0.82 0"/>
<feBlend mode="normal" in2="shape" result="effect1_innerShadow_12529_34067"/>
</filter>
</defs>
</svg>
