<svg width="133" height="108" viewBox="0 0 133 108" fill="none" xmlns="http://www.w3.org/2000/svg">
<mask id="path-1-inside-1_12529_33960" fill="white">
<path d="M124.283 0.00976562L22.8706 0.000915703L1.7857 99.1974L103.198 99.2063L124.283 0.00976562Z"/>
</mask>
<path d="M124.283 0.00976562L22.8706 0.000915703L1.7857 99.1974L103.198 99.2063L124.283 0.00976562Z" fill="#C9F5E1"/>
<path d="M22.8706 0.000915703L20.8706 0.00074117L21.2864 -1.95555L23.2864 -1.95538L22.8706 0.000915703ZM123.867 1.96606L22.4547 1.95721L23.2864 -1.95538L124.699 -1.94653L123.867 1.96606ZM24.8706 0.00109024L3.7857 99.1976L-0.214303 99.1973L20.8706 0.00074117L24.8706 0.00109024Z" fill="#2DA771" mask="url(#path-1-inside-1_12529_33960)"/>
<path d="M78.3078 59.0302L76.3934 56.6735C76.7659 56.145 77.1102 55.6024 77.4245 55.0482L80.8406 55.0485C81.1682 55.0485 81.5095 54.9212 81.7894 54.6946C82.0693 54.468 82.2648 54.1607 82.3329 53.8402L84.0488 45.7677C84.1169 45.4472 84.0521 45.1398 83.8685 44.9131C83.685 44.6865 83.3978 44.5591 83.0702 44.5591L79.6541 44.5588C79.5754 44.0046 79.4618 43.4619 79.3139 42.9334L82.2301 40.5771C82.3689 40.4649 82.4883 40.3316 82.5817 40.1849C82.675 40.0382 82.7405 39.8809 82.7742 39.7221C82.808 39.5633 82.8094 39.4061 82.7784 39.2594C82.7474 39.1127 82.6846 38.9794 82.5936 38.8671L77.9698 33.1567C77.8781 33.0446 77.7601 32.956 77.6223 32.8959C77.4846 32.8357 77.3299 32.8052 77.1671 32.8061C76.8409 32.8058 76.501 32.9318 76.2216 33.1565L73.3103 35.5188C72.8234 35.2653 72.3162 35.0414 71.7912 34.848L72.5014 31.5066C72.5695 31.1861 72.5047 30.8787 72.3212 30.6521C72.1377 30.4254 71.8505 30.2981 71.5228 30.298L63.27 30.2973C62.9423 30.2973 62.601 30.4246 62.3212 30.6512C62.0413 30.8778 61.8458 31.1852 61.7777 31.5057L61.0674 34.8471C60.4602 35.0403 59.8578 35.2642 59.2632 35.5176L57.3562 33.1549C57.1664 32.9364 56.8795 32.8147 56.5544 32.8147C56.2294 32.8146 55.8907 32.9363 55.6081 33.1547L48.5568 38.8642C48.4181 38.9764 48.2987 39.1096 48.2053 39.2563C48.112 39.403 48.0465 39.5603 48.0128 39.7191C47.979 39.8779 47.9776 40.0352 48.0086 40.1819C48.0396 40.3286 48.1024 40.4619 48.1934 40.5741L50.1078 42.9308C49.7353 43.4593 49.391 44.002 49.0766 44.5561L45.6606 44.5558C45.333 44.5558 44.9916 44.6831 44.7118 44.9097C44.4319 45.1363 44.2364 45.4437 44.1683 45.7642L42.4524 53.8367C42.3843 54.1572 42.4491 54.4646 42.6327 54.6912C42.8162 54.9179 43.1034 55.0452 43.431 55.0452L46.8471 55.0455C46.9258 55.5997 47.0394 56.1425 47.1873 56.671L44.2711 59.0272C44.1323 59.1395 44.0129 59.2727 43.9195 59.4194C43.8262 59.5661 43.7607 59.7234 43.727 59.8822C43.6932 60.041 43.6918 60.1983 43.7228 60.345C43.7538 60.4917 43.8166 60.625 43.9076 60.7372L48.5314 66.4477C48.6231 66.5597 48.7411 66.6483 48.8789 66.7085C49.0166 66.7686 49.1713 66.7991 49.3341 66.7982C49.6603 66.7985 50.0002 66.6725 50.2796 66.4478L53.1909 64.0855C53.6778 64.339 54.1849 64.563 54.71 64.7564L53.9998 68.0977C53.9317 68.4182 53.9965 68.7256 54.18 68.9523C54.3635 69.1789 54.6507 69.3063 54.9784 69.3063L63.2312 69.307C63.5589 69.307 63.9002 69.1798 64.18 68.9531C64.4599 68.7265 64.6554 68.4192 64.7235 68.0987L65.4338 64.7573C66.041 64.564 66.6433 64.3402 67.238 64.0867L69.145 66.4495C69.3348 66.6679 69.6217 66.7896 69.9468 66.7897C70.2718 66.7897 70.6105 66.668 70.8931 66.4496L77.9443 60.7402C78.0831 60.628 78.2025 60.4947 78.2959 60.348C78.3892 60.2013 78.4547 60.044 78.4884 59.8852C78.5222 59.7264 78.5236 59.5692 78.4926 59.4225C78.4616 59.2757 78.3988 59.1425 78.3078 59.0302ZM70.5657 63.8635L68.8433 61.7364C68.6927 61.5518 68.472 61.4326 68.2145 61.3966C67.957 61.3606 67.6766 61.4098 67.4155 61.5369C66.4015 62.0286 65.3551 62.4177 64.2965 62.6967C64.0234 62.7688 63.7643 62.921 63.5582 63.1303C63.3521 63.3395 63.2103 63.5945 63.1542 63.8568L62.5121 66.8779L56.7301 66.8774L57.3723 63.8563C57.4276 63.594 57.3943 63.339 57.2772 63.1297C57.1601 62.9204 56.9656 62.7682 56.7232 62.6961C55.7832 62.4168 54.9023 62.0276 54.0973 61.5357C53.8903 61.4086 53.6308 61.3594 53.358 61.3953C53.0853 61.4312 52.8139 61.5504 52.5848 61.735L49.9544 63.8798L46.7153 59.8794L49.3418 57.7527C49.5699 57.567 49.743 57.3264 49.8349 57.067C49.9267 56.8077 49.9325 56.5437 49.8513 56.3147C49.5364 55.4255 49.3388 54.4828 49.2625 53.5049C49.2423 53.2528 49.1339 53.0309 48.9536 52.8729C48.7732 52.7148 48.5307 52.6291 48.2627 52.6287L45.174 52.6284L46.3762 46.9729L49.4648 46.9731C49.733 46.9728 50.0119 46.8871 50.2595 46.7291C50.507 46.5711 50.7097 46.3492 50.8371 46.0971C51.3291 45.1193 51.9274 44.1766 52.6203 43.2875C52.7989 43.0586 52.9053 42.7946 52.9237 42.5352C52.942 42.2759 52.8713 42.0352 52.7221 41.8495L50.9998 39.7224L55.9394 35.7228L57.6617 37.8498C57.8124 38.0344 58.0331 38.1536 58.2906 38.1896C58.5481 38.2256 58.8284 38.1764 59.0895 38.0493C60.1036 37.5577 61.1499 37.1685 62.2085 36.8895C62.4816 36.8174 62.7408 36.6652 62.9468 36.456C63.1529 36.2467 63.2947 35.9917 63.3508 35.7294L63.993 32.7083L69.7749 32.7088L69.1328 35.7299C69.0774 35.9922 69.1108 36.2472 69.2279 36.4565C69.345 36.6658 69.5394 36.818 69.7819 36.8901C70.7218 37.1694 71.6027 37.5587 72.4077 38.0505C72.6148 38.1776 72.8742 38.2268 73.147 38.1909C73.4198 38.155 73.6912 38.0358 73.9203 37.8512L76.5468 35.7246L79.7859 39.7249L77.1594 41.8516C76.9313 42.0373 76.7582 42.278 76.6663 42.5373C76.5744 42.7967 76.5687 43.0607 76.6499 43.2896C76.9648 44.1788 77.1624 45.1215 77.2387 46.0994C77.2589 46.3515 77.3673 46.5734 77.5476 46.7315C77.728 46.8895 77.9705 46.9752 78.2385 46.9756L81.3272 46.9759L80.125 52.6315L77.0364 52.6312C76.7682 52.6316 76.4893 52.7172 76.2417 52.8753C75.9942 53.0333 75.7915 53.2551 75.6641 53.5072C75.1721 54.485 74.5737 55.4277 73.8809 56.3168C73.7023 56.5457 73.5959 56.8097 73.5775 57.0691C73.5591 57.3284 73.6299 57.5691 73.7791 57.7549L75.5014 59.882L70.5657 63.8635ZM65.6073 38.7146C63.3654 38.7144 61.0356 39.3645 58.9126 40.5826C56.7896 41.8008 54.9686 43.5323 53.68 45.5582C52.3915 47.5841 51.6931 49.8135 51.6733 51.9643C51.6535 54.1151 52.3132 56.0908 53.5689 57.6416C54.8245 59.1923 56.6198 60.2485 58.7277 60.6765C60.8356 61.1045 63.1615 60.8852 65.4111 60.0461C67.6607 59.2071 69.7331 57.7862 71.3662 55.9629C72.9993 54.1397 74.1198 51.9961 74.5859 49.8032C75.2075 46.8635 74.6112 44.0451 72.928 41.9663C71.2447 39.8875 68.612 38.718 65.6073 38.7146ZM61.4076 58.4728C59.6544 58.4727 58.0486 57.964 56.7934 57.0111C55.5382 56.0583 54.6898 54.704 54.3557 53.1196C54.0215 51.5352 54.2165 49.7918 54.9161 48.1098C55.6156 46.4279 56.7883 44.883 58.2857 43.6705C59.7832 42.458 61.5382 41.6324 63.3288 41.2979C65.1195 40.9635 66.8653 41.1354 68.3456 41.7918C69.8258 42.4482 70.974 43.5597 71.645 44.9856C72.3159 46.4116 72.4795 48.088 72.115 49.8029C71.6231 52.1016 70.2198 54.3051 68.2126 55.9303C66.2054 57.5555 63.7582 58.4699 61.4076 58.4728ZM92.2838 49.8047C93.3794 44.6487 93.0194 39.5899 91.2421 35.1709C89.4649 30.752 86.3376 27.1398 82.1957 24.7217C78.0538 22.3036 73.0536 21.1709 67.7314 21.4451C62.4093 21.7193 56.9661 23.39 51.9857 26.2781C51.1064 25.4596 49.8923 25.0181 48.5452 25.0271C47.4131 25.0253 46.2369 25.3397 45.1547 25.9334C44.0725 26.5271 43.1293 27.3754 42.436 28.3786C41.7427 29.3818 41.328 30.4983 41.2408 31.5967C41.1536 32.6951 41.3973 33.7299 41.9435 34.5795C37.2057 40.0619 34.2797 46.5774 33.6544 53.0378C33.0291 59.4981 34.7423 65.5121 38.5078 70.075C42.2733 74.6379 47.8631 77.4735 54.3435 78.1082C60.8239 78.7428 67.8024 77.138 74.1133 73.5618C75.0598 74.4801 76.4103 74.9498 77.9016 74.8794C79.3929 74.809 80.9182 74.2035 82.1803 73.1809C83.4425 72.1583 84.3511 70.7918 84.729 69.3477C85.107 67.9037 84.9274 66.4854 84.225 65.3692C88.3167 60.7491 91.1192 55.3364 92.2838 49.8047ZM48.0624 27.444C48.9864 27.4441 49.7962 27.8032 50.3138 28.4423C50.8313 29.0815 51.0141 29.9483 50.822 30.8521C50.6299 31.756 50.0786 32.6227 49.2894 33.2618C48.5001 33.9008 47.5377 34.2598 46.6137 34.2597C45.6922 34.2548 44.8855 33.8942 44.3688 33.2561C43.8521 32.6179 43.6671 31.7539 43.854 30.8515C44.0477 29.9482 44.5993 29.0824 45.3881 28.4437C46.1769 27.805 47.1385 27.4455 48.0624 27.444ZM57.728 75.784C52.991 75.7842 48.6033 74.5455 45.0197 72.196C41.436 69.8466 38.7868 66.472 37.3465 62.4218C35.9062 58.3717 35.7273 53.7935 36.8282 49.1615C37.9291 44.5296 40.2699 40.0124 43.6079 36.0782L43.6697 36.0782C43.8328 36.168 44.0038 36.2467 44.1817 36.3139C44.3542 36.3743 44.528 36.4287 44.7092 36.4771L44.8806 36.5133C45.0229 36.5416 45.166 36.5657 45.31 36.5859L45.4891 36.5859C45.6889 36.6103 45.8926 36.6224 46.0991 36.6222C47.6783 36.6208 49.3226 36.0067 50.6711 34.9148C52.0196 33.8229 52.9622 32.3423 53.2921 30.798C53.3371 30.5865 53.382 30.375 53.3899 30.1635C53.4027 30.1031 53.4156 30.0427 53.4284 29.9823C53.4371 29.8252 53.4396 29.6681 53.4359 29.511L53.4348 29.3418C53.4216 29.1424 53.4022 28.943 53.3718 28.7375L53.3514 28.659C53.3194 28.4898 53.2751 28.3206 53.2295 28.1574L53.2078 28.0849C58.9978 24.7714 65.4143 23.2744 71.3756 23.8463C77.3369 24.4183 82.4785 27.0243 85.9334 31.2248C89.3884 35.4254 90.9455 40.9638 90.3421 46.9061C89.7388 52.8485 87.012 58.8315 82.6214 63.8464L82.5472 63.8464C82.3968 63.7621 82.2394 63.6874 82.0759 63.6228L82.0203 63.6228C81.8329 63.5526 81.6391 63.4941 81.4398 63.4475L81.2758 63.4052C81.1214 63.4052 80.9798 63.3447 80.8292 63.3266L80.6501 63.3266C80.4501 63.3029 80.2464 63.2908 80.0401 63.2903C78.4609 63.2917 76.8166 63.9058 75.4681 64.9977C74.1196 66.0896 73.177 67.5702 72.8471 69.1145C72.8042 69.3164 72.7737 69.5182 72.7557 69.7187C72.7429 69.7792 72.73 69.8396 72.7172 69.9C72.6851 70.0511 72.7024 70.2021 72.7012 70.3532C72.7005 70.4103 72.703 70.4667 72.7084 70.5224C72.7114 70.7273 72.7283 70.9291 72.7591 71.1266C72.7516 71.1507 72.7464 71.175 72.7437 71.1991C72.7701 71.3664 72.8076 71.5298 72.8559 71.6886C72.8599 71.7158 72.8667 71.7421 72.8763 71.7671C68.0396 74.4164 62.7821 75.8105 57.728 75.784ZM78.0992 72.4504C77.2076 72.4132 76.4374 72.0376 75.9495 71.402C75.4616 70.7663 75.2937 69.9198 75.4808 69.0392C75.668 68.1586 76.1958 67.3122 76.9539 66.6766C77.712 66.0411 78.6419 65.6656 79.5492 65.6286C80.3707 65.6298 81.1061 65.912 81.6282 66.4264C82.0869 66.8758 82.3568 67.4818 82.4007 68.1614C82.4447 68.841 82.2606 69.561 81.8738 70.2226C81.4869 70.8843 80.9161 71.4553 80.2397 71.8573C79.5633 72.2594 78.8143 72.4729 78.0953 72.4685L78.0992 72.4504ZM69.9871 45.5731C70.0782 45.6853 70.141 45.8186 70.1719 45.9653C70.2029 46.112 70.2015 46.2693 70.1678 46.4281C70.134 46.5869 70.0686 46.7442 69.9752 46.8909C69.8819 47.0376 69.7624 47.1708 69.6237 47.283L61.3076 54.0317C61.169 54.144 61.0138 54.2331 60.8509 54.2939C60.688 54.3547 60.5205 54.386 60.3582 54.386C60.1958 54.386 60.0417 54.3547 59.9047 54.2939C59.7676 54.233 59.6503 54.1439 59.5594 54.0315L57.1485 51.0464C56.9649 50.8196 56.9 50.512 56.9682 50.1914C57.0363 49.8707 57.2319 49.5631 57.512 49.3364C57.792 49.1097 58.1335 48.9823 58.4613 48.9823C58.7892 48.9824 59.0765 49.1098 59.2601 49.3366L60.9763 51.4636L68.239 45.5729C68.3776 45.4606 68.5328 45.3715 68.6957 45.3107C68.8586 45.2499 69.026 45.2186 69.1884 45.2186C69.3508 45.2186 69.5049 45.2499 69.6419 45.3107C69.779 45.3716 69.8963 45.4607 69.9871 45.5731Z" fill="#2DA771" stroke="#2DA771" stroke-width="0.343182"/>
<g filter="url(#filter0_i_12529_33960)">
<path d="M130.181 8.80946L124.282 0.00908761L102.788 99.2056L108.773 107.606L130.181 8.80946Z" fill="#2DA771"/>
</g>
<g filter="url(#filter1_i_12529_33960)">
<path d="M108.772 107.605L102.788 99.2051L2.19356 99.1963L8.26269 107.197L108.772 107.605Z" fill="#2DA771"/>
</g>
<defs>
<filter id="filter0_i_12529_33960" x="102.788" y="0.00976562" width="27.3936" height="108.596" filterUnits="userSpaceOnUse" color-interpolation-filters="sRGB">
<feFlood flood-opacity="0" result="BackgroundImageFix"/>
<feBlend mode="normal" in="SourceGraphic" in2="BackgroundImageFix" result="shape"/>
<feColorMatrix in="SourceAlpha" type="matrix" values="0 0 0 0 0 0 0 0 0 0 0 0 0 0 0 0 0 0 127 0" result="hardAlpha"/>
<feOffset dy="1"/>
<feGaussianBlur stdDeviation="2.25"/>
<feComposite in2="hardAlpha" operator="arithmetic" k2="-1" k3="1"/>
<feColorMatrix type="matrix" values="0 0 0 0 0 0 0 0 0 0 0 0 0 0 0 0 0 0 0.82 0"/>
<feBlend mode="normal" in2="shape" result="effect1_innerShadow_12529_33960"/>
</filter>
<filter id="filter1_i_12529_33960" x="2.19336" y="99.1973" width="106.579" height="9.4082" filterUnits="userSpaceOnUse" color-interpolation-filters="sRGB">
<feFlood flood-opacity="0" result="BackgroundImageFix"/>
<feBlend mode="normal" in="SourceGraphic" in2="BackgroundImageFix" result="shape"/>
<feColorMatrix in="SourceAlpha" type="matrix" values="0 0 0 0 0 0 0 0 0 0 0 0 0 0 0 0 0 0 127 0" result="hardAlpha"/>
<feOffset dy="1"/>
<feGaussianBlur stdDeviation="2.25"/>
<feComposite in2="hardAlpha" operator="arithmetic" k2="-1" k3="1"/>
<feColorMatrix type="matrix" values="0 0 0 0 0 0 0 0 0 0 0 0 0 0 0 0 0 0 0.82 0"/>
<feBlend mode="normal" in2="shape" result="effect1_innerShadow_12529_33960"/>
</filter>
</defs>
</svg>
