<svg xmlns="http://www.w3.org/2000/svg" viewBox="0 0 32 32" id="AddNew"><switch><g fill="#0B6515" class="color000000 svgShape"><path d="M28 2H7c-.6 0-1 .4-1 1v3H3c-.6 0-1 .4-1 1v21c0 .6.4 1 1 1h21c.6 0 1-.4 1-1v-3h3c.6 0 1-.4 1-1V3c0-.6-.4-1-1-1zm-5 25H4V8h19v19zm4-4h-2V7c0-.6-.4-1-1-1H8V4h19v19z" fill="#0B6515" class="color000000 svgShape"></path><path d="M18 17h-4v-4c0-.6-.4-1-1-1s-1 .4-1 1v4H8c-.6 0-1 .4-1 1s.4 1 1 1h4v4c0 .6.4 1 1 1s1-.4 1-1v-4h4c.6 0 1-.4 1-1s-.4-1-1-1z" fill="#0B6515" class="color000000 svgShape"></path></g></switch></svg>