 <svg
                  width="75"
                  height="75"
                  viewBox="0 0 75 75"
                  fill="none"
                  xmlns="http://www.w3.org/2000/svg"
                >
                  <path
                    d="M61.8573 45.0181C44.477 50.7602 38.6894 56.549 32.9471 73.9284C32.4746 75.3572 30.4543 75.3572 29.9819 73.9284C24.2398 56.548 18.451 50.7604 1.0716 45.0181C-0.3572 44.5457 -0.3572 42.5253 1.0716 42.0529C18.452 36.3108 24.2396 30.522 29.9819 13.1426C30.4543 11.7138 32.4747 11.7138 32.9471 13.1426C38.6892 30.523 44.4779 36.3106 61.8573 42.0529C63.2861 42.5254 63.2861 44.5457 61.8573 45.0181Z"
                    fill=""
                    stroke="#034737"
                  />
                  <path
                    d="M74.464 16.4755C65.7759 19.3447 62.88 22.2407 60.0069 30.9326C59.7726 31.647 58.7624 31.647 58.5243 30.9326C55.6551 22.2445 52.759 19.3486 44.0672 16.4755C43.3528 16.2412 43.3528 15.2311 44.0672 14.9929C52.7553 12.1237 55.6512 9.22767 58.5243 0.535807C58.7586 -0.178602 59.7687 -0.178602 60.0069 0.535807C62.8761 9.22394 65.7721 12.1198 74.464 14.9929C75.1784 15.2272 75.1784 16.2374 74.464 16.4755Z"
                    fill=""
                     stroke="#034737"
                  />
                </svg>