<svg width="333" height="222" viewBox="0 0 333 222" fill="none" xmlns="http://www.w3.org/2000/svg">
<g filter="url(#filter0_dddddd_5828_44540)">
<rect x="70.2051" width="192.173" height="64.0577" rx="11.0099" fill="black"/>
<path d="M200.764 30.7471V34.416H198.464V36.8221H200.764V44.9974C200.764 47.789 202.026 48.9056 205.203 48.9056C205.762 48.9056 206.294 48.8392 206.759 48.7594V46.3799C206.36 46.4198 206.107 46.4464 205.669 46.4464C204.246 46.4464 203.622 45.7817 203.622 44.2663V36.8221H206.759V34.416H203.622V30.7471H200.764Z" fill="white"/>
<path d="M214.852 49.105C219.079 49.105 221.672 46.2736 221.672 41.581C221.672 36.9151 219.066 34.0704 214.852 34.0704C210.625 34.0704 208.02 36.9151 208.02 41.581C208.02 46.2736 210.612 49.105 214.852 49.105ZM214.852 46.566C212.366 46.566 210.971 44.7448 210.971 41.581C210.971 38.4438 212.366 36.6094 214.852 36.6094C217.325 36.6094 218.734 38.4438 218.734 41.581C218.734 44.7315 217.325 46.566 214.852 46.566Z" fill="white"/>
<path d="M223.889 48.8259H226.748V40.2783C226.748 38.2444 228.276 36.8752 230.443 36.8752C230.948 36.8752 231.799 36.9683 232.038 37.0481V34.2299C231.732 34.1501 231.187 34.1103 230.762 34.1103C228.874 34.1103 227.266 35.1471 226.854 36.5695H226.641V34.3495H223.889V48.8259Z" fill="white"/>
<path d="M239.135 36.503C241.248 36.503 242.631 37.9786 242.697 40.2517H235.386C235.546 37.9919 237.021 36.503 239.135 36.503ZM242.684 44.9177C242.152 46.0476 240.969 46.6724 239.241 46.6724C236.955 46.6724 235.479 45.0639 235.386 42.5249V42.3654H245.608V41.3684C245.608 36.8221 243.176 34.0704 239.148 34.0704C235.067 34.0704 232.475 37.0082 232.475 41.6342C232.475 46.2603 235.014 49.105 239.161 49.105C242.471 49.105 244.784 47.5098 245.436 44.9177H242.684Z" fill="white"/>
<path d="M182.021 43.48C182.241 47.0347 185.204 49.3081 189.613 49.3081C194.325 49.3081 197.273 46.9245 197.273 43.1218C197.273 40.1319 195.592 38.4786 191.514 37.5279L189.323 36.9905C186.733 36.3843 185.686 35.5714 185.686 34.1522C185.686 32.3611 187.312 31.19 189.75 31.19C192.065 31.19 193.663 32.3335 193.953 34.166H196.956C196.777 30.818 193.829 28.4619 189.792 28.4619C185.452 28.4619 182.558 30.818 182.558 34.3589C182.558 37.2799 184.198 39.0159 187.794 39.8564L190.357 40.4764C192.988 41.0964 194.146 42.0057 194.146 43.5213C194.146 45.2849 192.327 46.5663 189.847 46.5663C187.188 46.5663 185.341 45.3676 185.08 43.48H182.021Z" fill="white"/>
<path d="M152.414 34.1103C150.447 34.1103 148.746 35.094 147.868 36.7423H147.656V34.3495H144.904V53.638H147.762V46.6325H147.988C148.746 48.1612 150.381 49.0651 152.441 49.0651C156.097 49.0651 158.423 46.1805 158.423 41.581C158.423 36.9816 156.097 34.1103 152.414 34.1103ZM151.604 46.4995C149.211 46.4995 147.709 44.6119 147.709 41.5943C147.709 38.5635 149.211 36.6758 151.617 36.6758C154.036 36.6758 155.485 38.5236 155.485 41.581C155.485 44.6518 154.036 46.4995 151.604 46.4995Z" fill="white"/>
<path d="M168.424 34.1103C166.456 34.1103 164.755 35.094 163.877 36.7423H163.665V34.3495H160.913V53.638H163.771V46.6325H163.997C164.755 48.1612 166.39 49.0651 168.45 49.0651C172.106 49.0651 174.432 46.1805 174.432 41.581C174.432 36.9816 172.106 34.1103 168.424 34.1103ZM167.613 46.4995C165.22 46.4995 163.718 44.6119 163.718 41.5943C163.718 38.5635 165.22 36.6758 167.626 36.6758C170.046 36.6758 171.495 38.5236 171.495 41.581C171.495 44.6518 170.046 46.4995 167.613 46.4995Z" fill="white"/>
<path d="M139.776 48.8259H143.055L135.877 28.9441H132.556L125.378 48.8259H128.547L130.379 43.5489H137.957L139.776 48.8259ZM134.058 32.554H134.292L137.172 40.9586H131.165L134.058 32.554Z" fill="white"/>
<path d="M127.297 13.9504V23.5415H130.76C133.618 23.5415 135.273 21.7801 135.273 18.716C135.273 15.6985 133.605 13.9504 130.76 13.9504H127.297ZM128.786 15.3063H130.594C132.581 15.3063 133.757 16.5692 133.757 18.736C133.757 20.936 132.601 22.1856 130.594 22.1856H128.786V15.3063Z" fill="white"/>
<path d="M140.342 23.6811C142.455 23.6811 143.751 22.2653 143.751 19.9191C143.751 17.5861 142.448 16.1637 140.342 16.1637C138.228 16.1637 136.925 17.5861 136.925 19.9191C136.925 22.2653 138.221 23.6811 140.342 23.6811ZM140.342 22.4116C139.099 22.4116 138.401 21.501 138.401 19.9191C138.401 18.3505 139.099 17.4333 140.342 17.4333C141.578 17.4333 142.282 18.3505 142.282 19.9191C142.282 21.4943 141.578 22.4116 140.342 22.4116Z" fill="white"/>
<path d="M154.789 16.3033H153.36L152.07 21.8267H151.957L150.468 16.3033H149.099L147.61 21.8267H147.504L146.208 16.3033H144.759L146.753 23.5415H148.222L149.711 18.2109H149.824L151.319 23.5415H152.801L154.789 16.3033Z" fill="white"/>
<path d="M156.434 23.5415H157.863V19.3076C157.863 18.1777 158.535 17.4731 159.591 17.4731C160.648 17.4731 161.153 18.0514 161.153 19.2145V23.5415H162.582V18.8556C162.582 17.1342 161.692 16.1637 160.077 16.1637C158.987 16.1637 158.269 16.649 157.916 17.4532H157.81V16.3033H156.434V23.5415Z" fill="white"/>
<path d="M164.833 23.5415H166.262V13.4785H164.833V23.5415Z" fill="white"/>
<path d="M171.636 23.6811C173.75 23.6811 175.046 22.2653 175.046 19.9191C175.046 17.5861 173.743 16.1637 171.636 16.1637C169.523 16.1637 168.22 17.5861 168.22 19.9191C168.22 22.2653 169.516 23.6811 171.636 23.6811ZM171.636 22.4116C170.394 22.4116 169.696 21.501 169.696 19.9191C169.696 18.3505 170.394 17.4333 171.636 17.4333C172.873 17.4333 173.577 18.3505 173.577 19.9191C173.577 21.4943 172.873 22.4116 171.636 22.4116Z" fill="white"/>
<path d="M179.304 22.4581C178.526 22.4581 177.961 22.0792 177.961 21.4279C177.961 20.7898 178.413 20.4508 179.41 20.3843L181.178 20.2714V20.8762C181.178 21.7735 180.381 22.4581 179.304 22.4581ZM178.938 23.6611C179.889 23.6611 180.68 23.249 181.112 22.5246H181.225V23.5415H182.601V18.5964C182.601 17.0677 181.577 16.1637 179.763 16.1637C178.121 16.1637 176.951 16.9613 176.805 18.2043H178.187C178.347 17.6925 178.899 17.4 179.696 17.4C180.673 17.4 181.178 17.832 181.178 18.5964V19.2212L179.218 19.3342C177.496 19.4405 176.526 20.1916 176.526 21.4943C176.526 22.817 177.543 23.6611 178.938 23.6611Z" fill="white"/>
<path d="M187.45 23.6611C188.447 23.6611 189.291 23.1892 189.723 22.3983H189.836V23.5415H191.205V13.4785H189.776V17.4532H189.67C189.278 16.6556 188.44 16.1837 187.45 16.1837C185.622 16.1837 184.446 17.6326 184.446 19.9191C184.446 22.2122 185.609 23.6611 187.45 23.6611ZM187.856 17.4665C189.052 17.4665 189.803 18.417 189.803 19.9257C189.803 21.4412 189.059 22.3783 187.856 22.3783C186.646 22.3783 185.921 21.4545 185.921 19.9191C185.921 18.397 186.652 17.4665 187.856 17.4665Z" fill="white"/>
<path d="M200.472 23.6811C202.586 23.6811 203.882 22.2653 203.882 19.9191C203.882 17.5861 202.579 16.1637 200.472 16.1637C198.358 16.1637 197.056 17.5861 197.056 19.9191C197.056 22.2653 198.352 23.6811 200.472 23.6811ZM200.472 22.4116C199.229 22.4116 198.531 21.501 198.531 19.9191C198.531 18.3505 199.229 17.4333 200.472 17.4333C201.708 17.4333 202.413 18.3505 202.413 19.9191C202.413 21.4943 201.708 22.4116 200.472 22.4116Z" fill="white"/>
<path d="M205.773 23.5415H207.202V19.3076C207.202 18.1777 207.874 17.4731 208.931 17.4731C209.987 17.4731 210.493 18.0514 210.493 19.2145V23.5415H211.922V18.8556C211.922 17.1342 211.031 16.1637 209.416 16.1637C208.326 16.1637 207.608 16.649 207.256 17.4532H207.149V16.3033H205.773V23.5415Z" fill="white"/>
<path d="M218.503 14.5021V16.3366H217.353V17.5396H218.503V21.6273C218.503 23.0231 219.134 23.5814 220.723 23.5814C221.002 23.5814 221.268 23.5481 221.501 23.5083V22.3185C221.301 22.3385 221.175 22.3517 220.956 22.3517C220.244 22.3517 219.932 22.0194 219.932 21.2617V17.5396H221.501V16.3366H219.932V14.5021H218.503Z" fill="white"/>
<path d="M223.419 23.5415H224.848V19.3142C224.848 18.2176 225.499 17.4798 226.669 17.4798C227.679 17.4798 228.218 18.0647 228.218 19.2212V23.5415H229.647V18.8689C229.647 17.1474 228.696 16.1704 227.154 16.1704C226.064 16.1704 225.3 16.6556 224.948 17.4665H224.835V13.4785H223.419V23.5415Z" fill="white"/>
<path d="M234.802 17.3801C235.859 17.3801 236.55 18.1179 236.583 19.2544H232.928C233.007 18.1245 233.745 17.3801 234.802 17.3801ZM236.577 21.5874C236.311 22.1523 235.719 22.4647 234.855 22.4647C233.712 22.4647 232.974 21.6605 232.928 20.391V20.3112H238.039V19.8127C238.039 17.5396 236.822 16.1637 234.809 16.1637C232.768 16.1637 231.472 17.6326 231.472 19.9457C231.472 22.2587 232.741 23.6811 234.815 23.6811C236.47 23.6811 237.627 22.8835 237.952 21.5874H236.577Z" fill="white"/>
<path d="M109.871 32.5111C109.906 29.8191 111.351 27.2718 113.645 25.8618C112.198 23.7954 109.774 22.4853 107.253 22.4064C104.564 22.1241 101.957 24.0156 100.587 24.0156C99.1896 24.0156 97.0797 22.4344 94.8077 22.4812C91.8462 22.5769 89.0854 24.2606 87.6446 26.8497C84.5474 32.212 86.8576 40.0928 89.8245 44.4273C91.3088 46.5498 93.0437 48.9206 95.3136 48.8365C97.5349 48.7444 98.3645 47.4201 101.046 47.4201C103.702 47.4201 104.481 48.8365 106.797 48.7831C109.18 48.7444 110.682 46.6512 112.114 44.5086C113.181 42.9963 114.001 41.3248 114.546 39.5561C111.745 38.3714 109.874 35.5525 109.871 32.5111Z" fill="white"/>
<path d="M105.496 19.5558C106.796 17.9957 107.436 15.9904 107.281 13.9658C105.296 14.1744 103.462 15.1233 102.144 16.6236C100.856 18.0894 100.186 20.0595 100.313 22.0067C102.299 22.0271 104.252 21.1039 105.496 19.5558Z" fill="white"/>
</g>
<defs>
<filter id="filter0_dddddd_5828_44540" x="0.399162" y="0" width="331.785" height="221.121" filterUnits="userSpaceOnUse" color-interpolation-filters="sRGB">
<feFlood flood-opacity="0" result="BackgroundImageFix"/>
<feColorMatrix in="SourceAlpha" type="matrix" values="0 0 0 0 0 0 0 0 0 0 0 0 0 0 0 0 0 0 127 0" result="hardAlpha"/>
<feOffset dy="2.41464"/>
<feGaussianBlur stdDeviation="0.965854"/>
<feColorMatrix type="matrix" values="0 0 0 0 0 0 0 0 0 0 0 0 0 0 0 0 0 0 0.0196802 0"/>
<feBlend mode="normal" in2="BackgroundImageFix" result="effect1_dropShadow_5828_44540"/>
<feColorMatrix in="SourceAlpha" type="matrix" values="0 0 0 0 0 0 0 0 0 0 0 0 0 0 0 0 0 0 127 0" result="hardAlpha"/>
<feOffset dy="5.80271"/>
<feGaussianBlur stdDeviation="2.32108"/>
<feColorMatrix type="matrix" values="0 0 0 0 0 0 0 0 0 0 0 0 0 0 0 0 0 0 0.0282725 0"/>
<feBlend mode="normal" in2="effect1_dropShadow_5828_44540" result="effect2_dropShadow_5828_44540"/>
<feColorMatrix in="SourceAlpha" type="matrix" values="0 0 0 0 0 0 0 0 0 0 0 0 0 0 0 0 0 0 127 0" result="hardAlpha"/>
<feOffset dy="10.926"/>
<feGaussianBlur stdDeviation="4.37039"/>
<feColorMatrix type="matrix" values="0 0 0 0 0 0 0 0 0 0 0 0 0 0 0 0 0 0 0.035 0"/>
<feBlend mode="normal" in2="effect2_dropShadow_5828_44540" result="effect3_dropShadow_5828_44540"/>
<feColorMatrix in="SourceAlpha" type="matrix" values="0 0 0 0 0 0 0 0 0 0 0 0 0 0 0 0 0 0 127 0" result="hardAlpha"/>
<feOffset dy="19.4901"/>
<feGaussianBlur stdDeviation="7.79603"/>
<feColorMatrix type="matrix" values="0 0 0 0 0 0 0 0 0 0 0 0 0 0 0 0 0 0 0.0417275 0"/>
<feBlend mode="normal" in2="effect3_dropShadow_5828_44540" result="effect4_dropShadow_5828_44540"/>
<feColorMatrix in="SourceAlpha" type="matrix" values="0 0 0 0 0 0 0 0 0 0 0 0 0 0 0 0 0 0 127 0" result="hardAlpha"/>
<feOffset dy="36.4541"/>
<feGaussianBlur stdDeviation="14.5816"/>
<feColorMatrix type="matrix" values="0 0 0 0 0 0 0 0 0 0 0 0 0 0 0 0 0 0 0.0503198 0"/>
<feBlend mode="normal" in2="effect4_dropShadow_5828_44540" result="effect5_dropShadow_5828_44540"/>
<feColorMatrix in="SourceAlpha" type="matrix" values="0 0 0 0 0 0 0 0 0 0 0 0 0 0 0 0 0 0 127 0" result="hardAlpha"/>
<feOffset dy="87.2574"/>
<feGaussianBlur stdDeviation="34.903"/>
<feColorMatrix type="matrix" values="0 0 0 0 0 0 0 0 0 0 0 0 0 0 0 0 0 0 0.07 0"/>
<feBlend mode="normal" in2="effect5_dropShadow_5828_44540" result="effect6_dropShadow_5828_44540"/>
<feBlend mode="normal" in="SourceGraphic" in2="effect6_dropShadow_5828_44540" result="shape"/>
</filter>
</defs>
</svg>
