<svg width="230" height="101" viewBox="0 0 230 101" fill="none" xmlns="http://www.w3.org/2000/svg">
<g filter="url(#filter0_dd_5828_44540)">
<rect x="19.2051" width="192.173" height="64.0577" rx="11.0099" fill="black"/>
<path d="M149.764 30.7471V34.416H147.464V36.8221H149.764V44.9974C149.764 47.789 151.026 48.9056 154.203 48.9056C154.762 48.9056 155.294 48.8392 155.759 48.7594V46.3799C155.36 46.4198 155.107 46.4464 154.669 46.4464C153.246 46.4464 152.622 45.7817 152.622 44.2663V36.8221H155.759V34.416H152.622V30.7471H149.764Z" fill="white"/>
<path d="M163.852 49.105C168.079 49.105 170.672 46.2736 170.672 41.581C170.672 36.9151 168.066 34.0704 163.852 34.0704C159.625 34.0704 157.02 36.9151 157.02 41.581C157.02 46.2736 159.612 49.105 163.852 49.105ZM163.852 46.566C161.366 46.566 159.971 44.7448 159.971 41.581C159.971 38.4438 161.366 36.6094 163.852 36.6094C166.325 36.6094 167.734 38.4438 167.734 41.581C167.734 44.7315 166.325 46.566 163.852 46.566Z" fill="white"/>
<path d="M172.889 48.8259H175.748V40.2783C175.748 38.2444 177.276 36.8752 179.443 36.8752C179.948 36.8752 180.799 36.9683 181.038 37.0481V34.2299C180.732 34.1501 180.187 34.1103 179.762 34.1103C177.874 34.1103 176.266 35.1471 175.854 36.5695H175.641V34.3495H172.889V48.8259Z" fill="white"/>
<path d="M188.135 36.503C190.248 36.503 191.631 37.9786 191.697 40.2517H184.386C184.546 37.9919 186.021 36.503 188.135 36.503ZM191.684 44.9177C191.152 46.0476 189.969 46.6724 188.241 46.6724C185.955 46.6724 184.479 45.0639 184.386 42.5249V42.3654H194.608V41.3684C194.608 36.8221 192.176 34.0704 188.148 34.0704C184.067 34.0704 181.475 37.0082 181.475 41.6342C181.475 46.2603 184.014 49.105 188.161 49.105C191.471 49.105 193.784 47.5098 194.436 44.9177H191.684Z" fill="white"/>
<path d="M131.021 43.48C131.241 47.0347 134.204 49.3081 138.613 49.3081C143.325 49.3081 146.273 46.9245 146.273 43.1218C146.273 40.1319 144.592 38.4786 140.514 37.5279L138.323 36.9905C135.733 36.3843 134.686 35.5714 134.686 34.1522C134.686 32.3611 136.312 31.19 138.75 31.19C141.065 31.19 142.663 32.3335 142.953 34.166H145.956C145.777 30.818 142.829 28.4619 138.792 28.4619C134.452 28.4619 131.558 30.818 131.558 34.3589C131.558 37.2799 133.198 39.0159 136.794 39.8564L139.357 40.4764C141.988 41.0964 143.146 42.0057 143.146 43.5213C143.146 45.2849 141.327 46.5663 138.847 46.5663C136.188 46.5663 134.341 45.3676 134.08 43.48H131.021Z" fill="white"/>
<path d="M101.414 34.1103C99.4471 34.1103 97.7456 35.094 96.8682 36.7423H96.6555V34.3495H93.9038V53.638H96.7619V46.6325H96.9878C97.7456 48.1612 99.3806 49.0651 101.441 49.0651C105.097 49.0651 107.423 46.1805 107.423 41.581C107.423 36.9816 105.097 34.1103 101.414 34.1103ZM100.604 46.4995C98.2108 46.4995 96.7087 44.6119 96.7087 41.5943C96.7087 38.5635 98.2108 36.6758 100.617 36.6758C103.036 36.6758 104.485 38.5236 104.485 41.581C104.485 44.6518 103.036 46.4995 100.604 46.4995Z" fill="white"/>
<path d="M117.424 34.1103C115.456 34.1103 113.755 35.094 112.877 36.7423H112.665V34.3495H109.913V53.638H112.771V46.6325H112.997C113.755 48.1612 115.39 49.0651 117.45 49.0651C121.106 49.0651 123.432 46.1805 123.432 41.581C123.432 36.9816 121.106 34.1103 117.424 34.1103ZM116.613 46.4995C114.22 46.4995 112.718 44.6119 112.718 41.5943C112.718 38.5635 114.22 36.6758 116.626 36.6758C119.046 36.6758 120.495 38.5236 120.495 41.581C120.495 44.6518 119.046 46.4995 116.613 46.4995Z" fill="white"/>
<path d="M88.776 48.8259H92.0552L84.8768 28.9441H81.5563L74.3779 48.8259H77.5469L79.3794 43.5489H86.9573L88.776 48.8259ZM83.0581 32.554H83.2923L86.1719 40.9586H80.1647L83.0581 32.554Z" fill="white"/>
<path d="M76.2969 13.9504V23.5415H79.7598C82.6178 23.5415 84.2728 21.7801 84.2728 18.716C84.2728 15.6985 82.6045 13.9504 79.7598 13.9504H76.2969ZM77.7857 15.3063H79.5936C81.5809 15.3063 82.7574 16.5692 82.7574 18.736C82.7574 20.936 81.6009 22.1856 79.5936 22.1856H77.7857V15.3063Z" fill="white"/>
<path d="M89.3415 23.6811C91.4551 23.6811 92.7512 22.2653 92.7512 19.9191C92.7512 17.5861 91.4485 16.1637 89.3415 16.1637C87.2279 16.1637 85.9252 17.5861 85.9252 19.9191C85.9252 22.2653 87.2213 23.6811 89.3415 23.6811ZM89.3415 22.4116C88.0986 22.4116 87.4007 21.501 87.4007 19.9191C87.4007 18.3505 88.0986 17.4333 89.3415 17.4333C90.5778 17.4333 91.2823 18.3505 91.2823 19.9191C91.2823 21.4943 90.5778 22.4116 89.3415 22.4116Z" fill="white"/>
<path d="M103.789 16.3033H102.36L101.07 21.8267H100.957L99.4683 16.3033H98.0991L96.6103 21.8267H96.5039L95.2078 16.3033H93.7589L95.7528 23.5415H97.2217L98.7106 18.2109H98.8236L100.319 23.5415H101.801L103.789 16.3033Z" fill="white"/>
<path d="M105.434 23.5415H106.863V19.3076C106.863 18.1777 107.535 17.4731 108.591 17.4731C109.648 17.4731 110.153 18.0514 110.153 19.2145V23.5415H111.582V18.8556C111.582 17.1342 110.692 16.1637 109.077 16.1637C107.987 16.1637 107.269 16.649 106.916 17.4532H106.81V16.3033H105.434V23.5415Z" fill="white"/>
<path d="M113.833 23.5415H115.262V13.4785H113.833V23.5415Z" fill="white"/>
<path d="M120.636 23.6811C122.75 23.6811 124.046 22.2653 124.046 19.9191C124.046 17.5861 122.743 16.1637 120.636 16.1637C118.523 16.1637 117.22 17.5861 117.22 19.9191C117.22 22.2653 118.516 23.6811 120.636 23.6811ZM120.636 22.4116C119.394 22.4116 118.696 21.501 118.696 19.9191C118.696 18.3505 119.394 17.4333 120.636 17.4333C121.873 17.4333 122.577 18.3505 122.577 19.9191C122.577 21.4943 121.873 22.4116 120.636 22.4116Z" fill="white"/>
<path d="M128.304 22.4581C127.526 22.4581 126.961 22.0792 126.961 21.4279C126.961 20.7898 127.413 20.4508 128.41 20.3843L130.178 20.2714V20.8762C130.178 21.7735 129.381 22.4581 128.304 22.4581ZM127.938 23.6611C128.889 23.6611 129.68 23.249 130.112 22.5246H130.225V23.5415H131.601V18.5964C131.601 17.0677 130.577 16.1637 128.763 16.1637C127.121 16.1637 125.951 16.9613 125.805 18.2043H127.187C127.347 17.6925 127.899 17.4 128.696 17.4C129.673 17.4 130.178 17.832 130.178 18.5964V19.2212L128.218 19.3342C126.496 19.4405 125.526 20.1916 125.526 21.4943C125.526 22.817 126.543 23.6611 127.938 23.6611Z" fill="white"/>
<path d="M136.45 23.6611C137.447 23.6611 138.291 23.1892 138.723 22.3983H138.836V23.5415H140.205V13.4785H138.776V17.4532H138.67C138.278 16.6556 137.44 16.1837 136.45 16.1837C134.622 16.1837 133.446 17.6326 133.446 19.9191C133.446 22.2122 134.609 23.6611 136.45 23.6611ZM136.856 17.4665C138.052 17.4665 138.803 18.417 138.803 19.9257C138.803 21.4412 138.059 22.3783 136.856 22.3783C135.646 22.3783 134.921 21.4545 134.921 19.9191C134.921 18.397 135.652 17.4665 136.856 17.4665Z" fill="white"/>
<path d="M149.472 23.6811C151.586 23.6811 152.882 22.2653 152.882 19.9191C152.882 17.5861 151.579 16.1637 149.472 16.1637C147.358 16.1637 146.056 17.5861 146.056 19.9191C146.056 22.2653 147.352 23.6811 149.472 23.6811ZM149.472 22.4116C148.229 22.4116 147.531 21.501 147.531 19.9191C147.531 18.3505 148.229 17.4333 149.472 17.4333C150.708 17.4333 151.413 18.3505 151.413 19.9191C151.413 21.4943 150.708 22.4116 149.472 22.4116Z" fill="white"/>
<path d="M154.773 23.5415H156.202V19.3076C156.202 18.1777 156.874 17.4731 157.931 17.4731C158.987 17.4731 159.493 18.0514 159.493 19.2145V23.5415H160.922V18.8556C160.922 17.1342 160.031 16.1637 158.416 16.1637C157.326 16.1637 156.608 16.649 156.256 17.4532H156.149V16.3033H154.773V23.5415Z" fill="white"/>
<path d="M167.503 14.5021V16.3366H166.353V17.5396H167.503V21.6273C167.503 23.0231 168.134 23.5814 169.723 23.5814C170.002 23.5814 170.268 23.5481 170.501 23.5083V22.3185C170.301 22.3385 170.175 22.3517 169.956 22.3517C169.244 22.3517 168.932 22.0194 168.932 21.2617V17.5396H170.501V16.3366H168.932V14.5021H167.503Z" fill="white"/>
<path d="M172.419 23.5415H173.848V19.3142C173.848 18.2176 174.499 17.4798 175.669 17.4798C176.679 17.4798 177.218 18.0647 177.218 19.2212V23.5415H178.647V18.8689C178.647 17.1474 177.696 16.1704 176.154 16.1704C175.064 16.1704 174.3 16.6556 173.948 17.4665H173.835V13.4785H172.419V23.5415Z" fill="white"/>
<path d="M183.802 17.3801C184.859 17.3801 185.55 18.1179 185.583 19.2544H181.928C182.007 18.1245 182.745 17.3801 183.802 17.3801ZM185.577 21.5874C185.311 22.1523 184.719 22.4647 183.855 22.4647C182.712 22.4647 181.974 21.6605 181.928 20.391V20.3112H187.039V19.8127C187.039 17.5396 185.822 16.1637 183.809 16.1637C181.768 16.1637 180.472 17.6326 180.472 19.9457C180.472 22.2587 181.741 23.6811 183.815 23.6811C185.47 23.6811 186.627 22.8835 186.952 21.5874H185.577Z" fill="white"/>
<path d="M58.8709 32.5111C58.9056 29.8191 60.3513 27.2718 62.6448 25.8618C61.1979 23.7954 58.7745 22.4853 56.2532 22.4064C53.564 22.1241 50.9569 24.0156 49.5865 24.0156C48.1896 24.0156 46.0797 22.4344 43.8077 22.4812C40.8462 22.5769 38.0854 24.2606 36.6446 26.8497C33.5474 32.212 35.8576 40.0928 38.8245 44.4273C40.3088 46.5498 42.0437 48.9206 44.3136 48.8365C46.5349 48.7444 47.3645 47.4201 50.0458 47.4201C52.7022 47.4201 53.4806 48.8365 55.7966 48.7831C58.1802 48.7444 59.6819 46.6512 61.1142 44.5086C62.1807 42.9963 63.0014 41.3248 63.5459 39.5561C60.7448 38.3714 58.8742 35.5525 58.8709 32.5111Z" fill="white"/>
<path d="M54.4963 19.5558C55.7959 17.9957 56.4362 15.9904 56.2811 13.9658C54.2956 14.1744 52.4615 15.1233 51.1444 16.6236C49.8563 18.0894 49.1861 20.0595 49.3128 22.0067C51.299 22.0271 53.2516 21.1039 54.4963 19.5558Z" fill="white"/>
</g>
<defs>
<filter id="filter0_dd_5828_44540" x="0.766092" y="0" width="229.051" height="100.936" filterUnits="userSpaceOnUse" color-interpolation-filters="sRGB">
<feFlood flood-opacity="0" result="BackgroundImageFix"/>
<feColorMatrix in="SourceAlpha" type="matrix" values="0 0 0 0 0 0 0 0 0 0 0 0 0 0 0 0 0 0 127 0" result="hardAlpha"/>
<feOffset dy="7.67288"/>
<feGaussianBlur stdDeviation="3.83644"/>
<feColorMatrix type="matrix" values="0 0 0 0 0 0 0 0 0 0 0 0 0 0 0 0 0 0 0.0337375 0"/>
<feBlend mode="normal" in2="BackgroundImageFix" result="effect1_dropShadow_5828_44540"/>
<feColorMatrix in="SourceAlpha" type="matrix" values="0 0 0 0 0 0 0 0 0 0 0 0 0 0 0 0 0 0 127 0" result="hardAlpha"/>
<feOffset dy="18.439"/>
<feGaussianBlur stdDeviation="9.21949"/>
<feColorMatrix type="matrix" values="0 0 0 0 0 0 0 0 0 0 0 0 0 0 0 0 0 0 0.0484671 0"/>
<feBlend mode="normal" in2="effect1_dropShadow_5828_44540" result="effect2_dropShadow_5828_44540"/>
<feBlend mode="normal" in="SourceGraphic" in2="effect2_dropShadow_5828_44540" result="shape"/>
</filter>
</defs>
</svg>
