<svg width="137" height="125" viewBox="0 0 137 125" fill="none" xmlns="http://www.w3.org/2000/svg">
<g clip-path="url(#clip0_11310_17627)">
<path d="M118.067 11.4932L3.27344 44.9512L6.314 55.3907L121.108 21.9327L118.067 11.4932Z" fill="#14171B"/>
<path d="M16.9872 92.9033L0.0674978 34.8111C-0.0579404 34.3804 -0.00720428 33.9175 0.208537 33.5243C0.424278 33.131 0.787354 32.8395 1.2179 32.714L113.229 0.0671634C113.66 -0.0578973 114.122 -0.00697137 114.515 0.208768C114.908 0.424508 115.2 0.787433 115.325 1.21788L130.315 52.6834L129.851 52.8186L114.862 1.35309C114.771 1.04576 114.563 0.786672 114.283 0.632595C114.002 0.478519 113.672 0.442013 113.364 0.53108L1.35303 33.178C1.0455 33.2676 0.786161 33.4758 0.63206 33.7567C0.477959 34.0376 0.44172 34.3683 0.531314 34.6759L17.451 92.7681L16.9872 92.9033Z" fill="#3F3D56"/>
<path d="M105.525 52.9227C105.186 52.9223 104.855 52.8119 104.583 52.6079C104.311 52.4039 104.113 52.1173 104.017 51.7911L101.179 42.0476C101.063 41.6477 101.111 41.2181 101.311 40.853C101.511 40.488 101.848 40.2173 102.248 40.1003L111.988 37.2615C112.388 37.1455 112.817 37.1928 113.182 37.3932C113.547 37.5935 113.817 37.9305 113.934 38.3302L116.772 48.0737C116.888 48.4736 116.841 48.9032 116.641 49.2683C116.44 49.6333 116.103 49.904 115.704 50.0209L105.964 52.8598C105.821 52.9014 105.674 52.9226 105.525 52.9227Z" fill="#034737"/>
<path d="M16.7254 34.9921C16.6962 34.892 16.6615 34.7936 16.6215 34.6973C16.3492 34.0361 15.8422 33.4989 15.1979 33.1889C14.5537 32.8789 13.8177 32.818 13.1313 33.0179C12.4449 33.2178 11.8565 33.6644 11.4793 34.2719C11.1021 34.8794 10.9626 35.6049 11.0877 36.309C11.1052 36.4118 11.1286 36.5134 11.1577 36.6135C11.3341 37.2158 11.7008 37.7447 12.2028 38.1211C12.7049 38.4974 13.3153 38.701 13.9427 38.7012C14.2166 38.7018 14.4892 38.6628 14.7519 38.5852C15.4894 38.3697 16.1113 37.8704 16.4812 37.1968C16.8512 36.5232 16.939 35.7304 16.7254 34.9921ZM14.6167 38.1213C14.0017 38.2998 13.341 38.2271 12.7795 37.9191C12.218 37.6111 11.8016 37.0929 11.6215 36.4782C11.5932 36.378 11.5706 36.2764 11.5538 36.1737C11.4632 35.5936 11.5869 35.0003 11.9018 34.5048C12.2168 34.0093 12.7013 33.6455 13.2649 33.4815C13.8285 33.3174 14.4326 33.3644 14.9641 33.6135C15.4956 33.8626 15.9182 34.2969 16.1529 34.8351C16.1966 34.9296 16.233 35.0273 16.2616 35.1274C16.4399 35.7426 16.3668 36.4035 16.0583 36.9648C15.7499 37.5262 15.2314 37.9421 14.6167 38.1213Z" fill="#034737"/>
<path d="M9.61751 37.063C9.46293 36.532 9.47778 35.9659 9.65999 35.4437C9.84219 34.9215 10.1827 34.4691 10.634 34.1496C10.2112 34.129 9.78951 34.2098 9.40417 34.3852C9.01883 34.5606 8.68097 34.8256 8.41874 35.1581C8.15651 35.4906 7.97749 35.8809 7.8966 36.2966C7.81571 36.7123 7.8353 37.1414 7.95373 37.548C8.07216 37.9546 8.28599 38.327 8.57743 38.6342C8.86886 38.9414 9.22946 39.1745 9.62918 39.314C10.0289 39.4536 10.4562 39.4955 10.8754 39.4365C11.2946 39.3774 11.6936 39.2189 12.0393 38.9743C11.487 38.9474 10.9569 38.7487 10.5228 38.4062C10.0887 38.0636 9.77226 37.5941 9.61751 37.063Z" fill="#034737"/>
<path d="M84.7076 49.0376C84.6562 48.8527 84.5688 48.6797 84.4506 48.5286C84.3323 48.3775 84.1854 48.2512 84.0182 48.157C83.8511 48.0627 83.667 48.0023 83.4765 47.9793C83.286 47.9563 83.0929 47.971 82.9081 48.0228L66.8716 52.5099L65.1445 52.9932H75.9901L77.7172 52.5099L83.6955 50.8378C84.0682 50.7331 84.3841 50.4847 84.5739 50.1472C84.7636 49.8096 84.8117 49.4106 84.7076 49.0376Z" fill="#CCCCCC"/>
<path d="M73.3587 45.6857C73.2542 45.3127 73.0059 44.9965 72.6685 44.8067C72.331 44.6168 71.9319 44.5688 71.5591 44.6732L47.496 51.4051C47.1597 51.5004 46.8686 51.7128 46.675 52.0039C46.4815 52.2949 46.3983 52.6456 46.4404 52.9927H52.6699L54.3994 52.5094L72.3466 47.4882C72.7196 47.3832 73.0356 47.1343 73.2254 46.7964C73.4151 46.4584 73.4631 46.0589 73.3587 45.6857Z" fill="#CCCCCC"/>
<path d="M135.309 52.5098H18.6401C18.1918 52.5103 17.762 52.6886 17.445 53.0057C17.128 53.3228 16.9497 53.7528 16.9492 54.2012V123.309C16.9497 123.757 17.128 124.187 17.445 124.504C17.762 124.821 18.1918 125 18.6401 125H135.309C135.757 125 136.187 124.821 136.504 124.504C136.821 124.187 136.999 123.757 137 123.309V54.2012C136.999 53.7528 136.821 53.3228 136.504 53.0058C136.187 52.6887 135.757 52.5103 135.309 52.5098ZM136.517 123.309C136.516 123.629 136.389 123.936 136.163 124.163C135.936 124.389 135.629 124.517 135.309 124.517H18.6401C18.3198 124.517 18.0127 124.389 17.7862 124.163C17.5597 123.936 17.4324 123.629 17.4323 123.309V54.2012C17.4325 53.8808 17.5597 53.5736 17.7862 53.3471C18.0127 53.1205 18.3198 52.9932 18.6401 52.993H135.309C135.629 52.9932 135.936 53.1205 136.163 53.3471C136.389 53.5736 136.516 53.8808 136.517 54.2012V123.309Z" fill="#3F3D56"/>
<path d="M29.9923 61.934C29.4191 61.934 28.8586 61.7639 28.382 61.4453C27.9053 61.1267 27.5338 60.6739 27.3144 60.144C27.095 59.6142 27.0376 59.0312 27.1494 58.4687C27.2613 57.9062 27.5374 57.3896 27.9427 56.984C28.3481 56.5785 28.8646 56.3024 29.4269 56.1905C29.9891 56.0786 30.5719 56.136 31.1016 56.3555C31.6312 56.575 32.0839 56.9466 32.4025 57.4234C32.721 57.9003 32.8909 58.4609 32.8909 59.0344C32.8901 59.8031 32.5844 60.5402 32.041 61.0837C31.4976 61.6273 30.7608 61.9331 29.9923 61.934ZM29.9923 56.618C29.5146 56.618 29.0476 56.7597 28.6504 57.0253C28.2531 57.2908 27.9435 57.6682 27.7607 58.1097C27.5779 58.5512 27.5301 59.0371 27.6233 59.5058C27.7165 59.9745 27.9465 60.4051 28.2843 60.743C28.6222 61.0809 29.0525 61.3111 29.5211 61.4043C29.9897 61.4975 30.4753 61.4497 30.9167 61.2668C31.3581 61.0839 31.7353 60.7742 32.0008 60.3768C32.2662 59.9795 32.4078 59.5123 32.4078 59.0344C32.4071 58.3937 32.1524 57.7796 31.6996 57.3266C31.2467 56.8736 30.6328 56.6188 29.9923 56.618Z" fill="#034737"/>
<path d="M25.4869 59.0349C25.487 58.4818 25.6595 57.9425 25.9805 57.4921C26.3014 57.0417 26.7548 56.7027 27.2775 56.5223C26.8773 56.3842 26.4499 56.3437 26.0309 56.4043C25.6119 56.4649 25.2134 56.6247 24.8686 56.8706C24.5239 57.1164 24.2429 57.4411 24.049 57.8176C23.8551 58.194 23.7539 58.6114 23.7539 59.0349C23.7539 59.4584 23.8551 59.8758 24.049 60.2523C24.2429 60.6288 24.5239 60.9535 24.8686 61.1993C25.2134 61.4451 25.6119 61.605 26.0309 61.6656C26.4499 61.7262 26.8773 61.6857 27.2775 61.5476C26.7548 61.3672 26.3014 61.0281 25.9805 60.5777C25.6595 60.1274 25.487 59.588 25.4869 59.0349Z" fill="#034737"/>
<path d="M41.7404 93.2935C41.164 93.2928 40.6114 93.0635 40.2039 92.6558C39.7963 92.2481 39.5671 91.6953 39.5664 91.1188V84.5946C39.5664 84.0179 39.7954 83.4647 40.2031 83.0569C40.6108 82.649 41.1638 82.4199 41.7404 82.4199C42.3169 82.4199 42.8699 82.649 43.2776 83.0569C43.6853 83.4647 43.9143 84.0179 43.9143 84.5946V91.1188C43.9136 91.6953 43.6844 92.2481 43.2768 92.6558C42.8693 93.0635 42.3167 93.2928 41.7404 93.2935Z" fill="#034737"/>
<path d="M47.5411 93.2935C46.9648 93.2928 46.4122 93.0635 46.0046 92.6558C45.5971 92.2481 45.3678 91.6953 45.3672 91.1188V84.5946C45.3672 84.0179 45.5962 83.4647 46.0039 83.0569C46.4116 82.649 46.9646 82.4199 47.5411 82.4199C48.1177 82.4199 48.6706 82.649 49.0783 83.0569C49.486 83.4647 49.7151 84.0179 49.7151 84.5946V91.1188C49.7144 91.6953 49.4852 92.2481 49.0776 92.6558C48.6701 93.0635 48.1175 93.2928 47.5411 93.2935Z" fill="#034737"/>
<path d="M53.338 93.2935C52.7616 93.2928 52.2091 93.0635 51.8015 92.6558C51.394 92.2481 51.1647 91.6953 51.1641 91.1188V84.5946C51.1641 84.0179 51.3931 83.4647 51.8008 83.0569C52.2085 82.649 52.7614 82.4199 53.338 82.4199C53.9146 82.4199 54.4675 82.649 54.8752 83.0569C55.2829 83.4647 55.512 84.0179 55.512 84.5946V91.1188C55.5113 91.6953 55.2821 92.2481 54.8745 92.6558C54.467 93.0635 53.9144 93.2928 53.338 93.2935Z" fill="#034737"/>
<path d="M62.2755 93.2935C61.6991 93.2928 61.1466 93.0635 60.739 92.6558C60.3315 92.2481 60.1022 91.6953 60.1016 91.1188V84.5946C60.1016 84.0179 60.3306 83.4647 60.7383 83.0569C61.146 82.649 61.6989 82.4199 62.2755 82.4199C62.8521 82.4199 63.405 82.649 63.8127 83.0569C64.2204 83.4647 64.4495 84.0179 64.4495 84.5946V91.1188C64.4488 91.6953 64.2196 92.2481 63.812 92.6558C63.4045 93.0635 62.8519 93.2928 62.2755 93.2935Z" fill="#034737"/>
<path d="M68.0724 93.2935C67.496 93.2928 66.9435 93.0635 66.5359 92.6558C66.1284 92.2481 65.8991 91.6953 65.8984 91.1188V84.5946C65.8984 84.0179 66.1275 83.4647 66.5352 83.0569C66.9429 82.649 67.4958 82.4199 68.0724 82.4199C68.649 82.4199 69.2019 82.649 69.6096 83.0569C70.0173 83.4647 70.2463 84.0179 70.2463 84.5946V91.1188C70.2457 91.6953 70.0164 92.2481 69.6089 92.6558C69.2013 93.0635 68.6488 93.2928 68.0724 93.2935Z" fill="#034737"/>
<path d="M73.8693 93.2935C73.2929 93.2928 72.7403 93.0635 72.3328 92.6558C71.9252 92.2481 71.696 91.6953 71.6953 91.1188V84.5946C71.6953 84.0179 71.9244 83.4647 72.332 83.0569C72.7397 82.649 73.2927 82.4199 73.8693 82.4199C74.4458 82.4199 74.9988 82.649 75.4065 83.0569C75.8142 83.4647 76.0432 84.0179 76.0432 84.5946V91.1188C76.0426 91.6953 75.8133 92.2481 75.4058 92.6558C74.9982 93.0635 74.4456 93.2928 73.8693 93.2935Z" fill="#034737"/>
<path d="M82.8068 93.2935C82.2304 93.2928 81.6778 93.0635 81.2703 92.6558C80.8627 92.2481 80.6335 91.6953 80.6328 91.1188V84.5946C80.6328 84.0179 80.8619 83.4647 81.2695 83.0569C81.6772 82.649 82.2302 82.4199 82.8068 82.4199C83.3833 82.4199 83.9363 82.649 84.344 83.0569C84.7517 83.4647 84.9807 84.0179 84.9807 84.5946V91.1188C84.9801 91.6953 84.7508 92.2481 84.3433 92.6558C83.9357 93.0635 83.3831 93.2928 82.8068 93.2935Z" fill="#034737"/>
<path d="M88.6036 93.2935C88.0273 93.2928 87.4747 93.0635 87.0672 92.6558C86.6596 92.2481 86.4303 91.6953 86.4297 91.1188V84.5946C86.4297 84.0179 86.6587 83.4647 87.0664 83.0569C87.4741 82.649 88.0271 82.4199 88.6036 82.4199C89.1802 82.4199 89.7332 82.649 90.1408 83.0569C90.5485 83.4647 90.7776 84.0179 90.7776 84.5946V91.1188C90.7769 91.6953 90.5477 92.2481 90.1401 92.6558C89.7326 93.0635 89.18 93.2928 88.6036 93.2935Z" fill="#034737"/>
<path d="M94.4005 93.2935C93.8241 93.2928 93.2716 93.0635 92.864 92.6558C92.4565 92.2481 92.2272 91.6953 92.2266 91.1188V84.5946C92.2266 84.0179 92.4556 83.4647 92.8633 83.0569C93.271 82.649 93.8239 82.4199 94.4005 82.4199C94.9771 82.4199 95.53 82.649 95.9377 83.0569C96.3454 83.4647 96.5745 84.0179 96.5745 84.5946V91.1188C96.5738 91.6953 96.3446 92.2481 95.937 92.6558C95.5295 93.0635 94.9769 93.2928 94.4005 93.2935Z" fill="#034737"/>
<path d="M103.338 93.2935C102.762 93.2928 102.209 93.0635 101.802 92.6558C101.394 92.2481 101.165 91.6953 101.164 91.1188V84.5946C101.164 84.0179 101.393 83.4647 101.801 83.0569C102.208 82.649 102.761 82.4199 103.338 82.4199C103.915 82.4199 104.468 82.649 104.875 83.0569C105.283 83.4647 105.512 84.0179 105.512 84.5946V91.1188C105.511 91.6953 105.282 92.2481 104.875 92.6558C104.467 93.0635 103.914 93.2928 103.338 93.2935Z" fill="#034737"/>
<path d="M109.135 93.2935C108.559 93.2928 108.006 93.0635 107.598 92.6558C107.191 92.2481 106.962 91.6953 106.961 91.1188V84.5946C106.961 84.0179 107.19 83.4647 107.598 83.0569C108.005 82.649 108.558 82.4199 109.135 82.4199C109.711 82.4199 110.264 82.649 110.672 83.0569C111.08 83.4647 111.309 84.0179 111.309 84.5946V91.1188C111.308 91.6953 111.079 92.2481 110.671 92.6558C110.264 93.0635 109.711 93.2928 109.135 93.2935Z" fill="#034737"/>
<path d="M114.932 93.2935C114.355 93.2928 113.803 93.0635 113.395 92.6558C112.988 92.2481 112.758 91.6953 112.758 91.1188V84.5946C112.758 84.0179 112.987 83.4647 113.395 83.0569C113.802 82.649 114.355 82.4199 114.932 82.4199C115.508 82.4199 116.061 82.649 116.469 83.0569C116.877 83.4647 117.106 84.0179 117.106 84.5946V91.1188C117.105 91.6953 116.876 92.2481 116.468 92.6558C116.061 93.0635 115.508 93.2928 114.932 93.2935Z" fill="#034737"/>
<path d="M56.481 117.497H25.2146C24.8272 117.497 24.4557 117.343 24.1817 117.069C23.9078 116.795 23.7539 116.423 23.7539 116.035C23.7539 115.648 23.9078 115.276 24.1817 115.002C24.4557 114.728 24.8272 114.574 25.2146 114.574H56.481C56.8684 114.574 57.2399 114.728 57.5139 115.002C57.7878 115.276 57.9417 115.648 57.9417 116.035C57.9417 116.423 57.7878 116.795 57.5139 117.069C57.2399 117.343 56.8684 117.497 56.481 117.497Z" fill="#E6E6E6"/>
<path d="M46.4557 111.214H35.2381C34.8507 111.214 34.4791 111.06 34.2052 110.786C33.9312 110.511 33.7773 110.14 33.7773 109.752C33.7773 109.365 33.9312 108.993 34.2052 108.719C34.4791 108.445 34.8507 108.291 35.2381 108.291H46.4557C46.8432 108.291 47.2147 108.445 47.4886 108.719C47.7626 108.993 47.9165 109.365 47.9165 109.752C47.9165 110.14 47.7626 110.511 47.4886 110.786C47.2147 111.06 46.8432 111.214 46.4557 111.214Z" fill="#E6E6E6"/>
<path d="M136.432 66.9551H17.3477V67.4383H136.432V66.9551Z" fill="#3F3D56"/>
</g>
<defs>
<clipPath id="clip0_11310_17627">
<rect width="137" height="125" fill="white"/>
</clipPath>
</defs>
</svg>
