<svg width="199" height="125" viewBox="0 0 199 125" fill="none" xmlns="http://www.w3.org/2000/svg">
<path d="M38.354 56.084C37.8063 56.084 37.2811 56.3015 36.8939 56.6888C36.5066 57.076 36.2891 57.6012 36.2891 58.1489C36.2891 58.6965 36.5066 59.2218 36.8939 59.609C37.2811 59.9962 37.8063 60.2138 38.354 60.2138H64.3098V59.313C64.3098 58.6728 64.4687 58.0426 64.7723 57.479C65.0759 56.9154 65.5148 56.4361 66.0495 56.084H38.354Z" fill="#E6E6E6"/>
<path d="M61.9736 51.4365H53.1977C52.6501 51.4365 52.1249 51.2189 51.7376 50.8317C51.3504 50.4444 51.1328 49.9192 51.1328 49.3715C51.1328 48.8239 51.3504 48.2987 51.7376 47.9114C52.1249 47.5242 52.6501 47.3066 53.1977 47.3066H61.9736C62.5212 47.3066 63.0464 47.5242 63.4337 47.9114C63.8209 48.2987 64.0385 48.8239 64.0385 49.3715C64.0385 49.9192 63.8209 50.4444 63.4337 50.8317C63.0464 51.2189 62.5212 51.4365 61.9736 51.4365Z" fill="#E6E6E6"/>
<path d="M42.296 36.7236H8.22506C7.67742 36.7236 7.1522 36.506 6.76496 36.1188C6.37771 35.7315 6.16016 35.2063 6.16016 34.6587C6.16016 34.111 6.37771 33.5858 6.76496 33.1985C7.1522 32.8113 7.67742 32.5938 8.22506 32.5938H42.296C42.8436 32.5938 43.3689 32.8113 43.7561 33.1985C44.1433 33.5858 44.3609 34.111 44.3609 34.6587C44.3609 35.2063 44.1433 35.7315 43.7561 36.1188C43.3689 36.506 42.8436 36.7236 42.296 36.7236Z" fill="#E6E6E6"/>
<path d="M27.4489 27.9501H23.061C22.5134 27.9501 21.9881 27.7326 21.6009 27.3453C21.2136 26.9581 20.9961 26.4329 20.9961 25.8852C20.9961 25.3376 21.2136 24.8124 21.6009 24.4251C21.9881 24.0379 22.5134 23.8203 23.061 23.8203H27.4489C27.9966 23.8203 28.5218 24.0379 28.909 24.4251C29.2963 24.8124 29.5138 25.3376 29.5138 25.8852C29.5138 26.4329 29.2963 26.9581 28.909 27.3453C28.5218 27.7326 27.9966 27.9501 27.4489 27.9501Z" fill="#E6E6E6"/>
<path d="M64.0539 97.6121H31.9348C30.7714 97.6108 29.6561 97.148 28.8335 96.3254C28.0109 95.5028 27.5482 94.3875 27.5469 93.2242V42.4172C27.5482 41.2539 28.0109 40.1385 28.8335 39.3159C29.6561 38.4933 30.7715 38.0306 31.9348 38.0293H83.2409C84.4042 38.0306 85.5196 38.4933 86.3422 39.3159C87.1648 40.1385 87.6275 41.2539 87.6288 42.4172V55.0099H87.1126V42.4172C87.1114 41.3907 86.7031 40.4066 85.9773 39.6808C85.2515 38.955 84.2674 38.5467 83.2409 38.5455H31.9348C30.9083 38.5467 29.9242 38.955 29.1984 39.6808C28.4725 40.4066 28.0643 41.3907 28.0631 42.4172V93.2242C28.0643 94.2506 28.4725 95.2347 29.1984 95.9606C29.9242 96.6864 30.9083 97.0947 31.9348 97.0959H64.0539V97.6121Z" fill="#CCCCCC"/>
<path d="M27.8012 67.1945H4.38792C3.22458 67.1932 2.10925 66.7305 1.28664 65.9079C0.464031 65.0853 0.00130963 63.97 0 62.8066V21.4934C0.00130963 20.33 0.464031 19.2147 1.28664 18.3921C2.10925 17.5695 3.22458 17.1068 4.38792 17.1055H46.12C47.2834 17.1068 48.3987 17.5695 49.2213 18.3921C50.0439 19.2147 50.5066 20.33 50.5079 21.4934V38.2849H49.9917V21.4934C49.9905 20.4669 49.5823 19.4828 48.8564 18.757C48.1306 18.0311 47.1465 17.6229 46.12 17.6217H4.38792C3.36144 17.6229 2.37734 18.0311 1.6515 18.757C0.925672 19.4828 0.517388 20.4669 0.516226 21.4934V62.8066C0.517388 63.8331 0.925672 64.8172 1.6515 65.543C2.37734 66.2689 3.36144 66.6772 4.38792 66.6783H27.8012V67.1945Z" fill="#CCCCCC"/>
<path d="M132.309 56.084C132.843 56.4361 133.282 56.9154 133.586 57.479C133.889 58.0426 134.048 58.6728 134.048 59.313V60.2138H160.004C160.552 60.2138 161.077 59.9962 161.464 59.609C161.851 59.2218 162.069 58.6965 162.069 58.1489C162.069 57.6012 161.851 57.076 161.464 56.6888C161.077 56.3015 160.552 56.084 160.004 56.084H132.309Z" fill="#E6E6E6"/>
<path d="M134.324 49.3715C134.325 48.8241 134.543 48.2992 134.93 47.9121C135.317 47.525 135.842 47.3073 136.389 47.3066H145.165C145.713 47.3066 146.238 47.5242 146.625 47.9114C147.012 48.2987 147.23 48.8239 147.23 49.3715C147.23 49.9192 147.012 50.4444 146.625 50.8317C146.238 51.2189 145.713 51.4365 145.165 51.4365H136.389C135.842 51.4358 135.317 51.2181 134.93 50.831C134.543 50.4439 134.325 49.919 134.324 49.3715Z" fill="#E6E6E6"/>
<path d="M154.008 34.6587C154.008 34.1112 154.226 33.5863 154.613 33.1992C155 32.8121 155.525 32.5944 156.073 32.5938H190.144C190.691 32.5938 191.217 32.8113 191.604 33.1985C191.991 33.5858 192.209 34.111 192.209 34.6587C192.209 35.2063 191.991 35.7315 191.604 36.1188C191.217 36.506 190.691 36.7236 190.144 36.7236H156.073C155.525 36.7229 155 36.5052 154.613 36.1181C154.226 35.731 154.008 35.2061 154.008 34.6587Z" fill="#E6E6E6"/>
<path d="M168.844 25.8852C168.844 25.3378 169.062 24.8129 169.449 24.4258C169.836 24.0387 170.361 23.8209 170.909 23.8203H175.297C175.844 23.8203 176.369 24.0379 176.757 24.4251C177.144 24.8124 177.361 25.3376 177.361 25.8852C177.361 26.4329 177.144 26.9581 176.757 27.3453C176.369 27.7326 175.844 27.9501 175.297 27.9501H170.909C170.361 27.9495 169.836 27.7317 169.449 27.3446C169.062 26.9575 168.844 26.4327 168.844 25.8852Z" fill="#E6E6E6"/>
<path d="M134.305 97.6121H166.424C167.588 97.6108 168.703 97.148 169.526 96.3254C170.348 95.5028 170.811 94.3875 170.812 93.2242V42.4172C170.811 41.2539 170.348 40.1385 169.526 39.3159C168.703 38.4933 167.588 38.0306 166.424 38.0293H115.118C113.955 38.0306 112.84 38.4933 112.017 39.3159C111.195 40.1385 110.732 41.2539 110.73 42.4172V55.0099H111.247V42.4172C111.248 41.3907 111.656 40.4066 112.382 39.6808C113.108 38.955 114.092 38.5467 115.118 38.5455H166.424C167.451 38.5467 168.435 38.955 169.161 39.6808C169.887 40.4066 170.295 41.3907 170.296 42.4172V93.2242C170.295 94.2506 169.887 95.2347 169.161 95.9606C168.435 96.6864 167.451 97.0947 166.424 97.0959H134.305V97.6121Z" fill="#CCCCCC"/>
<path d="M170.558 67.1945H193.972C195.135 67.1932 196.25 66.7305 197.073 65.9079C197.895 65.0853 198.358 63.97 198.359 62.8066V21.4934C198.358 20.33 197.895 19.2147 197.073 18.3921C196.25 17.5695 195.135 17.1068 193.972 17.1055H152.239C151.076 17.1068 149.961 17.5695 149.138 18.3921C148.316 19.2147 147.853 20.33 147.852 21.4934V38.2849H148.368V21.4934C148.369 20.4669 148.777 19.4828 149.503 18.757C150.229 18.0311 151.213 17.6229 152.239 17.6217H193.972C194.998 17.6229 195.982 18.0311 196.708 18.757C197.434 19.4828 197.842 20.4669 197.843 21.4934V62.8066C197.842 63.8331 197.434 64.8172 196.708 65.543C195.982 66.2689 194.998 66.6772 193.972 66.6783H170.558V67.1945Z" fill="#CCCCCC"/>
<path d="M130.07 54.9258H68.1848C67.0218 54.9281 65.907 55.3911 65.0846 56.2135C64.2622 57.0359 63.7992 58.1507 63.7969 59.3137V120.613C63.7981 121.776 64.2608 122.892 65.0834 123.714C65.906 124.537 67.0214 125 68.1848 125.001H130.07C131.233 125 132.349 124.537 133.171 123.714C133.994 122.892 134.457 121.776 134.458 120.613V59.3137C134.457 58.1503 133.994 57.035 133.171 56.2123C132.349 55.3897 131.233 54.927 130.07 54.9258ZM133.942 120.613C133.94 121.639 133.532 122.623 132.806 123.349C132.08 124.075 131.096 124.483 130.07 124.485H68.1848C67.1583 124.483 66.1743 124.075 65.4485 123.349C64.7227 122.623 64.3143 121.639 64.3131 120.613V59.3137C64.3147 58.2874 64.7231 57.3035 65.4488 56.5778C66.1746 55.852 67.1584 55.4436 68.1848 55.442H130.07C131.096 55.4433 132.08 55.8516 132.806 56.5774C133.532 57.3032 133.94 58.2872 133.942 59.3137V120.613Z" fill="#3F3D56"/>
<path d="M125.196 78.7958H73.0571C72.5094 78.7958 71.9842 78.5783 71.597 78.191C71.2097 77.8038 70.9922 77.2786 70.9922 76.7309C70.9922 76.1833 71.2097 75.6581 71.597 75.2708C71.9842 74.8836 72.5094 74.666 73.0571 74.666H125.196C125.744 74.666 126.269 74.8836 126.656 75.2708C127.043 75.6581 127.261 76.1833 127.261 76.7309C127.261 77.2786 127.043 77.8038 126.656 78.191C126.269 78.5783 125.744 78.7958 125.196 78.7958Z" fill="#CCCCCC"/>
<path d="M110.353 70.0204H87.8969C87.3493 70.0204 86.8241 69.8029 86.4368 69.4156C86.0496 69.0284 85.832 68.5032 85.832 67.9555C85.832 67.4079 86.0496 66.8827 86.4368 66.4954C86.8241 66.1082 87.3493 65.8906 87.8969 65.8906H110.353C110.9 65.8906 111.426 66.1082 111.813 66.4954C112.2 66.8827 112.418 67.4079 112.418 67.9555C112.418 68.5032 112.2 69.0284 111.813 69.4156C111.426 69.8029 110.9 70.0204 110.353 70.0204Z" fill="#034737"/>
<path d="M95.384 91.1845H72.9282C72.3805 91.1845 71.8553 90.9669 71.4681 90.5797C71.0808 90.1925 70.8633 89.6672 70.8633 89.1196C70.8633 88.5719 71.0808 88.0467 71.4681 87.6595C71.8553 87.2722 72.3805 87.0547 72.9282 87.0547H95.384C95.9317 87.0547 96.4569 87.2722 96.8441 87.6595C97.2314 88.0467 97.4489 88.5719 97.4489 89.1196C97.4489 89.6672 97.2314 90.1925 96.8441 90.5797C96.4569 90.9669 95.9317 91.1845 95.384 91.1845Z" fill="#CCCCCC"/>
<path d="M95.384 100.22H72.9282C72.3805 100.22 71.8553 100.002 71.4681 99.6149C71.0808 99.2276 70.8633 98.7024 70.8633 98.1547C70.8633 97.6071 71.0808 97.0819 71.4681 96.6946C71.8553 96.3074 72.3805 96.0898 72.9282 96.0898H95.384C95.9317 96.0898 96.4569 96.3074 96.8441 96.6946C97.2314 97.0819 97.4489 97.6071 97.4489 98.1547C97.4489 98.7024 97.2314 99.2276 96.8441 99.6149C96.4569 100.002 95.9317 100.22 95.384 100.22Z" fill="#CCCCCC"/>
<path d="M95.384 109.253H72.9282C72.3805 109.253 71.8553 109.035 71.4681 108.648C71.0808 108.261 70.8633 107.736 70.8633 107.188C70.8633 106.64 71.0808 106.115 71.4681 105.728C71.8553 105.341 72.3805 105.123 72.9282 105.123H95.384C95.9317 105.123 96.4569 105.341 96.8441 105.728C97.2314 106.115 97.4489 106.64 97.4489 107.188C97.4489 107.736 97.2314 108.261 96.8441 108.648C96.4569 109.035 95.9317 109.253 95.384 109.253Z" fill="#CCCCCC"/>
<path d="M123.389 92.9568C125.517 92.9568 127.242 91.2316 127.242 89.1034C127.242 86.9752 125.517 85.25 123.389 85.25C121.26 85.25 119.535 86.9752 119.535 89.1034C119.535 91.2316 121.26 92.9568 123.389 92.9568Z" fill="#034737"/>
<path d="M123.007 90.5713C122.92 90.5715 122.836 90.5434 122.767 90.4914L122.762 90.4882L121.857 89.7954C121.772 89.7305 121.717 89.6346 121.703 89.5288C121.689 89.4229 121.717 89.3159 121.782 89.2312C121.847 89.1465 121.943 89.0911 122.049 89.0771C122.155 89.0631 122.262 89.0917 122.347 89.1567L122.933 89.6065L124.319 87.7981C124.351 87.7562 124.391 87.721 124.437 87.6946C124.483 87.6682 124.533 87.651 124.586 87.6441C124.638 87.6372 124.691 87.6406 124.742 87.6543C124.793 87.6679 124.841 87.6915 124.883 87.7236L124.875 87.7357L124.884 87.7237C124.968 87.7887 125.023 87.8847 125.037 87.9904C125.051 88.0962 125.023 88.2031 124.958 88.2879L123.328 90.4139C123.29 90.4629 123.241 90.5025 123.186 90.5297C123.13 90.557 123.069 90.571 123.007 90.5708L123.007 90.5713Z" fill="white"/>
<path d="M25.255 11.9788C24.0704 11.9788 22.9124 11.6275 21.9275 10.9694C20.9425 10.3113 20.1749 9.37586 19.7215 8.28144C19.2682 7.18702 19.1496 5.98274 19.3807 4.82092C19.6118 3.65909 20.1823 2.59188 21.0199 1.75425C21.8575 0.916618 22.9247 0.346186 24.0866 0.115086C25.2484 -0.116014 26.4527 0.00259587 27.5471 0.455921C28.6415 0.909246 29.5769 1.67692 30.2351 2.66188C30.8932 3.64683 31.2445 4.80482 31.2445 5.98941C31.2426 7.57735 30.611 9.09974 29.4882 10.2226C28.3653 11.3454 26.843 11.977 25.255 11.9788ZM25.255 0.516229C24.1725 0.516235 23.1143 0.837237 22.2143 1.43864C21.3142 2.04005 20.6127 2.89484 20.1985 3.89494C19.7842 4.89503 19.6758 5.9955 19.887 7.05719C20.0982 8.11889 20.6195 9.09411 21.3849 9.85954C22.1504 10.625 23.1256 11.1462 24.1873 11.3574C25.249 11.5686 26.3494 11.4602 27.3495 11.046C28.3496 10.6317 29.2044 9.9302 29.8058 9.03014C30.4072 8.13008 30.7282 7.0719 30.7282 5.98941C30.7266 4.53833 30.1494 3.14715 29.1233 2.12109C28.0973 1.09502 26.7061 0.517862 25.255 0.516229Z" fill="#CCCCCC"/>
<path d="M24.6875 8.17732C24.5586 8.17754 24.4331 8.13582 24.3299 8.05847L24.3235 8.05367L22.9766 7.02331C22.9142 6.97548 22.8618 6.91584 22.8225 6.84778C22.7832 6.77972 22.7576 6.70459 22.7473 6.62666C22.737 6.54873 22.7422 6.46954 22.7625 6.3936C22.7828 6.31766 22.8179 6.24647 22.8657 6.18409C22.9135 6.12171 22.9732 6.06936 23.0412 6.03002C23.1093 5.99069 23.1844 5.96515 23.2624 5.95486C23.3403 5.94456 23.4195 5.94972 23.4954 5.97003C23.5714 5.99034 23.6426 6.02541 23.7049 6.07324L24.5774 6.74227L26.639 4.05265C26.6868 3.9903 26.7464 3.93797 26.8145 3.89865C26.8825 3.85933 26.9576 3.8338 27.0355 3.82351C27.1134 3.81322 27.1925 3.81838 27.2684 3.83868C27.3444 3.85899 27.4155 3.89404 27.4779 3.94185L27.4652 3.95975L27.4784 3.94198C27.6042 4.03867 27.6865 4.18131 27.7072 4.33861C27.728 4.49591 27.6855 4.65502 27.5891 4.78102L25.1642 7.94318C25.108 8.01604 25.0359 8.075 24.9534 8.11548C24.8708 8.15596 24.78 8.17687 24.688 8.17661L24.6875 8.17732Z" fill="#CCCCCC"/>
<path d="M63.2472 32.887C62.0626 32.887 60.9046 32.5357 59.9196 31.8776C58.9347 31.2195 58.167 30.284 57.7137 29.1896C57.2604 28.0952 57.1418 26.8909 57.3729 25.7291C57.604 24.5673 58.1745 23.5001 59.0121 22.6624C59.8497 21.8248 60.9169 21.2544 62.0788 21.0233C63.2406 20.7922 64.4449 20.9108 65.5393 21.3641C66.6337 21.8175 67.5691 22.5851 68.2272 23.5701C68.8854 24.555 69.2366 25.713 69.2366 26.8976C69.2348 28.4856 68.6032 30.008 67.4804 31.1308C66.3575 32.2536 64.8351 32.8852 63.2472 32.887ZM63.2472 21.4244C62.1647 21.4244 61.1065 21.7455 60.2064 22.3469C59.3064 22.9483 58.6049 23.8031 58.1906 24.8032C57.7764 25.8033 57.668 26.9037 57.8792 27.9654C58.0904 29.0271 58.6117 30.0023 59.3771 30.7678C60.1426 31.5332 61.1178 32.0545 62.1795 32.2656C63.2412 32.4768 64.3416 32.3684 65.3417 31.9542C66.3418 31.5399 67.1966 30.8384 67.798 29.9383C68.3994 29.0383 68.7204 27.9801 68.7204 26.8976C68.7188 25.4465 68.1416 24.0553 67.1155 23.0293C66.0894 22.0032 64.6982 21.4261 63.2472 21.4244Z" fill="#CCCCCC"/>
<path d="M62.6797 29.0836C62.5508 29.0838 62.4253 29.0421 62.3221 28.9647L62.3157 28.9599L60.9688 27.9296C60.8428 27.833 60.7603 27.6903 60.7395 27.5329C60.7187 27.3755 60.7613 27.2163 60.8579 27.0903C60.9545 26.9644 61.0972 26.8819 61.2546 26.8611C61.4119 26.8403 61.5711 26.8829 61.6971 26.9795L62.5696 27.6485L64.6312 24.9589C64.679 24.8965 64.7386 24.8442 64.8066 24.8049C64.8747 24.7656 64.9498 24.7401 65.0277 24.7298C65.1056 24.7195 65.1847 24.7246 65.2606 24.7449C65.3365 24.7652 65.4077 24.8003 65.4701 24.8481L65.4574 24.866L65.4706 24.8482C65.5964 24.9449 65.6787 25.0876 65.6994 25.2449C65.7202 25.4022 65.6777 25.5613 65.5812 25.6873L63.1563 28.8494C63.1002 28.9223 63.0281 28.9812 62.9455 29.0217C62.863 29.0622 62.7722 29.0831 62.6802 29.0829L62.6797 29.0836Z" fill="#CCCCCC"/>
<path d="M123.389 101.99C125.517 101.99 127.242 100.265 127.242 98.1366C127.242 96.0084 125.517 94.2832 123.389 94.2832C121.26 94.2832 119.535 96.0084 119.535 98.1366C119.535 100.265 121.26 101.99 123.389 101.99Z" fill="#034737"/>
<path d="M123.007 99.6065C122.92 99.6066 122.836 99.5786 122.767 99.5266L122.762 99.5234L121.857 98.8306C121.815 98.7984 121.78 98.7583 121.753 98.7126C121.727 98.6668 121.71 98.6163 121.703 98.5639C121.696 98.5115 121.699 98.4583 121.713 98.4072C121.727 98.3562 121.75 98.3083 121.782 98.2664C121.814 98.2244 121.855 98.1892 121.9 98.1628C121.946 98.1363 121.997 98.1192 122.049 98.1122C122.101 98.1053 122.155 98.1088 122.206 98.1224C122.257 98.1361 122.305 98.1597 122.347 98.1918L122.933 98.6416L124.319 96.8333C124.351 96.7914 124.391 96.7562 124.437 96.7298C124.483 96.7033 124.533 96.6862 124.586 96.6792C124.638 96.6723 124.691 96.6758 124.742 96.6894C124.793 96.7031 124.841 96.7267 124.883 96.7588L124.875 96.7708L124.884 96.7589C124.968 96.8239 125.023 96.9198 125.037 97.0256C125.051 97.1313 125.023 97.2383 124.958 97.323L123.328 99.4491C123.29 99.498 123.241 99.5377 123.186 99.5649C123.13 99.5921 123.069 99.6062 123.007 99.606L123.007 99.6065Z" fill="white"/>
<path d="M123.389 111.043C125.517 111.043 127.242 109.318 127.242 107.189C127.242 105.061 125.517 103.336 123.389 103.336C121.26 103.336 119.535 105.061 119.535 107.189C119.535 109.318 121.26 111.043 123.389 111.043Z" fill="#034737"/>
<path d="M123.007 108.659C122.92 108.659 122.836 108.631 122.766 108.579L122.762 108.576L121.856 107.883C121.772 107.818 121.717 107.722 121.703 107.617C121.689 107.511 121.717 107.404 121.782 107.319C121.847 107.235 121.943 107.179 122.049 107.165C122.154 107.151 122.261 107.18 122.346 107.245L122.933 107.694L124.319 105.886C124.351 105.844 124.391 105.809 124.437 105.782C124.483 105.756 124.533 105.739 124.585 105.732C124.638 105.725 124.691 105.729 124.742 105.742C124.793 105.756 124.841 105.779 124.883 105.812L124.874 105.824L124.883 105.812C124.968 105.877 125.023 105.973 125.037 106.078C125.051 106.184 125.022 106.291 124.958 106.376L123.327 108.502C123.29 108.551 123.241 108.59 123.186 108.618C123.13 108.645 123.069 108.659 123.007 108.659L123.007 108.659Z" fill="white"/>
<path d="M99.131 49.6644C95.0659 49.595 93.2186 46.5108 93.2188 43.6745C93.219 40.8381 95.0665 37.7542 99.1225 37.6855H99.1312C103.188 37.7547 105.035 40.839 105.035 43.6753C105.035 46.5117 103.187 49.5957 99.131 49.6644ZM99.1269 38.2018C95.4224 38.2666 93.7352 41.0836 93.735 43.6745C93.7348 46.2664 95.4233 49.0849 99.131 49.1481C102.83 49.0854 104.518 46.2672 104.519 43.6753C104.519 41.0845 102.831 38.2674 99.1269 38.2018Z" fill="#034737"/>
<path d="M100.474 43.9976C101.51 45.7975 98.6662 46.5005 97.5781 45.4162L97.8507 44.8338C99.6197 46.3619 101.178 43.715 98.4764 43.9666V43.3285C100.951 43.528 99.5609 41.0373 97.9126 42.5108L97.6462 41.9285C98.9896 40.5343 102.005 42.2202 99.8764 43.6134C100.114 43.669 100.325 43.8047 100.474 43.9976Z" fill="#034737"/>
<path d="M135.521 32.887C134.336 32.887 133.178 32.5357 132.193 31.8776C131.208 31.2195 130.44 30.284 129.987 29.1896C129.534 28.0952 129.415 26.8909 129.646 25.7291C129.877 24.5673 130.448 23.5001 131.286 22.6624C132.123 21.8248 133.19 21.2544 134.352 21.0233C135.514 20.7922 136.718 20.9108 137.813 21.3641C138.907 21.8175 139.843 22.5851 140.501 23.5701C141.159 24.555 141.51 25.713 141.51 26.8976C141.508 28.4856 140.877 30.008 139.754 31.1308C138.631 32.2536 137.109 32.8852 135.521 32.887ZM135.521 21.4244C134.438 21.4244 133.38 21.7455 132.48 22.3469C131.58 22.9483 130.878 23.8031 130.464 24.8032C130.05 25.8033 129.941 26.9037 130.153 27.9654C130.364 29.0271 130.885 30.0023 131.651 30.7678C132.416 31.5332 133.391 32.0545 134.453 32.2656C135.515 32.4768 136.615 32.3684 137.615 31.9542C138.615 31.5399 139.47 30.8384 140.071 29.9383C140.673 29.0383 140.994 27.9801 140.994 26.8976C140.992 25.4465 140.415 24.0553 139.389 23.0293C138.363 22.0032 136.972 21.4261 135.521 21.4244Z" fill="#CCCCCC"/>
<path d="M137.182 28.241H136.556V29.102H135.776V28.241H133.855V27.6462L135.918 24.6914H136.556V27.6153H137.182V28.241ZM135.776 27.6153V25.9365L134.611 27.6153H135.776Z" fill="#CCCCCC"/>
<path d="M173.103 11.9788C171.918 11.9788 170.76 11.6275 169.775 10.9694C168.79 10.3113 168.022 9.37584 167.569 8.28141C167.116 7.18699 166.997 5.98272 167.228 4.8209C167.459 3.65907 168.03 2.59187 168.868 1.75424C169.705 0.916611 170.772 0.34618 171.934 0.115083C173.096 -0.116015 174.3 0.00259971 175.395 0.455926C176.489 0.909252 177.425 1.67693 178.083 2.66188C178.741 3.64683 179.092 4.80482 179.092 5.98941C179.09 7.57736 178.459 9.09975 177.336 10.2226C176.213 11.3454 174.691 11.977 173.103 11.9788ZM173.103 0.51623C172.02 0.516243 170.962 0.83725 170.062 1.43866C169.162 2.04007 168.46 2.89487 168.046 3.89496C167.632 4.89506 167.523 5.99553 167.735 7.05722C167.946 8.11891 168.467 9.09413 169.233 9.85956C169.998 10.625 170.973 11.1463 172.035 11.3574C173.097 11.5686 174.197 11.4602 175.197 11.046C176.197 10.6317 177.052 9.9302 177.653 9.03014C178.255 8.13008 178.576 7.0719 178.576 5.98941C178.574 4.53833 177.997 3.14715 176.971 2.12108C175.945 1.09501 174.554 0.517856 173.103 0.51623Z" fill="#CCCCCC"/>
<path d="M173.994 5.52837C174.201 5.64296 174.371 5.81504 174.483 6.02393C174.602 6.25004 174.662 6.50255 174.657 6.75794C174.662 7.02635 174.593 7.29107 174.458 7.52307C174.323 7.74682 174.125 7.92566 173.888 8.03716C173.619 8.16366 173.325 8.22621 173.027 8.2199C172.749 8.21966 172.472 8.17254 172.21 8.08052C171.966 8.00165 171.74 7.87419 171.547 7.70583L171.813 7.12344C172.159 7.4092 172.591 7.57064 173.04 7.58194C173.27 7.59773 173.498 7.5233 173.675 7.37436C173.818 7.21125 173.896 7.00151 173.895 6.78469C173.894 6.56787 173.813 6.35896 173.669 6.19735C173.588 6.12236 173.492 6.06428 173.389 6.02652C173.285 5.98876 173.175 5.97207 173.065 5.97744C172.897 5.97635 172.73 6.00901 172.575 6.07348C172.422 6.13749 172.285 6.23359 172.173 6.35529H171.689V3.75977H174.452V4.37921H172.47V5.58093C172.704 5.42482 172.981 5.34481 173.263 5.3518C173.518 5.34644 173.769 5.40728 173.994 5.52837Z" fill="#CCCCCC"/>
</svg>
