<svg width="1920" height="1362" viewBox="0 0 1920 1362" fill="none" xmlns="http://www.w3.org/2000/svg">
<g opacity="0.25">
<path d="M0.207031 1303.84H1919.56M0.207031 1266.6H1919.56M0.207031 1229.36H1919.56M0.207031 1192.13H1919.56M0.207031 1154.9H1919.56M0.207031 1117.67H1919.56M0.207031 1080.43H1919.56M0.207031 1043.2H1919.56M0.207031 1005.96H1919.56M0.207031 968.726H1919.56M0.207031 931.495H1919.56M0.207031 894.264H1919.56M0.207031 857.029H1919.56M0.207031 819.796H1919.56M0.207031 782.562H1919.56M0.207031 745.328H1919.56M0.207031 708.094H1919.56M0.207031 670.861H1919.56M0.207031 633.626H1919.56M0.207031 596.393H1919.56M0.207031 559.16H1919.56M0.207031 521.925H1919.56M0.207031 484.692H1919.56M0.207031 447.458H1919.56M0.207031 410.224H1919.56M0.207031 372.99H1919.56M0.207031 335.755H1919.56M0.207031 298.521H1919.56M0.207031 261.287H1919.56M0.207031 224.053H1919.56M0.207031 186.82H1919.56M0.207031 149.585H1919.56M0.207031 112.352H1919.56M0.207031 75.118H1919.56M0.207031 37.8841H1919.56M0.207031 0.650391H1919.56M0.651531 1.11581V1304.3M36.1949 1.11581V1304.3M71.7383 1.11581V1304.3M107.282 1.11581V1304.3M142.825 1.11581V1304.3M178.369 1.11581V1304.3M213.913 1.11581V1304.3M249.456 1.11581V1304.3M285 1.11581V1304.3M320.543 1.11581V1304.3M356.087 1.11581V1304.3M391.63 1.11581V1304.3M427.174 1.11581V1304.3M462.717 1.11581V1304.3M498.261 1.11581V1304.3M533.804 1.11581V1304.3M569.349 1.11581V1304.3M604.893 1.11581V1304.3M640.436 1.11581V1304.3M675.98 1.11581V1304.3M711.524 1.11581V1304.3M747.067 1.11581V1304.3M782.611 1.11581V1304.3M818.154 1.11581V1304.3M853.697 1.11581V1304.3M889.239 1.11581V1304.3M924.782 1.11581V1304.3M960.326 1.11581V1304.3M995.869 1.11581V1304.3M1031.41 1.11581V1304.3M1066.95 1.11581V1304.3M1102.5 1.11581V1304.3M1138.05 1.11581V1304.3M1173.59 1.11581V1304.3M1209.13 1.11581V1304.3M1244.67 1.11581V1304.3M1280.21 1.11581V1304.3M1315.76 1.11581V1304.3M1351.31 1.11581V1304.3M1386.85 1.11581V1304.3M1422.39 1.11581V1304.3M1457.93 1.11581V1304.3M1493.48 1.11581V1304.3M1529.02 1.11581V1304.3M1564.57 1.11581V1304.3M1600.11 1.11581V1304.3M1635.65 1.11581V1304.3M1671.2 1.11581V1304.3M1706.74 1.11581V1304.3M1742.28 1.11581V1304.3M1777.82 1.11581V1304.3M1813.37 1.11581V1304.3M1848.92 1.11581V1304.3M1884.46 1.11581V1304.3M1920 1.11581V1304.3" stroke="#E0E0E0" stroke-width="1.26344"/>
<path d="M1173.14 485.157H1208.68V522.391H1173.14V485.157ZM888.793 485.157H924.337V522.391H888.793V485.157ZM888.793 894.729H924.337V931.961H888.793V894.729ZM639.989 596.859H675.532V634.092H639.989V596.859ZM71.293 75.585H106.836V112.819H71.293V75.585ZM817.706 75.585H853.25V112.819H817.706V75.585ZM1350.86 224.52H1386.4V261.754H1350.86V224.52ZM888.793 224.52H924.337V261.754H888.793V224.52ZM995.424 336.221H1030.96V373.456H995.424V336.221ZM1315.32 373.456H1350.86V410.689H1315.32V373.456ZM711.076 187.286H746.619V224.52H711.076V187.286ZM213.467 522.391H249.01V559.624H213.467V522.391ZM1279.77 634.092H1315.32V671.326H1279.77V634.092ZM1421.95 894.729H1457.49V931.961H1421.95V894.729ZM1528.57 559.624H1564.12V596.859H1528.57V559.624ZM1670.75 745.794H1706.29V783.027H1670.75V745.794ZM1599.67 187.286H1635.21V224.52H1599.67V187.286ZM71.293 336.221H106.836V373.456H71.293V336.221ZM71.293 931.961H106.836V969.194H71.293V931.961ZM426.728 150.053H462.271V187.286H426.728V150.053ZM284.554 298.988H320.097V336.221H284.554V298.988ZM497.815 522.391H533.358V559.624H497.815V522.391ZM497.815 1118.13H533.358V1155.37H497.815V1118.13ZM497.815 857.495H533.358V894.729H497.815V857.495ZM1208.68 150.053H1244.23V187.286H1208.68V150.053Z" fill="#E8E8E8"/>
</g>
<rect width="1920" height="1362" fill="url(#paint0_linear_8841_3314)"/>
<defs>
<linearGradient id="paint0_linear_8841_3314" x1="960" y1="0" x2="960" y2="1362" gradientUnits="userSpaceOnUse">
<stop stop-color="white" stop-opacity="0"/>
<stop offset="1" stop-color="white"/>
</linearGradient>
</defs>
</svg>
