<svg width="1844" height="807" viewBox="0 0 1844 807" fill="none" xmlns="http://www.w3.org/2000/svg">
<rect x="0.5" y="0.5" width="1843" height="806" fill="black" stroke="#2DA771"/>
<line x1="0.5" x2="0.5" y2="807" stroke="#2DA771"/>
<g opacity="0.5">
<line x1="1844" y1="44.5" y2="44.5" stroke="#2DA771"/>
<line x1="1844" y1="124.5" y2="124.5" stroke="#2DA771"/>
<line x1="1844" y1="204.5" y2="204.5" stroke="#2DA771"/>
<line x1="1844" y1="284.5" y2="284.5" stroke="#2DA771"/>
<line x1="1844" y1="364.5" y2="364.5" stroke="#2DA771"/>
<line x1="1844" y1="444.5" y2="444.5" stroke="#2DA771"/>
<line x1="1844" y1="524.5" y2="524.5" stroke="#2DA771"/>
<line x1="1844" y1="604.5" y2="604.5" stroke="#2DA771"/>
<line x1="1844" y1="684.5" y2="684.5" stroke="#2DA771"/>
<line x1="1844" y1="764.5" y2="764.5" stroke="#2DA771"/>
</g>
<g opacity="0.5">
<line x1="42.5" x2="42.5" y2="807" stroke="#2DA771"/>
<line x1="122.5" x2="122.5" y2="807" stroke="#2DA771"/>
<line x1="202.5" x2="202.5" y2="807" stroke="#2DA771"/>
<line x1="282.5" x2="282.5" y2="807" stroke="#2DA771"/>
<line x1="362.5" x2="362.5" y2="807" stroke="#2DA771"/>
<line x1="442.5" x2="442.5" y2="807" stroke="#2DA771"/>
<line x1="522.5" x2="522.5" y2="807" stroke="#2DA771"/>
<line x1="602.5" x2="602.5" y2="807" stroke="#2DA771"/>
<line x1="682.5" x2="682.5" y2="807" stroke="#2DA771"/>
<line x1="762.5" x2="762.5" y2="807" stroke="#2DA771"/>
<line x1="842.5" x2="842.5" y2="807" stroke="#2DA771"/>
<line x1="922.5" x2="922.5" y2="807" stroke="#2DA771"/>
<line x1="1002.5" x2="1002.5" y2="807" stroke="#2DA771"/>
<line x1="1082.5" x2="1082.5" y2="807" stroke="#2DA771"/>
<line x1="1162.5" x2="1162.5" y2="807" stroke="#2DA771"/>
<line x1="1242.5" x2="1242.5" y2="807" stroke="#2DA771"/>
<line x1="1322.5" x2="1322.5" y2="807" stroke="#2DA771"/>
<line x1="1402.5" x2="1402.5" y2="807" stroke="#2DA771"/>
<line x1="1482.5" x2="1482.5" y2="807" stroke="#2DA771"/>
<line x1="1562.5" x2="1562.5" y2="807" stroke="#2DA771"/>
<line x1="1642.5" x2="1642.5" y2="807" stroke="#2DA771"/>
<line x1="1722.5" x2="1722.5" y2="807" stroke="#2DA771"/>
<line x1="1802.5" x2="1802.5" y2="807" stroke="#2DA771"/>
</g>
</svg>
