<svg version="1.1" id="Layer_1" xmlns="http://www.w3.org/2000/svg" xmlns:xlink="http://www.w3.org/1999/xlink" x="0px" y="0px"
	 width="100%" viewBox="0 0 1024 1024" enable-background="new 0 0 1024 1024" xml:space="preserve">
<path fill="#000000" opacity="1.000000" stroke="none" 
	d="
M697.693481,633.237061 
	C675.938965,595.359314 654.364624,557.800476 632.784180,520.245056 
	C632.037537,518.945679 631.275574,517.650879 630.442505,516.406311 
	C626.858093,511.051727 624.717590,510.294891 618.730347,512.914917 
	C603.406067,519.620789 589.698669,529.179749 575.532593,537.894287 
	C565.461914,544.089478 565.430359,541.929871 572.038452,553.011780 
	C590.973694,584.766296 609.659241,616.669800 628.598450,648.421936 
	C638.491699,665.008301 649.221191,681.114502 658.648987,697.954895 
	C669.231628,716.858032 680.558960,735.299805 691.688293,753.864014 
	C696.919128,762.589294 702.063538,771.334473 706.539917,780.467407 
	C707.749084,782.934265 710.126953,785.677612 706.611206,787.869995 
	C703.176147,790.012146 701.315613,786.954102 699.909790,784.626526 
	C690.006714,768.230530 678.863037,752.591431 669.961548,735.584534 
	C668.899048,733.554565 667.699585,731.596252 666.201599,728.970215 
	C663.274780,731.971252 660.844849,734.624695 658.245911,737.100647 
	C644.713257,749.993469 628.260010,755.173279 609.909485,755.140442 
	C555.244812,755.042480 500.577057,755.804932 445.916992,754.816772 
	C436.071198,754.638733 426.286316,755.440430 416.459503,755.393616 
	C385.307281,755.245239 359.561462,734.084778 353.747589,703.553345 
	C352.439575,696.684326 351.682037,689.761353 351.692017,682.732544 
	C351.771332,626.900574 351.735046,571.068420 351.863983,515.236572 
	C351.874359,510.741943 351.356079,507.707764 345.799805,508.213348 
	C343.053009,508.463257 341.673706,506.304688 340.931213,503.958252 
	C340.075409,501.253632 339.621185,498.472595 339.655853,495.598206 
	C339.754303,487.433167 339.843781,479.266296 339.774872,471.101471 
	C339.718719,464.447144 341.258362,462.477020 347.895844,461.740173 
	C350.281616,461.475342 353.057129,461.677948 352.365448,458.117584 
	C351.796173,455.187439 352.715668,450.750122 347.312592,451.341003 
	C341.858246,451.937469 339.368103,448.713104 339.237732,444.066071 
	C338.897461,431.934753 338.473145,419.777344 339.662262,407.659821 
	C340.069550,403.509552 342.440186,401.368530 346.721924,401.689178 
	C349.908264,401.927826 352.268158,400.947388 351.592896,397.327454 
	C350.977234,394.027100 354.421509,388.602966 347.401337,388.232147 
	C343.521271,388.027191 341.746429,385.958374 341.622986,382.156464 
	C341.547455,379.829865 341.117188,377.512604 341.078979,375.187347 
	C340.955475,367.674194 341.244263,366.939178 348.394531,365.027374 
	C351.870850,364.097931 351.754425,362.004852 351.794617,359.459320 
	C351.946869,349.815186 351.413391,340.198517 352.469299,330.521912 
	C354.327728,313.491211 362.821960,300.735474 375.782501,290.217224 
	C387.736725,280.515625 401.809082,278.222534 416.482269,277.687958 
	C465.629333,275.897217 514.780945,278.669189 563.926025,277.587311 
	C581.421814,277.202148 598.902405,277.662476 616.386597,277.865265 
	C643.313782,278.177551 667.554871,296.728394 673.773132,321.580078 
	C675.560242,328.722290 675.599731,336.027771 675.520569,343.388092 
	C675.275085,366.218475 675.398071,389.052582 675.292725,411.884888 
	C675.279480,414.757812 676.408325,416.314240 679.210205,416.593689 
	C684.262451,417.097504 685.962646,420.495239 686.047241,424.888336 
	C686.419373,444.214996 686.596436,463.540955 685.337646,482.852722 
	C685.086243,486.708984 682.443542,486.497589 680.007935,486.279877 
	C675.252869,485.854858 674.291931,487.435577 674.743347,492.300934 
	C675.664124,502.225281 675.682129,512.251770 675.704041,522.236938 
	C675.737732,537.545593 677.316956,552.868103 675.437988,568.164368 
	C675.036865,571.430420 675.727417,574.402771 677.406921,577.247803 
	C699.762573,615.119629 722.093689,653.005920 744.417297,690.896667 
	C750.588623,701.371521 756.733887,711.861938 762.850464,722.368774 
	C764.698181,725.542664 766.147827,728.867554 766.863281,732.534607 
	C767.473328,735.661804 767.025269,738.562012 764.110168,739.808533 
	C761.403870,740.965759 759.924988,738.165466 758.784607,736.300537 
	C753.223877,727.206360 747.853271,717.995850 742.422485,708.822388 
	C727.570618,683.734924 712.722351,658.645264 697.693481,633.237061 
M441.122742,467.687958 
	C449.670959,455.316223 459.683411,444.293640 470.424561,433.734100 
	C503.443939,401.273010 535.146545,367.515350 567.154114,334.061371 
	C570.203613,330.874115 573.508972,328.022278 577.356750,325.590973 
	C578.758850,328.238342 578.268860,330.607758 578.263977,332.874023 
	C578.233826,346.864166 577.149658,360.822906 577.254639,374.829193 
	C577.370605,390.305298 577.785217,405.791168 576.404175,421.265442 
	C575.331970,433.278870 572.341858,444.192780 562.367188,452.021729 
	C559.745605,454.079346 557.038513,456.027985 553.362366,458.782135 
	C555.169983,458.415833 555.693848,458.429993 556.089722,458.211853 
	C565.711060,452.909241 575.394775,447.713165 584.903381,442.214600 
	C591.670166,438.301544 593.913208,438.476807 598.804138,444.766968 
	C602.279053,449.235992 605.542480,453.869232 608.918274,458.415771 
	C610.458984,460.490845 611.137451,462.695526 609.107483,464.717377 
	C606.830811,466.984863 607.897888,468.563385 609.446289,470.691315 
	C615.125977,478.496704 621.684326,485.789337 625.888245,494.498688 
	C628.215942,499.321136 629.790588,504.095337 635.288879,506.326599 
	C637.259583,507.126373 638.205872,509.453613 639.284973,511.335236 
	C644.254395,520.000732 649.199524,528.680176 654.172485,537.343628 
	C656.801758,541.923950 659.470337,546.481750 662.121155,551.049683 
	C661.991943,480.052673 663.620056,409.419281 661.853333,338.788422 
	C661.197205,312.558533 641.254639,293.140869 614.836060,292.329468 
	C603.327942,291.975983 603.321228,292.195038 600.354553,303.406982 
	C597.658936,313.594604 588.692871,320.200104 579.110779,319.125549 
	C569.185669,318.012543 559.235229,317.290314 549.238220,317.306427 
	C536.574646,317.326874 523.910278,317.394379 511.247742,317.278809 
	C489.927277,317.084229 468.601959,316.978638 447.290955,316.390900 
	C438.157501,316.139069 431.039062,309.796600 428.490997,301.112732 
	C425.919830,292.350098 425.919830,292.350037 416.574524,292.339111 
	C415.741394,292.338135 414.908264,292.336914 414.075134,292.337433 
	C386.222015,292.355713 366.382782,311.984680 366.359406,339.716003 
	C366.314178,393.354218 366.269257,446.992706 366.382751,500.630707 
	C366.449005,531.947327 366.832123,563.263184 367.052338,594.579529 
	C367.140198,607.074890 367.161530,619.570679 367.241943,632.066162 
	C367.255829,634.223267 367.066986,636.505554 368.414734,638.351929 
	C369.632233,640.019836 370.394165,642.657410 373.010132,642.367493 
	C375.392578,642.103271 376.510925,639.959534 377.196320,637.848755 
	C378.532959,633.732422 379.918304,629.618530 380.965515,625.424255 
	C383.243073,616.301941 386.272186,614.354431 395.818298,614.520386 
	C400.247406,614.597412 405.490417,615.584290 408.894714,611.397949 
	C414.015106,605.101379 417.778442,598.151611 418.024506,589.698730 
	C418.462830,574.641846 423.056885,560.258667 425.388123,545.505981 
	C425.491180,544.853760 425.698334,544.200195 425.964813,543.594788 
	C426.906403,541.455505 427.000732,545.201416 428.123779,543.427124 
	C427.509125,531.885193 428.465332,519.920105 428.878204,507.950928 
	C429.365845,493.812836 432.583710,480.255615 441.122742,467.687958 
M538.503906,743.691284 
	C562.002869,743.748596 585.502747,743.696228 609.000488,743.898132 
	C627.676636,744.058533 642.830505,736.868958 655.305420,723.147095 
	C658.497437,719.636047 658.553955,716.935852 656.211853,713.081482 
	C641.251404,688.461853 626.428772,663.758301 611.619995,639.046875 
	C599.120361,618.188782 586.744995,597.256287 574.226501,576.409607 
	C568.310669,566.558228 561.406128,557.208435 556.435547,546.913879 
	C553.130493,540.068726 548.926819,533.978149 544.818420,527.779419 
	C540.847900,521.788757 538.787354,514.705383 531.780945,510.378387 
	C526.290771,506.987793 523.278931,500.250244 520.001160,494.446503 
	C516.240601,487.787903 516.675049,486.179718 522.659790,481.459137 
	C529.998596,475.670563 537.375977,469.930847 544.736633,464.169983 
	C539.537231,465.567505 534.459961,466.068909 529.285217,465.990295 
	C514.134155,465.760040 498.972778,465.155853 483.834717,465.513184 
	C474.979492,465.722198 465.728546,465.327271 457.777863,470.750580 
	C445.670380,479.009247 440.664398,491.325256 440.506836,505.076019 
	C439.996979,549.569153 440.328522,594.071350 440.201111,638.569702 
	C440.109070,670.725830 440.876648,702.888550 439.435852,735.037415 
	C439.071198,743.174316 439.777527,743.528870 448.048401,743.700684 
	C477.868561,744.320007 507.687073,742.526306 538.503906,743.691284 
M494.604492,453.652100 
	C507.260040,453.710632 519.898682,453.981354 532.475586,455.656860 
	C536.416870,456.181915 540.522766,456.851898 544.329712,455.167511 
	C556.337097,449.854797 563.552734,440.766418 565.695251,427.693146 
	C567.351990,417.584290 566.525452,407.415710 566.622253,397.274323 
	C566.766541,382.166595 566.659729,367.056488 566.659729,351.722626 
	C560.459473,356.465057 466.781982,451.351562 465.025085,454.980377 
	C474.780182,452.758453 484.206421,453.102356 494.604492,453.652100 
M612.656067,505.018402 
	C614.935059,504.168549 617.478394,503.784546 619.271301,501.193939 
	C613.666077,492.986206 608.034973,484.761414 602.429565,476.519104 
	C600.853943,474.202271 599.196899,474.299408 596.976990,475.788025 
	C582.043457,485.801849 567.105103,495.811035 552.034058,505.615356 
	C547.904785,508.301666 547.288635,511.255341 549.788269,515.191528 
	C552.820068,519.965820 556.257446,524.527771 558.823914,529.537781 
	C560.799988,533.395325 562.304626,533.643066 565.919067,531.368469 
	C580.854675,521.969177 596.110718,513.097351 612.656067,505.018402 
M575.477112,474.965485 
	C582.693726,469.842438 590.866516,466.064148 597.179626,460.564758 
	C593.867310,457.039886 591.065796,454.058655 588.208008,451.017517 
	C585.836609,452.733551 583.526855,454.613159 581.022888,456.183105 
	C565.250244,466.072296 549.122925,475.382172 533.535645,485.585419 
	C529.088562,488.496399 531.198303,490.795990 532.727295,493.698242 
	C534.295532,496.674957 535.788696,498.446503 539.606506,496.118286 
	C551.251099,489.017120 563.110168,482.267792 575.477112,474.965485 
M553.644592,302.022980 
	C554.946167,300.490936 555.242859,298.708466 554.609924,296.875702 
	C553.781921,294.478394 552.393311,292.433624 549.485291,293.888214 
	C546.586731,295.338013 545.468445,298.054565 546.663757,301.044128 
	C547.927246,304.204071 550.365051,304.567932 553.644592,302.022980 
z"/>
<path fill="#000000" opacity="1.000000" stroke="none" 
	d="
M232.856445,795.085693 
	C221.486664,773.086792 222.617249,751.632751 233.202316,730.044434 
	C237.272202,721.743896 238.444534,712.556885 238.500748,703.320557 
	C238.512314,701.418457 238.367371,699.659729 240.741608,698.158264 
	C244.002563,702.750977 245.769440,708.097656 248.039093,713.112122 
	C259.205780,737.782715 276.251648,757.695251 297.159851,774.546997 
	C297.289490,774.651489 297.411926,774.801147 297.561096,774.839905 
	C304.113953,776.544006 308.326599,781.724426 313.581909,785.390991 
	C321.524536,790.932556 330.433594,794.770935 339.657562,797.788513 
	C339.974030,797.892029 340.307190,797.950256 340.614868,798.073792 
	C357.043976,804.666992 356.163391,802.649292 355.985687,818.460205 
	C355.946045,821.986389 356.203583,825.657043 358.025574,828.652832 
	C361.064941,833.650452 361.012970,839.089661 361.400330,844.554932 
	C361.639374,847.926819 360.117096,849.971008 357.126038,851.043274 
	C351.950836,852.898438 346.761627,854.755737 341.189972,855.025208 
	C325.931244,855.763184 310.649811,857.075928 295.494232,853.911926 
	C278.563477,850.377319 265.432526,840.941895 255.155930,827.348816 
	C247.843048,817.675842 240.372452,808.100037 234.150879,797.649780 
	C233.726044,796.936218 233.388535,796.170593 232.856445,795.085693 
z"/>
<path fill="#000000" opacity="1.000000" stroke="none" 
	d="
M871.212402,241.733551 
	C875.635132,246.025070 879.317261,250.638947 884.796143,253.126709 
	C885.376770,253.390320 886.017761,253.873260 886.284607,254.422607 
	C890.221863,262.526703 895.364319,270.159393 894.547424,279.919891 
	C894.009705,286.345459 893.563354,292.438873 887.849182,296.841553 
	C884.728882,299.245697 881.425842,301.502411 877.661621,301.743774 
	C863.214661,302.670197 848.445190,304.051971 835.565063,295.470795 
	C827.565063,290.140900 820.586975,283.283630 812.619141,277.897461 
	C796.342834,266.894928 786.647888,251.678268 781.656433,232.977570 
	C780.629211,229.128891 778.239014,225.625610 775.046753,223.165207 
	C771.555237,220.474167 769.926208,216.677704 767.869202,213.097183 
	C766.860168,211.340881 766.921753,209.496109 768.463501,208.065521 
	C769.855713,206.773743 771.565979,207.034409 773.153198,207.763367 
	C775.962280,209.053497 778.221741,211.070999 779.600891,213.801804 
	C786.961731,228.376755 800.113953,232.354813 814.735718,231.484360 
	C824.665344,230.893234 834.626343,230.101746 844.576721,229.491898 
	C851.832275,229.047241 857.536072,233.253265 863.473694,236.535675 
	C866.081421,237.977249 868.461853,239.829971 871.212402,241.733551 
z"/>
<path fill="#000000" opacity="1.000000" stroke="none" 
	d="
M734.566650,175.458206 
	C730.683105,172.521744 728.386169,168.538055 724.739624,165.792694 
	C716.509094,159.596146 717.122925,154.514343 726.717041,150.131317 
	C731.208557,148.079391 735.954285,147.676086 740.490479,150.773407 
	C743.084900,152.544876 745.998779,153.845032 748.749084,155.392471 
	C753.288208,157.946381 755.423584,161.686310 754.475098,166.982605 
	C753.889587,170.251907 753.659729,173.606522 752.814636,176.802353 
	C751.710327,180.978119 748.413025,182.503036 744.312683,181.083191 
	C740.828308,179.876663 737.583862,178.215240 734.566650,175.458206 
z"/>
<path fill="#000000" opacity="1.000000" stroke="none" 
	d="
M722.601868,528.196411 
	C715.202454,528.327271 711.995239,524.978149 714.490662,520.194397 
	C715.774536,517.733337 717.889832,516.741089 720.630554,516.662537 
	C723.737610,516.573364 726.757751,516.735718 728.691895,519.555054 
	C731.109436,523.078796 728.993774,526.205139 722.601868,528.196411 
z"/>
<path fill="#000000" opacity="1.000000" stroke="none" 
	d="
M478.975586,911.901855 
	C474.075500,908.575134 473.475067,904.258911 475.428345,899.476990 
	C477.475739,894.464478 480.448639,890.082092 485.764282,888.010376 
	C487.490967,887.337341 489.455536,886.308105 491.938782,888.692139 
	C482.142975,895.083130 472.674988,901.932373 484.055237,914.848694 
	C482.464630,913.923889 480.874023,912.999084 478.975586,911.901855 
z"/>
<path fill="#000000" opacity="1.000000" stroke="none" 
	d="
M489.363647,908.074463 
	C485.567505,909.493591 484.481415,906.860413 484.184906,904.483704 
	C483.775360,901.200867 485.856140,898.984802 488.830017,897.673157 
	C491.160706,896.645203 493.385651,896.679688 495.124969,898.709412 
	C496.223877,899.991577 495.777069,901.563965 494.209106,901.757324 
	C490.399475,902.227234 490.300476,905.163025 489.363647,908.074463 
z"/>
</svg>