<svg width="1245" height="220" viewBox="0 0 1245 220" fill="none" xmlns="http://www.w3.org/2000/svg">
<g clip-path="url(#clip0_11523_38421)">
<path d="M360.674 181.038C350.927 181.178 341.243 179.443 332.145 175.928C323.912 172.722 316.425 167.844 310.154 161.599C304 155.392 299.199 147.967 296.056 139.795C292.784 131.084 291.171 121.832 291.301 112.522C291.193 103.231 292.948 94.0127 296.46 85.4167C299.844 77.2661 304.871 69.9074 311.224 63.8039C317.743 57.561 325.438 52.6893 333.857 49.4749C342.963 45.9881 352.641 44.2543 362.386 44.3643C369.276 44.3439 376.136 45.3006 382.76 47.2062C388.94 48.968 394.852 51.5714 400.329 54.9438C405.34 57.9884 409.841 61.8087 413.666 66.2637L394.314 86.8496C391.382 83.9696 388.136 81.4301 384.638 79.2791C381.305 77.2705 377.745 75.6672 374.035 74.5028C370.141 73.2884 366.083 72.6842 362.005 72.7117C354.403 72.6276 346.957 74.8883 340.674 79.1887C334.39 83.4891 329.571 89.6222 326.867 96.7604C324.95 101.79 323.99 107.137 324.038 112.522C323.989 117.949 325.015 123.331 327.057 128.356C329.966 135.604 334.98 141.805 341.447 146.15C347.914 150.495 355.533 152.782 363.313 152.715C367.064 152.739 370.79 152.101 374.32 150.828C377.564 149.666 380.58 147.944 383.236 145.741C385.719 143.614 387.763 141.018 389.25 138.099C390.793 135.152 391.609 131.876 391.628 128.547V123.77L395.764 130.195H359.366V104.952H421.179C421.477 106.826 421.667 108.716 421.75 110.612C421.75 113 421.964 115.388 422.035 117.585C422.106 119.782 422.035 121.549 422.035 122.672C422.143 130.742 420.572 138.746 417.423 146.171C414.461 153.143 410.08 159.415 404.561 164.584C398.924 169.84 392.328 173.952 385.137 176.692C377.319 179.642 369.025 181.115 360.674 181.038Z" fill="white"/>
<path d="M438.676 179.142V78.8399H467.205L468.512 111.486L462.878 105.253C464.327 100.031 466.803 95.1535 470.16 90.9083C473.516 86.6631 477.685 83.1361 482.42 80.5355C486.974 78.0318 492.087 76.7333 497.279 76.7622C499.383 76.7525 501.484 76.9363 503.555 77.3115C505.368 77.6643 507.161 78.1107 508.928 78.6488L500.655 112.083C498.935 111.068 497.065 110.334 495.115 109.91C492.742 109.331 490.307 109.042 487.864 109.05C485.245 109.076 482.656 109.603 480.233 110.602C477.947 111.479 475.89 112.867 474.218 114.662C472.561 116.474 471.255 118.579 470.367 120.871C469.4 123.467 468.924 126.22 468.964 128.991V179.142H438.676Z" fill="white"/>
<path d="M562.295 181.026C552.632 181.206 543.087 178.861 534.598 174.22C526.529 169.753 519.801 163.193 515.115 155.225C510.43 147.256 507.958 138.171 507.958 128.916C507.958 119.662 510.43 110.576 515.115 102.608C519.801 94.6395 526.529 88.0799 534.598 83.613C543.161 79.1575 552.664 76.832 562.307 76.832C571.95 76.832 581.453 79.1575 590.016 83.613C597.884 87.9702 604.45 94.3599 609.035 102.121C613.74 110.249 616.141 119.516 615.977 128.916C616.144 138.325 613.743 147.6 609.035 155.735C604.449 163.49 597.883 169.872 590.016 174.22C581.52 178.866 571.967 181.211 562.295 181.026ZM562.295 154.971C566.549 155.051 570.733 153.871 574.325 151.58C577.861 149.294 580.72 146.093 582.598 142.314C584.655 138.161 585.629 133.551 585.427 128.916C585.629 124.236 584.656 119.579 582.598 115.375C580.735 111.566 577.875 108.338 574.325 106.038C570.735 103.739 566.552 102.551 562.295 102.623C558.018 102.564 553.815 103.75 550.194 106.038C546.598 108.313 543.701 111.545 541.826 115.375C539.775 119.565 538.803 124.204 538.996 128.869C538.795 133.503 539.768 138.113 541.826 142.266C543.717 146.067 546.612 149.272 550.194 151.532C553.812 153.828 558.015 155.023 562.295 154.971Z" fill="white"/>
<path d="M649.028 179.146L616.148 78.8438H647.911L666.407 144.04L662.46 143.276L683.144 92.695H700.808L722.728 143.467L718.401 143.849L736.802 78.9154H768.564L734.567 179.218H712.267L690.656 125.413L692.915 125.795L671.304 179.146H649.028Z" fill="white"/>
<path d="M823.692 181.027C817.323 181.064 810.987 180.105 804.911 178.185C799.069 176.332 793.597 173.462 788.744 169.707C783.713 165.765 779.332 161.05 775.764 155.736L785.915 144.393C790.542 151.614 796.745 157.682 804.055 162.137C810.474 165.6 817.667 167.359 824.952 167.247C830.23 167.309 835.469 166.344 840.382 164.405C844.644 162.774 848.401 160.039 851.27 156.477C853.886 153.148 855.28 149.015 855.217 144.775C855.258 142.128 854.781 139.499 853.814 137.037C852.847 134.744 851.405 132.684 849.582 130.995C847.502 129.073 845.156 127.464 842.616 126.219C839.548 124.711 836.369 123.441 833.107 122.422C829.541 121.307 825.578 120.177 821.22 119.031C815.473 117.729 809.85 115.931 804.411 113.657C799.948 111.801 795.819 109.219 792.192 106.015C788.964 103.105 786.401 99.529 784.679 95.5311C782.909 91.0843 782.052 86.3242 782.159 81.5365C782.112 76.5644 783.245 71.6525 785.464 67.2076C787.649 62.7567 790.753 58.8245 794.569 55.6728C798.663 52.3975 803.321 49.9044 808.31 48.3173C813.766 46.5263 819.475 45.639 825.214 45.6903C831.365 45.6287 837.485 46.5806 843.33 48.5083C848.543 50.2614 853.382 52.9835 857.594 56.5325C861.809 60.1516 865.421 64.4246 868.292 69.1897L857.974 79.3633C855.485 75.3964 852.479 71.7821 849.035 68.6166C843.855 64.0373 837.5 61.0081 830.693 59.8726C823.885 58.7371 816.897 59.5408 810.521 62.1925C806.569 63.849 803.136 66.5471 800.584 70.0017C798.209 73.3252 796.959 77.3266 797.018 81.4171C796.958 84.3098 797.534 87.1803 798.706 89.8234C799.914 92.3947 801.755 94.614 804.055 96.2714C806.985 98.3059 810.186 99.9139 813.564 101.048C818.226 102.711 822.991 104.067 827.829 105.108C833.822 106.465 839.697 108.302 845.398 110.6C850.187 112.489 854.679 115.063 858.735 118.242C862.277 120.995 865.168 124.502 867.199 128.511C869.212 132.7 870.214 137.306 870.123 141.957C870.291 149.214 868.259 156.352 864.298 162.423C860.257 168.412 854.634 173.15 848.061 176.107C840.398 179.531 832.077 181.211 823.692 181.027Z" fill="white"/>
<path d="M880.636 94.1984V80.6098H941.711V94.1984H880.636ZM902.793 179.145V54.7461H916.891V179.145H902.793Z" fill="white"/>
<path d="M991.683 181.035C983.492 181.124 975.455 178.79 968.575 174.324C961.603 169.772 955.958 163.443 952.218 155.983C948.126 147.845 946.062 138.83 946.203 129.713C946.028 120.517 948.162 111.425 952.408 103.277C956.291 95.8826 962.027 89.6347 969.05 85.1505C974.647 81.7476 980.909 79.5996 987.409 78.8535C993.909 78.1074 1000.49 78.781 1006.71 80.8279C1010.95 82.2516 1014.92 84.383 1018.45 87.1327C1021.85 89.8099 1024.77 93.0387 1027.11 96.6853C1029.4 100.223 1031.01 104.16 1031.86 108.292L1027.72 106.214L1028.3 80.7324H1042.37V179.148H1028.11V154.98L1031.86 152.592C1030.91 156.522 1029.18 160.219 1026.77 163.458C1024.23 166.96 1021.15 170.046 1017.67 172.605C1010.11 178.147 1000.99 181.125 991.636 181.107L991.683 181.035ZM994.869 167.446C1001.04 167.559 1007.11 165.902 1012.37 162.67C1017.55 159.406 1021.74 154.77 1024.47 149.272C1027.5 143.209 1029.01 136.497 1028.89 129.713C1029.02 122.968 1027.5 116.294 1024.47 110.274C1021.69 104.8 1017.52 100.167 1012.37 96.8524C1007.11 93.6127 1001.04 91.9552 994.869 92.0761C988.683 91.9255 982.587 93.585 977.324 96.8524C972.179 100.161 968.002 104.785 965.223 110.25C962.211 116.283 960.717 122.966 960.872 129.713C960.759 136.416 962.242 143.048 965.199 149.057C967.89 154.586 972.054 159.256 977.229 162.551C982.514 165.861 988.641 167.562 994.869 167.446Z" fill="white"/>
<path d="M1106.51 181.027C1097.78 181.165 1089.19 178.84 1081.71 174.316C1074.44 169.869 1068.49 163.532 1064.5 155.975C1060.22 147.897 1058.05 138.857 1058.2 129.706C1058.05 120.555 1060.22 111.515 1064.5 103.436C1068.48 95.8751 1074.43 89.5433 1081.71 85.1188C1089.28 80.6475 1097.93 78.3661 1106.7 78.5275C1114.63 78.4237 1122.47 80.1304 1129.64 83.5188C1136.29 86.6215 1142.02 91.402 1146.28 97.394L1138.01 107.591C1135.53 104.391 1132.58 101.589 1129.26 99.2806C1125.98 96.9092 1122.37 95.0345 1118.54 93.7162C1114.89 92.4282 1111.05 91.7584 1107.18 91.734C1100.87 91.644 1094.67 93.3855 1089.32 96.7492C1084.11 100.093 1079.85 104.743 1076.96 110.242C1073.74 116.215 1072.11 122.916 1072.2 129.706C1072.12 136.508 1073.76 143.221 1076.96 149.217C1079.85 154.752 1084.16 159.41 1089.44 162.71C1094.75 165.996 1100.87 167.702 1107.11 167.63C1110.88 167.626 1114.62 167.022 1118.21 165.838C1121.85 164.636 1125.31 162.924 1128.48 160.752C1131.88 158.363 1134.92 155.5 1137.51 152.25L1145.9 162.328C1141.38 168.187 1135.51 172.851 1128.79 175.916C1121.84 179.293 1114.23 181.041 1106.51 181.027Z" fill="white"/>
<path d="M1159.29 179.136V39.4531H1173.39V179.136H1159.29ZM1171.89 147.422L1171.32 130.991L1222.63 80.601H1241.64L1171.89 147.422ZM1226.57 179.136L1185.23 130.991L1195.19 121.176L1245 179.136H1226.57Z" fill="white"/>
<path d="M222.306 90.6156L196.012 110.246L112.613 47.9154L29.1656 110.246L3.01413 90.6156C2.1008 89.9514 1.35727 89.0791 0.844531 88.0703C0.331791 87.0616 0.0644531 85.945 0.0644531 84.8124C0.0644531 83.6797 0.331791 82.5632 0.844531 81.5545C1.35727 80.5457 2.1008 79.6734 3.01413 79.0092L103.674 3.71067C106.258 1.79275 109.387 0.757813 112.601 0.757812C115.814 0.757813 118.943 1.79275 121.528 3.71067L222.282 79.0092C223.197 79.6715 223.942 80.5422 224.457 81.55C224.972 82.5577 225.242 83.6736 225.244 84.8063C225.246 85.9389 224.981 87.056 224.47 88.0658C223.96 89.0757 223.218 89.9495 222.306 90.6156Z" fill="white"/>
<path d="M222.282 129.875C223.196 130.54 223.939 131.412 224.452 132.421C224.965 133.429 225.232 134.546 225.232 135.679C225.232 136.811 224.965 137.928 224.452 138.937C223.939 139.945 223.196 140.818 222.282 141.482L196.131 161.089L121.528 216.756C118.948 218.685 115.817 219.727 112.601 219.727C109.384 219.727 106.254 218.685 103.674 216.756L29.1656 161.089L3.01413 141.482C2.1008 140.818 1.35727 139.945 0.844531 138.937C0.331791 137.928 0.0644531 136.811 0.0644531 135.679C0.0644531 134.546 0.331791 133.429 0.844531 132.421C1.35727 131.412 2.1008 130.54 3.01413 129.875L29.1656 110.245L58.7643 132.359L91.0495 108.215V156.456L112.613 172.695L134.152 156.599V108.215L166.413 132.359L195.988 110.245L222.282 129.875Z" fill="white"/>
</g>
<defs>
<clipPath id="clip0_11523_38421">
<rect width="1245" height="218.97" fill="white" transform="translate(0 0.742188)"/>
</clipPath>
</defs>
</svg>
