<svg width="79" height="78" viewBox="0 0 79 78" fill="none" xmlns="http://www.w3.org/2000/svg">
<path d="M77.3123 1.61235C75.3709 -0.157151 72.2811 -0.0243504 71.6717 0.0225496H20.8047C15.9336 0.0225496 11.9688 3.98735 11.9688 8.85845V64.4054H6.0352C3.9454 64.5422 0 66.0031 0 70.5382C0 74.9601 3.8438 76.8038 5.875 77.1593C5.96094 77.175 6.04688 77.1828 6.13672 77.1828H54.6207C54.6442 77.1828 54.6715 77.1828 54.6949 77.1789C55.2184 77.257 55.7027 77.2843 56.1324 77.2843C56.9137 77.2843 57.4996 77.1945 57.7418 77.1476C62.9254 76.6906 65.8941 73.4874 65.8941 68.3468L65.902 15.6788H77.312C78.1401 15.6788 78.812 15.007 78.812 14.1788V5.19053C78.812 3.74523 78.2928 2.50685 77.3123 1.61235ZM6.2853 74.1784C5.69155 74.0455 3.0041 73.2916 3.0041 70.5339C3.0041 67.8581 5.5705 67.4557 6.1994 67.3971H47.2194C47.4108 70.2448 48.1569 72.5143 49.4577 74.1744L6.2853 74.1784ZM62.9023 8.85835V68.3464C62.9023 71.9089 61.0546 73.8659 57.4179 74.1628C57.3554 74.1667 57.2851 74.1784 57.2226 74.1901C57.1991 74.1979 54.5703 74.7252 52.6132 73.1393C50.9921 71.8268 50.1718 69.3893 50.1718 65.8971C50.1718 65.069 49.4999 64.3971 48.6718 64.3971L14.9728 64.401V8.858C14.9728 5.6392 17.59 3.0221 20.8087 3.0221H65.1247C63.7458 4.5807 62.9023 6.62015 62.9023 8.85835ZM75.8123 12.6786H65.9021V8.85835C65.9021 5.63955 68.5193 3.02245 71.738 3.02245C71.781 3.02245 71.8278 3.01854 71.8708 3.01464C72.4763 2.96386 74.402 3.00292 75.3005 3.82714C75.5232 4.03026 75.82 4.39355 75.82 5.18654L75.8123 12.6786Z" fill="black"/>
<path d="M28.3713 39.8853H24.094C23.2659 39.8853 22.594 40.5571 22.594 41.3853C22.594 42.2134 23.2659 42.8853 24.094 42.8853H28.3713C29.1994 42.8853 29.8713 42.2134 29.8713 41.3853C29.8713 40.5532 29.1994 39.8853 28.3713 39.8853Z" fill="black"/>
<path d="M41.5312 39.8853H37.2539C36.4258 39.8853 35.7539 40.5571 35.7539 41.3853C35.7539 42.2134 36.4258 42.8853 37.2539 42.8853H41.5312C42.3593 42.8853 43.0312 42.2134 43.0312 41.3853C43.0312 40.5532 42.3593 39.8853 41.5312 39.8853Z" fill="black"/>
<path d="M53.5893 39.8853H49.312C48.4839 39.8853 47.812 40.5571 47.812 41.3853C47.812 42.2134 48.4839 42.8853 49.312 42.8853H53.5893C54.4174 42.8853 55.0893 42.2134 55.0893 41.3853C55.0893 40.5532 54.4213 39.8853 53.5893 39.8853Z" fill="black"/>
<path d="M28.3713 48.6594H24.094C23.2659 48.6594 22.594 49.3313 22.594 50.1594C22.594 50.9875 23.2659 51.6594 24.094 51.6594H28.3713C29.1994 51.6594 29.8713 50.9875 29.8713 50.1594C29.8713 49.3274 29.1994 48.6594 28.3713 48.6594Z" fill="black"/>
<path d="M41.5312 48.6594H37.2539C36.4258 48.6594 35.7539 49.3313 35.7539 50.1594C35.7539 50.9875 36.4258 51.6594 37.2539 51.6594H41.5312C42.3593 51.6594 43.0312 50.9875 43.0312 50.1594C43.0312 49.3274 42.3593 48.6594 41.5312 48.6594Z" fill="black"/>
<path d="M53.5893 48.6594H49.312C48.4839 48.6594 47.812 49.3313 47.812 50.1594C47.812 50.9875 48.4839 51.6594 49.312 51.6594H53.5893C54.4174 51.6594 55.0893 50.9875 55.0893 50.1594C55.0893 49.3274 54.4213 48.6594 53.5893 48.6594Z" fill="black"/>
<path d="M28.3713 56.3313H24.094C23.2659 56.3313 22.594 57.0032 22.594 57.8313C22.594 58.6594 23.2659 59.3313 24.094 59.3313H28.3713C29.1994 59.3313 29.8713 58.6594 29.8713 57.8313C29.8713 57.0032 29.1994 56.3313 28.3713 56.3313Z" fill="black"/>
<path d="M41.5312 56.3313H37.2539C36.4258 56.3313 35.7539 57.0032 35.7539 57.8313C35.7539 58.6594 36.4258 59.3313 37.2539 59.3313H41.5312C42.3593 59.3313 43.0312 58.6594 43.0312 57.8313C43.0312 57.0032 42.3593 56.3313 41.5312 56.3313Z" fill="black"/>
<path d="M53.5893 56.3313H49.312C48.4839 56.3313 47.812 57.0032 47.812 57.8313C47.812 58.6594 48.4839 59.3313 49.312 59.3313H53.5893C54.4174 59.3313 55.0893 58.6594 55.0893 57.8313C55.0893 57.0032 54.4213 56.3313 53.5893 56.3313Z" fill="black"/>
<path d="M35.6362 28.5184C35.7183 28.5614 36.8198 29.1043 38.2456 29.284V29.9129C38.2456 30.7411 38.9175 31.4129 39.7456 31.4129C40.5738 31.4129 41.2456 30.7411 41.2456 29.9129V28.9168C41.5659 28.7801 41.8863 28.6161 42.1909 28.3895C43.4643 27.452 43.6987 26.3739 43.6714 25.6317C43.6168 24.1278 42.4409 22.6473 40.1792 21.2294C38.9604 20.4638 38.7104 19.7099 38.7495 19.5732C38.7495 19.5732 38.773 19.5341 38.8706 19.4755C39.5269 19.0966 41.0737 19.3271 41.9097 19.6005C42.6949 19.8584 43.5425 19.4365 43.8042 18.6513C44.066 17.8662 43.6402 17.0146 42.855 16.7529C42.7105 16.7061 42.0777 16.5068 41.2417 16.3818V15.7217C41.2417 14.8936 40.5698 14.2217 39.7417 14.2217C38.9136 14.2217 38.2417 14.8936 38.2417 15.7217V16.5068C37.937 16.5967 37.6441 16.7178 37.3667 16.8779C36.355 17.4639 35.7651 18.4287 35.7456 19.5341C35.7183 21.0575 36.7768 22.6396 38.5815 23.7685C40.2846 24.8388 40.6635 25.5966 40.6753 25.7099C40.6636 25.7373 40.5972 25.8349 40.4097 25.9716C39.1714 26.8818 37.0113 25.8506 36.9956 25.8427C36.2573 25.4677 35.355 25.7568 34.9761 26.4951C34.605 27.2373 34.8979 28.1395 35.6362 28.5184Z" fill="black"/>
<path d="M39.3782 35.9983C46.8235 35.9983 52.8782 29.9436 52.8782 22.4983C52.8782 15.053 46.8235 8.99829 39.3782 8.99829C31.9329 8.99829 25.8782 15.053 25.8782 22.4983C25.8782 29.9436 31.9368 35.9983 39.3782 35.9983ZM39.3782 11.9983C45.1673 11.9983 49.8782 16.7092 49.8782 22.4983C49.8782 28.2874 45.1673 32.9983 39.3782 32.9983C33.5891 32.9983 28.8782 28.2874 28.8782 22.4983C28.8782 16.7092 33.5891 11.9983 39.3782 11.9983Z" fill="black"/>
</svg>
