<svg width="39" height="39" viewBox="0 0 39 39" fill="none" xmlns="http://www.w3.org/2000/svg">
<path d="M32.8106 20.0763V16.0328C32.8158 16.0319 32.8208 16.0311 32.8259 16.0302L32.9124 16.0143C33.9514 15.8313 34.7056 14.9259 34.7056 13.8614V5.92683C34.7056 4.72021 33.724 3.73832 32.5174 3.73832H23.4762V2.49286C23.4762 1.34566 22.5428 0.412598 21.3953 0.412598H13.7555C12.6083 0.412598 11.675 1.34566 11.675 2.49286V3.73832H2.63383C1.4272 3.73832 0.445312 4.72021 0.445312 5.92683V13.8455C0.445312 14.9171 1.20659 15.8269 2.25966 16.0099L2.33085 16.0217V26.0135C2.33085 27.8032 3.78662 29.2589 5.57626 29.2589H20.0213C20.1772 34.3602 24.3651 38.4648 29.5037 38.4648C34.7406 38.4648 39.0008 34.2046 39.0008 28.9677C39.0008 24.8951 36.4193 21.4232 32.8106 20.0763ZM12.8798 2.49286C12.8798 2.01015 13.2725 1.61746 13.7555 1.61746H21.3953C21.8783 1.61746 22.2713 2.01015 22.2713 2.49286V3.73832H12.8798V2.49286ZM1.65017 13.8455V5.92683C1.65017 5.38441 2.09141 4.94318 2.63383 4.94318H12.2774H22.8738H32.5174C33.0595 4.94318 33.5007 5.38441 33.5007 5.92683V13.8614C33.5007 14.3323 33.158 14.7477 32.6991 14.8286C32.6057 14.8422 27.062 15.9277 20.3296 16.122C20.2564 16.1237 20.1836 16.1267 20.1102 16.1284V14.998C20.1102 14.2005 19.5673 13.5334 18.8328 13.3266C18.7924 13.3151 18.7544 13.2978 18.7128 13.2892C18.6979 13.2863 18.6819 13.2875 18.6671 13.2848C18.5675 13.2669 18.4663 13.2537 18.3617 13.2537H18.3605H16.7903H16.7892C16.6786 13.2537 16.5712 13.2666 16.4663 13.2866C16.4572 13.2881 16.4474 13.2875 16.4382 13.2892C16.3794 13.3013 16.325 13.3242 16.2685 13.3419C15.5597 13.5649 15.041 14.2188 15.041 14.998V16.1093C7.92384 15.8735 3.03644 14.8983 2.46175 14.8221C1.99169 14.7403 1.65017 14.3297 1.65017 13.8455ZM16.7903 14.4585H18.3605C18.4014 14.4585 18.4376 14.4732 18.476 14.4817C18.7181 14.5359 18.9033 14.7421 18.9033 15.0001V18.8602C18.9033 19.0344 18.8156 19.1821 18.6878 19.2812C18.5948 19.3515 18.4838 19.4003 18.3576 19.4003H16.7898C16.6649 19.4003 16.5552 19.3515 16.4634 19.2815C16.3354 19.1823 16.2476 19.0344 16.2476 18.8602V15.0001C16.2476 14.7427 16.4319 14.5368 16.673 14.482C16.7118 14.4735 16.7487 14.4585 16.7903 14.4585ZM3.53571 26.0135V16.2202C7.81444 16.9039 11.0942 17.1571 14.8416 17.3183C14.9076 17.3209 14.9736 17.3215 15.0395 17.3236H15.041V18.8626C15.041 19.4309 15.3196 19.9322 15.7436 20.2504C16.036 20.471 16.3956 20.6066 16.7892 20.6066H18.3617C18.755 20.6066 19.1143 20.471 19.4066 20.251C19.8323 19.9327 20.1122 19.4315 20.1122 18.8626V17.3336C23.7651 17.2504 27.8749 16.8502 31.6058 16.239V19.7045C31.5752 19.6977 31.544 19.6957 31.5134 19.6892C30.8257 19.5402 30.1243 19.4703 29.5037 19.4703C24.8067 19.4703 20.647 22.9252 20.0783 27.8508C20.0716 27.9067 20.0605 27.9611 20.0549 28.0173C20.0536 28.0297 20.0508 28.0417 20.0496 28.0541H5.57626C4.45112 28.0541 3.53571 27.1387 3.53571 26.0135ZM29.5037 37.26C24.9314 37.26 21.2115 33.5401 21.2115 28.9677C21.2115 24.3775 24.9626 20.6764 29.5058 20.6764C29.5343 20.6764 29.5629 20.6796 29.5914 20.6799C34.1723 20.7282 37.796 24.4722 37.796 28.9677C37.796 33.5401 34.0761 37.26 29.5037 37.26Z" fill="#A3A3A3"/>
<path d="M34.3431 27.4136C34.2552 27.14 34.1443 26.8741 34.0116 26.6194L34.407 25.8734C34.5908 25.5251 34.527 25.1051 34.2478 24.8274L33.6171 24.2003C33.3921 23.9761 32.9785 23.829 32.4949 24.0879L31.826 24.4465C31.5707 24.315 31.3042 24.2056 31.0303 24.1197L30.7821 23.3116C30.6665 22.936 30.3253 22.6836 29.932 22.6836H29.9299L29.0401 22.6859C28.7224 22.6871 28.3262 22.8754 28.167 23.4002L27.9473 24.1279C27.6734 24.2156 27.4078 24.3265 27.154 24.4591L26.4074 24.0638C26.0591 23.8799 25.6394 23.9438 25.3614 24.2226L24.734 24.8533C24.5095 25.0792 24.3624 25.4928 24.6216 25.9758L24.9802 26.6441C24.849 26.8994 24.7395 27.1659 24.6534 27.4395L23.8459 27.6878C23.4691 27.8037 23.217 28.1466 23.2188 28.5396L23.2211 29.4289C23.222 29.8224 23.4759 30.1634 23.8527 30.2775L24.6613 30.5222C24.7492 30.7952 24.8601 31.0611 24.9928 31.3162L24.5975 32.0624C24.4136 32.4104 24.4774 32.8308 24.7566 33.1085L25.3873 33.7356C25.6129 33.9597 26.0265 34.1065 26.5095 33.848L27.1781 33.4894C27.4328 33.6203 27.699 33.7297 27.9735 33.8162L28.285 34.8263C28.3629 35.0793 28.5965 35.2514 28.8607 35.2514C28.9213 35.2514 30.2368 35.2479 30.1761 35.2478C30.4412 35.247 30.6744 35.0734 30.7512 34.8193L31.0562 33.808C31.3298 33.7203 31.5957 33.6094 31.8504 33.4767L32.597 33.8721C32.9456 34.0562 33.3656 33.9924 33.643 33.7132L34.2705 33.0826C34.4949 32.8567 34.642 32.4431 34.3825 31.9595L34.0428 31.3265C34.196 31.0553 34.2899 30.764 34.3619 30.4928L35.1582 30.2469C35.5344 30.1316 35.7865 29.7892 35.7857 29.395L35.7833 28.5061C35.7824 28.1119 35.5283 27.7707 35.1509 27.6572L34.3431 27.4136ZM33.8375 29.3933C33.5407 29.4851 33.3103 29.7292 33.2362 30.0313C33.1709 30.2952 33.09 30.5943 32.9544 30.7982C32.7676 31.0776 32.745 31.4565 32.8979 31.7418L33.2506 32.3992L32.9538 32.6975L32.262 32.3313C31.9946 32.1901 31.6754 32.1948 31.4092 32.3454C31.1415 32.4966 30.8562 32.6155 30.5606 32.699C30.2667 32.7822 30.0393 33.0043 29.9531 33.2926L29.7264 34.0442L29.3048 34.0453L29.0745 33.2979C28.9854 33.0079 28.7559 32.7861 28.4609 32.7043C28.1644 32.6219 27.8791 32.5043 27.6131 32.3554C27.3477 32.2067 27.0286 32.2018 26.7619 32.3454L26.0703 32.7158L25.772 32.419L26.1374 31.7295C26.2797 31.4618 26.275 31.1426 26.1241 30.8752C25.9732 30.6075 25.8541 30.3228 25.7708 30.0292C25.6879 29.7345 25.4652 29.5062 25.1755 29.4186L24.4254 29.1921L24.4242 28.7703L25.1711 28.5408C25.4614 28.452 25.6835 28.2219 25.7653 27.9266C25.8473 27.6319 25.965 27.346 26.1147 27.0777C26.2636 26.8112 26.2668 26.4935 26.1241 26.227L25.7538 25.5366L26.0506 25.238L26.7416 25.604C27.0095 25.7463 27.3293 25.741 27.5961 25.5898C27.862 25.4392 28.1467 25.3204 28.4424 25.2369C28.7353 25.1539 28.9624 24.9321 29.0507 24.6427L29.2781 23.8902L29.699 23.889L29.9049 24.5594C30.0423 25.0065 30.327 25.1716 30.5418 25.2313L30.5423 25.2316C30.8383 25.3133 31.1242 25.431 31.3927 25.581C31.6592 25.7296 31.9769 25.7328 32.2423 25.5904L32.9341 25.2198L33.2324 25.5166L32.8671 26.2064C32.7247 26.4738 32.7294 26.7929 32.8803 27.0606C33.0312 27.328 33.1503 27.613 33.2333 27.906C33.3165 28.2011 33.5392 28.4296 33.8295 28.5173L34.579 28.7432L34.5802 29.1644L33.8375 29.3933Z" fill="#A3A3A3"/>
<path d="M29.5061 26.3843C28.0801 26.3843 26.9199 27.5418 26.9199 28.9646C26.9199 30.3904 28.0801 31.5505 29.5061 31.5505C30.929 31.5505 32.0865 30.3904 32.0865 28.9646C32.0865 27.5418 30.929 26.3843 29.5061 26.3843ZM29.5061 30.3457C28.7446 30.3457 28.1248 29.7262 28.1248 28.9646C28.1248 28.206 28.7446 27.5891 29.5061 27.5891C30.2645 27.5891 30.8816 28.206 30.8816 28.9646C30.8816 29.7262 30.2645 30.3457 29.5061 30.3457Z" fill="#A3A3A3"/>
</svg>
