<svg width="39" height="36" viewBox="0 0 39 36" fill="none" xmlns="http://www.w3.org/2000/svg">
<path d="M37.959 22.1633C37.2106 21.3661 36.0636 21.1073 35.0356 21.5059C33.8467 21.9535 32.5039 22.7438 31.0421 23.8418C30.4057 24.3174 29.5944 24.6671 28.7132 24.9259C28.8811 24.0866 28.6992 22.9537 27.8879 22.3382C27.5802 22.1074 27.2095 21.9675 26.7759 21.9326C24.5869 21.7367 21.4186 20.8485 17.8588 19.4218C13.1939 17.5544 7.84371 21.9465 7.61991 22.1354C7.54997 22.1983 7.49402 22.2683 7.45206 22.3452C6.79462 21.7087 5.78054 21.5479 4.94827 22.0305L1.96894 23.751C0.968823 24.3315 0.62614 25.6183 1.19961 26.6184L5.44484 33.9689C5.83649 34.6403 6.54285 35.018 7.26322 35.018C7.6199 35.018 7.9766 34.9271 8.3123 34.7382L11.2916 33.0177C12.1448 32.5282 12.5155 31.5211 12.2498 30.6189C14.0052 29.8845 16.1313 30.2272 18.761 30.6678C20.5864 30.9756 22.5936 31.3113 24.7826 31.3113C25.5659 31.3113 26.3772 31.2693 27.2164 31.1644C31.8603 30.5839 35.5458 28.0312 37.8259 25.9749C38.3784 25.4713 38.6932 24.751 38.6932 24.0027C38.6932 23.3103 38.4275 22.6599 37.959 22.1633ZM10.5922 31.8006L7.61284 33.5211C7.45198 33.612 7.26315 33.64 7.08131 33.5911C6.89947 33.5421 6.7526 33.4302 6.65469 33.2624L2.40946 25.9118C2.31855 25.751 2.29057 25.5622 2.33953 25.3803C2.38848 25.1985 2.50039 25.0516 2.66824 24.9537L5.64756 23.2332C5.75247 23.1703 5.87835 23.1423 5.99725 23.1423C6.06019 23.1423 6.11614 23.1493 6.17909 23.1633C6.36092 23.2122 6.50779 23.3241 6.6057 23.492L10.718 30.6187C10.718 30.6187 10.718 30.6327 10.725 30.6397L10.739 30.6537L10.8509 30.8425C11.0467 31.1782 10.9279 31.6048 10.5922 31.8006ZM36.8887 24.9398C35.1473 26.5064 31.5596 29.213 27.0487 29.7726C24.0973 30.1432 21.3905 29.6886 18.999 29.283C16.2085 28.8144 13.7607 28.4088 11.6064 29.3599L8.13752 23.3522C8.2704 23.3382 8.40328 23.3032 8.51518 23.2053C8.56414 23.1634 13.4527 19.163 17.3414 20.7155C21.0272 22.1912 24.3352 23.1144 26.6641 23.3172C26.727 23.3172 26.9089 23.3382 27.0487 23.4431C27.3215 23.6529 27.4474 24.1984 27.3425 24.674C27.3425 24.681 27.3425 24.695 27.3355 24.702C27.2655 24.9678 27.0557 25.1916 26.783 25.3244C23.6288 25.786 20.3348 25.4363 20.2856 25.4293C19.8939 25.3874 19.5582 25.6671 19.5162 26.0448C19.4743 26.4294 19.747 26.7721 20.1317 26.8141C20.4604 26.8491 28.2445 27.6814 31.8951 24.9468C33.5876 23.6739 34.8115 23.0724 35.5458 22.7927C36.0424 22.6039 36.5949 22.7228 36.9516 23.1074C37.1824 23.3452 37.3013 23.6599 37.3013 23.9816C37.3013 24.3453 37.1544 24.674 36.8886 24.9188L36.8887 24.9398Z" fill="#A3A3A3"/>
<path d="M12.9785 17.4774C12.9785 17.8621 13.2932 18.1768 13.6779 18.1768C14.0626 18.1768 14.3773 17.8621 14.3773 17.4774C14.3773 14.4771 16.8181 12.0431 19.8116 12.0431C22.8051 12.0431 25.2459 14.4839 25.2459 17.4774C25.2459 17.8621 25.5606 18.1768 25.9453 18.1768C26.33 18.1768 26.6447 17.8621 26.6447 17.4774C26.6447 14.54 24.7773 12.0292 22.1687 11.0713C23.0708 10.365 23.6583 9.27394 23.6583 8.03605C23.6583 5.91693 21.9309 4.18945 19.8117 4.18945C17.6926 4.18945 15.9651 5.91693 15.9651 8.03605C15.9651 9.26695 16.5526 10.365 17.4548 11.0713C14.8461 12.0364 12.9785 14.5402 12.9785 17.4774ZM19.8116 5.58821C21.1614 5.58821 22.2594 6.68622 22.2594 8.03605C22.2594 9.38588 21.1614 10.4839 19.8116 10.4839C18.4618 10.4839 17.3638 9.38588 17.3638 8.03605C17.3638 6.68622 18.4618 5.58821 19.8116 5.58821Z" fill="#A3A3A3"/>
<path d="M4.42399 16.7779C4.80865 16.7779 5.12336 16.4632 5.12336 16.0786C5.12336 15.631 5.14434 15.1834 5.1863 14.7427C5.22127 14.3581 4.93453 14.0154 4.54986 13.9804C4.16519 13.9455 3.82251 14.2322 3.78755 14.6169C3.74559 15.0994 3.72461 15.589 3.72461 16.0786C3.72461 16.4632 4.03933 16.7779 4.42399 16.7779Z" fill="#A3A3A3"/>
<path d="M4.87062 12.3156C4.94055 12.3365 5.0035 12.3435 5.07343 12.3435C5.37417 12.3435 5.65393 12.1477 5.74483 11.847C6.02458 10.9028 6.40925 9.98665 6.8778 9.1264C7.05964 8.78371 6.93375 8.36409 6.59106 8.18223C6.24837 8.00037 5.82875 8.12628 5.64689 8.46897C5.13636 9.42013 4.71673 10.4202 4.409 11.4553C4.2971 11.826 4.50692 12.2176 4.8776 12.3295L4.87062 12.3156Z" fill="#A3A3A3"/>
<path d="M7.99181 6.93077C8.19463 6.93077 8.39046 6.84685 8.53032 6.679C8.81007 6.3433 9.1178 6.00759 9.43251 5.69289C12.209 2.91637 15.895 1.39171 19.8182 1.39171C27.3016 1.39171 33.4839 7.02163 34.3791 14.2674L33.0573 12.9456C32.7845 12.6728 32.3439 12.6728 32.0712 12.9456C31.7985 13.2184 31.7984 13.659 32.0712 13.9317L34.7148 16.5753C34.7778 16.6383 34.8547 16.6872 34.9386 16.7292C35.0225 16.7642 35.1135 16.7851 35.2114 16.7851H35.2673C35.2953 16.7851 35.3233 16.7642 35.3582 16.7572C35.4142 16.7432 35.4701 16.7362 35.5261 16.7082C35.5611 16.6942 35.589 16.6662 35.617 16.6453C35.666 16.6103 35.7079 16.5753 35.7429 16.5334C35.7569 16.5194 35.7709 16.5124 35.7779 16.4984L37.9949 13.4911C38.2257 13.1833 38.1557 12.7427 37.848 12.5119C37.5403 12.2811 37.0997 12.3511 36.8689 12.6588L35.7919 14.1205C34.8197 6.17555 28.0358 0 19.8322 0C15.538 0 11.4956 1.67152 8.46044 4.71369C8.11775 5.05638 7.78206 5.42005 7.47433 5.79071C7.22955 6.08445 7.26452 6.52504 7.56525 6.77682C7.69813 6.88872 7.85199 6.93768 8.01285 6.93768L7.99181 6.93077Z" fill="#A3A3A3"/>
</svg>
