<svg width="181" height="181" viewBox="0 0 181 181" fill="none" xmlns="http://www.w3.org/2000/svg">
<path d="M154.492 90.4941C154.492 79.4756 151.647 68.6437 146.233 59.0471C140.819 49.4504 133.019 41.4141 123.588 35.7161C114.158 30.0181 103.415 26.8514 92.4019 26.5226C81.3882 26.1939 70.4763 28.7141 60.7224 33.8394L87.2538 84.3312C88.3149 83.7737 89.5019 83.4996 90.6999 83.5353C91.898 83.5711 93.0665 83.9156 94.0924 84.5354C95.1183 85.1552 95.9668 86.0294 96.5557 87.0733C97.1447 88.1173 97.4541 89.2955 97.4541 90.4941H154.492Z" fill="white"/>
<path d="M131.771 139.404C139.613 132.785 145.749 124.378 149.661 114.891L96.9293 93.1478C96.5037 94.1798 95.8363 95.0944 94.9832 95.8143L131.771 139.404Z" fill="white"/>
<path d="M46.0579 44.4361C38.6727 51.5611 33.1091 60.3575 29.8362 70.0835L83.8957 88.2747C84.2517 87.2167 84.8569 86.2599 85.6603 85.4848L46.0579 44.4361Z" fill="white"/>
<path d="M26.8805 83.4676C25.7407 93.7882 27.1292 104.231 30.926 113.895C34.7229 123.56 40.8141 132.155 48.6741 138.94C56.5341 145.724 65.9269 150.495 76.042 152.84C86.1572 155.184 96.6909 155.033 106.734 152.398L92.2492 97.1839C91.1636 97.4687 90.025 97.4851 88.9316 97.2317C87.8383 96.9782 86.823 96.4626 85.9735 95.7292C85.1239 94.9959 84.4655 94.0668 84.0551 93.0222C83.6447 91.9776 83.4946 90.8488 83.6178 89.7333L26.8805 83.4676Z" fill="white"/>
</svg>
