<svg width="38" height="38" viewBox="0 0 38 38" fill="none" xmlns="http://www.w3.org/2000/svg">
<path fill-rule="evenodd" clip-rule="evenodd" d="M20.9617 22.305V19.0672C20.9617 18.7143 21.2475 18.4285 21.6003 18.4285H25.1782C25.3474 18.4285 25.5103 18.4956 25.63 18.6153C25.7498 18.7351 25.8168 18.8979 25.8168 19.0672V28.4452C25.8168 28.6144 25.7498 28.7772 25.63 28.897C25.5103 29.0167 25.3474 29.0838 25.1782 29.0838H23.1745C23.0101 31.5393 21.9053 33.8351 20.09 35.4957C18.2732 37.1562 15.888 38.0534 13.4276 37.9975C10.9673 37.9433 8.62355 36.9422 6.88324 35.202C5.14461 33.4618 4.142 31.118 4.08772 28.6576C4.03344 26.1974 4.9291 23.8123 6.5895 21.9968C8.2499 20.1799 10.5473 19.0751 13.0014 18.9106V13.9055L11.6028 12.5069C8.59494 12.8677 5.48479 11.2249 3.40934 9.14938C1.26996 7.01 -0.433514 3.73225 0.0980997 0.634999C0.138013 0.361989 0.348756 0.14646 0.621744 0.100153C3.72221 -0.437882 7.0079 1.26724 9.14874 3.40982C11.2242 5.48532 12.8671 8.59561 12.5062 11.605L13.6398 12.7385L14.7733 11.605C14.4125 8.59549 16.0569 5.48528 18.1308 3.40982C20.2734 1.26724 23.5573 -0.437882 26.6578 0.100153H26.6594C26.9308 0.146452 27.1416 0.361989 27.183 0.634999C27.7147 3.73229 26.0112 7.01016 23.8718 9.14938C21.7963 11.2249 18.686 12.8678 15.6767 12.5069L14.2781 13.9055V18.9106C16.8757 19.0815 19.2917 20.3093 20.9617 22.305ZM16.2856 26.7322C16.2856 25.5811 15.3804 24.6934 14.2788 24.4507V23.6301C14.2788 23.2773 13.993 22.9915 13.6401 22.9915C13.2873 22.9915 13.0015 23.2773 13.0015 23.6301V24.4507C11.9015 24.6934 10.9947 25.5811 10.9947 26.7322C10.9947 28.102 12.2623 29.0839 13.6401 29.0839C14.82 29.0839 15.4554 30.1935 14.6444 30.8848C13.7934 31.6112 12.2719 31.1195 12.2719 30.1584L12.2735 30.1568C12.2735 29.8055 11.9861 29.5182 11.6349 29.5182C11.282 29.5182 10.9963 29.8055 10.9963 30.1568C10.9963 31.3079 11.9015 32.1956 13.0031 32.4382V33.2589L13.0015 33.2605C13.0015 33.6133 13.2873 33.8991 13.6401 33.8991C13.993 33.8991 14.2788 33.6133 14.2788 33.2605V32.4398C15.3804 32.1956 16.2856 31.3095 16.2856 30.1568C16.2856 28.7869 15.018 27.8051 13.6401 27.8051C12.4603 27.8051 11.8249 26.6955 12.6359 26.0042C13.4869 25.2778 15.0084 25.7695 15.0084 26.7306V26.7322C15.0084 27.085 15.2942 27.3708 15.647 27.3708C15.9998 27.3708 16.2856 27.085 16.2856 26.7322ZM23.1745 27.8067H24.5395V19.7059H22.2389V24.2753V24.2737C22.7769 25.3801 23.0947 26.5789 23.1745 27.8067ZM19.4945 22.5923C17.6744 20.7722 15.1118 19.9021 12.5606 20.2373C10.0094 20.5742 7.75826 22.0766 6.47163 24.3053C5.18483 26.5341 5.00761 29.2353 5.99265 31.6128C6.97774 33.99 9.0117 35.7752 11.4976 36.4406C13.985 37.1063 16.6384 36.5794 18.6804 35.0116C20.7223 33.4454 21.9197 31.0187 21.9197 28.4452C21.9213 26.2483 21.0495 24.1425 19.4945 22.5923ZM7.21549 8.1196C7.09255 7.99986 7.0239 7.83701 7.0239 7.66617C7.0223 7.49534 7.08936 7.33089 7.2107 7.21114C7.33044 7.0898 7.49488 7.02275 7.66572 7.02435C7.83655 7.02435 7.99939 7.093 8.11914 7.21593L11.2675 10.3643C11.1174 8.09402 9.82745 5.89378 8.24687 4.31327C6.49066 2.55705 3.85646 1.08506 1.29873 1.29898C1.08479 3.85506 2.55839 6.49091 4.313 8.24717C5.89198 9.82616 8.09201 11.1162 10.364 11.2678L7.21549 8.1196ZM19.1638 7.21597C19.282 7.09303 19.4464 7.02438 19.6173 7.02438C19.7865 7.02278 19.9509 7.08984 20.0723 7.21118C20.192 7.33092 20.2591 7.49536 20.2591 7.6662C20.2575 7.83703 20.1888 7.99988 20.0659 8.11963L16.9175 11.268C19.1894 11.1179 21.388 9.82794 22.9685 8.24735C24.7231 6.49273 26.1967 3.85692 25.9828 1.29917C23.4267 1.08523 20.7909 2.55724 19.0347 4.31346C17.4557 5.89245 16.1657 8.09249 16.014 10.3645L19.1624 7.21612L19.1638 7.21597ZM33.7835 15.7512H37.3614C37.5306 15.7512 37.6919 15.8182 37.8116 15.938C37.9313 16.0577 38 16.2206 38 16.3898V28.4453C38 28.6146 37.9313 28.7774 37.8116 28.8972C37.6919 29.0169 37.5306 29.084 37.3614 29.084H33.7835C33.4307 29.084 33.1449 28.7982 33.1449 28.4453V16.3898C33.1449 16.037 33.4307 15.7512 33.7835 15.7512ZM36.7228 17.0284H34.4221V27.8067H36.7228V17.0284ZM19.2408 17.0652L23.114 14.822L29.2848 16.8272C29.4972 16.8959 29.7302 16.848 29.8995 16.7011L35.1727 12.1157L35.0705 13.0816C35.053 13.2493 35.1025 13.4169 35.2094 13.5494C35.3164 13.6803 35.4713 13.7634 35.6389 13.7809C35.8081 13.7985 35.9758 13.7474 36.1067 13.6404C36.2376 13.5335 36.3206 13.3786 36.3382 13.2109L36.6064 10.6788V10.6772C36.6383 10.492 36.5872 10.3004 36.4643 10.1568C36.343 10.0131 36.1626 9.93006 35.9742 9.93165L33.3846 9.78158C33.2138 9.7704 33.0477 9.82788 32.92 9.94123C32.7923 10.053 32.7157 10.2126 32.7061 10.3819C32.6965 10.5527 32.7556 10.7187 32.8705 10.8449C32.9839 10.971 33.1435 11.046 33.3143 11.054L34.3776 11.1147L29.3341 15.5018L23.2369 13.5221C23.0661 13.4662 22.8777 13.4854 22.7212 13.5764L18.6022 15.9616C18.4553 16.0462 18.3468 16.1851 18.3021 16.3496C18.259 16.514 18.2813 16.688 18.3659 16.8349C18.4522 16.9818 18.5911 17.0888 18.7555 17.1319C18.9199 17.175 19.0939 17.1514 19.2408 17.0652ZM27.693 20.9113C27.3402 20.9113 27.0544 21.197 27.0544 21.5499V28.4453C27.0544 28.6146 27.1215 28.7774 27.2412 28.8972C27.361 29.0169 27.5238 29.084 27.693 29.084H31.2709C31.4401 29.084 31.6014 29.0169 31.7211 28.8972C31.8409 28.7774 31.9095 28.6146 31.9095 28.4453V21.5499C31.9095 21.3806 31.8409 21.2178 31.7211 21.098C31.6014 20.9783 31.4401 20.9112 31.2709 20.9112L27.693 20.9113ZM30.6323 22.1885V27.8067H28.3317V22.1885H30.6323Z" fill="#A3A3A3"/>
</svg>
