<svg width="1921" height="999" viewBox="0 0 1921 999" fill="none" xmlns="http://www.w3.org/2000/svg">
<mask id="mask0_10879_24490" style="mask-type:alpha" maskUnits="userSpaceOnUse" x="0" y="0" width="1921" height="999">
<rect width="1921" height="999" fill="#D9D9D9"/>
</mask>
<g mask="url(#mask0_10879_24490)">
<rect width="1921" height="999" fill="url(#paint0_linear_10879_24490)"/>
<g opacity="0.3" clip-path="url(#clip0_10879_24490)">
<path d="M222.47 997.501L224.453 995.523L222.47 993.546L220.486 995.523L222.47 997.501Z" stroke="#1A232D" stroke-miterlimit="10"/>
<path d="M197.884 997.454L199.867 995.477L197.884 993.499L195.9 995.477L197.884 997.454Z" stroke="#1A232D" stroke-miterlimit="10"/>
<path d="M173.282 997.489L175.266 995.512L173.282 993.534L171.299 995.512L173.282 997.489Z" stroke="#1A232D" stroke-miterlimit="10"/>
<path d="M148.681 997.482L150.664 995.504L148.681 993.526L146.697 995.504L148.681 997.482Z" stroke="#1A232D" stroke-miterlimit="10"/>
<path d="M124.095 997.458L126.078 995.48L124.095 993.503L122.111 995.48L124.095 997.458Z" stroke="#1A232D" stroke-miterlimit="10"/>
<path d="M99.4931 997.493L101.477 995.516L99.4931 993.538L97.5097 995.516L99.4931 997.493Z" stroke="#1A232D" stroke-miterlimit="10"/>
<path d="M74.8915 997.486L76.875 995.508L74.8916 993.53L72.9081 995.508L74.8915 997.486Z" stroke="#1A232D" stroke-miterlimit="10"/>
<path d="M50.3056 997.484L52.2891 995.506L50.3056 993.528L48.3222 995.506L50.3056 997.484Z" stroke="#1A232D" stroke-miterlimit="10"/>
<path d="M25.704 997.476L27.6875 995.498L25.7041 993.52L23.7206 995.498L25.704 997.476Z" stroke="#1A232D" stroke-miterlimit="10"/>
<path d="M1.10249 997.489L3.08594 995.512L1.10249 993.534L-0.880963 995.512L1.10249 997.489Z" stroke="#1A232D" stroke-miterlimit="10"/>
<path d="M222.474 976.919L224.457 974.941L222.474 972.964L220.49 974.941L222.474 976.919Z" stroke="#1A232D" stroke-miterlimit="10"/>
<path d="M197.888 976.896L199.871 974.918L197.888 972.94L195.904 974.918L197.888 976.896Z" stroke="#1A232D" stroke-miterlimit="10"/>
<path d="M173.286 976.907L175.27 974.93L173.286 972.952L171.303 974.93L173.286 976.907Z" stroke="#1A232D" stroke-miterlimit="10"/>
<path d="M148.685 976.9L150.668 974.922L148.685 972.944L146.701 974.922L148.685 976.9Z" stroke="#1A232D" stroke-miterlimit="10"/>
<path d="M124.099 976.876L126.082 974.898L124.099 972.921L122.115 974.898L124.099 976.876Z" stroke="#1A232D" stroke-miterlimit="10"/>
<path d="M99.497 976.911L101.48 974.934L99.497 972.956L97.5136 974.934L99.497 976.911Z" stroke="#1A232D" stroke-miterlimit="10"/>
<path d="M74.8955 976.904L76.8789 974.926L74.8955 972.948L72.912 974.926L74.8955 976.904Z" stroke="#1A232D" stroke-miterlimit="10"/>
<path d="M50.3095 976.902L52.293 974.924L50.3095 972.946L48.3261 974.924L50.3095 976.902Z" stroke="#1A232D" stroke-miterlimit="10"/>
<path d="M25.708 976.894L27.6914 974.916L25.708 972.938L23.7245 974.916L25.708 976.894Z" stroke="#1A232D" stroke-miterlimit="10"/>
<path d="M1.10639 976.907L3.08984 974.93L1.10639 972.952L-0.877056 974.93L1.10639 976.907Z" stroke="#1A232D" stroke-miterlimit="10"/>
<path d="M222.458 956.3L224.441 954.322L222.458 952.345L220.475 954.322L222.458 956.3Z" stroke="#1A232D" stroke-miterlimit="10"/>
<path d="M197.872 956.275L199.855 954.297L197.872 952.319L195.889 954.297L197.872 956.275Z" stroke="#1A232D" stroke-miterlimit="10"/>
<path d="M173.27 956.288L175.254 954.311L173.27 952.333L171.287 954.311L173.27 956.288Z" stroke="#1A232D" stroke-miterlimit="10"/>
<path d="M148.669 956.28L150.652 954.303L148.669 952.325L146.685 954.303L148.669 956.28Z" stroke="#1A232D" stroke-miterlimit="10"/>
<path d="M124.083 956.279L126.066 954.301L124.083 952.323L122.1 954.301L124.083 956.279Z" stroke="#1A232D" stroke-miterlimit="10"/>
<path d="M99.4814 956.292L101.465 954.314L99.4814 952.337L97.4979 954.314L99.4814 956.292Z" stroke="#1A232D" stroke-miterlimit="10"/>
<path d="M74.9033 956.284L76.8867 954.307L74.9033 952.329L72.9198 954.307L74.9033 956.284Z" stroke="#1A232D" stroke-miterlimit="10"/>
<path d="M50.2939 956.282L52.2773 954.305L50.2939 952.327L48.3104 954.305L50.2939 956.282Z" stroke="#1A232D" stroke-miterlimit="10"/>
<path d="M25.7158 956.296L27.6992 954.318L25.7158 952.341L23.7323 954.318L25.7158 956.296Z" stroke="#1A232D" stroke-miterlimit="10"/>
<path d="M1.11421 956.31L3.09766 954.332L1.11421 952.354L-0.869244 954.332L1.11421 956.31Z" stroke="#1A232D" stroke-miterlimit="10"/>
<path d="M222.462 935.718L224.445 933.74L222.462 931.762L220.478 933.74L222.462 935.718Z" stroke="#1A232D" stroke-miterlimit="10"/>
<path d="M197.876 935.695L199.859 933.717L197.876 931.739L195.892 933.717L197.876 935.695Z" stroke="#1A232D" stroke-miterlimit="10"/>
<path d="M173.274 935.73L175.258 933.752L173.274 931.774L171.291 933.752L173.274 935.73Z" stroke="#1A232D" stroke-miterlimit="10"/>
<path d="M148.673 935.722L150.656 933.744L148.673 931.766L146.689 933.744L148.673 935.722Z" stroke="#1A232D" stroke-miterlimit="10"/>
<path d="M124.087 935.697L126.07 933.719L124.087 931.741L122.103 933.719L124.087 935.697Z" stroke="#1A232D" stroke-miterlimit="10"/>
<path d="M99.4853 935.71L101.469 933.732L99.4853 931.755L97.5019 933.732L99.4853 935.71Z" stroke="#1A232D" stroke-miterlimit="10"/>
<path d="M74.9072 935.724L76.8906 933.746L74.9072 931.768L72.9237 933.746L74.9072 935.724Z" stroke="#1A232D" stroke-miterlimit="10"/>
<path d="M50.2978 935.724L52.2812 933.746L50.2978 931.768L48.3144 933.746L50.2978 935.724Z" stroke="#1A232D" stroke-miterlimit="10"/>
<path d="M25.7197 935.714L27.7031 933.736L25.7197 931.759L23.7362 933.736L25.7197 935.714Z" stroke="#1A232D" stroke-miterlimit="10"/>
<path d="M1.11811 935.728L3.10156 933.75L1.11811 931.772L-0.865338 933.75L1.11811 935.728Z" stroke="#1A232D" stroke-miterlimit="10"/>
<path d="M222.466 915.157L224.449 913.18L222.466 911.202L220.482 913.18L222.466 915.157Z" stroke="#1A232D" stroke-miterlimit="10"/>
<path d="M197.88 915.134L199.863 913.156L197.88 911.178L195.896 913.156L197.88 915.134Z" stroke="#1A232D" stroke-miterlimit="10"/>
<path d="M173.278 915.148L175.262 913.17L173.278 911.192L171.295 913.17L173.278 915.148Z" stroke="#1A232D" stroke-miterlimit="10"/>
<path d="M148.677 915.14L150.66 913.162L148.677 911.184L146.693 913.162L148.677 915.14Z" stroke="#1A232D" stroke-miterlimit="10"/>
<path d="M124.091 915.138L126.074 913.16L124.091 911.182L122.107 913.16L124.091 915.138Z" stroke="#1A232D" stroke-miterlimit="10"/>
<path d="M99.4892 915.152L101.473 913.174L99.4892 911.196L97.5058 913.174L99.4892 915.152Z" stroke="#1A232D" stroke-miterlimit="10"/>
<path d="M74.8876 915.144L76.8711 913.166L74.8876 911.188L72.9042 913.166L74.8876 915.144Z" stroke="#1A232D" stroke-miterlimit="10"/>
<path d="M50.3017 915.142L52.2852 913.164L50.3017 911.186L48.3183 913.164L50.3017 915.142Z" stroke="#1A232D" stroke-miterlimit="10"/>
<path d="M25.7197 915.132L27.7031 913.154L25.7197 911.177L23.7362 913.154L25.7197 915.132Z" stroke="#1A232D" stroke-miterlimit="10"/>
<path d="M1.09858 915.146L3.08203 913.168L1.09858 911.19L-0.884869 913.168L1.09858 915.146Z" stroke="#1A232D" stroke-miterlimit="10"/>
<path d="M222.466 894.575L224.449 892.598L222.466 890.62L220.482 892.598L222.466 894.575Z" stroke="#1A232D" stroke-miterlimit="10"/>
<path d="M197.88 894.552L199.863 892.574L197.88 890.596L195.896 892.574L197.88 894.552Z" stroke="#1A232D" stroke-miterlimit="10"/>
<path d="M173.278 894.566L175.262 892.588L173.278 890.61L171.295 892.588L173.278 894.566Z" stroke="#1A232D" stroke-miterlimit="10"/>
<path d="M148.677 894.558L150.66 892.58L148.677 890.602L146.693 892.58L148.677 894.558Z" stroke="#1A232D" stroke-miterlimit="10"/>
<path d="M124.091 894.556L126.074 892.578L124.091 890.6L122.107 892.578L124.091 894.556Z" stroke="#1A232D" stroke-miterlimit="10"/>
<path d="M99.4892 894.57L101.473 892.592L99.4892 890.614L97.5058 892.592L99.4892 894.57Z" stroke="#1A232D" stroke-miterlimit="10"/>
<path d="M74.9111 894.562L76.8945 892.584L74.9111 890.606L72.9276 892.584L74.9111 894.562Z" stroke="#1A232D" stroke-miterlimit="10"/>
<path d="M50.3017 894.56L52.2852 892.582L50.3017 890.604L48.3183 892.582L50.3017 894.56Z" stroke="#1A232D" stroke-miterlimit="10"/>
<path d="M25.7236 894.552L27.707 892.574L25.7236 890.596L23.7401 892.574L25.7236 894.552Z" stroke="#1A232D" stroke-miterlimit="10"/>
<path d="M1.12202 894.566L3.10547 892.588L1.12202 890.61L-0.861431 892.588L1.12202 894.566Z" stroke="#1A232D" stroke-miterlimit="10"/>
<path d="M222.47 873.993L224.453 872.016L222.47 870.038L220.486 872.016L222.47 873.993Z" stroke="#1A232D" stroke-miterlimit="10"/>
<path d="M197.884 873.97L199.867 871.992L197.884 870.014L195.9 871.992L197.884 873.97Z" stroke="#1A232D" stroke-miterlimit="10"/>
<path d="M173.282 873.984L175.266 872.006L173.282 870.028L171.299 872.006L173.282 873.984Z" stroke="#1A232D" stroke-miterlimit="10"/>
<path d="M148.681 873.976L150.664 871.998L148.681 870.02L146.697 871.998L148.681 873.976Z" stroke="#1A232D" stroke-miterlimit="10"/>
<path d="M124.095 873.974L126.078 871.996L124.095 870.018L122.111 871.996L124.095 873.974Z" stroke="#1A232D" stroke-miterlimit="10"/>
<path d="M99.4931 873.988L101.477 872.01L99.4931 870.032L97.5097 872.01L99.4931 873.988Z" stroke="#1A232D" stroke-miterlimit="10"/>
<path d="M74.8915 873.98L76.875 872.002L74.8916 870.024L72.9081 872.002L74.8915 873.98Z" stroke="#1A232D" stroke-miterlimit="10"/>
<path d="M50.3056 873.978L52.2891 872L50.3056 870.022L48.3222 872L50.3056 873.978Z" stroke="#1A232D" stroke-miterlimit="10"/>
<path d="M25.7236 873.97L27.707 871.992L25.7236 870.014L23.7401 871.992L25.7236 873.97Z" stroke="#1A232D" stroke-miterlimit="10"/>
<path d="M1.12202 873.984L3.10547 872.006L1.12202 870.028L-0.861431 872.006L1.12202 873.984Z" stroke="#1A232D" stroke-miterlimit="10"/>
<path d="M222.493 853.433L224.477 851.455L222.493 849.477L220.51 851.455L222.493 853.433Z" stroke="#1A232D" stroke-miterlimit="10"/>
<path d="M197.884 853.409L199.867 851.432L197.884 849.454L195.9 851.432L197.884 853.409Z" stroke="#1A232D" stroke-miterlimit="10"/>
<path d="M173.282 853.423L175.266 851.445L173.282 849.468L171.299 851.445L173.282 853.423Z" stroke="#1A232D" stroke-miterlimit="10"/>
<path d="M148.681 853.415L150.664 851.438L148.681 849.46L146.697 851.438L148.681 853.415Z" stroke="#1A232D" stroke-miterlimit="10"/>
<path d="M124.095 853.392L126.078 851.414L124.095 849.436L122.111 851.414L124.095 853.392Z" stroke="#1A232D" stroke-miterlimit="10"/>
<path d="M99.4931 853.405L101.477 851.428L99.4931 849.45L97.5097 851.428L99.4931 853.405Z" stroke="#1A232D" stroke-miterlimit="10"/>
<path d="M74.8915 853.419L76.875 851.441L74.8916 849.464L72.9081 851.441L74.8915 853.419Z" stroke="#1A232D" stroke-miterlimit="10"/>
<path d="M50.3056 853.417L52.2891 851.439L50.3056 849.462L48.3222 851.439L50.3056 853.417Z" stroke="#1A232D" stroke-miterlimit="10"/>
<path d="M25.7275 853.409L27.7109 851.432L25.7275 849.454L23.744 851.432L25.7275 853.409Z" stroke="#1A232D" stroke-miterlimit="10"/>
<path d="M1.10249 853.423L3.08594 851.445L1.10249 849.468L-0.880963 851.445L1.10249 853.423Z" stroke="#1A232D" stroke-miterlimit="10"/>
<path d="M222.477 832.835L224.461 830.857L222.477 828.88L220.494 830.857L222.477 832.835Z" stroke="#1A232D" stroke-miterlimit="10"/>
<path d="M197.872 832.812L199.855 830.834L197.872 828.856L195.889 830.834L197.872 832.812Z" stroke="#1A232D" stroke-miterlimit="10"/>
<path d="M173.29 832.825L175.273 830.848L173.29 828.87L171.307 830.848L173.29 832.825Z" stroke="#1A232D" stroke-miterlimit="10"/>
<path d="M148.669 832.818L150.652 830.84L148.669 828.862L146.685 830.84L148.669 832.818Z" stroke="#1A232D" stroke-miterlimit="10"/>
<path d="M124.083 832.816L126.066 830.838L124.083 828.86L122.1 830.838L124.083 832.816Z" stroke="#1A232D" stroke-miterlimit="10"/>
<path d="M99.5009 832.829L101.484 830.852L99.5009 828.874L97.5175 830.852L99.5009 832.829Z" stroke="#1A232D" stroke-miterlimit="10"/>
<path d="M74.8798 832.822L76.8633 830.844L74.8798 828.866L72.8964 830.844L74.8798 832.822Z" stroke="#1A232D" stroke-miterlimit="10"/>
<path d="M50.3134 832.82L52.2969 830.842L50.3134 828.864L48.33 830.842L50.3134 832.82Z" stroke="#1A232D" stroke-miterlimit="10"/>
<path d="M25.7119 832.812L27.6953 830.834L25.7119 828.856L23.7284 830.834L25.7119 832.812Z" stroke="#1A232D" stroke-miterlimit="10"/>
<path d="M1.09077 832.825L3.07422 830.848L1.09077 828.87L-0.892681 830.848L1.09077 832.825Z" stroke="#1A232D" stroke-miterlimit="10"/>
<path d="M222.458 812.232L224.441 810.254L222.458 808.276L220.475 810.254L222.458 812.232Z" stroke="#1A232D" stroke-miterlimit="10"/>
<path d="M197.872 812.208L199.855 810.23L197.872 808.253L195.889 810.23L197.872 812.208Z" stroke="#1A232D" stroke-miterlimit="10"/>
<path d="M173.27 812.243L175.254 810.266L173.27 808.288L171.287 810.266L173.27 812.243Z" stroke="#1A232D" stroke-miterlimit="10"/>
<path d="M148.669 812.236L150.652 810.258L148.669 808.28L146.685 810.258L148.669 812.236Z" stroke="#1A232D" stroke-miterlimit="10"/>
<path d="M124.083 812.212L126.066 810.234L124.083 808.257L122.1 810.234L124.083 812.212Z" stroke="#1A232D" stroke-miterlimit="10"/>
<path d="M99.4814 812.226L101.465 810.248L99.4814 808.27L97.4979 810.248L99.4814 812.226Z" stroke="#1A232D" stroke-miterlimit="10"/>
<path d="M74.8798 812.239L76.8633 810.262L74.8798 808.284L72.8964 810.262L74.8798 812.239Z" stroke="#1A232D" stroke-miterlimit="10"/>
<path d="M50.3173 812.238L52.3008 810.26L50.3173 808.282L48.3339 810.26L50.3173 812.238Z" stroke="#1A232D" stroke-miterlimit="10"/>
<path d="M25.7158 812.23L27.6992 810.252L25.7158 808.274L23.7323 810.252L25.7158 812.23Z" stroke="#1A232D" stroke-miterlimit="10"/>
<path d="M1.11421 812.243L3.09766 810.266L1.1142 808.288L-0.869247 810.266L1.11421 812.243Z" stroke="#1A232D" stroke-miterlimit="10"/>
<path d="M222.481 791.673L224.465 789.695L222.481 787.718L220.498 789.695L222.481 791.673Z" stroke="#1A232D" stroke-miterlimit="10"/>
<path d="M197.876 791.648L199.859 789.67L197.876 787.692L195.892 789.67L197.876 791.648Z" stroke="#1A232D" stroke-miterlimit="10"/>
<path d="M173.294 791.661L175.277 789.684L173.294 787.706L171.31 789.684L173.294 791.661Z" stroke="#1A232D" stroke-miterlimit="10"/>
<path d="M148.673 791.654L150.656 789.676L148.673 787.698L146.689 789.676L148.673 791.654Z" stroke="#1A232D" stroke-miterlimit="10"/>
<path d="M124.087 791.652L126.07 789.674L124.087 787.696L122.103 789.674L124.087 791.652Z" stroke="#1A232D" stroke-miterlimit="10"/>
<path d="M99.5048 791.665L101.488 789.688L99.5048 787.71L97.5214 789.687L99.5048 791.665Z" stroke="#1A232D" stroke-miterlimit="10"/>
<path d="M74.9033 791.657L76.8867 789.68L74.9033 787.702L72.9198 789.68L74.9033 791.657Z" stroke="#1A232D" stroke-miterlimit="10"/>
<path d="M50.3173 791.655L52.3008 789.678L50.3173 787.7L48.3339 789.678L50.3173 791.655Z" stroke="#1A232D" stroke-miterlimit="10"/>
<path d="M25.7158 791.648L27.6992 789.67L25.7158 787.692L23.7323 789.67L25.7158 791.648Z" stroke="#1A232D" stroke-miterlimit="10"/>
<path d="M1.11421 791.661L3.09766 789.684L1.1142 787.706L-0.869247 789.684L1.11421 791.661Z" stroke="#1A232D" stroke-miterlimit="10"/>
<path d="M222.485 771.091L224.469 769.113L222.485 767.136L220.502 769.113L222.485 771.091Z" stroke="#1A232D" stroke-miterlimit="10"/>
<path d="M197.876 771.068L199.859 769.09L197.876 767.112L195.892 769.09L197.876 771.068Z" stroke="#1A232D" stroke-miterlimit="10"/>
<path d="M173.298 771.081L175.281 769.104L173.298 767.126L171.314 769.104L173.298 771.081Z" stroke="#1A232D" stroke-miterlimit="10"/>
<path d="M148.673 771.095L150.656 769.117L148.673 767.139L146.689 769.117L148.673 771.095Z" stroke="#1A232D" stroke-miterlimit="10"/>
<path d="M124.087 771.07L126.07 769.092L124.087 767.114L122.103 769.092L124.087 771.07Z" stroke="#1A232D" stroke-miterlimit="10"/>
<path d="M99.5087 771.083L101.492 769.105L99.5087 767.128L97.5253 769.105L99.5087 771.083Z" stroke="#1A232D" stroke-miterlimit="10"/>
<path d="M74.9072 771.075L76.8906 769.098L74.9072 767.12L72.9237 769.098L74.9072 771.075Z" stroke="#1A232D" stroke-miterlimit="10"/>
<path d="M50.3212 771.073L52.3047 769.096L50.3212 767.118L48.3378 769.096L50.3212 771.073Z" stroke="#1A232D" stroke-miterlimit="10"/>
<path d="M25.7197 771.087L27.7031 769.109L25.7197 767.132L23.7362 769.109L25.7197 771.087Z" stroke="#1A232D" stroke-miterlimit="10"/>
<path d="M1.11811 771.079L3.10156 769.102L1.11811 767.124L-0.865339 769.102L1.11811 771.079Z" stroke="#1A232D" stroke-miterlimit="10"/>
<path d="M222.485 750.509L224.469 748.531L222.485 746.553L220.502 748.531L222.485 750.509Z" stroke="#1A232D" stroke-miterlimit="10"/>
<path d="M197.88 750.486L199.863 748.508L197.88 746.53L195.896 748.508L197.88 750.486Z" stroke="#1A232D" stroke-miterlimit="10"/>
<path d="M173.298 750.499L175.281 748.521L173.298 746.544L171.314 748.521L173.298 750.499Z" stroke="#1A232D" stroke-miterlimit="10"/>
<path d="M148.677 750.513L150.66 748.535L148.677 746.557L146.693 748.535L148.677 750.513Z" stroke="#1A232D" stroke-miterlimit="10"/>
<path d="M124.091 750.489L126.074 748.512L124.091 746.534L122.107 748.512L124.091 750.489Z" stroke="#1A232D" stroke-miterlimit="10"/>
<path d="M99.5087 750.503L101.492 748.525L99.5087 746.548L97.5253 748.525L99.5087 750.503Z" stroke="#1A232D" stroke-miterlimit="10"/>
<path d="M74.8876 750.493L76.8711 748.516L74.8876 746.538L72.9042 748.516L74.8876 750.493Z" stroke="#1A232D" stroke-miterlimit="10"/>
<path d="M50.3212 750.491L52.3047 748.514L50.3212 746.536L48.3378 748.514L50.3212 750.491Z" stroke="#1A232D" stroke-miterlimit="10"/>
<path d="M25.7197 750.505L27.7031 748.527L25.7197 746.55L23.7362 748.527L25.7197 750.505Z" stroke="#1A232D" stroke-miterlimit="10"/>
<path d="M1.11811 750.497L3.10156 748.52L1.11811 746.542L-0.86534 748.52L1.11811 750.497Z" stroke="#1A232D" stroke-miterlimit="10"/>
</g>
</g>
<defs>
<linearGradient id="paint0_linear_10879_24490" x1="960.5" y1="0" x2="960.5" y2="999" gradientUnits="userSpaceOnUse">
<stop stop-color="#A9FF9B"/>
<stop offset="1" stop-color="white"/>
</linearGradient>
<clipPath id="clip0_10879_24490">
<rect width="253" height="254" fill="white" transform="translate(-27 745)"/>
</clipPath>
</defs>
</svg>
