<svg width="842" height="442" viewBox="0 0 842 442" fill="none" xmlns="http://www.w3.org/2000/svg">
<rect width="841.332" height="355.118" transform="translate(0.667969 86.2905)" fill="white"/>
<path d="M177.843 147.757C177.471 147.076 176.96 146.557 176.31 146.201C175.659 145.845 174.9 145.667 174.033 145.667C173.073 145.667 172.221 145.883 171.477 146.317C170.734 146.751 170.153 147.37 169.735 148.176C169.317 148.981 169.108 149.91 169.108 150.964C169.108 152.048 169.317 152.992 169.735 153.798C170.169 154.603 170.765 155.223 171.524 155.656C172.283 156.09 173.166 156.307 174.172 156.307C175.411 156.307 176.426 155.982 177.216 155.331C178.006 154.665 178.524 153.744 178.772 152.567H173.197V150.081H181.978V152.915C181.761 154.046 181.297 155.091 180.584 156.051C179.872 157.012 178.95 157.786 177.82 158.375C176.705 158.948 175.45 159.234 174.056 159.234C172.492 159.234 171.075 158.886 169.805 158.189C168.55 157.476 167.559 156.493 166.831 155.238C166.119 153.984 165.762 152.559 165.762 150.964C165.762 149.368 166.119 147.943 166.831 146.689C167.559 145.419 168.55 144.435 169.805 143.738C171.075 143.026 172.484 142.67 174.033 142.67C175.861 142.67 177.448 143.119 178.796 144.017C180.143 144.9 181.072 146.147 181.583 147.757H177.843ZM196.419 152.381C196.419 152.845 196.388 153.263 196.326 153.635H186.917C186.994 154.564 187.32 155.292 187.893 155.819C188.466 156.346 189.17 156.609 190.007 156.609C191.215 156.609 192.074 156.09 192.586 155.052H196.094C195.722 156.291 195.009 157.314 193.956 158.119C192.903 158.909 191.61 159.304 190.076 159.304C188.837 159.304 187.722 159.033 186.731 158.491C185.755 157.933 184.989 157.151 184.431 156.144C183.889 155.138 183.618 153.976 183.618 152.659C183.618 151.327 183.889 150.158 184.431 149.151C184.973 148.145 185.732 147.37 186.708 146.828C187.684 146.286 188.806 146.015 190.076 146.015C191.3 146.015 192.392 146.278 193.352 146.805C194.328 147.332 195.079 148.083 195.606 149.058C196.148 150.019 196.419 151.126 196.419 152.381ZM193.05 151.451C193.035 150.615 192.733 149.949 192.144 149.453C191.556 148.942 190.835 148.687 189.984 148.687C189.178 148.687 188.497 148.935 187.939 149.43C187.397 149.91 187.064 150.584 186.94 151.451H193.05ZM202.649 148.896V155.122C202.649 155.556 202.75 155.873 202.951 156.075C203.168 156.26 203.524 156.353 204.02 156.353H205.53V159.095H203.486C200.744 159.095 199.374 157.763 199.374 155.099V148.896H197.84V146.224H199.374V143.041H202.649V146.224H205.53V148.896H202.649ZM215.194 144.691C214.621 144.691 214.141 144.513 213.754 144.157C213.382 143.785 213.196 143.328 213.196 142.786C213.196 142.244 213.382 141.795 213.754 141.438C214.141 141.067 214.621 140.881 215.194 140.881C215.767 140.881 216.24 141.067 216.611 141.438C216.999 141.795 217.192 142.244 217.192 142.786C217.192 143.328 216.999 143.785 216.611 144.157C216.24 144.513 215.767 144.691 215.194 144.691ZM216.797 146.224V159.095H213.545V146.224H216.797ZM219.244 152.613C219.244 151.312 219.5 150.158 220.011 149.151C220.537 148.145 221.25 147.37 222.148 146.828C223.046 146.286 224.045 146.015 225.145 146.015C225.981 146.015 226.779 146.201 227.538 146.573C228.297 146.929 228.901 147.409 229.35 148.013V141.903H232.649V159.095H229.35V157.19C228.947 157.825 228.382 158.336 227.654 158.723C226.926 159.11 226.082 159.304 225.122 159.304C224.038 159.304 223.046 159.025 222.148 158.467C221.25 157.91 220.537 157.128 220.011 156.121C219.5 155.099 219.244 153.929 219.244 152.613ZM229.373 152.659C229.373 151.87 229.218 151.196 228.909 150.638C228.599 150.065 228.181 149.632 227.654 149.337C227.127 149.028 226.562 148.873 225.958 148.873C225.354 148.873 224.796 149.02 224.285 149.314C223.774 149.608 223.356 150.042 223.031 150.615C222.721 151.173 222.566 151.839 222.566 152.613C222.566 153.387 222.721 154.069 223.031 154.657C223.356 155.23 223.774 155.672 224.285 155.982C224.812 156.291 225.369 156.446 225.958 156.446C226.562 156.446 227.127 156.299 227.654 156.005C228.181 155.695 228.599 155.261 228.909 154.704C229.218 154.131 229.373 153.449 229.373 152.659ZM247.86 152.381C247.86 152.845 247.829 153.263 247.767 153.635H238.358C238.435 154.564 238.76 155.292 239.334 155.819C239.907 156.346 240.611 156.609 241.448 156.609C242.656 156.609 243.515 156.09 244.026 155.052H247.534C247.163 156.291 246.45 157.314 245.397 158.119C244.344 158.909 243.051 159.304 241.517 159.304C240.278 159.304 239.163 159.033 238.172 158.491C237.196 157.933 236.43 157.151 235.872 156.144C235.33 155.138 235.059 153.976 235.059 152.659C235.059 151.327 235.33 150.158 235.872 149.151C236.414 148.145 237.173 147.37 238.149 146.828C239.124 146.286 240.247 146.015 241.517 146.015C242.741 146.015 243.833 146.278 244.793 146.805C245.769 147.332 246.52 148.083 247.047 149.058C247.589 150.019 247.86 151.126 247.86 152.381ZM244.491 151.451C244.476 150.615 244.174 149.949 243.585 149.453C242.996 148.942 242.276 148.687 241.424 148.687C240.619 148.687 239.938 148.935 239.38 149.43C238.838 149.91 238.505 150.584 238.381 151.451H244.491ZM249.467 152.613C249.467 151.312 249.723 150.158 250.234 149.151C250.76 148.145 251.465 147.37 252.348 146.828C253.246 146.286 254.245 146.015 255.345 146.015C256.305 146.015 257.141 146.209 257.854 146.596C258.582 146.983 259.163 147.471 259.596 148.06V146.224H262.872V159.095H259.596V157.213C259.178 157.817 258.597 158.32 257.854 158.723C257.126 159.11 256.282 159.304 255.322 159.304C254.237 159.304 253.246 159.025 252.348 158.467C251.465 157.91 250.76 157.128 250.234 156.121C249.723 155.099 249.467 153.929 249.467 152.613ZM259.596 152.659C259.596 151.87 259.441 151.196 259.132 150.638C258.822 150.065 258.404 149.632 257.877 149.337C257.35 149.028 256.785 148.873 256.181 148.873C255.577 148.873 255.02 149.02 254.508 149.314C253.997 149.608 253.579 150.042 253.254 150.615C252.944 151.173 252.789 151.839 252.789 152.613C252.789 153.387 252.944 154.069 253.254 154.657C253.579 155.23 253.997 155.672 254.508 155.982C255.035 156.291 255.593 156.446 256.181 156.446C256.785 156.446 257.35 156.299 257.877 156.005C258.404 155.695 258.822 155.261 259.132 154.704C259.441 154.131 259.596 153.449 259.596 152.659ZM271.043 159.304C269.99 159.304 269.045 159.118 268.209 158.746C267.373 158.359 266.707 157.84 266.211 157.19C265.731 156.539 265.468 155.819 265.421 155.029H268.697C268.759 155.525 268.999 155.935 269.417 156.26C269.851 156.586 270.385 156.748 271.02 156.748C271.64 156.748 272.12 156.624 272.461 156.377C272.817 156.129 272.995 155.811 272.995 155.424C272.995 155.006 272.778 154.696 272.344 154.495C271.926 154.278 271.253 154.046 270.323 153.798C269.363 153.565 268.573 153.325 267.954 153.078C267.35 152.83 266.823 152.45 266.374 151.939C265.94 151.428 265.723 150.739 265.723 149.872C265.723 149.159 265.925 148.509 266.327 147.92C266.746 147.332 267.334 146.867 268.093 146.526C268.867 146.185 269.773 146.015 270.811 146.015C272.344 146.015 273.568 146.402 274.482 147.177C275.396 147.936 275.899 148.966 275.992 150.267H272.879C272.832 149.755 272.615 149.353 272.228 149.058C271.857 148.749 271.353 148.594 270.718 148.594C270.13 148.594 269.673 148.702 269.348 148.919C269.038 149.136 268.883 149.438 268.883 149.825C268.883 150.259 269.1 150.592 269.533 150.824C269.967 151.041 270.641 151.266 271.555 151.498C272.484 151.73 273.25 151.97 273.855 152.218C274.459 152.466 274.977 152.853 275.411 153.38C275.86 153.891 276.093 154.572 276.108 155.424C276.108 156.167 275.899 156.833 275.481 157.422C275.078 158.011 274.49 158.475 273.715 158.816C272.956 159.141 272.066 159.304 271.043 159.304Z" fill="#034737"/>
<rect x="136.742" y="180.048" width="162.775" height="9.95659" rx="4.9783" fill="#E4E4E4"/>
<rect x="136.742" y="180.048" width="81.3868" height="9.95659" rx="4.9783" fill="#034737"/>
<circle cx="78.6557" cy="185.856" r="28.2103" fill="#034737"/>
<path d="M82.8592 175.834V195.144H79.9364V178.757H79.8232L75.2032 181.774V178.983L80.0212 175.834H82.8592Z" fill="white"/>
<path d="M670.295 159.257C668.792 159.257 667.422 158.909 666.182 158.212C664.943 157.499 663.96 156.516 663.232 155.261C662.52 153.991 662.163 152.567 662.163 150.987C662.163 149.407 662.52 147.99 663.232 146.735C663.96 145.465 664.943 144.482 666.182 143.785C667.422 143.072 668.792 142.716 670.295 142.716C671.812 142.716 673.191 143.072 674.43 143.785C675.669 144.482 676.645 145.458 677.357 146.712C678.07 147.967 678.426 149.391 678.426 150.987C678.426 152.582 678.07 154.007 677.357 155.261C676.645 156.516 675.669 157.499 674.43 158.212C673.191 158.909 671.812 159.257 670.295 159.257ZM670.295 157.422C671.425 157.422 672.44 157.159 673.338 156.632C674.252 156.106 674.964 155.354 675.475 154.379C676.002 153.403 676.265 152.272 676.265 150.987C676.265 149.686 676.002 148.555 675.475 147.595C674.964 146.619 674.26 145.868 673.361 145.341C672.463 144.815 671.441 144.551 670.295 144.551C669.148 144.551 668.126 144.815 667.228 145.341C666.33 145.868 665.617 146.619 665.091 147.595C664.579 148.555 664.324 149.686 664.324 150.987C664.324 152.272 664.579 153.403 665.091 154.379C665.617 155.354 666.33 156.106 667.228 156.632C668.142 157.159 669.164 157.422 670.295 157.422ZM692.577 146.364V159.095H690.463V157.213C690.06 157.863 689.495 158.375 688.767 158.746C688.055 159.102 687.265 159.281 686.397 159.281C685.406 159.281 684.516 159.079 683.726 158.677C682.936 158.258 682.309 157.639 681.844 156.818C681.395 155.997 681.17 154.998 681.17 153.821V146.364H683.261V153.542C683.261 154.797 683.579 155.765 684.214 156.446C684.849 157.112 685.716 157.445 686.816 157.445C687.946 157.445 688.837 157.097 689.487 156.4C690.138 155.703 690.463 154.688 690.463 153.356V146.364H692.577ZM698.795 148.106V155.61C698.795 156.229 698.927 156.671 699.19 156.934C699.453 157.182 699.91 157.306 700.561 157.306H702.117V159.095H700.212C699.035 159.095 698.152 158.824 697.564 158.282C696.975 157.74 696.681 156.849 696.681 155.61V148.106H695.032V146.364H696.681V143.158H698.795V146.364H702.117V148.106H698.795ZM706.863 141.903V159.095H704.749V141.903H706.863ZM711.627 144.296C711.225 144.296 710.884 144.157 710.605 143.878C710.326 143.599 710.187 143.258 710.187 142.856C710.187 142.453 710.326 142.112 710.605 141.833C710.884 141.555 711.225 141.415 711.627 141.415C712.015 141.415 712.34 141.555 712.603 141.833C712.882 142.112 713.021 142.453 713.021 142.856C713.021 143.258 712.882 143.599 712.603 143.878C712.34 144.157 712.015 144.296 711.627 144.296ZM712.65 146.364V159.095H710.536V146.364H712.65ZM722.525 146.131C724.074 146.131 725.329 146.604 726.289 147.548C727.249 148.478 727.729 149.825 727.729 151.591V159.095H725.639V151.893C725.639 150.623 725.321 149.655 724.686 148.989C724.051 148.307 723.184 147.967 722.084 147.967C720.969 147.967 720.078 148.315 719.412 149.012C718.762 149.709 718.437 150.723 718.437 152.055V159.095H716.323V146.364H718.437V148.176C718.855 147.525 719.42 147.022 720.133 146.666C720.861 146.309 721.658 146.131 722.525 146.131ZM742.869 152.241C742.869 152.644 742.845 153.07 742.799 153.519H732.623C732.701 154.774 733.127 155.757 733.901 156.47C734.691 157.166 735.643 157.515 736.759 157.515C737.672 157.515 738.431 157.306 739.035 156.888C739.655 156.454 740.088 155.881 740.336 155.169H742.613C742.272 156.392 741.591 157.391 740.569 158.165C739.546 158.924 738.276 159.304 736.759 159.304C735.55 159.304 734.466 159.033 733.506 158.491C732.561 157.949 731.818 157.182 731.276 156.191C730.734 155.184 730.463 154.022 730.463 152.706C730.463 151.389 730.726 150.236 731.253 149.244C731.779 148.253 732.515 147.494 733.46 146.968C734.42 146.426 735.52 146.154 736.759 146.154C737.967 146.154 739.035 146.418 739.965 146.944C740.894 147.471 741.606 148.199 742.102 149.128C742.613 150.042 742.869 151.08 742.869 152.241ZM740.685 151.8C740.685 150.994 740.507 150.305 740.15 149.732C739.794 149.144 739.306 148.702 738.687 148.408C738.083 148.098 737.409 147.943 736.666 147.943C735.597 147.943 734.683 148.284 733.924 148.966C733.181 149.647 732.755 150.592 732.646 151.8H740.685ZM750.236 159.304C749.26 159.304 748.385 159.141 747.611 158.816C746.836 158.475 746.224 158.011 745.775 157.422C745.326 156.818 745.078 156.129 745.032 155.354H747.216C747.278 155.989 747.572 156.508 748.099 156.911C748.641 157.314 749.345 157.515 750.213 157.515C751.018 157.515 751.653 157.337 752.118 156.981C752.582 156.624 752.815 156.175 752.815 155.633C752.815 155.076 752.567 154.665 752.071 154.402C751.576 154.123 750.809 153.852 749.771 153.589C748.826 153.341 748.052 153.093 747.448 152.845C746.859 152.582 746.348 152.203 745.915 151.707C745.497 151.196 745.287 150.53 745.287 149.709C745.287 149.058 745.481 148.462 745.868 147.92C746.255 147.378 746.805 146.952 747.518 146.642C748.23 146.317 749.043 146.154 749.957 146.154C751.366 146.154 752.505 146.511 753.372 147.223C754.24 147.936 754.704 148.911 754.766 150.15H752.652C752.606 149.484 752.334 148.95 751.839 148.547C751.359 148.145 750.708 147.943 749.887 147.943C749.128 147.943 748.524 148.106 748.075 148.431C747.626 148.756 747.402 149.182 747.402 149.709C747.402 150.127 747.533 150.476 747.796 150.754C748.075 151.018 748.416 151.235 748.819 151.405C749.237 151.56 749.81 151.738 750.538 151.939C751.452 152.187 752.195 152.435 752.768 152.683C753.341 152.915 753.829 153.271 754.232 153.751C754.65 154.231 754.867 154.859 754.882 155.633C754.882 156.33 754.689 156.957 754.301 157.515C753.914 158.073 753.364 158.514 752.652 158.839C751.955 159.149 751.15 159.304 750.236 159.304Z" fill="#14171B"/>
<rect x="628.082" y="180.048" width="162.775" height="9.95659" rx="4.9783" fill="#E4E4E4"/>
<circle cx="569.859" cy="185.856" r="28.2103" fill="#F2F2F2"/>
<path d="M563.42 195.921V193.809L569.954 187.04C570.652 186.304 571.227 185.66 571.679 185.107C572.138 184.547 572.481 184.016 572.707 183.513C572.933 183.011 573.047 182.476 573.047 181.91C573.047 181.269 572.896 180.716 572.594 180.251C572.292 179.78 571.881 179.418 571.359 179.167C570.837 178.909 570.249 178.78 569.596 178.78C568.904 178.78 568.301 178.922 567.785 179.204C567.27 179.487 566.874 179.886 566.597 180.402C566.321 180.917 566.183 181.521 566.183 182.212H563.401C563.401 181.037 563.671 180.009 564.212 179.129C564.753 178.249 565.494 177.567 566.437 177.083C567.38 176.593 568.452 176.348 569.652 176.348C570.865 176.348 571.934 176.59 572.858 177.074C573.788 177.551 574.514 178.205 575.036 179.035C575.558 179.858 575.819 180.788 575.819 181.826C575.819 182.542 575.683 183.243 575.413 183.928C575.149 184.613 574.687 185.377 574.027 186.219C573.367 187.055 572.449 188.071 571.274 189.265L567.437 193.281V193.423H576.13V195.921H563.42Z" fill="#6F6C90"/>
<path d="M148.969 332.078V333.797H144.555V348.271H142.441V333.797H138.003V332.078H148.969ZM150.851 341.858C150.851 340.557 151.114 339.419 151.641 338.443C152.168 337.452 152.888 336.685 153.802 336.143C154.731 335.601 155.761 335.33 156.891 335.33C158.007 335.33 158.975 335.57 159.795 336.05C160.616 336.531 161.228 337.135 161.631 337.863V335.539H163.768V348.271H161.631V345.901C161.213 346.644 160.585 347.264 159.749 347.759C158.928 348.24 157.968 348.48 156.868 348.48C155.738 348.48 154.715 348.201 153.802 347.643C152.888 347.086 152.168 346.304 151.641 345.297C151.114 344.29 150.851 343.144 150.851 341.858ZM161.631 341.882C161.631 340.921 161.437 340.085 161.05 339.373C160.663 338.66 160.136 338.118 159.47 337.746C158.82 337.359 158.099 337.166 157.31 337.166C156.52 337.166 155.799 337.351 155.149 337.723C154.498 338.095 153.98 338.637 153.592 339.349C153.205 340.062 153.012 340.898 153.012 341.858C153.012 342.834 153.205 343.686 153.592 344.414C153.98 345.126 154.498 345.676 155.149 346.063C155.799 346.435 156.52 346.621 157.31 346.621C158.099 346.621 158.82 346.435 159.47 346.063C160.136 345.676 160.663 345.126 161.05 344.414C161.437 343.686 161.631 342.842 161.631 341.882ZM169.525 331.079V348.271H167.41V331.079H169.525ZM180.306 348.271L175.311 342.648V348.271H173.197V331.079H175.311V341.185L180.213 335.539H183.164L177.17 341.882L183.187 348.271H180.306ZM186.315 333.472C185.913 333.472 185.572 333.332 185.293 333.054C185.014 332.775 184.875 332.434 184.875 332.031C184.875 331.629 185.014 331.288 185.293 331.009C185.572 330.73 185.913 330.591 186.315 330.591C186.703 330.591 187.028 330.73 187.291 331.009C187.57 331.288 187.709 331.629 187.709 332.031C187.709 332.434 187.57 332.775 187.291 333.054C187.028 333.332 186.703 333.472 186.315 333.472ZM187.338 335.539V348.271H185.223V335.539H187.338ZM197.213 335.307C198.762 335.307 200.017 335.779 200.977 336.724C201.937 337.653 202.417 339.001 202.417 340.767V348.271H200.326V341.069C200.326 339.799 200.009 338.831 199.374 338.165C198.739 337.483 197.872 337.142 196.772 337.142C195.657 337.142 194.766 337.491 194.1 338.188C193.45 338.885 193.124 339.899 193.124 341.231V348.271H191.01V335.539H193.124V337.351C193.543 336.701 194.108 336.198 194.82 335.841C195.548 335.485 196.346 335.307 197.213 335.307ZM211.191 335.33C212.29 335.33 213.251 335.57 214.072 336.05C214.908 336.531 215.527 337.135 215.93 337.863V335.539H218.068V348.549C218.068 349.711 217.82 350.741 217.324 351.639C216.828 352.553 216.116 353.265 215.187 353.777C214.273 354.288 213.204 354.543 211.981 354.543C210.308 354.543 208.914 354.148 207.799 353.358C206.684 352.568 206.026 351.492 205.824 350.129H207.915C208.147 350.903 208.628 351.523 209.356 351.988C210.083 352.468 210.959 352.708 211.981 352.708C213.142 352.708 214.087 352.344 214.815 351.616C215.558 350.888 215.93 349.866 215.93 348.549V345.878C215.512 346.621 214.892 347.241 214.072 347.736C213.251 348.232 212.29 348.48 211.191 348.48C210.06 348.48 209.03 348.201 208.101 347.643C207.187 347.086 206.467 346.304 205.94 345.297C205.414 344.29 205.151 343.144 205.151 341.858C205.151 340.557 205.414 339.419 205.94 338.443C206.467 337.452 207.187 336.685 208.101 336.143C209.03 335.601 210.06 335.33 211.191 335.33ZM215.93 341.882C215.93 340.921 215.737 340.085 215.349 339.373C214.962 338.66 214.436 338.118 213.77 337.746C213.119 337.359 212.399 337.166 211.609 337.166C210.819 337.166 210.099 337.351 209.448 337.723C208.798 338.095 208.279 338.637 207.892 339.349C207.505 340.062 207.311 340.898 207.311 341.858C207.311 342.834 207.505 343.686 207.892 344.414C208.279 345.126 208.798 345.676 209.448 346.063C210.099 346.435 210.819 346.621 211.609 346.621C212.399 346.621 213.119 346.435 213.77 346.063C214.436 345.676 214.962 345.126 215.349 344.414C215.737 343.686 215.93 342.842 215.93 341.882ZM230.087 337.886C230.506 337.158 231.125 336.554 231.946 336.074C232.782 335.578 233.75 335.33 234.85 335.33C235.981 335.33 237.003 335.601 237.917 336.143C238.846 336.685 239.574 337.452 240.1 338.443C240.627 339.419 240.89 340.557 240.89 341.858C240.89 343.144 240.627 344.29 240.1 345.297C239.574 346.304 238.846 347.086 237.917 347.643C237.003 348.201 235.981 348.48 234.85 348.48C233.766 348.48 232.806 348.24 231.969 347.759C231.148 347.264 230.521 346.652 230.087 345.924V354.311H227.973V335.539H230.087V337.886ZM238.73 341.858C238.73 340.898 238.536 340.062 238.149 339.349C237.762 338.637 237.235 338.095 236.569 337.723C235.919 337.351 235.198 337.166 234.409 337.166C233.634 337.166 232.914 337.359 232.248 337.746C231.597 338.118 231.071 338.668 230.668 339.396C230.281 340.108 230.087 340.937 230.087 341.882C230.087 342.842 230.281 343.686 230.668 344.414C231.071 345.126 231.597 345.676 232.248 346.063C232.914 346.435 233.634 346.621 234.409 346.621C235.198 346.621 235.919 346.435 236.569 346.063C237.235 345.676 237.762 345.126 238.149 344.414C238.536 343.686 238.73 342.834 238.73 341.858ZM249.295 348.48C248.103 348.48 247.018 348.209 246.043 347.666C245.082 347.124 244.324 346.358 243.766 345.367C243.224 344.36 242.953 343.198 242.953 341.882C242.953 340.581 243.232 339.435 243.789 338.443C244.362 337.437 245.137 336.67 246.112 336.143C247.088 335.601 248.18 335.33 249.388 335.33C250.596 335.33 251.688 335.601 252.664 336.143C253.64 336.67 254.406 337.429 254.964 338.42C255.537 339.411 255.823 340.565 255.823 341.882C255.823 343.198 255.529 344.36 254.941 345.367C254.368 346.358 253.585 347.124 252.594 347.666C251.603 348.209 250.503 348.48 249.295 348.48ZM249.295 346.621C250.054 346.621 250.767 346.443 251.433 346.087C252.099 345.73 252.633 345.196 253.036 344.484C253.454 343.771 253.663 342.904 253.663 341.882C253.663 340.859 253.461 339.992 253.059 339.28C252.656 338.567 252.13 338.041 251.479 337.7C250.829 337.344 250.124 337.166 249.365 337.166C248.591 337.166 247.878 337.344 247.228 337.7C246.593 338.041 246.081 338.567 245.694 339.28C245.307 339.992 245.113 340.859 245.113 341.882C245.113 342.919 245.299 343.794 245.671 344.507C246.058 345.219 246.569 345.754 247.204 346.11C247.839 346.451 248.536 346.621 249.295 346.621ZM259.765 333.472C259.362 333.472 259.021 333.332 258.742 333.054C258.464 332.775 258.324 332.434 258.324 332.031C258.324 331.629 258.464 331.288 258.742 331.009C259.021 330.73 259.362 330.591 259.765 330.591C260.152 330.591 260.477 330.73 260.74 331.009C261.019 331.288 261.159 331.629 261.159 332.031C261.159 332.434 261.019 332.775 260.74 333.054C260.477 333.332 260.152 333.472 259.765 333.472ZM260.787 335.539V348.271H258.673V335.539H260.787ZM270.663 335.307C272.212 335.307 273.466 335.779 274.426 336.724C275.387 337.653 275.867 339.001 275.867 340.767V348.271H273.776V341.069C273.776 339.799 273.458 338.831 272.823 338.165C272.188 337.483 271.321 337.142 270.221 337.142C269.106 337.142 268.216 337.491 267.55 338.188C266.899 338.885 266.574 339.899 266.574 341.231V348.271H264.46V335.539H266.574V337.351C266.992 336.701 267.557 336.198 268.27 335.841C268.998 335.485 269.795 335.307 270.663 335.307ZM281.969 337.282V344.786C281.969 345.405 282.1 345.847 282.363 346.11C282.627 346.358 283.084 346.482 283.734 346.482H285.291V348.271H283.386C282.209 348.271 281.326 347.999 280.737 347.457C280.149 346.915 279.854 346.025 279.854 344.786V337.282H278.205V335.539H279.854V332.333H281.969V335.539H285.291V337.282H281.969ZM292.429 348.48C291.453 348.48 290.578 348.317 289.804 347.992C289.029 347.651 288.418 347.186 287.968 346.598C287.519 345.994 287.271 345.305 287.225 344.53H289.409C289.471 345.165 289.765 345.684 290.292 346.087C290.834 346.489 291.538 346.691 292.406 346.691C293.211 346.691 293.846 346.513 294.311 346.156C294.775 345.8 295.008 345.351 295.008 344.809C295.008 344.251 294.76 343.841 294.264 343.578C293.769 343.299 293.002 343.028 291.964 342.765C291.02 342.517 290.245 342.269 289.641 342.021C289.053 341.758 288.541 341.378 288.108 340.883C287.69 340.372 287.481 339.706 287.481 338.885C287.481 338.234 287.674 337.638 288.061 337.096C288.449 336.554 288.998 336.128 289.711 335.818C290.423 335.493 291.236 335.33 292.15 335.33C293.56 335.33 294.698 335.686 295.565 336.399C296.433 337.111 296.897 338.087 296.959 339.326H294.845C294.799 338.66 294.528 338.126 294.032 337.723C293.552 337.32 292.901 337.119 292.08 337.119C291.322 337.119 290.718 337.282 290.268 337.607C289.819 337.932 289.595 338.358 289.595 338.885C289.595 339.303 289.726 339.651 289.99 339.93C290.268 340.193 290.609 340.41 291.012 340.581C291.43 340.736 292.003 340.914 292.731 341.115C293.645 341.363 294.388 341.611 294.961 341.858C295.534 342.091 296.022 342.447 296.425 342.927C296.843 343.407 297.06 344.035 297.075 344.809C297.075 345.506 296.882 346.133 296.495 346.691C296.107 347.248 295.558 347.69 294.845 348.015C294.148 348.325 293.343 348.48 292.429 348.48Z" fill="#14171B"/>
<rect x="137.039" y="369.224" width="162.775" height="9.95659" rx="4.9783" fill="#E4E4E4"/>
<circle cx="78.6557" cy="375.032" r="28.2103" fill="#F2F2F2"/>
<path d="M78.9394 385.361C77.6445 385.361 76.488 385.138 75.4697 384.692C74.4577 384.245 73.6562 383.626 73.0654 382.834C72.4808 382.036 72.1665 381.112 72.1225 380.062H75.0831C75.1208 380.634 75.3125 381.131 75.6582 381.552C76.0102 381.967 76.4691 382.287 77.0348 382.514C77.6005 382.74 78.2291 382.853 78.9205 382.853C79.6811 382.853 80.3537 382.721 80.9383 382.457C81.5291 382.193 81.9911 381.825 82.3243 381.354C82.6574 380.876 82.824 380.326 82.824 379.704C82.824 379.057 82.6574 378.488 82.3243 377.997C81.9974 377.501 81.5165 377.111 80.8817 376.828C80.2531 376.545 79.4925 376.404 78.6 376.404H76.9688V374.028H78.6C79.3165 374.028 79.9451 373.899 80.4857 373.641C81.0325 373.384 81.46 373.025 81.768 372.567C82.076 372.101 82.23 371.558 82.23 370.935C82.23 370.338 82.0948 369.82 81.8245 369.38C81.5605 368.933 81.1834 368.585 80.6931 368.333C80.2091 368.082 79.6371 367.956 78.9771 367.956C78.3485 367.956 77.7608 368.072 77.214 368.305C76.6734 368.531 76.2334 368.858 75.894 369.285C75.5545 369.707 75.3722 370.213 75.3471 370.803H72.528C72.5594 369.76 72.8674 368.842 73.452 368.05C74.0428 367.258 74.8222 366.639 75.7902 366.193C76.7582 365.747 77.8331 365.523 79.0148 365.523C80.2531 365.523 81.3217 365.765 82.2205 366.249C83.1257 366.727 83.8234 367.365 84.3137 368.163C84.8103 368.962 85.0554 369.835 85.0491 370.785C85.0554 371.866 84.7537 372.783 84.144 373.538C83.5405 374.292 82.736 374.798 81.7303 375.056V375.207C83.0125 375.401 84.0057 375.911 84.7097 376.734C85.42 377.557 85.772 378.579 85.7657 379.798C85.772 380.861 85.4766 381.813 84.8794 382.655C84.2885 383.497 83.4808 384.161 82.4563 384.645C81.4317 385.122 80.2594 385.361 78.9394 385.361Z" fill="#6F6C90"/>
<path d="M673.321 333.737V349.93H671.207V333.737H673.321ZM692.304 336.966C693.295 336.966 694.178 337.175 694.952 337.593C695.727 337.996 696.338 338.608 696.787 339.429C697.237 340.25 697.461 341.249 697.461 342.426V349.93H695.37V342.728C695.37 341.458 695.053 340.49 694.418 339.824C693.798 339.142 692.954 338.802 691.886 338.802C690.786 338.802 689.911 339.158 689.26 339.87C688.61 340.567 688.285 341.582 688.285 342.914V349.93H686.194V342.728C686.194 341.458 685.876 340.49 685.241 339.824C684.622 339.142 683.778 338.802 682.709 338.802C681.609 338.802 680.734 339.158 680.084 339.87C679.433 340.567 679.108 341.582 679.108 342.914V349.93H676.994V337.199H679.108V339.034C679.526 338.368 680.084 337.857 680.781 337.501C681.493 337.144 682.275 336.966 683.127 336.966C684.196 336.966 685.14 337.206 685.961 337.686C686.782 338.167 687.394 338.871 687.797 339.801C688.153 338.902 688.741 338.205 689.562 337.71C690.383 337.214 691.297 336.966 692.304 336.966ZM700.209 343.518C700.209 342.217 700.472 341.078 700.999 340.103C701.525 339.111 702.246 338.345 703.159 337.803C704.089 337.26 705.119 336.989 706.249 336.989C707.364 336.989 708.332 337.23 709.153 337.71C709.974 338.19 710.586 338.794 710.989 339.522V337.199H713.126V349.93H710.989V347.56C710.57 348.303 709.943 348.923 709.107 349.419C708.286 349.899 707.326 350.139 706.226 350.139C705.095 350.139 704.073 349.86 703.159 349.302C702.246 348.745 701.525 347.963 700.999 346.956C700.472 345.949 700.209 344.803 700.209 343.518ZM710.989 343.541C710.989 342.581 710.795 341.744 710.408 341.032C710.021 340.319 709.494 339.777 708.828 339.406C708.178 339.018 707.457 338.825 706.667 338.825C705.878 338.825 705.157 339.011 704.507 339.382C703.856 339.754 703.338 340.296 702.95 341.009C702.563 341.721 702.37 342.557 702.37 343.518C702.37 344.493 702.563 345.345 702.95 346.073C703.338 346.786 703.856 347.335 704.507 347.723C705.157 348.094 705.878 348.28 706.667 348.28C707.457 348.28 708.178 348.094 708.828 347.723C709.494 347.335 710.021 346.786 710.408 346.073C710.795 345.345 710.989 344.501 710.989 343.541ZM722.019 336.989C723.118 336.989 724.079 337.23 724.9 337.71C725.736 338.19 726.355 338.794 726.758 339.522V337.199H728.895V350.208C728.895 351.37 728.648 352.4 728.152 353.298C727.656 354.212 726.944 354.925 726.015 355.436C725.101 355.947 724.032 356.202 722.809 356.202C721.136 356.202 719.742 355.807 718.627 355.018C717.512 354.228 716.854 353.151 716.652 351.788H718.743C718.975 352.563 719.456 353.182 720.183 353.647C720.911 354.127 721.786 354.367 722.809 354.367C723.97 354.367 724.915 354.003 725.643 353.275C726.386 352.547 726.758 351.525 726.758 350.208V347.537C726.34 348.28 725.72 348.9 724.9 349.395C724.079 349.891 723.118 350.139 722.019 350.139C720.888 350.139 719.858 349.86 718.929 349.302C718.015 348.745 717.295 347.963 716.768 346.956C716.242 345.949 715.978 344.803 715.978 343.518C715.978 342.217 716.242 341.078 716.768 340.103C717.295 339.111 718.015 338.345 718.929 337.803C719.858 337.26 720.888 336.989 722.019 336.989ZM726.758 343.541C726.758 342.581 726.565 341.744 726.177 341.032C725.79 340.319 725.264 339.777 724.598 339.406C723.947 339.018 723.227 338.825 722.437 338.825C721.647 338.825 720.927 339.011 720.276 339.382C719.626 339.754 719.107 340.296 718.72 341.009C718.333 341.721 718.139 342.557 718.139 343.518C718.139 344.493 718.333 345.345 718.72 346.073C719.107 346.786 719.626 347.335 720.276 347.723C720.927 348.094 721.647 348.28 722.437 348.28C723.227 348.28 723.947 348.094 724.598 347.723C725.264 347.335 725.79 346.786 726.177 346.073C726.565 345.345 726.758 344.501 726.758 343.541ZM744.154 343.076C744.154 343.479 744.131 343.905 744.084 344.354H733.909C733.986 345.609 734.412 346.592 735.186 347.304C735.976 348.001 736.929 348.35 738.044 348.35C738.958 348.35 739.717 348.141 740.321 347.723C740.94 347.289 741.374 346.716 741.622 346.003H743.898C743.558 347.227 742.876 348.226 741.854 349C740.832 349.759 739.562 350.139 738.044 350.139C736.836 350.139 735.752 349.868 734.791 349.326C733.847 348.784 733.103 348.017 732.561 347.026C732.019 346.019 731.748 344.857 731.748 343.541C731.748 342.224 732.011 341.071 732.538 340.079C733.064 339.088 733.8 338.329 734.745 337.803C735.705 337.26 736.805 336.989 738.044 336.989C739.252 336.989 740.321 337.253 741.25 337.779C742.179 338.306 742.892 339.034 743.387 339.963C743.898 340.877 744.154 341.915 744.154 343.076ZM741.97 342.635C741.97 341.829 741.792 341.14 741.436 340.567C741.079 339.979 740.592 339.537 739.972 339.243C739.368 338.933 738.694 338.778 737.951 338.778C736.882 338.778 735.968 339.119 735.209 339.801C734.466 340.482 734.04 341.427 733.932 342.635H741.97ZM751.521 350.139C750.545 350.139 749.67 349.976 748.896 349.651C748.121 349.31 747.51 348.846 747.061 348.257C746.611 347.653 746.364 346.964 746.317 346.189H748.501C748.563 346.824 748.857 347.343 749.384 347.746C749.926 348.149 750.631 348.35 751.498 348.35C752.303 348.35 752.938 348.172 753.403 347.816C753.868 347.459 754.1 347.01 754.1 346.468C754.1 345.911 753.852 345.5 753.356 345.237C752.861 344.958 752.094 344.687 751.056 344.424C750.112 344.176 749.337 343.928 748.733 343.68C748.145 343.417 747.634 343.038 747.2 342.542C746.782 342.031 746.573 341.365 746.573 340.544C746.573 339.893 746.766 339.297 747.153 338.755C747.541 338.213 748.091 337.787 748.803 337.477C749.515 337.152 750.329 336.989 751.242 336.989C752.652 336.989 753.79 337.346 754.657 338.058C755.525 338.771 755.989 339.746 756.051 340.985H753.937C753.891 340.319 753.62 339.785 753.124 339.382C752.644 338.98 751.993 338.778 751.173 338.778C750.414 338.778 749.81 338.941 749.361 339.266C748.911 339.591 748.687 340.017 748.687 340.544C748.687 340.962 748.818 341.311 749.082 341.589C749.361 341.853 749.701 342.07 750.104 342.24C750.522 342.395 751.095 342.573 751.823 342.774C752.737 343.022 753.48 343.27 754.053 343.518C754.626 343.75 755.114 344.106 755.517 344.586C755.935 345.066 756.152 345.694 756.168 346.468C756.168 347.165 755.974 347.792 755.587 348.35C755.2 348.907 754.65 349.349 753.937 349.674C753.24 349.984 752.435 350.139 751.521 350.139Z" fill="#14171B"/>
<rect x="627.934" y="370.883" width="162.775" height="9.95659" rx="4.9783" fill="#E4E4E4"/>
<circle cx="569.859" cy="376.691" r="28.2103" fill="#F2F2F2"/>
<path d="M563.015 382.984V380.627L571.359 367.446H573.216V370.916H572.038L566.069 380.363V380.514H577.506V382.984H563.015ZM572.17 386.756V382.268L572.189 381.193V367.446H574.951V386.756H572.17Z" fill="#6F6C90"/>
<path d="M452.316 404.365H392.891C383.978 404.365 376.727 397.08 376.727 388.126V230.307C376.727 221.352 383.978 214.067 392.891 214.067H452.316C461.229 214.067 468.48 221.352 468.48 230.307C469.586 293.682 471.472 364.652 468.48 388.126C468.48 397.08 461.229 404.365 452.316 404.365Z" fill="#3F3D56"/>
<path d="M469.305 272.118C468.928 272.118 468.621 272.426 468.621 272.805V294.789C468.621 295.168 468.928 295.476 469.305 295.476C469.682 295.476 469.989 295.168 469.989 294.789V272.805C469.989 272.426 469.682 272.118 469.305 272.118Z" fill="#3F3D56"/>
<path d="M466.942 230.306V388.123C466.942 395.916 460.904 402.292 453.269 402.786H453.265C453.152 402.793 453.04 402.8 452.923 402.804C452.722 402.814 452.52 402.817 452.315 402.817C452.315 402.817 451.562 402.762 450.188 402.659C448.8 402.556 446.779 402.402 444.259 402.199C443.504 402.141 442.707 402.075 441.866 402.007C440.19 401.869 438.351 401.718 436.378 401.546C435.592 401.481 434.778 401.409 433.947 401.337C429.7 400.969 424.944 400.54 419.929 400.052C419.081 399.973 418.226 399.891 417.364 399.805C417.139 399.781 378.266 389.964 378.266 388.122V230.306C378.266 222.189 384.813 215.611 392.893 215.611H401.625C403.02 215.611 404.142 216.704 404.261 218.102C404.272 218.194 404.282 218.287 404.299 218.38C404.552 219.785 405.834 220.764 407.257 220.764H437.951C439.373 220.764 440.655 219.785 440.908 218.38C440.926 218.287 440.936 218.194 440.946 218.102C441.066 216.704 442.187 215.611 443.582 215.611H452.315C460.394 215.611 466.942 222.189 466.942 230.306Z" fill="white"/>
<path d="M376.383 255.63C376.006 255.63 375.699 255.938 375.699 256.317V261.813C375.699 262.192 376.006 262.5 376.383 262.5C376.76 262.5 377.067 262.192 377.067 261.813V256.317C377.067 255.938 376.76 255.63 376.383 255.63Z" fill="#3F3D56"/>
<path d="M376.383 272.118C376.006 272.118 375.699 272.426 375.699 272.805V283.454C375.699 283.832 376.006 284.141 376.383 284.141C376.76 284.141 377.067 283.832 377.067 283.454V272.805C377.067 272.426 376.76 272.118 376.383 272.118Z" fill="#3F3D56"/>
<path d="M376.383 287.232C376.006 287.232 375.699 287.54 375.699 287.919V298.567C375.699 298.946 376.006 299.254 376.383 299.254C376.76 299.254 377.067 298.946 377.067 298.567V287.919C377.067 287.54 376.76 287.232 376.383 287.232Z" fill="#3F3D56"/>
<path d="M401.382 218.018H388.304C388.233 218.018 388.176 218.075 388.176 218.147V219.606C388.176 219.677 388.233 219.735 388.304 219.735H401.382C401.453 219.735 401.51 219.677 401.51 219.606V218.147C401.51 218.075 401.453 218.018 401.382 218.018Z" fill="#E6E6E6"/>
<path d="M445.739 219.735C446.494 219.735 447.106 219.12 447.106 218.361C447.106 217.602 446.494 216.987 445.739 216.987C444.983 216.987 444.371 217.602 444.371 218.361C444.371 219.12 444.983 219.735 445.739 219.735Z" fill="#E6E6E6"/>
<path d="M449.504 219.735C450.26 219.735 450.872 219.12 450.872 218.361C450.872 217.602 450.26 216.987 449.504 216.987C448.749 216.987 448.137 217.602 448.137 218.361C448.137 219.12 448.749 219.735 449.504 219.735Z" fill="#E6E6E6"/>
<path d="M453.266 219.735C454.021 219.735 454.634 219.12 454.634 218.361C454.634 217.602 454.021 216.987 453.266 216.987C452.511 216.987 451.898 217.602 451.898 218.361C451.898 219.12 452.511 219.735 453.266 219.735Z" fill="#E6E6E6"/>
<path d="M453.697 340.491C453.697 324.829 440.521 316.214 425.47 312.133C406.174 306.902 392.041 317.488 397.243 340.491C400.697 355.763 418.228 378.555 425.47 364.686C433.757 348.816 453.697 356.152 453.697 340.491Z" fill="#F2F2F2"/>
<path d="M415.773 337.697L412.363 336.074C413.762 338.035 414.967 341.097 415.612 343.534C416.705 341.264 418.466 338.487 420.209 336.827L416.605 337.759C418.825 326.825 427.178 318.975 436.743 318.975L436.878 318.581C426.888 318.581 418.041 326.321 415.773 337.697Z" fill="#3F3D56"/>
<path d="M431.468 354.356H409.923C409.009 354.356 408.266 353.609 408.266 352.691C408.266 351.773 409.009 351.026 409.923 351.026H431.468C432.382 351.026 433.125 351.773 433.125 352.691C433.125 353.609 432.382 354.356 431.468 354.356Z" fill="#034737"/>
<path d="M451.604 268.064V312.187C451.604 316.088 448.444 319.263 444.56 319.263H400.641C396.757 319.263 393.598 316.088 393.598 312.187V268.064C393.598 264.163 396.757 260.988 400.641 260.988H444.56C448.444 260.988 451.604 264.163 451.604 268.064ZM444.56 318.43C447.992 318.43 450.775 315.635 450.775 312.187V289.942C450.775 274.411 438.243 261.821 422.783 261.821H400.641C397.209 261.821 394.426 264.616 394.426 268.064V312.187C394.426 315.635 397.209 318.43 400.641 318.43H444.56Z" fill="#3F3D56"/>
<path d="M428.444 279.009H414.265C413.908 279.009 413.617 278.716 413.617 278.357C413.617 277.998 413.908 277.706 414.265 277.706H428.444C428.802 277.706 429.092 277.998 429.092 278.357C429.092 278.716 428.802 279.009 428.444 279.009Z" fill="#3F3D56"/>
<path d="M428.444 292.896H414.265C413.908 292.896 413.617 292.604 413.617 292.245C413.617 291.886 413.908 291.594 414.265 291.594H428.444C428.802 291.594 429.092 291.886 429.092 292.245C429.092 292.604 428.802 292.896 428.444 292.896Z" fill="#3F3D56"/>
<path d="M421.397 312.043H407.219C406.861 312.043 406.57 311.751 406.57 311.391C406.57 311.032 406.861 310.74 407.219 310.74H421.397C421.755 310.74 422.045 311.032 422.045 311.391C422.045 311.751 421.755 312.043 421.397 312.043Z" fill="#3F3D56"/>
<path d="M436.051 285.957H406.656C406.299 285.957 406.008 285.665 406.008 285.306C406.008 284.947 406.299 284.655 406.656 284.655H436.051C436.409 284.655 436.7 284.947 436.7 285.306C436.7 285.665 436.409 285.957 436.051 285.957Z" fill="#3F3D56"/>
<circle cx="420.502" cy="84.631" r="84.631" fill="#034737"/>
<g clip-path="url(#clip0_9226_22812)">
<path fill-rule="evenodd" clip-rule="evenodd" d="M421.337 49.783H388.978C387.659 49.783 386.39 50.3074 385.46 51.2408C384.523 52.1751 384 53.4412 384 54.7613C384 66.7191 384 107.521 384 119.479C384 122.229 386.232 124.457 388.978 124.457H438.761C441.508 124.457 443.74 122.229 443.74 119.479C443.74 111.073 443.74 89.6093 443.74 89.6093C443.74 88.6933 442.993 87.9499 442.08 87.9499C441.167 87.9499 440.421 88.6933 440.421 89.6093C440.421 89.6093 440.421 111.073 440.421 119.479C440.421 120.396 439.682 121.139 438.761 121.139H388.978C388.057 121.139 387.319 120.396 387.319 119.479C387.319 107.521 387.319 66.7191 387.319 54.7613C387.319 54.3215 387.493 53.8992 387.808 53.5881C388.115 53.2769 388.539 53.1018 388.978 53.1018H421.337C422.25 53.1018 422.997 52.3584 422.997 51.4424C422.997 50.5264 422.25 49.783 421.337 49.783ZM396.861 106.204H430.879C431.792 106.204 432.538 105.46 432.538 104.544C432.538 103.628 431.792 102.885 430.879 102.885H396.861C395.948 102.885 395.201 103.628 395.201 104.544C395.201 105.46 395.948 106.204 396.861 106.204ZM396.861 97.0768H430.879C431.792 97.0768 432.538 96.3334 432.538 95.4174C432.538 94.5014 431.792 93.7579 430.879 93.7579H396.861C395.948 93.7579 395.201 94.5014 395.201 95.4174C395.201 96.3334 395.948 97.0768 396.861 97.0768ZM412.21 68.8665H397.275C396.363 68.8665 395.616 69.6099 395.616 70.5259C395.616 71.4419 396.363 72.1853 397.275 72.1853H403.083V88.7796C403.083 89.6956 403.83 90.4391 404.743 90.4391C405.656 90.4391 406.402 89.6956 406.402 88.7796V72.1853H412.21C413.123 72.1853 413.87 71.4419 413.87 70.5259C413.87 69.6099 413.123 68.8665 412.21 68.8665ZM414.285 88.7796H430.879C431.792 88.7796 432.538 88.0362 432.538 87.1202C432.538 86.2042 431.792 85.4608 430.879 85.4608H414.285C413.372 85.4608 412.625 86.2042 412.625 87.1202C412.625 88.0362 413.372 88.7796 414.285 88.7796ZM448.585 67.4609C448.345 66.8096 447.722 66.3773 447.034 66.3773C446.337 66.3773 445.714 66.8096 445.474 67.4609L443.499 72.8018L438.156 74.7773C437.508 75.0188 437.077 75.6394 437.077 76.3339C437.077 77.0284 437.508 77.649 438.156 77.8904L443.499 79.866L445.474 85.2069C445.714 85.8582 446.337 86.2905 447.034 86.2905C447.722 86.2905 448.345 85.8582 448.585 85.2069L450.56 79.866L455.903 77.8904C456.559 77.649 456.99 77.0284 456.99 76.3339C456.99 75.6394 456.559 75.0188 455.903 74.7773L450.56 72.8018L448.585 67.4609ZM418.848 80.4825H425.486C426.398 80.4825 427.145 79.739 427.145 78.823C427.145 77.907 426.398 77.1636 425.486 77.1636H418.848C417.935 77.1636 417.189 77.907 417.189 78.823C417.189 79.739 417.935 80.4825 418.848 80.4825ZM447.034 72.8184L447.714 74.6687C447.88 75.1233 448.245 75.4809 448.693 75.6494L450.543 76.3339L448.693 77.0184C448.245 77.1868 447.88 77.5445 447.714 77.9991L447.034 79.8494L446.345 77.9991C446.179 77.5445 445.822 77.1868 445.366 77.0184L443.516 76.3339L445.366 75.6494C445.822 75.4809 446.179 75.1233 446.345 74.6687L447.034 72.8184ZM433.683 45.8883C433.443 45.237 432.82 44.8047 432.124 44.8047C431.427 44.8047 430.804 45.237 430.564 45.8883L426.573 56.6796L415.786 60.6722C415.131 60.9136 414.699 61.5343 414.699 62.2287C414.699 62.9232 415.131 63.5438 415.786 63.7853L426.573 67.7779L430.564 78.5691C430.804 79.2205 431.427 79.6528 432.124 79.6528C432.82 79.6528 433.443 79.2205 433.683 78.5691L437.674 67.7779L448.461 63.7853C449.116 63.5438 449.548 62.9232 449.548 62.2287C449.548 61.5343 449.116 60.9136 448.461 60.6722L437.674 56.6796L433.683 45.8883ZM432.124 51.2458L434.828 58.5464C434.994 59.0011 435.351 59.3587 435.807 59.5272L443.109 62.2287L435.807 64.9303C435.351 65.0987 434.994 65.4563 434.828 65.911L432.124 73.2117L429.419 65.911C429.253 65.4563 428.896 65.0987 428.44 64.9303L421.138 62.2287L428.44 59.5272C428.896 59.3587 429.253 59.0011 429.419 58.5464L432.124 51.2458ZM418.848 72.1853H422.167C423.08 72.1853 423.826 71.4419 423.826 70.5259C423.826 69.6099 423.08 68.8665 422.167 68.8665H418.848C417.935 68.8665 417.189 69.6099 417.189 70.5259C417.189 71.4419 417.935 72.1853 418.848 72.1853ZM445.399 50.6127H443.74C442.827 50.6127 442.08 51.3561 442.08 52.2721C442.08 53.1881 442.827 53.9316 443.74 53.9316H445.399V55.591C445.399 56.507 446.146 57.2504 447.058 57.2504C447.971 57.2504 448.718 56.507 448.718 55.591V53.9316H450.377C451.29 53.9316 452.037 53.1881 452.037 52.2721C452.037 51.3561 451.29 50.6127 450.377 50.6127H448.718V48.9533C448.718 48.0373 447.971 47.2938 447.058 47.2938C446.146 47.2938 445.399 48.0373 445.399 48.9533V50.6127Z" fill="white"/>
</g>
<defs>
<clipPath id="clip0_9226_22812">
<rect width="79.6527" height="79.6527" fill="white" transform="translate(380.676 44.8047)"/>
</clipPath>
</defs>
</svg>
