<svg width="507" height="266" viewBox="0 0 507 266" fill="none" xmlns="http://www.w3.org/2000/svg">
<rect width="507" height="214" transform="translate(0 52)" fill="white"/>
<path d="M106.77 89.168C106.546 88.7573 106.238 88.4447 105.846 88.23C105.454 88.0153 104.997 87.908 104.474 87.908C103.895 87.908 103.382 88.0387 102.934 88.3C102.486 88.5613 102.136 88.9347 101.884 89.42C101.632 89.9053 101.506 90.4653 101.506 91.1C101.506 91.7533 101.632 92.3227 101.884 92.808C102.145 93.2933 102.505 93.6667 102.962 93.928C103.419 94.1893 103.951 94.32 104.558 94.32C105.305 94.32 105.916 94.124 106.392 93.732C106.868 93.3307 107.181 92.7753 107.33 92.066H103.97V90.568H109.262V92.276C109.131 92.9573 108.851 93.5873 108.422 94.166C107.993 94.7447 107.437 95.2113 106.756 95.566C106.084 95.9113 105.328 96.084 104.488 96.084C103.545 96.084 102.691 95.874 101.926 95.454C101.17 95.0247 100.573 94.432 100.134 93.676C99.7047 92.92 99.49 92.0613 99.49 91.1C99.49 90.1387 99.7047 89.28 100.134 88.524C100.573 87.7587 101.17 87.166 101.926 86.746C102.691 86.3167 103.541 86.102 104.474 86.102C105.575 86.102 106.532 86.3727 107.344 86.914C108.156 87.446 108.716 88.1973 109.024 89.168H106.77ZM117.964 91.954C117.964 92.234 117.945 92.486 117.908 92.71H112.238C112.285 93.27 112.481 93.7087 112.826 94.026C113.171 94.3433 113.596 94.502 114.1 94.502C114.828 94.502 115.346 94.1893 115.654 93.564H117.768C117.544 94.3107 117.115 94.9267 116.48 95.412C115.845 95.888 115.066 96.126 114.142 96.126C113.395 96.126 112.723 95.9627 112.126 95.636C111.538 95.3 111.076 94.8287 110.74 94.222C110.413 93.6153 110.25 92.9153 110.25 92.122C110.25 91.3193 110.413 90.6147 110.74 90.008C111.067 89.4013 111.524 88.9347 112.112 88.608C112.7 88.2813 113.377 88.118 114.142 88.118C114.879 88.118 115.537 88.2767 116.116 88.594C116.704 88.9113 117.157 89.364 117.474 89.952C117.801 90.5307 117.964 91.198 117.964 91.954ZM115.934 91.394C115.925 90.89 115.743 90.4887 115.388 90.19C115.033 89.882 114.599 89.728 114.086 89.728C113.601 89.728 113.19 89.8773 112.854 90.176C112.527 90.4653 112.327 90.8713 112.252 91.394H115.934ZM121.719 89.854V93.606C121.719 93.8673 121.779 94.0587 121.901 94.18C122.031 94.292 122.246 94.348 122.545 94.348H123.455V96H122.223C120.571 96 119.745 95.1973 119.745 93.592V89.854H118.821V88.244H119.745V86.326H121.719V88.244H123.455V89.854H121.719ZM129.278 87.32C128.933 87.32 128.644 87.2127 128.41 86.998C128.186 86.774 128.074 86.4987 128.074 86.172C128.074 85.8453 128.186 85.5747 128.41 85.36C128.644 85.136 128.933 85.024 129.278 85.024C129.624 85.024 129.908 85.136 130.132 85.36C130.366 85.5747 130.482 85.8453 130.482 86.172C130.482 86.4987 130.366 86.774 130.132 86.998C129.908 87.2127 129.624 87.32 129.278 87.32ZM130.244 88.244V96H128.284V88.244H130.244ZM131.719 92.094C131.719 91.31 131.873 90.6147 132.181 90.008C132.498 89.4013 132.928 88.9347 133.469 88.608C134.01 88.2813 134.612 88.118 135.275 88.118C135.779 88.118 136.26 88.23 136.717 88.454C137.174 88.6687 137.538 88.958 137.809 89.322V85.64H139.797V96H137.809V94.852C137.566 95.2347 137.226 95.5427 136.787 95.776C136.348 96.0093 135.84 96.126 135.261 96.126C134.608 96.126 134.01 95.958 133.469 95.622C132.928 95.286 132.498 94.8147 132.181 94.208C131.873 93.592 131.719 92.8873 131.719 92.094ZM137.823 92.122C137.823 91.646 137.73 91.24 137.543 90.904C137.356 90.5587 137.104 90.2973 136.787 90.12C136.47 89.9333 136.129 89.84 135.765 89.84C135.401 89.84 135.065 89.9287 134.757 90.106C134.449 90.2833 134.197 90.5447 134.001 90.89C133.814 91.226 133.721 91.6273 133.721 92.094C133.721 92.5607 133.814 92.9713 134.001 93.326C134.197 93.6713 134.449 93.9373 134.757 94.124C135.074 94.3107 135.41 94.404 135.765 94.404C136.129 94.404 136.47 94.3153 136.787 94.138C137.104 93.9513 137.356 93.69 137.543 93.354C137.73 93.0087 137.823 92.598 137.823 92.122ZM148.963 91.954C148.963 92.234 148.944 92.486 148.907 92.71H143.237C143.284 93.27 143.48 93.7087 143.825 94.026C144.17 94.3433 144.595 94.502 145.099 94.502C145.827 94.502 146.345 94.1893 146.653 93.564H148.767C148.543 94.3107 148.114 94.9267 147.479 95.412C146.844 95.888 146.065 96.126 145.141 96.126C144.394 96.126 143.722 95.9627 143.125 95.636C142.537 95.3 142.075 94.8287 141.739 94.222C141.412 93.6153 141.249 92.9153 141.249 92.122C141.249 91.3193 141.412 90.6147 141.739 90.008C142.066 89.4013 142.523 88.9347 143.111 88.608C143.699 88.2813 144.376 88.118 145.141 88.118C145.878 88.118 146.536 88.2767 147.115 88.594C147.703 88.9113 148.156 89.364 148.473 89.952C148.8 90.5307 148.963 91.198 148.963 91.954ZM146.933 91.394C146.924 90.89 146.742 90.4887 146.387 90.19C146.032 89.882 145.598 89.728 145.085 89.728C144.6 89.728 144.189 89.8773 143.853 90.176C143.526 90.4653 143.326 90.8713 143.251 91.394H146.933ZM149.932 92.094C149.932 91.31 150.086 90.6147 150.394 90.008C150.711 89.4013 151.136 88.9347 151.668 88.608C152.209 88.2813 152.811 88.118 153.474 88.118C154.052 88.118 154.556 88.2347 154.986 88.468C155.424 88.7013 155.774 88.9953 156.036 89.35V88.244H158.01V96H156.036V94.866C155.784 95.23 155.434 95.5333 154.986 95.776C154.547 96.0093 154.038 96.126 153.46 96.126C152.806 96.126 152.209 95.958 151.668 95.622C151.136 95.286 150.711 94.8147 150.394 94.208C150.086 93.592 149.932 92.8873 149.932 92.094ZM156.036 92.122C156.036 91.646 155.942 91.24 155.756 90.904C155.569 90.5587 155.317 90.2973 155 90.12C154.682 89.9333 154.342 89.84 153.978 89.84C153.614 89.84 153.278 89.9287 152.97 90.106C152.662 90.2833 152.41 90.5447 152.214 90.89C152.027 91.226 151.934 91.6273 151.934 92.094C151.934 92.5607 152.027 92.9713 152.214 93.326C152.41 93.6713 152.662 93.9373 152.97 94.124C153.287 94.3107 153.623 94.404 153.978 94.404C154.342 94.404 154.682 94.3153 155 94.138C155.317 93.9513 155.569 93.69 155.756 93.354C155.942 93.0087 156.036 92.598 156.036 92.122ZM162.934 96.126C162.299 96.126 161.73 96.014 161.226 95.79C160.722 95.5567 160.321 95.244 160.022 94.852C159.733 94.46 159.574 94.026 159.546 93.55H161.52C161.557 93.8487 161.702 94.096 161.954 94.292C162.215 94.488 162.537 94.586 162.92 94.586C163.293 94.586 163.583 94.5113 163.788 94.362C164.003 94.2127 164.11 94.0213 164.11 93.788C164.11 93.536 163.979 93.3493 163.718 93.228C163.466 93.0973 163.06 92.9573 162.5 92.808C161.921 92.668 161.445 92.5233 161.072 92.374C160.708 92.2247 160.391 91.996 160.12 91.688C159.859 91.38 159.728 90.9647 159.728 90.442C159.728 90.0127 159.849 89.6207 160.092 89.266C160.344 88.9113 160.699 88.6313 161.156 88.426C161.623 88.2207 162.169 88.118 162.794 88.118C163.718 88.118 164.455 88.3513 165.006 88.818C165.557 89.2753 165.86 89.896 165.916 90.68H164.04C164.012 90.372 163.881 90.1293 163.648 89.952C163.424 89.7653 163.121 89.672 162.738 89.672C162.383 89.672 162.108 89.7373 161.912 89.868C161.725 89.9987 161.632 90.1807 161.632 90.414C161.632 90.6753 161.763 90.876 162.024 91.016C162.285 91.1467 162.691 91.282 163.242 91.422C163.802 91.562 164.264 91.7067 164.628 91.856C164.992 92.0053 165.305 92.2387 165.566 92.556C165.837 92.864 165.977 93.2747 165.986 93.788C165.986 94.236 165.86 94.6373 165.608 94.992C165.365 95.3467 165.011 95.6267 164.544 95.832C164.087 96.028 163.55 96.126 162.934 96.126Z" fill="#034737"/>
<rect x="82" y="108.5" width="98.0907" height="6" rx="3" fill="#E4E4E4"/>
<rect x="82" y="108.5" width="49.045" height="6" rx="3" fill="#034737"/>
<circle cx="47" cy="112" r="17" fill="#034737"/>
<path d="M49.5341 105.895V117.531H47.7727V107.656H47.7045L44.9205 109.474V107.793L47.8239 105.895H49.5341Z" fill="white"/>
<path d="M403.904 96.098C402.998 96.098 402.172 95.888 401.426 95.468C400.679 95.0387 400.086 94.446 399.648 93.69C399.218 92.9247 399.004 92.066 399.004 91.114C399.004 90.162 399.218 89.308 399.648 88.552C400.086 87.7867 400.679 87.194 401.426 86.774C402.172 86.3447 402.998 86.13 403.904 86.13C404.818 86.13 405.649 86.3447 406.396 86.774C407.142 87.194 407.73 87.782 408.16 88.538C408.589 89.294 408.804 90.1527 408.804 91.114C408.804 92.0753 408.589 92.934 408.16 93.69C407.73 94.446 407.142 95.0387 406.396 95.468C405.649 95.888 404.818 96.098 403.904 96.098ZM403.904 94.992C404.585 94.992 405.196 94.8333 405.738 94.516C406.288 94.1987 406.718 93.746 407.026 93.158C407.343 92.57 407.502 91.8887 407.502 91.114C407.502 90.33 407.343 89.6487 407.026 89.07C406.718 88.482 406.293 88.0293 405.752 87.712C405.21 87.3947 404.594 87.236 403.904 87.236C403.213 87.236 402.597 87.3947 402.056 87.712C401.514 88.0293 401.085 88.482 400.768 89.07C400.46 89.6487 400.306 90.33 400.306 91.114C400.306 91.8887 400.46 92.57 400.768 93.158C401.085 93.746 401.514 94.1987 402.056 94.516C402.606 94.8333 403.222 94.992 403.904 94.992ZM417.332 88.328V96H416.058V94.866C415.815 95.258 415.474 95.566 415.036 95.79C414.606 96.0047 414.13 96.112 413.608 96.112C413.01 96.112 412.474 95.9907 411.998 95.748C411.522 95.496 411.144 95.1227 410.864 94.628C410.593 94.1333 410.458 93.5313 410.458 92.822V88.328H411.718V92.654C411.718 93.41 411.909 93.9933 412.292 94.404C412.674 94.8053 413.197 95.006 413.86 95.006C414.541 95.006 415.078 94.796 415.47 94.376C415.862 93.956 416.058 93.3447 416.058 92.542V88.328H417.332ZM421.079 89.378V93.9C421.079 94.2733 421.158 94.5393 421.317 94.698C421.475 94.8473 421.751 94.922 422.143 94.922H423.081V96H421.933C421.223 96 420.691 95.8367 420.337 95.51C419.982 95.1833 419.805 94.6467 419.805 93.9V89.378H418.811V88.328H419.805V86.396H421.079V88.328H423.081V89.378H421.079ZM425.94 85.64V96H424.666V85.64H425.94ZM428.812 87.082C428.569 87.082 428.364 86.998 428.196 86.83C428.028 86.662 427.944 86.4567 427.944 86.214C427.944 85.9713 428.028 85.766 428.196 85.598C428.364 85.43 428.569 85.346 428.812 85.346C429.045 85.346 429.241 85.43 429.4 85.598C429.568 85.766 429.652 85.9713 429.652 86.214C429.652 86.4567 429.568 86.662 429.4 86.83C429.241 86.998 429.045 87.082 428.812 87.082ZM429.428 88.328V96H428.154V88.328H429.428ZM435.379 88.188C436.312 88.188 437.068 88.4727 437.647 89.042C438.226 89.602 438.515 90.414 438.515 91.478V96H437.255V91.66C437.255 90.8947 437.064 90.3113 436.681 89.91C436.298 89.4993 435.776 89.294 435.113 89.294C434.441 89.294 433.904 89.504 433.503 89.924C433.111 90.344 432.915 90.9553 432.915 91.758V96H431.641V88.328H432.915V89.42C433.167 89.028 433.508 88.7247 433.937 88.51C434.376 88.2953 434.856 88.188 435.379 88.188ZM447.638 91.87C447.638 92.1127 447.624 92.3693 447.596 92.64H441.464C441.511 93.396 441.767 93.9887 442.234 94.418C442.71 94.838 443.284 95.048 443.956 95.048C444.507 95.048 444.964 94.922 445.328 94.67C445.701 94.4087 445.963 94.0633 446.112 93.634H447.484C447.279 94.3713 446.868 94.9733 446.252 95.44C445.636 95.8973 444.871 96.126 443.956 96.126C443.228 96.126 442.575 95.9627 441.996 95.636C441.427 95.3093 440.979 94.8473 440.652 94.25C440.325 93.6433 440.162 92.9433 440.162 92.15C440.162 91.3567 440.321 90.6613 440.638 90.064C440.955 89.4667 441.399 89.0093 441.968 88.692C442.547 88.3653 443.209 88.202 443.956 88.202C444.684 88.202 445.328 88.3607 445.888 88.678C446.448 88.9953 446.877 89.434 447.176 89.994C447.484 90.5447 447.638 91.17 447.638 91.87ZM446.322 91.604C446.322 91.1187 446.215 90.7033 446 90.358C445.785 90.0033 445.491 89.7373 445.118 89.56C444.754 89.3733 444.348 89.28 443.9 89.28C443.256 89.28 442.705 89.4853 442.248 89.896C441.8 90.3067 441.543 90.876 441.478 91.604H446.322ZM452.078 96.126C451.49 96.126 450.962 96.028 450.496 95.832C450.029 95.6267 449.66 95.3467 449.39 94.992C449.119 94.628 448.97 94.2127 448.942 93.746H450.258C450.295 94.1287 450.472 94.4413 450.79 94.684C451.116 94.9267 451.541 95.048 452.064 95.048C452.549 95.048 452.932 94.9407 453.212 94.726C453.492 94.5113 453.632 94.2407 453.632 93.914C453.632 93.578 453.482 93.3307 453.184 93.172C452.885 93.004 452.423 92.8407 451.798 92.682C451.228 92.5327 450.762 92.3833 450.398 92.234C450.043 92.0753 449.735 91.8467 449.474 91.548C449.222 91.24 449.096 90.8387 449.096 90.344C449.096 89.952 449.212 89.5927 449.446 89.266C449.679 88.9393 450.01 88.6827 450.44 88.496C450.869 88.3 451.359 88.202 451.91 88.202C452.759 88.202 453.445 88.4167 453.968 88.846C454.49 89.2753 454.77 89.8633 454.808 90.61H453.534C453.506 90.2087 453.342 89.8867 453.044 89.644C452.754 89.4013 452.362 89.28 451.868 89.28C451.41 89.28 451.046 89.378 450.776 89.574C450.505 89.77 450.37 90.0267 450.37 90.344C450.37 90.596 450.449 90.806 450.608 90.974C450.776 91.1327 450.981 91.2633 451.224 91.366C451.476 91.4593 451.821 91.5667 452.26 91.688C452.81 91.8373 453.258 91.9867 453.604 92.136C453.949 92.276 454.243 92.4907 454.486 92.78C454.738 93.0693 454.868 93.4473 454.878 93.914C454.878 94.334 454.761 94.712 454.528 95.048C454.294 95.384 453.963 95.65 453.534 95.846C453.114 96.0327 452.628 96.126 452.078 96.126Z" fill="#14171B"/>
<rect x="378.09" y="108.5" width="98.0907" height="6" rx="3" fill="#E4E4E4"/>
<circle cx="343" cy="112" r="17" fill="#F2F2F2"/>
<path d="M339.119 118V116.727L343.057 112.648C343.477 112.205 343.824 111.816 344.097 111.483C344.373 111.146 344.58 110.826 344.716 110.523C344.852 110.22 344.92 109.898 344.92 109.557C344.92 109.17 344.83 108.837 344.648 108.557C344.466 108.273 344.218 108.055 343.903 107.903C343.589 107.748 343.235 107.67 342.841 107.67C342.424 107.67 342.061 107.756 341.75 107.926C341.439 108.097 341.201 108.337 341.034 108.648C340.867 108.958 340.784 109.322 340.784 109.739H339.108C339.108 109.03 339.271 108.411 339.597 107.881C339.922 107.35 340.369 106.939 340.938 106.648C341.506 106.352 342.152 106.205 342.875 106.205C343.606 106.205 344.25 106.35 344.807 106.642C345.367 106.93 345.805 107.324 346.119 107.824C346.434 108.32 346.591 108.881 346.591 109.506C346.591 109.938 346.509 110.36 346.347 110.773C346.188 111.186 345.909 111.646 345.511 112.153C345.114 112.657 344.561 113.269 343.852 113.989L341.54 116.409V116.494H346.778V118H339.119Z" fill="#6F6C90"/>
<path d="M89.5561 200.242V201.278H86.8961V210H85.6221V201.278H82.9481V200.242H89.5561ZM90.6903 206.136C90.6903 205.352 90.849 204.666 91.1663 204.078C91.4837 203.481 91.9177 203.019 92.4683 202.692C93.0283 202.365 93.649 202.202 94.3303 202.202C95.0023 202.202 95.5857 202.347 96.0803 202.636C96.575 202.925 96.9437 203.289 97.1863 203.728V202.328H98.4743V210H97.1863V208.572C96.9343 209.02 96.5563 209.393 96.0523 209.692C95.5577 209.981 94.979 210.126 94.3163 210.126C93.635 210.126 93.019 209.958 92.4683 209.622C91.9177 209.286 91.4837 208.815 91.1663 208.208C90.849 207.601 90.6903 206.911 90.6903 206.136ZM97.1863 206.15C97.1863 205.571 97.0697 205.067 96.8363 204.638C96.603 204.209 96.2857 203.882 95.8843 203.658C95.4923 203.425 95.0583 203.308 94.5823 203.308C94.1063 203.308 93.6723 203.42 93.2803 203.644C92.8883 203.868 92.5757 204.195 92.3423 204.624C92.109 205.053 91.9923 205.557 91.9923 206.136C91.9923 206.724 92.109 207.237 92.3423 207.676C92.5757 208.105 92.8883 208.437 93.2803 208.67C93.6723 208.894 94.1063 209.006 94.5823 209.006C95.0583 209.006 95.4923 208.894 95.8843 208.67C96.2857 208.437 96.603 208.105 96.8363 207.676C97.0697 207.237 97.1863 206.729 97.1863 206.15ZM101.943 199.64V210H100.669V199.64H101.943ZM108.441 210L105.431 206.612V210H104.157V199.64H105.431V205.73L108.385 202.328H110.163L106.551 206.15L110.177 210H108.441ZM112.062 201.082C111.819 201.082 111.614 200.998 111.446 200.83C111.278 200.662 111.194 200.457 111.194 200.214C111.194 199.971 111.278 199.766 111.446 199.598C111.614 199.43 111.819 199.346 112.062 199.346C112.295 199.346 112.491 199.43 112.65 199.598C112.818 199.766 112.902 199.971 112.902 200.214C112.902 200.457 112.818 200.662 112.65 200.83C112.491 200.998 112.295 201.082 112.062 201.082ZM112.678 202.328V210H111.404V202.328H112.678ZM118.629 202.188C119.562 202.188 120.318 202.473 120.897 203.042C121.476 203.602 121.765 204.414 121.765 205.478V210H120.505V205.66C120.505 204.895 120.314 204.311 119.931 203.91C119.548 203.499 119.026 203.294 118.363 203.294C117.691 203.294 117.154 203.504 116.753 203.924C116.361 204.344 116.165 204.955 116.165 205.758V210H114.891V202.328H116.165V203.42C116.417 203.028 116.758 202.725 117.187 202.51C117.626 202.295 118.106 202.188 118.629 202.188ZM127.052 202.202C127.715 202.202 128.293 202.347 128.788 202.636C129.292 202.925 129.665 203.289 129.908 203.728V202.328H131.196V210.168C131.196 210.868 131.047 211.489 130.748 212.03C130.449 212.581 130.02 213.01 129.46 213.318C128.909 213.626 128.265 213.78 127.528 213.78C126.52 213.78 125.68 213.542 125.008 213.066C124.336 212.59 123.939 211.941 123.818 211.12H125.078C125.218 211.587 125.507 211.96 125.946 212.24C126.385 212.529 126.912 212.674 127.528 212.674C128.228 212.674 128.797 212.455 129.236 212.016C129.684 211.577 129.908 210.961 129.908 210.168V208.558C129.656 209.006 129.283 209.379 128.788 209.678C128.293 209.977 127.715 210.126 127.052 210.126C126.371 210.126 125.75 209.958 125.19 209.622C124.639 209.286 124.205 208.815 123.888 208.208C123.571 207.601 123.412 206.911 123.412 206.136C123.412 205.352 123.571 204.666 123.888 204.078C124.205 203.481 124.639 203.019 125.19 202.692C125.75 202.365 126.371 202.202 127.052 202.202ZM129.908 206.15C129.908 205.571 129.791 205.067 129.558 204.638C129.325 204.209 129.007 203.882 128.606 203.658C128.214 203.425 127.78 203.308 127.304 203.308C126.828 203.308 126.394 203.42 126.002 203.644C125.61 203.868 125.297 204.195 125.064 204.624C124.831 205.053 124.714 205.557 124.714 206.136C124.714 206.724 124.831 207.237 125.064 207.676C125.297 208.105 125.61 208.437 126.002 208.67C126.394 208.894 126.828 209.006 127.304 209.006C127.78 209.006 128.214 208.894 128.606 208.67C129.007 208.437 129.325 208.105 129.558 207.676C129.791 207.237 129.908 206.729 129.908 206.15ZM138.439 203.742C138.691 203.303 139.065 202.939 139.559 202.65C140.063 202.351 140.647 202.202 141.309 202.202C141.991 202.202 142.607 202.365 143.157 202.692C143.717 203.019 144.156 203.481 144.473 204.078C144.791 204.666 144.949 205.352 144.949 206.136C144.949 206.911 144.791 207.601 144.473 208.208C144.156 208.815 143.717 209.286 143.157 209.622C142.607 209.958 141.991 210.126 141.309 210.126C140.656 210.126 140.077 209.981 139.573 209.692C139.079 209.393 138.701 209.025 138.439 208.586V213.64H137.165V202.328H138.439V203.742ZM143.647 206.136C143.647 205.557 143.531 205.053 143.297 204.624C143.064 204.195 142.747 203.868 142.345 203.644C141.953 203.42 141.519 203.308 141.043 203.308C140.577 203.308 140.143 203.425 139.741 203.658C139.349 203.882 139.032 204.213 138.789 204.652C138.556 205.081 138.439 205.581 138.439 206.15C138.439 206.729 138.556 207.237 138.789 207.676C139.032 208.105 139.349 208.437 139.741 208.67C140.143 208.894 140.577 209.006 141.043 209.006C141.519 209.006 141.953 208.894 142.345 208.67C142.747 208.437 143.064 208.105 143.297 207.676C143.531 207.237 143.647 206.724 143.647 206.136ZM150.014 210.126C149.296 210.126 148.642 209.963 148.054 209.636C147.476 209.309 147.018 208.847 146.682 208.25C146.356 207.643 146.192 206.943 146.192 206.15C146.192 205.366 146.36 204.675 146.696 204.078C147.042 203.471 147.508 203.009 148.096 202.692C148.684 202.365 149.342 202.202 150.07 202.202C150.798 202.202 151.456 202.365 152.044 202.692C152.632 203.009 153.094 203.467 153.43 204.064C153.776 204.661 153.948 205.357 153.948 206.15C153.948 206.943 153.771 207.643 153.416 208.25C153.071 208.847 152.6 209.309 152.002 209.636C151.405 209.963 150.742 210.126 150.014 210.126ZM150.014 209.006C150.472 209.006 150.901 208.899 151.302 208.684C151.704 208.469 152.026 208.147 152.268 207.718C152.52 207.289 152.646 206.766 152.646 206.15C152.646 205.534 152.525 205.011 152.282 204.582C152.04 204.153 151.722 203.835 151.33 203.63C150.938 203.415 150.514 203.308 150.056 203.308C149.59 203.308 149.16 203.415 148.768 203.63C148.386 203.835 148.078 204.153 147.844 204.582C147.611 205.011 147.494 205.534 147.494 206.15C147.494 206.775 147.606 207.303 147.83 207.732C148.064 208.161 148.372 208.483 148.754 208.698C149.137 208.903 149.557 209.006 150.014 209.006ZM156.323 201.082C156.081 201.082 155.875 200.998 155.707 200.83C155.539 200.662 155.455 200.457 155.455 200.214C155.455 199.971 155.539 199.766 155.707 199.598C155.875 199.43 156.081 199.346 156.323 199.346C156.557 199.346 156.753 199.43 156.911 199.598C157.079 199.766 157.163 199.971 157.163 200.214C157.163 200.457 157.079 200.662 156.911 200.83C156.753 200.998 156.557 201.082 156.323 201.082ZM156.939 202.328V210H155.665V202.328H156.939ZM162.891 202.188C163.824 202.188 164.58 202.473 165.159 203.042C165.737 203.602 166.027 204.414 166.027 205.478V210H164.767V205.66C164.767 204.895 164.575 204.311 164.193 203.91C163.81 203.499 163.287 203.294 162.625 203.294C161.953 203.294 161.416 203.504 161.015 203.924C160.623 204.344 160.427 204.955 160.427 205.758V210H159.153V202.328H160.427V203.42C160.679 203.028 161.019 202.725 161.449 202.51C161.887 202.295 162.368 202.188 162.891 202.188ZM169.704 203.378V207.9C169.704 208.273 169.783 208.539 169.942 208.698C170.1 208.847 170.376 208.922 170.768 208.922H171.706V210H170.558C169.848 210 169.316 209.837 168.962 209.51C168.607 209.183 168.43 208.647 168.43 207.9V203.378H167.436V202.328H168.43V200.396H169.704V202.328H171.706V203.378H169.704ZM176.007 210.126C175.419 210.126 174.892 210.028 174.425 209.832C173.959 209.627 173.59 209.347 173.319 208.992C173.049 208.628 172.899 208.213 172.871 207.746H174.187C174.225 208.129 174.402 208.441 174.719 208.684C175.046 208.927 175.471 209.048 175.993 209.048C176.479 209.048 176.861 208.941 177.141 208.726C177.421 208.511 177.561 208.241 177.561 207.914C177.561 207.578 177.412 207.331 177.113 207.172C176.815 207.004 176.353 206.841 175.727 206.682C175.158 206.533 174.691 206.383 174.327 206.234C173.973 206.075 173.665 205.847 173.403 205.548C173.151 205.24 173.025 204.839 173.025 204.344C173.025 203.952 173.142 203.593 173.375 203.266C173.609 202.939 173.94 202.683 174.369 202.496C174.799 202.3 175.289 202.202 175.839 202.202C176.689 202.202 177.375 202.417 177.897 202.846C178.42 203.275 178.7 203.863 178.737 204.61H177.463C177.435 204.209 177.272 203.887 176.973 203.644C176.684 203.401 176.292 203.28 175.797 203.28C175.34 203.28 174.976 203.378 174.705 203.574C174.435 203.77 174.299 204.027 174.299 204.344C174.299 204.596 174.379 204.806 174.537 204.974C174.705 205.133 174.911 205.263 175.153 205.366C175.405 205.459 175.751 205.567 176.189 205.688C176.74 205.837 177.188 205.987 177.533 206.136C177.879 206.276 178.173 206.491 178.415 206.78C178.667 207.069 178.798 207.447 178.807 207.914C178.807 208.334 178.691 208.712 178.457 209.048C178.224 209.384 177.893 209.65 177.463 209.846C177.043 210.033 176.558 210.126 176.007 210.126Z" fill="#14171B"/>
<rect x="82.1797" y="222.5" width="98.0907" height="6" rx="3" fill="#E4E4E4"/>
<circle cx="47" cy="226" r="17" fill="#F2F2F2"/>
<path d="M47.1705 232.159C46.3902 232.159 45.6932 232.025 45.0795 231.756C44.4697 231.487 43.9867 231.114 43.6307 230.636C43.2784 230.155 43.089 229.598 43.0625 228.966H44.8466C44.8693 229.311 44.9848 229.61 45.1932 229.864C45.4053 230.114 45.6818 230.307 46.0227 230.443C46.3636 230.58 46.7424 230.648 47.1591 230.648C47.6174 230.648 48.0227 230.568 48.375 230.409C48.7311 230.25 49.0095 230.028 49.2102 229.744C49.411 229.456 49.5114 229.125 49.5114 228.75C49.5114 228.36 49.411 228.017 49.2102 227.722C49.0133 227.422 48.7235 227.187 48.3409 227.017C47.9621 226.847 47.5038 226.761 46.9659 226.761H45.983V225.33H46.9659C47.3977 225.33 47.7765 225.252 48.1023 225.097C48.4318 224.941 48.6894 224.725 48.875 224.449C49.0606 224.169 49.1534 223.841 49.1534 223.466C49.1534 223.106 49.072 222.794 48.9091 222.528C48.75 222.259 48.5227 222.049 48.2273 221.898C47.9356 221.746 47.5909 221.67 47.1932 221.67C46.8144 221.67 46.4602 221.741 46.1307 221.881C45.8049 222.017 45.5398 222.214 45.3352 222.472C45.1307 222.725 45.0208 223.03 45.0057 223.386H43.3068C43.3258 222.758 43.5114 222.205 43.8636 221.727C44.2197 221.25 44.6894 220.877 45.2727 220.608C45.8561 220.339 46.5038 220.205 47.2159 220.205C47.9621 220.205 48.6061 220.35 49.1477 220.642C49.6932 220.93 50.1136 221.314 50.4091 221.795C50.7083 222.277 50.8561 222.803 50.8523 223.375C50.8561 224.027 50.6742 224.58 50.3068 225.034C49.9432 225.489 49.4583 225.794 48.8523 225.949V226.04C49.625 226.157 50.2235 226.464 50.6477 226.96C51.0758 227.456 51.2879 228.072 51.2841 228.807C51.2879 229.447 51.1098 230.021 50.75 230.528C50.3939 231.036 49.9072 231.436 49.2898 231.727C48.6723 232.015 47.9659 232.159 47.1705 232.159Z" fill="#6F6C90"/>
<path d="M405.352 201.242V211H404.078V201.242H405.352ZM416.791 203.188C417.389 203.188 417.921 203.314 418.387 203.566C418.854 203.809 419.223 204.177 419.493 204.672C419.764 205.167 419.899 205.769 419.899 206.478V211H418.639V206.66C418.639 205.895 418.448 205.311 418.065 204.91C417.692 204.499 417.183 204.294 416.539 204.294C415.877 204.294 415.349 204.509 414.957 204.938C414.565 205.358 414.369 205.969 414.369 206.772V211H413.109V206.66C413.109 205.895 412.918 205.311 412.535 204.91C412.162 204.499 411.653 204.294 411.009 204.294C410.347 204.294 409.819 204.509 409.427 204.938C409.035 205.358 408.839 205.969 408.839 206.772V211H407.565V203.328H408.839V204.434C409.091 204.033 409.427 203.725 409.847 203.51C410.277 203.295 410.748 203.188 411.261 203.188C411.905 203.188 412.475 203.333 412.969 203.622C413.464 203.911 413.833 204.336 414.075 204.896C414.29 204.355 414.645 203.935 415.139 203.636C415.634 203.337 416.185 203.188 416.791 203.188ZM421.555 207.136C421.555 206.352 421.714 205.666 422.031 205.078C422.348 204.481 422.782 204.019 423.333 203.692C423.893 203.365 424.514 203.202 425.195 203.202C425.867 203.202 426.45 203.347 426.945 203.636C427.44 203.925 427.808 204.289 428.051 204.728V203.328H429.339V211H428.051V209.572C427.799 210.02 427.421 210.393 426.917 210.692C426.422 210.981 425.844 211.126 425.181 211.126C424.5 211.126 423.884 210.958 423.333 210.622C422.782 210.286 422.348 209.815 422.031 209.208C421.714 208.601 421.555 207.911 421.555 207.136ZM428.051 207.15C428.051 206.571 427.934 206.067 427.701 205.638C427.468 205.209 427.15 204.882 426.749 204.658C426.357 204.425 425.923 204.308 425.447 204.308C424.971 204.308 424.537 204.42 424.145 204.644C423.753 204.868 423.44 205.195 423.207 205.624C422.974 206.053 422.857 206.557 422.857 207.136C422.857 207.724 422.974 208.237 423.207 208.676C423.44 209.105 423.753 209.437 424.145 209.67C424.537 209.894 424.971 210.006 425.447 210.006C425.923 210.006 426.357 209.894 426.749 209.67C427.15 209.437 427.468 209.105 427.701 208.676C427.934 208.237 428.051 207.729 428.051 207.15ZM434.698 203.202C435.361 203.202 435.939 203.347 436.434 203.636C436.938 203.925 437.311 204.289 437.554 204.728V203.328H438.842V211.168C438.842 211.868 438.693 212.489 438.394 213.03C438.095 213.581 437.666 214.01 437.106 214.318C436.555 214.626 435.911 214.78 435.174 214.78C434.166 214.78 433.326 214.542 432.654 214.066C431.982 213.59 431.585 212.941 431.464 212.12H432.724C432.864 212.587 433.153 212.96 433.592 213.24C434.031 213.529 434.558 213.674 435.174 213.674C435.874 213.674 436.443 213.455 436.882 213.016C437.33 212.577 437.554 211.961 437.554 211.168V209.558C437.302 210.006 436.929 210.379 436.434 210.678C435.939 210.977 435.361 211.126 434.698 211.126C434.017 211.126 433.396 210.958 432.836 210.622C432.285 210.286 431.851 209.815 431.534 209.208C431.217 208.601 431.058 207.911 431.058 207.136C431.058 206.352 431.217 205.666 431.534 205.078C431.851 204.481 432.285 204.019 432.836 203.692C433.396 203.365 434.017 203.202 434.698 203.202ZM437.554 207.15C437.554 206.571 437.437 206.067 437.204 205.638C436.971 205.209 436.653 204.882 436.252 204.658C435.86 204.425 435.426 204.308 434.95 204.308C434.474 204.308 434.04 204.42 433.648 204.644C433.256 204.868 432.943 205.195 432.71 205.624C432.477 206.053 432.36 206.557 432.36 207.136C432.36 207.724 432.477 208.237 432.71 208.676C432.943 209.105 433.256 209.437 433.648 209.67C434.04 209.894 434.474 210.006 434.95 210.006C435.426 210.006 435.86 209.894 436.252 209.67C436.653 209.437 436.971 209.105 437.204 208.676C437.437 208.237 437.554 207.729 437.554 207.15ZM448.037 206.87C448.037 207.113 448.023 207.369 447.995 207.64H441.863C441.91 208.396 442.166 208.989 442.633 209.418C443.109 209.838 443.683 210.048 444.355 210.048C444.906 210.048 445.363 209.922 445.727 209.67C446.1 209.409 446.362 209.063 446.511 208.634H447.883C447.678 209.371 447.267 209.973 446.651 210.44C446.035 210.897 445.27 211.126 444.355 211.126C443.627 211.126 442.974 210.963 442.395 210.636C441.826 210.309 441.378 209.847 441.051 209.25C440.724 208.643 440.561 207.943 440.561 207.15C440.561 206.357 440.72 205.661 441.037 205.064C441.354 204.467 441.798 204.009 442.367 203.692C442.946 203.365 443.608 203.202 444.355 203.202C445.083 203.202 445.727 203.361 446.287 203.678C446.847 203.995 447.276 204.434 447.575 204.994C447.883 205.545 448.037 206.17 448.037 206.87ZM446.721 206.604C446.721 206.119 446.614 205.703 446.399 205.358C446.184 205.003 445.89 204.737 445.517 204.56C445.153 204.373 444.747 204.28 444.299 204.28C443.655 204.28 443.104 204.485 442.647 204.896C442.199 205.307 441.942 205.876 441.877 206.604H446.721ZM452.477 211.126C451.889 211.126 451.361 211.028 450.895 210.832C450.428 210.627 450.059 210.347 449.789 209.992C449.518 209.628 449.369 209.213 449.341 208.746H450.657C450.694 209.129 450.871 209.441 451.189 209.684C451.515 209.927 451.94 210.048 452.463 210.048C452.948 210.048 453.331 209.941 453.611 209.726C453.891 209.511 454.031 209.241 454.031 208.914C454.031 208.578 453.881 208.331 453.583 208.172C453.284 208.004 452.822 207.841 452.197 207.682C451.627 207.533 451.161 207.383 450.797 207.234C450.442 207.075 450.134 206.847 449.873 206.548C449.621 206.24 449.495 205.839 449.495 205.344C449.495 204.952 449.611 204.593 449.845 204.266C450.078 203.939 450.409 203.683 450.839 203.496C451.268 203.3 451.758 203.202 452.309 203.202C453.158 203.202 453.844 203.417 454.367 203.846C454.889 204.275 455.169 204.863 455.207 205.61H453.933C453.905 205.209 453.741 204.887 453.443 204.644C453.153 204.401 452.761 204.28 452.267 204.28C451.809 204.28 451.445 204.378 451.175 204.574C450.904 204.77 450.769 205.027 450.769 205.344C450.769 205.596 450.848 205.806 451.007 205.974C451.175 206.133 451.38 206.263 451.623 206.366C451.875 206.459 452.22 206.567 452.659 206.688C453.209 206.837 453.657 206.987 454.003 207.136C454.348 207.276 454.642 207.491 454.885 207.78C455.137 208.069 455.267 208.447 455.277 208.914C455.277 209.334 455.16 209.712 454.927 210.048C454.693 210.384 454.362 210.65 453.933 210.846C453.513 211.033 453.027 211.126 452.477 211.126Z" fill="#14171B"/>
<rect x="378" y="223.5" width="98.0907" height="6" rx="3" fill="#E4E4E4"/>
<circle cx="343" cy="227" r="17" fill="#F2F2F2"/>
<path d="M338.875 230.727V229.307L343.903 221.364H345.023V223.455H344.312L340.716 229.148V229.239H347.608V230.727H338.875ZM344.392 233V230.295L344.403 229.648V221.364H346.068V233H344.392Z" fill="#6F6C90"/>
<path d="M272.168 243.676H236.358C230.987 243.676 226.617 239.286 226.617 233.89V138.786C226.617 133.39 230.987 129 236.358 129H272.168C277.539 129 281.909 133.39 281.909 138.786C282.576 176.977 283.713 219.745 281.909 233.89C281.909 239.286 277.539 243.676 272.168 243.676Z" fill="#3F3D56"/>
<path d="M282.408 163.982C282.181 163.982 281.996 164.168 281.996 164.396V177.644C281.996 177.873 282.181 178.058 282.408 178.058C282.635 178.058 282.82 177.873 282.82 177.644V164.396C282.82 164.168 282.635 163.982 282.408 163.982Z" fill="#3F3D56"/>
<path d="M280.985 138.786V233.889C280.985 238.585 277.346 242.427 272.745 242.725H272.743C272.675 242.729 272.607 242.734 272.537 242.736C272.415 242.742 272.294 242.744 272.17 242.744C272.17 242.744 271.717 242.711 270.888 242.649C270.052 242.587 268.834 242.493 267.316 242.371C266.86 242.336 266.38 242.297 265.873 242.255C264.864 242.173 263.755 242.082 262.566 241.978C262.092 241.939 261.602 241.895 261.101 241.852C258.542 241.63 255.676 241.372 252.654 241.078C252.143 241.03 251.628 240.98 251.108 240.929C250.972 240.914 227.547 234.998 227.547 233.889V138.786C227.547 133.895 231.493 129.931 236.361 129.931H241.624C242.464 129.931 243.14 130.589 243.212 131.431C243.219 131.487 243.225 131.543 243.235 131.599C243.387 132.446 244.16 133.036 245.017 133.036H263.514C264.371 133.036 265.144 132.446 265.296 131.599C265.307 131.543 265.313 131.487 265.319 131.431C265.391 130.589 266.067 129.931 266.908 129.931H272.17C277.039 129.931 280.985 133.895 280.985 138.786Z" fill="white"/>
<path d="M226.412 154.047C226.185 154.047 226 154.233 226 154.461V157.773C226 158.001 226.185 158.187 226.412 158.187C226.639 158.187 226.824 158.001 226.824 157.773V154.461C226.824 154.233 226.639 154.047 226.412 154.047Z" fill="#3F3D56"/>
<path d="M226.412 163.982C226.185 163.982 226 164.168 226 164.396V170.813C226 171.042 226.185 171.227 226.412 171.227C226.639 171.227 226.824 171.042 226.824 170.813V164.396C226.824 164.168 226.639 163.982 226.412 163.982Z" fill="#3F3D56"/>
<path d="M226.412 173.091C226.185 173.091 226 173.276 226 173.505V179.922C226 180.15 226.185 180.336 226.412 180.336C226.639 180.336 226.824 180.15 226.824 179.922V173.505C226.824 173.276 226.639 173.091 226.412 173.091Z" fill="#3F3D56"/>
<path d="M241.478 131.381H233.597C233.554 131.381 233.52 131.416 233.52 131.459V132.338C233.52 132.381 233.554 132.416 233.597 132.416H241.478C241.521 132.416 241.555 132.381 241.555 132.338V131.459C241.555 131.416 241.521 131.381 241.478 131.381Z" fill="#E6E6E6"/>
<path d="M268.207 132.416C268.662 132.416 269.031 132.045 269.031 131.588C269.031 131.13 268.662 130.76 268.207 130.76C267.752 130.76 267.383 131.13 267.383 131.588C267.383 132.045 267.752 132.416 268.207 132.416Z" fill="#E6E6E6"/>
<path d="M270.477 132.416C270.932 132.416 271.301 132.045 271.301 131.588C271.301 131.13 270.932 130.76 270.477 130.76C270.021 130.76 269.652 131.13 269.652 131.588C269.652 132.045 270.021 132.416 270.477 132.416Z" fill="#E6E6E6"/>
<path d="M272.742 132.416C273.197 132.416 273.566 132.045 273.566 131.588C273.566 131.13 273.197 130.76 272.742 130.76C272.287 130.76 271.918 131.13 271.918 131.588C271.918 132.045 272.287 132.416 272.742 132.416Z" fill="#E6E6E6"/>
<path d="M273.003 205.185C273.003 195.747 265.063 190.555 255.993 188.096C244.365 184.944 235.848 191.323 238.983 205.185C241.065 214.388 251.629 228.123 255.993 219.765C260.987 210.202 273.003 214.623 273.003 205.185Z" fill="#F2F2F2"/>
<path d="M250.149 203.501L248.094 202.523C248.937 203.705 249.663 205.55 250.052 207.019C250.71 205.651 251.771 203.977 252.821 202.977L250.65 203.539C251.988 196.95 257.021 192.219 262.785 192.219L262.867 191.981C256.846 191.981 251.515 196.646 250.149 203.501Z" fill="#3F3D56"/>
<path d="M259.607 213.541H246.624C246.073 213.541 245.625 213.091 245.625 212.538C245.625 211.984 246.073 211.534 246.624 211.534H259.607C260.158 211.534 260.606 211.984 260.606 212.538C260.606 213.091 260.158 213.541 259.607 213.541Z" fill="#034737"/>
<path d="M271.744 161.54V188.128C271.744 190.48 269.84 192.392 267.5 192.392H241.034C238.693 192.392 236.789 190.48 236.789 188.128V161.54C236.789 159.188 238.693 157.275 241.034 157.275H267.5C269.84 157.275 271.744 159.188 271.744 161.54ZM267.5 191.891C269.568 191.891 271.245 190.206 271.245 188.128V174.723C271.245 165.364 263.693 157.777 254.377 157.777H241.034C238.965 157.777 237.288 159.462 237.288 161.54V188.128C237.288 190.206 238.965 191.891 241.034 191.891H267.5Z" fill="#3F3D56"/>
<path d="M257.79 168.135H249.246C249.031 168.135 248.855 167.958 248.855 167.742C248.855 167.526 249.031 167.35 249.246 167.35H257.79C258.006 167.35 258.181 167.526 258.181 167.742C258.181 167.958 258.006 168.135 257.79 168.135Z" fill="#3F3D56"/>
<path d="M257.79 176.504H249.246C249.031 176.504 248.855 176.328 248.855 176.111C248.855 175.895 249.031 175.719 249.246 175.719H257.79C258.006 175.719 258.181 175.895 258.181 176.111C258.181 176.328 258.006 176.504 257.79 176.504Z" fill="#3F3D56"/>
<path d="M253.544 188.042H245C244.785 188.042 244.609 187.866 244.609 187.649C244.609 187.433 244.785 187.257 245 187.257H253.544C253.76 187.257 253.935 187.433 253.935 187.649C253.935 187.866 253.76 188.042 253.544 188.042Z" fill="#3F3D56"/>
<path d="M262.374 172.322H244.66C244.445 172.322 244.27 172.146 244.27 171.93C244.27 171.713 244.445 171.537 244.66 171.537H262.374C262.59 171.537 262.765 171.713 262.765 171.93C262.765 172.146 262.59 172.322 262.374 172.322Z" fill="#3F3D56"/>
<circle cx="253" cy="51" r="51" fill="#034737"/>
<path fill-rule="evenodd" clip-rule="evenodd" d="M253.5 30H234C233.205 30 232.44 30.316 231.88 30.8785C231.315 31.4415 231 32.2045 231 33C231 40.206 231 64.794 231 72C231 73.657 232.345 75 234 75H264C265.655 75 267 73.657 267 72C267 66.9345 267 54 267 54C267 53.448 266.55 53 266 53C265.45 53 265 53.448 265 54C265 54 265 66.9345 265 72C265 72.5525 264.555 73 264 73H234C233.445 73 233 72.5525 233 72C233 64.794 233 40.206 233 33C233 32.735 233.105 32.4805 233.295 32.293C233.48 32.1055 233.735 32 234 32H253.5C254.05 32 254.5 31.552 254.5 31C254.5 30.448 254.05 30 253.5 30ZM238.75 64H259.25C259.8 64 260.25 63.552 260.25 63C260.25 62.448 259.8 62 259.25 62H238.75C238.2 62 237.75 62.448 237.75 63C237.75 63.552 238.2 64 238.75 64ZM238.75 58.5H259.25C259.8 58.5 260.25 58.052 260.25 57.5C260.25 56.948 259.8 56.5 259.25 56.5H238.75C238.2 56.5 237.75 56.948 237.75 57.5C237.75 58.052 238.2 58.5 238.75 58.5ZM248 41.5H239C238.45 41.5 238 41.948 238 42.5C238 43.052 238.45 43.5 239 43.5H242.5V53.5C242.5 54.052 242.95 54.5 243.5 54.5C244.05 54.5 244.5 54.052 244.5 53.5V43.5H248C248.55 43.5 249 43.052 249 42.5C249 41.948 248.55 41.5 248 41.5ZM249.25 53.5H259.25C259.8 53.5 260.25 53.052 260.25 52.5C260.25 51.948 259.8 51.5 259.25 51.5H249.25C248.7 51.5 248.25 51.948 248.25 52.5C248.25 53.052 248.7 53.5 249.25 53.5ZM269.92 40.653C269.775 40.2605 269.4 40 268.985 40C268.565 40 268.19 40.2605 268.045 40.653L266.855 43.8715L263.635 45.062C263.245 45.2075 262.985 45.5815 262.985 46C262.985 46.4185 263.245 46.7925 263.635 46.938L266.855 48.1285L268.045 51.347C268.19 51.7395 268.565 52 268.985 52C269.4 52 269.775 51.7395 269.92 51.347L271.11 48.1285L274.33 46.938C274.725 46.7925 274.985 46.4185 274.985 46C274.985 45.5815 274.725 45.2075 274.33 45.062L271.11 43.8715L269.92 40.653ZM252 48.5H256C256.55 48.5 257 48.052 257 47.5C257 46.948 256.55 46.5 256 46.5H252C251.45 46.5 251 46.948 251 47.5C251 48.052 251.45 48.5 252 48.5ZM268.985 43.8815L269.395 44.9965C269.495 45.2705 269.715 45.486 269.985 45.5875L271.1 46L269.985 46.4125C269.715 46.514 269.495 46.7295 269.395 47.0035L268.985 48.1185L268.57 47.0035C268.47 46.7295 268.255 46.514 267.98 46.4125L266.865 46L267.98 45.5875C268.255 45.486 268.47 45.2705 268.57 44.9965L268.985 43.8815ZM260.94 27.653C260.795 27.2605 260.42 27 260 27C259.58 27 259.205 27.2605 259.06 27.653L256.655 34.156L250.155 36.562C249.76 36.7075 249.5 37.0815 249.5 37.5C249.5 37.9185 249.76 38.2925 250.155 38.438L256.655 40.844L259.06 47.347C259.205 47.7395 259.58 48 260 48C260.42 48 260.795 47.7395 260.94 47.347L263.345 40.844L269.845 38.438C270.24 38.2925 270.5 37.9185 270.5 37.5C270.5 37.0815 270.24 36.7075 269.845 36.562L263.345 34.156L260.94 27.653ZM260 30.8815L261.63 35.281C261.73 35.555 261.945 35.7705 262.22 35.872L266.62 37.5L262.22 39.128C261.945 39.2295 261.73 39.445 261.63 39.719L260 44.1185L258.37 39.719C258.27 39.445 258.055 39.2295 257.78 39.128L253.38 37.5L257.78 35.872C258.055 35.7705 258.27 35.555 258.37 35.281L260 30.8815ZM252 43.5H254C254.55 43.5 255 43.052 255 42.5C255 41.948 254.55 41.5 254 41.5H252C251.45 41.5 251 41.948 251 42.5C251 43.052 251.45 43.5 252 43.5ZM268 30.5H267C266.45 30.5 266 30.948 266 31.5C266 32.052 266.45 32.5 267 32.5H268V33.5C268 34.052 268.45 34.5 269 34.5C269.55 34.5 270 34.052 270 33.5V32.5H271C271.55 32.5 272 32.052 272 31.5C272 30.948 271.55 30.5 271 30.5H270V29.5C270 28.948 269.55 28.5 269 28.5C268.45 28.5 268 28.948 268 29.5V30.5Z" fill="white"/>
</svg>
