<svg width="199" height="35" viewBox="0 0 199 35" fill="none" xmlns="http://www.w3.org/2000/svg">
<g clip-path="url(#clip0_11440_9782)">
<path d="M57.6502 28.8154C56.0922 28.8377 54.5444 28.5604 53.0902 27.9985C51.7741 27.4861 50.5775 26.7064 49.5751 25.7082C48.5915 24.7161 47.8241 23.5293 47.3217 22.2231C46.7987 20.8307 46.5409 19.3519 46.5617 17.8639C46.5445 16.3787 46.8249 14.9053 47.3863 13.5313C47.9272 12.2285 48.7306 11.0523 49.7461 10.0767C50.7881 9.07888 52.0181 8.3002 53.3638 7.78642C54.8193 7.22908 56.3662 6.95196 57.9238 6.96954C59.0252 6.96627 60.1216 7.1192 61.1804 7.42378C62.1683 7.70539 63.1131 8.12151 63.9887 8.66056C64.7896 9.1472 65.5091 9.75784 66.1205 10.4699L63.0272 13.7604C62.5585 13.3 62.0397 12.8941 61.4806 12.5503C60.9478 12.2293 60.3789 11.973 59.7858 11.7869C59.1633 11.5927 58.5148 11.4962 57.863 11.5006C56.6478 11.4871 55.4577 11.8485 54.4534 12.5359C53.4491 13.2232 52.6788 14.2035 52.2466 15.3445C51.94 16.1484 51.7866 17.003 51.7944 17.8639C51.7865 18.7313 51.9506 19.5916 52.277 20.3947C52.7418 21.5533 53.5433 22.5444 54.5769 23.2389C55.6106 23.9334 56.8285 24.299 58.072 24.2882C58.6716 24.2921 59.2671 24.1901 59.8314 23.9867C60.3498 23.8008 60.832 23.5257 61.2564 23.1736C61.6534 22.8335 61.98 22.4185 62.2178 21.9521C62.4645 21.4811 62.5948 20.9574 62.5978 20.4252V19.6618L63.2591 20.6886H57.4412V16.6538H67.3213C67.3689 16.9534 67.3993 17.2554 67.4125 17.5585C67.4125 17.9402 67.4467 18.3219 67.4581 18.6731C67.4695 19.0243 67.4581 19.3068 67.4581 19.4862C67.4754 20.7761 67.2243 22.0555 66.7209 23.2423C66.2475 24.3566 65.5472 25.3591 64.6651 26.1854C63.7641 27.0255 62.7098 27.6827 61.5604 28.1207C60.3107 28.5922 58.9851 28.8277 57.6502 28.8154Z" fill="black"/>
<path d="M70.1191 28.5139V12.4816H74.6792L74.8882 17.6997L73.9876 16.7034C74.2193 15.8687 74.615 15.0891 75.1515 14.4106C75.688 13.732 76.3543 13.1683 77.1112 12.7526C77.8391 12.3524 78.6564 12.1449 79.4862 12.1495C79.8226 12.1479 80.1584 12.1773 80.4894 12.2373C80.7792 12.2937 81.0658 12.365 81.3482 12.451L80.0258 17.7951C79.7509 17.6329 79.452 17.5157 79.1404 17.4478C78.761 17.3552 78.3718 17.309 77.9814 17.3104C77.5628 17.3146 77.1488 17.3988 76.7616 17.5585C76.3962 17.6986 76.0674 17.9205 75.8002 18.2074C75.5354 18.4969 75.3266 18.8335 75.1846 19.1999C75.0301 19.6147 74.954 20.0549 74.9604 20.4977V28.5139H70.1191Z" fill="black"/>
<path d="M89.8786 28.8154C88.334 28.8442 86.8084 28.4693 85.4515 27.7275C84.1618 27.0135 83.0864 25.965 82.3374 24.6914C81.5884 23.4177 81.1934 21.9655 81.1934 20.4862C81.1934 19.007 81.5884 17.5548 82.3374 16.2811C83.0864 15.0075 84.1618 13.959 85.4515 13.245C86.8202 12.5328 88.3391 12.1611 89.8804 12.1611C91.4218 12.1611 92.9407 12.5328 94.3094 13.245C95.567 13.9414 96.6165 14.9628 97.3494 16.2033C98.1014 17.5025 98.4852 18.9836 98.459 20.4862C98.4857 21.9901 98.1019 23.4726 97.3494 24.773C96.6164 26.0125 95.5668 27.0325 94.3094 27.7275C92.9514 28.4701 91.4244 28.845 89.8786 28.8154ZM89.8786 24.6508C90.5586 24.6636 91.2273 24.4751 91.8014 24.1088C92.3667 23.7435 92.8235 23.2318 93.1238 22.6277C93.4526 21.9639 93.6082 21.227 93.576 20.4862C93.6083 19.7381 93.4528 18.9938 93.1238 18.3219C92.826 17.713 92.3689 17.1971 91.8014 16.8294C91.2276 16.4619 90.5589 16.2721 89.8786 16.2835C89.1949 16.2741 88.5231 16.4637 87.9443 16.8294C87.3696 17.193 86.9065 17.7096 86.6067 18.3219C86.279 18.9916 86.1235 19.733 86.1545 20.4786C86.1223 21.2194 86.2779 21.9562 86.6067 22.6201C86.9091 23.2275 87.3718 23.7399 87.9443 24.1011C88.5227 24.4682 89.1945 24.6591 89.8786 24.6508Z" fill="black"/>
<path d="M103.742 28.5137L98.4863 12.4814H103.563L106.52 22.9024L105.889 22.7803L109.195 14.6954H112.018L115.522 22.8108L114.83 22.8719L117.771 12.4929H122.848L117.414 28.5252H113.85L110.396 19.925L110.757 19.9861L107.302 28.5137H103.742Z" fill="black"/>
<path d="M131.661 28.8162C130.643 28.8221 129.63 28.6689 128.659 28.3619C127.725 28.0657 126.851 27.607 126.075 27.0068C125.271 26.3767 124.57 25.6231 124 24.7737L125.623 22.9606C126.362 24.1149 127.354 25.0848 128.522 25.7968C129.548 26.3503 130.698 26.6314 131.862 26.6136C132.706 26.6235 133.543 26.4693 134.328 26.1594C135.01 25.8987 135.61 25.4614 136.069 24.8921C136.487 24.36 136.71 23.6994 136.7 23.0216C136.706 22.5986 136.63 22.1784 136.476 21.7849C136.321 21.4183 136.09 21.089 135.799 20.8191C135.467 20.5119 135.092 20.2547 134.686 20.0557C134.195 19.8146 133.687 19.6117 133.166 19.4487C132.596 19.2706 131.962 19.0899 131.266 18.9067C130.347 18.6987 129.448 18.4113 128.579 18.0478C127.866 17.7512 127.206 17.3385 126.626 16.8263C126.11 16.3612 125.7 15.7896 125.425 15.1506C125.142 14.4398 125.005 13.6789 125.022 12.9137C125.015 12.1189 125.196 11.3338 125.55 10.6233C125.9 9.91192 126.396 9.2834 127.006 8.77964C127.66 8.25611 128.405 7.85761 129.202 7.60394C130.074 7.31767 130.987 7.17585 131.904 7.18404C132.887 7.17419 133.865 7.32635 134.8 7.63447C135.633 7.91469 136.406 8.34977 137.08 8.91706C137.753 9.49552 138.331 10.1785 138.79 10.9402L137.141 12.5663C136.743 11.9322 136.262 11.3545 135.712 10.8486C134.884 10.1166 133.868 9.63243 132.78 9.45093C131.692 9.26943 130.575 9.39789 129.556 9.82174C128.924 10.0865 128.375 10.5178 127.967 11.07C127.588 11.6012 127.388 12.2408 127.397 12.8946C127.388 13.357 127.48 13.8158 127.667 14.2382C127.86 14.6492 128.154 15.004 128.522 15.2689C128.99 15.5941 129.502 15.8511 130.042 16.0323C130.787 16.2982 131.549 16.515 132.322 16.6813C133.28 16.8983 134.219 17.1919 135.13 17.5592C135.896 17.8611 136.614 18.2725 137.262 18.7807C137.828 19.2207 138.29 19.7813 138.615 20.4221C138.937 21.0916 139.097 21.8279 139.082 22.5712C139.109 23.7312 138.784 24.8721 138.151 25.8426C137.505 26.7998 136.607 27.5572 135.556 28.0298C134.331 28.5771 133.001 28.8456 131.661 28.8162Z" fill="black"/>
<path d="M140.762 14.9359V12.7639H150.524V14.9359H140.762ZM144.303 28.5137V8.62988H146.557V28.5137H144.303Z" fill="black"/>
<path d="M158.511 28.8153C157.202 28.8295 155.917 28.4565 154.818 27.7427C153.703 27.0151 152.801 26.0034 152.203 24.811C151.549 23.5102 151.219 22.0693 151.242 20.6121C151.214 19.1422 151.555 17.6889 152.234 16.3865C152.854 15.2046 153.771 14.2059 154.894 13.4892C155.788 12.9453 156.789 12.6019 157.828 12.4827C158.867 12.3634 159.919 12.4711 160.913 12.7983C161.591 13.0258 162.225 13.3665 162.79 13.806C163.333 14.234 163.8 14.75 164.173 15.3329C164.539 15.8984 164.797 16.5276 164.933 17.1881L164.272 16.856L164.363 12.783H166.613V28.5137H164.333V24.6507L164.933 24.269C164.782 24.8972 164.505 25.4881 164.12 26.0058C163.713 26.5656 163.222 27.0588 162.665 27.4678C161.457 28.3536 159.999 28.8296 158.504 28.8267L158.511 28.8153ZM159.021 26.6433C160.006 26.6614 160.976 26.3965 161.817 25.8799C162.646 25.3581 163.315 24.6172 163.752 23.7384C164.236 22.7692 164.478 21.6963 164.458 20.6121C164.479 19.5339 164.236 18.4671 163.752 17.5049C163.308 16.6299 162.64 15.8894 161.817 15.3596C160.977 14.8418 160.006 14.5768 159.021 14.5962C158.032 14.5721 157.057 14.8374 156.216 15.3596C155.394 15.8885 154.726 16.6276 154.282 17.5011C153.8 18.4654 153.562 19.5336 153.586 20.6121C153.568 21.6834 153.806 22.7435 154.278 23.704C154.708 24.5877 155.374 25.3342 156.201 25.8608C157.046 26.39 158.025 26.6618 159.021 26.6433Z" fill="black"/>
<path d="M176.865 28.8154C175.47 28.8374 174.097 28.4658 172.902 27.7428C171.739 27.0318 170.789 26.0191 170.151 24.8112C169.466 23.5199 169.12 22.075 169.144 20.6122C169.12 19.1495 169.467 17.7047 170.151 16.4133C170.787 15.2048 171.738 14.1927 172.902 13.4855C174.111 12.7708 175.493 12.4061 176.896 12.4319C178.163 12.4153 179.416 12.6881 180.563 13.2297C181.625 13.7257 182.542 14.4898 183.223 15.4475L181.9 17.0775C181.504 16.5659 181.033 16.118 180.502 15.7491C179.977 15.3701 179.4 15.0704 178.788 14.8597C178.204 14.6538 177.591 14.5468 176.972 14.5429C175.964 14.5285 174.973 14.8068 174.118 15.3445C173.284 15.879 172.603 16.6222 172.142 17.5012C171.628 18.4559 171.366 19.527 171.382 20.6122C171.369 21.6996 171.631 22.7725 172.142 23.7309C172.604 24.6156 173.293 25.3602 174.137 25.8876C174.985 26.4129 175.964 26.6856 176.96 26.674C177.563 26.6734 178.162 26.5768 178.735 26.3877C179.318 26.1955 179.87 25.9218 180.377 25.5746C180.92 25.1928 181.406 24.7352 181.821 24.2157L183.162 25.8265C182.439 26.763 181.5 27.5085 180.426 27.9985C179.316 28.5382 178.099 28.8176 176.865 28.8154Z" fill="black"/>
<path d="M185.302 28.5144V6.1875H187.555V28.5144H185.302ZM187.316 23.4451L187.225 20.8189L195.425 12.7646H198.465L187.316 23.4451ZM196.056 28.5144L189.448 20.8189L191.04 19.25L199.001 28.5144H196.056Z" fill="black"/>
<path d="M35.5347 14.3638L31.3318 17.5015L18.0013 7.53862L4.66323 17.5015L0.483193 14.3638C0.337208 14.2576 0.218362 14.1182 0.136406 13.957C0.0544498 13.7957 0.0117188 13.6172 0.0117188 13.4362C0.0117188 13.2552 0.0544498 13.0767 0.136406 12.9155C0.218362 12.7542 0.337208 12.6148 0.483193 12.5086L16.5725 0.47296C16.9857 0.1664 17.4858 0.000976563 17.9994 0.000976562C18.5131 0.000976563 19.0132 0.1664 19.4263 0.47296L35.5309 12.5086C35.6771 12.6145 35.7962 12.7537 35.8785 12.9147C35.9608 13.0758 36.0039 13.2542 36.0042 13.4352C36.0046 13.6163 35.9623 13.7948 35.8806 13.9562C35.799 14.1176 35.6804 14.2573 35.5347 14.3638Z" fill="#2DA771"/>
<path d="M35.5309 20.639C35.6769 20.7451 35.7957 20.8846 35.8777 21.0458C35.9596 21.207 36.0023 21.3855 36.0023 21.5665C36.0023 21.7476 35.9596 21.9261 35.8777 22.0873C35.7957 22.2485 35.6769 22.388 35.5309 22.4941L31.3508 25.6281L19.4263 34.526C19.0139 34.8343 18.5135 35.0008 17.9994 35.0008C17.4853 35.0008 16.985 34.8343 16.5725 34.526L4.66323 25.6281L0.483192 22.4941C0.337208 22.388 0.218362 22.2485 0.136406 22.0873C0.0544498 21.9261 0.0117188 21.7476 0.0117188 21.5665C0.0117188 21.3855 0.0544498 21.207 0.136406 21.0458C0.218362 20.8846 0.337208 20.7451 0.483192 20.639L4.66323 17.5012L9.39426 21.036L14.5547 17.1768V24.8875L18.0013 27.4832L21.4442 24.9104V17.1768L26.6008 21.036L31.328 17.5012L35.5309 20.639Z" fill="#2DA771"/>
</g>
<defs>
<clipPath id="clip0_11440_9782">
<rect width="199" height="35" fill="white"/>
</clipPath>
</defs>
</svg>
