<svg width="38" height="37" viewBox="0 0 38 37" fill="none" xmlns="http://www.w3.org/2000/svg">
<path d="M2.50007 0.838867C1.12535 0.838867 0 1.97335 0 3.34918V21.4049V24.4616C0 25.8374 1.12535 26.9719 2.50007 26.9719H14.266V31.9861H8.37536C8.20251 31.9868 8.03694 32.0557 7.91471 32.178C7.79249 32.3002 7.72352 32.4658 7.72283 32.6386V36.3478C7.72352 36.5206 7.79249 36.6862 7.91471 36.8084C8.03693 36.9306 8.20251 36.9996 8.37536 37.0003H29.6247C29.7984 37.001 29.9653 36.9326 30.0886 36.8102C30.2119 36.6878 30.2816 36.5215 30.2823 36.3478V32.6386C30.2816 32.4649 30.2119 32.2985 30.0886 32.1762C29.9653 32.0538 29.7984 31.9854 29.6247 31.9861H23.734V26.9719H35.4999C36.8747 26.9719 38 25.8374 38 24.4616V6.40453V3.34918C38 1.97335 36.8747 0.838867 35.4999 0.838867H2.50007ZM2.50007 2.14903H35.4999C36.1691 2.14903 36.6898 2.67411 36.6898 3.34918V6.40453V24.4616C36.6898 25.1366 36.1691 25.6604 35.4999 25.6604H2.50007C1.83093 25.6604 1.31145 25.1366 1.31145 24.4616V21.4049V3.34918C1.31145 3.30699 1.31259 3.2647 1.31657 3.2238C1.3762 2.60997 1.87275 2.14903 2.50007 2.14903ZM12.0077 7.90917C11.8348 7.91926 11.6728 7.99747 11.5574 8.12668L6.86687 13.4748C6.76285 13.5941 6.70554 13.7471 6.70554 13.9054C6.70554 14.0637 6.76285 14.2166 6.86687 14.3359L11.5574 19.6841C11.6723 19.814 11.8342 19.8931 12.0074 19.9039C12.1805 19.9147 12.3509 19.8563 12.4811 19.7416C12.6119 19.6274 12.6919 19.4659 12.7037 19.2927C12.7154 19.1195 12.6579 18.9487 12.5438 18.8179L8.23077 13.9047L12.5438 8.99159C12.6579 8.86074 12.7154 8.68994 12.7037 8.51673C12.6919 8.34353 12.6119 8.18207 12.4811 8.06783C12.3505 7.95452 12.1803 7.89749 12.0077 7.90917ZM25.9923 7.90917C25.8197 7.89749 25.6495 7.95453 25.5189 8.06783C25.3887 8.1826 25.3094 8.34434 25.2983 8.51754C25.2873 8.69074 25.3455 8.86124 25.46 8.9916L29.7744 13.9047L25.46 18.8179C25.3455 18.9482 25.2873 19.1187 25.2983 19.2919C25.3094 19.4651 25.3887 19.6269 25.5189 19.7416C25.6491 19.8563 25.8195 19.9147 25.9927 19.9039C26.1658 19.8931 26.3277 19.8141 26.4426 19.6841L31.1383 14.3359C31.2423 14.2166 31.2996 14.0637 31.2996 13.9054C31.2996 13.7471 31.2423 13.5942 31.1383 13.4748L26.4426 8.12669C26.3272 7.99748 26.1652 7.91926 25.9923 7.90917ZM21.9121 8.19322C21.8693 8.1959 21.8268 8.20279 21.7854 8.21377C21.619 8.2576 21.4765 8.36514 21.3888 8.51316L15.4802 18.635C15.3932 18.785 15.3693 18.9634 15.4137 19.1311C15.4581 19.2987 15.5671 19.4419 15.7169 19.5293C15.8663 19.6167 16.0443 19.6414 16.2118 19.598C16.3794 19.5546 16.523 19.4467 16.6112 19.2977L22.5211 9.17593C22.6079 9.02573 22.6317 8.84721 22.587 8.67954C22.5424 8.51187 22.4331 8.36875 22.2831 8.28158C22.1709 8.21601 22.0418 8.18519 21.9121 8.19322ZM15.5762 26.9719H22.4238V31.9861H15.5762V26.9719ZM9.02916 33.2962H14.9236H23.0815H28.9708V35.6901H9.02916V33.2962Z" fill="#A3A3A3"/>
</svg>
