<svg width="39" height="39" viewBox="0 0 39 39" fill="none" xmlns="http://www.w3.org/2000/svg">
<path d="M38.9617 31.9978L38.7716 31.3007C38.6449 30.7938 38.328 30.3502 37.8211 30.0967C37.7577 30.0967 37.7577 30.0967 37.6943 30.0333V12.353H28.8225V4.74852H24.3865V0.946289H23.1191V4.74852H18.6832V7.28334H10.445V24.2666C9.68458 24.7102 9.05087 25.1538 8.54391 25.534V23.7597H0.939453V38.9686H8.54391V35.2931L20.014 37.0041C20.3942 37.0675 20.8378 37.0675 21.218 37.0675H26.7946C27.3016 37.0675 27.8719 37.0041 28.3789 36.814L33.3218 35.8634C33.9555 35.7367 34.5258 35.5466 35.0328 35.2297L38.4548 33.3286C38.8984 33.0751 39.0885 32.5048 38.9617 31.9978ZM36.4269 13.6204V30.0333C36.3635 30.0333 36.3635 30.0333 36.3002 30.0333L34.5258 30.4136V27.5619H30.7236V31.0473L29.8364 31.174C29.5195 31.2374 29.1393 31.2374 28.8225 31.2374V13.6204H36.4269ZM33.2584 30.7304L31.991 30.9205V28.8293H33.2584V30.7304ZM19.9506 6.01593H27.555V12.353V31.1106C27.3016 31.0473 27.0481 31.0473 26.7946 30.9839L22.1052 29.8432L25.2103 29.0194C26.2243 28.8293 27.0481 28.1322 27.3016 27.1183L27.4283 26.548C27.555 26.1677 27.4917 25.7875 27.2382 25.4707C26.9847 25.1538 26.6679 24.9637 26.2876 24.9637L20.5843 24.6468V7.28334H19.9506V6.01593ZM11.7124 8.55074H19.3169V24.5835C18.9367 24.5835 18.4931 24.4567 18.1128 24.2032C17.796 24.0131 17.5425 23.8864 17.2257 23.7597H18.0495V22.4922H12.9798V23.2527C12.5362 23.3161 12.156 23.5062 11.7124 23.6329V8.55074ZM7.2765 37.7012H2.20686V25.0271H7.2765V37.7012ZM34.3991 34.2158C33.9555 34.4693 33.5119 34.6594 33.0683 34.7227L28.1254 35.6733C27.6818 35.7367 27.2382 35.8 26.7946 35.8H21.218C20.9011 35.8 20.5209 35.8 20.2041 35.6733L8.54391 33.9623V27.245C9.24098 26.6113 11.9025 24.4567 13.9938 24.4567C15.2612 24.4567 16.5286 24.7736 17.4791 25.3439C18.0495 25.6608 18.6832 25.8509 19.3169 25.9143L26.2243 26.2311L26.0975 26.8014C25.9708 27.3084 25.5272 27.6886 25.0202 27.752L17.1623 29.9066L26.6045 32.2513C27.7452 32.5048 28.9492 32.5681 30.0899 32.4414L33.5119 31.9978L36.6804 31.2374H36.7438C36.8705 31.174 37.0606 31.174 37.2507 31.2374C37.3775 31.3007 37.5042 31.4275 37.5676 31.6176L37.7577 32.3147L34.3991 34.2158Z" fill="#A3A3A3"/>
<path d="M4.74096 25.6611C3.66366 25.6611 2.83984 26.4849 2.83984 27.5622C2.83984 28.6395 3.66366 29.4634 4.74096 29.4634C5.81826 29.4634 6.64207 28.6395 6.64207 27.5622C6.64207 26.4849 5.81826 25.6611 4.74096 25.6611ZM4.74096 28.196C4.36073 28.196 4.10725 27.9425 4.10725 27.5622C4.10725 27.182 4.36073 26.9285 4.74096 26.9285C5.12118 26.9285 5.37466 27.182 5.37466 27.5622C5.37466 27.9425 5.12118 28.196 4.74096 28.196Z" fill="#A3A3A3"/>
<path d="M18.0482 9.81787H12.9785V11.0853H18.0482V9.81787Z" fill="#A3A3A3"/>
<path d="M18.0482 12.3525H12.9785V13.6199H18.0482V12.3525Z" fill="#A3A3A3"/>
<path d="M18.0482 14.8882H12.9785V16.1556H18.0482V14.8882Z" fill="#A3A3A3"/>
<path d="M18.0482 17.4229H12.9785V18.6903H18.0482V17.4229Z" fill="#A3A3A3"/>
<path d="M18.0482 19.9575H12.9785V21.2249H18.0482V19.9575Z" fill="#A3A3A3"/>
<path d="M23.1179 7.2832H21.2168V8.55061H23.1179V7.2832Z" fill="#A3A3A3"/>
<path d="M26.2878 7.2832H24.3867V8.55061H26.2878V7.2832Z" fill="#A3A3A3"/>
<path d="M23.1179 9.81787H21.2168V11.0853H23.1179V9.81787Z" fill="#A3A3A3"/>
<path d="M26.2878 9.81787H24.3867V11.0853H26.2878V9.81787Z" fill="#A3A3A3"/>
<path d="M23.1179 12.3525H21.2168V13.6199H23.1179V12.3525Z" fill="#A3A3A3"/>
<path d="M26.2878 12.3525H24.3867V13.6199H26.2878V12.3525Z" fill="#A3A3A3"/>
<path d="M23.1179 14.8882H21.2168V16.1556H23.1179V14.8882Z" fill="#A3A3A3"/>
<path d="M26.2878 14.8882H24.3867V16.1556H26.2878V14.8882Z" fill="#A3A3A3"/>
<path d="M23.1179 17.4229H21.2168V18.6903H23.1179V17.4229Z" fill="#A3A3A3"/>
<path d="M26.2878 17.4229H24.3867V18.6903H26.2878V17.4229Z" fill="#A3A3A3"/>
<path d="M23.1179 19.9575H21.2168V21.2249H23.1179V19.9575Z" fill="#A3A3A3"/>
<path d="M26.2878 19.9575H24.3867V21.2249H26.2878V19.9575Z" fill="#A3A3A3"/>
<path d="M23.1179 22.4922H21.2168V23.7596H23.1179V22.4922Z" fill="#A3A3A3"/>
<path d="M26.2878 22.4922H24.3867V23.7596H26.2878V22.4922Z" fill="#A3A3A3"/>
<path d="M31.989 14.8882H30.0879V16.1556H31.989V14.8882Z" fill="#A3A3A3"/>
<path d="M35.1609 14.8882H33.2598V16.1556H35.1609V14.8882Z" fill="#A3A3A3"/>
<path d="M31.989 17.4229H30.0879V18.6903H31.989V17.4229Z" fill="#A3A3A3"/>
<path d="M35.1609 17.4229H33.2598V18.6903H35.1609V17.4229Z" fill="#A3A3A3"/>
<path d="M31.989 19.9575H30.0879V21.2249H31.989V19.9575Z" fill="#A3A3A3"/>
<path d="M35.1609 19.9575H33.2598V21.2249H35.1609V19.9575Z" fill="#A3A3A3"/>
<path d="M31.989 22.4922H30.0879V23.7596H31.989V22.4922Z" fill="#A3A3A3"/>
<path d="M35.1609 22.4922H33.2598V23.7596H35.1609V22.4922Z" fill="#A3A3A3"/>
<path d="M31.989 25.0269H30.0879V26.2943H31.989V25.0269Z" fill="#A3A3A3"/>
<path d="M35.1609 25.0269H33.2598V26.2943H35.1609V25.0269Z" fill="#A3A3A3"/>
</svg>
