<svg width="46" height="53" viewBox="0 0 46 53" fill="none" xmlns="http://www.w3.org/2000/svg">
<path d="M45.815 18.5263L27.487 7.94742V13.2369L45.815 23.8158V39.6577L22.8984 26.4605V21.1578L41.2264 31.75V26.4738L22.8984 15.8816V0L45.815 13.2369V18.5263Z" fill="#63B299"/>
<path d="M41.2274 31.7528V26.4766H32.0898L41.2274 31.7528Z" fill="#157F66"/>
<path d="M9.1457 18.5264L4.57031 15.8817L22.8983 5.30273V10.579L9.1457 18.5264Z" fill="#14171B"/>
<path d="M27.4922 7.94727L45.8202 18.5279L38.9439 19.8486L27.4922 13.2376V7.94727Z" fill="#14171B"/>
<path d="M18.3163 18.5254V23.8149L16.0286 25.1504L9.15234 23.8149L11.44 22.5057L18.3163 18.5254Z" fill="#14171B"/>
<path d="M41.2264 26.473L22.8984 15.8809V21.1571L34.3633 27.7821L41.2264 26.473Z" fill="#14171B"/>
<path d="M36.6437 44.9331V39.6393L22.9308 31.7227L9.19141 39.6488V44.9199L22.9308 37.0121L36.6437 44.9331Z" fill="#14171B"/>
<path d="M22.9034 26.459L41.2313 37.0138L45.82 39.6562L41.2313 42.2877L22.9298 31.722L4.61506 42.2877L0 39.6562L4.61506 36.9982L22.9034 26.459Z" fill="#034737"/>
<path d="M22.9308 42.288L13.7668 47.5642L9.19141 44.9195L13.7668 42.288L22.9308 37.0117L32.0683 42.2898L36.6437 44.9327L32.0683 47.5642L22.9308 42.288Z" fill="#13745D"/>
<path d="M22.9308 42.288L13.7668 47.5642L9.19141 44.9195L13.7668 42.288L22.9308 37.0117L32.0683 42.2898L36.6437 44.9327L32.0683 47.5642L22.9308 42.288Z" fill="#034737"/>
<path d="M27.5062 50.2092L22.9309 47.5645L18.3555 50.2092L22.9309 52.8407L27.5062 50.2092Z" fill="#034737"/>
<path d="M22.9309 47.5633L18.3555 50.2081L18.3687 44.9186L22.9309 42.2871L27.5062 44.9318V50.2081L22.9309 47.5633Z" fill="#14171B"/>
<path d="M4.57538 15.8816L22.9034 5.30268V0L0 13.2369V39.6577L22.9034 26.4605V10.5789L11.4385 17.204L9.15077 18.5263V23.8158L11.4385 22.5067L18.3148 18.5263V23.8158L4.57538 31.7599V15.8816Z" fill="#157F66"/>
<path d="M11.4334 17.2032L4.57031 15.8809V31.7625L18.3097 23.8151L11.4334 22.5059V17.2032Z" fill="#63B299"/>
</svg>
