<svg width="79" height="77" viewBox="0 0 79 77" fill="none" xmlns="http://www.w3.org/2000/svg">
<path d="M65.6694 13.2441C65.1879 12.7651 65.1879 11.9832 65.6694 11.4975L69.6351 7.5519C70.1166 7.07284 70.9024 7.07284 71.3906 7.5519C71.8721 8.03097 71.8721 8.8128 71.3906 9.29851L67.4249 13.2441C67.1808 13.487 66.8665 13.6101 66.5522 13.6101C66.2278 13.6001 65.9134 13.477 65.6694 13.2441ZM69.2238 19.3622C69.3709 19.9111 69.8691 20.2737 70.4208 20.2737C70.5245 20.2737 70.6382 20.2571 70.7452 20.2305L76.1621 18.7866C76.8275 18.6136 77.2187 17.935 77.0348 17.273C76.8609 16.6109 76.1788 16.2217 75.5134 16.4047L70.0965 17.8485C69.4445 18.0315 69.0498 18.7002 69.2238 19.3622ZM76.1521 27.0006L70.7352 25.5568C70.0698 25.3838 69.3977 25.773 69.2139 26.4251C69.04 27.0871 69.4312 27.7558 70.0866 27.9387L75.5035 29.3826C75.6071 29.4092 75.7208 29.4258 75.8278 29.4258C76.3795 29.4258 76.8745 29.0599 77.0249 28.5143C77.2088 27.8522 76.8175 27.1836 76.1521 27.0006ZM77.6635 75.6693C76.774 76.5542 75.6038 77 74.4301 77C73.2598 77 72.0894 76.5575 71.1967 75.6693L60.2997 64.8301C59.7246 64.2579 59.7045 63.3363 60.2462 62.7442L58.7449 61.2504C56.003 63.1267 52.6926 64.2213 49.1182 64.2213C39.7286 64.2213 32.0853 56.6161 32.0853 47.2748C32.0853 46.2334 32.1823 45.2055 32.3662 44.2141L27.7885 44.0144L27.1064 44.1974L31.0186 58.7286C31.4567 60.3621 30.4769 62.0487 28.8451 62.4812L25.1503 63.4626C24.8894 63.5325 24.6186 63.5657 24.3544 63.5657C22.9901 63.5657 21.7429 62.6608 21.3751 61.2968L17.4629 46.7656L17.3826 46.7822C16.9446 46.8954 16.5099 46.9552 16.0719 46.9552C15.1992 46.9552 14.3264 46.729 13.5474 46.2766C12.6813 45.7809 12.0025 45.0589 11.5645 44.2006C10.7787 44.4102 9.98287 44.5133 9.19714 44.5133C7.5988 44.5133 6.02725 44.0975 4.60277 43.2791C2.47276 42.0548 0.941363 40.082 0.312711 37.7333C-0.315925 35.3879 0.00842507 32.9194 1.23891 30.7969C2.46942 28.6777 4.44561 27.164 6.80297 26.5286C6.74947 25.5638 6.97684 24.599 7.47507 23.7374C8.14717 22.573 9.24059 21.7379 10.5413 21.392L20.9435 18.6207L41.1599 5.79544C41.1264 4.76083 41.3772 3.72614 41.9122 2.79799C42.6646 1.50388 43.8784 0.572319 45.3196 0.189749C46.7607 -0.19282 48.2821 0.00677692 49.5829 0.755309C50.8836 1.50385 51.8199 2.71151 52.2044 4.14538L54.6922 13.3902C54.953 13.3736 55.2171 13.357 55.488 13.357C60.8414 13.357 65.202 17.6952 65.202 23.0217C65.202 26.801 63.0084 30.181 59.6379 31.765L60.397 34.5894C63.9246 37.6933 66.1516 42.2279 66.1516 47.2776C66.1516 50.8307 65.0515 54.1243 63.1656 56.8555L64.667 58.3492C64.9479 58.0964 65.3056 57.9567 65.6902 57.9567C66.1014 57.9567 66.476 58.113 66.7635 58.3991L77.6545 69.2349C79.4468 71.0081 79.4468 73.8958 77.6645 75.669L77.6635 75.6693ZM55.3474 15.8259L58.9821 29.3291C61.2626 28.0782 62.7204 25.6862 62.7204 23.0215C62.7204 19.0492 59.4703 15.8156 55.4778 15.8156C55.4344 15.8255 55.3908 15.8259 55.3474 15.8259ZM43.7382 6.39448L50.1917 30.3647C52.7263 30.5211 55.1171 31.233 57.2304 32.3808L49.8072 4.77819C49.5899 3.97975 49.0749 3.30105 48.3393 2.88518C47.6137 2.46933 46.7678 2.35622 45.9619 2.57246C45.1594 2.7887 44.4773 3.30103 44.0593 4.0329C43.6413 4.75482 43.5275 5.59604 43.7382 6.39448ZM10.8255 41.8452L7.34799 28.9407C5.66944 29.4198 4.27166 30.5043 3.39229 32.0247C2.49279 33.5816 2.24874 35.3782 2.71015 37.0915C3.17159 38.8048 4.2817 40.2453 5.84665 41.1402C7.3748 42.0184 9.1403 42.271 10.8255 41.8452ZM16.7474 44.4069L26.1369 41.9051L20.5829 21.2751L11.1933 23.7769C10.5279 23.9499 9.96951 24.3757 9.62848 24.9745C9.28072 25.5733 9.19044 26.262 9.36766 26.9207L13.5875 42.5897C13.7614 43.2518 14.1894 43.8074 14.7912 44.1467C15.3931 44.4927 16.0919 44.5832 16.7474 44.4069ZM24.7223 44.8327L19.8571 46.1268L23.7793 60.658C23.8663 60.9807 24.1973 61.1703 24.5216 61.0838L28.2165 60.1025C28.5409 60.016 28.7315 59.6866 28.6445 59.3639L24.7223 44.8327ZM33.0216 41.7754C35.1716 35.5708 40.8393 30.9898 47.6439 30.4013L41.712 8.37121L22.897 20.3176L28.6282 41.5829L33.0216 41.7754ZM49.1282 61.753C57.1566 61.753 63.6804 55.2623 63.6804 47.2746C63.6804 39.2869 57.1566 32.7962 49.1282 32.7962C41.0998 32.7962 34.5761 39.2969 34.5761 47.2746C34.5761 55.2524 41.0998 61.753 49.1282 61.753ZM60.7015 59.7037L62.0122 61.0078L62.9284 60.0962L61.6176 58.7922C61.32 59.1049 61.0158 59.4076 60.7015 59.7037ZM62.7278 63.7624L64.0118 65.0399L66.9744 62.0924L65.6904 60.8149L62.7278 63.7624ZM75.9086 70.975L68.7295 63.8323L65.767 66.7799L72.9461 73.9226C73.7686 74.741 75.0961 74.741 75.9086 73.9226C76.7212 73.1142 76.7212 71.7934 75.9086 70.975ZM62.0019 47.2748C62.0019 54.341 56.2272 60.083 49.1284 60.083C42.0262 60.0864 36.2515 54.3409 36.2515 47.2748C36.2515 40.2086 42.0262 34.4665 49.125 34.4665C56.2272 34.4665 62.0019 40.212 62.0019 47.2748ZM59.5309 47.2748C59.5309 41.5726 54.8663 36.9253 49.1286 36.9253C43.3974 36.9253 38.7264 41.5662 38.7264 47.2748C38.7264 52.9836 43.391 57.6243 49.1286 57.6243C54.8565 57.6276 59.5309 52.9867 59.5309 47.2748ZM56.682 46.1203L49.7302 53.1067C49.0849 53.7488 48.2289 54.0814 47.3729 54.0814C46.5336 54.0814 45.6943 53.7687 45.059 53.1499L41.6183 49.813C40.9796 49.1975 40.6218 48.3692 40.6151 47.4942C40.6051 46.6092 40.9395 45.7742 41.5581 45.1488C42.1767 44.5133 43.0093 44.1573 43.8888 44.1507C44.7782 44.1341 45.6175 44.4734 46.2461 45.0889L47.3295 46.1402L51.9673 41.4826C52.596 40.8571 53.4252 40.5078 54.318 40.5078H54.3281C55.2108 40.5078 56.0401 40.8472 56.6687 41.4726C57.9661 42.7302 57.976 44.8262 56.682 46.1203ZM54.9198 43.1927C54.7626 43.0364 54.552 42.9499 54.3246 42.9499C54.0972 42.9499 53.8866 43.0364 53.7294 43.1927L48.2255 48.7186C47.744 49.1977 46.9682 49.2043 46.4801 48.7353L44.5139 46.8323C44.3567 46.6759 44.1461 46.5961 43.9287 46.5961H43.9187C43.6913 46.5961 43.4807 46.6926 43.3235 46.8489C42.9992 47.1783 43.0092 47.7106 43.3402 48.0399L46.7809 51.3767C47.112 51.6994 47.647 51.6895 47.968 51.3668L54.9197 44.3804C55.2507 44.0511 55.2508 43.5221 54.9198 43.1927Z" fill="#A3A3A3"/>
</svg>
