<svg width="37" height="38" viewBox="0 0 37 38" fill="none" xmlns="http://www.w3.org/2000/svg">
<path d="M33.8581 30.5274C34.5495 29.9669 34.9928 29.1151 34.9928 28.1637C34.9928 27.2739 34.6055 26.4712 33.9894 25.9123C34.2774 24.717 34.4247 23.4852 34.4247 22.2456C34.4247 18.6564 33.2356 15.2748 30.9869 12.466C28.8454 9.79198 25.8494 7.85735 22.5331 7.00095C21.9938 6.31068 21.2784 5.76129 20.4525 5.42092C21.1439 4.86047 21.5873 4.00868 21.5873 3.0572C21.5873 1.37106 20.2013 0 18.4999 0C16.797 0 15.4126 1.37106 15.4126 3.0572C15.4126 4.00872 15.8543 4.86047 16.5473 5.42092C15.7215 5.76131 15.0061 6.3091 14.4667 7.00095C11.1505 7.85747 8.15458 9.79373 6.01297 12.466C3.7643 15.2731 2.57517 18.655 2.57517 22.2456C2.57517 23.4805 2.72242 24.7091 3.0089 25.9044C2.39432 26.4632 2.00861 27.2644 2.00861 28.1541C2.00861 29.1056 2.45193 29.9574 3.14333 30.5178C1.29959 31.2778 0 33.0795 0 35.174C0 35.4716 0.243271 35.7122 0.544149 35.7122L9.64608 35.7138C9.78532 35.7138 9.91016 35.6616 10.0062 35.5777C12.5477 37.1641 15.4637 38 18.4952 38C21.5265 38 24.4427 37.1656 26.9809 35.5792C27.0785 35.6679 27.2066 35.7217 27.349 35.7217H36.4559C36.7567 35.7217 37 35.4811 37 35.1835C37 33.0873 35.7004 31.2856 33.8551 30.5257L33.8581 30.5274ZM31.904 30.1411C30.8012 30.1411 29.905 29.2545 29.905 28.1636C29.905 27.0728 30.8012 26.1862 31.904 26.1862C33.0067 26.1862 33.9029 27.0728 33.9029 28.1636C33.9029 29.2545 33.0067 30.1411 31.904 30.1411ZM16.4964 3.05877C16.4964 1.96794 17.3927 1.07818 18.4954 1.07818C19.5981 1.07818 20.4944 1.96636 20.4944 3.05877C20.4944 4.15118 19.5981 5.0362 18.4954 5.0362C17.3927 5.0362 16.4964 4.1496 16.4964 3.05877ZM18.4954 6.1128C20.5216 6.1128 22.2021 7.60735 22.4678 9.54044H14.5229C14.7886 7.60735 16.4692 6.1128 18.4954 6.1128ZM3.0924 28.1544C3.0924 27.0635 3.99026 26.1738 5.09458 26.1738C6.1989 26.1738 7.09357 27.0619 7.09357 28.1544C7.09357 29.2468 6.1973 30.1318 5.09458 30.1318C3.99186 30.1318 3.0924 29.2452 3.0924 28.1544ZM1.12063 34.636C1.3863 32.7029 3.0668 31.2083 5.09299 31.2083C7.11917 31.2083 8.79968 32.7029 9.06534 34.636H1.12063ZM10.125 34.3652C9.84016 32.6221 8.6494 31.1766 7.04735 30.518C7.73875 29.9576 8.18207 29.1058 8.18207 28.1543C8.18207 26.4681 6.79607 25.0971 5.09475 25.0971C4.70423 25.0971 4.32972 25.1699 3.98404 25.3013C3.76957 24.2991 3.65914 23.2748 3.65914 22.2441C3.65914 15.8987 7.73233 10.3493 13.7083 8.34672C13.5083 8.88659 13.3979 9.47079 13.3979 10.0787C13.3979 10.3764 13.6411 10.617 13.942 10.617H23.0489C23.3497 10.617 23.593 10.3764 23.593 10.0787C23.593 9.47079 23.4842 8.88659 23.2825 8.34672C29.2587 10.3495 33.3317 15.9003 33.3317 22.2441C33.3317 23.278 33.2213 24.307 33.0052 25.3092C32.6611 25.1794 32.2898 25.1066 31.9009 25.1066C30.198 25.1066 28.8136 26.4776 28.8136 28.1606C28.8136 29.1121 29.2553 29.9639 29.9483 30.5243C28.351 31.183 27.1635 32.6221 26.8738 34.3573C24.4027 36.0355 21.5106 36.9205 18.4954 36.9205C15.4801 36.9205 12.5963 36.0371 10.1232 34.362L10.125 34.3652ZM27.9319 34.6439C28.1976 32.7108 29.8781 31.2162 31.9043 31.2162C33.9304 31.2162 35.6109 32.7108 35.8766 34.6439H27.9319ZM26.5683 21.5015C27.2437 20.7907 27.7014 19.7109 27.7014 18.2797H27.6998C27.6998 18.1974 27.6806 18.1135 27.6406 18.0375L25.4624 13.8134C25.3695 13.6329 25.1823 13.5189 24.9774 13.5189H12.0135C11.8086 13.5189 11.6214 13.6329 11.5285 13.8134L9.35029 18.0375C9.31028 18.1151 9.29107 18.2005 9.29107 18.2845H9.28947C9.28947 19.7157 9.74721 20.7938 10.4226 21.5047V29.6156C10.4306 30.7365 11.0932 30.9661 12.0871 30.9661H24.8667C25.907 30.9661 26.5536 30.7397 26.5663 29.6125V21.5015L26.5683 21.5015ZM10.4085 18.8211H15.0388C14.8547 20.6181 13.7536 21.443 12.7229 21.443C11.6922 21.443 10.591 20.6181 10.4085 18.8211ZM24.2702 21.4398C23.2411 21.4398 22.14 20.6149 21.9559 18.8211H26.5845C26.4005 20.6165 25.2993 21.4398 24.2702 21.4398ZM12.3481 14.597H24.6463L26.2692 17.7429L10.7252 17.746L12.3481 14.6002L12.3481 14.597ZM20.813 18.8211C20.6289 20.6165 19.5278 21.4413 18.4971 21.4413C17.4664 21.4413 16.3653 20.6164 16.1812 18.8211H20.813ZM17.4344 29.8879H14.0494V24.4179H17.4344V29.8879ZM25.4608 29.8356C25.4064 29.8546 25.2575 29.8879 24.8686 29.8879H18.5229V24.3547C18.5229 23.7958 18.0635 23.3399 17.497 23.3399H13.984C13.419 23.3399 12.9581 23.7942 12.9581 24.3547V29.8879H12.0874C11.7257 29.8879 11.5832 29.8578 11.5304 29.8404C11.5224 29.8087 11.5128 29.7406 11.5128 29.6124V22.2695C11.9001 22.4358 12.3114 22.5213 12.7212 22.5213C13.6382 22.5213 14.4881 22.1271 15.1171 21.4114C15.3059 21.1961 15.4708 20.9571 15.6084 20.6958C15.7477 20.9571 15.9109 21.1946 16.0998 21.4099C16.7288 22.1255 17.5786 22.5197 18.4957 22.5197C19.6112 22.5197 20.7347 21.8975 21.3797 20.6895C21.519 20.9523 21.6838 21.193 21.8743 21.4099C22.5033 22.1255 23.3531 22.5197 24.2702 22.5197C24.6799 22.5197 25.0912 22.4342 25.4785 22.268V23.3429H20.8946C20.3936 23.3429 19.9871 23.7451 19.9871 24.2422V27.7443C19.9871 28.2399 20.3937 28.642 20.8946 28.642H25.4785V29.6093C25.4769 29.7407 25.4673 29.8088 25.4593 29.8404L25.4608 29.8356ZM25.48 24.4163V27.5606H21.0771V24.4163H25.48Z" fill="#A3A3A3"/>
</svg>
