<svg width="40" height="50" viewBox="0 0 40 50" fill="none" xmlns="http://www.w3.org/2000/svg">
<path d="M6.04766 20.8764H1.21094C1.00995 20.8764 0.8172 20.9562 0.675083 21.0983C0.532966 21.2404 0.453125 21.4332 0.453125 21.6342V39.3342C0.453125 39.7521 0.792187 40.092 1.21094 40.092H6.04688C6.24786 40.092 6.44061 40.0121 6.58273 39.87C6.72485 39.7279 6.80469 39.5352 6.80469 39.3342V21.6334C6.80469 21.4326 6.72493 21.2401 6.58296 21.0981C6.44099 20.9561 6.24843 20.8764 6.04766 20.8764ZM5.29063 38.5764H1.96875V22.3912H5.29063V38.5764ZM38.7891 10.9389H33.9531C33.7521 10.9389 33.5594 11.0187 33.4173 11.1608C33.2752 11.3029 33.1953 11.4957 33.1953 11.6967V39.3342C33.1953 39.7521 33.5352 40.092 33.9531 40.092H38.7891C38.9901 40.092 39.1828 40.0121 39.3249 39.87C39.467 39.7279 39.5469 39.5352 39.5469 39.3342V11.6967C39.5469 11.4957 39.467 11.3029 39.3249 11.1608C39.1828 11.0187 38.9901 10.9389 38.7891 10.9389ZM38.0313 38.5764H34.7102V12.4537H38.0313V38.5764ZM3.92969 5.82715C4.34219 5.82715 4.725 5.71074 5.06172 5.52324L9.66016 9.57246C9.53415 9.86458 9.46903 10.1793 9.46875 10.4975C9.46958 11.1196 9.7171 11.7161 10.157 12.156C10.597 12.596 11.1934 12.8435 11.8156 12.8443C12.2021 12.8437 12.5825 12.7477 12.923 12.565C13.2635 12.3822 13.5537 12.1183 13.7679 11.7966C13.9821 11.4749 14.1136 11.1053 14.1508 10.7206C14.188 10.3359 14.1298 9.94801 13.9813 9.59121L18.8477 4.88652C19.1898 5.08184 19.5805 5.20215 20.0016 5.20215C20.3695 5.20215 20.7133 5.10918 21.0242 4.95762L26.15 9.99902C26.0022 10.3013 25.9245 10.6329 25.9227 10.9693C25.9227 12.2178 26.9391 13.2326 28.1867 13.2326C29.4344 13.2326 30.4492 12.217 30.4492 10.9693C30.4492 10.6811 30.3898 10.4076 30.2914 10.1537L35.1945 4.36465C35.5414 4.56777 35.9406 4.69277 36.3711 4.69277C36.9934 4.69215 37.5901 4.44472 38.0302 4.00475C38.4703 3.56478 38.7179 2.96821 38.7188 2.3459C38.7175 1.72358 38.4696 1.12713 38.0294 0.687225C37.5893 0.247324 36.9926 -0.000150793 36.3703 -0.000976562C35.7482 -0.00014933 35.1518 0.247401 34.712 0.687368C34.2722 1.12734 34.0248 1.72379 34.0242 2.3459C34.0242 2.6498 34.0859 2.9373 34.1914 3.20449L29.2813 9.00215C28.9475 8.81135 28.5703 8.70965 28.1859 8.70684C27.8522 8.70817 27.5229 8.78453 27.2227 8.93027L22.0969 3.88965C22.2523 3.57637 22.3477 3.22871 22.3477 2.85605C22.3468 2.23388 22.0993 1.63742 21.6594 1.19748C21.2194 0.757531 20.623 0.510006 20.0008 0.50918C19.3785 0.5098 18.7818 0.757233 18.3417 1.1972C17.9016 1.63717 17.654 2.23374 17.6531 2.85605C17.6531 3.17559 17.7188 3.48027 17.8344 3.7584L12.9656 8.46465C12.6161 8.26119 12.2193 8.15291 11.8148 8.15059C11.4177 8.15334 11.0279 8.25798 10.6828 8.45449L6.08516 4.40527C6.21118 4.11288 6.27631 3.79788 6.27656 3.47949C6.27574 2.85718 6.0281 2.26061 5.58799 1.82064C5.14787 1.38067 4.55122 1.13324 3.92891 1.13262C3.30673 1.13344 2.71027 1.38097 2.27033 1.82091C1.83038 2.26086 1.58286 2.85732 1.58203 3.47949C1.58265 4.10194 1.83019 4.69871 2.27033 5.13885C2.71047 5.57899 3.30724 5.82653 3.92969 5.82715ZM36.3703 1.51387C36.4796 1.51387 36.5878 1.53539 36.6887 1.5772C36.7897 1.61902 36.8814 1.6803 36.9587 1.75756C37.0359 1.83482 37.0972 1.92655 37.139 2.02749C37.1808 2.12844 37.2023 2.23663 37.2023 2.3459C37.2023 2.45516 37.1808 2.56336 37.139 2.6643C37.0972 2.76525 37.0359 2.85697 36.9587 2.93423C36.8814 3.01149 36.7897 3.07278 36.6887 3.1146C36.5878 3.15641 36.4796 3.17793 36.3703 3.17793C36.1496 3.17793 35.938 3.09027 35.782 2.93423C35.6259 2.7782 35.5383 2.56657 35.5383 2.3459C35.5383 2.12523 35.6259 1.9136 35.782 1.75756C35.938 1.60153 36.1496 1.51387 36.3703 1.51387ZM28.9336 10.9693C28.9213 11.1595 28.8371 11.3378 28.6981 11.4681C28.5591 11.5984 28.3757 11.6709 28.1852 11.6709C27.9946 11.6709 27.8112 11.5984 27.6722 11.4681C27.5332 11.3378 27.449 11.1595 27.4367 10.9693C27.4371 10.7708 27.5162 10.5806 27.6567 10.4403C27.7971 10.3 27.9874 10.2211 28.1859 10.2209C28.3842 10.2215 28.5741 10.3006 28.7142 10.4408C28.8543 10.5811 28.9332 10.7711 28.9336 10.9693ZM20.0008 2.0248C20.11 2.02491 20.2182 2.04653 20.3191 2.08844C20.42 2.13035 20.5117 2.19172 20.5889 2.26905C20.6661 2.34639 20.7273 2.43817 20.769 2.53915C20.8107 2.64014 20.8321 2.74835 20.832 2.85762C20.8319 2.96688 20.8103 3.07505 20.7684 3.17596C20.7265 3.27687 20.6651 3.36853 20.5878 3.44572C20.5105 3.52291 20.4187 3.58411 20.3177 3.62583C20.2167 3.66755 20.1085 3.68897 19.9992 3.68887C19.7786 3.68866 19.567 3.6008 19.4111 3.44462C19.2552 3.28844 19.1678 3.07672 19.168 2.85605C19.1682 2.63539 19.256 2.42384 19.4122 2.26795C19.5684 2.11206 19.7801 2.0246 20.0008 2.0248ZM12.6477 10.4975C12.6477 10.9561 12.2734 11.3287 11.8156 11.3287C11.3578 11.3287 10.9844 10.9553 10.9844 10.4975C10.9844 10.2795 11.0727 10.085 11.2102 9.93652C11.2117 9.93496 11.2148 9.93418 11.2164 9.93184C11.2227 9.9248 11.2242 9.91543 11.2305 9.9084C11.3805 9.7584 11.5875 9.66543 11.8164 9.66543C12.0367 9.66625 12.2478 9.7542 12.4036 9.91008C12.5593 10.066 12.647 10.2771 12.6477 10.4975ZM3.92969 2.64902C4.38828 2.64902 4.76172 3.02168 4.76172 3.48027C4.76172 3.70059 4.67266 3.89824 4.53203 4.04668L4.53125 4.04746L4.52734 4.05293C4.4134 4.17395 4.26564 4.25784 4.10332 4.29368C3.941 4.32951 3.77166 4.31561 3.61735 4.25381C3.46305 4.192 3.33094 4.08514 3.23824 3.94717C3.14554 3.80919 3.09655 3.64649 3.09766 3.48027C3.09766 3.02168 3.47109 2.64902 3.92969 2.64902ZM26.657 40.4264C26.7258 40.3162 26.7898 40.2053 26.8539 40.0928H30.6039C30.8048 40.0928 30.9974 40.013 31.1395 39.8711C31.2816 39.7291 31.3615 39.5366 31.3617 39.3357V21.5904C31.3617 21.3894 31.2819 21.1967 31.1398 21.0546C30.9976 20.9125 30.8049 20.8326 30.6039 20.8326H25.7664C25.5654 20.8326 25.3727 20.9125 25.2306 21.0546C25.0884 21.1967 25.0086 21.3894 25.0086 21.5904V27.374C24.4501 26.8429 23.8343 26.3755 23.1727 25.9803V17.6639C23.1727 17.4629 23.0928 17.2701 22.9507 17.128C22.8086 16.9859 22.6158 16.9061 22.4148 16.9061H17.5844C17.3834 16.9061 17.1906 16.9859 17.0485 17.128C16.9064 17.2701 16.8266 17.4629 16.8266 17.6639V24.5467C16.207 24.6061 15.5938 24.7256 14.9906 24.8951V24.5896C14.9906 24.3887 14.9108 24.1959 14.7687 24.0538C14.6266 23.9117 14.4338 23.8318 14.2328 23.8318H9.39531C9.19433 23.8318 9.00158 23.9117 8.85946 24.0538C8.71734 24.1959 8.6375 24.3887 8.6375 24.5896V30.0107C6.54063 33.9498 7.14766 38.9615 10.4633 42.2764C11.4299 43.2442 12.5782 44.0114 13.8422 44.5342C15.1062 45.0569 16.4611 45.3248 17.8289 45.3225C19.7492 45.3225 21.6648 44.7873 23.3477 43.7357L27.8914 48.8029C28.5563 49.5498 29.3813 49.974 30.2141 49.9975C30.2398 49.999 30.2648 49.999 30.2891 49.999C30.9727 49.999 31.607 49.7256 32.125 49.2068C32.6641 48.6678 32.9383 48.0061 32.9188 47.2928C32.8953 46.46 32.4711 45.635 31.7281 44.9717L26.657 40.4264ZM29.8469 22.3482V38.5779H27.5703C28.725 35.4982 28.3813 31.9803 26.5242 29.1693V22.3482H29.8469ZM21.6578 18.4217V25.2264C20.5987 24.8124 19.4789 24.5746 18.343 24.5225V18.4217H21.6578ZM10.1539 25.3467H13.4766V25.46C12.3565 25.9697 11.3365 26.6756 10.4648 27.5443C10.3539 27.6545 10.2586 27.7732 10.1547 27.8873V25.3467H10.1539ZM11.5359 41.2053C8.06485 37.7342 8.06485 32.0865 11.5359 28.6154C12.3868 27.7635 13.4026 27.0941 14.5211 26.6482L14.5336 26.6443C15.583 26.2271 16.702 26.0127 17.8313 26.0123C20.1102 26.0123 22.3898 26.8803 24.1258 28.6154C27.5969 32.0865 27.5969 37.7342 24.1258 41.2053C20.6539 44.6771 15.007 44.6764 11.5359 41.2053ZM31.0531 48.1357C30.8102 48.3787 30.5516 48.4936 30.2578 48.4834C29.8523 48.4717 29.4031 48.2209 29.0211 47.7936L24.5766 42.8365C24.7875 42.6568 24.9969 42.4756 25.1961 42.2771C25.3961 42.0771 25.5773 41.867 25.7578 41.6561L30.7172 46.1021C31.1422 46.4811 31.3914 46.9311 31.4039 47.3365C31.4117 47.6303 31.2969 47.892 31.0531 48.1357Z" fill="#034737"/>
</svg>
