<svg width="50" height="50" viewBox="0 0 50 50" fill="none" xmlns="http://www.w3.org/2000/svg">
<g clip-path="url(#clip0_10134_28254)">
<path d="M29.1284 44.7123C35.1498 42.9369 39.545 37.3678 39.545 30.7713C39.545 22.7446 33.0382 16.2378 25.0115 16.2378C16.9849 16.2378 10.478 22.7446 10.478 30.7713C10.478 37.2798 14.7566 42.7887 20.6542 44.6398M3.16681 40.1634C0.178044 34.3715 0.253532 27.0958 3.39338 21.3791M6.6923 24.763C4.9924 28.4829 4.91857 32.9159 6.47179 36.6975M46.841 21.3791C49.8298 27.171 49.7543 34.4467 46.6145 40.1634M43.3155 36.7795C45.0154 33.0596 45.0893 28.6266 43.5361 24.845" stroke="#034737" stroke-width="1.95312" stroke-miterlimit="10" stroke-linecap="round" stroke-linejoin="round"/>
<path d="M25.01 23.1063L27.8722 27.2822L32.7613 28.7381L29.6412 32.7266L29.8006 37.8504L25.01 36.0914L20.2193 37.8504L20.3787 32.7266L17.2586 28.7381L22.1477 27.2822L25.01 23.1063ZM38.0629 8.78018L34.6409 19.8862C32.0767 17.616 28.7035 16.2376 25.01 16.2376C21.3164 16.2376 17.9433 17.6159 15.379 19.8862L11.957 8.78018L16.0081 10.6836C18.5823 11.8931 21.653 10.8847 23.009 8.38447L25.0101 4.69482L27.0111 8.38447C28.3671 10.8846 31.4378 11.8931 34.012 10.6835L38.0629 8.78018Z" stroke="#034737" stroke-width="1.95312" stroke-miterlimit="10" stroke-linecap="round" stroke-linejoin="round"/>
</g>
<defs>
<clipPath id="clip0_10134_28254">
<rect width="50" height="50" fill="white"/>
</clipPath>
</defs>
</svg>
