<svg width="50" height="50" viewBox="0 0 50 50" fill="none" xmlns="http://www.w3.org/2000/svg">
<g clip-path="url(#clip0_10134_28263)">
<path d="M6.80068 30.0748H1.5625C1.3553 30.0748 1.15659 30.1571 1.01007 30.3036C0.86356 30.4501 0.78125 30.6489 0.78125 30.8561V38.1408C0.78125 38.348 0.86356 38.5467 1.01007 38.6932C1.15659 38.8398 1.3553 38.9221 1.5625 38.9221H6.80068C7.00788 38.9221 7.2066 38.8398 7.35311 38.6932C7.49962 38.5467 7.58193 38.348 7.58193 38.1408V30.8561C7.58193 30.6489 7.49962 30.4501 7.35311 30.3036C7.2066 30.1571 7.00788 30.0748 6.80068 30.0748ZM6.01943 37.3596H2.34375V31.6373H6.01943V37.3596ZM18.1224 24.8863H12.8842C12.677 24.8863 12.4783 24.9686 12.3318 25.1152C12.1852 25.2617 12.1029 25.4604 12.1029 25.6676V38.1408C12.1029 38.348 12.1852 38.5467 12.3318 38.6932C12.4783 38.8398 12.677 38.9221 12.8842 38.9221H18.1224C18.3296 38.9221 18.5283 38.8398 18.6748 38.6932C18.8213 38.5467 18.9036 38.348 18.9036 38.1408V25.6676C18.9036 25.4604 18.8213 25.2617 18.6748 25.1152C18.5283 24.9686 18.3296 24.8863 18.1224 24.8863ZM17.3411 37.3596H13.6654V26.4488H17.3411V37.3596ZM41.547 27.6036V15.2905C41.547 15.0833 41.4647 14.8846 41.3181 14.7381C41.1716 14.5916 40.9729 14.5093 40.7657 14.5093H35.5275C35.3203 14.5093 35.1216 14.5916 34.9751 14.7381C34.8286 14.8846 34.7463 15.0833 34.7463 15.2905V27.6036C33.0145 28.1639 31.4682 29.1397 30.2253 30.4136V20.479C30.2253 20.2718 30.143 20.0731 29.9965 19.9266C29.85 19.7801 29.6512 19.6978 29.444 19.6978H24.2059C23.9987 19.6978 23.7999 19.7801 23.6534 19.9266C23.5069 20.0731 23.4246 20.2718 23.4246 20.479V38.1407C23.4246 38.3479 23.5069 38.5466 23.6534 38.6931C23.7999 38.8397 23.9987 38.922 24.2059 38.922H27.1025C27.5048 44.6639 32.3042 49.2128 38.1467 49.2128C44.2519 49.2128 49.2188 44.2459 49.2188 38.1407C49.2188 33.2215 45.9937 29.0419 41.547 27.6036ZM36.3088 16.0718H39.9845V27.2221C39.3772 27.1201 38.7625 27.0687 38.1467 27.0687C37.5206 27.0687 36.9068 27.1217 36.3088 27.2221V16.0718ZM24.9871 21.2603H28.6628V32.4326C27.7587 33.9277 27.2238 35.6166 27.1025 37.3596H24.9871V21.2603ZM38.1467 47.6503C32.9031 47.6503 28.6371 43.3843 28.6371 38.1407C28.6371 32.8972 32.9031 28.6312 38.1467 28.6312C43.3903 28.6312 47.6562 32.8972 47.6562 38.1407C47.6562 43.3843 43.3902 47.6503 38.1467 47.6503ZM38.1467 29.5015C33.3829 29.5015 29.5073 33.3772 29.5073 38.1408C29.5073 42.9045 33.3829 46.7802 38.1467 46.7802C42.9104 46.7802 46.786 42.9045 46.786 38.1408C46.786 33.3772 42.9104 29.5015 38.1467 29.5015ZM38.1467 45.2176C34.2445 45.2176 31.0698 42.0429 31.0698 38.1407C31.0698 34.2386 34.2444 31.0639 38.1467 31.0639C42.0489 31.0639 45.2235 34.2386 45.2235 38.1407C45.2235 42.0429 42.0488 45.2176 38.1467 45.2176ZM41.4293 39.886C41.5125 40.5715 41.3275 41.1983 40.8943 41.6991C40.4474 42.2159 39.7392 42.5773 38.9279 42.7185V43.1134C38.9279 43.3206 38.8456 43.5193 38.6991 43.6658C38.5526 43.8123 38.3539 43.8946 38.1467 43.8946C37.9395 43.8946 37.7408 43.8123 37.5943 43.6658C37.4477 43.5193 37.3654 43.3206 37.3654 43.1134V42.7058C36.1172 42.4541 35.1596 41.6139 34.8677 40.4437C34.8429 40.3441 34.8379 40.2406 34.853 40.1392C34.8682 40.0377 34.9032 39.9402 34.956 39.8523C35.0089 39.7643 35.0785 39.6876 35.161 39.6266C35.2435 39.5656 35.3372 39.5214 35.4367 39.4966C35.8553 39.3929 36.2794 39.647 36.3838 40.0656C36.6033 40.9457 37.5158 41.2391 38.2307 41.2208C38.8484 41.2062 39.4439 40.9876 39.7126 40.6771C39.8555 40.5119 39.9081 40.3204 39.8782 40.0744C39.827 39.653 39.5704 39.1367 38.0272 38.8835C35.6978 38.501 35.1537 37.284 35.1075 36.3304C35.0437 35.0154 35.9505 33.9152 37.3654 33.589V33.1682C37.3654 32.961 37.4477 32.7622 37.5943 32.6157C37.7408 32.4692 37.9395 32.3869 38.1467 32.3869C38.3539 32.3869 38.5526 32.4692 38.6991 32.6157C38.8456 32.7622 38.9279 32.961 38.9279 33.1682V33.5819C39.8471 33.7828 40.7236 34.3631 41.1805 35.4513C41.259 35.642 41.2589 35.856 41.1802 36.0467C41.1015 36.2373 40.9506 36.3891 40.7605 36.4689C40.5703 36.5488 40.3563 36.5502 40.1651 36.4729C39.9739 36.3955 39.821 36.2457 39.7398 36.0562C39.3681 35.1711 38.4595 34.9435 37.7238 35.1099C37.5402 35.1516 36.6268 35.4023 36.6682 36.2548C36.6791 36.4814 36.7083 37.0835 38.2804 37.3417C40.2032 37.6571 41.2626 38.5133 41.4293 39.886ZM19.5185 14.6679L30.2917 8.44795L29.45 10.7372C29.3785 10.9317 29.3872 11.1466 29.4741 11.3347C29.5611 11.5227 29.7192 11.6685 29.9137 11.74C30 11.7719 30.0912 11.7882 30.1832 11.7883C30.3431 11.7882 30.4992 11.7392 30.6303 11.6476C30.7614 11.5561 30.8613 11.4266 30.9165 11.2765L32.5027 6.9623C32.5422 6.85483 32.5576 6.73998 32.5478 6.62589C32.538 6.5118 32.5033 6.40126 32.446 6.30209C32.3888 6.20292 32.3104 6.11755 32.2165 6.05201C32.1226 5.98648 32.0155 5.94238 31.9026 5.92285L27.3734 5.13955C27.2723 5.12205 27.1688 5.12463 27.0687 5.14716C26.9686 5.16968 26.8739 5.21171 26.7901 5.27084C26.7062 5.32997 26.6348 5.40504 26.58 5.49176C26.5252 5.57849 26.488 5.67516 26.4705 5.77627C26.4352 5.98044 26.4825 6.19027 26.6019 6.3596C26.7213 6.52893 26.9031 6.6439 27.1072 6.6792L29.5105 7.09482L18.4462 13.4827C17.3198 12.4135 15.9695 11.6083 14.4934 11.1255C15.9519 10.0941 16.9069 8.3958 16.9069 6.47764C16.9069 3.33984 14.3542 0.787109 11.2164 0.787109C8.07861 0.787109 5.52588 3.33984 5.52588 6.47764C5.52588 8.3958 6.48086 10.0941 7.93936 11.1255C4.11221 12.3763 1.23564 15.7651 0.785742 19.9686C0.774036 20.0775 0.785405 20.1878 0.819109 20.2921C0.852813 20.3964 0.908097 20.4924 0.981364 20.574C1.05463 20.6555 1.14424 20.7207 1.24437 20.7653C1.34449 20.8099 1.45289 20.8329 1.5625 20.8329H5.71523L2.67402 22.5888C2.58518 22.6401 2.5073 22.7084 2.44485 22.7898C2.3824 22.8712 2.33659 22.9641 2.31005 23.0632C2.2835 23.1623 2.27673 23.2656 2.29013 23.3674C2.30353 23.4691 2.33683 23.5672 2.38813 23.656C2.43944 23.7449 2.50774 23.8227 2.58914 23.8852C2.67054 23.9476 2.76344 23.9934 2.86254 24.02C2.96165 24.0465 3.06501 24.0533 3.16672 24.0399C3.26844 24.0265 3.36652 23.9932 3.45537 23.9419L8.84033 20.8329H20.87C20.9796 20.8329 21.088 20.8099 21.1882 20.7653C21.2883 20.7207 21.3779 20.6555 21.4512 20.5739C21.5245 20.4924 21.5797 20.3963 21.6134 20.292C21.6471 20.1877 21.6585 20.0775 21.6468 19.9685C21.4329 17.9702 20.6705 16.156 19.5185 14.6679ZM7.08828 6.47773C7.08828 4.20156 8.94014 2.34971 11.2163 2.34971C13.4925 2.34971 15.3443 4.20156 15.3443 6.47773C15.3443 8.75303 13.4938 10.6043 11.2188 10.6057H11.2137C8.93877 10.6042 7.08828 8.75303 7.08828 6.47773ZM2.47422 19.2705C3.3207 15.1661 6.93555 12.169 11.2143 12.1681H11.2183C15.4969 12.169 19.1116 15.1661 19.9582 19.2704L2.47422 19.2705Z" fill="#034737"/>
</g>
<defs>
<clipPath id="clip0_10134_28263">
<rect width="50" height="50" fill="white"/>
</clipPath>
</defs>
</svg>
