<svg width="32" height="50" viewBox="0 0 32 50" fill="none" xmlns="http://www.w3.org/2000/svg">
<path fill-rule="evenodd" clip-rule="evenodd" d="M3.213 16.8969H3.21341C3.63535 16.8969 4.05316 16.98 4.44299 17.1414C4.83281 17.3029 5.18702 17.5396 5.48537 17.8379C5.78373 18.1363 6.0204 18.4905 6.18186 18.8803C6.34333 19.2701 6.42643 19.6879 6.42641 20.1099V26.04C6.42641 26.3709 6.57137 26.685 6.82319 26.8995L12.1392 31.4304C12.3436 31.6046 12.6033 31.7002 12.8718 31.7002H18.386C18.6544 31.7002 18.9141 31.6046 19.1184 31.4304L24.4345 26.8995C24.5589 26.7935 24.6588 26.6618 24.7273 26.5134C24.7958 26.365 24.8313 26.2035 24.8313 26.04V20.1099C24.8313 19.2577 25.1698 18.4405 25.7723 17.8379C26.3749 17.2354 27.1921 16.8969 28.0443 16.8969H28.0447C28.8968 16.8969 29.714 17.2355 30.3165 17.838C30.9191 18.4405 31.2576 19.2578 31.2577 20.1099V28.2574C31.2577 28.6561 31.1707 29.05 31.0029 29.4117C30.8351 29.7734 30.5904 30.0941 30.2859 30.3515L23.1713 36.3664C23.1175 36.4119 23.0743 36.4685 23.0447 36.5323C23.0151 36.5962 22.9997 36.6657 22.9997 36.7361V49.1936C22.9997 49.4074 22.9147 49.6126 22.7635 49.7638C22.6123 49.915 22.4071 50 22.1932 50H9.03639C8.82251 50 8.61738 49.915 8.46614 49.7638C8.31491 49.6126 8.22994 49.4074 8.22994 49.1936V36.7658C8.22993 36.6958 8.21471 36.6266 8.18533 36.563C8.15595 36.4994 8.11312 36.4429 8.05978 36.3975L0.963407 30.3491C0.661361 30.0917 0.418794 29.7717 0.25246 29.4114C0.0861259 29.0511 -1.07617e-05 28.659 1.00847e-09 28.2621V20.1099C5.3466e-05 19.2578 0.338583 18.4405 0.941127 17.838C1.54367 17.2355 2.36088 16.8969 3.213 16.8969ZM28.0447 18.5098H28.0443C27.8341 18.5098 27.626 18.5511 27.4319 18.6316C27.2378 18.712 27.0614 18.8298 26.9128 18.9784C26.7642 19.127 26.6463 19.3034 26.5659 19.4975C26.4855 19.6917 26.4441 19.8997 26.4442 20.1099V26.04C26.4442 26.4369 26.358 26.829 26.1917 27.1894C26.0253 27.5497 25.7828 27.8697 25.4807 28.1271L20.1647 32.658C19.6685 33.0809 19.0379 33.3131 18.3859 33.3131H12.8718C12.2198 33.3131 11.5892 33.0809 11.0929 32.658L5.77692 28.1271C5.47488 27.8697 5.23232 27.5497 5.06598 27.1894C4.89965 26.829 4.81351 26.4369 4.81351 26.04V20.1099C4.81343 19.6855 4.64482 19.2786 4.34476 18.9785C4.0447 18.6785 3.63776 18.5099 3.21341 18.5098H3.213C3.00287 18.5098 2.7948 18.5511 2.60066 18.6316C2.40652 18.712 2.23012 18.8298 2.08153 18.9784C1.93295 19.127 1.81508 19.3034 1.73468 19.4975C1.65427 19.6917 1.61289 19.8997 1.6129 20.1099V28.2621C1.61289 28.4255 1.64836 28.587 1.71686 28.7354C1.78537 28.8838 1.88527 29.0156 2.00968 29.1216L9.10605 35.17C9.33701 35.3668 9.5225 35.6115 9.64971 35.887C9.77692 36.1625 9.84281 36.4624 9.84284 36.7658V48.3871H21.3868V36.7361C21.3868 36.4312 21.4533 36.13 21.5816 35.8534C21.71 35.5769 21.8971 35.3316 22.1299 35.1348L29.2446 29.1199C29.37 29.0138 29.4707 28.8817 29.5398 28.7328C29.609 28.5838 29.6448 28.4216 29.6448 28.2574V20.1099C29.6448 19.8997 29.6034 19.6917 29.523 19.4975C29.4426 19.3034 29.3247 19.127 29.1761 18.9784C29.0275 18.8298 28.8511 18.712 28.657 18.6316C28.4629 18.5511 28.2548 18.5098 28.0447 18.5098ZM15.6288 18.9533C18.6299 18.9533 21.0792 21.455 21.0792 24.5518C21.0792 27.6487 18.6299 30.1504 15.6288 30.1504C12.6277 30.1504 10.1784 27.6487 10.1784 24.5518C10.1784 21.455 12.6277 18.9533 15.6288 18.9533ZM15.6288 20.5662C13.5037 20.5662 11.7913 22.359 11.7913 24.5518C11.7913 26.7448 13.5037 28.5375 15.6288 28.5375C17.7539 28.5375 19.4663 26.7448 19.4663 24.5518C19.4663 22.359 17.7539 20.5662 15.6288 20.5662ZM13.4681 9.14214L14.2681 6.67974C14.3615 6.39241 14.5435 6.14201 14.7879 5.96444C15.0323 5.78686 15.3267 5.69122 15.6288 5.69122C15.931 5.69122 16.2253 5.78686 16.4698 5.96444C16.7142 6.14201 16.8961 6.39241 16.9895 6.67974L17.7895 9.14214H20.3786C20.6808 9.14212 20.9752 9.23776 21.2196 9.41534C21.464 9.59293 21.646 9.84334 21.7393 10.1307C21.8327 10.418 21.8327 10.7276 21.7393 11.0149C21.6459 11.3023 21.464 11.5527 21.2196 11.7302L19.1249 13.252L19.925 15.7144C20.0184 16.0018 20.0184 16.3113 19.925 16.5986C19.8317 16.886 19.6497 17.1364 19.4053 17.314C19.1608 17.4916 18.8665 17.5872 18.5643 17.5872C18.2622 17.5872 17.9678 17.4915 17.7234 17.3139L15.6288 15.7921L13.5343 17.3139C13.2899 17.4915 12.9955 17.5872 12.6933 17.5872C12.3912 17.5872 12.0968 17.4916 11.8524 17.314C11.6079 17.1364 11.426 16.886 11.3326 16.5986C11.2393 16.3113 11.2393 16.0018 11.3327 15.7144L12.1328 13.252L10.0381 11.7302C9.79373 11.5526 9.61184 11.3022 9.51851 11.0149C9.42518 10.7276 9.42519 10.4181 9.51855 10.1308C9.6119 9.84344 9.79381 9.59305 10.0382 9.41545C10.2826 9.23786 10.5769 9.14219 10.879 9.14214H13.4681ZM11.4399 10.755L13.1879 12.025C13.4323 12.2026 13.6142 12.453 13.7076 12.7403C13.8009 13.0277 13.8009 13.3372 13.7076 13.6245L13.0399 15.6793L14.7879 14.4094C15.0323 14.2318 15.3267 14.1361 15.6288 14.1361C15.931 14.1361 16.2253 14.2318 16.4698 14.4094L18.2177 15.6793L17.5501 13.6245C17.4567 13.3372 17.4567 13.0277 17.5501 12.7403C17.6434 12.453 17.8253 12.2026 18.0698 12.025L19.8177 10.755H17.6572C17.355 10.755 17.0606 10.6594 16.8162 10.4818C16.5718 10.3042 16.3898 10.0538 16.2965 9.76643L15.6288 7.71159L14.9612 9.76643C14.8678 10.0538 14.6859 10.3042 14.4415 10.4818C14.197 10.6594 13.9026 10.755 13.6005 10.755H11.4399ZM14.8224 0.806452C14.8224 0.361391 15.1838 0 15.6288 0C16.0739 0 16.4353 0.361391 16.4353 0.806452V3.51482C16.4353 3.95998 16.0739 4.32127 15.6288 4.32127C15.1838 4.32127 14.8224 3.95998 14.8224 3.51482V0.806452ZM9.51401 2.66099C9.29153 2.2755 9.42379 1.78185 9.80927 1.55938C9.99452 1.45252 10.2146 1.42359 10.4212 1.47893C10.6277 1.53428 10.8039 1.66938 10.9109 1.85454L12.2651 4.2001C12.3719 4.38536 12.4008 4.60545 12.3455 4.81202C12.2901 5.01858 12.155 5.19471 11.9699 5.30171C11.7846 5.40857 11.5645 5.4375 11.358 5.38216C11.1514 5.32681 10.9752 5.19171 10.8682 5.00655L9.51401 2.66099ZM5.84415 6.92127C5.45877 6.69869 5.32641 6.20504 5.54899 5.81956C5.77157 5.43417 6.26522 5.30181 6.65061 5.52439L8.99617 6.87863C9.18133 6.98563 9.31643 7.16177 9.37177 7.36834C9.42712 7.57491 9.39819 7.795 9.29133 7.98024C9.18433 8.1654 9.00819 8.3005 8.80162 8.35585C8.59505 8.41119 8.37496 8.38226 8.18972 8.2754L5.84415 6.92127ZM20.3468 1.85454C20.4538 1.66938 20.6299 1.53428 20.8365 1.47893C21.0431 1.42359 21.2631 1.45252 21.4484 1.55938C21.8339 1.78185 21.9661 2.2755 21.7437 2.66099L20.3894 5.00655C20.2824 5.19171 20.1063 5.32681 19.8997 5.38216C19.6931 5.4375 19.473 5.40857 19.2878 5.30171C19.1026 5.19471 18.9675 5.01858 18.9122 4.81202C18.8568 4.60545 18.8857 4.38536 18.9925 4.2001L20.3468 1.85454ZM24.6071 5.52439C24.9924 5.30181 25.4861 5.43417 25.7087 5.81956C25.9313 6.20504 25.7989 6.69869 25.4135 6.92127L23.0679 8.2754C22.8827 8.38226 22.6626 8.41119 22.456 8.35585C22.2495 8.3005 22.0733 8.1654 21.9663 7.98024C21.8595 7.795 21.8305 7.57491 21.8859 7.36834C21.9412 7.16177 22.0763 6.98563 22.2615 6.87863L24.6071 5.52439Z" fill="#034737"/>
</svg>
