<svg width="48" height="50" viewBox="0 0 48 50" fill="none" xmlns="http://www.w3.org/2000/svg">
<path d="M46.1609 20.1898L45.685 20.0933C45.2435 20.0044 44.838 19.787 44.5195 19.4685C44.2009 19.15 43.9835 18.7445 43.8945 18.3029L43.798 17.827C43.6699 17.1944 43.1296 16.7525 42.484 16.7525H42.4839C41.8384 16.7525 41.298 17.1943 41.1697 17.827L41.0732 18.3029C40.9843 18.7445 40.7669 19.15 40.4484 19.4686C40.1298 19.7871 39.7243 20.0044 39.2827 20.0933L38.8068 20.1898C38.1742 20.3182 37.7325 20.8585 37.7325 21.504C37.7325 22.1495 38.1743 22.6898 38.8068 22.8182L39.2827 22.9146C39.7243 23.0036 40.1298 23.2209 40.4483 23.5395C40.7669 23.858 40.9842 24.2635 41.0732 24.7051L41.1697 25.181C41.298 25.8137 41.8384 26.2556 42.484 26.2554C43.1296 26.2554 43.6699 25.8135 43.798 25.1808L43.8945 24.705C43.9835 24.2634 44.2009 23.8579 44.5194 23.5393C44.8379 23.2208 45.2434 23.0034 45.685 22.9144L46.1609 22.818C46.7935 22.6897 47.2352 22.1493 47.2352 21.5038C47.2352 20.8585 46.7935 20.3181 46.1609 20.1898ZM42.4839 24.1343C42.3086 23.5066 41.9744 22.9348 41.5137 22.474C41.0529 22.0132 40.481 21.679 39.8534 21.5038C40.481 21.3286 41.0529 20.9944 41.5137 20.5336C41.9745 20.0728 42.3086 19.501 42.4839 18.8733C42.6591 19.501 42.9933 20.0728 43.4541 20.5336C43.9149 20.9944 44.4867 21.3285 45.1143 21.5038C44.4867 21.6791 43.9149 22.0133 43.4541 22.4741C42.9934 22.9349 42.6592 23.5067 42.4839 24.1343ZM15.9209 14.9941C15.822 14.9941 15.724 15.0136 15.6327 15.0514C15.5413 15.0893 15.4583 15.1447 15.3884 15.2147C15.3184 15.2846 15.263 15.3676 15.2251 15.459C15.1873 15.5503 15.1678 15.6483 15.1678 15.7472V17.7049C15.1678 17.9046 15.2472 18.0961 15.3884 18.2373C15.5296 18.3786 15.7211 18.4579 15.9209 18.4579C16.1206 18.4579 16.3121 18.3786 16.4533 18.2373C16.5946 18.0961 16.6739 17.9046 16.6739 17.7049V15.7472C16.6739 15.6483 16.6544 15.5503 16.6166 15.459C16.5787 15.3676 16.5233 15.2846 16.4533 15.2147C16.3834 15.1448 16.3004 15.0893 16.209 15.0514C16.1177 15.0136 16.0198 14.9941 15.9209 14.9941ZM15.9209 20.2648C15.822 20.2648 15.724 20.2843 15.6327 20.3221C15.5413 20.36 15.4583 20.4154 15.3884 20.4854C15.3184 20.5553 15.263 20.6383 15.2251 20.7297C15.1873 20.821 15.1678 20.919 15.1678 21.0179V22.9756C15.1678 23.1753 15.2472 23.3668 15.3884 23.508C15.5296 23.6493 15.7211 23.7286 15.9209 23.7286C16.1206 23.7286 16.3121 23.6493 16.4533 23.508C16.5946 23.3668 16.6739 23.1753 16.6739 22.9756V21.0179C16.6739 20.919 16.6544 20.8211 16.6166 20.7297C16.5787 20.6383 16.5233 20.5553 16.4533 20.4854C16.3834 20.4155 16.3004 20.36 16.209 20.3222C16.1177 20.2843 16.0198 20.2648 15.9209 20.2648ZM19.535 18.6083H17.5773C17.1614 18.6083 16.8243 18.9454 16.8243 19.3613C16.8243 19.7772 17.1614 20.1143 17.5773 20.1143H19.535C19.9509 20.1143 20.288 19.7772 20.288 19.3613C20.288 18.9454 19.9509 18.6083 19.535 18.6083ZM14.2643 18.6083H12.3066C11.8907 18.6083 11.5536 18.9454 11.5536 19.3613C11.5536 19.7772 11.8906 20.1143 12.3066 20.1143H14.2643C14.6802 20.1143 15.0173 19.7772 15.0173 19.3613C15.0173 18.9454 14.6803 18.6083 14.2643 18.6083ZM38.3398 16.3474C38.0936 15.1974 37.5198 14.1433 36.6878 13.3123C36.3936 13.0183 35.9168 13.0182 35.6229 13.3123C35.553 13.3822 35.4975 13.4652 35.4596 13.5566C35.4218 13.6479 35.4023 13.7458 35.4023 13.8447C35.4023 13.9436 35.4217 14.0416 35.4596 14.1329C35.4974 14.2243 35.5529 14.3073 35.6228 14.3772C36.1539 14.9075 36.5467 15.56 36.767 16.2774L30.9165 22.1279C30.3035 20.7782 29.2219 19.6966 27.8721 19.0837L29.8143 17.1415C29.9555 17.0003 30.0349 16.8087 30.0348 16.609C30.0348 16.4093 29.9555 16.2178 29.8143 16.0766C29.6731 15.9354 29.4815 15.8561 29.2818 15.8561C29.0821 15.8561 28.8906 15.9354 28.7494 16.0766L0.220467 44.6053C0.0793011 44.7465 0 44.938 0 45.1377C0 45.3374 0.0793011 45.5289 0.220467 45.6701L4.32965 49.7793C4.47672 49.9264 4.66949 49.9999 4.86217 49.9999C5.05484 49.9999 5.24762 49.9264 5.39469 49.7793L12.0126 43.1614C12.1538 43.0202 12.2331 42.8287 12.2331 42.629C12.2331 42.4293 12.1537 42.2377 12.0125 42.0965C11.8713 41.9553 11.6798 41.876 11.4801 41.876C11.2803 41.876 11.0888 41.9554 10.9476 42.0966L4.86227 48.182L1.81793 45.1377L24.4238 22.5318C25.8772 22.9791 27.0209 24.1228 27.4681 25.5762L13.1311 39.9131C13.0258 40.0184 12.954 40.1526 12.9249 40.2986C12.8959 40.4447 12.9108 40.5962 12.9678 40.7338C13.0248 40.8714 13.1213 40.989 13.2452 41.0717C13.3691 41.1544 13.5147 41.1986 13.6636 41.1985C13.7626 41.1987 13.8605 41.1792 13.9519 41.1414C14.0433 41.1035 14.1263 41.048 14.1962 40.9779L38.1361 17.0379C38.225 16.9489 38.2902 16.8392 38.3258 16.7185C38.3614 16.5979 38.3662 16.4703 38.3398 16.3474ZM28.6339 24.4103C28.0208 23.0607 26.9392 21.9792 25.5895 21.3662L26.7062 20.2495C28.1596 20.6967 29.3033 21.8404 29.7505 23.2937L28.6339 24.4103Z" fill="#034737"/>
<path d="M39.0645 6.62217L37.1834 6.24072C36.4213 6.08719 35.7215 5.71203 35.1717 5.16229C34.622 4.61255 34.2469 3.91272 34.0934 3.15059L33.7119 1.26934C33.5604 0.521973 32.9219 0 32.1593 0C31.3966 0 30.7581 0.521973 30.6065 1.26943L30.2251 3.15059C30.0716 3.91271 29.6964 4.61254 29.1467 5.16227C28.597 5.71201 27.8972 6.08718 27.1351 6.24072L25.2539 6.62217C24.5065 6.77363 23.9844 7.41221 23.9844 8.17481C23.9844 8.9374 24.5065 9.57588 25.2539 9.72735L27.1351 10.1088C27.8972 10.2623 28.597 10.6375 29.1468 11.1872C29.6965 11.7369 30.0716 12.4368 30.2251 13.1989L30.6065 15.0802C30.7581 15.8275 31.3966 16.3496 32.1593 16.3496C32.9219 16.3496 33.5604 15.8276 33.7119 15.0802L34.0934 13.199C34.2469 12.4369 34.622 11.7371 35.1717 11.1873C35.7215 10.6376 36.4213 10.2624 37.1834 10.1089L39.0645 9.72744C39.8119 9.57598 40.334 8.9374 40.334 8.17481C40.334 7.41221 39.812 6.77373 39.0645 6.62217ZM38.7653 8.25147L36.8843 8.63291C35.8319 8.84491 34.8656 9.36294 34.1066 10.122C33.3475 10.8811 32.8295 11.8474 32.6175 12.8997L32.236 14.7809C32.229 14.8159 32.2232 14.8437 32.1594 14.8437C32.0953 14.8437 32.0897 14.8159 32.0826 14.7809L31.7012 12.8997C31.4892 11.8474 30.9711 10.8811 30.2121 10.122C29.453 9.36294 28.4867 8.84491 27.4344 8.63291L25.5532 8.25147C25.5182 8.24434 25.4904 8.23867 25.4904 8.17481C25.4904 8.11084 25.5183 8.10528 25.5532 8.09815L27.4344 7.7167C28.4867 7.5047 29.453 6.98668 30.2121 6.22761C30.9711 5.46855 31.4892 4.50224 31.7012 3.4499L32.0826 1.56875C32.0897 1.53369 32.0954 1.50596 32.1594 1.50596C32.2233 1.50596 32.2289 1.53369 32.236 1.56875L32.6175 3.4499C32.8295 4.50224 33.3475 5.46855 34.1066 6.22761C34.8656 6.98668 35.8319 7.5047 36.8843 7.7167L38.7653 8.09815C38.8005 8.10528 38.8281 8.11094 38.8281 8.17481C38.828 8.23867 38.8004 8.24434 38.7653 8.25147Z" fill="#034737"/>
</svg>
