<svg width="38" height="38" viewBox="0 0 38 38" fill="none" xmlns="http://www.w3.org/2000/svg">
<path d="M0.25 19C0.25 8.65847 8.65847 0.25 19 0.25C29.3415 0.25 37.75 8.65847 37.75 19C37.75 29.3415 29.3415 37.75 19 37.75C8.65847 37.75 0.25 29.3415 0.25 19ZM1.6296 19C1.6296 28.5789 9.42113 36.3704 19 36.3704C28.5789 36.3704 36.3704 28.5789 36.3704 19C36.3704 9.42113 28.5789 1.6296 19 1.6296C9.42113 1.6296 1.6296 9.42113 1.6296 19Z" fill="#A3A3A3" stroke="#A3A3A3" stroke-width="0.5"/>
<path d="M15.9928 28.0172L15.9812 28.0113L15.969 28.0066C15.5683 27.8526 15.4012 27.4668 15.5163 27.1194C15.5164 27.1192 15.5164 27.119 15.5165 27.1188L21.1552 10.444C21.3104 10.0464 21.6947 9.88106 22.0409 9.99588C22.3913 10.1137 22.5895 10.5252 22.4486 10.8644L22.4453 10.8722L22.4426 10.8802L16.8018 27.5598L16.8017 27.5598L16.7992 27.5679C16.7132 27.854 16.4575 28.0306 16.159 28.0306C16.1177 28.0306 16.0799 28.0304 16.0444 28.0268C16.0099 28.0233 15.9951 28.018 15.993 28.0173C15.9928 28.0172 15.9927 28.0172 15.9928 28.0172Z" fill="#A3A3A3" stroke="#A3A3A3" stroke-width="0.5"/>
<path d="M13.9107 14.4542L13.9109 14.4546C14.1134 14.7725 14.0362 15.1867 13.6983 15.4358L8.70252 18.7923L8.39251 19.0006L8.70324 19.2078L13.7384 22.5656C14.0251 22.7677 14.1172 23.1748 13.9104 23.5028C13.7969 23.6728 13.596 23.7889 13.3608 23.7889C13.2335 23.7889 13.0931 23.757 12.9911 23.68L12.9913 23.6797L12.9804 23.6723L6.8212 19.5131L6.7578 19.4703H6.75205C6.74754 19.4677 6.74287 19.4651 6.73804 19.4626L6.73775 19.4623L6.73779 19.4623L6.73668 19.4612C6.73589 19.4602 6.73438 19.4583 6.73209 19.4552C6.72608 19.447 6.71927 19.4369 6.70883 19.4213L6.70707 19.4186C6.69804 19.4051 6.6859 19.3869 6.67323 19.3694C6.66355 19.3561 6.65091 19.3394 6.63568 19.3223C6.50797 19.1338 6.49955 18.8815 6.62387 18.6317L6.62785 18.6237C6.63441 18.6153 6.64151 18.6053 6.64847 18.5937C6.65168 18.5884 6.65479 18.5829 6.65778 18.5771L6.69713 18.5377L6.73775 18.4971L6.74535 18.4895L6.7463 18.4886L6.74725 18.4876L6.74772 18.4871L6.7482 18.4867L6.74914 18.4857L6.75009 18.4848L6.75103 18.4838L6.75292 18.4819L6.76046 18.4744L6.76422 18.4706L6.76798 18.4669L6.79791 18.437L6.79978 18.4351L6.80165 18.4332L6.80258 18.4323L6.80351 18.4314L6.80445 18.4304L6.80538 18.4295L6.80725 18.4276L6.80748 18.4274L6.80772 18.4271L6.80818 18.4267L6.80865 18.4262L6.80912 18.4257L6.81286 18.422L6.82784 18.407L6.83536 18.3995L6.84069 18.3942L12.9811 14.2874L12.9897 14.2816L12.9979 14.2751C13.2729 14.056 13.7046 14.1294 13.9107 14.4542Z" fill="#A3A3A3" stroke="#A3A3A3" stroke-width="0.5"/>
<path d="M29.2981 19.2079L29.6063 19.0008L29.2985 18.7931L24.2611 15.3944C23.9748 15.1929 23.8822 14.7872 24.0869 14.4594C24.2928 14.1706 24.7356 14.0892 25.0154 14.2849L25.0154 14.2849L25.0188 14.2872L31.1471 18.4244C31.1512 18.4315 31.1557 18.4385 31.1605 18.4454C31.1919 18.4902 31.2295 18.5159 31.2438 18.5255C31.2573 18.5345 31.264 18.5389 31.2669 18.5406L31.3346 18.6083H31.3347C31.3368 18.6105 31.3389 18.6126 31.3411 18.6148L31.3411 18.6148L31.38 18.6537C31.383 18.6569 31.3857 18.6596 31.3882 18.6622V18.8489H31.5043C31.5056 18.852 31.5065 18.8542 31.507 18.8558C31.5081 18.8588 31.5083 18.86 31.5084 18.8609C31.5087 18.8622 31.5092 18.866 31.5096 18.8753C31.51 18.8858 31.51 18.8981 31.51 18.9193V18.9989V19.0761C31.5093 19.0788 31.5074 19.0853 31.5029 19.0986C31.5024 19.0999 31.502 19.1013 31.5015 19.1027C31.4963 19.118 31.4885 19.1408 31.482 19.1696C31.4749 19.1797 31.4678 19.1913 31.4611 19.2043C31.4608 19.205 31.4605 19.2056 31.4602 19.2063C31.4422 19.2269 31.4291 19.248 31.4196 19.2668C31.4171 19.2718 31.4149 19.2767 31.4128 19.2816C31.3946 19.3083 31.3833 19.3311 31.377 19.3438C31.3764 19.3451 31.3758 19.3462 31.3753 19.3473C31.3747 19.3485 31.3742 19.3496 31.3737 19.3505L31.3736 19.3505L31.3734 19.3508L31.3731 19.351L31.3729 19.3513L31.3727 19.3515L31.3724 19.3517L31.3722 19.352L31.372 19.3522L31.3717 19.3524L31.3715 19.3527L31.3713 19.3529L31.371 19.3532L31.3708 19.3534L31.3705 19.3536L31.3703 19.3539L31.3701 19.3541L31.3698 19.3543L31.3696 19.3546L31.3694 19.3548L31.3691 19.355L31.3689 19.3553L31.3687 19.3555L31.3684 19.3558L31.3682 19.356L31.3679 19.3562L31.3677 19.3565L31.3675 19.3567L31.3672 19.3569L31.367 19.3572L31.3668 19.3574L31.3665 19.3576L31.3663 19.3579L31.3661 19.3581L31.3658 19.3583L31.3656 19.3586L31.3653 19.3588L31.3651 19.3591L31.3649 19.3593L31.3646 19.3595L31.3644 19.3598L31.3642 19.36L31.3639 19.3602L31.3637 19.3605L31.3635 19.3607L31.3632 19.3609L31.363 19.3612L31.3628 19.3614L31.3625 19.3616L31.3623 19.3619L31.362 19.3621L31.3618 19.3624L31.3616 19.3626L31.3613 19.3628L31.3611 19.3631L31.3609 19.3633L31.3606 19.3635L31.3604 19.3638L31.3602 19.364L31.3599 19.3642L31.3597 19.3645L31.3595 19.3647L31.3592 19.3649L31.359 19.3652L31.3588 19.3654L31.3585 19.3657L31.3583 19.3659L31.358 19.3661L31.3578 19.3664L31.3576 19.3666L31.3573 19.3668L31.3571 19.3671L31.3569 19.3673L31.3566 19.3675L31.3564 19.3678L31.3562 19.368L31.3559 19.3682L31.3557 19.3685L31.3555 19.3687L31.3552 19.3689L31.355 19.3692L31.3548 19.3694L31.3545 19.3696L31.3543 19.3699L31.3541 19.3701L31.3538 19.3704L31.3536 19.3706L31.3533 19.3708L31.3531 19.3711L31.3529 19.3713L31.3526 19.3715L31.3524 19.3718L31.3522 19.372L31.3519 19.3722L31.3517 19.3725L31.3515 19.3727L31.3512 19.3729L31.351 19.3732L31.3508 19.3734L31.3505 19.3736L31.3503 19.3739L31.3501 19.3741L31.3498 19.3743L31.3496 19.3746L31.3494 19.3748L31.3491 19.375L31.3489 19.3753L31.3487 19.3755L31.3484 19.3757L31.3482 19.376L31.348 19.3762L31.3477 19.3764L31.3475 19.3767L31.3472 19.3769L31.347 19.3772L31.3468 19.3774L31.3465 19.3776L31.3463 19.3779L31.3461 19.3781L31.3458 19.3783L31.3456 19.3786L31.3454 19.3788L31.3451 19.379L31.3449 19.3793L31.3447 19.3795L31.3444 19.3797L31.3442 19.38L31.344 19.3802L31.3437 19.3804L31.3435 19.3807L31.3433 19.3809L31.343 19.3811L31.3428 19.3814L31.3426 19.3816L31.3423 19.3818L31.3421 19.3821L31.3419 19.3823L31.3416 19.3825L31.3414 19.3828L31.3412 19.383L31.3409 19.3832L31.3407 19.3835L31.3405 19.3837L31.3402 19.3839L31.34 19.3842L31.3398 19.3844L31.3395 19.3846L31.3393 19.3849L31.3391 19.3851L31.3388 19.3853L31.3386 19.3856L31.3384 19.3858L31.3381 19.386L31.3379 19.3863L31.3377 19.3865L31.3374 19.3867L31.3372 19.387L31.337 19.3872L31.3367 19.3874L31.3365 19.3877L31.3363 19.3879L31.336 19.3881L31.3358 19.3884L31.3356 19.3886L31.3353 19.3889L31.3351 19.3891L31.3348 19.3893L31.3346 19.3896L31.3344 19.3898L31.3341 19.39L31.3339 19.3903L31.3337 19.3905L31.3334 19.3907L31.3332 19.391L31.333 19.3912L31.3327 19.3914L31.3325 19.3917L31.3323 19.3919L31.332 19.3921L31.3318 19.3924L31.3316 19.3926L31.3313 19.3928L31.3311 19.3931L31.3309 19.3933L31.3306 19.3935L31.3304 19.3938L31.3302 19.394L31.3299 19.3942L31.3297 19.3945L31.3295 19.3947L31.3292 19.3949L31.329 19.3952L31.3288 19.3954L31.3285 19.3956L31.3283 19.3959L31.3281 19.3961L31.3278 19.3963L31.3276 19.3966L31.3274 19.3968L31.3271 19.397L31.3269 19.3973L31.3267 19.3975L31.3264 19.3977L31.3262 19.398L31.326 19.3982L31.3257 19.3984L31.3255 19.3987L31.3253 19.3989L31.325 19.3991L31.3248 19.3994L31.3246 19.3996L31.3243 19.3998L31.3241 19.4001L31.3239 19.4003L31.3236 19.4005L31.3234 19.4008L31.3232 19.401L31.3229 19.4012L31.3227 19.4015L31.3225 19.4017L31.3222 19.4019L31.322 19.4022L31.3218 19.4024L31.3215 19.4026L31.3213 19.4029L31.3211 19.4031L31.3208 19.4033L31.3206 19.4036L31.3204 19.4038L31.3201 19.404L31.3199 19.4043L31.3197 19.4045L31.3194 19.4047L31.3192 19.405L31.319 19.4052L31.3187 19.4054L31.3185 19.4057L31.3183 19.4059L31.318 19.4061L31.3178 19.4064L31.3176 19.4066L31.3173 19.4068L31.3171 19.4071L31.3169 19.4073L31.3166 19.4075L31.3164 19.4078L31.3162 19.408L31.3159 19.4082L31.3157 19.4085L31.3155 19.4087L31.3152 19.4089L31.315 19.4092L31.3148 19.4094L31.3145 19.4096L31.3143 19.4099L31.3141 19.4101L31.3138 19.4103L31.3136 19.4106L31.3134 19.4108L31.3131 19.411L31.3129 19.4113L31.3127 19.4115L31.3124 19.4117L31.3122 19.412L31.312 19.4122L31.3117 19.4124L31.3115 19.4127L31.3113 19.4129L31.311 19.4131L31.3108 19.4134L31.3106 19.4136L31.3103 19.4138L31.3101 19.4141L31.3099 19.4143L31.3096 19.4145L31.3094 19.4148L31.3092 19.415L31.3089 19.4152L31.3087 19.4155L31.3085 19.4157L31.3082 19.4159L31.308 19.4162L31.3078 19.4164L31.3075 19.4166L31.3073 19.4169L31.3071 19.4171L31.3068 19.4173L31.3066 19.4176L31.3064 19.4178L31.3061 19.418L31.3059 19.4183L31.3057 19.4185L31.3054 19.4187L31.3052 19.419L31.305 19.4192L31.3047 19.4194L31.3045 19.4197L31.3043 19.4199L31.304 19.4201L31.3038 19.4204L31.3036 19.4206L31.3033 19.4209L31.3031 19.4211L31.3028 19.4213L31.3026 19.4216L31.3024 19.4218L31.3021 19.422L31.3019 19.4223L31.3017 19.4225L31.3014 19.4227L31.3012 19.423L31.301 19.4232L31.3007 19.4234L31.3005 19.4237L31.3003 19.4239L31.3 19.4241L31.2998 19.4244L31.2996 19.4246L31.2993 19.4248L31.2991 19.4251L31.2989 19.4253L31.2986 19.4255L31.2984 19.4258L31.2982 19.426L31.2979 19.4262L31.2977 19.4265L31.2975 19.4267L31.2972 19.4269L31.297 19.4272L31.2968 19.4274L31.2965 19.4276L31.2963 19.4279L31.2961 19.4281L31.2958 19.4283L31.2956 19.4286L31.2954 19.4288L31.2951 19.429L31.2949 19.4293L31.2947 19.4295L31.2944 19.4297L31.2942 19.43L31.294 19.4302L31.2937 19.4305L31.2935 19.4307L31.2932 19.4309L31.293 19.4312L31.2928 19.4314L31.2925 19.4316L31.2923 19.4319L31.2921 19.4321L31.2918 19.4323L31.2916 19.4326L31.2914 19.4328L31.2911 19.433L31.2909 19.4333L31.2907 19.4335L31.2904 19.4337L31.2902 19.434L31.29 19.4342L31.2897 19.4344L31.2895 19.4347L31.2893 19.4349L31.289 19.4351L31.2888 19.4354L31.2886 19.4356L31.2883 19.4358L31.2881 19.4361L31.2878 19.4363L31.2876 19.4366L31.2874 19.4368L31.2871 19.437L31.2869 19.4373L31.2867 19.4375L31.2864 19.4377L31.2862 19.438L31.286 19.4382L31.2857 19.4384L31.2855 19.4387L31.2853 19.4389L31.285 19.4391L31.2848 19.4394L31.2846 19.4396L31.2843 19.4398L31.2841 19.4401L31.2839 19.4403L31.2836 19.4405L31.2834 19.4408L31.2831 19.441L31.2829 19.4413L31.2827 19.4415L31.2824 19.4417L31.2822 19.442L31.282 19.4422L31.2817 19.4424L31.2815 19.4427L31.2813 19.4429L31.281 19.4431L31.2808 19.4434L31.2806 19.4436L31.2803 19.4438L31.2801 19.4441L31.2799 19.4443L31.2796 19.4446L31.2794 19.4448L31.2791 19.445L31.2789 19.4453L31.2787 19.4455L31.2784 19.4457L31.2782 19.446L31.278 19.4462L31.2777 19.4464L31.2775 19.4467L31.2773 19.4469L31.277 19.4471L31.2768 19.4474L31.2765 19.4476L31.2763 19.4479L31.2761 19.4481L31.2758 19.4483L31.2756 19.4486L31.2754 19.4488L31.2751 19.449L31.2749 19.4493L31.2747 19.4495L31.2744 19.4497L31.2742 19.45L31.274 19.4502L31.2737 19.4505L31.2735 19.4507L31.2732 19.4509L31.273 19.4512L31.2728 19.4514L31.2725 19.4516L31.2723 19.4519L31.2721 19.4521L31.2718 19.4523L31.2716 19.4526L31.2713 19.4528L31.2711 19.4531L31.2709 19.4533L31.2706 19.4535L31.2704 19.4538L31.2702 19.454L31.2699 19.4542L31.2697 19.4545L31.2695 19.4547L31.2692 19.4549L31.269 19.4552L31.2687 19.4554L31.2685 19.4557L31.2683 19.4559L31.268 19.4561L31.2678 19.4564L31.2676 19.4566L31.2673 19.4568L31.2671 19.4571L31.2668 19.4573L31.2666 19.4576L31.2664 19.4578L31.2661 19.458L31.2659 19.4583L31.2657 19.4585L31.2654 19.4587L31.2652 19.459L31.2649 19.4592L31.2647 19.4595L31.2645 19.4597L31.2642 19.4599L31.264 19.4602L31.2638 19.4604L31.2635 19.4606L31.2633 19.4609L31.263 19.4611L31.2628 19.4614L31.2626 19.4616L31.2623 19.4618L31.2621 19.4621L31.2619 19.4623L31.2616 19.4625L31.2614 19.4628L31.2614 19.4628L31.2208 19.5034L31.1971 19.5271L25.0578 23.6728L25.0577 23.6726L25.0493 23.6788C24.9436 23.7568 24.801 23.7894 24.6774 23.7894C24.4743 23.7894 24.2721 23.7048 24.1214 23.494L24.1217 23.4938L24.1135 23.4836C23.8944 23.2086 23.9678 22.7769 24.2926 22.5708L24.2927 22.5708L24.2981 22.5672L29.2981 19.2079ZM31.4694 18.7108V18.7108C31.4694 18.7106 31.4694 18.7106 31.4694 18.7108Z" fill="#A3A3A3" stroke="#A3A3A3" stroke-width="0.5"/>
</svg>
