<svg width="38" height="38" viewBox="0 0 38 38" fill="none" xmlns="http://www.w3.org/2000/svg">
<path d="M34.2418 25.1097V24.2734C34.2418 22.8466 33.0814 21.6846 31.653 21.6846C30.9612 21.6846 30.3112 21.9542 29.8233 22.4422C28.4718 23.7936 26.6758 24.5367 24.7645 24.5367H24.5398C22.3377 24.5367 20.5449 26.3279 20.5449 28.5316C20.5449 30.5667 22.0761 32.2488 24.047 32.4927C23.6763 33.9982 23.1049 35.4539 22.3313 36.8086C22.2302 36.9851 22.2318 37.2018 22.3329 37.3784C22.4356 37.5549 22.6234 37.6625 22.8256 37.6625H24.5382C24.7115 37.6625 24.8752 37.5838 24.9843 37.4474L27.2666 34.5937C27.4641 34.3481 27.4239 33.9886 27.1768 33.7912C26.9312 33.5954 26.5717 33.6339 26.3743 33.8811L24.2637 36.5197H23.779C24.413 35.255 24.8928 33.9196 25.2123 32.5473C26.9537 32.6549 28.578 33.3755 29.8219 34.621C30.3115 35.1105 30.9615 35.3786 31.6516 35.3786C33.0785 35.3786 34.2405 34.2182 34.2405 32.7897V31.9535C36.128 31.9535 37.664 30.4175 37.664 28.53C37.664 26.6426 36.128 25.1066 34.2405 25.1066L34.2418 25.1097ZM33.1007 32.7927C33.1007 33.5904 32.4507 34.2404 31.653 34.2404C31.2662 34.2404 30.9035 34.0896 30.629 33.8167C29.2214 32.4091 27.3965 31.5762 25.4351 31.4205C25.5956 30.4574 25.6806 29.48 25.6806 28.4994V27.3935C25.6806 27.0789 25.4254 26.8221 25.1092 26.8221C24.7947 26.8221 24.5379 27.0773 24.5379 27.3935V28.4994C24.5379 29.4624 24.4464 30.4189 24.2827 31.3627C22.8301 31.2311 21.6842 30.0209 21.6842 28.5347C21.6842 26.9618 22.965 25.681 24.5379 25.681H24.7626C26.9775 25.681 29.0608 24.8175 30.6271 23.251C30.8999 22.9782 31.2643 22.8273 31.6511 22.8273C32.4488 22.8273 33.0988 23.4773 33.0988 24.275V32.7942L33.1007 32.7927ZM34.2418 30.817V26.2525C35.5002 26.2525 36.5241 27.2765 36.5241 28.5348C36.5241 29.7931 35.5002 30.817 34.2418 30.817Z" fill="#A3A3A3"/>
<path d="M21.6863 24.5403C21.6863 24.2258 21.4311 23.969 21.1149 23.969H19.4024L19.404 6.84839H22.8274V23.3974C22.8274 23.712 23.0826 23.9688 23.3988 23.9688C23.7134 23.9688 23.9702 23.7136 23.9702 23.3974V9.70196H27.3936V18.833C27.3936 19.1475 27.6488 19.4043 27.965 19.4043H32.5295C32.844 19.4043 33.1008 19.1491 33.1008 18.833L33.0992 0.571371C33.0992 0.256788 32.844 0 32.5279 0H27.9634C27.6488 0 27.392 0.255194 27.392 0.571371V8.56095H23.9686V6.27863C23.9686 5.96405 23.7134 5.70726 23.3972 5.70726H18.8327C18.5181 5.70726 18.2613 5.96245 18.2613 6.27863V14.2682H14.8379V11.9859C14.8379 11.6713 14.5827 11.4145 14.2665 11.4145H9.70204C9.38747 11.4145 9.13067 11.6697 9.13067 11.9859V19.9755H5.70722V17.6931C5.70722 17.3786 5.45202 17.1218 5.13584 17.1218L0.571371 17.1202C0.256788 17.1202 0 17.3754 0 17.6915V35.9531C0 36.2677 0.255194 36.5245 0.571371 36.5245H5.13584C5.45043 36.5245 5.70722 36.2693 5.70722 35.9531V21.1166H9.13067V30.2476C9.13067 30.5622 9.38587 30.819 9.70204 30.819H14.2665C14.5811 30.819 14.8379 30.5638 14.8379 30.2476V15.4111H18.2613V24.5421C18.2613 24.8567 18.5165 25.1135 18.8327 25.1135H21.115C21.4296 25.1135 21.6864 24.8583 21.6864 24.5421L21.6863 24.5403ZM28.5332 1.14274H31.9567V18.2633H28.5332V1.14274ZM4.56571 35.3822H1.14225V18.2617H4.56571V35.3822ZM13.6967 29.6763H10.2732V12.5558H13.6967V29.6763Z" fill="#A3A3A3"/>
</svg>
