<svg width="38" height="38" viewBox="0 0 38 38" fill="none" xmlns="http://www.w3.org/2000/svg">
<path d="M26.0891 27.369H29.9673C30.4272 27.369 30.8598 27.1898 31.1841 26.8638L34.0924 23.9556C34.3377 24.6076 34.9671 25.074 35.7046 25.074C36.6536 25.074 37.4266 24.3025 37.4266 23.3519V19.9095C37.4266 18.9606 36.6552 18.1875 35.7046 18.1875H32.2622C31.3132 18.1875 30.5402 18.9589 30.5402 19.9095C30.5402 20.6471 31.0066 21.2765 31.6586 21.5218L29.2539 23.9265H25.3757C24.9158 23.9265 24.4832 24.1056 24.1589 24.4316L20.6471 27.9434H16.7689C15.8199 27.9434 15.0469 28.7149 15.0469 29.6655C15.0469 30.6145 15.8183 31.3875 16.7689 31.3875H21.3586C21.8186 31.3875 22.2511 31.2084 22.5755 30.8823L26.0891 27.369ZM21.3589 30.2384H16.7692C16.4528 30.2384 16.1946 29.9802 16.1946 29.6639C16.1946 29.3476 16.4528 29.0894 16.7692 29.0894H20.8845C21.0363 29.0894 21.1831 29.028 21.2896 28.9215L24.9709 25.2402C25.0774 25.1337 25.2259 25.0724 25.376 25.0724H29.4914C29.6431 25.0724 29.79 25.0111 29.8965 24.9045L33.3389 21.4621C33.5035 21.2975 33.5519 21.0506 33.4632 20.8376C33.3744 20.6229 33.1646 20.4841 32.9338 20.4841H32.2608C31.9445 20.4841 31.6863 20.2259 31.6863 19.9096C31.6863 19.5933 31.9429 19.3351 32.2608 19.3351H35.7032C36.0196 19.3351 36.2778 19.5933 36.2778 19.9096V23.352C36.2778 23.6683 36.0212 23.9265 35.7032 23.9265C35.3869 23.9265 35.1287 23.6683 35.1287 23.352V22.679C35.1287 22.4466 34.9899 22.2384 34.7753 22.1497C34.5606 22.0609 34.3137 22.1093 34.1507 22.274L30.371 26.0537C30.2645 26.1602 30.116 26.2215 29.9659 26.2215H25.8505C25.6988 26.2215 25.552 26.2828 25.4454 26.3893L21.7641 30.0706C21.6576 30.1772 21.509 30.2384 21.3589 30.2384Z" fill="#A3A3A3"/>
<path d="M19.0628 32.5332H17.9154C16.9664 32.5332 16.1934 33.3046 16.1934 34.2552V35.4027C16.1934 36.3517 16.9648 37.1247 17.9154 37.1247H19.0628C20.0118 37.1247 20.7849 36.3533 20.7849 35.4027V34.2552C20.7849 33.3063 20.0134 32.5332 19.0628 32.5332ZM19.6374 35.4027C19.6374 35.719 19.3792 35.9772 19.0628 35.9772H17.9154C17.5991 35.9772 17.3409 35.719 17.3409 35.4027V34.2552C17.3409 33.9389 17.5991 33.6807 17.9154 33.6807H19.0628C19.3792 33.6807 19.6374 33.9389 19.6374 34.2552V35.4027Z" fill="#A3A3A3"/>
<path d="M24.8011 32.5332H23.6537C22.7047 32.5332 21.9316 33.3046 21.9316 34.2552V35.4027C21.9316 36.3517 22.7031 37.1247 23.6537 37.1247H24.8011C25.7501 37.1247 26.5232 36.3533 26.5232 35.4027V34.2552C26.5232 33.3063 25.7517 32.5332 24.8011 32.5332ZM25.374 35.4027C25.374 35.719 25.1174 35.9772 24.7995 35.9772H23.6521C23.3357 35.9772 23.0775 35.719 23.0775 35.4027V34.2552C23.0775 33.9389 23.3341 33.6807 23.6521 33.6807H24.7995C25.1158 33.6807 25.374 33.9389 25.374 34.2552V35.4027Z" fill="#A3A3A3"/>
<path d="M30.5394 28.5161H29.392C28.443 28.5161 27.6699 29.2876 27.6699 30.2381V35.4026C27.6699 36.3516 28.4414 37.1246 29.392 37.1246H30.5394C31.4884 37.1246 32.2614 36.3532 32.2614 35.4026V30.2381C32.2614 29.2892 31.49 28.5161 30.5394 28.5161ZM31.1139 35.4026C31.1139 35.7189 30.8573 35.9771 30.5394 35.9771H29.392C29.0756 35.9771 28.8174 35.7189 28.8174 35.4026V30.2381C28.8174 29.9218 29.074 29.6636 29.392 29.6636H30.5394C30.8557 29.6636 31.1139 29.9218 31.1139 30.2381V35.4026Z" fill="#A3A3A3"/>
<path d="M36.2777 26.2212H35.1302C34.1813 26.2212 33.4082 26.9926 33.4082 27.9432V35.4027C33.4082 36.3517 34.1796 37.1248 35.1302 37.1248H36.2777C37.2267 37.1248 37.9997 36.3533 37.9997 35.4027V27.9432C37.9997 26.9942 37.2283 26.2212 36.2777 26.2212ZM36.8506 35.4027C36.8506 35.7191 36.594 35.9773 36.2761 35.9773H35.1286C34.8123 35.9773 34.5541 35.719 34.5541 35.4027V27.9432C34.5541 27.6269 34.8107 27.3687 35.1286 27.3687H36.2761C36.5924 27.3687 36.8506 27.6269 36.8506 27.9432V35.4027Z" fill="#A3A3A3"/>
<path d="M15.6208 27.369C15.6208 27.0527 15.3642 26.7945 15.0463 26.7945L2.99537 26.7961C2.0464 26.7961 1.27334 26.0247 1.27334 25.0741V10.9657L5.35969 15.052C5.8116 15.5039 6.38936 15.7734 7.0107 15.8557V16.4658C7.0107 17.4148 7.78214 18.1878 8.73273 18.1878H9.88018C10.8292 18.1878 11.6022 17.4164 11.6022 16.4658V15.8913H20.2091V16.4658C20.2091 17.4148 20.9805 18.1878 21.9311 18.1878H23.0785C24.0275 18.1878 24.8006 17.4164 24.8006 16.4658V15.8622C25.3993 15.796 25.9658 15.5556 26.4177 15.1456L31.1124 10.8769V17.097C31.1124 17.4133 31.369 17.6715 31.6869 17.6715C32.0048 17.6715 32.2614 17.4149 32.2614 17.097V6.71149C32.2614 5.12989 30.9736 3.84201 29.392 3.84201H22.8137L21.3709 1.67617C20.8367 0.87568 19.9442 0.397949 18.984 0.397949H13.4064C12.4445 0.397949 11.552 0.875639 11.0195 1.67617L9.57664 3.84201H2.99839C1.41679 3.84201 0.128906 5.12989 0.128906 6.71149V25.0742C0.128906 26.6558 1.41679 27.9436 2.99839 27.9436H15.0493C15.3656 27.9436 15.6238 27.687 15.6238 27.3691L15.6208 27.369ZM10.4564 16.4671C10.4564 16.7834 10.1981 17.0416 9.88184 17.0416H8.73438C8.41806 17.0416 8.15985 16.7834 8.15985 16.4671V15.8926H10.4548V16.4671H10.4564ZM23.6529 16.4671C23.6529 16.7834 23.3963 17.0416 23.0784 17.0416H21.931C21.6146 17.0416 21.3564 16.7834 21.3564 16.4671V15.8926H23.6514V16.4671H23.6529ZM11.9731 2.31325C12.2926 1.83391 12.8284 1.54664 13.4046 1.54664H18.9821C19.5583 1.54664 20.0941 1.83391 20.4136 2.31325L21.4336 3.84159H10.9531L11.9715 2.31325H11.9731ZM2.99521 4.9907H29.3921C30.3411 4.9907 31.1141 5.76214 31.1141 6.71273V9.32882L25.6464 14.2995C25.3285 14.5884 24.917 14.7465 24.4876 14.7465L7.39006 14.7449C6.93654 14.7449 6.49273 14.5609 6.17319 14.2414L1.27525 9.34341V6.71116C1.27525 5.76218 2.04669 4.98913 2.99727 4.98913L2.99521 4.9907Z" fill="#A3A3A3"/>
</svg>
