<svg width="38" height="38" viewBox="0 0 38 38" fill="none" xmlns="http://www.w3.org/2000/svg">
<mask id="path-1-inside-1_8413_21880" fill="white">
<path fill-rule="evenodd" clip-rule="evenodd" d="M3.59808 26.5043C5.42548 26.5043 6.48214 28.578 5.42395 30.0553C6.49134 30.6059 7.1978 31.7131 7.1978 32.958V36.9098C7.1978 37.2691 6.90725 37.5597 6.54787 37.5597H0.649925C0.290564 37.5597 0 37.2692 0 36.9098V32.958C0 31.7131 0.70802 30.6059 1.77385 30.0553C0.715654 28.5796 1.7722 26.5043 3.59808 26.5043ZM22.3031 8.61317C21.9544 8.68964 21.6089 8.46942 21.5324 8.12075C21.4559 7.77206 21.6761 7.42646 22.0248 7.34996L24.7391 6.7505C25.0923 6.6725 25.4395 6.89425 25.5144 7.25823H25.5159L26.0481 9.93758C26.1169 10.2893 25.8875 10.6303 25.5343 10.6992C25.1826 10.768 24.8416 10.5386 24.7727 10.1853L24.5158 8.89916L21.6226 12.8905C23.0937 13.6215 24.8033 13.5512 26.1888 12.7529C27.2684 12.1075 28.0819 11.141 28.4352 9.82273C29.1248 7.2474 27.5987 4.60482 25.0251 3.91656C22.4499 3.22686 19.8075 4.75461 19.1193 7.32688C18.7737 8.61456 18.9832 9.91751 19.5995 10.9865C19.8717 11.4422 20.1484 11.8001 20.5491 12.161L23.2772 8.39892L22.3031 8.61317ZM3.40234 24.0711C3.14849 24.325 2.73715 24.325 2.48328 24.0711C2.22943 23.8173 2.22943 23.4059 2.48328 23.152L7.58771 18.0473C7.84155 17.7934 8.2529 17.7934 8.50677 18.0473L9.80047 19.341L13.6128 15.1876C13.8605 14.9185 14.2734 14.9032 14.5486 15.1693L16.7629 17.3837L17.87 15.8559C18.081 15.5654 18.4863 15.5011 18.7753 15.7122C19.0658 15.9232 19.1301 16.3285 18.919 16.6175L17.2981 18.8411C17.0442 19.095 16.6329 19.095 16.379 18.8411L14.1066 16.5686L10.3234 20.6915C10.0573 21.0004 9.62611 21.0096 9.35849 20.7419L8.0449 19.4283L3.40234 24.0711ZM28.7839 17.3452L28.8054 17.3238L27.6523 16.2227C23.5908 18.2842 18.6363 16.8069 16.3575 12.8628C13.9888 8.76109 15.3926 3.52204 19.4954 1.15307C23.5938 -1.21887 28.8329 0.186538 31.2013 4.2866C32.859 7.15555 32.7274 10.7663 30.7838 13.5174L31.7166 14.4074L31.7961 14.3279C32.05 14.074 32.4613 14.074 32.7152 14.3279L37.1545 18.7706C38.751 20.3672 37.8901 22.6092 36.2034 23.3281C35.2767 23.7242 34.1573 23.6385 33.2214 22.7041L28.7805 18.2629C28.5298 18.0091 28.5301 17.5975 28.7839 17.3452ZM29.7229 16.4047L30.8009 15.3265L29.9568 14.5191C29.6005 14.8892 29.2137 15.2241 28.8008 15.5223L29.7229 16.4047ZM32.2552 15.7089L30.1602 17.804L34.1407 21.7848C35.046 22.6901 36.2143 22.1182 36.5844 21.245C36.7862 20.7709 36.7342 20.1897 36.2342 19.6896L32.2552 15.7089ZM25.3645 2.66253C26.9946 3.09992 28.2944 4.15818 29.0774 5.51312C30.7687 8.44326 29.7671 12.1808 26.8386 13.8724C23.9087 15.5638 20.1714 14.5621 18.4799 11.6335C16.7886 8.70337 17.7902 4.96275 20.7186 3.27304C22.0766 2.49004 23.7312 2.22394 25.3627 2.66132L25.3645 2.66253ZM30.079 4.9366C31.0118 6.54848 31.3238 8.51514 30.8039 10.4575C29.764 14.3389 25.7789 16.642 21.8947 15.6022C19.9526 15.0823 18.4066 13.8252 17.4769 12.2149V12.2133C16.5472 10.6014 16.2322 8.63478 16.7521 6.6924C17.272 4.7502 18.529 3.20405 20.1392 2.27432H20.1408C23.6197 0.263304 28.0712 1.45746 30.079 4.9366ZM28.1996 26.3544C29.4475 25.0851 29.4383 23.048 28.1813 21.7879C26.9151 20.5217 24.8629 20.5217 23.5967 21.7879C22.3382 23.0465 22.3305 25.0851 23.5784 26.3544C21.725 27.0762 20.4451 28.8747 20.4451 30.924V37.35C20.4451 37.7094 20.7356 38 21.095 38H30.6845C31.0439 38 31.3345 37.7094 31.3345 37.35V30.924C31.3314 28.8762 30.053 27.0778 28.1996 26.3544ZM26.4319 27.3224C28.4107 27.3224 30.0331 28.9435 30.0331 30.9239V36.7001L21.7433 36.7016V30.9254C21.7433 28.9465 23.3642 27.324 25.3445 27.324L26.4319 27.3224ZM27.2607 22.7086C26.0404 21.4882 23.9454 22.3569 23.9454 24.0819C23.9454 25.807 26.0404 26.6741 27.2607 25.4552C28.0192 24.6967 28.0192 23.4671 27.2607 22.7086ZM13.5071 27.6466C14.8497 27.6466 15.5149 26.0225 14.5729 25.082C13.6279 24.1368 12.0085 24.8097 12.0085 26.1448C12.0069 26.9737 12.6782 27.6451 13.5071 27.6466ZM15.6173 27.9907C16.5899 26.8804 16.5349 25.2058 15.492 24.1614C14.397 23.0664 12.6232 23.0664 11.5283 24.1614C10.4854 25.2043 10.4288 26.8789 11.4029 27.9907C9.90123 28.6437 8.87819 30.1363 8.87819 31.8277V37.165C8.87819 37.5244 9.16874 37.815 9.52812 37.815H17.4938C17.8532 37.815 18.1438 37.5244 18.1438 37.165V31.8277C18.1422 30.1363 17.1205 28.6437 15.6173 27.9907ZM13.9612 28.9465C15.5455 28.9465 16.8422 30.2433 16.8422 31.8277V36.5167H10.1766V31.8277C10.1766 30.2433 11.4734 28.9465 13.0576 28.9465H13.9612ZM3.60086 30.9927H3.2629C2.1833 30.9927 1.2979 31.8782 1.2979 32.9578V36.2611H5.89615V32.9578C5.89615 31.8782 5.01076 30.9927 3.93115 30.9927H3.60086ZM3.59474 29.6928C4.44193 29.6928 4.85634 28.6712 4.26451 28.0809C3.67119 27.4876 2.65274 27.9096 2.65274 28.7477C2.65426 29.2692 3.07482 29.6913 3.59474 29.6928Z"/>
</mask>
<path fill-rule="evenodd" clip-rule="evenodd" d="M3.59808 26.5043C5.42548 26.5043 6.48214 28.578 5.42395 30.0553C6.49134 30.6059 7.1978 31.7131 7.1978 32.958V36.9098C7.1978 37.2691 6.90725 37.5597 6.54787 37.5597H0.649925C0.290564 37.5597 0 37.2692 0 36.9098V32.958C0 31.7131 0.70802 30.6059 1.77385 30.0553C0.715654 28.5796 1.7722 26.5043 3.59808 26.5043ZM22.3031 8.61317C21.9544 8.68964 21.6089 8.46942 21.5324 8.12075C21.4559 7.77206 21.6761 7.42646 22.0248 7.34996L24.7391 6.7505C25.0923 6.6725 25.4395 6.89425 25.5144 7.25823H25.5159L26.0481 9.93758C26.1169 10.2893 25.8875 10.6303 25.5343 10.6992C25.1826 10.768 24.8416 10.5386 24.7727 10.1853L24.5158 8.89916L21.6226 12.8905C23.0937 13.6215 24.8033 13.5512 26.1888 12.7529C27.2684 12.1075 28.0819 11.141 28.4352 9.82273C29.1248 7.2474 27.5987 4.60482 25.0251 3.91656C22.4499 3.22686 19.8075 4.75461 19.1193 7.32688C18.7737 8.61456 18.9832 9.91751 19.5995 10.9865C19.8717 11.4422 20.1484 11.8001 20.5491 12.161L23.2772 8.39892L22.3031 8.61317ZM3.40234 24.0711C3.14849 24.325 2.73715 24.325 2.48328 24.0711C2.22943 23.8173 2.22943 23.4059 2.48328 23.152L7.58771 18.0473C7.84155 17.7934 8.2529 17.7934 8.50677 18.0473L9.80047 19.341L13.6128 15.1876C13.8605 14.9185 14.2734 14.9032 14.5486 15.1693L16.7629 17.3837L17.87 15.8559C18.081 15.5654 18.4863 15.5011 18.7753 15.7122C19.0658 15.9232 19.1301 16.3285 18.919 16.6175L17.2981 18.8411C17.0442 19.095 16.6329 19.095 16.379 18.8411L14.1066 16.5686L10.3234 20.6915C10.0573 21.0004 9.62611 21.0096 9.35849 20.7419L8.0449 19.4283L3.40234 24.0711ZM28.7839 17.3452L28.8054 17.3238L27.6523 16.2227C23.5908 18.2842 18.6363 16.8069 16.3575 12.8628C13.9888 8.76109 15.3926 3.52204 19.4954 1.15307C23.5938 -1.21887 28.8329 0.186538 31.2013 4.2866C32.859 7.15555 32.7274 10.7663 30.7838 13.5174L31.7166 14.4074L31.7961 14.3279C32.05 14.074 32.4613 14.074 32.7152 14.3279L37.1545 18.7706C38.751 20.3672 37.8901 22.6092 36.2034 23.3281C35.2767 23.7242 34.1573 23.6385 33.2214 22.7041L28.7805 18.2629C28.5298 18.0091 28.5301 17.5975 28.7839 17.3452ZM29.7229 16.4047L30.8009 15.3265L29.9568 14.5191C29.6005 14.8892 29.2137 15.2241 28.8008 15.5223L29.7229 16.4047ZM32.2552 15.7089L30.1602 17.804L34.1407 21.7848C35.046 22.6901 36.2143 22.1182 36.5844 21.245C36.7862 20.7709 36.7342 20.1897 36.2342 19.6896L32.2552 15.7089ZM25.3645 2.66253C26.9946 3.09992 28.2944 4.15818 29.0774 5.51312C30.7687 8.44326 29.7671 12.1808 26.8386 13.8724C23.9087 15.5638 20.1714 14.5621 18.4799 11.6335C16.7886 8.70337 17.7902 4.96275 20.7186 3.27304C22.0766 2.49004 23.7312 2.22394 25.3627 2.66132L25.3645 2.66253ZM30.079 4.9366C31.0118 6.54848 31.3238 8.51514 30.8039 10.4575C29.764 14.3389 25.7789 16.642 21.8947 15.6022C19.9526 15.0823 18.4066 13.8252 17.4769 12.2149V12.2133C16.5472 10.6014 16.2322 8.63478 16.7521 6.6924C17.272 4.7502 18.529 3.20405 20.1392 2.27432H20.1408C23.6197 0.263304 28.0712 1.45746 30.079 4.9366ZM28.1996 26.3544C29.4475 25.0851 29.4383 23.048 28.1813 21.7879C26.9151 20.5217 24.8629 20.5217 23.5967 21.7879C22.3382 23.0465 22.3305 25.0851 23.5784 26.3544C21.725 27.0762 20.4451 28.8747 20.4451 30.924V37.35C20.4451 37.7094 20.7356 38 21.095 38H30.6845C31.0439 38 31.3345 37.7094 31.3345 37.35V30.924C31.3314 28.8762 30.053 27.0778 28.1996 26.3544ZM26.4319 27.3224C28.4107 27.3224 30.0331 28.9435 30.0331 30.9239V36.7001L21.7433 36.7016V30.9254C21.7433 28.9465 23.3642 27.324 25.3445 27.324L26.4319 27.3224ZM27.2607 22.7086C26.0404 21.4882 23.9454 22.3569 23.9454 24.0819C23.9454 25.807 26.0404 26.6741 27.2607 25.4552C28.0192 24.6967 28.0192 23.4671 27.2607 22.7086ZM13.5071 27.6466C14.8497 27.6466 15.5149 26.0225 14.5729 25.082C13.6279 24.1368 12.0085 24.8097 12.0085 26.1448C12.0069 26.9737 12.6782 27.6451 13.5071 27.6466ZM15.6173 27.9907C16.5899 26.8804 16.5349 25.2058 15.492 24.1614C14.397 23.0664 12.6232 23.0664 11.5283 24.1614C10.4854 25.2043 10.4288 26.8789 11.4029 27.9907C9.90123 28.6437 8.87819 30.1363 8.87819 31.8277V37.165C8.87819 37.5244 9.16874 37.815 9.52812 37.815H17.4938C17.8532 37.815 18.1438 37.5244 18.1438 37.165V31.8277C18.1422 30.1363 17.1205 28.6437 15.6173 27.9907ZM13.9612 28.9465C15.5455 28.9465 16.8422 30.2433 16.8422 31.8277V36.5167H10.1766V31.8277C10.1766 30.2433 11.4734 28.9465 13.0576 28.9465H13.9612ZM3.60086 30.9927H3.2629C2.1833 30.9927 1.2979 31.8782 1.2979 32.9578V36.2611H5.89615V32.9578C5.89615 31.8782 5.01076 30.9927 3.93115 30.9927H3.60086ZM3.59474 29.6928C4.44193 29.6928 4.85634 28.6712 4.26451 28.0809C3.67119 27.4876 2.65274 27.9096 2.65274 28.7477C2.65426 29.2692 3.07482 29.6913 3.59474 29.6928Z" fill="#A3A3A3" stroke="#A3A3A3" mask="url(#path-1-inside-1_8413_21880)"/>
</svg>
