<svg width="210" height="210" viewBox="0 0 210 210" fill="none" xmlns="http://www.w3.org/2000/svg">
<g filter="url(#filter0_i_5288_652)">
<circle cx="105.061" cy="104.939" r="92.0613" transform="rotate(-90 105.061 104.939)" fill="#034737"/>
</g>
<path d="M101.975 0.0427354C102.645 0.023784 103.317 0.0111191 103.99 0.00477146L103.994 0.504756C104.329 0.501598 104.664 0.500011 105 0.500011C105.336 0.500011 105.671 0.501598 106.006 0.504756L106.011 0.00477137C106.683 0.011119 107.355 0.0237838 108.025 0.0427351L108.01 0.542537C108.677 0.561397 109.342 0.586497 110.006 0.617778L110.029 0.118342C110.702 0.15005 111.372 0.18809 112.042 0.232386L112.009 0.731288C112.676 0.775477 113.341 0.825908 114.005 0.882563L114.047 0.384364C114.715 0.441355 115.381 0.504618 116.046 0.574061L115.994 1.07135C116.66 1.14102 117.325 1.21696 117.987 1.2991L118.049 0.802897C118.715 0.885432 119.378 0.974192 120.04 1.06913L119.969 1.56407C120.631 1.65896 121.291 1.76007 121.948 1.8673L122.029 1.37382C122.692 1.482 123.353 1.5964 124.013 1.71696L123.923 2.20881C124.579 2.32879 125.232 2.45489 125.884 2.58706L125.984 2.09704C126.643 2.23075 127.3 2.37065 127.954 2.51664L127.846 3.00465C128.498 3.15005 129.147 3.30154 129.795 3.45905L129.913 2.97323C130.565 3.13183 131.214 3.29652 131.861 3.46723L131.734 3.95069C132.38 4.12133 133.025 4.29803 133.666 4.48071L133.803 3.9998C134.448 4.18334 135.09 4.3729 135.73 4.56841L135.584 5.04659C136.223 5.24198 136.86 5.44334 137.494 5.65058L137.65 5.17533C138.288 5.38389 138.923 5.5984 139.556 5.81878L139.391 6.29095C140.021 6.51048 140.649 6.73586 141.273 6.96705L141.447 6.49813C142.077 6.73136 142.704 6.97047 143.328 7.21537L143.146 7.68084C143.767 7.92457 144.386 8.17408 145.001 8.4293L145.193 7.96743C145.813 8.22456 146.43 8.48747 147.044 8.75607L146.843 9.21415C147.455 9.48187 148.064 9.75527 148.67 10.0343L148.879 9.58018C149.488 9.86065 150.094 10.1468 150.696 10.4385L150.479 10.8885C151.08 11.1798 151.679 11.4766 152.274 11.779L152.5 11.3332C153.098 11.637 153.693 11.9464 154.284 12.2613L154.049 12.7026C154.638 13.0165 155.224 13.3358 155.807 13.6606L156.05 13.2238C156.636 13.5506 157.219 13.8827 157.798 14.2203L157.546 14.6523C158.123 14.9883 158.696 15.3296 159.265 15.6762L159.525 15.2492C160.099 15.5982 160.668 15.9526 161.234 16.3123L160.966 16.7343C161.53 17.0923 162.089 17.4555 162.645 17.8238L162.921 17.407C163.481 17.7775 164.036 18.1532 164.588 18.5341L164.303 18.9455C164.853 19.3249 165.398 19.7094 165.94 20.0989L166.232 19.6929C166.776 20.0843 167.317 20.4808 167.853 20.8823L167.554 21.2826C168.088 21.6827 168.619 22.0879 169.146 22.4979L169.453 22.1034C169.982 22.5154 170.507 22.9323 171.028 23.3541L170.713 23.7427C171.232 24.1628 171.747 24.5876 172.257 25.0173L172.579 24.6348C173.092 25.0667 173.601 25.5035 174.106 25.9449L173.777 26.3213C174.279 26.7607 174.777 27.2048 175.27 27.6536L175.607 27.2836C176.103 27.7347 176.595 28.1905 177.082 28.6509L176.739 29.0144C177.224 29.4727 177.705 29.9355 178.181 30.4029L178.532 30.046C179.01 30.5156 179.484 30.9897 179.954 31.4683L179.597 31.8185C180.064 32.2949 180.527 32.7757 180.986 33.2608L181.349 32.9175C181.809 33.405 182.265 33.8969 182.716 34.3932L182.346 34.7295C182.795 35.2232 183.239 35.7212 183.679 36.2235L184.055 35.8942C184.497 36.3989 184.933 36.9078 185.365 37.4209L184.983 37.7429C185.412 38.2533 185.837 38.7679 186.257 39.2866L186.646 38.972C187.068 39.493 187.485 40.018 187.897 40.5472L187.502 40.8544C187.912 41.381 188.317 41.9116 188.717 42.4462L189.118 42.1466C189.519 42.6831 189.916 43.2235 190.307 43.7679L189.901 44.0598C190.291 44.6015 190.675 45.1471 191.054 45.6965L191.466 45.4125C191.847 45.964 192.222 46.5195 192.593 47.0786L192.176 47.3548C192.545 47.9108 192.908 48.4705 193.266 49.0338L193.688 48.7657C194.047 49.3317 194.402 49.9015 194.751 50.4748L194.324 50.7348C194.67 51.3042 195.012 51.8771 195.348 52.4535L195.78 52.2017C196.117 52.7809 196.449 53.3635 196.776 53.9497L196.339 54.1931C196.664 54.7757 196.984 55.3617 197.297 55.9511L197.739 55.7161C198.054 56.3073 198.363 56.902 198.667 57.4999L198.221 57.7264C198.523 58.3214 198.82 58.9198 199.111 59.5213L199.561 59.3035C199.853 59.906 200.139 60.5118 200.42 61.1207L199.966 61.3299C200.245 61.9357 200.518 62.5446 200.786 63.1566L201.244 62.9562C201.513 63.5702 201.775 64.1872 202.033 64.8073L201.571 64.9988C201.826 65.6143 202.075 66.2327 202.319 66.854L202.785 66.6714C203.03 67.2958 203.269 67.923 203.502 68.5531L203.033 68.7267C203.264 69.3512 203.49 69.9786 203.709 70.6088L204.181 70.4443C204.402 71.0769 204.616 71.7123 204.825 72.3504L204.349 72.5057C204.557 73.1398 204.758 73.7765 204.953 74.4159L205.432 74.2698C205.627 74.9095 205.817 75.5518 206 76.1967L205.519 76.3336C205.702 76.9754 205.879 77.6197 206.049 78.2664L206.533 78.1388C206.703 78.7858 206.868 79.4353 207.027 80.0871L206.541 80.2053C206.698 80.8526 206.85 81.5023 206.995 82.1543L207.483 82.0455C207.629 82.7002 207.769 83.3572 207.903 84.0165L207.413 84.1159C207.545 84.7675 207.671 85.4214 207.791 86.0774L208.283 85.9874C208.404 86.6466 208.518 87.3079 208.626 87.9713L208.133 88.0518C208.24 88.7093 208.341 89.369 208.436 90.0306L208.931 89.9596C209.026 90.6215 209.115 91.2854 209.197 91.9512L208.701 92.0127C208.783 92.6753 208.859 93.3399 208.929 94.0063L209.426 93.9543C209.495 94.6186 209.559 95.2847 209.616 95.9525L209.117 95.9951C209.174 96.6588 209.225 97.3243 209.269 97.9915L209.768 97.9585C209.812 98.6275 209.85 99.2983 209.882 99.9707L209.382 99.9943C209.414 100.658 209.439 101.323 209.457 101.99L209.957 101.975C209.976 102.645 209.989 103.317 209.995 103.99L209.495 103.994C209.498 104.329 209.5 104.664 209.5 105C209.5 105.336 209.498 105.671 209.495 106.006L209.995 106.011C209.989 106.683 209.976 107.355 209.957 108.025L209.457 108.01C209.439 108.677 209.414 109.342 209.382 110.006L209.882 110.029C209.85 110.702 209.812 111.372 209.768 112.042L209.269 112.009C209.225 112.676 209.174 113.341 209.117 114.005L209.616 114.047C209.559 114.715 209.495 115.381 209.426 116.046L208.929 115.994C208.859 116.66 208.783 117.325 208.701 117.987L209.197 118.049C209.115 118.715 209.026 119.378 208.931 120.04L208.436 119.969C208.341 120.631 208.24 121.291 208.133 121.948L208.626 122.029C208.518 122.692 208.404 123.353 208.283 124.013L207.791 123.923C207.671 124.579 207.545 125.232 207.413 125.884L207.903 125.983C207.769 126.643 207.629 127.3 207.483 127.954L206.995 127.846C206.85 128.498 206.698 129.147 206.541 129.795L207.027 129.913C206.868 130.565 206.704 131.214 206.533 131.861L206.049 131.734C205.879 132.38 205.702 133.025 205.519 133.666L206 133.803C205.817 134.448 205.627 135.09 205.432 135.73L204.953 135.584C204.758 136.223 204.557 136.86 204.349 137.494L204.825 137.65C204.616 138.288 204.402 138.923 204.181 139.556L203.709 139.391C203.49 140.021 203.264 140.649 203.033 141.273L203.502 141.447C203.269 142.077 203.03 142.704 202.785 143.328L202.319 143.146C202.075 143.767 201.826 144.386 201.571 145.001L202.033 145.193C201.775 145.813 201.513 146.43 201.244 147.044L200.786 146.843C200.518 147.455 200.245 148.064 199.966 148.67L200.42 148.879C200.139 149.488 199.853 150.094 199.562 150.696L199.111 150.479C198.82 151.08 198.523 151.679 198.221 152.274L198.667 152.5C198.363 153.098 198.054 153.693 197.739 154.284L197.297 154.049C196.984 154.638 196.664 155.224 196.339 155.807L196.776 156.05C196.449 156.636 196.117 157.219 195.78 157.798L195.348 157.546C195.012 158.123 194.67 158.696 194.324 159.265L194.751 159.525C194.402 160.098 194.047 160.668 193.688 161.234L193.266 160.966C192.908 161.529 192.545 162.089 192.176 162.645L192.593 162.921C192.222 163.48 191.847 164.036 191.466 164.587L191.054 164.303C190.675 164.853 190.291 165.398 189.901 165.94L190.307 166.232C189.916 166.776 189.519 167.317 189.118 167.853L188.717 167.554C188.317 168.088 187.912 168.619 187.502 169.146L187.897 169.453C187.485 169.982 187.068 170.507 186.646 171.028L186.257 170.713C185.837 171.232 185.412 171.747 184.983 172.257L185.365 172.579C184.933 173.092 184.497 173.601 184.055 174.106L183.679 173.777C183.239 174.279 182.795 174.777 182.346 175.27L182.716 175.607C182.265 176.103 181.809 176.595 181.349 177.082L180.986 176.739C180.527 177.224 180.064 177.705 179.597 178.181L179.954 178.532C179.484 179.01 179.01 179.484 178.532 179.954L178.182 179.597C177.705 180.064 177.224 180.527 176.739 180.986L177.082 181.349C176.595 181.809 176.103 182.265 175.607 182.716L175.27 182.346C174.777 182.795 174.279 183.239 173.777 183.679L174.106 184.055C173.601 184.497 173.092 184.933 172.579 185.365L172.257 184.983C171.747 185.412 171.232 185.837 170.713 186.257L171.028 186.646C170.507 187.068 169.982 187.485 169.453 187.897L169.146 187.502C168.619 187.912 168.088 188.317 167.554 188.717L167.853 189.118C167.317 189.519 166.776 189.916 166.232 190.307L165.94 189.901C165.399 190.291 164.853 190.675 164.303 191.054L164.588 191.466C164.036 191.847 163.481 192.222 162.921 192.593L162.645 192.176C162.089 192.545 161.53 192.908 160.966 193.266L161.234 193.688C160.668 194.047 160.099 194.402 159.525 194.751L159.265 194.324C158.696 194.67 158.123 195.012 157.546 195.348L157.798 195.78C157.219 196.117 156.636 196.449 156.05 196.776L155.807 196.339C155.224 196.664 154.638 196.984 154.049 197.297L154.284 197.739C153.693 198.054 153.098 198.363 152.5 198.667L152.274 198.221C151.679 198.523 151.08 198.82 150.479 199.111L150.697 199.561C150.094 199.853 149.488 200.139 148.879 200.42L148.67 199.966C148.064 200.245 147.455 200.518 146.843 200.786L147.044 201.244C146.43 201.513 145.813 201.775 145.193 202.033L145.001 201.571C144.386 201.826 143.767 202.075 143.146 202.319L143.329 202.785C142.704 203.03 142.077 203.269 141.447 203.502L141.273 203.033C140.649 203.264 140.021 203.49 139.391 203.709L139.556 204.181C138.923 204.402 138.288 204.616 137.65 204.825L137.494 204.349C136.86 204.557 136.223 204.758 135.584 204.953L135.73 205.432C135.091 205.627 134.448 205.817 133.803 206L133.666 205.519C133.025 205.702 132.38 205.879 131.734 206.049L131.861 206.533C131.214 206.703 130.565 206.868 129.913 207.027L129.795 206.541C129.147 206.698 128.498 206.85 127.846 206.995L127.954 207.483C127.3 207.629 126.643 207.769 125.984 207.903L125.884 207.413C125.232 207.545 124.579 207.671 123.923 207.791L124.013 208.283C123.353 208.404 122.692 208.518 122.029 208.626L121.948 208.133C121.291 208.24 120.631 208.341 119.969 208.436L120.04 208.931C119.378 209.026 118.715 209.115 118.049 209.197L117.987 208.701C117.325 208.783 116.66 208.859 115.994 208.929L116.046 209.426C115.381 209.495 114.715 209.559 114.047 209.616L114.005 209.117C113.341 209.174 112.676 209.225 112.008 209.269L112.042 209.768C111.372 209.812 110.702 209.85 110.029 209.882L110.006 209.382C109.342 209.414 108.677 209.439 108.01 209.457L108.025 209.957C107.355 209.976 106.683 209.989 106.01 209.995L106.006 209.495C105.671 209.498 105.336 209.5 105 209.5C104.664 209.5 104.329 209.498 103.994 209.495L103.989 209.995C103.317 209.989 102.645 209.976 101.975 209.957L101.99 209.457C101.323 209.439 100.658 209.414 99.9943 209.382L99.9707 209.882C99.2983 209.85 98.6275 209.812 97.9585 209.768L97.9915 209.269C97.3243 209.225 96.6588 209.174 95.9951 209.117L95.9525 209.616C95.2847 209.559 94.6186 209.495 93.9543 209.426L94.0063 208.929C93.3399 208.859 92.6753 208.783 92.0127 208.701L91.9512 209.197C91.2854 209.115 90.6215 209.026 89.9596 208.931L90.0306 208.436C89.369 208.341 88.7094 208.24 88.0518 208.133L87.9713 208.626C87.3079 208.518 86.6466 208.404 85.9875 208.283L86.0774 207.791C85.4214 207.671 84.7676 207.545 84.1159 207.413L84.0165 207.903C83.3573 207.769 82.7002 207.629 82.0455 207.483L82.1544 206.995C81.5024 206.85 80.8527 206.698 80.2053 206.541L80.0871 207.027C79.4353 206.868 78.7859 206.703 78.1389 206.533L78.2665 206.049C77.6197 205.879 76.9754 205.702 76.3336 205.519L76.1967 206C75.5519 205.817 74.9095 205.627 74.2698 205.432L74.4159 204.953C73.7766 204.758 73.1398 204.557 72.5058 204.349L72.3504 204.825C71.7124 204.616 71.077 204.402 70.4444 204.181L70.6089 203.709C69.9787 203.49 69.3513 203.264 68.7267 203.033L68.5532 203.502C67.9231 203.269 67.2958 203.03 66.6715 202.785L66.8541 202.319C66.2328 202.075 65.6143 201.826 64.9989 201.571L64.8073 202.033C64.1873 201.775 63.5702 201.513 62.9562 201.244L63.1566 200.786C62.5447 200.518 61.9357 200.245 61.3299 199.966L61.1208 200.42C60.5119 200.139 59.9061 199.853 59.3035 199.562L59.5214 199.111C58.9198 198.82 58.3215 198.523 57.7264 198.221L57.4999 198.667C56.902 198.363 56.3074 198.054 55.7162 197.739L55.9512 197.297C55.3618 196.984 54.7758 196.664 54.1932 196.339L53.9497 196.776C53.3636 196.449 52.7809 196.117 52.2018 195.78L52.4536 195.348C51.8772 195.012 51.3042 194.67 50.7349 194.324L50.4748 194.751C49.9015 194.402 49.3318 194.047 48.7657 193.688L49.0339 193.266C48.4705 192.908 47.9108 192.545 47.3548 192.176L47.0787 192.593C46.5195 192.222 45.9641 191.847 45.4125 191.466L45.6966 191.054C45.1472 190.675 44.6016 190.291 44.0598 189.901L43.7679 190.307C43.2236 189.916 42.6832 189.519 42.1467 189.118L42.4463 188.717C41.9117 188.317 41.381 187.912 40.8544 187.502L40.5472 187.897C40.0181 187.485 39.493 187.068 38.9721 186.646L39.2867 186.257C38.768 185.837 38.2534 185.412 37.7429 184.983L37.4209 185.365C36.9078 184.933 36.3989 184.497 35.8943 184.055L36.2235 183.679C35.7213 183.239 35.2233 182.795 34.7296 182.346L34.3932 182.716C33.897 182.265 33.4051 181.809 32.9176 181.349L33.2609 180.986C32.7757 180.527 32.2949 180.064 31.8185 179.597L31.4684 179.954C30.9898 179.484 30.5156 179.01 30.046 178.532L30.4029 178.182C29.9356 177.705 29.4727 177.224 29.0145 176.739L28.651 177.082C28.1906 176.595 27.7347 176.103 27.2836 175.607L27.6536 175.27C27.2048 174.777 26.7607 174.279 26.3213 173.777L25.945 174.106C25.5035 173.601 25.0668 173.092 24.6348 172.579L25.0174 172.257C24.5877 171.747 24.1628 171.232 23.7428 170.713L23.3542 171.028C22.9324 170.507 22.5154 169.982 22.1034 169.453L22.4979 169.146C22.0879 168.619 21.6828 168.088 21.2827 167.554L20.8824 167.853C20.4809 167.317 20.0844 166.776 19.693 166.232L20.0989 165.94C19.7094 165.399 19.3249 164.853 18.9456 164.303L18.5341 164.588C18.1533 164.036 17.7776 163.481 17.4071 162.921L17.8239 162.645C17.4555 162.089 17.0923 161.53 16.7343 160.966L16.3123 161.234C15.9526 160.668 15.5982 160.099 15.2492 159.525L15.6763 159.265C15.3296 158.696 14.9883 158.123 14.6523 157.546L14.2203 157.798C13.8828 157.219 13.5506 156.636 13.2239 156.05L13.6606 155.807C13.3358 155.224 13.0165 154.638 12.7026 154.049L12.2613 154.284C11.9464 153.693 11.637 153.098 11.3332 152.5L11.779 152.274C11.4766 151.679 11.1798 151.08 10.8885 150.479L10.4385 150.697C10.1468 150.094 9.86066 149.488 9.58019 148.879L10.0343 148.67C9.75529 148.064 9.48188 147.455 9.21416 146.843L8.75608 147.044C8.48748 146.43 8.22458 145.813 7.96746 145.193L8.42932 145.001C8.1741 144.386 7.92458 143.767 7.68085 143.146L7.21538 143.329C6.97048 142.704 6.73138 142.077 6.49815 141.447L6.96706 141.273C6.73587 140.649 6.51048 140.021 6.29096 139.391L5.81879 139.556C5.5984 138.923 5.3839 138.288 5.17534 137.65L5.65059 137.494C5.44334 136.86 5.24198 136.223 5.04659 135.584L4.56842 135.73C4.37291 135.091 4.18335 134.448 3.9998 133.803L4.4807 133.666C4.29803 133.025 4.12133 132.38 3.95069 131.734L3.46723 131.861C3.29652 131.214 3.13183 130.565 2.97323 129.913L3.45905 129.795C3.30153 129.147 3.15004 128.498 3.00464 127.846L2.51663 127.954C2.37063 127.3 2.23074 126.643 2.09703 125.984L2.58706 125.884C2.45488 125.232 2.32878 124.579 2.20879 123.923L1.71695 124.013C1.5964 123.353 1.48199 122.692 1.3738 122.029L1.86728 121.948C1.76005 121.291 1.65895 120.631 1.56405 119.969L1.06911 120.04C0.974175 119.379 0.885411 118.715 0.80288 118.049L1.29908 117.987C1.21694 117.325 1.14101 116.66 1.07134 115.994L0.574047 116.046C0.504604 115.381 0.441353 114.715 0.384355 114.047L0.882544 114.005C0.825899 113.341 0.775457 112.676 0.731277 112.008L0.232369 112.042C0.188068 111.372 0.150033 110.702 0.118323 110.029L0.617768 110.006C0.58648 109.342 0.561379 108.677 0.542521 108.01L0.042721 108.025C0.0237744 107.355 0.0111008 106.683 0.00475692 106.01L0.504735 106.006C0.501578 105.671 0.499995 105.336 0.499995 105C0.499995 104.664 0.501578 104.329 0.504735 103.994L0.00475715 103.989C0.0111012 103.317 0.0237749 102.645 0.0427216 101.975L0.542522 101.99C0.56138 101.323 0.586481 100.658 0.617769 99.9943L0.118324 99.9707C0.150034 99.2983 0.188068 98.6275 0.23237 97.9585L0.731277 97.9915C0.775457 97.3243 0.825899 96.6588 0.882544 95.9951L0.384355 95.9525C0.441353 95.2847 0.504604 94.6186 0.574047 93.9543L1.07134 94.0063C1.14101 93.3399 1.21694 92.6753 1.29908 92.0127L0.802879 91.9512C0.88541 91.2854 0.974173 90.6215 1.06911 89.9596L1.56404 90.0306C1.65895 89.369 1.76005 88.7094 1.86728 88.0518L1.3738 87.9713C1.48199 87.3079 1.59639 86.6466 1.71695 85.9875L2.20879 86.0774C2.32877 85.4214 2.45488 84.7676 2.58705 84.1159L2.09703 84.0165C2.23074 83.3573 2.37062 82.7003 2.51662 82.0456L3.00464 82.1544C3.15003 81.5024 3.30152 80.8527 3.45904 80.2053L2.97322 80.0871C3.13182 79.4353 3.29651 78.7859 3.46722 78.1389L3.95067 78.2665C4.12132 77.6197 4.29801 76.9754 4.48068 76.3336L3.99979 76.1968C4.18334 75.5519 4.3729 74.9095 4.56841 74.2698L5.04658 74.4159C5.24196 73.7766 5.44332 73.1398 5.65057 72.5058L5.17531 72.3504C5.38387 71.7124 5.59838 71.077 5.81877 70.4444L6.29093 70.6089C6.51046 69.9787 6.73585 69.3513 6.96703 68.7267L6.49812 68.5532C6.73135 67.9231 6.97045 67.2959 7.21536 66.6715L7.68082 66.8541C7.92456 66.2328 8.17407 65.6143 8.42929 64.9989L7.96743 64.8073C8.22455 64.1873 8.48745 63.5702 8.75605 62.9562L9.21413 63.1566C9.48185 62.5447 9.75526 61.9357 10.0343 61.3299L9.58016 61.1208C9.86063 60.5119 10.1468 59.9061 10.4385 59.3035L10.8885 59.5214C11.1798 58.9198 11.4766 58.3215 11.779 57.7265L11.3332 57.5C11.637 56.902 11.9464 56.3074 12.2612 55.7162L12.7026 55.9512C13.0164 55.3618 13.3358 54.7758 13.6606 54.1932L13.2238 53.9497C13.5505 53.3636 13.8827 52.7809 14.2203 52.2018L14.6523 52.4536C14.9882 51.8772 15.3296 51.3042 15.6762 50.7349L15.2491 50.4749C15.5982 49.9015 15.9526 49.3318 16.3123 48.7657L16.7343 49.0339C17.0922 48.4705 17.4555 47.9108 17.8238 47.3548L17.407 47.0787C17.7775 46.5195 18.1532 45.9641 18.5341 45.4125L18.9455 45.6966C19.3249 45.1472 19.7093 44.6016 20.0989 44.0598L19.6929 43.7679C20.0843 43.2236 20.4808 42.6832 20.8823 42.1467L21.2826 42.4463C21.6827 41.9117 22.0878 41.381 22.4979 40.8544L22.1034 40.5472C22.5154 40.0181 22.9323 39.493 23.3542 38.9721L23.7427 39.2867C24.1628 38.768 24.5876 38.2534 25.0173 37.7429L24.6348 37.4209C25.0667 36.9078 25.5034 36.3989 25.9449 35.8943L26.3212 36.2235C26.7606 35.7213 27.2048 35.2233 27.6536 34.7296L27.2836 34.3932C27.7347 33.897 28.1905 33.4051 28.6509 32.9176L29.0144 33.2609C29.4727 32.7757 29.9355 32.2949 30.4029 31.8185L30.046 31.4684C30.5156 30.9898 30.9897 30.5156 31.4683 30.046L31.8185 30.4029C32.2948 29.9356 32.7756 29.4727 33.2608 29.0145L32.9175 28.651C33.405 28.1906 33.8969 27.7348 34.3932 27.2836L34.7295 27.6536C35.2232 27.2048 35.7212 26.7607 36.2235 26.3213L35.8942 25.945C36.3989 25.5035 36.9078 25.0668 37.4209 24.6349L37.7429 25.0174C38.2533 24.5877 38.7679 24.1628 39.2866 23.7428L38.972 23.3542C39.493 22.9324 40.018 22.5154 40.5472 22.1034L40.8544 22.4979C41.381 22.0879 41.9116 21.6828 42.4462 21.2827L42.1466 20.8824C42.6831 20.4809 43.2235 20.0844 43.7679 19.693L44.0598 20.0989C44.6015 19.7094 45.1471 19.3249 45.6965 18.9456L45.4124 18.5341C45.964 18.1533 46.5194 17.7776 47.0786 17.4071L47.3548 17.8239C47.9107 17.4555 48.4705 17.0923 49.0338 16.7343L48.7657 16.3123C49.3317 15.9527 49.9014 15.5983 50.4748 15.2492L50.7348 15.6763C51.3042 15.3296 51.8771 14.9883 52.4535 14.6523L52.2017 14.2203C52.7809 13.8828 53.3635 13.5506 53.9497 13.2239L54.1931 13.6606C54.7757 13.3358 55.3617 13.0165 55.9511 12.7026L55.7161 12.2613C56.3073 11.9464 56.902 11.6371 57.4999 11.3332L57.7264 11.779C58.3214 11.4766 58.9198 11.1798 59.5213 10.8886L59.3035 10.4385C59.906 10.1468 60.5118 9.86067 61.1207 9.5802L61.3299 10.0343C61.9357 9.75531 62.5446 9.4819 63.1566 9.21418L62.9562 8.75609C63.5702 8.48749 64.1872 8.22459 64.8073 7.96747L64.9988 8.42933C65.6143 8.17412 66.2327 7.9246 66.854 7.68086L66.6714 7.21539C67.2958 6.97049 67.923 6.7314 68.5531 6.49817L68.7267 6.96707C69.3512 6.73588 69.9786 6.51049 70.6088 6.29097L70.4443 5.8188C71.0769 5.59842 71.7123 5.38391 72.3504 5.17535L72.5057 5.6506C73.1398 5.44336 73.7765 5.242 74.4159 5.04661L74.2697 4.56843C74.9095 4.37292 75.5518 4.18336 76.1967 3.99981L76.3336 4.48071C76.9754 4.29805 77.6197 4.12135 78.2664 3.9507L78.1388 3.46725C78.7858 3.29654 79.4353 3.13183 80.0871 2.97323L80.2053 3.45906C80.8526 3.30154 81.5023 3.15005 82.1543 3.00465L82.0455 2.51664C82.7002 2.37065 83.3572 2.23076 84.0165 2.09704L84.1159 2.58708C84.7675 2.45491 85.4214 2.32879 86.0774 2.20881L85.9874 1.71698C86.6466 1.59642 87.3079 1.48201 87.9713 1.37382L88.0518 1.86731C88.7093 1.76007 89.369 1.65896 90.0306 1.56407L89.9596 1.06913C90.6215 0.974193 91.2854 0.885433 91.9512 0.802898L92.0127 1.2991C92.6753 1.21696 93.3399 1.14102 94.0063 1.07135L93.9543 0.574062C94.6186 0.504619 95.2847 0.441356 95.9525 0.384365L95.9951 0.882564C96.6588 0.825908 97.3243 0.775478 97.9915 0.731288L97.9585 0.232387C98.6275 0.188091 99.2983 0.150051 99.9707 0.118343L99.9943 0.617778C100.658 0.586498 101.323 0.561397 101.99 0.542537L101.975 0.0427354Z" stroke="#034737" stroke-dasharray="2 2"/>
<path d="M73.1564 75.692C74.1791 75.8827 75.0197 76.394 75.6784 77.226C76.3371 78.058 76.6664 79.0113 76.6664 80.086C76.6664 81.0567 76.4237 81.9147 75.9384 82.66C75.4704 83.388 74.7857 83.96 73.8844 84.376C72.9831 84.792 71.9171 85 70.6864 85H62.8604V66.852H70.3484C71.5791 66.852 72.6364 67.0513 73.5204 67.45C74.4217 67.8487 75.0977 68.4033 75.5484 69.114C76.0164 69.8247 76.2504 70.6307 76.2504 71.532C76.2504 72.5893 75.9644 73.4733 75.3924 74.184C74.8377 74.8947 74.0924 75.3973 73.1564 75.692ZM66.5004 74.34H69.8284C70.6951 74.34 71.3624 74.1493 71.8304 73.768C72.2984 73.3693 72.5324 72.806 72.5324 72.078C72.5324 71.35 72.2984 70.7867 71.8304 70.388C71.3624 69.9893 70.6951 69.79 69.8284 69.79H66.5004V74.34ZM70.1664 82.036C71.0504 82.036 71.7351 81.828 72.2204 81.412C72.7231 80.996 72.9744 80.4067 72.9744 79.644C72.9744 78.864 72.7144 78.2573 72.1944 77.824C71.6744 77.3733 70.9724 77.148 70.0884 77.148H66.5004V82.036H70.1664ZM85.9634 85.234C84.5768 85.234 83.3288 84.9307 82.2194 84.324C81.1101 83.7 80.2348 82.8247 79.5934 81.698C78.9694 80.5713 78.6574 79.2713 78.6574 77.798C78.6574 76.3247 78.9781 75.0247 79.6194 73.898C80.2781 72.7713 81.1708 71.9047 82.2974 71.298C83.4241 70.674 84.6808 70.362 86.0674 70.362C87.4541 70.362 88.7108 70.674 89.8374 71.298C90.9641 71.9047 91.8481 72.7713 92.4894 73.898C93.1481 75.0247 93.4774 76.3247 93.4774 77.798C93.4774 79.2713 93.1394 80.5713 92.4634 81.698C91.8048 82.8247 90.9034 83.7 89.7594 84.324C88.6328 84.9307 87.3674 85.234 85.9634 85.234ZM85.9634 82.062C86.6221 82.062 87.2374 81.906 87.8094 81.594C88.3988 81.2647 88.8668 80.7793 89.2134 80.138C89.5601 79.4967 89.7334 78.7167 89.7334 77.798C89.7334 76.4287 89.3694 75.38 88.6414 74.652C87.9308 73.9067 87.0554 73.534 86.0154 73.534C84.9754 73.534 84.1001 73.9067 83.3894 74.652C82.6961 75.38 82.3494 76.4287 82.3494 77.798C82.3494 79.1673 82.6874 80.2247 83.3634 80.97C84.0568 81.698 84.9234 82.062 85.9634 82.062ZM102.544 85.234C101.157 85.234 99.9088 84.9307 98.7995 84.324C97.6902 83.7 96.8148 82.8247 96.1735 81.698C95.5495 80.5713 95.2375 79.2713 95.2375 77.798C95.2375 76.3247 95.5582 75.0247 96.1995 73.898C96.8582 72.7713 97.7508 71.9047 98.8775 71.298C100.004 70.674 101.261 70.362 102.648 70.362C104.034 70.362 105.291 70.674 106.418 71.298C107.544 71.9047 108.428 72.7713 109.07 73.898C109.728 75.0247 110.058 76.3247 110.058 77.798C110.058 79.2713 109.72 80.5713 109.044 81.698C108.385 82.8247 107.484 83.7 106.34 84.324C105.213 84.9307 103.948 85.234 102.544 85.234ZM102.544 82.062C103.202 82.062 103.818 81.906 104.39 81.594C104.979 81.2647 105.447 80.7793 105.794 80.138C106.14 79.4967 106.314 78.7167 106.314 77.798C106.314 76.4287 105.95 75.38 105.222 74.652C104.511 73.9067 103.636 73.534 102.596 73.534C101.556 73.534 100.68 73.9067 99.9695 74.652C99.2762 75.38 98.9295 76.4287 98.9295 77.798C98.9295 79.1673 99.2675 80.2247 99.9435 80.97C100.637 81.698 101.504 82.062 102.544 82.062ZM121.256 85L116.368 78.864V85H112.728V65.76H116.368V76.706L121.204 70.596H125.936L119.592 77.824L125.988 85H121.256ZM133.17 77.746C133.17 76.29 133.456 74.9987 134.028 73.872C134.618 72.7453 135.407 71.8787 136.395 71.272C137.4 70.6653 138.518 70.362 139.749 70.362C140.823 70.362 141.759 70.5787 142.557 71.012C143.371 71.4453 144.021 71.9913 144.507 72.65V70.596H148.173V85H144.507V82.894C144.039 83.57 143.389 84.1333 142.557 84.584C141.742 85.0173 140.797 85.234 139.723 85.234C138.509 85.234 137.4 84.922 136.395 84.298C135.407 83.674 134.618 82.7987 134.028 81.672C133.456 80.528 133.17 79.2193 133.17 77.746ZM144.507 77.798C144.507 76.914 144.333 76.16 143.987 75.536C143.64 74.8947 143.172 74.4093 142.583 74.08C141.993 73.7333 141.361 73.56 140.685 73.56C140.009 73.56 139.385 73.7247 138.812 74.054C138.241 74.3833 137.773 74.8687 137.409 75.51C137.062 76.134 136.889 76.8793 136.889 77.746C136.889 78.6127 137.062 79.3753 137.409 80.034C137.773 80.6753 138.241 81.1693 138.812 81.516C139.402 81.8627 140.026 82.036 140.685 82.036C141.361 82.036 141.993 81.8713 142.583 81.542C143.172 81.1953 143.64 80.71 143.987 80.086C144.333 79.4447 144.507 78.682 144.507 77.798ZM67.6119 106.746C67.6119 105.29 67.8979 103.999 68.4699 102.872C69.0592 101.745 69.8566 100.879 70.8619 100.272C71.8672 99.6653 72.9852 99.362 74.2159 99.362C75.1519 99.362 76.0446 99.57 76.8939 99.986C77.7432 100.385 78.4192 100.922 78.9219 101.598V94.76H82.6139V114H78.9219V111.868C78.4712 112.579 77.8386 113.151 77.0239 113.584C76.2092 114.017 75.2646 114.234 74.1899 114.234C72.9766 114.234 71.8672 113.922 70.8619 113.298C69.8566 112.674 69.0592 111.799 68.4699 110.672C67.8979 109.528 67.6119 108.219 67.6119 106.746ZM78.9479 106.798C78.9479 105.914 78.7746 105.16 78.4279 104.536C78.0812 103.895 77.6132 103.409 77.0239 103.08C76.4346 102.733 75.8019 102.56 75.1259 102.56C74.4499 102.56 73.8259 102.725 73.2539 103.054C72.6819 103.383 72.2139 103.869 71.8499 104.51C71.5032 105.134 71.3299 105.879 71.3299 106.746C71.3299 107.613 71.5032 108.375 71.8499 109.034C72.2139 109.675 72.6819 110.169 73.2539 110.516C73.8432 110.863 74.4672 111.036 75.1259 111.036C75.8019 111.036 76.4346 110.871 77.0239 110.542C77.6132 110.195 78.0812 109.71 78.4279 109.086C78.7746 108.445 78.9479 107.682 78.9479 106.798ZM99.559 106.486C99.559 107.006 99.5243 107.474 99.455 107.89H88.925C89.0117 108.93 89.3757 109.745 90.017 110.334C90.6583 110.923 91.447 111.218 92.383 111.218C93.735 111.218 94.697 110.637 95.269 109.476H99.195C98.779 110.863 97.9817 112.007 96.803 112.908C95.6243 113.792 94.177 114.234 92.461 114.234C91.0743 114.234 89.8263 113.931 88.717 113.324C87.625 112.7 86.767 111.825 86.143 110.698C85.5363 109.571 85.233 108.271 85.233 106.798C85.233 105.307 85.5363 103.999 86.143 102.872C86.7497 101.745 87.599 100.879 88.691 100.272C89.783 99.6653 91.0397 99.362 92.461 99.362C93.8303 99.362 95.0523 99.6567 96.127 100.246C97.219 100.835 98.0597 101.676 98.649 102.768C99.2557 103.843 99.559 105.082 99.559 106.486ZM95.789 105.446C95.7717 104.51 95.4337 103.765 94.775 103.21C94.1163 102.638 93.3103 102.352 92.357 102.352C91.4557 102.352 90.693 102.629 90.069 103.184C89.4623 103.721 89.0897 104.475 88.951 105.446H95.789ZM120.104 99.388C121.872 99.388 123.293 99.934 124.368 101.026C125.46 102.101 126.006 103.609 126.006 105.55V114H122.366V106.044C122.366 104.917 122.08 104.059 121.508 103.47C120.936 102.863 120.156 102.56 119.168 102.56C118.18 102.56 117.391 102.863 116.802 103.47C116.23 104.059 115.944 104.917 115.944 106.044V114H112.304V106.044C112.304 104.917 112.018 104.059 111.446 103.47C110.874 102.863 110.094 102.56 109.106 102.56C108.101 102.56 107.303 102.863 106.714 103.47C106.142 104.059 105.856 104.917 105.856 106.044V114H102.216V99.596H105.856V101.338C106.324 100.731 106.922 100.255 107.65 99.908C108.395 99.5613 109.21 99.388 110.094 99.388C111.221 99.388 112.226 99.6307 113.11 100.116C113.994 100.584 114.679 101.26 115.164 102.144C115.632 101.312 116.308 100.645 117.192 100.142C118.093 99.6393 119.064 99.388 120.104 99.388ZM135.856 114.234C134.469 114.234 133.221 113.931 132.112 113.324C131.003 112.7 130.127 111.825 129.486 110.698C128.862 109.571 128.55 108.271 128.55 106.798C128.55 105.325 128.871 104.025 129.512 102.898C130.171 101.771 131.063 100.905 132.19 100.298C133.317 99.674 134.573 99.362 135.96 99.362C137.347 99.362 138.603 99.674 139.73 100.298C140.857 100.905 141.741 101.771 142.382 102.898C143.041 104.025 143.37 105.325 143.37 106.798C143.37 108.271 143.032 109.571 142.356 110.698C141.697 111.825 140.796 112.7 139.652 113.324C138.525 113.931 137.26 114.234 135.856 114.234ZM135.856 111.062C136.515 111.062 137.13 110.906 137.702 110.594C138.291 110.265 138.759 109.779 139.106 109.138C139.453 108.497 139.626 107.717 139.626 106.798C139.626 105.429 139.262 104.38 138.534 103.652C137.823 102.907 136.948 102.534 135.908 102.534C134.868 102.534 133.993 102.907 133.282 103.652C132.589 104.38 132.242 105.429 132.242 106.798C132.242 108.167 132.58 109.225 133.256 109.97C133.949 110.698 134.816 111.062 135.856 111.062Z" fill="white"/>
<path d="M105.191 149.627C105.582 150.018 106.215 150.018 106.606 149.627L112.97 143.263C113.36 142.873 113.36 142.24 112.97 141.849C112.579 141.458 111.946 141.458 111.555 141.849L105.898 147.506L100.242 141.849C99.8511 141.458 99.2179 141.458 98.8274 141.849C98.4368 142.24 98.4368 142.873 98.8274 143.263L105.191 149.627ZM104.898 129.121L104.898 148.92L106.898 148.92L106.898 129.121L104.898 129.121Z" fill="white"/>
<defs>
<filter id="filter0_i_5288_652" x="13" y="12.877" width="184.121" height="188.123" filterUnits="userSpaceOnUse" color-interpolation-filters="sRGB">
<feFlood flood-opacity="0" result="BackgroundImageFix"/>
<feBlend mode="normal" in="SourceGraphic" in2="BackgroundImageFix" result="shape"/>
<feColorMatrix in="SourceAlpha" type="matrix" values="0 0 0 0 0 0 0 0 0 0 0 0 0 0 0 0 0 0 127 0" result="hardAlpha"/>
<feMorphology radius="2" operator="erode" in="SourceAlpha" result="effect1_innerShadow_5288_652"/>
<feOffset dy="4"/>
<feGaussianBlur stdDeviation="5.55"/>
<feComposite in2="hardAlpha" operator="arithmetic" k2="-1" k3="1"/>
<feColorMatrix type="matrix" values="0 0 0 0 1 0 0 0 0 1 0 0 0 0 1 0 0 0 0.61 0"/>
<feBlend mode="normal" in2="shape" result="effect1_innerShadow_5288_652"/>
</filter>
</defs>
</svg>
