<svg width="1349" height="518" viewBox="0 0 1349 518" fill="none" xmlns="http://www.w3.org/2000/svg">
<g filter="url(#filter0_f_4401_12205)">
<path d="M240.5 203L79 218.5L111 195L151 149L159 90.5L119 40.5L240.5 106.5V203Z" fill="url(#paint0_linear_4401_12205)" fill-opacity="0.1"/>
</g>
<g filter="url(#filter1_f_4401_12205)">
<path d="M1339 168.435L1178 183.5L1209.9 160.66L1249.78 115.952L1257.75 59.0955L1217.88 10.5L1339 74.6461V168.435Z" fill="url(#paint1_linear_4401_12205)" fill-opacity="0.1"/>
</g>
<g filter="url(#filter2_f_4401_12205)">
<path d="M495 178.573L392 188.5L412.409 173.449L437.92 143.989L443.022 106.522L417.511 74.5L495 116.77V178.573Z" fill="url(#paint2_linear_4401_12205)" fill-opacity="0.1"/>
</g>
<g filter="url(#filter3_f_4401_12205)">
<path d="M793 497.573L690 507.5L710.409 492.449L735.92 462.989L741.022 425.522L715.511 393.5L793 435.77V497.573Z" fill="url(#paint3_linear_4401_12205)" fill-opacity="0.1"/>
</g>
<g filter="url(#filter4_i_4401_12205)">
<path d="M212.088 246C143.183 248 145.22 191.833 145.405 163.5L20.3761 167.5C16.3752 203.1 22.0432 234.667 25.3773 246C42.2701 312 112.435 337.833 145.405 342.5H652.191V427.5H744.435V356.013C744.435 347.015 743.671 338.014 743.754 329.016C743.938 308.885 749.446 273.424 786.111 274.5H1126.75C1222.32 276.9 1255.3 210.333 1259 176V117.5H1141C1140.56 156.3 1117.11 152.833 1101.19 153.5C980.268 160.3 840.754 161.167 786.111 153.5C731.654 148.5 678.864 169 652.191 208C630.853 239.2 593.288 246.333 577.173 246H556.057H444.5V153.5H362.5V246H212.088Z" fill="#2DA771"/>
</g>
<circle cx="82" cy="114.5" r="82" fill="white"/>
<g clip-path="url(#clip0_4401_12205)">
<g filter="url(#filter5_ii_4401_12205)">
<rect x="7" y="39.5" width="239.423" height="239.423" rx="63.4615" fill="#F7F6F2"/>
</g>
<rect x="7" y="39.5" width="239.423" height="239.423" rx="63.4615" fill="url(#paint4_linear_4401_12205)" fill-opacity="0.1"/>
<rect x="7.18029" y="39.6803" width="239.062" height="239.062" rx="63.2812" stroke="#ACACAC" stroke-opacity="0.1" stroke-width="0.360577"/>
<g filter="url(#filter6_di_4401_12205)">
<mask id="path-11-inside-1_4401_12205" fill="white">
<path d="M117.449 126.282C115.803 125.135 113.86 124.712 112.143 124.339C111.993 124.305 111.837 124.302 111.684 124.329C111.532 124.356 111.387 124.413 111.257 124.496C111.127 124.58 111.015 124.688 110.927 124.815C110.839 124.942 110.777 125.085 110.745 125.237C110.711 125.388 110.708 125.544 110.735 125.696C110.763 125.848 110.82 125.993 110.903 126.123C110.987 126.253 111.095 126.366 111.222 126.454C111.349 126.542 111.492 126.604 111.643 126.637C113.216 126.98 114.843 127.335 116.105 128.213C117.079 128.892 118.002 130.194 117.726 131.452C117.328 133.259 114.742 134.061 113.234 134.38C107.93 135.501 102.337 135.451 96.934 135.406C93.8081 135.379 90.574 135.352 87.3916 135.545C85.0387 135.688 82.5798 136.004 80.5457 137.321C78.4469 138.682 76.7575 141.597 77.7622 144.318C77.9563 144.842 78.2234 145.294 78.481 145.732C78.8104 146.293 79.0963 146.777 79.1116 147.222C79.1304 147.819 78.6222 148.399 78.1093 148.71C77.4057 149.133 76.5022 149.306 75.5575 149.462C66.134 151.007 55.6434 151.268 46.5634 150.204C47.0081 147.9 47.8422 145.387 49.0893 142.574C51.0587 142.53 53.2245 142.272 55.5563 141.793C62.3681 140.428 69.1916 137.37 75.274 132.946C77.4975 131.346 79.674 129.664 81.7445 127.934C81.9328 127.781 82.0034 127.522 81.9328 127.287C81.8914 127.175 81.8182 127.077 81.722 127.006C81.6258 126.935 81.511 126.894 81.3916 126.887C79.3445 126.817 76.4975 126.405 73.5916 125.075C76.9093 125.134 82.8034 124.781 88.0269 122.322C88.0847 122.298 88.1368 122.262 88.1798 122.217C91.7798 118.793 95.1328 115.146 98.1563 111.381C98.2247 111.296 98.2676 111.194 98.2801 111.086C98.2926 110.977 98.2742 110.868 98.2269 110.77C98.1815 110.67 98.1088 110.585 98.0173 110.524C97.9257 110.464 97.8189 110.431 97.7093 110.428C95.8269 110.405 92.4034 110.075 88.921 108.334C92.0975 108.111 98.321 107.475 102.18 105.899C102.286 105.864 102.368 105.793 102.439 105.699C106.392 100.052 109.65 94.2048 112.145 88.3224C112.215 88.1577 112.203 87.9695 112.121 87.8048C112.077 87.7296 112.017 87.6646 111.946 87.6139C111.875 87.5632 111.795 87.5281 111.709 87.5107C109.662 87.1342 107.603 87.0754 106.074 87.1224C108.662 85.8048 111.18 85.3695 113.003 85.2519C113.116 85.2412 113.223 85.1992 113.312 85.1305C113.402 85.0618 113.47 84.9693 113.509 84.8636C115.121 80.5342 115.639 77.9342 115.65 77.8283C115.679 77.6945 115.659 77.555 115.594 77.4345C115.53 77.3139 115.425 77.2201 115.297 77.1695C114.968 77.0401 107.109 73.9695 94.8504 77.4636C94.7328 77.4989 94.6387 77.5577 94.5681 77.6519C92.1798 80.4401 90.4857 84.146 89.5445 86.5577C89.4387 84.4401 89.6387 82.2519 90.1445 80.0519C90.2034 79.8401 90.121 79.6166 89.9563 79.4754C89.7916 79.3342 89.5563 79.2989 89.3563 79.3813C84.9092 81.2283 80.474 83.7695 76.1681 86.9342C76.0975 86.9813 76.0504 87.0519 76.0034 87.1224C73.9681 90.7224 73.3445 95.7342 73.1563 98.7577C72.3328 96.5695 71.8504 94.2048 71.7093 91.6989C71.7036 91.59 71.6675 91.4849 71.6051 91.3955C71.5427 91.3061 71.4565 91.236 71.3563 91.193C71.2538 91.1496 71.1413 91.1354 71.0312 91.152C70.9212 91.1686 70.8179 91.2154 70.7328 91.2872C68.1798 93.5107 65.5798 96.0519 62.9916 98.8283C62.9563 98.8636 62.9328 98.8989 62.9093 98.946C60.8504 102.546 60.2387 107.605 60.0504 110.628C59.4151 108.946 58.9798 107.146 58.7445 105.264C58.734 105.149 58.689 105.041 58.6155 104.953C58.542 104.864 58.4434 104.8 58.3328 104.77C58.0975 104.711 57.8622 104.781 57.7093 104.958C54.8034 108.546 51.9093 112.487 49.1093 116.711C46.3681 120.805 44.6387 125.252 44.0857 129.558C43.474 134.322 44.274 137.617 45.1798 139.664C61.0034 105.393 88.3445 95.2636 88.6151 95.1695C88.7603 95.1167 88.9145 95.0931 89.0689 95.1C89.2232 95.107 89.3747 95.1443 89.5146 95.2099C89.6545 95.2754 89.7801 95.368 89.8841 95.4822C89.9882 95.5964 90.0687 95.73 90.121 95.8754C90.1738 96.0206 90.1974 96.1748 90.1905 96.3291C90.1836 96.4835 90.1462 96.635 90.0807 96.7749C90.0151 96.9148 89.9225 97.0403 89.8083 97.1444C89.6941 97.2485 89.5605 97.3289 89.4151 97.3813C89.1445 97.4754 62.6504 107.334 47.274 140.746C47.0622 141.217 46.8622 141.687 46.6857 142.134L46.7045 142.155C45.2857 145.446 44.4116 148.365 44.0363 151.059C43.9934 151.368 44.075 151.681 44.2632 151.93C44.4514 152.179 44.7308 152.343 45.0398 152.386H45.0481C49.1575 152.931 53.5775 153.201 58.0834 153.201C64.0669 153.201 70.1975 152.725 75.9375 151.784C77.0704 151.599 78.2645 151.364 79.3269 150.722C80.6893 149.897 81.5081 148.526 81.4622 147.146C81.4281 146.099 80.9387 145.27 80.5093 144.538C80.2928 144.173 80.0916 143.83 79.9704 143.502C79.4093 141.985 80.474 140.173 81.8257 139.297C83.4822 138.222 85.641 138.01 87.5351 137.893C90.6351 137.705 93.8269 137.732 96.914 137.759C102.446 137.806 108.167 137.855 113.721 136.682C117.332 135.92 119.51 134.286 120.023 131.957C120.536 129.632 119.1 127.432 117.449 126.282Z"/>
</mask>
<path d="M117.449 126.282C115.803 125.135 113.86 124.712 112.143 124.339C111.993 124.305 111.837 124.302 111.684 124.329C111.532 124.356 111.387 124.413 111.257 124.496C111.127 124.58 111.015 124.688 110.927 124.815C110.839 124.942 110.777 125.085 110.745 125.237C110.711 125.388 110.708 125.544 110.735 125.696C110.763 125.848 110.82 125.993 110.903 126.123C110.987 126.253 111.095 126.366 111.222 126.454C111.349 126.542 111.492 126.604 111.643 126.637C113.216 126.98 114.843 127.335 116.105 128.213C117.079 128.892 118.002 130.194 117.726 131.452C117.328 133.259 114.742 134.061 113.234 134.38C107.93 135.501 102.337 135.451 96.934 135.406C93.8081 135.379 90.574 135.352 87.3916 135.545C85.0387 135.688 82.5798 136.004 80.5457 137.321C78.4469 138.682 76.7575 141.597 77.7622 144.318C77.9563 144.842 78.2234 145.294 78.481 145.732C78.8104 146.293 79.0963 146.777 79.1116 147.222C79.1304 147.819 78.6222 148.399 78.1093 148.71C77.4057 149.133 76.5022 149.306 75.5575 149.462C66.134 151.007 55.6434 151.268 46.5634 150.204C47.0081 147.9 47.8422 145.387 49.0893 142.574C51.0587 142.53 53.2245 142.272 55.5563 141.793C62.3681 140.428 69.1916 137.37 75.274 132.946C77.4975 131.346 79.674 129.664 81.7445 127.934C81.9328 127.781 82.0034 127.522 81.9328 127.287C81.8914 127.175 81.8182 127.077 81.722 127.006C81.6258 126.935 81.511 126.894 81.3916 126.887C79.3445 126.817 76.4975 126.405 73.5916 125.075C76.9093 125.134 82.8034 124.781 88.0269 122.322C88.0847 122.298 88.1368 122.262 88.1798 122.217C91.7798 118.793 95.1328 115.146 98.1563 111.381C98.2247 111.296 98.2676 111.194 98.2801 111.086C98.2926 110.977 98.2742 110.868 98.2269 110.77C98.1815 110.67 98.1088 110.585 98.0173 110.524C97.9257 110.464 97.8189 110.431 97.7093 110.428C95.8269 110.405 92.4034 110.075 88.921 108.334C92.0975 108.111 98.321 107.475 102.18 105.899C102.286 105.864 102.368 105.793 102.439 105.699C106.392 100.052 109.65 94.2048 112.145 88.3224C112.215 88.1577 112.203 87.9695 112.121 87.8048C112.077 87.7296 112.017 87.6646 111.946 87.6139C111.875 87.5632 111.795 87.5281 111.709 87.5107C109.662 87.1342 107.603 87.0754 106.074 87.1224C108.662 85.8048 111.18 85.3695 113.003 85.2519C113.116 85.2412 113.223 85.1992 113.312 85.1305C113.402 85.0618 113.47 84.9693 113.509 84.8636C115.121 80.5342 115.639 77.9342 115.65 77.8283C115.679 77.6945 115.659 77.555 115.594 77.4345C115.53 77.3139 115.425 77.2201 115.297 77.1695C114.968 77.0401 107.109 73.9695 94.8504 77.4636C94.7328 77.4989 94.6387 77.5577 94.5681 77.6519C92.1798 80.4401 90.4857 84.146 89.5445 86.5577C89.4387 84.4401 89.6387 82.2519 90.1445 80.0519C90.2034 79.8401 90.121 79.6166 89.9563 79.4754C89.7916 79.3342 89.5563 79.2989 89.3563 79.3813C84.9092 81.2283 80.474 83.7695 76.1681 86.9342C76.0975 86.9813 76.0504 87.0519 76.0034 87.1224C73.9681 90.7224 73.3445 95.7342 73.1563 98.7577C72.3328 96.5695 71.8504 94.2048 71.7093 91.6989C71.7036 91.59 71.6675 91.4849 71.6051 91.3955C71.5427 91.3061 71.4565 91.236 71.3563 91.193C71.2538 91.1496 71.1413 91.1354 71.0312 91.152C70.9212 91.1686 70.8179 91.2154 70.7328 91.2872C68.1798 93.5107 65.5798 96.0519 62.9916 98.8283C62.9563 98.8636 62.9328 98.8989 62.9093 98.946C60.8504 102.546 60.2387 107.605 60.0504 110.628C59.4151 108.946 58.9798 107.146 58.7445 105.264C58.734 105.149 58.689 105.041 58.6155 104.953C58.542 104.864 58.4434 104.8 58.3328 104.77C58.0975 104.711 57.8622 104.781 57.7093 104.958C54.8034 108.546 51.9093 112.487 49.1093 116.711C46.3681 120.805 44.6387 125.252 44.0857 129.558C43.474 134.322 44.274 137.617 45.1798 139.664C61.0034 105.393 88.3445 95.2636 88.6151 95.1695C88.7603 95.1167 88.9145 95.0931 89.0689 95.1C89.2232 95.107 89.3747 95.1443 89.5146 95.2099C89.6545 95.2754 89.7801 95.368 89.8841 95.4822C89.9882 95.5964 90.0687 95.73 90.121 95.8754C90.1738 96.0206 90.1974 96.1748 90.1905 96.3291C90.1836 96.4835 90.1462 96.635 90.0807 96.7749C90.0151 96.9148 89.9225 97.0403 89.8083 97.1444C89.6941 97.2485 89.5605 97.3289 89.4151 97.3813C89.1445 97.4754 62.6504 107.334 47.274 140.746C47.0622 141.217 46.8622 141.687 46.6857 142.134L46.7045 142.155C45.2857 145.446 44.4116 148.365 44.0363 151.059C43.9934 151.368 44.075 151.681 44.2632 151.93C44.4514 152.179 44.7308 152.343 45.0398 152.386H45.0481C49.1575 152.931 53.5775 153.201 58.0834 153.201C64.0669 153.201 70.1975 152.725 75.9375 151.784C77.0704 151.599 78.2645 151.364 79.3269 150.722C80.6893 149.897 81.5081 148.526 81.4622 147.146C81.4281 146.099 80.9387 145.27 80.5093 144.538C80.2928 144.173 80.0916 143.83 79.9704 143.502C79.4093 141.985 80.474 140.173 81.8257 139.297C83.4822 138.222 85.641 138.01 87.5351 137.893C90.6351 137.705 93.8269 137.732 96.914 137.759C102.446 137.806 108.167 137.855 113.721 136.682C117.332 135.92 119.51 134.286 120.023 131.957C120.536 129.632 119.1 127.432 117.449 126.282Z" fill="url(#paint5_linear_4401_12205)" stroke="white" stroke-opacity="0.1" stroke-width="1.5" mask="url(#path-11-inside-1_4401_12205)"/>
</g>
</g>
<circle cx="698.5" cy="450" r="53.5" fill="white"/>
<g clip-path="url(#clip1_4401_12205)">
<g filter="url(#filter7_ii_4401_12205)">
<rect x="649.566" y="401.066" width="192.619" height="192.619" rx="51.0555" fill="#F7F6F2"/>
</g>
<rect x="649.566" y="401.066" width="192.619" height="192.619" rx="51.0555" fill="url(#paint6_linear_4401_12205)" fill-opacity="0.1"/>
<rect x="649.711" y="401.211" width="192.328" height="192.328" rx="50.9105" stroke="#ACACAC" stroke-opacity="0.1" stroke-width="0.290088"/>
</g>
<circle cx="404.5" cy="125" r="53.5" fill="white"/>
<g clip-path="url(#clip2_4401_12205)">
<g filter="url(#filter8_ii_4401_12205)">
<rect x="355.457" y="75.959" width="177.905" height="177.905" rx="47.1554" fill="#F7F6F2"/>
</g>
<rect x="355.457" y="75.959" width="177.905" height="177.905" rx="47.1554" fill="url(#paint7_linear_4401_12205)" fill-opacity="0.1"/>
<rect x="355.591" y="76.0929" width="177.637" height="177.637" rx="47.0215" stroke="#ACACAC" stroke-opacity="0.1" stroke-width="0.267929"/>
<g clip-path="url(#clip3_4401_12205)">
<g filter="url(#filter9_di_4401_12205)">
<path fill-rule="evenodd" clip-rule="evenodd" d="M403.375 132C403.375 130.178 402.65 128.428 401.363 127.138C400.072 125.849 398.323 125.126 396.5 125.125H384C382.178 125.125 380.428 125.85 379.138 127.138C377.849 128.428 377.126 130.177 377.125 132V144.5C377.125 146.323 377.85 148.073 379.138 149.362C380.428 150.651 382.177 151.374 384 151.375H396.5C398.323 151.375 400.073 150.65 401.363 149.362C402.651 148.072 403.374 146.323 403.375 144.5V132ZM399.625 132V144.5C399.624 145.328 399.294 146.122 398.708 146.708C398.122 147.294 397.328 147.624 396.5 147.625H384C383.172 147.624 382.378 147.294 381.792 146.708C381.206 146.122 380.876 145.328 380.875 144.5V132C380.876 131.172 381.206 130.378 381.792 129.792C382.378 129.206 383.172 128.876 384 128.875H396.5C397.328 128.876 398.122 129.206 398.708 129.792C399.294 130.378 399.624 131.172 399.625 132ZM430.875 132C430.875 130.178 430.15 128.428 428.863 127.138C427.572 125.849 425.823 125.126 424 125.125H411.5C409.678 125.125 407.928 125.85 406.638 127.138C405.349 128.428 404.626 130.177 404.625 132V144.5C404.625 146.323 405.35 148.073 406.638 149.362C407.928 150.651 409.677 151.374 411.5 151.375H424C425.823 151.375 427.573 150.65 428.863 149.362C430.151 148.072 430.874 146.323 430.875 144.5V132ZM423.68 139.877C423.967 139.714 424.206 139.477 424.373 139.191C424.539 138.905 424.626 138.581 424.626 138.25C424.626 137.919 424.539 137.595 424.373 137.309C424.206 137.023 423.967 136.786 423.68 136.623L414.93 131.622C414.645 131.459 414.322 131.373 413.993 131.374C413.665 131.375 413.342 131.462 413.058 131.627C412.774 131.792 412.538 132.028 412.374 132.313C412.21 132.598 412.124 132.921 412.125 133.25V143.25C412.125 143.578 412.211 143.901 412.375 144.185C412.539 144.47 412.775 144.706 413.059 144.871C413.343 145.036 413.665 145.123 413.994 145.124C414.322 145.125 414.645 145.04 414.93 144.877L423.68 139.877Z" fill="url(#paint8_linear_4401_12205)"/>
<path d="M411.75 143.25V143.25V133.251V133.25H412.125L411.75 143.25ZM411.75 143.25C411.75 143.644 411.854 144.031 412.05 144.373L412.375 144.185M411.75 143.25L412.375 144.185M412.375 144.185L412.05 144.373C412.247 144.714 412.53 144.998 412.871 145.196C413.212 145.393 413.598 145.498 413.992 145.499C414.386 145.501 414.774 145.399 415.116 145.203L415.116 145.203M412.375 144.185L415.116 145.203M415.116 145.203L423.865 140.203C423.866 140.203 423.866 140.203 423.866 140.203M415.116 145.203L423.866 140.203M423.866 140.203C424.211 140.007 424.497 139.723 424.697 139.38C424.896 139.037 425.001 138.647 425.001 138.25C425.001 137.853 424.896 137.463 424.697 137.12C424.497 136.777 424.211 136.493 423.866 136.297C423.866 136.297 423.866 136.297 423.865 136.297L415.117 131.297C415.117 131.297 415.117 131.297 415.117 131.297L423.866 140.203ZM400 132V131.999C399.999 131.072 399.629 130.183 398.973 129.527C398.317 128.871 397.428 128.501 396.501 128.5H396.5L384 128.5L383.999 128.5C383.072 128.501 382.183 128.871 381.527 129.527C380.871 130.183 380.501 131.072 380.5 131.999V132L380.5 144.5L380.5 144.501C380.501 145.428 380.871 146.317 381.527 146.973C382.183 147.629 383.072 147.999 383.999 148H384H396.5H396.501C397.428 147.999 398.317 147.629 398.973 146.973C399.629 146.317 399.999 145.428 400 144.501V144.5V132ZM401.097 127.403C402.315 128.622 403 130.277 403 132V144.5C403 144.5 403 144.5 403 144.5C402.999 146.224 402.315 147.877 401.097 149.097C399.878 150.315 398.223 151 396.5 151H384C384 151 384 151 384 151C382.276 150.999 380.623 150.315 379.403 149.097C378.185 147.878 377.5 146.223 377.5 144.5L377.5 132C377.5 132 377.5 132 377.5 132C377.501 130.276 378.185 128.623 379.403 127.403C380.622 126.185 382.277 125.5 384 125.5L396.5 125.5C396.5 125.5 396.5 125.5 396.5 125.5C398.224 125.501 399.877 126.185 401.097 127.403ZM424 125.5C425.724 125.501 427.377 126.185 428.597 127.403C429.815 128.622 430.5 130.277 430.5 132V144.5C430.5 144.5 430.5 144.5 430.5 144.5C430.499 146.224 429.815 147.877 428.597 149.098C427.377 150.315 425.723 151 424 151H411.5C411.5 151 411.5 151 411.5 151C409.776 150.999 408.123 150.315 406.903 149.097C405.685 147.878 405 146.223 405 144.5V132C405 132 405 132 405 132C405.001 130.276 405.685 128.623 406.903 127.403C408.122 126.185 409.777 125.5 411.5 125.5L424 125.5C424 125.5 424 125.5 424 125.5Z" stroke="white" stroke-opacity="0.1" stroke-width="0.75"/>
<path d="M394 135.752C395.036 135.752 395.875 134.912 395.875 133.877C395.875 132.841 395.036 132.002 394 132.002C392.964 132.002 392.125 132.841 392.125 133.877C392.125 134.912 392.964 135.752 394 135.752Z" fill="url(#paint9_linear_4401_12205)"/>
<path d="M395.5 133.877C395.5 134.705 394.828 135.377 394 135.377C393.172 135.377 392.5 134.705 392.5 133.877C392.5 133.049 393.172 132.377 394 132.377C394.828 132.377 395.5 133.049 395.5 133.877Z" stroke="white" stroke-opacity="0.1" stroke-width="0.75"/>
<path fill-rule="evenodd" clip-rule="evenodd" d="M403.375 104.501C403.375 102.678 402.65 100.928 401.363 99.6385C400.072 98.3505 398.323 97.6267 396.5 97.626H384C382.178 97.626 380.428 98.351 379.138 99.6385C377.849 100.929 377.126 102.678 377.125 104.501V117.001C377.125 118.823 377.85 120.573 379.138 121.863C380.428 123.151 382.177 123.875 384 123.876H396.5C398.323 123.876 400.073 123.151 401.363 121.863C402.651 120.573 403.374 118.824 403.375 117.001V104.501ZM393.045 113.508C393.057 113.423 393.063 113.337 393.063 113.251V108.251H393.688C394.185 108.251 394.662 108.053 395.013 107.702C395.365 107.35 395.563 106.873 395.563 106.376C395.563 105.879 395.365 105.402 395.013 105.05C394.662 104.699 394.185 104.501 393.688 104.501H391.188C390.69 104.501 390.213 104.699 389.862 105.05C389.51 105.402 389.313 105.879 389.313 106.376V110.126C388.555 110.126 387.816 110.356 387.191 110.784C386.567 111.213 386.087 111.82 385.814 112.527C385.542 113.233 385.49 114.006 385.665 114.743C385.84 115.48 386.234 116.146 386.795 116.655C387.356 117.163 388.058 117.49 388.809 117.592C389.559 117.694 390.323 117.566 390.999 117.226C391.676 116.885 392.233 116.348 392.598 115.684C392.963 115.021 393.119 114.262 393.045 113.508ZM388.21 140.788L380.48 130.851C380.24 130.543 379.91 130.317 379.536 130.205C379.161 130.094 378.762 130.102 378.392 130.228C378.023 130.355 377.702 130.594 377.475 130.912C377.247 131.23 377.125 131.61 377.125 132.001L379 148.876H400.25L402.125 145.751C402.125 145.505 402.077 145.261 401.982 145.034C401.888 144.806 401.749 144.6 401.575 144.426L396.015 138.866C395.522 138.373 394.879 138.059 394.187 137.974C393.495 137.889 392.795 138.037 392.198 138.396L388.21 140.788ZM430.875 104.501C430.875 102.678 430.15 100.928 428.863 99.6385C427.572 98.3505 425.823 97.6267 424 97.626H411.5C409.678 97.626 407.928 98.351 406.638 99.6385C405.349 100.929 404.626 102.678 404.625 104.501V117.001C404.625 118.823 405.35 120.573 406.638 121.863C407.928 123.151 409.677 123.875 411.5 123.876H424C425.823 123.876 427.573 123.151 428.863 121.863C430.151 120.573 430.874 118.824 430.875 117.001V104.501ZM412.75 116.376H422.75C423.247 116.376 423.724 116.178 424.076 115.827C424.427 115.475 424.625 114.998 424.625 114.501C424.625 114.004 424.427 113.527 424.076 113.175C423.724 112.824 423.247 112.626 422.75 112.626H412.75C412.253 112.626 411.776 112.824 411.424 113.175C411.073 113.527 410.875 114.004 410.875 114.501C410.875 114.998 411.073 115.475 411.424 115.827C411.776 116.178 412.253 116.376 412.75 116.376ZM412.75 108.876H419C419.497 108.876 419.974 108.678 420.326 108.327C420.677 107.975 420.875 107.498 420.875 107.001C420.875 106.504 420.677 106.027 420.326 105.675C419.974 105.324 419.497 105.126 419 105.126H412.75C412.253 105.126 411.776 105.324 411.424 105.675C411.073 106.027 410.875 106.504 410.875 107.001C410.875 107.498 411.073 107.975 411.424 108.327C411.776 108.678 412.253 108.876 412.75 108.876Z" fill="url(#paint10_linear_4401_12205)"/>
<path d="M387.914 141.019L388.118 141.281L388.403 141.11L392.39 138.718C392.916 138.402 393.533 138.271 394.141 138.346C394.75 138.421 395.316 138.697 395.75 139.131L401.31 144.691L401.31 144.692C401.45 144.831 401.561 144.996 401.636 145.177C401.699 145.329 401.736 145.489 401.747 145.652L400.038 148.501H379.336L377.5 131.981C377.504 131.676 377.602 131.379 377.78 131.13C377.961 130.876 378.218 130.685 378.514 130.583C378.809 130.482 379.129 130.475 379.429 130.565C379.728 130.654 379.992 130.835 380.184 131.081L387.914 141.019ZM401.097 99.9036C402.315 101.123 403 102.778 403 104.501V117.001C403 117.001 403 117.001 403 117.001C402.999 118.725 402.315 120.378 401.097 121.598C399.878 122.816 398.223 123.501 396.5 123.501H384C384 123.501 384 123.501 384 123.501C382.276 123.5 380.623 122.816 379.403 121.598C378.185 120.379 377.5 118.724 377.5 117.001L377.5 104.501C377.5 104.501 377.5 104.501 377.5 104.501C377.501 102.777 378.185 101.124 379.403 99.9036C380.622 98.6864 382.277 98.001 384 98.001L396.5 98.001C396.5 98.001 396.5 98.001 396.5 98.001C398.224 98.0017 399.877 98.6859 401.097 99.9036ZM420.591 108.592L420.326 108.327L420.591 108.592C421.013 108.17 421.25 107.598 421.25 107.001C421.25 106.404 421.013 105.832 420.591 105.41L420.326 105.675L420.591 105.41C420.169 104.988 419.597 104.751 419 104.751H412.75C412.153 104.751 411.581 104.988 411.159 105.41C410.737 105.832 410.5 106.404 410.5 107.001C410.5 107.598 410.737 108.17 411.159 108.592C411.581 109.014 412.153 109.251 412.75 109.251H419C419.597 109.251 420.169 109.014 420.591 108.592ZM392.927 115.865C393.321 115.148 393.494 114.33 393.422 113.516L393.045 113.508C393.057 113.423 393.063 113.337 393.063 113.251H393.438V113.25V108.626H393.688C394.284 108.626 394.857 108.389 395.278 107.967C395.7 107.545 395.938 106.973 395.938 106.376C395.938 105.779 395.7 105.207 395.278 104.785C394.857 104.363 394.284 104.126 393.688 104.126H391.188C390.591 104.126 390.018 104.363 389.597 104.785C389.175 105.207 388.938 105.779 388.938 106.376V109.768C388.237 109.832 387.562 110.074 386.979 110.475C386.292 110.946 385.764 111.615 385.464 112.392C385.165 113.169 385.107 114.019 385.3 114.829C385.492 115.64 385.926 116.373 386.543 116.933C387.16 117.492 387.933 117.851 388.758 117.963C389.584 118.076 390.424 117.935 391.168 117.56C391.912 117.186 392.525 116.595 392.927 115.865ZM424 98.001C425.724 98.0017 427.377 98.6859 428.597 99.9035C429.815 101.123 430.5 102.778 430.5 104.501V117.001C430.5 117.001 430.5 117.001 430.5 117.001C430.499 118.725 429.815 120.378 428.597 121.599C427.377 122.816 425.723 123.501 424 123.501H411.5C411.5 123.501 411.5 123.501 411.5 123.501C409.776 123.5 408.123 122.816 406.903 121.598C405.685 120.379 405 118.724 405 117.001V104.501C405 104.501 405 104.501 405 104.501C405.001 102.777 405.685 101.124 406.903 99.9036C408.122 98.6864 409.777 98.001 411.5 98.001L424 98.001C424 98.001 424 98.001 424 98.001ZM412.75 116.751H422.75C423.347 116.751 423.919 116.514 424.341 116.092C424.763 115.67 425 115.098 425 114.501C425 113.904 424.763 113.332 424.341 112.91C423.919 112.488 423.347 112.251 422.75 112.251H412.75C412.153 112.251 411.581 112.488 411.159 112.91C410.737 113.332 410.5 113.904 410.5 114.501C410.5 115.098 410.737 115.67 411.159 116.092C411.581 116.514 412.153 116.751 412.75 116.751Z" stroke="white" stroke-opacity="0.1" stroke-width="0.75"/>
</g>
</g>
</g>
<circle cx="1202.5" cy="83.5" r="73.5" fill="white"/>
<g clip-path="url(#clip4_4401_12205)">
<g filter="url(#filter10_ii_4401_12205)">
<rect x="1135.27" y="16.2744" width="214.605" height="214.605" rx="56.8832" fill="#F7F6F2"/>
</g>
<rect x="1135" y="16.5" width="139" height="138" rx="56.8832" fill="url(#paint11_linear_4401_12205)" fill-opacity="0.1"/>
<rect x="1135.16" y="16.6616" width="138.677" height="137.677" rx="56.7216" stroke="#ACACAC" stroke-opacity="0.1" stroke-width="0.3232"/>
<g filter="url(#filter11_di_4401_12205)">
<mask id="path-33-inside-2_4401_12205" fill="white">
<path fill-rule="evenodd" clip-rule="evenodd" d="M1201.12 120.62H1193.52C1191.9 120.62 1190.58 119.301 1190.58 117.679V109.202C1190.52 109.179 1190.46 109.154 1190.4 109.13L1184.41 115.124C1183.85 115.678 1183.12 115.983 1182.33 115.983C1181.54 115.983 1180.8 115.678 1180.25 115.125L1169.5 104.372C1168.35 103.225 1168.35 101.359 1169.5 100.212L1175.49 94.2191L1175.47 94.1794C1175.46 94.1347 1175.44 94.0898 1175.42 94.0449H1166.94C1165.32 94.0449 1164 92.7257 1164 91.1038V75.898C1164 74.2762 1165.32 72.9566 1166.94 72.9566H1175.42C1175.44 72.8988 1175.47 72.8405 1175.49 72.7826L1169.5 66.7896C1168.35 65.6424 1168.35 63.7765 1169.5 62.6298L1180.25 51.8771C1180.8 51.323 1181.54 51.0182 1182.33 51.0182C1183.12 51.0182 1183.86 51.323 1184.41 51.8766L1190.4 57.8715C1190.46 57.8473 1190.52 57.8232 1190.58 57.7996V49.3224C1190.58 47.7005 1191.9 46.3809 1193.52 46.3809H1201.12C1201.39 46.3809 1201.65 46.4879 1201.84 46.6783C1202.03 46.8688 1202.14 47.1271 1202.14 47.3965V64.6851C1200.7 64.7082 1199.22 64.7434 1198.83 64.7907C1191.69 65.6587 1185.76 70.5448 1183.39 77.1155C1183.36 77.1751 1183.34 77.238 1183.32 77.3034C1182.64 79.2451 1182.27 81.3304 1182.27 83.5004C1182.27 85.6704 1182.64 87.7557 1183.32 89.6976C1183.34 89.762 1183.36 89.824 1183.39 89.8829C1185.74 96.3982 1191.58 101.257 1198.65 102.187C1199.08 102.243 1200.64 102.285 1202.14 102.312V119.605C1202.14 119.874 1202.03 120.132 1201.84 120.323C1201.65 120.513 1201.39 120.62 1201.12 120.62ZM1202.14 66.7534V70.4879H1207.17L1213.79 63.8727C1213.98 63.6823 1214.23 63.5753 1214.5 63.5752H1231.12C1231.6 60.4814 1234.29 58.1084 1237.52 58.1084C1241.09 58.1084 1244 61.0159 1244 64.5898C1244 68.1637 1241.09 71.0714 1237.52 71.0714C1234.29 71.0714 1231.61 68.6993 1231.12 65.6064H1214.92L1208.31 72.2216C1208.12 72.412 1207.86 72.519 1207.59 72.5191H1207.59H1202.14V81.8428H1231.12C1231.61 78.75 1234.29 76.3779 1237.52 76.3779C1241.09 76.3779 1244 79.2854 1244 82.8595C1244 86.4332 1241.09 89.3407 1237.52 89.3407C1234.29 89.3407 1231.6 86.9676 1231.12 83.874H1202.14V93.0736H1207.59C1207.86 93.0736 1208.12 93.1807 1208.31 93.3712L1214.92 99.9867L1231.12 99.9865C1231.6 96.8932 1234.29 94.5205 1237.52 94.5205C1241.09 94.5205 1244 97.428 1244 101.002C1244 104.576 1241.09 107.484 1237.52 107.484C1234.29 107.484 1231.6 105.111 1231.12 102.018H1214.5C1214.23 102.018 1213.98 101.911 1213.79 101.72L1207.17 95.1048H1202.14V100.24C1200.67 100.211 1198.89 100.173 1198.59 100.128C1192.9 99.2666 1188.14 95.5418 1185.82 90.473H1192.92C1193.19 90.473 1193.45 90.366 1193.64 90.1756C1193.83 89.9851 1193.94 89.7268 1193.94 89.4574C1193.94 88.8965 1193.48 88.4418 1192.92 88.4418H1185.05C1184.65 87.1663 1184.41 85.8485 1184.34 84.5163H1192.92C1193.19 84.5163 1193.45 84.4093 1193.64 84.2189C1193.83 84.0284 1193.94 83.7701 1193.94 83.5007C1193.94 82.9398 1193.48 82.4851 1192.92 82.4851H1184.34C1184.42 81.1274 1184.66 79.8124 1185.05 78.5595H1192.92C1193.48 78.5595 1193.94 78.1049 1193.94 77.5438C1193.94 77.2745 1193.83 77.0161 1193.64 76.8257C1193.45 76.6352 1193.19 76.5282 1192.92 76.5282H1185.82C1188.17 71.3826 1193.05 67.6216 1198.85 66.836C1199.1 66.8032 1200.74 66.7757 1202.14 66.7534Z"/>
</mask>
<path fill-rule="evenodd" clip-rule="evenodd" d="M1201.12 120.62H1193.52C1191.9 120.62 1190.58 119.301 1190.58 117.679V109.202C1190.52 109.179 1190.46 109.154 1190.4 109.13L1184.41 115.124C1183.85 115.678 1183.12 115.983 1182.33 115.983C1181.54 115.983 1180.8 115.678 1180.25 115.125L1169.5 104.372C1168.35 103.225 1168.35 101.359 1169.5 100.212L1175.49 94.2191L1175.47 94.1794C1175.46 94.1347 1175.44 94.0898 1175.42 94.0449H1166.94C1165.32 94.0449 1164 92.7257 1164 91.1038V75.898C1164 74.2762 1165.32 72.9566 1166.94 72.9566H1175.42C1175.44 72.8988 1175.47 72.8405 1175.49 72.7826L1169.5 66.7896C1168.35 65.6424 1168.35 63.7765 1169.5 62.6298L1180.25 51.8771C1180.8 51.323 1181.54 51.0182 1182.33 51.0182C1183.12 51.0182 1183.86 51.323 1184.41 51.8766L1190.4 57.8715C1190.46 57.8473 1190.52 57.8232 1190.58 57.7996V49.3224C1190.58 47.7005 1191.9 46.3809 1193.52 46.3809H1201.12C1201.39 46.3809 1201.65 46.4879 1201.84 46.6783C1202.03 46.8688 1202.14 47.1271 1202.14 47.3965V64.6851C1200.7 64.7082 1199.22 64.7434 1198.83 64.7907C1191.69 65.6587 1185.76 70.5448 1183.39 77.1155C1183.36 77.1751 1183.34 77.238 1183.32 77.3034C1182.64 79.2451 1182.27 81.3304 1182.27 83.5004C1182.27 85.6704 1182.64 87.7557 1183.32 89.6976C1183.34 89.762 1183.36 89.824 1183.39 89.8829C1185.74 96.3982 1191.58 101.257 1198.65 102.187C1199.08 102.243 1200.64 102.285 1202.14 102.312V119.605C1202.14 119.874 1202.03 120.132 1201.84 120.323C1201.65 120.513 1201.39 120.62 1201.12 120.62ZM1202.14 66.7534V70.4879H1207.17L1213.79 63.8727C1213.98 63.6823 1214.23 63.5753 1214.5 63.5752H1231.12C1231.6 60.4814 1234.29 58.1084 1237.52 58.1084C1241.09 58.1084 1244 61.0159 1244 64.5898C1244 68.1637 1241.09 71.0714 1237.52 71.0714C1234.29 71.0714 1231.61 68.6993 1231.12 65.6064H1214.92L1208.31 72.2216C1208.12 72.412 1207.86 72.519 1207.59 72.5191H1207.59H1202.14V81.8428H1231.12C1231.61 78.75 1234.29 76.3779 1237.52 76.3779C1241.09 76.3779 1244 79.2854 1244 82.8595C1244 86.4332 1241.09 89.3407 1237.52 89.3407C1234.29 89.3407 1231.6 86.9676 1231.12 83.874H1202.14V93.0736H1207.59C1207.86 93.0736 1208.12 93.1807 1208.31 93.3712L1214.92 99.9867L1231.12 99.9865C1231.6 96.8932 1234.29 94.5205 1237.52 94.5205C1241.09 94.5205 1244 97.428 1244 101.002C1244 104.576 1241.09 107.484 1237.52 107.484C1234.29 107.484 1231.6 105.111 1231.12 102.018H1214.5C1214.23 102.018 1213.98 101.911 1213.79 101.72L1207.17 95.1048H1202.14V100.24C1200.67 100.211 1198.89 100.173 1198.59 100.128C1192.9 99.2666 1188.14 95.5418 1185.82 90.473H1192.92C1193.19 90.473 1193.45 90.366 1193.64 90.1756C1193.83 89.9851 1193.94 89.7268 1193.94 89.4574C1193.94 88.8965 1193.48 88.4418 1192.92 88.4418H1185.05C1184.65 87.1663 1184.41 85.8485 1184.34 84.5163H1192.92C1193.19 84.5163 1193.45 84.4093 1193.64 84.2189C1193.83 84.0284 1193.94 83.7701 1193.94 83.5007C1193.94 82.9398 1193.48 82.4851 1192.92 82.4851H1184.34C1184.42 81.1274 1184.66 79.8124 1185.05 78.5595H1192.92C1193.48 78.5595 1193.94 78.1049 1193.94 77.5438C1193.94 77.2745 1193.83 77.0161 1193.64 76.8257C1193.45 76.6352 1193.19 76.5282 1192.92 76.5282H1185.82C1188.17 71.3826 1193.05 67.6216 1198.85 66.836C1199.1 66.8032 1200.74 66.7757 1202.14 66.7534Z" fill="url(#paint12_linear_4401_12205)"/>
<path d="M1190.58 109.202H1191.33V108.699L1190.86 108.508L1190.58 109.202ZM1190.4 109.13L1190.69 108.438L1190.23 108.244L1189.87 108.6L1190.4 109.13ZM1184.41 115.124L1184.94 115.655L1184.94 115.654L1184.41 115.124ZM1180.25 115.125L1179.72 115.655L1179.72 115.655L1180.25 115.125ZM1169.5 104.372L1168.97 104.902L1168.97 104.902L1169.5 104.372ZM1169.5 100.212L1168.97 99.6819L1168.97 99.6822L1169.5 100.212ZM1175.49 94.2191L1176.02 94.7495L1176.38 94.3944L1176.18 93.9307L1175.49 94.2191ZM1175.47 94.1794L1176.17 93.891L1176.17 93.891L1175.47 94.1794ZM1175.42 94.0449L1176.11 93.7596L1175.92 93.2949H1175.42V94.0449ZM1175.42 72.9566V73.7066H1175.92L1176.11 73.2416L1175.42 72.9566ZM1175.49 72.7826L1176.18 73.0733L1176.38 72.6086L1176.02 72.2522L1175.49 72.7826ZM1169.5 66.7896L1168.97 67.3197L1168.97 67.32L1169.5 66.7896ZM1169.5 62.6298L1168.97 62.0994L1168.97 62.0996L1169.5 62.6298ZM1180.25 51.8771L1179.72 51.3466L1179.72 51.3468L1180.25 51.8771ZM1184.41 51.8766L1184.94 51.3463L1184.94 51.346L1184.41 51.8766ZM1190.4 57.8715L1189.87 58.4018L1190.23 58.7573L1190.69 58.5635L1190.4 57.8715ZM1190.58 57.7996L1190.86 58.494L1191.33 58.3036V57.7996H1190.58ZM1201.84 46.6783L1201.31 47.2087L1201.31 47.2087L1201.84 46.6783ZM1202.14 64.6851L1202.15 65.435L1202.89 65.4231V64.6851H1202.14ZM1198.83 64.7907L1198.93 65.5352L1198.93 65.5352L1198.83 64.7907ZM1183.39 77.1155L1184.07 77.4345L1184.08 77.403L1184.09 77.3703L1183.39 77.1155ZM1183.32 77.3034L1184.03 77.5506L1184.04 77.5164L1184.05 77.4812L1183.32 77.3034ZM1183.32 89.6976L1184.05 89.5207L1184.04 89.485L1184.03 89.4503L1183.32 89.6976ZM1183.39 89.8829L1184.09 89.6282L1184.08 89.5987L1184.07 89.5701L1183.39 89.8829ZM1198.65 102.187L1198.55 102.93L1198.55 102.93L1198.65 102.187ZM1202.14 102.312H1202.89V101.575L1202.15 101.562L1202.14 102.312ZM1201.84 120.323L1201.31 119.792H1201.31L1201.84 120.323ZM1202.14 70.4879H1201.39V71.2379H1202.14V70.4879ZM1202.14 66.7534H1202.89V65.9913L1202.12 66.0035L1202.14 66.7534ZM1207.17 70.4879V71.2379H1207.48L1207.7 71.0182L1207.17 70.4879ZM1213.79 63.8727L1213.26 63.3423L1213.26 63.3424L1213.79 63.8727ZM1214.5 63.5752V62.8252H1214.5L1214.5 63.5752ZM1231.12 63.5752V64.3252H1231.76L1231.86 63.6921L1231.12 63.5752ZM1231.12 65.6064L1231.86 65.4893L1231.76 64.8564H1231.12V65.6064ZM1214.92 65.6064V64.8564H1214.61L1214.39 65.0761L1214.92 65.6064ZM1208.31 72.2216L1208.84 72.7522L1208.84 72.7519L1208.31 72.2216ZM1207.59 72.5191V73.2691H1207.59L1207.59 72.5191ZM1202.14 72.5191V71.7691H1201.39V72.5191H1202.14ZM1202.14 81.8428H1201.39V82.5928H1202.14V81.8428ZM1231.12 81.8428V82.5928H1231.76L1231.86 81.96L1231.12 81.8428ZM1231.12 83.874L1231.86 83.7571L1231.76 83.124H1231.12V83.874ZM1202.14 83.874V83.124H1201.39V83.874H1202.14ZM1202.14 93.0736H1201.39V93.8236H1202.14V93.0736ZM1208.31 93.3712L1207.78 93.9013L1207.78 93.9015L1208.31 93.3712ZM1214.92 99.9867L1214.39 100.517L1214.61 100.737L1214.92 100.737L1214.92 99.9867ZM1231.12 99.9865L1231.12 100.737L1231.76 100.737L1231.86 100.104L1231.12 99.9865ZM1231.12 102.018L1231.86 101.901L1231.76 101.268H1231.12V102.018ZM1214.5 102.018L1214.5 102.768H1214.5V102.018ZM1213.79 101.72L1213.25 102.251L1213.26 102.251L1213.79 101.72ZM1207.17 95.1048L1207.7 94.5745L1207.48 94.3548H1207.17V95.1048ZM1202.14 95.1048V94.3548H1201.39V95.1048H1202.14ZM1202.14 100.24L1202.12 100.99L1202.89 101.005V100.24H1202.14ZM1198.59 100.128L1198.71 99.3862L1198.71 99.3862L1198.59 100.128ZM1185.82 90.473V89.723H1184.65L1185.14 90.785L1185.82 90.473ZM1193.64 90.1756L1193.11 89.6452L1193.11 89.6452L1193.64 90.1756ZM1185.05 88.4418L1184.33 88.6623L1184.49 89.1918H1185.05V88.4418ZM1184.34 84.5163V83.7663H1183.54L1183.59 84.5607L1184.34 84.5163ZM1193.64 84.2189L1193.11 83.6885L1193.11 83.6885L1193.64 84.2189ZM1184.34 82.4851L1183.59 82.4403L1183.54 83.2351H1184.34V82.4851ZM1185.05 78.5595V77.8095H1184.49L1184.33 78.3387L1185.05 78.5595ZM1193.64 76.8257L1193.11 77.356L1193.11 77.356L1193.64 76.8257ZM1185.82 76.5282L1185.14 76.2162L1184.65 77.2782H1185.82V76.5282ZM1198.85 66.836L1198.75 66.0928L1198.75 66.0928L1198.85 66.836ZM1193.52 121.37H1201.12V119.87H1193.52V121.37ZM1189.83 117.679C1189.83 119.715 1191.48 121.37 1193.52 121.37V119.87C1192.31 119.87 1191.33 118.887 1191.33 117.679H1189.83ZM1189.83 109.202V117.679H1191.33V109.202H1189.83ZM1190.11 109.822C1190.17 109.846 1190.23 109.871 1190.29 109.896L1190.86 108.508C1190.81 108.486 1190.75 108.462 1190.69 108.438L1190.11 109.822ZM1184.94 115.654L1190.93 109.661L1189.87 108.6L1183.88 114.594L1184.94 115.654ZM1182.33 116.733C1183.31 116.733 1184.24 116.35 1184.94 115.655L1183.88 114.593C1183.47 115.006 1182.92 115.233 1182.33 115.233V116.733ZM1179.72 115.655C1180.42 116.35 1181.35 116.733 1182.33 116.733V115.233C1181.74 115.233 1181.19 115.006 1180.78 114.594L1179.72 115.655ZM1168.97 104.902L1179.72 115.655L1180.78 114.594L1170.03 103.842L1168.97 104.902ZM1168.97 99.6822C1167.53 101.122 1167.53 103.463 1168.97 104.902L1170.03 103.842C1169.17 102.988 1169.17 101.596 1170.03 100.742L1168.97 99.6822ZM1174.96 93.6888L1168.97 99.6819L1170.03 100.743L1176.02 94.7495L1174.96 93.6888ZM1174.78 94.4678L1174.8 94.5075L1176.18 93.9307L1176.17 93.891L1174.78 94.4678ZM1174.72 94.3302C1174.74 94.3769 1174.76 94.4234 1174.78 94.4679L1176.17 93.891C1176.15 93.846 1176.13 93.8026 1176.11 93.7596L1174.72 94.3302ZM1166.94 94.7949H1175.42V93.2949H1166.94V94.7949ZM1163.25 91.1038C1163.25 93.1399 1164.91 94.7949 1166.94 94.7949V93.2949C1165.74 93.2949 1164.75 92.3115 1164.75 91.1038H1163.25ZM1163.25 75.898V91.1038H1164.75V75.898H1163.25ZM1166.94 72.2066C1164.91 72.2066 1163.25 73.8621 1163.25 75.898H1164.75C1164.75 74.6903 1165.74 73.7066 1166.94 73.7066V72.2066ZM1175.42 72.2066H1166.94V73.7066H1175.42V72.2066ZM1174.8 72.4919C1174.77 72.5518 1174.75 72.612 1174.72 72.6717L1176.11 73.2416C1176.14 73.1857 1176.16 73.1293 1176.18 73.0733L1174.8 72.4919ZM1168.97 67.32L1174.96 73.3129L1176.02 72.2522L1170.03 66.2593L1168.97 67.32ZM1168.97 62.0996C1167.53 63.5393 1167.53 65.8798 1168.97 67.3197L1170.03 66.2595C1169.17 65.4051 1169.17 64.0137 1170.03 63.1599L1168.97 62.0996ZM1179.72 51.3468L1168.97 62.0994L1170.03 63.1601L1180.78 52.4074L1179.72 51.3468ZM1182.33 50.2682C1181.35 50.2682 1180.42 50.6513 1179.72 51.3466L1180.78 52.4077C1181.19 51.9948 1181.74 51.7682 1182.33 51.7682V50.2682ZM1184.94 51.346C1184.24 50.6512 1183.31 50.2682 1182.33 50.2682V51.7682C1182.92 51.7682 1183.47 51.9949 1183.88 52.4073L1184.94 51.346ZM1190.93 57.3412L1184.94 51.3463L1183.88 52.4069L1189.87 58.4018L1190.93 57.3412ZM1190.29 57.1052C1190.23 57.1301 1190.17 57.1553 1190.11 57.1795L1190.69 58.5635C1190.75 58.5392 1190.81 58.5163 1190.86 58.494L1190.29 57.1052ZM1189.83 49.3224V57.7996H1191.33V49.3224H1189.83ZM1193.52 45.6309C1191.48 45.6309 1189.83 47.2865 1189.83 49.3224H1191.33C1191.33 48.1146 1192.31 47.1309 1193.52 47.1309V45.6309ZM1201.12 45.6309H1193.52V47.1309H1201.12V45.6309ZM1202.37 46.148C1202.04 45.8169 1201.59 45.6309 1201.12 45.6309V47.1309C1201.19 47.1309 1201.26 47.1588 1201.31 47.2087L1202.37 46.148ZM1202.89 47.3965C1202.89 46.9282 1202.7 46.4791 1202.37 46.148L1201.31 47.2087C1201.36 47.2585 1201.39 47.326 1201.39 47.3965H1202.89ZM1202.89 64.6851V47.3965H1201.39V64.6851H1202.89ZM1198.93 65.5352C1199.26 65.494 1200.68 65.4585 1202.15 65.435L1202.12 63.9352C1200.71 63.9579 1199.18 63.9927 1198.74 64.0462L1198.93 65.5352ZM1184.09 77.3703C1186.37 71.0598 1192.06 66.3683 1198.93 65.5352L1198.74 64.0462C1191.31 64.949 1185.15 70.0298 1182.68 76.8608L1184.09 77.3703ZM1184.05 77.4812C1184.05 77.4625 1184.06 77.447 1184.07 77.4345L1182.71 76.7966C1182.66 76.9031 1182.62 77.0135 1182.59 77.1256L1184.05 77.4812ZM1183.02 83.5004C1183.02 81.4161 1183.38 79.4143 1184.03 77.5506L1182.61 77.0561C1181.91 79.0758 1181.52 81.2447 1181.52 83.5004H1183.02ZM1184.03 89.4503C1183.38 87.5865 1183.02 85.5847 1183.02 83.5004H1181.52C1181.52 85.7561 1181.91 87.9249 1182.61 89.9448L1184.03 89.4503ZM1184.07 89.5701C1184.06 89.5531 1184.05 89.5365 1184.05 89.5207L1182.59 89.8745C1182.62 89.9874 1182.66 90.0949 1182.7 90.1957L1184.07 89.5701ZM1198.75 101.443C1191.97 100.551 1186.35 95.8854 1184.09 89.6282L1182.68 90.1375C1185.13 96.911 1191.2 101.964 1198.55 102.93L1198.75 101.443ZM1202.15 101.562C1200.62 101.535 1199.12 101.492 1198.75 101.443L1198.55 102.93C1199.03 102.994 1200.65 103.035 1202.12 103.062L1202.15 101.562ZM1202.89 119.605V102.312H1201.39V119.605H1202.89ZM1202.37 120.853C1202.7 120.522 1202.89 120.073 1202.89 119.605H1201.39C1201.39 119.675 1201.36 119.743 1201.31 119.792L1202.37 120.853ZM1201.12 121.37C1201.59 121.37 1202.04 121.184 1202.37 120.853L1201.31 119.792C1201.26 119.842 1201.19 119.87 1201.12 119.87V121.37ZM1202.89 70.4879V66.7534H1201.39V70.4879H1202.89ZM1207.17 69.7379H1202.14V71.2379H1207.17V69.7379ZM1213.26 63.3424L1206.64 69.9575L1207.7 71.0182L1214.32 64.403L1213.26 63.3424ZM1214.5 62.8252C1214.04 62.8253 1213.59 63.0113 1213.26 63.3423L1214.32 64.4031C1214.37 64.3532 1214.43 64.3252 1214.5 64.3252L1214.5 62.8252ZM1231.12 62.8252H1214.5V64.3252H1231.12V62.8252ZM1237.52 57.3584C1233.91 57.3584 1230.92 60.0061 1230.37 63.4582L1231.86 63.6921C1232.29 60.9568 1234.66 58.8584 1237.52 58.8584V57.3584ZM1244.75 64.5898C1244.75 60.6017 1241.51 57.3584 1237.52 57.3584V58.8584C1240.68 58.8584 1243.25 61.4301 1243.25 64.5898H1244.75ZM1237.52 71.8214C1241.51 71.8214 1244.75 68.5779 1244.75 64.5898H1243.25C1243.25 67.7495 1240.68 70.3214 1237.52 70.3214V71.8214ZM1230.38 65.7236C1230.92 69.1747 1233.91 71.8214 1237.52 71.8214V70.3214C1234.66 70.3214 1232.29 68.2238 1231.86 65.4893L1230.38 65.7236ZM1214.92 66.3564H1231.12V64.8564H1214.92V66.3564ZM1208.84 72.7519L1215.45 66.1368L1214.39 65.0761L1207.78 71.6913L1208.84 72.7519ZM1207.59 73.2691C1208.06 73.269 1208.51 73.0831 1208.84 72.7522L1207.78 71.691C1207.73 71.741 1207.66 71.7691 1207.59 71.7691L1207.59 73.2691ZM1207.59 73.2691H1207.59V71.7691H1207.59V73.2691ZM1202.14 73.2691H1207.59V71.7691H1202.14V73.2691ZM1202.89 81.8428V72.5191H1201.39V81.8428H1202.89ZM1231.12 81.0928H1202.14V82.5928H1231.12V81.0928ZM1237.52 75.6279C1233.91 75.6279 1230.92 78.2745 1230.38 81.7256L1231.86 81.96C1232.29 79.2254 1234.66 77.1279 1237.52 77.1279V75.6279ZM1244.75 82.8595C1244.75 78.8712 1241.51 75.6279 1237.52 75.6279V77.1279C1240.68 77.1279 1243.25 79.6997 1243.25 82.8595H1244.75ZM1237.52 90.0907C1241.51 90.0907 1244.75 86.8475 1244.75 82.8595H1243.25C1243.25 86.019 1240.68 88.5907 1237.52 88.5907V90.0907ZM1230.37 83.991C1230.92 87.4429 1233.91 90.0907 1237.52 90.0907V88.5907C1234.66 88.5907 1232.29 86.4923 1231.86 83.7571L1230.37 83.991ZM1202.14 84.624H1231.12V83.124H1202.14V84.624ZM1202.89 93.0736V83.874H1201.39V93.0736H1202.89ZM1207.59 92.3236H1202.14V93.8236H1207.59V92.3236ZM1208.84 92.8411C1208.51 92.5099 1208.06 92.3236 1207.59 92.3236V93.8236C1207.66 93.8236 1207.73 93.8516 1207.78 93.9013L1208.84 92.8411ZM1215.45 99.4564L1208.84 92.8409L1207.78 93.9015L1214.39 100.517L1215.45 99.4564ZM1231.12 99.2365L1214.92 99.2367L1214.92 100.737L1231.12 100.737L1231.12 99.2365ZM1231.86 100.104C1232.29 97.3686 1234.66 95.2705 1237.52 95.2705V93.7705C1233.91 93.7705 1230.92 96.4178 1230.37 99.8695L1231.86 100.104ZM1237.52 95.2705C1240.68 95.2705 1243.25 97.8422 1243.25 101.002H1244.75C1244.75 97.0138 1241.51 93.7705 1237.52 93.7705V95.2705ZM1243.25 101.002C1243.25 104.162 1240.68 106.734 1237.52 106.734V108.234C1241.51 108.234 1244.75 104.99 1244.75 101.002H1243.25ZM1237.52 106.734C1234.66 106.734 1232.29 104.636 1231.86 101.901L1230.37 102.135C1230.92 105.586 1233.91 108.234 1237.52 108.234V106.734ZM1214.5 102.768H1231.12V101.268H1214.5V102.768ZM1213.26 102.251C1213.59 102.582 1214.04 102.768 1214.5 102.768L1214.5 101.268C1214.43 101.268 1214.37 101.24 1214.32 101.19L1213.26 102.251ZM1206.64 95.6351L1213.25 102.251L1214.32 101.19L1207.7 94.5745L1206.64 95.6351ZM1202.14 95.8548H1207.17V94.3548H1202.14V95.8548ZM1202.89 100.24V95.1048H1201.39V100.24H1202.89ZM1198.48 100.869C1198.69 100.901 1199.27 100.922 1199.91 100.94C1200.57 100.958 1201.39 100.975 1202.12 100.99L1202.15 99.4899C1201.42 99.4753 1200.61 99.4587 1199.95 99.4401C1199.62 99.4308 1199.33 99.4211 1199.1 99.4111C1198.99 99.406 1198.9 99.401 1198.82 99.3961C1198.79 99.3937 1198.76 99.3914 1198.74 99.3894C1198.71 99.3872 1198.71 99.386 1198.71 99.3862L1198.48 100.869ZM1185.14 90.785C1187.56 96.078 1192.53 99.9694 1198.48 100.869L1198.71 99.3862C1193.27 98.5639 1188.72 95.0055 1186.5 90.161L1185.14 90.785ZM1192.92 89.723H1185.82V91.223H1192.92V89.723ZM1193.11 89.6452C1193.06 89.6951 1192.99 89.723 1192.92 89.723V91.223C1193.39 91.223 1193.84 91.037 1194.17 90.7059L1193.11 89.6452ZM1193.19 89.4574C1193.19 89.5279 1193.16 89.5954 1193.11 89.6452L1194.17 90.7059C1194.5 90.3748 1194.69 89.9257 1194.69 89.4574H1193.19ZM1192.92 89.1918C1193.07 89.1918 1193.19 89.3107 1193.19 89.4574H1194.69C1194.69 88.4823 1193.9 87.6918 1192.92 87.6918V89.1918ZM1185.05 89.1918H1192.92V87.6918H1185.05V89.1918ZM1183.59 84.5607C1183.67 85.9526 1183.92 87.3296 1184.33 88.6623L1185.76 88.2213C1185.39 87.003 1185.16 85.7443 1185.08 84.472L1183.59 84.5607ZM1192.92 83.7663H1184.34V85.2663H1192.92V83.7663ZM1193.11 83.6885C1193.06 83.7383 1192.99 83.7663 1192.92 83.7663V85.2663C1193.39 85.2663 1193.84 85.0803 1194.17 84.7492L1193.11 83.6885ZM1193.19 83.5007C1193.19 83.5712 1193.16 83.6387 1193.11 83.6885L1194.17 84.7492C1194.5 84.4181 1194.69 83.969 1194.69 83.5007H1193.19ZM1192.92 83.2351C1193.07 83.2351 1193.19 83.354 1193.19 83.5007H1194.69C1194.69 82.5256 1193.9 81.7351 1192.92 81.7351V83.2351ZM1184.34 83.2351H1192.92V81.7351H1184.34V83.2351ZM1184.33 78.3387C1183.93 79.6485 1183.67 81.0226 1183.59 82.4403L1185.08 82.5299C1185.16 81.2323 1185.39 79.9763 1185.76 78.7802L1184.33 78.3387ZM1192.92 77.8095H1185.05V79.3095H1192.92V77.8095ZM1193.19 77.5438C1193.19 77.6906 1193.07 77.8095 1192.92 77.8095V79.3095C1193.9 79.3095 1194.69 78.5192 1194.69 77.5438H1193.19ZM1193.11 77.356C1193.16 77.4058 1193.19 77.4734 1193.19 77.5438H1194.69C1194.69 77.0756 1194.5 76.6265 1194.17 76.2953L1193.11 77.356ZM1192.92 77.2782C1192.99 77.2782 1193.06 77.3062 1193.11 77.356L1194.17 76.2953C1193.84 75.9642 1193.39 75.7782 1192.92 75.7782V77.2782ZM1185.82 77.2782H1192.92V75.7782H1185.82V77.2782ZM1198.75 66.0928C1192.69 66.9138 1187.6 70.843 1185.14 76.2162L1186.5 76.8402C1188.75 71.9221 1193.41 68.3294 1198.96 67.5792L1198.75 66.0928ZM1202.12 66.0035C1201.43 66.0146 1200.67 66.0271 1200.05 66.0409C1199.46 66.054 1198.93 66.0691 1198.75 66.0928L1198.96 67.5793C1198.95 67.5796 1198.98 67.5768 1199.05 67.5728C1199.11 67.5693 1199.2 67.5656 1199.3 67.5619C1199.51 67.5546 1199.77 67.5474 1200.08 67.5406C1200.69 67.5269 1201.45 67.5144 1202.15 67.5033L1202.12 66.0035Z" fill="white" fill-opacity="0.1" mask="url(#path-33-inside-2_4401_12205)"/>
</g>
</g>
<g filter="url(#filter12_di_4401_12205)">
<mask id="path-35-inside-3_4401_12205" fill="white">
<path fill-rule="evenodd" clip-rule="evenodd" d="M680.671 467.011L685.039 474.965C685.684 476.142 685.308 477.627 684.146 478.298C682.983 478.968 681.458 478.582 680.813 477.405L675.836 468.339C675.999 468.31 676.162 468.274 676.324 468.23C677.79 467.838 679.221 467.403 680.671 467.012V467.011ZM714.536 422.375C720.937 422.375 726.126 426.066 726.126 430.619C726.126 435.172 720.937 438.863 714.536 438.863C712.303 438.863 710.219 438.414 708.45 437.636C708.257 437.552 708.051 437.572 707.877 437.693L704.216 440.264C703.965 440.439 703.641 440.173 703.764 439.893L705.382 436.213C705.483 435.982 705.431 435.725 705.25 435.553C703.804 434.177 702.947 432.47 702.947 430.62C702.947 426.068 708.136 422.376 714.537 422.376L714.536 422.375ZM707.846 459.962C707.711 459.885 707.613 459.757 707.573 459.608C707.532 459.458 707.553 459.299 707.63 459.165C707.707 459.031 707.834 458.933 707.984 458.892C708.133 458.852 708.292 458.872 708.427 458.949L712.931 461.55C713.066 461.627 713.164 461.754 713.204 461.903C713.245 462.053 713.224 462.212 713.147 462.346C713.07 462.481 712.943 462.579 712.793 462.619C712.644 462.66 712.485 462.639 712.35 462.562L707.846 459.962ZM705.567 448.273C705.49 448.408 705.362 448.505 705.212 448.545C705.062 448.585 704.902 448.564 704.768 448.487C704.634 448.409 704.536 448.281 704.496 448.131C704.456 447.981 704.477 447.822 704.555 447.688L707.155 443.183C707.233 443.049 707.361 442.951 707.511 442.911C707.661 442.871 707.82 442.892 707.955 442.97C708.089 443.047 708.186 443.175 708.226 443.325C708.266 443.475 708.245 443.634 708.168 443.769L705.567 448.273ZM709.126 453.646C708.815 453.73 708.494 453.545 708.41 453.232C708.327 452.919 708.512 452.599 708.825 452.516L713.849 451.169C714.161 451.086 714.482 451.271 714.565 451.584C714.648 451.896 714.463 452.217 714.15 452.3L709.126 453.646ZM721.363 428.334H708.717C708.394 428.334 708.131 428.596 708.131 428.92C708.131 429.243 708.394 429.506 708.717 429.506H721.363C721.687 429.506 721.949 429.243 721.949 428.92C721.949 428.596 721.687 428.334 721.363 428.334ZM708.717 431.735C708.563 431.735 708.414 431.796 708.305 431.906C708.195 432.015 708.134 432.164 708.134 432.318C708.134 432.473 708.195 432.622 708.305 432.731C708.414 432.84 708.563 432.902 708.717 432.902L717.062 432.874C717.217 432.874 717.366 432.812 717.475 432.703C717.584 432.593 717.646 432.445 717.646 432.29C717.646 432.135 717.584 431.987 717.475 431.878C717.366 431.768 717.217 431.707 717.062 431.707L708.717 431.735ZM672.052 429.403H686.226C687.424 429.403 688.402 430.38 688.402 431.579V440.496C688.402 441.695 687.424 442.672 686.226 442.672H672.052C670.853 442.672 669.876 441.695 669.876 440.496V431.579C669.876 430.38 670.853 429.403 672.052 429.403ZM681.976 436.698C682.486 436.404 682.486 435.672 681.976 435.378L678.477 433.358C677.967 433.064 677.335 433.429 677.335 434.018V438.058C677.335 438.646 677.967 439.012 678.477 438.718L681.976 436.698ZM722.527 470.03C722.527 467.879 720.924 466.135 718.946 466.135C717.516 466.135 716.282 467.046 715.708 468.363C715.133 467.046 713.899 466.135 712.47 466.135C710.492 466.135 708.889 467.879 708.889 470.03C708.889 472.489 713.524 476.602 715.166 478.38C715.465 478.704 715.95 478.704 716.249 478.38C717.891 476.604 722.527 472.489 722.527 470.03ZM695.056 440.864C694.056 441.132 693.456 442.169 693.724 443.169L700.724 469.29C700.992 470.289 702.03 470.889 703.029 470.621C704.029 470.353 704.629 469.316 704.36 468.316L697.361 442.195C697.092 441.195 696.055 440.595 695.056 440.864ZM682.846 465.268C682.507 465.341 682.192 465.412 681.894 465.482L679.322 455.882C679.615 455.793 679.924 455.697 680.254 455.592C687.232 453.346 691.278 449.742 693.352 446.304L698.834 466.764C695.318 464.824 690.012 463.725 682.846 465.269V465.268ZM680.758 465.764L678.197 456.207C676.651 456.632 675.415 456.888 673.428 457.421C670.861 458.109 669.325 460.77 670.058 463.51C670.792 466.249 673.455 467.786 676.021 467.098C678.008 466.566 679.207 466.169 680.758 465.765V465.764ZM701.212 452.035L702.855 452.049C703.483 452.055 704.011 452.464 704.174 453.071L704.822 455.489C704.985 456.096 704.732 456.714 704.19 457.033L702.775 457.868L701.212 452.034V452.035Z"/>
</mask>
<path fill-rule="evenodd" clip-rule="evenodd" d="M680.671 467.011L685.039 474.965C685.684 476.142 685.308 477.627 684.146 478.298C682.983 478.968 681.458 478.582 680.813 477.405L675.836 468.339C675.999 468.31 676.162 468.274 676.324 468.23C677.79 467.838 679.221 467.403 680.671 467.012V467.011ZM714.536 422.375C720.937 422.375 726.126 426.066 726.126 430.619C726.126 435.172 720.937 438.863 714.536 438.863C712.303 438.863 710.219 438.414 708.45 437.636C708.257 437.552 708.051 437.572 707.877 437.693L704.216 440.264C703.965 440.439 703.641 440.173 703.764 439.893L705.382 436.213C705.483 435.982 705.431 435.725 705.25 435.553C703.804 434.177 702.947 432.47 702.947 430.62C702.947 426.068 708.136 422.376 714.537 422.376L714.536 422.375ZM707.846 459.962C707.711 459.885 707.613 459.757 707.573 459.608C707.532 459.458 707.553 459.299 707.63 459.165C707.707 459.031 707.834 458.933 707.984 458.892C708.133 458.852 708.292 458.872 708.427 458.949L712.931 461.55C713.066 461.627 713.164 461.754 713.204 461.903C713.245 462.053 713.224 462.212 713.147 462.346C713.07 462.481 712.943 462.579 712.793 462.619C712.644 462.66 712.485 462.639 712.35 462.562L707.846 459.962ZM705.567 448.273C705.49 448.408 705.362 448.505 705.212 448.545C705.062 448.585 704.902 448.564 704.768 448.487C704.634 448.409 704.536 448.281 704.496 448.131C704.456 447.981 704.477 447.822 704.555 447.688L707.155 443.183C707.233 443.049 707.361 442.951 707.511 442.911C707.661 442.871 707.82 442.892 707.955 442.97C708.089 443.047 708.186 443.175 708.226 443.325C708.266 443.475 708.245 443.634 708.168 443.769L705.567 448.273ZM709.126 453.646C708.815 453.73 708.494 453.545 708.41 453.232C708.327 452.919 708.512 452.599 708.825 452.516L713.849 451.169C714.161 451.086 714.482 451.271 714.565 451.584C714.648 451.896 714.463 452.217 714.15 452.3L709.126 453.646ZM721.363 428.334H708.717C708.394 428.334 708.131 428.596 708.131 428.92C708.131 429.243 708.394 429.506 708.717 429.506H721.363C721.687 429.506 721.949 429.243 721.949 428.92C721.949 428.596 721.687 428.334 721.363 428.334ZM708.717 431.735C708.563 431.735 708.414 431.796 708.305 431.906C708.195 432.015 708.134 432.164 708.134 432.318C708.134 432.473 708.195 432.622 708.305 432.731C708.414 432.84 708.563 432.902 708.717 432.902L717.062 432.874C717.217 432.874 717.366 432.812 717.475 432.703C717.584 432.593 717.646 432.445 717.646 432.29C717.646 432.135 717.584 431.987 717.475 431.878C717.366 431.768 717.217 431.707 717.062 431.707L708.717 431.735ZM672.052 429.403H686.226C687.424 429.403 688.402 430.38 688.402 431.579V440.496C688.402 441.695 687.424 442.672 686.226 442.672H672.052C670.853 442.672 669.876 441.695 669.876 440.496V431.579C669.876 430.38 670.853 429.403 672.052 429.403ZM681.976 436.698C682.486 436.404 682.486 435.672 681.976 435.378L678.477 433.358C677.967 433.064 677.335 433.429 677.335 434.018V438.058C677.335 438.646 677.967 439.012 678.477 438.718L681.976 436.698ZM722.527 470.03C722.527 467.879 720.924 466.135 718.946 466.135C717.516 466.135 716.282 467.046 715.708 468.363C715.133 467.046 713.899 466.135 712.47 466.135C710.492 466.135 708.889 467.879 708.889 470.03C708.889 472.489 713.524 476.602 715.166 478.38C715.465 478.704 715.95 478.704 716.249 478.38C717.891 476.604 722.527 472.489 722.527 470.03ZM695.056 440.864C694.056 441.132 693.456 442.169 693.724 443.169L700.724 469.29C700.992 470.289 702.03 470.889 703.029 470.621C704.029 470.353 704.629 469.316 704.36 468.316L697.361 442.195C697.092 441.195 696.055 440.595 695.056 440.864ZM682.846 465.268C682.507 465.341 682.192 465.412 681.894 465.482L679.322 455.882C679.615 455.793 679.924 455.697 680.254 455.592C687.232 453.346 691.278 449.742 693.352 446.304L698.834 466.764C695.318 464.824 690.012 463.725 682.846 465.269V465.268ZM680.758 465.764L678.197 456.207C676.651 456.632 675.415 456.888 673.428 457.421C670.861 458.109 669.325 460.77 670.058 463.51C670.792 466.249 673.455 467.786 676.021 467.098C678.008 466.566 679.207 466.169 680.758 465.765V465.764ZM701.212 452.035L702.855 452.049C703.483 452.055 704.011 452.464 704.174 453.071L704.822 455.489C704.985 456.096 704.732 456.714 704.19 457.033L702.775 457.868L701.212 452.034V452.035Z" fill="url(#paint13_linear_4401_12205)" stroke="white" stroke-opacity="0.1" stroke-width="2" mask="url(#path-35-inside-3_4401_12205)"/>
</g>
<defs>
<filter id="filter0_f_4401_12205" x="69" y="30.5" width="181.5" height="198" filterUnits="userSpaceOnUse" color-interpolation-filters="sRGB">
<feFlood flood-opacity="0" result="BackgroundImageFix"/>
<feBlend mode="normal" in="SourceGraphic" in2="BackgroundImageFix" result="shape"/>
<feGaussianBlur stdDeviation="5" result="effect1_foregroundBlur_4401_12205"/>
</filter>
<filter id="filter1_f_4401_12205" x="1168" y="0.5" width="181" height="193" filterUnits="userSpaceOnUse" color-interpolation-filters="sRGB">
<feFlood flood-opacity="0" result="BackgroundImageFix"/>
<feBlend mode="normal" in="SourceGraphic" in2="BackgroundImageFix" result="shape"/>
<feGaussianBlur stdDeviation="5" result="effect1_foregroundBlur_4401_12205"/>
</filter>
<filter id="filter2_f_4401_12205" x="382" y="64.5" width="123" height="134" filterUnits="userSpaceOnUse" color-interpolation-filters="sRGB">
<feFlood flood-opacity="0" result="BackgroundImageFix"/>
<feBlend mode="normal" in="SourceGraphic" in2="BackgroundImageFix" result="shape"/>
<feGaussianBlur stdDeviation="5" result="effect1_foregroundBlur_4401_12205"/>
</filter>
<filter id="filter3_f_4401_12205" x="680" y="383.5" width="123" height="134" filterUnits="userSpaceOnUse" color-interpolation-filters="sRGB">
<feFlood flood-opacity="0" result="BackgroundImageFix"/>
<feBlend mode="normal" in="SourceGraphic" in2="BackgroundImageFix" result="shape"/>
<feGaussianBlur stdDeviation="5" result="effect1_foregroundBlur_4401_12205"/>
</filter>
<filter id="filter4_i_4401_12205" x="19" y="117.5" width="1240" height="314" filterUnits="userSpaceOnUse" color-interpolation-filters="sRGB">
<feFlood flood-opacity="0" result="BackgroundImageFix"/>
<feBlend mode="normal" in="SourceGraphic" in2="BackgroundImageFix" result="shape"/>
<feColorMatrix in="SourceAlpha" type="matrix" values="0 0 0 0 0 0 0 0 0 0 0 0 0 0 0 0 0 0 127 0" result="hardAlpha"/>
<feOffset dy="4"/>
<feGaussianBlur stdDeviation="15.1"/>
<feComposite in2="hardAlpha" operator="arithmetic" k2="-1" k3="1"/>
<feColorMatrix type="matrix" values="0 0 0 0 0.0199943 0 0 0 0 0.406667 0 0 0 0 0.311756 0 0 0 1 0"/>
<feBlend mode="normal" in2="shape" result="effect1_innerShadow_4401_12205"/>
</filter>
<filter id="filter5_ii_4401_12205" x="7" y="39.5" width="239.424" height="239.423" filterUnits="userSpaceOnUse" color-interpolation-filters="sRGB">
<feFlood flood-opacity="0" result="BackgroundImageFix"/>
<feBlend mode="normal" in="SourceGraphic" in2="BackgroundImageFix" result="shape"/>
<feColorMatrix in="SourceAlpha" type="matrix" values="0 0 0 0 0 0 0 0 0 0 0 0 0 0 0 0 0 0 127 0" result="hardAlpha"/>
<feOffset/>
<feGaussianBlur stdDeviation="1.44231"/>
<feComposite in2="hardAlpha" operator="arithmetic" k2="-1" k3="1"/>
<feColorMatrix type="matrix" values="0 0 0 0 1 0 0 0 0 1 0 0 0 0 1 0 0 0 0.1 0"/>
<feBlend mode="normal" in2="shape" result="effect1_innerShadow_4401_12205"/>
<feColorMatrix in="SourceAlpha" type="matrix" values="0 0 0 0 0 0 0 0 0 0 0 0 0 0 0 0 0 0 127 0" result="hardAlpha"/>
<feOffset/>
<feGaussianBlur stdDeviation="1.44231"/>
<feComposite in2="hardAlpha" operator="arithmetic" k2="-1" k3="1"/>
<feColorMatrix type="matrix" values="0 0 0 0 1 0 0 0 0 1 0 0 0 0 1 0 0 0 0.1 0"/>
<feBlend mode="normal" in2="effect1_innerShadow_4401_12205" result="effect2_innerShadow_4401_12205"/>
</filter>
<filter id="filter6_di_4401_12205" x="39.75" y="73.75" width="84.5" height="84.5" filterUnits="userSpaceOnUse" color-interpolation-filters="sRGB">
<feFlood flood-opacity="0" result="BackgroundImageFix"/>
<feColorMatrix in="SourceAlpha" type="matrix" values="0 0 0 0 0 0 0 0 0 0 0 0 0 0 0 0 0 0 127 0" result="hardAlpha"/>
<feOffset dy="1.5"/>
<feGaussianBlur stdDeviation="1.125"/>
<feColorMatrix type="matrix" values="0 0 0 0 0 0 0 0 0 0 0 0 0 0 0 0 0 0 0.25 0"/>
<feBlend mode="normal" in2="BackgroundImageFix" result="effect1_dropShadow_4401_12205"/>
<feBlend mode="normal" in="SourceGraphic" in2="effect1_dropShadow_4401_12205" result="shape"/>
<feColorMatrix in="SourceAlpha" type="matrix" values="0 0 0 0 0 0 0 0 0 0 0 0 0 0 0 0 0 0 127 0" result="hardAlpha"/>
<feOffset/>
<feGaussianBlur stdDeviation="3"/>
<feComposite in2="hardAlpha" operator="arithmetic" k2="-1" k3="1"/>
<feColorMatrix type="matrix" values="0 0 0 0 1 0 0 0 0 1 0 0 0 0 1 0 0 0 0.2 0"/>
<feBlend mode="normal" in2="shape" result="effect2_innerShadow_4401_12205"/>
</filter>
<filter id="filter7_ii_4401_12205" x="649.566" y="401.066" width="192.619" height="192.618" filterUnits="userSpaceOnUse" color-interpolation-filters="sRGB">
<feFlood flood-opacity="0" result="BackgroundImageFix"/>
<feBlend mode="normal" in="SourceGraphic" in2="BackgroundImageFix" result="shape"/>
<feColorMatrix in="SourceAlpha" type="matrix" values="0 0 0 0 0 0 0 0 0 0 0 0 0 0 0 0 0 0 127 0" result="hardAlpha"/>
<feOffset/>
<feGaussianBlur stdDeviation="1.16035"/>
<feComposite in2="hardAlpha" operator="arithmetic" k2="-1" k3="1"/>
<feColorMatrix type="matrix" values="0 0 0 0 1 0 0 0 0 1 0 0 0 0 1 0 0 0 0.1 0"/>
<feBlend mode="normal" in2="shape" result="effect1_innerShadow_4401_12205"/>
<feColorMatrix in="SourceAlpha" type="matrix" values="0 0 0 0 0 0 0 0 0 0 0 0 0 0 0 0 0 0 127 0" result="hardAlpha"/>
<feOffset/>
<feGaussianBlur stdDeviation="1.16035"/>
<feComposite in2="hardAlpha" operator="arithmetic" k2="-1" k3="1"/>
<feColorMatrix type="matrix" values="0 0 0 0 1 0 0 0 0 1 0 0 0 0 1 0 0 0 0.1 0"/>
<feBlend mode="normal" in2="effect1_innerShadow_4401_12205" result="effect2_innerShadow_4401_12205"/>
</filter>
<filter id="filter8_ii_4401_12205" x="355.457" y="75.959" width="177.904" height="177.904" filterUnits="userSpaceOnUse" color-interpolation-filters="sRGB">
<feFlood flood-opacity="0" result="BackgroundImageFix"/>
<feBlend mode="normal" in="SourceGraphic" in2="BackgroundImageFix" result="shape"/>
<feColorMatrix in="SourceAlpha" type="matrix" values="0 0 0 0 0 0 0 0 0 0 0 0 0 0 0 0 0 0 127 0" result="hardAlpha"/>
<feOffset/>
<feGaussianBlur stdDeviation="1.07171"/>
<feComposite in2="hardAlpha" operator="arithmetic" k2="-1" k3="1"/>
<feColorMatrix type="matrix" values="0 0 0 0 1 0 0 0 0 1 0 0 0 0 1 0 0 0 0.1 0"/>
<feBlend mode="normal" in2="shape" result="effect1_innerShadow_4401_12205"/>
<feColorMatrix in="SourceAlpha" type="matrix" values="0 0 0 0 0 0 0 0 0 0 0 0 0 0 0 0 0 0 127 0" result="hardAlpha"/>
<feOffset/>
<feGaussianBlur stdDeviation="1.07171"/>
<feComposite in2="hardAlpha" operator="arithmetic" k2="-1" k3="1"/>
<feColorMatrix type="matrix" values="0 0 0 0 1 0 0 0 0 1 0 0 0 0 1 0 0 0 0.1 0"/>
<feBlend mode="normal" in2="effect1_innerShadow_4401_12205" result="effect2_innerShadow_4401_12205"/>
</filter>
<filter id="filter9_di_4401_12205" x="374.875" y="96.876" width="58.25" height="58.249" filterUnits="userSpaceOnUse" color-interpolation-filters="sRGB">
<feFlood flood-opacity="0" result="BackgroundImageFix"/>
<feColorMatrix in="SourceAlpha" type="matrix" values="0 0 0 0 0 0 0 0 0 0 0 0 0 0 0 0 0 0 127 0" result="hardAlpha"/>
<feOffset dy="1.5"/>
<feGaussianBlur stdDeviation="1.125"/>
<feColorMatrix type="matrix" values="0 0 0 0 0 0 0 0 0 0 0 0 0 0 0 0 0 0 0.25 0"/>
<feBlend mode="normal" in2="BackgroundImageFix" result="effect1_dropShadow_4401_12205"/>
<feBlend mode="normal" in="SourceGraphic" in2="effect1_dropShadow_4401_12205" result="shape"/>
<feColorMatrix in="SourceAlpha" type="matrix" values="0 0 0 0 0 0 0 0 0 0 0 0 0 0 0 0 0 0 127 0" result="hardAlpha"/>
<feOffset/>
<feGaussianBlur stdDeviation="3"/>
<feComposite in2="hardAlpha" operator="arithmetic" k2="-1" k3="1"/>
<feColorMatrix type="matrix" values="0 0 0 0 1 0 0 0 0 1 0 0 0 0 1 0 0 0 0.2 0"/>
<feBlend mode="normal" in2="shape" result="effect2_innerShadow_4401_12205"/>
</filter>
<filter id="filter10_ii_4401_12205" x="1135.27" y="16.2744" width="214.605" height="214.604" filterUnits="userSpaceOnUse" color-interpolation-filters="sRGB">
<feFlood flood-opacity="0" result="BackgroundImageFix"/>
<feBlend mode="normal" in="SourceGraphic" in2="BackgroundImageFix" result="shape"/>
<feColorMatrix in="SourceAlpha" type="matrix" values="0 0 0 0 0 0 0 0 0 0 0 0 0 0 0 0 0 0 127 0" result="hardAlpha"/>
<feOffset/>
<feGaussianBlur stdDeviation="1.2928"/>
<feComposite in2="hardAlpha" operator="arithmetic" k2="-1" k3="1"/>
<feColorMatrix type="matrix" values="0 0 0 0 1 0 0 0 0 1 0 0 0 0 1 0 0 0 0.1 0"/>
<feBlend mode="normal" in2="shape" result="effect1_innerShadow_4401_12205"/>
<feColorMatrix in="SourceAlpha" type="matrix" values="0 0 0 0 0 0 0 0 0 0 0 0 0 0 0 0 0 0 127 0" result="hardAlpha"/>
<feOffset/>
<feGaussianBlur stdDeviation="1.2928"/>
<feComposite in2="hardAlpha" operator="arithmetic" k2="-1" k3="1"/>
<feColorMatrix type="matrix" values="0 0 0 0 1 0 0 0 0 1 0 0 0 0 1 0 0 0 0.1 0"/>
<feBlend mode="normal" in2="effect1_innerShadow_4401_12205" result="effect2_innerShadow_4401_12205"/>
</filter>
<filter id="filter11_di_4401_12205" x="1161" y="42.5" width="86" height="86" filterUnits="userSpaceOnUse" color-interpolation-filters="sRGB">
<feFlood flood-opacity="0" result="BackgroundImageFix"/>
<feColorMatrix in="SourceAlpha" type="matrix" values="0 0 0 0 0 0 0 0 0 0 0 0 0 0 0 0 0 0 127 0" result="hardAlpha"/>
<feOffset dy="2"/>
<feGaussianBlur stdDeviation="1.5"/>
<feColorMatrix type="matrix" values="0 0 0 0 0 0 0 0 0 0 0 0 0 0 0 0 0 0 0.25 0"/>
<feBlend mode="normal" in2="BackgroundImageFix" result="effect1_dropShadow_4401_12205"/>
<feBlend mode="normal" in="SourceGraphic" in2="effect1_dropShadow_4401_12205" result="shape"/>
<feColorMatrix in="SourceAlpha" type="matrix" values="0 0 0 0 0 0 0 0 0 0 0 0 0 0 0 0 0 0 127 0" result="hardAlpha"/>
<feOffset/>
<feGaussianBlur stdDeviation="4"/>
<feComposite in2="hardAlpha" operator="arithmetic" k2="-1" k3="1"/>
<feColorMatrix type="matrix" values="0 0 0 0 1 0 0 0 0 1 0 0 0 0 1 0 0 0 0.2 0"/>
<feBlend mode="normal" in2="shape" result="effect2_innerShadow_4401_12205"/>
</filter>
<filter id="filter12_di_4401_12205" x="665" y="419.5" width="66" height="66" filterUnits="userSpaceOnUse" color-interpolation-filters="sRGB">
<feFlood flood-opacity="0" result="BackgroundImageFix"/>
<feColorMatrix in="SourceAlpha" type="matrix" values="0 0 0 0 0 0 0 0 0 0 0 0 0 0 0 0 0 0 127 0" result="hardAlpha"/>
<feOffset dy="2"/>
<feGaussianBlur stdDeviation="1.5"/>
<feColorMatrix type="matrix" values="0 0 0 0 0 0 0 0 0 0 0 0 0 0 0 0 0 0 0.25 0"/>
<feBlend mode="normal" in2="BackgroundImageFix" result="effect1_dropShadow_4401_12205"/>
<feBlend mode="normal" in="SourceGraphic" in2="effect1_dropShadow_4401_12205" result="shape"/>
<feColorMatrix in="SourceAlpha" type="matrix" values="0 0 0 0 0 0 0 0 0 0 0 0 0 0 0 0 0 0 127 0" result="hardAlpha"/>
<feOffset/>
<feGaussianBlur stdDeviation="4"/>
<feComposite in2="hardAlpha" operator="arithmetic" k2="-1" k3="1"/>
<feColorMatrix type="matrix" values="0 0 0 0 1 0 0 0 0 1 0 0 0 0 1 0 0 0 0.2 0"/>
<feBlend mode="normal" in2="shape" result="effect2_innerShadow_4401_12205"/>
</filter>
<linearGradient id="paint0_linear_4401_12205" x1="175" y1="122.5" x2="243" y2="151" gradientUnits="userSpaceOnUse">
<stop/>
<stop offset="0.911758" stop-opacity="0"/>
</linearGradient>
<linearGradient id="paint1_linear_4401_12205" x1="1273.7" y1="90.1966" x2="1340.97" y2="119.114" gradientUnits="userSpaceOnUse">
<stop/>
<stop offset="0.911758" stop-opacity="0"/>
</linearGradient>
<linearGradient id="paint2_linear_4401_12205" x1="453.226" y1="127.017" x2="496.649" y2="145.14" gradientUnits="userSpaceOnUse">
<stop/>
<stop offset="0.911758" stop-opacity="0"/>
</linearGradient>
<linearGradient id="paint3_linear_4401_12205" x1="751.226" y1="446.017" x2="794.649" y2="464.14" gradientUnits="userSpaceOnUse">
<stop/>
<stop offset="0.911758" stop-opacity="0"/>
</linearGradient>
<linearGradient id="paint4_linear_4401_12205" x1="46.3028" y1="239.62" x2="263.861" y2="194.156" gradientUnits="userSpaceOnUse">
<stop stop-color="#FAD99B"/>
<stop offset="1" stop-color="#6258D5"/>
</linearGradient>
<linearGradient id="paint5_linear_4401_12205" x1="43.8578" y1="153.011" x2="125.907" y2="130.639" gradientUnits="userSpaceOnUse">
<stop stop-color="#2DA771"/>
<stop offset="1" stop-color="#099A5A"/>
</linearGradient>
<linearGradient id="paint6_linear_4401_12205" x1="681.186" y1="562.065" x2="856.214" y2="525.489" gradientUnits="userSpaceOnUse">
<stop stop-color="#FAD99B"/>
<stop offset="1" stop-color="#6258D5"/>
</linearGradient>
<linearGradient id="paint7_linear_4401_12205" x1="384.661" y1="224.659" x2="546.319" y2="190.877" gradientUnits="userSpaceOnUse">
<stop stop-color="#FAD99B"/>
<stop offset="1" stop-color="#6258D5"/>
</linearGradient>
<linearGradient id="paint8_linear_4401_12205" x1="377.116" y1="151.31" x2="424.144" y2="124.66" gradientUnits="userSpaceOnUse">
<stop stop-color="#2DA771"/>
<stop offset="1" stop-color="#099A5A"/>
</linearGradient>
<linearGradient id="paint9_linear_4401_12205" x1="392.124" y1="135.743" x2="396.151" y2="134.628" gradientUnits="userSpaceOnUse">
<stop stop-color="#2DA771"/>
<stop offset="1" stop-color="#099A5A"/>
</linearGradient>
<linearGradient id="paint10_linear_4401_12205" x1="377.116" y1="148.75" x2="434.419" y2="132.117" gradientUnits="userSpaceOnUse">
<stop stop-color="#2DA771"/>
<stop offset="1" stop-color="#099A5A"/>
</linearGradient>
<linearGradient id="paint11_linear_4401_12205" x1="1157.82" y1="131.846" x2="1284.05" y2="105.276" gradientUnits="userSpaceOnUse">
<stop stop-color="#FAD99B"/>
<stop offset="1" stop-color="#6258D5"/>
</linearGradient>
<linearGradient id="paint12_linear_4401_12205" x1="1163.99" y1="120.437" x2="1248.91" y2="95.1125" gradientUnits="userSpaceOnUse">
<stop stop-color="#2DA771"/>
<stop offset="1" stop-color="#099A5A"/>
</linearGradient>
<linearGradient id="paint13_linear_4401_12205" x1="669.865" y1="478.487" x2="730.261" y2="461.772" gradientUnits="userSpaceOnUse">
<stop stop-color="#2DA771"/>
<stop offset="1" stop-color="#099A5A"/>
</linearGradient>
<clipPath id="clip0_4401_12205">
<rect x="7" y="39.5" width="150" height="150" rx="72.1154" fill="white"/>
</clipPath>
<clipPath id="clip1_4401_12205">
<rect x="649.566" y="401.067" width="97.8659" height="97.8659" rx="48.9329" fill="white"/>
</clipPath>
<clipPath id="clip2_4401_12205">
<rect x="355.457" y="75.958" width="98.0833" height="98.0833" rx="49.0417" fill="white"/>
</clipPath>
<clipPath id="clip3_4401_12205">
<rect width="60" height="60" fill="white" transform="translate(374 94.5)"/>
</clipPath>
<clipPath id="clip4_4401_12205">
<rect x="1135.27" y="16.2744" width="134.451" height="134.451" rx="64.64" fill="white"/>
</clipPath>
</defs>
</svg>
