<svg width="37" height="37" viewBox="0 0 37 37" fill="none" xmlns="http://www.w3.org/2000/svg">
<path d="M37 18.4746C37 17.261 36.0822 16.2631 34.9064 16.1235C34.5088 13.3665 33.4218 10.7575 31.7427 8.52903C32.4702 7.60297 32.4194 6.25406 31.565 5.39989C30.7064 4.54571 29.3572 4.49074 28.431 5.22651C26.1978 3.552 23.5839 2.47371 20.822 2.08469C20.6824 0.913372 19.6843 0 18.4746 0C17.2607 0 16.2626 0.9176 16.123 2.09314C13.3653 2.49063 10.7557 3.57737 8.52675 5.25611C8.11225 4.93051 7.60894 4.74023 7.07179 4.74023C6.43736 4.74023 5.84522 4.98549 5.39689 5.43371C4.94856 5.88194 4.70325 6.47394 4.70325 7.10823C4.70325 7.64949 4.89358 8.15269 5.22348 8.57131C3.54858 10.804 2.47005 13.4173 2.08516 16.1743C0.91358 16.3138 0 17.3118 0 18.5211C0 19.7347 0.91781 20.7327 2.09362 20.8722C2.4912 23.6293 3.57819 26.2383 5.25732 28.4667C4.93164 28.8811 4.74131 29.3843 4.74131 29.9214C4.74131 30.5514 4.98663 31.1477 5.43496 31.5959C5.89598 32.0568 6.5008 32.2894 7.10985 32.2894C7.63009 32.2894 8.14186 32.1118 8.56904 31.7735C10.8022 33.448 13.4161 34.5263 16.178 34.9153C16.3176 36.0866 17.3157 37 18.5254 37C19.7393 37 20.7374 36.0824 20.877 34.9069C23.6347 34.5094 26.2443 33.4226 28.4733 31.7439C28.8877 32.0695 29.3911 32.2598 29.9282 32.2598C30.5626 32.2598 31.1548 32.0145 31.6031 31.5663C32.0514 31.1181 32.2968 30.5261 32.2968 29.8918C32.2968 29.3505 32.1064 28.8473 31.7765 28.4287C33.4514 26.196 34.53 23.5827 34.9148 20.8257C36.0864 20.6862 37 19.684 37 18.4746ZM36.0949 18.4746C36.0949 19.2823 35.4393 19.9377 34.6315 19.9377C33.8236 19.9377 33.168 19.2823 33.168 18.4746C33.168 17.667 33.8236 17.0115 34.6315 17.0115C35.4393 17.0115 36.0949 17.667 36.0949 18.4746ZM29.8859 5.61131C30.2623 5.61131 30.6345 5.75509 30.9222 6.0384C31.4931 6.60926 31.4931 7.53954 30.9222 8.1104C30.3512 8.68126 29.4207 8.68126 28.8497 8.1104C28.2787 7.53954 28.2787 6.60926 28.8497 6.0384C29.1373 5.75509 29.5137 5.61131 29.8859 5.61131ZM18.4704 0.904914C19.2782 0.904914 19.9338 1.56034 19.9338 2.368C19.9338 3.17566 19.2782 3.83109 18.4704 3.83109C17.6626 3.83109 17.007 3.17566 17.007 2.368C17.007 1.56034 17.6626 0.904914 18.4704 0.904914ZM6.03132 6.07646C6.30624 5.8016 6.67421 5.64937 7.06756 5.64937C7.45668 5.64937 7.82465 5.8016 8.1038 6.07646C8.37871 6.35131 8.53098 6.7192 8.53098 7.11246C8.53098 7.50571 8.37871 7.86937 8.1038 8.14846C7.82888 8.42331 7.4609 8.57554 7.06756 8.57554C6.67421 8.57554 6.31047 8.42331 6.03132 8.14846C5.7564 7.8736 5.60414 7.50571 5.60414 7.11246C5.60414 6.7192 5.7564 6.35131 6.03132 6.07646ZM0.896662 18.5254C0.896662 17.7177 1.55224 17.0623 2.36008 17.0623C3.16792 17.0623 3.8235 17.7177 3.8235 18.5254C3.8235 19.333 3.16792 19.9885 2.36008 19.9885C1.55224 19.9885 0.896662 19.333 0.896662 18.5254ZM6.06939 30.9616C5.79447 30.6867 5.6422 30.3189 5.6422 29.9256C5.6422 29.5323 5.79447 29.1687 6.06939 28.8896C6.64038 28.3187 7.57087 28.3187 8.14186 28.8896C8.41678 29.1645 8.56904 29.5323 8.56904 29.9256C8.56904 30.3146 8.41678 30.6825 8.14186 30.9616C7.56664 31.5325 6.64038 31.5325 6.06939 30.9616ZM18.5211 36.0951C17.7133 36.0951 17.0577 35.4397 17.0577 34.632C17.0577 33.8243 17.7133 33.1689 18.5211 33.1689C19.329 33.1689 19.9846 33.8243 19.9846 34.632C19.9846 35.4397 19.329 36.0951 18.5211 36.0951ZM18.5211 32.264C17.4299 32.264 16.5121 33.004 16.2372 34.0104C13.6699 33.6383 11.2379 32.6361 9.15272 31.0885C9.35151 30.7375 9.46994 30.34 9.46994 29.9256C9.46994 29.2913 9.22462 28.6993 8.77629 28.2511C8.00652 27.4815 6.83916 27.3631 5.93404 27.879C4.37757 25.7985 3.36671 23.3713 2.98605 20.8046C3.98845 20.5297 4.72439 19.6121 4.72439 18.5254C4.72439 17.4344 3.98423 16.5168 2.9776 16.2419C3.34979 13.6752 4.35219 11.2438 5.90021 9.15909C6.25126 9.35783 6.64883 9.47623 7.06333 9.47623C7.69776 9.47623 8.28989 9.23097 8.73823 8.78274C9.18656 8.33451 9.43187 7.74251 9.43187 7.10823C9.43187 6.6896 9.31344 6.29211 9.11042 5.94114C11.1914 4.38503 13.6191 3.3744 16.1864 2.99383C16.4614 3.996 17.3792 4.73177 18.4662 4.73177C19.5574 4.73177 20.4752 3.99177 20.7501 2.98537C23.3174 3.35749 25.7494 4.35966 27.8346 5.90731C27.3228 6.808 27.4412 7.97509 28.211 8.74469C28.672 9.2056 29.2769 9.43817 29.8859 9.43817C30.292 9.43817 30.6938 9.324 31.0533 9.12103C32.6097 11.2015 33.6206 13.6287 34.0013 16.1954C32.9989 16.4703 32.2629 17.3879 32.2629 18.4746C32.2629 19.5656 33.0031 20.4832 34.0097 20.7581C33.6375 23.3248 32.6351 25.7562 31.0871 27.8409C30.7361 27.6422 30.3385 27.5238 29.924 27.5238C29.2938 27.5238 28.6974 27.769 28.2491 28.2173C27.8008 28.6655 27.5554 29.2575 27.5554 29.8918C27.5554 30.3104 27.6739 30.7079 27.8769 31.0589C25.796 32.615 23.3682 33.6256 20.8009 34.0062C20.5259 33.004 19.6081 32.264 18.5211 32.264ZM30.9602 30.9235C30.6853 31.1984 30.3173 31.3506 29.924 31.3506C29.5349 31.3506 29.1669 31.1984 28.8877 30.9235C28.6128 30.6487 28.4606 30.2808 28.4606 29.8875C28.4606 29.4985 28.6128 29.1306 28.8877 28.8515C29.1627 28.5767 29.5306 28.4245 29.924 28.4245C30.3173 28.4245 30.6811 28.5767 30.9602 28.8515C31.2351 29.1264 31.3874 29.4943 31.3874 29.8875C31.3874 30.2808 31.2351 30.6487 30.9602 30.9235ZM28.524 24.0267V12.9733C28.524 12.8126 28.4394 12.6646 28.2998 12.5842L18.7199 7.05326C18.5804 6.97291 18.4069 6.97291 18.2674 7.05326L8.69593 12.5842C8.55636 12.6646 8.47176 12.8126 8.47176 12.9733V24.0267C8.47176 24.1874 8.55636 24.3354 8.69593 24.4158L18.2716 29.9425C18.3393 29.9848 18.4196 30.0017 18.4958 30.0017C18.5719 30.0017 18.6523 29.9806 18.7199 29.9425L28.2956 24.4158C28.4352 24.3354 28.524 24.1874 28.524 24.0267ZM18.4958 7.96663L27.1706 12.9733L18.4958 17.9799L9.82099 12.9733L18.4958 7.96663ZM9.37266 13.7555L18.0474 18.7622V28.7754L9.37266 23.7646V13.7555ZM18.9483 28.7712V18.7622L27.6231 13.7555V23.7688L18.9483 28.7712Z" fill="#A3A3A3"/>
</svg>
