<svg width="1920" height="454" viewBox="0 0 1920 454" fill="none" xmlns="http://www.w3.org/2000/svg">
<rect width="1920" height="454" fill="#14171B"/>
<g clip-path="url(#clip0_7876_20454)">
<g opacity="0.5">
<mask id="mask0_7876_20454" style="mask-type:luminance" maskUnits="userSpaceOnUse" x="-360" y="-391" width="2640" height="844">
<path d="M2279.14 452.728H-359.734V-390.769H2279.14V452.728Z" fill="white"/>
</mask>
<g mask="url(#mask0_7876_20454)">
<g opacity="0.5">
<path opacity="0.9268" d="M-359.352 -48.9475C-359.352 -48.9475 -101.669 -171.385 255.876 -171.385C613.421 -171.385 676.306 3.79144 1127.56 3.79144C1578.82 3.79144 1672.53 -264.382 2279.14 -264.382" stroke="#F4F4F4" stroke-width="0.5246" stroke-miterlimit="10"/>
<path opacity="0.9024" d="M-359.352 -44.8713C-359.352 -44.8713 -90.5667 -177.147 266.978 -177.147C624.523 -177.147 676.306 15.5923 1127.56 15.5923C1578.82 15.5923 1672.53 -253.211 2279.14 -253.211" stroke="#F4F4F4" stroke-width="0.5185" stroke-miterlimit="10"/>
<path opacity="0.878" d="M-359.352 -40.7716C-359.352 -40.7716 -79.4644 -182.911 278.08 -182.911C635.625 -182.911 676.335 27.3915 1127.56 27.3915C1578.79 27.3915 1672.53 -241.989 2279.14 -241.989" stroke="#F4F4F4" stroke-width="0.5124" stroke-miterlimit="10"/>
<path opacity="0.8537" d="M-359.352 -36.6949C-359.352 -36.6949 -68.3912 -188.672 289.183 -188.672C646.757 -188.672 676.334 39.2181 1127.59 39.2181C1578.85 39.2181 1672.56 -230.792 2279.17 -230.792" stroke="#F4F4F4" stroke-width="0.5063" stroke-miterlimit="10"/>
<path opacity="0.8293" d="M-359.352 -32.6188C-359.352 -32.6188 -57.289 -194.459 300.256 -194.459C657.801 -194.459 676.306 50.9936 1127.56 50.9936C1578.82 50.9936 1672.53 -219.62 2279.14 -219.62" stroke="#F4F4F4" stroke-width="0.5003" stroke-miterlimit="10"/>
<path opacity="0.8049" d="M-359.352 -28.5168C-359.352 -28.5168 -46.1868 -200.195 311.358 -200.195C668.903 -200.195 676.306 62.8202 1127.56 62.8202C1578.82 62.8202 1672.53 -208.423 2279.14 -208.423" stroke="#F4F4F4" stroke-width="0.4942" stroke-miterlimit="10"/>
<path opacity="0.7805" d="M-359.352 -24.4397C-359.352 -24.4397 -35.0846 -205.956 322.46 -205.956C680.005 -205.956 676.306 74.6219 1127.56 74.6219C1578.82 74.6219 1672.53 -197.225 2279.14 -197.225" stroke="#F4F4F4" stroke-width="0.4881" stroke-miterlimit="10"/>
<path opacity="0.7561" d="M-359.352 -20.3379C-359.352 -20.3379 -23.9823 -211.718 333.562 -211.718C691.108 -211.718 676.335 86.4233 1127.56 86.4233C1578.79 86.4233 1672.53 -186.027 2279.14 -186.027" stroke="#F4F4F4" stroke-width="0.482" stroke-miterlimit="10"/>
<path opacity="0.7317" d="M-359.352 -16.2615C-359.352 -16.2615 -12.9092 -217.479 344.665 -217.479C702.239 -217.479 676.334 98.2494 1127.59 98.2494C1578.85 98.2494 1672.56 -174.806 2279.17 -174.806" stroke="#F4F4F4" stroke-width="0.4759" stroke-miterlimit="10"/>
<path opacity="0.7073" d="M-359.352 -12.1873C-359.352 -12.1873 -1.80692 -223.27 355.738 -223.27C713.283 -223.27 676.334 110.023 1127.59 110.023C1578.85 110.023 1672.56 -163.66 2279.17 -163.66" stroke="#F4F4F4" stroke-width="0.4699" stroke-miterlimit="10"/>
<path opacity="0.6829" d="M-359.352 -8.08583C-359.352 -8.08583 9.29535 -229.006 366.84 -229.006C724.385 -229.006 676.306 121.849 1127.56 121.849C1578.82 121.849 1672.53 -152.438 2279.14 -152.438" stroke="#F4F4F4" stroke-width="0.4638" stroke-miterlimit="10"/>
<path opacity="0.6585" d="M-359.352 -4.00909C-359.352 -4.00909 20.3976 -234.792 377.942 -234.792C735.487 -234.792 676.306 133.625 1127.56 133.625C1578.82 133.625 1672.53 -141.267 2279.14 -141.267" stroke="#F4F4F4" stroke-width="0.4577" stroke-miterlimit="10"/>
<path opacity="0.6341" d="M-359.352 0.0927082C-359.352 0.0927082 31.4998 -240.529 389.045 -240.529C746.59 -240.529 676.335 145.452 1127.56 145.452C1578.79 145.452 1672.53 -130.068 2279.14 -130.068" stroke="#F4F4F4" stroke-width="0.4516" stroke-miterlimit="10"/>
<path opacity="0.6098" d="M-359.352 4.1692C-359.352 4.1692 42.573 -246.315 400.147 -246.315C757.721 -246.315 676.334 157.254 1127.59 157.254C1578.85 157.254 1672.56 -118.872 2279.17 -118.872" stroke="#F4F4F4" stroke-width="0.4455" stroke-miterlimit="10"/>
<path opacity="0.5854" d="M-359.352 8.24401C-359.352 8.24401 53.6753 -252.079 411.22 -252.079C768.765 -252.079 676.306 169.053 1127.56 169.053C1578.82 169.053 1672.53 -107.676 2279.14 -107.676" stroke="#F4F4F4" stroke-width="0.4394" stroke-miterlimit="10"/>
<path opacity="0.561" d="M-359.352 12.3459C-359.352 12.3459 64.7776 -257.841 422.322 -257.841C779.867 -257.841 676.306 180.853 1127.56 180.853C1578.82 180.853 1672.53 -96.4786 2279.14 -96.4786" stroke="#F4F4F4" stroke-width="0.4334" stroke-miterlimit="10"/>
<path opacity="0.5366" d="M-359.352 16.4225C-359.352 16.4225 75.8797 -263.603 433.424 -263.603C790.97 -263.603 676.306 192.655 1127.56 192.655C1578.82 192.655 1672.53 -85.3063 2279.14 -85.3063" stroke="#F4F4F4" stroke-width="0.4273" stroke-miterlimit="10"/>
<path opacity="0.5122" d="M-359.352 20.5243C-359.352 20.5243 86.9821 -269.364 444.527 -269.364C802.072 -269.364 676.335 204.456 1127.56 204.456C1578.79 204.456 1672.53 -74.1089 2279.14 -74.1089" stroke="#F4F4F4" stroke-width="0.4212" stroke-miterlimit="10"/>
<path opacity="0.4878" d="M-359.352 24.6008C-359.352 24.6008 98.0551 -275.125 455.629 -275.125C813.203 -275.125 676.334 216.257 1127.59 216.257C1578.85 216.257 1672.56 -62.9116 2279.17 -62.9116" stroke="#F4F4F4" stroke-width="0.4151" stroke-miterlimit="10"/>
<path opacity="0.4634" d="M-359.352 28.7026C-359.352 28.7026 109.157 -280.888 466.702 -280.888C824.247 -280.888 676.334 228.085 1127.59 228.085C1578.85 228.085 1672.56 -51.6891 2279.17 -51.6891" stroke="#F4F4F4" stroke-width="0.409" stroke-miterlimit="10"/>
<path opacity="0.439" d="M-359.352 32.7762C-359.352 32.7762 120.259 -286.651 477.804 -286.651C835.35 -286.651 676.334 239.883 1127.59 239.883C1578.85 239.883 1672.56 -40.5198 2279.17 -40.5198" stroke="#F4F4F4" stroke-width="0.403" stroke-miterlimit="10"/>
<path opacity="0.4146" d="M-359.352 36.8528C-359.352 36.8528 131.362 -292.413 488.907 -292.413C846.452 -292.413 676.334 251.683 1127.59 251.683C1578.85 251.683 1672.56 -29.3225 2279.17 -29.3225" stroke="#F4F4F4" stroke-width="0.3969" stroke-miterlimit="10"/>
<path opacity="0.3902" d="M-359.352 40.9546C-359.352 40.9546 142.464 -298.175 500.009 -298.175C857.554 -298.175 676.334 263.484 1127.59 263.484C1578.85 263.484 1672.56 -18.125 2279.17 -18.125" stroke="#F4F4F4" stroke-width="0.3908" stroke-miterlimit="10"/>
<path opacity="0.3659" d="M-359.352 45.0313C-359.352 45.0313 153.537 -303.937 511.111 -303.937C868.686 -303.937 676.334 275.286 1127.59 275.286C1578.85 275.286 1672.56 -6.95275 2279.17 -6.95275" stroke="#F4F4F4" stroke-width="0.3847" stroke-miterlimit="10"/>
<path opacity="0.3415" d="M-359.352 49.1333C-359.352 49.1333 164.639 -309.698 522.184 -309.698C879.729 -309.698 676.334 287.087 1127.59 287.087C1578.85 287.087 1672.56 4.24468 2279.17 4.24468" stroke="#F4F4F4" stroke-width="0.3786" stroke-miterlimit="10"/>
<path opacity="0.3171" d="M-359.352 53.2078C-359.352 53.2078 175.741 -315.462 533.287 -315.462C890.832 -315.462 676.334 298.912 1127.59 298.912C1578.85 298.912 1672.56 15.4652 2279.17 15.4652" stroke="#F4F4F4" stroke-width="0.3725" stroke-miterlimit="10"/>
<path opacity="0.2927" d="M-359.352 57.2842C-359.352 57.2842 186.844 -321.248 544.389 -321.248C901.934 -321.248 676.334 310.714 1127.59 310.714C1578.85 310.714 1672.56 26.6625 2279.17 26.6625" stroke="#F4F4F4" stroke-width="0.3665" stroke-miterlimit="10"/>
<path opacity="0.2683" d="M-359.352 61.3863C-359.352 61.3863 197.946 -326.985 555.491 -326.985C913.036 -326.985 676.334 322.514 1127.59 322.514C1578.85 322.514 1672.56 37.8349 2279.17 37.8349" stroke="#F4F4F4" stroke-width="0.3604" stroke-miterlimit="10"/>
<path opacity="0.2439" d="M-359.352 65.4628C-359.352 65.4628 209.019 -332.771 566.593 -332.771C924.168 -332.771 676.334 334.315 1127.59 334.315C1578.85 334.315 1672.56 49.0322 2279.17 49.0322" stroke="#F4F4F4" stroke-width="0.3543" stroke-miterlimit="10"/>
<path opacity="0.2195" d="M-359.352 69.5642C-359.352 69.5642 220.121 -338.508 577.696 -338.508C935.27 -338.508 676.334 346.142 1127.59 346.142C1578.85 346.142 1672.56 60.2544 2279.17 60.2544" stroke="#F4F4F4" stroke-width="0.3482" stroke-miterlimit="10"/>
<path opacity="0.1951" d="M-359.352 73.6384C-359.352 73.6384 231.224 -344.298 588.769 -344.298C946.314 -344.298 676.306 357.915 1127.56 357.915C1578.82 357.915 1672.53 71.4242 2279.14 71.4242" stroke="#F4F4F4" stroke-width="0.3421" stroke-miterlimit="10"/>
<path opacity="0.1707" d="M-359.352 77.7151C-359.352 77.7151 242.326 -350.06 599.871 -350.06C957.416 -350.06 676.334 369.717 1127.59 369.717C1578.85 369.717 1672.56 82.5965 2279.17 82.5965" stroke="#F4F4F4" stroke-width="0.3361" stroke-miterlimit="10"/>
<path opacity="0.1463" d="M-359.352 81.817C-359.352 81.817 253.428 -355.821 610.973 -355.821C968.518 -355.821 676.334 381.518 1127.59 381.518C1578.85 381.518 1672.56 93.7939 2279.17 93.7939" stroke="#F4F4F4" stroke-width="0.33" stroke-miterlimit="10"/>
<path opacity="0.122" d="M-359.352 85.8934C-359.352 85.8934 264.501 -361.583 622.075 -361.583C979.65 -361.583 676.334 393.345 1127.59 393.345C1578.85 393.345 1672.53 104.991 2279.14 104.991" stroke="#F4F4F4" stroke-width="0.3239" stroke-miterlimit="10"/>
<path opacity="0.0976" d="M-359.352 89.9951C-359.352 89.9951 275.603 -367.319 633.178 -367.319C990.752 -367.319 676.334 405.145 1127.59 405.145C1578.85 405.145 1672.56 116.188 2279.17 116.188" stroke="#F4F4F4" stroke-width="0.3178" stroke-miterlimit="10"/>
<path opacity="0.0732" d="M-359.352 94.0726C-359.352 94.0726 286.706 -373.104 644.251 -373.104C1001.79 -373.104 676.306 416.947 1127.56 416.947C1578.82 416.947 1672.53 127.387 2279.14 127.387" stroke="#F4F4F4" stroke-width="0.3117" stroke-miterlimit="10"/>
<path opacity="0.0488" d="M-359.352 98.1715C-359.352 98.1715 297.808 -378.844 655.353 -378.844C1012.9 -378.844 676.334 428.746 1127.59 428.746C1578.85 428.746 1672.56 138.581 2279.17 138.581" stroke="#F4F4F4" stroke-width="0.3056" stroke-miterlimit="10"/>
<path opacity="0.0244" d="M-359.352 102.248C-359.352 102.248 308.91 -384.631 666.455 -384.631C1024 -384.631 676.334 440.547 1127.59 440.547C1578.85 440.547 1672.53 149.778 2279.14 149.778" stroke="#F4F4F4" stroke-width="0.2996" stroke-miterlimit="10"/>
</g>
</g>
</g>
</g>
<defs>
<clipPath id="clip0_7876_20454">
<rect width="1920" height="454" fill="white"/>
</clipPath>
</defs>
</svg>
