<svg width="30" height="15" viewBox="0 0 30 15" fill="none" xmlns="http://www.w3.org/2000/svg">
<path d="M30 1.5C30 1.1 29.845 0.725001 29.56 0.440001C28.975 -0.144999 28.025 -0.144999 27.44 0.440001L16.5 11.38C16.115 11.765 15.57 11.985 15 11.985C14.43 11.985 13.885 11.765 13.5 11.38L2.56 0.440001C2.27 0.150001 1.885 0 1.5 0C1.115 0 0.73 0.145001 0.44 0.440001C0.15 0.735001 0 1.1 0 1.5C0 1.9 0.155 2.275 0.44 2.56L11.38 13.5C12.345 14.465 13.635 15 15 15C16.365 15 17.655 14.465 18.62 13.5L29.56 2.56C29.845 2.275 30 1.9 30 1.5Z" fill="black"/>
</svg>
