<svg width="50" height="50" viewBox="0 0 50 50" fill="none" xmlns="http://www.w3.org/2000/svg">
<g clip-path="url(#clip0_9160_3100)">
<path  d="M1.74219 37.7188L5.45352 38.9876L6.72236 35.2764" stroke="white" stroke-width="1.5625" stroke-miterlimit="10" stroke-linecap="round" stroke-linejoin="round"/>
<path d="M5.4665 38.9875C2.64053 35.0477 0.976562 30.2185 0.976562 25C0.976562 11.7322 11.7322 0.976562 25 0.976562C30.2185 0.976562 35.0477 2.64053 38.9875 5.4665M48.2569 12.2813L44.5456 11.0125L43.2768 14.7237" stroke="white" stroke-width="1.5625" stroke-miterlimit="10" stroke-linecap="round" stroke-linejoin="round"/>
<path d="M44.5366 11.0127C47.3626 14.9525 49.0266 19.7817 49.0266 25.0002C49.0266 38.268 38.2709 49.0236 25.0031 49.0236C19.7847 49.0236 14.9555 47.3597 11.0156 44.5337" stroke="white" stroke-width="1.5625" stroke-miterlimit="10" stroke-linecap="round" stroke-linejoin="round"/>
<path d="M41.6668 28.4482V21.5506H37.167C36.8989 20.6041 36.5207 19.6924 36.04 18.8342L39.2231 15.6511L34.3458 10.7737L31.1627 13.9568C30.3045 13.4762 29.3928 13.0979 28.4464 12.8299V8.33008H21.5487V12.8299C20.6023 13.0979 19.6906 13.4762 18.8324 13.9568L15.6493 10.7737L10.772 15.6511L13.9551 18.8342C13.4744 19.6924 13.0962 20.6041 12.8281 21.5506H8.32812V28.4482H12.8279C13.096 29.3947 13.4742 30.3063 13.9549 31.1646L10.7718 34.3477L15.6491 39.225L18.8322 36.0419C19.6905 36.5226 20.6022 36.9008 21.5486 37.1688V41.6687H28.4463V37.1688C29.3927 36.9008 30.3044 36.5226 31.1626 36.0419L34.3457 39.225L39.223 34.3477L36.0399 31.1646C36.5206 30.3063 36.8988 29.3947 37.1669 28.4482H41.6668Z" stroke="white" stroke-width="1.5625" stroke-miterlimit="10" stroke-linecap="round" stroke-linejoin="round"/>
<path d="M24.9991 33.4328C29.6564 33.4328 33.4318 29.6574 33.4318 25.0001C33.4318 20.3428 29.6564 16.5674 24.9991 16.5674C20.3419 16.5674 16.5664 20.3428 16.5664 25.0001C16.5664 29.6574 20.3419 33.4328 24.9991 33.4328Z" stroke="white" stroke-width="1.5625" stroke-miterlimit="10" stroke-linecap="round" stroke-linejoin="round"/>
<path d="M25 20.5879V25.0004H28.4319" stroke="white" stroke-width="1.5625" stroke-miterlimit="10" stroke-linecap="round" stroke-linejoin="round"/>
</g>
<defs>
<clipPath id="clip0_9160_3100">
<rect width="50" height="50" fill="white"/>
</clipPath>
</defs>
</svg>
