<svg width="50" height="50" viewBox="0 0 50 50" fill="none" xmlns="http://www.w3.org/2000/svg">
<path fill-rule="evenodd" clip-rule="evenodd" d="M13.6066 42.4779L14.3579 43.8054L14.3589 43.8073C14.9217 44.8082 14.5649 46.0855 13.5696 46.6476L11.0907 48.0526L11.0883 48.054C10.0874 48.6166 8.81021 48.26 8.24776 47.2643L0.957951 34.3832C0.390107 33.3815 0.746872 32.1031 1.74334 31.5404L4.22521 30.1353L4.22579 30.1349C5.22187 29.5723 6.49952 29.9261 7.06668 30.922L7.06775 30.9238L7.68746 32.0189L14.2615 28.2127C16.1891 27.0979 18.1575 26.3641 20.2746 27.0516C22.3645 27.7292 25.7767 29.1893 29.2587 29.8185C29.2933 29.8248 29.3275 29.8333 29.3609 29.8442C31.0678 30.3968 32.1078 32.1213 31.6417 33.8545C31.5488 34.2001 31.417 34.5139 31.2488 34.792C31.7113 34.6845 32.1615 34.5059 32.6027 34.2488L41.4419 29.1008C44.5873 27.2683 46.682 27.4501 47.8689 28.2464C48.8778 28.9232 49.3432 30.0798 49.3131 31.2142C49.2828 32.3593 48.7402 33.4548 47.8422 34.0078L31.8029 43.883C30.1384 44.9103 28.3153 45.1511 26.4266 44.6471L26.4257 44.6469L15.1047 41.6128L13.6066 42.4779ZM8.46011 33.3841L12.834 41.1127L14.6018 40.0919C14.691 40.0404 14.7895 40.007 14.8916 39.9936C14.9937 39.9801 15.0975 39.9869 15.197 40.0136L26.8311 43.1316C28.288 43.5202 29.6952 43.3406 30.979 42.5482L30.9797 42.5477L47.0196 32.6721C47.4588 32.4016 47.692 31.8602 47.738 31.3034C47.8084 30.4481 47.4038 29.5061 46.3458 29.2844C45.3947 29.0851 44.054 29.3944 42.2314 30.4562L33.3925 35.6041C31.9945 36.4187 30.5293 36.6433 28.9327 36.3891L28.9299 36.3887L27.8339 36.2104C27.8227 36.2085 27.8114 36.2064 27.8002 36.2041C25.8072 35.795 23.9588 35.1928 21.9078 34.6416C21.4897 34.5292 21.2415 34.0986 21.3538 33.6806C21.4662 33.2625 21.8968 33.0144 22.3148 33.1267C24.3233 33.6665 26.1338 34.2583 28.0839 34.6611C29.1272 34.7782 29.8871 34.3404 30.1267 33.4476L30.1268 33.4472C30.3704 32.5415 29.8049 31.6608 28.9231 31.3518C25.3825 30.7031 21.9161 29.2328 19.7906 28.5436L19.7903 28.5435C18.1125 27.9987 16.5745 28.687 15.047 29.5706L8.46011 33.3841ZM5.70334 31.6978L5.70266 31.6966C5.56099 31.4501 5.24462 31.3611 4.99736 31.5007L2.51609 32.9054L2.5154 32.9058C2.26873 33.0451 2.18207 33.3618 2.32256 33.6097L2.32285 33.6102L9.61295 46.4917L9.61325 46.4922C9.75295 46.7395 10.0704 46.8263 10.3189 46.6869L12.7962 45.2829L12.7972 45.2823C13.0445 45.1426 13.1313 44.8251 12.9919 44.5765L5.70334 31.6978ZM4.69138 33.0993C5.25403 33.0156 5.77648 33.404 5.86021 33.9667C5.9406 34.5293 5.55217 35.0551 4.98952 35.1355C4.42687 35.2192 3.90442 34.8273 3.8207 34.2647C3.7403 33.7021 4.12883 33.1797 4.69138 33.0993ZM22.218 24.1195C22.0934 24.3305 21.9839 24.5501 21.8903 24.7767C21.831 24.9201 21.7305 25.0428 21.6015 25.1291C21.4724 25.2154 21.3207 25.2615 21.1654 25.2615C21.0101 25.2615 20.8584 25.2154 20.7293 25.1291C20.6003 25.0428 20.4998 24.9201 20.4405 24.7767C20.1778 24.1424 19.7927 23.5661 19.3072 23.0806C18.8218 22.5951 18.2455 22.2101 17.6112 21.9473C17.4677 21.8881 17.345 21.7875 17.2587 21.6585C17.1724 21.5294 17.1263 21.3777 17.1263 21.2224C17.1263 21.0672 17.1724 20.9154 17.2587 20.7864C17.345 20.6573 17.4677 20.5568 17.6112 20.4975C18.4115 20.1662 19.1168 19.6411 19.6638 18.9695C19.3778 17.8502 19.2334 16.6994 19.2341 15.5441C19.2341 12.5473 20.1933 9.76724 21.8206 7.49518C21.5213 7.28992 21.2014 7.11656 20.866 6.97792C20.7226 6.91858 20.6 6.81803 20.5137 6.68899C20.4275 6.55995 20.3814 6.40823 20.3814 6.25302C20.3814 6.09781 20.4275 5.94609 20.5137 5.81705C20.6 5.68801 20.7226 5.58746 20.866 5.52812C22.147 4.9975 23.1647 3.97977 23.6953 2.69881C23.7546 2.55531 23.8551 2.43264 23.9841 2.34632C24.1132 2.26001 24.265 2.21393 24.4202 2.21393C24.5755 2.21393 24.7272 2.26001 24.8563 2.34632C24.9853 2.43264 25.0858 2.55531 25.1451 2.69881C25.3051 3.08598 25.5114 3.45239 25.7593 3.79008C27.8902 2.45351 30.4071 1.67969 33.0985 1.67969C40.7339 1.67969 46.959 7.90861 46.959 15.5441C46.959 23.1795 40.734 29.4046 33.0985 29.4046C28.6961 29.4046 24.7608 27.3357 22.218 24.1195ZM20.9175 17.2235C21.1058 17.1608 21.3109 17.1718 21.4915 17.2543C21.672 17.3368 21.8145 17.4847 21.8903 17.6682C22.421 18.9492 23.4387 19.9669 24.7196 20.4975C24.8631 20.5568 24.9858 20.6573 25.0721 20.7864C25.1584 20.9154 25.2045 21.0672 25.2045 21.2224C25.2045 21.3777 25.1584 21.5294 25.0721 21.6585C24.9858 21.7875 24.8631 21.8881 24.7196 21.9473C24.1778 22.1714 23.6778 22.4853 23.2404 22.8758C25.4859 25.8827 29.0715 27.836 33.0985 27.836C39.8699 27.836 45.3904 22.3154 45.3904 15.5441C45.3904 8.77263 39.87 3.24831 33.0985 3.24831C30.8429 3.24831 28.7255 3.86155 26.9048 4.92969C27.2365 5.17067 27.5955 5.37155 27.9744 5.52812C28.1179 5.58739 28.2406 5.68792 28.3269 5.81696C28.4132 5.94601 28.4593 6.09777 28.4593 6.25302C28.4593 6.40827 28.4132 6.56003 28.3269 6.68908C28.2406 6.81812 28.1179 6.91865 27.9744 6.97792C27.3401 7.24065 26.7638 7.62573 26.2784 8.11118C25.7929 8.59664 25.4078 9.17296 25.1451 9.80724C25.0858 9.95073 24.9853 10.0734 24.8563 10.1597C24.7272 10.246 24.5755 10.2921 24.4202 10.2921C24.265 10.2921 24.1132 10.246 23.9841 10.1597C23.8551 10.0734 23.7546 9.95073 23.6953 9.80724C23.5131 9.3666 23.2713 8.95309 22.9765 8.57832C21.6066 10.5606 20.8028 12.9616 20.8028 15.5441C20.8028 16.1136 20.8419 16.6743 20.9175 17.2235ZM21.1654 19.5837C20.7167 20.2195 20.1625 20.7737 19.5268 21.2224C20.1625 21.6711 20.7167 22.2254 21.1654 22.8612C21.6141 22.2254 22.1684 21.6712 22.8041 21.2224C22.1684 20.7737 21.6141 20.2195 21.1654 19.5837ZM24.4202 4.6143C23.9715 5.25006 23.4172 5.80431 22.7815 6.25302C23.4172 6.70173 23.9715 7.25598 24.4202 7.89175C24.8689 7.25598 25.4232 6.70173 26.0589 6.25302C25.4232 5.80431 24.8689 5.25006 24.4202 4.6143ZM31.3787 15.5831L37.1808 9.72057L37.1823 9.7191C38.2403 8.65557 39.9672 8.65037 41.0307 9.70841C42.0939 10.7661 42.1005 12.4868 41.0429 13.5555L41.0425 13.5559C38.4623 16.1594 35.9017 18.7786 33.3098 21.3705C32.2467 22.4336 30.5205 22.4336 29.4574 21.3705L25.1611 17.0703C24.0983 16.0076 24.0969 14.2875 25.1596 13.2193L25.1611 13.2179C26.2241 12.1548 27.9504 12.1548 29.0134 13.2179L31.3787 15.5831ZM30.827 17.2498L27.9043 14.327C27.4536 13.8764 26.722 13.8762 26.271 14.3264C25.8203 14.7801 25.8191 15.51 26.2702 15.9612L30.5666 20.2614C31.0175 20.7122 31.7496 20.7122 32.2006 20.2614C34.7907 17.6713 37.3495 15.0538 39.928 12.452C40.3765 11.9988 40.3753 11.269 39.9244 10.8205C39.474 10.3724 38.7428 10.3749 38.2946 10.8251L31.939 17.2469C31.8664 17.3204 31.7799 17.3788 31.6845 17.4188C31.5892 17.4587 31.4869 17.4794 31.3836 17.4796C31.2802 17.4799 31.1779 17.4597 31.0823 17.4203C30.9868 17.3808 30.9 17.3229 30.827 17.2498ZM14.9591 9.20832C15.2219 9.84259 15.6069 10.4189 16.0924 10.9044C16.5778 11.3898 17.1542 11.7749 17.7884 12.0376C17.9319 12.0969 18.0546 12.1974 18.1409 12.3265C18.2272 12.4555 18.2733 12.6073 18.2733 12.7625C18.2733 12.9178 18.2272 13.0695 18.1409 13.1986C18.0546 13.3276 17.9319 13.4282 17.7884 13.4874C17.1542 13.7502 16.5778 14.1352 16.0924 14.6207C15.6069 15.1061 15.2219 15.6825 14.9591 16.3167C14.8999 16.4602 14.7993 16.5829 14.6703 16.6692C14.5412 16.7555 14.3895 16.8016 14.2342 16.8016C14.079 16.8016 13.9272 16.7555 13.7982 16.6692C13.6691 16.5829 13.5686 16.4602 13.5093 16.3167C13.2466 15.6825 12.8615 15.1061 12.3761 14.6207C11.8906 14.1352 11.3143 13.7502 10.68 13.4874C10.5365 13.4282 10.4138 13.3276 10.3275 13.1986C10.2412 13.0695 10.1951 12.9178 10.1951 12.7625C10.1951 12.6073 10.2412 12.4555 10.3275 12.3265C10.4138 12.1974 10.5365 12.0969 10.68 12.0376C11.3143 11.7749 11.8906 11.3898 12.3761 10.9044C12.8615 10.4189 13.2466 9.84259 13.5093 9.20832C13.5686 9.06482 13.6691 8.94215 13.7982 8.85584C13.9272 8.76952 14.079 8.72344 14.2342 8.72344C14.3895 8.72344 14.5412 8.76952 14.6703 8.85584C14.7993 8.94215 14.8999 9.06482 14.9591 9.20832ZM14.2342 11.1238C13.7855 11.7596 13.2313 12.3138 12.5955 12.7625C13.2313 13.2112 13.7855 13.7655 14.2342 14.4013C14.6829 13.7655 15.2372 13.2112 15.8729 12.7625C15.2372 12.3138 14.6829 11.7596 14.2342 11.1238Z" fill="white"/>
</svg>
