<svg width="50" height="50" viewBox="0 0 50 50" fill="none" xmlns="http://www.w3.org/2000/svg">
<path d="M37.115 26.2504C36.828 29.0327 35.5951 31.6324 33.6222 33.6153C31.6493 35.5982 29.0559 36.8442 26.275 37.1454C26.219 37.1447 26.1634 37.1552 26.1116 37.1763C26.0597 37.1975 26.0126 37.2287 25.973 37.2683C25.9334 37.3079 25.9021 37.3551 25.881 37.4069C25.8599 37.4588 25.8493 37.5144 25.85 37.5704V46.6654C25.85 46.8908 25.7604 47.107 25.601 47.2664C25.4416 47.4258 25.2254 47.5154 25 47.5154C24.7746 47.5154 24.5584 47.4258 24.399 47.2664C24.2396 47.107 24.15 46.8908 24.15 46.6654V43.3654C24.1419 43.2553 24.0945 43.1519 24.0165 43.0738C23.9385 42.9958 23.835 42.9484 23.725 42.9403C19.9446 42.6344 16.3587 41.1369 13.4835 38.6633C10.6083 36.1898 8.59205 32.8677 7.725 29.1754C7.69273 29.066 7.6828 28.9512 7.69581 28.8379C7.70882 28.7245 7.74451 28.615 7.80074 28.5158C7.85697 28.4165 7.9326 28.3296 8.02312 28.2602C8.11364 28.1909 8.2172 28.1404 8.32764 28.1119C8.43807 28.0833 8.55312 28.0773 8.66592 28.0942C8.77873 28.111 8.88699 28.1504 8.98425 28.21C9.08151 28.2696 9.16579 28.3481 9.23206 28.441C9.29834 28.5338 9.34524 28.639 9.37 28.7504C10.1408 32.0647 11.9382 35.0511 14.506 37.284C17.0737 39.5168 20.2808 40.8822 23.67 41.1854C23.78 41.2404 23.885 41.1854 23.99 41.0804C24.0455 41.049 24.0904 41.0018 24.1189 40.9448C24.1474 40.8878 24.1582 40.8236 24.15 40.7603V37.5704C24.1507 37.5144 24.1401 37.4588 24.119 37.4069C24.0979 37.3551 24.0666 37.3079 24.027 37.2683C23.9874 37.2287 23.9403 37.1975 23.8884 37.1763C23.8366 37.1552 23.781 37.1447 23.725 37.1454C20.9574 36.837 18.3747 35.6038 16.395 33.6454C14.4157 31.6561 13.18 29.0471 12.895 26.2554C12.8788 26.1532 12.8275 26.0599 12.7499 25.9914C12.6724 25.923 12.5734 25.8837 12.47 25.8804H3.375C3.14294 25.8804 2.92038 25.7882 2.75628 25.6241C2.59219 25.46 2.5 25.2374 2.5 25.0054C2.5 24.7733 2.59219 24.5507 2.75628 24.3866C2.92038 24.2225 3.14294 24.1304 3.375 24.1304H6.83C6.9331 24.126 7.03158 24.0864 7.10896 24.0182C7.18633 23.9499 7.23789 23.8571 7.255 23.7554C7.48188 19.9805 8.88443 16.3714 11.266 13.4339C13.6475 10.4964 16.8887 8.37788 20.535 7.37535C20.7558 7.33344 20.9843 7.3776 21.1736 7.49879C21.3629 7.61997 21.4986 7.80899 21.553 8.02707C21.6073 8.24516 21.5762 8.47577 21.4659 8.67163C21.3557 8.86748 21.1747 9.01372 20.96 9.08035C17.6978 9.96001 14.7918 11.8364 12.6476 14.4476C10.5034 17.0588 9.22822 20.2744 9 23.6454C8.9859 23.7075 8.98646 23.772 9.00164 23.8338C9.01681 23.8957 9.04619 23.9531 9.08743 24.0017C9.12867 24.0502 9.18065 24.0884 9.23925 24.1134C9.29784 24.1383 9.36144 24.1493 9.425 24.1454H12.45C12.5534 24.142 12.6524 24.1027 12.7299 24.0343C12.8075 23.9658 12.8588 23.8725 12.875 23.7704C13.1581 20.9829 14.3906 18.3773 16.3658 16.3902C18.3411 14.4031 20.9392 13.1551 23.725 12.8554C23.781 12.856 23.8366 12.8455 23.8884 12.8244C23.9403 12.8032 23.9874 12.772 24.027 12.7324C24.0666 12.6928 24.0979 12.6456 24.119 12.5938C24.1401 12.5419 24.1507 12.4864 24.15 12.4304V3.33535C24.15 3.10992 24.2396 2.89372 24.399 2.73431C24.5584 2.5749 24.7746 2.48535 25 2.48535C25.2254 2.48535 25.4416 2.5749 25.601 2.73431C25.7604 2.89372 25.85 3.10992 25.85 3.33535V13.6504C25.8557 13.7707 25.8362 13.8909 25.7927 14.0033C25.7493 14.1157 25.6828 14.2178 25.5976 14.303C25.5124 14.3882 25.4104 14.4546 25.298 14.4981C25.1856 14.5416 25.0654 14.5611 24.945 14.5554C15.7 14.5554 11.08 25.8754 17.615 32.4154C24.15 38.9554 35.305 34.2754 35.465 25.0004C35.4637 24.8884 35.4847 24.7772 35.527 24.6735C35.5692 24.5698 35.6318 24.4755 35.711 24.3963C35.7902 24.3171 35.8844 24.2546 35.9881 24.2123C36.0919 24.1701 36.203 24.149 36.315 24.1504H46.625C46.8571 24.1504 47.0796 24.2425 47.2437 24.4066C47.4078 24.5707 47.5 24.7933 47.5 25.0254C47.5 25.2574 47.4078 25.48 47.2437 25.6441C47.0796 25.8082 46.8571 25.9004 46.625 25.9004H43.225C43.1195 25.8961 43.0164 25.9327 42.9373 26.0026C42.8581 26.0724 42.8089 26.1701 42.8 26.2754C42.5241 30.0737 41.0551 33.6878 38.6029 36.6016C36.1506 39.5154 32.8405 41.5799 29.145 42.5004C28.03 42.7654 27.645 41.0653 28.77 40.8004C32.0702 39.9798 35.0299 38.1446 37.232 35.5531C39.4341 32.9617 40.7677 29.7447 41.045 26.3554C41.0591 26.2932 41.0585 26.2287 41.0434 26.1669C41.0282 26.105 40.9988 26.0476 40.9576 25.999C40.9163 25.9505 40.8643 25.9123 40.8058 25.8873C40.7472 25.8624 40.6836 25.8514 40.62 25.8554H37.54C37.4366 25.8587 37.3376 25.898 37.2601 25.9664C37.1825 26.0349 37.1312 26.1282 37.115 26.2304V26.2504ZM44 12.1104L37.855 18.2204C37.7048 18.3833 37.4964 18.4804 37.275 18.4904H33.18C33.0682 18.5001 32.9603 18.5361 32.865 18.5954L25.585 25.9304C25.4213 26.0833 25.2047 26.1668 24.9807 26.1632C24.7567 26.1596 24.5428 26.0693 24.3841 25.9112C24.2253 25.7531 24.1341 25.5396 24.1296 25.3156C24.1251 25.0917 24.2077 24.8747 24.36 24.7104L31.64 17.3704C31.689 17.3458 31.73 17.3079 31.7583 17.261C31.7866 17.2141 31.8011 17.1601 31.8 17.1054V13.0004C31.799 12.8821 31.8219 12.7649 31.8675 12.6557C31.913 12.5466 31.9802 12.4478 32.065 12.3654L38.175 6.26035C38.293 6.1328 38.4466 6.04374 38.616 6.00476C38.7853 5.96578 38.9624 5.9787 39.1243 6.04183C39.2862 6.10497 39.4253 6.21538 39.5235 6.3587C39.6217 6.50202 39.6745 6.6716 39.675 6.84535V10.1954C39.6821 10.3057 39.7291 10.4098 39.8073 10.488C39.8856 10.5662 39.9896 10.6133 40.1 10.6204H43.395C43.5708 10.6157 43.7438 10.6642 43.8916 10.7594C44.0395 10.8545 44.1552 10.992 44.2237 11.1539C44.2922 11.3158 44.3104 11.4946 44.2759 11.667C44.2413 11.8394 44.1556 11.9974 44.03 12.1204L44 12.1104ZM37 16.6104L40.56 13.0504C40.6219 12.9932 40.6656 12.9192 40.6857 12.8374C40.7059 12.7556 40.7016 12.6697 40.6733 12.5904C40.6451 12.5111 40.5942 12.4418 40.527 12.3911C40.4597 12.3404 40.379 12.3106 40.295 12.3054H38.795C38.5628 12.3108 38.3377 12.2247 38.1684 12.0657C37.9991 11.9067 37.8991 11.6875 37.89 11.4554V10.0004C37.8896 9.91424 37.8639 9.83014 37.8162 9.75849C37.7684 9.68683 37.7007 9.63075 37.6214 9.59722C37.542 9.56368 37.4546 9.55416 37.37 9.56983C37.2853 9.58549 37.2071 9.62566 37.145 9.68535L33.645 13.2454C33.5516 13.3268 33.4941 13.4418 33.485 13.5654V16.3304C33.4843 16.3863 33.4949 16.4419 33.516 16.4938C33.5371 16.5456 33.5684 16.5928 33.608 16.6324C33.6476 16.672 33.6947 16.7032 33.7466 16.7244C33.7984 16.7455 33.854 16.756 33.91 16.7554H36.725C36.835 16.7554 36.94 16.7554 36.99 16.6454L37 16.6104ZM32.22 25.0104C32.222 26.44 31.7998 27.838 31.0069 29.0276C30.214 30.2172 29.086 31.1448 27.7657 31.693C26.4454 32.2412 24.9921 32.3854 23.5898 32.1074C22.1875 31.8293 20.8992 31.1415 19.8879 30.131C18.8767 29.1204 18.188 27.8326 17.909 26.4305C17.6299 25.0284 17.7731 23.575 18.3205 22.2543C18.8678 20.9336 19.7946 19.805 20.9836 19.0112C22.1726 18.2175 23.5704 17.7944 25 17.7954C25.2148 17.8118 25.4155 17.9088 25.5619 18.0668C25.7083 18.2249 25.7897 18.4324 25.7897 18.6479C25.7897 18.8633 25.7083 19.0708 25.5619 19.2289C25.4155 19.3869 25.2148 19.4839 25 19.5004C23.5413 19.5004 22.1424 20.0798 21.1109 21.1113C20.0795 22.1427 19.5 23.5417 19.5 25.0004C19.5 26.459 20.0795 27.858 21.1109 28.8894C22.1424 29.9209 23.5413 30.5004 25 30.5004C28.19 30.5004 30.315 28.1104 30.47 25.0004C30.465 24.8797 30.4849 24.7593 30.5284 24.6467C30.572 24.5341 30.6382 24.4317 30.723 24.3457C30.8078 24.2598 30.9094 24.1923 31.0215 24.1473C31.1335 24.1023 31.2536 24.0809 31.3743 24.0843C31.495 24.0878 31.6137 24.116 31.723 24.1673C31.8323 24.2186 31.9299 24.2918 32.0097 24.3824C32.0895 24.473 32.1498 24.5791 32.1868 24.694C32.2238 24.8089 32.2368 24.9302 32.225 25.0504L32.22 25.0104Z" fill="white"/>
</svg>
