<svg width="50" height="50" viewBox="0 0 50 50" fill="none" xmlns="http://www.w3.org/2000/svg">
<path d="M19.4531 41.3281C14.1406 41.3281 9.84375 37.0312 9.84375 31.7187C9.84375 26.4062 14.1406 22.1094 19.4531 22.1094C23.9844 22.1094 27.9688 25.3125 28.8281 29.7656C28.9063 30.1562 28.6719 30.5469 28.2031 30.625C27.8125 30.7031 27.4219 30.4688 27.3438 30C26.5625 26.25 23.2813 23.5156 19.4531 23.5156C15 23.5156 11.4063 27.1094 11.4063 31.5625C11.4063 36.0156 15 39.6094 19.4531 39.6094C23.4375 39.6094 26.875 36.6406 27.4219 32.7344C27.5 32.3438 27.8906 32.0312 28.2813 32.1094C28.6719 32.1875 28.9844 32.5781 28.9063 32.9688C28.2813 37.8125 24.1406 41.3281 19.4531 41.3281Z" fill="#14171B"/>
<path d="M21.25 50.0003H17.4219C17.0312 50.0003 16.7187 49.6878 16.6406 49.3753L16.0156 45.0003C14.6875 44.6878 13.4375 44.141 12.2656 43.4378L8.75 46.016C8.4375 46.2503 8.04687 46.1722 7.73437 45.9378L5 43.2035C4.76562 42.9691 4.6875 42.5003 4.92188 42.1878L7.57812 38.6722C6.875 37.5003 6.40625 36.2503 6.09375 34.9222L1.79687 34.2972C1.40625 34.2191 1.17188 33.9066 1.17188 33.516V29.6097C1.17188 29.2191 1.48437 28.9066 1.79687 28.8285L6.17188 28.2035C6.48438 26.8753 7.03125 25.6253 7.73437 24.4535L5.15625 20.9378C4.92188 20.6253 5 20.2347 5.23438 19.9222L7.96875 17.1878C8.20312 16.9535 8.67188 16.8753 8.98438 17.1097L12.5 19.766C13.6719 19.0628 14.9219 18.5941 16.25 18.2816L16.4844 16.7191C16.5625 16.3285 16.9531 16.016 17.3438 16.0941C17.7344 16.1722 18.0469 16.5628 17.9688 16.9535L17.6562 19.0628C17.5781 19.3753 17.3438 19.6097 17.0312 19.6878C15.5469 20.0003 14.1406 20.5472 12.8125 21.4066C12.5781 21.5628 12.1875 21.5628 11.9531 21.4066L8.59375 18.8285L6.79688 20.6253L9.29688 23.9847C9.45312 24.2191 9.53125 24.6097 9.29688 24.8441C8.4375 26.0941 7.8125 27.5003 7.5 28.9847C7.42188 29.2972 7.1875 29.5316 6.875 29.5316L2.65625 30.1566V32.8128L6.79688 33.4378C7.10938 33.516 7.34375 33.7503 7.42188 34.0628C7.73438 35.5472 8.28125 36.9535 9.14062 38.2816C9.29688 38.516 9.29688 38.9066 9.14062 39.141L6.5625 42.5785L8.35938 44.3753L11.7188 41.8753C11.9531 41.7191 12.3438 41.641 12.5781 41.8753C13.8281 42.7347 15.2344 43.3597 16.7188 43.6722C17.0312 43.7503 17.2656 43.9847 17.2656 44.2972L17.8906 48.516H20.4688L21.0938 44.3753C21.1719 44.0628 21.4062 43.8285 21.7188 43.7503C23.2031 43.4378 24.6094 42.891 25.9375 42.0316C26.1719 41.8753 26.5625 41.8753 26.7969 42.0316L30.2344 44.6097L32.0312 42.8128L29.6875 39.3753C29.5312 39.141 29.4531 38.7503 29.6875 38.516C30.5469 37.266 31.1719 35.8597 31.4844 34.3753C31.5625 34.0628 31.7969 33.8285 32.1094 33.8285H32.1875L36.3281 33.2035V30.6253L32.1875 30.0003C31.875 29.9222 31.6406 29.6878 31.5625 29.3753C31.5625 29.2972 31.5625 29.2191 31.4844 29.141C31.1719 27.6566 30.625 26.4066 29.8438 25.1566C29.6875 24.9222 29.6875 24.5316 29.8438 24.2972L32.3438 20.8597L30.5469 19.0628L27.1875 21.5628C26.9531 21.7191 26.5625 21.7972 26.3281 21.5628C25.0781 20.7035 23.6719 20.0785 22.1875 19.766C21.875 19.6878 21.6406 19.4535 21.6406 19.141L21.3281 16.9535C21.25 16.5628 21.5625 16.1722 21.9531 16.0941C22.3438 16.016 22.7344 16.3285 22.8125 16.7191L23.0469 18.4378C24.375 18.7503 25.625 19.2972 26.7969 20.0003L30.3125 17.4222C30.625 17.1878 31.0156 17.266 31.3281 17.5003L34.0625 20.2347C34.2969 20.4691 34.375 20.9378 34.1406 21.2503L31.4844 24.766C32.1875 25.9378 32.6562 27.1878 32.9688 28.516L37.2656 29.141C37.6562 29.2191 37.8906 29.5316 37.8906 29.9222V33.7503C37.8906 34.141 37.5781 34.4535 37.2656 34.5316L32.7344 35.1566C32.4219 36.4847 31.875 37.7347 31.1719 38.9066L33.75 42.4222C33.9844 42.7347 33.9062 43.1253 33.6719 43.4378L30.9375 46.0941C30.7031 46.3285 30.2344 46.4066 29.9219 46.1722L26.4062 43.516C25.2344 44.2191 23.9844 44.6878 22.6562 45.0003L22.0312 49.2972C21.9531 49.6878 21.6406 50.0003 21.25 50.0003ZM28.2031 33.8285H28.0469C27.6563 33.7503 27.3437 33.3597 27.4219 32.9691C27.5 32.5785 27.5 32.1878 27.5 31.7191C27.5 31.1722 27.4219 30.6253 27.3438 30.1566C27.2656 29.766 27.5 29.3753 27.9688 29.2972C28.3594 29.2191 28.75 29.4535 28.8281 29.9222C28.9844 30.5472 28.9844 31.1722 28.9844 31.7972C28.9844 32.3441 28.9844 32.8128 28.9062 33.2816C28.9062 33.516 28.5937 33.8285 28.2031 33.8285Z" fill="#14171B"/>
<path d="M37.0325 37.8906C34.845 37.8906 32.8137 36.7187 31.6419 34.8437C31.4075 34.4531 31.5637 33.9844 31.8762 33.8281C32.2669 33.5938 32.7356 33.75 32.8919 34.0625C33.7512 35.4687 35.3137 36.3281 36.9544 36.3281C39.6106 36.3281 41.7981 34.1406 41.7981 31.5625C41.7981 28.9063 39.6106 26.7188 36.9544 26.7188C35.2356 26.7188 33.595 27.6563 32.7356 29.2188C32.5012 29.6094 32.0325 29.6875 31.72 29.5312C31.3294 29.2969 31.2512 28.8281 31.4075 28.5156C32.5012 26.4844 34.6106 25.2344 36.9544 25.2344C40.47 25.2344 43.2825 28.0469 43.2825 31.5625C43.3606 35.0781 40.47 37.8906 37.0325 37.8906Z" fill="#14171B"/>
<path d="M38.125 43.3594H35.7031C35.3125 43.3594 35 43.0469 34.9219 42.7344L34.5312 40.1562C33.8281 39.9219 33.125 39.6875 32.4219 39.2969L31.25 40.2344C30.9375 40.4688 30.4688 40.3906 30.1562 40.0781C29.9219 39.7656 30 39.2969 30.3125 38.9844L32.0312 37.7344C32.2656 37.5781 32.6562 37.5 32.8906 37.7344C33.6719 38.2812 34.5312 38.5938 35.3906 38.8281C35.7031 38.9062 35.9375 39.1406 36.0156 39.4531L36.4062 41.875H37.5L37.8906 39.5312C37.9687 39.2188 38.2031 38.9844 38.5156 38.9062C39.4531 38.75 40.3125 38.3594 41.0937 37.8906C41.3281 37.7344 41.7188 37.7344 41.9531 37.8906L43.9063 39.375L44.6875 38.5938L43.2812 36.6406C43.125 36.4062 43.0469 36.0156 43.2812 35.7812C43.8281 35 44.1406 34.1406 44.375 33.2812C44.4531 32.9688 44.6875 32.7344 45 32.6562L47.4219 32.2656V31.1719L45.0781 30.7813C44.7656 30.7031 44.5312 30.4687 44.4531 30.1562C44.2969 29.2187 43.9062 28.3594 43.4375 27.5781C43.2812 27.3438 43.2812 26.9531 43.4375 26.7188L44.9219 24.7656L44.1406 23.9844L42.1875 25.3906C41.9531 25.5469 41.5625 25.625 41.3281 25.3906C40.5469 24.8438 39.6875 24.5312 38.8281 24.2969C38.5156 24.2188 38.2812 23.9844 38.2812 23.6719L37.8906 21.25H36.7969L36.4062 23.5938C36.3281 23.9062 36.0938 24.1406 35.7813 24.2188C34.8438 24.375 33.9844 24.7656 33.2031 25.2344C32.9688 25.3906 32.5781 25.3906 32.3438 25.2344L30.9375 24.2188C30.625 23.9844 30.5469 23.5156 30.7813 23.125C31.0156 22.8125 31.4844 22.7344 31.875 22.9688L32.8906 23.6719C33.5156 23.2812 34.2188 23.0469 35 22.8125L35.3906 20.3125C35.4688 19.9219 35.7813 19.6875 36.1719 19.6875H38.5938C38.9844 19.6875 39.2969 20 39.375 20.3125L39.7656 22.8906C40.4688 23.125 41.1719 23.3594 41.7969 23.75L43.8281 22.2656C44.1406 22.0312 44.5312 22.1094 44.8438 22.3438L46.5625 24.0625C46.7969 24.2969 46.875 24.7656 46.6406 25.0781L45.0781 27.1875C45.4688 27.8125 45.7031 28.5156 45.9375 29.2969L48.4375 29.6875C48.8281 29.7656 49.0625 30.0781 49.0625 30.4688V32.8906C49.0625 33.2812 48.75 33.5938 48.4375 33.6719L45.8594 34.0625C45.625 34.7656 45.3906 35.4688 45 36.1719L46.4844 38.2031C46.7188 38.5156 46.6406 38.9062 46.4062 39.2188L44.6875 40.9375C44.4531 41.1719 43.9844 41.25 43.6719 41.0156L41.5625 39.4531C40.8594 39.8438 40.2344 40.0781 39.4531 40.3125L39.0625 42.8125C38.8281 43.125 38.5156 43.3594 38.125 43.3594ZM19.4531 17.9688C14.5312 17.9688 10.4688 13.9062 10.4688 8.98438C10.4688 4.0625 14.5312 0 19.4531 0C24.375 0 28.4375 4.0625 28.4375 8.98438C28.4375 13.9062 24.4531 17.9688 19.4531 17.9688ZM19.4531 1.48438C15.3125 1.48438 11.9531 4.84375 11.9531 8.98438C11.9531 13.125 15.3125 16.4844 19.4531 16.4844C23.5938 16.4844 26.9531 13.125 26.9531 8.98438C26.9531 4.84375 23.5938 1.48438 19.4531 1.48438Z" fill="#14171B"/>
<path d="M17.1089 12.8903H17.0308C16.7964 12.8903 16.6402 12.7341 16.4839 12.4997L14.4527 9.14034C14.2183 8.74972 14.3746 8.28097 14.6871 8.12472C15.0777 7.89034 15.5464 8.04659 15.7027 8.35909L17.2652 10.9372L23.2808 5.31222C23.5933 4.99972 24.0621 5.07784 24.3746 5.39034C24.6871 5.70284 24.6089 6.17159 24.2964 6.48409L17.5777 12.7341C17.4996 12.8122 17.3433 12.8903 17.1089 12.8903Z" fill="#14171B"/>
</svg>
