<svg width="50" height="50" viewBox="0 0 50 50" fill="none" xmlns="http://www.w3.org/2000/svg">
<path d="M42.1252 7.8748C37.5509 3.30049 31.469 0.78125 25 0.78125C18.531 0.78125 12.4491 3.30049 7.8748 7.8748C3.30049 12.4491 0.78125 18.531 0.78125 25C0.78125 28.8142 1.64277 32.4646 3.34189 35.8499C4.96182 39.0773 7.33223 41.9543 10.1971 44.1696C10.3336 44.2756 10.5016 44.3331 10.6744 44.3329C10.8375 44.3331 10.9965 44.2822 11.1291 44.1874C11.2618 44.0927 11.3615 43.9588 11.4143 43.8045C11.467 43.6502 11.4702 43.4833 11.4233 43.3271C11.3764 43.171 11.2818 43.0334 11.1528 42.9337C5.76152 38.7643 2.58584 32.5478 2.3582 25.7812L22.1725 25.7812C22.5154 27.0207 23.6527 27.9338 24.9999 27.9338C26.3471 27.9338 27.4844 27.0207 27.8273 25.7812L47.6415 25.7812C47.4185 32.3495 44.3911 38.4478 39.2554 42.6104C39.0958 42.7413 38.9946 42.93 38.9737 43.1353C38.9529 43.3406 39.0141 43.5458 39.144 43.7062C39.274 43.8665 39.4621 43.9689 39.6673 43.991C39.8724 44.0131 40.078 43.9532 40.2392 43.8242C45.9458 39.1988 49.2188 32.3377 49.2188 25C49.2188 18.531 46.6995 12.4491 42.1252 7.8748ZM47.6413 24.2188H39.3861C39.2801 22.2207 38.756 20.2671 37.8478 18.4842L44.9957 14.3573C46.5771 17.3162 47.5202 20.6647 47.6413 24.2188ZM44.2121 13.0056L37.0639 17.1326C35.9688 15.4597 34.54 14.0309 32.8671 12.9357L36.994 5.7877C39.9139 7.61811 42.3816 10.0857 44.2121 13.0056ZM18.4843 12.152L14.3575 5.0042C17.3164 3.42305 20.6648 2.47988 24.2188 2.35879V10.6137C22.2207 10.7196 20.2671 11.2437 18.4843 12.152ZM25.7812 2.35869C29.335 2.47979 32.6835 3.42285 35.6424 5.0041L31.5155 12.152C29.7327 11.2437 27.7792 10.7197 25.7812 10.6136V2.35869ZM13.0058 5.78779L17.1327 12.9358C15.4598 14.031 14.0311 15.4598 12.9359 17.1327L5.78779 13.0058C7.61822 10.0859 10.0859 7.61822 13.0058 5.78779ZM12.1521 18.4842C11.2439 20.267 10.7199 22.2206 10.6138 24.2187H2.35869C2.47979 20.6647 3.42295 17.3162 5.0042 14.3573L12.1521 18.4842ZM22.1726 24.2187H12.1793C12.5845 17.4982 18.1795 12.1546 24.9999 12.1546C31.8204 12.1546 37.4153 17.4982 37.8206 24.2187H27.8274C27.7631 23.9864 27.6703 23.7631 27.5511 23.5537L30.7557 20.3491C30.9022 20.2026 30.9845 20.0039 30.9845 19.7967C30.9845 19.5895 30.9022 19.3908 30.7557 19.2442C30.6091 19.0977 30.4104 19.0154 30.2032 19.0154C29.996 19.0154 29.7973 19.0977 29.6508 19.2442L26.4462 22.4488C26.0056 22.1976 25.5072 22.0657 25 22.0661C23.6528 22.066 22.5155 22.9791 22.1726 24.2187ZM25 26.3713C24.2438 26.3713 23.6286 25.7561 23.6286 24.9999C23.6286 24.2437 24.2438 23.6285 25 23.6285C25.7562 23.6285 26.3714 24.2437 26.3714 24.9999C26.3714 25.7561 25.7562 26.3713 25 26.3713ZM23.5069 36.5324H20.0218C19.8146 36.5324 19.6159 36.6147 19.4694 36.7612C19.3228 36.9078 19.2405 37.1065 19.2405 37.3137V48.4375C19.2405 48.6447 19.3228 48.8434 19.4694 48.9899C19.6159 49.1364 19.8146 49.2188 20.0218 49.2188H23.5069C23.7141 49.2188 23.9128 49.1364 24.0594 48.9899C24.2059 48.8434 24.2882 48.6447 24.2882 48.4375V37.3137C24.2882 37.1065 24.2059 36.9078 24.0594 36.7612C23.9128 36.6147 23.7141 36.5324 23.5069 36.5324ZM22.7257 47.6562H20.803V38.0949H22.7257V47.6562ZM29.9783 37.985H26.4932C26.286 37.985 26.0872 38.0673 25.9407 38.2138C25.7942 38.3603 25.7119 38.559 25.7119 38.7662V48.4375C25.7119 48.6447 25.7942 48.8434 25.9407 48.9899C26.0872 49.1364 26.286 49.2188 26.4932 49.2188H29.9783C30.1855 49.2188 30.3842 49.1364 30.5307 48.9899C30.6773 48.8434 30.7596 48.6447 30.7596 48.4375V38.7662C30.7596 38.559 30.6773 38.3603 30.5307 38.2138C30.3842 38.0673 30.1855 37.985 29.9783 37.985ZM29.1971 47.6562H27.2744V39.5475H29.1971V47.6562ZM36.4494 31.9607H32.9643C32.7571 31.9607 32.5583 32.0431 32.4118 32.1896C32.2653 32.3361 32.183 32.5348 32.183 32.742V48.4374C32.183 48.6446 32.2653 48.8433 32.4118 48.9898C32.5583 49.1363 32.7571 49.2187 32.9643 49.2187H36.4494C36.6566 49.2187 36.8553 49.1363 37.0018 48.9898C37.1484 48.8433 37.2307 48.6446 37.2307 48.4374V32.742C37.2307 32.5348 37.1484 32.3361 37.0018 32.1896C36.8553 32.0431 36.6566 31.9607 36.4494 31.9607ZM35.6682 47.6562H33.7455V33.5232H35.6682V47.6562ZM17.0356 40.8473H13.5505C13.3433 40.8473 13.1446 40.9296 12.9981 41.0761C12.8515 41.2226 12.7692 41.4213 12.7692 41.6285V48.4374C12.7692 48.6446 12.8515 48.8433 12.9981 48.9898C13.1446 49.1363 13.3433 49.2187 13.5505 49.2187H17.0356C17.2428 49.2187 17.4416 49.1363 17.5881 48.9898C17.7346 48.8433 17.8169 48.6446 17.8169 48.4374V41.6285C17.8169 41.4213 17.7346 41.2226 17.5881 41.0761C17.4416 40.9296 17.2428 40.8473 17.0356 40.8473ZM16.2544 47.6562H14.3317V42.4098H16.2544V47.6562ZM28.0008 32.9806L32.6279 28.3139C32.2129 28.3278 31.8586 28.0185 31.8221 27.6024C31.804 27.396 31.8686 27.1909 32.0018 27.0321C32.1349 26.8733 32.3257 26.774 32.5321 26.7559L34.6387 26.5711C34.7539 26.561 34.87 26.5766 34.9784 26.6168C35.0869 26.657 35.1851 26.7208 35.2659 26.8036C35.3468 26.8864 35.4082 26.9861 35.4458 27.0955C35.4834 27.2049 35.4962 27.3213 35.4834 27.4362L35.2484 29.5379C35.2254 29.7438 35.1215 29.9321 34.9597 30.0614C34.7978 30.1907 34.5912 30.2504 34.3853 30.2274C33.9889 30.1831 33.6958 29.8494 33.6916 29.4605L28.772 34.4222C28.6702 34.5248 28.5419 34.5972 28.4014 34.6313C28.2609 34.6654 28.1137 34.6598 27.9762 34.6152L21.9178 32.6495L15.7734 37.4339C15.6365 37.5408 15.4678 37.5988 15.294 37.5987C15.1313 37.5988 14.9725 37.548 14.84 37.4534C14.7075 37.3589 14.6079 37.2253 14.5549 37.0714C14.502 36.9174 14.4985 36.7508 14.5448 36.5948C14.5912 36.4387 14.6851 36.3011 14.8135 36.201L21.2848 31.162C21.3855 31.0836 21.5039 31.0311 21.6296 31.009C21.7553 30.9869 21.8845 30.996 22.0059 31.0354L28.0008 32.9806Z" fill="#14171B"/>
</svg>
