<svg width="50" height="50" viewBox="0 0 50 50" fill="none" xmlns="http://www.w3.org/2000/svg">
<g clip-path="url(#clip0_9221_22416)">
<path d="M17.5021 33.3337C19.343 33.3337 20.8353 31.8414 20.8353 30.0005C20.8353 28.1597 19.343 26.6673 17.5021 26.6673H9.16911C7.32826 26.6673 5.83594 28.1597 5.83594 30.0005C5.83594 31.8414 7.32826 33.3337 9.16911 33.3337H17.5021ZM7.50248 30.0004C7.50248 29.08 8.24864 28.3338 9.16911 28.3338H17.5021C18.4226 28.3338 19.1687 29.08 19.1687 30.0004C19.1687 30.9209 18.4226 31.6671 17.5021 31.6671H9.16911C8.24864 31.6671 7.50248 30.9209 7.50248 30.0004ZM8.33584 23.3341H18.3355C18.5565 23.3341 18.7684 23.2463 18.9247 23.09C19.081 22.9337 19.1687 22.7218 19.1687 22.5008C19.1687 22.2798 19.081 22.0679 18.9247 21.9116C18.7684 21.7553 18.5565 21.6675 18.3355 21.6675H8.33584C8.11485 21.6675 7.9029 21.7553 7.74663 21.9116C7.59037 22.0679 7.50257 22.2798 7.50257 22.5008C7.50257 22.7218 7.59037 22.9337 7.74663 23.09C7.9029 23.2463 8.11485 23.3341 8.33584 23.3341ZM8.33584 19.1675H18.3355C18.5565 19.1675 18.7684 19.0797 18.9247 18.9235C19.081 18.7672 19.1687 18.5553 19.1687 18.3343C19.1687 18.1133 19.081 17.9013 18.9247 17.745C18.7684 17.5888 18.5565 17.501 18.3355 17.501H8.33584C8.11485 17.501 7.9029 17.5888 7.74663 17.745C7.59037 17.9013 7.50257 18.1133 7.50257 18.3343C7.50256 18.4437 7.52411 18.552 7.56598 18.6532C7.60785 18.7543 7.66923 18.8461 7.74661 18.9235C7.82398 19.0009 7.91585 19.0623 8.01695 19.1041C8.11805 19.146 8.22641 19.1675 8.33584 19.1675ZM10.8358 14.1677C11.0567 14.1677 11.2687 14.0799 11.425 13.9237C11.5812 13.7674 11.669 13.5554 11.669 13.3344V10.8345H15.0022V13.3344C15.0022 13.5554 15.09 13.7674 15.2463 13.9237C15.4025 14.0799 15.6145 14.1677 15.8355 14.1677C16.0565 14.1677 16.2684 14.0799 16.4247 13.9237C16.5809 13.7674 16.6687 13.5554 16.6687 13.3344V7.50126C16.6687 5.66041 15.1764 4.16808 13.3356 4.16808C11.4947 4.16808 10.0024 5.66041 10.0024 7.50126V13.3343C10.0024 13.5554 10.0902 13.7673 10.2465 13.9236C10.4028 14.0799 10.6147 14.1677 10.8358 14.1677ZM13.3357 5.83472C14.2561 5.83472 15.0023 6.58089 15.0023 7.50136V9.168H11.6691V7.50126C11.669 6.58089 12.4152 5.83472 13.3357 5.83472ZM32.5015 24.1673H40.8345C42.6754 24.1673 44.1677 22.675 44.1677 20.8342C44.1677 18.9933 42.6754 17.501 40.8345 17.501H32.5015C30.6607 17.501 29.1684 18.9933 29.1684 20.8342C29.1684 22.675 30.6607 24.1673 32.5015 24.1673ZM32.5015 19.1675H40.8345C41.755 19.1675 42.5012 19.9137 42.5012 20.8342C42.5012 21.7546 41.755 22.5008 40.8345 22.5008H32.5015C31.5811 22.5008 30.8349 21.7546 30.8349 20.8342C30.835 19.9137 31.5812 19.1675 32.5015 19.1675ZM41.6679 30.8338H31.6683C31.208 30.8338 30.835 31.2068 30.835 31.6671C30.835 32.1273 31.208 32.5003 31.6683 32.5003H41.6679C42.1281 32.5003 42.5012 32.1273 42.5012 31.6671C42.5012 31.2068 42.1281 30.8338 41.6679 30.8338ZM41.6679 26.6672H31.6683C31.4473 26.6672 31.2353 26.755 31.0791 26.9113C30.9228 27.0676 30.835 27.2795 30.835 27.5005C30.835 27.7215 30.9228 27.9335 31.0791 28.0897C31.2353 28.246 31.4473 28.3338 31.6683 28.3338H41.6679C41.8889 28.3338 42.1008 28.246 42.2571 28.0897C42.4134 27.9335 42.5012 27.7215 42.5012 27.5005C42.5012 27.2795 42.4134 27.0676 42.2571 26.9113C42.1008 26.755 41.8889 26.6672 41.6679 26.6672ZM35.0015 14.1677H37.0847C37.7187 14.1689 38.3358 13.9629 38.842 13.5812C39.3482 13.1995 39.7159 12.6628 39.8892 12.053C40.0625 11.4431 40.0318 10.7933 39.8019 10.2024C39.572 9.61152 39.1554 9.11191 38.6155 8.77953C38.9302 8.34501 39.1185 7.83185 39.1596 7.29688C39.2006 6.76191 39.0928 6.22603 38.8481 5.74857C38.6033 5.27111 38.2311 4.87072 37.7728 4.59175C37.3145 4.31278 36.7879 4.16611 36.2514 4.16799H35.0015C34.081 4.16799 33.3348 4.91415 33.3348 5.83462V12.5011C33.3349 13.4215 34.0811 14.1677 35.0015 14.1677ZM37.0848 12.5011H35.0016V10.0012H37.0848C37.7751 10.0012 38.3347 10.5608 38.3347 11.2511C38.3347 11.9415 37.7751 12.5011 37.0848 12.5011ZM35.0015 5.83472H36.2514C36.9417 5.83472 37.5014 6.39437 37.5014 7.08468C37.5014 7.77498 36.9417 8.33463 36.2514 8.33463H35.0015V5.83472Z" fill="#14171B"/>
<path d="M47.4991 0.000976562H2.50082C1.12021 0.000976562 0.000912493 1.12027 0.000912493 2.50088V39.0162C-0.0364885 40.4368 1.08046 41.6208 2.50082 41.6661H16.9852L15.3186 44.9993H12.5004C11.1197 44.9993 10.0004 46.1186 10.0004 47.4992C10.0004 48.8798 11.1197 49.9991 12.5004 49.9991H37.4994C38.88 49.9991 39.9993 48.8799 39.9993 47.4992C39.9993 46.1186 38.88 44.9993 37.4994 44.9993H34.6812L33.0145 41.6661H47.499C48.9193 41.6208 50.0363 40.4368 49.9989 39.0162V2.50088C49.9991 1.12027 48.8799 0.000976562 47.4991 0.000976562ZM1.66755 2.50088C1.66755 2.27989 1.75534 2.06794 1.91161 1.91167C2.06788 1.7554 2.27982 1.66761 2.50082 1.66761H24.1667V34.9997H1.66755V2.50088ZM34.1663 46.6659H37.4995C37.9598 46.6659 38.3328 47.039 38.3328 47.4992C38.3328 47.9594 37.9598 48.3325 37.4995 48.3325H12.5004C12.2795 48.3325 12.0675 48.2447 11.9112 48.0884C11.755 47.9322 11.6672 47.7202 11.6672 47.4992C11.6672 47.2782 11.755 47.0663 11.9112 46.91C12.0675 46.7537 12.2795 46.6659 12.5004 46.6659H34.1663ZM17.182 44.9993L18.8486 41.6661H31.1515L32.8181 44.9993H17.182ZM48.3325 39.0162C48.3476 39.256 48.2692 39.4923 48.1139 39.6756C47.9585 39.859 47.7383 39.975 47.4992 39.9995H2.50092C2.2619 39.975 2.04163 39.859 1.88629 39.6756C1.73095 39.4923 1.65259 39.256 1.66765 39.0162V36.6663H48.3326V39.0162H48.3325ZM48.3325 34.9997H25.8333V1.66761H47.4992C47.6087 1.66761 47.717 1.68917 47.8181 1.73104C47.9192 1.77292 48.0111 1.8343 48.0885 1.91167C48.1658 1.98905 48.2272 2.08091 48.2691 2.18201C48.311 2.2831 48.3325 2.39146 48.3325 2.50088V34.9997Z" fill="#14171B"/>
</g>
<defs>
<clipPath id="clip0_9221_22416">
<rect width="50" height="50" fill="white"/>
</clipPath>
</defs>
</svg>
