<svg width="550" height="243" viewBox="0 0 550 243" fill="none" xmlns="http://www.w3.org/2000/svg">
<path d="M0 30C0 13.4315 13.4315 0 30 0H550V243H30C13.4315 243 0 229.569 0 213V30Z" fill="#7CB8A4"/>
<g clip-path="url(#clip0_9524_3810)">
<path d="M70.3851 28.166C65.1456 28.1915 60.0625 29.9544 55.9323 33.1785C51.802 36.4027 48.858 40.9058 47.5615 45.9825L45.9755 43.584C45.8253 43.3329 45.6259 43.1148 45.3892 42.9429C45.1524 42.7709 44.8833 42.6487 44.5981 42.5836C44.3129 42.5185 44.0174 42.5118 43.7295 42.564C43.4416 42.6162 43.1673 42.7261 42.9231 42.8872C42.6788 43.0482 42.4697 43.2571 42.3084 43.5012C42.1471 43.7453 42.0368 44.0195 41.9844 44.3073C41.9319 44.5951 41.9382 44.8906 42.0031 45.1759C42.0679 45.4612 42.1898 45.7304 42.3615 45.9674L47.1281 53.191C47.4593 53.6544 47.9474 53.9816 48.5018 54.1119C49.0679 54.2242 49.6555 54.1115 50.1398 53.7977L57.2898 48.9812C57.5363 48.8272 57.7494 48.6253 57.9162 48.3873C58.0831 48.1493 58.2003 47.8802 58.2611 47.596C58.3218 47.3117 58.3247 47.0182 58.2696 46.7328C58.2145 46.4474 58.1026 46.1761 57.9404 45.9348C57.7783 45.6936 57.5693 45.4875 57.3259 45.3287C57.0824 45.1699 56.8095 45.0617 56.5234 45.0106C56.2373 44.9594 55.9438 44.9664 55.6605 45.031C55.3771 45.0956 55.1096 45.2166 54.874 45.3867L51.6218 47.5794C52.4874 44.0659 54.3231 40.8664 56.9195 38.346C59.5159 35.8256 62.7685 34.0858 66.3062 33.3251C69.8438 32.5644 73.5241 32.8133 76.9271 34.0436C80.33 35.2738 83.3187 37.4359 85.552 40.283C87.7853 43.1301 89.1734 46.5476 89.5579 50.1457C89.9423 53.7437 89.3077 57.3774 87.7263 60.6321C86.145 63.8868 83.6806 66.6315 80.6144 68.553C77.5482 70.4745 74.0037 71.4954 70.3851 71.4994C67.2832 71.491 64.2292 70.7337 61.4826 69.292C58.7361 67.8503 56.3783 65.7667 54.6096 63.2184C54.4512 62.9751 54.2456 62.7662 54.0049 62.604C53.7642 62.4418 53.4933 62.3296 53.2084 62.2741C52.9235 62.2186 52.6304 62.2209 52.3464 62.2808C52.0624 62.3408 51.7933 62.4572 51.5552 62.6232C51.317 62.7892 51.1147 63.0013 50.9601 63.247C50.8056 63.4927 50.7019 63.7669 50.6554 64.0534C50.6089 64.3399 50.6204 64.6328 50.6892 64.9148C50.7581 65.1968 50.8829 65.4621 51.0563 65.6949C53.9316 69.84 58.0608 72.9536 62.8369 74.5779C67.6131 76.2022 72.7843 76.2516 77.5906 74.7189C82.397 73.1861 86.5849 70.1521 89.5389 66.0626C92.4928 61.9731 94.0571 57.0438 94.0018 51.9994C94.0231 45.7093 91.5487 39.6676 87.1213 35.1996C82.6939 30.7316 76.6751 28.2021 70.3851 28.166Z" fill="white"/>
<path d="M70.1706 38.8906C69.5959 38.8906 69.0448 39.1189 68.6385 39.5252C68.2322 39.9316 68.0039 40.4827 68.0039 41.0573V51.999C68.0131 52.5717 68.2401 53.1194 68.6387 53.5308L75.1387 60.0893C75.5466 60.4908 76.0952 60.717 76.6675 60.7199C77.2398 60.7227 77.7906 60.5019 78.2024 60.1045C78.6103 59.6999 78.8408 59.1498 78.8433 58.5753C78.8457 58.0008 78.6199 57.4488 78.2154 57.0408L72.3372 51.1085V41.0573C72.3372 40.4827 72.109 39.9316 71.7026 39.5252C71.2963 39.1189 70.7452 38.8906 70.1706 38.8906Z" fill="white"/>
</g>
<path d="M483.058 47H410.942C394.405 47 381 60.3892 381 76.9057V138.094C381 154.611 394.405 168 410.942 168H483.058C499.595 168 513 154.611 513 138.094V76.9057C513 60.3892 499.595 47 483.058 47Z" fill="white"/>
<path d="M432 159.544V188L462 159L432 159.544Z" fill="white"/>
<path d="M447.014 129C442.286 129.005 437.604 128.079 433.235 126.274C428.866 124.469 424.895 121.82 421.551 118.48C418.206 115.14 415.553 111.173 413.742 106.807C411.932 102.441 411 97.7604 411 93.0338C410.993 88.3021 411.919 83.6154 413.726 79.2421C415.533 74.8688 418.185 70.8949 421.531 67.5478C424.876 64.2007 428.849 61.5461 433.221 59.7362C437.594 57.9263 442.281 56.9964 447.014 57C456.558 57 465.711 60.7907 472.46 67.5382C479.209 74.2857 483 83.4373 483 92.9797C483.007 97.7085 482.081 102.392 480.276 106.763C478.47 111.134 475.821 115.106 472.478 118.451C469.136 121.797 465.166 124.451 460.796 126.261C456.427 128.071 451.743 129.002 447.014 129Z" fill="#F3DA80"/>
<path d="M429 141H404V144H429V141Z" fill="#D0DAE9"/>
<path d="M429 135H404V138H429V135Z" fill="#D0DAE9"/>
<path d="M429 147H404V150H429V147Z" fill="#D0DAE9"/>
<path d="M429 152H404V155H429V152Z" fill="#D0DAE9"/>
<path d="M460 141H434V144H460V141Z" fill="#D0DAE9"/>
<path d="M460 135H434V138H460V135Z" fill="#D0DAE9"/>
<path d="M460 147H434V150H460V147Z" fill="#D0DAE9"/>
<path d="M460 152H434V155H460V152Z" fill="#D0DAE9"/>
<path d="M490 141H465V144H490V141Z" fill="#D0DAE9"/>
<path d="M490 135H465V138H490V135Z" fill="#D0DAE9"/>
<path d="M490 147H465V150H490V147Z" fill="#D0DAE9"/>
<path d="M490 152H465V155H490V152Z" fill="#D0DAE9"/>
<path d="M447.014 129C442.286 129.005 437.604 128.079 433.235 126.274C428.866 124.469 424.895 121.82 421.551 118.48C418.206 115.14 415.553 111.173 413.742 106.807C411.932 102.441 411 97.7604 411 93.0338C410.993 88.3021 411.919 83.6154 413.726 79.2421C415.533 74.8688 418.185 70.8949 421.531 67.5478C424.876 64.2007 428.849 61.5461 433.221 59.7362C437.594 57.9263 442.281 56.9964 447.014 57C456.558 57 465.711 60.7907 472.46 67.5382C479.209 74.2857 483 83.4373 483 92.9797C483.007 97.7085 482.081 102.392 480.276 106.763C478.47 111.134 475.821 115.106 472.478 118.451C469.136 121.797 465.166 124.451 460.796 126.261C456.427 128.071 451.743 129.002 447.014 129Z" fill="#F3DA80"/>
<path d="M447 108C455.837 108 463 100.837 463 92C463 83.1634 455.837 76 447 76C438.163 76 431 83.1634 431 92C431 100.837 438.163 108 447 108Z" fill="#40B7D6"/>
<mask id="mask0_9524_3810" style="mask-type:luminance" maskUnits="userSpaceOnUse" x="410" y="56" width="73" height="73">
<path d="M446.874 128.712C442.141 128.717 437.453 127.791 433.079 125.986C428.704 124.18 424.729 121.532 421.38 118.191C418.031 114.851 415.375 110.883 413.562 106.517C411.749 102.15 410.816 97.4694 410.816 92.7424C410.809 88.0102 411.737 83.3231 413.546 78.9494C415.355 74.5757 418.011 70.6013 421.36 67.2539C424.709 63.9064 428.687 61.2517 433.065 59.4415C437.443 57.6314 442.136 56.7015 446.874 56.7051C456.43 56.7051 465.595 60.4962 472.352 67.2443C479.109 73.9925 482.905 83.145 482.905 92.6883C482.912 97.4176 481.985 102.102 480.178 106.473C478.37 110.844 475.717 114.816 472.37 118.162C469.024 121.508 465.049 124.163 460.674 125.973C456.299 127.783 451.61 128.714 446.874 128.712Z" fill="white"/>
</mask>
<g mask="url(#mask0_9524_3810)">
<path d="M421.734 128.713C421.734 122.054 424.383 115.668 429.098 110.959C433.813 106.251 440.207 103.605 446.875 103.605C453.542 103.605 459.937 106.251 464.652 110.959C469.366 115.668 472.015 122.054 472.015 128.713H421.734Z" fill="#40B7D6"/>
</g>
<rect x="42" y="98" width="305" height="10" rx="5" fill="white"/>
<rect x="42" y="120" width="211" height="10" rx="5" fill="white"/>
<rect x="42" y="142" width="327" height="10" rx="5" fill="white"/>
<rect x="42" y="164" width="276" height="10" rx="5" fill="white"/>
<rect x="42" y="186" width="167" height="10" rx="5" fill="white"/>
<rect x="42" y="208" width="98" height="10" rx="5" fill="white"/>
<defs>
<clipPath id="clip0_9524_3810">
<rect width="52" height="52" fill="white" transform="translate(42 26)"/>
</clipPath>
</defs>
</svg>
