<svg width="550" height="243" viewBox="0 0 550 243" fill="none" xmlns="http://www.w3.org/2000/svg">
<path d="M0 30C0 13.4315 13.4315 0 30 0H550V243H30C13.4315 243 0 229.569 0 213V30Z" fill="#D2F1E6"/>
<g clip-path="url(#clip0_9524_3812)">
<path d="M352.661 23.0889C352.157 23.0889 351.665 22.9397 351.246 22.6601C350.827 22.3805 350.5 21.9831 350.307 21.5182C350.114 21.0532 350.064 20.5416 350.162 20.0481C350.261 19.5545 350.503 19.1011 350.86 18.7453C351.216 18.3894 351.67 18.1471 352.164 18.0489C352.659 17.9507 353.171 18.0011 353.637 18.1937C354.102 18.3863 354.5 18.7124 354.78 19.1308C355.06 19.5493 355.21 20.0412 355.21 20.5445C355.21 21.2193 354.941 21.8665 354.463 22.3437C353.985 22.8208 353.337 23.0889 352.661 23.0889ZM352.661 19.7443C352.503 19.7454 352.349 19.7932 352.218 19.8817C352.087 19.9703 351.985 20.0956 351.925 20.2419C351.865 20.3882 351.85 20.5489 351.882 20.7038C351.913 20.8587 351.99 21.0007 352.102 21.1121C352.214 21.2235 352.357 21.2992 352.512 21.3296C352.668 21.36 352.829 21.3439 352.975 21.2832C353.121 21.2225 353.246 21.1199 353.333 20.9884C353.421 20.857 353.468 20.7025 353.468 20.5445C353.468 20.4389 353.447 20.3344 353.407 20.237C353.366 20.1396 353.307 20.0511 353.232 19.9768C353.157 19.9024 353.068 19.8436 352.97 19.8037C352.872 19.7638 352.767 19.7436 352.661 19.7443Z" fill="white"/>
<path d="M323.485 211.837H316.434C316.203 211.837 315.981 211.746 315.818 211.582C315.655 211.419 315.563 211.198 315.563 210.968C315.563 210.737 315.655 210.516 315.818 210.353C315.981 210.19 316.203 210.098 316.434 210.098H323.485C323.716 210.098 323.938 210.19 324.101 210.353C324.264 210.516 324.356 210.737 324.356 210.968C324.356 211.198 324.264 211.419 324.101 211.582C323.938 211.746 323.716 211.837 323.485 211.837ZM309.467 211.837H302.523C302.292 211.837 302.07 211.746 301.907 211.582C301.744 211.419 301.652 211.198 301.652 210.968C301.652 210.737 301.744 210.516 301.907 210.353C302.07 210.19 302.292 210.098 302.523 210.098H309.467C309.698 210.098 309.92 210.19 310.083 210.353C310.246 210.516 310.338 210.737 310.338 210.968C310.338 211.198 310.246 211.419 310.083 211.582C309.92 211.746 309.698 211.837 309.467 211.837ZM295.546 211.837H288.601C288.37 211.837 288.149 211.746 287.985 211.582C287.822 211.419 287.73 211.198 287.73 210.968C287.73 210.737 287.822 210.516 287.985 210.353C288.149 210.19 288.37 210.098 288.601 210.098H295.546C295.777 210.098 295.998 210.19 296.162 210.353C296.325 210.516 296.417 210.737 296.417 210.968C296.417 211.198 296.325 211.419 296.162 211.582C295.998 211.746 295.777 211.837 295.546 211.837ZM281.619 211.837H274.674C274.443 211.837 274.222 211.746 274.059 211.582C273.895 211.419 273.804 211.198 273.804 210.968C273.804 210.737 273.895 210.516 274.059 210.353C274.222 210.19 274.443 210.098 274.674 210.098H281.619C281.85 210.098 282.071 210.19 282.235 210.353C282.398 210.516 282.49 210.737 282.49 210.968C282.49 211.198 282.398 211.419 282.235 211.582C282.071 211.746 281.85 211.837 281.619 211.837ZM267.698 211.837H260.753C260.522 211.837 260.3 211.746 260.137 211.582C259.974 211.419 259.882 211.198 259.882 210.968C259.882 210.737 259.974 210.516 260.137 210.353C260.3 210.19 260.522 210.098 260.753 210.098H267.698C267.929 210.098 268.15 210.19 268.313 210.353C268.477 210.516 268.568 210.737 268.568 210.968C268.568 211.198 268.477 211.419 268.313 211.582C268.15 211.746 267.929 211.837 267.698 211.837ZM253.771 211.837H246.826C246.595 211.837 246.374 211.746 246.21 211.582C246.047 211.419 245.955 211.198 245.955 210.968C245.955 210.737 246.047 210.516 246.21 210.353C246.374 210.19 246.595 210.098 246.826 210.098H253.771C254.002 210.098 254.223 210.19 254.386 210.353C254.55 210.516 254.641 210.737 254.641 210.968C254.641 211.198 254.55 211.419 254.386 211.582C254.223 211.746 254.002 211.837 253.771 211.837ZM239.844 211.837H232.899C232.668 211.837 232.447 211.746 232.283 211.582C232.12 211.419 232.028 211.198 232.028 210.968C232.028 210.737 232.12 210.516 232.283 210.353C232.447 210.19 232.668 210.098 232.899 210.098H239.844C240.075 210.098 240.296 210.19 240.46 210.353C240.623 210.516 240.715 210.737 240.715 210.968C240.715 211.198 240.623 211.419 240.46 211.582C240.296 211.746 240.075 211.837 239.844 211.837ZM225.922 211.837C223.554 211.762 221.195 211.492 218.871 211.032C218.656 210.974 218.471 210.837 218.353 210.648C218.236 210.46 218.194 210.233 218.238 210.015C218.281 209.797 218.406 209.604 218.587 209.475C218.768 209.346 218.992 209.29 219.213 209.319C221.442 209.766 223.704 210.026 225.976 210.098C226.207 210.098 226.428 210.19 226.591 210.353C226.755 210.516 226.847 210.737 226.847 210.968C226.847 211.198 226.755 211.419 226.591 211.582C226.428 211.746 226.207 211.837 225.976 211.837H225.922ZM330.414 211.272C330.193 211.275 329.98 211.195 329.816 211.048C329.652 210.9 329.551 210.696 329.532 210.477C329.513 210.258 329.578 210.04 329.714 209.866C329.85 209.693 330.046 209.578 330.264 209.543C332.506 209.164 334.711 208.595 336.856 207.842C337.071 207.782 337.3 207.806 337.497 207.909C337.695 208.012 337.846 208.186 337.919 208.396C337.993 208.606 337.983 208.836 337.893 209.039C337.803 209.242 337.638 209.403 337.433 209.49C335.193 210.264 332.891 210.849 330.553 211.24L330.414 211.272ZM212.353 209.138C212.246 209.137 212.139 209.117 212.038 209.079C209.818 208.229 207.674 207.194 205.628 205.985C205.529 205.927 205.443 205.85 205.374 205.759C205.305 205.668 205.255 205.564 205.227 205.453C205.198 205.342 205.192 205.227 205.208 205.114C205.224 205.001 205.262 204.892 205.321 204.793C205.379 204.695 205.456 204.609 205.547 204.54C205.639 204.471 205.743 204.421 205.854 204.393C205.965 204.364 206.08 204.358 206.194 204.374C206.307 204.39 206.416 204.428 206.514 204.486C208.469 205.646 210.519 206.638 212.642 207.452C212.835 207.523 212.996 207.659 213.098 207.837C213.2 208.016 213.235 208.224 213.198 208.426C213.161 208.627 213.054 208.809 212.895 208.94C212.737 209.07 212.537 209.14 212.332 209.138H212.353ZM343.502 206.732C343.309 206.731 343.122 206.665 342.969 206.547C342.817 206.428 342.708 206.262 342.66 206.075C342.612 205.889 342.627 205.691 342.703 205.514C342.779 205.336 342.911 205.189 343.08 205.095C345.069 203.997 346.963 202.735 348.743 201.323C348.925 201.204 349.146 201.157 349.362 201.193C349.577 201.228 349.771 201.344 349.906 201.515C350.04 201.687 350.105 201.903 350.087 202.121C350.07 202.338 349.971 202.541 349.811 202.689C347.954 204.144 345.979 205.442 343.908 206.572C343.779 206.645 343.634 206.684 343.486 206.684L343.502 206.732ZM200.408 202.033C200.212 202.028 200.024 201.957 199.874 201.83C198.066 200.301 196.386 198.625 194.853 196.821C194.779 196.734 194.723 196.633 194.688 196.524C194.653 196.415 194.64 196.301 194.649 196.187C194.658 196.073 194.69 195.962 194.743 195.86C194.795 195.758 194.867 195.668 194.954 195.594C195.042 195.52 195.143 195.464 195.252 195.429C195.361 195.394 195.475 195.381 195.59 195.391C195.704 195.4 195.815 195.432 195.917 195.484C196.018 195.537 196.109 195.608 196.183 195.696C197.651 197.425 199.259 199.031 200.991 200.496C201.167 200.647 201.276 200.861 201.295 201.092C201.314 201.322 201.241 201.551 201.092 201.729C201.008 201.827 200.903 201.906 200.785 201.958C200.667 202.011 200.538 202.036 200.408 202.033ZM354.33 198.075C354.115 198.075 353.908 197.995 353.748 197.851C353.577 197.695 353.473 197.479 353.461 197.248C353.449 197.017 353.529 196.791 353.684 196.618C355.202 194.929 356.577 193.119 357.797 191.204C357.858 191.106 357.937 191.021 358.031 190.953C358.125 190.886 358.231 190.838 358.344 190.812C358.456 190.786 358.573 190.783 358.687 190.802C358.801 190.822 358.909 190.864 359.007 190.926C359.104 190.988 359.188 191.068 359.254 191.163C359.32 191.258 359.367 191.365 359.391 191.477C359.415 191.59 359.416 191.707 359.395 191.82C359.374 191.933 359.33 192.041 359.266 192.138C358.001 194.134 356.571 196.021 354.993 197.781C354.91 197.875 354.808 197.949 354.693 198C354.579 198.05 354.455 198.076 354.33 198.075ZM191.455 191.476C191.304 191.477 191.155 191.438 191.024 191.363C190.893 191.288 190.783 191.18 190.707 191.049C189.495 189.007 188.459 186.865 187.609 184.648C187.545 184.54 187.506 184.419 187.494 184.294C187.482 184.169 187.497 184.042 187.538 183.924C187.58 183.805 187.647 183.697 187.734 183.606C187.821 183.516 187.927 183.445 188.044 183.4C188.162 183.354 188.287 183.334 188.413 183.342C188.539 183.349 188.661 183.384 188.772 183.443C188.883 183.503 188.98 183.585 189.056 183.686C189.131 183.786 189.185 183.901 189.211 184.024C190.032 186.148 191.029 188.2 192.192 190.159C192.31 190.358 192.344 190.595 192.287 190.819C192.23 191.043 192.086 191.235 191.888 191.353C191.757 191.432 191.608 191.474 191.455 191.476ZM361.761 186.393C361.645 186.393 361.531 186.37 361.425 186.323C361.212 186.233 361.044 186.062 360.957 185.848C360.87 185.634 360.871 185.395 360.96 185.182C361.838 183.088 362.54 180.926 363.059 178.717C363.086 178.603 363.134 178.496 363.203 178.402C363.271 178.307 363.357 178.228 363.457 178.167C363.556 178.106 363.667 178.066 363.782 178.049C363.897 178.031 364.015 178.037 364.128 178.066C364.242 178.091 364.35 178.138 364.445 178.206C364.541 178.274 364.621 178.36 364.682 178.46C364.743 178.56 364.783 178.671 364.8 178.786C364.817 178.902 364.81 179.02 364.78 179.133C364.238 181.439 363.505 183.696 362.589 185.88C362.517 186.038 362.4 186.17 362.253 186.261C362.105 186.352 361.934 186.398 361.761 186.393ZM186.471 178.562C186.269 178.562 186.074 178.491 185.919 178.363C185.764 178.234 185.659 178.055 185.622 177.858C185.149 175.54 184.874 173.186 184.799 170.822C184.807 170.601 184.899 170.391 185.056 170.234C185.213 170.078 185.423 169.987 185.645 169.98C185.866 169.972 186.083 170.049 186.25 170.194C186.417 170.34 186.523 170.543 186.546 170.763C186.617 173.032 186.88 175.291 187.331 177.516C187.356 177.63 187.358 177.747 187.337 177.862C187.316 177.976 187.273 178.085 187.209 178.182C187.145 178.28 187.063 178.363 186.966 178.429C186.87 178.494 186.761 178.539 186.647 178.562C186.589 178.567 186.53 178.567 186.471 178.562ZM364.897 172.907H364.844C364.729 172.901 364.617 172.871 364.514 172.821C364.411 172.771 364.319 172.701 364.243 172.616C364.167 172.53 364.109 172.43 364.072 172.322C364.035 172.213 364.019 172.099 364.026 171.985C364.08 171.142 364.106 170.272 364.106 169.419V165.087C364.124 164.868 364.223 164.663 364.385 164.513C364.547 164.364 364.759 164.281 364.98 164.281C365.2 164.281 365.413 164.364 365.575 164.513C365.737 164.663 365.836 164.868 365.853 165.087V169.419C365.853 170.31 365.821 171.211 365.768 172.086C365.758 172.306 365.665 172.515 365.508 172.67C365.35 172.824 365.139 172.913 364.918 172.918L364.897 172.907ZM185.648 164.725C185.533 164.725 185.42 164.702 185.314 164.658C185.208 164.614 185.112 164.549 185.031 164.468C184.95 164.387 184.886 164.29 184.842 164.184C184.799 164.078 184.777 163.964 184.777 163.85V156.915C184.777 156.685 184.869 156.463 185.033 156.3C185.196 156.137 185.417 156.046 185.648 156.046C185.879 156.046 186.101 156.137 186.264 156.3C186.427 156.463 186.519 156.685 186.519 156.915V163.85C186.52 163.964 186.498 164.078 186.454 164.184C186.411 164.29 186.347 164.387 186.266 164.468C186.185 164.549 186.089 164.614 185.983 164.658C185.877 164.702 185.763 164.725 185.648 164.725ZM364.999 159.012C364.768 159.012 364.546 158.92 364.383 158.757C364.22 158.594 364.128 158.373 364.128 158.142V151.208C364.118 151.087 364.134 150.966 364.174 150.852C364.213 150.738 364.276 150.634 364.358 150.545C364.44 150.457 364.54 150.386 364.65 150.338C364.761 150.289 364.88 150.264 365.001 150.264C365.122 150.264 365.242 150.289 365.352 150.338C365.463 150.386 365.562 150.457 365.644 150.545C365.726 150.634 365.789 150.738 365.829 150.852C365.869 150.966 365.884 151.087 365.875 151.208V158.142C365.873 158.373 365.78 158.594 365.616 158.757C365.452 158.92 365.23 159.012 364.999 159.012ZM185.648 150.823C185.534 150.823 185.421 150.801 185.315 150.757C185.209 150.714 185.113 150.65 185.033 150.569C184.952 150.488 184.888 150.392 184.844 150.287C184.8 150.181 184.777 150.068 184.777 149.954V143.019C184.777 142.789 184.869 142.568 185.033 142.405C185.196 142.242 185.417 142.15 185.648 142.15C185.879 142.15 186.101 142.242 186.264 142.405C186.427 142.568 186.519 142.789 186.519 143.019V149.954C186.519 150.185 186.427 150.406 186.264 150.569C186.101 150.732 185.879 150.823 185.648 150.823ZM364.999 145.116C364.768 145.116 364.546 145.024 364.383 144.861C364.22 144.698 364.128 144.477 364.128 144.246V137.312C364.145 137.092 364.245 136.887 364.406 136.738C364.568 136.588 364.781 136.505 365.001 136.505C365.222 136.505 365.434 136.588 365.596 136.738C365.758 136.887 365.857 137.092 365.875 137.312V144.246C365.872 144.476 365.778 144.696 365.614 144.858C365.45 145.02 365.229 145.11 364.999 145.11V145.116ZM185.648 136.917C185.417 136.916 185.195 136.823 185.032 136.659C184.869 136.495 184.777 136.273 184.777 136.042V129.108C184.777 128.877 184.869 128.656 185.033 128.493C185.196 128.33 185.417 128.238 185.648 128.238C185.879 128.238 186.101 128.33 186.264 128.493C186.427 128.656 186.519 128.877 186.519 129.108V136.042C186.519 136.273 186.427 136.495 186.264 136.659C186.101 136.823 185.88 136.916 185.648 136.917ZM364.999 131.204C364.768 131.204 364.546 131.112 364.383 130.949C364.22 130.786 364.128 130.565 364.128 130.334V123.4C364.118 123.28 364.134 123.159 364.174 123.045C364.213 122.931 364.276 122.826 364.358 122.738C364.44 122.649 364.54 122.578 364.65 122.53C364.761 122.482 364.88 122.457 365.001 122.457C365.122 122.457 365.242 122.482 365.352 122.53C365.463 122.578 365.562 122.649 365.644 122.738C365.726 122.826 365.789 122.931 365.829 123.045C365.869 123.159 365.884 123.28 365.875 123.4V130.334C365.873 130.566 365.78 130.787 365.616 130.95C365.452 131.113 365.23 131.204 364.999 131.204ZM185.648 123.01C185.534 123.01 185.421 122.988 185.315 122.944C185.209 122.901 185.113 122.837 185.033 122.756C184.952 122.675 184.888 122.579 184.844 122.474C184.8 122.368 184.777 122.255 184.777 122.141V115.206C184.777 114.976 184.869 114.755 185.033 114.592C185.196 114.429 185.417 114.337 185.648 114.337C185.879 114.337 186.101 114.429 186.264 114.592C186.427 114.755 186.519 114.976 186.519 115.206V122.141C186.519 122.372 186.427 122.593 186.264 122.756C186.101 122.919 185.879 123.01 185.648 123.01ZM364.999 117.303C364.884 117.303 364.77 117.28 364.664 117.236C364.558 117.192 364.462 117.128 364.381 117.046C364.3 116.965 364.236 116.868 364.193 116.762C364.149 116.656 364.127 116.543 364.128 116.428V109.493C364.145 109.274 364.245 109.069 364.406 108.919C364.568 108.77 364.781 108.687 365.001 108.687C365.222 108.687 365.434 108.77 365.596 108.919C365.758 109.069 365.857 109.274 365.875 109.493V116.428C365.875 116.66 365.782 116.883 365.618 117.047C365.454 117.211 365.231 117.303 364.999 117.303ZM185.648 109.104C185.534 109.104 185.421 109.082 185.315 109.038C185.209 108.994 185.113 108.93 185.033 108.849C184.952 108.769 184.888 108.673 184.844 108.567C184.8 108.462 184.777 108.349 184.777 108.235V101.3C184.777 101.069 184.869 100.848 185.033 100.685C185.196 100.522 185.417 100.43 185.648 100.43C185.879 100.43 186.101 100.522 186.264 100.685C186.427 100.848 186.519 101.069 186.519 101.3V108.235C186.519 108.465 186.427 108.686 186.264 108.849C186.101 109.012 185.879 109.104 185.648 109.104ZM364.999 103.396C364.768 103.396 364.546 103.305 364.383 103.142C364.22 102.979 364.128 102.757 364.128 102.527V95.5922C364.145 95.3727 364.245 95.1677 364.406 95.0182C364.568 94.8687 364.781 94.7857 365.001 94.7857C365.222 94.7857 365.434 94.8687 365.596 95.0182C365.758 95.1677 365.857 95.3727 365.875 95.5922V102.527C365.873 102.758 365.78 102.979 365.616 103.142C365.452 103.305 365.23 103.396 364.999 103.396ZM185.648 95.2028C185.533 95.2028 185.42 95.1802 185.314 95.1362C185.208 95.0921 185.112 95.0276 185.031 94.9463C184.95 94.865 184.886 94.7685 184.842 94.6624C184.799 94.5563 184.777 94.4426 184.777 94.328V87.3934C184.777 87.1628 184.869 86.9417 185.033 86.7786C185.196 86.6156 185.417 86.5239 185.648 86.5239C185.879 86.5239 186.101 86.6156 186.264 86.7786C186.427 86.9417 186.519 87.1628 186.519 87.3934V94.328C186.52 94.4426 186.498 94.5563 186.454 94.6624C186.411 94.7685 186.347 94.865 186.266 94.9463C186.185 95.0276 186.089 95.0921 185.983 95.1362C185.877 95.1802 185.763 95.2028 185.648 95.2028ZM364.999 89.4791C364.767 89.4777 364.546 89.3849 364.383 89.221C364.219 89.0571 364.128 88.8354 364.128 88.6043V81.6697C364.145 81.4502 364.245 81.2452 364.406 81.0957C364.568 80.9462 364.781 80.8632 365.001 80.8632C365.222 80.8632 365.434 80.9462 365.596 81.0957C365.758 81.2452 365.857 81.4502 365.875 81.6697V88.6043C365.873 88.8359 365.781 89.0576 365.617 89.2214C365.453 89.3851 365.23 89.4777 364.999 89.4791ZM185.648 81.2963C185.533 81.2964 185.418 81.2734 185.311 81.2287C185.205 81.184 185.108 81.1185 185.027 81.036C184.946 80.9536 184.882 80.8559 184.839 80.7485C184.796 80.6412 184.775 80.5264 184.777 80.4109V76.1434C184.777 75.2366 184.804 74.3191 184.863 73.4229C184.868 73.3084 184.895 73.196 184.945 73.0925C184.994 72.9889 185.063 72.8963 185.149 72.8201C185.235 72.7439 185.335 72.6858 185.444 72.6492C185.552 72.6125 185.667 72.5981 185.782 72.6068C185.896 72.6136 186.008 72.6429 186.111 72.693C186.214 72.7431 186.306 72.813 186.382 72.8987C186.458 72.9845 186.517 73.0843 186.554 73.1926C186.591 73.3008 186.606 73.4154 186.599 73.5296C186.546 74.3938 186.514 75.2739 186.514 76.1434V80.4109C186.516 80.5259 186.495 80.6403 186.453 80.7473C186.41 80.8543 186.347 80.9518 186.266 81.0341C186.186 81.1165 186.09 81.1821 185.984 81.2271C185.877 81.2721 185.764 81.2957 185.648 81.2963ZM364.977 75.61C364.751 75.6101 364.533 75.5222 364.371 75.3648C364.208 75.2075 364.113 74.9931 364.106 74.7672C364.027 72.4999 363.761 70.243 363.31 68.0193C363.288 67.9072 363.287 67.7917 363.309 67.6795C363.331 67.5672 363.375 67.4604 363.438 67.365C363.501 67.2697 363.583 67.1877 363.678 67.1238C363.773 67.0598 363.879 67.0152 363.992 66.9924C364.104 66.9697 364.219 66.9692 364.332 66.9911C364.444 67.0129 364.551 67.0567 364.647 67.1198C364.742 67.183 364.824 67.2643 364.888 67.3591C364.952 67.454 364.997 67.5605 365.02 67.6726C365.491 69.9908 365.768 72.3443 365.848 74.7085C365.855 74.9396 365.77 75.1642 365.612 75.3332C365.454 75.5021 365.235 75.6016 365.004 75.61H364.977ZM186.749 67.4805C186.683 67.4884 186.617 67.4884 186.551 67.4805C186.438 67.4543 186.33 67.4057 186.236 67.3376C186.141 67.2694 186.061 67.1832 186.001 67.0838C185.94 66.9845 185.9 66.874 185.882 66.7589C185.865 66.6439 185.871 66.5265 185.899 66.4137C186.445 64.1074 187.181 61.8503 188.1 59.6658C188.196 59.462 188.367 59.3031 188.577 59.2225C188.787 59.1419 189.021 59.1459 189.228 59.2336C189.436 59.3213 189.601 59.4859 189.69 59.6929C189.778 59.8998 189.783 60.1329 189.703 60.3432C188.811 62.4349 188.096 64.5975 187.566 66.8084C187.524 66.995 187.42 67.1622 187.272 67.2838C187.124 67.4055 186.94 67.4747 186.749 67.4805ZM362.215 62.0342C362.041 62.0363 361.871 61.9867 361.725 61.8917C361.58 61.7968 361.466 61.6607 361.398 61.5008C360.577 59.3864 359.581 57.3435 358.422 55.393C358.304 55.195 358.269 54.9581 358.326 54.7345C358.383 54.5109 358.526 54.3189 358.724 54.2008C358.923 54.0827 359.16 54.0481 359.384 54.1046C359.608 54.1611 359.8 54.3041 359.918 54.5022C361.133 56.5446 362.174 58.6859 363.027 60.9033C363.069 61.0102 363.088 61.124 363.085 61.2385C363.083 61.3529 363.057 61.4657 363.01 61.5703C362.964 61.6748 362.897 61.7692 362.814 61.8479C362.73 61.9266 362.632 61.9881 362.525 62.0289C362.423 62.0484 362.318 62.0502 362.215 62.0342ZM192.139 54.7316C191.982 54.7312 191.828 54.6888 191.694 54.6089C191.559 54.5289 191.448 54.4143 191.373 54.2769C191.297 54.1396 191.26 53.9846 191.265 53.8282C191.27 53.6717 191.318 53.5194 191.402 53.3873C192.666 51.392 194.096 49.5059 195.675 47.749C195.833 47.5736 196.055 47.468 196.291 47.4555C196.527 47.443 196.758 47.5246 196.933 47.6823C197.109 47.8401 197.215 48.061 197.227 48.2966C197.24 48.5322 197.158 48.7631 197 48.9385C195.477 50.6173 194.096 52.4194 192.871 54.3262C192.793 54.4497 192.685 54.5516 192.557 54.6224C192.429 54.6933 192.285 54.7308 192.139 54.7316ZM355.126 50.1494C354.999 50.1497 354.874 50.1221 354.758 50.0686C354.643 50.0152 354.541 49.9372 354.459 49.84C352.992 48.1096 351.384 46.5038 349.651 45.0392C349.492 44.8847 349.398 44.6762 349.388 44.4553C349.377 44.2345 349.45 44.0179 349.593 43.849C349.736 43.68 349.938 43.5713 350.157 43.5447C350.377 43.5181 350.599 43.5756 350.778 43.7056C352.589 45.2335 354.271 46.9089 355.805 48.7145C355.912 48.8426 355.98 48.9985 356.001 49.1639C356.022 49.3293 355.995 49.4973 355.924 49.6481C355.853 49.7989 355.74 49.9262 355.598 50.015C355.457 50.1038 355.293 50.1505 355.126 50.1494ZM201.418 44.4524C201.238 44.4514 201.062 44.3944 200.915 44.2892C200.769 44.1841 200.658 44.036 200.6 43.8655C200.541 43.695 200.537 43.5105 200.588 43.3376C200.639 43.1646 200.742 43.0117 200.884 42.9001C202.739 41.4281 204.716 40.1148 206.792 38.9741C206.995 38.8623 207.234 38.8355 207.456 38.8995C207.678 38.9635 207.866 39.1132 207.978 39.3155C208.09 39.5178 208.117 39.7562 208.053 39.9783C207.989 40.2004 207.839 40.3879 207.636 40.4997C205.644 41.5933 203.748 42.8531 201.968 44.2657C201.811 44.3875 201.617 44.4532 201.418 44.4524ZM344.533 41.2251C344.377 41.226 344.223 41.1836 344.09 41.1025C342.132 39.9504 340.083 38.9619 337.962 38.1473C337.848 38.1135 337.742 38.0566 337.65 37.9802C337.559 37.9037 337.484 37.8093 337.43 37.7028C337.377 37.5963 337.346 37.4799 337.34 37.361C337.333 37.2421 337.351 37.1231 337.393 37.0114C337.434 36.8997 337.498 36.7977 337.581 36.7117C337.663 36.6257 337.762 36.5576 337.872 36.5115C337.982 36.4655 338.101 36.4425 338.22 36.444C338.339 36.4455 338.457 36.4715 338.566 36.5203C340.785 37.3671 342.93 38.3984 344.976 39.6035C345.133 39.7039 345.253 39.8514 345.319 40.0247C345.385 40.198 345.394 40.3879 345.344 40.5666C345.295 40.7454 345.19 40.9036 345.044 41.0182C344.898 41.1329 344.719 41.1979 344.533 41.2038V41.2251ZM213.561 37.7792C213.356 37.7763 213.159 37.7018 213.003 37.5688C212.848 37.4357 212.744 37.2525 212.71 37.0509C212.675 36.8493 212.713 36.6421 212.816 36.4653C212.918 36.2884 213.08 36.1531 213.272 36.0829C215.511 35.3066 217.811 34.7178 220.148 34.3226C220.26 34.3037 220.376 34.3071 220.488 34.3328C220.599 34.3585 220.705 34.4059 220.798 34.4723C220.891 34.5387 220.97 34.6227 221.031 34.7197C221.092 34.8166 221.133 34.9246 221.152 35.0374C221.171 35.1502 221.167 35.2656 221.142 35.377C221.116 35.4884 221.068 35.5937 221.002 35.6868C220.935 35.78 220.851 35.8591 220.754 35.9197C220.657 35.9804 220.549 36.0213 220.436 36.0402C218.193 36.4198 215.986 36.9873 213.839 37.7365C213.749 37.7651 213.655 37.7795 213.561 37.7792ZM331.621 36.2749H331.45C329.218 35.8254 326.952 35.5632 324.676 35.4908C324.456 35.4682 324.253 35.3631 324.107 35.1967C323.961 35.0302 323.884 34.8148 323.89 34.5938C323.897 34.3728 323.987 34.1625 324.143 34.0053C324.299 33.8481 324.509 33.7556 324.73 33.7465C327.091 33.8146 329.443 34.0787 331.76 34.5359C331.973 34.5773 332.163 34.6965 332.292 34.8702C332.422 35.0439 332.482 35.2596 332.46 35.4752C332.439 35.6907 332.338 35.8905 332.177 36.0354C332.015 36.1804 331.806 36.2601 331.589 36.2589L331.621 36.2749ZM317.732 35.4694H310.787C310.556 35.4694 310.335 35.3778 310.171 35.2148C310.008 35.0517 309.916 34.8306 309.916 34.6C309.916 34.3694 310.008 34.1482 310.171 33.9851C310.335 33.8221 310.556 33.7305 310.787 33.7305H317.732C317.963 33.7305 318.184 33.8221 318.347 33.9851C318.511 34.1482 318.602 34.3694 318.602 34.6C318.602 34.8306 318.511 35.0517 318.347 35.2148C318.184 35.3778 317.963 35.4694 317.732 35.4694ZM303.805 35.4694H296.86C296.629 35.4694 296.408 35.3778 296.244 35.2148C296.081 35.0517 295.989 34.8306 295.989 34.6C295.989 34.3694 296.081 34.1482 296.244 33.9851C296.408 33.8221 296.629 33.7305 296.86 33.7305H303.805C304.036 33.7305 304.257 33.8221 304.421 33.9851C304.584 34.1482 304.676 34.3694 304.676 34.6C304.676 34.8306 304.584 35.0517 304.421 35.2148C304.257 35.3778 304.036 35.4694 303.805 35.4694ZM289.883 35.4694H282.939C282.708 35.4694 282.486 35.3778 282.323 35.2148C282.16 35.0517 282.068 34.8306 282.068 34.6C282.068 34.3694 282.16 34.1482 282.323 33.9851C282.486 33.8221 282.708 33.7305 282.939 33.7305H289.883C290.114 33.7305 290.336 33.8221 290.499 33.9851C290.662 34.1482 290.754 34.3694 290.754 34.6C290.754 34.8306 290.662 35.0517 290.499 35.2148C290.336 35.3778 290.114 35.4694 289.883 35.4694ZM275.956 35.4694H269.012C268.781 35.4694 268.559 35.3778 268.396 35.2148C268.233 35.0517 268.141 34.8306 268.141 34.6C268.141 34.3694 268.233 34.1482 268.396 33.9851C268.559 33.8221 268.781 33.7305 269.012 33.7305H275.956C276.187 33.7305 276.409 33.8221 276.572 33.9851C276.735 34.1482 276.827 34.3694 276.827 34.6C276.827 34.8306 276.735 35.0517 276.572 35.2148C276.409 35.3778 276.187 35.4694 275.956 35.4694ZM262.03 35.4694H255.085C254.854 35.4694 254.632 35.3778 254.469 35.2148C254.306 35.0517 254.214 34.8306 254.214 34.6C254.214 34.3694 254.306 34.1482 254.469 33.9851C254.632 33.8221 254.854 33.7305 255.085 33.7305H262.03C262.261 33.7305 262.482 33.8221 262.645 33.9851C262.809 34.1482 262.9 34.3694 262.9 34.6C262.9 34.8306 262.809 35.0517 262.645 35.2148C262.482 35.3778 262.261 35.4694 262.03 35.4694ZM248.108 35.4694H241.163C240.932 35.4694 240.711 35.3778 240.548 35.2148C240.384 35.0517 240.293 34.8306 240.293 34.6C240.293 34.3694 240.384 34.1482 240.548 33.9851C240.711 33.8221 240.932 33.7305 241.163 33.7305H248.108C248.339 33.7305 248.561 33.8221 248.724 33.9851C248.887 34.1482 248.979 34.3694 248.979 34.6C248.979 34.8306 248.887 35.0517 248.724 35.2148C248.561 35.3778 248.339 35.4694 248.108 35.4694ZM234.181 35.4694H227.258C227.028 35.4654 226.808 35.3726 226.645 35.2106C226.481 35.0486 226.387 34.8298 226.382 34.6C226.38 34.487 226.4 34.3747 226.442 34.2697C226.483 34.1646 226.545 34.0689 226.624 33.988C226.704 33.9071 226.798 33.8427 226.902 33.7985C227.006 33.7543 227.118 33.7312 227.231 33.7305H234.176C234.407 33.7305 234.628 33.8221 234.792 33.9851C234.955 34.1482 235.047 34.3694 235.047 34.6C235.047 34.8306 234.955 35.0517 234.792 35.2148C234.628 35.3778 234.407 35.4694 234.176 35.4694H234.181Z" fill="#263238"/>
<path d="M312.441 46.7568H237.561C215.539 46.7568 197.688 64.5827 197.688 86.572V158.996C197.688 180.985 215.539 198.811 237.561 198.811H312.441C334.463 198.811 352.315 180.985 352.315 158.996V86.572C352.315 64.5827 334.463 46.7568 312.441 46.7568Z" fill="#E9ECF2"/>
<path d="M211.795 80.8582C211.795 86.1704 210.217 91.3634 207.262 95.7803C204.306 100.197 200.105 103.64 195.189 105.672C190.274 107.705 184.866 108.237 179.648 107.2C174.43 106.163 169.638 103.605 165.876 99.8479C162.115 96.0911 159.553 91.305 158.516 86.0947C157.479 80.8843 158.012 75.4839 160.049 70.5763C162.086 65.6687 165.534 61.4744 169.958 58.5238C174.382 55.5733 179.583 53.9989 184.903 54C188.435 54 191.932 54.6947 195.195 56.0446C198.458 57.3944 201.423 59.3728 203.92 61.8669C206.418 64.361 208.398 67.3218 209.749 70.5804C211.101 73.8389 211.796 77.3313 211.795 80.8582Z" fill="#14171B"/>
<g clip-path="url(#clip1_9524_3812)">
<path d="M191.111 92H178.889C177.583 92 176.355 91.4915 175.432 90.568C174.509 89.6447 174 88.417 174 87.1111V85.8888C174 85.2138 174.547 84.6665 175.222 84.6665C175.897 84.6665 176.444 85.2138 176.444 85.8888V87.1111C176.444 87.764 176.699 88.3778 177.16 88.8395C177.622 89.3012 178.236 89.5555 178.889 89.5555H191.111C191.764 89.5555 192.378 89.3012 192.84 88.8395C193.301 88.3778 193.556 87.7639 193.556 87.1111V85.8888C193.556 85.2138 194.103 84.6665 194.778 84.6665C195.453 84.6665 196 85.2138 196 85.8888V87.1111C196 88.4169 195.491 89.6445 194.568 90.568C193.645 91.4915 192.417 92 191.111 92ZM185 87.111C184.681 87.1115 184.374 86.9866 184.146 86.7634L184.146 86.7633L184.144 86.7609L184.143 86.7603C184.142 86.7597 184.142 86.759 184.141 86.7584L184.14 86.7571C184.139 86.7567 184.139 86.7562 184.138 86.7558L184.136 86.7532L179.247 81.8642C178.77 81.3869 178.77 80.613 179.247 80.1357C179.724 79.6584 180.498 79.6584 180.975 80.1357L183.778 82.9381V71.2222C183.778 70.5472 184.325 70 185 70C185.675 70 186.222 70.5472 186.222 71.2222V82.9381L189.025 80.1357C189.502 79.6584 190.276 79.6584 190.753 80.1357C191.23 80.613 191.23 81.3869 190.753 81.8642L185.864 86.7531L185.862 86.7557L185.86 86.7571L185.859 86.7583C185.858 86.759 185.858 86.7596 185.857 86.7602L185.856 86.7609C185.856 86.7617 185.855 86.7625 185.854 86.7632L185.854 86.7633C185.84 86.7764 185.827 86.7892 185.813 86.8015C185.713 86.8907 185.599 86.9628 185.476 87.0148L185.475 87.0153C185.474 87.0155 185.474 87.0157 185.474 87.0159C185.324 87.0789 185.163 87.1113 185 87.111Z" fill="white"/>
</g>
<path d="M285.706 88.2795H228.134C227.529 88.2795 226.949 88.0395 226.522 87.6123C226.094 87.1852 225.853 86.6058 225.853 86.0017V67.369L221.152 64.3818H285.706C286.006 64.3818 286.302 64.4408 286.579 64.5552C286.856 64.6697 287.107 64.8375 287.319 65.049C287.531 65.2605 287.699 65.5116 287.814 65.7879C287.928 66.0643 287.987 66.3605 287.987 66.6596V86.0017C287.987 86.3008 287.928 86.597 287.814 86.8734C287.699 87.1497 287.531 87.4008 287.319 87.6123C287.107 87.8238 286.856 87.9916 286.579 88.1061C286.302 88.2205 286.006 88.2795 285.706 88.2795Z" fill="#8EAFBC"/>
<path d="M258.795 92.3174H228.222C226.963 92.3174 225.941 93.3372 225.941 94.5951V101.988C225.941 103.246 226.963 104.266 228.222 104.266H258.795C260.055 104.266 261.076 103.246 261.076 101.988V94.5951C261.076 93.3372 260.055 92.3174 258.795 92.3174Z" fill="#8EAFBC"/>
<path d="M284.021 108.305H228.222C226.963 108.305 225.941 109.324 225.941 110.582V117.976C225.941 119.234 226.963 120.254 228.222 120.254H284.021C285.281 120.254 286.302 119.234 286.302 117.976V110.582C286.302 109.324 285.281 108.305 284.021 108.305Z" fill="#8EAFBC"/>
<path d="M281.013 71.4659H232.4C232.319 71.4736 232.237 71.4644 232.16 71.4389C232.083 71.4133 232.013 71.372 231.952 71.3175C231.892 71.263 231.844 71.1965 231.812 71.1224C231.779 71.0483 231.762 70.9681 231.762 70.8871C231.762 70.8061 231.779 70.7259 231.812 70.6518C231.844 70.5777 231.892 70.5112 231.952 70.4567C232.013 70.4022 232.083 70.3609 232.16 70.3353C232.237 70.3098 232.319 70.3006 232.4 70.3083H281.013C281.157 70.3222 281.291 70.3891 281.388 70.4961C281.485 70.6031 281.539 70.7425 281.539 70.8871C281.539 71.0317 281.485 71.1711 281.388 71.2781C281.291 71.3851 281.157 71.452 281.013 71.4659Z" fill="white"/>
<path d="M281.016 77.0828H232.403C232.248 77.0828 232.1 77.0215 231.991 76.9125C231.882 76.8035 231.82 76.6556 231.82 76.5014C231.82 76.3472 231.882 76.1993 231.991 76.0902C232.1 75.9812 232.248 75.9199 232.403 75.9199H281.016C281.17 75.9199 281.318 75.9812 281.427 76.0902C281.537 76.1993 281.598 76.3472 281.598 76.5014C281.598 76.6556 281.537 76.8035 281.427 76.9125C281.318 77.0215 281.17 77.0828 281.016 77.0828Z" fill="white"/>
<path d="M281.016 82.7H232.403C232.248 82.7 232.1 82.6387 231.991 82.5297C231.882 82.4206 231.82 82.2728 231.82 82.1185C231.82 81.9643 231.882 81.8164 231.991 81.7074C232.1 81.5984 232.248 81.5371 232.403 81.5371H281.016C281.17 81.5371 281.318 81.5984 281.427 81.7074C281.537 81.8164 281.598 81.9643 281.598 82.1185C281.598 82.2728 281.537 82.4206 281.427 82.5297C281.318 82.6387 281.17 82.7 281.016 82.7Z" fill="white"/>
<path d="M281.016 114.86H232.403C232.248 114.86 232.1 114.799 231.991 114.69C231.882 114.581 231.82 114.433 231.82 114.279C231.82 114.125 231.882 113.977 231.991 113.868C232.1 113.759 232.248 113.697 232.403 113.697H281.016C281.17 113.697 281.318 113.759 281.427 113.868C281.537 113.977 281.598 114.125 281.598 114.279C281.598 114.433 281.537 114.581 281.427 114.69C281.318 114.799 281.17 114.86 281.016 114.86Z" fill="white"/>
<path d="M250.174 99.615H231.782C231.627 99.615 231.479 99.5538 231.37 99.4447C231.261 99.3357 231.199 99.1878 231.199 99.0336C231.199 98.8794 231.261 98.7315 231.37 98.6224C231.479 98.5134 231.627 98.4521 231.782 98.4521H250.174C250.329 98.4521 250.477 98.5134 250.586 98.6224C250.695 98.7315 250.757 98.8794 250.757 99.0336C250.757 99.1878 250.695 99.3357 250.586 99.4447C250.477 99.5538 250.329 99.615 250.174 99.615Z" fill="white"/>
<path d="M364.997 190.805C379.911 190.805 392.001 178.732 392.001 163.84C392.001 148.948 379.911 136.875 364.997 136.875C350.082 136.875 337.992 148.948 337.992 163.84C337.992 178.732 350.082 190.805 364.997 190.805Z" fill="#A9FF9B"/>
<path d="M375.499 165.166C375.189 165.166 374.893 165.289 374.674 165.508C374.455 165.727 374.332 166.024 374.332 166.333V169.833C374.332 170.761 373.963 171.652 373.307 172.308C372.651 172.964 371.76 173.333 370.832 173.333H359.165C358.237 173.333 357.347 172.964 356.69 172.308C356.034 171.652 355.665 170.761 355.665 169.833V158.166C355.665 157.238 356.034 156.348 356.69 155.691C357.347 155.035 358.237 154.666 359.165 154.666H364.999C365.308 154.666 365.605 154.543 365.824 154.325C366.042 154.106 366.165 153.809 366.165 153.5C366.165 153.19 366.042 152.894 365.824 152.675C365.605 152.456 365.308 152.333 364.999 152.333H359.165C357.619 152.335 356.136 152.95 355.043 154.044C353.949 155.137 353.334 156.62 353.332 158.166V169.833C353.334 171.38 353.949 172.862 355.043 173.956C356.136 175.049 357.619 175.664 359.165 175.666H370.832C372.379 175.664 373.861 175.049 374.955 173.956C376.048 172.862 376.664 171.38 376.665 169.833V166.333C376.665 166.024 376.542 165.727 376.324 165.508C376.105 165.289 375.808 165.166 375.499 165.166Z" fill="#14171B"/>
<path d="M359.178 165.332C359.214 165.578 359.327 165.806 359.501 165.984C359.675 166.161 359.901 166.278 360.147 166.318C360.208 166.328 360.271 166.333 360.333 166.333C360.55 166.333 360.763 166.273 360.947 166.159C361.131 166.045 361.28 165.882 361.377 165.688C362.825 162.791 366.678 162.617 368.5 162.725V165.166C368.5 165.397 368.568 165.622 368.697 165.814C368.825 166.006 369.007 166.155 369.22 166.244C369.433 166.332 369.668 166.355 369.894 166.31C370.12 166.265 370.328 166.154 370.491 165.991L376.325 160.158C376.441 160.042 376.531 159.902 376.59 159.749C376.648 159.596 376.674 159.432 376.665 159.268C376.656 159.104 376.612 158.944 376.537 158.798C376.462 158.653 376.357 158.524 376.229 158.422L370.396 153.755C370.224 153.618 370.017 153.531 369.799 153.507C369.58 153.482 369.359 153.519 369.161 153.614C368.963 153.709 368.796 153.859 368.679 154.045C368.562 154.231 368.5 154.446 368.5 154.666V156.904C365.233 156.751 362.737 157.528 361.102 159.213C360.368 160.04 359.818 161.012 359.486 162.067C359.155 163.121 359.05 164.234 359.178 165.332Z" fill="#14171B"/>
<path d="M264.308 170.214H321.87C322.475 170.214 323.055 169.974 323.483 169.546C323.91 169.119 324.151 168.54 324.151 167.936V149.303L328.852 146.311H264.308C263.703 146.311 263.123 146.551 262.695 146.978C262.268 147.405 262.027 147.984 262.027 148.588V167.936C262.027 168.54 262.268 169.119 262.695 169.546C263.123 169.974 263.703 170.214 264.308 170.214Z" fill="#034737"/>
<path d="M321.78 174.247H291.207C289.947 174.247 288.926 175.267 288.926 176.525V183.918C288.926 185.176 289.947 186.196 291.207 186.196H321.78C323.039 186.196 324.061 185.176 324.061 183.918V176.525C324.061 175.267 323.039 174.247 321.78 174.247Z" fill="#034737"/>
<path d="M317.27 153.614H268.657C268.502 153.614 268.354 153.553 268.245 153.444C268.136 153.335 268.074 153.187 268.074 153.033C268.074 152.878 268.136 152.731 268.245 152.621C268.354 152.512 268.502 152.451 268.657 152.451H317.27C317.424 152.451 317.572 152.512 317.681 152.621C317.791 152.731 317.852 152.878 317.852 153.033C317.852 153.187 317.791 153.335 317.681 153.444C317.572 153.553 317.424 153.614 317.27 153.614Z" fill="white"/>
<path d="M317.27 159.23H268.657C268.502 159.23 268.354 159.169 268.245 159.06C268.136 158.951 268.074 158.803 268.074 158.649C268.074 158.495 268.136 158.347 268.245 158.238C268.354 158.129 268.502 158.067 268.657 158.067H317.27C317.424 158.067 317.572 158.129 317.681 158.238C317.791 158.347 317.852 158.495 317.852 158.649C317.852 158.803 317.791 158.951 317.681 159.06C317.572 159.169 317.424 159.23 317.27 159.23Z" fill="white"/>
<path d="M317.27 164.847H268.657C268.502 164.847 268.354 164.786 268.245 164.677C268.136 164.568 268.074 164.42 268.074 164.266C268.074 164.112 268.136 163.964 268.245 163.855C268.354 163.746 268.502 163.685 268.657 163.685H317.27C317.424 163.685 317.572 163.746 317.681 163.855C317.791 163.964 317.852 164.112 317.852 164.266C317.852 164.42 317.791 164.568 317.681 164.677C317.572 164.786 317.424 164.847 317.27 164.847Z" fill="white"/>
<path d="M316.265 180.803H297.872C297.792 180.811 297.71 180.801 297.633 180.776C297.556 180.75 297.485 180.709 297.425 180.654C297.365 180.6 297.317 180.533 297.284 180.459C297.251 180.385 297.234 180.305 297.234 180.224C297.234 180.143 297.251 180.063 297.284 179.989C297.317 179.915 297.365 179.848 297.425 179.794C297.485 179.739 297.556 179.698 297.633 179.672C297.71 179.647 297.792 179.637 297.872 179.645H316.265C316.346 179.637 316.428 179.647 316.505 179.672C316.582 179.698 316.652 179.739 316.712 179.794C316.773 179.848 316.821 179.915 316.853 179.989C316.886 180.063 316.903 180.143 316.903 180.224C316.903 180.305 316.886 180.385 316.853 180.459C316.821 180.533 316.773 180.6 316.712 180.654C316.652 180.709 316.582 180.75 316.505 180.776C316.428 180.801 316.346 180.811 316.265 180.803Z" fill="white"/>
<g style="mix-blend-mode:multiply">
<path d="M316.4 115.889C315.792 115.889 315.198 115.709 314.693 115.372C314.188 115.035 313.794 114.556 313.562 113.996C313.329 113.435 313.269 112.819 313.387 112.224C313.506 111.629 313.798 111.082 314.228 110.653C314.657 110.224 315.205 109.932 315.801 109.814C316.396 109.695 317.014 109.756 317.575 109.988C318.137 110.221 318.616 110.614 318.954 111.118C319.291 111.622 319.472 112.215 319.472 112.822C319.47 113.635 319.146 114.414 318.57 114.989C317.995 115.564 317.214 115.888 316.4 115.889ZM316.4 111.499C316.138 111.5 315.882 111.579 315.665 111.725C315.448 111.871 315.279 112.078 315.18 112.32C315.08 112.561 315.055 112.827 315.106 113.083C315.158 113.34 315.285 113.575 315.47 113.759C315.656 113.944 315.892 114.069 316.149 114.12C316.406 114.171 316.672 114.144 316.913 114.044C317.155 113.944 317.362 113.774 317.507 113.557C317.652 113.339 317.73 113.084 317.73 112.822C317.73 112.648 317.696 112.475 317.629 112.315C317.562 112.154 317.464 112.008 317.34 111.885C317.216 111.762 317.07 111.665 316.908 111.598C316.747 111.532 316.574 111.498 316.4 111.499Z" fill="#75D3C7"/>
</g>
<g style="mix-blend-mode:multiply">
<path d="M221.15 146.253C220.542 146.253 219.948 146.073 219.443 145.736C218.938 145.399 218.544 144.92 218.312 144.359C218.079 143.799 218.019 143.182 218.137 142.587C218.256 141.992 218.548 141.445 218.978 141.017C219.407 140.588 219.955 140.295 220.551 140.177C221.146 140.059 221.764 140.119 222.325 140.352C222.887 140.584 223.366 140.977 223.704 141.481C224.041 141.986 224.222 142.579 224.222 143.185C224.22 143.998 223.896 144.778 223.32 145.353C222.745 145.928 221.964 146.251 221.15 146.253ZM221.15 141.862C220.886 141.861 220.628 141.939 220.409 142.084C220.189 142.23 220.018 142.437 219.917 142.68C219.815 142.923 219.788 143.19 219.84 143.449C219.891 143.707 220.018 143.944 220.204 144.13C220.39 144.316 220.628 144.443 220.886 144.494C221.145 144.545 221.413 144.518 221.656 144.417C221.899 144.316 222.107 144.145 222.253 143.925C222.398 143.706 222.476 143.449 222.475 143.185C222.473 142.835 222.333 142.499 222.085 142.252C221.837 142.004 221.501 141.864 221.15 141.862Z" fill="#75D3C7"/>
</g>
<g style="mix-blend-mode:multiply">
<path d="M173.872 213.166C173.265 213.166 172.671 212.986 172.166 212.649C171.661 212.312 171.267 211.833 171.035 211.272C170.802 210.712 170.741 210.095 170.86 209.5C170.978 208.905 171.271 208.359 171.7 207.93C172.13 207.501 172.677 207.209 173.273 207.09C173.869 206.972 174.487 207.033 175.048 207.265C175.609 207.497 176.089 207.89 176.427 208.394C176.764 208.899 176.944 209.492 176.944 210.098C176.943 210.912 176.619 211.691 176.043 212.266C175.467 212.841 174.687 213.164 173.872 213.166ZM173.872 208.776C173.61 208.776 173.354 208.853 173.136 208.999C172.919 209.144 172.749 209.35 172.648 209.592C172.548 209.834 172.522 210.1 172.573 210.357C172.624 210.613 172.75 210.849 172.936 211.034C173.121 211.219 173.357 211.345 173.614 211.396C173.871 211.447 174.137 211.421 174.379 211.321C174.622 211.221 174.828 211.051 174.974 210.833C175.12 210.616 175.197 210.36 175.197 210.098C175.197 209.748 175.058 209.411 174.809 209.163C174.561 208.915 174.224 208.776 173.872 208.776Z" fill="#75D3C7"/>
</g>
<path d="M327.491 94.2159C326.987 94.2169 326.494 94.0686 326.074 93.7896C325.654 93.5107 325.327 93.1137 325.133 92.6488C324.939 92.184 324.888 91.6722 324.986 91.1783C325.084 90.6844 325.326 90.2305 325.682 89.8741C326.038 89.5177 326.492 89.2748 326.987 89.1762C327.481 89.0776 327.994 89.1277 328.46 89.3201C328.926 89.5126 329.324 89.8387 329.604 90.2572C329.884 90.6758 330.034 91.1679 330.034 91.6714C330.032 92.3449 329.764 92.9905 329.288 93.4672C328.811 93.9439 328.165 94.213 327.491 94.2159ZM327.491 90.8713C327.331 90.8702 327.174 90.9167 327.041 91.0048C326.907 91.0929 326.803 91.2186 326.741 91.366C326.68 91.5134 326.663 91.6758 326.694 91.8326C326.725 91.9893 326.802 92.1333 326.915 92.2463C327.028 92.3592 327.173 92.4361 327.33 92.467C327.487 92.4979 327.649 92.4815 327.797 92.4199C327.944 92.3582 328.07 92.2542 328.159 92.1209C328.247 91.9876 328.293 91.8312 328.292 91.6714C328.291 91.4596 328.206 91.2569 328.056 91.1072C327.906 90.9574 327.703 90.8727 327.491 90.8713Z" fill="white"/>
<path d="M234.083 161.258C233.579 161.258 233.086 161.108 232.667 160.829C232.248 160.549 231.921 160.151 231.729 159.686C231.536 159.221 231.486 158.709 231.585 158.215C231.683 157.721 231.926 157.268 232.283 156.912C232.64 156.557 233.095 156.315 233.589 156.217C234.084 156.12 234.597 156.171 235.062 156.364C235.528 156.558 235.925 156.885 236.205 157.304C236.484 157.723 236.633 158.215 236.632 158.719C236.63 159.393 236.361 160.038 235.883 160.514C235.406 160.991 234.758 161.258 234.083 161.258ZM234.083 157.913C233.924 157.912 233.767 157.959 233.634 158.046C233.5 158.134 233.396 158.26 233.334 158.407C233.272 158.554 233.256 158.716 233.286 158.873C233.317 159.029 233.393 159.173 233.506 159.286C233.618 159.4 233.762 159.477 233.919 159.508C234.075 159.54 234.238 159.524 234.385 159.463C234.533 159.403 234.659 159.299 234.748 159.167C234.837 159.034 234.885 158.878 234.885 158.719C234.885 158.506 234.8 158.302 234.65 158.151C234.5 158 234.296 157.915 234.083 157.913Z" fill="white"/>
<path d="M380.958 42.8956C380.454 42.8956 379.961 42.7462 379.542 42.4664C379.123 42.1865 378.796 41.7888 378.604 41.3236C378.411 40.8583 378.361 40.3465 378.46 39.8527C378.558 39.359 378.801 38.9056 379.158 38.55C379.515 38.1944 379.97 37.9525 380.464 37.8549C380.959 37.7573 381.472 37.8085 381.937 38.0019C382.403 38.1953 382.8 38.5222 383.08 38.9414C383.359 39.3605 383.508 39.853 383.507 40.3564C383.505 41.0303 383.236 41.6762 382.758 42.1522C382.281 42.6282 381.633 42.8956 380.958 42.8956ZM380.958 39.551C380.799 39.5499 380.642 39.5962 380.509 39.6841C380.375 39.772 380.271 39.8974 380.209 40.0445C380.147 40.1916 380.131 40.3537 380.161 40.5103C380.192 40.6669 380.268 40.8109 380.381 40.9241C380.493 41.0373 380.637 41.1145 380.794 41.146C380.95 41.1775 381.113 41.1619 381.26 41.1011C381.408 41.0403 381.534 40.9371 381.623 40.8045C381.712 40.6719 381.76 40.516 381.76 40.3564C381.76 40.1437 381.675 39.9397 381.525 39.7887C381.375 39.6378 381.171 39.5524 380.958 39.551Z" fill="white"/>
<path d="M189.085 226C188.582 225.996 188.092 225.843 187.676 225.561C187.259 225.279 186.936 224.88 186.746 224.415C186.557 223.949 186.509 223.438 186.61 222.946C186.711 222.454 186.955 222.003 187.312 221.649C187.67 221.295 188.124 221.055 188.617 220.958C189.111 220.862 189.622 220.914 190.087 221.107C190.551 221.3 190.948 221.626 191.227 222.044C191.506 222.462 191.655 222.953 191.655 223.456C191.654 223.791 191.587 224.124 191.458 224.433C191.328 224.743 191.138 225.024 190.899 225.261C190.661 225.497 190.378 225.684 190.066 225.811C189.755 225.938 189.422 226.002 189.085 226ZM189.085 222.655C188.927 222.655 188.772 222.702 188.64 222.79C188.508 222.878 188.406 223.003 188.345 223.149C188.284 223.296 188.269 223.456 188.299 223.612C188.33 223.767 188.407 223.909 188.519 224.021C188.631 224.133 188.774 224.209 188.929 224.24C189.085 224.271 189.246 224.255 189.392 224.195C189.538 224.134 189.664 224.032 189.752 223.9C189.84 223.768 189.887 223.614 189.887 223.456C189.885 223.244 189.8 223.041 189.65 222.891C189.501 222.742 189.297 222.657 189.085 222.655Z" fill="white"/>
<g style="mix-blend-mode:multiply">
<path d="M328.04 70.5906C328.715 70.5906 329.263 70.0437 329.263 69.369C329.263 68.6944 328.715 68.1475 328.04 68.1475C327.364 68.1475 326.816 68.6944 326.816 69.369C326.816 70.0437 327.364 70.5906 328.04 70.5906Z" fill="#75D3C7"/>
</g>
<g style="mix-blend-mode:multiply">
<path d="M262.302 186.169C262.305 186.412 262.235 186.651 262.102 186.854C261.968 187.058 261.777 187.217 261.552 187.311C261.327 187.405 261.079 187.43 260.84 187.382C260.601 187.335 260.382 187.217 260.21 187.044C260.038 186.871 259.922 186.651 259.877 186.412C259.831 186.173 259.859 185.926 259.955 185.702C260.051 185.479 260.212 185.289 260.417 185.157C260.622 185.025 260.862 184.958 261.105 184.963C261.422 184.97 261.724 185.1 261.948 185.325C262.171 185.549 262.298 185.852 262.302 186.169Z" fill="#75D3C7"/>
</g>
<g style="mix-blend-mode:multiply">
<path d="M367.716 26.7856C367.717 27.0274 367.646 27.2641 367.513 27.4657C367.379 27.6672 367.188 27.8246 366.965 27.9179C366.741 28.0112 366.495 28.0361 366.257 27.9896C366.02 27.9431 365.801 27.8272 365.63 27.6565C365.458 27.4859 365.341 27.2683 365.293 27.0312C365.246 26.7941 365.27 26.5482 365.362 26.3247C365.455 26.1011 365.611 25.91 365.813 25.7756C366.014 25.6411 366.251 25.5693 366.493 25.5693C366.816 25.5693 367.127 25.6973 367.356 25.9252C367.585 26.1532 367.715 26.4625 367.716 26.7856Z" fill="#75D3C7"/>
</g>
<g style="mix-blend-mode:multiply">
<path d="M378.353 89.2606C378.353 89.5025 378.281 89.7388 378.146 89.9398C378.012 90.1408 377.82 90.2974 377.597 90.3897C377.373 90.482 377.126 90.5059 376.889 90.4583C376.652 90.4107 376.434 90.2939 376.263 90.1225C376.092 89.9511 375.976 89.733 375.929 89.4957C375.883 89.2583 375.908 89.0126 376.001 88.7895C376.094 88.5663 376.252 88.3759 376.454 88.2423C376.656 88.1088 376.893 88.038 377.135 88.0391C377.458 88.0405 377.768 88.1698 377.997 88.3987C378.225 88.6277 378.353 88.9376 378.353 89.2606Z" fill="#75D3C7"/>
</g>
<g style="mix-blend-mode:multiply">
<path d="M176.419 148.472C176.419 148.713 176.348 148.949 176.213 149.15C176.079 149.351 175.888 149.508 175.664 149.6C175.441 149.693 175.195 149.717 174.957 149.67C174.72 149.622 174.502 149.506 174.331 149.335C174.16 149.164 174.043 148.947 173.996 148.71C173.949 148.473 173.973 148.227 174.066 148.004C174.158 147.781 174.315 147.59 174.516 147.456C174.718 147.322 174.954 147.25 175.196 147.25C175.52 147.251 175.83 147.381 176.059 147.609C176.289 147.838 176.418 148.148 176.419 148.472Z" fill="#75D3C7"/>
</g>
<g style="mix-blend-mode:multiply">
<path d="M307.826 93.3465C307.826 93.5881 307.754 93.8243 307.619 94.0252C307.485 94.2261 307.294 94.3827 307.07 94.4751C306.847 94.5676 306.601 94.5918 306.364 94.5446C306.126 94.4975 305.908 94.3812 305.737 94.2103C305.566 94.0395 305.45 93.8218 305.402 93.5849C305.355 93.3479 305.379 93.1023 305.472 92.8791C305.565 92.6559 305.721 92.4651 305.923 92.3309C306.124 92.1966 306.36 92.125 306.602 92.125C306.927 92.125 307.238 92.2537 307.467 92.4828C307.697 92.7119 307.826 93.0226 307.826 93.3465Z" fill="#75D3C7"/>
</g>
<g style="mix-blend-mode:multiply">
<path d="M222.372 161.396C222.372 161.638 222.301 161.874 222.166 162.075C222.032 162.276 221.841 162.432 221.617 162.525C221.394 162.617 221.148 162.642 220.91 162.594C220.673 162.547 220.455 162.431 220.284 162.26C220.113 162.089 219.996 161.872 219.949 161.635C219.902 161.398 219.926 161.152 220.019 160.929C220.111 160.706 220.268 160.515 220.469 160.381C220.671 160.246 220.907 160.175 221.149 160.175C221.31 160.175 221.469 160.206 221.617 160.268C221.766 160.329 221.901 160.419 222.014 160.533C222.128 160.646 222.218 160.781 222.279 160.929C222.341 161.077 222.372 161.236 222.372 161.396Z" fill="#75D3C7"/>
</g>
<g style="mix-blend-mode:multiply">
<path d="M374.602 76.1434C374.37 76.142 374.149 76.0492 373.985 75.8853C373.822 75.7214 373.731 75.4997 373.731 75.2686C373.718 62.1282 368.485 49.5295 359.179 40.2378C349.874 30.9461 337.257 25.7204 324.097 25.7077C323.866 25.7077 323.645 25.6161 323.482 25.4531C323.318 25.29 323.227 25.0688 323.227 24.8382C323.227 24.6076 323.318 24.3865 323.482 24.2234C323.645 24.0604 323.866 23.9688 324.097 23.9688C337.719 23.9843 350.777 29.3939 360.41 39.011C370.042 48.628 375.461 61.6673 375.478 75.2686C375.478 75.5006 375.385 75.7232 375.221 75.8872C375.057 76.0513 374.834 76.1434 374.602 76.1434Z" fill="#75D3C7"/>
<path d="M374.602 76.5004L369.259 71.1661C369.096 71.0027 369.004 70.7811 369.004 70.55C369.004 70.3189 369.096 70.0973 369.259 69.9339C369.423 69.7705 369.645 69.6787 369.876 69.6787C370.108 69.6787 370.33 69.7705 370.493 69.9339L374.612 74.0467L378.544 70.1206C378.709 69.9593 378.93 69.869 379.161 69.869C379.392 69.869 379.613 69.9593 379.778 70.1206C379.859 70.2014 379.924 70.2974 379.968 70.4031C380.012 70.5089 380.034 70.6222 380.034 70.7367C380.034 70.8512 380.012 70.9646 379.968 71.0703C379.924 71.176 379.859 71.272 379.778 71.3528L374.602 76.5004Z" fill="#75D3C7"/>
</g>
<g style="mix-blend-mode:multiply">
<path d="M225.906 221.599C212.285 221.584 199.226 216.174 189.594 206.557C179.962 196.94 174.543 183.901 174.526 170.3C174.517 170.179 174.532 170.058 174.572 169.944C174.612 169.83 174.674 169.726 174.756 169.637C174.838 169.549 174.938 169.478 175.049 169.43C175.159 169.381 175.279 169.356 175.4 169.356C175.52 169.356 175.64 169.381 175.751 169.43C175.861 169.478 175.961 169.549 176.043 169.637C176.125 169.726 176.188 169.83 176.227 169.944C176.267 170.058 176.282 170.179 176.273 170.3C176.286 183.44 181.519 196.039 190.824 205.33C200.13 214.622 212.747 219.848 225.906 219.86C226.137 219.86 226.359 219.952 226.522 220.115C226.685 220.278 226.777 220.499 226.777 220.73C226.777 220.961 226.685 221.182 226.522 221.345C226.359 221.508 226.137 221.599 225.906 221.599Z" fill="#75D3C7"/>
<path d="M180.134 175.895C179.903 175.894 179.682 175.802 179.519 175.639L175.401 171.526L171.469 175.447C171.305 175.607 171.085 175.696 170.856 175.695C170.627 175.695 170.407 175.604 170.245 175.442C170.082 175.281 169.99 175.062 169.988 174.833C169.986 174.604 170.075 174.384 170.235 174.22L175.401 169.062L180.743 174.396C180.866 174.517 180.951 174.673 180.987 174.842C181.022 175.012 181.006 175.188 180.941 175.349C180.875 175.509 180.764 175.647 180.62 175.744C180.476 175.841 180.307 175.894 180.134 175.895Z" fill="#75D3C7"/>
</g>
</g>
<defs>
<clipPath id="clip0_9524_3812">
<rect width="234" height="208" fill="white" transform="translate(158 18)"/>
</clipPath>
<clipPath id="clip1_9524_3812">
<rect width="22" height="22" fill="white" transform="translate(174 70)"/>
</clipPath>
</defs>
</svg>
