<svg width="50" height="50" viewBox="0 0 50 50" fill="none" xmlns="http://www.w3.org/2000/svg">
<g clip-path="url(#clip0_9160_3124)">
<path d="M0.713638 42.5165C0.934547 42.6708 1.18946 42.7693 1.45666 42.8038C1.72386 42.8383 1.99545 42.8078 2.24829 42.7147L13.8667 38.3589C14.0546 38.2887 14.2616 38.2887 14.4495 38.3589L20.7912 40.7312C25.6767 44.9197 32.777 45.2725 38.0536 41.5889L39.6232 43.1585C39.5849 43.2969 39.5645 43.4396 39.5624 43.5832C39.5618 43.802 39.6046 44.0187 39.6884 44.2208C39.7722 44.4229 39.8952 44.6064 40.0504 44.7606L44.2729 48.9831C44.6836 49.4083 45.2001 49.7166 45.7694 49.8762C46.3386 50.0358 46.9401 50.041 47.512 49.8913C48.0839 49.7416 48.6057 49.4424 49.0238 49.0244C49.4418 48.6064 49.7411 48.0846 49.8908 47.5127C50.0405 46.9407 50.0353 46.3392 49.8756 45.77C49.716 45.2007 49.4077 44.6842 48.9825 44.2735L44.7608 40.0518C44.6069 39.8963 44.4237 39.773 44.2216 39.6891C44.0196 39.6052 43.8029 39.5623 43.5842 39.563C43.4403 39.5649 43.2972 39.5857 43.1587 39.6247L41.5899 38.0517C44.9617 33.2203 44.9793 26.8032 41.634 21.9535V1.92154C41.6344 1.65243 41.5695 1.38725 41.445 1.14869C41.3204 0.910135 41.1399 0.705312 40.9189 0.551759C40.6979 0.398206 40.443 0.300496 40.176 0.266996C39.909 0.233495 39.6378 0.265202 39.3857 0.359401L27.7673 4.7152C27.5797 4.787 27.3721 4.787 27.1845 4.7152L15.0333 0.159562C14.4681 -0.0531873 13.8448 -0.0531873 13.2797 0.159562L1.62212 4.53036C1.14656 4.70942 0.736715 5.0289 0.446992 5.44636C0.157269 5.86383 0.00137265 6.35955 1.07419e-07 6.8677V41.1492C-9.63359e-05 41.4178 0.0647505 41.6824 0.189012 41.9205C0.313273 42.1586 0.493264 42.3631 0.713638 42.5165ZM47.8077 45.4509C48.4579 46.1012 48.4579 47.1554 47.8077 47.8057C47.1489 48.4351 46.1117 48.4351 45.4529 47.8057L41.2303 43.5832L43.5852 41.2284L47.8077 45.4509ZM41.819 40.6388L40.64 41.8178L39.3676 40.5446C39.575 40.3598 39.784 40.1824 39.9863 39.9843C40.1887 39.7861 40.3618 39.5738 40.5467 39.3656L41.819 40.6388ZM38.808 38.8069C34.5943 43.0201 27.9912 43.6701 23.0369 40.3594C18.0826 37.0487 16.1568 30.6993 18.4373 25.1942C20.7178 19.6892 26.5695 16.5616 32.4136 17.7242C38.2578 18.8868 42.4669 24.0158 42.4669 29.9746C42.4713 31.6155 42.1502 33.2409 41.5221 34.7569C40.8941 36.2728 39.9716 37.6491 38.808 38.8061V38.8069ZM39.9688 1.92154V19.9499C38.6582 18.6362 37.1006 17.5948 35.3856 16.8858C33.6707 16.1768 31.8324 15.8142 29.9766 15.819C29.4199 15.8221 28.8638 15.8577 28.3113 15.9255V6.28567C28.3255 6.28067 28.3396 6.27901 28.3538 6.27401L39.9688 1.92154ZM26.6009 6.27318C26.6159 6.27818 26.6309 6.27984 26.6459 6.28567V16.2279C22.1085 17.3206 18.4029 20.5828 16.7441 24.9451C15.0852 29.3075 15.6867 34.2076 18.3515 38.0392L15.0333 36.7977C15.0183 36.7927 15.0033 36.791 14.9883 36.7852V1.92154L26.6009 6.27318ZM1.66535 6.8677C1.66588 6.69832 1.71805 6.53314 1.8149 6.39419C1.91175 6.25523 2.04867 6.14912 2.20739 6.09L13.3229 1.92162V36.7852C13.3087 36.7902 13.2946 36.7919 13.2804 36.7969L1.66535 41.1493V6.8677Z" fill="#034737"/>
<path d="M22.3235 22.32C19.2274 25.4158 18.3012 30.0719 19.9766 34.117C21.652 38.1621 25.5992 40.7995 29.9775 40.7995C34.3558 40.7995 38.303 38.1621 39.9785 34.117C41.6539 30.0719 40.7276 25.4159 37.6315 22.32C33.4018 18.0991 26.5533 18.0991 22.3235 22.32ZM36.4542 36.4507C33.8346 39.0703 29.8949 39.8541 26.4721 38.4364C23.0494 37.0187 20.8178 33.6787 20.8178 29.974C20.8178 26.2693 23.0495 22.9293 26.4721 21.5117C29.8948 20.0941 33.8346 20.8777 36.4542 23.4975C40.025 27.0769 40.025 32.8712 36.4542 36.4507Z" fill="#034737"/>
<path fill-rule="evenodd" clip-rule="evenodd" d="M29.9775 22.4805C28.9249 22.4824 27.8841 22.7016 26.9201 23.1243C25.9561 23.5469 25.0897 24.164 24.3752 24.9368C24.0597 25.2716 24.0754 25.7988 24.4101 26.1142C24.7449 26.4297 25.2721 26.414 25.5875 26.0792C26.1467 25.4721 26.8253 24.987 27.5807 24.6543C28.336 24.3216 29.152 24.1485 29.9774 24.1457C30.4373 24.1457 30.8101 23.773 30.8101 23.3131C30.8102 22.8532 30.4374 22.4805 29.9775 22.4805Z" fill="#034737"/>
</g>
<defs>
<clipPath id="clip0_9160_3124">
<rect width="50" height="50" fill="white"/>
</clipPath>
</defs>
</svg>
