<svg width="50" height="50" viewBox="0 0 50 50" fill="none" xmlns="http://www.w3.org/2000/svg">
<g clip-path="url(#clip0_9160_16365)">
<path d="M4.16536 21.6667C4.6256 21.6667 4.9987 21.2936 4.9987 20.8333C4.9987 20.3731 4.6256 20 4.16536 20C3.70513 20 3.33203 20.3731 3.33203 20.8333C3.33203 21.2936 3.70513 21.6667 4.16536 21.6667Z" fill="#034737"/>
<path d="M4.16536 28.3327C4.6256 28.3327 4.9987 27.9596 4.9987 27.4993C4.9987 27.0391 4.6256 26.666 4.16536 26.666C3.70513 26.666 3.33203 27.0391 3.33203 27.4993C3.33203 27.9596 3.70513 28.3327 4.16536 28.3327Z" fill="#034737"/>
<path d="M4.16536 35.0007C4.6256 35.0007 4.9987 34.6276 4.9987 34.1673C4.9987 33.7071 4.6256 33.334 4.16536 33.334C3.70513 33.334 3.33203 33.7071 3.33203 34.1673C3.33203 34.6276 3.70513 35.0007 4.16536 35.0007Z" fill="#034737"/>
<path d="M47.5 3.33333H40.8333C40.6123 3.33333 40.4004 3.24554 40.2441 3.08926C40.0878 2.93298 40 2.72101 40 2.5C40 1.83696 39.7366 1.20107 39.2678 0.732233C38.7989 0.263392 38.163 0 37.5 0L32.5 0C31.837 0 31.2011 0.263392 30.7322 0.732233C30.2634 1.20107 30 1.83696 30 2.5V8.33333H27.5C26.837 8.33333 26.2011 8.59672 25.7322 9.06557C25.2634 9.53441 25 10.1703 25 10.8333V24.1667H21.6667V15C21.6615 14.9477 21.6511 14.8961 21.6358 14.8458C21.6508 14.7592 21.6608 14.6708 21.6667 14.5833C21.6667 11.6067 16.0833 10 10.8333 10C5.58333 10 0 11.6067 0 14.5833C0.005 14.6717 0.0158333 14.7583 0.0308333 14.8458C0.0155343 14.8961 0.00520701 14.9477 0 15L0 35C0 37.7358 5.45 39.1667 10.8333 39.1667C16.2167 39.1667 21.6667 37.7358 21.6667 35V25.8333H25V39.1667C25 39.8297 25.2634 40.4656 25.7322 40.9344C26.2011 41.4033 26.837 41.6667 27.5 41.6667H30V47.5C30 48.163 30.2634 48.7989 30.7322 49.2678C31.2011 49.7366 31.837 50 32.5 50H47.5C48.163 50 48.7989 49.7366 49.2678 49.2678C49.7366 48.7989 50 48.163 50 47.5V40.8333C50 40.1703 49.7366 39.5344 49.2678 39.0656C48.7989 38.5967 48.163 38.3333 47.5 38.3333H40.8333C40.6123 38.3333 40.4004 38.2455 40.2441 38.0893C40.0878 37.933 40 37.721 40 37.5C40 36.837 39.7366 36.2011 39.2678 35.7322C38.7989 35.2634 38.163 35 37.5 35H32.5C31.837 35 31.2011 35.2634 30.7322 35.7322C30.2634 36.2011 30 36.837 30 37.5V40H27.5C27.279 40 27.067 39.9122 26.9107 39.7559C26.7545 39.5996 26.6667 39.3877 26.6667 39.1667V25.8333H30V30C30 30.663 30.2634 31.2989 30.7322 31.7678C31.2011 32.2366 31.837 32.5 32.5 32.5H47.5C48.163 32.5 48.7989 32.2366 49.2678 31.7678C49.7366 31.2989 50 30.663 50 30V23.3333C50 22.6703 49.7366 22.0344 49.2678 21.5656C48.7989 21.0967 48.163 20.8333 47.5 20.8333H40.8333C40.6123 20.8333 40.4004 20.7455 40.2441 20.5893C40.0878 20.433 40 20.221 40 20C40 19.337 39.7366 18.7011 39.2678 18.2322C38.7989 17.7634 38.163 17.5 37.5 17.5H32.5C31.837 17.5 31.2011 17.7634 30.7322 18.2322C30.2634 18.7011 30 19.337 30 20V24.1667H26.6667V10.8333C26.6667 10.6123 26.7545 10.4004 26.9107 10.2441C27.067 10.0878 27.279 10 27.5 10H30V12.5C30 13.163 30.2634 13.7989 30.7322 14.2678C31.2011 14.7366 31.837 15 32.5 15H47.5C48.163 15 48.7989 14.7366 49.2678 14.2678C49.7366 13.7989 50 13.163 50 12.5V5.83333C50 5.17029 49.7366 4.53441 49.2678 4.06557C48.7989 3.59673 48.163 3.33333 47.5 3.33333ZM20 21.6667C20 22.515 16.7642 24.1667 10.8333 24.1667C4.9025 24.1667 1.66667 22.515 1.66667 21.6667V17.1008C3.7125 18.4525 7.34083 19.1667 10.8333 19.1667C14.3258 19.1667 17.9542 18.4525 20 17.1008V21.6667ZM1.66667 23.9858C3.68833 25.2025 7.27083 25.8333 10.8333 25.8333C14.3958 25.8333 17.9783 25.2025 20 23.9858V28.3333C20 29.1817 16.7642 30.8333 10.8333 30.8333C4.9025 30.8333 1.66667 29.1817 1.66667 28.3333V23.9858ZM10.8333 11.6667C16.4292 11.6667 20 13.3942 20 14.5833C20 15.7725 16.4292 17.5 10.8333 17.5C5.2375 17.5 1.66667 15.7725 1.66667 14.5833C1.66667 13.3942 5.2375 11.6667 10.8333 11.6667ZM10.8333 37.5C4.9025 37.5 1.66667 35.8483 1.66667 35V30.6525C3.68833 31.8692 7.27083 32.5 10.8333 32.5C14.3958 32.5 17.9783 31.8692 20 30.6525V35C20 35.8483 16.7642 37.5 10.8333 37.5ZM31.6667 37.5C31.6667 37.279 31.7545 37.067 31.9107 36.9107C32.067 36.7545 32.279 36.6667 32.5 36.6667H37.5C37.721 36.6667 37.933 36.7545 38.0893 36.9107C38.2455 37.067 38.3333 37.279 38.3333 37.5C38.3333 38.163 38.5967 38.7989 39.0656 39.2678C39.5344 39.7366 40.1703 40 40.8333 40H47.5C47.721 40 47.933 40.0878 48.0893 40.2441C48.2455 40.4004 48.3333 40.6123 48.3333 40.8333V47.5C48.3333 47.721 48.2455 47.933 48.0893 48.0893C47.933 48.2455 47.721 48.3333 47.5 48.3333H32.5C32.279 48.3333 32.067 48.2455 31.9107 48.0893C31.7545 47.933 31.6667 47.721 31.6667 47.5V37.5ZM31.6667 20C31.6667 19.779 31.7545 19.567 31.9107 19.4107C32.067 19.2545 32.279 19.1667 32.5 19.1667H37.5C37.721 19.1667 37.933 19.2545 38.0893 19.4107C38.2455 19.567 38.3333 19.779 38.3333 20C38.3333 20.663 38.5967 21.2989 39.0656 21.7678C39.5344 22.2366 40.1703 22.5 40.8333 22.5H47.5C47.721 22.5 47.933 22.5878 48.0893 22.7441C48.2455 22.9004 48.3333 23.1123 48.3333 23.3333V30C48.3333 30.221 48.2455 30.433 48.0893 30.5893C47.933 30.7455 47.721 30.8333 47.5 30.8333H32.5C32.279 30.8333 32.067 30.7455 31.9107 30.5893C31.7545 30.433 31.6667 30.221 31.6667 30V20ZM48.3333 12.5C48.3333 12.721 48.2455 12.933 48.0893 13.0893C47.933 13.2455 47.721 13.3333 47.5 13.3333H32.5C32.279 13.3333 32.067 13.2455 31.9107 13.0893C31.7545 12.933 31.6667 12.721 31.6667 12.5V2.5C31.6667 2.27899 31.7545 2.06702 31.9107 1.91074C32.067 1.75446 32.279 1.66667 32.5 1.66667H37.5C37.721 1.66667 37.933 1.75446 38.0893 1.91074C38.2455 2.06702 38.3333 2.27899 38.3333 2.5C38.3333 3.16304 38.5967 3.79893 39.0656 4.26777C39.5344 4.73661 40.1703 5 40.8333 5H47.5C47.721 5 47.933 5.0878 48.0893 5.24408C48.2455 5.40036 48.3333 5.61232 48.3333 5.83333V12.5Z" fill="#034737"/>
<path d="M34.1654 11.6667C34.6256 11.6667 34.9987 11.2936 34.9987 10.8333C34.9987 10.3731 34.6256 10 34.1654 10C33.7051 10 33.332 10.3731 33.332 10.8333C33.332 11.2936 33.7051 11.6667 34.1654 11.6667Z" fill="#034737"/>
<path d="M34.1654 8.33268C34.6256 8.33268 34.9987 7.95959 34.9987 7.49935C34.9987 7.03911 34.6256 6.66602 34.1654 6.66602C33.7051 6.66602 33.332 7.03911 33.332 7.49935C33.332 7.95959 33.7051 8.33268 34.1654 8.33268Z" fill="#034737"/>
<path d="M34.1654 29.1667C34.6256 29.1667 34.9987 28.7936 34.9987 28.3333C34.9987 27.8731 34.6256 27.5 34.1654 27.5C33.7051 27.5 33.332 27.8731 33.332 28.3333C33.332 28.7936 33.7051 29.1667 34.1654 29.1667Z" fill="#034737"/>
<path d="M34.1654 25.8327C34.6256 25.8327 34.9987 25.4596 34.9987 24.9993C34.9987 24.5391 34.6256 24.166 34.1654 24.166C33.7051 24.166 33.332 24.5391 33.332 24.9993C33.332 25.4596 33.7051 25.8327 34.1654 25.8327Z" fill="#034737"/>
<path d="M34.1654 46.6667C34.6256 46.6667 34.9987 46.2936 34.9987 45.8333C34.9987 45.3731 34.6256 45 34.1654 45C33.7051 45 33.332 45.3731 33.332 45.8333C33.332 46.2936 33.7051 46.6667 34.1654 46.6667Z" fill="#034737"/>
<path d="M34.1654 43.3327C34.6256 43.3327 34.9987 42.9596 34.9987 42.4993C34.9987 42.0391 34.6256 41.666 34.1654 41.666C33.7051 41.666 33.332 42.0391 33.332 42.4993C33.332 42.9596 33.7051 43.3327 34.1654 43.3327Z" fill="#034737"/>
</g>
<defs>
<clipPath id="clip0_9160_16365">
<rect width="50" height="50" fill="white"/>
</clipPath>
</defs>
</svg>
