<svg width="78" height="50" viewBox="0 0 78 50" fill="none" xmlns="http://www.w3.org/2000/svg">
<path d="M38.6227 29.1075C39.3215 29.1065 39.9913 28.8284 40.4853 28.3341C40.9793 27.8399 41.2571 27.17 41.2577 26.4712V23.5287C41.2571 22.83 40.9793 22.16 40.4853 21.6658C39.9913 21.1716 39.3215 20.8935 38.6227 20.8925C38.5906 20.8944 38.5586 20.8867 38.531 20.8702C38.5033 20.8537 38.4813 20.8292 38.4677 20.8C38.2146 19.9919 37.8891 19.2083 37.4952 18.4587C37.4829 18.4277 37.4804 18.3936 37.4883 18.3611C37.4961 18.3287 37.5138 18.2994 37.539 18.2775C38.0326 17.7828 38.3097 17.1125 38.3097 16.4137C38.3097 15.7149 38.0326 15.0447 37.539 14.55L35.4578 12.4687C34.963 11.9748 34.2925 11.6974 33.5934 11.6974C32.8943 11.6974 32.2238 11.9748 31.729 12.4687C31.7072 12.4937 31.678 12.5111 31.6457 12.5185C31.6134 12.5259 31.5795 12.5229 31.549 12.51C30.7893 12.1105 29.9942 11.782 29.174 11.5287C29.144 11.52 29.1128 11.4712 29.1128 11.3825C29.1111 10.6846 28.8331 10.0158 28.3395 9.52242C27.8459 9.02906 27.1769 8.75132 26.479 8.75H23.5365C22.8378 8.75066 22.1678 9.02845 21.6736 9.52243C21.1794 10.0164 20.9013 10.6862 20.9003 11.385C20.9023 11.4171 20.8945 11.4491 20.878 11.4768C20.8615 11.5044 20.837 11.5265 20.8078 11.54C19.9997 11.7932 19.2162 12.1187 18.4665 12.5125C18.4355 12.5251 18.4014 12.5276 18.3689 12.5197C18.3364 12.5119 18.3071 12.4941 18.2853 12.4687C17.7906 11.9752 17.1203 11.698 16.4215 11.698C15.7227 11.698 15.0525 11.9752 14.5578 12.4687L12.4766 14.55C11.9829 15.0449 11.7057 15.7154 11.7057 16.4144C11.7057 17.1134 11.9829 17.7838 12.4766 18.2787C12.5007 18.3009 12.5177 18.3297 12.5252 18.3616C12.5328 18.3934 12.5307 18.4269 12.5191 18.4575C12.1245 19.2074 11.7986 19.9914 11.5453 20.8C11.5318 20.8292 11.5097 20.8537 11.4821 20.8702C11.4544 20.8867 11.4225 20.8944 11.3903 20.8925C10.692 20.8941 10.0228 21.1725 9.52935 21.6667C9.03592 22.1608 8.75847 22.8304 8.75781 23.5287V26.4712C8.75895 26.8195 8.82888 27.1642 8.96356 27.4854C9.09825 27.8066 9.29505 28.098 9.54267 28.3429C9.79029 28.5879 10.0838 28.7815 10.4065 28.9127C10.7291 29.0439 11.0745 29.1101 11.4228 29.1075C11.4458 29.1057 11.4689 29.1104 11.4894 29.121C11.5099 29.1316 11.5271 29.1477 11.5391 29.1675C11.7921 29.9877 12.1206 30.7828 12.5203 31.5425C12.5327 31.5735 12.5351 31.6076 12.5273 31.64C12.5194 31.6725 12.5017 31.7017 12.4766 31.7237C11.983 32.2184 11.7058 32.8886 11.7058 33.5874C11.7058 34.2862 11.983 34.9565 12.4766 35.4512L14.5578 37.5324C15.0527 38.0261 15.7232 38.3033 16.4222 38.3033C17.1212 38.3033 17.7916 38.0261 18.2865 37.5324C18.3088 37.5084 18.3376 37.4916 18.3695 37.484C18.4013 37.4764 18.4346 37.4785 18.4653 37.4899C19.2152 37.8845 19.9992 38.2104 20.8078 38.4637C20.837 38.4772 20.8615 38.4992 20.878 38.5269C20.8945 38.5545 20.9023 38.5865 20.9003 38.6187C20.9023 39.3168 21.1808 39.9857 21.6749 40.4788C22.169 40.972 22.8384 41.2493 23.5365 41.2499H26.479C27.1778 41.2493 27.8477 40.9715 28.342 40.4775C28.8362 39.9835 29.1143 39.3137 29.1153 38.6149C29.1133 38.5828 29.1211 38.5508 29.1376 38.5231C29.1541 38.4955 29.1785 38.4735 29.2078 38.4599C30.0158 38.2068 30.7994 37.8813 31.549 37.4874C31.5801 37.4754 31.6141 37.4732 31.6465 37.481C31.6789 37.4888 31.7081 37.5063 31.7303 37.5312C32.2248 38.0251 32.8951 38.3024 33.594 38.3024C34.2929 38.3024 34.9632 38.0251 35.4578 37.5312L37.539 35.4499C38.0326 34.955 38.3099 34.2846 38.3099 33.5856C38.3099 32.8866 38.0326 32.2161 37.539 31.7212C37.5149 31.6991 37.4979 31.6702 37.4903 31.6383C37.4827 31.6065 37.4849 31.5731 37.4965 31.5425C37.891 30.7926 38.217 30.0086 38.4702 29.2C38.4836 29.1711 38.5053 29.147 38.5324 29.1305C38.5596 29.114 38.591 29.106 38.6227 29.1075ZM36.0803 28.455C35.8729 29.1191 35.6055 29.763 35.2815 30.3787C35.0187 30.8812 34.9243 31.4548 35.0123 32.015C35.1003 32.5752 35.366 33.0922 35.7703 33.4899C35.7957 33.5155 35.8101 33.5501 35.8101 33.5862C35.8101 33.6223 35.7957 33.6569 35.7703 33.6824L33.689 35.7637C33.6763 35.7765 33.6612 35.7867 33.6446 35.7936C33.628 35.8006 33.6102 35.8041 33.5921 35.8041C33.5741 35.8041 33.5563 35.8006 33.5396 35.7936C33.523 35.7867 33.5079 35.7765 33.4953 35.7637C33.0976 35.359 32.5803 35.093 32.0198 35.005C31.4593 34.917 30.8853 35.0116 30.3828 35.2749C29.7673 35.5982 29.1238 35.8652 28.4603 36.0724C27.9206 36.2425 27.4498 36.5813 27.1172 37.039C26.7846 37.4967 26.6078 38.0491 26.6128 38.6149C26.6124 38.6509 26.5979 38.6852 26.5724 38.7105C26.5469 38.7358 26.5124 38.7499 26.4765 38.7499H23.5365C23.5006 38.7499 23.4661 38.7358 23.4406 38.7105C23.4151 38.6852 23.4006 38.6509 23.4003 38.6149C23.4053 38.0491 23.2284 37.4967 22.8958 37.039C22.5632 36.5813 22.0924 36.2425 21.5528 36.0724C20.8887 35.865 20.2448 35.5977 19.629 35.2737C19.2525 35.0754 18.8334 34.9715 18.4078 34.9712C18.0562 34.9722 17.7082 35.0426 17.3839 35.1784C17.0596 35.3142 16.7653 35.5127 16.5178 35.7624C16.4923 35.7879 16.4576 35.8023 16.4215 35.8023C16.3855 35.8023 16.3508 35.7879 16.3253 35.7624L14.2441 33.6812C14.2185 33.6554 14.2041 33.6206 14.2041 33.5843C14.2041 33.548 14.2185 33.5132 14.2441 33.4874C14.6481 33.0899 14.9137 32.573 15.0014 32.013C15.0892 31.453 14.9946 30.8796 14.7315 30.3775C14.4035 29.7534 14.1332 29.1007 13.9241 28.4275C13.7548 27.8911 13.4165 27.424 12.9599 27.0957C12.5032 26.7675 11.9526 26.5958 11.3903 26.6062C11.355 26.6052 11.3215 26.5906 11.2968 26.5655C11.2721 26.5403 11.2581 26.5065 11.2578 26.4712V23.5287C11.2578 23.4928 11.272 23.4583 11.2973 23.4328C11.3226 23.4073 11.3569 23.3928 11.3928 23.3925C11.9586 23.3975 12.511 23.2206 12.9687 22.888C13.4265 22.5554 13.7653 22.0846 13.9353 21.545C14.1427 20.8808 14.41 20.2369 14.734 19.6212C14.9968 19.1187 15.0912 18.5451 15.0032 17.9849C14.9152 17.4248 14.6495 16.9077 14.2453 16.51C14.2198 16.4844 14.2055 16.4498 14.2055 16.4137C14.2055 16.3776 14.2198 16.343 14.2453 16.3175L16.3265 14.2362C16.3525 14.211 16.3872 14.1968 16.4234 14.1968C16.4596 14.1968 16.4944 14.211 16.5203 14.2362C16.9182 14.6402 17.4354 14.9056 17.9956 14.9931C18.5558 15.0807 19.1294 14.9858 19.6315 14.7225C20.247 14.3992 20.8905 14.1323 21.554 13.925C22.0937 13.755 22.5645 13.4162 22.8971 12.9584C23.2297 12.5007 23.4065 11.9483 23.4015 11.3825C23.4025 11.3472 23.4171 11.3137 23.4423 11.289C23.4675 11.2643 23.5013 11.2503 23.5365 11.25H26.479C26.554 11.25 26.6153 11.3112 26.6153 11.415C26.611 11.972 26.7858 12.5156 27.114 12.9657C27.4421 13.4159 27.9062 13.7486 28.4378 13.915C29.1107 14.1234 29.7631 14.3933 30.3865 14.7212C30.8891 14.9836 31.4626 15.0778 32.0227 14.9898C32.5828 14.9018 33.0998 14.6363 33.4978 14.2325C33.5233 14.207 33.5579 14.1927 33.594 14.1927C33.6301 14.1927 33.6647 14.207 33.6903 14.2325L35.7715 16.3137C35.7971 16.3395 35.8114 16.3743 35.8114 16.4106C35.8114 16.4469 35.7971 16.4817 35.7715 16.5075C35.3655 16.9054 35.0987 17.4237 35.0107 17.9853C34.9227 18.5469 35.0181 19.1219 35.2828 19.625C35.606 20.2404 35.873 20.8839 36.0803 21.5475C36.2503 22.0871 36.5891 22.5579 37.0468 22.8905C37.5045 23.2231 38.057 23.4 38.6227 23.395C38.6587 23.3953 38.693 23.4098 38.7183 23.4353C38.7436 23.4608 38.7577 23.4953 38.7577 23.5312V26.4737C38.7577 26.5096 38.7436 26.5441 38.7183 26.5696C38.693 26.5951 38.6587 26.6096 38.6227 26.61C38.0573 26.6048 37.5051 26.7813 37.0474 27.1134C36.5897 27.4455 36.2507 27.9158 36.0803 28.455Z" fill="#034737"/>
<path d="M25.0078 16.25C23.2772 16.25 21.5855 16.7632 20.1466 17.7246C18.7076 18.6861 17.5861 20.0527 16.9239 21.6515C16.2616 23.2504 16.0883 25.0097 16.4259 26.707C16.7636 28.4043 17.5969 29.9634 18.8206 31.1872C20.0443 32.4109 21.6034 33.2442 23.3008 33.5818C24.9981 33.9195 26.7574 33.7462 28.3563 33.0839C29.9551 32.4216 31.3217 31.3001 32.2831 29.8612C33.2446 28.4223 33.7578 26.7306 33.7578 25C33.7551 22.6802 32.8324 20.4561 31.192 18.8157C29.5517 17.1754 27.3276 16.2526 25.0078 16.25ZM25.0078 31.25C23.7717 31.25 22.5633 30.8834 21.5355 30.1967C20.5077 29.5099 19.7066 28.5338 19.2336 27.3917C18.7605 26.2497 18.6367 24.993 18.8779 23.7807C19.1191 22.5683 19.7143 21.4546 20.5884 20.5806C21.4625 19.7065 22.5761 19.1112 23.7885 18.8701C25.0009 18.6289 26.2575 18.7527 27.3996 19.2257C28.5416 19.6988 29.5177 20.4999 30.2045 21.5277C30.8912 22.5555 31.2578 23.7638 31.2578 25C31.2558 26.657 30.5967 28.2455 29.425 29.4172C28.2533 30.5889 26.6648 31.248 25.0078 31.25Z" fill="#034737"/>
<path d="M25.0051 49.9999C29.2665 50.0124 33.4596 48.9301 37.1827 46.8569C40.9058 44.7837 44.034 41.7891 46.2676 38.1599L44.1426 36.8412C41.642 40.8912 37.9222 44.0445 33.5174 45.8481C29.1126 47.6518 24.2495 48.013 19.6266 46.88C15.0037 45.7469 10.8588 43.1778 7.78728 39.5417C4.71578 35.9056 2.8757 31.3896 2.53134 26.6423C2.18698 21.895 3.35605 17.1607 5.87064 13.1194C8.38524 9.07814 12.116 5.93777 16.527 4.14938C20.938 2.361 25.8023 2.01662 30.4213 3.16572C35.0402 4.31482 39.1762 6.89826 42.2351 10.545L39.6563 10.0137L39.1563 12.4625L45.2813 13.7237C45.3635 13.7409 45.4473 13.7497 45.5313 13.75C45.7043 13.7505 45.8756 13.7152 46.0343 13.6461C46.1929 13.5771 46.3355 13.4758 46.453 13.3488C46.5705 13.2218 46.6604 13.0718 46.7169 12.9082C46.7734 12.7447 46.7953 12.5712 46.7813 12.3987L46.2813 6.16999L43.7901 6.37124L43.9801 8.72874C41.2513 5.54568 37.7658 3.10001 33.8444 1.61676C29.9229 0.133508 25.6913 -0.339686 21.5391 0.240715C17.3869 0.821115 13.4473 2.43647 10.0828 4.93815C6.71834 7.43983 4.03707 10.7475 2.2857 14.5568C0.534325 18.3661 -0.230898 22.5546 0.0604345 26.7371C0.351767 30.9196 1.6903 34.9616 3.95287 38.4913C6.21545 42.021 9.32939 44.925 13.0082 46.9361C16.687 48.9472 20.8125 50.0008 25.0051 49.9999ZM63.2963 12.7825C63.1131 12.6327 62.8912 12.538 62.6564 12.5094C62.4216 12.4807 62.1834 12.5193 61.9697 12.6206C61.7559 12.7219 61.5752 12.8819 61.4487 13.0818C61.3222 13.2817 61.2551 13.5134 61.255 13.75V17.5H50.0051V20H62.505C62.8365 20 63.1545 19.8683 63.3889 19.6338C63.6233 19.3994 63.755 19.0815 63.755 18.75V16.3875L74.2812 25L63.755 33.6124V31.2499C63.755 30.9184 63.6233 30.6005 63.3889 30.3661C63.1545 30.1316 62.8365 29.9999 62.505 29.9999H50.0051V32.4999H61.255V36.2499C61.2551 36.4865 61.3222 36.7182 61.4487 36.9181C61.5752 37.118 61.7559 37.278 61.9697 37.3793C62.1834 37.4806 62.4216 37.5192 62.6564 37.4905C62.8912 37.4619 63.1131 37.3672 63.2963 37.2174L77.0462 25.9674C77.1896 25.8502 77.305 25.7026 77.3843 25.5353C77.4636 25.368 77.5048 25.1851 77.5048 25C77.5048 24.8148 77.4636 24.6319 77.3843 24.4646C77.305 24.2973 77.1896 24.1497 77.0462 24.0325L63.2963 12.7825Z" fill="#034737"/>
<path d="M45.0078 17.5H47.5078V20H45.0078V17.5ZM45.0078 30H47.5078V32.5H45.0078V30ZM45.0078 23.75H47.5078V26.25H45.0078V23.75Z" fill="#034737"/>
</svg>
