<svg width="13" height="13" viewBox="0 0 13 13" fill="none" xmlns="http://www.w3.org/2000/svg">
<path d="M4.21891 11.1743C4.23434 10.9555 4.26535 10.7379 4.31182 10.5233C4.35276 10.3318 4.47699 9.78874 4.65903 9.00237L4.66364 8.98242C4.74368 8.63668 4.82944 8.26748 4.9152 7.89912C4.96665 7.67806 5.00667 7.50646 5.03321 7.44913C4.90694 7.15799 4.8438 6.84209 4.84816 6.52424C4.84816 5.65493 5.33956 4.98133 5.97663 4.98134C6.21043 4.97776 6.4341 5.07902 6.58925 5.2585C6.74402 5.43757 6.81545 5.67677 6.78562 5.9059C6.78562 6.20003 6.72998 6.42486 6.49058 7.22878C6.44463 7.38315 6.41317 7.49151 6.38333 7.5998C6.3496 7.72193 6.32132 7.8327 6.29701 7.93884C6.23468 8.1902 6.29207 8.45715 6.45139 8.65767C6.61031 8.85768 6.85172 8.96779 7.10509 8.95453C8.07508 8.95453 8.79522 7.66422 8.79522 5.998C8.79522 4.71773 7.95614 3.87026 6.56436 3.8702C5.86392 3.84233 5.18289 4.1114 4.67998 4.61491C4.17667 5.1188 3.8958 5.81341 3.90299 6.53991C3.88775 6.93115 4.01027 7.31484 4.23608 7.60845C4.35381 7.69867 4.39901 7.85752 4.34956 7.99116C4.32288 8.10108 4.25854 8.35075 4.23508 8.43407C4.22088 8.51708 4.16909 8.58851 4.09518 8.62647C4.02077 8.66469 3.93298 8.6643 3.86438 8.6279C3.10966 8.31701 2.69665 7.47259 2.69665 6.39268C2.69665 4.4519 4.3162 2.76231 6.72146 2.76231C8.75953 2.76231 10.2844 4.27612 10.2844 6.10324C10.2844 8.3993 9.02857 10.0712 7.23626 10.0712C6.7199 10.0881 6.22883 9.8553 5.90591 9.44775L5.87796 9.5628C5.81679 9.81448 5.78618 9.94032 5.74328 10.1165L5.74204 10.1215C5.64701 10.5116 5.58071 10.7825 5.55497 10.8844C5.48614 11.1149 5.39891 11.3412 5.29497 11.5597C5.68172 11.6514 6.08518 11.7 6.50001 11.7C9.3719 11.7 11.7 9.37189 11.7 6.5C11.7 3.62812 9.3719 1.3 6.50001 1.3C3.62812 1.3 1.3 3.62812 1.3 6.5C1.3 8.55361 2.49045 10.3292 4.21891 11.1743ZM6.50001 13C2.91015 13 0 10.0898 0 6.5C0 2.91015 2.91015 0 6.50001 0C10.0898 0 13 2.91015 13 6.5C13 10.0898 10.0898 13 6.50001 13Z" fill="white"/>
</svg>
