<svg width="18" height="17" viewBox="0 0 18 17" fill="none" xmlns="http://www.w3.org/2000/svg">
<path d="M9.00037 0.118401C7.50425 0.118401 6.11405 0.495742 4.82977 1.25042C3.58521 1.99186 2.59221 2.98486 1.85077 4.22942C1.09609 5.5137 0.71875 6.9039 0.71875 8.40002C0.71875 9.89614 1.09609 11.2863 1.85077 12.5706C2.59221 13.8152 3.58521 14.8082 4.82977 15.5496C6.11405 16.3043 7.50425 16.6816 9.00037 16.6816C10.4965 16.6816 11.8867 16.3043 13.171 15.5496C14.4155 14.8082 15.4085 13.8152 16.15 12.5706C16.9046 11.2863 17.282 9.89614 17.282 8.40002C17.282 6.9039 16.9046 5.5137 16.15 4.22942C15.4085 2.98486 14.4155 1.99186 13.171 1.25042C11.8867 0.495742 10.4965 0.118401 9.00037 0.118401ZM9.00037 1.78664C9.22545 1.78664 9.46377 1.9058 9.71533 2.14412C10.0331 2.4354 10.3244 2.87894 10.5892 3.47474C10.7745 3.88518 10.9466 4.4214 11.1055 5.0834H6.89521C7.05409 4.4214 7.22621 3.88518 7.41157 3.47474C7.67637 2.87894 7.96765 2.4354 8.28541 2.14412C8.53697 1.9058 8.77529 1.78664 9.00037 1.78664ZM6.06109 2.46188C6.04785 2.48836 6.03461 2.51484 6.02137 2.54132L5.90221 2.7995C5.61093 3.44826 5.37923 4.20956 5.20711 5.0834H3.26083C3.59183 4.52732 3.99565 4.0242 4.47229 3.57404C4.94893 3.12388 5.47853 2.75316 6.06109 2.46188ZM11.9396 2.46188C12.5222 2.75316 13.0518 3.12388 13.5285 3.57404C14.0051 4.0242 14.4089 4.52732 14.7399 5.0834H12.7936C12.6215 4.20956 12.3898 3.44826 12.0985 2.7995L11.9396 2.46188ZM2.60545 6.75164H4.94893C4.89597 7.32096 4.86949 7.87042 4.86949 8.40002C4.86949 8.92962 4.89597 9.47908 4.94893 10.0484H2.60545C2.45981 9.49232 2.38699 8.94286 2.38699 8.40002C2.38699 7.85718 2.45981 7.30772 2.60545 6.75164ZM6.61717 6.75164H11.3836C11.4498 7.34744 11.4829 7.8969 11.4829 8.40002C11.4829 8.90314 11.4498 9.4526 11.3836 10.0484H6.61717C6.55097 9.4526 6.51787 8.90314 6.51787 8.40002C6.51787 7.8969 6.55097 7.34744 6.61717 6.75164ZM13.0518 6.75164H15.3953C15.5409 7.30772 15.6137 7.85718 15.6137 8.40002C15.6137 8.94286 15.5409 9.49232 15.3953 10.0484H13.0518C13.1048 9.47908 13.1312 8.92962 13.1312 8.40002C13.1312 7.87042 13.1048 7.32096 13.0518 6.75164ZM3.26083 11.7166H5.20711C5.37923 12.5905 5.61093 13.3518 5.90221 14.0005L6.06109 14.3382C5.47853 14.0469 4.94893 13.6762 4.47229 13.226C3.99565 12.7758 3.59183 12.2727 3.26083 11.7166ZM6.89521 11.7166H11.1055C10.9466 12.3786 10.7745 12.9149 10.5892 13.3253C10.3244 13.9211 10.0331 14.3646 9.71533 14.6559C9.46377 14.8942 9.22545 15.0134 9.00037 15.0134C8.77529 15.0134 8.53697 14.8942 8.28541 14.6559C7.96765 14.3646 7.67637 13.9211 7.41157 13.3253C7.22621 12.9149 7.05409 12.3786 6.89521 11.7166ZM12.7936 11.7166H14.7399C14.4089 12.2727 14.0051 12.7758 13.5285 13.226C13.0518 13.6762 12.5222 14.0469 11.9396 14.3382L12.0985 14.0005C12.3898 13.3518 12.6215 12.5905 12.7936 11.7166Z" fill="#14171B"/>
</svg>
