<svg width="48" height="48" viewBox="0 0 48 48" fill="none" xmlns="http://www.w3.org/2000/svg">
<rect width="48" height="48" rx="10" fill="#FFCC29"/>
<g clip-path="url(#clip0_51_1961)">
<path d="M29.223 11.5135C29.0054 11.4363 28.7913 11.3486 28.5702 11.2714C28.3877 11.2082 28.1877 11.145 27.9701 11.0819C27.77 11.0082 27.556 10.959 27.3384 10.8959C26.8476 10.7736 26.351 10.6763 25.8503 10.6046C25.632 10.5696 25.4116 10.5485 25.1906 10.5414C25.0008 10.5178 24.8096 10.5084 24.6185 10.5133C24.4187 10.4836 24.2167 10.4719 24.0149 10.4782H23.8008C23.6702 10.4788 23.5398 10.4906 23.4112 10.5133C23.2201 10.5084 23.0289 10.5178 22.8392 10.5414C22.617 10.5485 22.3954 10.5696 22.1759 10.6046C21.6763 10.6757 21.1807 10.7729 20.6913 10.8959C20.4773 10.959 20.2597 11.0082 20.0456 11.0819C19.8596 11.145 19.656 11.2082 19.47 11.2714C19.0468 11.4143 18.635 11.5891 18.2382 11.7943C18.0171 11.8891 17.8346 11.9803 17.6486 12.0715C16.6972 12.5764 15.8139 13.2003 15.0199 13.9281C14.0814 14.7328 13.2697 15.6746 12.6124 16.7217C12.3772 17.0761 12.1632 17.4657 11.9456 17.8482C11.7806 18.1887 11.6192 18.5291 11.4823 18.8695C10.8167 20.4981 10.4757 22.2411 10.4786 24.0005V37.5227H24.2184C24.3568 37.5262 24.4952 37.5191 24.6325 37.5016C24.7263 37.5038 24.8202 37.4991 24.9133 37.4876C25.0321 37.4914 25.151 37.482 25.2677 37.4595C25.4896 37.4538 25.7104 37.4279 25.9275 37.3823C25.9486 37.3963 25.9626 37.3823 25.9907 37.3823C26.1908 37.3507 26.3943 37.3191 26.5944 37.2735C26.6992 37.2633 26.8027 37.2421 26.9032 37.2103C27.1243 37.1682 27.3384 37.1191 27.556 37.0559C27.756 36.9963 27.9701 36.9331 28.1877 36.8699C28.813 36.6717 29.422 36.4253 30.0091 36.1329C30.1951 36.0206 30.3846 35.9294 30.5812 35.8206C30.7724 35.7243 30.9576 35.6165 31.1357 35.4977C32.968 34.3631 34.5003 32.8043 35.6033 30.9528C35.7086 30.7668 35.8209 30.5703 35.9262 30.3808C36.1262 29.9947 36.3158 29.6122 36.4807 29.2086C37.2007 27.4932 37.5545 25.6464 37.5195 23.7864C37.4759 21.1564 36.6684 18.596 35.1953 16.4169C33.7222 14.2378 31.6472 12.5342 29.223 11.5135ZM19.8069 30.1351H17.624V22.6423H19.8069V30.1351ZM30.2127 27.8504C30.1156 28.0002 29.9861 28.1261 29.8337 28.2189C29.7123 28.284 29.6031 28.3694 29.5108 28.4716C29.388 28.6436 29.595 28.7594 29.6792 28.8892C29.7923 29.0879 29.8394 29.3173 29.8135 29.5444C29.7876 29.7715 29.6902 29.9845 29.5354 30.1527C29.23 30.4966 28.8334 30.458 28.4158 30.458H23.9973C22.3233 30.458 21.6214 29.6192 20.9089 29.2858H20.386V22.6528L21.9547 22.2983C22.1449 22.255 22.3201 22.162 22.4625 22.0288C22.605 21.8957 22.7095 21.7271 22.7655 21.5403C22.969 20.8629 23.3586 19.3994 23.6323 18.3641C23.7037 18.099 23.8707 17.8697 24.1011 17.7204C24.3315 17.5711 24.609 17.5124 24.8801 17.5555C25.1513 17.5987 25.3968 17.7407 25.5695 17.9541C25.7422 18.1676 25.8297 18.4374 25.8152 18.7116C25.7486 19.9856 25.6328 22.0176 25.6328 22.0176C25.6328 22.0176 29.3318 22.0211 29.3353 22.0211C30.3215 22.0211 30.7216 23.3722 29.9284 23.9408C29.8983 23.9624 29.8737 23.9908 29.8568 24.0238C29.8399 24.0567 29.831 24.0932 29.831 24.1303C29.831 24.1674 29.8399 24.2039 29.8568 24.2368C29.8737 24.2698 29.8983 24.2982 29.9284 24.3198C30.0491 24.4138 30.1489 24.5319 30.2215 24.6666C30.294 24.8012 30.3378 24.9495 30.35 25.1019C30.3623 25.2544 30.3426 25.4078 30.2924 25.5523C30.2422 25.6967 30.1624 25.8292 30.0583 25.9412C30.0183 25.9799 29.9865 26.0263 29.9648 26.0775C29.9431 26.1288 29.9319 26.1839 29.9319 26.2395C29.9319 26.2952 29.9431 26.3503 29.9648 26.4015C29.9865 26.4528 30.0183 26.4991 30.0583 26.5378C30.2224 26.7105 30.3262 26.9318 30.354 27.1684C30.3819 27.405 30.3323 27.6443 30.2127 27.8504Z" fill="black"/>
</g>
<defs>
<clipPath id="clip0_51_1961">
<rect width="28" height="28" fill="white" transform="translate(10 10)"/>
</clipPath>
</defs>
</svg>
