<svg width="48" height="48" viewBox="0 0 48 48" fill="none" xmlns="http://www.w3.org/2000/svg">
<rect width="48" height="48" rx="10" fill="#6B66DA"/>
<g clip-path="url(#clip0_51_1960)">
<path d="M36.0702 19.8514C35.8637 19.1764 35.5922 18.5231 35.2594 17.9007C36.7455 15.3564 37.4957 14.9338 37.024 14.4478L33.552 10.9615C33.4757 10.8846 33.3751 10.8363 33.2674 10.825C33.1596 10.8137 33.0512 10.84 32.9606 10.8995L30.0848 12.7261C29.553 12.4462 28.6516 12.0861 28.1532 11.9297L27.4188 8.61505C27.3711 8.39567 27.1755 8.23828 26.9514 8.23828H22.0486C21.8245 8.23828 21.6337 8.39567 21.586 8.61505L20.8515 11.9297C20.4066 12.0694 19.4971 12.4199 18.9009 12.7261L16.0442 10.8995C15.8534 10.7755 15.6054 10.8041 15.448 10.9615L11.9617 14.4478C11.8043 14.6052 11.7757 14.8532 11.8997 15.044L13.7263 17.9007C13.3953 18.5284 13.1492 19.1655 12.9489 19.8323L9.61046 20.5858C9.39585 20.6335 9.23846 20.8291 9.23846 21.0484V25.9703C9.23846 26.1944 9.39585 26.39 9.61523 26.4377L12.9346 27.1531C13.1588 27.8494 13.4258 28.5027 13.7311 29.0989L11.8997 31.9795C11.7757 32.1655 11.8043 32.4135 11.9665 32.5709L15.4528 36.0238C15.6102 36.1812 15.8534 36.2051 16.0394 36.0858L18.9009 34.2735C19.5305 34.6026 20.1838 34.8744 20.8515 35.0747L21.586 38.3894C21.6337 38.6087 21.8245 38.7614 22.0486 38.7614H26.9514C27.1755 38.7614 27.3711 38.6087 27.4188 38.3894L28.1532 35.07C28.8066 34.8697 29.46 34.6026 30.0991 34.2735L32.9606 36.0858C33.1466 36.2051 33.3946 36.1812 33.552 36.0238L37.0192 32.5709C37.1814 32.4135 37.2052 32.1655 37.086 31.9795L35.2594 29.1037C35.5932 28.4741 35.8651 27.8207 36.0702 27.1531L39.3848 26.4377C39.6042 26.39 39.7615 26.1944 39.7615 25.9703V21.0484C39.7615 20.3784 38.9598 20.6168 36.0702 19.8514ZM31.3591 29.6874L30.2221 28.5509L29.5478 29.2253L30.6843 30.3618C29.1105 31.7836 27.0938 32.6179 24.9755 32.7235V31.1187H24.0216V32.723C21.9036 32.617 19.8874 31.7817 18.3148 30.3589L19.4494 29.2248L18.7745 28.5504L17.6409 29.6846C16.2197 28.1115 15.3861 26.0955 15.2811 23.9782H16.8812V23.0243H15.2811C15.3878 20.9077 16.222 18.8928 17.6428 17.3203L18.7741 18.4516L19.4494 17.7767L18.3172 16.645C19.889 15.2225 21.9044 14.3873 24.0216 14.2809V15.8829H24.9755V14.2804C27.0932 14.3862 29.1092 15.2205 30.6824 16.6421L29.5478 17.7772L30.2221 18.4516L31.3572 17.3165C32.7805 18.8892 33.6164 20.9055 33.7232 23.0239H32.1165V23.9777H33.7237C33.6183 26.0967 32.7828 28.1144 31.3591 29.6874Z" fill="white"/>
<path d="M25.4832 21.2104H23.5183C23.256 21.2104 23.0414 21.4202 23.0414 21.6873V27.2673C23.0414 27.5296 23.256 27.7442 23.5183 27.7442H25.4832C25.7503 27.7442 25.9601 27.5296 25.9601 27.2673V21.6873C25.9601 21.4202 25.7503 21.2104 25.4832 21.2104ZM21.9301 22.6555H19.9652C19.7029 22.6555 19.4883 22.8653 19.4883 23.1324V27.2673C19.4883 27.5296 19.7029 27.7442 19.9652 27.7442H21.9301C22.1924 27.7442 22.4071 27.5296 22.4071 27.2673V23.1324C22.4071 22.8653 22.1924 22.6555 21.9301 22.6555ZM29.0411 19.2598H27.0714C26.8091 19.2598 26.5944 19.4696 26.5944 19.7367V27.2673C26.5944 27.5296 26.8091 27.7442 27.0714 27.7442H29.0411C29.3034 27.7442 29.518 27.5296 29.518 27.2673V19.7367C29.518 19.4696 29.3034 19.2598 29.0411 19.2598Z" fill="white"/>
</g>
<defs>
<clipPath id="clip0_51_1960">
<rect width="31" height="31" fill="white" transform="translate(9 8)"/>
</clipPath>
</defs>
</svg>
