<svg width="85" height="13" viewBox="0 0 85 13" fill="none" xmlns="http://www.w3.org/2000/svg">
<path d="M0.686876 12.4766V0.95575H2.77295V6.0129L2.50429 5.74424H8.98376L8.7151 6.0129V0.95575H10.8012V12.4766H8.7151V7.26138L8.98376 7.53004H2.50429L2.77295 7.26138V12.4766H0.686876ZM16.8167 12.6188C16.1845 12.6188 15.6156 12.524 15.1099 12.3343C14.6042 12.1342 14.1617 11.8444 13.7824 11.4651C13.4136 11.0858 13.1292 10.6275 12.929 10.0902C12.7393 9.5529 12.6445 8.9471 12.6445 8.27281C12.6445 7.40888 12.8078 6.65031 13.1344 5.99709C13.4716 5.34388 13.9509 4.8329 14.5725 4.46415C15.1942 4.09539 15.9422 3.91102 16.8167 3.91102C17.4383 3.91102 18.0019 4.01111 18.5076 4.21129C19.0134 4.41147 19.4453 4.7012 19.8035 5.08049C20.1723 5.45977 20.4567 5.91808 20.6569 6.4554C20.8571 6.98218 20.9572 7.58799 20.9572 8.27281C20.9572 9.1262 20.7886 9.87951 20.4515 10.5327C20.1249 11.1859 19.6508 11.6969 19.0292 12.0657C18.4181 12.4344 17.6806 12.6188 16.8167 12.6188ZM16.8009 10.991C17.2328 10.991 17.6121 10.8909 17.9387 10.6908C18.2653 10.48 18.5182 10.1745 18.6973 9.77415C18.8764 9.36326 18.9659 8.86281 18.9659 8.27281C18.9659 7.83031 18.9133 7.44049 18.8079 7.10334C18.7131 6.75567 18.5709 6.46593 18.3812 6.23415C18.1916 6.00236 17.965 5.82852 17.7017 5.71263C17.4383 5.59674 17.1433 5.53879 16.8167 5.53879C16.3847 5.53879 16.0001 5.64415 15.663 5.85486C15.3364 6.05504 15.0835 6.36058 14.9044 6.77147C14.7253 7.17183 14.6358 7.67227 14.6358 8.27281C14.6358 8.71531 14.6832 9.1104 14.778 9.45808C14.8834 9.79522 15.0309 10.0797 15.2205 10.3115C15.4101 10.5327 15.6367 10.7013 15.9 10.8172C16.174 10.9331 16.4742 10.991 16.8009 10.991ZM25.6153 12.6346C24.8673 12.6346 24.2246 12.5187 23.6873 12.2869C23.1499 12.0446 22.7338 11.7127 22.4388 11.2913C22.1543 10.8699 22.0121 10.38 22.0121 9.82156H23.9559C23.9665 10.3062 24.1298 10.6592 24.4458 10.8804C24.7619 11.1017 25.1728 11.2123 25.6785 11.2123C26.1737 11.2123 26.5477 11.1227 26.8006 10.9436C27.064 10.754 27.1957 10.4958 27.1957 10.1692C27.1957 9.90585 27.1377 9.70567 27.0218 9.5687C26.9059 9.4212 26.7163 9.31058 26.4529 9.23683C26.1895 9.15254 25.8418 9.07879 25.4099 9.01558C24.704 8.91022 24.114 8.76799 23.6399 8.58888C23.1657 8.39924 22.8128 8.14111 22.581 7.81451C22.3492 7.4879 22.2333 7.05593 22.2333 6.51861C22.2333 5.99183 22.3756 5.53352 22.66 5.1437C22.9445 4.75388 23.3449 4.45361 23.8611 4.2429C24.3774 4.02164 24.9832 3.91102 25.6785 3.91102C26.3528 3.91102 26.9375 4.02164 27.4327 4.2429C27.9384 4.45361 28.3282 4.75915 28.6022 5.1595C28.8866 5.54932 29.0341 6.01816 29.0447 6.56602H27.1008C27.1008 6.27102 27.0376 6.03397 26.9112 5.85486C26.7953 5.66522 26.6267 5.52825 26.4055 5.44397C26.1842 5.35968 25.9261 5.31754 25.6311 5.31754C25.1886 5.31754 24.8409 5.41236 24.5881 5.602C24.3352 5.78111 24.2088 6.0287 24.2088 6.34477C24.2088 6.57656 24.272 6.7662 24.3984 6.9137C24.5354 7.05067 24.7514 7.16129 25.0464 7.24558C25.3414 7.32986 25.7207 7.40361 26.1842 7.46683C26.6899 7.54058 27.1272 7.6354 27.4959 7.75129C27.8752 7.86718 28.1913 8.02522 28.4441 8.2254C28.697 8.41504 28.8866 8.65736 29.0131 8.95236C29.15 9.23683 29.2185 9.58451 29.2185 9.9954C29.2185 10.8383 28.8866 11.4915 28.2229 11.955C27.5697 12.4081 26.7005 12.6346 25.6153 12.6346ZM33.4292 12.4766C32.9129 12.4766 32.5073 12.4028 32.2123 12.2553C31.9278 12.0973 31.7277 11.876 31.6118 11.5916C31.4959 11.3071 31.4379 10.9647 31.4379 10.5643V5.66522H29.8892V4.06906H31.4379V1.69852L33.3976 1.49307V4.06906H35.1834V5.66522H33.3976V10.2008C33.3976 10.4642 33.4555 10.6433 33.5714 10.7382C33.6873 10.8225 33.8664 10.8646 34.1087 10.8646H35.1834V12.4766H33.4292ZM39.346 12.6188C38.8403 12.6188 38.3767 12.5292 37.9553 12.3501C37.5444 12.1605 37.1862 11.8813 36.8807 11.5125C36.5857 11.1438 36.3591 10.6908 36.2011 10.1534C36.0431 9.60558 35.9641 8.9787 35.9641 8.27281C35.9641 7.31406 36.101 6.51334 36.3749 5.87066C36.6594 5.21745 37.0545 4.72754 37.5602 4.40093C38.0765 4.07432 38.6717 3.91102 39.346 3.91102C39.8096 3.91102 40.2205 3.98477 40.5787 4.13227C40.9474 4.26923 41.2635 4.46415 41.5269 4.717C41.7903 4.96986 41.9905 5.27013 42.1275 5.61781H42.2381L42.3171 4.06906H44.2135V12.4766H42.2381V10.912H42.1275C41.9273 11.4283 41.5849 11.8444 41.1002 12.1605C40.6156 12.466 40.0308 12.6188 39.346 12.6188ZM40.0888 11.0068C40.5629 11.0068 40.9527 10.8962 41.2583 10.675C41.5743 10.4537 41.8114 10.1692 41.9694 9.82156C42.1275 9.46335 42.2065 9.08933 42.2065 8.69951V7.83031C42.2065 7.42995 42.1275 7.05593 41.9694 6.70825C41.8114 6.35004 41.5743 6.06558 41.2583 5.85486C40.9527 5.63361 40.5629 5.52299 40.0888 5.52299C39.6674 5.52299 39.2986 5.62307 38.9825 5.82325C38.6665 6.02343 38.4189 6.32897 38.2398 6.73986C38.0607 7.14022 37.9711 7.6512 37.9711 8.27281C37.9711 8.87335 38.0607 9.37906 38.2398 9.78995C38.4189 10.2008 38.6665 10.5064 38.9825 10.7066C39.2986 10.9067 39.6674 11.0068 40.0888 11.0068ZM49.0998 12.6188C48.5941 12.6188 48.1305 12.5292 47.7091 12.3501C47.2982 12.1605 46.94 11.8813 46.6344 11.5125C46.3394 11.1438 46.1129 10.6908 45.9549 10.1534C45.7968 9.60558 45.7178 8.9787 45.7178 8.27281C45.7178 7.31406 45.8548 6.51334 46.1287 5.87066C46.4132 5.21745 46.8083 4.72754 47.314 4.40093C47.8302 4.07432 48.4255 3.91102 49.0998 3.91102C49.5634 3.91102 49.9743 3.98477 50.3325 4.13227C50.7012 4.26923 51.0173 4.46415 51.2807 4.717C51.5441 4.96986 51.7443 5.27013 51.8812 5.61781H51.9918V0.95575H53.9673L53.9515 12.4766H52.0551L51.9918 10.912H51.8812C51.681 11.4283 51.3386 11.8444 50.854 12.1605C50.3693 12.466 49.7846 12.6188 49.0998 12.6188ZM49.8426 11.0068C50.3167 11.0068 50.7065 10.8962 51.012 10.675C51.3281 10.4537 51.5652 10.1692 51.7232 9.82156C51.8812 9.46335 51.9602 9.08933 51.9602 8.69951V7.83031C51.9602 7.52477 51.9128 7.23504 51.818 6.96111C51.7337 6.68718 51.602 6.44486 51.4229 6.23415C51.2543 6.0129 51.0331 5.83906 50.7592 5.71263C50.4958 5.5862 50.1902 5.52299 49.8426 5.52299C49.4211 5.52299 49.0524 5.62307 48.7363 5.82325C48.4202 6.02343 48.1726 6.32897 47.9935 6.73986C47.8144 7.14022 47.7249 7.6512 47.7249 8.27281C47.7249 8.87335 47.8144 9.37906 47.9935 9.78995C48.1726 10.2008 48.4202 10.5064 48.7363 10.7066C49.0524 10.9067 49.4211 11.0068 49.8426 11.0068ZM57.9347 12.4766L54.9953 4.05325H57.1288L58.5985 8.88915L59.12 10.8172H59.1832L59.7047 8.90495L61.1745 4.05325H63.308L60.3843 12.4766H57.9347ZM64.3425 12.4766V4.06906H66.3179V12.4766H64.3425ZM64.3425 2.88379V0.95575H66.3179V2.88379H64.3425ZM72.0509 12.6188C71.4293 12.6188 70.8657 12.5187 70.3599 12.3185C69.8542 12.1078 69.417 11.8128 69.0482 11.4335C68.6795 11.0437 68.4003 10.5854 68.2106 10.0586C68.021 9.52129 67.9262 8.92602 67.9262 8.27281C67.9262 7.38781 68.0948 6.62397 68.4319 5.98129C68.7796 5.32807 69.2642 4.82236 69.8858 4.46415C70.518 4.09539 71.2607 3.91102 72.1141 3.91102C72.82 3.91102 73.4469 4.04272 73.9948 4.30611C74.5426 4.5695 74.9799 4.93825 75.3065 5.41236C75.6436 5.87593 75.828 6.41852 75.8596 7.04013H73.9315C73.8789 6.71352 73.763 6.43959 73.5839 6.21834C73.4153 5.99709 73.1993 5.82852 72.9359 5.71263C72.6725 5.59674 72.3828 5.53879 72.0667 5.53879C71.6137 5.53879 71.2239 5.65468 70.8973 5.88647C70.5707 6.10772 70.3231 6.42379 70.1545 6.83468C69.9965 7.24558 69.9174 7.72495 69.9174 8.27281C69.9174 8.87335 70.007 9.37379 70.1861 9.77415C70.3652 10.1745 70.6128 10.48 70.9289 10.6908C71.2555 10.8909 71.6295 10.991 72.0509 10.991C72.4197 10.991 72.741 10.9278 73.0149 10.8014C73.2889 10.6644 73.5048 10.48 73.6629 10.2483C73.8315 10.0059 73.9315 9.73201 73.9632 9.42647H75.8912C75.849 10.0691 75.6594 10.6328 75.3223 11.1175C74.9851 11.5916 74.5374 11.9603 73.979 12.2237C73.4206 12.4871 72.7779 12.6188 72.0509 12.6188ZM80.9224 12.6188C80.069 12.6188 79.3421 12.445 78.7415 12.0973C78.1515 11.7391 77.6985 11.2386 77.3824 10.5959C77.0663 9.94272 76.9083 9.18415 76.9083 8.32022C76.9083 7.42468 77.0663 6.65031 77.3824 5.99709C77.6985 5.33334 78.1515 4.82236 78.7415 4.46415C79.3315 4.10593 80.0321 3.92682 80.8434 3.92682C81.7705 3.92682 82.5291 4.13227 83.1191 4.54316C83.7196 4.94352 84.1516 5.50191 84.415 6.21834C84.6784 6.93477 84.768 7.75656 84.6837 8.6837H78.8363C78.8363 9.22102 78.9206 9.67406 79.0892 10.0428C79.2683 10.401 79.5106 10.675 79.8162 10.8646C80.1322 11.0437 80.501 11.1333 80.9224 11.1333C81.4176 11.1333 81.8285 11.0174 82.1551 10.7856C82.4817 10.5433 82.6924 10.2325 82.7872 9.85317H84.6363C84.573 10.4221 84.3729 10.9173 84.0357 11.3387C83.6986 11.7496 83.2613 12.0657 82.724 12.2869C82.1867 12.5082 81.5862 12.6188 80.9224 12.6188ZM78.8363 7.62486L78.6625 7.41942H82.9453L82.7556 7.64067C82.7767 7.12442 82.7082 6.70299 82.5502 6.37638C82.3921 6.04977 82.1656 5.80745 81.8706 5.64941C81.5756 5.49138 81.2332 5.41236 80.8434 5.41236C80.443 5.41236 80.0954 5.49665 79.8004 5.66522C79.5054 5.83379 79.2736 6.08665 79.105 6.42379C78.9364 6.7504 78.8469 7.15075 78.8363 7.62486Z" fill="#454545"/>
</svg>
