<svg width="162" height="101" viewBox="0 0 162 101" fill="none" xmlns="http://www.w3.org/2000/svg">
<rect x="0.5" y="0.5" width="161" height="100" rx="20.5" fill="white" stroke="#F0F0F0"/>
<g clip-path="url(#clip0_20_1943)">
<path d="M105.776 45.1435C106.436 43.1568 106.664 41.0523 106.445 38.9704C106.227 36.8886 105.566 34.8774 104.508 33.0711C102.94 30.3409 100.545 28.1794 97.6685 26.8981C94.7924 25.6168 91.5836 25.282 88.5049 25.9419C86.7558 23.9963 84.5256 22.5452 82.0381 21.7343C79.5507 20.9234 76.8937 20.7812 74.334 21.3222C71.7743 21.8631 69.402 23.068 67.4553 24.816C65.5087 26.5639 64.0562 28.7933 63.2438 31.2802C61.1927 31.7008 59.2551 32.5543 57.5603 33.7837C55.8655 35.0132 54.4526 36.5902 53.4161 38.4094C51.8306 41.135 51.1529 44.2942 51.4811 47.4303C51.8094 50.5664 53.1264 53.5169 55.2419 55.8552C54.5798 57.8408 54.3494 59.945 54.566 62.0269C54.7826 64.1088 55.4414 66.1205 56.4981 67.9273C58.0686 70.6585 60.4657 72.8205 63.3439 74.1018C66.2221 75.3831 69.4327 75.7174 72.5132 75.0567C73.9028 76.6216 75.6103 77.872 77.5216 78.7244C79.4329 79.5768 81.5041 80.0117 83.5968 79.9999C86.7524 80.0028 89.8273 79.0029 92.3777 77.1445C94.928 75.2862 96.8219 72.6654 97.7858 69.6607C99.8367 69.2394 101.774 68.3855 103.469 67.1561C105.163 65.9267 106.576 64.35 107.614 62.5313C109.18 59.8097 109.846 56.6623 109.516 53.5393C109.186 50.4163 107.877 47.4774 105.776 45.1435ZM83.5968 76.1384C81.0124 76.1425 78.5091 75.2367 76.5257 73.5797L76.8745 73.3821L88.6212 66.6015C88.9135 66.4301 89.1563 66.1855 89.3255 65.8919C89.4948 65.5982 89.5847 65.2656 89.5866 64.9267V48.3651L94.5524 51.2379C94.5769 51.2504 94.5982 51.2684 94.6144 51.2906C94.6307 51.3129 94.6414 51.3386 94.6458 51.3658V65.0896C94.6396 68.0181 93.4735 70.8248 91.4027 72.8955C89.332 74.9662 86.5253 76.1322 83.5968 76.1384ZM59.8476 65.9968C58.5515 63.7588 58.0861 61.1354 58.5334 58.5881L58.8825 58.7975L70.6407 65.5781C70.9316 65.7488 71.2628 65.8388 71.6002 65.8388C71.9375 65.8388 72.2687 65.7488 72.5597 65.5781L86.9232 57.2972V63.031C86.9219 63.0608 86.9138 63.0898 86.8997 63.116C86.8855 63.1421 86.8657 63.1648 86.8416 63.1822L74.9437 70.0442C72.4046 71.5069 69.3888 71.9023 66.5584 71.1434C63.728 70.3846 61.3145 68.5336 59.8476 65.9968ZM56.754 40.41C58.0591 38.1576 60.1191 36.4396 62.5692 35.5602V49.5166C62.5648 49.8538 62.651 50.186 62.8187 50.4785C62.9864 50.771 63.2296 51.0132 63.5228 51.1797L77.8166 59.4257L72.8505 62.2982C72.8236 62.3125 72.7936 62.3199 72.7632 62.3199C72.7328 62.3199 72.7028 62.3125 72.6759 62.2982L60.8014 55.4481C58.2671 53.979 56.4181 51.5655 55.6595 48.736C54.9009 45.9066 55.2945 42.8918 56.754 40.3519V40.41ZM97.5533 49.8888L83.2131 41.5614L88.1676 38.6999C88.1945 38.6857 88.2245 38.6782 88.2549 38.6782C88.2853 38.6782 88.3153 38.6857 88.3422 38.6999L100.217 45.5619C102.032 46.6095 103.512 48.152 104.484 50.0093C105.456 51.8665 105.879 53.962 105.705 56.0509C105.531 58.1398 104.766 60.136 103.499 61.8064C102.233 63.4768 100.518 64.7526 98.5536 65.4847V51.5283C98.5433 51.1917 98.4456 50.8635 98.2702 50.576C98.0948 50.2886 97.8479 50.0519 97.5533 49.8888ZM102.496 42.457L102.147 42.2476L90.4123 35.409C90.1196 35.2372 89.7863 35.1466 89.4469 35.1466C89.1075 35.1466 88.7743 35.2372 88.4815 35.409L74.13 43.6896V37.956C74.127 37.9269 74.1319 37.8975 74.1441 37.8708C74.1564 37.8442 74.1757 37.8214 74.1999 37.8049L86.0743 30.9545C87.8943 29.906 89.9751 29.3975 92.0735 29.4882C94.1718 29.579 96.201 30.2653 97.9236 31.467C99.6462 32.6687 100.991 34.336 101.801 36.2739C102.611 38.2118 102.852 40.3403 102.496 42.4103L102.496 42.457ZM71.4197 52.6215L66.4539 49.7605C66.429 49.7455 66.4078 49.7253 66.3917 49.7012C66.3755 49.6771 66.3649 49.6497 66.3605 49.6211V35.9323C66.3632 33.8324 66.9637 31.7766 68.0918 30.0053C69.2198 28.234 70.8288 26.8205 72.7306 25.93C74.6324 25.0394 76.7484 24.7087 78.8313 24.9765C80.9141 25.2442 82.8777 26.0994 84.4924 27.442L84.1433 27.6399L72.3969 34.42C72.1046 34.5914 71.8618 34.836 71.6926 35.1297C71.5233 35.4233 71.4334 35.7559 71.4315 36.0948L71.4197 52.6215ZM74.118 46.8065L80.5146 43.1195L86.9232 46.8065V54.1801L80.5379 57.8668L74.1298 54.1801L74.118 46.8065Z" fill="#034737"/>
</g>
<defs>
<clipPath id="clip0_20_1943">
<rect width="59" height="59" fill="white" transform="translate(51 21)"/>
</clipPath>
</defs>
</svg>
