<svg width="162" height="101" viewBox="0 0 162 101" fill="none" xmlns="http://www.w3.org/2000/svg">
<rect x="0.5" y="0.5" width="161" height="100" rx="20.5" fill="white" stroke="#F0F0F0"/>
<g clip-path="url(#clip0_20_1947)">
<path d="M107.183 21H95.5469V32.7862H107.183V21Z" fill="black"/>
<path d="M113 21H101.363V32.7862H113V21Z" fill="#F7D046"/>
<path d="M60.6364 21H49V32.7862H60.6364V21Z" fill="black"/>
<path d="M60.6364 32.7852H49V44.5713H60.6364V32.7852Z" fill="black"/>
<path d="M60.6364 44.5742H49V56.3604H60.6364V44.5742Z" fill="black"/>
<path d="M60.6364 56.3594H49V68.1456H60.6364V56.3594Z" fill="black"/>
<path d="M60.6364 68.1445H49V79.9307H60.6364V68.1445Z" fill="black"/>
<path d="M66.4545 21H54.8182V32.7862H66.4545V21Z" fill="#F7D046"/>
<path d="M113 32.7852H101.363V44.5713H113V32.7852Z" fill="#F2A73B"/>
<path d="M66.4545 32.7852H54.8181V44.5713H66.4545V32.7852Z" fill="#F2A73B"/>
<path d="M95.5446 32.7852H83.9082V44.5713H95.5446V32.7852Z" fill="black"/>
<path d="M101.363 32.7852H89.7266V44.5713H101.363V32.7852Z" fill="#F2A73B"/>
<path d="M78.0895 32.7852H66.4531V44.5713H78.0895V32.7852Z" fill="#F2A73B"/>
<path d="M89.7262 44.5742H78.0898V56.3604H89.7262V44.5742Z" fill="#EE792F"/>
<path d="M101.363 44.5742H89.7266V56.3604H101.363V44.5742Z" fill="#EE792F"/>
<path d="M78.0914 44.5742H66.4551V56.3604H78.0914V44.5742Z" fill="#EE792F"/>
<path d="M83.9098 56.3594H72.2734V68.1456H83.9098V56.3594Z" fill="black"/>
<path d="M89.7282 56.3594H78.0918V68.1456H89.7282V56.3594Z" fill="#EB5829"/>
<path d="M113 44.5742H101.363V56.3604H113V44.5742Z" fill="#EE792F"/>
<path d="M66.4547 44.5742H54.8184V56.3604H66.4547V44.5742Z" fill="#EE792F"/>
<path d="M107.183 56.3594H95.5469V68.1456H107.183V56.3594Z" fill="black"/>
<path d="M113 56.3594H101.363V68.1456H113V56.3594Z" fill="#EB5829"/>
<path d="M107.183 68.1445H95.5469V79.9307H107.183V68.1445Z" fill="black"/>
<path d="M66.4545 56.3594H54.8181V68.1456H66.4545V56.3594Z" fill="#EB5829"/>
<path d="M113 68.1445H101.363V79.9307H113V68.1445Z" fill="#EA3326"/>
<path d="M66.4545 68.1445H54.8182V79.9307H66.4545V68.1445Z" fill="#EA3326"/>
</g>
<defs>
<clipPath id="clip0_20_1947">
<rect width="64" height="59" fill="white" transform="translate(49 21)"/>
</clipPath>
</defs>
</svg>
