<svg width="64" height="13" viewBox="0 0 64 13" fill="none" xmlns="http://www.w3.org/2000/svg">
<path d="M5.42498 12.6232C4.37148 12.6232 3.48632 12.4603 2.76951 12.1344C2.06356 11.8086 1.53138 11.3525 1.17297 10.766C0.814562 10.1795 0.629928 9.51156 0.619067 8.76216H2.81838C2.82924 9.20746 2.92699 9.59301 3.11163 9.91884C3.30712 10.2447 3.60036 10.4999 3.99135 10.6845C4.38234 10.8692 4.88737 10.9615 5.50644 10.9615C6.24497 10.9615 6.83689 10.8257 7.28218 10.5542C7.72747 10.2718 7.95012 9.8591 7.95012 9.31606C7.95012 9.0011 7.90125 8.74044 7.8035 8.53408C7.70575 8.31687 7.54284 8.13766 7.31476 7.99647C7.08669 7.85528 6.78258 7.73581 6.40245 7.63807C6.03319 7.54032 5.56617 7.44257 5.00141 7.34482C4.32804 7.23622 3.73069 7.09503 3.20937 6.92125C2.69891 6.73662 2.26991 6.51397 1.92237 6.25331C1.57482 5.99265 1.31416 5.67769 1.14039 5.30842C0.966613 4.92829 0.879727 4.47757 0.879727 3.95625C0.879727 3.23943 1.05893 2.62037 1.41734 2.09905C1.78661 1.57773 2.30792 1.17588 2.9813 0.893497C3.65467 0.600254 4.45837 0.453633 5.3924 0.453633C6.31557 0.453633 7.10298 0.600254 7.75463 0.893497C8.41714 1.18674 8.92759 1.59945 9.286 2.13163C9.64441 2.65295 9.82361 3.26116 9.82361 3.95625H7.65688C7.63516 3.53268 7.52112 3.18513 7.31476 2.91361C7.10841 2.63123 6.83146 2.42487 6.48391 2.29454C6.14722 2.16421 5.75624 2.09905 5.31094 2.09905C4.85479 2.09905 4.45837 2.16421 4.12168 2.29454C3.79586 2.42487 3.54606 2.60951 3.37229 2.84844C3.19851 3.07652 3.11163 3.35347 3.11163 3.6793C3.11163 4.08115 3.20937 4.39068 3.40487 4.6079C3.61122 4.81425 3.93705 4.97717 4.38234 5.09663C4.8385 5.2161 5.42498 5.33557 6.14179 5.45504C6.65225 5.54193 7.14642 5.65054 7.6243 5.78087C8.11303 5.9112 8.54747 6.10669 8.9276 6.36735C9.31858 6.61715 9.62812 6.9647 9.8562 7.40999C10.0843 7.84442 10.1983 8.40918 10.1983 9.10428C10.1983 9.79937 10.0191 10.413 9.6607 10.9452C9.30229 11.4774 8.77011 11.8901 8.06416 12.1833C7.35821 12.4766 6.47848 12.6232 5.42498 12.6232ZM15.558 12.6232C14.6783 12.6232 13.9289 12.444 13.3098 12.0856C12.7016 11.7163 12.2346 11.2004 11.9088 10.5379C11.5829 9.86453 11.42 9.08256 11.42 8.19197C11.42 7.2688 11.5829 6.47053 11.9088 5.79716C12.2346 5.11293 12.7016 4.58618 13.3098 4.21691C13.918 3.84764 14.6403 3.66301 15.4765 3.66301C16.4323 3.66301 17.2143 3.87479 17.8225 4.29836C18.4415 4.71108 18.8868 5.2867 19.1584 6.02523C19.4299 6.76377 19.5222 7.61091 19.4353 8.56667H13.4076C13.4076 9.12057 13.4944 9.58758 13.6682 9.96771C13.8529 10.337 14.1026 10.6194 14.4176 10.8149C14.7434 10.9995 15.1236 11.0918 15.558 11.0918C16.0685 11.0918 16.492 10.9723 16.8287 10.7334C17.1654 10.4836 17.3826 10.1632 17.4804 9.77222H19.3864C19.3213 10.3587 19.1149 10.8692 18.7674 11.3036C18.4198 11.7272 17.9691 12.053 17.4152 12.2811C16.8613 12.5091 16.2422 12.6232 15.558 12.6232ZM13.4076 7.47515L13.2284 7.26337H17.6433L17.4478 7.49145C17.4695 6.95927 17.3989 6.52483 17.236 6.18815C17.0731 5.85146 16.8396 5.60166 16.5355 5.43875C16.2314 5.27584 15.8784 5.19438 15.4765 5.19438C15.0638 5.19438 14.7054 5.28127 14.4013 5.45504C14.0972 5.62881 13.8583 5.88947 13.6845 6.23702C13.5107 6.57371 13.4184 6.98642 13.4076 7.47515ZM21.0896 12.4766V3.80963H22.9305L23.0283 5.25955H23.0935C23.289 4.70564 23.6039 4.30922 24.0383 4.07029C24.4836 3.82049 24.9887 3.69559 25.5534 3.69559C25.6512 3.69559 25.7381 3.69559 25.8141 3.69559C25.901 3.69559 25.9824 3.69559 26.0585 3.69559V5.61795C25.9933 5.61795 25.9118 5.61795 25.8141 5.61795C25.7272 5.60709 25.6295 5.60166 25.5209 5.60166C24.9995 5.60166 24.5651 5.68855 24.2176 5.86232C23.87 6.02523 23.6039 6.26417 23.4193 6.57914C23.2455 6.8941 23.1478 7.27966 23.126 7.73581V12.4766H21.0896ZM30.8814 12.6232C30.2406 12.6232 29.6596 12.52 29.1383 12.3137C28.6169 12.0964 28.1662 11.7923 27.7861 11.4013C27.406 10.9995 27.1182 10.527 26.9227 9.984C26.7272 9.4301 26.6294 8.81647 26.6294 8.14309C26.6294 7.23079 26.8032 6.44338 27.1507 5.78087C27.5091 5.1075 28.0087 4.58618 28.6495 4.21691C29.3012 3.83678 30.0669 3.64671 30.9466 3.64671C31.6743 3.64671 32.3205 3.78247 32.8853 4.054C33.45 4.32552 33.9007 4.70564 34.2374 5.19438C34.585 5.67226 34.775 6.23159 34.8076 6.87238H32.8201C32.7658 6.53569 32.6463 6.25331 32.4617 6.02523C32.2879 5.79716 32.0653 5.62338 31.7937 5.50392C31.5222 5.38445 31.2235 5.32471 30.8977 5.32471C30.4307 5.32471 30.0289 5.44418 29.6922 5.68312C29.3555 5.9112 29.1003 6.23702 28.9265 6.66059C28.7636 7.08416 28.6821 7.57833 28.6821 8.14309C28.6821 8.76216 28.7744 9.27805 28.9591 9.69076C29.1437 10.1035 29.3989 10.4184 29.7248 10.6357C30.0614 10.842 30.447 10.9452 30.8814 10.9452C31.2616 10.9452 31.5928 10.88 31.8752 10.7497C32.1576 10.6085 32.3802 10.4184 32.5431 10.1795C32.7169 9.9297 32.8201 9.64732 32.8527 9.33235H34.8402C34.7968 9.99486 34.6013 10.5759 34.2537 11.0755C33.9062 11.5643 33.4446 11.9444 32.869 12.2159C32.2933 12.4874 31.6308 12.6232 30.8814 12.6232ZM36.4263 12.4766V0.600254H38.4627V5.45504H38.5605C38.8103 4.84684 39.1904 4.39611 39.7008 4.10287C40.2113 3.79877 40.7815 3.64671 41.4114 3.64671C41.8459 3.64671 42.2477 3.71731 42.617 3.8585C42.9971 3.98883 43.3229 4.20062 43.5944 4.49386C43.8768 4.77624 44.094 5.15094 44.2461 5.61795C44.409 6.07411 44.4905 6.62801 44.4905 7.27966V12.4766H42.4541V7.71952C42.4541 7.17648 42.3889 6.73119 42.2586 6.38364C42.1282 6.02523 41.9273 5.75914 41.6558 5.58537C41.3951 5.4116 41.053 5.32471 40.6294 5.32471C40.1733 5.32471 39.7823 5.43332 39.4565 5.65054C39.1415 5.86775 38.8971 6.15556 38.7234 6.51397C38.5496 6.87238 38.4627 7.2688 38.4627 7.70323V12.4766H36.4263ZM50.1928 12.6232C49.313 12.6232 48.5637 12.444 47.9446 12.0856C47.3364 11.7163 46.8694 11.2004 46.5435 10.5379C46.2177 9.86453 46.0548 9.08256 46.0548 8.19197C46.0548 7.2688 46.2177 6.47053 46.5435 5.79716C46.8694 5.11293 47.3364 4.58618 47.9446 4.21691C48.5528 3.84764 49.275 3.66301 50.1113 3.66301C51.0671 3.66301 51.8491 3.87479 52.4573 4.29836C53.0763 4.71108 53.5216 5.2867 53.7931 6.02523C54.0647 6.76377 54.157 7.61091 54.0701 8.56667H48.0423C48.0423 9.12057 48.1292 9.58758 48.303 9.96771C48.4876 10.337 48.7374 10.6194 49.0524 10.8149C49.3782 10.9995 49.7583 11.0918 50.1928 11.0918C50.7032 11.0918 51.1268 10.9723 51.4635 10.7334C51.8002 10.4836 52.0174 10.1632 52.1151 9.77222H54.0212C53.956 10.3587 53.7497 10.8692 53.4021 11.3036C53.0546 11.7272 52.6039 12.053 52.05 12.2811C51.4961 12.5091 50.877 12.6232 50.1928 12.6232ZM48.0423 7.47515L47.8631 7.26337H52.2781L52.0826 7.49145C52.1043 6.95927 52.0337 6.52483 51.8708 6.18815C51.7079 5.85146 51.4744 5.60166 51.1702 5.43875C50.8661 5.27584 50.5132 5.19438 50.1113 5.19438C49.6986 5.19438 49.3402 5.28127 49.0361 5.45504C48.732 5.62881 48.4931 5.88947 48.3193 6.23702C48.1455 6.57371 48.0532 6.98642 48.0423 7.47515ZM55.7244 12.4766V3.80963H57.6794L57.7608 5.45504H57.8586C58.1084 4.84684 58.4885 4.39611 58.999 4.10287C59.5094 3.79877 60.0796 3.64671 60.7095 3.64671C61.144 3.64671 61.5458 3.71731 61.9151 3.8585C62.2952 3.98883 62.621 4.20062 62.8926 4.49386C63.1749 4.77624 63.3922 5.15094 63.5442 5.61795C63.7071 6.07411 63.7886 6.62801 63.7886 7.27966V12.4766H61.7522V7.71952C61.7522 7.17648 61.687 6.73119 61.5567 6.38364C61.4263 6.02523 61.2254 5.75914 60.9539 5.58537C60.6932 5.4116 60.3511 5.32471 59.9276 5.32471C59.4714 5.32471 59.0804 5.43332 58.7546 5.65054C58.4396 5.86775 58.1952 6.15556 58.0215 6.51397C57.8477 6.87238 57.7608 7.2688 57.7608 7.70323V12.4766H55.7244Z" fill="#454545"/>
</svg>
