<svg width="109" height="20" viewBox="0 0 109 20" fill="none" xmlns="http://www.w3.org/2000/svg">
<g clip-path="url(#clip0_1_1408)">
<mask id="mask0_1_1408" style="mask-type:luminance" maskUnits="userSpaceOnUse" x="0" y="0" width="21" height="20">
<path d="M20.3595 7.73272L12.9723 7.25502L10.1824 0.257812L7.39256 7.25502L0.021637 7.73272L5.67738 12.5477L3.82108 19.8435L10.1824 15.8156L16.5438 19.8435L14.6875 12.5477L20.3595 7.73272Z" fill="white"/>
</mask>
<g mask="url(#mask0_1_1408)">
<path d="M99.8927 0.257812H0.021637V19.8435H99.8927V0.257812Z" fill="#73CF11"/>
</g>
<mask id="mask1_1_1408" style="mask-type:luminance" maskUnits="userSpaceOnUse" x="22" y="0" width="21" height="20">
<path d="M42.4084 7.73272L35.0212 7.25502L32.2313 0.257812L29.4468 7.25502L22.0705 7.73272L27.7262 12.5477L25.8699 19.8435L32.2313 15.8156L38.5981 19.8435L36.7363 12.5477L42.4084 7.73272Z" fill="white"/>
</mask>
<g mask="url(#mask1_1_1408)">
<path d="M99.8888 0.257812H0.0177612V19.8435H99.8888V0.257812Z" fill="#73CF11"/>
</g>
<mask id="mask2_1_1408" style="mask-type:luminance" maskUnits="userSpaceOnUse" x="44" y="0" width="21" height="20">
<path d="M64.4732 7.73272L57.086 7.25502L54.3015 0.257812L51.5117 7.25502L44.1407 7.73272L49.7965 12.5477L47.9348 19.8435L54.3015 15.8156L60.6629 19.8435L58.8012 12.5477L64.4732 7.73272Z" fill="white"/>
</mask>
<g mask="url(#mask2_1_1408)">
<path d="M99.8987 0.257812H0.0275879V19.8435H99.8987V0.257812Z" fill="#73CF11"/>
</g>
<mask id="mask3_1_1408" style="mask-type:luminance" maskUnits="userSpaceOnUse" x="66" y="0" width="21" height="20">
<path d="M86.5294 7.73272L79.1422 7.25502L76.3524 0.257812L73.5625 7.25502L66.1916 7.73272L71.8473 12.5477L69.9856 19.8435L76.3524 15.8156L82.7137 19.8435L80.8574 12.5477L86.5294 7.73272Z" fill="white"/>
</mask>
<g mask="url(#mask3_1_1408)">
<path d="M99.8966 0.257812H0.0255432V19.8435H99.8966V0.257812Z" fill="#73CF11"/>
</g>
<mask id="mask4_1_1408" style="mask-type:luminance" maskUnits="userSpaceOnUse" x="88" y="0" width="21" height="20">
<path d="M108.58 7.73272L101.193 7.25502L98.403 0.257812L95.6131 7.25502L88.2422 7.73272L93.8979 12.5477L92.0416 19.8435L98.403 15.8156L104.764 19.8435L102.908 12.5477L108.58 7.73272Z" fill="white"/>
</mask>
<g mask="url(#mask4_1_1408)">
<path d="M99.8966 0.257812H0.0254822V19.8435H99.8966V0.257812Z" fill="#73CF11"/>
</g>
<path d="M10.1842 1.72348L12.4693 7.45588L12.5942 7.77615L12.9361 7.79786L18.9827 8.18871L14.3365 12.1352L14.076 12.3523L14.1574 12.6834L15.6771 18.6547L10.4665 15.3542L10.1788 15.1696L9.89114 15.3542L4.68047 18.6547L6.20025 12.6834L6.28166 12.3577L6.02656 12.1406L1.39124 8.19414L7.42692 7.80329L7.76887 7.78158L7.89371 7.4613L10.1842 1.72348ZM10.1842 0.257812L7.39436 7.25502L0.0234375 7.73272L5.67918 12.5477L3.82288 19.8435L10.1842 15.8156L16.5456 19.8435L14.6893 12.5477L20.3613 7.73272L12.9741 7.25502L10.1842 0.257812Z" fill="#73CF11"/>
<path d="M32.235 1.72348L34.5201 7.45588L34.6449 7.77615L34.9869 7.79786L41.0334 8.18871L36.3873 12.1352L36.1267 12.3523L36.2081 12.6834L37.7279 18.6547L32.5173 15.3542L32.2296 15.1696L31.9419 15.3542L26.7312 18.6547L28.251 12.6834L28.3324 12.3577L28.0773 12.1406L23.442 8.19414L29.4777 7.80329L29.8197 7.78158L29.9445 7.4613L32.235 1.72348ZM32.235 0.257812L29.4451 7.25502L22.0742 7.73272L27.73 12.5477L25.8737 19.8435L32.235 15.8156L38.5964 19.8435L36.7401 12.5477L42.4121 7.73272L35.0249 7.25502L32.235 0.257812Z" fill="#73CF11"/>
<path d="M54.2956 1.72348L56.5807 7.45588L56.7055 7.77615L57.0474 7.79786L63.094 8.18871L58.4478 12.1352L58.1873 12.3523L58.2687 12.6834L59.7885 18.6547L54.5778 15.3542L54.2901 15.1696L54.0025 15.3542L48.7918 18.6547L50.3116 12.6834L50.393 12.3577L50.1379 12.1406L45.5026 8.19414L51.5383 7.80329L51.8802 7.78158L52.005 7.4613L54.2956 1.72348ZM54.2956 0.257812L51.5057 7.25502L44.1348 7.73272L49.7905 12.5477L47.9342 19.8435L54.2956 15.8156L60.6569 19.8435L58.8006 12.5477L64.4726 7.73272L57.0854 7.25502L54.2956 0.257812Z" fill="#73CF11"/>
<path d="M76.3502 1.72348L78.6353 7.45588L78.7602 7.77615L79.1021 7.79786L85.1487 8.18871L80.5025 12.1352L80.242 12.3523L80.3234 12.6834L81.8432 18.6547L76.6325 15.3542L76.3448 15.1696L76.0572 15.3542L70.8465 18.6547L72.3663 12.6834L72.4477 12.3577L72.1926 12.1406L67.5573 8.19414L73.5929 7.80329L73.9349 7.78158L74.0597 7.4613L76.3502 1.72348ZM76.3502 0.257812L73.5604 7.25502L66.1895 7.73272L71.8452 12.5477L69.9889 19.8435L76.3502 15.8156L82.7116 19.8435L80.8553 12.5477L86.5273 7.73272L79.1401 7.25502L76.3502 0.257812Z" fill="#73CF11"/>
<path d="M98.4008 1.72348L100.686 7.45588L100.811 7.77615L101.153 7.79786L107.199 8.18871L102.553 12.1352L102.293 12.3523L102.374 12.6834L103.894 18.6547L98.6831 15.3542L98.3954 15.1696L98.1078 15.3542L92.8971 18.6547L94.4169 12.6834L94.4983 12.3577L94.2432 12.1406L89.6079 8.19414L95.6435 7.80329L95.9855 7.78158L96.1103 7.4613L98.4008 1.72348ZM98.4008 0.257812L95.611 7.25502L88.2401 7.73272L93.8958 12.5477L92.0395 19.8435L98.4008 15.8156L104.762 19.8435L102.906 12.5477L108.578 7.73272L101.191 7.25502L98.4008 0.257812Z" fill="#73CF11"/>
</g>
<defs>
<clipPath id="clip0_1_1408">
<rect width="108.608" height="19.5857" fill="white" transform="translate(0 0.257812)"/>
</clipPath>
</defs>
</svg>
