<svg width="120" height="24" viewBox="0 0 120 24" fill="none" xmlns="http://www.w3.org/2000/svg">
<path d="M119.07 0.488281H0V23.2675H119.07V0.488281Z" fill="#00B67A"/>
<path d="M11.3894 15.8405L14.8541 14.9626L16.3016 19.4235L11.3894 15.8405ZM19.3628 10.0745H13.2641L11.3894 4.33228L9.51472 10.0745H3.41602L8.35194 13.6338L6.47724 19.376L11.4132 15.8168L14.4506 13.6338L19.3628 10.0745Z" fill="white"/>
<path d="M25.514 0.488281H23.084V23.2675H25.514V0.488281Z" fill="white"/>
<path d="M36.0691 15.8405L39.5337 14.9626L40.9812 19.4235L36.0691 15.8405ZM44.0425 10.0745H37.9437L36.0691 4.33228L34.1944 10.0745H28.0956L33.0316 13.6338L31.1569 19.376L36.0928 15.8168L39.1303 13.6338L44.0425 10.0745Z" fill="white"/>
<path d="M49.8128 0.488281H47.3828V23.2675H49.8128V0.488281Z" fill="white"/>
<path d="M60.7486 15.8405L64.2133 14.9626L65.6608 19.4235L60.7486 15.8405ZM68.722 10.0745H62.6233L60.7486 4.33228L58.8739 10.0745H52.7752L57.7111 13.6338L55.8364 19.376L60.7723 15.8168L63.8098 13.6338L68.722 10.0745Z" fill="white"/>
<path d="M74.1136 0.488281H71.6836V23.2675H74.1136V0.488281Z" fill="white"/>
<path d="M85.4285 15.8403L88.8931 14.9623L90.3407 19.4233L85.4285 15.8403ZM93.4019 10.0743H87.3032L85.4285 4.33203L83.5538 10.0743H77.4551L82.391 13.6335L80.5163 19.3758L85.4522 15.8165L88.4897 13.6335L93.4019 10.0743Z" fill="white"/>
<path d="M98.4124 0.488281H95.9824V23.2675H98.4124V0.488281Z" fill="white"/>
<path d="M110.108 15.8403L113.573 14.9623L115.02 19.4233L110.108 15.8403ZM118.082 10.0743H111.983L110.108 4.33203L108.233 10.0743H102.135L107.071 13.6335L105.196 19.3758L110.132 15.8165L113.169 13.6335L118.082 10.0743Z" fill="white"/>
</svg>
