<svg width="681" height="432" viewBox="0 0 681 432" fill="none" xmlns="http://www.w3.org/2000/svg">
<path d="M681 219L-1.09673e-05 219" stroke="#034737" stroke-dasharray="6 6"/>
<path d="M239 219L234 216.113V221.887L239 219ZM230.038 218.5H224.062V219.5H230.038V218.5ZM218.087 218.5H212.112V219.5H218.087V218.5ZM206.138 218.5H200.163V219.5H206.138V218.5ZM194.188 218.5H188.213V219.5H194.188V218.5ZM182.238 218.5H176.263V219.5H182.238V218.5ZM170.288 218.5H164.313V219.5H170.288V218.5ZM158.338 218.5H152.363V219.5H158.338V218.5ZM146.388 218.5H140.413V219.5H146.388V218.5ZM134.438 218.5H128.463V219.5H134.438V218.5ZM122.488 218.5H116.513V219.5H122.488V218.5ZM110.538 218.5H104.563V219.5H110.538V218.5ZM98.5875 218.5H92.6125V219.5H98.5875V218.5ZM86.6375 218.5H80.6625V219.5H86.6375V218.5ZM74.6875 218.5H68.7125V219.5H74.6875V218.5ZM62.7375 218.5H56.7625V219.5H62.7375V218.5ZM50.7875 218.5H44.8125V219.5H50.7875V218.5ZM38.8374 218.5H32.8624V219.5H38.8374V218.5ZM26.8874 218.5H20.9124V219.5H26.8874V218.5ZM14.9374 218.5H8.96242V219.5H14.9374V218.5ZM2.98741 218.5H0V219.5H2.98741V218.5Z" fill="#034737"/>
<path d="M634 219L629 216.113V221.887L634 219ZM624.938 218.5H618.896V219.5H624.938V218.5ZM612.854 218.5H606.813V219.5H612.854V218.5ZM600.771 218.5H594.729V219.5H600.771V218.5ZM588.688 218.5H582.646V219.5H588.688V218.5ZM576.604 218.5H570.562V219.5H576.604V218.5ZM564.521 218.5H558.479V219.5H564.521V218.5ZM552.438 218.5H546.396V219.5H552.438V218.5ZM540.354 218.5H534.313V219.5H540.354V218.5ZM528.271 218.5H522.229V219.5H528.271V218.5ZM516.188 218.5H510.146V219.5H516.188V218.5ZM504.104 218.5H498.063V219.5H504.104V218.5ZM492.021 218.5H485.979V219.5H492.021V218.5ZM479.938 218.5H473.896V219.5H479.938V218.5ZM467.854 218.5H461.812V219.5H467.854V218.5ZM455.771 218.5H449.729V219.5H455.771V218.5ZM443.687 218.5H437.646V219.5H443.687V218.5ZM431.604 218.5H425.562V219.5H431.604V218.5ZM419.521 218.5H413.479V219.5H419.521V218.5ZM407.437 218.5H401.396V219.5H407.437V218.5ZM395.354 218.5H389.312V219.5H395.354V218.5ZM383.271 218.5H377.229V219.5H383.271V218.5ZM371.187 218.5H365.146V219.5H371.187V218.5ZM359.104 218.5H353.062V219.5H359.104V218.5ZM347.021 218.5H344V219.5H347.021V218.5Z" fill="#034737"/>
<path d="M225 141L227.518 146.196L230.758 141.418L225 141ZM231.907 146.289L236.699 149.539L237.26 148.711L232.468 145.461L231.907 146.289ZM241.49 152.789L246.282 156.039L246.843 155.211L242.051 151.961L241.49 152.789ZM251.074 159.289L255.865 162.539L256.426 161.711L251.635 158.461L251.074 159.289ZM260.657 165.789L265.449 169.039L266.01 168.211L261.218 164.961L260.657 165.789ZM270.24 172.289L275.032 175.539L275.593 174.711L270.801 171.461L270.24 172.289ZM279.824 178.789L284.615 182.039L285.177 181.211L280.385 177.961L279.824 178.789ZM289.407 185.289L294.199 188.539L294.76 187.711L289.968 184.461L289.407 185.289ZM298.99 191.789L303.782 195.039L304.343 194.211L299.552 190.961L298.99 191.789ZM308.574 198.289L313.365 201.539L313.927 200.711L309.135 197.461L308.574 198.289ZM318.157 204.789L322.949 208.039L323.51 207.211L318.718 203.961L318.157 204.789ZM327.74 211.289L332.532 214.539L333.093 213.711L328.302 210.461L327.74 211.289ZM337.324 217.789L339.719 219.414L340.281 218.586L337.885 216.961L337.324 217.789Z" fill="#034737"/>
<path d="M455.41 141L449.652 141.418L452.893 146.196L455.41 141ZM340.281 219.699L342.685 218.068L342.124 217.241L339.719 218.872L340.281 219.699ZM347.494 214.807L352.303 211.545L351.741 210.717L346.932 213.979L347.494 214.807ZM357.111 208.283L361.92 205.021L361.359 204.193L356.55 207.455L357.111 208.283ZM366.729 201.759L371.538 198.497L370.976 197.67L366.167 200.931L366.729 201.759ZM376.346 195.235L381.155 191.973L380.594 191.146L375.785 194.408L376.346 195.235ZM385.964 188.711L390.773 185.45L390.211 184.622L385.403 187.884L385.964 188.711ZM395.581 182.188L400.39 178.926L399.829 178.098L395.02 181.36L395.581 182.188ZM405.199 175.664L410.008 172.402L409.446 171.574L404.638 174.836L405.199 175.664ZM414.816 169.14L419.625 165.878L419.064 165.051L414.255 168.312L414.816 169.14ZM424.434 162.616L429.243 159.354L428.681 158.527L423.873 161.789L424.434 162.616ZM434.051 156.092L438.86 152.831L438.299 152.003L433.49 155.265L434.051 156.092ZM443.669 149.569L448.478 146.307L447.916 145.479L443.108 148.741L443.669 149.569Z" fill="#034737"/>
<path d="M225 141L227.518 146.196L230.758 141.418L225 141ZM231.907 146.289L236.699 149.539L237.26 148.711L232.468 145.461L231.907 146.289ZM241.49 152.789L246.282 156.039L246.843 155.211L242.051 151.961L241.49 152.789ZM251.074 159.289L255.865 162.539L256.426 161.711L251.635 158.461L251.074 159.289ZM260.657 165.789L265.449 169.039L266.01 168.211L261.218 164.961L260.657 165.789ZM270.24 172.289L275.032 175.539L275.593 174.711L270.801 171.461L270.24 172.289ZM279.824 178.789L284.615 182.039L285.177 181.211L280.385 177.961L279.824 178.789ZM289.407 185.289L294.199 188.539L294.76 187.711L289.968 184.461L289.407 185.289ZM298.99 191.789L303.782 195.039L304.343 194.211L299.552 190.961L298.99 191.789ZM308.574 198.289L313.365 201.539L313.927 200.711L309.135 197.461L308.574 198.289ZM318.157 204.789L322.949 208.039L323.51 207.211L318.718 203.961L318.157 204.789ZM327.74 211.289L332.532 214.539L333.093 213.711L328.302 210.461L327.74 211.289ZM337.324 217.789L339.719 219.414L340.281 218.586L337.885 216.961L337.324 217.789Z" fill="#034737"/>
<path d="M455.41 141L449.652 141.418L452.893 146.196L455.41 141ZM340.281 219.699L342.685 218.068L342.124 217.241L339.719 218.872L340.281 219.699ZM347.494 214.807L352.303 211.545L351.741 210.717L346.932 213.979L347.494 214.807ZM357.111 208.283L361.92 205.021L361.359 204.193L356.55 207.455L357.111 208.283ZM366.729 201.759L371.538 198.497L370.976 197.67L366.167 200.931L366.729 201.759ZM376.346 195.235L381.155 191.973L380.594 191.146L375.785 194.408L376.346 195.235ZM385.964 188.711L390.773 185.45L390.211 184.622L385.403 187.884L385.964 188.711ZM395.581 182.188L400.39 178.926L399.829 178.098L395.02 181.36L395.581 182.188ZM405.199 175.664L410.008 172.402L409.446 171.574L404.638 174.836L405.199 175.664ZM414.816 169.14L419.625 165.878L419.064 165.051L414.255 168.312L414.816 169.14ZM424.434 162.616L429.243 159.354L428.681 158.527L423.873 161.789L424.434 162.616ZM434.051 156.092L438.86 152.831L438.299 152.003L433.49 155.265L434.051 156.092ZM443.669 149.569L448.478 146.307L447.916 145.479L443.108 148.741L443.669 149.569Z" fill="#034737"/>
<path d="M225 295L227.523 289.894L230.838 294.621L225 295ZM232.554 289.447L237.781 286.018L238.355 286.837L233.128 290.266L232.554 289.447ZM243.008 282.589L248.236 279.16L248.81 279.979L243.583 283.408L243.008 282.589ZM253.463 275.731L258.69 272.302L259.264 273.121L254.037 276.55L253.463 275.731ZM263.917 268.873L269.145 265.444L269.719 266.263L264.492 269.692L263.917 268.873ZM274.372 262.015L279.599 258.586L280.173 259.405L274.946 262.834L274.372 262.015ZM284.827 255.157L290.054 251.728L290.628 252.547L285.401 255.976L284.827 255.157ZM295.281 248.299L300.508 244.87L301.083 245.689L295.855 249.118L295.281 248.299ZM305.736 241.441L310.963 238.012L311.537 238.831L306.31 242.26L305.736 241.441ZM316.19 234.583L321.417 231.154L321.992 231.973L316.764 235.402L316.19 234.583ZM326.645 227.725L331.872 224.296L332.446 225.115L327.219 228.544L326.645 227.725ZM337.099 220.867L339.713 219.153L340.287 219.971L337.673 221.686L337.099 220.867Z" fill="#034737"/>
<path d="M455.41 295L449.572 294.621L452.887 289.894L455.41 295ZM340.287 218.876L342.691 220.454L342.117 221.272L339.713 219.695L340.287 218.876ZM347.5 223.608L352.309 226.763L351.735 227.582L346.926 224.427L347.5 223.608ZM357.118 229.918L361.927 233.073L361.352 233.891L356.544 230.737L357.118 229.918ZM366.735 236.227L371.544 239.382L370.97 240.201L366.161 237.046L366.735 236.227ZM376.353 242.537L381.162 245.692L380.587 246.51L375.779 243.356L376.353 242.537ZM385.97 248.847L390.779 252.001L390.205 252.82L385.396 249.665L385.97 248.847ZM395.588 255.156L400.397 258.311L399.822 259.13L395.014 255.975L395.588 255.156ZM405.205 261.466L410.014 264.62L409.44 265.439L404.631 262.284L405.205 261.466ZM414.823 267.775L419.632 270.93L419.057 271.749L414.249 268.594L414.823 267.775ZM424.44 274.085L429.249 277.239L428.675 278.058L423.866 274.903L424.44 274.085ZM434.058 280.394L438.867 283.549L438.292 284.368L433.484 281.213L434.058 280.394ZM443.675 286.704L448.484 289.858L447.91 290.677L443.101 287.522L443.675 286.704Z" fill="#034737"/>
<rect x="130" y="295" width="90" height="90" rx="20" fill="#034737"/>
<path d="M174.573 358.75H160.417C158.115 358.75 156.25 356.884 156.25 354.583V329.583C156.25 327.282 158.115 325.417 160.417 325.417H185.417C187.718 325.417 189.583 327.282 189.583 329.583V337.917" stroke="white" stroke-width="2.70833" stroke-linecap="round" stroke-linejoin="round"/>
<path d="M187.5 344.167V352.5H195.833" stroke="white" stroke-width="2.70833" stroke-linecap="round" stroke-linejoin="round"/>
<circle cx="187.501" cy="352.5" r="8.33333" stroke="white" stroke-width="2.70833" stroke-linecap="round" stroke-linejoin="round"/>
<path d="M181.249 321.25V329.583" stroke="white" stroke-width="2.70833" stroke-linecap="round" stroke-linejoin="round"/>
<path d="M164.585 321.25V329.583" stroke="white" stroke-width="2.70833" stroke-linecap="round" stroke-linejoin="round"/>
<path d="M156.25 337.917H189.583" stroke="white" stroke-width="2.70833" stroke-linecap="round" stroke-linejoin="round"/>
<rect x="454" y="295" width="90" height="90" rx="20" fill="#034737"/>
<path d="M504.001 361.014C503.982 361.014 503.965 361.025 503.945 361.025H487.539C487.155 361.025 486.786 360.872 486.514 360.6C486.242 360.328 486.089 359.96 486.089 359.575C486.089 359.191 486.242 358.822 486.514 358.55C486.786 358.278 487.155 358.125 487.539 358.125H503.903L503.945 358.117C506.932 358.117 509.853 357.24 512.345 355.594C514.837 353.948 516.791 351.606 517.963 348.859C519.135 346.112 519.475 343.082 518.939 340.143C518.404 337.205 517.016 334.489 514.95 332.333C512.884 330.176 510.229 328.674 507.317 328.014C504.404 327.353 501.362 327.563 498.567 328.617C495.773 329.672 493.35 331.524 491.599 333.943C489.848 336.363 488.847 339.244 488.72 342.228C488.698 342.608 488.528 342.964 488.246 343.219C487.963 343.475 487.592 343.609 487.212 343.593C486.831 343.577 486.472 343.412 486.213 343.134C485.953 342.856 485.813 342.486 485.823 342.106C485.986 338.065 487.5 334.196 490.121 331.117L489.251 330.247C489.112 330.113 489.002 329.953 488.926 329.776C488.85 329.6 488.81 329.409 488.808 329.217C488.806 329.024 488.843 328.833 488.916 328.655C488.989 328.477 489.097 328.315 489.233 328.179C489.369 328.043 489.531 327.935 489.709 327.862C489.887 327.789 490.078 327.753 490.271 327.754C490.463 327.756 490.653 327.796 490.83 327.872C491.007 327.948 491.167 328.058 491.301 328.197L492.178 329.073C494.4 327.177 497.047 325.845 499.894 325.191C502.74 324.537 505.703 324.579 508.53 325.316C511.357 326.052 513.964 327.46 516.129 329.42C518.295 331.38 519.956 333.834 520.97 336.574C521.984 339.313 522.321 342.257 521.954 345.155C521.586 348.053 520.524 350.819 518.858 353.218C517.192 355.618 514.971 357.579 512.385 358.936C509.798 360.293 506.922 361.007 504.001 361.014ZM510.624 336.205C510.352 335.933 509.984 335.781 509.599 335.781C509.215 335.781 508.846 335.933 508.574 336.205L504.373 340.406C504.233 340.364 504.09 340.335 503.945 340.319C503.438 340.319 502.942 340.47 502.52 340.751C502.099 341.033 501.77 341.434 501.576 341.902C501.382 342.371 501.331 342.887 501.43 343.384C501.529 343.881 501.773 344.338 502.132 344.697C502.49 345.056 502.947 345.3 503.445 345.399C503.942 345.498 504.458 345.447 504.927 345.253C505.395 345.059 505.796 344.73 506.077 344.308C506.359 343.886 506.51 343.39 506.51 342.883C506.493 342.738 506.464 342.595 506.423 342.456L510.624 338.254C510.896 337.982 511.048 337.614 511.048 337.23C511.048 336.846 510.896 336.477 510.624 336.205ZM501.589 321.875H506.303C506.687 321.875 507.056 321.722 507.328 321.45C507.6 321.178 507.753 320.81 507.753 320.425C507.753 320.041 507.6 319.672 507.328 319.4C507.056 319.128 506.687 318.975 506.303 318.975H501.589C501.204 318.975 500.835 319.128 500.563 319.4C500.292 319.672 500.139 320.041 500.139 320.425C500.139 320.81 500.292 321.178 500.563 321.45C500.835 321.722 501.204 321.875 501.589 321.875ZM500.552 353.775C500.552 353.391 500.4 353.022 500.128 352.75C499.856 352.478 499.487 352.325 499.102 352.325H481.055C480.67 352.325 480.302 352.478 480.03 352.75C479.758 353.022 479.605 353.391 479.605 353.775C479.605 354.16 479.758 354.528 480.03 354.8C480.302 355.072 480.67 355.225 481.055 355.225H499.102C499.487 355.225 499.856 355.072 500.128 354.8C500.4 354.528 500.552 354.16 500.552 353.775ZM501.124 347.975C501.124 347.591 500.971 347.222 500.7 346.95C500.428 346.678 500.059 346.525 499.674 346.525H477.352C476.968 346.525 476.599 346.678 476.327 346.95C476.055 347.222 475.902 347.591 475.902 347.975C475.902 348.36 476.055 348.728 476.327 349C476.599 349.272 476.968 349.425 477.352 349.425H499.674C500.059 349.425 500.428 349.272 500.7 349C500.971 348.728 501.124 348.36 501.124 347.975Z" fill="white"/>
<rect x="458" y="53" width="90" height="90" rx="20" fill="#034737"/>
<path d="M523.313 111.155L518.892 115.576L518.892 108.945C518.892 100.4 511.964 93.4725 503.419 93.4725C494.874 93.4725 487.947 100.4 487.947 108.945L487.947 115.576L483.526 111.155" stroke="white" stroke-width="2.16667" stroke-linecap="round" stroke-linejoin="round"/>
<path d="M504.506 78C504.506 77.4017 504.021 76.9167 503.423 76.9167C502.825 76.9167 502.34 77.4017 502.34 78L504.506 78ZM503.423 117.787L502.34 117.787C502.34 118.225 502.604 118.62 503.008 118.787C503.413 118.955 503.879 118.862 504.189 118.553L503.423 117.787ZM508.61 114.132C509.033 113.709 509.033 113.023 508.61 112.6C508.187 112.177 507.501 112.177 507.078 112.6L508.61 114.132ZM499.767 112.6C499.344 112.177 498.658 112.177 498.235 112.6C497.812 113.023 497.812 113.709 498.235 114.132L499.767 112.6ZM502.656 118.553C503.079 118.976 503.765 118.976 504.188 118.553C504.611 118.13 504.611 117.444 504.188 117.021L502.656 118.553ZM502.34 78L502.34 117.787L504.506 117.787L504.506 78L502.34 78ZM504.189 118.553L508.61 114.132L507.078 112.6L502.657 117.021L504.189 118.553ZM498.235 114.132L502.656 118.553L504.188 117.021L499.767 112.6L498.235 114.132Z" fill="white"/>
<path d="M467.432 30.242L464.604 40H463.176L460.908 32.146L458.556 40L457.142 40.014L454.412 30.242H455.77L457.898 38.516L460.25 30.242H461.678L463.918 38.488L466.06 30.242H467.432ZM475.868 35.87C475.868 36.1127 475.854 36.3693 475.826 36.64H469.694C469.741 37.396 469.998 37.9887 470.464 38.418C470.94 38.838 471.514 39.048 472.186 39.048C472.737 39.048 473.194 38.922 473.558 38.67C473.932 38.4087 474.193 38.0633 474.342 37.634H475.714C475.509 38.3713 475.098 38.9733 474.482 39.44C473.866 39.8973 473.101 40.126 472.186 40.126C471.458 40.126 470.805 39.9627 470.226 39.636C469.657 39.3093 469.209 38.8473 468.882 38.25C468.556 37.6433 468.392 36.9433 468.392 36.15C468.392 35.3567 468.551 34.6613 468.868 34.064C469.186 33.4667 469.629 33.0093 470.198 32.692C470.777 32.3653 471.44 32.202 472.186 32.202C472.914 32.202 473.558 32.3607 474.118 32.678C474.678 32.9953 475.108 33.434 475.406 33.994C475.714 34.5447 475.868 35.17 475.868 35.87ZM474.552 35.604C474.552 35.1187 474.445 34.7033 474.23 34.358C474.016 34.0033 473.722 33.7373 473.348 33.56C472.984 33.3733 472.578 33.28 472.13 33.28C471.486 33.28 470.936 33.4853 470.478 33.896C470.03 34.3067 469.774 34.876 469.708 35.604H474.552ZM478.866 33.756C479.127 33.2987 479.51 32.9253 480.014 32.636C480.518 32.3467 481.092 32.202 481.736 32.202C482.427 32.202 483.047 32.3653 483.598 32.692C484.149 33.0187 484.583 33.4807 484.9 34.078C485.217 34.666 485.376 35.352 485.376 36.136C485.376 36.9107 485.217 37.6013 484.9 38.208C484.583 38.8147 484.144 39.286 483.584 39.622C483.033 39.958 482.417 40.126 481.736 40.126C481.073 40.126 480.49 39.9813 479.986 39.692C479.491 39.4027 479.118 39.034 478.866 38.586V40H477.592V29.64H478.866V33.756ZM484.074 36.136C484.074 35.5573 483.957 35.0533 483.724 34.624C483.491 34.1947 483.173 33.868 482.772 33.644C482.38 33.42 481.946 33.308 481.47 33.308C481.003 33.308 480.569 33.4247 480.168 33.658C479.776 33.882 479.459 34.2133 479.216 34.652C478.983 35.0813 478.866 35.5807 478.866 36.15C478.866 36.7287 478.983 37.2373 479.216 37.676C479.459 38.1053 479.776 38.4367 480.168 38.67C480.569 38.894 481.003 39.006 481.47 39.006C481.946 39.006 482.38 38.894 482.772 38.67C483.173 38.4367 483.491 38.1053 483.724 37.676C483.957 37.2373 484.074 36.724 484.074 36.136ZM493.585 40.126C492.997 40.126 492.47 40.028 492.003 39.832C491.537 39.6267 491.168 39.3467 490.897 38.992C490.627 38.628 490.477 38.2127 490.449 37.746H491.765C491.803 38.1287 491.98 38.4413 492.297 38.684C492.624 38.9267 493.049 39.048 493.571 39.048C494.057 39.048 494.439 38.9407 494.719 38.726C494.999 38.5113 495.139 38.2407 495.139 37.914C495.139 37.578 494.99 37.3307 494.691 37.172C494.393 37.004 493.931 36.8407 493.305 36.682C492.736 36.5327 492.269 36.3833 491.905 36.234C491.551 36.0753 491.243 35.8467 490.981 35.548C490.729 35.24 490.603 34.8387 490.603 34.344C490.603 33.952 490.72 33.5927 490.953 33.266C491.187 32.9393 491.518 32.6827 491.947 32.496C492.377 32.3 492.867 32.202 493.417 32.202C494.267 32.202 494.953 32.4167 495.475 32.846C495.998 33.2753 496.278 33.8633 496.315 34.61H495.041C495.013 34.2087 494.85 33.8867 494.551 33.644C494.262 33.4013 493.87 33.28 493.375 33.28C492.918 33.28 492.554 33.378 492.283 33.574C492.013 33.77 491.877 34.0267 491.877 34.344C491.877 34.596 491.957 34.806 492.115 34.974C492.283 35.1327 492.489 35.2633 492.731 35.366C492.983 35.4593 493.329 35.5667 493.767 35.688C494.318 35.8373 494.766 35.9867 495.111 36.136C495.457 36.276 495.751 36.4907 495.993 36.78C496.245 37.0693 496.376 37.4473 496.385 37.914C496.385 38.334 496.269 38.712 496.035 39.048C495.802 39.384 495.471 39.65 495.041 39.846C494.621 40.0327 494.136 40.126 493.585 40.126ZM497.75 36.15C497.75 35.3567 497.909 34.666 498.226 34.078C498.543 33.4807 498.982 33.0187 499.542 32.692C500.111 32.3653 500.76 32.202 501.488 32.202C502.431 32.202 503.205 32.4307 503.812 32.888C504.428 33.3453 504.834 33.98 505.03 34.792H503.658C503.527 34.3253 503.271 33.9567 502.888 33.686C502.515 33.4153 502.048 33.28 501.488 33.28C500.76 33.28 500.172 33.532 499.724 34.036C499.276 34.5307 499.052 35.2353 499.052 36.15C499.052 37.074 499.276 37.788 499.724 38.292C500.172 38.796 500.76 39.048 501.488 39.048C502.048 39.048 502.515 38.9173 502.888 38.656C503.261 38.3947 503.518 38.0213 503.658 37.536H505.03C504.825 38.32 504.414 38.95 503.798 39.426C503.182 39.8927 502.412 40.126 501.488 40.126C500.76 40.126 500.111 39.9627 499.542 39.636C498.982 39.3093 498.543 38.8473 498.226 38.25C497.909 37.6527 497.75 36.9527 497.75 36.15ZM508.046 33.574C508.27 33.1353 508.587 32.7947 508.998 32.552C509.418 32.3093 509.927 32.188 510.524 32.188V33.504H510.188C508.76 33.504 508.046 34.2787 508.046 35.828V40H506.772V32.328H508.046V33.574ZM511.561 36.136C511.561 35.352 511.719 34.666 512.037 34.078C512.354 33.4807 512.788 33.0187 513.339 32.692C513.899 32.3653 514.519 32.202 515.201 32.202C515.873 32.202 516.456 32.3467 516.951 32.636C517.445 32.9253 517.814 33.2893 518.057 33.728V32.328H519.345V40H518.057V38.572C517.805 39.02 517.427 39.3933 516.923 39.692C516.428 39.9813 515.849 40.126 515.187 40.126C514.505 40.126 513.889 39.958 513.339 39.622C512.788 39.286 512.354 38.8147 512.037 38.208C511.719 37.6013 511.561 36.9107 511.561 36.136ZM518.057 36.15C518.057 35.5713 517.94 35.0673 517.707 34.638C517.473 34.2087 517.156 33.882 516.755 33.658C516.363 33.4247 515.929 33.308 515.453 33.308C514.977 33.308 514.543 33.42 514.151 33.644C513.759 33.868 513.446 34.1947 513.213 34.624C512.979 35.0533 512.863 35.5573 512.863 36.136C512.863 36.724 512.979 37.2373 513.213 37.676C513.446 38.1053 513.759 38.4367 514.151 38.67C514.543 38.894 514.977 39.006 515.453 39.006C515.929 39.006 516.363 38.894 516.755 38.67C517.156 38.4367 517.473 38.1053 517.707 37.676C517.94 37.2373 518.057 36.7287 518.057 36.15ZM522.813 33.742C523.065 33.3033 523.439 32.9393 523.933 32.65C524.437 32.3513 525.021 32.202 525.683 32.202C526.365 32.202 526.981 32.3653 527.531 32.692C528.091 33.0187 528.53 33.4807 528.847 34.078C529.165 34.666 529.323 35.352 529.323 36.136C529.323 36.9107 529.165 37.6013 528.847 38.208C528.53 38.8147 528.091 39.286 527.531 39.622C526.981 39.958 526.365 40.126 525.683 40.126C525.03 40.126 524.451 39.9813 523.947 39.692C523.453 39.3933 523.075 39.0247 522.813 38.586V43.64H521.539V32.328H522.813V33.742ZM528.021 36.136C528.021 35.5573 527.905 35.0533 527.671 34.624C527.438 34.1947 527.121 33.868 526.719 33.644C526.327 33.42 525.893 33.308 525.417 33.308C524.951 33.308 524.517 33.4247 524.115 33.658C523.723 33.882 523.406 34.2133 523.163 34.652C522.93 35.0813 522.813 35.5807 522.813 36.15C522.813 36.7287 522.93 37.2373 523.163 37.676C523.406 38.1053 523.723 38.4367 524.115 38.67C524.517 38.894 524.951 39.006 525.417 39.006C525.893 39.006 526.327 38.894 526.719 38.67C527.121 38.4367 527.438 38.1053 527.671 37.676C527.905 37.2373 528.021 36.724 528.021 36.136ZM531.7 31.082C531.458 31.082 531.252 30.998 531.084 30.83C530.916 30.662 530.832 30.4567 530.832 30.214C530.832 29.9713 530.916 29.766 531.084 29.598C531.252 29.43 531.458 29.346 531.7 29.346C531.934 29.346 532.13 29.43 532.288 29.598C532.456 29.766 532.54 29.9713 532.54 30.214C532.54 30.4567 532.456 30.662 532.288 30.83C532.13 30.998 531.934 31.082 531.7 31.082ZM532.316 32.328V40H531.042V32.328H532.316ZM538.268 32.188C539.201 32.188 539.957 32.4727 540.536 33.042C541.114 33.602 541.404 34.414 541.404 35.478V40H540.144V35.66C540.144 34.8947 539.952 34.3113 539.57 33.91C539.187 33.4993 538.664 33.294 538.002 33.294C537.33 33.294 536.793 33.504 536.392 33.924C536 34.344 535.804 34.9553 535.804 35.758V40H534.53V32.328H535.804V33.42C536.056 33.028 536.396 32.7247 536.826 32.51C537.264 32.2953 537.745 32.188 538.268 32.188ZM546.691 32.202C547.353 32.202 547.932 32.3467 548.427 32.636C548.931 32.9253 549.304 33.2893 549.547 33.728V32.328H550.835V40.168C550.835 40.868 550.685 41.4887 550.387 42.03C550.088 42.5807 549.659 43.01 549.099 43.318C548.548 43.626 547.904 43.78 547.167 43.78C546.159 43.78 545.319 43.542 544.647 43.066C543.975 42.59 543.578 41.9413 543.457 41.12H544.717C544.857 41.5867 545.146 41.96 545.585 42.24C546.023 42.5293 546.551 42.674 547.167 42.674C547.867 42.674 548.436 42.4547 548.875 42.016C549.323 41.5773 549.547 40.9613 549.547 40.168V38.558C549.295 39.006 548.921 39.3793 548.427 39.678C547.932 39.9767 547.353 40.126 546.691 40.126C546.009 40.126 545.389 39.958 544.829 39.622C544.278 39.286 543.844 38.8147 543.527 38.208C543.209 37.6013 543.051 36.9107 543.051 36.136C543.051 35.352 543.209 34.666 543.527 34.078C543.844 33.4807 544.278 33.0187 544.829 32.692C545.389 32.3653 546.009 32.202 546.691 32.202ZM549.547 36.15C549.547 35.5713 549.43 35.0673 549.197 34.638C548.963 34.2087 548.646 33.882 548.245 33.658C547.853 33.4247 547.419 33.308 546.943 33.308C546.467 33.308 546.033 33.42 545.641 33.644C545.249 33.868 544.936 34.1947 544.703 34.624C544.469 35.0533 544.353 35.5573 544.353 36.136C544.353 36.724 544.469 37.2373 544.703 37.676C544.936 38.1053 545.249 38.4367 545.641 38.67C546.033 38.894 546.467 39.006 546.943 39.006C547.419 39.006 547.853 38.894 548.245 38.67C548.646 38.4367 548.963 38.1053 549.197 37.676C549.43 37.2373 549.547 36.7287 549.547 36.15Z" fill="#666666"/>
<path d="M460.369 407.848L458.423 405.902C457.947 406.033 457.461 406.098 456.967 406.098C456.061 406.098 455.235 405.888 454.489 405.468C453.742 405.039 453.149 404.446 452.711 403.69C452.281 402.925 452.067 402.066 452.067 401.114C452.067 400.162 452.281 399.308 452.711 398.552C453.149 397.787 453.742 397.194 454.489 396.774C455.235 396.345 456.061 396.13 456.967 396.13C457.881 396.13 458.712 396.345 459.459 396.774C460.205 397.194 460.793 397.782 461.223 398.538C461.652 399.294 461.867 400.153 461.867 401.114C461.867 402.047 461.661 402.887 461.251 403.634C460.84 404.381 460.275 404.969 459.557 405.398L462.021 407.848H460.369ZM453.369 401.114C453.369 401.889 453.523 402.57 453.831 403.158C454.148 403.746 454.577 404.199 455.119 404.516C455.669 404.833 456.285 404.992 456.967 404.992C457.648 404.992 458.259 404.833 458.801 404.516C459.351 404.199 459.781 403.746 460.089 403.158C460.406 402.57 460.565 401.889 460.565 401.114C460.565 400.33 460.406 399.649 460.089 399.07C459.781 398.482 459.356 398.029 458.815 397.712C458.273 397.395 457.657 397.236 456.967 397.236C456.276 397.236 455.66 397.395 455.119 397.712C454.577 398.029 454.148 398.482 453.831 399.07C453.523 399.649 453.369 400.33 453.369 401.114ZM470.422 398.328V406H469.148V404.866C468.905 405.258 468.565 405.566 468.126 405.79C467.697 406.005 467.221 406.112 466.698 406.112C466.101 406.112 465.564 405.991 465.088 405.748C464.612 405.496 464.234 405.123 463.954 404.628C463.683 404.133 463.548 403.531 463.548 402.822V398.328H464.808V402.654C464.808 403.41 464.999 403.993 465.382 404.404C465.765 404.805 466.287 405.006 466.95 405.006C467.631 405.006 468.168 404.796 468.56 404.376C468.952 403.956 469.148 403.345 469.148 402.542V398.328H470.422ZM473.273 397.082C473.03 397.082 472.825 396.998 472.657 396.83C472.489 396.662 472.405 396.457 472.405 396.214C472.405 395.971 472.489 395.766 472.657 395.598C472.825 395.43 473.03 395.346 473.273 395.346C473.506 395.346 473.702 395.43 473.861 395.598C474.029 395.766 474.113 395.971 474.113 396.214C474.113 396.457 474.029 396.662 473.861 396.83C473.702 396.998 473.506 397.082 473.273 397.082ZM473.889 398.328V406H472.615V398.328H473.889ZM475.626 402.15C475.626 401.357 475.785 400.666 476.102 400.078C476.42 399.481 476.858 399.019 477.418 398.692C477.988 398.365 478.636 398.202 479.364 398.202C480.307 398.202 481.082 398.431 481.688 398.888C482.304 399.345 482.71 399.98 482.906 400.792H481.534C481.404 400.325 481.147 399.957 480.764 399.686C480.391 399.415 479.924 399.28 479.364 399.28C478.636 399.28 478.048 399.532 477.6 400.036C477.152 400.531 476.928 401.235 476.928 402.15C476.928 403.074 477.152 403.788 477.6 404.292C478.048 404.796 478.636 405.048 479.364 405.048C479.924 405.048 480.391 404.917 480.764 404.656C481.138 404.395 481.394 404.021 481.534 403.536H482.906C482.701 404.32 482.29 404.95 481.674 405.426C481.058 405.893 480.288 406.126 479.364 406.126C478.636 406.126 477.988 405.963 477.418 405.636C476.858 405.309 476.42 404.847 476.102 404.25C475.785 403.653 475.626 402.953 475.626 402.15ZM488.932 406L485.922 402.612V406H484.648V395.64H485.922V401.73L488.876 398.328H490.654L487.042 402.15L490.668 406H488.932ZM496.944 399.742C497.196 399.303 497.569 398.939 498.064 398.65C498.568 398.351 499.151 398.202 499.814 398.202C500.495 398.202 501.111 398.365 501.662 398.692C502.222 399.019 502.66 399.481 502.978 400.078C503.295 400.666 503.454 401.352 503.454 402.136C503.454 402.911 503.295 403.601 502.978 404.208C502.66 404.815 502.222 405.286 501.662 405.622C501.111 405.958 500.495 406.126 499.814 406.126C499.16 406.126 498.582 405.981 498.078 405.692C497.583 405.393 497.205 405.025 496.944 404.586V409.64H495.67V398.328H496.944V399.742ZM502.152 402.136C502.152 401.557 502.035 401.053 501.802 400.624C501.568 400.195 501.251 399.868 500.85 399.644C500.458 399.42 500.024 399.308 499.548 399.308C499.081 399.308 498.647 399.425 498.246 399.658C497.854 399.882 497.536 400.213 497.294 400.652C497.06 401.081 496.944 401.581 496.944 402.15C496.944 402.729 497.06 403.237 497.294 403.676C497.536 404.105 497.854 404.437 498.246 404.67C498.647 404.894 499.081 405.006 499.548 405.006C500.024 405.006 500.458 404.894 500.85 404.67C501.251 404.437 501.568 404.105 501.802 403.676C502.035 403.237 502.152 402.724 502.152 402.136ZM508.519 406.126C507.8 406.126 507.147 405.963 506.559 405.636C505.98 405.309 505.523 404.847 505.187 404.25C504.86 403.643 504.697 402.943 504.697 402.15C504.697 401.366 504.865 400.675 505.201 400.078C505.546 399.471 506.013 399.009 506.601 398.692C507.189 398.365 507.847 398.202 508.575 398.202C509.303 398.202 509.961 398.365 510.549 398.692C511.137 399.009 511.599 399.467 511.935 400.064C512.28 400.661 512.453 401.357 512.453 402.15C512.453 402.943 512.275 403.643 511.921 404.25C511.575 404.847 511.104 405.309 510.507 405.636C509.909 405.963 509.247 406.126 508.519 406.126ZM508.519 405.006C508.976 405.006 509.405 404.899 509.807 404.684C510.208 404.469 510.53 404.147 510.773 403.718C511.025 403.289 511.151 402.766 511.151 402.15C511.151 401.534 511.029 401.011 510.787 400.582C510.544 400.153 510.227 399.835 509.835 399.63C509.443 399.415 509.018 399.308 508.561 399.308C508.094 399.308 507.665 399.415 507.273 399.63C506.89 399.835 506.582 400.153 506.349 400.582C506.115 401.011 505.999 401.534 505.999 402.15C505.999 402.775 506.111 403.303 506.335 403.732C506.568 404.161 506.876 404.483 507.259 404.698C507.641 404.903 508.061 405.006 508.519 405.006ZM516.886 406.126C516.298 406.126 515.77 406.028 515.304 405.832C514.837 405.627 514.468 405.347 514.198 404.992C513.927 404.628 513.778 404.213 513.75 403.746H515.066C515.103 404.129 515.28 404.441 515.598 404.684C515.924 404.927 516.349 405.048 516.872 405.048C517.357 405.048 517.74 404.941 518.02 404.726C518.3 404.511 518.44 404.241 518.44 403.914C518.44 403.578 518.29 403.331 517.992 403.172C517.693 403.004 517.231 402.841 516.606 402.682C516.036 402.533 515.57 402.383 515.206 402.234C514.851 402.075 514.543 401.847 514.282 401.548C514.03 401.24 513.904 400.839 513.904 400.344C513.904 399.952 514.02 399.593 514.254 399.266C514.487 398.939 514.818 398.683 515.248 398.496C515.677 398.3 516.167 398.202 516.718 398.202C517.567 398.202 518.253 398.417 518.776 398.846C519.298 399.275 519.578 399.863 519.616 400.61H518.342C518.314 400.209 518.15 399.887 517.852 399.644C517.562 399.401 517.17 399.28 516.676 399.28C516.218 399.28 515.854 399.378 515.584 399.574C515.313 399.77 515.178 400.027 515.178 400.344C515.178 400.596 515.257 400.806 515.416 400.974C515.584 401.133 515.789 401.263 516.032 401.366C516.284 401.459 516.629 401.567 517.068 401.688C517.618 401.837 518.066 401.987 518.412 402.136C518.757 402.276 519.051 402.491 519.294 402.78C519.546 403.069 519.676 403.447 519.686 403.914C519.686 404.334 519.569 404.712 519.336 405.048C519.102 405.384 518.771 405.65 518.342 405.846C517.922 406.033 517.436 406.126 516.886 406.126ZM523.08 399.378V403.9C523.08 404.273 523.16 404.539 523.318 404.698C523.477 404.847 523.752 404.922 524.144 404.922H525.082V406H523.934C523.225 406 522.693 405.837 522.338 405.51C521.984 405.183 521.806 404.647 521.806 403.9V399.378H520.812V398.328H521.806V396.396H523.08V398.328H525.082V399.378H523.08ZM527.326 397.082C527.083 397.082 526.878 396.998 526.71 396.83C526.542 396.662 526.458 396.457 526.458 396.214C526.458 395.971 526.542 395.766 526.71 395.598C526.878 395.43 527.083 395.346 527.326 395.346C527.559 395.346 527.755 395.43 527.914 395.598C528.082 395.766 528.166 395.971 528.166 396.214C528.166 396.457 528.082 396.662 527.914 396.83C527.755 396.998 527.559 397.082 527.326 397.082ZM527.942 398.328V406H526.668V398.328H527.942ZM533.893 398.188C534.827 398.188 535.583 398.473 536.161 399.042C536.74 399.602 537.029 400.414 537.029 401.478V406H535.769V401.66C535.769 400.895 535.578 400.311 535.195 399.91C534.813 399.499 534.29 399.294 533.627 399.294C532.955 399.294 532.419 399.504 532.017 399.924C531.625 400.344 531.429 400.955 531.429 401.758V406H530.155V398.328H531.429V399.42C531.681 399.028 532.022 398.725 532.451 398.51C532.89 398.295 533.371 398.188 533.893 398.188ZM542.316 398.202C542.979 398.202 543.558 398.347 544.052 398.636C544.556 398.925 544.93 399.289 545.172 399.728V398.328H546.46V406.168C546.46 406.868 546.311 407.489 546.012 408.03C545.714 408.581 545.284 409.01 544.724 409.318C544.174 409.626 543.53 409.78 542.792 409.78C541.784 409.78 540.944 409.542 540.272 409.066C539.6 408.59 539.204 407.941 539.082 407.12H540.342C540.482 407.587 540.772 407.96 541.21 408.24C541.649 408.529 542.176 408.674 542.792 408.674C543.492 408.674 544.062 408.455 544.5 408.016C544.948 407.577 545.172 406.961 545.172 406.168V404.558C544.92 405.006 544.547 405.379 544.052 405.678C543.558 405.977 542.979 406.126 542.316 406.126C541.635 406.126 541.014 405.958 540.454 405.622C539.904 405.286 539.47 404.815 539.152 404.208C538.835 403.601 538.676 402.911 538.676 402.136C538.676 401.352 538.835 400.666 539.152 400.078C539.47 399.481 539.904 399.019 540.454 398.692C541.014 398.365 541.635 398.202 542.316 398.202ZM545.172 402.15C545.172 401.571 545.056 401.067 544.822 400.638C544.589 400.209 544.272 399.882 543.87 399.658C543.478 399.425 543.044 399.308 542.568 399.308C542.092 399.308 541.658 399.42 541.266 399.644C540.874 399.868 540.562 400.195 540.328 400.624C540.095 401.053 539.978 401.557 539.978 402.136C539.978 402.724 540.095 403.237 540.328 403.676C540.562 404.105 540.874 404.437 541.266 404.67C541.658 404.894 542.092 405.006 542.568 405.006C543.044 405.006 543.478 404.894 543.87 404.67C544.272 404.437 544.589 404.105 544.822 403.676C545.056 403.237 545.172 402.729 545.172 402.15Z" fill="#666666"/>
<rect x="130" y="53" width="90" height="90" rx="20" fill="#034737"/>
<circle cx="175.091" cy="97.8719" r="23.872" stroke="white" stroke-width="2.16667" stroke-linecap="round" stroke-linejoin="round"/>
<circle cx="175.09" cy="92.5672" r="7.95732" stroke="white" stroke-width="2.16667" stroke-linecap="round" stroke-linejoin="round"/>
<path d="M159.621 116.039C160.969 111.552 165.1 108.481 169.785 108.482H180.395C185.086 108.48 189.222 111.56 190.564 116.055" stroke="white" stroke-width="2.16667" stroke-linecap="round" stroke-linejoin="round"/>
<path d="M143.853 35.114C143.853 34.162 144.068 33.308 144.497 32.552C144.927 31.7867 145.51 31.1893 146.247 30.76C146.994 30.3307 147.82 30.116 148.725 30.116C149.789 30.116 150.718 30.3727 151.511 30.886C152.305 31.3993 152.883 32.1273 153.247 33.07H151.721C151.451 32.482 151.059 32.0293 150.545 31.712C150.041 31.3947 149.435 31.236 148.725 31.236C148.044 31.236 147.433 31.3947 146.891 31.712C146.35 32.0293 145.925 32.482 145.617 33.07C145.309 33.6487 145.155 34.33 145.155 35.114C145.155 35.8887 145.309 36.57 145.617 37.158C145.925 37.7367 146.35 38.1847 146.891 38.502C147.433 38.8193 148.044 38.978 148.725 38.978C149.435 38.978 150.041 38.824 150.545 38.516C151.059 38.1987 151.451 37.746 151.721 37.158H153.247C152.883 38.0913 152.305 38.8147 151.511 39.328C150.718 39.832 149.789 40.084 148.725 40.084C147.82 40.084 146.994 39.874 146.247 39.454C145.51 39.0247 144.927 38.432 144.497 37.676C144.068 36.92 143.853 36.066 143.853 35.114ZM158.532 40.126C157.813 40.126 157.16 39.9627 156.572 39.636C155.993 39.3093 155.536 38.8473 155.2 38.25C154.873 37.6433 154.71 36.9433 154.71 36.15C154.71 35.366 154.878 34.6753 155.214 34.078C155.559 33.4713 156.026 33.0093 156.614 32.692C157.202 32.3653 157.86 32.202 158.588 32.202C159.316 32.202 159.974 32.3653 160.562 32.692C161.15 33.0093 161.612 33.4667 161.948 34.064C162.293 34.6613 162.466 35.3567 162.466 36.15C162.466 36.9433 162.289 37.6433 161.934 38.25C161.589 38.8473 161.117 39.3093 160.52 39.636C159.923 39.9627 159.26 40.126 158.532 40.126ZM158.532 39.006C158.989 39.006 159.419 38.8987 159.82 38.684C160.221 38.4693 160.543 38.1473 160.786 37.718C161.038 37.2887 161.164 36.766 161.164 36.15C161.164 35.534 161.043 35.0113 160.8 34.582C160.557 34.1527 160.24 33.8353 159.848 33.63C159.456 33.4153 159.031 33.308 158.574 33.308C158.107 33.308 157.678 33.4153 157.286 33.63C156.903 33.8353 156.595 34.1527 156.362 34.582C156.129 35.0113 156.012 35.534 156.012 36.15C156.012 36.7753 156.124 37.3027 156.348 37.732C156.581 38.1613 156.889 38.4833 157.272 38.698C157.655 38.9033 158.075 39.006 158.532 39.006ZM167.921 32.188C168.854 32.188 169.61 32.4727 170.189 33.042C170.768 33.602 171.057 34.414 171.057 35.478V40H169.797V35.66C169.797 34.8947 169.606 34.3113 169.223 33.91C168.84 33.4993 168.318 33.294 167.655 33.294C166.983 33.294 166.446 33.504 166.045 33.924C165.653 34.344 165.457 34.9553 165.457 35.758V40H164.183V32.328H165.457V33.42C165.709 33.028 166.05 32.7247 166.479 32.51C166.918 32.2953 167.398 32.188 167.921 32.188ZM174.734 33.378V37.9C174.734 38.2733 174.813 38.5393 174.972 38.698C175.131 38.8473 175.406 38.922 175.798 38.922H176.736V40H175.588C174.879 40 174.347 39.8367 173.992 39.51C173.637 39.1833 173.46 38.6467 173.46 37.9V33.378H172.466V32.328H173.46V30.396H174.734V32.328H176.736V33.378H174.734ZM177.846 36.136C177.846 35.352 178.004 34.666 178.322 34.078C178.639 33.4807 179.073 33.0187 179.624 32.692C180.184 32.3653 180.804 32.202 181.486 32.202C182.158 32.202 182.741 32.3467 183.236 32.636C183.73 32.9253 184.099 33.2893 184.342 33.728V32.328H185.63V40H184.342V38.572C184.09 39.02 183.712 39.3933 183.208 39.692C182.713 39.9813 182.134 40.126 181.472 40.126C180.79 40.126 180.174 39.958 179.624 39.622C179.073 39.286 178.639 38.8147 178.322 38.208C178.004 37.6013 177.846 36.9107 177.846 36.136ZM184.342 36.15C184.342 35.5713 184.225 35.0673 183.992 34.638C183.758 34.2087 183.441 33.882 183.04 33.658C182.648 33.4247 182.214 33.308 181.738 33.308C181.262 33.308 180.828 33.42 180.436 33.644C180.044 33.868 179.731 34.1947 179.498 34.624C179.264 35.0533 179.148 35.5573 179.148 36.136C179.148 36.724 179.264 37.2373 179.498 37.676C179.731 38.1053 180.044 38.4367 180.436 38.67C180.828 38.894 181.262 39.006 181.738 39.006C182.214 39.006 182.648 38.894 183.04 38.67C183.441 38.4367 183.758 38.1053 183.992 37.676C184.225 37.2373 184.342 36.7287 184.342 36.15ZM187.349 36.15C187.349 35.3567 187.507 34.666 187.825 34.078C188.142 33.4807 188.581 33.0187 189.141 32.692C189.71 32.3653 190.359 32.202 191.087 32.202C192.029 32.202 192.804 32.4307 193.411 32.888C194.027 33.3453 194.433 33.98 194.629 34.792H193.257C193.126 34.3253 192.869 33.9567 192.487 33.686C192.113 33.4153 191.647 33.28 191.087 33.28C190.359 33.28 189.771 33.532 189.323 34.036C188.875 34.5307 188.651 35.2353 188.651 36.15C188.651 37.074 188.875 37.788 189.323 38.292C189.771 38.796 190.359 39.048 191.087 39.048C191.647 39.048 192.113 38.9173 192.487 38.656C192.86 38.3947 193.117 38.0213 193.257 37.536H194.629C194.423 38.32 194.013 38.95 193.397 39.426C192.781 39.8927 192.011 40.126 191.087 40.126C190.359 40.126 189.71 39.9627 189.141 39.636C188.581 39.3093 188.142 38.8473 187.825 38.25C187.507 37.6527 187.349 36.9527 187.349 36.15ZM197.924 33.378V37.9C197.924 38.2733 198.004 38.5393 198.162 38.698C198.321 38.8473 198.596 38.922 198.988 38.922H199.926V40H198.778C198.069 40 197.537 39.8367 197.182 39.51C196.828 39.1833 196.65 38.6467 196.65 37.9V33.378H195.656V32.328H196.65V30.396H197.924V32.328H199.926V33.378H197.924ZM204.228 40.126C203.64 40.126 203.113 40.028 202.646 39.832C202.179 39.6267 201.811 39.3467 201.54 38.992C201.269 38.628 201.12 38.2127 201.092 37.746H202.408C202.445 38.1287 202.623 38.4413 202.94 38.684C203.267 38.9267 203.691 39.048 204.214 39.048C204.699 39.048 205.082 38.9407 205.362 38.726C205.642 38.5113 205.782 38.2407 205.782 37.914C205.782 37.578 205.633 37.3307 205.334 37.172C205.035 37.004 204.573 36.8407 203.948 36.682C203.379 36.5327 202.912 36.3833 202.548 36.234C202.193 36.0753 201.885 35.8467 201.624 35.548C201.372 35.24 201.246 34.8387 201.246 34.344C201.246 33.952 201.363 33.5927 201.596 33.266C201.829 32.9393 202.161 32.6827 202.59 32.496C203.019 32.3 203.509 32.202 204.06 32.202C204.909 32.202 205.595 32.4167 206.118 32.846C206.641 33.2753 206.921 33.8633 206.958 34.61H205.684C205.656 34.2087 205.493 33.8867 205.194 33.644C204.905 33.4013 204.513 33.28 204.018 33.28C203.561 33.28 203.197 33.378 202.926 33.574C202.655 33.77 202.52 34.0267 202.52 34.344C202.52 34.596 202.599 34.806 202.758 34.974C202.926 35.1327 203.131 35.2633 203.374 35.366C203.626 35.4593 203.971 35.5667 204.41 35.688C204.961 35.8373 205.409 35.9867 205.754 36.136C206.099 36.276 206.393 36.4907 206.636 36.78C206.888 37.0693 207.019 37.4473 207.028 37.914C207.028 38.334 206.911 38.712 206.678 39.048C206.445 39.384 206.113 39.65 205.684 39.846C205.264 40.0327 204.779 40.126 204.228 40.126Z" fill="#666666"/>
<path d="M144.442 406.098C143.798 406.098 143.22 405.986 142.706 405.762C142.202 405.529 141.806 405.211 141.516 404.81C141.227 404.399 141.078 403.928 141.068 403.396H142.426C142.473 403.853 142.66 404.241 142.986 404.558C143.322 404.866 143.808 405.02 144.442 405.02C145.049 405.02 145.525 404.871 145.87 404.572C146.225 404.264 146.402 403.872 146.402 403.396C146.402 403.023 146.3 402.719 146.094 402.486C145.889 402.253 145.632 402.075 145.324 401.954C145.016 401.833 144.601 401.702 144.078 401.562C143.434 401.394 142.916 401.226 142.524 401.058C142.142 400.89 141.81 400.629 141.53 400.274C141.26 399.91 141.124 399.425 141.124 398.818C141.124 398.286 141.26 397.815 141.53 397.404C141.801 396.993 142.179 396.676 142.664 396.452C143.159 396.228 143.724 396.116 144.358 396.116C145.273 396.116 146.02 396.345 146.598 396.802C147.186 397.259 147.518 397.866 147.592 398.622H146.192C146.146 398.249 145.95 397.922 145.604 397.642C145.259 397.353 144.802 397.208 144.232 397.208C143.7 397.208 143.266 397.348 142.93 397.628C142.594 397.899 142.426 398.281 142.426 398.776C142.426 399.131 142.524 399.42 142.72 399.644C142.926 399.868 143.173 400.041 143.462 400.162C143.761 400.274 144.176 400.405 144.708 400.554C145.352 400.731 145.87 400.909 146.262 401.086C146.654 401.254 146.99 401.52 147.27 401.884C147.55 402.239 147.69 402.724 147.69 403.34C147.69 403.816 147.564 404.264 147.312 404.684C147.06 405.104 146.687 405.445 146.192 405.706C145.698 405.967 145.114 406.098 144.442 406.098ZM149.131 402.15C149.131 401.357 149.29 400.666 149.607 400.078C149.925 399.481 150.363 399.019 150.923 398.692C151.493 398.365 152.141 398.202 152.869 398.202C153.812 398.202 154.587 398.431 155.193 398.888C155.809 399.345 156.215 399.98 156.411 400.792H155.039C154.909 400.325 154.652 399.957 154.269 399.686C153.896 399.415 153.429 399.28 152.869 399.28C152.141 399.28 151.553 399.532 151.105 400.036C150.657 400.531 150.433 401.235 150.433 402.15C150.433 403.074 150.657 403.788 151.105 404.292C151.553 404.796 152.141 405.048 152.869 405.048C153.429 405.048 153.896 404.917 154.269 404.656C154.643 404.395 154.899 404.021 155.039 403.536H156.411C156.206 404.32 155.795 404.95 155.179 405.426C154.563 405.893 153.793 406.126 152.869 406.126C152.141 406.126 151.493 405.963 150.923 405.636C150.363 405.309 149.925 404.847 149.607 404.25C149.29 403.653 149.131 402.953 149.131 402.15ZM161.961 398.188C162.54 398.188 163.063 398.314 163.529 398.566C163.996 398.809 164.36 399.177 164.621 399.672C164.892 400.167 165.027 400.769 165.027 401.478V406H163.767V401.66C163.767 400.895 163.576 400.311 163.193 399.91C162.811 399.499 162.288 399.294 161.625 399.294C160.953 399.294 160.417 399.504 160.015 399.924C159.623 400.344 159.427 400.955 159.427 401.758V406H158.153V395.64H159.427V399.42C159.679 399.028 160.025 398.725 160.463 398.51C160.911 398.295 161.411 398.188 161.961 398.188ZM174.15 401.87C174.15 402.113 174.136 402.369 174.108 402.64H167.976C168.023 403.396 168.28 403.989 168.746 404.418C169.222 404.838 169.796 405.048 170.468 405.048C171.019 405.048 171.476 404.922 171.84 404.67C172.214 404.409 172.475 404.063 172.624 403.634H173.996C173.791 404.371 173.38 404.973 172.764 405.44C172.148 405.897 171.383 406.126 170.468 406.126C169.74 406.126 169.087 405.963 168.508 405.636C167.939 405.309 167.491 404.847 167.164 404.25C166.838 403.643 166.674 402.943 166.674 402.15C166.674 401.357 166.833 400.661 167.15 400.064C167.468 399.467 167.911 399.009 168.48 398.692C169.059 398.365 169.722 398.202 170.468 398.202C171.196 398.202 171.84 398.361 172.4 398.678C172.96 398.995 173.39 399.434 173.688 399.994C173.996 400.545 174.15 401.17 174.15 401.87ZM172.834 401.604C172.834 401.119 172.727 400.703 172.512 400.358C172.298 400.003 172.004 399.737 171.63 399.56C171.266 399.373 170.86 399.28 170.412 399.28C169.768 399.28 169.218 399.485 168.76 399.896C168.312 400.307 168.056 400.876 167.99 401.604H172.834ZM175.398 402.136C175.398 401.352 175.557 400.666 175.874 400.078C176.191 399.481 176.625 399.019 177.176 398.692C177.736 398.365 178.361 398.202 179.052 398.202C179.649 398.202 180.205 398.342 180.718 398.622C181.231 398.893 181.623 399.252 181.894 399.7V395.64H183.182V406H181.894V404.558C181.642 405.015 181.269 405.393 180.774 405.692C180.279 405.981 179.701 406.126 179.038 406.126C178.357 406.126 177.736 405.958 177.176 405.622C176.625 405.286 176.191 404.815 175.874 404.208C175.557 403.601 175.398 402.911 175.398 402.136ZM181.894 402.15C181.894 401.571 181.777 401.067 181.544 400.638C181.311 400.209 180.993 399.882 180.592 399.658C180.2 399.425 179.766 399.308 179.29 399.308C178.814 399.308 178.38 399.42 177.988 399.644C177.596 399.868 177.283 400.195 177.05 400.624C176.817 401.053 176.7 401.557 176.7 402.136C176.7 402.724 176.817 403.237 177.05 403.676C177.283 404.105 177.596 404.437 177.988 404.67C178.38 404.894 178.814 405.006 179.29 405.006C179.766 405.006 180.2 404.894 180.592 404.67C180.993 404.437 181.311 404.105 181.544 403.676C181.777 403.237 181.894 402.729 181.894 402.15ZM192.181 398.328V406H190.907V404.866C190.664 405.258 190.324 405.566 189.885 405.79C189.456 406.005 188.98 406.112 188.457 406.112C187.86 406.112 187.323 405.991 186.847 405.748C186.371 405.496 185.993 405.123 185.713 404.628C185.442 404.133 185.307 403.531 185.307 402.822V398.328H186.567V402.654C186.567 403.41 186.758 403.993 187.141 404.404C187.524 404.805 188.046 405.006 188.709 405.006C189.39 405.006 189.927 404.796 190.319 404.376C190.711 403.956 190.907 403.345 190.907 402.542V398.328H192.181ZM195.648 395.64V406H194.374V395.64H195.648ZM204.861 401.87C204.861 402.113 204.847 402.369 204.819 402.64H198.687C198.734 403.396 198.991 403.989 199.457 404.418C199.933 404.838 200.507 405.048 201.179 405.048C201.73 405.048 202.187 404.922 202.551 404.67C202.925 404.409 203.186 404.063 203.335 403.634H204.707C204.502 404.371 204.091 404.973 203.475 405.44C202.859 405.897 202.094 406.126 201.179 406.126C200.451 406.126 199.798 405.963 199.219 405.636C198.65 405.309 198.202 404.847 197.875 404.25C197.549 403.643 197.385 402.943 197.385 402.15C197.385 401.357 197.544 400.661 197.861 400.064C198.179 399.467 198.622 399.009 199.191 398.692C199.77 398.365 200.433 398.202 201.179 398.202C201.907 398.202 202.551 398.361 203.111 398.678C203.671 398.995 204.101 399.434 204.399 399.994C204.707 400.545 204.861 401.17 204.861 401.87ZM203.545 401.604C203.545 401.119 203.438 400.703 203.223 400.358C203.009 400.003 202.715 399.737 202.341 399.56C201.977 399.373 201.571 399.28 201.123 399.28C200.479 399.28 199.929 399.485 199.471 399.896C199.023 400.307 198.767 400.876 198.701 401.604H203.545ZM207.859 399.574C208.083 399.135 208.4 398.795 208.811 398.552C209.231 398.309 209.74 398.188 210.337 398.188V399.504H210.001C208.573 399.504 207.859 400.279 207.859 401.828V406H206.585V398.328H207.859V399.574Z" fill="#666666"/>
<g filter="url(#filter0_bd_6882_6334)">
<rect x="297" y="173" width="86.6484" height="91.8193" rx="27.0776" fill="#034737"/>
<rect x="296.323" y="172.323" width="88.0023" height="93.1732" rx="27.7546" stroke="#EAEAEA" stroke-width="1.35388"/>
</g>
<circle cx="354.208" cy="233.043" r="3.91667" transform="rotate(-180 354.208 233.043)" stroke="white" stroke-width="2.54583" stroke-linecap="round" stroke-linejoin="round"/>
<circle cx="326.79" cy="205.626" r="3.91667" transform="rotate(-180 326.79 205.626)" stroke="white" stroke-width="2.54583" stroke-linecap="round" stroke-linejoin="round"/>
<circle cx="326.79" cy="233.043" r="3.91667" transform="rotate(-180 326.79 233.043)" stroke="white" stroke-width="2.54583" stroke-linecap="round" stroke-linejoin="round"/>
<circle cx="354.208" cy="205.626" r="3.91667" transform="rotate(-180 354.208 205.626)" stroke="white" stroke-width="2.54583" stroke-linecap="round" stroke-linejoin="round"/>
<path d="M352.174 209.463C352.671 208.966 352.671 208.16 352.174 207.663C351.676 207.166 350.87 207.166 350.373 207.663L352.174 209.463ZM328.832 229.205C328.335 229.702 328.335 230.508 328.832 231.005C329.329 231.502 330.135 231.502 330.632 231.005L328.832 229.205ZM352.938 229.126C352.938 229.829 353.508 230.399 354.211 230.399C354.914 230.399 355.484 229.829 355.484 229.126L352.938 229.126ZM355.484 209.542C355.484 208.839 354.914 208.27 354.211 208.27C353.508 208.27 352.938 208.839 352.938 209.542L355.484 209.542ZM325.521 229.126C325.521 229.829 326.091 230.399 326.794 230.399C327.497 230.399 328.067 229.829 328.067 229.126L325.521 229.126ZM328.067 209.542C328.067 208.839 327.497 208.27 326.794 208.27C326.091 208.27 325.521 208.839 325.521 209.542L328.067 209.542ZM350.373 207.663L328.832 229.205L330.632 231.005L352.174 209.463L350.373 207.663ZM355.484 229.126L355.484 209.542L352.938 209.542L352.938 229.126L355.484 229.126ZM328.067 229.126L328.067 209.542L325.521 209.542L325.521 229.126L328.067 229.126Z" fill="white"/>
<defs>
<filter id="filter0_bd_6882_6334" x="238.601" y="114.602" width="203.446" height="208.614" filterUnits="userSpaceOnUse" color-interpolation-filters="sRGB">
<feFlood flood-opacity="0" result="BackgroundImageFix"/>
<feGaussianBlur in="BackgroundImageFix" stdDeviation="28.5218"/>
<feComposite in2="SourceAlpha" operator="in" result="effect1_backgroundBlur_6882_6334"/>
<feColorMatrix in="SourceAlpha" type="matrix" values="0 0 0 0 0 0 0 0 0 0 0 0 0 0 0 0 0 0 127 0" result="hardAlpha"/>
<feOffset dy="8.66484"/>
<feGaussianBlur stdDeviation="6.85967"/>
<feComposite in2="hardAlpha" operator="out"/>
<feColorMatrix type="matrix" values="0 0 0 0 0.0867708 0 0 0 0 0.115317 0 0 0 0 0.141667 0 0 0 0.08 0"/>
<feBlend mode="normal" in2="effect1_backgroundBlur_6882_6334" result="effect2_dropShadow_6882_6334"/>
<feBlend mode="normal" in="SourceGraphic" in2="effect2_dropShadow_6882_6334" result="shape"/>
</filter>
</defs>
</svg>
