<svg width="36" height="36" viewBox="0 0 36 36" fill="none" xmlns="http://www.w3.org/2000/svg">
<g clip-path="url(#clip0_1_303)">
<path d="M33.8407 3.8887H29.1607V2.1607C29.1607 1.3687 28.5127 0.720703 27.7207 0.720703C26.9287 0.720703 26.2807 1.3687 26.2807 2.1607V3.8887H22.6807V2.1607C22.6807 1.3687 22.0327 0.720703 21.2407 0.720703C20.4487 0.720703 19.8007 1.3687 19.8007 2.1607V3.8887H16.2007V2.1607C16.2007 1.3687 15.5527 0.720703 14.7607 0.720703C13.9687 0.720703 13.3207 1.3687 13.3207 2.1607V3.8887H9.7207V2.1607C9.7207 1.3687 9.0727 0.720703 8.2807 0.720703C7.4887 0.720703 6.8407 1.3687 6.8407 2.1607V3.8887H2.1607C1.3687 3.8887 0.720703 4.5367 0.720703 5.3287V33.8407C0.720703 34.6327 1.3687 35.2807 2.1607 35.2807H33.8407C34.6327 35.2807 35.2807 34.6327 35.2807 33.8407V5.3287C35.2807 4.5367 34.6327 3.8887 33.8407 3.8887ZM32.4007 32.4007H3.6007V14.1847H32.4007V32.4007Z" fill="black"/>
<path d="M20.6632 19.296H22.1032C22.8952 19.296 23.5432 18.648 23.5432 17.856C23.5432 17.064 22.8952 16.416 22.1032 16.416H20.6632C19.8712 16.416 19.2232 17.064 19.2232 17.856C19.2232 18.648 19.8712 19.296 20.6632 19.296ZM27.5032 19.296H28.9432C29.7352 19.296 30.3832 18.648 30.3832 17.856C30.3832 17.064 29.7352 16.416 28.9432 16.416H27.5032C26.7112 16.416 26.0632 17.064 26.0632 17.856C26.0632 18.648 26.7112 19.296 27.5032 19.296ZM7.05523 24.768H8.49523C9.28723 24.768 9.93523 24.12 9.93523 23.328C9.93523 22.536 9.28723 21.888 8.49523 21.888H7.05523C6.26323 21.888 5.61523 22.536 5.61523 23.328C5.61523 24.12 6.26323 24.768 7.05523 24.768ZM13.8952 24.768H15.3352C16.1272 24.768 16.7752 24.12 16.7752 23.328C16.7752 22.536 16.1272 21.888 15.3352 21.888H13.8952C13.1032 21.888 12.4552 22.536 12.4552 23.328C12.4552 24.12 13.1032 24.768 13.8952 24.768ZM20.6632 24.768H22.1032C22.8952 24.768 23.5432 24.12 23.5432 23.328C23.5432 22.536 22.8952 21.888 22.1032 21.888H20.6632C19.8712 21.888 19.2232 22.536 19.2232 23.328C19.2232 24.12 19.8712 24.768 20.6632 24.768ZM27.5032 24.768H28.9432C29.7352 24.768 30.3832 24.12 30.3832 23.328C30.3832 22.536 29.7352 21.888 28.9432 21.888H27.5032C26.7112 21.888 26.0632 22.536 26.0632 23.328C26.0632 24.12 26.7112 24.768 27.5032 24.768ZM7.05523 30.168H8.49523C9.28723 30.168 9.93523 29.52 9.93523 28.728C9.93523 27.936 9.28723 27.288 8.49523 27.288H7.05523C6.26323 27.288 5.61523 27.936 5.61523 28.728C5.61523 29.52 6.26323 30.168 7.05523 30.168ZM13.8952 30.168H15.3352C16.1272 30.168 16.7752 29.52 16.7752 28.728C16.7752 27.936 16.1272 27.288 15.3352 27.288H13.8952C13.1032 27.288 12.4552 27.936 12.4552 28.728C12.4552 29.52 13.1032 30.168 13.8952 30.168ZM20.6632 30.168H22.1032C22.8952 30.168 23.5432 29.52 23.5432 28.728C23.5432 27.936 22.8952 27.288 22.1032 27.288H20.6632C19.8712 27.288 19.2232 27.936 19.2232 28.728C19.2232 29.52 19.8712 30.168 20.6632 30.168Z" fill="black"/>
</g>
<defs>
<clipPath id="clip0_1_303">
<rect width="36" height="36" fill="white"/>
</clipPath>
</defs>
</svg>
