<svg width="56" height="56" viewBox="0 0 56 56" fill="none" xmlns="http://www.w3.org/2000/svg">
<path d="M26.7499 23.1643H40.1767V3.41602H14.35V27.1139H22.5935C22.7154 24.9175 24.5247 23.1643 26.7499 23.1643ZM22.6602 11.9165C22.6602 11.3746 22.9386 10.8846 23.4039 10.6071C23.6307 10.4711 23.8892 10.3969 24.1536 10.3919C24.418 10.3868 24.6791 10.4511 24.9109 10.5783L31.0709 13.9308C31.3118 14.0615 31.513 14.2547 31.6532 14.4902C31.7933 14.7257 31.8673 14.9946 31.8673 15.2687C31.8673 15.5427 31.7933 15.8116 31.6532 16.0471C31.513 16.2826 31.3118 16.4759 31.0709 16.6065L24.9101 19.9525C24.6783 20.0796 24.4173 20.144 24.153 20.1394C23.8887 20.1347 23.6301 20.0612 23.4029 19.9261C23.1757 19.7909 22.9877 19.5988 22.8574 19.3688C22.7272 19.1387 22.6592 18.8786 22.6602 18.6143V11.9165ZM47.9887 3.96531C47.9887 3.66225 47.7416 3.41602 47.4386 3.41602H41.8238V23.1643H47.9887V3.96531ZM7.0873 27.1139H12.7029V3.41602H7.0873C6.94154 3.41602 6.80174 3.47386 6.69859 3.57685C6.59545 3.67984 6.5374 3.81955 6.53718 3.96531V26.5646C6.53718 26.8677 6.78424 27.1139 7.0873 27.1139Z" fill="white"/>
<path d="M48.2489 24.8115H26.7499C26.0783 24.8124 25.4345 25.0796 24.9596 25.5544C24.4847 26.0293 24.2176 26.6731 24.2167 27.3447V42.3263C24.2167 42.9344 24.4364 43.522 24.8353 43.981C25.2342 44.4399 25.7854 44.7393 26.3875 44.8241C26.5325 44.8529 26.628 44.8612 26.7499 44.8612H38.4078C38.8558 44.8612 39.2766 45.0366 39.5953 45.3553L44.7967 50.6555L44.8165 46.5214C44.8165 45.6056 45.5659 44.8612 46.4882 44.8612H48.2489C48.9209 44.8603 49.565 44.5929 50.0401 44.1177C50.5151 43.6425 50.7823 42.9983 50.7829 42.3263V27.3447C50.7821 26.673 50.5148 26.029 50.0397 25.5541C49.5647 25.0792 48.9207 24.8122 48.2489 24.8115ZM37.9384 41.3027C37.8072 41.3855 37.6553 41.4295 37.5002 41.4295C37.3451 41.4295 37.1932 41.3855 37.0621 41.3027C36.3555 40.8588 30.1576 36.8449 30.1576 32.7438C30.159 31.5507 30.6335 30.407 31.477 29.5634C32.3206 28.7198 33.4644 28.2453 34.6574 28.244C35.7025 28.244 36.6998 28.6047 37.4986 29.2569C38.3007 28.5999 39.3062 28.2418 40.3431 28.244C42.8202 28.244 44.8354 30.2625 44.8354 32.7438C44.8354 36.8449 38.6449 40.858 37.9384 41.3027Z" fill="white"/>
<path d="M24.9239 46.0746C24.8942 46.0598 24.8621 46.0491 24.8333 46.0334C24.6817 45.9531 24.5353 45.8631 24.3951 45.7641C24.3474 45.732 24.2988 45.7024 24.2535 45.6686C24.1329 45.5762 24.0174 45.4772 23.9076 45.3721C23.8472 45.3168 23.7884 45.2597 23.7314 45.2009C23.5675 45.0277 23.4188 44.8409 23.2867 44.6425C23.2214 44.5465 23.1601 44.4479 23.103 44.3469C23.0424 44.235 22.9869 44.1204 22.9367 44.0034C22.8955 43.9112 22.8535 43.8206 22.8189 43.7251C22.7696 43.5803 22.7284 43.433 22.6954 43.2837C22.6756 43.2038 22.6501 43.1272 22.6361 43.0465C22.5931 42.8087 22.5711 42.5676 22.5702 42.3259V33.1436H7.00138C6.52973 33.1429 6.07705 33.3292 5.74254 33.6617C5.40803 33.9942 5.21898 34.4458 5.2168 34.9174V46.5424C5.21723 47.0158 5.40548 47.4696 5.74021 47.8044C6.07495 48.1391 6.52882 48.3274 7.00221 48.3278H8.3668C9.1788 48.3278 9.84091 48.9883 9.84091 49.8011V52.5838L13.5797 48.7626C13.7173 48.624 13.881 48.5142 14.0614 48.4395C14.2418 48.3649 14.4353 48.3269 14.6306 48.3278H23.6787C24.1506 48.3258 24.6025 48.1368 24.9352 47.802C25.2679 47.4673 25.4543 47.0143 25.4534 46.5424V46.2937H25.4517C25.271 46.2335 25.094 46.1603 24.9239 46.0746ZM18.805 45.5896H9.44974C9.23132 45.5896 9.02186 45.5028 8.86741 45.3484C8.71297 45.1939 8.62621 44.9844 8.62621 44.766C8.62621 44.5476 8.71297 44.3381 8.86741 44.1837C9.02186 44.0293 9.23132 43.9425 9.44974 43.9425H18.805C19.0234 43.9425 19.2329 44.0293 19.3874 44.1837C19.5418 44.3381 19.6286 44.5476 19.6286 44.766C19.6286 44.9844 19.5418 45.1939 19.3874 45.3484C19.2329 45.5028 19.0234 45.5896 18.805 45.5896ZM18.805 41.5996H9.44974C9.23132 41.5996 9.02186 41.5128 8.86741 41.3584C8.71297 41.2039 8.62621 40.9944 8.62621 40.776C8.62621 40.5576 8.71297 40.3481 8.86741 40.1937C9.02186 40.0393 9.23132 39.9525 9.44974 39.9525H18.805C19.0234 39.9525 19.2329 40.0393 19.3874 40.1937C19.5418 40.3481 19.6286 40.5576 19.6286 40.776C19.6286 40.9944 19.5418 41.2039 19.3874 41.3584C19.2329 41.5128 19.0234 41.5996 18.805 41.5996ZM18.805 37.6087H9.44974C9.23132 37.6087 9.02186 37.522 8.86741 37.3675C8.71297 37.2131 8.62621 37.0036 8.62621 36.7852C8.62621 36.5668 8.71297 36.3573 8.86741 36.2029C9.02186 36.0484 9.23132 35.9617 9.44974 35.9617H18.805C19.0234 35.9617 19.2329 36.0484 19.3874 36.2029C19.5418 36.3573 19.6286 36.5668 19.6286 36.7852C19.6286 37.0036 19.5418 37.2131 19.3874 37.3675C19.2329 37.522 19.0234 37.6087 18.805 37.6087Z" fill="white"/>
</svg>
