<svg width="44" height="44" viewBox="0 0 44 44" fill="none" xmlns="http://www.w3.org/2000/svg">
<path d="M34.7602 16.7212V18.4812C34.7602 18.7241 34.5631 18.9212 34.3202 18.9212H9.68023C9.43735 18.9212 9.24023 18.7241 9.24023 18.4812V16.7212C9.24023 16.4784 9.43735 16.2812 9.68023 16.2812H34.3202C34.5631 16.2812 34.7602 16.4784 34.7602 16.7212ZM21.1202 22.0012V30.8012C21.1202 31.0441 20.9231 31.2412 20.6802 31.2412H9.68023C9.43735 31.2412 9.24023 31.0441 9.24023 30.8012V22.0012C9.24023 21.7584 9.43735 21.5612 9.68023 21.5612H20.6802C20.9231 21.5612 21.1202 21.7584 21.1202 22.0012ZM34.7602 22.0012V30.8012C34.7602 31.0441 34.5631 31.2412 34.3202 31.2412H23.3202C23.0774 31.2412 22.8802 31.0441 22.8802 30.8012V22.0012C22.8802 21.7584 23.0774 21.5612 23.3202 21.5612H34.3202C34.5631 21.5612 34.7602 21.7584 34.7602 22.0012Z" fill="black"/>
<path d="M38.28 6.59961H5.71999C4.26183 6.59961 3.07999 7.78145 3.07999 9.23961V34.7596C3.07999 36.2178 4.26183 37.3996 5.71999 37.3996H38.28C39.7381 37.3996 40.92 36.2178 40.92 34.7596V9.23961C40.92 7.78145 39.7381 6.59961 38.28 6.59961ZM35.2 8.35961C35.9291 8.35961 36.52 8.95053 36.52 9.67961C36.52 10.4087 35.9291 10.9996 35.2 10.9996C34.4709 10.9996 33.88 10.4087 33.88 9.67961C33.88 8.95053 34.4709 8.35961 35.2 8.35961ZM29.92 8.35961C30.6491 8.35961 31.24 8.95053 31.24 9.67961C31.24 10.4087 30.6491 10.9996 29.92 10.9996C29.1909 10.9996 28.6 10.4087 28.6 9.67961C28.6 8.95053 29.1909 8.35961 29.92 8.35961ZM24.64 8.35961C25.3691 8.35961 25.96 8.95053 25.96 9.67961C25.96 10.4087 25.3691 10.9996 24.64 10.9996C23.9109 10.9996 23.32 10.4087 23.32 9.67961C23.32 8.95053 23.9109 8.35961 24.64 8.35961ZM38.28 34.3196C38.28 34.5625 38.0829 34.7596 37.84 34.7596H6.15999C5.91711 34.7596 5.71999 34.5625 5.71999 34.3196V13.1996C5.71999 12.9567 5.91711 12.7596 6.15999 12.7596H37.84C38.0829 12.7596 38.28 12.9567 38.28 13.1996V34.3196Z" fill="black"/>
</svg>
