<svg width="53" height="53" viewBox="0 0 53 53" fill="none" xmlns="http://www.w3.org/2000/svg">
<g clip-path="url(#clip0_1_286)">
<path fill-rule="evenodd" clip-rule="evenodd" d="M17.1872 31.2664C16.8443 31.2664 16.5611 30.9906 16.5611 30.6477V26.3323C16.5611 25.9895 16.8443 25.7137 17.1872 25.7137C17.53 25.7137 17.8058 25.9895 17.8058 26.3323V30.6477C17.8058 30.9906 17.53 31.2664 17.1872 31.2664ZM28.3149 31.2664C27.972 31.2664 27.6888 30.9906 27.6888 30.6477V26.3323C27.6888 25.9895 27.972 25.7137 28.3149 25.7137C28.6577 25.7137 28.9335 25.9895 28.9335 26.3323V30.6477C28.9335 30.9906 28.6577 31.2664 28.3149 31.2664ZM33.4203 13.8109C33.0775 13.8109 32.7943 13.5351 32.7943 13.1922V12.6705L30.5881 10.2631L27.6441 11.9625L23.3361 12.8345L18.9909 12.2308L15.0183 10.0991L12.7003 11.955V12.5065C12.7003 12.8494 12.4246 13.1252 12.0817 13.1252C11.7389 13.1252 11.4631 12.8494 11.4631 12.5065V7.31163C11.4631 3.27943 14.7425 0 18.7747 0H28.4341C28.777 0 29.0527 0.27577 29.0527 0.618619V3.45085C31.8403 3.69681 34.039 6.04458 34.039 8.89172V13.1922C34.039 13.5351 33.7557 13.8109 33.4203 13.8109Z" fill="white"/>
<path fill-rule="evenodd" clip-rule="evenodd" d="M22.7473 28.5306C16.5238 28.5306 11.4631 23.4699 11.4631 17.2464V12.5062C11.4631 12.3198 11.5451 12.1484 11.6867 12.0292L14.6158 9.59195C14.8394 9.40562 15.1599 9.39817 15.3909 9.57704C15.4059 9.5845 17.2692 10.9857 20.012 11.6714C23.6417 12.5807 27.0404 11.8726 30.1186 9.56959C30.3645 9.38326 30.7148 9.41307 30.931 9.63667L33.8601 12.6329C33.9719 12.7521 34.039 12.9086 34.039 13.0652V17.2464C34.039 23.4699 28.9708 28.5306 22.7473 28.5306ZM12.7003 12.7968V17.2464C12.7003 22.7842 17.2095 27.2859 22.7473 27.2859C28.2851 27.2859 32.7943 22.7842 32.7943 17.2464V13.3186L30.4167 10.8814C26.3323 13.7285 22.3374 13.5422 19.6617 12.8639C17.4406 12.3049 15.7785 11.3286 15.0481 10.8441L12.7003 12.7968Z" fill="white"/>
<path fill-rule="evenodd" clip-rule="evenodd" d="M22.7474 24.3363C21.5698 24.3363 20.4593 23.8742 19.6245 23.0394C19.386 22.8009 19.386 22.4059 19.6245 22.1599C19.8705 21.9214 20.2655 21.9214 20.504 22.1599C21.7487 23.4046 23.7536 23.4046 24.9983 22.1599C25.2368 21.9214 25.6318 21.9214 25.8778 22.1599C26.1163 22.4059 26.1163 22.7934 25.8778 23.0394C25.0356 23.8742 23.9325 24.3363 22.7474 24.3363ZM19.4233 16.7936C19.3487 16.7936 19.2742 16.7787 19.2071 16.7563C18.2531 16.406 17.3885 16.3986 16.5687 16.7414C16.2557 16.8756 15.8904 16.7265 15.7563 16.406C15.6221 16.093 15.7712 15.7278 16.0917 15.5936C17.1948 15.1315 18.3873 15.1315 19.632 15.5862C20.2804 15.8247 20.109 16.7936 19.4233 16.7936ZM29.1721 16.7936C29.0976 16.7936 29.0305 16.7787 28.956 16.7563C28.002 16.406 27.1374 16.3986 26.3175 16.7414C26.0045 16.8756 25.6393 16.7265 25.5051 16.406C25.371 16.093 25.5275 15.7278 25.8405 15.5936C26.9436 15.1315 28.1361 15.1315 29.3808 15.5862C30.0292 15.8247 29.8578 16.7936 29.1721 16.7936ZM31.7733 50.6313H23.6269L23.4331 50.1394L31.7808 30.0678C34.5832 30.3138 37.162 31.7224 38.8837 33.9435C33.5248 34.1447 29.2317 38.5645 29.2317 43.9681C29.2317 46.5246 30.1932 48.8574 31.7733 50.6313ZM21.8828 50.6313H5.3292C4.98635 50.6313 4.70312 50.3555 4.70312 50.0127V40.1222C4.70312 34.8528 8.75769 30.515 13.9153 30.0678L22.0841 50.1394L21.8828 50.6313ZM15.242 30.0231H17.1873C17.3587 30.0231 17.5227 30.0976 17.642 30.2243L22.8443 35.8217L27.8305 30.2541C27.9647 30.0976 28.1361 30.0231 28.3523 30.0231H30.4541L22.7623 48.5071L15.242 30.0231Z" fill="white"/>
<path fill-rule="evenodd" clip-rule="evenodd" d="M39.2637 53.0003C34.2775 53.0003 30.2229 48.9457 30.2229 43.9669C30.2229 38.9807 34.2775 34.9336 39.2637 34.9336C44.2424 34.9336 48.297 38.9807 48.297 43.9669C48.297 48.9457 44.2424 53.0003 39.2637 53.0003ZM38.6376 49.1171C37.624 49.0351 36.6252 48.655 36.0811 47.9171C35.8799 47.6339 35.9395 47.2463 36.2153 47.0451C36.4911 46.8439 36.8786 46.9035 37.0873 47.1793C37.855 48.2302 41.3208 48.2451 41.3208 46.3147C41.3208 45.3532 40.6351 45.0402 39.0773 44.5557C37.691 44.1234 35.9619 43.5868 35.9619 41.6117C35.9619 40.0018 37.2066 39.1149 38.6376 38.8689V38.213C38.6376 37.8702 38.9208 37.5944 39.2637 37.5944C39.6065 37.5944 39.8823 37.8702 39.8823 38.213V38.8093C40.9332 38.8913 41.9245 39.3086 42.4462 40.0167C42.6474 40.2925 42.5878 40.68 42.3121 40.8813C42.0363 41.09 41.6413 41.0303 41.44 40.7546C40.6723 39.6962 37.2066 39.6888 37.2066 41.6117C37.2066 42.5732 37.8848 42.8862 39.45 43.3707C40.8363 43.803 42.5655 44.3396 42.5655 46.3147C42.5655 47.9171 41.3357 48.819 39.8823 49.0649V49.7134C39.8823 50.0562 39.6065 50.332 39.2637 50.332C38.9208 50.332 38.6376 50.0562 38.6376 49.7134V49.1171Z" fill="white"/>
</g>
<defs>
<clipPath id="clip0_1_286">
<rect width="53" height="53" fill="white"/>
</clipPath>
</defs>
</svg>
