<svg width="34" height="30" viewBox="0 0 34 30" fill="none" xmlns="http://www.w3.org/2000/svg">
<path fill-rule="evenodd" clip-rule="evenodd" d="M8.75 3.25H5.75V0.25H8.75V3.25ZM14.75 3.25H11.75V0.25H14.75V3.25ZM20.75 3.25H17.75V0.25H20.75V3.25ZM0.5 5.5C0.5 4.67158 1.17158 4 2 4H32C32.8284 4 33.5 4.67158 33.5 5.5V28C33.5 28.8284 32.8284 29.5 32 29.5H2C1.17158 29.5 0.5 28.8284 0.5 28V5.5ZM19.6894 8.93933C20.2751 8.35355 21.2249 8.35355 21.8106 8.93933L24.8106 11.9394C25.3964 12.5251 25.3964 13.4749 24.8106 14.0606L14.3106 24.5606C14.0294 24.8419 13.6478 25 13.25 25H10.25C9.42158 25 8.75 24.3284 8.75 23.5V20.5C8.75 20.1022 8.90804 19.7206 9.18934 19.4394L19.6894 8.93933Z" fill="black"/>
</svg>
