<svg width="197" height="60" viewBox="0 0 197 60" fill="none" xmlns="http://www.w3.org/2000/svg">
<rect y="0.910156" width="196.364" height="58.1818" rx="10" fill="black"/>
<path d="M99.1067 32.5473C95.6856 32.5473 92.8973 35.1494 92.8973 38.7334C92.8973 42.2956 95.6856 44.9196 99.1067 44.9196C102.529 44.9196 105.318 42.2956 105.318 38.7334C105.316 35.1494 102.528 32.5473 99.1067 32.5473ZM99.1067 42.4847C97.2318 42.4847 95.6158 40.9385 95.6158 38.7349C95.6158 36.508 97.2333 34.9851 99.1067 34.9851C100.982 34.9851 102.598 36.508 102.598 38.7349C102.598 40.9371 100.982 42.4847 99.1067 42.4847ZM85.5591 32.5473C82.138 32.5473 79.3496 35.1494 79.3496 38.7334C79.3496 42.2956 82.138 44.9196 85.5591 44.9196C88.9816 44.9196 91.77 42.2956 91.77 38.7334C91.77 35.1494 88.9816 32.5473 85.5591 32.5473ZM85.5591 42.4847C83.6842 42.4847 82.0682 40.9385 82.0682 38.7349C82.0682 36.508 83.6856 34.9851 85.5591 34.9851C87.434 34.9851 89.05 36.508 89.05 38.7349C89.0514 40.9371 87.434 42.4847 85.5591 42.4847ZM69.4456 34.4469V37.0709H75.7264C75.5387 38.5473 75.0471 39.6251 74.2965 40.3742C73.3831 41.2876 71.9533 42.2956 69.4456 42.2956C65.5794 42.2956 62.5569 39.1785 62.5569 35.3124C62.5569 31.4462 65.5794 28.3291 69.4456 28.3291C71.5314 28.3291 73.0544 29.1494 74.1787 30.204L76.0304 28.3524C74.4594 26.8527 72.3751 25.7051 69.4456 25.7051C64.1496 25.7051 59.6973 30.0164 59.6973 35.3124C59.6973 40.6084 64.1496 44.9196 69.4456 44.9196C72.3038 44.9196 74.4609 43.9814 76.1467 42.2243C77.8805 40.4905 78.4202 38.0527 78.4202 36.0847C78.4202 35.4767 78.3736 34.9138 78.2791 34.4454H69.4456V34.4469ZM135.348 36.4847C134.833 35.1029 133.262 32.5473 130.052 32.5473C126.865 32.5473 124.217 35.0549 124.217 38.7334C124.217 42.2011 126.842 44.9196 130.356 44.9196C133.191 44.9196 134.832 43.1858 135.513 42.1778L133.403 40.7713C132.701 41.8025 131.739 42.4818 130.356 42.4818C128.974 42.4818 127.99 41.8491 127.357 40.6069L135.629 37.1858L135.348 36.4847ZM126.912 38.5473C126.842 36.156 128.763 34.9385 130.147 34.9385C131.225 34.9385 132.138 35.4782 132.443 36.2505L126.912 38.5473ZM120.187 44.5458H122.905V26.3625H120.187V44.5458ZM115.734 33.9305H115.641C115.031 33.2033 113.859 32.5473 112.384 32.5473C109.29 32.5473 106.455 35.2658 106.455 38.7582C106.455 42.2258 109.29 44.9211 112.384 44.9211C113.86 44.9211 115.031 44.2651 115.641 43.516H115.734V44.4062C115.734 46.7727 114.468 48.0382 112.43 48.0382C110.766 48.0382 109.735 46.844 109.313 45.836L106.947 46.8207C107.626 48.46 109.43 50.476 112.43 50.476C115.617 50.476 118.313 48.6011 118.313 44.0309V32.924H115.735V33.9305H115.734ZM112.618 42.4847C110.743 42.4847 109.174 40.9138 109.174 38.7582C109.174 36.5778 110.743 34.9851 112.618 34.9851C114.468 34.9851 115.921 36.5778 115.921 38.7582C115.921 40.9138 114.468 42.4847 112.618 42.4847ZM148.081 26.3625H141.578V44.5458H144.291V37.6571H148.08C151.088 37.6571 154.046 35.4796 154.046 32.0105C154.046 28.5414 151.089 26.3625 148.081 26.3625ZM148.151 35.1262H144.291V28.8934H148.151C150.18 28.8934 151.332 30.5734 151.332 32.0105C151.332 33.4185 150.18 35.1262 148.151 35.1262ZM164.925 32.5153C162.96 32.5153 160.925 33.3807 160.083 35.2993L162.491 36.3043C163.006 35.2993 163.966 34.9705 164.971 34.9705C166.375 34.9705 167.802 35.8127 167.825 37.3094V37.4971C167.334 37.2163 166.281 36.796 164.995 36.796C162.398 36.796 159.754 38.2229 159.754 40.8891C159.754 43.3225 161.883 44.8891 164.269 44.8891C166.093 44.8891 167.099 44.0702 167.731 43.1102H167.824V44.5138H170.445V37.5422C170.446 34.316 168.035 32.5153 164.925 32.5153ZM164.596 42.4804C163.709 42.4804 162.468 42.0353 162.468 40.9356C162.468 39.532 164.013 38.9938 165.347 38.9938C166.538 38.9938 167.101 39.2513 167.825 39.6018C167.614 41.2876 166.164 42.4804 164.596 42.4804ZM179.99 32.9123L176.878 40.796H176.785L173.556 32.9123H170.633L175.475 43.9305L172.714 50.06H175.545L183.008 32.9123H179.99ZM155.545 44.5458H158.257V26.3625H155.545V44.5458Z" fill="white"/>
<path d="M68.9717 15.8099C68.9717 17.0288 68.611 17.999 67.8881 18.7233C67.0677 19.5844 65.9972 20.015 64.6823 20.015C63.4226 20.015 62.3506 19.5786 61.4706 18.7059C60.5892 17.8317 60.1484 16.7495 60.1484 15.4579C60.1484 14.1648 60.5892 13.0826 61.4706 12.2099C62.3506 11.3357 63.4226 10.8993 64.6823 10.8993C65.3077 10.8993 65.9055 11.0215 66.4728 11.2644C67.0415 11.5088 67.4968 11.8331 67.8372 12.239L67.0706 13.007C66.4932 12.3161 65.6975 11.9713 64.6808 11.9713C63.7615 11.9713 62.9673 12.2942 62.2968 12.9401C61.6263 13.5859 61.2917 14.4251 61.2917 15.4564C61.2917 16.4877 61.6263 17.327 62.2968 17.9728C62.9673 18.6186 63.7615 18.9415 64.6808 18.9415C65.6553 18.9415 66.4684 18.6171 67.1186 17.967C67.5404 17.5437 67.7848 16.9546 67.8503 16.1997H64.6808V15.151H68.9092C68.9528 15.3793 68.9717 15.599 68.9717 15.8099Z" fill="white"/>
<path d="M75.6773 12.1649H71.7035V14.9314H75.2875V15.9801H71.7035V18.7467H75.6773V19.8201H70.582V11.0929H75.6773V12.1649Z" fill="white"/>
<path d="M80.4059 19.8201H79.2844V12.1649H76.8466V11.0929H82.8437V12.1649H80.4059V19.8201Z" fill="white"/>
<path d="M87.1825 19.8201V11.0929H88.304V19.8201H87.1825Z" fill="white"/>
<path d="M93.2773 19.8201H92.1559V12.1649H89.718V11.0929H95.7151V12.1649H93.2773V19.8201Z" fill="white"/>
<path d="M107.068 18.6928C106.209 19.5743 105.143 20.015 103.868 20.015C102.592 20.015 101.526 19.5743 100.669 18.6928C99.8108 17.8114 99.3832 16.7321 99.3832 15.4565C99.3832 14.1808 99.8108 13.1016 100.669 12.2201C101.526 11.3387 102.592 10.8965 103.868 10.8965C105.136 10.8965 106.201 11.3401 107.062 12.2259C107.923 13.1118 108.353 14.1881 108.353 15.4565C108.353 16.7321 107.924 17.8114 107.068 18.6928ZM101.497 17.9612C102.142 18.6158 102.932 18.9416 103.868 18.9416C104.803 18.9416 105.594 18.6143 106.238 17.9612C106.884 17.3067 107.209 16.4718 107.209 15.4565C107.209 14.4412 106.884 13.6063 106.238 12.9518C105.594 12.2972 104.803 11.9714 103.868 11.9714C102.932 11.9714 102.142 12.2987 101.497 12.9518C100.852 13.6063 100.528 14.4412 100.528 15.4565C100.528 16.4718 100.852 17.3067 101.497 17.9612Z" fill="white"/>
<path d="M109.927 19.8201V11.0929H111.292L115.533 17.8812H115.581L115.533 16.1998V11.0929H116.654V19.8201H115.484L111.046 12.7016H110.998L111.046 14.383V19.8201H109.927Z" fill="white"/>
<path d="M68.9717 15.8099C68.9717 17.0288 68.611 17.999 67.8881 18.7233C67.0677 19.5844 65.9972 20.015 64.6823 20.015C63.4226 20.015 62.3506 19.5786 61.4706 18.7059C60.5892 17.8317 60.1484 16.7495 60.1484 15.4579C60.1484 14.1648 60.5892 13.0826 61.4706 12.2099C62.3506 11.3357 63.4226 10.8993 64.6823 10.8993C65.3077 10.8993 65.9055 11.0215 66.4728 11.2644C67.0415 11.5088 67.4968 11.8331 67.8372 12.239L67.0706 13.007C66.4932 12.3161 65.6975 11.9713 64.6808 11.9713C63.7615 11.9713 62.9673 12.2942 62.2968 12.9401C61.6263 13.5859 61.2917 14.4251 61.2917 15.4564C61.2917 16.4877 61.6263 17.327 62.2968 17.9728C62.9673 18.6186 63.7615 18.9415 64.6808 18.9415C65.6553 18.9415 66.4684 18.6171 67.1186 17.967C67.5404 17.5437 67.7848 16.9546 67.8503 16.1997H64.6808V15.151H68.9092C68.9528 15.3793 68.9717 15.599 68.9717 15.8099Z" stroke="white" stroke-width="0.290909" stroke-miterlimit="10"/>
<path d="M75.6773 12.1649H71.7035V14.9314H75.2875V15.9801H71.7035V18.7467H75.6773V19.8201H70.582V11.0929H75.6773V12.1649Z" stroke="white" stroke-width="0.290909" stroke-miterlimit="10"/>
<path d="M80.4059 19.8201H79.2844V12.1649H76.8466V11.0929H82.8437V12.1649H80.4059V19.8201Z" stroke="white" stroke-width="0.290909" stroke-miterlimit="10"/>
<path d="M87.1825 19.8201V11.0929H88.304V19.8201H87.1825Z" stroke="white" stroke-width="0.290909" stroke-miterlimit="10"/>
<path d="M93.2773 19.8201H92.1559V12.1649H89.718V11.0929H95.7151V12.1649H93.2773V19.8201Z" stroke="white" stroke-width="0.290909" stroke-miterlimit="10"/>
<path d="M107.068 18.6928C106.209 19.5743 105.143 20.015 103.868 20.015C102.592 20.015 101.526 19.5743 100.669 18.6928C99.8108 17.8114 99.3832 16.7321 99.3832 15.4565C99.3832 14.1808 99.8108 13.1016 100.669 12.2201C101.526 11.3387 102.592 10.8965 103.868 10.8965C105.136 10.8965 106.201 11.3401 107.062 12.2259C107.923 13.1118 108.353 14.1881 108.353 15.4565C108.353 16.7321 107.924 17.8114 107.068 18.6928ZM101.497 17.9612C102.142 18.6158 102.932 18.9416 103.868 18.9416C104.803 18.9416 105.594 18.6143 106.238 17.9612C106.884 17.3067 107.209 16.4718 107.209 15.4565C107.209 14.4412 106.884 13.6063 106.238 12.9518C105.594 12.2972 104.803 11.9714 103.868 11.9714C102.932 11.9714 102.142 12.2987 101.497 12.9518C100.852 13.6063 100.528 14.4412 100.528 15.4565C100.528 16.4718 100.852 17.3067 101.497 17.9612Z" stroke="white" stroke-width="0.290909" stroke-miterlimit="10"/>
<path d="M109.927 19.8201V11.0929H111.292L115.533 17.8812H115.581L115.533 16.1998V11.0929H116.654V19.8201H115.484L111.046 12.7016H110.998L111.046 14.383V19.8201H109.927Z" stroke="white" stroke-width="0.290909" stroke-miterlimit="10"/>
<g filter="url(#filter0_ii_1_225)">
<path d="M15.1793 11.8738C14.756 12.3218 14.5059 13.017 14.5059 13.9174V46.0861C14.5059 46.9879 14.756 47.6818 15.1793 48.1298L15.287 48.2345L33.3073 30.2141V30.0018V29.7894L15.287 11.7676L15.1793 11.8738Z" fill="url(#paint0_linear_1_225)"/>
<path d="M39.3144 36.2239L33.3086 30.2152V30.0028V29.7905L39.3159 23.7832L39.4511 23.8603L46.5682 27.9039C48.6002 29.0588 48.6002 30.9483 46.5682 32.1047L39.4511 36.1483L39.3144 36.2239Z" fill="url(#paint1_linear_1_225)"/>
<g filter="url(#filter1_i_1_225)">
<path d="M39.4502 36.146L33.3062 30.002L15.1797 48.13C15.8488 48.8398 16.9557 48.927 18.2022 48.2201L39.4502 36.146Z" fill="url(#paint2_linear_1_225)"/>
</g>
<path d="M39.4502 23.8584L18.2022 11.7857C16.9557 11.0773 15.8488 11.1661 15.1797 11.8759L33.3077 30.0039L39.4502 23.8584Z" fill="url(#paint3_linear_1_225)"/>
</g>
<defs>
<filter id="filter0_ii_1_225" x="14.5059" y="11.2969" width="33.5864" height="37.4116" filterUnits="userSpaceOnUse" color-interpolation-filters="sRGB">
<feFlood flood-opacity="0" result="BackgroundImageFix"/>
<feBlend mode="normal" in="SourceGraphic" in2="BackgroundImageFix" result="shape"/>
<feColorMatrix in="SourceAlpha" type="matrix" values="0 0 0 0 0 0 0 0 0 0 0 0 0 0 0 0 0 0 127 0" result="hardAlpha"/>
<feOffset dy="-0.218182"/>
<feComposite in2="hardAlpha" operator="arithmetic" k2="-1" k3="1"/>
<feColorMatrix type="matrix" values="0 0 0 0 0 0 0 0 0 0 0 0 0 0 0 0 0 0 0.12 0"/>
<feBlend mode="normal" in2="shape" result="effect1_innerShadow_1_225"/>
<feColorMatrix in="SourceAlpha" type="matrix" values="0 0 0 0 0 0 0 0 0 0 0 0 0 0 0 0 0 0 127 0" result="hardAlpha"/>
<feOffset dy="0.218182"/>
<feComposite in2="hardAlpha" operator="arithmetic" k2="-1" k3="1"/>
<feColorMatrix type="matrix" values="0 0 0 0 1 0 0 0 0 1 0 0 0 0 1 0 0 0 0.25 0"/>
<feBlend mode="normal" in2="effect1_innerShadow_1_225" result="effect2_innerShadow_1_225"/>
</filter>
<filter id="filter1_i_1_225" x="15.1797" y="30.002" width="24.2706" height="18.7065" filterUnits="userSpaceOnUse" color-interpolation-filters="sRGB">
<feFlood flood-opacity="0" result="BackgroundImageFix"/>
<feBlend mode="normal" in="SourceGraphic" in2="BackgroundImageFix" result="shape"/>
<feColorMatrix in="SourceAlpha" type="matrix" values="0 0 0 0 0 0 0 0 0 0 0 0 0 0 0 0 0 0 127 0" result="hardAlpha"/>
<feOffset dy="-0.218182"/>
<feComposite in2="hardAlpha" operator="arithmetic" k2="-1" k3="1"/>
<feColorMatrix type="matrix" values="0 0 0 0 0 0 0 0 0 0 0 0 0 0 0 0 0 0 0.08 0"/>
<feBlend mode="normal" in2="shape" result="effect1_innerShadow_1_225"/>
</filter>
<linearGradient id="paint0_linear_1_225" x1="31.7099" y1="13.577" x2="7.29975" y2="37.9872" gradientUnits="userSpaceOnUse">
<stop stop-color="#00A0FF"/>
<stop offset="0.0066" stop-color="#00A1FF"/>
<stop offset="0.2601" stop-color="#00BEFF"/>
<stop offset="0.5122" stop-color="#00D2FF"/>
<stop offset="0.7604" stop-color="#00DFFF"/>
<stop offset="1" stop-color="#00E3FF"/>
</linearGradient>
<linearGradient id="paint1_linear_1_225" x1="49.2133" y1="30.0028" x2="14.0193" y2="30.0028" gradientUnits="userSpaceOnUse">
<stop stop-color="#FFE000"/>
<stop offset="0.4087" stop-color="#FFBD00"/>
<stop offset="0.7754" stop-color="#FFA500"/>
<stop offset="1" stop-color="#FF9C00"/>
</linearGradient>
<linearGradient id="paint2_linear_1_225" x1="36.1137" y1="33.3385" x2="3.01038" y2="66.4418" gradientUnits="userSpaceOnUse">
<stop stop-color="#FF3A44"/>
<stop offset="1" stop-color="#C31162"/>
</linearGradient>
<linearGradient id="paint3_linear_1_225" x1="10.6145" y1="1.16724" x2="25.396" y2="15.9488" gradientUnits="userSpaceOnUse">
<stop stop-color="#32A071"/>
<stop offset="0.0685" stop-color="#2DA771"/>
<stop offset="0.4762" stop-color="#15CF74"/>
<stop offset="0.8009" stop-color="#06E775"/>
<stop offset="1" stop-color="#00F076"/>
</linearGradient>
</defs>
</svg>
