<?xml version="1.0" encoding="UTF-8"?>
<!DOCTYPE svg PUBLIC "-//W3C//DTD SVG 1.1//EN" "http://www.w3.org/Graphics/SVG/1.1/DTD/svg11.dtd">
<svg xmlns="http://www.w3.org/2000/svg" version="1.1" width="269px" height="295px" style="shape-rendering:geometricPrecision; text-rendering:geometricPrecision; image-rendering:optimizeQuality; fill-rule:evenodd; clip-rule:evenodd" xmlns:xlink="http://www.w3.org/1999/xlink">
<g><path style="opacity:1" fill="#73a071" d="M 129.5,13.5 C 130.833,13.5 132.167,13.5 133.5,13.5C 130.095,25.0483 126.095,36.3816 121.5,47.5C 112.5,53.3357 103.167,58.6691 93.5,63.5C 91.1667,63.5 88.8333,63.5 86.5,63.5C 86.5,62.1667 86.5,60.8333 86.5,59.5C 87.8333,59.5 89.1667,59.5 90.5,59.5C 90.5,58.1667 90.5,56.8333 90.5,55.5C 88.4588,55.8541 86.6255,55.8541 85,55.5C 85.5704,52.2498 86.0704,48.9164 86.5,45.5C 85.5,45.5 84.5,45.5 83.5,45.5C 83.67,46.8221 83.3366,47.9887 82.5,49C 79.5212,49.8909 76.5212,50.7243 73.5,51.5C 72.1667,51.1667 70.8333,50.8333 69.5,50.5C 71.6367,49.9202 73.47,48.9202 75,47.5C 75.3333,47.8333 75.6667,48.1667 76,48.5C 76.4828,47.552 76.6495,46.552 76.5,45.5C 78.5,45.5 80.5,45.5 82.5,45.5C 82.5,44.1667 82.5,42.8333 82.5,41.5C 85.8333,41.5 89.1667,41.5 92.5,41.5C 93.1667,39.5 93.8333,37.5 94.5,35.5C 98.0932,34.6628 100.76,32.6628 102.5,29.5C 110.997,23.4143 119.997,18.0809 129.5,13.5 Z"/></g>
<g><path style="opacity:1" fill="#2d462e" d="M 136.5,10.5 C 141.816,13.472 147.15,16.472 152.5,19.5C 152.539,20.5832 152.873,21.5832 153.5,22.5C 155.332,23.0568 156.665,24.0568 157.5,25.5C 155.856,25.2865 154.356,25.6198 153,26.5C 152.982,28.7972 153.149,31.1305 153.5,33.5C 152.325,33.281 151.325,33.6143 150.5,34.5C 151.689,35.4287 153.022,35.762 154.5,35.5C 154.75,40.5009 155.083,45.5009 155.5,50.5C 155.68,54.0343 155.013,57.3676 153.5,60.5C 155.138,64.9804 155.971,69.6471 156,74.5C 156.181,83.7444 156.681,92.911 157.5,102C 157.167,102.333 156.833,102.667 156.5,103C 159.492,104.606 162.492,106.272 165.5,108C 164.944,108.383 164.611,108.883 164.5,109.5C 159.532,107.35 154.865,104.683 150.5,101.5C 150.5,100.167 150.5,98.8333 150.5,97.5C 148.176,97.3385 146.509,96.1718 145.5,94C 146.516,93.4806 147.182,92.6473 147.5,91.5C 145.73,69.3695 144.23,47.0362 143,24.5C 141.578,19.8997 139.578,15.5663 137,11.5C 136.617,12.056 136.117,12.3893 135.5,12.5C 135.328,11.5084 135.662,10.8417 136.5,10.5 Z"/></g>
<g><path style="opacity:1" fill="#364f36" d="M 157.5,25.5 C 159.636,26.7189 161.969,27.5522 164.5,28C 168.618,31.0256 168.285,33.0256 163.5,34C 166.842,37.4039 167.508,41.4039 165.5,46C 165.773,48.1509 166.439,50.1509 167.5,52C 166.833,52.3333 166.167,52.6667 165.5,53C 166.376,54.5848 167.709,55.5848 169.5,56C 169.167,56.3333 168.833,56.6667 168.5,57C 170.935,57.0748 171.602,57.9081 170.5,59.5C 167.622,58.63 164.955,57.2967 162.5,55.5C 161.167,63.5 161.167,71.5 162.5,79.5C 164.893,80.9295 167.226,82.2628 169.5,83.5C 166.428,83.1826 163.428,83.5159 160.5,84.5C 161.279,89.1133 161.779,93.78 162,98.5C 163.487,99.2529 163.654,100.086 162.5,101C 165.011,103.326 166.344,106.159 166.5,109.5C 173.258,110.862 178.591,114.196 182.5,119.5C 176.17,116.67 170.17,113.337 164.5,109.5C 164.611,108.883 164.944,108.383 165.5,108C 162.492,106.272 159.492,104.606 156.5,103C 156.833,102.667 157.167,102.333 157.5,102C 156.681,92.911 156.181,83.7444 156,74.5C 155.971,69.6471 155.138,64.9804 153.5,60.5C 155.013,57.3676 155.68,54.0343 155.5,50.5C 155.083,45.5009 154.75,40.5009 154.5,35.5C 153.022,35.762 151.689,35.4287 150.5,34.5C 151.325,33.6143 152.325,33.281 153.5,33.5C 153.149,31.1305 152.982,28.7972 153,26.5C 154.356,25.6198 155.856,25.2865 157.5,25.5 Z"/></g>
<g><path style="opacity:1" fill="#456144" d="M 152.5,19.5 C 159.534,23.0115 166.201,27.0115 172.5,31.5C 171.998,38.5382 172.665,45.5382 174.5,52.5C 173.833,53.8333 173.167,55.1667 172.5,56.5C 174.431,58.7158 176.098,61.0492 177.5,63.5C 174.9,62.5324 172.566,61.1991 170.5,59.5C 171.602,57.9081 170.935,57.0748 168.5,57C 168.833,56.6667 169.167,56.3333 169.5,56C 167.709,55.5848 166.376,54.5848 165.5,53C 166.167,52.6667 166.833,52.3333 167.5,52C 166.439,50.1509 165.773,48.1509 165.5,46C 167.508,41.4039 166.842,37.4039 163.5,34C 168.285,33.0256 168.618,31.0256 164.5,28C 161.969,27.5522 159.636,26.7189 157.5,25.5C 156.665,24.0568 155.332,23.0568 153.5,22.5C 152.873,21.5832 152.539,20.5832 152.5,19.5 Z"/></g>
<g><path style="opacity:1" fill="#8aad81" d="M 136.5,10.5 C 135.662,10.8417 135.328,11.5084 135.5,12.5C 136.1,22.428 135.433,32.0947 133.5,41.5C 129.728,43.9339 125.728,45.9339 121.5,47.5C 126.095,36.3816 130.095,25.0483 133.5,13.5C 132.167,13.5 130.833,13.5 129.5,13.5C 131.187,11.8338 133.187,10.5005 135.5,9.5C 136.107,9.62358 136.44,9.95691 136.5,10.5 Z"/></g>
<g><path style="opacity:1" fill="#203821" d="M 150.5,101.5 C 145.49,98.8168 140.49,96.1501 135.5,93.5C 135.827,83.6522 135.494,73.9856 134.5,64.5C 135.135,60.5815 135.468,56.5815 135.5,52.5C 135.489,48.4348 134.822,44.7681 133.5,41.5C 135.433,32.0947 136.1,22.428 135.5,12.5C 136.117,12.3893 136.617,12.056 137,11.5C 139.578,15.5663 141.578,19.8997 143,24.5C 144.23,47.0362 145.73,69.3695 147.5,91.5C 147.182,92.6473 146.516,93.4806 145.5,94C 146.509,96.1718 148.176,97.3385 150.5,97.5C 150.5,98.8333 150.5,100.167 150.5,101.5 Z"/></g>
<g><path style="opacity:1" fill="#50714f" d="M 172.5,31.5 C 178.668,34.0804 184.335,37.4137 189.5,41.5C 189.904,42.7564 190.571,43.9231 191.5,45C 191.265,45.8732 190.931,46.7065 190.5,47.5C 191.758,46.9836 192.758,47.6503 193.5,49.5C 194.332,54.4787 194.998,59.4787 195.5,64.5C 194.986,66.6052 194.653,68.4386 194.5,70C 195.973,70.7096 196.64,71.8762 196.5,73.5C 198.5,73.5 200.5,73.5 202.5,73.5C 202.567,74.9587 202.234,76.2921 201.5,77.5C 193.132,73.321 185.132,68.6544 177.5,63.5C 176.098,61.0492 174.431,58.7158 172.5,56.5C 173.167,55.1667 173.833,53.8333 174.5,52.5C 172.665,45.5382 171.998,38.5382 172.5,31.5 Z"/></g>
<g><path style="opacity:1" fill="#6d946a" d="M 102.5,29.5 C 100.76,32.6628 98.0932,34.6628 94.5,35.5C 93.8333,37.5 93.1667,39.5 92.5,41.5C 89.1667,41.5 85.8333,41.5 82.5,41.5C 82.5,42.8333 82.5,44.1667 82.5,45.5C 80.5,45.5 78.5,45.5 76.5,45.5C 76.6495,46.552 76.4828,47.552 76,48.5C 75.6667,48.1667 75.3333,47.8333 75,47.5C 73.47,48.9202 71.6367,49.9202 69.5,50.5C 70.8333,50.8333 72.1667,51.1667 73.5,51.5C 76.5212,50.7243 79.5212,49.8909 82.5,49C 83.3366,47.9887 83.67,46.8221 83.5,45.5C 84.5,45.5 85.5,45.5 86.5,45.5C 86.0704,48.9164 85.5704,52.2498 85,55.5C 86.6255,55.8541 88.4588,55.8541 90.5,55.5C 90.5,56.8333 90.5,58.1667 90.5,59.5C 89.1667,59.5 87.8333,59.5 86.5,59.5C 86.5,60.8333 86.5,62.1667 86.5,63.5C 88.8333,63.5 91.1667,63.5 93.5,63.5C 84.5002,69.3357 75.1669,74.6691 65.5,79.5C 64.1667,79.5 62.8333,79.5 61.5,79.5C 61.3601,77.8762 62.0267,76.7096 63.5,76C 60.712,75.2736 59.212,73.4402 59,70.5C 56.8697,69.8592 55.3697,68.5259 54.5,66.5C 56.3909,65.6893 57.7242,64.3559 58.5,62.5C 56.5934,61.6301 54.7601,60.6301 53,59.5C 50.317,62.074 47.1503,63.4074 43.5,63.5C 44.5736,62.1154 45.9069,60.9487 47.5,60C 65.7401,49.5765 84.0734,39.4098 102.5,29.5 Z"/></g>
<g><path style="opacity:1" fill="#0e140d" d="M 133.5,41.5 C 134.822,44.7681 135.489,48.4348 135.5,52.5C 135.468,56.5815 135.135,60.5815 134.5,64.5C 129.216,67.1373 124.216,70.1373 119.5,73.5C 115.827,75.0002 112.494,77.0002 109.5,79.5C 101.874,82.9795 94.5403,86.9795 87.5,91.5C 83.3059,94.5969 78.6392,96.5969 73.5,97.5C 62.965,96.6836 52.6316,95.3503 42.5,93.5C 46.772,91.2256 50.772,88.5589 54.5,85.5C 58.6553,84.2583 62.322,82.2583 65.5,79.5C 75.1669,74.6691 84.5002,69.3357 93.5,63.5C 103.167,58.6691 112.5,53.3357 121.5,47.5C 125.728,45.9339 129.728,43.9339 133.5,41.5 Z"/></g>
<g><path style="opacity:1" fill="#5d805a" d="M 189.5,41.5 C 192.79,43.0907 196.123,44.7573 199.5,46.5C 203.167,58.4993 206.833,70.4993 210.5,82.5C 207.331,81.0834 204.331,79.4168 201.5,77.5C 202.234,76.2921 202.567,74.9587 202.5,73.5C 200.5,73.5 198.5,73.5 196.5,73.5C 196.64,71.8762 195.973,70.7096 194.5,70C 194.653,68.4386 194.986,66.6052 195.5,64.5C 194.998,59.4787 194.332,54.4787 193.5,49.5C 192.758,47.6503 191.758,46.9836 190.5,47.5C 190.931,46.7065 191.265,45.8732 191.5,45C 190.571,43.9231 189.904,42.7564 189.5,41.5 Z"/></g>
<g><path style="opacity:1" fill="#83a679" d="M 199.5,46.5 C 206.833,50.8333 214.167,55.1667 221.5,59.5C 222.72,61.2821 223.386,63.2821 223.5,65.5C 225.833,65.5 228.167,65.5 230.5,65.5C 230.012,68.7107 230.679,71.544 232.5,74C 231.833,74.3333 231.167,74.6667 230.5,75C 231.667,75.5 232.5,76.3333 233,77.5C 234.483,75.0542 235.649,75.3876 236.5,78.5C 235.528,80.3049 234.361,81.9716 233,83.5C 232.692,82.6919 232.192,82.0253 231.5,81.5C 230.571,82.6888 230.238,84.0222 230.5,85.5C 231.5,85.5 232.5,85.5 233.5,85.5C 233.708,87.9201 233.374,90.2534 232.5,92.5C 235.842,94.1625 238.509,96.4958 240.5,99.5C 230.211,94.3551 220.211,88.6884 210.5,82.5C 206.833,70.4993 203.167,58.4993 199.5,46.5 Z"/></g>
<g><path style="opacity:1" fill="#5e815a" d="M 65.5,79.5 C 62.322,82.2583 58.6553,84.2583 54.5,85.5C 50.4862,85.6655 46.4862,85.4988 42.5,85C 40.8624,82.8665 40.029,80.3665 40,77.5C 39.6667,77.1667 39.3333,76.8333 39,76.5C 38.5172,77.448 38.3505,78.448 38.5,79.5C 37.1779,79.33 36.0113,79.6634 35,80.5C 33.2389,83.4111 31.7389,86.4111 30.5,89.5C 25.457,96.2518 21.457,103.585 18.5,111.5C 17.8333,111.833 17.1667,112.167 16.5,112.5C 16.5,101.167 16.5,89.8333 16.5,78.5C 25.2603,73.0741 34.2603,68.0741 43.5,63.5C 47.1503,63.4074 50.317,62.074 53,59.5C 54.7601,60.6301 56.5934,61.6301 58.5,62.5C 57.7242,64.3559 56.3909,65.6893 54.5,66.5C 55.3697,68.5259 56.8697,69.8592 59,70.5C 59.212,73.4402 60.712,75.2736 63.5,76C 62.0267,76.7096 61.3601,77.8762 61.5,79.5C 62.8333,79.5 64.1667,79.5 65.5,79.5 Z"/></g>
<g><path style="opacity:1" fill="#8cb181" d="M 134.5,147.5 C 133.833,148.167 133.167,148.833 132.5,149.5C 127.632,152.434 122.632,155.1 117.5,157.5C 113.347,158.58 109.18,159.58 105,160.5C 103.294,159.692 102.461,158.359 102.5,156.5C 106.5,156.167 106.5,155.833 102.5,155.5C 102.404,151.689 101.738,151.689 100.5,155.5C 99.6697,152.155 100.336,148.988 102.5,146C 101.744,143.909 100.577,142.076 99,140.5C 98.0853,141.328 97.4186,142.328 97,143.5C 96.3292,142.748 95.4959,142.414 94.5,142.5C 97.7561,139.766 101.423,137.6 105.5,136C 106.823,135.184 107.489,134.017 107.5,132.5C 107.833,132.5 108.167,132.5 108.5,132.5C 108.56,133.043 108.893,133.376 109.5,133.5C 110.821,125.009 110.821,116.676 109.5,108.5C 105.473,110.513 101.473,112.513 97.5,114.5C 97.0618,114.565 96.7284,114.399 96.5,114C 100.773,102.446 105.106,90.9464 109.5,79.5C 112.494,77.0002 115.827,75.0002 119.5,73.5C 119.435,73.9382 119.601,74.2716 120,74.5C 124.698,73.6429 128.864,71.6429 132.5,68.5C 133.086,68.7093 133.586,69.0426 134,69.5C 134.5,95.4979 134.667,121.498 134.5,147.5 Z"/></g>
<g><path style="opacity:1" fill="#90b285" d="M 221.5,59.5 C 233.053,65.526 244.219,72.1927 255,79.5C 255.167,84.3333 255.333,89.1667 255.5,94C 255.494,99.2157 254.827,104.049 253.5,108.5C 248.992,105.747 244.659,102.747 240.5,99.5C 238.509,96.4958 235.842,94.1625 232.5,92.5C 233.374,90.2534 233.708,87.9201 233.5,85.5C 232.5,85.5 231.5,85.5 230.5,85.5C 230.238,84.0222 230.571,82.6888 231.5,81.5C 232.192,82.0253 232.692,82.6919 233,83.5C 234.361,81.9716 235.528,80.3049 236.5,78.5C 235.649,75.3876 234.483,75.0542 233,77.5C 232.5,76.3333 231.667,75.5 230.5,75C 231.167,74.6667 231.833,74.3333 232.5,74C 230.679,71.544 230.012,68.7107 230.5,65.5C 228.167,65.5 225.833,65.5 223.5,65.5C 223.386,63.2821 222.72,61.2821 221.5,59.5 Z"/></g>
<g><path style="opacity:1" fill="#080b0b" d="M 170.5,59.5 C 172.566,61.1991 174.9,62.5324 177.5,63.5C 185.132,68.6544 193.132,73.321 201.5,77.5C 204.331,79.4168 207.331,81.0834 210.5,82.5C 220.211,88.6884 230.211,94.3551 240.5,99.5C 244.659,102.747 248.992,105.747 253.5,108.5C 242.684,109.918 231.684,110.918 220.5,111.5C 220.167,111.5 219.833,111.5 219.5,111.5C 214.167,108.833 208.833,106.167 203.5,103.5C 198.006,99.9179 192.339,96.5845 186.5,93.5C 181.001,89.9159 175.334,86.5826 169.5,83.5C 167.226,82.2628 164.893,80.9295 162.5,79.5C 161.167,71.5 161.167,63.5 162.5,55.5C 164.955,57.2967 167.622,58.63 170.5,59.5 Z"/></g>
<g><path style="opacity:1" fill="#4e704d" d="M 54.5,85.5 C 50.772,88.5589 46.772,91.2256 42.5,93.5C 41.5084,100.648 41.175,107.981 41.5,115.5C 40.5,115.5 39.5,115.5 38.5,115.5C 37.9867,111.121 37.1534,106.787 36,102.5C 33.268,98.4488 31.4346,94.1155 30.5,89.5C 31.7389,86.4111 33.2389,83.4111 35,80.5C 36.0113,79.6634 37.1779,79.33 38.5,79.5C 38.3505,78.448 38.5172,77.448 39,76.5C 39.3333,76.8333 39.6667,77.1667 40,77.5C 40.029,80.3665 40.8624,82.8665 42.5,85C 46.4862,85.4988 50.4862,85.6655 54.5,85.5 Z"/></g>
<g><path style="opacity:1" fill="#a0c99f" d="M 42.5,93.5 C 52.6316,95.3503 62.965,96.6836 73.5,97.5C 74.7899,107.965 76.1233,118.298 77.5,128.5C 85.1801,129.418 92.8467,130.418 100.5,131.5C 102.764,132.219 105.097,132.552 107.5,132.5C 107.489,134.017 106.823,135.184 105.5,136C 101.423,137.6 97.7561,139.766 94.5,142.5C 90.1038,144.357 86.1038,146.691 82.5,149.5C 75.0035,152.745 68.0035,156.745 61.5,161.5C 57.827,163 54.4937,165 51.5,167.5C 48.2423,168.908 45.0756,170.574 42,172.5C 41.5001,153.503 41.3334,134.503 41.5,115.5C 41.175,107.981 41.5084,100.648 42.5,93.5 Z"/></g>
<g><path style="opacity:1" fill="#050808" d="M 135.5,93.5 C 140.49,96.1501 145.49,98.8168 150.5,101.5C 154.865,104.683 159.532,107.35 164.5,109.5C 170.17,113.337 176.17,116.67 182.5,119.5C 182.833,120.5 183.5,121.167 184.5,121.5C 197.397,129.113 210.397,136.446 223.5,143.5C 225.349,144.593 227.016,145.926 228.5,147.5C 214.833,147.5 201.167,147.5 187.5,147.5C 185.5,146.833 183.5,146.167 181.5,145.5C 178.506,143 175.173,141 171.5,139.5C 167.167,136.331 162.5,133.664 157.5,131.5C 150.772,126.468 143.439,122.468 135.5,119.5C 135.5,110.833 135.5,102.167 135.5,93.5 Z"/></g>
<g><path style="opacity:1" fill="#699067" d="M 87.5,91.5 C 87.2132,94.4841 85.5465,95.8174 82.5,95.5C 82.2967,102.556 84.2967,108.889 88.5,114.5C 85.7276,116.085 85.8943,117.085 89,117.5C 91.059,116.382 93.2257,115.715 95.5,115.5C 90.5,118.833 85.5,122.167 80.5,125.5C 77.8049,125.563 76.8049,126.563 77.5,128.5C 76.1233,118.298 74.7899,107.965 73.5,97.5C 78.6392,96.5969 83.3059,94.5969 87.5,91.5 Z"/></g>
<g><path style="opacity:1" fill="#537351" d="M 186.5,93.5 C 192.339,96.5845 198.006,99.9179 203.5,103.5C 201.801,103.34 200.134,103.506 198.5,104C 199.198,104.971 199.198,106.137 198.5,107.5C 198.919,108.672 199.585,109.672 200.5,110.5C 199.585,111.328 198.919,112.328 198.5,113.5C 199.237,116.095 199.237,118.762 198.5,121.5C 196.042,121.227 194.375,122.227 193.5,124.5C 196.428,125.484 199.428,125.817 202.5,125.5C 202.684,128.337 204.018,130.337 206.5,131.5C 211.365,134.287 216.365,137.287 221.5,140.5C 222.612,141.265 223.279,142.265 223.5,143.5C 210.397,136.446 197.397,129.113 184.5,121.5C 184.918,120.778 185.584,120.278 186.5,120C 183.456,119.641 183.122,118.974 185.5,118C 183.605,112.247 181.938,106.414 180.5,100.5C 181.374,98.2534 181.708,95.9201 181.5,93.5C 183.167,93.5 184.833,93.5 186.5,93.5 Z"/></g>
<g><path style="opacity:1" fill="#6e996b" d="M 109.5,79.5 C 105.106,90.9464 100.773,102.446 96.5,114C 96.7284,114.399 97.0618,114.565 97.5,114.5C 97.1583,115.338 96.4916,115.672 95.5,115.5C 93.2257,115.715 91.059,116.382 89,117.5C 85.8943,117.085 85.7276,116.085 88.5,114.5C 84.2967,108.889 82.2967,102.556 82.5,95.5C 85.5465,95.8174 87.2132,94.4841 87.5,91.5C 94.5403,86.9795 101.874,82.9795 109.5,79.5 Z"/></g>
<g><path style="opacity:1" fill="#415f40" d="M 169.5,83.5 C 175.334,86.5826 181.001,89.9159 186.5,93.5C 184.833,93.5 183.167,93.5 181.5,93.5C 181.708,95.9201 181.374,98.2534 180.5,100.5C 181.938,106.414 183.605,112.247 185.5,118C 183.122,118.974 183.456,119.641 186.5,120C 185.584,120.278 184.918,120.778 184.5,121.5C 183.5,121.167 182.833,120.5 182.5,119.5C 178.591,114.196 173.258,110.862 166.5,109.5C 166.344,106.159 165.011,103.326 162.5,101C 163.654,100.086 163.487,99.2529 162,98.5C 161.779,93.78 161.279,89.1133 160.5,84.5C 163.428,83.5159 166.428,83.1826 169.5,83.5 Z"/></g>
<g><path style="opacity:1" fill="#5c815a" d="M 203.5,103.5 C 208.833,106.167 214.167,108.833 219.5,111.5C 219.5,112.167 219.5,112.833 219.5,113.5C 217.226,113.285 215.059,112.618 213,111.5C 209.894,111.915 209.728,112.915 212.5,114.5C 211.833,115.167 211.167,115.833 210.5,116.5C 211.912,121.399 213.912,126.066 216.5,130.5C 214.604,131.466 212.604,131.799 210.5,131.5C 210.33,126.141 209.83,120.808 209,115.5C 207.872,117.345 207.372,119.345 207.5,121.5C 206.5,121.5 205.5,121.5 204.5,121.5C 205.643,124.684 206.309,128.017 206.5,131.5C 204.018,130.337 202.684,128.337 202.5,125.5C 199.428,125.817 196.428,125.484 193.5,124.5C 194.375,122.227 196.042,121.227 198.5,121.5C 199.237,118.762 199.237,116.095 198.5,113.5C 198.919,112.328 199.585,111.328 200.5,110.5C 199.585,109.672 198.919,108.672 198.5,107.5C 199.198,106.137 199.198,104.971 198.5,104C 200.134,103.506 201.801,103.34 203.5,103.5 Z"/></g>
<g><path style="opacity:1" fill="#566853" d="M 109.5,108.5 C 110.821,116.676 110.821,125.009 109.5,133.5C 108.893,133.376 108.56,133.043 108.5,132.5C 109.492,124.684 109.826,116.684 109.5,108.5 Z"/></g>
<g><path style="opacity:1" fill="#405e40" d="M 30.5,89.5 C 31.4346,94.1155 33.268,98.4488 36,102.5C 37.1534,106.787 37.9867,111.121 38.5,115.5C 39.5,115.5 40.5,115.5 41.5,115.5C 41.3334,134.503 41.5001,153.503 42,172.5C 45.0756,170.574 48.2423,168.908 51.5,167.5C 53.3716,168.511 55.3716,169.345 57.5,170C 56.6113,173.671 56.6113,177.171 57.5,180.5C 58.2472,180.736 59.0805,181.07 60,181.5C 60.9523,184.644 60.1189,187.144 57.5,189C 60.1794,188.842 62.846,188.342 65.5,187.5C 61.9695,190.096 58.3029,192.429 54.5,194.5C 51.9332,193.327 49.2666,192.161 46.5,191C 46.9574,190.586 47.2907,190.086 47.5,189.5C 44.9848,185.959 42.9848,182.126 41.5,178C 42.4706,176.796 43.4706,176.296 44.5,176.5C 42.784,176.003 41.1173,175.669 39.5,175.5C 38.6735,171.541 38.1735,167.541 38,163.5C 31.5721,145.319 25.9054,126.986 21,108.5C 20.6232,109.942 19.7899,110.942 18.5,111.5C 21.457,103.585 25.457,96.2518 30.5,89.5 Z"/></g>
<g><path style="opacity:1" fill="#0e130c" d="M 109.5,108.5 C 109.826,116.684 109.492,124.684 108.5,132.5C 108.167,132.5 107.833,132.5 107.5,132.5C 105.097,132.552 102.764,132.219 100.5,131.5C 100.389,130.883 100.056,130.383 99.5,130C 92.8781,128.625 86.5448,127.125 80.5,125.5C 85.5,122.167 90.5,118.833 95.5,115.5C 96.4916,115.672 97.1583,115.338 97.5,114.5C 101.473,112.513 105.473,110.513 109.5,108.5 Z"/></g>
<g><path style="opacity:1" fill="#192719" d="M 80.5,125.5 C 86.5448,127.125 92.8781,128.625 99.5,130C 100.056,130.383 100.389,130.883 100.5,131.5C 92.8467,130.418 85.1801,129.418 77.5,128.5C 76.8049,126.563 77.8049,125.563 80.5,125.5 Z"/></g>
<g><path style="opacity:1" fill="#839e7f" d="M 134.5,64.5 C 135.494,73.9856 135.827,83.6522 135.5,93.5C 135.5,102.167 135.5,110.833 135.5,119.5C 135.827,129.015 135.494,138.348 134.5,147.5C 134.667,121.498 134.5,95.4979 134,69.5C 133.586,69.0426 133.086,68.7093 132.5,68.5C 128.864,71.6429 124.698,73.6429 120,74.5C 119.601,74.2716 119.435,73.9382 119.5,73.5C 124.216,70.1373 129.216,67.1373 134.5,64.5 Z"/></g>
<g><path style="opacity:1" fill="#203721" d="M 135.5,119.5 C 143.439,122.468 150.772,126.468 157.5,131.5C 154.921,131.083 152.754,131.75 151,133.5C 150.393,136.202 150.56,138.868 151.5,141.5C 150.628,145.575 149.962,149.408 149.5,153C 151.89,154.11 152.89,155.61 152.5,157.5C 147.014,154.883 141.681,151.883 136.5,148.5C 135.893,148.624 135.56,148.957 135.5,149.5C 134.5,149.5 133.5,149.5 132.5,149.5C 133.167,148.833 133.833,148.167 134.5,147.5C 135.494,138.348 135.827,129.015 135.5,119.5 Z"/></g>
<g><path style="opacity:1" fill="#8fb284" d="M 219.5,111.5 C 219.833,111.5 220.167,111.5 220.5,111.5C 231.829,118.637 243.329,125.637 255,132.5C 255.667,160.167 255.667,187.833 255,215.5C 251.545,215.963 248.712,214.629 246.5,211.5C 248.492,211.328 250.158,211.995 251.5,213.5C 251.833,212.833 252.167,212.167 252.5,211.5C 246.062,189.03 238.729,167.03 230.5,145.5C 228.008,136.87 225.508,128.204 223,119.5C 222.059,117.273 220.892,115.273 219.5,113.5C 219.5,112.833 219.5,112.167 219.5,111.5 Z"/></g>
<g><path style="opacity:1" fill="#2e452e" d="M 157.5,131.5 C 162.5,133.664 167.167,136.331 171.5,139.5C 168.47,139.092 165.47,138.426 162.5,137.5C 161.167,137.833 159.833,138.167 158.5,138.5C 159.149,141.661 160.149,144.994 161.5,148.5C 160.749,152.286 160.416,155.952 160.5,159.5C 162.144,159.714 163.644,159.38 165,158.5C 166.041,160.781 166.541,163.114 166.5,165.5C 161.472,163.324 156.806,160.657 152.5,157.5C 152.89,155.61 151.89,154.11 149.5,153C 149.962,149.408 150.628,145.575 151.5,141.5C 150.56,138.868 150.393,136.202 151,133.5C 152.754,131.75 154.921,131.083 157.5,131.5 Z"/></g>
<g><path style="opacity:1" fill="#2e482f" d="M 45.5,199.5 C 44.1667,200.5 42.8333,201.5 41.5,202.5C 40.5084,202.328 39.8417,202.662 39.5,203.5C 37.8333,204.167 36.1667,204.833 34.5,205.5C 29.4238,185.044 23.7571,165.711 17.5,147.5C 17.3338,141.491 17.5005,135.491 18,129.5C 18.3333,134.833 18.6667,140.167 19,145.5C 19.2453,143.337 20.2453,141.67 22,140.5C 22.3333,143.5 22.6667,146.5 23,149.5C 28.2198,164.214 33.0531,179.048 37.5,194C 38.7989,195.326 40.1322,196.66 41.5,198C 39.0989,198.805 39.2656,199.638 42,200.5C 43.0113,199.663 44.1779,199.33 45.5,199.5 Z"/></g>
<g><path style="opacity:1" fill="#7ea075" d="M 117.5,157.5 C 105.168,165.335 92.5018,172.668 79.5,179.5C 77.2821,179.614 75.2821,180.28 73.5,181.5C 75.7393,171.887 78.906,162.554 83,153.5C 83.765,151.934 83.5983,150.601 82.5,149.5C 86.1038,146.691 90.1038,144.357 94.5,142.5C 95.4959,142.414 96.3292,142.748 97,143.5C 97.4186,142.328 98.0853,141.328 99,140.5C 100.577,142.076 101.744,143.909 102.5,146C 100.336,148.988 99.6697,152.155 100.5,155.5C 101.738,151.689 102.404,151.689 102.5,155.5C 106.5,155.833 106.5,156.167 102.5,156.5C 102.461,158.359 103.294,159.692 105,160.5C 109.18,159.58 113.347,158.58 117.5,157.5 Z"/></g>
<g><path style="opacity:1" fill="#395439" d="M 171.5,139.5 C 175.173,141 178.506,143 181.5,145.5C 179.071,145.116 176.737,144.449 174.5,143.5C 175.62,151.342 175.62,159.175 174.5,167C 174.519,168.833 175.185,170.333 176.5,171.5C 173.159,169.497 169.825,167.497 166.5,165.5C 166.541,163.114 166.041,160.781 165,158.5C 163.644,159.38 162.144,159.714 160.5,159.5C 160.416,155.952 160.749,152.286 161.5,148.5C 160.149,144.994 159.149,141.661 158.5,138.5C 159.833,138.167 161.167,137.833 162.5,137.5C 165.47,138.426 168.47,139.092 171.5,139.5 Z"/></g>
<g><path style="opacity:1" fill="#a0c89e" d="M 187.5,147.5 C 201.167,147.5 214.833,147.5 228.5,147.5C 229.657,155.656 229.823,163.99 229,172.5C 222.057,168.615 215.224,164.615 208.5,160.5C 203.833,157.833 199.167,155.167 194.5,152.5C 191.865,151.189 189.531,149.522 187.5,147.5 Z"/></g>
<g><path style="opacity:1" fill="#4c6b4a" d="M 181.5,145.5 C 183.5,146.167 185.5,146.833 187.5,147.5C 189.531,149.522 191.865,151.189 194.5,152.5C 193.34,154.203 194.007,154.869 196.5,154.5C 196.751,157.909 196.417,161.242 195.5,164.5C 196.522,165.354 197.355,166.354 198,167.5C 198.173,171.541 198.673,175.541 199.5,179.5C 201.171,181.978 203.504,183.478 206.5,184C 206.167,184.333 205.833,184.667 205.5,185C 207.932,185.743 209.599,187.243 210.5,189.5C 210.5,189.833 210.5,190.167 210.5,190.5C 198.871,184.686 187.538,178.352 176.5,171.5C 175.185,170.333 174.519,168.833 174.5,167C 175.62,159.175 175.62,151.342 174.5,143.5C 176.737,144.449 179.071,145.116 181.5,145.5 Z"/></g>
<g><path style="opacity:1" fill="#274028" d="M 17.5,147.5 C 23.7571,165.711 29.4238,185.044 34.5,205.5C 31.4512,207.863 28.1178,209.863 24.5,211.5C 25.5841,209.568 26.9174,207.735 28.5,206C 23.5511,200.202 21.0511,193.368 21,185.5C 20.6667,186.833 20.3333,188.167 20,189.5C 18.003,175.574 17.1697,161.574 17.5,147.5 Z"/></g>
<g><path style="opacity:1" fill="#6f9a6c" d="M 230.5,145.5 C 238.729,167.03 246.062,189.03 252.5,211.5C 252.167,212.167 251.833,212.833 251.5,213.5C 250.158,211.995 248.492,211.328 246.5,211.5C 241.167,208.833 235.833,206.167 230.5,203.5C 230.5,202.167 230.5,200.833 230.5,199.5C 229.235,198.332 227.235,197.332 224.5,196.5C 226.396,195.534 228.396,195.201 230.5,195.5C 230.183,178.881 230.183,162.215 230.5,145.5 Z"/></g>
<g><path style="opacity:1" fill="#5a7e58" d="M 194.5,152.5 C 199.167,155.167 203.833,157.833 208.5,160.5C 208.506,163.85 209.506,166.85 211.5,169.5C 209.314,171.679 208.981,174.179 210.5,177C 210.561,178.711 209.894,180.044 208.5,181C 210.321,183.456 210.988,186.289 210.5,189.5C 209.599,187.243 207.932,185.743 205.5,185C 205.833,184.667 206.167,184.333 206.5,184C 203.504,183.478 201.171,181.978 199.5,179.5C 198.673,175.541 198.173,171.541 198,167.5C 197.355,166.354 196.522,165.354 195.5,164.5C 196.417,161.242 196.751,157.909 196.5,154.5C 194.007,154.869 193.34,154.203 194.5,152.5 Z"/></g>
<g><path style="opacity:1" fill="#050708" d="M 152.5,157.5 C 156.806,160.657 161.472,163.324 166.5,165.5C 169.825,167.497 173.159,169.497 176.5,171.5C 187.538,178.352 198.871,184.686 210.5,190.5C 216.102,194.643 222.102,198.31 228.5,201.5C 229.498,211.144 229.832,220.81 229.5,230.5C 212.695,220.594 195.695,210.928 178.5,201.5C 174.796,198.648 170.796,196.315 166.5,194.5C 162.334,191.916 158,189.583 153.5,187.5C 149.21,184.015 144.543,181.015 139.5,178.5C 139.577,177.25 140.244,176.417 141.5,176C 139.831,174.331 137.831,173.498 135.5,173.5C 135.5,165.5 135.5,157.5 135.5,149.5C 135.56,148.957 135.893,148.624 136.5,148.5C 141.681,151.883 147.014,154.883 152.5,157.5 Z"/></g>
<g><path style="opacity:1" fill="#587c56" d="M 82.5,149.5 C 83.5983,150.601 83.765,151.934 83,153.5C 78.906,162.554 75.7393,171.887 73.5,181.5C 72.5,181.5 71.5,181.5 70.5,181.5C 70.4558,176.653 69.6225,171.987 68,167.5C 67.5,166.5 67,165.5 66.5,164.5C 63.814,163.94 62.1473,162.94 61.5,161.5C 68.0035,156.745 75.0035,152.745 82.5,149.5 Z"/></g>
<g><path style="opacity:1" fill="#4f704d" d="M 61.5,161.5 C 62.1473,162.94 63.814,163.94 66.5,164.5C 67,165.5 67.5,166.5 68,167.5C 69.6225,171.987 70.4558,176.653 70.5,181.5C 71.5,181.5 72.5,181.5 73.5,181.5C 75.2821,180.28 77.2821,179.614 79.5,179.5C 75.1348,182.683 70.4681,185.35 65.5,187.5C 62.846,188.342 60.1794,188.842 57.5,189C 60.1189,187.144 60.9523,184.644 60,181.5C 59.0805,181.07 58.2472,180.736 57.5,180.5C 56.6113,177.171 56.6113,173.671 57.5,170C 55.3716,169.345 53.3716,168.511 51.5,167.5C 54.4937,165 57.827,163 61.5,161.5 Z"/></g>
<g><path style="opacity:1" fill="#0d120c" d="M 132.5,149.5 C 133.5,149.5 134.5,149.5 135.5,149.5C 135.5,157.5 135.5,165.5 135.5,173.5C 137.831,173.498 139.831,174.331 141.5,176C 140.244,176.417 139.577,177.25 139.5,178.5C 136.225,175.959 133.225,176.292 130.5,179.5C 126.164,181.332 122.164,183.665 118.5,186.5C 112.84,188.995 107.506,191.995 102.5,195.5C 91.8504,201.159 81.1837,206.825 70.5,212.5C 60.7955,218.558 51.1288,224.558 41.5,230.5C 41.5,221.167 41.5,211.833 41.5,202.5C 42.8333,201.5 44.1667,200.5 45.5,199.5C 48.4058,197.55 51.4058,195.883 54.5,194.5C 58.3029,192.429 61.9695,190.096 65.5,187.5C 70.4681,185.35 75.1348,182.683 79.5,179.5C 92.5018,172.668 105.168,165.335 117.5,157.5C 122.632,155.1 127.632,152.434 132.5,149.5 Z"/></g>
<g><path style="opacity:1" fill="#668d63" d="M 219.5,113.5 C 220.892,115.273 222.059,117.273 223,119.5C 225.508,128.204 228.008,136.87 230.5,145.5C 230.183,162.215 230.183,178.881 230.5,195.5C 228.396,195.201 226.396,195.534 224.5,196.5C 227.235,197.332 229.235,198.332 230.5,199.5C 230.5,200.833 230.5,202.167 230.5,203.5C 230.5,212.5 230.5,221.5 230.5,230.5C 230.167,230.5 229.833,230.5 229.5,230.5C 229.832,220.81 229.498,211.144 228.5,201.5C 222.102,198.31 216.102,194.643 210.5,190.5C 210.5,190.167 210.5,189.833 210.5,189.5C 210.988,186.289 210.321,183.456 208.5,181C 209.894,180.044 210.561,178.711 210.5,177C 208.981,174.179 209.314,171.679 211.5,169.5C 209.506,166.85 208.506,163.85 208.5,160.5C 215.224,164.615 222.057,168.615 229,172.5C 229.823,163.99 229.657,155.656 228.5,147.5C 227.016,145.926 225.349,144.593 223.5,143.5C 223.279,142.265 222.612,141.265 221.5,140.5C 216.365,137.287 211.365,134.287 206.5,131.5C 206.309,128.017 205.643,124.684 204.5,121.5C 205.5,121.5 206.5,121.5 207.5,121.5C 207.372,119.345 207.872,117.345 209,115.5C 209.83,120.808 210.33,126.141 210.5,131.5C 212.604,131.799 214.604,131.466 216.5,130.5C 213.912,126.066 211.912,121.399 210.5,116.5C 211.167,115.833 211.833,115.167 212.5,114.5C 209.728,112.915 209.894,111.915 213,111.5C 215.059,112.618 217.226,113.285 219.5,113.5 Z"/></g>
<g><path style="opacity:1" fill="#385237" d="M 54.5,194.5 C 51.4058,195.883 48.4058,197.55 45.5,199.5C 44.1779,199.33 43.0113,199.663 42,200.5C 39.2656,199.638 39.0989,198.805 41.5,198C 40.1322,196.66 38.7989,195.326 37.5,194C 33.0531,179.048 28.2198,164.214 23,149.5C 22.6667,146.5 22.3333,143.5 22,140.5C 20.2453,141.67 19.2453,143.337 19,145.5C 18.6667,140.167 18.3333,134.833 18,129.5C 17.5005,135.491 17.3338,141.491 17.5,147.5C 17.1667,147.5 16.8333,147.5 16.5,147.5C 16.5,135.833 16.5,124.167 16.5,112.5C 17.1667,112.167 17.8333,111.833 18.5,111.5C 19.7899,110.942 20.6232,109.942 21,108.5C 25.9054,126.986 31.5721,145.319 38,163.5C 38.1735,167.541 38.6735,171.541 39.5,175.5C 41.1173,175.669 42.784,176.003 44.5,176.5C 43.4706,176.296 42.4706,176.796 41.5,178C 42.9848,182.126 44.9848,185.959 47.5,189.5C 47.2907,190.086 46.9574,190.586 46.5,191C 49.2666,192.161 51.9332,193.327 54.5,194.5 Z"/></g>
<g><path style="opacity:1" fill="#1f3521" d="M 16.5,147.5 C 16.8333,147.5 17.1667,147.5 17.5,147.5C 17.1697,161.574 18.003,175.574 20,189.5C 20.3333,188.167 20.6667,186.833 21,185.5C 21.0511,193.368 23.5511,200.202 28.5,206C 26.9174,207.735 25.5841,209.568 24.5,211.5C 22.357,213.074 20.0237,214.408 17.5,215.5C 16.5003,192.843 16.167,170.176 16.5,147.5 Z"/></g>
<g><path style="opacity:1" fill="#4a6848" d="M 139.5,178.5 C 144.543,181.015 149.21,184.015 153.5,187.5C 152.5,187.5 151.5,187.5 150.5,187.5C 150.328,189.492 150.995,191.158 152.5,192.5C 151.5,193.167 150.5,193.833 149.5,194.5C 150.407,197.421 150.74,200.421 150.5,203.5C 148.5,203.5 146.5,203.5 144.5,203.5C 144.619,207.125 146.453,209.459 150,210.5C 150.483,211.448 150.649,212.448 150.5,213.5C 152.565,213.517 154.565,213.85 156.5,214.5C 158.738,216.983 161.071,219.316 163.5,221.5C 154.601,217.269 145.935,212.602 137.5,207.5C 137.027,206.094 136.027,205.427 134.5,205.5C 132.533,205.739 130.699,205.406 129,204.5C 128.721,197.647 128.221,191.147 127.5,185C 129.607,183.736 130.607,181.903 130.5,179.5C 133.225,176.292 136.225,175.959 139.5,178.5 Z"/></g>
<g><path style="opacity:1" fill="#3b563b" d="M 130.5,179.5 C 130.607,181.903 129.607,183.736 127.5,185C 128.221,191.147 128.721,197.647 129,204.5C 130.699,205.406 132.533,205.739 134.5,205.5C 129.335,209.586 123.668,212.92 117.5,215.5C 116.107,214.74 114.607,214.074 113,213.5C 109.789,216.754 108.289,216.087 108.5,211.5C 110.201,211.966 111.701,211.966 113,211.5C 112.907,205.708 113.741,200.208 115.5,195C 114.552,194.517 113.552,194.351 112.5,194.5C 112.5,193.5 112.5,192.5 112.5,191.5C 114.5,190.833 116.5,190.167 118.5,189.5C 118.5,188.5 118.5,187.5 118.5,186.5C 122.164,183.665 126.164,181.332 130.5,179.5 Z"/></g>
<g><path style="opacity:1" fill="#577a54" d="M 153.5,187.5 C 158,189.583 162.334,191.916 166.5,194.5C 165.85,194.804 165.183,195.137 164.5,195.5C 163.468,193.96 162.135,193.46 160.5,194C 160.922,196.96 160.922,200.127 160.5,203.5C 160.601,206.7 161.268,209.7 162.5,212.5C 160.369,213.169 158.369,213.835 156.5,214.5C 154.565,213.85 152.565,213.517 150.5,213.5C 150.649,212.448 150.483,211.448 150,210.5C 146.453,209.459 144.619,207.125 144.5,203.5C 146.5,203.5 148.5,203.5 150.5,203.5C 150.74,200.421 150.407,197.421 149.5,194.5C 150.5,193.833 151.5,193.167 152.5,192.5C 150.995,191.158 150.328,189.492 150.5,187.5C 151.5,187.5 152.5,187.5 153.5,187.5 Z"/></g>
<g><path style="opacity:1" fill="#374f37" d="M 118.5,186.5 C 118.5,187.5 118.5,188.5 118.5,189.5C 116.5,190.167 114.5,190.833 112.5,191.5C 112.5,192.5 112.5,193.5 112.5,194.5C 113.552,194.351 114.552,194.517 115.5,195C 113.741,200.208 112.907,205.708 113,211.5C 111.701,211.966 110.201,211.966 108.5,211.5C 108.289,216.087 109.789,216.754 113,213.5C 114.607,214.074 116.107,214.74 117.5,215.5C 109.481,220.6 101.314,225.6 93,230.5C 92.5002,240.161 92.3335,249.828 92.5,259.5C 91.6701,250.342 91.1701,241.009 91,231.5C 87.2221,233.97 83.3888,236.303 79.5,238.5C 79.4802,236.857 80.1468,235.524 81.5,234.5C 86.1686,232.6 90.5019,230.266 94.5,227.5C 94.0833,224.921 94.75,222.754 96.5,221C 95.572,220.612 94.9054,219.945 94.5,219C 95.8694,215.283 96.5361,211.45 96.5,207.5C 94.3944,207.321 92.7277,206.321 91.5,204.5C 94.2543,201.571 97.5877,199.738 101.5,199C 102.337,197.989 102.67,196.822 102.5,195.5C 107.506,191.995 112.84,188.995 118.5,186.5 Z"/></g>
<g><path style="opacity:1" fill="#648a61" d="M 166.5,194.5 C 170.796,196.315 174.796,198.648 178.5,201.5C 175.753,201.187 173.086,201.52 170.5,202.5C 171.833,203.833 173.167,205.167 174.5,206.5C 172.372,209.696 169.372,211.696 165.5,212.5C 168.167,213.833 170.833,215.167 173.5,216.5C 171.257,217.474 168.924,217.808 166.5,217.5C 166.5,218.833 166.5,220.167 166.5,221.5C 167.552,221.351 168.552,221.517 169.5,222C 168.263,222.232 167.263,222.732 166.5,223.5C 165.29,223.068 164.29,222.401 163.5,221.5C 161.071,219.316 158.738,216.983 156.5,214.5C 158.369,213.835 160.369,213.169 162.5,212.5C 161.268,209.7 160.601,206.7 160.5,203.5C 160.922,200.127 160.922,196.96 160.5,194C 162.135,193.46 163.468,193.96 164.5,195.5C 165.183,195.137 165.85,194.804 166.5,194.5 Z"/></g>
<g><path style="opacity:1" fill="#a7c8a6" d="M 16.5,78.5 C 16.5,89.8333 16.5,101.167 16.5,112.5C 16.5,124.167 16.5,135.833 16.5,147.5C 16.167,170.176 16.5003,192.843 17.5,215.5C 20.0237,214.408 22.357,213.074 24.5,211.5C 28.1178,209.863 31.4512,207.863 34.5,205.5C 36.1667,204.833 37.8333,204.167 39.5,203.5C 40.4933,212.318 40.8266,221.318 40.5,230.5C 32.1439,226.236 23.9772,221.57 16,216.5C 15.1685,170.332 15.3351,124.332 16.5,78.5 Z"/></g>
<g><path style="opacity:1" fill="#0d130d" d="M 134.5,205.5 C 136.027,205.427 137.027,206.094 137.5,207.5C 136.548,208.452 135.548,209.452 134.5,210.5C 135.47,218.778 135.803,227.111 135.5,235.5C 132.968,236.596 130.635,237.929 128.5,239.5C 125.996,240.584 123.663,241.917 121.5,243.5C 115.332,246.08 109.665,249.414 104.5,253.5C 103.508,253.328 102.842,253.662 102.5,254.5C 99.1401,256.18 95.8068,257.847 92.5,259.5C 92.3335,249.828 92.5002,240.161 93,230.5C 101.314,225.6 109.481,220.6 117.5,215.5C 123.668,212.92 129.335,209.586 134.5,205.5 Z"/></g>
<g><path style="opacity:1" fill="#739f71" d="M 178.5,201.5 C 195.695,210.928 212.695,220.594 229.5,230.5C 229.833,230.5 230.167,230.5 230.5,230.5C 223.328,235.589 215.661,239.923 207.5,243.5C 205.533,243.261 203.699,243.594 202,244.5C 194.76,239.979 187.427,235.646 180,231.5C 179.5,240.827 179.334,250.161 179.5,259.5C 179.5,260.167 179.167,260.5 178.5,260.5C 178.5,260.167 178.5,259.833 178.5,259.5C 178.666,249.828 178.5,240.161 178,230.5C 174.222,228.03 170.389,225.697 166.5,223.5C 167.263,222.732 168.263,222.232 169.5,222C 168.552,221.517 167.552,221.351 166.5,221.5C 166.5,220.167 166.5,218.833 166.5,217.5C 168.924,217.808 171.257,217.474 173.5,216.5C 170.833,215.167 168.167,213.833 165.5,212.5C 169.372,211.696 172.372,209.696 174.5,206.5C 173.167,205.167 171.833,203.833 170.5,202.5C 173.086,201.52 175.753,201.187 178.5,201.5 Z"/></g>
<g><path style="opacity:1" fill="#566d56" d="M 39.5,203.5 C 39.8417,202.662 40.5084,202.328 41.5,202.5C 41.5,211.833 41.5,221.167 41.5,230.5C 41.5,230.833 41.5,231.167 41.5,231.5C 40.8333,231.5 40.5,231.167 40.5,230.5C 40.8266,221.318 40.4933,212.318 39.5,203.5 Z"/></g>
<g><path style="opacity:1" fill="#050808" d="M 137.5,207.5 C 145.935,212.602 154.601,217.269 163.5,221.5C 164.29,222.401 165.29,223.068 166.5,223.5C 170.389,225.697 174.222,228.03 178,230.5C 178.5,240.161 178.666,249.828 178.5,259.5C 175.263,259.114 172.597,257.614 170.5,255C 160.779,249.808 151.113,244.642 141.5,239.5C 139.853,237.674 137.853,236.34 135.5,235.5C 135.803,227.111 135.47,218.778 134.5,210.5C 135.548,209.452 136.548,208.452 137.5,207.5 Z"/></g>
<g><path style="opacity:1" fill="#243a25" d="M 102.5,195.5 C 102.67,196.822 102.337,197.989 101.5,199C 97.5877,199.738 94.2543,201.571 91.5,204.5C 92.7277,206.321 94.3944,207.321 96.5,207.5C 96.5361,211.45 95.8694,215.283 94.5,219C 94.9054,219.945 95.572,220.612 96.5,221C 94.75,222.754 94.0833,224.921 94.5,227.5C 90.5019,230.266 86.1686,232.6 81.5,234.5C 80.1468,235.524 79.4802,236.857 79.5,238.5C 75.3161,241.092 70.9828,243.426 66.5,245.5C 57.9799,241.076 49.6466,236.409 41.5,231.5C 41.5,231.167 41.5,230.833 41.5,230.5C 51.1288,224.558 60.7955,218.558 70.5,212.5C 81.1837,206.825 91.8504,201.159 102.5,195.5 Z"/></g>
<g><path style="opacity:1" fill="#a2c9a1" d="M 207.5,243.5 C 206.426,244.885 205.093,246.051 203.5,247C 195.572,251.462 187.572,255.629 179.5,259.5C 179.334,250.161 179.5,240.827 180,231.5C 187.427,235.646 194.76,239.979 202,244.5C 203.699,243.594 205.533,243.261 207.5,243.5 Z"/></g>
<g><path style="opacity:1" fill="#2f4930" d="M 135.5,235.5 C 137.853,236.34 139.853,237.674 141.5,239.5C 142.446,240.931 143.612,242.264 145,243.5C 146.862,253.088 148.028,262.755 148.5,272.5C 148.64,274.124 147.973,275.29 146.5,276C 146.833,276.333 147.167,276.667 147.5,277C 146.333,277.167 145.167,277.333 144,277.5C 141.761,276.909 139.594,276.242 137.5,275.5C 136.624,265.328 135.624,255.161 134.5,245C 136.106,239.986 134.106,238.153 128.5,239.5C 130.635,237.929 132.968,236.596 135.5,235.5 Z"/></g>
<g><path style="opacity:1" fill="#253c26" d="M 141.5,239.5 C 151.113,244.642 160.779,249.808 170.5,255C 172.597,257.614 175.263,259.114 178.5,259.5C 178.5,259.833 178.5,260.167 178.5,260.5C 174.966,262.766 171.3,264.766 167.5,266.5C 163.212,265.014 159.879,266.348 157.5,270.5C 155.922,271.298 154.256,271.798 152.5,272C 152.833,272.333 153.167,272.667 153.5,273C 152.244,273.417 151.577,274.25 151.5,275.5C 150.1,274.9 149.1,273.9 148.5,272.5C 148.028,262.755 146.862,253.088 145,243.5C 143.612,242.264 142.446,240.931 141.5,239.5 Z"/></g>
<g><path style="opacity:1" fill="#4d6c4c" d="M 121.5,243.5 C 123.5,243.5 125.5,243.5 127.5,243.5C 127.799,253.609 128.799,263.776 130.5,274C 128.875,276.137 129.208,277.803 131.5,279C 131.043,279.414 130.709,279.914 130.5,280.5C 134.107,281.489 137.774,281.823 141.5,281.5C 139.813,283.166 137.813,284.5 135.5,285.5C 129.861,282.501 124.527,279.168 119.5,275.5C 119.249,273.83 118.582,272.33 117.5,271C 117.957,270.586 118.291,270.086 118.5,269.5C 115.692,266.912 115.026,263.912 116.5,260.5C 116.406,258.311 115.739,256.311 114.5,254.5C 115.276,252.644 116.609,251.311 118.5,250.5C 117.5,250.167 116.5,249.833 115.5,249.5C 111.899,251.139 108.233,252.472 104.5,253.5C 109.665,249.414 115.332,246.08 121.5,243.5 Z"/></g>
<g><path style="opacity:1" fill="#5e825c" d="M 119.5,275.5 C 113.332,272.92 107.665,269.586 102.5,265.5C 103.833,265.5 105.167,265.5 106.5,265.5C 106.756,263.208 106.423,261.041 105.5,259C 106.167,258.667 106.833,258.333 107.5,258C 106.167,257.333 106.167,256.667 107.5,256C 105.618,255.802 103.952,255.302 102.5,254.5C 102.842,253.662 103.508,253.328 104.5,253.5C 108.233,252.472 111.899,251.139 115.5,249.5C 116.5,249.833 117.5,250.167 118.5,250.5C 116.609,251.311 115.276,252.644 114.5,254.5C 115.739,256.311 116.406,258.311 116.5,260.5C 115.026,263.912 115.692,266.912 118.5,269.5C 118.291,270.086 117.957,270.586 117.5,271C 118.582,272.33 119.249,273.83 119.5,275.5 Z"/></g>
<g><path style="opacity:1" fill="#70996e" d="M 102.5,254.5 C 103.952,255.302 105.618,255.802 107.5,256C 106.167,256.667 106.167,257.333 107.5,258C 106.833,258.333 106.167,258.667 105.5,259C 106.423,261.041 106.756,263.208 106.5,265.5C 105.167,265.5 103.833,265.5 102.5,265.5C 98.4945,264.502 95.1612,262.502 92.5,259.5C 95.8068,257.847 99.1401,256.18 102.5,254.5 Z"/></g>
<g><path style="opacity:1" fill="#3b563b" d="M 128.5,239.5 C 134.106,238.153 136.106,239.986 134.5,245C 135.624,255.161 136.624,265.328 137.5,275.5C 139.594,276.242 141.761,276.909 144,277.5C 145.167,277.333 146.333,277.167 147.5,277C 147.167,276.667 146.833,276.333 146.5,276C 147.973,275.29 148.64,274.124 148.5,272.5C 149.1,273.9 150.1,274.9 151.5,275.5C 148.506,278 145.173,280 141.5,281.5C 137.774,281.823 134.107,281.489 130.5,280.5C 130.709,279.914 131.043,279.414 131.5,279C 129.208,277.803 128.875,276.137 130.5,274C 128.799,263.776 127.799,253.609 127.5,243.5C 125.5,243.5 123.5,243.5 121.5,243.5C 123.663,241.917 125.996,240.584 128.5,239.5 Z"/></g>
<g><path style="opacity:1" fill="#455445" d="M 167.5,266.5 C 162.664,270.326 157.33,273.326 151.5,275.5C 151.577,274.25 152.244,273.417 153.5,273C 153.167,272.667 152.833,272.333 152.5,272C 154.256,271.798 155.922,271.298 157.5,270.5C 159.879,266.348 163.212,265.014 167.5,266.5 Z"/></g>
</svg>
