<svg width="24" height="24" viewBox="0 0 24 24" fill="none" xmlns="http://www.w3.org/2000/svg">
<path id="Vector" fill-rule="evenodd" clip-rule="evenodd" d="M20.3428 7.87603C21.9525 9.14699 22.9996 11.1469 22.9996 13.4011C22.9996 15.3701 22.1849 17.2426 20.7693 18.5607C20.6418 18.6792 20.5715 18.8636 20.5818 19.0535L20.7468 22.2672L19.3096 21.1357C18.5624 20.5463 17.6671 20.2664 16.767 20.3421C16.7596 20.3421 16.7549 20.3432 16.7474 20.3443C16.5627 20.3685 16.3752 20.3762 16.1877 20.3762C15.7424 20.3762 15.3074 20.3323 14.8874 20.2489C14.6146 20.1951 14.3577 20.4091 14.3099 20.7285C14.2649 21.0468 14.4477 21.3497 14.7196 21.4035C15.1949 21.4979 15.6842 21.5472 16.1867 21.5472C16.4089 21.5472 16.6321 21.5374 16.8514 21.5088C17.5217 21.455 18.1911 21.6658 18.7517 22.1081L21.0271 23.9004C21.1846 24.0244 21.3899 24.0332 21.5549 23.9234C21.7199 23.8126 21.8174 23.6019 21.8052 23.3802L21.5952 19.2807C23.1327 17.7441 24 15.6205 24 13.4011C24 10.7559 22.7897 8.39718 20.8997 6.90577C20.6719 6.72467 20.3597 6.79601 20.2069 7.06382C20.0522 7.33162 20.1122 7.69601 20.3419 7.8771L20.3428 7.87603ZM19.9997 10.4059C19.9997 4.68329 15.5352 0 10.0003 0C4.46544 0 0 4.68329 0 10.4059C0 13.2662 1.12968 16.0012 3.12744 17.9681L2.84995 23.3791C2.83964 23.6019 2.93714 23.8115 3.10215 23.9224C3.26715 24.0332 3.47247 24.0244 3.62995 23.8993L6.4622 21.6669C7.28439 21.0193 8.26501 20.7043 9.2522 20.7724C9.50439 20.8031 9.75188 20.813 9.99939 20.813C15.5343 20.813 19.9997 16.1286 19.9997 10.4071L19.9997 10.4059ZM18.9994 10.4059C18.9994 15.5239 14.9523 19.6418 9.99937 19.6418C9.78187 19.6418 9.56717 19.6341 9.35156 19.6078C9.34406 19.6067 9.33656 19.6056 9.32906 19.6056C8.11406 19.5189 6.9113 19.9019 5.90162 20.6966L3.90942 22.2672L4.14192 17.7387C4.15224 17.5477 4.08192 17.3644 3.95442 17.2459C2.07755 15.4997 1.00026 13.0158 1.00026 10.4058C1.00026 5.28789 5.05026 1.16992 10.0003 1.16992C14.9522 1.16992 19.0003 5.28789 19.0003 10.4058L18.9994 10.4059ZM7.72681 11.2104C7.65462 10.981 7.46713 10.8285 7.25713 10.8285C7.04994 10.8285 6.86245 10.981 6.78932 11.2104L6.194 13.0949L4.58432 13.7919C4.3865 13.8775 4.25712 14.0959 4.25712 14.3406C4.25712 14.5854 4.38744 14.8049 4.58432 14.8894L6.194 15.5864L6.78932 17.4709C6.86151 17.7003 7.049 17.8528 7.25713 17.8528C7.46713 17.8528 7.65461 17.7003 7.72681 17.4709L8.32213 15.5864L9.93181 14.8894C10.1268 14.8038 10.2571 14.5854 10.2571 14.3406C10.2571 14.0959 10.1268 13.8764 9.93181 13.7919L8.32213 13.0949L7.72681 11.2104ZM7.25713 13.1004L7.46431 13.7535C7.514 13.9137 7.62181 14.0399 7.75963 14.0992L8.31744 14.3407L7.75963 14.5821C7.62182 14.6414 7.51495 14.7676 7.46431 14.9279L7.25713 15.5809L7.05181 14.9279C7.00213 14.7676 6.8915 14.6414 6.75649 14.5821L6.19962 14.3407L6.75743 14.0992C6.89243 14.0399 7.00211 13.9137 7.05275 13.7535L7.25713 13.1004ZM12.2203 3.60094C12.1472 3.37155 11.9597 3.21899 11.7497 3.21899C11.5397 3.21899 11.3522 3.37155 11.28 3.60094L10.0772 7.40731L6.8269 8.81547C6.63003 8.90108 6.49971 9.12058 6.49971 9.36534C6.49971 9.61009 6.63002 9.82959 6.8269 9.91411L10.0772 11.3223L11.28 15.1286C11.3522 15.3591 11.5397 15.5117 11.7497 15.5117C11.9597 15.5117 12.1472 15.3591 12.2194 15.1297L13.4222 11.3234L16.6725 9.9152C16.8703 9.82959 16.9997 9.61009 16.9997 9.36534C16.9997 9.12058 16.8703 8.90108 16.6725 8.81656L13.4222 7.4084L12.2194 3.60204L12.2203 3.60094ZM11.7506 5.49095L12.5653 8.06583C12.615 8.22607 12.7228 8.35228 12.8607 8.41157L15.06 9.36534L12.8597 10.318C12.7219 10.3773 12.615 10.5035 12.5644 10.6637L11.7497 13.2397L10.935 10.6648C10.8853 10.5046 10.7775 10.3784 10.6397 10.3191L8.44033 9.36534L10.6406 8.41266C10.7785 8.35339 10.8853 8.22717 10.936 8.06692L11.7506 5.49095ZM6.75001 5.26814H6.25033C5.97565 5.26814 5.75064 5.53046 5.75064 5.85313C5.75064 6.17581 5.97565 6.43812 6.25033 6.43812H6.75001V7.02311C6.75001 7.34578 6.97501 7.6081 7.24969 7.6081C7.52437 7.6081 7.74937 7.34579 7.74937 7.02311V6.43812H8.24905C8.52373 6.43812 8.74873 6.17581 8.74873 5.85313C8.74873 5.53046 8.52373 5.26814 8.24905 5.26814H7.74937V4.68315C7.74937 4.36048 7.52437 4.09816 7.24969 4.09816C6.97501 4.09816 6.75001 4.36048 6.75001 4.68315V5.26814Z" fill="currentColor"/>
</svg>
