<svg xmlns="http://www.w3.org/2000/svg" width="22" height="22" viewBox="0 0 16 17" fill="none">
  <g clip-path="url(#clip0_993_9328)">
    <ellipse cx="8" cy="8.5" rx="7" ry="7.5" fill="currentColor"/>
    <path d="M7.99991 0.666992C3.67991 0.666992 0.16658 4.18033 0.16658 8.50033C0.16658 12.8203 3.67991 16.3337 7.99991 16.3337C10.0932 16.3337 12.0599 15.5203 13.5399 14.0403C15.0199 12.5603 15.8332 10.5937 15.8332 8.50033C15.8332 4.18033 12.3199 0.666992 7.99991 0.666992ZM14.8166 8.00033H8.49991V1.68366C11.8699 1.93033 14.5699 4.63033 14.8166 8.00033ZM1.16658 8.50033C1.16658 4.90033 3.96325 1.94033 7.49991 1.68366V8.50033C7.49991 8.53366 7.50325 8.56366 7.50991 8.59699V8.60033C7.51325 8.62366 7.52325 8.64366 7.52991 8.66366L7.53991 8.69366C7.54325 8.70366 7.54991 8.71366 7.55325 8.72366C7.55658 8.73366 7.56325 8.74033 7.56658 8.75033C7.56991 8.75366 7.57325 8.76033 7.57325 8.76366C7.57658 8.77033 7.57991 8.77366 7.58325 8.78033C7.60325 8.80699 7.62325 8.83366 7.64658 8.85699L12.4666 13.6737C11.2266 14.747 9.65991 15.3337 7.99991 15.3337C4.23325 15.3337 1.16658 12.267 1.16658 8.50033ZM13.1732 12.967L9.20658 9.00033H14.8132C14.7099 10.4703 14.1399 11.8503 13.1732 12.967Z" fill="white"/>
  </g>
  <defs>
    <clipPath id="clip0_993_9328">
      <rect width="16" height="16" fill="white" transform="translate(0 0.5)"/>
    </clipPath>
  </defs>
</svg>