<svg width="13" height="14" viewBox="0 0 13 14" fill="none" xmlns="http://www.w3.org/2000/svg">
<g id="volume">
<g id="Path">
<path d="M7.90039 4.89062C8.56348 5.38794 8.95372 6.16843 8.95372 6.99729C8.95372 7.82615 8.56348 8.60664 7.90039 9.10396" stroke="currentColor" stroke-width="0.921667" stroke-linecap="round" stroke-linejoin="round"/>
<path d="M7.90039 4.89062C8.56348 5.38794 8.95372 6.16843 8.95372 6.99729C8.95372 7.82615 8.56348 8.60664 7.90039 9.10396" stroke="currentColor" stroke-opacity="0.2" stroke-width="0.921667" stroke-linecap="round" stroke-linejoin="round"/>
</g>
<g id="Path_2">
<path d="M9.32227 3.3125C10.4358 4.2124 11.083 5.56743 11.083 6.99917C11.083 8.43091 10.4358 9.78593 9.32227 10.6858" stroke="currentColor" stroke-width="0.921667" stroke-linecap="round" stroke-linejoin="round"/>
<path d="M9.32227 3.3125C10.4358 4.2124 11.083 5.56743 11.083 6.99917C11.083 8.43091 10.4358 9.78593 9.32227 10.6858" stroke="currentColor" stroke-opacity="0.2" stroke-width="0.921667" stroke-linecap="round" stroke-linejoin="round"/>
</g>
<g id="Path_3">
<path d="M3.16008 8.57885H2.10674C1.81587 8.57885 1.58008 8.34305 1.58008 8.05218V5.94551C1.58008 5.65464 1.81587 5.41885 2.10674 5.41885H3.16008L5.00341 3.04885C5.09852 2.8641 5.31412 2.77629 5.51125 2.842C5.70838 2.9077 5.82817 3.10732 5.79341 3.31218V10.6855C5.82817 10.8904 5.70838 11.09 5.51125 11.1557C5.31412 11.2214 5.09852 11.1336 5.00341 10.9488L3.16008 8.57885" stroke="currentColor" stroke-width="0.921667" stroke-linecap="round" stroke-linejoin="round"/>
<path d="M3.16008 8.57885H2.10674C1.81587 8.57885 1.58008 8.34305 1.58008 8.05218V5.94551C1.58008 5.65464 1.81587 5.41885 2.10674 5.41885H3.16008L5.00341 3.04885C5.09852 2.8641 5.31412 2.77629 5.51125 2.842C5.70838 2.9077 5.82817 3.10732 5.79341 3.31218V10.6855C5.82817 10.8904 5.70838 11.09 5.51125 11.1557C5.31412 11.2214 5.09852 11.1336 5.00341 10.9488L3.16008 8.57885" stroke="currentColor" stroke-opacity="0.2" stroke-width="0.921667" stroke-linecap="round" stroke-linejoin="round"/>
</g>
</g>
</svg>
