<svg width="120" height="120" viewBox="0 0 120 120" fill="none" xmlns="http://www.w3.org/2000/svg">
	<path d="M109.256 89.3781C109.317 89.1089 109.149 88.8408 108.88 88.7794L110.231 82.8592C110.5 82.9206 110.768 82.7522 110.83 82.483L112.403 75.5879C112.465 75.3187 112.296 75.0506 112.027 74.9892L113.378 69.069C113.648 69.1304 113.916 68.962 113.977 68.6928L115.551 61.7977C115.612 61.5285 115.444 61.2604 115.175 61.1989L116.526 55.2788C116.795 55.3402 117.063 55.1718 117.125 54.9026L117.912 51.455C118.088 50.681 118.175 49.8974 118.175 49.1185C118.175 48.8424 117.951 48.6185 117.675 48.6185C117.671 48.6185 117.667 48.6186 117.662 48.6187C117.604 47.4548 117.343 46.3094 116.89 45.2355C116.894 45.2337 116.898 45.232 116.902 45.2302C117.15 45.1104 117.255 44.8115 117.135 44.5627C116.797 43.8609 116.379 43.1926 115.884 42.5719L113.679 39.8072C113.507 39.5913 113.192 39.5558 112.977 39.728L109.191 34.9804C109.406 34.8082 109.442 34.4936 109.27 34.2777L104.86 28.7483C104.688 28.5324 104.373 28.4969 104.157 28.6691L100.371 23.9215C100.587 23.7493 100.623 23.4347 100.451 23.2188L96.0409 17.6894C95.8687 17.4735 95.5541 17.438 95.3383 17.6102L91.5522 12.8626C91.7681 12.6904 91.8035 12.3758 91.6313 12.1599L89.4265 9.39522C88.9316 8.77454 88.373 8.21819 87.764 7.73255C87.5481 7.56038 87.2335 7.59584 87.0613 7.81174C87.0587 7.815 87.0562 7.8183 87.0536 7.82161C86.1073 7.1415 85.0488 6.63178 83.9271 6.31593C83.9281 6.3119 83.9291 6.30785 83.93 6.30377C83.9915 6.03455 83.823 5.76649 83.5538 5.70504C82.7944 5.53169 82.0112 5.44186 81.2173 5.44186H77.6811C77.4049 5.44186 77.1811 5.66572 77.1811 5.94186H71.1087C71.1087 5.66572 70.8848 5.44186 70.6087 5.44186H63.5362C63.2601 5.44186 63.0362 5.66572 63.0362 5.94186H56.9638C56.9638 5.66572 56.7399 5.44186 56.4638 5.44186H49.3914C49.1152 5.44186 48.8914 5.66572 48.8914 5.94186H42.8189C42.8189 5.66572 42.5951 5.44186 42.3189 5.44186H38.7827C37.9888 5.44186 37.2056 5.53169 36.4462 5.70504C36.177 5.76649 36.0086 6.03455 36.07 6.30377C36.071 6.30785 36.0719 6.3119 36.073 6.31593C34.9512 6.63178 33.8927 7.1415 32.9464 7.82161C32.9439 7.8183 32.9413 7.815 32.9387 7.81174C32.7665 7.59584 32.452 7.56039 32.2361 7.73255C31.627 8.21819 31.0685 8.77454 30.5735 9.39523L28.3687 12.1599C28.1965 12.3758 28.232 12.6904 28.4479 12.8626L24.6618 17.6102C24.4459 17.438 24.1313 17.4735 23.9591 17.6894L19.5495 23.2188C19.3774 23.4347 19.4128 23.7493 19.6287 23.9215L15.8426 28.6691C15.6267 28.4969 15.3121 28.5324 15.14 28.7483L10.7304 34.2777C10.5582 34.4936 10.5936 34.8082 10.8095 34.9804L7.02344 39.728C6.80754 39.5558 6.49295 39.5913 6.32078 39.8072L4.11599 42.5719C3.62101 43.1926 3.2029 43.8609 2.86495 44.5627C2.74515 44.8115 2.84972 45.1104 3.09851 45.2302C3.10228 45.232 3.10606 45.2337 3.10985 45.2355C2.65737 46.3094 2.39596 47.4548 2.33765 48.6187C2.33349 48.6186 2.32932 48.6185 2.32514 48.6185C2.049 48.6185 1.82513 48.8424 1.82513 49.1185C1.8251 49.8974 1.91182 50.681 2.08847 51.455L2.87536 54.9026C2.93681 55.1718 3.20486 55.3402 3.47408 55.2788L4.82533 61.1989C4.5561 61.2604 4.38767 61.5285 4.44912 61.7977L6.02288 68.6928C6.08433 68.962 6.35239 69.1304 6.6216 69.069L7.97285 74.9892C7.70363 75.0506 7.53519 75.3187 7.59664 75.5879L9.1704 82.483C9.23185 82.7522 9.49991 82.9206 9.76913 82.8592L11.1204 88.7794C10.8512 88.8408 10.6827 89.1089 10.7442 89.3781L11.5311 92.8256C11.7077 93.5996 11.9696 94.3432 12.3075 95.045C12.4274 95.2938 12.7262 95.3984 12.975 95.2785C12.9788 95.2767 12.9825 95.2749 12.9862 95.273C13.5437 96.2963 14.2762 97.2148 15.1498 97.9861C15.1472 97.9893 15.1445 97.9925 15.1419 97.9958C14.9697 98.2117 15.0052 98.5263 15.2211 98.6985C15.8301 99.1841 16.4967 99.6049 17.212 99.9493L20.398 101.484C20.6468 101.603 20.9456 101.499 21.0655 101.25L26.5365 103.885C26.4167 104.134 26.5213 104.432 26.7701 104.552L33.1421 107.621C33.3909 107.741 33.6897 107.636 33.8095 107.387L39.2806 110.022C39.1608 110.271 39.2654 110.57 39.5141 110.689L45.8862 113.758C46.135 113.878 46.4338 113.773 46.5536 113.525L52.0247 116.159C51.9049 116.408 52.0094 116.707 52.2582 116.827L55.4442 118.361C56.1595 118.705 56.9041 118.964 57.6636 119.138C57.9328 119.199 58.2008 119.031 58.2623 118.761C58.2632 118.757 58.2641 118.753 58.2649 118.749C59.4126 118.951 60.5874 118.951 61.7351 118.749C61.736 118.753 61.7368 118.757 61.7378 118.761C61.7992 119.031 62.0673 119.199 62.3365 119.138C63.0959 118.964 63.8405 118.705 64.5558 118.361L67.7418 116.827C67.9906 116.707 68.0952 116.408 67.9754 116.159L73.4464 113.525C73.5662 113.773 73.8651 113.878 74.1139 113.758L80.4859 110.689C80.7347 110.57 80.8392 110.271 80.7194 110.022L86.1905 107.387C86.3103 107.636 86.6091 107.741 86.8579 107.621L93.23 104.552C93.4788 104.432 93.5833 104.134 93.4635 103.885L98.9346 101.25C99.0544 101.499 99.3532 101.603 99.602 101.484L102.788 99.9493C103.503 99.6049 104.17 99.1841 104.779 98.6985C104.995 98.5263 105.03 98.2117 104.858 97.9958C104.856 97.9925 104.853 97.9893 104.85 97.9861C105.724 97.2148 106.456 96.2963 107.014 95.273C107.018 95.2749 107.021 95.2767 107.025 95.2785C107.274 95.3984 107.573 95.2938 107.692 95.045C108.03 94.3432 108.292 93.5996 108.469 92.8256L109.256 89.3781Z" fill="#FFE6FF" stroke="#2DA771" stroke-linecap="round" stroke-dasharray="8 8" />
	<rect x="25.1094" y="25" width="70" height="70" rx="35" fill="white" />
	<path fill-rule="evenodd" clip-rule="evenodd" d="M48.1875 72.375V47.625C48.1875 46.8791 48.4838 46.1637 49.0113 45.6363C49.5387 45.1088 50.2541 44.8125 51 44.8125H69C69.7459 44.8125 70.4613 45.1088 70.9887 45.6363C71.5162 46.1637 71.8125 46.8791 71.8125 47.625V72.375C71.8125 73.1209 71.5162 73.8363 70.9887 74.3637C70.4613 74.8912 69.7459 75.1875 69 75.1875H51C50.2541 75.1875 49.5387 74.8912 49.0113 74.3637C48.4838 73.8363 48.1875 73.1209 48.1875 72.375ZM70.6875 70.6875H49.3125V72.375C49.3134 72.8223 49.4915 73.251 49.8077 73.5673C50.124 73.8835 50.5527 74.0616 51 74.0625H69C69.4473 74.0616 69.876 73.8835 70.1923 73.5673C70.5085 73.251 70.6866 72.8223 70.6875 72.375V70.6875ZM57.75 72.9375H62.25C62.3992 72.9375 62.5423 72.8782 62.6477 72.7727C62.7532 72.6673 62.8125 72.5242 62.8125 72.375C62.8125 72.2258 62.7532 72.0827 62.6477 71.9773C62.5423 71.8718 62.3992 71.8125 62.25 71.8125H57.75C57.6008 71.8125 57.4577 71.8718 57.3523 71.9773C57.2468 72.0827 57.1875 72.2258 57.1875 72.375C57.1875 72.5242 57.2468 72.6673 57.3523 72.7727C57.4577 72.8782 57.6008 72.9375 57.75 72.9375ZM70.6875 69.5625V47.625C70.6866 47.1777 70.5085 46.749 70.1923 46.4327C69.876 46.1165 69.4473 45.9384 69 45.9375H51C50.5527 45.9384 50.124 46.1165 49.8077 46.4327C49.4915 46.749 49.3134 47.1777 49.3125 47.625V69.5625H70.6875ZM66.75 65.0625H60C59.8508 65.0625 59.7077 65.1218 59.6023 65.2273C59.4968 65.3327 59.4375 65.4758 59.4375 65.625C59.4375 65.7742 59.4968 65.9173 59.6023 66.0227C59.7077 66.1282 59.8508 66.1875 60 66.1875H66.75C66.8992 66.1875 67.0423 66.1282 67.1477 66.0227C67.2532 65.9173 67.3125 65.7742 67.3125 65.625C67.3125 65.4758 67.2532 65.3327 67.1477 65.2273C67.0423 65.1218 66.8992 65.0625 66.75 65.0625ZM54.375 64.8296L56.2267 62.9767C56.3347 62.8837 56.4739 62.8348 56.6164 62.8401C56.7589 62.8454 56.8941 62.9043 56.9949 63.0051C57.0957 63.1059 57.1546 63.2411 57.1599 63.3836C57.1652 63.5261 57.1163 63.6653 57.0233 63.7733L54.7733 66.0233C54.6674 66.1285 54.5242 66.1876 54.375 66.1876C54.2258 66.1876 54.0826 66.1285 53.9767 66.0233L52.8517 64.8983C52.7587 64.7903 52.7098 64.6511 52.7151 64.5086C52.7204 64.3661 52.7793 64.2309 52.8801 64.1301C52.9809 64.0293 53.1161 63.9704 53.2586 63.9651C53.4011 63.9598 53.5403 64.0087 53.6483 64.1017L54.375 64.8296ZM64.5 62.8125H60C59.8508 62.8125 59.7077 62.8718 59.6023 62.9773C59.4968 63.0827 59.4375 63.2258 59.4375 63.375C59.4375 63.5242 59.4968 63.6673 59.6023 63.7727C59.7077 63.8782 59.8508 63.9375 60 63.9375H64.5C64.6492 63.9375 64.7923 63.8782 64.8977 63.7727C65.0032 63.6673 65.0625 63.5242 65.0625 63.375C65.0625 63.2258 65.0032 63.0827 64.8977 62.9773C64.7923 62.8718 64.6492 62.8125 64.5 62.8125ZM66.75 58.3125H60C59.8508 58.3125 59.7077 58.3718 59.6023 58.4773C59.4968 58.5827 59.4375 58.7258 59.4375 58.875C59.4375 59.0242 59.4968 59.1673 59.6023 59.2727C59.7077 59.3782 59.8508 59.4375 60 59.4375H66.75C66.8992 59.4375 67.0423 59.3782 67.1477 59.2727C67.2532 59.1673 67.3125 59.0242 67.3125 58.875C67.3125 58.7258 67.2532 58.5827 67.1477 58.4773C67.0423 58.3718 66.8992 58.3125 66.75 58.3125ZM54.375 58.0796L56.2267 56.2267C56.3347 56.1337 56.4739 56.0848 56.6164 56.0901C56.7589 56.0954 56.8941 56.1543 56.9949 56.2551C57.0957 56.3559 57.1546 56.4911 57.1599 56.6336C57.1652 56.7761 57.1163 56.9153 57.0233 57.0233L54.7733 59.2733C54.6674 59.3785 54.5242 59.4376 54.375 59.4376C54.2258 59.4376 54.0826 59.3785 53.9767 59.2733L52.8517 58.1483C52.7587 58.0403 52.7098 57.9011 52.7151 57.7586C52.7204 57.6161 52.7793 57.4809 52.8801 57.3801C52.9809 57.2793 53.1161 57.2204 53.2586 57.2151C53.4011 57.2098 53.5403 57.2587 53.6483 57.3517L54.375 58.0796ZM64.5 56.0625H60C59.8508 56.0625 59.7077 56.1218 59.6023 56.2273C59.4968 56.3327 59.4375 56.4758 59.4375 56.625C59.4375 56.7742 59.4968 56.9173 59.6023 57.0227C59.7077 57.1282 59.8508 57.1875 60 57.1875H64.5C64.6492 57.1875 64.7923 57.1282 64.8977 57.0227C65.0032 56.9173 65.0625 56.7742 65.0625 56.625C65.0625 56.4758 65.0032 56.3327 64.8977 56.2273C64.7923 56.1218 64.6492 56.0625 64.5 56.0625ZM66.75 51.5625H60C59.8508 51.5625 59.7077 51.6218 59.6023 51.7273C59.4968 51.8327 59.4375 51.9758 59.4375 52.125C59.4375 52.2742 59.4968 52.4173 59.6023 52.5227C59.7077 52.6282 59.8508 52.6875 60 52.6875H66.75C66.8992 52.6875 67.0423 52.6282 67.1477 52.5227C67.2532 52.4173 67.3125 52.2742 67.3125 52.125C67.3125 51.9758 67.2532 51.8327 67.1477 51.7273C67.0423 51.6218 66.8992 51.5625 66.75 51.5625ZM54.375 51.3296L56.2267 49.4767C56.3347 49.3837 56.4739 49.3348 56.6164 49.3401C56.7589 49.3454 56.8941 49.4043 56.9949 49.5051C57.0957 49.6059 57.1546 49.7411 57.1599 49.8836C57.1652 50.0261 57.1163 50.1653 57.0233 50.2733L54.7733 52.5233C54.6674 52.6285 54.5242 52.6876 54.375 52.6876C54.2258 52.6876 54.0826 52.6285 53.9767 52.5233L52.8517 51.3983C52.7587 51.2903 52.7098 51.1511 52.7151 51.0086C52.7204 50.8661 52.7793 50.7309 52.8801 50.6301C52.9809 50.5293 53.1161 50.4704 53.2586 50.4651C53.4011 50.4598 53.5403 50.5087 53.6483 50.6017L54.375 51.3296ZM64.5 49.3125H60C59.8508 49.3125 59.7077 49.3718 59.6023 49.4773C59.4968 49.5827 59.4375 49.7258 59.4375 49.875C59.4375 50.0242 59.4968 50.1673 59.6023 50.2727C59.7077 50.3782 59.8508 50.4375 60 50.4375H64.5C64.6492 50.4375 64.7923 50.3782 64.8977 50.2727C65.0032 50.1673 65.0625 50.0242 65.0625 49.875C65.0625 49.7258 65.0032 49.5827 64.8977 49.4773C64.7923 49.3718 64.6492 49.3125 64.5 49.3125Z" fill="black" />
</svg>
