<svg xmlns="http://www.w3.org/2000/svg" width="24" height="24" viewBox="0 0 24 24" fill="none">
	<g clip-path="url(#clip0_13079_24915)">
		<path d="M1.63636 21.0057H5.45456V11.733L2.95434 7.36719L0 7.64211V19.3694C0 20.2735 0.732281 21.0057 1.63636 21.0057Z" fill="#0085F7" />
		<path d="M18.5469 21.0057H22.3651C23.2692 21.0057 24.0014 20.2735 24.0014 19.3694V7.64211L21.0514 7.36719L18.5469 11.733V21.0057H18.5469Z" fill="#00A94B" />
		<path d="M18.5475 4.64076L16.3047 8.92059L18.5475 11.7317L24.0021 7.64076V5.45896C24.0021 3.43668 21.6934 2.28168 20.0748 3.49532L18.5475 4.64076Z" fill="#FFBC00" />
		<path fill-rule="evenodd" clip-rule="evenodd" d="M5.45748 11.7315L3.32031 7.21702L5.45748 4.64062L12.0029 9.5497L18.5484 4.64062V11.7315L12.0029 16.6406L5.45748 11.7315Z" fill="#FF4131" />
		<path d="M0 5.45896V7.64076L5.45456 11.7317V4.64076L3.92728 3.49532C2.30864 2.28168 0 3.43668 0 5.45896Z" fill="#E51C19" />
	</g>
	<defs>
		<clipPath id="clip0_13079_24915">
			<rect width="24" height="24" fill="white" />
		</clipPath>
	</defs>
</svg>
