<svg width="31" height="31" viewBox="0 0 31 31" fill="none" xmlns="http://www.w3.org/2000/svg">
	<g clip-path="url(#clip0_14379_28888)">
		<path d="M26.7727 0H4.22727C1.89261 0 0 1.89261 0 4.22727V26.7727C0 29.1074 1.89261 31 4.22727 31H26.7727C29.1074 31 31 29.1074 31 26.7727V4.22727C31 1.89261 29.1074 0 26.7727 0Z" fill="#0077B5" />
		<path d="M11.1669 8.45455C11.1669 8.97709 11.012 9.48791 10.7216 9.92239C10.4313 10.3569 10.0187 10.6955 9.53593 10.8955C9.05316 11.0954 8.52193 11.1478 8.00942 11.0458C7.49692 10.9439 7.02615 10.6923 6.65665 10.3228C6.28715 9.95326 6.03552 9.48249 5.93358 8.96998C5.83164 8.45748 5.88396 7.92625 6.08393 7.44348C6.2839 6.96071 6.62254 6.54808 7.05702 6.25776C7.4915 5.96745 8.00231 5.8125 8.52486 5.8125C9.22557 5.8125 9.89759 6.09086 10.3931 6.58634C10.8885 7.08182 11.1669 7.75383 11.1669 8.45455ZM10.568 12.858V24.5305C10.5685 24.6166 10.5519 24.702 10.5193 24.7817C10.4867 24.8614 10.4386 24.9338 10.3779 24.9949C10.3172 25.0559 10.245 25.1044 10.1655 25.1374C10.0859 25.1705 10.0007 25.1875 9.91458 25.1875H7.12986C7.04375 25.1877 6.95844 25.1709 6.87884 25.1381C6.79924 25.1053 6.72691 25.057 6.66603 24.9961C6.60514 24.9352 6.55688 24.8629 6.52404 24.7833C6.49119 24.7037 6.4744 24.6184 6.47463 24.5323V12.858C6.47463 12.6842 6.54366 12.5175 6.66654 12.3946C6.78942 12.2718 6.95608 12.2027 7.12986 12.2027H9.91458C10.088 12.2032 10.2543 12.2724 10.3768 12.3953C10.4993 12.5181 10.568 12.6845 10.568 12.858ZM25.124 18.9347V24.5851C25.1242 24.6643 25.1088 24.7427 25.0786 24.8159C25.0484 24.8891 25.004 24.9556 24.948 25.0116C24.8921 25.0676 24.8256 25.1119 24.7524 25.1421C24.6792 25.1723 24.6007 25.1877 24.5216 25.1875H21.5272C21.4481 25.1877 21.3696 25.1723 21.2964 25.1421C21.2233 25.1119 21.1568 25.0676 21.1008 25.0116C21.0448 24.9556 21.0004 24.8891 20.9702 24.8159C20.9401 24.7427 20.9246 24.6643 20.9249 24.5851V19.109C20.9249 18.2918 21.1644 15.5299 18.7883 15.5299C16.9477 15.5299 16.5725 17.4199 16.4986 18.2689V24.5851C16.4986 24.7434 16.4363 24.8953 16.3252 25.008C16.2142 25.1207 16.0632 25.1852 15.905 25.1875H13.0128C12.9338 25.1875 12.8555 25.1719 12.7826 25.1416C12.7096 25.1113 12.6433 25.0669 12.5875 25.011C12.5317 24.955 12.4875 24.8886 12.4574 24.8155C12.4273 24.7424 12.412 24.6641 12.4122 24.5851V12.8069C12.412 12.7279 12.4273 12.6496 12.4574 12.5765C12.4875 12.5034 12.5317 12.437 12.5875 12.381C12.6433 12.3251 12.7096 12.2807 12.7826 12.2504C12.8555 12.2201 12.9338 12.2045 13.0128 12.2045H15.905C16.0647 12.2045 16.218 12.268 16.3309 12.3809C16.4439 12.4939 16.5074 12.6471 16.5074 12.8069V13.8249C17.1908 12.7998 18.2036 12.009 20.3647 12.009C25.1521 12.009 25.124 16.4793 25.124 18.9347Z" fill="white" />
	</g>
	<defs>
		<clipPath id="clip0_14379_28888">
			<rect width="31" height="31" fill="white" />
		</clipPath>
	</defs>
</svg>
