<svg width="28" height="28" viewBox="0 0 976 1125" fill="none" xmlns="http://www.w3.org/2000/svg">
  <path d="M975.5 394.423L585.3 169.199V281.811L975.5 507.035V844.307L487.609 563.341V450.447L877.809 675.953V563.622L487.609 338.117V0L975.5 281.811V394.423Z" fill="#63B299" />
  <path d="M877.808 675.952V563.622H683.271L877.808 675.952Z" fill="#157F66" />
  <path d="M194.819 394.423L97.4102 338.117L487.61 112.894V225.224L194.819 394.423Z" fill="#14171B" />
  <path d="M585.301 169.199L975.501 394.459L829.105 422.576L585.301 281.829V169.199Z" fill="#14171B" />
  <path d="M389.918 394.423V507.035L341.214 535.469L194.818 507.035L243.523 479.163L389.918 394.423Z" fill="#14171B" />
  <path d="M877.809 563.622L487.609 338.117V450.447L731.696 591.494L877.809 563.622Z" fill="#14171B" />
  <path d="M780.117 956.638V843.934L488.171 675.39L195.662 844.137V956.356L488.171 788.001L780.117 956.638Z" fill="#14171B" />
  <path d="M487.609 563.341L877.809 788.051L975.5 844.307L877.809 900.332L488.172 675.39L98.2538 900.332L0 844.307L98.2538 787.72L487.609 563.341Z" fill="#034737" />
  <path d="M488.171 900.332L293.071 1012.66L195.662 956.357L293.071 900.332L488.171 788.002L682.708 900.372L780.117 956.638L682.708 1012.66L488.171 900.332Z" fill="#13745D" />
  <path d="M488.171 900.332L293.071 1012.66L195.662 956.357L293.071 900.332L488.171 788.002L682.708 900.372L780.117 956.638L682.708 1012.66L488.171 900.332Z" fill="#034737" />
  <path d="M585.582 1068.97L488.173 1012.66L390.764 1068.97L488.173 1124.99L585.582 1068.97Z" fill="#034737" />
  <path d="M488.173 1012.66L390.764 1068.97L391.045 956.356L488.173 900.332L585.582 956.638V1068.97L488.173 1012.66Z" fill="#14171B" />
  <path d="M97.4092 338.117L487.609 112.893V0L0 281.811V844.307L487.609 563.341V225.224L243.523 366.27L194.818 394.423V507.035L243.523 479.163L389.918 394.423V507.035L97.4092 676.164V338.117Z" fill="#157F66" />
  <path d="M243.524 366.27L97.4102 338.117V676.234L389.919 507.035L243.524 479.163V366.27Z" fill="#63B299" />
</svg>
