<svg width="1580" height="278" viewBox="0 0 1580 278" fill="none" xmlns="http://www.w3.org/2000/svg">
<path d="M457.726 228.785C445.357 228.962 433.067 226.761 421.521 222.299C411.072 218.231 401.571 212.04 393.613 204.115C385.803 196.238 379.71 186.815 375.721 176.444C371.569 165.389 369.522 153.648 369.687 141.833C369.55 130.042 371.777 118.343 376.234 107.434C380.528 97.0902 386.907 87.7515 394.97 80.0056C403.243 72.0829 413.009 65.9004 423.693 61.8211C435.25 57.3961 447.532 55.1958 459.899 55.3353C468.643 55.3094 477.348 56.5236 485.755 58.9419C493.599 61.1778 501.1 64.4817 508.052 68.7616C514.411 72.6254 520.124 77.4736 524.978 83.1273L500.418 109.252C496.697 105.597 492.578 102.375 488.139 99.6449C483.908 97.0959 479.391 95.0611 474.682 93.5834C469.74 92.0422 464.591 91.2755 459.416 91.3103C449.767 91.2037 440.319 94.0727 432.345 99.5302C424.37 104.988 418.255 112.771 414.823 121.83C412.389 128.213 411.171 134.998 411.233 141.833C411.17 148.72 412.473 155.55 415.064 161.927C418.755 171.126 425.119 178.995 433.325 184.509C441.532 190.023 451.202 192.926 461.075 192.84C465.835 192.872 470.564 192.061 475.044 190.446C479.16 188.971 482.989 186.786 486.359 183.991C489.51 181.291 492.104 177.996 493.992 174.292C495.95 170.552 496.985 166.395 497.009 162.169V156.108L502.259 164.26H456.067V132.225H534.512C534.89 134.604 535.131 137.002 535.236 139.408C535.236 142.439 535.507 145.47 535.598 148.258C535.688 151.046 535.598 153.289 535.598 154.714C535.735 164.955 533.742 175.113 529.745 184.536C525.986 193.384 520.426 201.343 513.422 207.903C506.269 214.574 497.898 219.791 488.772 223.269C478.85 227.013 468.325 228.883 457.726 228.785Z" fill="black"/>
<path d="M556.726 226.391V99.0993H592.931L594.59 140.53L587.44 132.619C589.279 125.992 592.422 119.802 596.681 114.415C600.941 109.028 606.231 104.552 612.24 101.251C618.02 98.0738 624.509 96.4259 631.097 96.4625C633.768 96.4502 636.434 96.6835 639.062 97.1596C641.363 97.6074 643.639 98.1739 645.881 98.8568L635.382 141.287C633.199 139.999 630.826 139.068 628.352 138.529C625.339 137.794 622.25 137.428 619.15 137.438C615.826 137.472 612.539 138.14 609.465 139.408C606.563 140.52 603.953 142.283 601.831 144.561C599.729 146.859 598.071 149.532 596.944 152.44C595.717 155.734 595.113 159.229 595.164 162.745V226.391H556.726Z" fill="black"/>
<path d="M713.609 228.785C701.346 229.013 689.233 226.037 678.46 220.147C668.22 214.478 659.681 206.153 653.735 196.041C647.788 185.928 644.651 174.399 644.651 162.654C644.651 150.909 647.788 139.379 653.735 129.266C659.681 119.154 668.22 110.829 678.46 105.16C689.327 99.5059 701.386 96.5547 713.624 96.5547C725.862 96.5547 737.922 99.5059 748.789 105.16C758.774 110.69 767.107 118.799 772.926 128.649C778.897 138.963 781.943 150.723 781.736 162.654C781.947 174.594 778.9 186.364 772.926 196.689C767.106 206.53 758.772 214.629 748.789 220.147C738.007 226.043 725.883 229.02 713.609 228.785ZM713.609 195.719C719.008 195.82 724.318 194.324 728.876 191.415C733.364 188.515 736.991 184.453 739.375 179.656C741.986 174.385 743.221 168.535 742.966 162.654C743.222 156.714 741.987 150.804 739.375 145.469C737.011 140.635 733.381 136.539 728.876 133.619C724.32 130.702 719.011 129.195 713.609 129.285C708.181 129.21 702.847 130.715 698.252 133.619C693.689 136.506 690.012 140.608 687.632 145.469C685.03 150.786 683.795 156.673 684.042 162.593C683.786 168.474 685.021 174.325 687.632 179.595C690.033 184.419 693.706 188.486 698.252 191.355C702.844 194.269 708.178 195.785 713.609 195.719Z" fill="black"/>
<path d="M823.679 226.389L781.952 99.0977H822.261L845.734 181.837L840.725 180.867L866.974 116.676H889.391L917.209 181.11L911.718 181.595L935.07 99.1886H975.379L932.234 226.48H903.934L876.508 158.197L879.375 158.682L851.949 226.389H823.679Z" fill="black"/>
<path d="M1045.35 228.79C1037.27 228.838 1029.22 227.621 1021.51 225.184C1014.1 222.832 1007.16 219.19 1001 214.425C994.611 209.422 989.052 203.438 984.523 196.695L997.406 182.299C1003.28 191.463 1011.15 199.164 1020.43 204.817C1028.57 209.212 1037.7 211.444 1046.95 211.303C1053.65 211.381 1060.29 210.157 1066.53 207.696C1071.94 205.626 1076.71 202.155 1080.35 197.634C1083.67 193.41 1085.44 188.165 1085.36 182.784C1085.41 179.425 1084.8 176.089 1083.58 172.964C1082.35 170.053 1080.52 167.439 1078.2 165.296C1075.57 162.857 1072.59 160.815 1069.36 159.235C1065.47 157.321 1061.44 155.709 1057.3 154.416C1052.77 153.001 1047.74 151.567 1042.21 150.112C1034.92 148.461 1027.78 146.179 1020.88 143.293C1015.22 140.938 1009.98 137.661 1005.37 133.594C1001.28 129.902 998.023 125.363 995.838 120.289C993.592 114.646 992.504 108.605 992.639 102.529C992.58 96.2193 994.018 89.9858 996.833 84.3448C999.606 78.6963 1003.55 73.706 1008.39 69.7063C1013.58 65.5496 1019.5 62.3857 1025.83 60.3716C1032.75 58.0987 1040 56.9727 1047.28 57.0377C1055.09 56.9595 1062.85 58.1676 1070.27 60.614C1076.89 62.8389 1083.03 66.2933 1088.37 70.7974C1093.72 75.3902 1098.31 80.813 1101.95 86.8603L1088.86 99.7713C1085.7 94.737 1081.88 90.1502 1077.51 86.1329C1070.94 80.3215 1062.87 76.4772 1054.23 75.0361C1045.59 73.5951 1036.73 74.615 1028.63 77.9802C1023.62 80.0824 1019.26 83.5066 1016.02 87.8908C1013.01 92.1085 1011.42 97.1866 1011.5 102.378C1011.42 106.049 1012.15 109.692 1013.64 113.046C1015.17 116.309 1017.51 119.126 1020.43 121.229C1024.15 123.811 1028.21 125.852 1032.5 127.291C1038.41 129.402 1044.46 131.123 1050.6 132.443C1058.2 134.166 1065.66 136.497 1072.89 139.414C1078.97 141.81 1084.67 145.077 1089.82 149.112C1094.32 152.605 1097.98 157.056 1100.56 162.144C1103.12 167.46 1104.39 173.306 1104.27 179.207C1104.49 188.417 1101.91 197.475 1096.88 205.181C1091.75 212.781 1084.62 218.794 1076.27 222.547C1066.55 226.892 1055.99 229.024 1045.35 228.79Z" fill="black"/>
<path d="M1117.61 118.586V101.341H1195.12V118.586H1117.61ZM1145.73 226.389V68.5176H1163.62V226.389H1145.73Z" fill="black"/>
<path d="M1258.53 228.784C1248.14 228.897 1237.94 225.935 1229.21 220.267C1220.36 214.491 1213.2 206.458 1208.45 196.991C1203.26 186.663 1200.64 175.222 1200.82 163.653C1200.59 151.982 1203.3 140.444 1208.69 130.102C1213.62 120.719 1220.9 112.79 1229.81 107.099C1236.91 102.78 1244.86 100.054 1253.11 99.1077C1261.36 98.1609 1269.71 99.0156 1277.6 101.613C1282.98 103.42 1288.02 106.125 1292.51 109.615C1296.81 113.012 1300.53 117.11 1303.49 121.738C1306.39 126.228 1308.44 131.223 1309.52 136.467L1304.27 133.83L1305 101.492H1322.86V226.389H1304.75V195.718L1309.52 192.687C1308.32 197.675 1306.12 202.367 1303.07 206.477C1299.83 210.922 1295.93 214.838 1291.51 218.085C1281.92 225.118 1270.35 228.898 1258.47 228.875L1258.53 228.784ZM1262.58 211.539C1270.4 211.682 1278.1 209.579 1284.78 205.477C1291.36 201.335 1296.67 195.452 1300.14 188.475C1303.98 180.779 1305.91 172.261 1305.75 163.653C1305.91 155.092 1303.99 146.622 1300.14 138.982C1296.62 132.035 1291.32 126.156 1284.78 121.95C1278.11 117.838 1270.4 115.735 1262.58 115.888C1254.73 115.697 1246.99 117.803 1240.31 121.95C1233.78 126.149 1228.48 132.017 1224.95 138.952C1221.13 146.609 1219.23 155.09 1219.43 163.653C1219.29 172.158 1221.17 180.575 1224.92 188.202C1228.34 195.217 1233.62 201.145 1240.19 205.326C1246.9 209.527 1254.67 211.685 1262.58 211.539Z" fill="black"/>
<path d="M1404.26 228.784C1393.18 228.959 1382.28 226.008 1372.79 220.268C1363.56 214.623 1356.01 206.582 1350.95 196.992C1345.51 186.74 1342.76 175.267 1342.95 163.653C1342.76 152.04 1345.51 140.569 1350.95 130.315C1355.99 120.72 1363.54 112.684 1372.79 107.069C1382.39 101.395 1393.36 98.4997 1404.5 98.7045C1414.56 98.5727 1424.51 100.739 1433.62 105.039C1442.05 108.976 1449.33 115.043 1454.73 122.647L1444.24 135.589C1441.09 131.527 1437.34 127.971 1433.13 125.042C1428.96 122.032 1424.38 119.653 1419.53 117.98C1414.89 116.346 1410.02 115.495 1405.1 115.465C1397.1 115.35 1389.23 117.56 1382.44 121.829C1375.82 126.073 1370.42 131.974 1366.76 138.953C1362.68 146.533 1360.6 155.037 1360.72 163.653C1360.62 172.287 1362.7 180.805 1366.76 188.415C1370.42 195.439 1375.89 201.351 1382.6 205.538C1389.33 209.709 1397.1 211.874 1405.01 211.782C1409.8 211.777 1414.56 211.01 1419.1 209.509C1423.73 207.983 1428.12 205.81 1432.14 203.053C1436.45 200.021 1440.31 196.389 1443.6 192.264L1454.25 205.054C1448.51 212.489 1441.06 218.408 1432.53 222.298C1423.72 226.584 1414.05 228.801 1404.26 228.784Z" fill="black"/>
<path d="M1471.24 226.395V49.126H1489.13V226.395H1471.24ZM1487.23 186.146L1486.51 165.295L1551.62 101.346H1575.75L1487.23 186.146ZM1556.63 226.395L1504.16 165.295L1516.8 152.838L1580.01 226.395H1556.63Z" fill="black"/>
<path d="M282.135 114.043L248.766 138.956L142.926 59.8534L37.0253 138.956L3.83711 114.043C2.67804 113.2 1.73444 112.093 1.08373 110.813C0.433022 109.533 0.09375 108.116 0.09375 106.679C0.09375 105.241 0.433022 103.824 1.08373 102.544C1.73444 101.264 2.67804 100.157 3.83711 99.3138L131.582 3.75424C134.862 1.32025 138.833 0.00683594 142.911 0.00683594C146.989 0.00683594 150.96 1.32025 154.24 3.75424L282.105 99.3138C283.266 100.154 284.212 101.259 284.865 102.538C285.518 103.817 285.861 105.233 285.864 106.671C285.867 108.108 285.53 109.526 284.882 110.807C284.234 112.089 283.293 113.198 282.135 114.043Z" fill="#2DA771"/>
<path d="M282.105 163.866C283.264 164.709 284.208 165.816 284.859 167.096C285.509 168.376 285.848 169.793 285.848 171.231C285.848 172.668 285.509 174.085 284.859 175.365C284.208 176.645 283.264 177.752 282.105 178.595L248.917 203.478L154.24 274.125C150.965 276.572 146.992 277.894 142.911 277.894C138.829 277.894 134.856 276.572 131.582 274.125L37.0253 203.478L3.83711 178.595C2.67804 177.752 1.73444 176.645 1.08373 175.365C0.433022 174.085 0.09375 172.668 0.09375 171.231C0.09375 169.793 0.433022 168.376 1.08373 167.096C1.73444 165.816 2.67804 164.709 3.83711 163.866L37.0253 138.953L74.5883 167.018L115.561 136.377V197.598L142.926 218.207L170.261 197.78V136.377L211.203 167.018L248.736 138.953L282.105 163.866Z" fill="#2DA771"/>
</svg>
