<svg width="139" height="100" viewBox="0 0 139 100" fill="none" xmlns="http://www.w3.org/2000/svg">
<path d="M138.305 87.2228C138.695 86.492 138.419 85.5833 137.688 85.1932L125.779 78.8352C125.048 78.445 124.139 78.7211 123.749 79.4519C123.359 80.1827 123.635 81.0915 124.366 81.4816L134.952 87.1332L129.3 97.719C128.91 98.4498 129.186 99.3585 129.917 99.7487C130.648 100.139 131.557 99.8627 131.947 99.1319L138.305 87.2228ZM59.5249 5.86464L60.5638 6.94668L59.5249 5.86464ZM136.545 85.0812C128.169 87.6267 117.425 85.8683 106.311 81.111C95.2383 76.3714 84.0162 68.7455 74.8029 59.8937C65.5747 51.0275 58.4703 41.0365 55.4811 31.6147C52.5123 22.2573 53.6219 13.6113 60.5638 6.94668L58.4861 4.78259C50.5077 12.4424 49.4062 22.3873 52.6216 32.5219C55.8165 42.5921 63.2915 52.9942 72.7244 62.057C82.1722 71.1341 93.6928 78.9731 105.131 83.8689C116.527 88.7471 128.062 90.7947 137.418 87.9516L136.545 85.0812ZM60.5638 6.94668C63.5177 4.11071 65.9063 3.69453 67.7251 4.28389C69.6761 4.9161 71.5371 6.87065 72.9806 9.95246C75.8575 16.0949 76.5129 25.5468 73.6806 32.5813C72.2797 36.0606 70.0691 38.8479 66.9581 40.422C63.8559 41.9916 59.6513 42.4596 54.0516 40.9066C42.7563 37.7738 26.2307 26.5337 3.11431 0.953364L0.888499 2.96478C24.0751 28.6228 41.0853 40.4236 53.2498 43.7974C59.3801 45.4976 64.3863 45.0854 68.3125 43.0988C72.2298 41.1168 74.8649 37.6722 76.4635 33.7018C79.6302 25.8367 78.8998 15.5175 75.6973 8.68C74.1011 5.27186 71.749 2.43425 68.6499 1.42998C65.4185 0.382858 61.92 1.48587 58.4861 4.78259L60.5638 6.94668Z" fill="#FF4040"/>
</svg>
