<svg width="53" height="56" viewBox="0 0 53 56" fill="none" xmlns="http://www.w3.org/2000/svg">
<circle cx="26.7199" cy="25.933" r="17.5167" fill="#FFE1BC"/>
<path d="M48.6163 0.925537H4.82449C3.66306 0.925537 2.5492 1.38691 1.72795 2.20817C0.906689 3.02943 0.445313 4.14329 0.445312 5.30472V21.3708C0.445312 45.8395 21.1917 53.9684 25.3519 55.3369C26.2345 55.6663 27.2063 55.6663 28.0889 55.3369C32.2491 53.9684 52.9955 45.8395 52.9955 21.3708V5.30472C52.9955 4.14329 52.5341 3.02943 51.7129 2.20817C50.8916 1.38691 49.7777 0.925537 48.6163 0.925537ZM37.8052 25.8869L30.2511 28.3502L34.9314 34.7821C35.1003 35.0132 35.2217 35.2757 35.2884 35.5541C35.3551 35.8325 35.3659 36.1215 35.3201 36.4041C35.2742 36.6867 35.1727 36.9574 35.0214 37.2005C34.8701 37.4436 34.6721 37.6542 34.4387 37.8201C34.071 38.106 33.6181 38.2602 33.1523 38.2581C32.8062 38.2549 32.4655 38.1717 32.1569 38.015C31.8483 37.8583 31.5801 37.6324 31.3733 37.3549L26.7204 30.9229L22.0675 37.3549C21.8607 37.6324 21.5925 37.8583 21.2839 38.015C20.9753 38.1717 20.6346 38.2549 20.2885 38.2581C19.8228 38.2602 19.3698 38.106 19.0021 37.8201C18.7688 37.6542 18.5707 37.4436 18.4194 37.2005C18.2681 36.9574 18.1666 36.6867 18.1207 36.4041C18.0749 36.1215 18.0857 35.8325 18.1524 35.5541C18.2191 35.2757 18.3405 35.0132 18.5094 34.7821L23.1897 28.3502L15.6356 25.8869C15.0852 25.7108 14.6267 25.3243 14.3601 24.8116C14.0935 24.2989 14.0404 23.7016 14.2124 23.1499C14.3943 22.5975 14.7861 22.1387 15.3032 21.8724C15.8203 21.6062 16.4214 21.5538 16.9767 21.7267L24.5308 24.1899V16.2527C24.5308 15.672 24.7615 15.115 25.1721 14.7044C25.5828 14.2938 26.1397 14.0631 26.7204 14.0631C27.3011 14.0631 27.8581 14.2938 28.2687 14.7044C28.6793 15.115 28.91 15.672 28.91 16.2527V24.1899L36.4641 21.7267C37.0194 21.5538 37.6205 21.6062 38.1376 21.8724C38.6547 22.1387 39.0465 22.5975 39.2284 23.1499C39.4004 23.7016 39.3473 24.2989 39.0807 24.8116C38.8141 25.3243 38.3556 25.7108 37.8052 25.8869Z" fill="#FEBA66"/>
</svg>
