<svg width="59" height="64" viewBox="0 0 59 64" fill="none" xmlns="http://www.w3.org/2000/svg">
<rect x="0.486328" y="0.353027" width="58.0818" height="62.6914" rx="11.0632" fill="#CDF1F9"/>
<path d="M53.0108 31.713C53.0108 32.2195 52.8088 32.7052 52.4492 33.0633C52.0897 33.4214 51.602 33.6226 51.0935 33.6226H30.0041C29.4956 33.6226 29.008 33.4214 28.6484 33.0633C28.2889 32.7052 28.0869 32.2195 28.0869 31.713C28.0869 31.2065 28.2889 30.7208 28.6484 30.3627C29.008 30.0045 29.4956 29.8033 30.0041 29.8033H51.0935C51.602 29.8033 52.0897 30.0045 52.4492 30.3627C52.8088 30.7208 53.0108 31.2065 53.0108 31.713ZM30.0041 18.3455H51.0935C51.602 18.3455 52.0897 18.1443 52.4492 17.7861C52.8088 17.428 53.0108 16.9423 53.0108 16.4358C53.0108 15.9293 52.8088 15.4436 52.4492 15.0855C52.0897 14.7274 51.602 14.5262 51.0935 14.5262H30.0041C29.4956 14.5262 29.008 14.7274 28.6484 15.0855C28.2889 15.4436 28.0869 15.9293 28.0869 16.4358C28.0869 16.9423 28.2889 17.428 28.6484 17.7861C29.008 18.1443 29.4956 18.3455 30.0041 18.3455ZM51.0935 45.0805H30.0041C29.4956 45.0805 29.008 45.2817 28.6484 45.6398C28.2889 45.998 28.0869 46.4837 28.0869 46.9902C28.0869 47.4966 28.2889 47.9824 28.6484 48.3405C29.008 48.6986 29.4956 48.8998 30.0041 48.8998H51.0935C51.602 48.8998 52.0897 48.6986 52.4492 48.3405C52.8088 47.9824 53.0108 47.4966 53.0108 46.9902C53.0108 46.4837 52.8088 45.998 52.4492 45.6398C52.0897 45.2817 51.602 45.0805 51.0935 45.0805ZM20.0825 11.2082L13.0606 17.6532L10.2088 15.0274C9.83174 14.6984 9.34031 14.5295 8.83978 14.557C8.33925 14.5844 7.86943 14.8061 7.53098 15.1744C7.19253 15.5427 7.01237 16.0284 7.02911 16.5275C7.04584 17.0265 7.25814 17.4992 7.62051 17.8442L11.7665 21.6635C12.1198 21.9858 12.5815 22.1646 13.0606 22.1647C13.5471 22.1659 14.0168 21.9873 14.3787 21.6635L22.6707 14.0249C22.8627 13.8573 23.0192 13.6533 23.1309 13.4247C23.2427 13.1961 23.3075 12.9475 23.3215 12.6937C23.3356 12.4398 23.2986 12.1857 23.2127 11.9462C23.1268 11.7068 22.9938 11.4868 22.8215 11.2993C22.6491 11.1117 22.4409 10.9603 22.2091 10.854C21.9772 10.7477 21.7263 10.6885 21.4712 10.68C21.2161 10.6715 20.9618 10.7139 20.7234 10.8046C20.4849 10.8953 20.267 11.0325 20.0825 11.2082ZM20.0825 26.4853L13.0606 32.9304L10.2088 30.3046C10.0242 30.1289 9.80634 29.9917 9.56787 29.901C9.32939 29.8103 9.07513 29.768 8.82001 29.7765C8.56489 29.785 8.31403 29.8441 8.08216 29.9505C7.8503 30.0568 7.64208 30.2082 7.46974 30.3958C7.29739 30.5833 7.16438 30.8033 7.07852 31.0427C6.99265 31.2821 6.95566 31.5363 6.9697 31.7901C6.98374 32.044 7.04855 32.2925 7.1603 32.5211C7.27206 32.7497 7.42852 32.9538 7.62051 33.1213L11.7665 36.9406C12.1198 37.2629 12.5815 37.4418 13.0606 37.4419C13.5471 37.4431 14.0168 37.2645 14.3787 36.9406L22.6707 29.3021C22.8627 29.1345 23.0192 28.9304 23.1309 28.7018C23.2427 28.4732 23.3075 28.2247 23.3215 27.9708C23.3356 27.717 23.2986 27.4629 23.2127 27.2234C23.1268 26.984 22.9938 26.764 22.8215 26.5765C22.6491 26.3889 22.4409 26.2375 22.2091 26.1312C21.9772 26.0248 21.7263 25.9657 21.4712 25.9572C21.2161 25.9487 20.9618 25.991 20.7234 26.0817C20.4849 26.1724 20.267 26.3096 20.0825 26.4853ZM20.0825 41.7625L13.0606 48.2076L10.2088 45.5818C10.0242 45.4061 9.80634 45.2689 9.56787 45.1782C9.32939 45.0875 9.07513 45.0452 8.82001 45.0537C8.56489 45.0621 8.31403 45.1213 8.08216 45.2276C7.8503 45.334 7.64208 45.4854 7.46974 45.6729C7.29739 45.8605 7.16438 46.0804 7.07852 46.3199C6.99265 46.5593 6.95566 46.8134 6.9697 47.0673C6.98374 47.3212 7.04855 47.5697 7.1603 47.7983C7.27206 48.0269 7.42852 48.231 7.62051 48.3985L11.7665 52.2178C12.1198 52.5401 12.5815 52.7189 13.0606 52.7191C13.5471 52.7203 14.0168 52.5417 14.3787 52.2178L22.6707 44.5792C23.0331 44.2342 23.2454 43.7616 23.2621 43.2625C23.2789 42.7635 23.0987 42.2778 22.7603 41.9095C22.4218 41.5411 21.952 41.3195 21.4514 41.292C20.9509 41.2646 20.4595 41.4334 20.0825 41.7625Z" fill="#27CAEA"/>
</svg>
