<svg width="341" height="305" viewBox="0 0 341 305" fill="none" xmlns="http://www.w3.org/2000/svg">
<mask id="path-1-outside-1_129_2680" maskUnits="userSpaceOnUse" x="0" y="0" width="341" height="305" fill="black">
<rect fill="white" width="341" height="305"/>
<path d="M0 20C0 8.95429 8.95431 0 20 0H320C331.046 0 340 8.9543 340 20V284.168C340 295.213 331.046 304.168 320 304.168H20C8.9543 304.168 0 295.213 0 284.168V20Z"/>
</mask>
<path d="M0 20C0 8.95429 8.95431 0 20 0H320C331.046 0 340 8.9543 340 20V284.168C340 295.213 331.046 304.168 320 304.168H20C8.9543 304.168 0 295.213 0 284.168V20Z" fill="white"/>
<path d="M0 0H340H0ZM340 304.168H0H340ZM0 304.168V0V304.168ZM320 0C331.598 0 341 9.40202 341 21V283.168C341 294.766 331.598 304.168 320 304.168C330.493 304.168 339 295.213 339 284.168V20C339 8.95431 330.493 0 320 0Z" fill="#E8E8E8" mask="url(#path-1-outside-1_129_2680)"/>
<g filter="url(#filter0_dddddd_129_2680)">
<rect x="107.204" y="13.2036" width="131.593" height="24.0659" rx="12.0329" fill="white"/>
<rect x="107.204" y="13.2036" width="131.593" height="24.0659" rx="12.0329" stroke="#D2D2D2" stroke-width="0.407186"/>
<path d="M115.575 25.2463C115.575 24.5663 115.728 23.9563 116.035 23.4163C116.341 22.8697 116.758 22.443 117.285 22.1363C117.818 21.8297 118.408 21.6763 119.055 21.6763C119.815 21.6763 120.478 21.8597 121.045 22.2263C121.611 22.593 122.025 23.113 122.285 23.7863H121.195C121.001 23.3663 120.721 23.043 120.355 22.8163C119.995 22.5897 119.561 22.4763 119.055 22.4763C118.568 22.4763 118.131 22.5897 117.745 22.8163C117.358 23.043 117.055 23.3663 116.835 23.7863C116.615 24.1997 116.505 24.6863 116.505 25.2463C116.505 25.7997 116.615 26.2863 116.835 26.7063C117.055 27.1197 117.358 27.4397 117.745 27.6663C118.131 27.893 118.568 28.0063 119.055 28.0063C119.561 28.0063 119.995 27.8963 120.355 27.6763C120.721 27.4497 121.001 27.1263 121.195 26.7063H122.285C122.025 27.373 121.611 27.8897 121.045 28.2563C120.478 28.6163 119.815 28.7963 119.055 28.7963C118.408 28.7963 117.818 28.6463 117.285 28.3463C116.758 28.0397 116.341 27.6163 116.035 27.0763C115.728 26.5363 115.575 25.9263 115.575 25.2463ZM124.549 24.1463C124.709 23.833 124.936 23.5897 125.229 23.4163C125.529 23.243 125.892 23.1563 126.319 23.1563V24.0963H126.079C125.059 24.0963 124.549 24.6497 124.549 25.7563V28.7363H123.639V23.2563H124.549V24.1463ZM132.37 25.7863C132.37 25.9597 132.36 26.143 132.34 26.3363H127.96C127.993 26.8763 128.176 27.2997 128.51 27.6063C128.85 27.9063 129.26 28.0563 129.74 28.0563C130.133 28.0563 130.46 27.9663 130.72 27.7863C130.986 27.5997 131.173 27.353 131.28 27.0463H132.26C132.113 27.573 131.82 28.003 131.38 28.3363C130.94 28.663 130.393 28.8263 129.74 28.8263C129.22 28.8263 128.753 28.7097 128.34 28.4763C127.933 28.243 127.613 27.913 127.38 27.4863C127.146 27.053 127.03 26.553 127.03 25.9863C127.03 25.4197 127.143 24.923 127.37 24.4963C127.596 24.0697 127.913 23.743 128.32 23.5163C128.733 23.283 129.206 23.1663 129.74 23.1663C130.26 23.1663 130.72 23.2797 131.12 23.5063C131.52 23.733 131.826 24.0463 132.04 24.4463C132.26 24.8397 132.37 25.2863 132.37 25.7863ZM131.43 25.5963C131.43 25.2497 131.353 24.953 131.2 24.7063C131.046 24.453 130.836 24.263 130.57 24.1363C130.31 24.003 130.02 23.9363 129.7 23.9363C129.24 23.9363 128.846 24.083 128.52 24.3763C128.2 24.6697 128.016 25.0763 127.97 25.5963H131.43ZM133.231 25.9763C133.231 25.4163 133.344 24.9263 133.571 24.5063C133.797 24.0797 134.107 23.7497 134.501 23.5163C134.901 23.283 135.344 23.1663 135.831 23.1663C136.311 23.1663 136.727 23.2697 137.081 23.4763C137.434 23.683 137.697 23.943 137.871 24.2563V23.2563H138.791V28.7363H137.871V27.7163C137.691 28.0363 137.421 28.303 137.061 28.5163C136.707 28.723 136.294 28.8263 135.821 28.8263C135.334 28.8263 134.894 28.7063 134.501 28.4663C134.107 28.2263 133.797 27.8897 133.571 27.4563C133.344 27.023 133.231 26.5297 133.231 25.9763ZM137.871 25.9863C137.871 25.573 137.787 25.213 137.621 24.9063C137.454 24.5997 137.227 24.3663 136.941 24.2063C136.661 24.0397 136.351 23.9563 136.011 23.9563C135.671 23.9563 135.361 24.0363 135.081 24.1963C134.801 24.3563 134.577 24.5897 134.411 24.8963C134.244 25.203 134.161 25.563 134.161 25.9763C134.161 26.3963 134.244 26.763 134.411 27.0763C134.577 27.383 134.801 27.6197 135.081 27.7863C135.361 27.9463 135.671 28.0263 136.011 28.0263C136.351 28.0263 136.661 27.9463 136.941 27.7863C137.227 27.6197 137.454 27.383 137.621 27.0763C137.787 26.763 137.871 26.3997 137.871 25.9863ZM141.439 24.0063V27.2363C141.439 27.503 141.495 27.693 141.609 27.8063C141.722 27.913 141.919 27.9663 142.199 27.9663H142.869V28.7363H142.049C141.542 28.7363 141.162 28.6197 140.909 28.3863C140.655 28.153 140.529 27.7697 140.529 27.2363V24.0063H139.819V23.2563H140.529V21.8763H141.439V23.2563H142.869V24.0063H141.439ZM148.971 25.7863C148.971 25.9597 148.961 26.143 148.941 26.3363H144.561C144.595 26.8763 144.778 27.2997 145.111 27.6063C145.451 27.9063 145.861 28.0563 146.341 28.0563C146.735 28.0563 147.061 27.9663 147.321 27.7863C147.588 27.5997 147.775 27.353 147.881 27.0463H148.861C148.715 27.573 148.421 28.003 147.981 28.3363C147.541 28.663 146.995 28.8263 146.341 28.8263C145.821 28.8263 145.355 28.7097 144.941 28.4763C144.535 28.243 144.215 27.913 143.981 27.4863C143.748 27.053 143.631 26.553 143.631 25.9863C143.631 25.4197 143.745 24.923 143.971 24.4963C144.198 24.0697 144.515 23.743 144.921 23.5163C145.335 23.283 145.808 23.1663 146.341 23.1663C146.861 23.1663 147.321 23.2797 147.721 23.5063C148.121 23.733 148.428 24.0463 148.641 24.4463C148.861 24.8397 148.971 25.2863 148.971 25.7863ZM148.031 25.5963C148.031 25.2497 147.955 24.953 147.801 24.7063C147.648 24.453 147.438 24.263 147.171 24.1363C146.911 24.003 146.621 23.9363 146.301 23.9363C145.841 23.9363 145.448 24.083 145.121 24.3763C144.801 24.6697 144.618 25.0763 144.571 25.5963H148.031Z" fill="#14171B"/>
<rect x="162.359" y="17.0718" width="71" height="16.3293" rx="8.16467" fill="#034737"/>
<path d="M173.229 25.2463C173.229 24.5663 173.386 23.9563 173.699 23.4163C174.019 22.8763 174.449 22.4563 174.989 22.1563C175.536 21.8497 176.133 21.6963 176.779 21.6963C177.519 21.6963 178.176 21.8797 178.749 22.2463C179.329 22.6063 179.749 23.1197 180.009 23.7863H178.639C178.459 23.4197 178.209 23.1463 177.889 22.9663C177.569 22.7863 177.199 22.6963 176.779 22.6963C176.319 22.6963 175.909 22.7997 175.549 23.0063C175.189 23.213 174.906 23.5097 174.699 23.8963C174.499 24.283 174.399 24.733 174.399 25.2463C174.399 25.7597 174.499 26.2097 174.699 26.5963C174.906 26.983 175.189 27.283 175.549 27.4963C175.909 27.703 176.319 27.8063 176.779 27.8063C177.199 27.8063 177.569 27.7163 177.889 27.5363C178.209 27.3563 178.459 27.083 178.639 26.7163H180.009C179.749 27.383 179.329 27.8963 178.749 28.2563C178.176 28.6163 177.519 28.7963 176.779 28.7963C176.126 28.7963 175.529 28.6463 174.989 28.3463C174.449 28.0397 174.019 27.6163 173.699 27.0763C173.386 26.5363 173.229 25.9263 173.229 25.2463ZM183.734 28.8263C183.214 28.8263 182.744 28.7097 182.324 28.4763C181.904 28.2363 181.574 27.903 181.334 27.4763C181.094 27.043 180.974 26.543 180.974 25.9763C180.974 25.4163 181.097 24.9197 181.344 24.4863C181.59 24.053 181.927 23.7197 182.354 23.4863C182.78 23.253 183.257 23.1363 183.784 23.1363C184.31 23.1363 184.787 23.253 185.214 23.4863C185.64 23.7197 185.977 24.053 186.224 24.4863C186.47 24.9197 186.594 25.4163 186.594 25.9763C186.594 26.5363 186.467 27.033 186.214 27.4663C185.96 27.8997 185.614 28.2363 185.174 28.4763C184.74 28.7097 184.26 28.8263 183.734 28.8263ZM183.734 27.8363C184.027 27.8363 184.3 27.7663 184.554 27.6263C184.814 27.4863 185.024 27.2763 185.184 26.9963C185.344 26.7163 185.424 26.3763 185.424 25.9763C185.424 25.5763 185.347 25.2397 185.194 24.9663C185.04 24.6863 184.837 24.4763 184.584 24.3363C184.33 24.1963 184.057 24.1263 183.764 24.1263C183.47 24.1263 183.197 24.1963 182.944 24.3363C182.697 24.4763 182.5 24.6863 182.354 24.9663C182.207 25.2397 182.134 25.5763 182.134 25.9763C182.134 26.5697 182.284 27.0297 182.584 27.3563C182.89 27.6763 183.274 27.8363 183.734 27.8363ZM190.501 23.1363C190.934 23.1363 191.321 23.2263 191.661 23.4063C192.007 23.5863 192.277 23.853 192.471 24.2063C192.664 24.5597 192.761 24.9863 192.761 25.4863V28.7363H191.631V25.6563C191.631 25.163 191.507 24.7863 191.261 24.5263C191.014 24.2597 190.677 24.1263 190.251 24.1263C189.824 24.1263 189.484 24.2597 189.231 24.5263C188.984 24.7863 188.861 25.163 188.861 25.6563V28.7363H187.721V23.2263H188.861V23.8563C189.047 23.6297 189.284 23.453 189.571 23.3263C189.864 23.1997 190.174 23.1363 190.501 23.1363ZM196.525 24.1563H195.505V28.7363H194.355V24.1563H193.705V23.2263H194.355V22.8363C194.355 22.203 194.522 21.743 194.855 21.4563C195.195 21.163 195.725 21.0163 196.445 21.0163V21.9663C196.098 21.9663 195.855 22.033 195.715 22.1663C195.575 22.293 195.505 22.5163 195.505 22.8363V23.2263H196.525V24.1563ZM198.115 22.4963C197.908 22.4963 197.735 22.4263 197.595 22.2863C197.455 22.1463 197.385 21.973 197.385 21.7663C197.385 21.5597 197.455 21.3863 197.595 21.2463C197.735 21.1063 197.908 21.0363 198.115 21.0363C198.315 21.0363 198.485 21.1063 198.625 21.2463C198.765 21.3863 198.835 21.5597 198.835 21.7663C198.835 21.973 198.765 22.1463 198.625 22.2863C198.485 22.4263 198.315 22.4963 198.115 22.4963ZM198.675 23.2263V28.7363H197.535V23.2263H198.675ZM202.392 23.1363C202.819 23.1363 203.195 23.223 203.522 23.3963C203.855 23.563 204.115 23.773 204.302 24.0263V23.2263H205.452V28.8263C205.452 29.333 205.345 29.783 205.132 30.1763C204.919 30.5763 204.609 30.8897 204.202 31.1163C203.802 31.343 203.322 31.4563 202.762 31.4563C202.015 31.4563 201.395 31.2797 200.902 30.9263C200.409 30.5797 200.129 30.1063 200.062 29.5063H201.192C201.279 29.793 201.462 30.023 201.742 30.1963C202.029 30.3763 202.369 30.4663 202.762 30.4663C203.222 30.4663 203.592 30.3263 203.872 30.0463C204.159 29.7663 204.302 29.3597 204.302 28.8263V27.9063C204.109 28.1663 203.845 28.3863 203.512 28.5663C203.185 28.7397 202.812 28.8263 202.392 28.8263C201.912 28.8263 201.472 28.7063 201.072 28.4663C200.679 28.2197 200.365 27.8797 200.132 27.4463C199.905 27.0063 199.792 26.5097 199.792 25.9563C199.792 25.403 199.905 24.913 200.132 24.4863C200.365 24.0597 200.679 23.7297 201.072 23.4963C201.472 23.2563 201.912 23.1363 202.392 23.1363ZM204.302 25.9763C204.302 25.5963 204.222 25.2663 204.062 24.9863C203.909 24.7063 203.705 24.493 203.452 24.3463C203.199 24.1997 202.925 24.1263 202.632 24.1263C202.339 24.1263 202.065 24.1997 201.812 24.3463C201.559 24.4863 201.352 24.6963 201.192 24.9763C201.039 25.2497 200.962 25.5763 200.962 25.9563C200.962 26.3363 201.039 26.6697 201.192 26.9563C201.352 27.243 201.559 27.463 201.812 27.6163C202.072 27.763 202.345 27.8363 202.632 27.8363C202.925 27.8363 203.199 27.763 203.452 27.6163C203.705 27.4697 203.909 27.2563 204.062 26.9763C204.222 26.6897 204.302 26.3563 204.302 25.9763ZM211.939 23.2263V28.7363H210.799V28.0863C210.619 28.313 210.383 28.493 210.089 28.6263C209.803 28.753 209.496 28.8163 209.169 28.8163C208.736 28.8163 208.346 28.7263 207.999 28.5463C207.659 28.3663 207.389 28.0997 207.189 27.7463C206.996 27.393 206.899 26.9663 206.899 26.4663V23.2263H208.029V26.2963C208.029 26.7897 208.153 27.1697 208.399 27.4363C208.646 27.6963 208.983 27.8263 209.409 27.8263C209.836 27.8263 210.173 27.6963 210.419 27.4363C210.673 27.1697 210.799 26.7897 210.799 26.2963V23.2263H211.939ZM214.583 24.0263C214.75 23.7463 214.97 23.5297 215.243 23.3763C215.523 23.2163 215.853 23.1363 216.233 23.1363V24.3163H215.943C215.497 24.3163 215.157 24.4297 214.923 24.6563C214.697 24.883 214.583 25.2763 214.583 25.8363V28.7363H213.443V23.2263H214.583V24.0263ZM222.331 25.8463C222.331 26.053 222.318 26.2397 222.291 26.4063H218.081C218.115 26.8463 218.278 27.1997 218.571 27.4663C218.865 27.733 219.225 27.8663 219.651 27.8663C220.265 27.8663 220.698 27.6097 220.951 27.0963H222.181C222.015 27.603 221.711 28.0197 221.271 28.3463C220.838 28.6663 220.298 28.8263 219.651 28.8263C219.125 28.8263 218.651 28.7097 218.231 28.4763C217.818 28.2363 217.491 27.903 217.251 27.4763C217.018 27.043 216.901 26.543 216.901 25.9763C216.901 25.4097 217.015 24.913 217.241 24.4863C217.475 24.053 217.798 23.7197 218.211 23.4863C218.631 23.253 219.111 23.1363 219.651 23.1363C220.171 23.1363 220.635 23.2497 221.041 23.4763C221.448 23.703 221.765 24.023 221.991 24.4363C222.218 24.843 222.331 25.313 222.331 25.8463ZM221.141 25.4863C221.135 25.0663 220.985 24.7297 220.691 24.4763C220.398 24.223 220.035 24.0963 219.601 24.0963C219.208 24.0963 218.871 24.223 218.591 24.4763C218.311 24.723 218.145 25.0597 218.091 25.4863H221.141Z" fill="white"/>
</g>
<g filter="url(#filter1_d_129_2680)">
<rect x="11.8086" y="258" width="311.497" height="30" rx="15" fill="white" shape-rendering="crispEdges"/>
<rect x="12.0122" y="258.204" width="311.09" height="29.5928" rx="14.7964" stroke="#E8E8E8" stroke-width="0.407186" shape-rendering="crispEdges"/>
<path fill-rule="evenodd" clip-rule="evenodd" d="M24.8394 277.886C27.5379 277.886 29.7256 275.699 29.7256 273C29.7256 270.301 27.5379 268.114 24.8394 268.114C22.1408 268.114 19.9531 270.301 19.9531 273C19.9531 275.699 22.1408 277.886 24.8394 277.886ZM25.1267 268.976C24.4561 270.174 23.8046 272.828 26.5639 273.862L25.1267 277.168L20.8151 273.144C21.1027 271.898 22.3677 269.321 25.1267 268.976Z" fill="#034737"/>
<path opacity="0.4" d="M40.8224 269.58V276.5H39.9124V271.34L37.6124 276.5H36.9724L34.6624 271.33V276.5H33.7524V269.58H34.7324L37.2924 275.3L39.8524 269.58H40.8224ZM47.3657 273.55C47.3657 273.723 47.3557 273.907 47.3357 274.1H42.9557C42.989 274.64 43.1724 275.063 43.5057 275.37C43.8457 275.67 44.2557 275.82 44.7357 275.82C45.129 275.82 45.4557 275.73 45.7157 275.55C45.9824 275.363 46.169 275.117 46.2757 274.81H47.2557C47.109 275.337 46.8157 275.767 46.3757 276.1C45.9357 276.427 45.389 276.59 44.7357 276.59C44.2157 276.59 43.749 276.473 43.3357 276.24C42.929 276.007 42.609 275.677 42.3757 275.25C42.1424 274.817 42.0257 274.317 42.0257 273.75C42.0257 273.183 42.139 272.687 42.3657 272.26C42.5924 271.833 42.909 271.507 43.3157 271.28C43.729 271.047 44.2024 270.93 44.7357 270.93C45.2557 270.93 45.7157 271.043 46.1157 271.27C46.5157 271.497 46.8224 271.81 47.0357 272.21C47.2557 272.603 47.3657 273.05 47.3657 273.55ZM46.4257 273.36C46.4257 273.013 46.349 272.717 46.1957 272.47C46.0424 272.217 45.8324 272.027 45.5657 271.9C45.3057 271.767 45.0157 271.7 44.6957 271.7C44.2357 271.7 43.8424 271.847 43.5157 272.14C43.1957 272.433 43.0124 272.84 42.9657 273.36H46.4257ZM50.5069 276.59C50.0869 276.59 49.7102 276.52 49.3769 276.38C49.0435 276.233 48.7802 276.033 48.5869 275.78C48.3935 275.52 48.2869 275.223 48.2669 274.89H49.2069C49.2335 275.163 49.3602 275.387 49.5869 275.56C49.8202 275.733 50.1235 275.82 50.4969 275.82C50.8435 275.82 51.1169 275.743 51.3169 275.59C51.5169 275.437 51.6169 275.243 51.6169 275.01C51.6169 274.77 51.5102 274.593 51.2969 274.48C51.0835 274.36 50.7535 274.243 50.3069 274.13C49.9002 274.023 49.5669 273.917 49.3069 273.81C49.0535 273.697 48.8335 273.533 48.6469 273.32C48.4669 273.1 48.3769 272.813 48.3769 272.46C48.3769 272.18 48.4602 271.923 48.6269 271.69C48.7935 271.457 49.0302 271.273 49.3369 271.14C49.6435 271 49.9935 270.93 50.3869 270.93C50.9935 270.93 51.4835 271.083 51.8569 271.39C52.2302 271.697 52.4302 272.117 52.4569 272.65H51.5469C51.5269 272.363 51.4102 272.133 51.1969 271.96C50.9902 271.787 50.7102 271.7 50.3569 271.7C50.0302 271.7 49.7702 271.77 49.5769 271.91C49.3835 272.05 49.2869 272.233 49.2869 272.46C49.2869 272.64 49.3435 272.79 49.4569 272.91C49.5769 273.023 49.7235 273.117 49.8969 273.19C50.0769 273.257 50.3235 273.333 50.6369 273.42C51.0302 273.527 51.3502 273.633 51.5969 273.74C51.8435 273.84 52.0535 273.993 52.2269 274.2C52.4069 274.407 52.5002 274.677 52.5069 275.01C52.5069 275.31 52.4235 275.58 52.2569 275.82C52.0902 276.06 51.8535 276.25 51.5469 276.39C51.2469 276.523 50.9002 276.59 50.5069 276.59ZM55.7315 276.59C55.3115 276.59 54.9348 276.52 54.6015 276.38C54.2682 276.233 54.0048 276.033 53.8115 275.78C53.6182 275.52 53.5115 275.223 53.4915 274.89H54.4315C54.4582 275.163 54.5848 275.387 54.8115 275.56C55.0448 275.733 55.3482 275.82 55.7215 275.82C56.0682 275.82 56.3415 275.743 56.5415 275.59C56.7415 275.437 56.8415 275.243 56.8415 275.01C56.8415 274.77 56.7348 274.593 56.5215 274.48C56.3082 274.36 55.9782 274.243 55.5315 274.13C55.1248 274.023 54.7915 273.917 54.5315 273.81C54.2782 273.697 54.0582 273.533 53.8715 273.32C53.6915 273.1 53.6015 272.813 53.6015 272.46C53.6015 272.18 53.6848 271.923 53.8515 271.69C54.0182 271.457 54.2548 271.273 54.5615 271.14C54.8682 271 55.2182 270.93 55.6115 270.93C56.2182 270.93 56.7082 271.083 57.0815 271.39C57.4548 271.697 57.6548 272.117 57.6815 272.65H56.7715C56.7515 272.363 56.6348 272.133 56.4215 271.96C56.2148 271.787 55.9348 271.7 55.5815 271.7C55.2548 271.7 54.9948 271.77 54.8015 271.91C54.6082 272.05 54.5115 272.233 54.5115 272.46C54.5115 272.64 54.5682 272.79 54.6815 272.91C54.8015 273.023 54.9482 273.117 55.1215 273.19C55.3015 273.257 55.5482 273.333 55.8615 273.42C56.2548 273.527 56.5748 273.633 56.8215 273.74C57.0682 273.84 57.2782 273.993 57.4515 274.2C57.6315 274.407 57.7248 274.677 57.7315 275.01C57.7315 275.31 57.6482 275.58 57.4815 275.82C57.3148 276.06 57.0782 276.25 56.7715 276.39C56.4715 276.523 56.1248 276.59 55.7315 276.59ZM58.6761 273.74C58.6761 273.18 58.7894 272.69 59.0161 272.27C59.2428 271.843 59.5528 271.513 59.9461 271.28C60.3461 271.047 60.7894 270.93 61.2761 270.93C61.7561 270.93 62.1728 271.033 62.5261 271.24C62.8794 271.447 63.1428 271.707 63.3161 272.02V271.02H64.2361V276.5H63.3161V275.48C63.1361 275.8 62.8661 276.067 62.5061 276.28C62.1528 276.487 61.7394 276.59 61.2661 276.59C60.7794 276.59 60.3394 276.47 59.9461 276.23C59.5528 275.99 59.2428 275.653 59.0161 275.22C58.7894 274.787 58.6761 274.293 58.6761 273.74ZM63.3161 273.75C63.3161 273.337 63.2328 272.977 63.0661 272.67C62.8994 272.363 62.6728 272.13 62.3861 271.97C62.1061 271.803 61.7961 271.72 61.4561 271.72C61.1161 271.72 60.8061 271.8 60.5261 271.96C60.2461 272.12 60.0228 272.353 59.8561 272.66C59.6894 272.967 59.6061 273.327 59.6061 273.74C59.6061 274.16 59.6894 274.527 59.8561 274.84C60.0228 275.147 60.2461 275.383 60.5261 275.55C60.8061 275.71 61.1161 275.79 61.4561 275.79C61.7961 275.79 62.1061 275.71 62.3861 275.55C62.6728 275.383 62.8994 275.147 63.0661 274.84C63.2328 274.527 63.3161 274.163 63.3161 273.75ZM68.0339 270.93C68.5072 270.93 68.9206 271.033 69.2739 271.24C69.6339 271.447 69.9006 271.707 70.0739 272.02V271.02H70.9939V276.62C70.9939 277.12 70.8872 277.563 70.6739 277.95C70.4606 278.343 70.1539 278.65 69.7539 278.87C69.3606 279.09 68.9006 279.2 68.3739 279.2C67.6539 279.2 67.0539 279.03 66.5739 278.69C66.0939 278.35 65.8106 277.887 65.7239 277.3H66.6239C66.7239 277.633 66.9306 277.9 67.2439 278.1C67.5572 278.307 67.9339 278.41 68.3739 278.41C68.8739 278.41 69.2806 278.253 69.5939 277.94C69.9139 277.627 70.0739 277.187 70.0739 276.62V275.47C69.8939 275.79 69.6272 276.057 69.2739 276.27C68.9206 276.483 68.5072 276.59 68.0339 276.59C67.5472 276.59 67.1039 276.47 66.7039 276.23C66.3106 275.99 66.0006 275.653 65.7739 275.22C65.5472 274.787 65.4339 274.293 65.4339 273.74C65.4339 273.18 65.5472 272.69 65.7739 272.27C66.0006 271.843 66.3106 271.513 66.7039 271.28C67.1039 271.047 67.5472 270.93 68.0339 270.93ZM70.0739 273.75C70.0739 273.337 69.9906 272.977 69.8239 272.67C69.6572 272.363 69.4306 272.13 69.1439 271.97C68.8639 271.803 68.5539 271.72 68.2139 271.72C67.8739 271.72 67.5639 271.8 67.2839 271.96C67.0039 272.12 66.7806 272.353 66.6139 272.66C66.4472 272.967 66.3639 273.327 66.3639 273.74C66.3639 274.16 66.4472 274.527 66.6139 274.84C66.7806 275.147 67.0039 275.383 67.2839 275.55C67.5639 275.71 67.8739 275.79 68.2139 275.79C68.5539 275.79 68.8639 275.71 69.1439 275.55C69.4306 275.383 69.6572 275.147 69.8239 274.84C69.9906 274.527 70.0739 274.163 70.0739 273.75ZM77.5317 273.55C77.5317 273.723 77.5217 273.907 77.5017 274.1H73.1217C73.1551 274.64 73.3384 275.063 73.6717 275.37C74.0117 275.67 74.4217 275.82 74.9017 275.82C75.2951 275.82 75.6217 275.73 75.8817 275.55C76.1484 275.363 76.3351 275.117 76.4417 274.81H77.4217C77.2751 275.337 76.9817 275.767 76.5417 276.1C76.1017 276.427 75.5551 276.59 74.9017 276.59C74.3817 276.59 73.9151 276.473 73.5017 276.24C73.0951 276.007 72.7751 275.677 72.5417 275.25C72.3084 274.817 72.1917 274.317 72.1917 273.75C72.1917 273.183 72.3051 272.687 72.5317 272.26C72.7584 271.833 73.0751 271.507 73.4817 271.28C73.8951 271.047 74.3684 270.93 74.9017 270.93C75.4217 270.93 75.8817 271.043 76.2817 271.27C76.6817 271.497 76.9884 271.81 77.2017 272.21C77.4217 272.603 77.5317 273.05 77.5317 273.55ZM76.5917 273.36C76.5917 273.013 76.5151 272.717 76.3617 272.47C76.2084 272.217 75.9984 272.027 75.7317 271.9C75.4717 271.767 75.1817 271.7 74.8617 271.7C74.4017 271.7 74.0084 271.847 73.6817 272.14C73.3617 272.433 73.1784 272.84 73.1317 273.36H76.5917ZM86.6789 271.55C86.4856 271.143 86.2056 270.83 85.8389 270.61C85.4722 270.383 85.0456 270.27 84.5589 270.27C84.0722 270.27 83.6322 270.383 83.2389 270.61C82.8522 270.83 82.5456 271.15 82.3189 271.57C82.0989 271.983 81.9889 272.463 81.9889 273.01C81.9889 273.557 82.0989 274.037 82.3189 274.45C82.5456 274.863 82.8522 275.183 83.2389 275.41C83.6322 275.63 84.0722 275.74 84.5589 275.74C85.2389 275.74 85.7989 275.537 86.2389 275.13C86.6789 274.723 86.9356 274.173 87.0089 273.48H84.2289V272.74H87.9789V273.44C87.9256 274.013 87.7456 274.54 87.4389 275.02C87.1322 275.493 86.7289 275.87 86.2289 276.15C85.7289 276.423 85.1722 276.56 84.5589 276.56C83.9122 276.56 83.3222 276.41 82.7889 276.11C82.2556 275.803 81.8322 275.38 81.5189 274.84C81.2122 274.3 81.0589 273.69 81.0589 273.01C81.0589 272.33 81.2122 271.72 81.5189 271.18C81.8322 270.633 82.2556 270.21 82.7889 269.91C83.3222 269.603 83.9122 269.45 84.5589 269.45C85.2989 269.45 85.9522 269.633 86.5189 270C87.0922 270.367 87.5089 270.883 87.7689 271.55H86.6789ZM93.8421 271.57C93.8421 272.15 93.6421 272.633 93.2421 273.02C92.8488 273.4 92.2454 273.59 91.4321 273.59H90.0921V276.5H89.1821V269.53H91.4321C92.2188 269.53 92.8154 269.72 93.2221 270.1C93.6354 270.48 93.8421 270.97 93.8421 271.57ZM91.4321 272.84C91.9388 272.84 92.3121 272.73 92.5521 272.51C92.7921 272.29 92.9121 271.977 92.9121 271.57C92.9121 270.71 92.4188 270.28 91.4321 270.28H90.0921V272.84H91.4321ZM99.2631 269.53V270.27H97.3631V276.5H96.4531V270.27H94.5431V269.53H99.2631ZM103.959 272.04C104.146 271.713 104.419 271.447 104.779 271.24C105.139 271.033 105.549 270.93 106.009 270.93C106.503 270.93 106.946 271.047 107.339 271.28C107.733 271.513 108.043 271.843 108.269 272.27C108.496 272.69 108.609 273.18 108.609 273.74C108.609 274.293 108.496 274.787 108.269 275.22C108.043 275.653 107.729 275.99 107.329 276.23C106.936 276.47 106.496 276.59 106.009 276.59C105.536 276.59 105.119 276.487 104.759 276.28C104.406 276.073 104.139 275.81 103.959 275.49V276.5H103.049V269.1H103.959V272.04ZM107.679 273.74C107.679 273.327 107.596 272.967 107.429 272.66C107.263 272.353 107.036 272.12 106.749 271.96C106.469 271.8 106.159 271.72 105.819 271.72C105.486 271.72 105.176 271.803 104.889 271.97C104.609 272.13 104.383 272.367 104.209 272.68C104.043 272.987 103.959 273.343 103.959 273.75C103.959 274.163 104.043 274.527 104.209 274.84C104.383 275.147 104.609 275.383 104.889 275.55C105.176 275.71 105.486 275.79 105.819 275.79C106.159 275.79 106.469 275.71 106.749 275.55C107.036 275.383 107.263 275.147 107.429 274.84C107.596 274.527 107.679 274.16 107.679 273.74ZM114.667 271.02V276.5H113.757V275.69C113.584 275.97 113.34 276.19 113.027 276.35C112.72 276.503 112.38 276.58 112.007 276.58C111.58 276.58 111.197 276.493 110.857 276.32C110.517 276.14 110.247 275.873 110.047 275.52C109.854 275.167 109.757 274.737 109.757 274.23V271.02H110.657V274.11C110.657 274.65 110.794 275.067 111.067 275.36C111.34 275.647 111.714 275.79 112.187 275.79C112.674 275.79 113.057 275.64 113.337 275.34C113.617 275.04 113.757 274.603 113.757 274.03V271.02H114.667ZM116.674 270.13C116.5 270.13 116.354 270.07 116.234 269.95C116.114 269.83 116.054 269.683 116.054 269.51C116.054 269.337 116.114 269.19 116.234 269.07C116.354 268.95 116.5 268.89 116.674 268.89C116.84 268.89 116.98 268.95 117.094 269.07C117.214 269.19 117.274 269.337 117.274 269.51C117.274 269.683 117.214 269.83 117.094 269.95C116.98 270.07 116.84 270.13 116.674 270.13ZM117.114 271.02V276.5H116.204V271.02H117.114ZM119.575 269.1V276.5H118.665V269.1H119.575ZM120.785 273.74C120.785 273.18 120.899 272.69 121.125 272.27C121.352 271.843 121.662 271.513 122.055 271.28C122.455 271.047 122.902 270.93 123.395 270.93C123.822 270.93 124.219 271.03 124.585 271.23C124.952 271.423 125.232 271.68 125.425 272V269.1H126.345V276.5H125.425V275.47C125.245 275.797 124.979 276.067 124.625 276.28C124.272 276.487 123.859 276.59 123.385 276.59C122.899 276.59 122.455 276.47 122.055 276.23C121.662 275.99 121.352 275.653 121.125 275.22C120.899 274.787 120.785 274.293 120.785 273.74ZM125.425 273.75C125.425 273.337 125.342 272.977 125.175 272.67C125.009 272.363 124.782 272.13 124.495 271.97C124.215 271.803 123.905 271.72 123.565 271.72C123.225 271.72 122.915 271.8 122.635 271.96C122.355 272.12 122.132 272.353 121.965 272.66C121.799 272.967 121.715 273.327 121.715 273.74C121.715 274.16 121.799 274.527 121.965 274.84C122.132 275.147 122.355 275.383 122.635 275.55C122.915 275.71 123.225 275.79 123.565 275.79C123.905 275.79 124.215 275.71 124.495 275.55C124.782 275.383 125.009 275.147 125.175 274.84C125.342 274.527 125.425 274.163 125.425 273.75ZM132.883 273.55C132.883 273.723 132.873 273.907 132.853 274.1H128.473C128.507 274.64 128.69 275.063 129.023 275.37C129.363 275.67 129.773 275.82 130.253 275.82C130.647 275.82 130.973 275.73 131.233 275.55C131.5 275.363 131.687 275.117 131.793 274.81H132.773C132.627 275.337 132.333 275.767 131.893 276.1C131.453 276.427 130.907 276.59 130.253 276.59C129.733 276.59 129.267 276.473 128.853 276.24C128.447 276.007 128.127 275.677 127.893 275.25C127.66 274.817 127.543 274.317 127.543 273.75C127.543 273.183 127.657 272.687 127.883 272.26C128.11 271.833 128.427 271.507 128.833 271.28C129.247 271.047 129.72 270.93 130.253 270.93C130.773 270.93 131.233 271.043 131.633 271.27C132.033 271.497 132.34 271.81 132.553 272.21C132.773 272.603 132.883 273.05 132.883 273.55ZM131.943 273.36C131.943 273.013 131.867 272.717 131.713 272.47C131.56 272.217 131.35 272.027 131.083 271.9C130.823 271.767 130.533 271.7 130.213 271.7C129.753 271.7 129.36 271.847 129.033 272.14C128.713 272.433 128.53 272.84 128.483 273.36H131.943ZM134.994 271.91C135.154 271.597 135.381 271.353 135.674 271.18C135.974 271.007 136.338 270.92 136.764 270.92V271.86H136.524C135.504 271.86 134.994 272.413 134.994 273.52V276.5H134.084V271.02H134.994V271.91ZM138.105 276.56C137.932 276.56 137.785 276.5 137.665 276.38C137.545 276.26 137.485 276.113 137.485 275.94C137.485 275.767 137.545 275.62 137.665 275.5C137.785 275.38 137.932 275.32 138.105 275.32C138.272 275.32 138.412 275.38 138.525 275.5C138.645 275.62 138.705 275.767 138.705 275.94C138.705 276.113 138.645 276.26 138.525 276.38C138.412 276.5 138.272 276.56 138.105 276.56ZM140.205 276.56C140.031 276.56 139.885 276.5 139.765 276.38C139.645 276.26 139.585 276.113 139.585 275.94C139.585 275.767 139.645 275.62 139.765 275.5C139.885 275.38 140.031 275.32 140.205 275.32C140.371 275.32 140.511 275.38 140.625 275.5C140.745 275.62 140.805 275.767 140.805 275.94C140.805 276.113 140.745 276.26 140.625 276.38C140.511 276.5 140.371 276.56 140.205 276.56ZM142.304 276.56C142.131 276.56 141.984 276.5 141.864 276.38C141.744 276.26 141.684 276.113 141.684 275.94C141.684 275.767 141.744 275.62 141.864 275.5C141.984 275.38 142.131 275.32 142.304 275.32C142.471 275.32 142.611 275.38 142.724 275.5C142.844 275.62 142.904 275.767 142.904 275.94C142.904 276.113 142.844 276.26 142.724 276.38C142.611 276.5 142.471 276.56 142.304 276.56Z" fill="#14171B"/>
<g filter="url(#filter2_d_129_2680)">
<rect x="295.51" y="263.228" width="19.5449" height="19.5449" rx="9.77246" fill="#034737" shape-rendering="crispEdges"/>
<path d="M303.41 270.687L306.867 269.535C308.418 269.018 309.261 269.864 308.748 271.416L307.596 274.873C306.822 277.198 305.552 277.198 304.778 274.873L304.436 273.847L303.41 273.505C301.085 272.731 301.085 271.465 303.41 270.687Z" stroke="white" stroke-width="0.814371" stroke-linecap="round" stroke-linejoin="round"/>
<path d="M304.514 273.672L305.971 272.21" stroke="white" stroke-width="0.814371" stroke-linecap="round" stroke-linejoin="round"/>
</g>
</g>
<circle cx="167.352" cy="80.3952" r="22.5988" stroke="black" stroke-width="0.407186" stroke-dasharray="0.81 0.81"/>
<path d="M167.353 74.9326V85.8588" stroke="#14171B" stroke-width="1.36577" stroke-linecap="round" stroke-linejoin="round"/>
<path d="M161.891 80.3956H172.817" stroke="#14171B" stroke-width="1.36577" stroke-linecap="round" stroke-linejoin="round"/>
<path d="M19.8955 128H18.7555L15.3255 122.81V128H14.1855V121.04H15.3255L18.7555 126.22V121.04H19.8955V128ZM21.0126 125.22C21.0126 124.667 21.1259 124.177 21.3526 123.75C21.5859 123.323 21.8992 122.993 22.2926 122.76C22.6926 122.52 23.1326 122.4 23.6126 122.4C24.0459 122.4 24.4226 122.487 24.7426 122.66C25.0692 122.827 25.3292 123.037 25.5226 123.29V122.49H26.6726V128H25.5226V127.18C25.3292 127.44 25.0659 127.657 24.7326 127.83C24.3992 128.003 24.0192 128.09 23.5926 128.09C23.1192 128.09 22.6859 127.97 22.2926 127.73C21.8992 127.483 21.5859 127.143 21.3526 126.71C21.1259 126.27 21.0126 125.773 21.0126 125.22ZM25.5226 125.24C25.5226 124.86 25.4426 124.53 25.2826 124.25C25.1292 123.97 24.9259 123.757 24.6726 123.61C24.4192 123.463 24.1459 123.39 23.8526 123.39C23.5592 123.39 23.2859 123.463 23.0326 123.61C22.7792 123.75 22.5726 123.96 22.4126 124.24C22.2592 124.513 22.1826 124.84 22.1826 125.22C22.1826 125.6 22.2592 125.933 22.4126 126.22C22.5726 126.507 22.7792 126.727 23.0326 126.88C23.2926 127.027 23.5659 127.1 23.8526 127.1C24.1459 127.1 24.4192 127.027 24.6726 126.88C24.9259 126.733 25.1292 126.52 25.2826 126.24C25.4426 125.953 25.5226 125.62 25.5226 125.24ZM34.8399 122.4C35.2733 122.4 35.6599 122.49 35.9999 122.67C36.3466 122.85 36.6166 123.117 36.8099 123.47C37.0099 123.823 37.1099 124.25 37.1099 124.75V128H35.9799V124.92C35.9799 124.427 35.8566 124.05 35.6099 123.79C35.3633 123.523 35.0266 123.39 34.5999 123.39C34.1733 123.39 33.8333 123.523 33.5799 123.79C33.3333 124.05 33.2099 124.427 33.2099 124.92V128H32.0799V124.92C32.0799 124.427 31.9566 124.05 31.7099 123.79C31.4633 123.523 31.1266 123.39 30.6999 123.39C30.2733 123.39 29.9333 123.523 29.6799 123.79C29.4333 124.05 29.3099 124.427 29.3099 124.92V128H28.1699V122.49H29.3099V123.12C29.4966 122.893 29.7333 122.717 30.0199 122.59C30.3066 122.463 30.6133 122.4 30.9399 122.4C31.3799 122.4 31.7733 122.493 32.1199 122.68C32.4666 122.867 32.7333 123.137 32.9199 123.49C33.0866 123.157 33.3466 122.893 33.6999 122.7C34.0533 122.5 34.4333 122.4 34.8399 122.4ZM43.6105 125.11C43.6105 125.317 43.5972 125.503 43.5705 125.67H39.3605C39.3939 126.11 39.5572 126.463 39.8505 126.73C40.1439 126.997 40.5039 127.13 40.9305 127.13C41.5439 127.13 41.9772 126.873 42.2305 126.36H43.4605C43.2939 126.867 42.9905 127.283 42.5505 127.61C42.1172 127.93 41.5772 128.09 40.9305 128.09C40.4039 128.09 39.9305 127.973 39.5105 127.74C39.0972 127.5 38.7705 127.167 38.5305 126.74C38.2972 126.307 38.1805 125.807 38.1805 125.24C38.1805 124.673 38.2939 124.177 38.5205 123.75C38.7539 123.317 39.0772 122.983 39.4905 122.75C39.9105 122.517 40.3905 122.4 40.9305 122.4C41.4505 122.4 41.9139 122.513 42.3205 122.74C42.7272 122.967 43.0439 123.287 43.2705 123.7C43.4972 124.107 43.6105 124.577 43.6105 125.11ZM42.4205 124.75C42.4139 124.33 42.2639 123.993 41.9705 123.74C41.6772 123.487 41.3139 123.36 40.8805 123.36C40.4872 123.36 40.1505 123.487 39.8705 123.74C39.5905 123.987 39.4239 124.323 39.3705 124.75H42.4205Z" fill="#14171B"/>
<path d="M16.4555 176.068C17.1955 176.068 17.8422 176.211 18.3955 176.498C18.9555 176.778 19.3855 177.185 19.6855 177.718C19.9922 178.245 20.1455 178.861 20.1455 179.568C20.1455 180.275 19.9922 180.888 19.6855 181.408C19.3855 181.928 18.9555 182.328 18.3955 182.608C17.8422 182.881 17.1955 183.018 16.4555 183.018H14.1855V176.068H16.4555ZM16.4555 182.088C17.2689 182.088 17.8922 181.868 18.3255 181.428C18.7589 180.988 18.9755 180.368 18.9755 179.568C18.9755 178.761 18.7589 178.131 18.3255 177.678C17.8922 177.225 17.2689 176.998 16.4555 176.998H15.3255V182.088H16.4555ZM26.3254 180.128C26.3254 180.335 26.3121 180.521 26.2854 180.688H22.0754C22.1087 181.128 22.2721 181.481 22.5654 181.748C22.8587 182.015 23.2187 182.148 23.6454 182.148C24.2587 182.148 24.6921 181.891 24.9454 181.378H26.1754C26.0087 181.885 25.7054 182.301 25.2654 182.628C24.8321 182.948 24.2921 183.108 23.6454 183.108C23.1187 183.108 22.6454 182.991 22.2254 182.758C21.8121 182.518 21.4854 182.185 21.2454 181.758C21.0121 181.325 20.8954 180.825 20.8954 180.258C20.8954 179.691 21.0087 179.195 21.2354 178.768C21.4687 178.335 21.7921 178.001 22.2054 177.768C22.6254 177.535 23.1054 177.418 23.6454 177.418C24.1654 177.418 24.6287 177.531 25.0354 177.758C25.4421 177.985 25.7587 178.305 25.9854 178.718C26.2121 179.125 26.3254 179.595 26.3254 180.128ZM25.1354 179.768C25.1287 179.348 24.9787 179.011 24.6854 178.758C24.3921 178.505 24.0287 178.378 23.5954 178.378C23.2021 178.378 22.8654 178.505 22.5854 178.758C22.3054 179.005 22.1387 179.341 22.0854 179.768H25.1354ZM29.4473 183.108C29.0139 183.108 28.6239 183.031 28.2773 182.878C27.9373 182.718 27.6673 182.505 27.4673 182.238C27.2673 181.965 27.1606 181.661 27.1473 181.328H28.3273C28.3473 181.561 28.4573 181.758 28.6573 181.918C28.8639 182.071 29.1206 182.148 29.4273 182.148C29.7473 182.148 29.9939 182.088 30.1673 181.968C30.3473 181.841 30.4373 181.681 30.4373 181.488C30.4373 181.281 30.3373 181.128 30.1373 181.028C29.9439 180.928 29.6339 180.818 29.2073 180.698C28.7939 180.585 28.4573 180.475 28.1973 180.368C27.9373 180.261 27.7106 180.098 27.5173 179.878C27.3306 179.658 27.2373 179.368 27.2373 179.008C27.2373 178.715 27.3239 178.448 27.4973 178.208C27.6706 177.961 27.9173 177.768 28.2373 177.628C28.5639 177.488 28.9373 177.418 29.3573 177.418C29.9839 177.418 30.4873 177.578 30.8673 177.898C31.2539 178.211 31.4606 178.641 31.4873 179.188H30.3473C30.3273 178.941 30.2273 178.745 30.0473 178.598C29.8673 178.451 29.6239 178.378 29.3173 178.378C29.0173 178.378 28.7873 178.435 28.6273 178.548C28.4673 178.661 28.3873 178.811 28.3873 178.998C28.3873 179.145 28.4406 179.268 28.5473 179.368C28.6539 179.468 28.7839 179.548 28.9373 179.608C29.0906 179.661 29.3173 179.731 29.6173 179.818C30.0173 179.925 30.3439 180.035 30.5973 180.148C30.8573 180.255 31.0806 180.415 31.2673 180.628C31.4539 180.841 31.5506 181.125 31.5573 181.478C31.5573 181.791 31.4706 182.071 31.2973 182.318C31.1239 182.565 30.8773 182.758 30.5573 182.898C30.2439 183.038 29.8739 183.108 29.4473 183.108ZM32.4091 180.258C32.4091 179.691 32.5224 179.195 32.7491 178.768C32.9824 178.335 33.3024 178.001 33.7091 177.768C34.1157 177.535 34.5824 177.418 35.1091 177.418C35.7757 177.418 36.3257 177.578 36.7591 177.898C37.1991 178.211 37.4957 178.661 37.6491 179.248H36.4191C36.3191 178.975 36.1591 178.761 35.9391 178.608C35.7191 178.455 35.4424 178.378 35.1091 178.378C34.6424 178.378 34.2691 178.545 33.9891 178.878C33.7157 179.205 33.5791 179.665 33.5791 180.258C33.5791 180.851 33.7157 181.315 33.9891 181.648C34.2691 181.981 34.6424 182.148 35.1091 182.148C35.7691 182.148 36.2057 181.858 36.4191 181.278H37.6491C37.4891 181.838 37.1891 182.285 36.7491 182.618C36.3091 182.945 35.7624 183.108 35.1091 183.108C34.5824 183.108 34.1157 182.991 33.7091 182.758C33.3024 182.518 32.9824 182.185 32.7491 181.758C32.5224 181.325 32.4091 180.825 32.4091 180.258ZM39.9252 178.308C40.0918 178.028 40.3118 177.811 40.5852 177.658C40.8652 177.498 41.1952 177.418 41.5752 177.418V178.598H41.2852C40.8385 178.598 40.4985 178.711 40.2652 178.938C40.0385 179.165 39.9252 179.558 39.9252 180.118V183.018H38.7852V177.508H39.9252V178.308ZM43.203 176.778C42.9964 176.778 42.823 176.708 42.683 176.568C42.543 176.428 42.473 176.255 42.473 176.048C42.473 175.841 42.543 175.668 42.683 175.528C42.823 175.388 42.9964 175.318 43.203 175.318C43.403 175.318 43.573 175.388 43.713 175.528C43.853 175.668 43.923 175.841 43.923 176.048C43.923 176.255 43.853 176.428 43.713 176.568C43.573 176.708 43.403 176.778 43.203 176.778ZM43.763 177.508V183.018H42.623V177.508H43.763ZM46.3998 178.318C46.5931 178.065 46.8564 177.851 47.1898 177.678C47.5231 177.505 47.8998 177.418 48.3198 177.418C48.7998 177.418 49.2364 177.538 49.6298 177.778C50.0298 178.011 50.3431 178.341 50.5698 178.768C50.7964 179.195 50.9098 179.685 50.9098 180.238C50.9098 180.791 50.7964 181.288 50.5698 181.728C50.3431 182.161 50.0298 182.501 49.6298 182.748C49.2364 182.988 48.7998 183.108 48.3198 183.108C47.8998 183.108 47.5264 183.025 47.1998 182.858C46.8731 182.685 46.6064 182.471 46.3998 182.218V185.638H45.2598V177.508H46.3998V178.318ZM49.7498 180.238C49.7498 179.858 49.6698 179.531 49.5098 179.258C49.3564 178.978 49.1498 178.768 48.8898 178.628C48.6364 178.481 48.3631 178.408 48.0698 178.408C47.7831 178.408 47.5098 178.481 47.2498 178.628C46.9964 178.775 46.7898 178.988 46.6298 179.268C46.4764 179.548 46.3998 179.878 46.3998 180.258C46.3998 180.638 46.4764 180.971 46.6298 181.258C46.7898 181.538 46.9964 181.751 47.2498 181.898C47.5098 182.045 47.7831 182.118 48.0698 182.118C48.3631 182.118 48.6364 182.045 48.8898 181.898C49.1498 181.745 49.3564 181.525 49.5098 181.238C49.6698 180.951 49.7498 180.618 49.7498 180.238ZM53.3671 178.438V181.488C53.3671 181.695 53.4138 181.845 53.5071 181.938C53.6071 182.025 53.7738 182.068 54.0071 182.068H54.7071V183.018H53.8071C53.2938 183.018 52.9004 182.898 52.6271 182.658C52.3538 182.418 52.2171 182.028 52.2171 181.488V178.438H51.5671V177.508H52.2171V176.138H53.3671V177.508H54.7071V178.438H53.3671ZM56.3378 176.778C56.1311 176.778 55.9578 176.708 55.8178 176.568C55.6778 176.428 55.6078 176.255 55.6078 176.048C55.6078 175.841 55.6778 175.668 55.8178 175.528C55.9578 175.388 56.1311 175.318 56.3378 175.318C56.5378 175.318 56.7078 175.388 56.8478 175.528C56.9878 175.668 57.0578 175.841 57.0578 176.048C57.0578 176.255 56.9878 176.428 56.8478 176.568C56.7078 176.708 56.5378 176.778 56.3378 176.778ZM56.8978 177.508V183.018H55.7578V177.508H56.8978ZM60.7845 183.108C60.2645 183.108 59.7945 182.991 59.3745 182.758C58.9545 182.518 58.6245 182.185 58.3845 181.758C58.1445 181.325 58.0245 180.825 58.0245 180.258C58.0245 179.698 58.1479 179.201 58.3945 178.768C58.6412 178.335 58.9779 178.001 59.4045 177.768C59.8312 177.535 60.3079 177.418 60.8345 177.418C61.3612 177.418 61.8379 177.535 62.2645 177.768C62.6912 178.001 63.0279 178.335 63.2745 178.768C63.5212 179.201 63.6445 179.698 63.6445 180.258C63.6445 180.818 63.5179 181.315 63.2645 181.748C63.0112 182.181 62.6645 182.518 62.2245 182.758C61.7912 182.991 61.3112 183.108 60.7845 183.108ZM60.7845 182.118C61.0779 182.118 61.3512 182.048 61.6045 181.908C61.8645 181.768 62.0745 181.558 62.2345 181.278C62.3945 180.998 62.4745 180.658 62.4745 180.258C62.4745 179.858 62.3979 179.521 62.2445 179.248C62.0912 178.968 61.8879 178.758 61.6345 178.618C61.3812 178.478 61.1079 178.408 60.8145 178.408C60.5212 178.408 60.2479 178.478 59.9945 178.618C59.7479 178.758 59.5512 178.968 59.4045 179.248C59.2579 179.521 59.1845 179.858 59.1845 180.258C59.1845 180.851 59.3345 181.311 59.6345 181.638C59.9412 181.958 60.3245 182.118 60.7845 182.118ZM67.5515 177.418C67.9848 177.418 68.3715 177.508 68.7115 177.688C69.0582 177.868 69.3282 178.135 69.5215 178.488C69.7148 178.841 69.8115 179.268 69.8115 179.768V183.018H68.6815V179.938C68.6815 179.445 68.5582 179.068 68.3115 178.808C68.0648 178.541 67.7282 178.408 67.3015 178.408C66.8748 178.408 66.5348 178.541 66.2815 178.808C66.0348 179.068 65.9115 179.445 65.9115 179.938V183.018H64.7715V177.508H65.9115V178.138C66.0982 177.911 66.3348 177.735 66.6215 177.608C66.9148 177.481 67.2248 177.418 67.5515 177.418Z" fill="#14171B"/>
<rect x="13.4355" y="131.809" width="313.126" height="30" rx="8" fill="#F2F2F2"/>
<path opacity="0.4" d="M23.7578 150.309H22.8478L19.1878 144.759V150.309H18.2778V143.329H19.1878L22.8478 148.869V143.329H23.7578V150.309ZM24.9691 147.549C24.9691 146.989 25.0824 146.499 25.3091 146.079C25.5357 145.652 25.8457 145.322 26.2391 145.089C26.6391 144.855 27.0824 144.739 27.5691 144.739C28.0491 144.739 28.4657 144.842 28.8191 145.049C29.1724 145.255 29.4357 145.515 29.6091 145.829V144.829H30.5291V150.309H29.6091V149.289C29.4291 149.609 29.1591 149.875 28.7991 150.089C28.4457 150.295 28.0324 150.399 27.5591 150.399C27.0724 150.399 26.6324 150.279 26.2391 150.039C25.8457 149.799 25.5357 149.462 25.3091 149.029C25.0824 148.595 24.9691 148.102 24.9691 147.549ZM29.6091 147.559C29.6091 147.145 29.5257 146.785 29.3591 146.479C29.1924 146.172 28.9657 145.939 28.6791 145.779C28.3991 145.612 28.0891 145.529 27.7491 145.529C27.4091 145.529 27.0991 145.609 26.8191 145.769C26.5391 145.929 26.3157 146.162 26.1491 146.469C25.9824 146.775 25.8991 147.135 25.8991 147.549C25.8991 147.969 25.9824 148.335 26.1491 148.649C26.3157 148.955 26.5391 149.192 26.8191 149.359C27.0991 149.519 27.4091 149.599 27.7491 149.599C28.0891 149.599 28.3991 149.519 28.6791 149.359C28.9657 149.192 29.1924 148.955 29.3591 148.649C29.5257 148.335 29.6091 147.972 29.6091 147.559ZM38.6569 144.729C39.0835 144.729 39.4635 144.819 39.7969 144.999C40.1302 145.172 40.3935 145.435 40.5869 145.789C40.7802 146.142 40.8769 146.572 40.8769 147.079V150.309H39.9769V147.209C39.9769 146.662 39.8402 146.245 39.5669 145.959C39.3002 145.665 38.9369 145.519 38.4769 145.519C38.0035 145.519 37.6269 145.672 37.3469 145.979C37.0669 146.279 36.9269 146.715 36.9269 147.289V150.309H36.0269V147.209C36.0269 146.662 35.8902 146.245 35.6169 145.959C35.3502 145.665 34.9869 145.519 34.5269 145.519C34.0535 145.519 33.6769 145.672 33.3969 145.979C33.1169 146.279 32.9769 146.715 32.9769 147.289V150.309H32.0669V144.829H32.9769V145.619C33.1569 145.332 33.3969 145.112 33.6969 144.959C34.0035 144.805 34.3402 144.729 34.7069 144.729C35.1669 144.729 35.5735 144.832 35.9269 145.039C36.2802 145.245 36.5435 145.549 36.7169 145.949C36.8702 145.562 37.1235 145.262 37.4769 145.049C37.8302 144.835 38.2235 144.729 38.6569 144.729ZM47.3696 147.359C47.3696 147.532 47.3596 147.715 47.3396 147.909H42.9596C42.9929 148.449 43.1763 148.872 43.5096 149.179C43.8496 149.479 44.2596 149.629 44.7396 149.629C45.1329 149.629 45.4596 149.539 45.7196 149.359C45.9863 149.172 46.1729 148.925 46.2796 148.619H47.2596C47.1129 149.145 46.8196 149.575 46.3796 149.909C45.9396 150.235 45.3929 150.399 44.7396 150.399C44.2196 150.399 43.7529 150.282 43.3396 150.049C42.9329 149.815 42.6129 149.485 42.3796 149.059C42.1463 148.625 42.0296 148.125 42.0296 147.559C42.0296 146.992 42.1429 146.495 42.3696 146.069C42.5963 145.642 42.9129 145.315 43.3196 145.089C43.7329 144.855 44.2063 144.739 44.7396 144.739C45.2596 144.739 45.7196 144.852 46.1196 145.079C46.5196 145.305 46.8263 145.619 47.0396 146.019C47.2596 146.412 47.3696 146.859 47.3696 147.359ZM46.4296 147.169C46.4296 146.822 46.3529 146.525 46.1996 146.279C46.0463 146.025 45.8363 145.835 45.5696 145.709C45.3096 145.575 45.0196 145.509 44.6996 145.509C44.2396 145.509 43.8463 145.655 43.5196 145.949C43.1996 146.242 43.0163 146.649 42.9696 147.169H46.4296ZM55.9568 144.829L52.6568 152.889H51.7168L52.7968 150.249L50.5868 144.829H51.5968L53.3168 149.269L55.0168 144.829H55.9568ZM59.2616 150.399C58.7482 150.399 58.2816 150.282 57.8616 150.049C57.4482 149.815 57.1216 149.485 56.8816 149.059C56.6482 148.625 56.5316 148.125 56.5316 147.559C56.5316 146.999 56.6516 146.505 56.8916 146.079C57.1382 145.645 57.4716 145.315 57.8916 145.089C58.3116 144.855 58.7816 144.739 59.3016 144.739C59.8216 144.739 60.2916 144.855 60.7116 145.089C61.1316 145.315 61.4616 145.642 61.7016 146.069C61.9482 146.495 62.0716 146.992 62.0716 147.559C62.0716 148.125 61.9449 148.625 61.6916 149.059C61.4449 149.485 61.1082 149.815 60.6816 150.049C60.2549 150.282 59.7816 150.399 59.2616 150.399ZM59.2616 149.599C59.5882 149.599 59.8949 149.522 60.1816 149.369C60.4682 149.215 60.6982 148.985 60.8716 148.679C61.0516 148.372 61.1416 147.999 61.1416 147.559C61.1416 147.119 61.0549 146.745 60.8816 146.439C60.7082 146.132 60.4816 145.905 60.2016 145.759C59.9216 145.605 59.6182 145.529 59.2916 145.529C58.9582 145.529 58.6516 145.605 58.3716 145.759C58.0982 145.905 57.8782 146.132 57.7116 146.439C57.5449 146.745 57.4616 147.119 57.4616 147.559C57.4616 148.005 57.5416 148.382 57.7016 148.689C57.8682 148.995 58.0882 149.225 58.3616 149.379C58.6349 149.525 58.9349 149.599 59.2616 149.599ZM68.128 144.829V150.309H67.218V149.499C67.0447 149.779 66.8014 149.999 66.488 150.159C66.1814 150.312 65.8414 150.389 65.468 150.389C65.0414 150.389 64.658 150.302 64.318 150.129C63.978 149.949 63.708 149.682 63.508 149.329C63.3147 148.975 63.218 148.545 63.218 148.039V144.829H64.118V147.919C64.118 148.459 64.2547 148.875 64.528 149.169C64.8014 149.455 65.1747 149.599 65.648 149.599C66.1347 149.599 66.518 149.449 66.798 149.149C67.078 148.849 67.218 148.412 67.218 147.839V144.829H68.128ZM70.5745 145.719C70.7345 145.405 70.9612 145.162 71.2545 144.989C71.5545 144.815 71.9179 144.729 72.3445 144.729V145.669H72.1045C71.0845 145.669 70.5745 146.222 70.5745 147.329V150.309H69.6645V144.829H70.5745V145.719ZM81.341 145.359C81.1477 144.952 80.8677 144.639 80.501 144.419C80.1343 144.192 79.7077 144.079 79.221 144.079C78.7343 144.079 78.2943 144.192 77.901 144.419C77.5143 144.639 77.2077 144.959 76.981 145.379C76.761 145.792 76.651 146.272 76.651 146.819C76.651 147.365 76.761 147.845 76.981 148.259C77.2077 148.672 77.5143 148.992 77.901 149.219C78.2943 149.439 78.7343 149.549 79.221 149.549C79.901 149.549 80.461 149.345 80.901 148.939C81.341 148.532 81.5977 147.982 81.671 147.289H78.891V146.549H82.641V147.249C82.5877 147.822 82.4077 148.349 82.101 148.829C81.7943 149.302 81.391 149.679 80.891 149.959C80.391 150.232 79.8343 150.369 79.221 150.369C78.5743 150.369 77.9843 150.219 77.451 149.919C76.9177 149.612 76.4943 149.189 76.181 148.649C75.8743 148.109 75.721 147.499 75.721 146.819C75.721 146.139 75.8743 145.529 76.181 144.989C76.4943 144.442 76.9177 144.019 77.451 143.719C77.9843 143.412 78.5743 143.259 79.221 143.259C79.961 143.259 80.6143 143.442 81.181 143.809C81.7543 144.175 82.171 144.692 82.431 145.359H81.341ZM88.5042 145.379C88.5042 145.959 88.3042 146.442 87.9042 146.829C87.5109 147.209 86.9076 147.399 86.0942 147.399H84.7542V150.309H83.8442V143.339H86.0942C86.8809 143.339 87.4776 143.529 87.8842 143.909C88.2976 144.289 88.5042 144.779 88.5042 145.379ZM86.0942 146.649C86.6009 146.649 86.9742 146.539 87.2142 146.319C87.4542 146.099 87.5742 145.785 87.5742 145.379C87.5742 144.519 87.0809 144.089 86.0942 144.089H84.7542V146.649H86.0942ZM93.9252 143.339V144.079H92.0252V150.309H91.1152V144.079H89.2052V143.339H93.9252Z" fill="#14171B"/>
<rect x="13" y="187.168" width="314" height="30" rx="8" fill="#F2F2F2"/>
<path opacity="0.4" d="M21.9623 204.118H18.9223L18.3623 205.668H17.4023L19.9223 198.738H20.9723L23.4823 205.668H22.5223L21.9623 204.118ZM21.7023 203.378L20.4423 199.858L19.1823 203.378H21.7023ZM24.2405 202.908C24.2405 202.348 24.3539 201.858 24.5805 201.438C24.8072 201.011 25.1172 200.681 25.5105 200.448C25.9105 200.215 26.3572 200.098 26.8505 200.098C27.2772 200.098 27.6739 200.198 28.0405 200.398C28.4072 200.591 28.6872 200.848 28.8805 201.168V198.268H29.8005V205.668H28.8805V204.638C28.7005 204.965 28.4339 205.235 28.0805 205.448C27.7272 205.655 27.3139 205.758 26.8405 205.758C26.3539 205.758 25.9105 205.638 25.5105 205.398C25.1172 205.158 24.8072 204.821 24.5805 204.388C24.3539 203.955 24.2405 203.461 24.2405 202.908ZM28.8805 202.918C28.8805 202.505 28.7972 202.145 28.6305 201.838C28.4639 201.531 28.2372 201.298 27.9505 201.138C27.6705 200.971 27.3605 200.888 27.0205 200.888C26.6805 200.888 26.3705 200.968 26.0905 201.128C25.8105 201.288 25.5872 201.521 25.4205 201.828C25.2539 202.135 25.1705 202.495 25.1705 202.908C25.1705 203.328 25.2539 203.695 25.4205 204.008C25.5872 204.315 25.8105 204.551 26.0905 204.718C26.3705 204.878 26.6805 204.958 27.0205 204.958C27.3605 204.958 27.6705 204.878 27.9505 204.718C28.2372 204.551 28.4639 204.315 28.6305 204.008C28.7972 203.695 28.8805 203.331 28.8805 202.918ZM30.9984 202.908C30.9984 202.348 31.1117 201.858 31.3384 201.438C31.565 201.011 31.875 200.681 32.2684 200.448C32.6684 200.215 33.115 200.098 33.6084 200.098C34.035 200.098 34.4317 200.198 34.7984 200.398C35.165 200.591 35.445 200.848 35.6384 201.168V198.268H36.5584V205.668H35.6384V204.638C35.4584 204.965 35.1917 205.235 34.8384 205.448C34.485 205.655 34.0717 205.758 33.5984 205.758C33.1117 205.758 32.6684 205.638 32.2684 205.398C31.875 205.158 31.565 204.821 31.3384 204.388C31.1117 203.955 30.9984 203.461 30.9984 202.908ZM35.6384 202.918C35.6384 202.505 35.555 202.145 35.3884 201.838C35.2217 201.531 34.995 201.298 34.7084 201.138C34.4284 200.971 34.1184 200.888 33.7784 200.888C33.4384 200.888 33.1284 200.968 32.8484 201.128C32.5684 201.288 32.345 201.521 32.1784 201.828C32.0117 202.135 31.9284 202.495 31.9284 202.908C31.9284 203.328 32.0117 203.695 32.1784 204.008C32.345 204.315 32.5684 204.551 32.8484 204.718C33.1284 204.878 33.4384 204.958 33.7784 204.958C34.1184 204.958 34.4284 204.878 34.7084 204.718C34.995 204.551 35.2217 204.315 35.3884 204.008C35.555 203.695 35.6384 203.331 35.6384 202.918ZM40.4222 202.908C40.4222 202.348 40.5355 201.858 40.7622 201.438C40.9889 201.011 41.2989 200.681 41.6922 200.448C42.0922 200.215 42.5355 200.098 43.0222 200.098C43.5022 200.098 43.9189 200.201 44.2722 200.408C44.6255 200.615 44.8889 200.875 45.0622 201.188V200.188H45.9822V205.668H45.0622V204.648C44.8822 204.968 44.6122 205.235 44.2522 205.448C43.8989 205.655 43.4855 205.758 43.0122 205.758C42.5255 205.758 42.0855 205.638 41.6922 205.398C41.2989 205.158 40.9889 204.821 40.7622 204.388C40.5355 203.955 40.4222 203.461 40.4222 202.908ZM45.0622 202.918C45.0622 202.505 44.9789 202.145 44.8122 201.838C44.6455 201.531 44.4189 201.298 44.1322 201.138C43.8522 200.971 43.5422 200.888 43.2022 200.888C42.8622 200.888 42.5522 200.968 42.2722 201.128C41.9922 201.288 41.7689 201.521 41.6022 201.828C41.4355 202.135 41.3522 202.495 41.3522 202.908C41.3522 203.328 41.4355 203.695 41.6022 204.008C41.7689 204.315 41.9922 204.551 42.2722 204.718C42.5522 204.878 42.8622 204.958 43.2022 204.958C43.5422 204.958 43.8522 204.878 44.1322 204.718C44.4189 204.551 44.6455 204.315 44.8122 204.008C44.9789 203.695 45.0622 203.331 45.0622 202.918ZM52.126 205.758C51.706 205.758 51.3293 205.688 50.996 205.548C50.6627 205.401 50.3993 205.201 50.206 204.948C50.0127 204.688 49.906 204.391 49.886 204.058H50.826C50.8527 204.331 50.9793 204.555 51.206 204.728C51.4393 204.901 51.7427 204.988 52.116 204.988C52.4627 204.988 52.736 204.911 52.936 204.758C53.136 204.605 53.236 204.411 53.236 204.178C53.236 203.938 53.1293 203.761 52.916 203.648C52.7027 203.528 52.3727 203.411 51.926 203.298C51.5193 203.191 51.186 203.085 50.926 202.978C50.6727 202.865 50.4527 202.701 50.266 202.488C50.086 202.268 49.996 201.981 49.996 201.628C49.996 201.348 50.0793 201.091 50.246 200.858C50.4127 200.625 50.6493 200.441 50.956 200.308C51.2627 200.168 51.6127 200.098 52.006 200.098C52.6127 200.098 53.1027 200.251 53.476 200.558C53.8493 200.865 54.0493 201.285 54.076 201.818H53.166C53.146 201.531 53.0293 201.301 52.816 201.128C52.6093 200.955 52.3293 200.868 51.976 200.868C51.6493 200.868 51.3893 200.938 51.196 201.078C51.0027 201.218 50.906 201.401 50.906 201.628C50.906 201.808 50.9627 201.958 51.076 202.078C51.196 202.191 51.3427 202.285 51.516 202.358C51.696 202.425 51.9427 202.501 52.256 202.588C52.6493 202.695 52.9693 202.801 53.216 202.908C53.4627 203.008 53.6727 203.161 53.846 203.368C54.026 203.575 54.1193 203.845 54.126 204.178C54.126 204.478 54.0427 204.748 53.876 204.988C53.7093 205.228 53.4727 205.418 53.166 205.558C52.866 205.691 52.5193 205.758 52.126 205.758ZM58.1306 200.088C58.544 200.088 58.9173 200.178 59.2506 200.358C59.584 200.531 59.844 200.795 60.0306 201.148C60.224 201.501 60.3206 201.931 60.3206 202.438V205.668H59.4206V202.568C59.4206 202.021 59.284 201.605 59.0106 201.318C58.7373 201.025 58.364 200.878 57.8906 200.878C57.4106 200.878 57.0273 201.028 56.7406 201.328C56.4606 201.628 56.3206 202.065 56.3206 202.638V205.668H55.4106V198.268H56.3206V200.968C56.5006 200.688 56.7473 200.471 57.0606 200.318C57.3806 200.165 57.7373 200.088 58.1306 200.088ZM64.1971 205.758C63.6838 205.758 63.2171 205.641 62.7971 205.408C62.3838 205.175 62.0571 204.845 61.8171 204.418C61.5838 203.985 61.4671 203.485 61.4671 202.918C61.4671 202.358 61.5871 201.865 61.8271 201.438C62.0738 201.005 62.4071 200.675 62.8271 200.448C63.2471 200.215 63.7171 200.098 64.2371 200.098C64.7571 200.098 65.2271 200.215 65.6471 200.448C66.0671 200.675 66.3971 201.001 66.6371 201.428C66.8838 201.855 67.0071 202.351 67.0071 202.918C67.0071 203.485 66.8804 203.985 66.6271 204.418C66.3804 204.845 66.0438 205.175 65.6171 205.408C65.1904 205.641 64.7171 205.758 64.1971 205.758ZM64.1971 204.958C64.5238 204.958 64.8304 204.881 65.1171 204.728C65.4038 204.575 65.6338 204.345 65.8071 204.038C65.9871 203.731 66.0771 203.358 66.0771 202.918C66.0771 202.478 65.9904 202.105 65.8171 201.798C65.6438 201.491 65.4171 201.265 65.1371 201.118C64.8571 200.965 64.5538 200.888 64.2271 200.888C63.8938 200.888 63.5871 200.965 63.3071 201.118C63.0338 201.265 62.8138 201.491 62.6471 201.798C62.4804 202.105 62.3971 202.478 62.3971 202.918C62.3971 203.365 62.4771 203.741 62.6371 204.048C62.8038 204.355 63.0238 204.585 63.2971 204.738C63.5704 204.885 63.8704 204.958 64.1971 204.958ZM69.1136 201.078C69.2736 200.765 69.5003 200.521 69.7936 200.348C70.0936 200.175 70.4569 200.088 70.8836 200.088V201.028H70.6436C69.6236 201.028 69.1136 201.581 69.1136 202.688V205.668H68.2036V200.188H69.1136V201.078ZM73.0441 200.938V204.168C73.0441 204.435 73.1007 204.625 73.2141 204.738C73.3274 204.845 73.5241 204.898 73.8041 204.898H74.4741V205.668H73.6541C73.1474 205.668 72.7674 205.551 72.5141 205.318C72.2607 205.085 72.1341 204.701 72.1341 204.168V200.938H71.4241V200.188H72.1341V198.808H73.0441V200.188H74.4741V200.938H73.0441ZM77.9027 202.908C77.9027 202.348 78.016 201.858 78.2427 201.438C78.4693 201.011 78.7793 200.681 79.1727 200.448C79.5727 200.215 80.0193 200.098 80.5127 200.098C80.9393 200.098 81.336 200.198 81.7027 200.398C82.0693 200.591 82.3493 200.848 82.5427 201.168V198.268H83.4627V205.668H82.5427V204.638C82.3627 204.965 82.096 205.235 81.7427 205.448C81.3893 205.655 80.976 205.758 80.5027 205.758C80.016 205.758 79.5727 205.638 79.1727 205.398C78.7793 205.158 78.4693 204.821 78.2427 204.388C78.016 203.955 77.9027 203.461 77.9027 202.908ZM82.5427 202.918C82.5427 202.505 82.4593 202.145 82.2927 201.838C82.126 201.531 81.8993 201.298 81.6127 201.138C81.3327 200.971 81.0227 200.888 80.6827 200.888C80.3427 200.888 80.0327 200.968 79.7527 201.128C79.4727 201.288 79.2493 201.521 79.0827 201.828C78.916 202.135 78.8327 202.495 78.8327 202.908C78.8327 203.328 78.916 203.695 79.0827 204.008C79.2493 204.315 79.4727 204.551 79.7527 204.718C80.0327 204.878 80.3427 204.958 80.6827 204.958C81.0227 204.958 81.3327 204.878 81.6127 204.718C81.8993 204.551 82.126 204.315 82.2927 204.008C82.4593 203.695 82.5427 203.331 82.5427 202.918ZM90.0005 202.718C90.0005 202.891 89.9905 203.075 89.9705 203.268H85.5905C85.6238 203.808 85.8071 204.231 86.1405 204.538C86.4805 204.838 86.8905 204.988 87.3705 204.988C87.7638 204.988 88.0905 204.898 88.3505 204.718C88.6171 204.531 88.8038 204.285 88.9105 203.978H89.8905C89.7438 204.505 89.4505 204.935 89.0105 205.268C88.5705 205.595 88.0238 205.758 87.3705 205.758C86.8505 205.758 86.3838 205.641 85.9705 205.408C85.5638 205.175 85.2438 204.845 85.0105 204.418C84.7771 203.985 84.6605 203.485 84.6605 202.918C84.6605 202.351 84.7738 201.855 85.0005 201.428C85.2271 201.001 85.5438 200.675 85.9505 200.448C86.3638 200.215 86.8371 200.098 87.3705 200.098C87.8905 200.098 88.3505 200.211 88.7505 200.438C89.1505 200.665 89.4571 200.978 89.6705 201.378C89.8905 201.771 90.0005 202.218 90.0005 202.718ZM89.0605 202.528C89.0605 202.181 88.9838 201.885 88.8305 201.638C88.6771 201.385 88.4671 201.195 88.2005 201.068C87.9405 200.935 87.6505 200.868 87.3305 200.868C86.8705 200.868 86.4771 201.015 86.1505 201.308C85.8305 201.601 85.6471 202.008 85.6005 202.528H89.0605ZM93.1416 205.758C92.7216 205.758 92.345 205.688 92.0116 205.548C91.6783 205.401 91.415 205.201 91.2216 204.948C91.0283 204.688 90.9216 204.391 90.9016 204.058H91.8416C91.8683 204.331 91.995 204.555 92.2216 204.728C92.455 204.901 92.7583 204.988 93.1316 204.988C93.4783 204.988 93.7516 204.911 93.9516 204.758C94.1516 204.605 94.2516 204.411 94.2516 204.178C94.2516 203.938 94.145 203.761 93.9316 203.648C93.7183 203.528 93.3883 203.411 92.9416 203.298C92.535 203.191 92.2016 203.085 91.9416 202.978C91.6883 202.865 91.4683 202.701 91.2816 202.488C91.1016 202.268 91.0116 201.981 91.0116 201.628C91.0116 201.348 91.095 201.091 91.2616 200.858C91.4283 200.625 91.665 200.441 91.9716 200.308C92.2783 200.168 92.6283 200.098 93.0216 200.098C93.6283 200.098 94.1183 200.251 94.4916 200.558C94.865 200.865 95.065 201.285 95.0916 201.818H94.1816C94.1616 201.531 94.045 201.301 93.8316 201.128C93.625 200.955 93.345 200.868 92.9916 200.868C92.665 200.868 92.405 200.938 92.2116 201.078C92.0183 201.218 91.9216 201.401 91.9216 201.628C91.9216 201.808 91.9783 201.958 92.0916 202.078C92.2116 202.191 92.3583 202.285 92.5316 202.358C92.7116 202.425 92.9583 202.501 93.2716 202.588C93.665 202.695 93.985 202.801 94.2316 202.908C94.4783 203.008 94.6883 203.161 94.8616 203.368C95.0416 203.575 95.135 203.845 95.1416 204.178C95.1416 204.478 95.0583 204.748 94.8916 204.988C94.725 205.228 94.4883 205.418 94.1816 205.558C93.8816 205.691 93.535 205.758 93.1416 205.758ZM96.0863 202.918C96.0863 202.351 96.1996 201.858 96.4263 201.438C96.6529 201.011 96.9663 200.681 97.3663 200.448C97.7729 200.215 98.2363 200.098 98.7563 200.098C99.4296 200.098 99.9829 200.261 100.416 200.588C100.856 200.915 101.146 201.368 101.286 201.948H100.306C100.213 201.615 100.03 201.351 99.7563 201.158C99.4896 200.965 99.1563 200.868 98.7563 200.868C98.2363 200.868 97.8163 201.048 97.4963 201.408C97.1763 201.761 97.0163 202.265 97.0163 202.918C97.0163 203.578 97.1763 204.088 97.4963 204.448C97.8163 204.808 98.2363 204.988 98.7563 204.988C99.1563 204.988 99.4896 204.895 99.7563 204.708C100.023 204.521 100.206 204.255 100.306 203.908H101.286C101.14 204.468 100.846 204.918 100.406 205.258C99.9663 205.591 99.4163 205.758 98.7563 205.758C98.2363 205.758 97.7729 205.641 97.3663 205.408C96.9663 205.175 96.6529 204.845 96.4263 204.418C96.1996 203.991 96.0863 203.491 96.0863 202.918ZM103.41 201.078C103.57 200.765 103.797 200.521 104.09 200.348C104.39 200.175 104.754 200.088 105.18 200.088V201.028H104.94C103.92 201.028 103.41 201.581 103.41 202.688V205.668H102.5V200.188H103.41V201.078ZM106.701 199.298C106.528 199.298 106.381 199.238 106.261 199.118C106.141 198.998 106.081 198.851 106.081 198.678C106.081 198.505 106.141 198.358 106.261 198.238C106.381 198.118 106.528 198.058 106.701 198.058C106.868 198.058 107.008 198.118 107.121 198.238C107.241 198.358 107.301 198.505 107.301 198.678C107.301 198.851 107.241 198.998 107.121 199.118C107.008 199.238 106.868 199.298 106.701 199.298ZM107.141 200.188V205.668H106.231V200.188H107.141ZM109.602 201.198C109.782 200.885 110.049 200.625 110.402 200.418C110.762 200.205 111.179 200.098 111.652 200.098C112.139 200.098 112.579 200.215 112.972 200.448C113.372 200.681 113.685 201.011 113.912 201.438C114.139 201.858 114.252 202.348 114.252 202.908C114.252 203.461 114.139 203.955 113.912 204.388C113.685 204.821 113.372 205.158 112.972 205.398C112.579 205.638 112.139 205.758 111.652 205.758C111.185 205.758 110.772 205.655 110.412 205.448C110.059 205.235 109.789 204.971 109.602 204.658V208.268H108.692V200.188H109.602V201.198ZM113.322 202.908C113.322 202.495 113.239 202.135 113.072 201.828C112.905 201.521 112.679 201.288 112.392 201.128C112.112 200.968 111.802 200.888 111.462 200.888C111.129 200.888 110.819 200.971 110.532 201.138C110.252 201.298 110.025 201.535 109.852 201.848C109.685 202.155 109.602 202.511 109.602 202.918C109.602 203.331 109.685 203.695 109.852 204.008C110.025 204.315 110.252 204.551 110.532 204.718C110.819 204.878 111.129 204.958 111.462 204.958C111.802 204.958 112.112 204.878 112.392 204.718C112.679 204.551 112.905 204.315 113.072 204.008C113.239 203.695 113.322 203.328 113.322 202.908ZM116.56 200.938V204.168C116.56 204.435 116.616 204.625 116.73 204.738C116.843 204.845 117.04 204.898 117.32 204.898H117.99V205.668H117.17C116.663 205.668 116.283 205.551 116.03 205.318C115.776 205.085 115.65 204.701 115.65 204.168V200.938H114.94V200.188H115.65V198.808H116.56V200.188H117.99V200.938H116.56ZM119.562 199.298C119.389 199.298 119.242 199.238 119.122 199.118C119.002 198.998 118.942 198.851 118.942 198.678C118.942 198.505 119.002 198.358 119.122 198.238C119.242 198.118 119.389 198.058 119.562 198.058C119.729 198.058 119.869 198.118 119.982 198.238C120.102 198.358 120.162 198.505 120.162 198.678C120.162 198.851 120.102 198.998 119.982 199.118C119.869 199.238 119.729 199.298 119.562 199.298ZM120.002 200.188V205.668H119.092V200.188H120.002ZM123.943 205.758C123.43 205.758 122.963 205.641 122.543 205.408C122.13 205.175 121.803 204.845 121.563 204.418C121.33 203.985 121.213 203.485 121.213 202.918C121.213 202.358 121.333 201.865 121.573 201.438C121.82 201.005 122.153 200.675 122.573 200.448C122.993 200.215 123.463 200.098 123.983 200.098C124.503 200.098 124.973 200.215 125.393 200.448C125.813 200.675 126.143 201.001 126.383 201.428C126.63 201.855 126.753 202.351 126.753 202.918C126.753 203.485 126.627 203.985 126.373 204.418C126.127 204.845 125.79 205.175 125.363 205.408C124.937 205.641 124.463 205.758 123.943 205.758ZM123.943 204.958C124.27 204.958 124.577 204.881 124.863 204.728C125.15 204.575 125.38 204.345 125.553 204.038C125.733 203.731 125.823 203.358 125.823 202.918C125.823 202.478 125.737 202.105 125.563 201.798C125.39 201.491 125.163 201.265 124.883 201.118C124.603 200.965 124.3 200.888 123.973 200.888C123.64 200.888 123.333 200.965 123.053 201.118C122.78 201.265 122.56 201.491 122.393 201.798C122.227 202.105 122.143 202.478 122.143 202.918C122.143 203.365 122.223 203.741 122.383 204.048C122.55 204.355 122.77 204.585 123.043 204.738C123.317 204.885 123.617 204.958 123.943 204.958ZM130.62 200.088C131.286 200.088 131.826 200.291 132.24 200.698C132.653 201.098 132.86 201.678 132.86 202.438V205.668H131.96V202.568C131.96 202.021 131.823 201.605 131.55 201.318C131.276 201.025 130.903 200.878 130.43 200.878C129.95 200.878 129.566 201.028 129.28 201.328C129 201.628 128.86 202.065 128.86 202.638V205.668H127.95V200.188H128.86V200.968C129.04 200.688 129.283 200.471 129.59 200.318C129.903 200.165 130.246 200.088 130.62 200.088ZM136.672 202.908C136.672 202.348 136.786 201.858 137.012 201.438C137.239 201.011 137.549 200.681 137.942 200.448C138.342 200.215 138.786 200.098 139.272 200.098C139.752 200.098 140.169 200.201 140.522 200.408C140.876 200.615 141.139 200.875 141.312 201.188V200.188H142.232V205.668H141.312V204.648C141.132 204.968 140.862 205.235 140.502 205.448C140.149 205.655 139.736 205.758 139.262 205.758C138.776 205.758 138.336 205.638 137.942 205.398C137.549 205.158 137.239 204.821 137.012 204.388C136.786 203.955 136.672 203.461 136.672 202.908ZM141.312 202.918C141.312 202.505 141.229 202.145 141.062 201.838C140.896 201.531 140.669 201.298 140.382 201.138C140.102 200.971 139.792 200.888 139.452 200.888C139.112 200.888 138.802 200.968 138.522 201.128C138.242 201.288 138.019 201.521 137.852 201.828C137.686 202.135 137.602 202.495 137.602 202.908C137.602 203.328 137.686 203.695 137.852 204.008C138.019 204.315 138.242 204.551 138.522 204.718C138.802 204.878 139.112 204.958 139.452 204.958C139.792 204.958 140.102 204.878 140.382 204.718C140.669 204.551 140.896 204.315 141.062 204.008C141.229 203.695 141.312 203.331 141.312 202.918ZM144.68 201.208C144.867 200.881 145.14 200.615 145.5 200.408C145.86 200.201 146.27 200.098 146.73 200.098C147.223 200.098 147.667 200.215 148.06 200.448C148.453 200.681 148.763 201.011 148.99 201.438C149.217 201.858 149.33 202.348 149.33 202.908C149.33 203.461 149.217 203.955 148.99 204.388C148.763 204.821 148.45 205.158 148.05 205.398C147.657 205.638 147.217 205.758 146.73 205.758C146.257 205.758 145.84 205.655 145.48 205.448C145.127 205.241 144.86 204.978 144.68 204.658V205.668H143.77V198.268H144.68V201.208ZM148.4 202.908C148.4 202.495 148.317 202.135 148.15 201.828C147.983 201.521 147.757 201.288 147.47 201.128C147.19 200.968 146.88 200.888 146.54 200.888C146.207 200.888 145.897 200.971 145.61 201.138C145.33 201.298 145.103 201.535 144.93 201.848C144.763 202.155 144.68 202.511 144.68 202.918C144.68 203.331 144.763 203.695 144.93 204.008C145.103 204.315 145.33 204.551 145.61 204.718C145.897 204.878 146.207 204.958 146.54 204.958C146.88 204.958 147.19 204.878 147.47 204.718C147.757 204.551 147.983 204.315 148.15 204.008C148.317 203.695 148.4 203.328 148.4 202.908ZM152.918 205.758C152.404 205.758 151.938 205.641 151.518 205.408C151.104 205.175 150.778 204.845 150.538 204.418C150.304 203.985 150.188 203.485 150.188 202.918C150.188 202.358 150.308 201.865 150.548 201.438C150.794 201.005 151.128 200.675 151.548 200.448C151.968 200.215 152.438 200.098 152.958 200.098C153.478 200.098 153.948 200.215 154.368 200.448C154.788 200.675 155.118 201.001 155.358 201.428C155.604 201.855 155.728 202.351 155.728 202.918C155.728 203.485 155.601 203.985 155.348 204.418C155.101 204.845 154.764 205.175 154.338 205.408C153.911 205.641 153.438 205.758 152.918 205.758ZM152.918 204.958C153.244 204.958 153.551 204.881 153.838 204.728C154.124 204.575 154.354 204.345 154.528 204.038C154.708 203.731 154.798 203.358 154.798 202.918C154.798 202.478 154.711 202.105 154.538 201.798C154.364 201.491 154.138 201.265 153.858 201.118C153.578 200.965 153.274 200.888 152.948 200.888C152.614 200.888 152.308 200.965 152.028 201.118C151.754 201.265 151.534 201.491 151.368 201.798C151.201 202.105 151.118 202.478 151.118 202.918C151.118 203.365 151.198 203.741 151.358 204.048C151.524 204.355 151.744 204.585 152.018 204.738C152.291 204.885 152.591 204.958 152.918 204.958ZM161.784 200.188V205.668H160.874V204.858C160.701 205.138 160.458 205.358 160.144 205.518C159.838 205.671 159.498 205.748 159.124 205.748C158.698 205.748 158.314 205.661 157.974 205.488C157.634 205.308 157.364 205.041 157.164 204.688C156.971 204.335 156.874 203.905 156.874 203.398V200.188H157.774V203.278C157.774 203.818 157.911 204.235 158.184 204.528C158.458 204.815 158.831 204.958 159.304 204.958C159.791 204.958 160.174 204.808 160.454 204.508C160.734 204.208 160.874 203.771 160.874 203.198V200.188H161.784ZM164.431 200.938V204.168C164.431 204.435 164.487 204.625 164.601 204.738C164.714 204.845 164.911 204.898 165.191 204.898H165.861V205.668H165.041C164.534 205.668 164.154 205.551 163.901 205.318C163.647 205.085 163.521 204.701 163.521 204.168V200.938H162.811V200.188H163.521V198.808H164.431V200.188H165.861V200.938H164.431ZM176.929 200.188L175.219 205.668H174.279L172.959 201.318L171.639 205.668H170.699L168.979 200.188H169.909L171.169 204.788L172.529 200.188H173.459L174.789 204.798L176.029 200.188H176.929ZM180.553 200.088C180.966 200.088 181.339 200.178 181.673 200.358C182.006 200.531 182.266 200.795 182.453 201.148C182.646 201.501 182.743 201.931 182.743 202.438V205.668H181.843V202.568C181.843 202.021 181.706 201.605 181.433 201.318C181.159 201.025 180.786 200.878 180.313 200.878C179.833 200.878 179.449 201.028 179.163 201.328C178.883 201.628 178.743 202.065 178.743 202.638V205.668H177.833V198.268H178.743V200.968C178.923 200.688 179.169 200.471 179.483 200.318C179.803 200.165 180.159 200.088 180.553 200.088ZM183.889 202.908C183.889 202.348 184.002 201.858 184.229 201.438C184.456 201.011 184.766 200.681 185.159 200.448C185.559 200.215 186.002 200.098 186.489 200.098C186.969 200.098 187.386 200.201 187.739 200.408C188.092 200.615 188.356 200.875 188.529 201.188V200.188H189.449V205.668H188.529V204.648C188.349 204.968 188.079 205.235 187.719 205.448C187.366 205.655 186.952 205.758 186.479 205.758C185.992 205.758 185.552 205.638 185.159 205.398C184.766 205.158 184.456 204.821 184.229 204.388C184.002 203.955 183.889 203.461 183.889 202.908ZM188.529 202.918C188.529 202.505 188.446 202.145 188.279 201.838C188.112 201.531 187.886 201.298 187.599 201.138C187.319 200.971 187.009 200.888 186.669 200.888C186.329 200.888 186.019 200.968 185.739 201.128C185.459 201.288 185.236 201.521 185.069 201.828C184.902 202.135 184.819 202.495 184.819 202.908C184.819 203.328 184.902 203.695 185.069 204.008C185.236 204.315 185.459 204.551 185.739 204.718C186.019 204.878 186.329 204.958 186.669 204.958C187.009 204.958 187.319 204.878 187.599 204.718C187.886 204.551 188.112 204.315 188.279 204.008C188.446 203.695 188.529 203.331 188.529 202.918ZM192.097 200.938V204.168C192.097 204.435 192.153 204.625 192.267 204.738C192.38 204.845 192.577 204.898 192.857 204.898H193.527V205.668H192.707C192.2 205.668 191.82 205.551 191.567 205.318C191.313 205.085 191.187 204.701 191.187 204.168V200.938H190.477V200.188H191.187V198.808H192.097V200.188H193.527V200.938H192.097ZM198.405 200.938V204.168C198.405 204.435 198.462 204.625 198.575 204.738C198.689 204.845 198.885 204.898 199.165 204.898H199.835V205.668H199.015C198.509 205.668 198.129 205.551 197.875 205.318C197.622 205.085 197.495 204.701 197.495 204.168V200.938H196.785V200.188H197.495V198.808H198.405V200.188H199.835V200.938H198.405ZM203.658 200.088C204.071 200.088 204.445 200.178 204.778 200.358C205.111 200.531 205.371 200.795 205.558 201.148C205.751 201.501 205.848 201.931 205.848 202.438V205.668H204.948V202.568C204.948 202.021 204.811 201.605 204.538 201.318C204.265 201.025 203.891 200.878 203.418 200.878C202.938 200.878 202.555 201.028 202.268 201.328C201.988 201.628 201.848 202.065 201.848 202.638V205.668H200.938V198.268H201.848V200.968C202.028 200.688 202.275 200.471 202.588 200.318C202.908 200.165 203.265 200.088 203.658 200.088ZM207.804 199.298C207.631 199.298 207.484 199.238 207.364 199.118C207.244 198.998 207.184 198.851 207.184 198.678C207.184 198.505 207.244 198.358 207.364 198.238C207.484 198.118 207.631 198.058 207.804 198.058C207.971 198.058 208.111 198.118 208.224 198.238C208.344 198.358 208.404 198.505 208.404 198.678C208.404 198.851 208.344 198.998 208.224 199.118C208.111 199.238 207.971 199.298 207.804 199.298ZM208.244 200.188V205.668H207.334V200.188H208.244ZM211.735 205.758C211.315 205.758 210.939 205.688 210.605 205.548C210.272 205.401 210.009 205.201 209.815 204.948C209.622 204.688 209.515 204.391 209.495 204.058H210.435C210.462 204.331 210.589 204.555 210.815 204.728C211.049 204.901 211.352 204.988 211.725 204.988C212.072 204.988 212.345 204.911 212.545 204.758C212.745 204.605 212.845 204.411 212.845 204.178C212.845 203.938 212.739 203.761 212.525 203.648C212.312 203.528 211.982 203.411 211.535 203.298C211.129 203.191 210.795 203.085 210.535 202.978C210.282 202.865 210.062 202.701 209.875 202.488C209.695 202.268 209.605 201.981 209.605 201.628C209.605 201.348 209.689 201.091 209.855 200.858C210.022 200.625 210.259 200.441 210.565 200.308C210.872 200.168 211.222 200.098 211.615 200.098C212.222 200.098 212.712 200.251 213.085 200.558C213.459 200.865 213.659 201.285 213.685 201.818H212.775C212.755 201.531 212.639 201.301 212.425 201.128C212.219 200.955 211.939 200.868 211.585 200.868C211.259 200.868 210.999 200.938 210.805 201.078C210.612 201.218 210.515 201.401 210.515 201.628C210.515 201.808 210.572 201.958 210.685 202.078C210.805 202.191 210.952 202.285 211.125 202.358C211.305 202.425 211.552 202.501 211.865 202.588C212.259 202.695 212.579 202.801 212.825 202.908C213.072 203.008 213.282 203.161 213.455 203.368C213.635 203.575 213.729 203.845 213.735 204.178C213.735 204.478 213.652 204.748 213.485 204.988C213.319 205.228 213.082 205.418 212.775 205.558C212.475 205.691 212.129 205.758 211.735 205.758ZM222.966 200.718C222.773 200.311 222.493 199.998 222.126 199.778C221.759 199.551 221.333 199.438 220.846 199.438C220.359 199.438 219.919 199.551 219.526 199.778C219.139 199.998 218.833 200.318 218.606 200.738C218.386 201.151 218.276 201.631 218.276 202.178C218.276 202.725 218.386 203.205 218.606 203.618C218.833 204.031 219.139 204.351 219.526 204.578C219.919 204.798 220.359 204.908 220.846 204.908C221.526 204.908 222.086 204.705 222.526 204.298C222.966 203.891 223.223 203.341 223.296 202.648H220.516V201.908H224.266V202.608C224.213 203.181 224.033 203.708 223.726 204.188C223.419 204.661 223.016 205.038 222.516 205.318C222.016 205.591 221.459 205.728 220.846 205.728C220.199 205.728 219.609 205.578 219.076 205.278C218.543 204.971 218.119 204.548 217.806 204.008C217.499 203.468 217.346 202.858 217.346 202.178C217.346 201.498 217.499 200.888 217.806 200.348C218.119 199.801 218.543 199.378 219.076 199.078C219.609 198.771 220.199 198.618 220.846 198.618C221.586 198.618 222.239 198.801 222.806 199.168C223.379 199.535 223.796 200.051 224.056 200.718H222.966ZM230.129 200.738C230.129 201.318 229.929 201.801 229.529 202.188C229.136 202.568 228.533 202.758 227.719 202.758H226.379V205.668H225.469V198.698H227.719C228.506 198.698 229.103 198.888 229.509 199.268C229.923 199.648 230.129 200.138 230.129 200.738ZM227.719 202.008C228.226 202.008 228.599 201.898 228.839 201.678C229.079 201.458 229.199 201.145 229.199 200.738C229.199 199.878 228.706 199.448 227.719 199.448H226.379V202.008H227.719ZM235.55 198.698V199.438H233.65V205.668H232.74V199.438H230.83V198.698H235.55ZM238.996 202.908C238.996 202.348 239.11 201.858 239.336 201.438C239.563 201.011 239.873 200.681 240.266 200.448C240.666 200.215 241.113 200.098 241.606 200.098C242.033 200.098 242.43 200.198 242.796 200.398C243.163 200.591 243.443 200.848 243.636 201.168V198.268H244.556V205.668H243.636V204.638C243.456 204.965 243.19 205.235 242.836 205.448C242.483 205.655 242.07 205.758 241.596 205.758C241.11 205.758 240.666 205.638 240.266 205.398C239.873 205.158 239.563 204.821 239.336 204.388C239.11 203.955 238.996 203.461 238.996 202.908ZM243.636 202.918C243.636 202.505 243.553 202.145 243.386 201.838C243.22 201.531 242.993 201.298 242.706 201.138C242.426 200.971 242.116 200.888 241.776 200.888C241.436 200.888 241.126 200.968 240.846 201.128C240.566 201.288 240.343 201.521 240.176 201.828C240.01 202.135 239.926 202.495 239.926 202.908C239.926 203.328 240.01 203.695 240.176 204.008C240.343 204.315 240.566 204.551 240.846 204.718C241.126 204.878 241.436 204.958 241.776 204.958C242.116 204.958 242.426 204.878 242.706 204.718C242.993 204.551 243.22 204.315 243.386 204.008C243.553 203.695 243.636 203.331 243.636 202.918ZM248.484 205.758C247.971 205.758 247.504 205.641 247.084 205.408C246.671 205.175 246.344 204.845 246.104 204.418C245.871 203.985 245.754 203.485 245.754 202.918C245.754 202.358 245.874 201.865 246.114 201.438C246.361 201.005 246.694 200.675 247.114 200.448C247.534 200.215 248.004 200.098 248.524 200.098C249.044 200.098 249.514 200.215 249.934 200.448C250.354 200.675 250.684 201.001 250.924 201.428C251.171 201.855 251.294 202.351 251.294 202.918C251.294 203.485 251.168 203.985 250.914 204.418C250.668 204.845 250.331 205.175 249.904 205.408C249.478 205.641 249.004 205.758 248.484 205.758ZM248.484 204.958C248.811 204.958 249.118 204.881 249.404 204.728C249.691 204.575 249.921 204.345 250.094 204.038C250.274 203.731 250.364 203.358 250.364 202.918C250.364 202.478 250.278 202.105 250.104 201.798C249.931 201.491 249.704 201.265 249.424 201.118C249.144 200.965 248.841 200.888 248.514 200.888C248.181 200.888 247.874 200.965 247.594 201.118C247.321 201.265 247.101 201.491 246.934 201.798C246.768 202.105 246.684 202.478 246.684 202.918C246.684 203.365 246.764 203.741 246.924 204.048C247.091 204.355 247.311 204.585 247.584 204.738C247.858 204.885 248.158 204.958 248.484 204.958ZM257.491 202.718C257.491 202.891 257.481 203.075 257.461 203.268H253.081C253.114 203.808 253.297 204.231 253.631 204.538C253.971 204.838 254.381 204.988 254.861 204.988C255.254 204.988 255.581 204.898 255.841 204.718C256.107 204.531 256.294 204.285 256.401 203.978H257.381C257.234 204.505 256.941 204.935 256.501 205.268C256.061 205.595 255.514 205.758 254.861 205.758C254.341 205.758 253.874 205.641 253.461 205.408C253.054 205.175 252.734 204.845 252.501 204.418C252.267 203.985 252.151 203.485 252.151 202.918C252.151 202.351 252.264 201.855 252.491 201.428C252.717 201.001 253.034 200.675 253.441 200.448C253.854 200.215 254.327 200.098 254.861 200.098C255.381 200.098 255.841 200.211 256.241 200.438C256.641 200.665 256.947 200.978 257.161 201.378C257.381 201.771 257.491 202.218 257.491 202.718ZM256.551 202.528C256.551 202.181 256.474 201.885 256.321 201.638C256.167 201.385 255.957 201.195 255.691 201.068C255.431 200.935 255.141 200.868 254.821 200.868C254.361 200.868 253.967 201.015 253.641 201.308C253.321 201.601 253.137 202.008 253.091 202.528H256.551ZM260.632 205.758C260.212 205.758 259.835 205.688 259.502 205.548C259.169 205.401 258.905 205.201 258.712 204.948C258.519 204.688 258.412 204.391 258.392 204.058H259.332C259.359 204.331 259.485 204.555 259.712 204.728C259.945 204.901 260.249 204.988 260.622 204.988C260.969 204.988 261.242 204.911 261.442 204.758C261.642 204.605 261.742 204.411 261.742 204.178C261.742 203.938 261.635 203.761 261.422 203.648C261.209 203.528 260.879 203.411 260.432 203.298C260.025 203.191 259.692 203.085 259.432 202.978C259.179 202.865 258.959 202.701 258.772 202.488C258.592 202.268 258.502 201.981 258.502 201.628C258.502 201.348 258.585 201.091 258.752 200.858C258.919 200.625 259.155 200.441 259.462 200.308C259.769 200.168 260.119 200.098 260.512 200.098C261.119 200.098 261.609 200.251 261.982 200.558C262.355 200.865 262.555 201.285 262.582 201.818H261.672C261.652 201.531 261.535 201.301 261.322 201.128C261.115 200.955 260.835 200.868 260.482 200.868C260.155 200.868 259.895 200.938 259.702 201.078C259.509 201.218 259.412 201.401 259.412 201.628C259.412 201.808 259.469 201.958 259.582 202.078C259.702 202.191 259.849 202.285 260.022 202.358C260.202 202.425 260.449 202.501 260.762 202.588C261.155 202.695 261.475 202.801 261.722 202.908C261.969 203.008 262.179 203.161 262.352 203.368C262.532 203.575 262.625 203.845 262.632 204.178C262.632 204.478 262.549 204.748 262.382 204.988C262.215 205.228 261.979 205.418 261.672 205.558C261.372 205.691 261.025 205.758 260.632 205.758Z" fill="#14171B"/>
<defs>
<filter id="filter0_dddddd_129_2680" x="74.4251" y="13" width="197.15" height="97.7666" filterUnits="userSpaceOnUse" color-interpolation-filters="sRGB">
<feFlood flood-opacity="0" result="BackgroundImageFix"/>
<feColorMatrix in="SourceAlpha" type="matrix" values="0 0 0 0 0 0 0 0 0 0 0 0 0 0 0 0 0 0 127 0" result="hardAlpha"/>
<feOffset dy="1.12679"/>
<feGaussianBlur stdDeviation="0.450715"/>
<feColorMatrix type="matrix" values="0 0 0 0 0 0 0 0 0 0 0 0 0 0 0 0 0 0 0.07 0"/>
<feBlend mode="normal" in2="BackgroundImageFix" result="effect1_dropShadow_129_2680"/>
<feColorMatrix in="SourceAlpha" type="matrix" values="0 0 0 0 0 0 0 0 0 0 0 0 0 0 0 0 0 0 127 0" result="hardAlpha"/>
<feOffset dy="2.70783"/>
<feGaussianBlur stdDeviation="1.08313"/>
<feColorMatrix type="matrix" values="0 0 0 0 0 0 0 0 0 0 0 0 0 0 0 0 0 0 0.0503198 0"/>
<feBlend mode="normal" in2="effect1_dropShadow_129_2680" result="effect2_dropShadow_129_2680"/>
<feColorMatrix in="SourceAlpha" type="matrix" values="0 0 0 0 0 0 0 0 0 0 0 0 0 0 0 0 0 0 127 0" result="hardAlpha"/>
<feOffset dy="5.0986"/>
<feGaussianBlur stdDeviation="2.03944"/>
<feColorMatrix type="matrix" values="0 0 0 0 0 0 0 0 0 0 0 0 0 0 0 0 0 0 0.0417275 0"/>
<feBlend mode="normal" in2="effect2_dropShadow_129_2680" result="effect3_dropShadow_129_2680"/>
<feColorMatrix in="SourceAlpha" type="matrix" values="0 0 0 0 0 0 0 0 0 0 0 0 0 0 0 0 0 0 127 0" result="hardAlpha"/>
<feOffset dy="9.09502"/>
<feGaussianBlur stdDeviation="3.63801"/>
<feColorMatrix type="matrix" values="0 0 0 0 0 0 0 0 0 0 0 0 0 0 0 0 0 0 0.035 0"/>
<feBlend mode="normal" in2="effect3_dropShadow_129_2680" result="effect4_dropShadow_129_2680"/>
<feColorMatrix in="SourceAlpha" type="matrix" values="0 0 0 0 0 0 0 0 0 0 0 0 0 0 0 0 0 0 127 0" result="hardAlpha"/>
<feOffset dy="17.0112"/>
<feGaussianBlur stdDeviation="6.8045"/>
<feColorMatrix type="matrix" values="0 0 0 0 0 0 0 0 0 0 0 0 0 0 0 0 0 0 0.0282725 0"/>
<feBlend mode="normal" in2="effect4_dropShadow_129_2680" result="effect5_dropShadow_129_2680"/>
<feColorMatrix in="SourceAlpha" type="matrix" values="0 0 0 0 0 0 0 0 0 0 0 0 0 0 0 0 0 0 127 0" result="hardAlpha"/>
<feOffset dy="40.7186"/>
<feGaussianBlur stdDeviation="16.2874"/>
<feColorMatrix type="matrix" values="0 0 0 0 0 0 0 0 0 0 0 0 0 0 0 0 0 0 0.0196802 0"/>
<feBlend mode="normal" in2="effect5_dropShadow_129_2680" result="effect6_dropShadow_129_2680"/>
<feBlend mode="normal" in="SourceGraphic" in2="effect6_dropShadow_129_2680" result="shape"/>
</filter>
<filter id="filter1_d_129_2680" x="3.66488" y="253.114" width="327.784" height="46.2874" filterUnits="userSpaceOnUse" color-interpolation-filters="sRGB">
<feFlood flood-opacity="0" result="BackgroundImageFix"/>
<feColorMatrix in="SourceAlpha" type="matrix" values="0 0 0 0 0 0 0 0 0 0 0 0 0 0 0 0 0 0 127 0" result="hardAlpha"/>
<feMorphology radius="1.62874" operator="erode" in="SourceAlpha" result="effect1_dropShadow_129_2680"/>
<feOffset dy="3.25748"/>
<feGaussianBlur stdDeviation="4.88623"/>
<feComposite in2="hardAlpha" operator="out"/>
<feColorMatrix type="matrix" values="0 0 0 0 0 0 0 0 0 0 0 0 0 0 0 0 0 0 0.08 0"/>
<feBlend mode="normal" in2="BackgroundImageFix" result="effect1_dropShadow_129_2680"/>
<feBlend mode="normal" in="SourceGraphic" in2="effect1_dropShadow_129_2680" result="shape"/>
</filter>
<filter id="filter2_d_129_2680" x="292.252" y="261.599" width="26.0599" height="26.0599" filterUnits="userSpaceOnUse" color-interpolation-filters="sRGB">
<feFlood flood-opacity="0" result="BackgroundImageFix"/>
<feColorMatrix in="SourceAlpha" type="matrix" values="0 0 0 0 0 0 0 0 0 0 0 0 0 0 0 0 0 0 127 0" result="hardAlpha"/>
<feOffset dy="1.62874"/>
<feGaussianBlur stdDeviation="1.62874"/>
<feComposite in2="hardAlpha" operator="out"/>
<feColorMatrix type="matrix" values="0 0 0 0 0.337255 0 0 0 0 0.380392 0 0 0 0 0.964706 0 0 0 0.25 0"/>
<feBlend mode="normal" in2="BackgroundImageFix" result="effect1_dropShadow_129_2680"/>
<feBlend mode="normal" in="SourceGraphic" in2="effect1_dropShadow_129_2680" result="shape"/>
</filter>
</defs>
</svg>
