<svg width="56" height="55" viewBox="0 0 56 55" fill="none" xmlns="http://www.w3.org/2000/svg">
<ellipse cx="28" cy="27.5" rx="28" ry="27.5" fill="#FFE4E4"/>
<path d="M28.1383 21.7172L21.0021 27.0002L28.1383 32.2832L35.2745 27.0002L28.1383 21.7172ZM28.1383 20.6108C28.3596 20.6108 28.6085 20.6938 28.8021 20.8321L35.9383 26.1151C36.2149 26.3364 36.3809 26.6406 36.3809 27.0002C36.3809 27.3598 36.2149 27.6917 35.9383 27.8853L28.8021 33.1683C28.6085 33.3066 28.3872 33.3896 28.1383 33.3896C27.8894 33.3896 27.6681 33.3066 27.4745 33.1683L20.3383 27.8853C20.0617 27.664 19.8958 27.3598 19.8958 27.0002C19.8958 26.6406 20.0617 26.3087 20.3383 26.1151L27.4745 20.8321C27.6681 20.6938 27.8894 20.6108 28.1383 20.6108Z" fill="#FF4F4F"/>
<path d="M28.1384 15.1064C27.6129 15.1064 27.1703 15.5489 27.1703 16.0745C27.1703 16.6 27.5852 17.0426 28.1384 17.0426C28.664 17.0426 29.1065 16.6 29.1065 16.0745C29.1065 15.5489 28.664 15.1064 28.1384 15.1064ZM28.1384 14C29.2725 14 30.2129 14.9404 30.2129 16.0745C30.2129 17.2085 29.2725 18.1489 28.1384 18.1489C26.9767 18.1489 26.064 17.2085 26.064 16.0745C26.064 14.9404 26.9767 14 28.1384 14Z" fill="#FF4F4F"/>
<path d="M38.9255 36.9575C38.4 36.9575 37.9574 37.4 37.9574 37.9255C37.9574 38.4511 38.4 38.8936 38.9255 38.8936C39.4511 38.8936 39.8936 38.4511 39.8936 37.9255C39.8936 37.3724 39.4511 36.9575 38.9255 36.9575ZM38.9255 35.8511C40.0596 35.8511 41 36.7638 41 37.9255C41 39.0872 40.0596 40 38.9255 40C37.7638 40 36.8511 39.0596 36.8511 37.9255C36.8511 36.7638 37.7638 35.8511 38.9255 35.8511Z" fill="#FF4F4F"/>
<path d="M17.074 36.9575C16.5484 36.9575 16.1059 37.4 16.1059 37.9255C16.1059 38.4511 16.5484 38.8936 17.074 38.8936C17.5995 38.8936 18.0421 38.4511 18.0421 37.9255C18.0421 37.3724 17.6272 36.9575 17.074 36.9575ZM17.074 35.8511C18.2357 35.8511 19.1484 36.7915 19.1484 37.9255C19.1484 39.0872 18.208 40 17.074 40C15.9123 40 14.9995 39.0596 14.9995 37.9255C14.9995 36.7638 15.9399 35.8511 17.074 35.8511Z" fill="#FF4F4F"/>
<path d="M28.2773 17.8726V21.1917" stroke="#FF4F4F" stroke-width="1.10638" stroke-miterlimit="10" stroke-linecap="round"/>
<path d="M39.0625 36.1279V35.0215" stroke="#FF4F4F" stroke-width="1.10638" stroke-linecap="round" stroke-linejoin="round"/>
<path d="M39.0625 32.8086V29.2129" stroke="#FF4F4F" stroke-width="1.10638" stroke-linecap="round" stroke-linejoin="round" stroke-dasharray="2.21 2.21"/>
<path d="M39.0625 28.1069V27.0005H37.9561" stroke="#FF4F4F" stroke-width="1.10638" stroke-linecap="round" stroke-linejoin="round"/>
<path d="M36.6836 26.9727H35.5772" stroke="#FF4F4F" stroke-width="1.10638" stroke-linecap="round" stroke-linejoin="round"/>
<path d="M17.2109 36.1279V35.0215" stroke="#FF4F4F" stroke-width="1.10638" stroke-linecap="round" stroke-linejoin="round"/>
<path d="M17.2109 32.8086V29.2129" stroke="#FF4F4F" stroke-width="1.10638" stroke-linecap="round" stroke-linejoin="round" stroke-dasharray="2.21 2.21"/>
<path d="M17.212 28.1069V27.0005H18.3184" stroke="#FF4F4F" stroke-width="1.10638" stroke-linecap="round" stroke-linejoin="round"/>
<path d="M19.4796 26.9727H20.5859" stroke="#FF4F4F" stroke-width="1.10638" stroke-linecap="round" stroke-linejoin="round"/>
</svg>
