<svg width="56" height="55" viewBox="0 0 56 55" fill="none" xmlns="http://www.w3.org/2000/svg">
<ellipse cx="28" cy="27.5" rx="28" ry="27.5" fill="#FFF4E3"/>
<path fill-rule="evenodd" clip-rule="evenodd" d="M39.1893 14C40.6743 14 41.877 15.2038 41.877 16.6876V28.334C41.877 29.8178 40.6743 31.0216 39.1893 31.0216H30.2306C28.7468 31.0216 27.543 29.8178 27.543 28.334V16.6876C27.543 15.2038 28.7468 14 30.2306 14H39.1893ZM40.0852 16.6876C40.0852 16.1926 39.6843 15.7918 39.1893 15.7918H32.4701V29.2299H39.1893C39.6843 29.2299 40.0852 28.829 40.0852 28.334V16.6876ZM30.6787 29.2299V15.7918H30.2307C29.7358 15.7918 29.3349 16.1926 29.3349 16.6876V28.334C29.3349 28.829 29.7358 29.2299 30.2307 29.2299H30.6787Z" fill="#F2A73B"/>
<path d="M15.0006 30.1259C15.0006 29.6309 15.4015 29.23 15.8965 29.23H24.443C24.6087 29.23 24.7711 29.2759 24.9122 29.3621L29.5641 32.2222C30.3962 32.734 30.8396 33.5828 30.7859 34.463C30.7713 34.7027 30.7198 34.9367 30.6347 35.1584H35.5642C37.1879 35.1584 38.7411 36.3175 38.7411 38.0174C38.7411 39.7185 37.1879 40.8764 35.5642 40.8764H21.061C20.8874 40.8764 20.7172 40.826 20.5716 40.7308L15.4068 37.3658C14.9925 37.0959 14.876 36.5416 15.1459 36.1261C15.4158 35.7118 15.9712 35.5953 16.3856 35.8652L21.3262 39.0846H35.5639C36.4598 39.0846 36.9491 38.4855 36.9491 38.0174C36.9491 37.5493 36.4598 36.9502 35.5639 36.9502H28.3017C28.1281 36.9502 27.959 36.8998 27.8135 36.8057L25.2311 35.1226C24.8168 34.8527 24.6992 34.2972 24.9691 33.8829C25.2389 33.4686 25.7944 33.351 26.2087 33.622L28.3655 35.0274L28.5335 34.9456C28.8717 34.7799 28.9859 34.5369 28.9971 34.3532C29.0083 34.1729 28.9288 33.9344 28.6253 33.7485L24.1895 31.0217H15.8959C15.4009 31.0217 15 30.6208 15 30.1258L15.0006 30.1259Z" fill="#F2A73B"/>
</svg>
