<svg width="56" height="55" viewBox="0 0 56 55" fill="none" xmlns="http://www.w3.org/2000/svg">
<ellipse cx="28" cy="27.5" rx="28" ry="27.5" fill="#E4F4E6"/>
<path d="M26.7756 25.7364L23.6727 28.8407L22.3361 27.5041H22.3347C22.1068 27.2849 21.7455 27.2878 21.5219 27.5113C21.2984 27.7348 21.2941 28.0962 21.5132 28.3241L23.2606 30.0714C23.4884 30.2963 23.8541 30.2963 24.082 30.0714L27.5955 26.5578C27.8146 26.33 27.8117 25.9686 27.5882 25.7451C27.3647 25.5202 27.0034 25.5173 26.7756 25.7364Z" fill="#2FCF3F"/>
<path d="M44.1296 32.9451C44.1281 30.8263 43.3241 28.7885 41.8786 27.2414V19.5048H42.4287C42.745 19.5149 43.0425 19.3509 43.2007 19.0766C43.3589 18.8038 43.3546 18.4642 43.1862 18.1957L40.6363 14.3686C40.4564 14.1364 40.1777 14 39.8831 14C39.5885 14 39.3099 14.1364 39.1285 14.3701L36.58 18.1957C36.4131 18.4642 36.4088 18.8023 36.567 19.0766C36.7252 19.3495 37.0212 19.5149 37.3376 19.5047H37.8876V24.8354C36.8906 24.5611 35.85 24.4798 34.8225 24.5945C34.6266 23.9864 34.377 23.3972 34.0766 22.8341L35.2478 20.9401H35.2463C35.3885 20.7108 35.3537 20.4148 35.1636 20.2247L32.2378 17.2989C32.0477 17.1088 31.7531 17.0739 31.5238 17.2147L29.6211 18.3815C29.0087 18.0579 28.3658 17.7909 27.7025 17.5877L27.1902 15.4209C27.1293 15.1583 26.8942 14.974 26.6257 14.974H22.4839C22.2154 14.974 21.9818 15.1583 21.9194 15.4209L21.4071 17.5877C20.7438 17.7909 20.101 18.0579 19.4885 18.3815L17.5917 17.2147C17.3638 17.0739 17.0677 17.1088 16.8776 17.2989L13.9461 20.2232C13.7559 20.4148 13.7211 20.7108 13.8633 20.9401L15.0345 22.8341H15.033C14.708 23.4479 14.4424 24.0894 14.2407 24.7541L12.0681 25.2722H12.0666C11.8054 25.3346 11.6211 25.5683 11.6211 25.8367V29.973C11.6211 30.2414 11.8054 30.4751 12.0666 30.5375L14.2392 31.0556C14.4409 31.7188 14.7065 32.3603 15.033 32.9713L13.8619 34.871C13.7211 35.1003 13.7559 35.3964 13.9461 35.5865L16.8776 38.5108C17.0677 38.7009 17.3638 38.7357 17.5917 38.595L19.4885 37.4281C20.1009 37.7532 20.7438 38.0188 21.4071 38.222L21.9194 40.3887C21.9803 40.6514 22.2155 40.8357 22.4839 40.8357H26.6257C26.8956 40.8357 27.1293 40.6514 27.1902 40.3887L27.7025 38.2234C28.0784 38.1117 28.5269 37.9608 28.8999 37.8185C33.6049 44.3927 44.0731 41.1375 44.1296 32.9451ZM38.4682 18.3437H37.8761L39.8832 15.3323L41.8903 18.3437H41.2981C40.9774 18.3437 40.7176 18.6035 40.7176 18.9242V26.201C40.201 25.8149 39.6408 25.4884 39.0487 25.2301V18.9241C39.0487 18.7703 38.9877 18.6223 38.8789 18.5134C38.77 18.4046 38.6221 18.3437 38.4682 18.3437ZM27.0683 37.1972C26.8608 37.2524 26.7011 37.4164 26.6518 37.6253L26.1671 39.6745H22.9423L22.4576 37.6253C22.4082 37.4178 22.2501 37.2538 22.044 37.1987C21.2458 36.981 20.4781 36.6632 19.7582 36.2524C19.5739 36.1479 19.3475 36.1508 19.1676 36.2626L17.3738 37.367L15.0924 35.0885L16.2012 33.2889H16.1997C16.3129 33.1075 16.3158 32.8782 16.2084 32.6939C15.7948 31.9799 15.4785 31.215 15.2651 30.4183C15.2085 30.2122 15.046 30.054 14.8384 30.0047L12.782 29.5142V26.2952L14.8384 25.8047C15.046 25.7553 15.2085 25.5971 15.2651 25.3911C15.4799 24.5929 15.7963 23.8251 16.2084 23.1082C16.3158 22.9239 16.3115 22.6946 16.1997 22.5132L15.0924 20.7209L17.3738 18.4438L19.1676 19.5482C19.3475 19.6585 19.5739 19.6629 19.7582 19.5584C20.478 19.1477 21.2458 18.8284 22.044 18.6107C22.25 18.5556 22.4082 18.3916 22.4576 18.1855L22.9423 16.1363H26.1656L26.6503 18.1855H26.6518C26.7011 18.3916 26.8593 18.5556 27.0654 18.6107C27.8636 18.8284 28.6313 19.1477 29.3512 19.5584C29.5355 19.6629 29.7619 19.6585 29.9418 19.5482L31.7414 18.4438L34.0185 20.7209L32.9097 22.5146V22.5132C32.7979 22.6946 32.7936 22.9239 32.901 23.1082C33.213 23.6495 33.4713 24.2184 33.673 24.8091C32.8951 25.005 32.1506 25.3127 31.4598 25.7219C30.7603 23.5044 29.0377 21.7585 26.8303 21.0284C24.6228 20.2984 22.1992 20.6729 20.3155 22.0342C18.4303 23.3955 17.3143 25.5796 17.3158 27.9047C17.2055 33.0232 22.8567 36.6935 27.4818 34.5223C27.6342 35.3205 27.9027 36.0911 28.2786 36.8124C27.865 36.9619 27.3876 37.113 27.0683 37.1972ZM27.3281 32.9451C27.3281 33.0627 27.3411 33.1773 27.3455 33.2934V33.292C26.4863 33.7448 25.53 33.9828 24.5576 33.9857C23.0308 33.9871 21.5607 33.4139 20.4374 32.3791C19.3141 31.3458 18.6204 29.9279 18.4955 28.4071C18.3693 26.8862 18.8192 25.3725 19.7581 24.1695C20.6957 22.9649 22.0512 22.1566 23.5577 21.907C25.0627 21.6559 26.6083 21.981 27.8853 22.8155C29.1624 23.6514 30.0782 24.9372 30.4526 26.4175C28.4774 28.0081 27.3281 30.4083 27.3281 32.9451ZM36.3101 40.155V39.1594C36.3101 38.8386 36.0489 38.5789 35.7296 38.5789C35.4089 38.5789 35.1491 38.8386 35.1491 39.1594V40.155C33.4366 40.0156 31.83 39.2726 30.6154 38.0579C29.4021 36.8432 28.6576 35.2366 28.5183 33.5256H29.5138C29.8302 33.5198 30.0842 33.2615 30.0842 32.9451C30.0842 32.6287 29.8302 32.3704 29.5138 32.3646H28.5183C28.6576 30.6521 29.4021 29.047 30.6154 27.8323C31.8301 26.6176 33.4367 25.8746 35.1476 25.7338V26.7294C35.1476 27.0501 35.4074 27.3099 35.7281 27.3099C36.0488 27.3099 36.3086 27.0501 36.3086 26.7294V25.7338C38.0211 25.8746 39.6277 26.6176 40.8409 27.8323C42.0556 29.0456 42.7986 30.6522 42.9394 32.3646H41.9438C41.6231 32.3646 41.3633 32.6244 41.3633 32.9451C41.3633 33.2658 41.6231 33.5256 41.9438 33.5256H42.9394C42.7986 35.2367 42.0556 36.8432 40.8423 38.0579C39.6276 39.2726 38.0211 40.0156 36.3101 40.155Z" fill="#2FCF3F"/>
<path d="M37.67 34.0684C38.0169 33.4633 38.0648 32.7318 37.7977 32.0875C37.5307 31.4431 36.9807 30.9584 36.3073 30.7755V29.436V29.4374C36.3073 29.1167 36.0475 28.8569 35.7268 28.8569C35.406 28.8569 35.1462 29.1167 35.1462 29.4374V30.777C34.0636 31.0759 33.367 32.1267 33.5136 33.2412C33.6601 34.3544 34.6035 35.1889 35.7268 35.199C36.1215 35.1961 36.509 35.0887 36.8486 34.8884L37.5074 35.5517L37.506 35.5531C37.7338 35.7723 38.0952 35.7708 38.3202 35.5473C38.5437 35.3253 38.5495 34.9639 38.3303 34.7346L37.67 34.0684ZM34.6339 32.9452C34.6426 32.3472 35.1302 31.8683 35.7267 31.8683C36.3247 31.8683 36.8109 32.3473 36.8195 32.9452C36.8108 33.5417 36.3247 34.022 35.7267 34.022C35.1302 34.022 34.6426 33.5416 34.6339 32.9452Z" fill="#2FCF3F"/>
</svg>
