<svg width="56" height="55" viewBox="0 0 56 55" fill="none" xmlns="http://www.w3.org/2000/svg">
<ellipse cx="28" cy="27.5" rx="28" ry="27.5" fill="#EDEDFF"/>
<path fill-rule="evenodd" clip-rule="evenodd" d="M28 13.375C26.7573 13.375 25.75 14.3824 25.75 15.625C25.75 16.4578 26.2025 17.185 26.875 17.574V17.875H20.125C17.6397 17.875 15.625 19.8897 15.625 22.375V33.625C15.625 36.1102 17.6397 38.125 20.125 38.125V41.5C20.125 42.1213 20.6287 42.625 21.25 42.625C21.8713 42.625 22.375 42.1213 22.375 41.5V38.125H33.625V41.5C33.625 42.1213 34.1287 42.625 34.75 42.625C35.3713 42.625 35.875 42.1213 35.875 41.5V38.125C38.3602 38.125 40.375 36.1102 40.375 33.625V22.375C40.375 19.8897 38.3602 17.875 35.875 17.875H29.125V17.574C29.7975 17.185 30.25 16.4578 30.25 15.625C30.25 14.3824 29.2427 13.375 28 13.375ZM35.875 36.25H34.75H21.25H20.125C18.8824 36.25 17.1544 34.8677 17.1544 33.625V22.375C17.1544 21.1324 18.8824 19.4225 20.125 19.4225H35.875C37.1177 19.4225 38.8945 21.1324 38.8945 22.375V33.625C38.8945 34.8677 37.1177 36.25 35.875 36.25ZM32.5 22.375C33.1213 22.375 33.625 22.8787 33.625 23.5V25.75C33.625 26.3713 33.1213 26.875 32.5 26.875C31.8787 26.875 31.375 26.3713 31.375 25.75V23.5C31.375 22.8787 31.8787 22.375 32.5 22.375ZM24.625 23.5C24.625 22.8787 24.1213 22.375 23.5 22.375C22.8787 22.375 22.375 22.8787 22.375 23.5V25.75C22.375 26.3713 22.8787 26.875 23.5 26.875C24.1213 26.875 24.625 26.3713 24.625 25.75V23.5ZM24.625 30.25C24.625 29.6287 24.1213 29.125 23.5 29.125C22.8787 29.125 22.375 29.6287 22.375 30.25V31.375C22.375 32.6177 23.3823 33.625 24.625 33.625H31.375C32.6177 33.625 33.625 32.6177 33.625 31.375V30.25C33.625 29.6287 33.1213 29.125 32.5 29.125C31.8787 29.125 31.375 29.6287 31.375 30.25V31.375H24.625V30.25Z" fill="#928EF2"/>
</svg>
