<svg width="60" height="60" viewBox="0 0 60 60" fill="none" xmlns="http://www.w3.org/2000/svg">
<rect x="0.46875" y="0.46875" width="59.0625" height="59.0625" rx="18.2812" stroke="#1778F2" stroke-width="0.9375"/>
<rect x="3" y="3" width="54" height="54" rx="18.75" fill="#1778F2"/>
<g clip-path="url(#clip0_170_491)">
<path d="M49 29.5C49 18.7304 40.2696 10 29.5 10C18.7304 10 10 18.7304 10 29.5C10 40.2696 18.7304 49 29.5 49C40.2696 49 49 40.2696 49 29.5Z" fill="#1778F2"/>
<path d="M31.0553 40.5061V30.068H34.559L35.0844 26.0001H31.0553V23.4028C31.0553 22.2252 31.3825 21.4225 33.0714 21.4225H35.2255V17.7852C34.1828 17.6749 33.1349 17.6215 32.0865 17.6252C28.9806 17.6252 26.8544 19.5208 26.8544 23.0023V26.0001H23.3418V30.068H26.8544V40.5061H31.0553Z" fill="#FDFDFD"/>
</g>
<defs>
<clipPath id="clip0_170_491">
<rect width="39" height="39" fill="white" transform="translate(10 10)"/>
</clipPath>
</defs>
</svg>
