<svg width="62" height="63" viewBox="0 0 62 63" fill="none" xmlns="http://www.w3.org/2000/svg">
<path d="M0 -1H62V33C62 49.5685 48.5685 63 32 63H30C13.4315 63 0 49.5685 0 33V-1Z" fill="#034737"/>
<g clip-path="url(#clip0_193_859)">
<path d="M36.8729 19.1812C37.6394 19.5058 38.3775 19.8936 39.0796 20.3406C39.1623 20.3935 39.2584 20.4215 39.3566 20.4215C39.8624 20.4215 40.059 19.7395 39.6345 19.4687C38.8839 18.9909 38.0948 18.5764 37.2754 18.2295C37.2128 18.2025 37.1455 18.1882 37.0774 18.1873C37.0092 18.1864 36.9416 18.1991 36.8783 18.2245C36.8151 18.2499 36.7575 18.2875 36.7088 18.3353C36.6602 18.383 36.6215 18.4399 36.595 18.5027C36.5684 18.5655 36.5546 18.6329 36.5542 18.701C36.5538 18.7692 36.5669 18.8367 36.5927 18.8998C36.6186 18.9629 36.6566 19.0202 36.7047 19.0685C36.7528 19.1168 36.81 19.1551 36.8729 19.1812ZM26.9556 18.5341C27 18.5341 27.0455 18.5284 27.0902 18.516C27.8942 18.2999 28.7147 18.1505 29.5434 18.0696C29.6109 18.0631 29.6765 18.0433 29.7364 18.0114C29.7963 17.9795 29.8494 17.9361 29.8925 17.8837C29.9356 17.8313 29.968 17.7709 29.9877 17.706C30.0075 17.6411 30.0142 17.5729 30.0076 17.5054C30.0013 17.4377 29.9816 17.3721 29.9498 17.3121C29.9179 17.2521 29.8746 17.199 29.8221 17.1558C29.7697 17.1127 29.7092 17.0803 29.6442 17.0606C29.5792 17.041 29.511 17.0343 29.4434 17.0411C28.5586 17.1272 27.6764 17.2876 26.8213 17.5183C26.255 17.671 26.3699 18.5341 26.9556 18.5341ZM32.0379 18.0329C32.8687 18.0887 33.6985 18.214 34.5037 18.4049C34.5437 18.4142 34.584 18.4188 34.6236 18.4188C35.219 18.4188 35.3203 17.5364 34.7424 17.3994C33.8764 17.1945 32.995 17.0616 32.1071 17.0021C31.8201 16.9758 31.576 17.1982 31.5571 17.4829C31.548 17.6196 31.5935 17.7543 31.6836 17.8574C31.7738 17.9606 31.9012 18.0237 32.0379 18.0329ZM42.7736 23.667C42.8756 23.7954 43.0263 23.8623 43.1782 23.8623C43.6042 23.8623 43.8454 23.3549 43.5822 23.0242C43.0281 22.3278 42.4175 21.6782 41.7565 21.0823C41.6541 20.9949 41.5215 20.9508 41.3871 20.9597C41.2527 20.9685 41.1271 21.0294 41.0369 21.1294C40.9467 21.2295 40.8992 21.3608 40.9044 21.4954C40.9096 21.63 40.9671 21.7573 41.0647 21.8501C41.6836 22.4075 42.2551 23.0152 42.7736 23.667ZM45.1743 28.0189C45.2097 28.1202 45.2757 28.2079 45.3631 28.27C45.4505 28.3321 45.5551 28.3655 45.6623 28.3656C46.0134 28.3656 46.2653 28.0083 46.1503 27.6784C45.8563 26.8375 45.4923 26.0228 45.062 25.2428C44.9957 25.1229 44.8845 25.0341 44.7528 24.9961C44.6211 24.9582 44.4798 24.974 44.3598 25.0403C44.2398 25.1065 44.1511 25.2177 44.1131 25.3494C44.0751 25.4811 44.091 25.6225 44.1573 25.7425C44.5594 26.4714 44.8997 27.233 45.1743 28.0189ZM16.0333 32.9173C16.0333 32.2371 16.0799 31.5527 16.1713 30.8826C16.1813 30.815 16.1778 30.7461 16.161 30.6799C16.1441 30.6136 16.1143 30.5514 16.0733 30.4968C16.0323 30.4421 15.9808 30.3962 15.9219 30.3616C15.863 30.327 15.7978 30.3044 15.7301 30.2951C15.6624 30.2859 15.5935 30.2902 15.5275 30.3077C15.4614 30.3253 15.3995 30.3558 15.3453 30.3974C15.2912 30.439 15.2458 30.491 15.2118 30.5503C15.1779 30.6096 15.156 30.675 15.1475 30.7428C15.0493 31.4635 15 32.19 15 32.9173C15 33.0543 15.0544 33.1857 15.1513 33.2826C15.2482 33.3795 15.3796 33.4339 15.5167 33.4339C15.6537 33.4339 15.7851 33.3795 15.882 33.2826C15.9789 33.1857 16.0333 33.0543 16.0333 32.9173ZM46.813 30.2613C46.7899 30.1263 46.7143 30.0059 46.6027 29.9265C46.4911 29.847 46.3526 29.815 46.2175 29.8374C46.0824 29.8602 45.9618 29.9357 45.8823 30.0474C45.8028 30.159 45.7709 30.2977 45.7936 30.4328C45.9212 31.1895 45.9661 32.8491 45.9661 32.9085C45.9661 41.2112 39.331 47.9659 31.1753 47.9659C25.5185 47.9659 20.3429 44.6223 17.8843 39.5165L19.5715 40.3992C20.1613 40.7069 20.6411 39.7927 20.0505 39.4834L17.0819 37.93C16.7784 37.7717 16.3922 37.9628 16.3338 38.2989L15.7613 41.5667C15.6466 42.2218 16.6645 42.4001 16.7789 41.7446L17.0543 40.1724C19.7229 45.5146 25.1981 48.999 31.1753 48.999C39.8327 48.999 46.8848 41.8919 46.9943 33.1144C47.0196 33.0537 46.9594 31.1324 46.813 30.2613ZM16.2237 28.8125C16.4433 28.8125 16.6469 28.6712 16.7164 28.4509C16.9663 27.657 17.2828 26.8856 17.6624 26.1449C17.6934 26.0846 17.7121 26.0187 17.7176 25.9511C17.7231 25.8835 17.7152 25.8155 17.6944 25.751C17.6736 25.6864 17.6403 25.6266 17.5964 25.5749C17.5525 25.5232 17.4988 25.4807 17.4384 25.4498C17.3781 25.4188 17.3122 25.4001 17.2446 25.3946C17.177 25.3891 17.109 25.397 17.0445 25.4178C16.9141 25.4598 16.8057 25.5518 16.7433 25.6737C16.3369 26.4661 15.9982 27.2913 15.7306 28.1406C15.6275 28.4684 15.8799 28.8125 16.2237 28.8125ZM18.5666 24.2374C18.7242 24.2374 18.88 24.1658 18.9812 24.0294C19.4793 23.3621 20.032 22.7374 20.6336 22.1616C20.7281 22.0659 20.7816 21.9371 20.7827 21.8025C20.7838 21.668 20.7324 21.5383 20.6394 21.4411C20.5464 21.3438 20.4191 21.2867 20.2847 21.2818C20.1502 21.2769 20.0191 21.3246 19.9193 21.4148C19.2764 22.0305 18.6856 22.6985 18.153 23.4117C17.9042 23.745 18.1484 24.2374 18.5666 24.2374ZM22.282 20.6814C22.3823 20.6814 22.4833 20.6524 22.5721 20.5917C23.2608 20.1232 23.9872 19.7127 24.744 19.3646C24.8068 19.3371 24.8636 19.2973 24.9109 19.2476C24.9582 19.1979 24.9952 19.1392 25.0196 19.0751C25.044 19.011 25.0554 18.9426 25.0531 18.874C25.0508 18.8054 25.0348 18.738 25.0062 18.6756C24.9775 18.6132 24.9367 18.5572 24.8862 18.5108C24.8356 18.4644 24.7763 18.4285 24.7117 18.4052C24.6472 18.382 24.5786 18.3718 24.5101 18.3754C24.4415 18.3789 24.3744 18.396 24.3125 18.4258C23.5037 18.798 22.7271 19.2368 21.9909 19.7377C21.5806 20.0169 21.7855 20.6814 22.282 20.6814Z" fill="white"/>
<path d="M37.3893 26.6842C36.3285 26.6842 35.4654 25.7976 35.4654 24.7076V22.6484H27.2668C27.0292 22.6484 26.8359 22.8592 26.8359 23.1184L26.8362 39.7292C26.8362 39.9883 27.0294 40.1991 27.2668 40.1991H38.9039C39.1416 40.1991 39.3348 39.9883 39.3348 39.7292V26.6842H37.3893ZM37.7272 38.4646H28.4433C28.2911 38.4646 28.1451 38.4042 28.0374 38.2965C27.9298 38.1889 27.8693 38.0428 27.8693 37.8906C27.8693 37.7384 27.9298 37.5924 28.0374 37.4847C28.1451 37.3771 28.2911 37.3166 28.4433 37.3166H37.7272C37.8794 37.3166 38.0254 37.3771 38.1331 37.4847C38.2407 37.5924 38.3012 37.7384 38.3012 37.8906C38.3012 38.0428 38.2407 38.1889 38.1331 38.2965C38.0254 38.4042 37.8794 38.4646 37.7272 38.4646ZM37.7272 35.348H28.4433C28.2911 35.348 28.1451 35.2876 28.0374 35.1799C27.9298 35.0723 27.8693 34.9263 27.8693 34.774C27.8693 34.6218 27.9298 34.4758 28.0374 34.3681C28.1451 34.2605 28.2911 34.2 28.4433 34.2H37.7272C37.8794 34.2 38.0254 34.2605 38.1331 34.3681C38.2407 34.4758 38.3012 34.6218 38.3012 34.774C38.3012 34.9263 38.2407 35.0723 38.1331 35.1799C38.0254 35.2876 37.8794 35.348 37.7272 35.348ZM37.7272 32.2315H28.4433C28.2911 32.2315 28.1451 32.171 28.0374 32.0633C27.9298 31.9557 27.8693 31.8097 27.8693 31.6574C27.8693 31.5052 27.9298 31.3592 28.0374 31.2515C28.1451 31.1439 28.2911 31.0834 28.4433 31.0834H37.7272C37.8794 31.0834 38.0254 31.1439 38.1331 31.2515C38.2407 31.3592 38.3012 31.5052 38.3012 31.6574C38.3012 31.8097 38.2407 31.9557 38.1331 32.0633C38.0254 32.171 37.8794 32.2315 37.7272 32.2315ZM37.7272 29.1149H28.4433C28.2911 29.1149 28.1451 29.0544 28.0374 28.9468C27.9298 28.8391 27.8693 28.6931 27.8693 28.5409C27.8693 28.3886 27.9298 28.2426 28.0374 28.135C28.1451 28.0273 28.2911 27.9668 28.4433 27.9668H37.7272C37.8794 27.9668 38.0254 28.0273 38.1331 28.135C38.2407 28.2426 38.3012 28.3886 38.3012 28.5409C38.3012 28.6931 38.2407 28.8391 38.1331 28.9468C38.0254 29.0544 37.8794 29.1149 37.7272 29.1149Z" fill="white"/>
<path d="M36.2051 24.7683C36.2051 25.4177 36.6998 25.9466 37.3085 25.9466H38.9569L36.2051 23.0762V24.7683ZM27.1057 41.3386C26.3105 41.2556 25.6879 40.5654 25.6879 39.7289V25.7649H24.165C23.9276 25.7649 23.7344 25.9758 23.7344 26.2349V42.8457C23.7344 43.1048 23.9276 43.3156 24.165 43.3156H35.8023C36.0398 43.3156 36.233 43.1048 36.233 42.8457V41.3471C36.233 41.3468 27.1586 41.344 27.1057 41.3386Z" fill="white"/>
</g>
<defs>
<clipPath id="clip0_193_859">
<rect width="32" height="32" fill="white" transform="translate(15 17)"/>
</clipPath>
</defs>
</svg>
