<svg width="66" height="66" viewBox="0 0 66 66" fill="none" xmlns="http://www.w3.org/2000/svg">
<rect x="0.709059" y="0.709059" width="64.5819" height="64.5819" rx="19.2909" fill="#9AEEE7"/>
<rect x="0.709059" y="0.709059" width="64.5819" height="64.5819" rx="19.2909" stroke="white" stroke-width="1.41812"/>
<path d="M31.5471 20.0429C31.9484 20.0429 32.2738 19.7017 32.2738 19.2807C32.2738 18.8598 31.9484 18.5186 31.5471 18.5186C31.1457 18.5186 30.8203 18.8598 30.8203 19.2807C30.8203 19.7017 31.1457 20.0429 31.5471 20.0429Z" fill="#21C4B6"/>
<path d="M36.9946 26.5219V21.9487C36.9946 21.5278 36.6696 21.1865 36.2679 21.1865C35.8662 21.1865 35.5412 21.5278 35.5412 21.9487V26.5219C35.5412 26.9428 35.8662 27.2841 36.2679 27.2841C36.6696 27.2841 36.9946 26.9428 36.9946 26.5219ZM28.6754 27.2037C29.0352 27.3916 29.4703 27.2394 29.6505 26.8628L29.8131 26.5219H32.5483L32.7108 26.8628C32.8386 27.13 33.0948 27.2845 33.3616 27.2841C33.4709 27.2841 33.5816 27.2584 33.686 27.2037C34.0451 27.0154 34.1906 26.5576 34.011 26.181L31.8308 21.6078C31.5838 21.0912 30.7776 21.0912 30.5306 21.6078L28.3504 26.181C28.1708 26.5576 28.3163 27.0154 28.6754 27.2037ZM31.1807 23.6529L31.8216 24.9975H30.5397L31.1807 23.6529Z" fill="#21C4B6"/>
<path d="M45.3501 18.5186C44.9504 18.5186 44.6234 18.8616 44.6234 19.2807V23.0917C44.6234 23.5109 44.2963 23.8539 43.8966 23.8539H43.5332C43.5332 22.5963 42.5522 21.5673 41.353 21.5673H40.6263C40.6263 19.8829 39.3254 18.5186 37.7193 18.5186H34.4489C34.0492 18.5186 33.7222 18.8616 33.7222 19.2807C33.7222 19.6999 34.0492 20.0429 34.4489 20.0429H37.7193C38.5187 20.0429 39.1728 20.7289 39.1728 21.5673V26.9027C39.1728 27.7411 38.5187 28.4271 37.7193 28.4271H28.2716C27.4722 28.4271 26.8181 27.7411 26.8181 26.9027V21.5673C26.8181 20.7289 27.4722 20.0429 28.2716 20.0429H28.635C29.0347 20.0429 29.3617 19.6999 29.3617 19.2807C29.3617 18.8616 29.0347 18.5186 28.635 18.5186H28.2716C26.6655 18.5186 25.3646 19.8829 25.3646 21.5673H24.6379C23.4388 21.5673 22.4577 22.5963 22.4577 23.8539H22.0943C21.6946 23.8539 21.3676 23.5109 21.3676 23.0917V19.2807C21.3676 18.8616 21.0405 18.5186 20.6408 18.5186C20.2411 18.5186 19.9141 18.8616 19.9141 19.2807V23.0917C19.9141 24.3493 20.8952 25.3783 22.0943 25.3783H22.4577C22.4577 26.6359 23.4388 27.6649 24.6379 27.6649H25.4664C25.7934 28.9758 26.9199 29.9515 28.2716 29.9515H30.8152V32.2381C26.4039 32.2381 22.821 35.9957 22.821 40.6222V45.1954C22.821 46.453 23.8021 47.482 25.0013 47.482H40.9896C42.1888 47.482 43.1699 46.453 43.1699 45.1954V40.6222C43.1699 35.9957 39.587 32.2381 35.1757 32.2381V29.9515H37.7193C39.071 29.9515 40.1975 28.9758 40.5245 27.6649H41.353C42.5522 27.6649 43.5332 26.6359 43.5332 25.3783H43.8966C45.0958 25.3783 46.0769 24.3493 46.0769 23.0917V19.2807C46.0769 18.8616 45.7498 18.5186 45.3501 18.5186ZM25.3646 26.1405H24.6379C24.2382 26.1405 23.9112 25.7975 23.9112 25.3783V23.8539C23.9112 23.4347 24.2382 23.0917 24.6379 23.0917H25.3646V26.1405ZM32.2687 29.9515H33.7222V32.2381H32.2687V29.9515ZM41.7164 40.6222V45.1954C41.7164 45.6146 41.3893 45.9576 40.9896 45.9576H25.0013C24.6016 45.9576 24.2745 45.6146 24.2745 45.1954V40.6222C24.2745 36.8417 27.2106 33.7625 30.8152 33.7625H35.1757C38.7804 33.7625 41.7164 36.8417 41.7164 40.6222ZM42.0798 25.3783C42.0798 25.7975 41.7527 26.1405 41.353 26.1405H40.6263V23.0917H41.353C41.7527 23.0917 42.0798 23.4347 42.0798 23.8539V25.3783Z" fill="#21C4B6"/>
<path d="M38.8078 39.0976H38.081V37.5732C38.081 37.154 37.754 36.811 37.3543 36.811H36.6275V36.0488C36.6275 35.6296 36.3005 35.2866 35.9008 35.2866C35.5011 35.2866 35.1741 35.6296 35.1741 36.0488V36.811H33.7206V36.0488C33.7206 35.6296 33.3935 35.2866 32.9938 35.2866C32.5941 35.2866 32.2671 35.6296 32.2671 36.0488V36.811H30.8136V36.0488C30.8136 35.6296 30.4865 35.2866 30.0868 35.2866C29.6871 35.2866 29.3601 35.6296 29.3601 36.0488V36.811H28.6334C28.2337 36.811 27.9066 37.154 27.9066 37.5732V39.0976H27.1799C26.7802 39.0976 26.4531 39.4406 26.4531 39.8598C26.4531 40.279 26.7802 40.622 27.1799 40.622H27.9066V42.1464C27.9066 42.5656 28.2337 42.9086 28.6334 42.9086H29.3601V43.6708C29.3601 44.09 29.6871 44.433 30.0868 44.433C30.4865 44.433 30.8136 44.09 30.8136 43.6708V42.9086H32.2671V43.6708C32.2671 44.09 32.5941 44.433 32.9938 44.433C33.3935 44.433 33.7206 44.09 33.7206 43.6708V42.9086H35.1741V43.6708C35.1741 44.09 35.5011 44.433 35.9008 44.433C36.3005 44.433 36.6275 44.09 36.6275 43.6708V42.9086H37.3543C37.754 42.9086 38.081 42.5656 38.081 42.1464V40.622H38.8078C39.2075 40.622 39.5345 40.279 39.5345 39.8598C39.5345 39.4406 39.2075 39.0976 38.8078 39.0976ZM36.6275 41.3842H29.3601V38.3354H36.6275V41.3842Z" fill="#21C4B6"/>
</svg>
