<svg width="66" height="66" viewBox="0 0 66 66" fill="none" xmlns="http://www.w3.org/2000/svg">
<rect x="0.709059" y="0.709059" width="64.5819" height="64.5819" rx="19.2909" fill="#9AEEE7"/>
<rect x="0.709059" y="0.709059" width="64.5819" height="64.5819" rx="19.2909" stroke="white" stroke-width="1.41812"/>
<path fill-rule="evenodd" clip-rule="evenodd" d="M33 17.5625C31.6883 17.5625 30.625 18.6258 30.625 19.9375C30.625 20.8166 31.1026 21.5841 31.8125 21.9948V22.3125H24.6875C22.0641 22.3125 19.9375 24.4391 19.9375 27.0625V38.9375C19.9375 41.5608 22.0641 43.6875 24.6875 43.6875V47.25C24.6875 47.9059 25.2192 48.4375 25.875 48.4375C26.5309 48.4375 27.0625 47.9059 27.0625 47.25V43.6875H38.9375V47.25C38.9375 47.9059 39.4691 48.4375 40.125 48.4375C40.7809 48.4375 41.3125 47.9059 41.3125 47.25V43.6875C43.9358 43.6875 46.0625 41.5608 46.0625 38.9375V27.0625C46.0625 24.4391 43.9358 22.3125 41.3125 22.3125H34.1875V21.9948C34.8974 21.5841 35.375 20.8166 35.375 19.9375C35.375 18.6258 34.3117 17.5625 33 17.5625ZM41.3125 41.7083H40.125H25.875H24.6875C23.3758 41.7083 21.5519 40.2492 21.5519 38.9375V27.0625C21.5519 25.7508 23.3758 23.946 24.6875 23.946H41.3125C42.6242 23.946 44.4998 25.7508 44.4998 27.0625V38.9375C44.4998 40.2492 42.6242 41.7083 41.3125 41.7083ZM37.75 27.0625C38.4059 27.0625 38.9375 27.5941 38.9375 28.25V30.625C38.9375 31.2809 38.4059 31.8125 37.75 31.8125C37.0941 31.8125 36.5625 31.2809 36.5625 30.625V28.25C36.5625 27.5941 37.0941 27.0625 37.75 27.0625ZM29.4375 28.25C29.4375 27.5941 28.9059 27.0625 28.25 27.0625C27.5941 27.0625 27.0625 27.5941 27.0625 28.25V30.625C27.0625 31.2809 27.5941 31.8125 28.25 31.8125C28.9059 31.8125 29.4375 31.2809 29.4375 30.625V28.25ZM29.4375 35.375C29.4375 34.7191 28.9059 34.1875 28.25 34.1875C27.5941 34.1875 27.0625 34.7191 27.0625 35.375V36.5625C27.0625 37.8742 28.1258 38.9375 29.4375 38.9375H36.5625C37.8742 38.9375 38.9375 37.8742 38.9375 36.5625V35.375C38.9375 34.7191 38.4059 34.1875 37.75 34.1875C37.0941 34.1875 36.5625 34.7191 36.5625 35.375V36.5625H29.4375V35.375Z" fill="#21C4B6"/>
</svg>
