<svg width="66" height="66" viewBox="0 0 66 66" fill="none" xmlns="http://www.w3.org/2000/svg">
<rect x="0.709059" y="0.709059" width="64.5819" height="64.5819" rx="19.2909" fill="#F0FFC4"/>
<rect x="0.709059" y="0.709059" width="64.5819" height="64.5819" rx="19.2909" stroke="white" stroke-width="1.41812"/>
<circle cx="22.5" cy="22.5" r="3" stroke="#A7BB6A" stroke-width="1.95" stroke-linecap="round" stroke-linejoin="round"/>
<circle cx="43.5" cy="43.5" r="3" stroke="#A7BB6A" stroke-width="1.95" stroke-linecap="round" stroke-linejoin="round"/>
<circle cx="43.5" cy="22.5" r="3" stroke="#A7BB6A" stroke-width="1.95" stroke-linecap="round" stroke-linejoin="round"/>
<circle cx="22.5" cy="43.5" r="3" stroke="#A7BB6A" stroke-width="1.95" stroke-linecap="round" stroke-linejoin="round"/>
<path d="M24.0606 40.5606C23.6798 40.9413 23.6798 41.5587 24.0606 41.9394C24.4413 42.3202 25.0587 42.3202 25.4394 41.9394L24.0606 40.5606ZM41.9394 25.4394C42.3202 25.0587 42.3202 24.4413 41.9394 24.0606C41.5587 23.6798 40.9413 23.6798 40.5606 24.0606L41.9394 25.4394ZM23.475 25.5C23.475 24.9615 23.0385 24.525 22.5 24.525C21.9615 24.525 21.525 24.9615 21.525 25.5H23.475ZM21.525 40.5C21.525 41.0385 21.9615 41.475 22.5 41.475C23.0385 41.475 23.475 41.0385 23.475 40.5H21.525ZM44.475 25.5C44.475 24.9615 44.0385 24.525 43.5 24.525C42.9615 24.525 42.525 24.9615 42.525 25.5H44.475ZM42.525 40.5C42.525 41.0385 42.9615 41.475 43.5 41.475C44.0385 41.475 44.475 41.0385 44.475 40.5H42.525ZM25.4394 41.9394L41.9394 25.4394L40.5606 24.0606L24.0606 40.5606L25.4394 41.9394ZM21.525 25.5V40.5H23.475V25.5H21.525ZM42.525 25.5V40.5H44.475V25.5H42.525Z" fill="#A7BB6A"/>
</svg>
