<svg width="16" height="14" viewBox="0 0 16 14" fill="none" xmlns="http://www.w3.org/2000/svg">
<path fill-rule="evenodd" clip-rule="evenodd" d="M11.3501 0.333496C13.6217 0.333496 15.3346 2.19127 15.3346 4.65486V9.35093C15.3346 10.6118 14.8899 11.7509 14.0815 12.5591C13.3563 13.2832 12.4156 13.6668 11.361 13.6668H4.63957C3.58698 13.6668 2.64695 13.2839 1.92112 12.5591C1.11274 11.7509 0.667969 10.6118 0.667969 9.35093V4.65486C0.667969 2.19127 2.3809 0.333496 4.65253 0.333496H11.3501ZM11.3501 1.35914H4.65253C2.93687 1.35914 1.69122 2.74512 1.69122 4.65486V9.35093C1.69122 10.3376 2.02958 11.219 2.64353 11.8323C3.1729 12.3622 3.86394 12.6412 4.64161 12.6412H11.3501C11.3514 12.6398 11.3569 12.6412 11.361 12.6412C12.1393 12.6412 12.8297 12.3622 13.3591 11.8323C13.9737 11.219 14.3114 10.3376 14.3114 9.35093V4.65486C14.3114 2.74512 13.0657 1.35914 11.3501 1.35914ZM12.4252 4.52413C12.6032 4.74362 12.5698 5.06635 12.3508 5.2455L9.31925 7.71524C8.93588 8.0202 8.47746 8.17268 8.01972 8.17268C7.56335 8.17268 7.10834 8.02156 6.72769 7.71934L3.66815 5.24686C3.44781 5.06909 3.41371 4.74567 3.59039 4.5255C3.76843 4.30601 4.09042 4.27114 4.31008 4.44823L7.36688 6.91798C7.75095 7.22293 8.29191 7.22293 8.6787 6.91524L11.7048 4.4496C11.9245 4.26977 12.2464 4.30396 12.4252 4.52413Z" fill="#667085"/>
</svg>
