<svg width="16" height="16" viewBox="0 0 16 16" fill="none" xmlns="http://www.w3.org/2000/svg">
<path d="M3.33333 2.6665H6L7.33333 5.99984L5.66667 6.99984C6.38064 8.44752 7.55231 9.6192 9 10.3332L10 8.6665L13.3333 9.99984V12.6665C13.3333 13.4029 12.7364 13.9998 12 13.9998C6.61843 13.6728 2.32704 9.3814 2 3.99984C2 3.26346 2.59695 2.6665 3.33333 2.6665" stroke="#667085" stroke-linecap="round" stroke-linejoin="round"/>
<path d="M3.33333 2.6665H6L7.33333 5.99984L5.66667 6.99984C6.38064 8.44752 7.55231 9.6192 9 10.3332L10 8.6665L13.3333 9.99984V12.6665C13.3333 13.4029 12.7364 13.9998 12 13.9998C6.61843 13.6728 2.32704 9.3814 2 3.99984C2 3.26346 2.59695 2.6665 3.33333 2.6665" stroke="#667085" stroke-opacity="0.2" stroke-linecap="round" stroke-linejoin="round"/>
</svg>
