<svg width="16" height="16" viewBox="0 0 16 16" fill="none" xmlns="http://www.w3.org/2000/svg">
<path d="M7.86333 14.0002H3.33333C2.59695 14.0002 2 13.4032 2 12.6668V4.66683C2 3.93045 2.59695 3.3335 3.33333 3.3335H11.3333C12.0697 3.3335 12.6667 3.93045 12.6667 4.66683V7.3335" stroke="#667085" stroke-linecap="round" stroke-linejoin="round"/>
<path d="M7.86333 14.0002H3.33333C2.59695 14.0002 2 13.4032 2 12.6668V4.66683C2 3.93045 2.59695 3.3335 3.33333 3.3335H11.3333C12.0697 3.3335 12.6667 3.93045 12.6667 4.66683V7.3335" stroke="#667085" stroke-opacity="0.2" stroke-linecap="round" stroke-linejoin="round"/>
<circle cx="11.9987" cy="12.0002" r="2.66667" stroke="#667085" stroke-linecap="round" stroke-linejoin="round"/>
<circle cx="11.9987" cy="12.0002" r="2.66667" stroke="#667085" stroke-opacity="0.2" stroke-linecap="round" stroke-linejoin="round"/>
<path d="M9.9974 2V4.66667" stroke="#667085" stroke-linecap="round" stroke-linejoin="round"/>
<path d="M9.9974 2V4.66667" stroke="#667085" stroke-opacity="0.2" stroke-linecap="round" stroke-linejoin="round"/>
<path d="M4.66536 2V4.66667" stroke="#667085" stroke-linecap="round" stroke-linejoin="round"/>
<path d="M4.66536 2V4.66667" stroke="#667085" stroke-opacity="0.2" stroke-linecap="round" stroke-linejoin="round"/>
<path d="M2 7.33333H12.6667" stroke="#667085" stroke-linecap="round" stroke-linejoin="round"/>
<path d="M2 7.33333H12.6667" stroke="#667085" stroke-opacity="0.2" stroke-linecap="round" stroke-linejoin="round"/>
<path d="M12 10.9976V12.0002L12.6667 12.6669" stroke="#667085" stroke-linecap="round" stroke-linejoin="round"/>
<path d="M12 10.9976V12.0002L12.6667 12.6669" stroke="#667085" stroke-opacity="0.2" stroke-linecap="round" stroke-linejoin="round"/>
</svg>
