<svg width="89" height="17" viewBox="0 0 89 17" fill="none" xmlns="http://www.w3.org/2000/svg">
<path fill-rule="evenodd" clip-rule="evenodd" d="M62.0215 3.39681C60.6959 3.39681 59.7017 3.8939 59.2047 4.72239L58.9561 5.21949V3.64536H56.802V13.2558H59.1218V7.53926C59.1218 6.21367 59.8674 5.38519 61.193 5.38519C62.4358 5.38519 63.0985 6.13083 63.0985 7.45641V13.2558H65.4183V7.04217C65.3355 4.80524 64.0927 3.39681 62.0215 3.39681ZM50.8369 3.39681C48.1029 3.39681 46.4459 5.13664 46.4459 7.87066V9.19624C46.4459 11.8474 48.1857 13.4215 50.9198 13.4215C52.7424 13.4215 54.068 12.7587 54.8136 11.3503L53.4052 10.5218C52.8253 11.3503 51.8311 11.8474 50.9198 11.8474C49.5113 11.8474 48.6828 11.0189 48.6828 9.52764V9.11339H55.145V7.53926C55.0622 5.05379 53.4052 3.39681 50.8369 3.39681ZM52.991 7.70496H48.6828V7.45641C48.6828 5.88228 49.4285 4.97094 50.8369 4.97094C52.1625 4.97094 52.991 5.79943 52.991 7.29071V7.70496ZM88.2847 2.07123V0.248546H80.3311V2.07123H83.148V11.4332H80.3311V13.2558H88.2847V11.4332H85.4678V2.07123H88.2847ZM27.722 0C24.1595 0 21.9226 2.23692 21.9226 5.79943V7.70496C21.9226 11.2675 24.1595 13.5044 27.722 13.5044C31.2845 13.5044 33.5215 11.2675 33.5215 7.70496V5.79943C33.5215 2.23692 31.2845 0 27.722 0ZM31.1188 7.87066C31.1188 10.2733 29.8761 11.5989 27.722 11.5989C25.568 11.5989 24.3252 10.2733 24.3252 7.87066V5.63373C24.3252 3.23111 25.568 1.90553 27.722 1.90553C29.8761 1.90553 31.1188 3.23111 31.1188 5.63373V7.87066ZM40.8122 3.47966C39.5694 3.47966 38.5752 3.97675 37.9953 4.80524L37.7468 5.13664V3.64536H35.5927V16.5698H37.9125V11.9303L38.161 12.2617C38.6581 13.0073 39.7351 13.5044 40.895 13.5044C42.8834 13.5044 44.8718 12.1788 44.8718 9.27909V7.62211C44.7889 5.55088 43.5462 3.39681 40.8122 3.47966ZM42.4692 9.19624C42.4692 10.7704 41.5578 11.6817 40.1494 11.6817C38.8238 11.6817 37.8296 10.6875 37.8296 9.19624V7.78781C37.8296 6.29653 38.7409 5.30234 40.1494 5.30234C41.5578 5.30234 42.4692 6.29653 42.4692 7.78781V9.19624ZM71.7149 0.248546L67.0753 13.2558H69.3951L70.3064 10.439H75.6916L76.6029 13.173H78.9227L74.2832 0.165699L71.7149 0.248546ZM70.8864 8.6163L72.9576 2.07123L75.0288 8.6163H70.8864ZM15.9575 6.79362C16.3717 5.63373 16.206 4.391 15.6261 3.39681C14.7147 1.82268 12.8921 0.994189 11.1522 1.40843C10.158 0.331397 8.66675 -0.165699 7.17547 0.0828477C5.68419 0.414244 4.5243 1.49128 4.02721 2.89972C2.86732 3.14826 1.87314 3.8939 1.29319 4.88809C0.381854 6.46222 0.547553 8.4506 1.79029 9.77618C1.37604 10.9361 1.54174 12.1788 2.12168 13.173C3.03302 14.7471 4.8557 15.5756 6.59553 15.1614C7.42402 16.0727 8.50106 16.5698 9.74379 16.5698C11.5665 16.5698 13.1406 15.4099 13.7205 13.6701C14.8804 13.4215 15.8746 12.6759 16.4546 11.6817C17.3659 10.1076 17.2002 8.1192 15.9575 6.79362ZM9.74379 15.4928C8.99815 15.4928 8.33536 15.2442 7.75542 14.7471L7.83827 14.6643L11.1522 12.7587C11.3179 12.6759 11.4008 12.5102 11.4008 12.2617V7.62211L12.8092 8.4506V12.3445C12.8092 14.0843 11.4836 15.4928 9.74379 15.4928ZM3.03302 12.5931C2.70163 11.9303 2.53593 11.2675 2.70163 10.5218L2.78447 10.6047L6.09844 12.5102C6.26413 12.593 6.42983 12.593 6.67838 12.5102L10.738 10.1904V11.7646C10.738 11.7646 10.738 11.7646 10.738 11.8474L7.42402 13.7529C5.84989 14.5814 3.94436 14.0843 3.03302 12.5931ZM2.20453 5.46803C2.53593 4.80524 3.11587 4.391 3.86151 4.14245V8.03635C3.86151 8.20205 3.94436 8.36775 4.11006 8.53345L8.08681 10.8532L6.67838 11.6817C6.67838 11.6817 6.67838 11.6817 6.59553 11.6817L3.28157 9.77618C1.87314 8.78199 1.37604 6.87647 2.20453 5.46803ZM13.6377 8.1192L9.66094 5.79943L11.0694 4.97094C11.0694 4.97094 11.0694 4.97094 11.1522 4.97094L14.4662 6.87647C15.5432 7.45641 16.1232 8.6163 16.0403 9.85903C15.9575 11.0189 15.129 12.096 14.0519 12.5102V8.6163C13.9691 8.36775 13.8034 8.20205 13.6377 8.1192ZM15.0461 6.04798L14.9633 5.96513L11.6493 4.0596C11.4836 3.97675 11.2351 3.97675 11.0694 4.0596L7.09262 6.37937V4.80524C7.09262 4.80524 7.09262 4.80524 7.09262 4.72239L10.4066 2.81687C11.4836 2.23692 12.7264 2.23692 13.7205 2.98256C14.7147 3.64535 15.2118 4.80524 15.0461 6.04798ZM6.34698 8.86484L4.93855 8.03635V4.14245C4.93855 2.89972 5.60134 1.82268 6.76123 1.32558C7.83827 0.828489 9.16385 0.994187 10.0752 1.73983L9.99234 1.82268L6.67838 3.72821C6.51268 3.81105 6.42983 3.97675 6.42983 4.2253L6.34698 8.86484ZM7.09262 7.20786L8.9153 6.21368L10.738 7.20786V9.27909L8.9153 10.2733L7.09262 9.27909V7.20786Z" fill="#034737"/>
</svg>
