<svg width="66" height="66" viewBox="0 0 66 66" fill="none" xmlns="http://www.w3.org/2000/svg">
<rect x="0.709059" y="0.709059" width="64.5819" height="64.5819" rx="19.2909" fill="#D9CFEE"/>
<rect x="0.709059" y="0.709059" width="64.5819" height="64.5819" rx="19.2909" stroke="white" stroke-width="1.41812"/>
<path d="M45 40.9998L42.3333 43.6665L42.3333 39.6665C42.3333 34.5118 38.1547 30.3332 33 30.3332C27.8453 30.3332 23.6667 34.5118 23.6667 39.6665L23.6667 43.6665L21 40.9998" stroke="#9B78E9" stroke-width="1.73333" stroke-linecap="round" stroke-linejoin="round"/>
<path d="M33.8641 21C33.8641 20.5214 33.476 20.1333 32.9974 20.1333C32.5188 20.1333 32.1307 20.5214 32.1307 21L33.8641 21ZM32.9974 45L32.1307 45C32.1307 45.3505 32.3419 45.6666 32.6657 45.8007C32.9896 45.9348 33.3624 45.8607 33.6102 45.6128L32.9974 45ZM36.2769 42.9462C36.6153 42.6077 36.6153 42.059 36.2769 41.7205C35.9384 41.3821 35.3897 41.3821 35.0512 41.7205L36.2769 42.9462ZM30.9436 41.7205C30.6051 41.3821 30.0564 41.3821 29.7179 41.7205C29.3794 42.059 29.3794 42.6077 29.7179 42.9462L30.9436 41.7205ZM32.3846 45.6128C32.723 45.9513 33.2718 45.9513 33.6102 45.6128C33.9487 45.2744 33.9487 44.7256 33.6102 44.3872L32.3846 45.6128ZM32.1307 21L32.1307 45L33.8641 45L33.8641 21L32.1307 21ZM33.6102 45.6128L36.2769 42.9462L35.0512 41.7205L32.3846 44.3872L33.6102 45.6128ZM29.7179 42.9462L32.3846 45.6128L33.6102 44.3872L30.9436 41.7205L29.7179 42.9462Z" fill="#9B78E9"/>
</svg>
