<svg width="66" height="66" viewBox="0 0 66 66" fill="none" xmlns="http://www.w3.org/2000/svg">
<rect x="0.709059" y="0.709059" width="64.5819" height="64.5819" rx="19.2909" fill="#D9CFEE"/>
<rect x="0.709059" y="0.709059" width="64.5819" height="64.5819" rx="19.2909" stroke="white" stroke-width="1.41812"/>
<path d="M43.685 33.2169C43.4323 32.5544 42.9504 31.9963 42.3024 31.6666C41.0195 30.9968 39.4126 31.3773 38.5671 32.5557L36.3912 35.5935C36.0031 35.1589 35.4896 34.8291 34.8854 34.6785L30.0636 33.4773C28.1447 32.9984 26.1208 33.3857 24.5135 34.5397L19.4061 38.2034C19.188 38.3601 19.0586 38.612 19.0586 38.8805V47.1667C19.0586 47.6269 19.4317 48 19.8919 48H23.4967C23.6484 48 23.7974 47.9585 23.9276 47.88L27.8082 45.5366L37.5539 45.1851C37.7406 45.1781 37.9197 45.109 38.0621 44.9881L45.9088 38.3463C47.1038 37.3351 47.2902 35.5728 46.3332 34.3342C45.6948 33.5078 44.6773 33.1139 43.685 33.2169ZM39.9216 33.5265C40.2862 33.0199 40.9771 32.8552 41.5382 33.1477C41.8151 33.2886 42.0138 33.5289 42.1228 33.8107L38.0845 36.0919L39.9216 33.5265ZM44.8321 37.0743L37.2056 43.5298L27.5323 43.8785C27.3907 43.8838 27.2528 43.9249 27.1315 43.9981L23.2647 46.3333H20.7253V39.3082L25.4852 35.8939C26.6949 35.0264 28.2171 34.735 29.6608 35.0943L34.4822 36.2955C35.1621 36.4652 35.5963 37.1329 35.4709 37.8161C35.3432 38.5107 34.6889 38.9819 33.9792 38.8936L31.6562 38.5945C31.2013 38.5335 30.7818 38.8573 30.7232 39.3143C30.6642 39.7708 30.9869 40.1887 31.443 40.2473L33.7664 40.5464C35.1706 40.7279 36.4817 39.9124 36.9651 38.6384L43.3697 35.0203C43.9206 34.7106 44.6278 34.8518 45.014 35.3531C45.4246 35.8845 45.3448 36.6405 44.8321 37.0743ZM25.8058 23.1823C25.6638 22.7453 25.1938 22.5052 24.7556 22.6472L24.0932 22.8625V22.1659C24.0932 21.7056 23.7201 21.3325 23.2599 21.3325C22.7996 21.3325 22.4265 21.7056 22.4265 22.1659V22.8624L21.7645 22.6472C21.3271 22.5052 20.8563 22.7453 20.7143 23.1823C20.5723 23.6201 20.8115 24.0901 21.2494 24.2325L21.9113 24.4476L21.502 25.0109C21.2315 25.3832 21.3141 25.9045 21.6864 26.1751C22.0542 26.4418 22.5825 26.3589 22.8505 25.9907L23.2599 25.4274L23.6692 25.9907C23.9257 26.3437 24.4659 26.4416 24.8333 26.175C25.2057 25.9044 25.2883 25.3832 25.0177 25.0109L24.6084 24.4477L25.2708 24.2325C25.7086 24.0901 25.9478 23.6201 25.8058 23.1823ZM34.236 24.2325L34.8983 24.4477L34.4891 25.0109C34.2185 25.3832 34.3011 25.9045 34.6735 26.1751C35.0429 26.443 35.5696 26.3596 35.8376 25.9907L36.2469 25.4274C36.2469 25.4274 36.6545 25.9884 36.6562 25.9907C36.9202 26.354 37.4589 26.4372 37.8204 26.175C38.1927 25.9045 38.2753 25.3832 38.0047 25.0109L37.5955 24.4477L38.2578 24.2325C38.6956 24.0901 38.9349 23.6201 38.7929 23.1823C38.6509 22.7453 38.1813 22.5052 37.7427 22.6472L37.0802 22.8625V22.1659C37.0802 21.7056 36.7071 21.3325 36.2469 21.3325C35.7867 21.3325 35.4136 21.7056 35.4136 22.1659V22.8625L34.7511 22.6472C34.3125 22.5052 33.8433 22.7453 33.7009 23.1823C33.5589 23.6201 33.7982 24.0901 34.236 24.2325ZM29.7536 21.3325C29.2934 21.3325 28.9202 21.7056 28.9202 22.1659V22.8625L28.2578 22.6472C27.8196 22.5052 27.3496 22.7453 27.2076 23.1823C27.0656 23.6201 27.3049 24.0901 27.7427 24.2325L28.405 24.4477L27.9958 25.0109C27.7252 25.3832 27.8078 25.9044 28.18 26.175C28.534 26.4323 29.0759 26.3594 29.3442 25.9907L29.7536 25.4274L30.1629 25.9907C30.4199 26.3443 30.9511 26.4483 31.3271 26.175C31.6994 25.9044 31.782 25.3832 31.5114 25.0109L31.1022 24.4477L31.7645 24.2325C32.2023 24.0901 32.4416 23.6201 32.2996 23.1823C32.1576 22.7453 31.6884 22.5052 31.2494 22.6472L30.5869 22.8625V22.1658C30.5869 21.7057 30.2138 21.3325 29.7536 21.3325ZM42.7406 21.3325C42.2804 21.3325 41.9073 21.7056 41.9073 22.1659V22.8625L41.2449 22.6472C40.8071 22.5052 40.3367 22.7453 40.1947 23.1823C40.0527 23.6201 40.2919 24.0901 40.7297 24.2325L41.3921 24.4477L40.9828 25.0109C40.7123 25.3832 40.7948 25.9044 41.1671 26.175C41.5202 26.4317 42.0591 26.3648 42.3313 25.9907L42.7407 25.4274L43.15 25.9907C43.407 26.3444 43.9396 26.4467 44.3141 26.175C44.6865 25.9045 44.7691 25.3832 44.4985 25.0109L44.0892 24.4476L44.7511 24.2325C45.189 24.0901 45.4282 23.6201 45.2862 23.1823C45.1438 22.7453 44.6759 22.5052 44.236 22.6472L43.574 22.8624V22.1659C43.574 21.7057 43.2008 21.3325 42.7406 21.3325Z" fill="#9B78E9"/>
<path d="M46.3346 18H36.3346C35.8744 18 35.5013 18.3731 35.5013 18.8333C35.5013 19.2935 35.8744 19.6667 36.3346 19.6667H46.3346C46.794 19.6667 47.168 20.0406 47.168 20.5V27.1667C47.168 27.6261 46.794 28 46.3346 28H34.7347C34.4873 28 34.2525 28.1099 34.0942 28.3003L33.0013 29.6138L31.9084 28.3003C31.7501 28.1099 31.5153 28 31.2679 28H19.668C19.2086 28 18.8346 27.6261 18.8346 27.1667V20.5C18.8346 20.0406 19.2086 19.6667 19.668 19.6667H29.668C30.1282 19.6667 30.5013 19.2935 30.5013 18.8333C30.5013 18.3731 30.1282 18 29.668 18H19.668C18.2894 18 17.168 19.1214 17.168 20.5V27.1667C17.168 28.5452 18.2894 29.6667 19.668 29.6667H30.8773C30.8773 29.6667 32.359 31.4475 32.3608 31.4497C32.6901 31.8454 33.3129 31.8454 33.6418 31.4497L35.1253 29.6667H46.3346C47.7132 29.6667 48.8346 28.5452 48.8346 27.1667V20.5C48.8346 19.1214 47.7132 18 46.3346 18Z" fill="#9B78E9"/>
<path d="M33.0013 19.6667C33.4615 19.6667 33.8346 19.2936 33.8346 18.8333C33.8346 18.3731 33.4615 18 33.0013 18C32.5411 18 32.168 18.3731 32.168 18.8333C32.168 19.2936 32.5411 19.6667 33.0013 19.6667Z" fill="#9B78E9"/>
</svg>
