<svg width="66" height="66" viewBox="0 0 66 66" fill="none" xmlns="http://www.w3.org/2000/svg">
<rect x="0.709059" y="0.709059" width="64.5819" height="64.5819" rx="19.2909" fill="#F0FFC4"/>
<rect x="0.709059" y="0.709059" width="64.5819" height="64.5819" rx="19.2909" stroke="white" stroke-width="1.41812"/>
<path fill-rule="evenodd" clip-rule="evenodd" d="M33 16.75C31.6192 16.75 30.5 17.8693 30.5 19.25C30.5 20.1753 31.0027 20.9833 31.75 21.4155V21.75H24.25C21.4886 21.75 19.25 23.9886 19.25 26.75V39.25C19.25 42.0114 21.4886 44.25 24.25 44.25V48C24.25 48.6904 24.8096 49.25 25.5 49.25C26.1904 49.25 26.75 48.6904 26.75 48V44.25H39.25V48C39.25 48.6904 39.8096 49.25 40.5 49.25C41.1904 49.25 41.75 48.6904 41.75 48V44.25C44.5114 44.25 46.75 42.0114 46.75 39.25V26.75C46.75 23.9886 44.5114 21.75 41.75 21.75H34.25V21.4155C34.9972 20.9833 35.5 20.1753 35.5 19.25C35.5 17.8693 34.3807 16.75 33 16.75ZM41.75 42.1667H40.5H25.5H24.25C22.8693 42.1667 20.9494 40.6307 20.9494 39.25V26.75C20.9494 25.3693 22.8693 23.4695 24.25 23.4695H41.75C43.1307 23.4695 45.105 25.3693 45.105 26.75V39.25C45.105 40.6307 43.1307 42.1667 41.75 42.1667ZM38 26.75C38.6904 26.75 39.25 27.3096 39.25 28V30.5C39.25 31.1904 38.6904 31.75 38 31.75C37.3096 31.75 36.75 31.1904 36.75 30.5V28C36.75 27.3096 37.3096 26.75 38 26.75ZM29.25 28C29.25 27.3096 28.6904 26.75 28 26.75C27.3096 26.75 26.75 27.3096 26.75 28V30.5C26.75 31.1904 27.3096 31.75 28 31.75C28.6904 31.75 29.25 31.1904 29.25 30.5V28ZM29.25 35.5C29.25 34.8096 28.6904 34.25 28 34.25C27.3096 34.25 26.75 34.8096 26.75 35.5V36.75C26.75 38.1307 27.8693 39.25 29.25 39.25H36.75C38.1307 39.25 39.25 38.1307 39.25 36.75V35.5C39.25 34.8096 38.6904 34.25 38 34.25C37.3096 34.25 36.75 34.8096 36.75 35.5V36.75H29.25V35.5Z" fill="#A7BB6A"/>
</svg>
