<svg width="66" height="66" viewBox="0 0 66 66" fill="none" xmlns="http://www.w3.org/2000/svg">
<rect x="0.709059" y="0.709059" width="64.5819" height="64.5819" rx="19.2909" fill="#FFEDE6"/>
<rect x="0.709059" y="0.709059" width="64.5819" height="64.5819" rx="19.2909" stroke="white" stroke-width="1.41812"/>
<circle cx="23.0833" cy="23.0833" r="2.83333" stroke="#FFA17D" stroke-width="1.84167" stroke-linecap="round" stroke-linejoin="round"/>
<circle cx="42.9154" cy="42.9168" r="2.83333" stroke="#FFA17D" stroke-width="1.84167" stroke-linecap="round" stroke-linejoin="round"/>
<circle cx="42.9154" cy="23.0833" r="2.83333" stroke="#FFA17D" stroke-width="1.84167" stroke-linecap="round" stroke-linejoin="round"/>
<circle cx="23.0833" cy="42.9168" r="2.83333" stroke="#FFA17D" stroke-width="1.84167" stroke-linecap="round" stroke-linejoin="round"/>
<path d="M24.5598 40.1402C24.2002 40.4998 24.2002 41.0829 24.5598 41.4425C24.9194 41.8021 25.5025 41.8021 25.8621 41.4425L24.5598 40.1402ZM41.4454 25.8591C41.805 25.4995 41.805 24.9165 41.4454 24.5569C41.0858 24.1973 40.5028 24.1973 40.1431 24.5569L41.4454 25.8591ZM24.0068 25.9163C24.0068 25.4078 23.5945 24.9955 23.0859 24.9955C22.5774 24.9955 22.1651 25.4078 22.1651 25.9163H24.0068ZM22.1651 40.083C22.1651 40.5916 22.5774 41.0038 23.0859 41.0038C23.5945 41.0038 24.0068 40.5916 24.0068 40.083H22.1651ZM43.8401 25.9163C43.8401 25.4078 43.4278 24.9955 42.9193 24.9955C42.4107 24.9955 41.9984 25.4078 41.9984 25.9163H43.8401ZM41.9984 40.083C41.9984 40.5916 42.4107 41.0038 42.9193 41.0038C43.4278 41.0038 43.8401 40.5916 43.8401 40.083H41.9984ZM25.8621 41.4425L41.4454 25.8591L40.1431 24.5569L24.5598 40.1402L25.8621 41.4425ZM22.1651 25.9163V40.083H24.0068V25.9163H22.1651ZM41.9984 25.9163V40.083H43.8401V25.9163H41.9984Z" fill="#FFA17D"/>
</svg>
