<svg width="66" height="66" viewBox="0 0 66 66" fill="none" xmlns="http://www.w3.org/2000/svg">
<rect x="0.709059" y="0.709059" width="64.5819" height="64.5819" rx="19.2909" fill="#9AEEE7"/>
<rect x="0.709059" y="0.709059" width="64.5819" height="64.5819" rx="19.2909" stroke="white" stroke-width="1.41812"/>
<path d="M31.5833 20.9582C31.9745 20.9582 32.2917 20.641 32.2917 20.2498C32.2917 19.8586 31.9745 19.5415 31.5833 19.5415C31.1921 19.5415 30.875 19.8586 30.875 20.2498C30.875 20.641 31.1921 20.9582 31.5833 20.9582Z" fill="#21C4B6"/>
<path d="M36.8958 26.9793V22.7293C36.8958 22.3382 36.579 22.021 36.1874 22.021C35.7959 22.021 35.4791 22.3382 35.4791 22.7293V26.9793C35.4791 27.3705 35.7959 27.6877 36.1874 27.6877C36.579 27.6877 36.8958 27.3705 36.8958 26.9793ZM28.7873 27.613C29.138 27.7876 29.562 27.6462 29.7377 27.2961L29.8961 26.9793H32.5621L32.7205 27.2961C32.845 27.5445 33.0947 27.688 33.3548 27.6877C33.4613 27.6877 33.5692 27.6638 33.6709 27.613C34.0209 27.4379 34.1627 27.0125 33.9877 26.6625L31.8627 22.4125C31.622 21.9325 30.8362 21.9325 30.5955 22.4125L28.4705 26.6625C28.2955 27.0125 28.4373 27.4379 28.7873 27.613ZM31.2291 24.313L31.8538 25.5627H30.6044L31.2291 24.313Z" fill="#21C4B6"/>
<path d="M45.0417 19.5415C44.6521 19.5415 44.3333 19.8603 44.3333 20.2498V23.7915C44.3333 24.1811 44.0146 24.4998 43.625 24.4998H43.2708C43.2708 23.3311 42.3146 22.3748 41.1458 22.3748H40.4375C40.4375 20.8094 39.1696 19.5415 37.6042 19.5415H34.4167C34.0271 19.5415 33.7083 19.8603 33.7083 20.2498C33.7083 20.6394 34.0271 20.9582 34.4167 20.9582H37.6042C38.3833 20.9582 39.0208 21.5956 39.0208 22.3748V27.3332C39.0208 28.1123 38.3833 28.7498 37.6042 28.7498H28.3958C27.6167 28.7498 26.9792 28.1123 26.9792 27.3332V22.3748C26.9792 21.5956 27.6167 20.9582 28.3958 20.9582H28.75C29.1396 20.9582 29.4583 20.6394 29.4583 20.2498C29.4583 19.8603 29.1396 19.5415 28.75 19.5415H28.3958C26.8304 19.5415 25.5625 20.8094 25.5625 22.3748H24.8542C23.6854 22.3748 22.7292 23.3311 22.7292 24.4998H22.375C21.9854 24.4998 21.6667 24.1811 21.6667 23.7915V20.2498C21.6667 19.8603 21.3479 19.5415 20.9583 19.5415C20.5688 19.5415 20.25 19.8603 20.25 20.2498V23.7915C20.25 24.9602 21.2062 25.9165 22.375 25.9165H22.7292C22.7292 27.0852 23.6854 28.0415 24.8542 28.0415H25.6617C25.9804 29.2598 27.0783 30.1665 28.3958 30.1665H30.875V32.2915C26.5754 32.2915 23.0833 35.7836 23.0833 40.0832V44.3332C23.0833 45.5019 24.0396 46.4582 25.2083 46.4582H40.7917C41.9604 46.4582 42.9167 45.5019 42.9167 44.3332V40.0832C42.9167 35.7836 39.4246 32.2915 35.125 32.2915V30.1665H37.6042C38.9217 30.1665 40.0196 29.2598 40.3383 28.0415H41.1458C42.3146 28.0415 43.2708 27.0852 43.2708 25.9165H43.625C44.7938 25.9165 45.75 24.9602 45.75 23.7915V20.2498C45.75 19.8603 45.4312 19.5415 45.0417 19.5415ZM25.5625 26.6248H24.8542C24.4646 26.6248 24.1458 26.3061 24.1458 25.9165V24.4998C24.1458 24.1103 24.4646 23.7915 24.8542 23.7915H25.5625V26.6248ZM32.2917 30.1665H33.7083V32.2915H32.2917V30.1665ZM41.5 40.0832V44.3332C41.5 44.7227 41.1812 45.0415 40.7917 45.0415H25.2083C24.8188 45.0415 24.5 44.7227 24.5 44.3332V40.0832C24.5 36.5698 27.3617 33.7082 30.875 33.7082H35.125C38.6383 33.7082 41.5 36.5698 41.5 40.0832ZM41.8542 25.9165C41.8542 26.3061 41.5354 26.6248 41.1458 26.6248H40.4375V23.7915H41.1458C41.5354 23.7915 41.8542 24.1103 41.8542 24.4998V25.9165Z" fill="#21C4B6"/>
<path d="M38.6667 38.6667H37.9583V37.25C37.9583 36.8604 37.6396 36.5417 37.25 36.5417H36.5417V35.8333C36.5417 35.4438 36.2229 35.125 35.8333 35.125C35.4438 35.125 35.125 35.4438 35.125 35.8333V36.5417H33.7083V35.8333C33.7083 35.4438 33.3896 35.125 33 35.125C32.6104 35.125 32.2917 35.4438 32.2917 35.8333V36.5417H30.875V35.8333C30.875 35.4438 30.5562 35.125 30.1667 35.125C29.7771 35.125 29.4583 35.4438 29.4583 35.8333V36.5417H28.75C28.3604 36.5417 28.0417 36.8604 28.0417 37.25V38.6667H27.3333C26.9438 38.6667 26.625 38.9854 26.625 39.375C26.625 39.7646 26.9438 40.0833 27.3333 40.0833H28.0417V41.5C28.0417 41.8896 28.3604 42.2083 28.75 42.2083H29.4583V42.9167C29.4583 43.3062 29.7771 43.625 30.1667 43.625C30.5562 43.625 30.875 43.3062 30.875 42.9167V42.2083H32.2917V42.9167C32.2917 43.3062 32.6104 43.625 33 43.625C33.3896 43.625 33.7083 43.3062 33.7083 42.9167V42.2083H35.125V42.9167C35.125 43.3062 35.4438 43.625 35.8333 43.625C36.2229 43.625 36.5417 43.3062 36.5417 42.9167V42.2083H37.25C37.6396 42.2083 37.9583 41.8896 37.9583 41.5V40.0833H38.6667C39.0562 40.0833 39.375 39.7646 39.375 39.375C39.375 38.9854 39.0562 38.6667 38.6667 38.6667ZM36.5417 40.7917H29.4583V37.9583H36.5417V40.7917Z" fill="#21C4B6"/>
</svg>
