<svg width="66" height="66" viewBox="0 0 66 66" fill="none" xmlns="http://www.w3.org/2000/svg">
<rect x="0.709059" y="0.709059" width="64.5819" height="64.5819" rx="19.2909" fill="#C4FFDB"/>
<rect x="0.709059" y="0.709059" width="64.5819" height="64.5819" rx="19.2909" stroke="white" stroke-width="1.41812"/>
<path d="M48 43.0007L44.6667 46.334L44.6667 41.334C44.6667 34.8907 39.4433 29.6673 33 29.6673C26.5567 29.6673 21.3333 34.8907 21.3333 41.334L21.3333 46.334L18 43.0006" stroke="#44DB80" stroke-width="2.16667" stroke-linecap="round" stroke-linejoin="round"/>
<path d="M34.0835 18C34.0835 17.4017 33.5985 16.9167 33.0002 16.9167C32.4019 16.9167 31.9168 17.4017 31.9168 18L34.0835 18ZM33.0002 48L31.9168 48C31.9168 48.4382 32.1808 48.8332 32.5856 49.0009C32.9904 49.1685 33.4564 49.0759 33.7662 48.766L33.0002 48ZM37.0995 45.4327C37.5226 45.0096 37.5226 44.3237 37.0995 43.9006C36.6765 43.4776 35.9905 43.4776 35.5675 43.9006L37.0995 45.4327ZM30.4327 43.9006C30.0096 43.4776 29.3237 43.4776 28.9006 43.9006C28.4776 44.3237 28.4776 45.0096 28.9006 45.4327L30.4327 43.9006ZM32.234 48.766C32.657 49.1891 33.343 49.1891 33.766 48.766C34.1891 48.343 34.1891 47.657 33.766 47.234L32.234 48.766ZM31.9168 18L31.9168 48L34.0835 48L34.0835 18L31.9168 18ZM33.7662 48.766L37.0995 45.4327L35.5675 43.9006L32.2341 47.234L33.7662 48.766ZM28.9006 45.4327L32.234 48.766L33.766 47.234L30.4327 43.9006L28.9006 45.4327Z" fill="#44DB80"/>
</svg>
