<svg width="66" height="66" viewBox="0 0 66 66" fill="none" xmlns="http://www.w3.org/2000/svg">
<rect x="0.709059" y="0.709059" width="64.5819" height="64.5819" rx="19.2909" fill="#F0FFC4"/>
<rect x="0.709059" y="0.709059" width="64.5819" height="64.5819" rx="19.2909" stroke="white" stroke-width="1.41812"/>
<path d="M31.5833 20.9582C31.9745 20.9582 32.2917 20.641 32.2917 20.2498C32.2917 19.8586 31.9745 19.5415 31.5833 19.5415C31.1921 19.5415 30.875 19.8586 30.875 20.2498C30.875 20.641 31.1921 20.9582 31.5833 20.9582Z" fill="#A7BB6B"/>
<path d="M36.8987 26.9788V22.7288C36.8987 22.3377 36.5819 22.0205 36.1904 22.0205C35.7989 22.0205 35.482 22.3377 35.482 22.7288V26.9788C35.482 27.37 35.7989 27.6872 36.1904 27.6872C36.5819 27.6872 36.8987 27.37 36.8987 26.9788ZM28.7902 27.6125C29.1409 27.7871 29.565 27.6457 29.7407 27.2957L29.8991 26.9788H32.565L32.7234 27.2957C32.8479 27.544 33.0976 27.6875 33.3577 27.6872C33.4643 27.6872 33.5722 27.6633 33.6738 27.6125C34.0239 27.4375 34.1657 27.012 33.9907 26.662L31.8657 22.412C31.6249 21.932 30.8391 21.932 30.5984 22.412L28.4734 26.662C28.2984 27.012 28.4402 27.4375 28.7902 27.6125ZM31.232 24.3126L31.8568 25.5622H30.6073L31.232 24.3126Z" fill="#A7BB6B"/>
<path d="M45.0417 19.5415C44.6521 19.5415 44.3333 19.8603 44.3333 20.2498V23.7915C44.3333 24.1811 44.0146 24.4998 43.625 24.4998H43.2708C43.2708 23.3311 42.3146 22.3748 41.1458 22.3748H40.4375C40.4375 20.8094 39.1696 19.5415 37.6042 19.5415H34.4167C34.0271 19.5415 33.7083 19.8603 33.7083 20.2498C33.7083 20.6394 34.0271 20.9582 34.4167 20.9582H37.6042C38.3833 20.9582 39.0208 21.5956 39.0208 22.3748V27.3332C39.0208 28.1123 38.3833 28.7498 37.6042 28.7498H28.3958C27.6167 28.7498 26.9792 28.1123 26.9792 27.3332V22.3748C26.9792 21.5956 27.6167 20.9582 28.3958 20.9582H28.75C29.1396 20.9582 29.4583 20.6394 29.4583 20.2498C29.4583 19.8603 29.1396 19.5415 28.75 19.5415H28.3958C26.8304 19.5415 25.5625 20.8094 25.5625 22.3748H24.8542C23.6854 22.3748 22.7292 23.3311 22.7292 24.4998H22.375C21.9854 24.4998 21.6667 24.1811 21.6667 23.7915V20.2498C21.6667 19.8603 21.3479 19.5415 20.9583 19.5415C20.5688 19.5415 20.25 19.8603 20.25 20.2498V23.7915C20.25 24.9602 21.2062 25.9165 22.375 25.9165H22.7292C22.7292 27.0852 23.6854 28.0415 24.8542 28.0415H25.6617C25.9804 29.2598 27.0783 30.1665 28.3958 30.1665H30.875V32.2915C26.5754 32.2915 23.0833 35.7836 23.0833 40.0832V44.3332C23.0833 45.5019 24.0396 46.4582 25.2083 46.4582H40.7917C41.9604 46.4582 42.9167 45.5019 42.9167 44.3332V40.0832C42.9167 35.7836 39.4246 32.2915 35.125 32.2915V30.1665H37.6042C38.9217 30.1665 40.0196 29.2598 40.3383 28.0415H41.1458C42.3146 28.0415 43.2708 27.0852 43.2708 25.9165H43.625C44.7938 25.9165 45.75 24.9602 45.75 23.7915V20.2498C45.75 19.8603 45.4312 19.5415 45.0417 19.5415ZM25.5625 26.6248H24.8542C24.4646 26.6248 24.1458 26.3061 24.1458 25.9165V24.4998C24.1458 24.1103 24.4646 23.7915 24.8542 23.7915H25.5625V26.6248ZM32.2917 30.1665H33.7083V32.2915H32.2917V30.1665ZM41.5 40.0832V44.3332C41.5 44.7227 41.1812 45.0415 40.7917 45.0415H25.2083C24.8188 45.0415 24.5 44.7227 24.5 44.3332V40.0832C24.5 36.5698 27.3617 33.7082 30.875 33.7082H35.125C38.6383 33.7082 41.5 36.5698 41.5 40.0832ZM41.8542 25.9165C41.8542 26.3061 41.5354 26.6248 41.1458 26.6248H40.4375V23.7915H41.1458C41.5354 23.7915 41.8542 24.1103 41.8542 24.4998V25.9165Z" fill="#A7BB6B"/>
<path d="M39.0417 36.5417H38.3333V35.125C38.3333 34.7354 38.0146 34.4167 37.625 34.4167H36.9167V33.7083C36.9167 33.3188 36.5979 33 36.2083 33C35.8188 33 35.5 33.3188 35.5 33.7083V34.4167H34.0833V33.7083C34.0833 33.3188 33.7646 33 33.375 33C32.9854 33 32.6667 33.3188 32.6667 33.7083V34.4167H31.25V33.7083C31.25 33.3188 30.9312 33 30.5417 33C30.1521 33 29.8333 33.3188 29.8333 33.7083V34.4167H29.125C28.7354 34.4167 28.4167 34.7354 28.4167 35.125V36.5417H27.7083C27.3188 36.5417 27 36.8604 27 37.25C27 37.6396 27.3188 37.9583 27.7083 37.9583H28.4167V39.375C28.4167 39.7646 28.7354 40.0833 29.125 40.0833H29.8333V40.7917C29.8333 41.1812 30.1521 41.5 30.5417 41.5C30.9312 41.5 31.25 41.1812 31.25 40.7917V40.0833H32.6667V40.7917C32.6667 41.1812 32.9854 41.5 33.375 41.5C33.7646 41.5 34.0833 41.1812 34.0833 40.7917V40.0833H35.5V40.7917C35.5 41.1812 35.8188 41.5 36.2083 41.5C36.5979 41.5 36.9167 41.1812 36.9167 40.7917V40.0833H37.625C38.0146 40.0833 38.3333 39.7646 38.3333 39.375V37.9583H39.0417C39.4312 37.9583 39.75 37.6396 39.75 37.25C39.75 36.8604 39.4312 36.5417 39.0417 36.5417ZM36.9167 38.6667H29.8333V35.8333H36.9167V38.6667Z" fill="#A7BB6B"/>
</svg>
