<svg width="66" height="66" viewBox="0 0 66 66" fill="none" xmlns="http://www.w3.org/2000/svg">
<rect x="0.709059" y="0.709059" width="64.5819" height="64.5819" rx="19.2909" fill="#9AEEE7"/>
<rect x="0.709059" y="0.709059" width="64.5819" height="64.5819" rx="19.2909" stroke="white" stroke-width="1.41812"/>
<path fill-rule="evenodd" clip-rule="evenodd" d="M33.375 17.25H18.75C18.1537 17.25 17.58 17.487 17.16 17.9089C16.7363 18.3311 16.5 18.9034 16.5 19.5C16.5 24.9045 16.5 43.3455 16.5 48.75C16.5 49.9927 17.5087 51 18.75 51H41.25C42.4912 51 43.5 49.9927 43.5 48.75C43.5 44.9509 43.5 35.25 43.5 35.25C43.5 34.836 43.1625 34.5 42.75 34.5C42.3375 34.5 42 34.836 42 35.25C42 35.25 42 44.9509 42 48.75C42 49.1644 41.6663 49.5 41.25 49.5H18.75C18.3338 49.5 18 49.1644 18 48.75C18 43.3455 18 24.9045 18 19.5C18 19.3012 18.0788 19.1104 18.2213 18.9697C18.36 18.8291 18.5512 18.75 18.75 18.75H33.375C33.7875 18.75 34.125 18.414 34.125 18C34.125 17.586 33.7875 17.25 33.375 17.25ZM22.3125 42.75H37.6875C38.1 42.75 38.4375 42.414 38.4375 42C38.4375 41.586 38.1 41.25 37.6875 41.25H22.3125C21.9 41.25 21.5625 41.586 21.5625 42C21.5625 42.414 21.9 42.75 22.3125 42.75ZM22.3125 38.625H37.6875C38.1 38.625 38.4375 38.289 38.4375 37.875C38.4375 37.461 38.1 37.125 37.6875 37.125H22.3125C21.9 37.125 21.5625 37.461 21.5625 37.875C21.5625 38.289 21.9 38.625 22.3125 38.625ZM29.25 25.875H22.5C22.0875 25.875 21.75 26.211 21.75 26.625C21.75 27.039 22.0875 27.375 22.5 27.375H25.125V34.875C25.125 35.289 25.4625 35.625 25.875 35.625C26.2875 35.625 26.625 35.289 26.625 34.875V27.375H29.25C29.6625 27.375 30 27.039 30 26.625C30 26.211 29.6625 25.875 29.25 25.875ZM30.1875 34.875H37.6875C38.1 34.875 38.4375 34.539 38.4375 34.125C38.4375 33.711 38.1 33.375 37.6875 33.375H30.1875C29.775 33.375 29.4375 33.711 29.4375 34.125C29.4375 34.539 29.775 34.875 30.1875 34.875ZM45.69 25.2397C45.5813 24.9454 45.3 24.75 44.9887 24.75C44.6737 24.75 44.3925 24.9454 44.2838 25.2397L43.3912 27.6536L40.9763 28.5465C40.6838 28.6556 40.4887 28.9361 40.4887 29.25C40.4887 29.5639 40.6838 29.8444 40.9763 29.9535L43.3912 30.8464L44.2838 33.2603C44.3925 33.5546 44.6737 33.75 44.9887 33.75C45.3 33.75 45.5813 33.5546 45.69 33.2603L46.5825 30.8464L48.9975 29.9535C49.2937 29.8444 49.4887 29.5639 49.4887 29.25C49.4887 28.9361 49.2937 28.6556 48.9975 28.5465L46.5825 27.6536L45.69 25.2397ZM32.25 31.125H35.25C35.6625 31.125 36 30.789 36 30.375C36 29.961 35.6625 29.625 35.25 29.625H32.25C31.8375 29.625 31.5 29.961 31.5 30.375C31.5 30.789 31.8375 31.125 32.25 31.125ZM44.9887 27.6611L45.2963 28.4974C45.3713 28.7029 45.5362 28.8645 45.7387 28.9406L46.575 29.25L45.7387 29.5594C45.5362 29.6355 45.3713 29.7971 45.2963 30.0026L44.9887 30.8389L44.6775 30.0026C44.6025 29.7971 44.4412 29.6355 44.235 29.5594L43.3987 29.25L44.235 28.9406C44.4412 28.8645 44.6025 28.7029 44.6775 28.4974L44.9887 27.6611ZM38.955 15.4897C38.8462 15.1954 38.565 15 38.25 15C37.935 15 37.6538 15.1954 37.545 15.4897L35.7413 20.367L30.8663 22.1715C30.57 22.2806 30.375 22.5611 30.375 22.875C30.375 23.1889 30.57 23.4694 30.8663 23.5785L35.7413 25.383L37.545 30.2603C37.6538 30.5546 37.935 30.75 38.25 30.75C38.565 30.75 38.8462 30.5546 38.955 30.2603L40.7587 25.383L45.6337 23.5785C45.93 23.4694 46.125 23.1889 46.125 22.875C46.125 22.5611 45.93 22.2806 45.6337 22.1715L40.7587 20.367L38.955 15.4897ZM38.25 17.9111L39.4725 21.2107C39.5475 21.4162 39.7087 21.5779 39.915 21.654L43.215 22.875L39.915 24.096C39.7087 24.1721 39.5475 24.3338 39.4725 24.5393L38.25 27.8389L37.0275 24.5393C36.9525 24.3338 36.7913 24.1721 36.585 24.096L33.285 22.875L36.585 21.654C36.7913 21.5779 36.9525 21.4162 37.0275 21.2107L38.25 17.9111ZM32.25 27.375H33.75C34.1625 27.375 34.5 27.039 34.5 26.625C34.5 26.211 34.1625 25.875 33.75 25.875H32.25C31.8375 25.875 31.5 26.211 31.5 26.625C31.5 27.039 31.8375 27.375 32.25 27.375ZM44.25 17.625H43.5C43.0875 17.625 42.75 17.961 42.75 18.375C42.75 18.789 43.0875 19.125 43.5 19.125H44.25V19.875C44.25 20.289 44.5875 20.625 45 20.625C45.4125 20.625 45.75 20.289 45.75 19.875V19.125H46.5C46.9125 19.125 47.25 18.789 47.25 18.375C47.25 17.961 46.9125 17.625 46.5 17.625H45.75V16.875C45.75 16.461 45.4125 16.125 45 16.125C44.5875 16.125 44.25 16.461 44.25 16.875V17.625Z" fill="#22C4B6"/>
</svg>
