<svg width="66" height="66" viewBox="0 0 66 66" fill="none" xmlns="http://www.w3.org/2000/svg">
<rect x="0.709059" y="0.709059" width="64.5819" height="64.5819" rx="19.2909" fill="#FFEDE6"/>
<rect x="0.709059" y="0.709059" width="64.5819" height="64.5819" rx="19.2909" stroke="white" stroke-width="1.41812"/>
<path fill-rule="evenodd" clip-rule="evenodd" d="M33.0039 16.7505C31.6232 16.7505 30.5039 17.8698 30.5039 19.2505C30.5039 20.1758 31.0067 20.9838 31.7539 21.416V21.7505H24.2539C21.4925 21.7505 19.2539 23.9891 19.2539 26.7505V39.2505C19.2539 42.0119 21.4925 44.2505 24.2539 44.2505V48.0005C24.2539 48.6909 24.8136 49.2505 25.5039 49.2505C26.1943 49.2505 26.7539 48.6909 26.7539 48.0005V44.2505H39.2539V48.0005C39.2539 48.6909 39.8135 49.2505 40.5039 49.2505C41.1943 49.2505 41.7539 48.6909 41.7539 48.0005V44.2505C44.5153 44.2505 46.7539 42.0119 46.7539 39.2505V26.7505C46.7539 23.9891 44.5153 21.7505 41.7539 21.7505H34.2539V21.416C35.0012 20.9838 35.5039 20.1758 35.5039 19.2505C35.5039 17.8698 34.3847 16.7505 33.0039 16.7505ZM41.7539 42.1672H40.5039H25.5039H24.2539C22.8732 42.1672 20.9533 40.6312 20.9533 39.2505V26.7505C20.9533 25.3698 22.8732 23.4699 24.2539 23.4699H41.7539C43.1347 23.4699 45.1089 25.3698 45.1089 26.7505V39.2505C45.1089 40.6312 43.1347 42.1672 41.7539 42.1672ZM38.0039 26.7505C38.6943 26.7505 39.2539 27.3101 39.2539 28.0005V30.5005C39.2539 31.1909 38.6943 31.7505 38.0039 31.7505C37.3135 31.7505 36.7539 31.1909 36.7539 30.5005V28.0005C36.7539 27.3101 37.3135 26.7505 38.0039 26.7505ZM29.2539 28.0005C29.2539 27.3101 28.6943 26.7505 28.0039 26.7505C27.3135 26.7505 26.7539 27.3101 26.7539 28.0005V30.5005C26.7539 31.1909 27.3135 31.7505 28.0039 31.7505C28.6943 31.7505 29.2539 31.1909 29.2539 30.5005V28.0005ZM29.2539 35.5005C29.2539 34.8101 28.6943 34.2505 28.0039 34.2505C27.3135 34.2505 26.7539 34.8101 26.7539 35.5005V36.7505C26.7539 38.1312 27.8732 39.2505 29.2539 39.2505H36.7539C38.1347 39.2505 39.2539 38.1312 39.2539 36.7505V35.5005C39.2539 34.8101 38.6943 34.2505 38.0039 34.2505C37.3135 34.2505 36.7539 34.8101 36.7539 35.5005V36.7505H29.2539V35.5005Z" fill="#FFA17D"/>
</svg>
