<svg width="66" height="66" viewBox="0 0 66 66" fill="none" xmlns="http://www.w3.org/2000/svg">
<rect x="0.709059" y="0.709059" width="64.5819" height="64.5819" rx="19.2909" fill="#D9CFEE"/>
<rect x="0.709059" y="0.709059" width="64.5819" height="64.5819" rx="19.2909" stroke="white" stroke-width="1.41812"/>
<path d="M43.6928 33.2174C43.4401 32.5549 42.9582 31.9968 42.3102 31.6671C41.0273 30.9973 39.4204 31.3778 38.5749 32.5561L36.399 35.594C36.0109 35.1594 35.4974 34.8296 34.8932 34.679L30.0715 33.4778C28.1525 32.9989 26.1286 33.3862 24.5213 34.5402L19.4139 38.2039C19.1958 38.3606 19.0664 38.6125 19.0664 38.881V47.1672C19.0664 47.6274 19.4395 48.0005 19.8997 48.0005H23.5045C23.6562 48.0005 23.8052 47.959 23.9354 47.8805L27.816 45.5371L37.5617 45.1856C37.7484 45.1786 37.9275 45.1095 38.0699 44.9886L45.9166 38.3468C47.1117 37.3356 47.298 35.5733 46.341 34.3347C45.7026 33.5083 44.6852 33.1144 43.6928 33.2174ZM39.9294 33.527C40.294 33.0204 40.9849 32.8556 41.5461 33.1482C41.8229 33.289 42.0216 33.5294 42.1306 33.8112L38.0923 36.0924L39.9294 33.527ZM44.8399 37.0748L37.2134 43.5303L27.5401 43.879C27.3985 43.8843 27.2606 43.9254 27.1393 43.9986L23.2725 46.3338H20.7331V39.3087L25.493 35.8944C26.7027 35.0269 28.2249 34.7355 29.6686 35.0948L34.49 36.296C35.1699 36.4657 35.6041 37.1334 35.4788 37.8166C35.351 38.5112 34.6967 38.9823 33.987 38.8941L31.664 38.595C31.2091 38.5339 30.7896 38.8578 30.731 39.3148C30.672 39.7713 30.9947 40.1892 31.4508 40.2478L33.7742 40.5469C35.1785 40.7284 36.4895 39.9129 36.9729 38.6389L43.3775 35.0208C43.9285 34.7111 44.6357 34.8523 45.0218 35.3536C45.4324 35.885 45.3526 36.641 44.8399 37.0748ZM25.8136 23.1828C25.6716 22.7458 25.2017 22.5057 24.7634 22.6477L24.101 22.863V22.1663C24.101 21.7061 23.7279 21.333 23.2677 21.333C22.8075 21.333 22.4343 21.7061 22.4343 22.1663V22.8629L21.7723 22.6477C21.3349 22.5057 20.8641 22.7458 20.7221 23.1828C20.5801 23.6206 20.8193 24.0906 21.2572 24.233L21.9191 24.4481L21.5099 25.0114C21.2393 25.3837 21.3219 25.905 21.6942 26.1756C22.062 26.4423 22.5903 26.3594 22.8583 25.9912L23.2677 25.4279L23.677 25.9912C23.9335 26.3442 24.4737 26.4421 24.8411 26.1755C25.2135 25.9049 25.2961 25.3837 25.0255 25.0114L24.6162 24.4482L25.2786 24.233C25.7164 24.0906 25.9556 23.6206 25.8136 23.1828ZM34.2438 24.233L34.9061 24.4482L34.4969 25.0114C34.2263 25.3837 34.3089 25.9049 34.6813 26.1756C35.0507 26.4435 35.5774 26.3601 35.8454 25.9912L36.2547 25.4279C36.2547 25.4279 36.6623 25.9889 36.6641 25.9912C36.928 26.3545 37.4667 26.4377 37.8282 26.1755C38.2005 25.9049 38.2831 25.3837 38.0125 25.0114L37.6033 24.4482L38.2656 24.233C38.7034 24.0906 38.9427 23.6206 38.8007 23.1828C38.6587 22.7458 38.1891 22.5057 37.7505 22.6477L37.0881 22.863V22.1663C37.0881 21.7061 36.7149 21.333 36.2547 21.333C35.7945 21.333 35.4214 21.7061 35.4214 22.1663V22.863L34.759 22.6477C34.3203 22.5057 33.8512 22.7458 33.7087 23.1828C33.5667 23.6206 33.806 24.0906 34.2438 24.233ZM29.7614 21.333C29.3012 21.333 28.9281 21.7061 28.9281 22.1663V22.863L28.2656 22.6477C27.8274 22.5057 27.3574 22.7458 27.2154 23.1828C27.0734 23.6206 27.3127 24.0906 27.7505 24.233L28.4128 24.4482L28.0036 25.0114C27.733 25.3837 27.8156 25.9049 28.1878 26.1755C28.5418 26.4328 29.0837 26.3599 29.3521 25.9912L29.7614 25.4279L30.1707 25.9912C30.4277 26.3448 30.9589 26.4488 31.3349 26.1755C31.7072 25.9049 31.7898 25.3837 31.5192 25.0114L31.11 24.4482L31.7723 24.233C32.2101 24.0906 32.4494 23.6206 32.3074 23.1828C32.1654 22.7458 31.6962 22.5057 31.2572 22.6477L30.5947 22.863V22.1663C30.5947 21.7061 30.2216 21.333 29.7614 21.333ZM42.7485 21.333C42.2882 21.333 41.9151 21.7061 41.9151 22.1663V22.863L41.2527 22.6477C40.8149 22.5057 40.3445 22.7458 40.2025 23.1828C40.0605 23.6206 40.2997 24.0906 40.7376 24.233L41.3999 24.4482L40.9906 25.0114C40.7201 25.3837 40.8026 25.9049 41.1749 26.1755C41.528 26.4321 42.0669 26.3653 42.3391 25.9912L42.7485 25.4279L43.1578 25.9912C43.4148 26.3449 43.9474 26.4472 44.322 26.1755C44.6943 25.9049 44.7769 25.3837 44.5063 25.0114L44.097 24.4481L44.759 24.233C45.1968 24.0906 45.436 23.6206 45.294 23.1828C45.1516 22.7458 44.6837 22.5057 44.2438 22.6477L43.5818 22.8629V22.1663C43.5818 21.7061 43.2087 21.333 42.7485 21.333Z" fill="#9B78E9"/>
<path d="M46.3385 18.0005H36.3385C35.8783 18.0005 35.5052 18.3736 35.5052 18.8338C35.5052 19.294 35.8783 19.6672 36.3385 19.6672H46.3385C46.7979 19.6672 47.1719 20.0411 47.1719 20.5005V27.1672C47.1719 27.6265 46.7979 28.0005 46.3385 28.0005H34.7386C34.4912 28.0005 34.2564 28.1104 34.0981 28.3008L33.0052 29.6143L31.9123 28.3008C31.754 28.1104 31.5192 28.0005 31.2718 28.0005H19.6719C19.2125 28.0005 18.8385 27.6265 18.8385 27.1672V20.5005C18.8385 20.0411 19.2125 19.6672 19.6719 19.6672H29.6719C30.1321 19.6672 30.5052 19.294 30.5052 18.8338C30.5052 18.3736 30.1321 18.0005 29.6719 18.0005H19.6719C18.2933 18.0005 17.1719 19.1219 17.1719 20.5005V27.1672C17.1719 28.5457 18.2933 29.6672 19.6719 29.6672H30.8812C30.8812 29.6672 32.3629 31.448 32.3647 31.4502C32.694 31.8459 33.3168 31.8459 33.6457 31.4502L35.1292 29.6672H46.3385C47.7171 29.6672 48.8385 28.5457 48.8385 27.1672V20.5005C48.8385 19.1219 47.7171 18.0005 46.3385 18.0005Z" fill="#9B78E9"/>
<path d="M33.0052 19.6672C33.4654 19.6672 33.8385 19.2941 33.8385 18.8338C33.8385 18.3736 33.4654 18.0005 33.0052 18.0005C32.545 18.0005 32.1719 18.3736 32.1719 18.8338C32.1719 19.2941 32.545 19.6672 33.0052 19.6672Z" fill="#9B78E9"/>
</svg>
