<svg width="66" height="66" viewBox="0 0 66 66" fill="none" xmlns="http://www.w3.org/2000/svg">
<rect x="0.709059" y="0.709059" width="64.5819" height="64.5819" rx="19.2909" fill="#9AEEE7"/>
<rect x="0.709059" y="0.709059" width="64.5819" height="64.5819" rx="19.2909" stroke="white" stroke-width="1.41812"/>
<g clip-path="url(#clip0_6040_14426)">
<path d="M35.0856 16.5271L35.0998 16.192C42.1029 17.0584 47.7882 22.208 49.4477 28.9354L49.4478 28.9356L49.5228 29.2387L49.5828 29.4813L49.8254 29.4214L50.4319 29.2717L50.6745 29.2119L50.6148 28.9693L50.5401 28.6658L50.5401 28.6657C48.7626 21.4624 42.6589 15.9553 35.1473 15.0643L35.1646 14.6536L35.1817 14.2495L34.8126 14.4149L32.8998 15.2724L32.4435 15.477L32.8809 15.7192L34.7146 16.7352L35.0684 16.9312L35.0856 16.5271ZM49.4755 35.0841L49.8106 35.0983C48.9737 41.8644 44.1382 47.4002 37.7446 49.264L37.7445 49.264L37.4445 49.3515L37.2045 49.4215L37.2745 49.6615L37.4495 50.2615L37.5195 50.5015L37.7595 50.4315L38.0595 50.344C38.0595 50.344 38.0595 50.344 38.0595 50.344C44.9064 48.3481 50.0775 42.4043 50.9383 35.1458L51.349 35.1632L51.7531 35.1802L51.5877 34.8111L50.7302 32.8983L50.5256 32.4421L50.2834 32.8794L49.2674 34.7132L49.0714 35.0669L49.4755 35.0841ZM30.9185 49.474L30.9043 49.8091C23.9012 48.9427 18.2159 43.7931 16.5563 37.0657L16.5563 37.0655L16.4813 36.7624L16.4213 36.5199L16.1787 36.5797L15.5721 36.7294L15.3296 36.7893L15.3893 37.0319L15.464 37.3353L15.464 37.3355C17.2414 44.5387 23.3452 50.0459 30.8568 50.9368L30.8394 51.3475L30.8224 51.7517L31.1915 51.5862L33.1043 50.7287L33.5605 50.5242L33.1232 50.2819L31.2894 49.2659L30.9357 49.0699L30.9185 49.474ZM16.5286 30.917L16.1935 30.9028C17.0887 23.6661 22.5572 17.8372 29.614 16.4024C29.614 16.4024 29.614 16.4024 29.614 16.4024L29.9202 16.3403L30.1652 16.2905L30.1155 16.0455L29.9911 15.433L29.9413 15.188L29.6963 15.2378L29.3901 15.2999L29.39 15.3C21.8345 16.8364 15.9862 23.0944 15.0658 30.8553L14.6551 30.838L14.2509 30.8209L14.4164 31.19L15.2739 33.1028L15.4784 33.559L15.7207 33.1217L16.7367 31.288L16.9327 30.9342L16.5286 30.917Z" fill="#21C4B6" stroke="#21C4B6" stroke-width="0.5"/>
<path d="M25.0318 24.1529L25.2706 24.3629L25.5744 24.6299L25.1997 24.7822L23.2578 25.5716L22.7947 25.7599L22.9219 25.2764L23.4554 23.2492L23.5583 22.858L23.8621 23.125L24.1814 23.4056C28.0151 19.8746 33.6029 18.9953 38.3089 21.0948C38.3089 21.0948 38.309 21.0948 38.309 21.0948L38.5942 21.222L38.8226 21.3238L38.7208 21.5522L38.4661 22.1231L38.3641 22.3516L38.1358 22.2495L37.8506 22.1221L25.0318 24.1529ZM25.0318 24.1529C28.5304 20.9948 33.587 20.2201 37.8504 22.122L25.0318 24.1529ZM40.9744 41.8484L40.7355 41.6384L40.4317 41.3714L40.8064 41.2191L42.7483 40.4297L43.2114 40.2414L43.0842 40.7249L42.5508 42.7521L42.4478 43.1433L42.144 42.8763L41.8247 42.5957C37.991 46.1267 32.4032 47.006 27.6972 44.9065C27.6972 44.9065 27.6972 44.9065 27.6971 44.9065L27.4119 44.7793L27.1835 44.6775L27.2854 44.4491L27.5401 43.8782L27.642 43.6497L27.8704 43.7518L28.1555 43.8792L40.9744 41.8484ZM40.9744 41.8484C37.4757 45.0065 32.4191 45.7812 28.1557 43.8793L40.9744 41.8484ZM24.1553 40.9719L24.3653 40.7331L24.6323 40.4293L24.7847 40.804L25.574 42.7459L25.7623 43.209L25.2788 43.0818L23.2516 42.5484L22.8604 42.4454L23.1275 42.1416L23.408 41.8223C19.7555 37.8566 18.9401 32.0135 21.325 27.2115L24.1553 40.9719ZM24.1553 40.9719C20.8874 37.3514 20.1716 32.0633 22.3325 27.7116C22.3326 27.7116 22.3326 27.7116 22.3326 27.7115L22.4716 27.432L22.583 27.208L22.359 27.0967L21.799 26.8186L21.5748 26.7073L21.4637 26.9315L21.3251 27.2113L24.1553 40.9719ZM41.6408 25.2682L41.8508 25.0294C44.8974 28.4047 45.7261 33.2297 44.0729 37.3937L44.0728 37.394L43.9578 37.6846L43.8659 37.9168L44.098 38.0089L44.6786 38.2396L44.911 38.3319L45.0033 38.0994L45.1186 37.8088C46.9436 33.2112 46.0054 27.8784 42.5981 24.179L42.8787 23.8597L43.1457 23.5559L42.7545 23.4529L40.7273 22.9195L40.2438 22.7923L40.4321 23.2554L41.2215 25.1973L41.3738 25.572L41.6408 25.2682Z" fill="#21C4B6" stroke="#21C4B6" stroke-width="0.5"/>
<path d="M32.1591 28.1218L31.2385 37.1115L33.0032 37.1349L33.3678 33.5749L34.0972 33.5846C34.5938 33.5911 34.9885 33.4858 35.2816 33.268C35.5744 33.0502 35.7944 32.7405 35.941 32.3383C36.0878 31.9361 36.1891 31.4627 36.245 30.918C36.3028 30.3527 36.2897 29.8649 36.2057 29.4546C36.1219 29.0443 35.9457 28.7265 35.6778 28.5015C35.4097 28.2761 35.0275 28.1602 34.531 28.1536L32.1591 28.1218Z" fill="#21C4B6"/>
<path d="M29.5816 36.3321C29.2116 36.8865 28.6897 37.159 28.0166 37.1502C26.7344 37.133 26.1878 36.2049 26.376 34.3661L26.7732 30.4896C26.945 28.8108 27.7657 27.9811 29.2344 28.0008C29.8397 28.009 30.2916 28.1368 30.5897 28.3846C30.8878 28.6324 31.0741 28.9905 31.1488 29.4586C31.2235 29.9268 31.2263 30.4961 31.1575 31.1671L29.4032 31.1436L29.4847 30.3468C29.5044 30.1527 29.4947 29.9896 29.4557 29.858C29.4163 29.7261 29.3132 29.659 29.1466 29.6568C28.9391 29.654 28.7953 29.7221 28.7147 29.8608C28.6341 29.9996 28.585 30.1524 28.5682 30.3193L28.1219 34.6761C28.0969 34.9177 28.1085 35.1149 28.1557 35.2671C28.2032 35.4196 28.3188 35.4971 28.5022 35.4996C28.6928 35.5021 28.8272 35.428 28.9057 35.2771C28.9841 35.1265 29.036 34.9268 29.0613 34.6783L29.1928 33.3965L28.7132 33.3899L28.8722 31.8371L31.0657 31.8665L30.5294 37.1018L29.81 37.0924L29.5816 36.3321Z" fill="#21C4B6"/>
<path d="M38.8372 37.2115L37.0416 37.1877L37.7857 29.9246L36.7197 29.9102L36.8963 28.184L40.8241 28.2365L40.6472 29.9627L39.581 29.9483L38.8372 37.2115Z" fill="#21C4B6"/>
</g>
<defs>
<clipPath id="clip0_6040_14426">
<rect width="40" height="40" fill="white" transform="translate(13 13)"/>
</clipPath>
</defs>
</svg>
