<svg width="33" height="37" viewBox="0 0 33 37" fill="none" xmlns="http://www.w3.org/2000/svg">
<path fill-rule="evenodd" clip-rule="evenodd" d="M6.94999 5.507L14.5664 2.67807C17.9067 1.43738 21.1044 1.74615 22.3867 5.0984L29.339 23.8161C29.4158 24.027 29.4403 24.2534 29.4105 24.4755C29.3643 24.8368 29.1738 25.1631 28.8829 25.3794C28.5919 25.5956 28.2255 25.6832 27.8677 25.6221L18.3848 24.5925L8.85432 23.5681C7.30983 23.4434 6.6058 23.0814 6.2761 22.1937L2.64935 12.4294C1.39973 9.06501 3.62054 6.74365 6.94999 5.507ZM11.8623 31.5671L18.3847 24.5926L8.8542 23.5683C7.3097 23.4436 6.60568 23.0815 6.27597 22.1938L9.60151 31.1472C9.68226 31.3606 9.81267 31.5517 9.98178 31.7044C10.5437 32.181 11.3795 32.12 11.8623 31.5671Z" fill="url(#paint0_linear_8_394)"/>
<g opacity="0.5" filter="url(#filter0_f_8_394)">
<path d="M16.9987 7.14521L10.072 9.00121C7.55954 9.67443 6.49087 11.5375 7.1663 14.0583L9.45391 22.5958C10.1404 25.1579 11.9886 26.2039 14.5011 25.5307L21.4278 23.6747C23.9808 22.9907 25.017 21.1717 24.3305 18.6096L22.0429 10.0721C21.3674 7.55137 19.5517 6.46114 16.9987 7.14521Z" fill="#EB6F0A"/>
</g>
<g filter="url(#filter1_b_8_394)">
<path fill-rule="evenodd" clip-rule="evenodd" d="M20.2874 31.2905L11.4545 36.1295C10.7493 36.496 9.88045 36.2366 9.49166 35.5433C9.37917 35.3286 9.31849 35.0905 9.31445 34.8482V13.4066C9.31445 9.31736 12.1088 7.68164 16.1299 7.68164H25.5762C29.4747 7.68164 32.3917 9.20831 32.3917 13.134V34.8482C32.3917 35.235 32.238 35.606 31.9645 35.8795C31.691 36.153 31.32 36.3067 30.9332 36.3067C30.6864 36.3028 30.4439 36.2421 30.2244 36.1295L21.337 31.2905C21.0095 31.1136 20.6149 31.1136 20.2874 31.2905Z" fill="#FFCBB9" fill-opacity="0.35"/>
<path d="M11.5361 36.2865L11.5361 36.2865L11.5395 36.2847L20.3715 31.4462C20.3716 31.4461 20.3718 31.446 20.3719 31.4459C20.6468 31.2976 20.9778 31.2977 21.2526 31.446C21.2527 31.4461 21.2528 31.4461 21.2529 31.4462L30.1398 36.2849L30.1397 36.2849L30.1436 36.2869C30.3873 36.4119 30.6565 36.4792 30.9304 36.4836V36.4836H30.9332C31.3669 36.4836 31.7829 36.3113 32.0896 36.0046C32.3963 35.6979 32.5686 35.2819 32.5686 34.8482V13.134C32.5686 11.1212 31.8173 9.70144 30.549 8.7919C29.2902 7.88929 27.544 7.50471 25.5762 7.50471H16.1299C14.0997 7.50471 12.3512 7.91695 11.1067 8.8702C9.85389 9.82978 9.13752 11.3176 9.13752 13.4066L9.1375 34.8482L9.13754 34.8511C9.14204 35.1211 9.20963 35.3863 9.33492 35.6254L9.33486 35.6255L9.33734 35.6299C9.77286 36.4064 10.7461 36.697 11.5361 36.2865Z" stroke="url(#paint1_linear_8_394)" stroke-width="0.353865" stroke-linecap="round" stroke-linejoin="round"/>
</g>
<g filter="url(#filter2_bd_8_394)">
<path d="M25.3246 16.9923H16.2487C15.7257 16.9923 15.3018 16.517 15.3018 15.9307C15.3018 15.3444 15.7257 14.8691 16.2487 14.8691H25.3246C25.8476 14.8691 26.2716 15.3444 26.2716 15.9307C26.2716 16.517 25.8476 16.9923 25.3246 16.9923Z" fill="url(#paint2_linear_8_394)"/>
<path d="M25.3246 16.9216H16.2487C15.7722 16.9216 15.3725 16.4858 15.3725 15.9307C15.3725 15.3757 15.7722 14.9399 16.2487 14.9399H25.3246C25.8011 14.9399 26.2008 15.3757 26.2008 15.9307C26.2008 16.4858 25.8011 16.9216 25.3246 16.9216Z" stroke="url(#paint3_linear_8_394)" stroke-width="0.141546"/>
</g>
<defs>
<filter id="filter0_f_8_394" x="1.65979" y="1.63733" width="28.1853" height="29.4011" filterUnits="userSpaceOnUse" color-interpolation-filters="sRGB">
<feFlood flood-opacity="0" result="BackgroundImageFix"/>
<feBlend mode="normal" in="SourceGraphic" in2="BackgroundImageFix" result="shape"/>
<feGaussianBlur stdDeviation="2.65399" result="effect1_foregroundBlur_8_394"/>
</filter>
<filter id="filter1_b_8_394" x="0.46817" y="-1.16464" width="40.7697" height="46.3176" filterUnits="userSpaceOnUse" color-interpolation-filters="sRGB">
<feFlood flood-opacity="0" result="BackgroundImageFix"/>
<feGaussianBlur in="BackgroundImageFix" stdDeviation="4.24638"/>
<feComposite in2="SourceAlpha" operator="in" result="effect1_backgroundBlur_8_394"/>
<feBlend mode="normal" in="SourceGraphic" in2="effect1_backgroundBlur_8_394" result="shape"/>
</filter>
<filter id="filter2_bd_8_394" x="9.99378" y="9.56116" width="21.5857" height="12.739" filterUnits="userSpaceOnUse" color-interpolation-filters="sRGB">
<feFlood flood-opacity="0" result="BackgroundImageFix"/>
<feGaussianBlur in="BackgroundImageFix" stdDeviation="2.65399"/>
<feComposite in2="SourceAlpha" operator="in" result="effect1_backgroundBlur_8_394"/>
<feColorMatrix in="SourceAlpha" type="matrix" values="0 0 0 0 0 0 0 0 0 0 0 0 0 0 0 0 0 0 127 0" result="hardAlpha"/>
<feOffset dx="1.76933" dy="1.76933"/>
<feGaussianBlur stdDeviation="1.76933"/>
<feColorMatrix type="matrix" values="0 0 0 0 1 0 0 0 0 0.521569 0 0 0 0 0.133333 0 0 0 0.5 0"/>
<feBlend mode="normal" in2="effect1_backgroundBlur_8_394" result="effect2_dropShadow_8_394"/>
<feBlend mode="normal" in="SourceGraphic" in2="effect2_dropShadow_8_394" result="shape"/>
</filter>
<linearGradient id="paint0_linear_8_394" x1="10.7798" y1="4.08451" x2="19.9435" y2="28.7562" gradientUnits="userSpaceOnUse">
<stop stop-color="#FFB37F"/>
<stop offset="1" stop-color="#FF7B0D"/>
</linearGradient>
<linearGradient id="paint1_linear_8_394" x1="12.988" y1="11.0165" x2="31.6671" y2="29.6673" gradientUnits="userSpaceOnUse">
<stop stop-color="white" stop-opacity="0.25"/>
<stop offset="1" stop-color="white" stop-opacity="0"/>
</linearGradient>
<linearGradient id="paint2_linear_8_394" x1="25.4938" y1="15.2525" x2="13.599" y2="17.2563" gradientUnits="userSpaceOnUse">
<stop stop-color="white"/>
<stop offset="1" stop-color="white" stop-opacity="0.2"/>
</linearGradient>
<linearGradient id="paint3_linear_8_394" x1="17.048" y1="15.1165" x2="17.4707" y2="17.8214" gradientUnits="userSpaceOnUse">
<stop stop-color="white" stop-opacity="0.25"/>
<stop offset="1" stop-color="white" stop-opacity="0"/>
</linearGradient>
</defs>
</svg>
