<svg width="43" height="38" viewBox="0 0 43 38" fill="none" xmlns="http://www.w3.org/2000/svg">
<path d="M16.6973 3.36496L7.18956 7.10315C3.47199 8.5648 1.99785 12.1578 3.52417 16.0399L7.04678 24.9993C8.56879 28.8704 12.0953 30.4974 15.8128 29.0357L25.3206 25.2975C29.0382 23.8359 30.5014 20.2472 28.9793 16.3761L25.4567 7.41661C23.9304 3.53454 20.4149 1.90331 16.6973 3.36496Z" fill="url(#paint0_linear_8_448)"/>
<g opacity="0.5" filter="url(#filter0_f_8_448)">
<path d="M27.1311 16.2259L24.7453 10.1513C23.8798 7.94794 21.8836 7.25119 19.3264 8.25555L10.6655 11.6572C8.06637 12.678 7.11139 14.5339 7.9768 16.7373L10.3626 22.8119C11.242 25.0508 13.1905 25.7245 15.7896 24.7036L24.4505 21.302C27.0077 20.2976 28.0104 18.4648 27.1311 16.2259Z" fill="#FF624D"/>
</g>
<g filter="url(#filter1_b_8_448)">
<path d="M34.9778 13.6718L34.8205 13.3263C34.3961 12.4313 33.9088 11.3949 33.6101 10.7981C32.8869 9.38485 31.645 8.59969 30.1201 8.58398H22.7157C21.1907 8.59969 19.9645 9.38485 19.2414 10.7981C18.927 11.4263 18.3925 12.5569 17.9523 13.4834L17.858 13.6718C17.8108 13.7974 17.685 13.8603 17.5593 13.8603C13.7706 13.8603 10.7051 16.9381 10.7051 20.7069V30.0346C10.7051 33.8033 13.7706 36.8811 17.5593 36.8811H35.2922C39.0651 36.8811 42.1464 33.8033 42.1464 30.0346V20.7069C42.1464 16.9381 39.0651 13.8603 35.2922 13.8603C35.1507 13.8603 35.0406 13.7817 34.9778 13.6718Z" fill="#FFAC95" fill-opacity="0.4"/>
<path d="M34.9958 13.2466L34.9958 13.2466L34.9945 13.2439C34.9221 13.0912 34.8478 12.9342 34.7728 12.776C34.4093 12.0081 34.0308 11.2087 33.7822 10.712L33.7814 10.7105C33.0272 9.23639 31.7217 8.40797 30.1221 8.3915V8.39149H30.1201L22.7157 8.39148L22.7137 8.3915C21.1131 8.40798 19.8238 9.23721 19.07 10.7104L19.0693 10.712C18.7926 11.2647 18.3466 12.204 17.9447 13.0507C17.8885 13.169 17.8332 13.2856 17.7793 13.399L17.6858 13.5857C17.6828 13.5917 17.6801 13.5979 17.6778 13.6042C17.6662 13.6349 17.6282 13.6678 17.5593 13.6678C13.6642 13.6678 10.5126 16.8319 10.5126 20.7069V30.0346C10.5126 33.9095 13.6642 37.0736 17.5593 37.0736H35.2922C39.1712 37.0736 42.3389 33.9098 42.3389 30.0346V20.7069C42.3389 16.8316 39.1712 13.6678 35.2922 13.6678C35.2324 13.6678 35.1827 13.6381 35.1487 13.5828L34.9958 13.2466Z" stroke="url(#paint1_linear_8_448)" stroke-width="0.384995" stroke-linecap="round" stroke-linejoin="round"/>
</g>
<g filter="url(#filter2_bd_8_448)">
<mask id="path-5-inside-1_8_448" fill="white">
<path fill-rule="evenodd" clip-rule="evenodd" d="M33.83 19.7015C33.83 20.4866 34.4588 21.1147 35.2449 21.1147C36.0309 21.1147 36.6754 20.4866 36.6754 19.7015C36.6754 18.9163 36.0309 18.2725 35.2449 18.2725C34.4588 18.2725 33.83 18.9163 33.83 19.7015ZM30.7802 29.1862C29.664 30.3011 28.1234 30.9921 26.4256 30.9921C24.7749 30.9921 23.2343 30.3483 22.0552 29.1862C20.8919 28.0085 20.2474 26.4696 20.2474 24.8207C20.2316 23.1876 20.8762 21.6487 22.0395 20.4709C23.2186 19.2932 24.7749 18.6494 26.4256 18.6494C28.0762 18.6494 29.6326 19.2932 30.7959 20.4552C31.9592 21.633 32.6038 23.1876 32.6038 24.8207C32.5881 26.5324 31.8963 28.0713 30.7802 29.1862ZM26.4255 21.005C25.4037 21.005 24.4447 21.3976 23.7058 22.1357C22.9827 22.858 22.5897 23.8159 22.6054 24.8052V24.8209C22.6054 25.8416 22.9984 26.7995 23.7216 27.5218C24.4447 28.2442 25.4037 28.6368 26.4255 28.6368C28.5321 28.6368 30.2299 26.9251 30.2456 24.8209C30.2456 23.8002 29.8526 22.8423 29.1295 22.1199C28.4063 21.3976 27.4474 21.005 26.4255 21.005Z"/>
</mask>
<path fill-rule="evenodd" clip-rule="evenodd" d="M33.83 19.7015C33.83 20.4866 34.4588 21.1147 35.2449 21.1147C36.0309 21.1147 36.6754 20.4866 36.6754 19.7015C36.6754 18.9163 36.0309 18.2725 35.2449 18.2725C34.4588 18.2725 33.83 18.9163 33.83 19.7015ZM30.7802 29.1862C29.664 30.3011 28.1234 30.9921 26.4256 30.9921C24.7749 30.9921 23.2343 30.3483 22.0552 29.1862C20.8919 28.0085 20.2474 26.4696 20.2474 24.8207C20.2316 23.1876 20.8762 21.6487 22.0395 20.4709C23.2186 19.2932 24.7749 18.6494 26.4256 18.6494C28.0762 18.6494 29.6326 19.2932 30.7959 20.4552C31.9592 21.633 32.6038 23.1876 32.6038 24.8207C32.5881 26.5324 31.8963 28.0713 30.7802 29.1862ZM26.4255 21.005C25.4037 21.005 24.4447 21.3976 23.7058 22.1357C22.9827 22.858 22.5897 23.8159 22.6054 24.8052V24.8209C22.6054 25.8416 22.9984 26.7995 23.7216 27.5218C24.4447 28.2442 25.4037 28.6368 26.4255 28.6368C28.5321 28.6368 30.2299 26.9251 30.2456 24.8209C30.2456 23.8002 29.8526 22.8423 29.1295 22.1199C28.4063 21.3976 27.4474 21.005 26.4255 21.005Z" fill="url(#paint2_linear_8_448)"/>
<path d="M30.7802 29.1862L30.8346 29.2407L30.7802 29.1862ZM22.0552 29.1862L22.0004 29.2403L22.0012 29.2411L22.0552 29.1862ZM20.2474 24.8207H20.3244L20.3243 24.82L20.2474 24.8207ZM22.0395 20.4709L21.9851 20.4165L21.9847 20.4168L22.0395 20.4709ZM30.7959 20.4552L30.8507 20.4011L30.8503 20.4008L30.7959 20.4552ZM32.6038 24.8207L32.6808 24.8214V24.8207H32.6038ZM23.7058 22.1357L23.6514 22.0812L23.7058 22.1357ZM22.6054 24.8052H22.6824L22.6824 24.804L22.6054 24.8052ZM23.7216 27.5218L23.776 27.4674L23.7216 27.5218ZM30.2456 24.8209L30.3226 24.8215V24.8209H30.2456ZM35.2449 21.0377C34.5013 21.0377 33.907 20.444 33.907 19.7015H33.753C33.753 20.5292 34.4164 21.1917 35.2449 21.1917V21.0377ZM36.5984 19.7015C36.5984 20.4429 35.9896 21.0377 35.2449 21.0377V21.1917C36.0722 21.1917 36.7524 20.5303 36.7524 19.7015H36.5984ZM35.2449 18.3495C35.9884 18.3495 36.5984 18.9589 36.5984 19.7015H36.7524C36.7524 18.8737 36.0733 18.1955 35.2449 18.1955V18.3495ZM33.907 19.7015C33.907 18.9578 34.5024 18.3495 35.2449 18.3495V18.1955C34.4153 18.1955 33.753 18.8748 33.753 19.7015H33.907ZM26.4256 31.0691C28.1447 31.0691 29.7046 30.3694 30.8346 29.2407L30.7258 29.1317C29.6234 30.2329 28.1021 30.9151 26.4256 30.9151V31.0691ZM22.0012 29.2411C23.1943 30.417 24.7542 31.0691 26.4256 31.0691V30.9151C24.7955 30.9151 23.2742 30.2795 22.1093 29.1314L22.0012 29.2411ZM20.1704 24.8207C20.1704 26.4903 20.8232 28.0485 22.0004 29.2403L22.11 29.1321C20.9606 27.9685 20.3244 26.4489 20.3244 24.8207H20.1704ZM21.9847 20.4168C20.8076 21.6086 20.1544 23.167 20.1704 24.8215L20.3243 24.82C20.3088 23.2082 20.9448 21.6888 22.0943 20.5251L21.9847 20.4168ZM26.4256 18.5724C24.7544 18.5724 23.1785 19.2244 21.9851 20.4165L22.0939 20.5254C23.2586 19.362 24.7954 18.7264 26.4256 18.7264V18.5724ZM30.8503 20.4008C29.6725 19.2243 28.0966 18.5724 26.4256 18.5724V18.7264C28.0559 18.7264 29.5926 19.3621 30.7415 20.5097L30.8503 20.4008ZM32.6808 24.8207C32.6808 23.167 32.028 21.593 30.8507 20.4011L30.7411 20.5094C31.8905 21.6729 32.5268 23.2082 32.5268 24.8207H32.6808ZM30.8346 29.2407C31.9646 28.1119 32.6649 26.5538 32.6808 24.8214L32.5268 24.82C32.5113 26.5109 31.8281 28.0307 30.7258 29.1317L30.8346 29.2407ZM23.7603 22.1901C24.4847 21.4665 25.4241 21.082 26.4255 21.082V20.928C25.3832 20.928 24.4047 21.3287 23.6514 22.0812L23.7603 22.1901ZM22.6824 24.804C22.667 23.8361 23.0514 22.8982 23.7603 22.1901L23.6514 22.0812C22.914 22.8178 22.5123 23.7956 22.5284 24.8064L22.6824 24.804ZM22.6824 24.8209V24.8052H22.5284V24.8209H22.6824ZM23.776 27.4674C23.0674 26.7596 22.6824 25.8214 22.6824 24.8209H22.5284C22.5284 25.8618 22.9294 26.8394 23.6671 27.5763L23.776 27.4674ZM26.4255 28.5598C25.4239 28.5598 24.4845 28.1751 23.776 27.4674L23.6671 27.5763C24.4049 28.3132 25.3835 28.7138 26.4255 28.7138V28.5598ZM30.1686 24.8203C30.1532 26.8829 28.4891 28.5598 26.4255 28.5598V28.7138C28.575 28.7138 30.3066 26.9673 30.3226 24.8215L30.1686 24.8203ZM29.075 22.1744C29.7836 22.8822 30.1686 23.8204 30.1686 24.8209H30.3226C30.3226 23.78 29.9216 22.8024 29.1839 22.0655L29.075 22.1744ZM26.4255 21.082C27.4272 21.082 28.3665 21.4667 29.075 22.1744L29.1839 22.0655C28.4461 21.3285 27.4675 20.928 26.4255 20.928V21.082Z" fill="url(#paint3_linear_8_448)" fill-opacity="0.5" mask="url(#path-5-inside-1_8_448)"/>
</g>
<path d="M39.3237 0.883789H35.7569C35.6756 0.883789 35.603 0.93493 35.5756 1.01154L33.7882 6.01648C33.7434 6.14185 33.8363 6.27373 33.9694 6.27373H36.3089C36.4425 6.27373 36.5355 6.40646 36.4898 6.53201L35.3665 9.62115C35.2949 9.81815 35.5451 9.97152 35.6881 9.81828L40.1315 5.05759C40.2463 4.93454 40.159 4.73374 39.9907 4.73374H37.6937C37.5441 4.73374 37.4517 4.57051 37.5287 4.44221L39.4888 1.17533C39.5658 1.04702 39.4734 0.883789 39.3237 0.883789Z" fill="url(#paint4_linear_8_448)"/>
<defs>
<filter id="filter0_f_8_448" x="1.12109" y="1.26074" width="32.8672" height="30.4531" filterUnits="userSpaceOnUse" color-interpolation-filters="sRGB">
<feFlood flood-opacity="0" result="BackgroundImageFix"/>
<feBlend mode="normal" in="SourceGraphic" in2="BackgroundImageFix" result="shape"/>
<feGaussianBlur stdDeviation="3.27246" result="effect1_foregroundBlur_8_448"/>
</filter>
<filter id="filter1_b_8_448" x="4.54538" y="2.42429" width="43.7608" height="40.6172" filterUnits="userSpaceOnUse" color-interpolation-filters="sRGB">
<feFlood flood-opacity="0" result="BackgroundImageFix"/>
<feGaussianBlur in="BackgroundImageFix" stdDeviation="2.88747"/>
<feComposite in2="SourceAlpha" operator="in" result="effect1_backgroundBlur_8_448"/>
<feBlend mode="normal" in="SourceGraphic" in2="effect1_backgroundBlur_8_448" result="shape"/>
</filter>
<filter id="filter2_bd_8_448" x="14.4721" y="12.4975" width="27.9786" height="24.2696" filterUnits="userSpaceOnUse" color-interpolation-filters="sRGB">
<feFlood flood-opacity="0" result="BackgroundImageFix"/>
<feGaussianBlur in="BackgroundImageFix" stdDeviation="2.88747"/>
<feComposite in2="SourceAlpha" operator="in" result="effect1_backgroundBlur_8_448"/>
<feColorMatrix in="SourceAlpha" type="matrix" values="0 0 0 0 0 0 0 0 0 0 0 0 0 0 0 0 0 0 127 0" result="hardAlpha"/>
<feOffset dx="1.92498" dy="1.92498"/>
<feGaussianBlur stdDeviation="1.92498"/>
<feColorMatrix type="matrix" values="0 0 0 0 1 0 0 0 0 0.447059 0 0 0 0 0.368627 0 0 0 0.5 0"/>
<feBlend mode="normal" in2="effect1_backgroundBlur_8_448" result="effect2_dropShadow_8_448"/>
<feBlend mode="normal" in="SourceGraphic" in2="effect2_dropShadow_8_448" result="shape"/>
</filter>
<linearGradient id="paint0_linear_8_448" x1="18.4417" y1="17.0363" x2="2.854" y2="33.984" gradientUnits="userSpaceOnUse">
<stop stop-color="#FFA78F"/>
<stop offset="1" stop-color="#F23E2C"/>
</linearGradient>
<linearGradient id="paint1_linear_8_448" x1="15.71" y1="11.8806" x2="40.7463" y2="38.2718" gradientUnits="userSpaceOnUse">
<stop stop-color="white" stop-opacity="0.25"/>
<stop offset="1" stop-color="white" stop-opacity="0.15"/>
</linearGradient>
<linearGradient id="paint2_linear_8_448" x1="35.5106" y1="20.5694" x2="17.224" y2="21.3394" gradientUnits="userSpaceOnUse">
<stop stop-color="white"/>
<stop offset="1" stop-color="white" stop-opacity="0.2"/>
</linearGradient>
<linearGradient id="paint3_linear_8_448" x1="35.9715" y1="24.9013" x2="20.018" y2="25.7597" gradientUnits="userSpaceOnUse">
<stop stop-color="white"/>
<stop offset="1" stop-color="white" stop-opacity="0"/>
</linearGradient>
<linearGradient id="paint4_linear_8_448" x1="37.561" y1="6.34075" x2="31.0012" y2="8.57341" gradientUnits="userSpaceOnUse">
<stop stop-color="#FFA78F"/>
<stop offset="1" stop-color="#F23E2C"/>
</linearGradient>
</defs>
</svg>
