<svg width="41" height="38" viewBox="0 0 41 38" fill="none" xmlns="http://www.w3.org/2000/svg">
<path d="M25.8742 10.4072C33.0185 10.4072 38.1953 16.2358 38.1953 22.7038C38.1953 24.7696 37.5928 26.8969 36.5353 28.8397C36.3385 29.1595 36.3139 29.5652 36.4492 29.9464L37.2731 32.7009C37.4575 33.3649 36.8919 33.8567 36.2648 33.66L33.7809 32.9222C33.1045 32.7009 32.5758 32.9837 31.9474 33.3649C30.1521 34.4224 27.9154 34.9634 25.8988 34.9634C19.7997 34.9634 13.6022 30.2538 13.6022 22.6669C13.6022 16.1251 18.8897 10.4072 25.8742 10.4072Z" fill="url(#paint0_linear_8_408)"/>
<g opacity="0.5" filter="url(#filter0_f_8_408)">
<path d="M33.7268 22.8263C33.7268 27.2132 30.1714 30.7678 25.7853 30.7678C21.3992 30.7678 17.8438 27.2132 17.8438 22.8263C17.8438 18.441 21.3992 14.8848 25.7853 14.8848C30.1714 14.8848 33.7268 18.441 33.7268 22.8263Z" fill="#8237FF"/>
</g>
<g filter="url(#filter1_b_8_408)">
<mask id="path-3-outside-1_8_408" maskUnits="userSpaceOnUse" x="-0.078125" y="-0.199219" width="33" height="33" fill="black">
<rect fill="white" x="-0.078125" y="-0.199219" width="33" height="33"/>
<path d="M16.6441 0.800781C7.52774 0.800781 0.921875 8.23826 0.921875 16.4917C0.921875 19.1277 1.69073 21.8423 3.04014 24.3214C3.2912 24.7294 3.32258 25.2472 3.14998 25.7336L2.09869 29.2484C1.86333 30.0957 2.58511 30.7233 3.38534 30.4722L6.5549 29.5308C7.4179 29.2484 8.09261 29.6092 8.89441 30.0957C11.1853 31.4451 14.0395 32.1355 16.6128 32.1355C24.3954 32.1355 32.3036 26.1259 32.3036 16.4446C32.3036 8.09704 25.5566 0.800781 16.6441 0.800781Z"/>
</mask>
<path d="M16.6441 0.800781C7.52774 0.800781 0.921875 8.23826 0.921875 16.4917C0.921875 19.1277 1.69073 21.8423 3.04014 24.3214C3.2912 24.7294 3.32258 25.2472 3.14998 25.7336L2.09869 29.2484C1.86333 30.0957 2.58511 30.7233 3.38534 30.4722L6.5549 29.5308C7.4179 29.2484 8.09261 29.6092 8.89441 30.0957C11.1853 31.4451 14.0395 32.1355 16.6128 32.1355C24.3954 32.1355 32.3036 26.1259 32.3036 16.4446C32.3036 8.09704 25.5566 0.800781 16.6441 0.800781Z" fill="#BA90FF" fill-opacity="0.35"/>
<path d="M16.6441 1.18505C16.8564 1.18505 17.0284 1.01301 17.0284 0.800781C17.0284 0.588557 16.8564 0.416515 16.6441 0.416515V1.18505ZM3.04014 24.3214L2.70264 24.5051C2.70589 24.5111 2.70931 24.517 2.71288 24.5228L3.04014 24.3214ZM3.14998 25.7336L2.78784 25.6051C2.78568 25.6112 2.78368 25.6173 2.78183 25.6235L3.14998 25.7336ZM2.09869 29.2484L1.73047 29.1382L1.72844 29.1455L2.09869 29.2484ZM3.38534 30.4722L3.27592 30.1038L3.27032 30.1056L3.38534 30.4722ZM6.5549 29.5308L6.66436 29.8993L6.67442 29.896L6.5549 29.5308ZM8.89441 30.0957L8.69509 30.4242L8.69938 30.4268L8.89441 30.0957ZM16.6441 0.416515C16.4319 0.416515 16.2599 0.588557 16.2599 0.800781C16.2599 1.01301 16.4319 1.18505 16.6441 1.18505V0.416515ZM16.6441 0.416515C7.30287 0.416515 0.537608 8.0389 0.537608 16.4917H1.30614C1.30614 8.43762 7.7526 1.18505 16.6441 1.18505V0.416515ZM0.537608 16.4917C0.537608 19.2011 1.32725 21.9783 2.70264 24.5051L3.37765 24.1377C2.0542 21.7062 1.30614 19.0544 1.30614 16.4917H0.537608ZM2.71288 24.5228C2.89371 24.8167 2.92789 25.2104 2.78784 25.6051L3.51212 25.8621C3.71727 25.284 3.68869 24.6421 3.36741 24.12L2.71288 24.5228ZM2.78183 25.6235L1.73054 29.1382L2.46684 29.3585L3.51813 25.8437L2.78183 25.6235ZM1.72844 29.1455C1.57437 29.7002 1.73031 30.2202 2.09321 30.5547C2.4518 30.8853 2.97763 31.0029 3.50037 30.8389L3.27032 30.1056C2.99282 30.1927 2.75764 30.122 2.61413 29.9897C2.47492 29.8613 2.38765 29.6438 2.46894 29.3512L1.72844 29.1455ZM3.49476 30.8406L6.66432 29.8991L6.44549 29.1624L3.27593 30.1039L3.49476 30.8406ZM6.67442 29.896C7.35268 29.674 7.88357 29.9319 8.6951 30.4242L9.09372 29.7671C8.30164 29.2866 7.48312 28.8227 6.43538 29.1656L6.67442 29.896ZM8.69938 30.4268C11.0554 31.8145 13.9782 32.5197 16.6128 32.5197V31.7512C14.1007 31.7512 11.3152 31.0756 9.08944 29.7646L8.69938 30.4268ZM16.6128 32.5197C24.5767 32.5197 32.6879 26.3678 32.6879 16.4446H31.9194C31.9194 25.8839 24.2142 31.7512 16.6128 31.7512V32.5197ZM32.6879 16.4446C32.6879 7.89339 25.7773 0.416515 16.6441 0.416515V1.18505C25.3359 1.18505 31.9194 8.30069 31.9194 16.4446H32.6879Z" fill="url(#paint1_linear_8_408)" mask="url(#path-3-outside-1_8_408)"/>
</g>
<g filter="url(#filter2_bd_8_408)">
<mask id="path-5-inside-2_8_408" fill="white">
<path fill-rule="evenodd" clip-rule="evenodd" d="M9.34828 18.5149C8.24991 18.5149 7.33984 17.6048 7.33984 16.5065C7.33984 15.3924 8.23422 14.498 9.34828 14.498C10.4623 14.498 11.3567 15.3924 11.3567 16.5065C11.3567 17.6048 10.4623 18.4992 9.34828 18.5149ZM16.5823 18.5151C15.4683 18.4994 14.5739 17.6051 14.5739 16.491C14.5739 15.3926 15.484 14.4826 16.5823 14.4983C17.6964 14.4983 18.5908 15.3926 18.5908 16.5067C18.5908 17.6051 17.6964 18.5151 16.5823 18.5151ZM21.8072 16.5067C21.8072 17.605 22.7016 18.5151 23.8157 18.5151C24.9297 18.5151 25.8241 17.605 25.8241 16.5067C25.8241 15.3926 24.9297 14.4982 23.8157 14.4982C22.7016 14.4982 21.8072 15.3926 21.8072 16.5067Z"/>
</mask>
<path fill-rule="evenodd" clip-rule="evenodd" d="M9.34828 18.5149C8.24991 18.5149 7.33984 17.6048 7.33984 16.5065C7.33984 15.3924 8.23422 14.498 9.34828 14.498C10.4623 14.498 11.3567 15.3924 11.3567 16.5065C11.3567 17.6048 10.4623 18.4992 9.34828 18.5149ZM16.5823 18.5151C15.4683 18.4994 14.5739 17.6051 14.5739 16.491C14.5739 15.3926 15.484 14.4826 16.5823 14.4983C17.6964 14.4983 18.5908 15.3926 18.5908 16.5067C18.5908 17.6051 17.6964 18.5151 16.5823 18.5151ZM21.8072 16.5067C21.8072 17.605 22.7016 18.5151 23.8157 18.5151C24.9297 18.5151 25.8241 17.605 25.8241 16.5067C25.8241 15.3926 24.9297 14.4982 23.8157 14.4982C22.7016 14.4982 21.8072 15.3926 21.8072 16.5067Z" fill="url(#paint2_linear_8_408)"/>
<path d="M9.34828 18.5149V18.6686L9.35044 18.6686L9.34828 18.5149ZM16.5823 18.5151L16.5802 18.6688H16.5823V18.5151ZM16.5823 14.4983L16.5801 14.652H16.5823V14.4983ZM7.18614 16.5065C7.18614 17.6897 8.16502 18.6686 9.34828 18.6686V18.3612C8.3348 18.3612 7.49355 17.52 7.49355 16.5065H7.18614ZM9.34828 14.3443C8.14933 14.3443 7.18614 15.3075 7.18614 16.5065H7.49355C7.49355 15.4773 8.31911 14.6518 9.34828 14.6518V14.3443ZM11.5104 16.5065C11.5104 15.3075 10.5472 14.3443 9.34828 14.3443V14.6518C10.3774 14.6518 11.203 15.4773 11.203 16.5065H11.5104ZM9.35044 18.6686C10.5465 18.6518 11.5104 17.6909 11.5104 16.5065H11.203C11.203 17.5188 10.3782 18.3467 9.34611 18.3612L9.35044 18.6686ZM14.4202 16.491C14.4202 17.6903 15.3833 18.652 16.5802 18.6688L16.5845 18.3614C15.5532 18.3469 14.7276 17.5198 14.7276 16.491H14.4202ZM16.5845 14.3446C15.3991 14.3276 14.4202 15.3082 14.4202 16.491H14.7276C14.7276 15.4771 15.5688 14.6375 16.5801 14.652L16.5845 14.3446ZM18.7445 16.5067C18.7445 15.3077 17.7813 14.3446 16.5823 14.3446V14.652C17.6115 14.652 18.4371 15.4775 18.4371 16.5067H18.7445ZM16.5823 18.6688C17.7821 18.6688 18.7445 17.6892 18.7445 16.5067H18.4371C18.4371 17.5209 17.6107 18.3614 16.5823 18.3614V18.6688ZM23.8157 18.3614C22.7873 18.3614 21.9609 17.5209 21.9609 16.5067H21.6535C21.6535 17.6891 22.6159 18.6688 23.8157 18.6688V18.3614ZM25.6704 16.5067C25.6704 17.5209 24.8441 18.3614 23.8157 18.3614V18.6688C25.0154 18.6688 25.9778 17.6891 25.9778 16.5067H25.6704ZM23.8157 14.652C24.8448 14.652 25.6704 15.4775 25.6704 16.5067H25.9778C25.9778 15.3077 25.0146 14.3445 23.8157 14.3445V14.652ZM21.9609 16.5067C21.9609 15.4775 22.7865 14.652 23.8157 14.652V14.3445C22.6167 14.3445 21.6535 15.3077 21.6535 16.5067H21.9609Z" fill="url(#paint3_linear_8_408)" mask="url(#path-5-inside-2_8_408)"/>
</g>
<defs>
<filter id="filter0_f_8_408" x="11.3112" y="8.35223" width="28.9479" height="28.9479" filterUnits="userSpaceOnUse" color-interpolation-filters="sRGB">
<feFlood flood-opacity="0" result="BackgroundImageFix"/>
<feBlend mode="normal" in="SourceGraphic" in2="BackgroundImageFix" result="shape"/>
<feGaussianBlur stdDeviation="3.26627" result="effect1_foregroundBlur_8_408"/>
</filter>
<filter id="filter1_b_8_408" x="-8.68431" y="-8.8054" width="50.5942" height="50.5473" filterUnits="userSpaceOnUse" color-interpolation-filters="sRGB">
<feFlood flood-opacity="0" result="BackgroundImageFix"/>
<feGaussianBlur in="BackgroundImageFix" stdDeviation="4.6112"/>
<feComposite in2="SourceAlpha" operator="in" result="effect1_backgroundBlur_8_408"/>
<feBlend mode="normal" in="SourceGraphic" in2="effect1_backgroundBlur_8_408" result="shape"/>
</filter>
<filter id="filter2_bd_8_408" x="1.57585" y="8.73405" width="30.0124" height="15.5446" filterUnits="userSpaceOnUse" color-interpolation-filters="sRGB">
<feFlood flood-opacity="0" result="BackgroundImageFix"/>
<feGaussianBlur in="BackgroundImageFix" stdDeviation="2.882"/>
<feComposite in2="SourceAlpha" operator="in" result="effect1_backgroundBlur_8_408"/>
<feColorMatrix in="SourceAlpha" type="matrix" values="0 0 0 0 0 0 0 0 0 0 0 0 0 0 0 0 0 0 127 0" result="hardAlpha"/>
<feOffset dx="1.92133" dy="1.92133"/>
<feGaussianBlur stdDeviation="1.92133"/>
<feColorMatrix type="matrix" values="0 0 0 0 0.577356 0 0 0 0 0.359375 0 0 0 0 0.9375 0 0 0 0.5 0"/>
<feBlend mode="normal" in2="effect1_backgroundBlur_8_408" result="effect2_dropShadow_8_408"/>
<feBlend mode="normal" in="SourceGraphic" in2="effect2_dropShadow_8_408" result="shape"/>
</filter>
<linearGradient id="paint0_linear_8_408" x1="25.8988" y1="10.4072" x2="25.8988" y2="34.9634" gradientUnits="userSpaceOnUse">
<stop stop-color="#BC94FF"/>
<stop offset="1" stop-color="#9F66FF"/>
</linearGradient>
<linearGradient id="paint1_linear_8_408" x1="5.91734" y1="4.45131" x2="25.8992" y2="29.2365" gradientUnits="userSpaceOnUse">
<stop stop-color="white" stop-opacity="0.25"/>
<stop offset="1" stop-color="white" stop-opacity="0"/>
</linearGradient>
<linearGradient id="paint2_linear_8_408" x1="24.5135" y1="15.2234" x2="4.35571" y2="18.2477" gradientUnits="userSpaceOnUse">
<stop stop-color="white"/>
<stop offset="1" stop-color="white" stop-opacity="0.2"/>
</linearGradient>
<linearGradient id="paint3_linear_8_408" x1="10.2822" y1="14.966" x2="11.1747" y2="20.0521" gradientUnits="userSpaceOnUse">
<stop stop-color="white" stop-opacity="0.25"/>
<stop offset="1" stop-color="white" stop-opacity="0"/>
</linearGradient>
</defs>
</svg>
