<svg width="42" height="43" viewBox="0 0 42 43" fill="none" xmlns="http://www.w3.org/2000/svg">
<g filter="url(#filter0_b_8_436)">
<path d="M34.8071 18.4494C34.8071 27.6639 27.3377 35.1332 18.1233 35.1332C8.90879 35.1332 1.43945 27.6639 1.43945 18.4494C1.43945 9.23663 8.90879 1.76562 18.1233 1.76562C27.3377 1.76562 34.8071 9.23663 34.8071 18.4494Z" fill="url(#paint0_linear_8_436)"/>
</g>
<g opacity="0.5" filter="url(#filter1_f_8_436)">
<path d="M28.8147 18.4337C28.8147 24.3009 24.0587 29.0569 18.1915 29.0569C12.3243 29.0569 7.56836 24.3009 7.56836 18.4337C7.56836 12.5676 12.3243 7.81055 18.1915 7.81055C24.0587 7.81055 28.8147 12.5676 28.8147 18.4337Z" fill="#F41E59"/>
</g>
<g filter="url(#filter2_b_8_436)">
<path d="M41.3442 24.9865C41.3442 34.201 33.8748 41.6703 24.6604 41.6703C15.4459 41.6703 7.97656 34.201 7.97656 24.9865C7.97656 15.7737 15.4459 8.30273 24.6604 8.30273C33.8748 8.30273 41.3442 15.7737 41.3442 24.9865Z" fill="#FF749F" fill-opacity="0.35"/>
<path d="M24.6604 41.8746C33.9877 41.8746 41.5485 34.3138 41.5485 24.9865C41.5485 15.6609 33.9877 8.09844 24.6604 8.09844C15.3331 8.09844 7.77227 15.6609 7.77227 24.9865C7.77227 34.3138 15.3331 41.8746 24.6604 41.8746Z" stroke="url(#paint1_linear_8_436)" stroke-width="0.408583" stroke-linecap="round" stroke-linejoin="round"/>
</g>
<g filter="url(#filter3_bd_8_436)">
<path d="M31.3339 24.9951C31.3339 25.4168 31.2012 25.84 30.9358 26.179C30.886 26.2455 30.6538 26.5196 30.4713 26.698L30.3718 26.7953C28.9783 28.2727 25.5112 30.4945 23.7528 31.2064C23.7528 31.2226 22.7077 31.6459 22.21 31.6605H22.1436C21.3805 31.6605 20.6672 31.2405 20.3022 30.5594C20.1032 30.1847 19.9207 29.0981 19.9041 29.0836C19.7548 28.1089 19.6553 26.6169 19.6553 24.9789C19.6553 23.2615 19.7548 21.7029 19.9373 20.7461C19.9373 20.7299 20.1198 19.8541 20.2359 19.5622C20.4184 19.1422 20.7501 18.7838 21.1649 18.5567C21.4967 18.3962 21.845 18.3135 22.21 18.3135C22.5915 18.3313 23.3049 18.573 23.5869 18.6865C25.4448 19.4001 28.9949 21.7354 30.3552 23.1625C30.5874 23.3896 30.8363 23.6669 30.9026 23.7301C31.1846 24.0869 31.3339 24.5248 31.3339 24.9951Z" fill="url(#paint2_linear_8_436)"/>
<path d="M30.8714 26.1286L30.8715 26.1286C31.1247 25.8052 31.2522 25.4 31.2522 24.9951C31.2522 24.5444 31.1099 24.1261 30.8419 23.7851C30.8139 23.7578 30.7625 23.703 30.699 23.6354C30.6777 23.6128 30.6552 23.5887 30.6316 23.5638C30.5322 23.4583 30.4129 23.3333 30.2981 23.221L30.296 23.2189L30.296 23.2189C29.6224 22.5121 28.401 21.5756 27.1126 20.7251C25.8245 19.8748 24.4783 19.1164 23.5576 18.7628L23.5564 18.7623L23.5564 18.7623C23.4179 18.7066 23.1716 18.6186 22.9127 18.5425C22.6528 18.4661 22.3882 18.404 22.2081 18.3952C21.8573 18.3955 21.5223 18.4749 21.2023 18.6294C20.8041 18.8479 20.4862 19.192 20.3114 19.5936C20.256 19.7333 20.1829 20.0181 20.1226 20.2761C20.0927 20.4043 20.0664 20.5239 20.0475 20.6123C20.0381 20.6566 20.0306 20.6929 20.0255 20.7186L20.0197 20.7482L20.019 20.7522V20.7538L20.0176 20.7614C19.8365 21.7106 19.737 23.263 19.737 24.9789C19.737 26.6088 19.8357 28.0919 19.9834 29.0613C19.9839 29.0646 19.9844 29.0679 19.9849 29.0712L30.8714 26.1286ZM30.8714 26.1286L30.8704 26.13C30.8232 26.193 30.5938 26.464 30.4142 26.6395L30.3147 26.7368L30.3146 26.7368L30.3123 26.7392C29.6223 27.4708 28.4135 28.3914 27.1542 29.2196C25.8953 30.0475 24.5941 30.7776 23.7221 31.1307L23.671 31.1514V31.1565C23.6429 31.169 23.6021 31.186 23.5514 31.2063C23.4469 31.248 23.3021 31.3023 23.1418 31.3567C22.818 31.4665 22.4438 31.5716 22.2088 31.5788M30.8714 26.1286L22.2088 31.5788M22.2088 31.5788H22.1436C21.4104 31.5788 20.725 31.1752 20.3744 30.5209L22.2088 31.5788ZM20.0182 20.757C20.0182 20.757 20.0182 20.7566 20.0184 20.7556L20.0182 20.757Z" stroke="url(#paint3_linear_8_436)" stroke-width="0.163433"/>
</g>
<defs>
<filter id="filter0_b_8_436" x="-3.87213" y="-3.54595" width="43.9903" height="43.9903" filterUnits="userSpaceOnUse" color-interpolation-filters="sRGB">
<feFlood flood-opacity="0" result="BackgroundImageFix"/>
<feGaussianBlur in="BackgroundImageFix" stdDeviation="2.65579"/>
<feComposite in2="SourceAlpha" operator="in" result="effect1_backgroundBlur_8_436"/>
<feBlend mode="normal" in="SourceGraphic" in2="effect1_backgroundBlur_8_436" result="shape"/>
</filter>
<filter id="filter1_f_8_436" x="0.622447" y="0.864635" width="35.1379" height="35.1379" filterUnits="userSpaceOnUse" color-interpolation-filters="sRGB">
<feFlood flood-opacity="0" result="BackgroundImageFix"/>
<feBlend mode="normal" in="SourceGraphic" in2="BackgroundImageFix" result="shape"/>
<feGaussianBlur stdDeviation="3.47296" result="effect1_foregroundBlur_8_436"/>
</filter>
<filter id="filter2_b_8_436" x="-2.23763" y="-1.91146" width="53.7966" height="53.7966" filterUnits="userSpaceOnUse" color-interpolation-filters="sRGB">
<feFlood flood-opacity="0" result="BackgroundImageFix"/>
<feGaussianBlur in="BackgroundImageFix" stdDeviation="4.903"/>
<feComposite in2="SourceAlpha" operator="in" result="effect1_backgroundBlur_8_436"/>
<feBlend mode="normal" in="SourceGraphic" in2="effect1_backgroundBlur_8_436" result="shape"/>
</filter>
<filter id="filter3_bd_8_436" x="13.5265" y="12.1847" width="23.9362" height="25.6042" filterUnits="userSpaceOnUse" color-interpolation-filters="sRGB">
<feFlood flood-opacity="0" result="BackgroundImageFix"/>
<feGaussianBlur in="BackgroundImageFix" stdDeviation="3.06437"/>
<feComposite in2="SourceAlpha" operator="in" result="effect1_backgroundBlur_8_436"/>
<feColorMatrix in="SourceAlpha" type="matrix" values="0 0 0 0 0 0 0 0 0 0 0 0 0 0 0 0 0 0 127 0" result="hardAlpha"/>
<feOffset dx="2.04292" dy="2.04292"/>
<feGaussianBlur stdDeviation="2.04292"/>
<feColorMatrix type="matrix" values="0 0 0 0 1 0 0 0 0 0.321569 0 0 0 0 0.54902 0 0 0 0.5 0"/>
<feBlend mode="normal" in2="effect1_backgroundBlur_8_436" result="effect2_dropShadow_8_436"/>
<feBlend mode="normal" in="SourceGraphic" in2="effect2_dropShadow_8_436" result="shape"/>
</filter>
<linearGradient id="paint0_linear_8_436" x1="20.5798" y1="20.6839" x2="-8.74001" y2="34.9398" gradientUnits="userSpaceOnUse">
<stop stop-color="#FF759F"/>
<stop offset="1" stop-color="#FF196E"/>
</linearGradient>
<linearGradient id="paint1_linear_8_436" x1="13.2881" y1="12.1901" x2="34.5731" y2="38.5521" gradientUnits="userSpaceOnUse">
<stop stop-color="white" stop-opacity="0.25"/>
<stop offset="1" stop-color="white" stop-opacity="0"/>
</linearGradient>
<linearGradient id="paint2_linear_8_436" x1="30.5059" y1="20.7237" x2="17.4938" y2="21.0949" gradientUnits="userSpaceOnUse">
<stop stop-color="white"/>
<stop offset="1" stop-color="white" stop-opacity="0.2"/>
</linearGradient>
<linearGradient id="paint3_linear_8_436" x1="21.5143" y1="19.8684" x2="30.1958" y2="29.2766" gradientUnits="userSpaceOnUse">
<stop stop-color="white" stop-opacity="0.25"/>
<stop offset="1" stop-color="white" stop-opacity="0"/>
</linearGradient>
</defs>
</svg>
