<svg width="35" height="42" viewBox="0 0 35 42" fill="none" xmlns="http://www.w3.org/2000/svg">
<path d="M10.7158 18.4068C9.23396 17.1232 8.49303 16.4814 8.05687 15.7446C7.31385 14.4893 7.1251 12.9819 7.53565 11.5821C7.77665 10.7605 8.33646 9.95578 9.45608 8.34644C10.5757 6.7371 11.1355 5.93242 11.8221 5.42076C12.9918 4.54912 14.4707 4.20197 15.9061 4.46215C16.7486 4.61487 17.608 5.08642 19.3268 6.02953L24.2142 8.7113C26.8324 10.148 28.1415 10.8663 28.8485 11.8882C29.6056 12.9823 29.9202 14.3225 29.729 15.6392C29.5505 16.869 28.6977 18.0948 26.9922 20.5463C25.2866 22.9979 24.4338 24.2237 23.3429 24.8187C22.1748 25.4557 20.8088 25.6268 19.5197 25.2974C18.3157 24.9898 17.187 24.0121 14.9296 22.0568L10.7158 18.4068Z" fill="url(#paint0_linear_8_424)"/>
<g opacity="0.5" filter="url(#filter0_f_8_424)">
<path d="M13.2009 16.8278C11.4689 15.3275 11.1476 12.7622 12.4563 10.8812C13.7649 9.00016 16.2818 8.40938 18.2907 9.5117L21.1796 11.0969C23.6964 12.4779 24.4612 15.7358 22.8217 18.0924C21.1821 20.449 17.8616 20.8648 15.6916 18.9852L13.2009 16.8278Z" fill="#0062FF"/>
</g>
<g filter="url(#filter1_b_8_424)">
<mask id="path-3-outside-1_8_424" maskUnits="userSpaceOnUse" x="0.0253906" y="10.8164" width="35" height="32" fill="black">
<rect fill="white" x="0.0253906" y="10.8164" width="35" height="32"/>
<path d="M32.8514 29.137C31.494 29.137 30.3896 28.0427 30.3896 26.6977C30.3896 25.3511 31.494 24.2568 32.8514 24.2568C33.1804 24.2568 33.4962 24.1274 33.7277 23.8981C33.9608 23.6671 34.0914 23.3542 34.0914 23.0282L34.0897 18.6018C34.0897 14.8602 31.0162 11.8164 27.2401 11.8164H7.87666C4.10053 11.8164 1.02704 14.8602 1.02704 18.6018L1.02539 23.1707C1.02539 23.4967 1.156 23.8096 1.38912 24.0406C1.62058 24.2699 1.93636 24.3994 2.26537 24.3994C3.66902 24.3994 4.72713 25.3872 4.72713 26.6977C4.72713 28.0427 3.62272 29.137 2.26537 29.137C1.5809 29.137 1.02539 29.6874 1.02539 30.3656V34.7888C1.02539 38.5304 4.09722 41.5758 7.87501 41.5758H27.2418C31.0195 41.5758 34.0914 38.5304 34.0914 34.7888V30.3656C34.0914 29.6874 33.5359 29.137 32.8514 29.137Z"/>
</mask>
<path d="M32.8514 29.137C31.494 29.137 30.3896 28.0427 30.3896 26.6977C30.3896 25.3511 31.494 24.2568 32.8514 24.2568C33.1804 24.2568 33.4962 24.1274 33.7277 23.8981C33.9608 23.6671 34.0914 23.3542 34.0914 23.0282L34.0897 18.6018C34.0897 14.8602 31.0162 11.8164 27.2401 11.8164H7.87666C4.10053 11.8164 1.02704 14.8602 1.02704 18.6018L1.02539 23.1707C1.02539 23.4967 1.156 23.8096 1.38912 24.0406C1.62058 24.2699 1.93636 24.3994 2.26537 24.3994C3.66902 24.3994 4.72713 25.3872 4.72713 26.6977C4.72713 28.0427 3.62272 29.137 2.26537 29.137C1.5809 29.137 1.02539 29.6874 1.02539 30.3656V34.7888C1.02539 38.5304 4.09722 41.5758 7.87501 41.5758H27.2418C31.0195 41.5758 34.0914 38.5304 34.0914 34.7888V30.3656C34.0914 29.6874 33.5359 29.137 32.8514 29.137Z" fill="#3EA0FE" fill-opacity="0.35"/>
<path d="M32.8514 29.5419C33.075 29.5419 33.2563 29.3606 33.2563 29.137C33.2563 28.9134 33.075 28.7321 32.8514 28.7321V29.5419ZM33.7277 23.8981L33.4427 23.6105V23.6105L33.7277 23.8981ZM34.0914 23.0282H34.4963V23.028L34.0914 23.0282ZM34.0897 18.6018H33.6848V18.6019L34.0897 18.6018ZM1.02704 18.6018L1.43193 18.6019V18.6018H1.02704ZM1.02539 23.1707L0.620501 23.1706V23.1707H1.02539ZM1.38912 24.0406L1.6741 23.753L1.38912 24.0406ZM32.8514 28.7321C32.6278 28.7321 32.4465 28.9134 32.4465 29.137C32.4465 29.3606 32.6278 29.5419 32.8514 29.5419V28.7321ZM32.8514 28.7321C31.7141 28.7321 30.7945 27.8156 30.7945 26.6977H29.9848C29.9848 28.2698 31.2739 29.5419 32.8514 29.5419V28.7321ZM30.7945 26.6977C30.7945 25.5781 31.7143 24.6617 32.8514 24.6617V23.8519C31.2738 23.8519 29.9848 25.1242 29.9848 26.6977H30.7945ZM32.8514 24.6617C33.2862 24.6617 33.7046 24.4909 34.0126 24.1857L33.4427 23.6105C33.2877 23.764 33.0747 23.8519 32.8514 23.8519V24.6617ZM34.0126 24.1857C34.3221 23.879 34.4963 23.4627 34.4963 23.0282H33.6865C33.6865 23.2456 33.5994 23.4551 33.4427 23.6105L34.0126 24.1857ZM34.4963 23.028L34.4946 18.6016L33.6848 18.6019L33.6865 23.0283L34.4963 23.028ZM34.4946 18.6018C34.4946 14.6329 31.2362 11.4115 27.2401 11.4115V12.2213C30.7963 12.2213 33.6848 15.0874 33.6848 18.6018H34.4946ZM27.2401 11.4115H7.87666V12.2213H27.2401V11.4115ZM7.87666 11.4115C3.88055 11.4115 0.622154 14.6329 0.622154 18.6018H1.43193C1.43193 15.0874 4.3205 12.2213 7.87666 12.2213V11.4115ZM0.622154 18.6016L0.620501 23.1706L1.43028 23.1709L1.43193 18.6019L0.622154 18.6016ZM0.620501 23.1707C0.620501 23.6053 0.79465 24.0215 1.10413 24.3282L1.6741 23.753C1.51735 23.5977 1.43028 23.3882 1.43028 23.1707H0.620501ZM1.10413 24.3282C1.41212 24.6334 1.83062 24.8042 2.26537 24.8042V23.9945C2.0421 23.9945 1.82903 23.9065 1.6741 23.753L1.10413 24.3282ZM2.26537 24.8042C3.47205 24.8042 4.32224 25.6365 4.32224 26.6977H5.13202C5.13202 25.1378 3.86599 23.9945 2.26537 23.9945V24.8042ZM4.32224 26.6977C4.32224 27.8156 3.40262 28.7321 2.26537 28.7321V29.5419C3.84283 29.5419 5.13202 28.2698 5.13202 26.6977H4.32224ZM2.26537 28.7321C1.3608 28.7321 0.620501 29.4603 0.620501 30.3656H1.43028C1.43028 29.9145 1.801 29.5419 2.26537 29.5419V28.7321ZM0.620501 30.3656V34.7888H1.43028V30.3656H0.620501ZM0.620501 34.7888C0.620501 38.7574 3.87705 41.9807 7.87501 41.9807V41.1709C4.31739 41.1709 1.43028 38.3033 1.43028 34.7888H0.620501ZM7.87501 41.9807H27.2418V41.1709H7.87501V41.9807ZM27.2418 41.9807C31.2397 41.9807 34.4963 38.7574 34.4963 34.7888H33.6865C33.6865 38.3033 30.7994 41.1709 27.2418 41.1709V41.9807ZM34.4963 34.7888V30.3656H33.6865V34.7888H34.4963ZM34.4963 30.3656C34.4963 29.4603 33.756 28.7321 32.8514 28.7321V29.5419C33.3158 29.5419 33.6865 29.9145 33.6865 30.3656H34.4963Z" fill="url(#paint1_linear_8_424)" mask="url(#path-3-outside-1_8_424)"/>
</g>
<g filter="url(#filter2_bd_8_424)">
<path d="M23.2301 26.0154L21.2809 27.9134L21.7421 30.5967C21.8215 31.0613 21.6347 31.5193 21.2527 31.7937C20.8741 32.0715 20.3798 32.1062 19.9632 31.8847L17.5576 30.6199L15.1471 31.8863C14.9686 31.9805 14.7735 32.0301 14.58 32.0301C14.3271 32.0301 14.0774 31.9508 13.8625 31.7954C13.4822 31.5193 13.2954 31.0613 13.3748 30.5967L13.8344 27.9134L11.8852 26.0154C11.5479 25.6881 11.4305 25.207 11.576 24.7589C11.7231 24.3125 12.1034 23.9951 12.568 23.929L15.2562 23.5371L16.4615 21.0952C16.6715 20.6753 17.0914 20.4141 17.5576 20.4141H17.5609C18.0288 20.4157 18.4488 20.6769 18.6554 21.0969L19.8607 23.5371L22.5539 23.9306C23.0135 23.9951 23.3938 24.3125 23.5393 24.7589C23.6864 25.207 23.569 25.6881 23.2301 26.0154Z" fill="url(#paint2_linear_8_424)"/>
<path d="M23.202 25.9863L23.2018 25.9864L21.2526 27.8844L21.2373 27.8993L21.2409 27.9203L21.7022 30.6035C21.779 31.053 21.5984 31.4955 21.2291 31.7608L21.2288 31.7611C20.8628 32.0296 20.3852 32.0632 19.9822 31.8489L19.982 31.8488L17.5765 30.584L17.5576 30.5741L17.5388 30.584L15.1283 31.8505L15.1282 31.8505C14.9552 31.9418 14.7666 31.9897 14.58 31.9897C14.3357 31.9897 14.0943 31.913 13.8863 31.7626C13.5185 31.4956 13.3379 31.053 13.4147 30.6036C13.4147 30.6036 13.4147 30.6036 13.4147 30.6035L13.8743 27.9203L13.8779 27.8993L13.8626 27.8844L11.9134 25.9864L11.9134 25.9864C11.5873 25.6699 11.4737 25.205 11.6145 24.7715C11.7568 24.3398 12.1243 24.033 12.5737 23.9691L12.5738 23.969L15.2621 23.5772L15.2831 23.5741L15.2925 23.5551L16.4977 21.1133C16.4977 21.1133 16.4977 21.1133 16.4977 21.1132C16.7009 20.7069 17.1069 20.4546 17.5576 20.4546H17.5609C18.0134 20.4562 18.4193 20.7087 18.6191 21.1148L18.6191 21.1148L19.8244 23.5551L19.8338 23.5741L19.8548 23.5772L22.548 23.9707L22.5483 23.9707C22.9925 24.0331 23.3601 24.3398 23.5008 24.7715L23.5008 24.7716C23.6431 25.205 23.5296 25.6698 23.202 25.9863Z" stroke="url(#paint3_linear_8_424)" stroke-opacity="0.5" stroke-width="0.0809779"/>
</g>
<defs>
<filter id="filter0_f_8_424" x="3.55553" y="0.861192" width="28.2307" height="27.4016" filterUnits="userSpaceOnUse" color-interpolation-filters="sRGB">
<feFlood flood-opacity="0" result="BackgroundImageFix"/>
<feBlend mode="normal" in="SourceGraphic" in2="BackgroundImageFix" result="shape"/>
<feGaussianBlur stdDeviation="4.0489" result="effect1_foregroundBlur_8_424"/>
</filter>
<filter id="filter1_b_8_424" x="-9.09723" y="1.69378" width="53.3107" height="50.004" filterUnits="userSpaceOnUse" color-interpolation-filters="sRGB">
<feFlood flood-opacity="0" result="BackgroundImageFix"/>
<feGaussianBlur in="BackgroundImageFix" stdDeviation="4.85868"/>
<feComposite in2="SourceAlpha" operator="in" result="effect1_backgroundBlur_8_424"/>
<feBlend mode="normal" in="SourceGraphic" in2="effect1_backgroundBlur_8_424" result="shape"/>
</filter>
<filter id="filter2_bd_8_424" x="5.4413" y="14.3407" width="24.2336" height="23.7629" filterUnits="userSpaceOnUse" color-interpolation-filters="sRGB">
<feFlood flood-opacity="0" result="BackgroundImageFix"/>
<feGaussianBlur in="BackgroundImageFix" stdDeviation="3.03667"/>
<feComposite in2="SourceAlpha" operator="in" result="effect1_backgroundBlur_8_424"/>
<feColorMatrix in="SourceAlpha" type="matrix" values="0 0 0 0 0 0 0 0 0 0 0 0 0 0 0 0 0 0 127 0" result="hardAlpha"/>
<feOffset dx="2.02445" dy="2.02445"/>
<feGaussianBlur stdDeviation="2.02445"/>
<feColorMatrix type="matrix" values="0 0 0 0 0.15375 0 0 0 0 0.522433 0 0 0 0 0.9 0 0 0 0.5 0"/>
<feBlend mode="normal" in2="effect1_backgroundBlur_8_424" result="effect2_dropShadow_8_424"/>
<feBlend mode="normal" in="SourceGraphic" in2="effect2_dropShadow_8_424" result="shape"/>
</filter>
<linearGradient id="paint0_linear_8_424" x1="13.9048" y1="1.95181" x2="12.0467" y2="26.1543" gradientUnits="userSpaceOnUse">
<stop stop-color="#39AFFD"/>
<stop offset="1" stop-color="#477FFF"/>
</linearGradient>
<linearGradient id="paint1_linear_8_424" x1="6.28896" y1="15.2834" x2="30.4354" y2="42.6138" gradientUnits="userSpaceOnUse">
<stop stop-color="white" stop-opacity="0.25"/>
<stop offset="1" stop-color="white" stop-opacity="0"/>
</linearGradient>
<linearGradient id="paint2_linear_8_424" x1="22.7446" y1="22.5117" x2="9.28211" y2="22.9684" gradientUnits="userSpaceOnUse">
<stop stop-color="white"/>
<stop offset="1" stop-color="white" stop-opacity="0.2"/>
</linearGradient>
<linearGradient id="paint3_linear_8_424" x1="12.8167" y1="24.3107" x2="23.0801" y2="24.3697" gradientUnits="userSpaceOnUse">
<stop stop-color="white"/>
<stop offset="1" stop-color="white" stop-opacity="0"/>
</linearGradient>
</defs>
</svg>
