<svg width="37" height="36" viewBox="0 0 37 36" fill="none" xmlns="http://www.w3.org/2000/svg">
<path d="M30.9902 4.91107L21.2185 2.29274C17.6741 1.34301 15.0543 2.86541 14.1014 6.42152L10.8742 18.4657C9.9057 22.0801 11.4258 24.6618 14.9703 25.6115L24.742 28.2298C28.3436 29.1949 30.8926 27.7035 31.8611 24.0891L35.0883 12.0449C36.0411 8.48883 34.5918 5.87611 30.9902 4.91107Z" fill="url(#paint0_linear_8_382)"/>
<g opacity="0.5" filter="url(#filter0_f_8_382)">
<path d="M28.4375 8.20906L21.7799 6.42517C19.365 5.77811 17.5801 6.81534 16.9309 9.23815L14.7322 17.4439C14.0724 19.9065 15.108 21.6654 17.5229 22.3125L24.1805 24.0964C26.6343 24.7539 28.3709 23.7378 29.0308 21.2752L31.2295 13.0694C31.8787 10.6466 30.8912 8.86656 28.4375 8.20906Z" fill="#39B93A"/>
</g>
<g filter="url(#filter1_b_8_382)">
<mask id="path-3-outside-1_8_382" maskUnits="userSpaceOnUse" x="-0.480469" y="6.25195" width="30" height="30" fill="black">
<rect fill="white" x="-0.480469" y="6.25195" width="30" height="30"/>
<path d="M20.4351 7.25195H8.39408C3.68602 7.25195 0.519531 10.5573 0.519531 15.4737V26.8203C0.519531 31.7228 3.68602 35.0282 8.39408 35.0282H20.4351C25.1431 35.0282 28.2957 31.7228 28.2957 26.8203V15.4737C28.2957 10.5573 25.1431 7.25195 20.4351 7.25195Z"/>
</mask>
<path d="M20.4351 7.25195H8.39408C3.68602 7.25195 0.519531 10.5573 0.519531 15.4737V26.8203C0.519531 31.7228 3.68602 35.0282 8.39408 35.0282H20.4351C25.1431 35.0282 28.2957 31.7228 28.2957 26.8203V15.4737C28.2957 10.5573 25.1431 7.25195 20.4351 7.25195Z" fill="#72DC60" fill-opacity="0.35"/>
<path d="M20.4351 7.59207C20.6229 7.59207 20.7752 7.43979 20.7752 7.25195C20.7752 7.06411 20.6229 6.91184 20.4351 6.91184V7.59207ZM20.4351 6.91184C20.2472 6.91184 20.0949 7.06411 20.0949 7.25195C20.0949 7.43979 20.2472 7.59207 20.4351 7.59207V6.91184ZM20.4351 6.91184H8.39408V7.59207H20.4351V6.91184ZM8.39408 6.91184C5.95748 6.91184 3.89666 7.76905 2.44566 9.28392C0.995885 10.7975 0.179415 12.9418 0.179415 15.4737H0.859648C0.859648 13.0892 1.62642 11.1226 2.9369 9.75445C4.24617 8.38754 6.12262 7.59207 8.39408 7.59207V6.91184ZM0.179415 15.4737V26.8203H0.859648V15.4737H0.179415ZM0.179415 26.8203C0.179415 29.3455 0.996038 31.4863 2.4458 32.9981C3.89676 34.5111 5.95749 35.3683 8.39408 35.3683V34.688C6.12261 34.688 4.24607 33.8925 2.93676 32.5272C1.62627 31.1607 0.859648 29.1976 0.859648 26.8203H0.179415ZM8.39408 35.3683H20.4351V34.688H8.39408V35.3683ZM20.4351 35.3683C22.8717 35.3683 24.9292 34.511 26.3767 32.9978C27.823 31.4858 28.6358 29.3451 28.6358 26.8203H27.9556C27.9556 29.198 27.1922 31.1612 25.8851 32.5276C24.5794 33.8926 22.7065 34.688 20.4351 34.688V35.3683ZM28.6358 26.8203V15.4737H27.9556V26.8203H28.6358ZM28.6358 15.4737C28.6358 12.9422 27.8231 10.798 26.3768 9.28423C24.9293 7.7691 22.8717 6.91184 20.4351 6.91184V7.59207C22.7065 7.59207 24.5793 8.38749 25.885 9.75414C27.1921 11.1222 27.9556 13.0888 27.9556 15.4737H28.6358Z" fill="url(#paint1_linear_8_382)" mask="url(#path-3-outside-1_8_382)"/>
</g>
<g filter="url(#filter2_bd_8_382)">
<mask id="path-5-inside-2_8_382" fill="white">
<path d="M12.7586 25.6513C12.4475 25.6513 12.1364 25.5333 11.8989 25.2958L8.6033 22.0001C8.12833 21.5252 8.12833 20.7558 8.6033 20.2822C9.07827 19.8072 9.84629 19.8058 10.3213 20.2808L12.7586 22.7181L18.4916 16.9851C18.9666 16.5102 19.7346 16.5102 20.2096 16.9851C20.6846 17.4601 20.6846 18.2295 20.2096 18.7045L13.6183 25.2958C13.3808 25.5333 13.0697 25.6513 12.7586 25.6513Z"/>
</mask>
<path d="M12.7586 25.6513C12.4475 25.6513 12.1364 25.5333 11.8989 25.2958L8.6033 22.0001C8.12833 21.5252 8.12833 20.7558 8.6033 20.2822C9.07827 19.8072 9.84629 19.8058 10.3213 20.2808L12.7586 22.7181L18.4916 16.9851C18.9666 16.5102 19.7346 16.5102 20.2096 16.9851C20.6846 17.4601 20.6846 18.2295 20.2096 18.7045L13.6183 25.2958C13.3808 25.5333 13.0697 25.6513 12.7586 25.6513Z" fill="url(#paint2_linear_8_382)"/>
<path d="M8.6033 20.2822L8.65133 20.3303L8.6514 20.3303L8.6033 20.2822ZM12.7586 22.7181L12.7105 22.7662L12.7586 22.8143L12.8067 22.7662L12.7586 22.7181ZM20.2096 18.7045L20.1615 18.6564L20.2096 18.7045ZM13.6183 25.2958L13.6664 25.3439L13.6183 25.2958ZM12.7586 25.5833C12.4647 25.5833 12.1712 25.4718 11.947 25.2477L11.8508 25.3439C12.1017 25.5947 12.4303 25.7193 12.7586 25.7193V25.5833ZM11.947 25.2477L8.6514 21.952L8.5552 22.0482L11.8508 25.3439L11.947 25.2477ZM8.6514 21.952C8.20295 21.5036 8.20305 20.7773 8.65133 20.3303L8.55527 20.234C8.0536 20.7342 8.0537 21.5467 8.5552 22.0482L8.6514 21.952ZM8.6514 20.3303C9.09991 19.8818 9.82485 19.8806 10.2732 20.3289L10.3694 20.2327C9.86772 19.731 9.05664 19.7326 8.5552 20.2341L8.6514 20.3303ZM10.2732 20.3289L12.7105 22.7662L12.8067 22.67L10.3694 20.2327L10.2732 20.3289ZM12.8067 22.7662L18.5397 17.0332L18.4435 16.937L12.7105 22.67L12.8067 22.7662ZM18.5397 17.0332C18.9881 16.5848 19.7131 16.5848 20.1615 17.0332L20.2577 16.937C19.7561 16.4355 18.9451 16.4355 18.4435 16.937L18.5397 17.0332ZM20.1615 17.0332C20.6099 17.4816 20.6099 18.208 20.1615 18.6564L20.2577 18.7526C20.7592 18.251 20.7592 17.4386 20.2577 16.937L20.1615 17.0332ZM20.1615 18.6564L13.5702 25.2477L13.6664 25.3439L20.2577 18.7526L20.1615 18.6564ZM13.5702 25.2477C13.346 25.4718 13.0525 25.5833 12.7586 25.5833V25.7193C13.0869 25.7193 13.4156 25.5947 13.6664 25.3439L13.5702 25.2477Z" fill="url(#paint3_linear_8_382)" fill-opacity="0.5" mask="url(#path-5-inside-2_8_382)"/>
</g>
<defs>
<filter id="filter0_f_8_382" x="9.77548" y="1.47469" width="26.41" height="27.5789" filterUnits="userSpaceOnUse" color-interpolation-filters="sRGB">
<feFlood flood-opacity="0" result="BackgroundImageFix"/>
<feBlend mode="normal" in="SourceGraphic" in2="BackgroundImageFix" result="shape"/>
<feGaussianBlur stdDeviation="2.38082" result="effect1_foregroundBlur_8_382"/>
</filter>
<filter id="filter1_b_8_382" x="-7.98311" y="-1.25069" width="44.7817" height="44.7817" filterUnits="userSpaceOnUse" color-interpolation-filters="sRGB">
<feFlood flood-opacity="0" result="BackgroundImageFix"/>
<feGaussianBlur in="BackgroundImageFix" stdDeviation="4.0814"/>
<feComposite in2="SourceAlpha" operator="in" result="effect1_backgroundBlur_8_382"/>
<feBlend mode="normal" in="SourceGraphic" in2="effect1_backgroundBlur_8_382" result="shape"/>
</filter>
<filter id="filter2_bd_8_382" x="3.14532" y="11.5272" width="22.5219" height="19.226" filterUnits="userSpaceOnUse" color-interpolation-filters="sRGB">
<feFlood flood-opacity="0" result="BackgroundImageFix"/>
<feGaussianBlur in="BackgroundImageFix" stdDeviation="2.55088"/>
<feComposite in2="SourceAlpha" operator="in" result="effect1_backgroundBlur_8_382"/>
<feColorMatrix in="SourceAlpha" type="matrix" values="0 0 0 0 0 0 0 0 0 0 0 0 0 0 0 0 0 0 127 0" result="hardAlpha"/>
<feOffset dx="1.70058" dy="1.70058"/>
<feGaussianBlur stdDeviation="1.70058"/>
<feColorMatrix type="matrix" values="0 0 0 0 0.454902 0 0 0 0 0.870588 0 0 0 0 0.376471 0 0 0 0.5 0"/>
<feBlend mode="normal" in2="effect1_backgroundBlur_8_382" result="effect2_dropShadow_8_382"/>
<feBlend mode="normal" in="SourceGraphic" in2="effect2_dropShadow_8_382" result="shape"/>
</filter>
<linearGradient id="paint0_linear_8_382" x1="36.5972" y1="6.41346" x2="15.287" y2="19.4559" gradientUnits="userSpaceOnUse">
<stop stop-color="#9BF763"/>
<stop offset="1" stop-color="#26AB5B"/>
</linearGradient>
<linearGradient id="paint1_linear_8_382" x1="4.94105" y1="10.4879" x2="22.6593" y2="32.4324" gradientUnits="userSpaceOnUse">
<stop stop-color="white" stop-opacity="0.25"/>
<stop offset="1" stop-color="white" stop-opacity="0"/>
</linearGradient>
<linearGradient id="paint2_linear_8_382" x1="19.6924" y1="18.2582" x2="5.98309" y2="18.8685" gradientUnits="userSpaceOnUse">
<stop stop-color="white"/>
<stop offset="1" stop-color="white" stop-opacity="0.2"/>
</linearGradient>
<linearGradient id="paint3_linear_8_382" x1="9.57407" y1="19.6555" x2="20.0341" y2="19.7343" gradientUnits="userSpaceOnUse">
<stop stop-color="white"/>
<stop offset="1" stop-color="white" stop-opacity="0"/>
</linearGradient>
</defs>
</svg>
