<svg width="906" height="864" viewBox="0 0 906 864" fill="none" xmlns="http://www.w3.org/2000/svg">
<g opacity="0.5">
<path d="M63.4908 -5.94681C36.4848 -45.7876 65.0248 -99.6123 113.156 -99.6123H1893.71V863.64H833.218C720.465 863.64 615.046 807.742 551.782 714.41L63.4908 -5.94681Z" fill="#F9F8FF"/>
<path d="M63.4908 -5.94681C36.4848 -45.7876 65.0248 -99.6123 113.156 -99.6123H1893.71V863.64H833.218C720.465 863.64 615.046 807.742 551.782 714.41L63.4908 -5.94681Z" fill="#8B3DFF"/>
<mask id="mask0_4401_15718" style="mask-type:alpha" maskUnits="userSpaceOnUse" x="53" y="-100" width="1841" height="964">
<path d="M63.4908 -5.94681C36.4848 -45.7876 65.0248 -99.6123 113.156 -99.6123H1893.71V863.64H833.218C720.465 863.64 615.046 807.742 551.782 714.41L63.4908 -5.94681Z" fill="#F9F8FF"/>
</mask>
<g mask="url(#mask0_4401_15718)">
<ellipse cx="477.727" cy="494.165" rx="477.727" ry="494.165" transform="matrix(0.920144 -0.39158 0.361103 0.932526 517.395 -230.395)" fill="#D3B5FF" style="mix-blend-mode:multiply"/>
</g>
</g>
</svg>
