<svg width="58" height="58" viewBox="0 0 58 58" fill="none" xmlns="http://www.w3.org/2000/svg">
<rect opacity="0.2" width="58" height="58" rx="10" fill="#C1B1E4"/>
<path fill-rule="evenodd" clip-rule="evenodd" d="M39.0267 33.2332C39.373 32.8869 39.8425 32.6924 40.3322 32.6924H43.1542C44.1738 32.6924 45.0003 33.5189 45.0003 34.5385V43.154C45.0003 44.1736 44.1738 45.0001 43.1542 45.0001H29.0003C28.3206 45.0001 27.7695 44.4491 27.7695 43.7693C27.7695 43.0896 28.3206 42.5385 29.0003 42.5385H32.6926V40.332C32.6926 39.8422 32.8871 39.3728 33.2334 39.0265L39.0267 33.2332ZM35.1542 42.5385H42.5387V35.154H40.587L35.1542 40.5868V42.5385Z" fill="#9666FF"/>
<path fill-rule="evenodd" clip-rule="evenodd" d="M33.9234 19.6637L30.2311 23.356V26.0287L34.5387 30.3365L39.5674 25.3078L33.9234 19.6637ZM32.7982 32.077L28.1301 36.7451C27.6494 37.2258 27.6494 38.0051 28.1301 38.4858C28.6107 38.9663 29.3899 38.9663 29.8706 38.4858L41.7431 26.6131C42.4642 25.8922 42.4642 24.7233 41.7431 24.0023L35.2289 17.488C34.5079 16.767 33.339 16.767 32.6179 17.488L28.3103 21.7957C27.9641 22.1419 27.7695 22.6115 27.7695 23.1011V26.2836C27.7695 26.7733 27.9641 27.2429 28.3103 27.589L32.7982 32.077Z" fill="#9666FF"/>
<path fill-rule="evenodd" clip-rule="evenodd" d="M13 14.8461C13 13.8265 13.8266 13 14.8462 13H23.4615C24.4811 13 25.3077 13.8266 25.3077 14.8462V43.1539C25.3077 44.1735 24.4811 45 23.4615 45H14.8461C13.8265 45 13 44.1735 13 43.1539V14.8461ZM15.4615 15.4615V42.5384H22.8462V15.4615H15.4615Z" fill="#9666FF"/>
<path d="M21.0009 38.8461C21.0009 39.8657 20.1744 40.6923 19.1547 40.6923C18.1351 40.6923 17.3086 39.8657 17.3086 38.8461C17.3086 37.8265 18.1351 37 19.1547 37C20.1744 37 21.0009 37.8265 21.0009 38.8461Z" fill="#9666FF"/>
</svg>
