<svg width="58" height="58" viewBox="0 0 58 58" fill="none" xmlns="http://www.w3.org/2000/svg">
<rect opacity="0.23" width="58" height="58" rx="10" fill="#C6D88F"/>
<path d="M28 21C28.5523 21 29 21.4477 29 22V29H34C34.5523 29 35 29.4477 35 30C35 30.5523 34.5523 31 34 31H28C27.4477 31 27 30.5523 27 30V22C27 21.4477 27.4477 21 28 21Z" fill="#96A95B"/>
<path fill-rule="evenodd" clip-rule="evenodd" d="M15 29C15 21.268 21.268 15 29 15C36.732 15 43 21.268 43 29C43 36.732 36.732 43 29 43C21.268 43 15 36.732 15 29ZM29 17C22.3726 17 17 22.3726 17 29C17 35.6274 22.3726 41 29 41C35.6274 41 41 35.6274 41 29C41 22.3726 35.6274 17 29 17Z" fill="#96A95B"/>
</svg>
