<svg width="92" height="93" viewBox="0 0 92 93" fill="none" xmlns="http://www.w3.org/2000/svg">
<g clip-path="url(#clip0_261_5363)">
<g clip-path="url(#clip1_261_5363)">
<g clip-path="url(#clip2_261_5363)">
<path d="M91.8143 0.827148H0.625V92.0165H91.8143V0.827148Z" fill="white"/>
<mask id="mask0_261_5363" style="mask-type:luminance" maskUnits="userSpaceOnUse" x="4" y="8" width="83" height="78">
<path d="M86.8826 8.56934H4.42188V85.277H86.8826V8.56934Z" fill="white"/>
</mask>
<g mask="url(#mask0_261_5363)">
<path d="M54.2867 50.7586L48.5336 8.56934H48.1039C27.1844 8.63041 10.2408 25.574 10.1797 46.4936V46.9232L54.2867 50.7586Z" fill="#ED6C47"/>
<path d="M48.9609 8.56934H48.5312V46.9232L67.7083 54.5939L86.8851 46.9232V46.4936C86.8241 25.574 69.8805 8.63041 48.9609 8.56934Z" fill="#FF8F6B"/>
<path d="M86.8875 46.9219V47.3438C86.8274 68.2682 69.8797 85.2157 48.9555 85.2758H48.1116C27.1874 85.2157 10.2398 68.2682 10.1797 47.3438V46.9219H86.8875Z" fill="#D35230"/>
<path opacity="0.1" d="M50.4512 27.4226V68.346C50.4417 69.7681 49.5799 71.0456 48.265 71.587C47.8464 71.7641 47.3965 71.8553 46.9418 71.8555H19.2313C18.6943 71.2418 18.1765 70.5898 17.6971 69.9378C12.8113 63.4202 10.1733 55.4928 10.1797 47.3473V46.5036C10.1685 39.1564 12.3157 31.968 16.3546 25.8308C16.7766 25.1788 17.2175 24.5268 17.6971 23.9131H46.9418C48.8739 23.9278 50.4366 25.4905 50.4512 27.4226Z" fill="black"/>
<path opacity="0.2" d="M48.5336 29.3396V70.263C48.5335 70.7177 48.4422 71.1676 48.2651 71.5863C47.7237 72.9012 46.4462 73.7628 45.0241 73.7723H20.9764C20.3695 73.1564 19.7874 72.5167 19.2313 71.8548C18.6943 71.2411 18.1765 70.5891 17.6971 69.9371C12.8113 63.4195 10.1733 55.492 10.1797 47.3466V46.5028C10.1685 39.1557 12.3157 31.9673 16.3546 25.8301H45.0241C46.9562 25.8448 48.5189 27.4073 48.5336 29.3396Z" fill="black"/>
<path opacity="0.2" d="M48.5335 29.3394V66.4276C48.5189 68.3597 46.9562 69.9224 45.0241 69.9371H17.6971C12.8113 63.4195 10.1733 55.492 10.1797 47.3466V46.5028C10.1685 39.1557 12.3157 31.9673 16.3546 25.8301H45.0241C46.9562 25.8446 48.5189 27.4073 48.5335 29.3394Z" fill="black"/>
<path opacity="0.2" d="M46.6158 29.3394V66.4276C46.6012 68.3597 45.0385 69.9224 43.1064 69.9371H17.6971C12.8113 63.4195 10.1733 55.492 10.1797 47.3466V46.5028C10.1685 39.1557 12.3157 31.9673 16.3546 25.8301H43.1064C45.0385 25.8446 46.6012 27.4073 46.6158 29.3394Z" fill="black"/>
<path d="M7.93694 25.8301H43.096C45.0373 25.8301 46.611 27.4038 46.611 29.3451V64.5042C46.611 66.4455 45.0373 68.0194 43.096 68.0194H7.93694C5.99562 68.0194 4.42188 66.4455 4.42188 64.5042V29.3451C4.42188 27.4038 5.99562 25.8301 7.93694 25.8301Z" fill="url(#paint0_linear_261_5363)"/>
<path d="M25.9046 35.2016C28.1934 35.0472 30.4625 35.7119 32.306 37.0771C33.8435 38.4497 34.6652 40.4528 34.5342 42.5099C34.5594 43.9398 34.1784 45.3477 33.4355 46.5696C32.6833 47.7707 31.5997 48.7284 30.3153 49.3273C28.8471 50.0102 27.2418 50.3474 25.6227 50.3131H21.1756V58.5783H16.6211V35.2016H25.9046ZM21.1718 46.7422H25.0916C26.3343 46.8335 27.5673 46.4658 28.5569 45.7087C29.3754 44.9235 29.8045 43.8161 29.7286 42.6845C29.7286 40.1083 28.2316 38.8203 25.2374 38.8203H21.1718V46.7422Z" fill="white"/>
</g>
</g>
</g>
</g>
<defs>
<linearGradient id="paint0_linear_261_5363" x1="11.751" y1="23.0834" x2="39.282" y2="70.766" gradientUnits="userSpaceOnUse">
<stop stop-color="#CA4C28"/>
<stop offset="0.5" stop-color="#C5401E"/>
<stop offset="1" stop-color="#B62F14"/>
</linearGradient>
<clipPath id="clip0_261_5363">
<rect x="0.625" y="0.827148" width="91.1893" height="91.1893" rx="11.3987" fill="white"/>
</clipPath>
<clipPath id="clip1_261_5363">
<rect width="91.1893" height="91.1893" fill="white" transform="translate(0.625 0.827148)"/>
</clipPath>
<clipPath id="clip2_261_5363">
<rect width="91.1893" height="91.1893" fill="white" transform="translate(0.625 0.827148)"/>
</clipPath>
</defs>
</svg>
