<svg width="92" height="93" viewBox="0 0 92 93" fill="none" xmlns="http://www.w3.org/2000/svg">
<g clip-path="url(#clip0_261_5333)">
<g clip-path="url(#clip1_261_5333)">
<g clip-path="url(#clip2_261_5333)">
<path d="M-0.0078125 0.827148H91.2026V92.0376H-0.0078125V0.827148Z" fill="#5ABEEF"/>
<path d="M24.9404 20.585H66.2711V27.593H24.9404V20.585ZM45.5214 32.6169C33.3206 32.6169 24.1172 41.8203 24.1172 54.0211C24.1172 66.2219 33.3206 75.4252 45.5214 75.4252C53.5215 75.4252 58.3343 69.8314 58.3343 69.8314V74.3698H67.1155V54.0422C67.0944 41.8414 57.8277 32.6169 45.5214 32.6169ZM45.5214 67.7417C38.3233 67.7417 32.8773 61.8524 32.8773 54.0211C32.8773 46.2109 38.3022 40.3004 45.5214 40.3004C52.8249 40.3004 58.3343 46.1897 58.3343 54.0211C58.3343 61.8524 52.8249 67.7417 45.5214 67.7417Z" fill="white"/>
</g>
</g>
</g>
<defs>
<clipPath id="clip0_261_5333">
<rect x="0.0117188" y="0.827148" width="91.1893" height="91.1893" rx="11.3987" fill="white"/>
</clipPath>
<clipPath id="clip1_261_5333">
<rect width="91.1893" height="91.1893" fill="white" transform="translate(0.0117188 0.827148)"/>
</clipPath>
<clipPath id="clip2_261_5333">
<rect width="91.1893" height="91.1893" fill="white" transform="translate(0.0117188 0.827148)"/>
</clipPath>
</defs>
</svg>
