<svg width="93" height="93" viewBox="0 0 93 93" fill="none" xmlns="http://www.w3.org/2000/svg">
<g clip-path="url(#clip0_261_5356)">
<g clip-path="url(#clip1_261_5356)">
<g clip-path="url(#clip2_261_5356)">
<path d="M92.1581 0.827148H0.96875V92.0165H92.1581V0.827148Z" fill="#F98012"/>
<path d="M64.1038 65.9468V44.9022C64.1038 40.5038 62.2894 38.304 58.6608 38.3027C55.0322 38.3013 53.214 40.5012 53.2063 44.9022V65.9468H42.4857V44.9022C42.4857 40.5038 40.6992 38.304 37.1264 38.3027C33.4913 38.3027 31.6769 40.5025 31.6834 44.9022V65.9468H20.9609V43.6601C20.9609 39.0686 22.5549 35.5936 25.7429 33.235C28.5499 31.1291 32.3444 30.0762 37.1264 30.0762C41.9744 30.0762 45.546 31.3195 47.8412 33.8065C49.8187 31.3195 53.4226 30.0762 58.653 30.0762C63.435 30.0762 67.2282 31.1291 70.0325 33.235C73.2205 35.5922 74.8152 39.0673 74.8165 43.6601V65.9468H64.1038Z" fill="white"/>
<path d="M41.7762 28.455L52.4171 20.6794L52.281 20.2051C33.0792 22.5591 24.3473 24.227 7.80859 33.8143L7.96216 34.2497L9.27623 34.2633C9.15571 35.5871 8.94577 38.8587 9.21403 43.7787C7.37899 49.0894 9.16737 52.6972 10.8469 56.622C11.1132 52.5398 11.086 48.0689 9.83219 43.6193C9.56976 38.7324 9.78553 35.5191 9.90411 34.2691L20.8677 34.3741C20.8382 36.521 20.9466 38.6676 21.1923 40.8006C30.9895 44.2433 40.8431 40.7889 46.0742 32.3019C44.6221 30.6749 41.7762 28.455 41.7762 28.455Z" fill="#333333"/>
</g>
</g>
</g>
<defs>
<clipPath id="clip0_261_5356">
<rect x="0.96875" y="0.827148" width="91.1893" height="91.1893" rx="11.3987" fill="white"/>
</clipPath>
<clipPath id="clip1_261_5356">
<rect width="91.1893" height="91.1893" fill="white" transform="translate(0.96875 0.827148)"/>
</clipPath>
<clipPath id="clip2_261_5356">
<rect width="91.1893" height="91.1893" fill="white" transform="translate(0.96875 0.827148)"/>
</clipPath>
</defs>
</svg>
