<svg width="92" height="92" viewBox="0 0 92 92" fill="none" xmlns="http://www.w3.org/2000/svg">
<g clip-path="url(#clip0_261_5328)">
<g clip-path="url(#clip1_261_5328)">
<g clip-path="url(#clip2_261_5328)">
<path d="M0 0H91.1893V91.1893H0V0Z" fill="#0068D9"/>
<path d="M76.6301 0.666992V70.9436C76.6301 77.8132 76.8733 85.0171 77.1165 89.1815H60.3072L59.5473 80.3361H59.1825C57.2083 83.5862 54.3991 86.2479 51.0473 88.0441C47.6955 89.8403 43.9235 90.7053 40.124 90.5493C25.6553 90.5493 14.0742 78.2083 14.0742 59.2713C14.0742 38.7233 26.7799 26.7471 41.431 26.7471C49.0301 26.7471 54.7447 29.4828 57.4803 33.5863H57.7539V0.666992H76.6909M57.7539 54.0128C57.7944 52.841 57.7027 51.6684 57.4803 50.5172C56.9691 47.9551 55.5887 45.6483 53.5726 43.9867C51.5566 42.3251 49.0286 41.4108 46.416 41.3982C37.6923 41.3982 33.3152 49.1189 33.3152 58.6938C33.3152 69.059 38.4218 75.5335 46.2945 75.5335C48.9132 75.5442 51.4531 74.6382 53.4739 72.9727C55.4947 71.3072 56.8691 68.9871 57.3588 66.4145C57.6372 64.952 57.7696 63.4654 57.7539 61.9766V54.0128Z" fill="white"/>
</g>
</g>
</g>
<defs>
<clipPath id="clip0_261_5328">
<rect width="91.1893" height="91.1893" rx="11.3987" fill="white"/>
</clipPath>
<clipPath id="clip1_261_5328">
<rect width="91.1893" height="91.1893" fill="white"/>
</clipPath>
<clipPath id="clip2_261_5328">
<rect width="91.1893" height="91.1893" fill="white"/>
</clipPath>
</defs>
</svg>
