<svg width="92" height="93" viewBox="0 0 92 93" fill="none" xmlns="http://www.w3.org/2000/svg">
<g clip-path="url(#clip0_261_5381)">
<g clip-path="url(#clip1_261_5381)">
<g clip-path="url(#clip2_261_5381)">
<path d="M91.4706 0.827148H0.28125V92.0165H91.4706V0.827148Z" fill="#FF7A59"/>
<path fill-rule="evenodd" clip-rule="evenodd" d="M59.819 60.5025C55.0529 60.5025 51.1868 56.6788 51.1868 51.9612C51.1868 47.2437 55.0516 43.4187 59.819 43.4187C64.5865 43.4187 68.4538 47.2424 68.4538 51.9612C68.4538 56.68 64.589 60.5025 59.819 60.5025ZM62.4048 35.5157V27.9107C63.4158 27.4476 64.2737 26.7054 64.8773 25.7714C65.4809 24.8374 65.8052 23.7503 65.8121 22.6383V22.4625C65.8121 19.2484 63.154 16.6203 59.9088 16.6203H59.7305C56.489 16.6203 53.8273 19.2497 53.8273 22.4625V22.6383C53.8345 23.7503 54.1589 24.8372 54.7624 25.7712C55.366 26.7051 56.2236 27.4474 57.2346 27.9107V35.5157C54.3235 35.9549 51.5784 37.1494 49.2731 38.9803L28.1909 22.7518C28.3385 22.2179 28.4176 21.6673 28.4265 21.1136C28.4265 17.4718 25.4481 14.5159 21.7691 14.5059C18.09 14.496 15.1053 17.447 15.1016 21.0899C15.0978 24.7328 18.075 27.6825 21.7541 27.6888C22.9065 27.6838 24.0377 27.3792 25.0368 26.8048L45.7797 42.7754C43.9136 45.5549 42.9387 48.8372 42.9848 52.1847C43.0309 55.5323 44.0958 58.7864 46.0378 61.5136L39.7269 67.7597C38.9802 67.5256 38.1917 67.4562 37.4156 67.5563C36.6396 67.6564 35.8944 67.9235 35.2315 68.3392C34.5687 68.7549 34.0037 69.3094 33.5758 69.9645C33.1478 70.6196 32.8671 71.3597 32.7526 72.1337C32.6382 72.9078 32.693 73.6974 32.9131 74.4483C33.1333 75.1991 33.5137 75.8934 34.0279 76.4831C34.5422 77.0728 35.1783 77.544 35.8922 77.8642C36.6062 78.1845 37.3811 78.3462 38.1635 78.3381C41.1855 78.3381 43.6365 75.912 43.6365 72.9211C43.6312 72.3954 43.5472 71.8736 43.3872 71.3727L49.6208 65.199C52.5553 67.4232 56.1369 68.626 59.819 68.6237C69.1209 68.6237 76.6573 61.1645 76.6573 51.9612C76.6573 43.6306 70.471 36.7512 62.4035 35.5157" fill="white"/>
</g>
</g>
</g>
<defs>
<clipPath id="clip0_261_5381">
<rect x="0.28125" y="0.827148" width="91.1893" height="91.1893" rx="11.3987" fill="white"/>
</clipPath>
<clipPath id="clip1_261_5381">
<rect width="91.1893" height="91.1893" fill="white" transform="translate(0.28125 0.827148)"/>
</clipPath>
<clipPath id="clip2_261_5381">
<rect width="91.1893" height="91.1893" fill="white" transform="translate(0.28125 0.827148)"/>
</clipPath>
</defs>
</svg>
