<svg width="92" height="93" viewBox="0 0 92 93" fill="none" xmlns="http://www.w3.org/2000/svg">
<g clip-path="url(#clip0_261_5340)">
<g clip-path="url(#clip1_261_5340)">
<g clip-path="url(#clip2_261_5340)">
<path d="M90.2008 2.51562H2.31669C1.40397 2.51562 0.664062 3.25553 0.664062 4.16825V88.6752C0.664062 89.588 1.40397 90.3279 2.31669 90.3279H90.2008C91.1135 90.3279 91.8534 89.588 91.8534 88.6752V4.16825C91.8534 3.25553 91.1135 2.51562 90.2008 2.51562Z" fill="url(#paint0_linear_261_5340)"/>
<path d="M47.861 13.9856C41.4462 13.6696 35.0817 15.2628 29.5723 18.5638C24.063 21.8649 19.6562 26.7254 16.9092 32.5309C14.1623 38.3364 13.1985 44.8261 14.1397 51.1794C15.081 57.5326 17.885 63.4641 22.1973 68.2237C26.5095 72.9834 32.1363 76.3574 38.3661 77.9193C44.5959 79.4811 51.1489 79.1605 57.1965 76.9981C63.2441 74.8357 68.5147 70.9286 72.3418 65.7708C76.169 60.613 78.3807 54.4362 78.6974 48.0214C79.121 39.419 76.1104 31.0005 70.3275 24.6177C64.5447 18.2349 56.4634 14.4105 47.861 13.9856ZM65.8734 52.1548C63.1203 61.3823 56.7557 69.6114 51.9831 70.7611C47.2105 71.9107 37.9339 67.3953 31.2742 60.4331C24.6146 53.4709 20.6588 44.1148 22.2585 39.1418C23.6502 34.808 32.0079 28.5529 41.345 26.2839C50.6822 24.0148 61.0101 25.796 64.2624 29.037C67.787 32.5389 68.6493 42.8517 65.8734 52.1548Z" fill="white"/>
<path d="M29.5627 58.5153C27.2888 55.819 25.393 52.8253 23.9279 49.6169C23.4861 48.684 23.1144 47.7195 22.816 46.7314C22.8149 46.715 22.8149 46.6986 22.816 46.6822C21.8857 43.7627 21.655 41.1117 22.2752 39.1414C22.9787 36.9291 25.2477 34.8756 25.2477 34.8643C20.4411 39.4742 16.0316 47.5407 15.2109 55.9551L29.5816 58.538L29.5627 58.5153Z" fill="url(#paint1_linear_261_5340)"/>
<path d="M65.0274 54.9529V54.6504C63.6584 58.5683 58.2581 69.3122 51.7913 70.7985C50.4298 71.1123 48.6449 70.8628 46.875 70.4203C46.875 70.4203 47.7599 70.6548 47.7524 70.6661C54.1284 72.6364 62.0171 72.1788 69.8189 68.7488L65.0274 54.9529Z" fill="url(#paint2_linear_261_5340)"/>
<path d="M53.3719 14.8906L44.0234 25.748C48.5419 25.0121 53.1575 25.1172 57.6377 26.0581H57.6869C60.7123 26.7767 63.1591 27.7486 64.513 29.3067C65.3865 30.3164 65.9992 31.4736 66.6383 33.6708C64.8949 27.3175 60.1223 19.6405 53.3719 14.8906Z" fill="url(#paint3_linear_261_5340)"/>
<path d="M39.9627 46.1043C40.4334 46.2248 40.8494 46.5013 41.1427 46.8887C41.436 47.2761 41.5893 47.7515 41.5775 48.2372C41.5775 49.8256 40.3106 50.7672 38.1172 50.7672C36.0751 50.7672 34.9141 49.7613 34.9141 48.8764C34.9173 48.7381 34.9509 48.6022 35.0125 48.4783C35.074 48.3544 35.1619 48.2455 35.2701 48.1593C35.3783 48.0731 35.5041 48.0117 35.6386 47.9795C35.7731 47.9472 35.9131 47.9448 36.0486 47.9725C36.3209 48.8499 37.0924 49.3037 38.1134 49.3037C39.1345 49.3037 39.766 48.8499 39.766 48.1162C39.766 47.3826 39.2782 46.9817 38.2836 46.9817H37.8298C37.1982 46.9817 36.9411 46.7472 36.9411 46.335V46.2329C36.9411 45.7942 37.2361 45.5862 37.8071 45.5862H38.4273C39.1837 45.5862 39.6148 45.2081 39.6148 44.6181C39.6148 44.0282 39.0437 43.5592 38.1021 43.5592C37.6993 43.5255 37.2965 43.6243 36.9551 43.8408C36.6137 44.0572 36.3525 44.3793 36.2112 44.758C36.079 44.7833 35.9428 44.7795 35.8122 44.7469C35.6816 44.7142 35.5596 44.6535 35.4549 44.5689C35.3501 44.4843 35.2651 44.3779 35.2056 44.2571C35.1462 44.1362 35.1138 44.0039 35.1107 43.8693C35.1107 42.992 36.2755 42.0995 38.1096 42.0995C40.2274 42.0995 41.3998 42.9125 41.3998 44.3685C41.4073 45.227 40.9044 45.8207 39.9627 46.1043ZM46.6261 45.2799C48.3052 45.2799 49.4284 46.1838 49.4284 47.7834V47.8515C49.4284 49.5684 48.0708 50.7672 46.1232 50.7672C43.8239 50.7672 42.4927 49.2054 42.4927 46.8418V46.0854C42.4927 43.5933 43.926 42.0692 46.2518 42.0692C48.0972 42.0692 49.0918 42.8256 49.0918 43.684C49.0918 44.4404 48.188 44.5614 48.1615 44.5236C47.9757 44.222 47.7125 43.9756 47.3993 43.81C47.086 43.6444 46.7342 43.5657 46.3803 43.5819C45.0492 43.5819 44.3647 44.4063 44.3647 46.0325V46.0968C44.994 45.5584 45.798 45.268 46.6261 45.2799ZM46.0854 49.334C46.9627 49.334 47.5981 48.7932 47.5981 47.9801V47.9158C47.5981 47.0762 47.0535 46.6111 46.0854 46.6111C45.4542 46.6313 44.8524 46.883 44.3949 47.3183C44.4705 48.5852 45.0643 49.334 46.0854 49.334ZM50.2793 46.8418V46.006C50.2793 43.5895 51.6748 42.0654 53.9476 42.0654C56.2204 42.0654 57.6046 43.5781 57.6046 45.9909V46.8191C57.6046 49.2318 56.2204 50.7559 53.9363 50.7559C51.6521 50.7559 50.2793 49.2697 50.2793 46.8418ZM55.691 46.959V45.885C55.691 44.4139 55.0594 43.6159 53.9363 43.6159C52.8131 43.6159 52.2042 44.4026 52.2042 45.885V46.9552C52.2042 48.4301 52.8244 49.2243 53.9476 49.2243C55.0708 49.2243 55.691 48.4301 55.691 46.959Z" fill="white"/>
</g>
</g>
</g>
<defs>
<linearGradient id="paint0_linear_261_5340" x1="1.99146" y1="90.6909" x2="90.526" y2="2.15635" gradientUnits="userSpaceOnUse">
<stop stop-color="#9A87FE"/>
<stop offset="0.14" stop-color="#9387FD"/>
<stop offset="0.15" stop-color="#8D87FC"/>
<stop offset="0.21" stop-color="#8287FA"/>
<stop offset="0.28" stop-color="#6486F4"/>
<stop offset="0.38" stop-color="#4B86EF"/>
<stop offset="0.44" stop-color="#4286ED"/>
<stop offset="0.69" stop-color="#4286ED"/>
<stop offset="0.82" stop-color="#22BACF"/>
<stop offset="0.94" stop-color="#09E1B8"/>
<stop offset="1" stop-color="#00F0AF"/>
</linearGradient>
<linearGradient id="paint1_linear_261_5340" x1="22.3651" y1="58.9366" x2="22.6556" y2="30.1594" gradientUnits="userSpaceOnUse">
<stop offset="0.01" stop-color="#BBBBBB" stop-opacity="0"/>
<stop offset="0.46" stop-color="#979797" stop-opacity="0.42"/>
<stop offset="1" stop-color="#666666"/>
</linearGradient>
<linearGradient id="paint2_linear_261_5340" x1="69.1903" y1="58.9024" x2="52.0029" y2="76.0947" gradientUnits="userSpaceOnUse">
<stop offset="0.17" stop-color="#BBBBBB" stop-opacity="0"/>
<stop offset="0.34" stop-color="#AFAFAF" stop-opacity="0.12"/>
<stop offset="0.67" stop-color="#909090" stop-opacity="0.45"/>
<stop offset="1" stop-color="#6B6B6B" stop-opacity="0.84"/>
</linearGradient>
<linearGradient id="paint3_linear_261_5340" x1="44.8593" y1="21.6033" x2="68.8789" y2="25.8863" gradientUnits="userSpaceOnUse">
<stop offset="0.2" stop-color="#BBBBBB" stop-opacity="0"/>
<stop offset="0.51" stop-color="#9C9C9C" stop-opacity="0.37"/>
<stop offset="1" stop-color="#666666"/>
</linearGradient>
<clipPath id="clip0_261_5340">
<rect x="0.664062" y="0.827148" width="91.1893" height="91.1893" rx="11.3987" fill="white"/>
</clipPath>
<clipPath id="clip1_261_5340">
<rect width="91.1893" height="91.1893" fill="white" transform="translate(0.664062 0.827148)"/>
</clipPath>
<clipPath id="clip2_261_5340">
<rect width="91.1893" height="87.8122" fill="white" transform="translate(0.664062 2.51465)"/>
</clipPath>
</defs>
</svg>
