<svg width="93" height="93" viewBox="0 0 93 93" fill="none" xmlns="http://www.w3.org/2000/svg">
<g clip-path="url(#clip0_261_5387)">
<g clip-path="url(#clip1_261_5387)">
<g clip-path="url(#clip2_261_5387)">
<path d="M34.3076 3.68995C20.3533 4.7225 8.49052 5.67208 7.93277 5.78328C6.36895 6.06215 4.94634 7.12293 4.2774 8.51907L3.69141 9.74753L3.74789 39.0258L3.83084 68.3041L4.72395 70.1185C5.22698 71.1228 8.63172 75.8125 12.3436 80.6399C19.6843 90.1569 20.2138 90.6882 23.0043 90.967C23.8145 91.05 29.8985 90.7711 36.4856 90.3811C43.1009 89.9627 53.7052 89.3203 60.0699 88.9584C87.2531 87.3081 85.857 87.4476 87.419 86.1079C89.3729 84.4894 89.2335 87.1405 89.3164 51.5557C89.3729 21.3844 89.3447 19.404 88.8981 18.4827C88.3686 17.4501 87.419 16.7247 75.0268 8.01604C66.7382 2.21086 66.1522 1.90375 62.4386 1.84727C60.9048 1.79255 48.2336 2.62917 34.3076 3.68995ZM65.6774 7.513C66.8494 8.04251 75.4186 14.0154 76.6735 15.1609C77.0089 15.4962 77.1201 15.7751 76.9524 15.9428C76.5623 16.2781 23.5321 19.4322 21.9983 19.2081C21.3011 19.0969 20.2685 18.6786 19.6826 18.2867C17.2539 16.64 11.2263 11.6997 11.2263 11.3378C11.2263 10.3882 11.0304 10.3882 34.6712 8.68675C39.1932 8.37963 46.6169 7.82188 51.1389 7.45829C60.933 6.67638 63.8647 6.70462 65.6774 7.513ZM82.5352 22.7805C82.9253 23.1706 83.2606 23.9242 83.3718 24.6497C83.4548 25.3204 83.5113 37.8238 83.4548 52.3924C83.3718 77.3993 83.3436 78.9631 82.8688 79.6885C82.5899 80.1351 82.0322 80.6099 81.6121 80.7493C80.4419 81.2241 24.8735 84.3782 23.7298 84.0428C23.2003 83.9034 22.4731 83.4569 22.083 83.0668L21.4123 82.3414L21.3293 55.3806C21.2728 36.4577 21.3293 28.0844 21.5535 27.3307C21.7212 26.773 22.1395 26.1023 22.5031 25.8799C23.0061 25.5445 26.2996 25.2657 37.6311 24.5967C45.5861 24.1502 57.8936 23.3965 64.9555 22.9782C81.7533 21.9439 81.6986 21.9439 82.5352 22.7805Z" fill="black"/>
<path d="M67.601 32.0187C64.5863 32.2147 61.907 32.4935 61.5999 32.6612C60.6786 33.136 60.1208 33.9179 60.0096 34.811C59.9267 35.7324 60.2055 35.8436 63.2184 36.2071L64.5299 36.3748V48.2923C64.5299 55.3806 64.4187 60.0703 64.2792 59.9309C64.1398 59.7632 60.1773 53.7356 55.4594 46.5343C50.7432 39.3065 46.8355 33.3602 46.779 33.3054C46.7225 33.249 43.6531 33.4166 39.9695 33.669C35.4475 33.9762 32.9641 34.255 32.4611 34.5339C31.6509 34.9522 30.7578 36.4313 30.7578 37.4091C30.7578 37.9951 31.8186 38.3022 34.0514 38.3022H35.2233V72.5755L33.3259 73.1615C31.8468 73.6081 31.3438 73.887 31.0932 74.4447C30.6466 75.3943 30.6749 76.2592 31.1214 76.2592C31.2891 76.2592 34.4432 76.0632 38.0703 75.8409C45.2434 75.4225 46.0518 75.2266 46.8054 73.7475C47.0296 73.301 47.2238 72.8262 47.2238 72.6867C47.2238 72.5755 46.2477 72.2402 45.074 71.9613C43.8737 71.6824 42.6735 71.4036 42.4229 71.3471C41.9481 71.2076 41.9198 70.3428 41.9198 58.3406V45.4735L50.4043 58.7871C59.3071 72.7415 60.4244 74.3335 61.7923 75.0307C63.4955 75.9238 67.8216 75.3096 69.9979 73.887L70.6686 73.4687L70.7251 54.4346L70.8081 35.3723L72.2872 35.0934C74.0451 34.7581 74.8553 33.9497 74.8553 32.5535C74.8553 31.6604 74.7988 31.604 73.9622 31.6322C73.4627 31.6551 70.5874 31.8228 67.601 32.0187Z" fill="black"/>
</g>
</g>
</g>
<defs>
<clipPath id="clip0_261_5387">
<rect x="0.9375" y="0.827148" width="91.1893" height="91.1893" rx="11.3987" fill="white"/>
</clipPath>
<clipPath id="clip1_261_5387">
<rect width="91.1893" height="91.1893" fill="white" transform="translate(0.9375 0.827148)"/>
</clipPath>
<clipPath id="clip2_261_5387">
<rect width="85.6815" height="91.1893" fill="white" transform="translate(3.69141 0.827148)"/>
</clipPath>
</defs>
</svg>
