<svg width="64" height="64" viewBox="0 0 64 64" fill="none" xmlns="http://www.w3.org/2000/svg">
<path d="M14.8 26.8008H10.7C10 26.8008 9.5 27.3008 9.5 28.0008C9.5 28.7008 10 29.2008 10.7 29.2008H14.8C15.5 29.2008 16 28.7008 16 28.0008C16 27.3008 15.4 26.8008 14.8 26.8008ZM38 39.8008C38 39.1008 37.5 38.5008 36.8 38.5008C36.1 38.5008 35.6 39.1008 35.6 39.7008C35.6 40.4008 36.1 40.9008 36.8 40.9008C37.4 41.0008 38 40.4008 38 39.8008Z" fill="#00A497"/>
<path d="M57.9008 4.90039H16.0008C13.1008 4.90039 10.8008 7.20039 10.8008 10.1004V19.5004H13.3008V10.0004C13.3008 8.50039 14.5008 7.30039 16.0008 7.30039H58.0008C59.5008 7.30039 60.7008 8.50039 60.7008 10.0004V33.7004H27.0008V36.2004H60.6008V39.9004C60.6008 41.4004 59.4008 42.6004 57.9008 42.6004H27.0008V45.1004H35.7008V49.4004H29.3008C28.6008 49.4004 28.0008 50.0004 28.0008 50.7004C28.0008 51.4004 28.6008 52.0004 29.3008 52.0004H44.6008C45.3008 52.0004 45.9008 51.4004 45.9008 50.7004C45.9008 50.0004 45.3008 49.4004 44.6008 49.4004H38.2008V45.1004H57.9008C60.8008 45.1004 63.1008 42.8004 63.1008 39.9004V10.0004C63.1008 7.20039 60.8008 4.90039 57.9008 4.90039ZM12.7008 52.5004C12.0008 52.5004 11.3008 53.1004 11.3008 53.9004C11.3008 54.6004 11.9008 55.3004 12.7008 55.3004C13.4008 55.3004 14.1008 54.7004 14.1008 53.9004C14.1008 53.1004 13.5008 52.5004 12.7008 52.5004Z" fill="#00A497"/>
<path d="M23.4004 23.1004C22.6004 22.3004 21.6004 21.9004 20.4004 21.9004H4.90039C2.50039 21.9004 0.900391 23.6004 0.900391 25.9004V55.0004C0.900391 56.2004 1.30039 57.2004 2.10039 57.9004C2.80039 58.6004 3.90039 59.1004 5.00039 59.1004H20.4004C21.5004 59.1004 22.6004 58.7004 23.3004 57.9004C24.0004 57.2004 24.5004 56.1004 24.5004 55.0004V26.0004C24.6004 24.9004 24.2004 23.9004 23.4004 23.1004ZM21.7004 56.3004C21.4004 56.6004 20.9004 56.8004 20.4004 56.8004H4.90039C4.40039 56.8004 3.90039 56.6004 3.60039 56.3004C3.30039 56.0004 3.10039 55.6004 3.10039 55.1004V50.4004H22.0004V55.2004C22.2004 55.6004 22.0004 56.0004 21.7004 56.3004ZM22.2004 27.3004V47.8004H3.20039V26.0004C3.20039 24.9004 3.80039 24.3004 4.90039 24.3004H20.5004C21.0004 24.3004 21.4004 24.5004 21.7004 24.8004C21.9004 25.0004 22.2004 25.4004 22.1004 25.9004C22.2004 26.2004 22.2004 27.1004 22.2004 27.3004Z" fill="#00A497"/>
</svg>
