<svg width="64" height="64" viewBox="0 0 64 64" fill="none" xmlns="http://www.w3.org/2000/svg">
<path d="M32.9434 60.9627C35.0559 59.619 37.1746 58.2815 39.2871 56.9377C40.2434 56.3315 41.2121 55.7315 42.1434 55.0815C44.3121 53.569 46.3434 51.844 48.1434 49.9065C51.7184 46.069 54.4434 41.5127 56.1684 36.5627C57.5871 32.4815 58.1871 28.194 58.1871 23.8815C58.1871 21.1815 58.1871 18.4815 58.1871 15.7815C58.1871 15.7065 58.1871 15.6377 58.1871 15.5627C58.1871 14.7252 57.5996 13.994 56.8121 13.7565C56.0496 13.5252 55.2934 13.2877 54.5621 12.9815C54.7121 13.044 54.8621 13.1065 55.0121 13.169C54.2621 12.8502 53.5309 12.4815 52.8371 12.0565C52.4934 11.844 52.1559 11.6252 51.8246 11.3877C51.7371 11.3252 51.6559 11.2627 51.5684 11.2002C51.5309 11.1752 51.4996 11.144 51.4621 11.119C51.3059 11.0002 51.6871 11.3002 51.6621 11.2752C51.5121 11.1315 51.3309 11.0127 51.1746 10.8815C50.5559 10.3627 49.9809 9.79397 49.4434 9.19397C49.3121 9.05022 49.1871 8.90022 49.0621 8.75022C48.9934 8.66897 48.9309 8.58772 48.8621 8.50647C48.6809 8.28147 49.1371 8.87522 48.9059 8.56272C48.6621 8.23772 48.4309 7.90647 48.2121 7.56272C47.7059 6.77522 47.2684 5.94397 46.9059 5.08147C46.9684 5.23147 47.0309 5.38147 47.0934 5.53147C46.9059 5.08147 46.7309 4.61897 46.5809 4.15647C46.3246 3.36897 45.6246 2.78147 44.7746 2.78147C43.9246 2.78147 43.0746 2.78147 42.2246 2.78147C40.1871 2.78147 38.1434 2.78147 36.1059 2.78147C33.6496 2.78147 31.1934 2.78147 28.7371 2.78147C26.6059 2.78147 24.4746 2.78147 22.3434 2.78147C21.3121 2.78147 20.2746 2.75022 19.2434 2.78147C19.2309 2.78147 19.2121 2.78147 19.1996 2.78147C18.3496 2.78147 17.6434 3.36897 17.3934 4.15647C17.2434 4.62522 17.0746 5.08147 16.8809 5.53147C16.9434 5.38147 17.0059 5.23147 17.0684 5.08147C16.7496 5.83147 16.3746 6.56272 15.9496 7.25647C15.7371 7.60022 15.5121 7.93772 15.2746 8.26897C15.2121 8.35647 15.1496 8.43772 15.0871 8.52522C15.0621 8.56272 15.0309 8.59397 15.0059 8.63147C14.8871 8.78772 15.1871 8.40647 15.1621 8.43147C15.0184 8.57522 14.8996 8.76272 14.7684 8.91897C14.2496 9.53772 13.6809 10.1127 13.0746 10.644C12.9309 10.7752 12.7809 10.9002 12.6309 11.019C12.5496 11.0877 12.4684 11.1502 12.3871 11.2127C12.1621 11.394 12.7559 10.9377 12.4434 11.1627C12.1184 11.4065 11.7871 11.6377 11.4434 11.8565C10.6559 12.3627 9.82461 12.794 8.96211 13.1627C9.11211 13.1002 9.26211 13.0377 9.41211 12.9752C8.67461 13.2815 7.92461 13.519 7.16211 13.7502C6.36836 13.9877 5.78711 14.719 5.78711 15.5565C5.78711 18.069 5.78711 20.5815 5.78711 23.094C5.78711 24.419 5.78711 25.744 5.88086 27.069C6.07461 29.7065 6.52461 32.3377 7.26836 34.8752C8.74336 39.9127 11.2809 44.569 14.6559 48.5815C17.2996 51.719 20.4809 54.2627 23.9371 56.4565C26.2434 57.919 28.5496 59.3815 30.8559 60.844C30.9121 60.8815 30.9746 60.919 31.0309 60.9565C31.8621 61.4815 33.1371 61.1565 33.5934 60.2815C34.0809 59.3565 33.8059 58.2752 32.9184 57.719C30.5934 56.244 28.2684 54.769 25.9434 53.294C25.6371 53.1002 25.3309 52.9065 25.0246 52.7127C24.5434 52.4065 24.0621 52.0877 23.5934 51.7565C23.3121 51.5565 23.0309 51.3502 22.7496 51.144C22.6246 51.0502 22.4996 50.9502 22.3746 50.8565C22.8934 51.2502 22.3621 50.844 22.2371 50.744C21.1496 49.8752 20.1184 48.944 19.1434 47.9565C18.1871 46.9815 17.2184 45.9565 16.4184 44.8502C16.4246 44.8565 16.7184 45.244 16.5434 45.0065C16.4684 44.9065 16.3934 44.8127 16.3184 44.7127C16.2059 44.5627 16.0996 44.4127 15.9871 44.2627C15.7684 43.9627 15.5559 43.6627 15.3496 43.3565C14.9184 42.719 14.5059 42.069 14.1184 41.4002C13.3371 40.069 12.6496 38.6877 12.0496 37.269C12.1121 37.419 12.1746 37.569 12.2371 37.719C11.0184 34.8252 10.1871 31.7877 9.76836 28.6752C9.79336 28.844 9.81211 29.0065 9.83711 29.1752C9.56836 27.1502 9.52461 25.1252 9.52461 23.094C9.52461 21.119 9.52461 19.144 9.52461 17.169C9.52461 16.6315 9.52461 16.1002 9.52461 15.5627C9.06836 16.1627 8.60586 16.769 8.14961 17.369C10.2559 16.7377 12.2809 15.8877 14.0746 14.6002C16.1559 13.1065 17.9246 11.2377 19.2434 9.03772C19.9746 7.81897 20.5559 6.50022 20.9871 5.15022C20.3871 5.60647 19.7809 6.06897 19.1809 6.52522C20.0309 6.52522 20.8809 6.52522 21.7309 6.52522C23.7684 6.52522 25.8121 6.52522 27.8496 6.52522C30.3059 6.52522 32.7621 6.52522 35.2184 6.52522C37.3496 6.52522 39.4809 6.52522 41.6121 6.52522C42.6434 6.52522 43.6809 6.55647 44.7121 6.52522C44.7246 6.52522 44.7434 6.52522 44.7559 6.52522C44.1559 6.06897 43.5496 5.60647 42.9496 5.15022C44.4996 9.90647 47.9684 14.0002 52.4996 16.1315C53.5746 16.6377 54.6871 17.0315 55.8246 17.369C55.3684 16.769 54.9059 16.1627 54.4496 15.5627C54.4496 16.9627 54.4496 18.3627 54.4496 19.7627C54.4496 21.319 54.4496 22.8752 54.4496 24.4252C54.4496 26.0127 54.3434 27.6002 54.1371 29.1752C54.1621 29.0065 54.1809 28.844 54.2059 28.6752C53.7809 31.7815 52.9496 34.8252 51.7371 37.719C51.7996 37.569 51.8621 37.419 51.9246 37.269C50.8559 39.794 49.4996 42.194 47.8746 44.4127C47.7809 44.5377 47.6934 44.6627 47.5996 44.7815C47.5121 44.9002 47.1496 45.344 47.5559 44.844C47.3246 45.1315 47.0934 45.4252 46.8621 45.7127C46.4246 46.2377 45.9746 46.7502 45.5121 47.2502C44.5809 48.2502 43.5871 49.2002 42.5434 50.0877C42.2809 50.3127 42.0121 50.5315 41.7434 50.744C41.6184 50.844 41.4934 50.9377 41.3746 51.0377C41.8871 50.6252 41.3496 51.0565 41.2309 51.144C40.6746 51.5627 40.1059 51.9627 39.5246 52.344C39.1496 52.5877 38.7746 52.8315 38.3934 53.069C37.0309 53.9315 35.6684 54.794 34.3059 55.6627C33.2246 56.3502 32.1434 57.0315 31.0621 57.719C30.2371 58.244 29.8246 59.4127 30.3871 60.2815C30.9121 61.119 32.0621 61.5252 32.9434 60.9627Z" fill="#00A496"/>
<path d="M19.7049 31.4248C21.8424 33.5623 23.9799 35.6998 26.1236 37.8436C26.4299 38.1498 26.7361 38.4561 27.0361 38.7561C27.7549 39.4748 28.9674 39.4748 29.6861 38.7561C31.3361 37.1061 32.9924 35.4498 34.6424 33.7998C37.2549 31.1873 39.8736 28.5686 42.4861 25.9561C43.0861 25.3561 43.6924 24.7498 44.2924 24.1498C44.9861 23.4561 45.0361 22.1811 44.2924 21.4998C43.5424 20.8123 42.3799 20.7561 41.6424 21.4998C39.9924 23.1498 38.3361 24.8061 36.6861 26.4561C34.0736 29.0686 31.4549 31.6873 28.8424 34.2998C28.2424 34.8998 27.6361 35.5061 27.0361 36.1061C27.9174 36.1061 28.8049 36.1061 29.6861 36.1061C27.5486 33.9686 25.4111 31.8311 23.2674 29.6873C22.9611 29.3811 22.6549 29.0748 22.3549 28.7748C21.6611 28.0811 20.3861 28.0311 19.7049 28.7748C19.0174 29.5186 18.9611 30.6811 19.7049 31.4248Z" fill="#00A496"/>
</svg>
