<svg width="36" height="36" viewBox="0 0 36 36" fill="none" xmlns="http://www.w3.org/2000/svg">
<path d="M7.17753 20.4471C7.12951 20.3909 7.07091 20.3448 7.00507 20.3113C6.93922 20.2778 6.86743 20.2576 6.79378 20.2519C6.72013 20.2461 6.64607 20.2549 6.57583 20.2778C6.50559 20.3007 6.44054 20.3372 6.3844 20.3852C6.32826 20.4332 6.28213 20.4918 6.24864 20.5577C6.21515 20.6235 6.19495 20.6953 6.1892 20.7689C6.18346 20.8426 6.19228 20.9167 6.21515 20.9869C6.23803 21.0571 6.27451 21.1222 6.32253 21.1783L7.76815 22.8658C7.82096 22.9276 7.88652 22.9771 7.96032 23.0111C8.03412 23.0451 8.11441 23.0627 8.19565 23.0627H8.28003C8.37505 23.0481 8.46475 23.0095 8.54057 22.9504C8.61639 22.8913 8.67581 22.8138 8.71315 22.7252L10.6425 18.2252C10.6941 18.0892 10.6909 17.9386 10.6338 17.8049C10.5766 17.6711 10.4699 17.5647 10.3361 17.508C10.2022 17.4512 10.0515 17.4485 9.9157 17.5005C9.77987 17.5524 9.66942 17.6549 9.60753 17.7864L8.03815 21.4539L7.17753 20.4471Z" fill="#14171B"/>
<path d="M33.1875 7.875C33.4859 7.875 33.772 7.75647 33.983 7.54549C34.194 7.33452 34.3125 7.04837 34.3125 6.75C34.3125 6.45163 34.194 6.16548 33.983 5.95451C33.772 5.74353 33.4859 5.625 33.1875 5.625H21.1781C21.0103 5.15156 20.7388 4.72156 20.3836 4.36636C20.0284 4.01117 19.5984 3.73974 19.125 3.57187V2.8125C19.125 2.51413 19.0065 2.22798 18.7955 2.017C18.5845 1.80603 18.2984 1.6875 18 1.6875C17.7016 1.6875 17.4155 1.80603 17.2045 2.017C16.9935 2.22798 16.875 2.51413 16.875 2.8125V3.57187C16.4016 3.73974 15.9716 4.01117 15.6164 4.36636C15.2612 4.72156 14.9897 5.15156 14.8219 5.625H2.8125C2.51413 5.625 2.22798 5.74353 2.017 5.95451C1.80603 6.16548 1.6875 6.45163 1.6875 6.75C1.6875 7.04837 1.80603 7.33452 2.017 7.54549C2.22798 7.75647 2.51413 7.875 2.8125 7.875H7.875V13.1962L1.94063 17.1337C1.86325 17.1847 1.79965 17.254 1.75549 17.3354C1.71134 17.4169 1.68798 17.508 1.6875 17.6006V18.3206C1.70621 20.3424 2.34525 22.3097 3.51825 23.9565C4.69125 25.6033 6.34162 26.8503 8.24625 27.5287C8.36984 27.5734 8.50516 27.5734 8.62875 27.5287C10.5298 26.8516 12.1777 25.6081 13.3504 23.9657C14.523 22.3234 15.1642 20.361 15.1875 18.3431V17.6231C15.187 17.5305 15.1637 17.4394 15.1195 17.3579C15.0753 17.2765 15.0118 17.2072 14.9344 17.1562L9 13.1962V7.875H14.8219C14.9897 8.34844 15.2612 8.77844 15.6164 9.13364C15.9716 9.48883 16.4016 9.76026 16.875 9.92812V28.6875H15.1875C13.6957 28.6875 12.2649 29.2801 11.21 30.335C10.1551 31.3899 9.5625 32.8207 9.5625 34.3125H26.4375C26.4375 32.8207 25.8449 31.3899 24.79 30.335C23.7351 29.2801 22.3043 28.6875 20.8125 28.6875H19.125V9.92812C19.5984 9.76026 20.0284 9.48883 20.3836 9.13364C20.7388 8.77844 21.0103 8.34844 21.1781 7.875H27V13.1962L21.0656 17.1337C20.9882 17.1847 20.9247 17.254 20.8805 17.3354C20.8363 17.4169 20.813 17.508 20.8125 17.6006V18.3206C20.8312 20.3424 21.4703 22.3097 22.6433 23.9565C23.8162 25.6033 25.4666 26.8503 27.3712 27.5287C27.4948 27.5734 27.6302 27.5734 27.7538 27.5287C29.6548 26.8516 31.3027 25.6081 32.4754 23.9657C33.648 22.3234 34.2892 20.361 34.3125 18.3431V17.6231C34.312 17.5305 34.2887 17.4394 34.2445 17.3579C34.2003 17.2765 34.1368 17.2072 34.0594 17.1562L28.125 13.1962V7.875H33.1875ZM14.0625 17.9269V18.3431C14.0408 20.095 13.4928 21.7999 12.4897 23.2363C11.4866 24.6728 10.0747 25.7744 8.4375 26.3981C6.80027 25.7744 5.38842 24.6728 4.38532 23.2363C3.38222 21.7999 2.83422 20.095 2.8125 18.3431V17.9269L8.4375 14.175L14.0625 17.9269ZM18 9C17.555 9 17.12 8.86804 16.75 8.62081C16.38 8.37357 16.0916 8.02217 15.9213 7.61104C15.751 7.1999 15.7064 6.7475 15.7932 6.31105C15.88 5.87459 16.0943 5.47368 16.409 5.15901C16.7237 4.84434 17.1246 4.63005 17.561 4.54323C17.9975 4.45642 18.4499 4.50097 18.861 4.67127C19.2722 4.84157 19.6236 5.12996 19.8708 5.49997C20.118 5.86998 20.25 6.30499 20.25 6.75C20.25 7.34674 20.0129 7.91903 19.591 8.34099C19.169 8.76295 18.5967 9 18 9ZM33.1875 17.9269V18.3431C33.1658 20.095 32.6178 21.7999 31.6147 23.2363C30.6116 24.6728 29.1997 25.7744 27.5625 26.3981C25.9253 25.7744 24.5134 24.6728 23.5103 23.2363C22.5072 21.7999 21.9592 20.095 21.9375 18.3431V17.9269L27.5625 14.175L33.1875 17.9269Z" fill="#14171B"/>
<path d="M26.3025 20.4471C26.2056 20.3337 26.0675 20.2635 25.9188 20.2519C25.77 20.2403 25.6228 20.2882 25.5094 20.3852C25.396 20.4822 25.3258 20.6202 25.3142 20.7689C25.3026 20.9177 25.3506 21.0649 25.4475 21.1783L26.8932 22.8658C26.946 22.9276 27.0115 22.9771 27.0853 23.0111C27.1591 23.0451 27.2394 23.0627 27.3207 23.0627H27.405C27.5 23.0481 27.5897 23.0095 27.6656 22.9504C27.7414 22.8913 27.8008 22.8138 27.8382 22.7252L29.7675 18.2252C29.8191 18.0892 29.8159 17.9386 29.7588 17.8049C29.7016 17.6711 29.5949 17.5647 29.4611 17.508C29.3272 17.4512 29.1765 17.4485 29.0407 17.5005C28.9049 17.5524 28.7944 17.6549 28.7325 17.7864L27.1632 21.4539L26.3025 20.4471Z" fill="#14171B"/>
</svg>
