<svg xmlns="http://www.w3.org/2000/svg" data-name="Layer 1" viewBox="0 0 100 125" x="0px" y="0px"><defs><style>
      .cls-1 {
        stroke-width: 0px;
      }
    </style></defs><path class="cls-1" d="m80,38c0-.8-.31-1.55-.88-2.12-1.17-1.17-3.07-1.17-4.24,0l-21.88,21.88c-.77.77-1.86,1.21-3,1.21s-2.23-.44-3-1.21l-21.88-21.88c-.58-.58-1.35-.88-2.12-.88s-1.54.29-2.12.88-.88,1.32-.88,2.12.31,1.55.88,2.12l21.88,21.88c1.93,1.93,4.51,3,7.24,3s5.31-1.07,7.24-3l21.88-21.88c.57-.57.88-1.32.88-2.12Z"/><text x="0" y="115" fill="#000000" font-size="5px" font-weight="bold" font-family="'Helvetica Neue', Helvetica, Arial-Unicode, Arial, Sans-serif">Created by Gregor Cresnar</text><text x="0" y="120" fill="#000000" font-size="5px" font-weight="bold" font-family="'Helvetica Neue', Helvetica, Arial-Unicode, Arial, Sans-serif">from the Noun Project</text></svg>