<svg width="64" height="64" viewBox="0 0 64 64" fill="none" xmlns="http://www.w3.org/2000/svg">
<path opacity="0.4" d="M43.4265 5.33398H52.1385C53.8774 5.34245 55.5418 6.04099 56.7659 7.27608C57.99 8.51117 58.6736 10.1817 58.6665 11.9207V20.7047C58.6665 24.3393 55.7438 27.2913 52.1385 27.2913H43.4265C41.6876 27.2829 40.0232 26.5843 38.7991 25.3492C37.575 24.1141 36.8914 22.4436 36.8985 20.7047V11.9207C36.8914 10.1817 37.575 8.51117 38.7991 7.27608C40.0232 6.04099 41.6876 5.34245 43.4265 5.33398Z" stroke="#00A496" stroke-width="4" stroke-linecap="round" stroke-linejoin="round"/>
<path d="M11.8628 5.33398H20.5694C21.4309 5.33748 22.2833 5.51062 23.0778 5.84352C23.8724 6.17643 24.5936 6.66257 25.2003 7.2742C25.8069 7.88583 26.2872 8.61097 26.6136 9.40821C26.9401 10.2054 27.1063 11.0592 27.1028 11.9207V20.7046C27.1063 21.5661 26.9401 22.4199 26.6136 23.2171C26.2872 24.0143 25.8069 24.7395 25.2003 25.3511C24.5936 25.9627 23.8724 26.4489 23.0778 26.7818C22.2833 27.1147 21.4309 27.2878 20.5694 27.2913H11.8654C11.004 27.2878 10.1516 27.1147 9.35705 26.7818C8.56249 26.4489 7.84128 25.9627 7.2346 25.3511C6.62793 24.7395 6.14766 24.0143 5.82123 23.2171C5.49479 22.4199 5.32859 21.5661 5.3321 20.7046V11.9207C5.32501 10.1813 6.009 8.51031 7.23366 7.27514C8.45833 6.03998 10.1234 5.34175 11.8628 5.33398ZM11.8628 36.71H20.5694C21.4311 36.7135 22.2837 36.8867 23.0784 37.2198C23.8732 37.5528 24.5945 38.0392 25.2012 38.6511C25.8079 39.2631 26.2881 39.9885 26.6144 40.7861C26.9407 41.5836 27.1066 42.4376 27.1028 43.2993V52.0807C27.1063 52.9423 26.94 53.7963 26.6134 54.5937C26.2868 55.3911 25.8063 56.1164 25.1993 56.728C24.5924 57.3397 23.8708 57.8258 23.076 58.1585C22.2811 58.4913 21.4285 58.6642 20.5668 58.6673H11.8654C11.004 58.6638 10.1516 58.4907 9.35705 58.1578C8.56249 57.8249 7.84128 57.3387 7.2346 56.7271C6.62793 56.1155 6.14766 55.3903 5.82123 54.5931C5.49479 53.7959 5.32859 52.9421 5.3321 52.0807V43.2993C5.32824 42.4378 5.4941 41.584 5.8202 40.7867C6.14631 39.9893 6.62629 39.264 7.23272 38.6521C7.83915 38.0402 8.56016 37.5538 9.35458 37.2205C10.149 36.8873 11.0013 36.7138 11.8628 36.71ZM43.4254 36.71H52.1374C55.7428 36.71 58.6654 39.6593 58.6654 43.2993V52.0807C58.6725 53.8196 57.9889 55.4901 56.7648 56.7252C55.5407 57.9603 53.8763 58.6588 52.1374 58.6673H43.4254C41.6865 58.6588 40.0221 57.9603 38.7981 56.7252C37.574 55.4901 36.8903 53.8196 36.8974 52.0807V43.2993C36.8896 41.5599 37.5729 39.8887 38.7971 38.653C40.0213 37.4174 41.6861 36.7184 43.4254 36.71Z" stroke="#00A496" stroke-width="2.5" stroke-linecap="round" stroke-linejoin="round"/>
</svg>
