<svg width="47" height="47" viewBox="0 0 47 47" fill="none" xmlns="http://www.w3.org/2000/svg">
<rect x="2.28906" y="24.6987" width="11.9851" height="22.1264" rx="3.68773" fill="#FFB1F3"/>
<rect x="17.9609" y="14.5574" width="12.9071" height="32.2677" rx="3.68773" fill="#FB5BE1"/>
<rect x="34.5566" y="2.57227" width="11.9851" height="44.2528" rx="3.68773" fill="#FFB1F3"/>
<circle cx="8.74271" cy="9.02591" r="8.2974" fill="#434343"/>
<path fill-rule="evenodd" clip-rule="evenodd" d="M7.57203 5.59198L11.7863 6.64583C12.0449 6.7105 12.1951 6.97069 12.1218 7.22699L10.9274 11.4036C10.8541 11.6599 10.585 11.8152 10.3264 11.7505C10.0678 11.6859 9.91755 11.4257 9.99085 11.1694L10.8649 8.11315L6.06918 10.882C5.84222 11.013 5.55201 10.9352 5.42098 10.7083C5.28995 10.4813 5.36771 10.1911 5.59466 10.0601L10.3904 7.29127L7.30659 6.52011C7.04799 6.45544 6.89776 6.19525 6.97106 5.93895C7.04436 5.68266 7.31342 5.52731 7.57203 5.59198Z" fill="white"/>
</svg>
