<svg width="57" height="57" viewBox="0 0 57 57" fill="none" xmlns="http://www.w3.org/2000/svg">
<path d="M20.8011 25.3172C21.135 25.1212 21.4117 24.8412 21.6038 24.5051C21.7959 24.169 21.8966 23.7884 21.8959 23.4013V3.69494C21.899 3.34223 21.8168 2.994 21.6563 2.67988C21.4959 2.36576 21.2619 2.09506 20.9743 1.8908C20.6868 1.68655 20.3541 1.55479 20.0047 1.50674C19.6552 1.45869 19.2994 1.49577 18.9673 1.61483C13.4239 3.58954 8.62619 7.22915 5.23088 12.0355C1.83557 16.8418 0.00858804 22.58 0 28.4647C0.00296495 30.2084 0.158656 31.9485 0.465288 33.665C0.531076 34.0079 0.676923 34.3304 0.890951 34.6062C1.10498 34.8821 1.38114 35.1035 1.69693 35.2524C1.98836 35.3898 2.3054 35.4644 2.62751 35.4714C3.01257 35.469 3.39019 35.3652 3.7223 35.1703L20.8011 25.3172ZM17.5167 7.0067V22.1422L4.40655 29.7237C4.37918 29.2858 4.37918 28.8752 4.37918 28.4647C4.38759 24.0265 5.61796 19.6764 7.93537 15.8913C10.2528 12.1062 13.5677 9.03227 17.5167 7.0067Z" fill="#C9CDFF"/>
<path d="M53.1804 14.3418C53.1521 14.3113 53.1331 14.2733 53.1256 14.2323L53.0162 14.0955C50.5113 9.80663 46.9267 6.24862 42.6194 3.77562C38.3121 1.30263 33.4321 0.000895269 28.4654 0C27.8846 0 27.3277 0.230688 26.9171 0.641316C26.5065 1.05194 26.2758 1.60888 26.2758 2.18959V27.2057L4.62619 39.7137C4.37385 39.8532 4.15194 40.0417 3.97353 40.2681C3.79511 40.4946 3.66379 40.7545 3.58728 41.0324C3.51078 41.3104 3.49064 41.6009 3.52804 41.8867C3.56545 42.1726 3.65964 42.4481 3.80509 42.697V42.7518L3.8872 42.8886C7.04445 48.2933 11.8951 52.5066 17.6884 54.8764C23.4817 57.2462 29.8947 57.6404 35.9346 55.998C41.9745 54.3556 47.3047 50.7681 51.1001 45.7908C54.8956 40.8135 56.9446 34.7239 56.93 28.4647C56.9367 23.5102 55.6438 18.6405 53.1804 14.3418Z" fill="#7782FF"/>
</svg>
