<svg width="59" height="58" viewBox="0 0 59 58" fill="none" xmlns="http://www.w3.org/2000/svg">
<circle cx="29.5467" cy="28.6988" r="28.5799" fill="#8AE79F"/>
<line x1="34.6171" y1="22.7061" x2="17.1004" y2="22.7061" stroke="#469B59" stroke-width="2.7658" stroke-linecap="round"/>
<line x1="23.5548" y1="36.5353" x2="41.0715" y2="36.5353" stroke="#469B59" stroke-width="2.7658" stroke-linecap="round"/>
<path d="M41.7005 21.5624C42.1038 21.9283 42.1038 22.5622 41.7005 22.928L34.3142 29.6294C33.7218 30.1669 32.7728 29.7465 32.7728 28.9466L32.7728 15.5439C32.7728 14.744 33.7218 14.3236 34.3142 14.8611L41.7005 21.5624Z" fill="#469B59"/>
<path d="M16.4694 37.679C16.0661 37.3131 16.0661 36.6793 16.4694 36.3134L23.8557 29.6121C24.4481 29.0746 25.3971 29.4949 25.3971 30.2949L25.3971 43.6975C25.3971 44.4974 24.4481 44.9178 23.8557 44.3803L16.4694 37.679Z" fill="#469B59"/>
</svg>
