<svg width="301" height="273" viewBox="0 0 301 273" fill="none" xmlns="http://www.w3.org/2000/svg">
<g filter="url(#filter0_i_129_2648)">
<rect width="130.384" height="63.8264" rx="13.6921" transform="matrix(0.999992 0.00412006 -0.00554003 0.999985 84.7637 46.0459)" fill="url(#paint0_linear_129_2648)" fill-opacity="0.93"/>
</g>
<path d="M138.907 80.7142C139.166 81.2005 139.452 81.6259 139.763 81.9903C140.086 82.3549 140.443 82.6403 140.832 82.8464C141.221 83.0525 141.643 83.1608 142.098 83.1714C142.628 83.1837 143.062 83.0583 143.401 82.7952C143.74 82.5322 143.915 82.1668 143.927 81.699C143.937 81.2928 143.84 80.9642 143.637 80.7132C143.446 80.4624 143.15 80.24 142.748 80.046C142.359 79.8399 141.878 79.6193 141.305 79.3843C141 79.2664 140.647 79.1104 140.245 78.9164C139.856 78.7103 139.486 78.4554 139.137 78.1517C138.787 77.8357 138.501 77.4595 138.278 77.0233C138.055 76.5747 137.951 76.0427 137.966 75.4273C137.984 74.6888 138.184 74.0592 138.567 73.5385C138.962 73.0058 139.482 72.6053 140.13 72.337C140.789 72.0568 141.519 71.926 142.319 71.9445C143.144 71.9637 143.848 72.1217 144.432 72.4185C145.029 72.7033 145.518 73.0657 145.902 73.5057C146.298 73.9336 146.601 74.3778 146.811 74.8384L144.715 75.9351C144.55 75.6234 144.348 75.3416 144.108 75.0897C143.88 74.8257 143.614 74.6164 143.31 74.4615C143.006 74.2943 142.658 74.2062 142.264 74.197C141.747 74.185 141.356 74.2991 141.091 74.5393C140.827 74.7671 140.691 75.0411 140.683 75.3611C140.675 75.6811 140.773 75.9667 140.976 76.2177C141.18 76.4564 141.494 76.6916 141.92 76.9231C142.345 77.1424 142.882 77.3704 143.529 77.6071C143.943 77.7645 144.339 77.9585 144.715 78.1889C145.103 78.4196 145.448 78.6985 145.747 79.0257C146.06 79.3409 146.297 79.7158 146.459 80.1506C146.633 80.5734 146.714 81.0618 146.7 81.6157C146.684 82.2434 146.548 82.8006 146.289 83.2872C146.031 83.7739 145.682 84.1845 145.243 84.5191C144.804 84.8415 144.312 85.0825 143.766 85.2422C143.232 85.4146 142.669 85.4939 142.079 85.4802C141.291 85.4619 140.556 85.297 139.874 84.9856C139.204 84.6621 138.624 84.2361 138.132 83.7074C137.64 83.1787 137.26 82.6095 136.991 81.9998L138.907 80.7142ZM149.771 79.618L149.83 77.2362L159.32 77.4567L159.261 79.8384L149.771 79.618ZM157.759 72.5618L160.4 72.6232L160.082 85.5473L157.441 85.486L157.759 72.5618ZM149.081 72.3602L151.722 72.4216L151.404 85.3458L148.764 85.2844L149.081 72.3602ZM164.727 82.7179L165.092 80.6389L171.296 80.783L171.558 82.8766L164.727 82.7179ZM168.248 76.999L166.2 81.4036L166.241 81.9957L164.452 85.6489L161.479 85.5798L168.37 72.0509L174.588 85.8843L171.597 85.8148L170.023 82.1944L170.077 81.5306L168.248 76.999ZM179.074 79.9661L181.862 80.0309L185.924 86.1476L182.803 86.0751L179.074 79.9661ZM176.308 72.9927L178.948 73.054L178.631 85.9782L175.99 85.9169L176.308 72.9927ZM177.859 75.2825L177.914 73.03L180.647 73.0935C181.669 73.1172 182.532 73.3097 183.238 73.6709C183.943 74.0322 184.479 74.5249 184.846 75.1492C185.212 75.7735 185.385 76.498 185.365 77.3227C185.345 78.1351 185.136 78.8507 184.739 79.4696C184.343 80.0762 183.783 80.5435 183.061 80.8715C182.338 81.1996 181.466 81.3518 180.445 81.328L177.712 81.2646L177.764 79.1598L180.33 79.2194C180.798 79.2302 181.2 79.1657 181.536 79.0257C181.884 78.8737 182.154 78.6583 182.346 78.3795C182.538 78.0884 182.639 77.7397 182.649 77.3335C182.659 76.9273 182.575 76.5805 182.397 76.2931C182.22 75.9934 181.961 75.7657 181.62 75.61C181.291 75.4423 180.893 75.353 180.426 75.3421L177.859 75.2825ZM189.139 86.2223L189.194 83.9883L195.711 84.1397L195.656 86.3737L189.139 86.2223ZM189.402 75.5322L189.456 73.2981L195.974 73.4495L195.919 75.6836L189.402 75.5322ZM189.28 80.4618L189.334 78.2647L195.483 78.4075L195.429 80.6046L189.28 80.4618ZM187.758 73.2587L190.306 73.3178L189.988 86.242L187.44 86.1828L187.758 73.2587Z" fill="#303030"/>
<ellipse cx="112.598" cy="78.4271" rx="17.6906" ry="17.7275" transform="rotate(21.7327 112.598 78.4271)" fill="#034737" fill-opacity="0.12"/>
<g filter="url(#filter1_d_129_2648)">
<ellipse cx="112.598" cy="78.4274" rx="9.18119" ry="9.20036" transform="rotate(21.7327 112.598 78.4274)" fill="#034737"/>
<path d="M120.882 81.7293C119.054 86.3145 113.864 88.5522 109.289 86.7288C104.715 84.9054 102.487 79.7107 104.315 75.1255C106.143 70.5404 111.333 68.3027 115.907 70.1261C120.482 71.9495 122.71 77.1442 120.882 81.7293Z" stroke="#CAD9FF" stroke-width="0.527677"/>
</g>
<path d="M29.3864 123L27.8953 270.766M164.81 124.251L163.319 272.017M98.1398 123.635L96.6487 271.401M232.869 124.879L231.378 272.646M62.7211 123.308L61.23 271.074M198.84 124.565L197.349 272.331M131.474 123.943L129.983 271.709M266.899 125.194L265.407 272.96M0.0405123 244.34L299.361 247.105M0.678115 181.139L299.998 183.903M0.35402 213.185L299.674 215.949M1.00088 149.093L300.321 151.858" stroke="#E4B5A8" stroke-width="0.411357"/>
<path d="M22 261L91.077 201.681L115.5 233L171 187L214.822 237.876L279 168" stroke="url(#paint1_linear_129_2648)" stroke-width="8" stroke-linecap="round"/>
<g filter="url(#filter2_d_129_2648)">
<ellipse cx="171.726" cy="187.741" rx="12.0979" ry="12.1232" transform="rotate(21.7327 171.726 187.741)" fill="white"/>
<path d="M181.106 191.48C179.034 196.677 173.154 199.208 167.977 197.145C162.8 195.081 160.274 189.199 162.345 184.002C164.417 178.805 170.297 176.274 175.474 178.337C180.651 180.401 183.177 186.283 181.106 191.48Z" stroke="#3DACB7" stroke-width="4"/>
</g>
<g filter="url(#filter3_d_129_2648)">
<ellipse cx="113.726" cy="233.741" rx="12.0979" ry="12.1232" transform="rotate(21.7327 113.726 233.741)" fill="white"/>
<path d="M123.106 237.48C121.034 242.677 115.154 245.208 109.977 243.145C104.8 241.081 102.274 235.199 104.345 230.002C106.417 224.805 112.297 222.274 117.474 224.337C122.651 226.401 125.177 232.283 123.106 237.48Z" stroke="#3D95CF" stroke-width="4"/>
</g>
<g filter="url(#filter4_d_129_2648)">
<ellipse cx="216.726" cy="233.741" rx="12.0979" ry="12.1232" transform="rotate(21.7327 216.726 233.741)" fill="white"/>
<path d="M226.106 237.48C224.034 242.677 218.154 245.208 212.977 243.145C207.8 241.081 205.274 235.199 207.345 230.002C209.417 224.805 215.297 222.274 220.474 224.337C225.651 226.401 228.177 232.283 226.106 237.48Z" stroke="#3DC39E" stroke-width="4"/>
</g>
<g filter="url(#filter5_d_129_2648)">
<ellipse cx="87.7041" cy="202.718" rx="12.0803" ry="12.1055" transform="rotate(21.7327 87.7041 202.718)" fill="white"/>
<path d="M97.0679 206.451C94.9999 211.639 89.1301 214.165 83.9622 212.105C78.7944 210.045 76.2723 204.174 78.3403 198.986C80.4083 193.798 86.2781 191.271 91.4459 193.331C96.6138 195.391 99.1359 201.263 97.0679 206.451Z" stroke="#3C88DC" stroke-width="4"/>
</g>
<defs>
<filter id="filter0_i_129_2648" x="84.4863" y="46.1021" width="130.584" height="64.25" filterUnits="userSpaceOnUse" color-interpolation-filters="sRGB">
<feFlood flood-opacity="0" result="BackgroundImageFix"/>
<feBlend mode="normal" in="SourceGraphic" in2="BackgroundImageFix" result="shape"/>
<feColorMatrix in="SourceAlpha" type="matrix" values="0 0 0 0 0 0 0 0 0 0 0 0 0 0 0 0 0 0 127 0" result="hardAlpha"/>
<feOffset dx="-1.02691" dy="1.02691"/>
<feComposite in2="hardAlpha" operator="arithmetic" k2="-1" k3="1"/>
<feColorMatrix type="matrix" values="0 0 0 0 1 0 0 0 0 1 0 0 0 0 1 0 0 0 1 0"/>
<feBlend mode="normal" in2="shape" result="effect1_innerShadow_129_2648"/>
</filter>
<filter id="filter1_d_129_2648" x="101.829" y="69.2271" width="24.7052" height="25.2602" filterUnits="userSpaceOnUse" color-interpolation-filters="sRGB">
<feFlood flood-opacity="0" result="BackgroundImageFix"/>
<feColorMatrix in="SourceAlpha" type="matrix" values="0 0 0 0 0 0 0 0 0 0 0 0 0 0 0 0 0 0 127 0" result="hardAlpha"/>
<feOffset dx="1.58303" dy="3.69374"/>
<feGaussianBlur stdDeviation="1.58303"/>
<feComposite in2="hardAlpha" operator="out"/>
<feColorMatrix type="matrix" values="0 0 0 0 0.0117647 0 0 0 0 0.278431 0 0 0 0 0.215686 0 0 0 0.31 0"/>
<feBlend mode="normal" in2="BackgroundImageFix" result="effect1_dropShadow_129_2648"/>
<feBlend mode="normal" in="SourceGraphic" in2="effect1_dropShadow_129_2648" result="shape"/>
</filter>
<filter id="filter2_d_129_2648" x="157.83" y="175.618" width="31.3724" height="32.006" filterUnits="userSpaceOnUse" color-interpolation-filters="sRGB">
<feFlood flood-opacity="0" result="BackgroundImageFix"/>
<feColorMatrix in="SourceAlpha" type="matrix" values="0 0 0 0 0 0 0 0 0 0 0 0 0 0 0 0 0 0 127 0" result="hardAlpha"/>
<feOffset dx="1.79086" dy="4.17866"/>
<feGaussianBlur stdDeviation="1.79086"/>
<feComposite in2="hardAlpha" operator="out"/>
<feColorMatrix type="matrix" values="0 0 0 0 0.875 0 0 0 0 0.73125 0 0 0 0 0.707292 0 0 0 1 0"/>
<feBlend mode="multiply" in2="BackgroundImageFix" result="effect1_dropShadow_129_2648"/>
<feBlend mode="normal" in="SourceGraphic" in2="effect1_dropShadow_129_2648" result="shape"/>
</filter>
<filter id="filter3_d_129_2648" x="99.8302" y="221.618" width="31.3724" height="32.006" filterUnits="userSpaceOnUse" color-interpolation-filters="sRGB">
<feFlood flood-opacity="0" result="BackgroundImageFix"/>
<feColorMatrix in="SourceAlpha" type="matrix" values="0 0 0 0 0 0 0 0 0 0 0 0 0 0 0 0 0 0 127 0" result="hardAlpha"/>
<feOffset dx="1.79086" dy="4.17866"/>
<feGaussianBlur stdDeviation="1.79086"/>
<feComposite in2="hardAlpha" operator="out"/>
<feColorMatrix type="matrix" values="0 0 0 0 0.875 0 0 0 0 0.73125 0 0 0 0 0.707292 0 0 0 1 0"/>
<feBlend mode="multiply" in2="BackgroundImageFix" result="effect1_dropShadow_129_2648"/>
<feBlend mode="normal" in="SourceGraphic" in2="effect1_dropShadow_129_2648" result="shape"/>
</filter>
<filter id="filter4_d_129_2648" x="202.83" y="221.618" width="31.3724" height="32.006" filterUnits="userSpaceOnUse" color-interpolation-filters="sRGB">
<feFlood flood-opacity="0" result="BackgroundImageFix"/>
<feColorMatrix in="SourceAlpha" type="matrix" values="0 0 0 0 0 0 0 0 0 0 0 0 0 0 0 0 0 0 127 0" result="hardAlpha"/>
<feOffset dx="1.79086" dy="4.17866"/>
<feGaussianBlur stdDeviation="1.79086"/>
<feComposite in2="hardAlpha" operator="out"/>
<feColorMatrix type="matrix" values="0 0 0 0 0.875 0 0 0 0 0.73125 0 0 0 0 0.707292 0 0 0 1 0"/>
<feBlend mode="multiply" in2="BackgroundImageFix" result="effect1_dropShadow_129_2648"/>
<feBlend mode="normal" in="SourceGraphic" in2="effect1_dropShadow_129_2648" result="shape"/>
</filter>
<filter id="filter5_d_129_2648" x="73.8263" y="190.613" width="31.3372" height="31.9708" filterUnits="userSpaceOnUse" color-interpolation-filters="sRGB">
<feFlood flood-opacity="0" result="BackgroundImageFix"/>
<feColorMatrix in="SourceAlpha" type="matrix" values="0 0 0 0 0 0 0 0 0 0 0 0 0 0 0 0 0 0 127 0" result="hardAlpha"/>
<feOffset dx="1.79086" dy="4.17866"/>
<feGaussianBlur stdDeviation="1.79086"/>
<feComposite in2="hardAlpha" operator="out"/>
<feColorMatrix type="matrix" values="0 0 0 0 0.875 0 0 0 0 0.73125 0 0 0 0 0.707292 0 0 0 1 0"/>
<feBlend mode="multiply" in2="BackgroundImageFix" result="effect1_dropShadow_129_2648"/>
<feBlend mode="normal" in="SourceGraphic" in2="effect1_dropShadow_129_2648" result="shape"/>
</filter>
<linearGradient id="paint0_linear_129_2648" x1="118.88" y1="23.2751" x2="10.2306" y2="-1.95031" gradientUnits="userSpaceOnUse">
<stop stop-color="#F4F4F4"/>
<stop offset="0.421875" stop-color="#F4F4F4"/>
<stop offset="1" stop-color="white"/>
</linearGradient>
<linearGradient id="paint1_linear_129_2648" x1="238.131" y1="160.962" x2="26.7897" y2="220.963" gradientUnits="userSpaceOnUse">
<stop stop-color="#3DCF92"/>
<stop offset="1" stop-color="#3D67FF"/>
</linearGradient>
</defs>
</svg>
