<svg width="56" height="55" viewBox="0 0 56 55" fill="none" xmlns="http://www.w3.org/2000/svg">
<ellipse cx="28" cy="27.5" rx="28" ry="27.5" fill="#EDEDFF"/>
<path d="M18.1058 37.8942C16.8673 36.6558 17.6885 34.0577 17.0558 32.5365C16.4231 31.0154 14 29.6827 14 28C14 26.3173 16.3962 25.0385 17.0558 23.4635C17.7154 21.8885 16.8673 19.3442 18.1058 18.1058C19.3442 16.8673 21.9423 17.6885 23.4635 17.0558C24.9846 16.4231 26.3173 14 28 14C29.6827 14 30.9615 16.3962 32.5365 17.0558C34.1115 17.7154 36.6558 16.8673 37.8942 18.1058C39.1327 19.3442 38.3115 21.9423 38.9442 23.4635C39.5769 24.9846 42 26.3173 42 28C42 29.6827 39.6038 30.9615 38.9442 32.5365C38.2846 34.1115 39.1327 36.6558 37.8942 37.8942C36.6558 39.1327 34.0577 38.3115 32.5365 38.9442C31.0154 39.5769 29.6827 42 28 42C26.3173 42 25.0385 39.6038 23.4635 38.9442C21.8885 38.2846 19.3442 39.1327 18.1058 37.8942Z" stroke="#928EF2" stroke-width="2" stroke-linecap="round" stroke-linejoin="round"/>
<path d="M32 24L24 32" stroke="#928EF2" stroke-width="2" stroke-linecap="round" stroke-linejoin="round"/>
<path d="M25 26C25.5523 26 26 25.5523 26 25C26 24.4477 25.5523 24 25 24C24.4477 24 24 24.4477 24 25C24 25.5523 24.4477 26 25 26Z" stroke="#928EF2" stroke-width="2" stroke-linecap="round" stroke-linejoin="round"/>
<path d="M31 32C31.5523 32 32 31.5523 32 31C32 30.4477 31.5523 30 31 30C30.4477 30 30 30.4477 30 31C30 31.5523 30.4477 32 31 32Z" stroke="#928EF2" stroke-width="2" stroke-linecap="round" stroke-linejoin="round"/>
</svg>
