<svg width="56" height="55" viewBox="0 0 56 55" fill="none" xmlns="http://www.w3.org/2000/svg">
<ellipse cx="28" cy="27.5" rx="28" ry="27.5" fill="#FFE7DF"/>
<path d="M20.2735 31.8394C20.1673 31.7395 20.0278 31.6905 19.8904 31.6936C19.755 31.6968 19.6186 31.753 19.5176 31.8602L16.2901 35.2629L18.842 37.6847L22.0717 34.281C22.1717 34.1748 22.2206 34.0352 22.2165 33.8988C22.2133 33.7635 22.1571 33.6271 22.0499 33.5261C21.4585 32.9639 20.866 32.4006 20.2725 31.8404L20.2735 31.8394ZM26.7913 23.4787C26.4967 23.4787 26.2583 23.2403 26.2583 22.9456C26.2583 22.651 26.4967 22.4125 26.7913 22.4125H32.268C32.5627 22.4125 32.8011 22.651 32.8011 22.9456C32.8011 23.2403 32.5627 23.4787 32.268 23.4787H26.7913ZM26.7913 22.0689C26.4967 22.0689 26.2583 21.8305 26.2583 21.5358C26.2583 21.2412 26.4967 21.0028 26.7913 21.0028H32.268C32.5627 21.0028 32.8011 21.2412 32.8011 21.5358C32.8011 21.8305 32.5627 22.0689 32.268 22.0689H26.7913ZM28.2907 19.593C28.5853 19.593 28.8237 19.8314 28.8237 20.1261C28.8237 20.4207 28.5853 20.6592 28.2907 20.6592H26.7913C26.4967 20.6592 26.2583 20.4207 26.2583 20.1261C26.2583 19.8314 26.4967 19.593 26.7913 19.593H28.2907ZM24.9037 38.9675C24.609 38.9675 24.3706 38.7291 24.3706 38.4345C24.3706 38.1398 24.609 37.9014 24.9037 37.9014H25.2973V32.7715C25.0578 32.658 24.8256 32.5361 24.6038 32.407C24.4133 32.2967 24.2248 32.179 24.0405 32.0562L23.0556 33.0942C23.1972 33.3326 23.2721 33.6023 23.2794 33.872C23.2898 34.2801 23.1451 34.6935 22.8432 35.0121L19.248 38.801C19.046 39.0134 18.7087 39.0217 18.4963 38.8197L15.1727 35.6671C14.9603 35.4651 14.952 35.1277 15.154 34.9153L18.7481 31.1264C19.05 30.8088 19.4561 30.6423 19.8653 30.6308C20.1349 30.6235 20.4067 30.6849 20.6514 30.813L21.6363 29.7749C21.0553 29.0003 20.5837 28.133 20.2484 27.2001C19.8726 26.1537 19.6664 25.0292 19.6664 23.8621C19.6664 21.1394 20.7711 18.6728 22.5547 16.8883C24.3393 15.1037 26.8047 14 29.5286 14C31.5505 14 33.4329 14.6112 34.9999 15.6586C36.6127 16.7363 37.8903 18.2782 38.642 20.0931C38.7534 20.3649 38.6232 20.6751 38.3525 20.7866C38.0808 20.898 37.7705 20.7678 37.6591 20.4971C36.9896 18.8802 35.8484 17.5046 34.4086 16.5427C33.0144 15.6108 31.3351 15.0673 29.5276 15.0673C27.0985 15.0673 24.8996 16.0523 23.3075 17.6442C21.7156 19.2362 20.7306 21.4353 20.7306 23.8643C20.7306 24.9149 20.9128 25.9186 21.246 26.8443C21.5917 27.8053 22.1039 28.6924 22.7474 29.4702C22.9275 29.6878 22.9046 30.0064 22.7026 30.1969L21.4626 31.5036L22.3226 32.3199L23.5845 30.9903C23.7751 30.7904 24.0843 30.7717 24.2967 30.9382C24.5622 31.135 24.8423 31.3183 25.1348 31.488L25.2952 31.5786V28.6602C25.2952 28.3655 25.5336 28.1271 25.8283 28.1271H28.9842C29.2788 28.1271 29.5172 28.3655 29.5172 28.6602V37.9029H30.142V25.1618C30.142 24.8671 30.3804 24.6287 30.6751 24.6287H33.8309C34.1256 24.6287 34.364 24.8671 34.364 25.1618V29.5336C35.0533 28.9454 35.6332 28.2353 36.0695 27.4377C36.6484 26.3788 36.9785 25.1617 36.9785 23.8644C36.9785 21.807 36.1445 19.9444 34.7961 18.5959C33.4478 17.2475 31.5851 16.4136 29.5276 16.4136C27.4702 16.4136 25.6075 17.2476 24.2591 18.5959C22.9107 19.9443 22.0768 21.807 22.0768 23.8644C22.0768 24.94 22.3048 25.9614 22.7129 26.8839C23.1377 27.8438 23.7593 28.6955 24.5236 29.3889C24.7412 29.5857 24.7578 29.921 24.561 30.1386C24.3643 30.3562 24.029 30.3729 23.8114 30.1761C22.9337 29.3806 22.2225 28.4061 21.7384 27.3129C21.2709 26.2581 21.0106 25.091 21.0106 23.8654C21.0106 21.5144 21.9643 19.3842 23.5053 17.8431C25.0463 16.3019 27.1756 15.3484 29.5276 15.3484C31.8796 15.3484 34.0087 16.3021 35.5499 17.8431C37.0911 19.384 38.0446 21.5134 38.0446 23.8654C38.0446 25.3418 37.6666 26.7329 37.0023 27.9467C36.362 29.118 35.4541 30.1218 34.364 30.8755V31.2149C35.4552 30.4955 36.3766 29.5417 37.0545 28.4245C37.8593 27.098 38.3237 25.5372 38.3237 23.8652C38.3237 23.5706 38.5621 23.3321 38.8568 23.3321C39.1514 23.3321 39.3899 23.5706 39.3899 23.8652C39.3899 25.7331 38.8672 27.4822 37.9624 28.9733C37.0826 30.4236 35.8394 31.6283 34.364 32.4613V37.9025H34.9888V32.783C34.9888 32.4883 35.2272 32.2499 35.5219 32.2499H38.6777C38.9724 32.2499 39.2108 32.4883 39.2108 32.783V37.9025H39.6044C39.8991 37.9025 40.1375 38.1409 40.1375 38.4356C40.1375 38.7303 39.8991 38.9687 39.6044 38.9687H24.9029L24.9037 38.9675ZM38.1467 33.3149H36.057V37.9014H38.1467V33.3149ZM33.2998 25.6934H31.2102V37.9014H33.2998V25.6934ZM28.453 29.1918H26.3633V37.9014H28.453V29.1918ZM29.5296 16.6746C29.8242 16.6746 30.0627 16.913 30.0627 17.2077C30.0627 17.5023 29.8242 17.7408 29.5296 17.7408C28.5352 17.7408 27.5982 17.9761 26.7714 18.3946C25.9103 18.8298 25.1669 19.4618 24.5995 20.2313C24.4256 20.4676 24.0924 20.5186 23.8561 20.3458C23.6197 20.1719 23.5687 19.8388 23.7415 19.6024C24.4079 18.6986 25.2814 17.9563 26.2924 17.4461C27.267 16.9536 28.3675 16.6756 29.5296 16.6756L29.5296 16.6746ZM22.613 21.9055C22.6901 21.6223 22.9816 21.4557 23.2648 21.5328C23.548 21.6098 23.7146 21.9014 23.6375 22.1846L23.5844 22.3834C23.5116 22.6666 23.2231 22.8384 22.9389 22.7666C22.6557 22.6937 22.4839 22.4053 22.5557 22.121L22.613 21.9055ZM39.2137 21.993C39.2699 22.2814 39.0814 22.5615 38.793 22.6177C38.5046 22.6739 38.2246 22.4855 38.1683 22.1971L38.161 22.1606C38.1048 21.8722 38.2933 21.5921 38.5817 21.5359C38.8701 21.4797 39.1501 21.6681 39.2064 21.9565L39.2137 21.993Z" fill="#BC7963"/>
</svg>
