<svg width="56" height="55" viewBox="0 0 56 55" fill="none" xmlns="http://www.w3.org/2000/svg">
<ellipse cx="28" cy="27.5" rx="28" ry="27.5" fill="#FFE4E4"/>
<path d="M39 18H17C16.4477 18 16 18.4477 16 19V37C16 37.5523 16.4477 38 17 38H39C39.5523 38 40 37.5523 40 37V19C40 18.4477 39.5523 18 39 18Z" stroke="#FF4F4F" stroke-width="2" stroke-linecap="round" stroke-linejoin="round"/>
<path d="M20.5 23.75C21.1904 23.75 21.75 23.1904 21.75 22.5C21.75 21.8096 21.1904 21.25 20.5 21.25C19.8096 21.25 19.25 21.8096 19.25 22.5C19.25 23.1904 19.8096 23.75 20.5 23.75Z" fill="#FF4F4F"/>
<path d="M24 23.75C24.6904 23.75 25.25 23.1904 25.25 22.5C25.25 21.8096 24.6904 21.25 24 21.25C23.3096 21.25 22.75 21.8096 22.75 22.5C22.75 23.1904 23.3096 23.75 24 23.75Z" fill="#FF4F4F"/>
</svg>
