<svg width="56" height="55" viewBox="0 0 56 55" fill="none" xmlns="http://www.w3.org/2000/svg">
<ellipse cx="28" cy="27.5" rx="28" ry="27.5" fill="#FFE2ED"/>
<path d="M39 18.9323V35.0677C39.0001 35.2119 38.9673 35.3543 38.9041 35.4834C38.8408 35.6126 38.7489 35.7251 38.6356 35.812C38.5223 35.8989 38.3907 35.9579 38.2511 35.9843C38.1115 36.0107 37.9678 36.0038 37.8312 35.9641L17.6646 29.9919C17.4729 29.9362 17.3044 29.8186 17.1845 29.6568C17.0646 29.4951 16.9998 29.298 17 29.0955V24.9045C16.9998 24.702 17.0646 24.5049 17.1845 24.3432C17.3044 24.1814 17.4729 24.0638 17.6646 24.0081L37.8312 18.0359C37.9678 17.9962 38.1115 17.9893 38.2511 18.0157C38.3907 18.0421 38.5223 18.1011 38.6356 18.188C38.7489 18.2749 38.8408 18.3874 38.9041 18.5166C38.9673 18.6457 39.0001 18.7881 39 18.9323Z" stroke="#FF80AD" stroke-width="2" stroke-linecap="round" stroke-linejoin="round"/>
<path d="M22 31.8766V36.0748C22 36.3202 22.0878 36.5555 22.2441 36.729C22.4004 36.9025 22.6123 37 22.8333 37H26.1667C26.3877 37 26.5996 36.9025 26.7559 36.729C26.9122 36.5555 27 36.3202 27 36.0748V22" stroke="#FF80AD" stroke-width="2" stroke-linecap="round" stroke-linejoin="round"/>
</svg>
