<svg width="56" height="55" viewBox="0 0 56 55" fill="none" xmlns="http://www.w3.org/2000/svg">
<ellipse cx="28" cy="27.5" rx="28" ry="27.5" fill="#F4E6FF"/>
<path d="M36.8316 14.0025H20.5046C20.4146 14.0035 20.3246 14.0235 20.2426 14.0615H20.2296L16.2967 15.9339C16.0737 16.04 15.9316 16.265 15.9316 16.5121C15.9316 16.7591 16.0737 16.9842 16.2967 17.0902L20.2285 18.9597H20.2425C20.3246 18.9977 20.4146 19.0177 20.5046 19.0187H36.8315C37.5047 19.0307 38.1549 18.7716 38.636 18.2995C39.1161 17.8284 39.3871 17.1832 39.3871 16.5091C39.3871 15.8359 39.1161 15.1908 38.636 14.7186C38.1549 14.2465 37.5047 13.9875 36.8315 14.0005L36.8316 14.0025ZM21.1499 15.2828H34.621V17.7404H21.1499V15.2828ZM19.8696 15.6559V17.3683L18.0682 16.5151L19.8696 15.6559ZM36.8316 17.7403H35.9013V15.2828H36.8316C37.1626 15.2748 37.4837 15.3998 37.7218 15.6308C37.9588 15.8629 38.0929 16.18 38.0929 16.5121C38.0929 16.8431 37.9588 17.1612 37.7218 17.3923C37.4837 17.6233 37.1626 17.7493 36.8316 17.7403Z" fill="#A76FD2"/>
<path d="M19.4006 25.6291C19.2586 25.7231 19.1596 25.8712 19.1256 26.0382C19.0925 26.2063 19.1266 26.3803 19.2226 26.5213C19.3176 26.6634 19.4656 26.7614 19.6337 26.7934C19.8017 26.8244 19.9758 26.7884 20.1158 26.6914C20.7689 26.2503 21.5391 26.0142 22.3273 26.0142C23.1145 26.0142 23.8847 26.2503 24.5378 26.6914C24.6779 26.7884 24.8519 26.8244 25.0199 26.7934C25.188 26.7614 25.336 26.6634 25.431 26.5213C25.5271 26.3803 25.5621 26.2063 25.5281 26.0382C25.4951 25.8712 25.395 25.7231 25.253 25.6291C24.3888 25.045 23.3696 24.7329 22.3273 24.7329C21.284 24.7329 20.2649 25.045 19.4006 25.6291Z" fill="#A76FD2"/>
<path d="M19.3995 29.196C19.1054 29.393 19.0264 29.7921 19.2244 30.0872C19.4215 30.3813 19.8206 30.4603 20.1146 30.2622C20.7678 29.8211 21.538 29.5851 22.3262 29.5851C23.1133 29.5851 23.8835 29.8211 24.5367 30.2622C24.8297 30.4603 25.2278 30.3823 25.4249 30.0892C25.6229 29.7951 25.5449 29.397 25.2519 29.2C24.3877 28.6158 23.3694 28.3028 22.3261 28.3018C21.2839 28.3008 20.2647 28.6128 19.3995 29.196Z" fill="#A76FD2"/>
<path d="M19.3979 32.7629C19.2568 32.8579 19.1598 33.004 19.1268 33.171C19.0948 33.3381 19.1298 33.5111 19.2248 33.6511C19.4219 33.9452 19.82 34.0232 20.113 33.8252C20.7662 33.3841 21.5364 33.148 22.3246 33.148C23.1117 33.148 23.8819 33.3841 24.5351 33.8252C24.8281 34.0232 25.2262 33.9452 25.4233 33.6511C25.6214 33.3581 25.5433 32.96 25.2503 32.7629C24.3861 32.1788 23.3668 31.8667 22.3245 31.8667C21.2813 31.8667 20.2621 32.1788 19.3979 32.7629Z" fill="#A76FD2"/>
<path d="M37.8502 22.3316C36.3199 21.3364 34.5225 20.8312 32.697 20.8853C30.8726 20.9383 29.1071 21.5464 27.6368 22.6287C26.1664 21.5474 24.4009 20.9393 22.5765 20.8853C20.7521 20.8323 18.9545 21.3364 17.4233 22.3306C16.7671 22.7677 16.373 23.5049 16.375 24.2941V36.9202C16.375 37.4483 16.6551 37.9364 17.1112 38.2035C17.5663 38.4695 18.1284 38.4755 18.5895 38.2175C19.9418 37.4673 21.4892 37.1432 23.0296 37.2873C24.569 37.4323 26.0304 38.0384 27.2195 39.0267L27.2325 39.0347C27.2745 39.0687 27.3206 39.0977 27.3706 39.1197C27.3776 39.1197 27.3856 39.1197 27.3916 39.1237V39.1247C27.5466 39.1957 27.7267 39.1957 27.8817 39.1247C27.8887 39.1247 27.8967 39.1247 27.9027 39.1207V39.1197C27.9527 39.0977 27.9987 39.0687 28.0407 39.0347L28.0537 39.0267C29.243 38.0384 30.7045 37.4323 32.2437 37.2873C33.784 37.1432 35.3315 37.4673 36.6837 38.2175C37.1449 38.4755 37.707 38.4695 38.1621 38.2035C38.6182 37.9364 38.8983 37.4483 38.8983 36.9202V24.2951C38.9003 23.5059 38.5074 22.7687 37.8502 22.3316ZM17.9625 37.0981C17.8985 37.1331 17.8195 37.1321 17.7565 37.0941C17.6935 37.0561 17.6545 36.9871 17.6555 36.9141V24.2951C17.6535 23.9351 17.8325 23.598 18.1316 23.3979C19.4639 22.5307 21.0312 22.0986 22.6196 22.1606C24.2069 22.2227 25.7363 22.7758 26.9966 23.744V37.2842C25.6393 36.4631 24.0899 36.014 22.5046 35.9819C20.9182 35.9499 19.352 36.336 17.9626 37.1012L17.9625 37.0981ZM37.6183 36.9201C37.6203 36.9961 37.5802 37.0661 37.5142 37.1031C37.4512 37.1401 37.3732 37.1401 37.3112 37.1031C34.4825 35.5467 31.0397 35.6157 28.2771 37.2861V23.7439C29.5364 22.7757 31.0669 22.2215 32.6542 22.1595C34.2426 22.0975 35.8109 22.5306 37.1422 23.3978C37.4413 23.5978 37.6203 23.9349 37.6183 24.295L37.6183 36.9201Z" fill="#A76FD2"/>
<path d="M30.0221 25.6292C29.8801 25.7232 29.7801 25.8712 29.7471 26.0383C29.7131 26.2063 29.7481 26.3803 29.8441 26.5214C29.9391 26.6634 30.0871 26.7614 30.2552 26.7934C30.4232 26.8244 30.5973 26.7884 30.7373 26.6914C31.3905 26.2493 32.1606 26.0133 32.9488 26.0133C33.737 26.0133 34.5072 26.2493 35.1593 26.6914C35.4534 26.8885 35.8515 26.8114 36.0486 26.5174C36.2466 26.2243 36.1686 25.8262 35.8755 25.6291C35.0113 25.044 33.9921 24.7319 32.9488 24.7319C31.9055 24.7329 30.8864 25.045 30.0221 25.6292Z" fill="#A76FD2"/>
<path d="M30.0209 29.1965C29.8799 29.2905 29.7829 29.4376 29.7498 29.6046C29.7178 29.7716 29.7528 29.9447 29.8479 30.0847C30.0449 30.3788 30.443 30.4568 30.7361 30.2588C31.3892 29.8166 32.1594 29.5806 32.9476 29.5806C33.7368 29.5806 34.507 29.8167 35.1591 30.2588C35.4522 30.4468 35.8423 30.3658 36.0363 30.0767C36.2304 29.7876 36.1574 29.3966 35.8733 29.1965C35.0091 28.6124 33.9898 28.3003 32.9465 28.3003C31.9043 28.3003 30.8852 28.6124 30.0209 29.1965Z" fill="#A76FD2"/>
<path d="M30.0209 32.7629C29.8799 32.8579 29.7829 33.004 29.7498 33.171C29.7178 33.338 29.7528 33.5111 29.8479 33.6511C30.0449 33.9452 30.443 34.0232 30.7361 33.8252C31.3892 33.383 32.1594 33.147 32.9476 33.147C33.7358 33.147 34.507 33.3831 35.1591 33.8252C35.4522 34.0132 35.8423 33.9322 36.0363 33.6431C36.2304 33.3541 36.1574 32.963 35.8733 32.7629C35.0091 32.1788 33.9898 31.8667 32.9465 31.8667C31.9043 31.8667 30.8852 32.1788 30.0209 32.7629Z" fill="#A76FD2"/>
</svg>
