<svg width="56" height="55" viewBox="0 0 56 55" fill="none" xmlns="http://www.w3.org/2000/svg">
<ellipse cx="28" cy="27.5" rx="28" ry="27.5" fill="#FFDEF2"/>
<path d="M29.8384 18.8875C29.7383 19.2618 29.3543 19.4839 28.98 19.3839C28.6056 19.2838 28.3835 18.8998 28.4836 18.5255L28.9896 16.6345C29.1473 16.049 29.5298 15.58 30.018 15.2976L30.0674 15.2715C30.5473 15.0096 31.126 14.9232 31.6909 15.074L31.8884 15.1275C32.4629 15.2866 32.925 15.6664 33.2048 16.1505C33.4886 16.6386 33.586 17.2365 33.4297 17.822L28.0037 38.0713C27.846 38.6569 27.4634 39.1258 26.9752 39.4083L26.9258 39.4344C26.4459 39.6963 25.8673 39.7827 25.3023 39.6318L25.1048 39.5783C24.5303 39.4193 24.0682 39.0394 23.7884 38.5554C23.5046 38.0672 23.4072 37.4693 23.5636 36.8838L27.1645 23.4429C27.2646 23.0686 27.6486 22.8464 28.0229 22.9465C28.3973 23.0466 28.6194 23.4306 28.5193 23.8049L24.9184 37.2444C24.8608 37.457 24.8964 37.675 24.9993 37.8533C25.1007 38.0315 25.2721 38.1714 25.4847 38.2276L25.6629 38.2756C25.8659 38.3305 26.0729 38.3003 26.2457 38.2112L26.2718 38.1961C26.45 38.0932 26.5913 37.9218 26.6475 37.7093L32.0721 17.46C32.1297 17.2474 32.094 17.0294 31.9912 16.8511C31.8897 16.6729 31.7183 16.533 31.5058 16.4768L31.3275 16.4288C31.1246 16.3739 30.9175 16.4041 30.7447 16.4932L30.7187 16.5083C30.5404 16.6112 30.3992 16.7826 30.343 16.9951L29.837 18.8861L29.8384 18.8875ZM29.1706 21.3818C29.0705 21.7561 28.6865 21.9782 28.3122 21.8782C27.9379 21.7781 27.7157 21.3941 27.8158 21.0198L27.835 20.9498C27.9351 20.5755 28.319 20.3534 28.6934 20.4534C29.0677 20.5535 29.2899 20.9375 29.1898 21.3118L29.1706 21.3818ZM18.446 34.096C18.1718 33.8218 18.1718 33.3775 18.446 33.1033C18.7203 32.829 19.1646 32.829 19.4388 33.1033L20.3589 34.0247C20.5138 34.166 20.7099 34.2373 20.906 34.2373C21.1131 34.2345 21.3201 34.1564 21.4765 34.0001C21.6959 33.7807 21.8302 33.5297 21.844 33.2925V33.2856C21.8508 33.1005 21.7781 32.9086 21.6026 32.7317L16.7211 27.8529C16.4468 27.5787 16.4468 27.1344 16.7211 26.8602L21.6275 21.9551C21.766 21.8015 21.8373 21.6054 21.8373 21.408C21.8373 21.2009 21.7592 20.9939 21.6029 20.8375L21.5741 20.8074C21.3698 20.6126 21.1421 20.492 20.9241 20.4714C20.7294 20.4536 20.5237 20.5249 20.3372 20.7128L13.6948 27.3551L17.6672 31.3275C17.9414 31.6017 17.9414 32.046 17.6672 32.3202C17.3929 32.5945 16.9486 32.5945 16.6744 32.3202L12.2057 27.8515C11.9314 27.5773 11.9314 27.133 12.2057 26.8587L19.3444 19.72C19.8518 19.2127 20.4524 19.022 21.0516 19.0783C21.5987 19.129 22.1253 19.3923 22.5531 19.805L22.5956 19.8434C23.0262 20.274 23.2429 20.8403 23.2429 21.4066C23.2429 21.9524 23.0399 22.4995 22.6368 22.926L18.2119 27.355L22.5971 31.7388C23.077 32.2215 23.2731 32.7851 23.2471 33.3486L23.2457 33.3678C23.2128 33.9602 22.929 34.5334 22.4723 34.99C22.0417 35.4206 21.4755 35.6358 20.9091 35.6358C20.362 35.6331 19.8135 35.4315 19.3898 35.0297L18.4505 34.0932L18.446 34.096ZM38.7855 27.3564L34.3607 22.9274C33.9576 22.5023 33.7546 21.9552 33.7546 21.4081C33.7546 20.8431 33.9713 20.2754 34.4018 19.8448L34.4443 19.8064C34.8736 19.3937 35.4001 19.1304 35.9458 19.0797C36.5437 19.0235 37.1443 19.2141 37.6517 19.7214L44.7904 26.8601C45.0647 27.1344 45.0647 27.5787 44.7904 27.8529L37.6078 35.0313C37.1841 35.4331 36.6356 35.6347 36.0885 35.6347C35.5235 35.6374 34.9558 35.4221 34.5253 34.9916C34.0686 34.5349 33.7848 33.9618 33.7519 33.3694L33.7505 33.3502C33.7245 32.7866 33.9206 32.223 34.4005 31.7431L38.7855 27.3564ZM35.3931 21.9799L40.2732 26.8601C40.5475 27.1343 40.5475 27.5786 40.2732 27.8528L35.3931 32.733C35.2162 32.9085 35.1435 33.1005 35.1504 33.2856V33.2924C35.1641 33.5297 35.2985 33.7806 35.5179 34C35.6742 34.1563 35.8813 34.2345 36.0883 34.2345C36.283 34.2372 36.4805 34.1659 36.6354 34.0247L43.301 27.3578L36.6586 20.7154C36.4707 20.5275 36.265 20.4562 36.0703 20.4741C35.8537 20.4946 35.6247 20.6153 35.4203 20.81L35.3929 20.8388C35.2366 20.9951 35.1584 21.2022 35.1584 21.4092C35.1584 21.6067 35.2284 21.8028 35.3682 21.9564L35.3929 21.9811L35.3931 21.9799Z" fill="#FA77C5"/>
</svg>
