<svg width="56" height="55" viewBox="0 0 56 55" fill="none" xmlns="http://www.w3.org/2000/svg">
<ellipse cx="28" cy="27.5" rx="28" ry="27.5" fill="#FFE7DF"/>
<path d="M17.8571 26H23V36H17.8571C17.6298 36 17.4118 35.919 17.2511 35.7747C17.0903 35.6304 17 35.4348 17 35.2308V26.7692C17 26.5652 17.0903 26.3696 17.2511 26.2253C17.4118 26.081 17.6298 26 17.8571 26V26Z" stroke="#BC7964" stroke-width="2" stroke-linecap="round" stroke-linejoin="round"/>
<path d="M23 25.2609L27.0043 17C27.8539 17 28.6687 17.3481 29.2695 17.9678C29.8702 18.5875 30.2077 19.428 30.2077 20.3043V22.7826H36.4044C36.6315 22.782 36.8561 22.8316 37.0631 22.928C37.2701 23.0243 37.4547 23.1653 37.6045 23.3413C37.7543 23.5174 37.8659 23.7245 37.9317 23.9487C37.9975 24.1729 38.0161 24.4091 37.9861 24.6413L36.7848 34.5543C36.7362 34.9523 36.5489 35.3184 36.2579 35.5844C35.9668 35.8504 35.5919 35.9981 35.2031 36H23" stroke="#BC7964" stroke-width="2" stroke-linecap="round" stroke-linejoin="round"/>
</svg>
