<svg width="56" height="55" viewBox="0 0 56 55" fill="none" xmlns="http://www.w3.org/2000/svg">
<ellipse cx="28" cy="27.5" rx="28" ry="27.5" fill="#E4F4E6"/>
<path d="M28.5 35C32.0899 35 35 32.0899 35 28.5C35 24.9101 32.0899 22 28.5 22C24.9101 22 22 24.9101 22 28.5C22 32.0899 24.9101 35 28.5 35Z" stroke="#2FCF3F" stroke-width="2" stroke-linecap="round" stroke-linejoin="round"/>
<path d="M35.2122 19.8556C35.5402 20.1577 35.8509 20.4685 36.1444 20.7878L39.6793 21.2928C40.2552 22.2931 40.6992 23.3638 41 24.4781L38.8506 27.3396C38.8506 27.3396 38.8894 28.2201 38.8506 28.6604L41 31.5219C40.7006 32.6367 40.2566 33.7076 39.6793 34.7072L36.1444 35.2122C36.1444 35.2122 35.5359 35.8466 35.2122 36.1444L34.7072 39.6793C33.7069 40.2552 32.6362 40.6992 31.5219 41L28.6604 38.8506C28.221 38.8895 27.779 38.8895 27.3396 38.8506L24.4781 41C23.3633 40.7006 22.2924 40.2566 21.2928 39.6793L20.7878 36.1444C20.4685 35.8423 20.1577 35.5315 19.8556 35.2122L16.3207 34.7072C15.7448 33.7069 15.3008 32.6362 15 31.5219L17.1494 28.6604C17.1494 28.6604 17.1106 27.7799 17.1494 27.3396L15 24.4781C15.2994 23.3633 15.7434 22.2924 16.3207 21.2928L19.8556 20.7878C20.1577 20.4685 20.4685 20.1577 20.7878 19.8556L21.2928 16.3207C22.2931 15.7448 23.3638 15.3008 24.4781 15L27.3396 17.1494C27.779 17.1105 28.221 17.1105 28.6604 17.1494L31.5219 15C32.6367 15.2994 33.7076 15.7434 34.7072 16.3207L35.2122 19.8556Z" stroke="#2FCF3F" stroke-width="2" stroke-linecap="round" stroke-linejoin="round"/>
</svg>
