<svg width="66" height="66" viewBox="0 0 66 66" fill="none" xmlns="http://www.w3.org/2000/svg">
<rect x="0.709059" y="0.709059" width="64.5819" height="64.5819" rx="19.2909" fill="#FFEDE6"/>
<rect x="0.709059" y="0.709059" width="64.5819" height="64.5819" rx="19.2909" stroke="white" stroke-width="1.41812"/>
<g clip-path="url(#clip0_7227_27089)">
<path d="M34.9737 17.3499L34.9872 17.0315C41.6401 17.8546 47.0411 22.7467 48.6177 29.1378L48.6178 29.138L48.689 29.4259L48.746 29.6564L48.9765 29.5995L49.5527 29.4573L49.7832 29.4004L49.7264 29.1699L49.6555 28.8817L49.6554 28.8815C47.9669 22.0385 42.1683 16.8066 35.0323 15.9603L35.0488 15.5701L35.065 15.1861L34.7143 15.3433L32.8972 16.158L32.4638 16.3523L32.8792 16.5824L34.6213 17.5476L34.9574 17.7338L34.9737 17.3499ZM48.6441 34.979L48.9625 34.9925C48.1674 41.4203 43.5737 46.6793 37.4997 48.4499L37.4997 48.45L37.2147 48.5331L36.9867 48.5996L37.0532 48.8276L37.2194 49.3976L37.2859 49.6256L37.5139 49.5591L37.7989 49.476C37.7989 49.476 37.7989 49.476 37.7989 49.476C44.3034 47.5798 49.216 41.9332 50.0337 35.0377L50.4239 35.0541L50.8079 35.0704L50.6507 34.7197L49.836 32.9025L49.6417 32.4691L49.4116 32.8846L48.4464 34.6266L48.2602 34.9627L48.6441 34.979ZM31.015 48.6495L31.0015 48.9678C24.3485 48.1447 18.9475 43.2526 17.3709 36.8616L17.3708 36.8614L17.2996 36.5734L17.2426 36.343L17.0121 36.3999L16.4359 36.5421L16.2055 36.599L16.2622 36.8294L16.3331 37.1177L16.3332 37.1178C18.0218 43.9609 23.8203 49.1927 30.9563 50.0391L30.9399 50.4293L30.9236 50.8132L31.2743 50.656L33.0915 49.8414L33.5249 49.6471L33.1094 49.4169L31.3673 48.4518L31.0313 48.2656L31.015 48.6495ZM17.0262 31.0068C17.8767 24.132 23.0718 18.5945 29.7757 17.2315L30.0666 17.1724L30.2993 17.1251L30.2521 16.8924L30.1339 16.3105L30.0867 16.0777L29.8539 16.125L29.563 16.1841L29.5629 16.1841C22.3851 17.6437 16.8293 23.5888 15.9549 30.9617L15.5647 30.9452L15.1808 30.929L15.338 31.2797L16.1526 33.0968L16.3469 33.5302L16.5771 33.1148L17.5422 31.3727L17.7284 31.0366L17.3445 31.0203L17.0262 31.0068Z" fill="#FFA17E" stroke="#FFA17E" stroke-width="0.475"/>
<path d="M40.5657 41.4052L40.3388 41.2057L40.0502 40.952L40.4061 40.8073L42.2509 40.0574L42.6909 39.8785L42.57 40.3378L42.0633 42.2637L41.9655 42.6353L41.6768 42.3816L41.3735 42.1151C37.7315 45.4695 32.4231 46.3049 27.9524 44.3104C27.9524 44.3103 27.9523 44.3103 27.9523 44.3103L27.6813 44.1895L27.4644 44.0928L27.5611 43.8759L27.8031 43.3335L27.8999 43.1164L28.1169 43.2134L28.3878 43.3344L40.5657 41.4052ZM40.5657 41.4052C37.2419 44.4054 32.4382 45.1414 28.3879 43.3345L40.5657 41.4052ZM25.6471 24.7939L25.4202 24.5944C28.744 21.5942 33.5478 20.8582 37.5981 22.6652L37.869 22.7862L38.086 22.8832L38.1828 22.6662L38.4248 22.1238L38.5215 21.9068L38.3046 21.8101L38.0336 21.6893C33.5629 19.6947 28.2544 20.5301 24.6124 23.8845L24.3091 23.618L24.0204 23.3643L23.9226 23.736L23.4159 25.6618L23.295 26.1211L23.735 25.9422L25.5798 25.1923L25.9357 25.0476L25.6471 24.7939ZM41.1988 25.654L41.3983 25.4271C44.2926 28.6336 45.0799 33.2174 43.5093 37.1732L43.5092 37.1735L43.3999 37.4496L43.3127 37.6701L43.5331 37.7577L44.0847 37.9768L44.3055 38.0645L44.3931 37.8436L44.5027 37.5676C46.2365 33.1998 45.3452 28.1337 42.1083 24.6192L42.3748 24.3159L42.6284 24.0273L42.2568 23.9295L40.331 23.4227L39.8717 23.3019L40.0505 23.7418L40.8004 25.5866L40.9451 25.9426L41.1988 25.654ZM24.7871 40.3456L24.5876 40.5725C21.483 37.133 20.8031 32.1092 22.856 27.9751L22.9881 27.7095L23.0938 27.4968L22.881 27.3911L22.349 27.1269L22.1361 27.0211L22.0306 27.2341L21.8989 27.4999C19.6331 32.0619 20.4077 37.6129 23.8776 41.3804L23.6111 41.6837L23.3575 41.9723L23.7291 42.0701L25.6549 42.5769L26.1142 42.6978L25.9354 42.2578L25.1855 40.413L25.0408 40.057L24.7871 40.3456Z" fill="#FFA17E" stroke="#FFA17E" stroke-width="0.475"/>
<path d="M32.1924 28.3652L31.3178 36.9054L32.9942 36.9277L33.3407 33.5457L34.0336 33.5549C34.5053 33.5611 34.8803 33.4611 35.1587 33.2542C35.4369 33.0472 35.6459 32.753 35.7851 32.371C35.9247 31.9889 36.0209 31.5391 36.074 31.0217C36.1289 30.4846 36.1164 30.0212 36.0366 29.6314C35.957 29.2416 35.7896 28.9397 35.5352 28.7259C35.2804 28.5119 34.9174 28.4017 34.4456 28.3955L32.1924 28.3652Z" fill="#FFA17E"/>
<path d="M29.7437 36.165C29.3922 36.6917 28.8964 36.9505 28.257 36.9422C27.0389 36.9259 26.5197 36.0442 26.6984 34.2974L27.0757 30.6146C27.239 29.0198 28.0186 28.2316 29.4139 28.2503C29.9889 28.258 30.4182 28.3795 30.7014 28.6149C30.9847 28.8503 31.1616 29.1905 31.2326 29.6352C31.3035 30.08 31.3062 30.6209 31.2409 31.2583L29.5742 31.236L29.6517 30.479C29.6704 30.2946 29.6612 30.1396 29.6241 30.0147C29.5867 29.8894 29.4887 29.8255 29.3305 29.8235C29.1334 29.8208 28.9968 29.8855 28.9202 30.0173C28.8436 30.1491 28.797 30.2943 28.781 30.4528L28.357 34.5919C28.3333 34.8214 28.3443 35.0087 28.3891 35.1533C28.4342 35.2981 28.5441 35.3718 28.7183 35.3741C28.8994 35.3765 29.0271 35.3062 29.1016 35.1628C29.1761 35.0197 29.2254 34.83 29.2494 34.594L29.3744 33.3762L28.9187 33.3699L29.0698 31.8948L31.1536 31.9227L30.6441 36.8962L29.9607 36.8873L29.7437 36.165Z" fill="#FFA17E"/>
<path d="M38.5366 37.0004L36.8307 36.9779L37.5376 30.0779L36.5249 30.0642L36.6927 28.4243L40.4241 28.4742L40.2561 30.1141L39.2431 30.1005L38.5366 37.0004Z" fill="#FFA17E"/>
</g>
<defs>
<clipPath id="clip0_7227_27089">
<rect width="38" height="38" fill="white" transform="translate(14 14)"/>
</clipPath>
</defs>
</svg>
