<svg width="66" height="66" viewBox="0 0 66 66" fill="none" xmlns="http://www.w3.org/2000/svg">
<rect x="0.709059" y="0.709059" width="64.5819" height="64.5819" rx="19.2909" fill="#F0FFC4"/>
<rect x="0.709059" y="0.709059" width="64.5819" height="64.5819" rx="19.2909" stroke="white" stroke-width="1.41812"/>
<path d="M31.3333 18.8327C31.7936 18.8327 32.1667 18.4596 32.1667 17.9993C32.1667 17.5391 31.7936 17.166 31.3333 17.166C30.8731 17.166 30.5 17.5391 30.5 17.9993C30.5 18.4596 30.8731 18.8327 31.3333 18.8327Z" fill="#A7BB6B"/>
<path d="M37.5863 25.9159V20.9159C37.5863 20.4556 37.2135 20.0825 36.7529 20.0825C36.2923 20.0825 35.9196 20.4556 35.9196 20.9159V25.9159C35.9196 26.3761 36.2923 26.7492 36.7529 26.7492C37.2135 26.7492 37.5863 26.3761 37.5863 25.9159ZM28.0469 26.6613C28.4595 26.8668 28.9583 26.7004 29.165 26.2886L29.3514 25.9159H32.4878L32.6741 26.2886C32.8206 26.5807 33.1144 26.7496 33.4204 26.7492C33.5457 26.7492 33.6727 26.7211 33.7923 26.6613C34.2041 26.4554 34.3709 25.9549 34.165 25.5431L31.665 20.5431C31.3818 19.9784 30.4573 19.9784 30.1741 20.5431L27.6741 25.5431C27.4683 25.9549 27.6351 26.4554 28.0469 26.6613ZM30.9196 22.7791L31.6546 24.2492H30.1846L30.9196 22.7791Z" fill="#A7BB6B"/>
<path d="M47.1667 17.166C46.7083 17.166 46.3333 17.541 46.3333 17.9993V22.166C46.3333 22.6243 45.9583 22.9993 45.5 22.9993H45.0833C45.0833 21.6243 43.9583 20.4993 42.5833 20.4993H41.75C41.75 18.6577 40.2584 17.166 38.4167 17.166H34.6667C34.2083 17.166 33.8333 17.541 33.8333 17.9993C33.8333 18.4577 34.2083 18.8327 34.6667 18.8327H38.4167C39.3333 18.8327 40.0833 19.5826 40.0833 20.4993V26.3327C40.0833 27.2493 39.3333 27.9993 38.4167 27.9993H27.5833C26.6667 27.9993 25.9167 27.2493 25.9167 26.3327V20.4993C25.9167 19.5826 26.6667 18.8327 27.5833 18.8327H28C28.4583 18.8327 28.8333 18.4577 28.8333 17.9993C28.8333 17.541 28.4583 17.166 28 17.166H27.5833C25.7416 17.166 24.25 18.6577 24.25 20.4993H23.4167C22.0416 20.4993 20.9167 21.6243 20.9167 22.9993H20.5C20.0417 22.9993 19.6667 22.6243 19.6667 22.166V17.9993C19.6667 17.541 19.2917 17.166 18.8333 17.166C18.375 17.166 18 17.541 18 17.9993V22.166C18 23.541 19.125 24.666 20.5 24.666H20.9167C20.9167 26.041 22.0416 27.166 23.4167 27.166H24.3667C24.7417 28.5993 26.0333 29.666 27.5833 29.666H30.5V32.166C25.4417 32.166 21.3333 36.2743 21.3333 41.3327V46.3327C21.3333 47.7076 22.4583 48.8327 23.8333 48.8327H42.1667C43.5417 48.8327 44.6667 47.7076 44.6667 46.3327V41.3327C44.6667 36.2743 40.5583 32.166 35.5 32.166V29.666H38.4167C39.9667 29.666 41.2583 28.5993 41.6333 27.166H42.5833C43.9583 27.166 45.0833 26.041 45.0833 24.666H45.5C46.875 24.666 48 23.541 48 22.166V17.9993C48 17.541 47.625 17.166 47.1667 17.166ZM24.25 25.4993H23.4167C22.9583 25.4993 22.5833 25.1243 22.5833 24.666V22.9993C22.5833 22.541 22.9583 22.166 23.4167 22.166H24.25V25.4993ZM32.1667 29.666H33.8333V32.166H32.1667V29.666ZM43 41.3327V46.3327C43 46.791 42.625 47.166 42.1667 47.166H23.8333C23.375 47.166 23 46.791 23 46.3327V41.3327C23 37.1993 26.3666 33.8327 30.5 33.8327H35.5C39.6334 33.8327 43 37.1993 43 41.3327ZM43.4167 24.666C43.4167 25.1243 43.0417 25.4993 42.5833 25.4993H41.75V22.166H42.5833C43.0417 22.166 43.4167 22.541 43.4167 22.9993V24.666Z" fill="#A7BB6B"/>
<path d="M39.6667 39.6662H38.8333V37.9995C38.8333 37.5412 38.4583 37.1662 38 37.1662H37.1667V36.3328C37.1667 35.8745 36.7917 35.4995 36.3333 35.4995C35.875 35.4995 35.5 35.8745 35.5 36.3328V37.1662H33.8333V36.3328C33.8333 35.8745 33.4583 35.4995 33 35.4995C32.5417 35.4995 32.1667 35.8745 32.1667 36.3328V37.1662H30.5V36.3328C30.5 35.8745 30.125 35.4995 29.6667 35.4995C29.2083 35.4995 28.8333 35.8745 28.8333 36.3328V37.1662H28C27.5417 37.1662 27.1667 37.5412 27.1667 37.9995V39.6662H26.3333C25.875 39.6662 25.5 40.0412 25.5 40.4995C25.5 40.9578 25.875 41.3328 26.3333 41.3328H27.1667V42.9995C27.1667 43.4578 27.5417 43.8328 28 43.8328H28.8333V44.6662C28.8333 45.1245 29.2083 45.4995 29.6667 45.4995C30.125 45.4995 30.5 45.1245 30.5 44.6662V43.8328H32.1667V44.6662C32.1667 45.1245 32.5417 45.4995 33 45.4995C33.4583 45.4995 33.8333 45.1245 33.8333 44.6662V43.8328H35.5V44.6662C35.5 45.1245 35.875 45.4995 36.3333 45.4995C36.7917 45.4995 37.1667 45.1245 37.1667 44.6662V43.8328H38C38.4583 43.8328 38.8333 43.4578 38.8333 42.9995V41.3328H39.6667C40.125 41.3328 40.5 40.9578 40.5 40.4995C40.5 40.0412 40.125 39.6662 39.6667 39.6662ZM37.1667 42.1662H28.8333V38.8328H37.1667V42.1662Z" fill="#A7BB6B"/>
</svg>
