<svg width="53" height="53" viewBox="0 0 53 53" fill="none" xmlns="http://www.w3.org/2000/svg">
<rect width="53" height="53" rx="15" fill="#FEF6D4"/>
<path d="M28.2221 12.5904L28.2369 12.2407C34.2141 12.9521 39.0722 17.3361 40.4866 23.0699L40.4867 23.07L40.5501 23.3263L40.5861 23.4718L40.7316 23.4359L41.2445 23.3093L41.39 23.2734L41.3542 23.1278L41.291 22.8713L41.291 22.8712C39.7897 16.7871 34.6233 12.1398 28.2719 11.4106L28.289 11.0063L28.2992 10.7638L28.0777 10.8631L26.4604 11.5882L26.1867 11.7109L26.4491 11.8562L27.9995 12.7152L28.2118 12.8329L28.2221 12.5904ZM41.6329 28.2719L42.0372 28.289L42.2797 28.2992L42.1804 28.0777L41.4553 26.4604L41.3326 26.1867L41.1873 26.4491L40.3283 27.9995L40.2107 28.2118L40.4531 28.2221L40.8028 28.2369C40.1155 34.0125 35.9988 38.7431 30.5489 40.3318L30.5488 40.3318L30.2952 40.4058L30.1512 40.4478L30.1932 40.5918L30.3412 41.0991L30.3832 41.2431L30.5272 41.2011L30.7808 41.1272C36.5645 39.4412 40.9283 34.4099 41.6329 28.2719ZM24.7716 41.6329L24.7546 42.0372L24.7443 42.2797L24.9658 42.1804L26.5831 41.4553L26.8568 41.3326L26.5944 41.1873L25.044 40.3283L24.8317 40.2107L24.8214 40.4531L24.8066 40.8028C18.8294 40.0914 13.9713 35.7074 12.5569 29.9736L12.5568 29.9735L12.4934 29.7172L12.4574 29.5717L12.3119 29.6076L11.799 29.7342L11.6535 29.7701L11.6893 29.9157L11.7525 30.1722L11.7525 30.1723C13.2538 36.2564 18.4202 40.9037 24.7716 41.6329ZM12.5904 24.8214L12.2407 24.8066C12.9757 18.6308 17.6311 13.6502 23.6448 12.4274C23.6449 12.4274 23.6449 12.4274 23.6449 12.4274L23.9038 12.3749L24.0508 12.345L24.0209 12.198L23.9158 11.6801L23.8859 11.5331L23.7389 11.563L23.48 11.6156L23.4799 11.6156C17.0989 12.9132 12.1639 18.21 11.4106 24.7716L11.0063 24.7546L10.7638 24.7443L10.8631 24.9658L11.5882 26.5831L11.7109 26.8568L11.8562 26.5944L12.7152 25.044L12.8329 24.8317L12.5904 24.8214Z" fill="#FFD72B" stroke="#FFD72B" stroke-width="0.3"/>
<path d="M19.6898 19.0418L19.9434 19.2647L20.1256 19.4249L19.9008 19.5163L18.2589 20.1837L17.981 20.2967L18.0574 20.0066L18.5084 18.2925L18.5702 18.0578L18.7525 18.218L19.064 18.4918C22.2884 15.4917 27.0097 14.7386 30.9831 16.5114C30.9831 16.5114 30.9831 16.5114 30.9832 16.5114L31.2244 16.6189L31.3614 16.68L31.3003 16.817L31.0849 17.2998L31.0238 17.4369L30.8867 17.3756L30.6456 17.2678L19.6898 19.0418ZM19.6898 19.0418C22.6679 16.3164 26.9979 15.6405 30.6455 17.2678L19.6898 19.0418ZM33.3539 34.0023L33.1004 33.7794L32.9181 33.6191L33.1429 33.5278L34.7848 32.8603L35.0627 32.7474L34.9864 33.0374L34.5353 34.7515L34.4736 34.9862L34.2913 34.826L33.9798 34.5523C30.7553 37.5523 26.0341 38.3054 22.0606 36.5327C22.0606 36.5326 22.0606 36.5326 22.0606 36.5326L21.8194 36.4251L21.6823 36.364L21.7435 36.227L21.9588 35.7443L22.02 35.6072L22.157 35.6684L22.3982 35.7762L33.3539 34.0023ZM33.3539 34.0023C30.3758 36.7276 26.0459 37.4035 22.3982 35.7762L33.3539 34.0023ZM33.7792 19.9435L34.0021 19.69C36.6318 22.5637 37.3535 26.6958 35.9388 30.2591L35.9387 30.2593L35.8415 30.505L35.7863 30.6443L35.9256 30.6996L36.4165 30.8946L36.556 30.95L36.6113 30.8105L36.7088 30.5648C36.7088 30.5648 36.7088 30.5648 36.7088 30.5648C38.25 26.6822 37.4474 22.176 34.5521 19.0641L34.8258 18.7526L34.9861 18.5703L34.7513 18.5085L33.0373 18.0575L32.7472 17.9812L32.8602 18.2591L33.5276 19.901L33.619 20.1258L33.7792 19.9435ZM19.2645 33.1005L19.0416 33.3541C16.222 30.2728 15.5962 25.7451 17.4447 22.0226L17.5623 21.7862L17.6291 21.6518L17.4947 21.5851L17.0212 21.3499L16.8867 21.2831L16.8201 21.4177L16.7028 21.6543C14.6894 25.7082 15.3887 30.6448 18.4916 33.9799L18.2179 34.2914L18.0577 34.4737L18.2924 34.5355L20.0064 34.9865L20.2965 35.0629L20.1836 34.785L19.5161 33.1431L19.4247 32.9183L19.2645 33.1005Z" fill="#FFD72B" stroke="#FFD72B" stroke-width="0.3"/>
<path d="M25.8055 22.3965L25.027 29.9975L26.5191 30.0173L26.8275 27.0073L27.4442 27.0154C27.8641 27.021 28.1978 26.9319 28.4456 26.7478C28.6932 26.5636 28.8792 26.3018 29.0031 25.9617C29.1273 25.6216 29.2129 25.2213 29.2602 24.7608C29.3091 24.2828 29.298 23.8703 29.2269 23.5234C29.1561 23.1765 29.0071 22.9078 28.7807 22.7175C28.554 22.527 28.2308 22.429 27.8109 22.4234L25.8055 22.3965Z" fill="#FFD72B"/>
<path d="M23.6261 29.3385C23.3133 29.8073 22.872 30.0377 22.3029 30.0303C21.2187 30.0157 20.7566 29.231 20.9157 27.6763L21.2515 24.3985C21.3968 22.9791 22.0907 22.2776 23.3326 22.2942C23.8444 22.3011 24.2264 22.4092 24.4785 22.6187C24.7306 22.8282 24.8881 23.131 24.9512 23.5269C25.0144 23.9227 25.0167 24.4041 24.9586 24.9714L23.4752 24.9516L23.5442 24.2778C23.5609 24.1137 23.5527 23.9758 23.5196 23.8645C23.4863 23.753 23.3991 23.6962 23.2583 23.6944C23.0829 23.692 22.9613 23.7496 22.8932 23.8669C22.825 23.9842 22.7835 24.1134 22.7692 24.2545L22.3919 27.9384C22.3708 28.1426 22.3806 28.3094 22.4204 28.438C22.4606 28.567 22.5584 28.6325 22.7135 28.6346C22.8747 28.6367 22.9883 28.5741 23.0546 28.4465C23.1209 28.3191 23.1648 28.1503 23.1862 27.9402L23.2974 26.8564L22.8918 26.8508L23.0263 25.5379L24.8809 25.5627L24.4275 29.9893L23.8193 29.9814L23.6261 29.3385Z" fill="#FFD72B"/>
<path d="M31.452 30.0821L29.9337 30.062L30.5629 23.9208L29.6616 23.9087L29.8109 22.4491L33.1319 22.4935L32.9824 23.9531L32.0809 23.9409L31.452 30.0821Z" fill="#FFD72B"/>
</svg>
