<svg width="53" height="53" viewBox="0 0 53 53" fill="none" xmlns="http://www.w3.org/2000/svg">
<rect width="53" height="53" rx="15" fill="#FAE8F1"/>
<path d="M35.0055 31.8581L33.8005 30.6144C33.9303 30.3354 34.0445 30.049 34.1426 29.7565H35.8469C36.0104 29.7565 36.1672 29.6893 36.2828 29.5697C36.3984 29.4501 36.4633 29.2878 36.4633 29.1187V24.8579C36.4633 24.6888 36.3984 24.5265 36.2828 24.4069C36.1672 24.2873 36.0104 24.2201 35.8469 24.2201H34.1426C34.0445 23.9276 33.9303 23.6412 33.8005 23.3622L35.0055 22.1184C35.0629 22.0592 35.1083 21.9889 35.1393 21.9114C35.1704 21.834 35.1863 21.751 35.1863 21.6672C35.1863 21.5834 35.1704 21.5004 35.1393 21.4229C35.1083 21.3455 35.0629 21.2752 35.0055 21.2159L32.0931 18.2022C32.0355 18.143 31.9672 18.0963 31.8921 18.0645C31.817 18.0328 31.7366 18.0167 31.6555 18.0172C31.4927 18.0171 31.3365 18.0835 31.2209 18.2022L30.0189 19.4491C29.7491 19.3153 29.4723 19.1972 29.1899 19.0951V17.3315C29.1899 17.1624 29.1249 17.0001 29.0093 16.8805C28.8937 16.7609 28.737 16.6937 28.5735 16.6937H24.456C24.2925 16.6937 24.1357 16.7609 24.0201 16.8805C23.9045 17.0001 23.8396 17.1624 23.8396 17.3315V19.0951C23.5571 19.1972 23.2803 19.3153 23.0105 19.4491L21.8086 18.2022C21.6907 18.0869 21.5347 18.0226 21.3725 18.0226C21.2103 18.0226 21.0542 18.0869 20.9364 18.2022L18.0239 21.2159C17.9666 21.2752 17.9211 21.3455 17.8901 21.4229C17.8591 21.5004 17.8431 21.5834 17.8431 21.6672C17.8431 21.751 17.8591 21.834 17.8901 21.9114C17.9211 21.9889 17.9666 22.0592 18.0239 22.1184L19.229 23.3622C19.0991 23.6412 18.9849 23.9276 18.8869 24.2201H17.1825C17.0191 24.2201 16.8623 24.2873 16.7467 24.4069C16.6311 24.5265 16.5661 24.6888 16.5661 24.8579V29.1187C16.5661 29.2878 16.6311 29.4501 16.7467 29.5697C16.8623 29.6893 17.0191 29.7565 17.1825 29.7565H18.8869C18.9849 30.049 19.0991 30.3354 19.229 30.6144L18.0239 31.8581C17.9666 31.9174 17.9211 31.9877 17.8901 32.0652C17.8591 32.1426 17.8431 32.2256 17.8431 32.3094C17.8431 32.3932 17.8591 32.4762 17.8901 32.5537C17.9211 32.6311 17.9666 32.7014 18.0239 32.7607L20.9364 35.7744C20.994 35.8335 21.0623 35.8803 21.1374 35.9121C21.2125 35.9438 21.2929 35.9599 21.374 35.9594C21.5368 35.9595 21.693 35.893 21.8086 35.7744L23.0105 34.5275C23.2803 34.6612 23.5571 34.7794 23.8396 34.8815V36.6451C23.8396 36.8142 23.9045 36.9765 24.0201 37.0961C24.1357 37.2157 24.2925 37.2829 24.456 37.2829H28.5735C28.737 37.2829 28.8937 37.2157 29.0093 37.0961C29.1249 36.9765 29.1899 36.8142 29.1899 36.6451V34.8815C29.4723 34.7794 29.7491 34.6612 30.0189 34.5275L31.2209 35.7744C31.3388 35.8897 31.4948 35.9539 31.657 35.9539C31.8192 35.9539 31.9752 35.8897 32.0931 35.7744L35.0055 32.7607C35.0629 32.7014 35.1083 32.6311 35.1393 32.5537C35.1704 32.4762 35.1863 32.3932 35.1863 32.3094C35.1863 32.2256 35.1704 32.1426 35.1393 32.0652C35.1083 31.9877 35.0629 31.9174 35.0055 31.8581ZM31.6555 34.4095L30.5706 33.2869C30.4759 33.1895 30.3531 33.1266 30.2208 33.1076C30.0885 33.0886 29.9539 33.1146 29.8371 33.1816C29.3833 33.4412 28.9025 33.6466 28.404 33.794C28.2754 33.832 28.1622 33.9123 28.0816 34.0228C28.001 34.1333 27.9573 34.2679 27.9571 34.4063V36.0009H25.0724V34.4063C25.0722 34.2679 25.0285 34.1333 24.9479 34.0228C24.8672 33.9123 24.7541 33.832 24.6255 33.794C24.1269 33.6466 23.6461 33.4412 23.1924 33.1816C23.0756 33.1146 22.9409 33.0886 22.8086 33.1076C22.6764 33.1266 22.5536 33.1895 22.4589 33.2869L21.374 34.419L19.3338 32.3078L20.4186 31.1852C20.5127 31.0872 20.5735 30.9602 20.5919 30.8233C20.6102 30.6864 20.5851 30.547 20.5203 30.4262C20.2689 29.9569 20.0704 29.4594 19.9286 28.9432C19.8918 28.8102 19.8142 28.6931 19.7074 28.6097C19.6007 28.5262 19.4706 28.481 19.3368 28.4808H17.7959V25.4958H19.3368C19.4706 25.4956 19.6007 25.4503 19.7074 25.3669C19.8142 25.2835 19.8918 25.1664 19.9286 25.0333C20.0704 24.5172 20.2689 24.0197 20.5203 23.5504C20.5851 23.4295 20.6102 23.2902 20.5919 23.1533C20.5735 23.0164 20.5127 22.8894 20.4186 22.7914L19.3338 21.6688L21.374 19.5576L22.4589 20.6801C22.5536 20.7775 22.6764 20.8405 22.8086 20.8594C22.9409 20.8784 23.0756 20.8524 23.1924 20.7854C23.6461 20.5258 24.1269 20.3204 24.6255 20.1731C24.7541 20.135 24.8672 20.0547 24.9479 19.9442C25.0285 19.8338 25.0722 19.6992 25.0724 19.5607V17.9662H27.9571V19.5607C27.9573 19.6992 28.001 19.8338 28.0816 19.9442C28.1622 20.0547 28.2754 20.135 28.404 20.1731C28.9025 20.3204 29.3833 20.5258 29.8371 20.7854C29.9539 20.8524 30.0885 20.8784 30.2208 20.8594C30.3531 20.8405 30.4759 20.7775 30.5706 20.6801L31.6555 19.5576L33.6957 21.6688L32.6109 22.7914C32.5167 22.8894 32.4559 23.0164 32.4376 23.1533C32.4192 23.2902 32.4444 23.4295 32.5092 23.5504C32.7606 24.0197 32.9591 24.5172 33.1009 25.0333C33.1377 25.1664 33.2153 25.2835 33.322 25.3669C33.4288 25.4503 33.5589 25.4956 33.6926 25.4958H35.2336V28.4808H33.6926C33.5589 28.481 33.4288 28.5262 33.322 28.6097C33.2153 28.6931 33.1377 28.8102 33.1009 28.9432C32.9591 29.4594 32.7606 29.9569 32.5092 30.4262C32.4444 30.547 32.4192 30.6864 32.4376 30.8233C32.4559 30.9602 32.5167 31.0872 32.6109 31.1852L33.6957 32.3078L31.6555 34.4095ZM26.5147 21.1362C25.3962 21.1362 24.3028 21.4794 23.3728 22.1224C22.4427 22.7655 21.7179 23.6795 21.2898 24.7488C20.8618 25.8181 20.7498 26.9948 20.968 28.13C21.1862 29.2652 21.7248 30.3079 22.5158 31.1264C23.3067 31.9448 24.3144 32.5022 25.4114 32.728C26.5085 32.9538 27.6456 32.8379 28.679 32.3949C29.7124 31.952 30.5956 31.2019 31.217 30.2395C31.8385 29.2772 32.1701 28.1457 32.1701 26.9883C32.1685 25.4367 31.5721 23.9492 30.5119 22.8521C29.4517 21.755 28.0141 21.1379 26.5147 21.1362ZM26.5147 31.5647C25.64 31.5647 24.785 31.2963 24.0577 30.7935C23.3304 30.2906 22.7635 29.5759 22.4288 28.7396C22.094 27.9034 22.0064 26.9832 22.1771 26.0955C22.3477 25.2077 22.769 24.3923 23.3875 23.7523C24.006 23.1122 24.794 22.6764 25.6519 22.4998C26.5098 22.3232 27.3991 22.4138 28.2072 22.7602C29.0153 23.1066 29.706 23.6932 30.192 24.4458C30.678 25.1983 30.9374 26.0832 30.9374 26.9883C30.9357 28.2015 30.4692 29.3646 29.6402 30.2225C28.8111 31.0803 27.6872 31.563 26.5147 31.5647ZM41 26.9883C40.9998 24.2669 40.2837 21.5969 38.9284 19.2647C37.5731 16.9325 35.6298 15.0261 33.3069 13.75C30.9841 12.4739 28.3693 11.8763 25.7431 12.0213C23.1169 12.1663 20.5784 13.0483 18.3999 14.5729C17.8744 14.1409 17.2219 13.9079 16.5507 13.9127C15.9857 13.9119 15.4322 14.0779 14.9553 14.3913C14.4783 14.7047 14.0977 15.1524 13.8582 15.682C13.6187 16.2115 13.5302 16.8007 13.6032 17.3805C13.6761 17.9603 13.9075 18.5064 14.2701 18.9548C12.4877 21.8486 11.7189 25.2876 12.092 28.6974C12.4651 32.1072 13.9576 35.2813 16.3202 37.6894C18.6827 40.0975 21.7722 41.5939 25.0726 41.9285C28.3731 42.2632 31.6845 41.4158 34.4539 39.5281C35.0235 40.0127 35.7471 40.2606 36.4836 40.2233C37.2202 40.1861 37.917 39.8664 38.4382 39.3267C38.9595 38.7869 39.2679 38.0656 39.3033 37.3034C39.3388 36.5412 39.0987 35.7926 38.6299 35.2036C40.1814 32.7649 41.0056 29.908 41 26.9883ZM16.5661 15.1884C17.0272 15.1884 17.4693 15.3779 17.7953 15.7152C18.1212 16.0525 18.3044 16.51 18.3044 16.9871C18.3044 17.4641 18.1212 17.9216 17.7953 18.259C17.4693 18.5963 17.0272 18.7858 16.5661 18.7858C16.1059 18.7833 15.6652 18.5929 15.3397 18.2562C15.0143 17.9194 14.8303 17.4634 14.8279 16.9871C14.8287 16.5103 15.0121 16.0533 15.3379 15.7162C15.6637 15.379 16.1054 15.1892 16.5661 15.1884ZM26.5147 40.7017C24.1514 40.702 21.831 40.0484 19.7939 38.8085C17.7568 37.5687 16.0772 35.7877 14.9292 33.6501C13.7811 31.5125 13.2063 29.0962 13.2644 26.6514C13.3224 24.2066 14.0112 21.8223 15.2594 19.7457H15.2902C15.3811 19.7931 15.4748 19.8347 15.5707 19.8701C15.6631 19.902 15.7556 19.9307 15.8511 19.9562L15.9405 19.9753C16.0145 19.9902 16.0884 20.003 16.1624 20.0136H16.2518C16.354 20.0265 16.457 20.0328 16.56 20.0327C17.3477 20.0319 18.1029 19.7077 18.6599 19.1313C19.2169 18.555 19.5302 17.7735 19.531 16.9584C19.531 16.8468 19.531 16.7351 19.5125 16.6235C19.5125 16.5916 19.5125 16.5597 19.5125 16.5278C19.5002 16.4449 19.4848 16.362 19.4663 16.2791L19.4478 16.1898C19.42 16.0846 19.3892 15.9793 19.3522 15.8709L19.3338 15.8294C19.2999 15.7401 19.2598 15.6508 19.2197 15.5647L19.2012 15.5265C21.7385 13.7773 24.781 12.9869 27.8159 13.2885C30.8507 13.5901 33.6922 14.9653 35.8614 17.1822C38.0306 19.3991 39.3947 22.3221 39.7239 25.4585C40.053 28.5949 39.3271 31.7528 37.6684 34.3999H37.6314C37.5474 34.3554 37.4609 34.316 37.3725 34.2819H37.3448C37.2439 34.2449 37.1409 34.214 37.0366 34.1894L36.9503 34.1671C36.8732 34.1671 36.7962 34.1352 36.7191 34.1256H36.6297C36.5275 34.1131 36.4245 34.1068 36.3215 34.1065C35.5338 34.1073 34.7786 34.4315 34.2216 35.0079C33.6646 35.5843 33.3513 36.3657 33.3505 37.1808C33.3506 37.2874 33.3568 37.3939 33.369 37.4998C33.369 37.5317 33.369 37.5635 33.369 37.5954C33.369 37.6752 33.3937 37.7549 33.4091 37.8346C33.4148 37.8647 33.422 37.8946 33.4307 37.9239C33.4539 38.0321 33.4837 38.1386 33.52 38.2428C33.5188 38.2556 33.5188 38.2684 33.52 38.2811C33.5509 38.3694 33.587 38.4556 33.6279 38.5394C33.6328 38.5538 33.639 38.5677 33.6464 38.5809C31.5143 39.9794 29.0391 40.7155 26.5147 40.7017ZM36.3246 38.9413C35.8759 38.9217 35.4518 38.7235 35.1409 38.388C34.8301 38.0525 34.6566 37.6057 34.6566 37.141C34.6566 36.6762 34.8301 36.2294 35.1409 35.8939C35.4518 35.5585 35.8759 35.3603 36.3246 35.3407C36.7346 35.3413 37.1314 35.4902 37.4465 35.7617C37.723 35.9988 37.9219 36.3187 38.0159 36.6774C38.1099 37.0361 38.0944 37.4161 37.9716 37.7653C37.8487 38.1145 37.6245 38.4159 37.3297 38.6282C37.0348 38.8404 36.6838 38.9531 36.3246 38.9508V38.9413ZM29.4272 24.7559C29.4845 24.8151 29.53 24.8855 29.561 24.9629C29.592 25.0403 29.608 25.1233 29.608 25.2071C29.608 25.291 29.592 25.374 29.561 25.4514C29.53 25.5288 29.4845 25.5992 29.4272 25.6584L25.9939 29.2207C25.9366 29.28 25.8687 29.3271 25.7938 29.3592C25.719 29.3913 25.6388 29.4078 25.5578 29.4078C25.4768 29.4078 25.3966 29.3913 25.3217 29.3592C25.2469 29.3271 25.1789 29.28 25.1217 29.2207L23.6023 27.6453C23.4866 27.5256 23.4216 27.3633 23.4216 27.194C23.4216 27.0247 23.4866 26.8624 23.6023 26.7427C23.7179 26.623 23.8748 26.5558 24.0384 26.5558C24.2019 26.5558 24.3588 26.623 24.4745 26.7427L25.5562 27.8653L28.555 24.7559C28.6122 24.6966 28.6802 24.6495 28.7551 24.6174C28.8299 24.5853 28.9101 24.5688 28.9911 24.5688C29.0721 24.5688 29.1523 24.5853 29.2271 24.6174C29.302 24.6495 29.3699 24.6966 29.4272 24.7559Z" fill="#FF76BB"/>
</svg>
