<svg width="341" height="267" viewBox="0 0 341 267" fill="none" xmlns="http://www.w3.org/2000/svg">
<path d="M255.339 90.2357V104.136H253.059V90.2357H255.339ZM263.892 92.9357C264.759 92.9357 265.532 93.1157 266.212 93.4757C266.905 93.8357 267.445 94.3691 267.832 95.0757C268.219 95.7824 268.412 96.6357 268.412 97.6357V104.136H266.152V97.9757C266.152 96.9891 265.905 96.2357 265.412 95.7157C264.919 95.1824 264.245 94.9157 263.392 94.9157C262.539 94.9157 261.859 95.1824 261.352 95.7157C260.859 96.2357 260.612 96.9891 260.612 97.9757V104.136H258.332V93.1157H260.612V94.3757C260.985 93.9224 261.459 93.5691 262.032 93.3157C262.619 93.0624 263.239 92.9357 263.892 92.9357ZM275.32 104.316C274.454 104.316 273.674 104.162 272.98 103.856C272.3 103.536 271.76 103.109 271.36 102.576C270.96 102.029 270.747 101.422 270.72 100.756H273.08C273.12 101.222 273.34 101.616 273.74 101.936C274.154 102.242 274.667 102.396 275.28 102.396C275.92 102.396 276.414 102.276 276.76 102.036C277.12 101.782 277.3 101.462 277.3 101.076C277.3 100.662 277.1 100.356 276.7 100.156C276.314 99.9557 275.694 99.7357 274.84 99.4957C274.014 99.2691 273.34 99.0491 272.82 98.8357C272.3 98.6224 271.847 98.2957 271.46 97.8557C271.087 97.4157 270.9 96.8357 270.9 96.1157C270.9 95.5291 271.074 94.9957 271.42 94.5157C271.767 94.0224 272.26 93.6357 272.9 93.3557C273.554 93.0757 274.3 92.9357 275.14 92.9357C276.394 92.9357 277.4 93.2557 278.16 93.8957C278.934 94.5224 279.347 95.3824 279.4 96.4757H277.12C277.08 95.9824 276.88 95.5891 276.52 95.2957C276.16 95.0024 275.674 94.8557 275.06 94.8557C274.46 94.8557 274 94.9691 273.68 95.1957C273.36 95.4224 273.2 95.7224 273.2 96.0957C273.2 96.3891 273.307 96.6357 273.52 96.8357C273.734 97.0357 273.994 97.1957 274.3 97.3157C274.607 97.4224 275.06 97.5624 275.66 97.7357C276.46 97.9491 277.114 98.1691 277.62 98.3957C278.14 98.6091 278.587 98.9291 278.96 99.3557C279.334 99.7824 279.527 100.349 279.54 101.056C279.54 101.682 279.367 102.242 279.02 102.736C278.674 103.229 278.18 103.616 277.54 103.896C276.914 104.176 276.174 104.316 275.32 104.316ZM283.164 91.6557C282.751 91.6557 282.404 91.5157 282.124 91.2357C281.844 90.9557 281.704 90.6091 281.704 90.1957C281.704 89.7824 281.844 89.4357 282.124 89.1557C282.404 88.8757 282.751 88.7357 283.164 88.7357C283.564 88.7357 283.904 88.8757 284.184 89.1557C284.464 89.4357 284.604 89.7824 284.604 90.1957C284.604 90.6091 284.464 90.9557 284.184 91.2357C283.904 91.5157 283.564 91.6557 283.164 91.6557ZM284.284 93.1157V104.136H282.004V93.1157H284.284ZM291.717 92.9357C292.571 92.9357 293.324 93.1091 293.977 93.4557C294.644 93.7891 295.164 94.2091 295.537 94.7157V93.1157H297.837V104.316C297.837 105.329 297.624 106.229 297.197 107.016C296.771 107.816 296.151 108.442 295.337 108.896C294.537 109.349 293.577 109.576 292.457 109.576C290.964 109.576 289.724 109.222 288.737 108.516C287.751 107.822 287.191 106.876 287.057 105.676H289.317C289.491 106.249 289.857 106.709 290.417 107.056C290.991 107.416 291.671 107.596 292.457 107.596C293.377 107.596 294.117 107.316 294.677 106.756C295.251 106.196 295.537 105.382 295.537 104.316V102.476C295.151 102.996 294.624 103.436 293.957 103.796C293.304 104.142 292.557 104.316 291.717 104.316C290.757 104.316 289.877 104.076 289.077 103.596C288.291 103.102 287.664 102.422 287.197 101.556C286.744 100.676 286.517 99.6824 286.517 98.5757C286.517 97.4691 286.744 96.4891 287.197 95.6357C287.664 94.7824 288.291 94.1224 289.077 93.6557C289.877 93.1757 290.757 92.9357 291.717 92.9357ZM295.537 98.6157C295.537 97.8557 295.377 97.1957 295.057 96.6357C294.751 96.0757 294.344 95.6491 293.837 95.3557C293.331 95.0624 292.784 94.9157 292.197 94.9157C291.611 94.9157 291.064 95.0624 290.557 95.3557C290.051 95.6357 289.637 96.0557 289.317 96.6157C289.011 97.1624 288.857 97.8157 288.857 98.5757C288.857 99.3357 289.011 100.002 289.317 100.576C289.637 101.149 290.051 101.589 290.557 101.896C291.077 102.189 291.624 102.336 292.197 102.336C292.784 102.336 293.331 102.189 293.837 101.896C294.344 101.602 294.751 101.176 295.057 100.616C295.377 100.042 295.537 99.3757 295.537 98.6157ZM306.532 92.9357C307.372 92.9357 308.119 93.1157 308.772 93.4757C309.439 93.8357 309.959 94.3691 310.332 95.0757C310.719 95.7824 310.912 96.6357 310.912 97.6357V104.136H308.652V97.9757C308.652 96.9891 308.405 96.2357 307.912 95.7157C307.419 95.1824 306.745 94.9157 305.892 94.9157C305.039 94.9157 304.359 95.1824 303.852 95.7157C303.359 96.2357 303.112 96.9891 303.112 97.9757V104.136H300.832V89.3357H303.112V94.3957C303.499 93.9291 303.985 93.5691 304.572 93.3157C305.172 93.0624 305.825 92.9357 306.532 92.9357ZM316.48 94.9757V101.076C316.48 101.489 316.574 101.789 316.76 101.976C316.96 102.149 317.294 102.236 317.76 102.236H319.16V104.136H317.36C316.334 104.136 315.547 103.896 315 103.416C314.454 102.936 314.18 102.156 314.18 101.076V94.9757H312.88V93.1157H314.18V90.3757H316.48V93.1157H319.16V94.9757H316.48ZM325.262 104.316C324.395 104.316 323.615 104.162 322.922 103.856C322.242 103.536 321.702 103.109 321.302 102.576C320.902 102.029 320.688 101.422 320.662 100.756H323.022C323.062 101.222 323.282 101.616 323.682 101.936C324.095 102.242 324.608 102.396 325.222 102.396C325.862 102.396 326.355 102.276 326.702 102.036C327.062 101.782 327.242 101.462 327.242 101.076C327.242 100.662 327.042 100.356 326.642 100.156C326.255 99.9557 325.635 99.7357 324.782 99.4957C323.955 99.2691 323.282 99.0491 322.762 98.8357C322.242 98.6224 321.788 98.2957 321.402 97.8557C321.028 97.4157 320.842 96.8357 320.842 96.1157C320.842 95.5291 321.015 94.9957 321.362 94.5157C321.708 94.0224 322.202 93.6357 322.842 93.3557C323.495 93.0757 324.242 92.9357 325.082 92.9357C326.335 92.9357 327.342 93.2557 328.102 93.8957C328.875 94.5224 329.288 95.3824 329.342 96.4757H327.062C327.022 95.9824 326.822 95.5891 326.462 95.2957C326.102 95.0024 325.615 94.8557 325.002 94.8557C324.402 94.8557 323.942 94.9691 323.622 95.1957C323.302 95.4224 323.142 95.7224 323.142 96.0957C323.142 96.3891 323.248 96.6357 323.462 96.8357C323.675 97.0357 323.935 97.1957 324.242 97.3157C324.548 97.4224 325.002 97.5624 325.602 97.7357C326.402 97.9491 327.055 98.1691 327.562 98.3957C328.082 98.6091 328.528 98.9291 328.902 99.3557C329.275 99.7824 329.468 100.349 329.482 101.056C329.482 101.682 329.308 102.242 328.962 102.736C328.615 103.229 328.122 103.616 327.482 103.896C326.855 104.176 326.115 104.316 325.262 104.316Z" fill="black"/>
<g filter="url(#filter0_bd_4401_12205)">
<rect x="266.559" y="4" width="64" height="67.8193" rx="21.3333" fill="url(#paint0_radial_4401_12205)" fill-opacity="0.7" shape-rendering="crispEdges"/>
<rect x="267.625" y="5.06667" width="61.8667" height="65.686" rx="20.2667" stroke="white" stroke-width="2.13333" shape-rendering="crispEdges"/>
</g>
<path d="M291.715 32.4068C290.233 31.1232 289.492 30.4814 289.056 29.7446C288.313 28.4893 288.124 26.9819 288.535 25.5821C288.776 24.7605 289.335 23.9558 290.455 22.3464C291.575 20.7371 292.135 19.9324 292.821 19.4208C293.991 18.5491 295.47 18.202 296.905 18.4621C297.748 18.6149 298.607 19.0864 300.326 20.0295L305.213 22.7113C307.831 24.148 309.141 24.8663 309.848 25.8882C310.605 26.9823 310.919 28.3225 310.728 29.6392C310.55 30.869 309.697 32.0948 307.991 34.5463C306.286 36.9979 305.433 38.2237 304.342 38.8187C303.174 39.4557 301.808 39.6268 300.519 39.2974C299.315 38.9898 298.186 38.0121 295.929 36.0568L291.715 32.4068Z" fill="url(#paint1_linear_4401_12205)"/>
<g opacity="0.5" filter="url(#filter1_f_4401_12205)">
<path d="M294.2 30.8273C292.468 29.327 292.147 26.7618 293.455 24.8807C294.764 22.9997 297.281 22.4089 299.29 23.5112L302.179 25.0964C304.695 26.4774 305.46 29.7353 303.821 32.0919C302.181 34.4486 298.861 34.8643 296.691 32.9847L294.2 30.8273Z" fill="#0062FF"/>
</g>
<g filter="url(#filter2_b_4401_12205)">
<mask id="path-6-outside-1_4401_12205" maskUnits="userSpaceOnUse" x="281.025" y="24.8164" width="35" height="32" fill="black">
<rect fill="white" x="281.025" y="24.8164" width="35" height="32"/>
<path d="M313.851 43.137C312.494 43.137 311.39 42.0427 311.39 40.6977C311.39 39.3511 312.494 38.2568 313.851 38.2568C314.18 38.2568 314.496 38.1274 314.728 37.8981C314.961 37.6671 315.091 37.3542 315.091 37.0282L315.09 32.6018C315.09 28.8602 312.016 25.8164 308.24 25.8164H288.877C285.101 25.8164 282.027 28.8602 282.027 32.6018L282.025 37.1707C282.025 37.4967 282.156 37.8096 282.389 38.0406C282.621 38.2699 282.936 38.3994 283.265 38.3994C284.669 38.3994 285.727 39.3872 285.727 40.6977C285.727 42.0427 284.623 43.137 283.265 43.137C282.581 43.137 282.025 43.6874 282.025 44.3656V48.7888C282.025 52.5304 285.097 55.5758 288.875 55.5758H308.242C312.02 55.5758 315.091 52.5304 315.091 48.7888V44.3656C315.091 43.6874 314.536 43.137 313.851 43.137Z"/>
</mask>
<path d="M313.851 43.137C312.494 43.137 311.39 42.0427 311.39 40.6977C311.39 39.3511 312.494 38.2568 313.851 38.2568C314.18 38.2568 314.496 38.1274 314.728 37.8981C314.961 37.6671 315.091 37.3542 315.091 37.0282L315.09 32.6018C315.09 28.8602 312.016 25.8164 308.24 25.8164H288.877C285.101 25.8164 282.027 28.8602 282.027 32.6018L282.025 37.1707C282.025 37.4967 282.156 37.8096 282.389 38.0406C282.621 38.2699 282.936 38.3994 283.265 38.3994C284.669 38.3994 285.727 39.3872 285.727 40.6977C285.727 42.0427 284.623 43.137 283.265 43.137C282.581 43.137 282.025 43.6874 282.025 44.3656V48.7888C282.025 52.5304 285.097 55.5758 288.875 55.5758H308.242C312.02 55.5758 315.091 52.5304 315.091 48.7888V44.3656C315.091 43.6874 314.536 43.137 313.851 43.137Z" fill="#3EA0FE" fill-opacity="0.35"/>
<path d="M313.851 43.5419C314.075 43.5419 314.256 43.3606 314.256 43.137C314.256 42.9134 314.075 42.7321 313.851 42.7321V43.5419ZM314.728 37.8981L314.443 37.6105V37.6105L314.728 37.8981ZM315.091 37.0282H315.496V37.028L315.091 37.0282ZM315.09 32.6018H314.685V32.6019L315.09 32.6018ZM282.027 32.6018L282.432 32.6019V32.6018H282.027ZM282.025 37.1707L281.621 37.1706V37.1707H282.025ZM282.389 38.0406L282.674 37.753L282.389 38.0406ZM313.851 42.7321C313.628 42.7321 313.447 42.9134 313.447 43.137C313.447 43.3606 313.628 43.5419 313.851 43.5419V42.7321ZM313.851 42.7321C312.714 42.7321 311.795 41.8156 311.795 40.6977H310.985C310.985 42.2698 312.274 43.5419 313.851 43.5419V42.7321ZM311.795 40.6977C311.795 39.5781 312.714 38.6617 313.851 38.6617V37.8519C312.274 37.8519 310.985 39.1242 310.985 40.6977H311.795ZM313.851 38.6617C314.286 38.6617 314.705 38.4909 315.013 38.1857L314.443 37.6105C314.288 37.764 314.075 37.8519 313.851 37.8519V38.6617ZM315.013 38.1857C315.322 37.879 315.496 37.4627 315.496 37.0282H314.686C314.686 37.2456 314.599 37.4551 314.443 37.6105L315.013 38.1857ZM315.496 37.028L315.495 32.6016L314.685 32.6019L314.686 37.0283L315.496 37.028ZM315.495 32.6018C315.495 28.6329 312.236 25.4115 308.24 25.4115V26.2213C311.796 26.2213 314.685 29.0874 314.685 32.6018H315.495ZM308.24 25.4115H288.877V26.2213H308.24V25.4115ZM288.877 25.4115C284.881 25.4115 281.622 28.6329 281.622 32.6018H282.432C282.432 29.0874 285.321 26.2213 288.877 26.2213V25.4115ZM281.622 32.6016L281.621 37.1706L282.43 37.1709L282.432 32.6019L281.622 32.6016ZM281.621 37.1707C281.621 37.6053 281.795 38.0215 282.104 38.3282L282.674 37.753C282.517 37.5977 282.43 37.3882 282.43 37.1707H281.621ZM282.104 38.3282C282.412 38.6334 282.831 38.8042 283.265 38.8042V37.9945C283.042 37.9945 282.829 37.9065 282.674 37.753L282.104 38.3282ZM283.265 38.8042C284.472 38.8042 285.322 39.6365 285.322 40.6977H286.132C286.132 39.1378 284.866 37.9945 283.265 37.9945V38.8042ZM285.322 40.6977C285.322 41.8156 284.403 42.7321 283.265 42.7321V43.5419C284.843 43.5419 286.132 42.2698 286.132 40.6977H285.322ZM283.265 42.7321C282.361 42.7321 281.621 43.4603 281.621 44.3656H282.43C282.43 43.9145 282.801 43.5419 283.265 43.5419V42.7321ZM281.621 44.3656V48.7888H282.43V44.3656H281.621ZM281.621 48.7888C281.621 52.7574 284.877 55.9807 288.875 55.9807V55.1709C285.317 55.1709 282.43 52.3033 282.43 48.7888H281.621ZM288.875 55.9807H308.242V55.1709H288.875V55.9807ZM308.242 55.9807C312.24 55.9807 315.496 52.7574 315.496 48.7888H314.686C314.686 52.3033 311.799 55.1709 308.242 55.1709V55.9807ZM315.496 48.7888V44.3656H314.686V48.7888H315.496ZM315.496 44.3656C315.496 43.4603 314.756 42.7321 313.851 42.7321V43.5419C314.316 43.5419 314.686 43.9145 314.686 44.3656H315.496Z" fill="url(#paint2_linear_4401_12205)" mask="url(#path-6-outside-1_4401_12205)"/>
</g>
<g filter="url(#filter3_bd_4401_12205)">
<path d="M304.229 40.0159L302.28 41.9139L302.741 44.5972C302.821 45.0618 302.634 45.5198 302.252 45.7942C301.873 46.072 301.379 46.1067 300.962 45.8851L298.557 44.6204L296.146 45.8868C295.968 45.981 295.772 46.0306 295.579 46.0306C295.326 46.0306 295.076 45.9513 294.862 45.7959C294.481 45.5198 294.294 45.0618 294.374 44.5972L294.833 41.9139L292.884 40.0159C292.547 39.6886 292.43 39.2075 292.575 38.7594C292.722 38.313 293.102 37.9956 293.567 37.9295L296.255 37.5376L297.461 35.0957C297.67 34.6758 298.09 34.4146 298.557 34.4146H298.56C299.028 34.4162 299.448 34.6774 299.654 35.0974L300.86 37.5376L303.553 37.9311C304.013 37.9956 304.393 38.313 304.538 38.7594C304.685 39.2075 304.568 39.6886 304.229 40.0159Z" fill="url(#paint3_linear_4401_12205)"/>
<path d="M304.201 39.9868L304.201 39.9869L302.252 41.8849L302.236 41.8998L302.24 41.9208L302.701 44.604C302.778 45.0534 302.597 45.496 302.228 45.7613L302.228 45.7616C301.862 46.0301 301.384 46.0637 300.981 45.8494L300.981 45.8493L298.575 44.5845L298.557 44.5746L298.538 44.5845L296.127 45.851L296.127 45.851C295.954 45.9423 295.766 45.9901 295.579 45.9901C295.335 45.9901 295.093 45.9135 294.885 45.7631C294.518 45.4961 294.337 45.0534 294.414 44.6041C294.414 44.6041 294.414 44.604 294.414 44.604L294.873 41.9208L294.877 41.8998L294.862 41.8849L292.912 39.9869L292.912 39.9869C292.586 39.6704 292.473 39.2055 292.613 38.772C292.756 38.3403 293.123 38.0335 293.573 37.9695L293.573 37.9695L296.261 37.5777L296.282 37.5746L296.292 37.5556L297.497 35.1138C297.497 35.1138 297.497 35.1138 297.497 35.1137C297.7 34.7074 298.106 34.455 298.557 34.455H298.56C299.012 34.4567 299.418 34.7092 299.618 35.1152L299.618 35.1153L300.823 37.5556L300.833 37.5746L300.854 37.5777L303.547 37.9712L303.547 37.9712C303.992 38.0335 304.359 38.3403 304.5 38.772L304.5 38.7721C304.642 39.2055 304.529 39.6703 304.201 39.9868Z" stroke="url(#paint4_linear_4401_12205)" stroke-opacity="0.5" stroke-width="0.0809779"/>
</g>
<path d="M8.39859 258.728C7.10526 258.728 5.91193 258.428 4.81859 257.828C3.73859 257.215 2.87859 256.368 2.23859 255.288C1.61193 254.195 1.29859 252.968 1.29859 251.608C1.29859 250.248 1.61193 249.028 2.23859 247.948C2.87859 246.868 3.73859 246.028 4.81859 245.428C5.91193 244.815 7.10526 244.508 8.39859 244.508C9.70526 244.508 10.8986 244.815 11.9786 245.428C13.0719 246.028 13.9319 246.868 14.5586 247.948C15.1853 249.028 15.4986 250.248 15.4986 251.608C15.4986 252.968 15.1853 254.195 14.5586 255.288C13.9319 256.368 13.0719 257.215 11.9786 257.828C10.8986 258.428 9.70526 258.728 8.39859 258.728ZM8.39859 256.748C9.31859 256.748 10.1386 256.542 10.8586 256.128C11.5786 255.702 12.1386 255.102 12.5386 254.328C12.9519 253.542 13.1586 252.635 13.1586 251.608C13.1586 250.582 12.9519 249.682 12.5386 248.908C12.1386 248.135 11.5786 247.542 10.8586 247.128C10.1386 246.715 9.31859 246.508 8.39859 246.508C7.47859 246.508 6.65859 246.715 5.93859 247.128C5.21859 247.542 4.65193 248.135 4.23859 248.908C3.83859 249.682 3.63859 250.582 3.63859 251.608C3.63859 252.635 3.83859 253.542 4.23859 254.328C4.65193 255.102 5.21859 255.702 5.93859 256.128C6.65859 256.542 7.47859 256.748 8.39859 256.748ZM20.0222 249.188C20.4089 248.682 20.9355 248.255 21.6022 247.908C22.2689 247.562 23.0222 247.388 23.8622 247.388C24.8222 247.388 25.6955 247.628 26.4822 248.108C27.2822 248.575 27.9089 249.235 28.3622 250.088C28.8155 250.942 29.0422 251.922 29.0422 253.028C29.0422 254.135 28.8155 255.128 28.3622 256.008C27.9089 256.875 27.2822 257.555 26.4822 258.048C25.6955 258.528 24.8222 258.768 23.8622 258.768C23.0222 258.768 22.2755 258.602 21.6222 258.268C20.9689 257.922 20.4355 257.495 20.0222 256.988V263.828H17.7422V247.568H20.0222V249.188ZM26.7222 253.028C26.7222 252.268 26.5622 251.615 26.2422 251.068C25.9355 250.508 25.5222 250.088 25.0022 249.808C24.4955 249.515 23.9489 249.368 23.3622 249.368C22.7889 249.368 22.2422 249.515 21.7222 249.808C21.2155 250.102 20.8022 250.528 20.4822 251.088C20.1755 251.648 20.0222 252.308 20.0222 253.068C20.0222 253.828 20.1755 254.495 20.4822 255.068C20.8022 255.628 21.2155 256.055 21.7222 256.348C22.2422 256.642 22.7889 256.788 23.3622 256.788C23.9489 256.788 24.4955 256.642 25.0022 256.348C25.5222 256.042 25.9355 255.602 26.2422 255.028C26.5622 254.455 26.7222 253.788 26.7222 253.028ZM33.9569 249.428V255.528C33.9569 255.942 34.0502 256.242 34.2369 256.428C34.4369 256.602 34.7702 256.688 35.2369 256.688H36.6369V258.588H34.8369C33.8102 258.588 33.0235 258.348 32.4769 257.868C31.9302 257.388 31.6569 256.608 31.6569 255.528V249.428H30.3569V247.568H31.6569V244.828H33.9569V247.568H36.6369V249.428H33.9569ZM39.8983 246.108C39.4849 246.108 39.1383 245.968 38.8583 245.688C38.5783 245.408 38.4383 245.062 38.4383 244.648C38.4383 244.235 38.5783 243.888 38.8583 243.608C39.1383 243.328 39.4849 243.188 39.8983 243.188C40.2983 243.188 40.6383 243.328 40.9183 243.608C41.1983 243.888 41.3383 244.235 41.3383 244.648C41.3383 245.062 41.1983 245.408 40.9183 245.688C40.6383 245.968 40.2983 246.108 39.8983 246.108ZM41.0183 247.568V258.588H38.7383V247.568H41.0183ZM57.3517 247.388C58.2184 247.388 58.9917 247.568 59.6717 247.928C60.3651 248.288 60.9051 248.822 61.2917 249.528C61.6917 250.235 61.8917 251.088 61.8917 252.088V258.588H59.6317V252.428C59.6317 251.442 59.3851 250.688 58.8917 250.168C58.3984 249.635 57.7251 249.368 56.8717 249.368C56.0184 249.368 55.3384 249.635 54.8317 250.168C54.3384 250.688 54.0917 251.442 54.0917 252.428V258.588H51.8317V252.428C51.8317 251.442 51.5851 250.688 51.0917 250.168C50.5984 249.635 49.9251 249.368 49.0717 249.368C48.2184 249.368 47.5384 249.635 47.0317 250.168C46.5384 250.688 46.2917 251.442 46.2917 252.428V258.588H44.0117V247.568H46.2917V248.828C46.6651 248.375 47.1384 248.022 47.7117 247.768C48.2851 247.515 48.8984 247.388 49.5517 247.388C50.4317 247.388 51.2184 247.575 51.9117 247.948C52.6051 248.322 53.1384 248.862 53.5117 249.568C53.8451 248.902 54.3651 248.375 55.0717 247.988C55.7784 247.588 56.5384 247.388 57.3517 247.388ZM65.953 246.108C65.5396 246.108 65.193 245.968 64.913 245.688C64.633 245.408 64.493 245.062 64.493 244.648C64.493 244.235 64.633 243.888 64.913 243.608C65.193 243.328 65.5396 243.188 65.953 243.188C66.353 243.188 66.693 243.328 66.973 243.608C67.253 243.888 67.393 244.235 67.393 244.648C67.393 245.062 67.253 245.408 66.973 245.688C66.693 245.968 66.353 246.108 65.953 246.108ZM67.073 247.568V258.588H64.793V247.568H67.073ZM72.0864 256.728H77.0864V258.588H69.4464V256.728L74.4664 249.428H69.4464V247.568H77.0864V249.428L72.0864 256.728ZM78.7205 253.028C78.7205 251.922 78.9471 250.942 79.4005 250.088C79.8671 249.235 80.4938 248.575 81.2805 248.108C82.0805 247.628 82.9605 247.388 83.9205 247.388C84.7871 247.388 85.5405 247.562 86.1805 247.908C86.8338 248.242 87.3538 248.662 87.7405 249.168V247.568H90.0405V258.588H87.7405V256.948C87.3538 257.468 86.8271 257.902 86.1605 258.248C85.4938 258.595 84.7338 258.768 83.8805 258.768C82.9338 258.768 82.0671 258.528 81.2805 258.048C80.4938 257.555 79.8671 256.875 79.4005 256.008C78.9471 255.128 78.7205 254.135 78.7205 253.028ZM87.7405 253.068C87.7405 252.308 87.5805 251.648 87.2605 251.088C86.9538 250.528 86.5471 250.102 86.0405 249.808C85.5338 249.515 84.9871 249.368 84.4005 249.368C83.8138 249.368 83.2671 249.515 82.7605 249.808C82.2538 250.088 81.8405 250.508 81.5205 251.068C81.2138 251.615 81.0605 252.268 81.0605 253.028C81.0605 253.788 81.2138 254.455 81.5205 255.028C81.8405 255.602 82.2538 256.042 82.7605 256.348C83.2805 256.642 83.8271 256.788 84.4005 256.788C84.9871 256.788 85.5338 256.642 86.0405 256.348C86.5471 256.055 86.9538 255.628 87.2605 255.068C87.5805 254.495 87.7405 253.828 87.7405 253.068ZM95.6952 249.428V255.528C95.6952 255.942 95.7885 256.242 95.9752 256.428C96.1752 256.602 96.5085 256.688 96.9752 256.688H98.3752V258.588H96.5752C95.5485 258.588 94.7618 258.348 94.2152 257.868C93.6685 257.388 93.3952 256.608 93.3952 255.528V249.428H92.0952V247.568H93.3952V244.828H95.6952V247.568H98.3752V249.428H95.6952ZM101.637 246.108C101.223 246.108 100.877 245.968 100.597 245.688C100.317 245.408 100.177 245.062 100.177 244.648C100.177 244.235 100.317 243.888 100.597 243.608C100.877 243.328 101.223 243.188 101.637 243.188C102.037 243.188 102.377 243.328 102.657 243.608C102.937 243.888 103.077 244.235 103.077 244.648C103.077 245.062 102.937 245.408 102.657 245.688C102.377 245.968 102.037 246.108 101.637 246.108ZM102.757 247.568V258.588H100.477V247.568H102.757ZM110.53 258.768C109.49 258.768 108.55 258.535 107.71 258.068C106.87 257.588 106.21 256.922 105.73 256.068C105.25 255.202 105.01 254.202 105.01 253.068C105.01 251.948 105.257 250.955 105.75 250.088C106.243 249.222 106.917 248.555 107.77 248.088C108.623 247.622 109.577 247.388 110.63 247.388C111.683 247.388 112.637 247.622 113.49 248.088C114.343 248.555 115.017 249.222 115.51 250.088C116.003 250.955 116.25 251.948 116.25 253.068C116.25 254.188 115.997 255.182 115.49 256.048C114.983 256.915 114.29 257.588 113.41 258.068C112.543 258.535 111.583 258.768 110.53 258.768ZM110.53 256.788C111.117 256.788 111.663 256.648 112.17 256.368C112.69 256.088 113.11 255.668 113.43 255.108C113.75 254.548 113.91 253.868 113.91 253.068C113.91 252.268 113.757 251.595 113.45 251.048C113.143 250.488 112.737 250.068 112.23 249.788C111.723 249.508 111.177 249.368 110.59 249.368C110.003 249.368 109.457 249.508 108.95 249.788C108.457 250.068 108.063 250.488 107.77 251.048C107.477 251.595 107.33 252.268 107.33 253.068C107.33 254.255 107.63 255.175 108.23 255.828C108.843 256.468 109.61 256.788 110.53 256.788ZM124.064 247.388C124.931 247.388 125.704 247.568 126.384 247.928C127.077 248.288 127.617 248.822 128.004 249.528C128.391 250.235 128.584 251.088 128.584 252.088V258.588H126.324V252.428C126.324 251.442 126.077 250.688 125.584 250.168C125.091 249.635 124.417 249.368 123.564 249.368C122.711 249.368 122.031 249.635 121.524 250.168C121.031 250.688 120.784 251.442 120.784 252.428V258.588H118.504V247.568H120.784V248.828C121.157 248.375 121.631 248.022 122.204 247.768C122.791 247.515 123.411 247.388 124.064 247.388Z" fill="black"/>
<g filter="url(#filter4_bd_4401_12205)">
<rect x="66.5566" y="158.453" width="64" height="67.8193" rx="21.3333" fill="url(#paint5_radial_4401_12205)" fill-opacity="0.7" shape-rendering="crispEdges"/>
<rect x="67.6233" y="159.519" width="61.8667" height="65.686" rx="20.2667" stroke="white" stroke-width="2.13333" shape-rendering="crispEdges"/>
</g>
<g filter="url(#filter5_b_4401_12205)">
<path d="M111.807 189.449C111.807 198.663 104.338 206.133 95.1233 206.133C85.9088 206.133 78.4395 198.663 78.4395 189.449C78.4395 180.236 85.9088 172.765 95.1233 172.765C104.338 172.765 111.807 180.236 111.807 189.449Z" fill="url(#paint6_linear_4401_12205)"/>
</g>
<g opacity="0.5" filter="url(#filter6_f_4401_12205)">
<path d="M105.815 189.433C105.815 195.3 101.059 200.056 95.1915 200.056C89.3243 200.056 84.5684 195.3 84.5684 189.433C84.5684 183.567 89.3243 178.81 95.1915 178.81C101.059 178.81 105.815 183.567 105.815 189.433Z" fill="#F41E59"/>
</g>
<g filter="url(#filter7_b_4401_12205)">
<path d="M118.344 195.986C118.344 205.201 110.875 212.67 101.66 212.67C92.4459 212.67 84.9766 205.201 84.9766 195.986C84.9766 186.773 92.4459 179.302 101.66 179.302C110.875 179.302 118.344 186.773 118.344 195.986Z" fill="#FF749F" fill-opacity="0.35"/>
<path d="M101.66 212.874C110.988 212.874 118.548 205.313 118.548 195.986C118.548 186.66 110.988 179.098 101.66 179.098C92.3331 179.098 84.7723 186.66 84.7723 195.986C84.7723 205.313 92.3331 212.874 101.66 212.874Z" stroke="url(#paint7_linear_4401_12205)" stroke-width="0.408583" stroke-linecap="round" stroke-linejoin="round"/>
</g>
<g filter="url(#filter8_bd_4401_12205)">
<path d="M108.335 195.995C108.335 196.416 108.202 196.84 107.937 197.179C107.887 197.245 107.655 197.519 107.472 197.697L107.373 197.795C105.979 199.272 102.512 201.494 100.754 202.206C100.754 202.222 99.7086 202.645 99.211 202.66H99.1446C98.3815 202.66 97.6682 202.24 97.3032 201.559C97.1042 201.184 96.9217 200.098 96.9051 200.083C96.7558 199.108 96.6562 197.616 96.6562 195.978C96.6562 194.261 96.7558 192.702 96.9383 191.746C96.9383 191.729 97.1207 190.854 97.2369 190.562C97.4193 190.142 97.7511 189.783 98.1659 189.556C98.4976 189.396 98.846 189.313 99.211 189.313C99.5925 189.331 100.306 189.572 100.588 189.686C102.446 190.4 105.996 192.735 107.356 194.162C107.588 194.389 107.837 194.666 107.904 194.73C108.186 195.086 108.335 195.524 108.335 195.995Z" fill="url(#paint8_linear_4401_12205)"/>
<path d="M107.872 197.128L107.872 197.128C108.126 196.805 108.253 196.4 108.253 195.995C108.253 195.544 108.111 195.126 107.843 194.785C107.815 194.757 107.763 194.703 107.7 194.635C107.679 194.612 107.656 194.588 107.633 194.563C107.533 194.458 107.414 194.333 107.299 194.22L107.297 194.218L107.297 194.218C106.623 193.512 105.402 192.575 104.114 191.725C102.825 190.874 101.479 190.116 100.559 189.762L100.557 189.762L100.557 189.762C100.419 189.706 100.173 189.618 99.9137 189.542C99.6538 189.466 99.3892 189.403 99.209 189.395C98.8583 189.395 98.5233 189.474 98.2033 189.629C97.8051 189.847 97.4871 190.191 97.3123 190.593C97.257 190.733 97.1839 191.018 97.1236 191.276C97.0937 191.404 97.0673 191.523 97.0485 191.612C97.0391 191.656 97.0316 191.692 97.0265 191.718L97.0207 191.748L97.02 191.752V191.753L97.0185 191.761C96.8375 192.71 96.738 194.263 96.738 195.978C96.738 197.608 96.8367 199.091 96.9843 200.061C96.9849 200.064 96.9854 200.067 96.9859 200.071L107.872 197.128ZM107.872 197.128L107.871 197.13C107.824 197.193 107.595 197.463 107.415 197.639L107.316 197.736L107.316 197.736L107.313 197.739C106.623 198.47 105.415 199.391 104.155 200.219C102.896 201.047 101.595 201.777 100.723 202.13L100.672 202.151V202.156C100.644 202.168 100.603 202.186 100.552 202.206C100.448 202.247 100.303 202.302 100.143 202.356C99.819 202.466 99.4448 202.571 99.2097 202.578M107.872 197.128L99.2097 202.578M99.2097 202.578H99.1446C98.4114 202.578 97.726 202.175 97.3754 201.52L99.2097 202.578ZM97.0192 191.757C97.0192 191.757 97.0192 191.756 97.0194 191.755L97.0192 191.757Z" stroke="url(#paint9_linear_4401_12205)" stroke-width="0.163433"/>
</g>
<defs>
<filter id="filter0_bd_4401_12205" x="224.425" y="-38.1333" width="148.267" height="152.086" filterUnits="userSpaceOnUse" color-interpolation-filters="sRGB">
<feFlood flood-opacity="0" result="BackgroundImageFix"/>
<feGaussianBlur in="BackgroundImageFix" stdDeviation="21.0667"/>
<feComposite in2="SourceAlpha" operator="in" result="effect1_backgroundBlur_4401_12205"/>
<feColorMatrix in="SourceAlpha" type="matrix" values="0 0 0 0 0 0 0 0 0 0 0 0 0 0 0 0 0 0 127 0" result="hardAlpha"/>
<feOffset dy="6.4"/>
<feGaussianBlur stdDeviation="5.06667"/>
<feComposite in2="hardAlpha" operator="out"/>
<feColorMatrix type="matrix" values="0 0 0 0 0.0867708 0 0 0 0 0.115317 0 0 0 0 0.141667 0 0 0 0.08 0"/>
<feBlend mode="normal" in2="effect1_backgroundBlur_4401_12205" result="effect2_dropShadow_4401_12205"/>
<feBlend mode="normal" in="SourceGraphic" in2="effect2_dropShadow_4401_12205" result="shape"/>
</filter>
<filter id="filter1_f_4401_12205" x="284.555" y="14.8602" width="28.2307" height="27.4021" filterUnits="userSpaceOnUse" color-interpolation-filters="sRGB">
<feFlood flood-opacity="0" result="BackgroundImageFix"/>
<feBlend mode="normal" in="SourceGraphic" in2="BackgroundImageFix" result="shape"/>
<feGaussianBlur stdDeviation="4.0489" result="effect1_foregroundBlur_4401_12205"/>
</filter>
<filter id="filter2_b_4401_12205" x="271.904" y="15.6943" width="53.3097" height="50.0035" filterUnits="userSpaceOnUse" color-interpolation-filters="sRGB">
<feFlood flood-opacity="0" result="BackgroundImageFix"/>
<feGaussianBlur in="BackgroundImageFix" stdDeviation="4.85868"/>
<feComposite in2="SourceAlpha" operator="in" result="effect1_backgroundBlur_4401_12205"/>
<feBlend mode="normal" in="SourceGraphic" in2="effect1_backgroundBlur_4401_12205" result="shape"/>
</filter>
<filter id="filter3_bd_4401_12205" x="286.44" y="28.3412" width="24.2346" height="23.7629" filterUnits="userSpaceOnUse" color-interpolation-filters="sRGB">
<feFlood flood-opacity="0" result="BackgroundImageFix"/>
<feGaussianBlur in="BackgroundImageFix" stdDeviation="3.03667"/>
<feComposite in2="SourceAlpha" operator="in" result="effect1_backgroundBlur_4401_12205"/>
<feColorMatrix in="SourceAlpha" type="matrix" values="0 0 0 0 0 0 0 0 0 0 0 0 0 0 0 0 0 0 127 0" result="hardAlpha"/>
<feOffset dx="2.02445" dy="2.02445"/>
<feGaussianBlur stdDeviation="2.02445"/>
<feColorMatrix type="matrix" values="0 0 0 0 0.15375 0 0 0 0 0.522433 0 0 0 0 0.9 0 0 0 0.5 0"/>
<feBlend mode="normal" in2="effect1_backgroundBlur_4401_12205" result="effect2_dropShadow_4401_12205"/>
<feBlend mode="normal" in="SourceGraphic" in2="effect2_dropShadow_4401_12205" result="shape"/>
</filter>
<filter id="filter4_bd_4401_12205" x="24.4233" y="116.319" width="148.267" height="152.086" filterUnits="userSpaceOnUse" color-interpolation-filters="sRGB">
<feFlood flood-opacity="0" result="BackgroundImageFix"/>
<feGaussianBlur in="BackgroundImageFix" stdDeviation="21.0667"/>
<feComposite in2="SourceAlpha" operator="in" result="effect1_backgroundBlur_4401_12205"/>
<feColorMatrix in="SourceAlpha" type="matrix" values="0 0 0 0 0 0 0 0 0 0 0 0 0 0 0 0 0 0 127 0" result="hardAlpha"/>
<feOffset dy="6.4"/>
<feGaussianBlur stdDeviation="5.06667"/>
<feComposite in2="hardAlpha" operator="out"/>
<feColorMatrix type="matrix" values="0 0 0 0 0.0867708 0 0 0 0 0.115317 0 0 0 0 0.141667 0 0 0 0.08 0"/>
<feBlend mode="normal" in2="effect1_backgroundBlur_4401_12205" result="effect2_dropShadow_4401_12205"/>
<feBlend mode="normal" in="SourceGraphic" in2="effect2_dropShadow_4401_12205" result="shape"/>
</filter>
<filter id="filter5_b_4401_12205" x="73.1279" y="167.454" width="43.9903" height="43.9908" filterUnits="userSpaceOnUse" color-interpolation-filters="sRGB">
<feFlood flood-opacity="0" result="BackgroundImageFix"/>
<feGaussianBlur in="BackgroundImageFix" stdDeviation="2.65579"/>
<feComposite in2="SourceAlpha" operator="in" result="effect1_backgroundBlur_4401_12205"/>
<feBlend mode="normal" in="SourceGraphic" in2="effect1_backgroundBlur_4401_12205" result="shape"/>
</filter>
<filter id="filter6_f_4401_12205" x="77.6224" y="171.864" width="35.1379" height="35.1379" filterUnits="userSpaceOnUse" color-interpolation-filters="sRGB">
<feFlood flood-opacity="0" result="BackgroundImageFix"/>
<feBlend mode="normal" in="SourceGraphic" in2="BackgroundImageFix" result="shape"/>
<feGaussianBlur stdDeviation="3.47296" result="effect1_foregroundBlur_4401_12205"/>
</filter>
<filter id="filter7_b_4401_12205" x="74.7624" y="169.088" width="53.7956" height="53.797" filterUnits="userSpaceOnUse" color-interpolation-filters="sRGB">
<feFlood flood-opacity="0" result="BackgroundImageFix"/>
<feGaussianBlur in="BackgroundImageFix" stdDeviation="4.903"/>
<feComposite in2="SourceAlpha" operator="in" result="effect1_backgroundBlur_4401_12205"/>
<feBlend mode="normal" in="SourceGraphic" in2="effect1_backgroundBlur_4401_12205" result="shape"/>
</filter>
<filter id="filter8_bd_4401_12205" x="90.5275" y="183.184" width="23.9352" height="25.6047" filterUnits="userSpaceOnUse" color-interpolation-filters="sRGB">
<feFlood flood-opacity="0" result="BackgroundImageFix"/>
<feGaussianBlur in="BackgroundImageFix" stdDeviation="3.06437"/>
<feComposite in2="SourceAlpha" operator="in" result="effect1_backgroundBlur_4401_12205"/>
<feColorMatrix in="SourceAlpha" type="matrix" values="0 0 0 0 0 0 0 0 0 0 0 0 0 0 0 0 0 0 127 0" result="hardAlpha"/>
<feOffset dx="2.04292" dy="2.04292"/>
<feGaussianBlur stdDeviation="2.04292"/>
<feColorMatrix type="matrix" values="0 0 0 0 1 0 0 0 0 0.321569 0 0 0 0 0.54902 0 0 0 0.5 0"/>
<feBlend mode="normal" in2="effect1_backgroundBlur_4401_12205" result="effect2_dropShadow_4401_12205"/>
<feBlend mode="normal" in="SourceGraphic" in2="effect2_dropShadow_4401_12205" result="shape"/>
</filter>
<radialGradient id="paint0_radial_4401_12205" cx="0" cy="0" r="1" gradientUnits="userSpaceOnUse" gradientTransform="translate(298.559 37.9097) rotate(90) scale(33.9097 32)">
<stop stop-color="white"/>
<stop offset="1" stop-color="white"/>
</radialGradient>
<linearGradient id="paint1_linear_4401_12205" x1="294.904" y1="15.9518" x2="293.046" y2="40.1543" gradientUnits="userSpaceOnUse">
<stop stop-color="#39AFFD"/>
<stop offset="1" stop-color="#477FFF"/>
</linearGradient>
<linearGradient id="paint2_linear_4401_12205" x1="287.289" y1="29.2834" x2="311.435" y2="56.6138" gradientUnits="userSpaceOnUse">
<stop stop-color="white" stop-opacity="0.25"/>
<stop offset="1" stop-color="white" stop-opacity="0"/>
</linearGradient>
<linearGradient id="paint3_linear_4401_12205" x1="303.744" y1="36.5122" x2="290.281" y2="36.9689" gradientUnits="userSpaceOnUse">
<stop stop-color="white"/>
<stop offset="1" stop-color="white" stop-opacity="0.2"/>
</linearGradient>
<linearGradient id="paint4_linear_4401_12205" x1="293.816" y1="38.3112" x2="304.079" y2="38.3701" gradientUnits="userSpaceOnUse">
<stop stop-color="white"/>
<stop offset="1" stop-color="white" stop-opacity="0"/>
</linearGradient>
<radialGradient id="paint5_radial_4401_12205" cx="0" cy="0" r="1" gradientUnits="userSpaceOnUse" gradientTransform="translate(98.5566 192.362) rotate(90) scale(33.9097 32)">
<stop stop-color="white"/>
<stop offset="1" stop-color="white"/>
</radialGradient>
<linearGradient id="paint6_linear_4401_12205" x1="97.5798" y1="191.683" x2="68.26" y2="205.939" gradientUnits="userSpaceOnUse">
<stop stop-color="#FF759F"/>
<stop offset="1" stop-color="#FF196E"/>
</linearGradient>
<linearGradient id="paint7_linear_4401_12205" x1="90.2881" y1="183.19" x2="111.573" y2="209.552" gradientUnits="userSpaceOnUse">
<stop stop-color="white" stop-opacity="0.25"/>
<stop offset="1" stop-color="white" stop-opacity="0"/>
</linearGradient>
<linearGradient id="paint8_linear_4401_12205" x1="107.507" y1="191.723" x2="94.4947" y2="192.094" gradientUnits="userSpaceOnUse">
<stop stop-color="white"/>
<stop offset="1" stop-color="white" stop-opacity="0.2"/>
</linearGradient>
<linearGradient id="paint9_linear_4401_12205" x1="98.5153" y1="190.868" x2="107.197" y2="200.276" gradientUnits="userSpaceOnUse">
<stop stop-color="white" stop-opacity="0.25"/>
<stop offset="1" stop-color="white" stop-opacity="0"/>
</linearGradient>
</defs>
</svg>
