<svg width="88" height="110" viewBox="0 0 88 110" fill="none" xmlns="http://www.w3.org/2000/svg">
<path d="M2.33859 90.2357V104.136H0.0585938V90.2357H2.33859ZM10.892 92.9357C11.7587 92.9357 12.532 93.1157 13.212 93.4757C13.9054 93.8357 14.4454 94.3691 14.832 95.0757C15.2187 95.7824 15.412 96.6357 15.412 97.6357V104.136H13.152V97.9757C13.152 96.9891 12.9054 96.2357 12.412 95.7157C11.9187 95.1824 11.2454 94.9157 10.392 94.9157C9.5387 94.9157 8.8587 95.1824 8.35203 95.7157C7.8587 96.2357 7.61203 96.9891 7.61203 97.9757V104.136H5.33203V93.1157H7.61203V94.3757C7.98536 93.9224 8.4587 93.5691 9.03203 93.3157C9.6187 93.0624 10.2387 92.9357 10.892 92.9357ZM22.3203 104.316C21.4536 104.316 20.6736 104.162 19.9803 103.856C19.3003 103.536 18.7603 103.109 18.3603 102.576C17.9603 102.029 17.747 101.422 17.7203 100.756H20.0803C20.1203 101.222 20.3403 101.616 20.7403 101.936C21.1536 102.242 21.667 102.396 22.2803 102.396C22.9203 102.396 23.4136 102.276 23.7603 102.036C24.1203 101.782 24.3003 101.462 24.3003 101.076C24.3003 100.662 24.1003 100.356 23.7003 100.156C23.3136 99.9557 22.6936 99.7357 21.8403 99.4957C21.0136 99.2691 20.3403 99.0491 19.8203 98.8357C19.3003 98.6224 18.847 98.2957 18.4603 97.8557C18.087 97.4157 17.9003 96.8357 17.9003 96.1157C17.9003 95.5291 18.0736 94.9957 18.4203 94.5157C18.767 94.0224 19.2603 93.6357 19.9003 93.3557C20.5536 93.0757 21.3003 92.9357 22.1403 92.9357C23.3936 92.9357 24.4003 93.2557 25.1603 93.8957C25.9336 94.5224 26.347 95.3824 26.4003 96.4757H24.1203C24.0803 95.9824 23.8803 95.5891 23.5203 95.2957C23.1603 95.0024 22.6736 94.8557 22.0603 94.8557C21.4603 94.8557 21.0003 94.9691 20.6803 95.1957C20.3603 95.4224 20.2003 95.7224 20.2003 96.0957C20.2003 96.3891 20.307 96.6357 20.5203 96.8357C20.7336 97.0357 20.9936 97.1957 21.3003 97.3157C21.607 97.4224 22.0603 97.5624 22.6603 97.7357C23.4603 97.9491 24.1136 98.1691 24.6203 98.3957C25.1403 98.6091 25.587 98.9291 25.9603 99.3557C26.3336 99.7824 26.527 100.349 26.5403 101.056C26.5403 101.682 26.367 102.242 26.0203 102.736C25.6736 103.229 25.1803 103.616 24.5403 103.896C23.9136 104.176 23.1736 104.316 22.3203 104.316ZM30.1639 91.6557C29.7506 91.6557 29.4039 91.5157 29.1239 91.2357C28.8439 90.9557 28.7039 90.6091 28.7039 90.1957C28.7039 89.7824 28.8439 89.4357 29.1239 89.1557C29.4039 88.8757 29.7506 88.7357 30.1639 88.7357C30.5639 88.7357 30.9039 88.8757 31.1839 89.1557C31.4639 89.4357 31.6039 89.7824 31.6039 90.1957C31.6039 90.6091 31.4639 90.9557 31.1839 91.2357C30.9039 91.5157 30.5639 91.6557 30.1639 91.6557ZM31.2839 93.1157V104.136H29.0039V93.1157H31.2839ZM38.7173 92.9357C39.5707 92.9357 40.324 93.1091 40.9773 93.4557C41.644 93.7891 42.164 94.2091 42.5373 94.7157V93.1157H44.8373V104.316C44.8373 105.329 44.624 106.229 44.1973 107.016C43.7707 107.816 43.1507 108.442 42.3373 108.896C41.5373 109.349 40.5773 109.576 39.4573 109.576C37.964 109.576 36.724 109.222 35.7373 108.516C34.7507 107.822 34.1907 106.876 34.0573 105.676H36.3173C36.4907 106.249 36.8573 106.709 37.4173 107.056C37.9907 107.416 38.6707 107.596 39.4573 107.596C40.3773 107.596 41.1173 107.316 41.6773 106.756C42.2507 106.196 42.5373 105.382 42.5373 104.316V102.476C42.1507 102.996 41.624 103.436 40.9573 103.796C40.304 104.142 39.5573 104.316 38.7173 104.316C37.7573 104.316 36.8773 104.076 36.0773 103.596C35.2907 103.102 34.664 102.422 34.1973 101.556C33.744 100.676 33.5173 99.6824 33.5173 98.5757C33.5173 97.4691 33.744 96.4891 34.1973 95.6357C34.664 94.7824 35.2907 94.1224 36.0773 93.6557C36.8773 93.1757 37.7573 92.9357 38.7173 92.9357ZM42.5373 98.6157C42.5373 97.8557 42.3773 97.1957 42.0573 96.6357C41.7507 96.0757 41.344 95.6491 40.8373 95.3557C40.3307 95.0624 39.784 94.9157 39.1973 94.9157C38.6107 94.9157 38.064 95.0624 37.5573 95.3557C37.0507 95.6357 36.6373 96.0557 36.3173 96.6157C36.0107 97.1624 35.8573 97.8157 35.8573 98.5757C35.8573 99.3357 36.0107 100.002 36.3173 100.576C36.6373 101.149 37.0507 101.589 37.5573 101.896C38.0773 102.189 38.624 102.336 39.1973 102.336C39.784 102.336 40.3307 102.189 40.8373 101.896C41.344 101.602 41.7507 101.176 42.0573 100.616C42.3773 100.042 42.5373 99.3757 42.5373 98.6157ZM53.532 92.9357C54.372 92.9357 55.1187 93.1157 55.772 93.4757C56.4387 93.8357 56.9587 94.3691 57.332 95.0757C57.7187 95.7824 57.912 96.6357 57.912 97.6357V104.136H55.652V97.9757C55.652 96.9891 55.4054 96.2357 54.912 95.7157C54.4187 95.1824 53.7454 94.9157 52.892 94.9157C52.0387 94.9157 51.3587 95.1824 50.852 95.7157C50.3587 96.2357 50.112 96.9891 50.112 97.9757V104.136H47.832V89.3357H50.112V94.3957C50.4987 93.9291 50.9854 93.5691 51.572 93.3157C52.172 93.0624 52.8254 92.9357 53.532 92.9357ZM63.4803 94.9757V101.076C63.4803 101.489 63.5736 101.789 63.7603 101.976C63.9603 102.149 64.2936 102.236 64.7603 102.236H66.1603V104.136H64.3603C63.3336 104.136 62.547 103.896 62.0003 103.416C61.4536 102.936 61.1803 102.156 61.1803 101.076V94.9757H59.8803V93.1157H61.1803V90.3757H63.4803V93.1157H66.1603V94.9757H63.4803ZM72.2617 104.316C71.3951 104.316 70.6151 104.162 69.9217 103.856C69.2417 103.536 68.7017 103.109 68.3017 102.576C67.9017 102.029 67.6884 101.422 67.6617 100.756H70.0217C70.0617 101.222 70.2817 101.616 70.6817 101.936C71.0951 102.242 71.6084 102.396 72.2217 102.396C72.8617 102.396 73.3551 102.276 73.7017 102.036C74.0617 101.782 74.2417 101.462 74.2417 101.076C74.2417 100.662 74.0417 100.356 73.6417 100.156C73.2551 99.9557 72.6351 99.7357 71.7817 99.4957C70.9551 99.2691 70.2817 99.0491 69.7617 98.8357C69.2417 98.6224 68.7884 98.2957 68.4017 97.8557C68.0284 97.4157 67.8417 96.8357 67.8417 96.1157C67.8417 95.5291 68.0151 94.9957 68.3617 94.5157C68.7084 94.0224 69.2017 93.6357 69.8417 93.3557C70.4951 93.0757 71.2417 92.9357 72.0817 92.9357C73.3351 92.9357 74.3417 93.2557 75.1017 93.8957C75.8751 94.5224 76.2884 95.3824 76.3417 96.4757H74.0617C74.0217 95.9824 73.8217 95.5891 73.4617 95.2957C73.1017 95.0024 72.6151 94.8557 72.0017 94.8557C71.4017 94.8557 70.9417 94.9691 70.6217 95.1957C70.3017 95.4224 70.1417 95.7224 70.1417 96.0957C70.1417 96.3891 70.2484 96.6357 70.4617 96.8357C70.6751 97.0357 70.9351 97.1957 71.2417 97.3157C71.5484 97.4224 72.0017 97.5624 72.6017 97.7357C73.4017 97.9491 74.0551 98.1691 74.5617 98.3957C75.0817 98.6091 75.5284 98.9291 75.9017 99.3557C76.2751 99.7824 76.4684 100.349 76.4817 101.056C76.4817 101.682 76.3084 102.242 75.9617 102.736C75.6151 103.229 75.1217 103.616 74.4817 103.896C73.8551 104.176 73.1151 104.316 72.2617 104.316Z" fill="black"/>
<g filter="url(#filter0_bd_4401_12205)">
<rect x="13.5586" y="4" width="64" height="67.8193" rx="21.3333" fill="url(#paint0_radial_4401_12205)" fill-opacity="0.7" shape-rendering="crispEdges"/>
<rect x="14.6253" y="5.06667" width="61.8667" height="65.686" rx="20.2667" stroke="white" stroke-width="2.13333" shape-rendering="crispEdges"/>
</g>
<path d="M38.7149 32.4068C37.233 31.1232 36.492 30.4814 36.0559 29.7446C35.3129 28.4893 35.1241 26.9819 35.5347 25.5821C35.7757 24.7605 36.3355 23.9558 37.4551 22.3464C38.5747 20.7371 39.1345 19.9324 39.8211 19.4208C40.9908 18.5491 42.4698 18.202 43.9051 18.4621C44.7477 18.6149 45.607 19.0864 47.3258 20.0295L52.2132 22.7113C54.8314 24.148 56.1405 24.8663 56.8476 25.8882C57.6046 26.9823 57.9192 28.3225 57.728 29.6392C57.5495 30.869 56.6967 32.0948 54.9912 34.5463C53.2856 36.9979 52.4328 38.2237 51.3419 38.8187C50.1738 39.4557 48.8078 39.6268 47.5187 39.2974C46.3148 38.9898 45.1861 38.0121 42.9287 36.0568L38.7149 32.4068Z" fill="url(#paint1_linear_4401_12205)"/>
<g opacity="0.5" filter="url(#filter1_f_4401_12205)">
<path d="M41.1999 30.8273C39.4679 29.327 39.1467 26.7618 40.4553 24.8807C41.764 22.9997 44.2808 22.4089 46.2898 23.5112L49.1786 25.0964C51.6955 26.4774 52.4602 29.7353 50.8207 32.0919C49.1812 34.4486 45.8606 34.8643 43.6907 32.9847L41.1999 30.8273Z" fill="#0062FF"/>
</g>
<g filter="url(#filter2_b_4401_12205)">
<mask id="path-6-outside-1_4401_12205" maskUnits="userSpaceOnUse" x="28.0254" y="24.8164" width="35" height="32" fill="black">
<rect fill="white" x="28.0254" y="24.8164" width="35" height="32"/>
<path d="M60.8514 43.137C59.494 43.137 58.3896 42.0427 58.3896 40.6977C58.3896 39.3511 59.494 38.2568 60.8514 38.2568C61.1804 38.2568 61.4962 38.1274 61.7277 37.8981C61.9608 37.6671 62.0914 37.3542 62.0914 37.0282L62.0897 32.6018C62.0897 28.8602 59.0162 25.8164 55.2401 25.8164H35.8767C32.1005 25.8164 29.027 28.8602 29.027 32.6018L29.0254 37.1707C29.0254 37.4967 29.156 37.8096 29.3891 38.0406C29.6206 38.2699 29.9364 38.3994 30.2654 38.3994C31.669 38.3994 32.7271 39.3872 32.7271 40.6977C32.7271 42.0427 31.6227 43.137 30.2654 43.137C29.5809 43.137 29.0254 43.6874 29.0254 44.3656V48.7888C29.0254 52.5304 32.0972 55.5758 35.875 55.5758H55.2418C59.0195 55.5758 62.0914 52.5304 62.0914 48.7888V44.3656C62.0914 43.6874 61.5359 43.137 60.8514 43.137Z"/>
</mask>
<path d="M60.8514 43.137C59.494 43.137 58.3896 42.0427 58.3896 40.6977C58.3896 39.3511 59.494 38.2568 60.8514 38.2568C61.1804 38.2568 61.4962 38.1274 61.7277 37.8981C61.9608 37.6671 62.0914 37.3542 62.0914 37.0282L62.0897 32.6018C62.0897 28.8602 59.0162 25.8164 55.2401 25.8164H35.8767C32.1005 25.8164 29.027 28.8602 29.027 32.6018L29.0254 37.1707C29.0254 37.4967 29.156 37.8096 29.3891 38.0406C29.6206 38.2699 29.9364 38.3994 30.2654 38.3994C31.669 38.3994 32.7271 39.3872 32.7271 40.6977C32.7271 42.0427 31.6227 43.137 30.2654 43.137C29.5809 43.137 29.0254 43.6874 29.0254 44.3656V48.7888C29.0254 52.5304 32.0972 55.5758 35.875 55.5758H55.2418C59.0195 55.5758 62.0914 52.5304 62.0914 48.7888V44.3656C62.0914 43.6874 61.5359 43.137 60.8514 43.137Z" fill="#3EA0FE" fill-opacity="0.35"/>
<path d="M60.8514 43.5419C61.075 43.5419 61.2563 43.3606 61.2563 43.137C61.2563 42.9134 61.075 42.7321 60.8514 42.7321V43.5419ZM61.7277 37.8981L61.4427 37.6105V37.6105L61.7277 37.8981ZM62.0914 37.0282H62.4963V37.028L62.0914 37.0282ZM62.0897 32.6018H61.6848V32.6019L62.0897 32.6018ZM29.027 32.6018L29.4319 32.6019V32.6018H29.027ZM29.0254 37.1707L28.6205 37.1706V37.1707H29.0254ZM29.3891 38.0406L29.6741 37.753L29.3891 38.0406ZM60.8514 42.7321C60.6278 42.7321 60.4465 42.9134 60.4465 43.137C60.4465 43.3606 60.6278 43.5419 60.8514 43.5419V42.7321ZM60.8514 42.7321C59.7141 42.7321 58.7945 41.8156 58.7945 40.6977H57.9848C57.9848 42.2698 59.2739 43.5419 60.8514 43.5419V42.7321ZM58.7945 40.6977C58.7945 39.5781 59.7143 38.6617 60.8514 38.6617V37.8519C59.2738 37.8519 57.9848 39.1242 57.9848 40.6977H58.7945ZM60.8514 38.6617C61.2862 38.6617 61.7046 38.4909 62.0126 38.1857L61.4427 37.6105C61.2877 37.764 61.0747 37.8519 60.8514 37.8519V38.6617ZM62.0126 38.1857C62.3221 37.879 62.4963 37.4627 62.4963 37.0282H61.6865C61.6865 37.2456 61.5994 37.4551 61.4427 37.6105L62.0126 38.1857ZM62.4963 37.028L62.4946 32.6016L61.6848 32.6019L61.6865 37.0283L62.4963 37.028ZM62.4946 32.6018C62.4946 28.6329 59.2362 25.4115 55.2401 25.4115V26.2213C58.7963 26.2213 61.6848 29.0874 61.6848 32.6018H62.4946ZM55.2401 25.4115H35.8767V26.2213H55.2401V25.4115ZM35.8767 25.4115C31.8806 25.4115 28.6222 28.6329 28.6222 32.6018H29.4319C29.4319 29.0874 32.3205 26.2213 35.8767 26.2213V25.4115ZM28.6222 32.6016L28.6205 37.1706L29.4303 37.1709L29.4319 32.6019L28.6222 32.6016ZM28.6205 37.1707C28.6205 37.6053 28.7947 38.0215 29.1041 38.3282L29.6741 37.753C29.5174 37.5977 29.4303 37.3882 29.4303 37.1707H28.6205ZM29.1041 38.3282C29.4121 38.6334 29.8306 38.8042 30.2654 38.8042V37.9945C30.0421 37.9945 29.829 37.9065 29.6741 37.753L29.1041 38.3282ZM30.2654 38.8042C31.472 38.8042 32.3222 39.6365 32.3222 40.6977H33.132C33.132 39.1378 31.866 37.9945 30.2654 37.9945V38.8042ZM32.3222 40.6977C32.3222 41.8156 31.4026 42.7321 30.2654 42.7321V43.5419C31.8428 43.5419 33.132 42.2698 33.132 40.6977H32.3222ZM30.2654 42.7321C29.3608 42.7321 28.6205 43.4603 28.6205 44.3656H29.4303C29.4303 43.9145 29.801 43.5419 30.2654 43.5419V42.7321ZM28.6205 44.3656V48.7888H29.4303V44.3656H28.6205ZM28.6205 48.7888C28.6205 52.7574 31.8771 55.9807 35.875 55.9807V55.1709C32.3174 55.1709 29.4303 52.3033 29.4303 48.7888H28.6205ZM35.875 55.9807H55.2418V55.1709H35.875V55.9807ZM55.2418 55.9807C59.2397 55.9807 62.4963 52.7574 62.4963 48.7888H61.6865C61.6865 52.3033 58.7994 55.1709 55.2418 55.1709V55.9807ZM62.4963 48.7888V44.3656H61.6865V48.7888H62.4963ZM62.4963 44.3656C62.4963 43.4603 61.756 42.7321 60.8514 42.7321V43.5419C61.3158 43.5419 61.6865 43.9145 61.6865 44.3656H62.4963Z" fill="url(#paint2_linear_4401_12205)" mask="url(#path-6-outside-1_4401_12205)"/>
</g>
<g filter="url(#filter3_bd_4401_12205)">
<path d="M51.2291 40.0159L49.2799 41.9139L49.7411 44.5972C49.8205 45.0618 49.6337 45.5198 49.2518 45.7942C48.8732 46.072 48.3788 46.1067 47.9622 45.8851L45.5566 44.6204L43.1461 45.8868C42.9676 45.981 42.7725 46.0306 42.5791 46.0306C42.3261 46.0306 42.0764 45.9513 41.8615 45.7959C41.4813 45.5198 41.2944 45.0618 41.3738 44.5972L41.8334 41.9139L39.8842 40.0159C39.5469 39.6886 39.4295 39.2075 39.575 38.7594C39.7222 38.313 40.1024 37.9956 40.567 37.9295L43.2553 37.5376L44.4605 35.0957C44.6705 34.6758 45.0904 34.4146 45.5566 34.4146H45.56C46.0278 34.4162 46.4478 34.6774 46.6544 35.0974L47.8597 37.5376L50.5529 37.9311C51.0125 37.9956 51.3928 38.313 51.5383 38.7594C51.6854 39.2075 51.568 39.6886 51.2291 40.0159Z" fill="url(#paint3_linear_4401_12205)"/>
<path d="M51.201 39.9868L51.2009 39.9869L49.2516 41.8849L49.2364 41.8998L49.24 41.9208L49.7012 44.604C49.778 45.0534 49.5974 45.496 49.2281 45.7613L49.2278 45.7616C48.8618 46.0301 48.3842 46.0637 47.9812 45.8494L47.981 45.8493L45.5755 44.5845L45.5567 44.5746L45.5378 44.5845L43.1273 45.851L43.1272 45.851C42.9542 45.9423 42.7656 45.9901 42.5791 45.9901C42.3347 45.9901 42.0934 45.9135 41.8853 45.7631C41.5175 45.4961 41.3369 45.0534 41.4137 44.6041C41.4137 44.6041 41.4137 44.604 41.4137 44.604L41.8733 41.9208L41.8769 41.8998L41.8617 41.8849L39.9124 39.9869L39.9124 39.9869C39.5863 39.6704 39.4728 39.2055 39.6135 38.772C39.7558 38.3403 40.1234 38.0335 40.5727 37.9695L40.5728 37.9695L43.2611 37.5777L43.2821 37.5746L43.2916 37.5556L44.4967 35.1138C44.4967 35.1138 44.4968 35.1138 44.4968 35.1137C44.7 34.7074 45.1059 34.455 45.5566 34.455H45.5599C46.0124 34.4567 46.4183 34.7092 46.6181 35.1152L46.6181 35.1153L47.8234 37.5556L47.8328 37.5746L47.8538 37.5777L50.5471 37.9712L50.5473 37.9712C50.9916 38.0335 51.3591 38.3403 51.4998 38.772L51.4998 38.7721C51.6422 39.2055 51.5287 39.6703 51.201 39.9868Z" stroke="url(#paint4_linear_4401_12205)" stroke-opacity="0.5" stroke-width="0.0809779"/>
</g>
<defs>
<filter id="filter0_bd_4401_12205" x="-28.5747" y="-38.1333" width="148.267" height="152.086" filterUnits="userSpaceOnUse" color-interpolation-filters="sRGB">
<feFlood flood-opacity="0" result="BackgroundImageFix"/>
<feGaussianBlur in="BackgroundImageFix" stdDeviation="21.0667"/>
<feComposite in2="SourceAlpha" operator="in" result="effect1_backgroundBlur_4401_12205"/>
<feColorMatrix in="SourceAlpha" type="matrix" values="0 0 0 0 0 0 0 0 0 0 0 0 0 0 0 0 0 0 127 0" result="hardAlpha"/>
<feOffset dy="6.4"/>
<feGaussianBlur stdDeviation="5.06667"/>
<feComposite in2="hardAlpha" operator="out"/>
<feColorMatrix type="matrix" values="0 0 0 0 0.0867708 0 0 0 0 0.115317 0 0 0 0 0.141667 0 0 0 0.08 0"/>
<feBlend mode="normal" in2="effect1_backgroundBlur_4401_12205" result="effect2_dropShadow_4401_12205"/>
<feBlend mode="normal" in="SourceGraphic" in2="effect2_dropShadow_4401_12205" result="shape"/>
</filter>
<filter id="filter1_f_4401_12205" x="31.5546" y="14.8602" width="28.2307" height="27.4021" filterUnits="userSpaceOnUse" color-interpolation-filters="sRGB">
<feFlood flood-opacity="0" result="BackgroundImageFix"/>
<feBlend mode="normal" in="SourceGraphic" in2="BackgroundImageFix" result="shape"/>
<feGaussianBlur stdDeviation="4.0489" result="effect1_foregroundBlur_4401_12205"/>
</filter>
<filter id="filter2_b_4401_12205" x="18.9037" y="15.6943" width="53.3097" height="50.0035" filterUnits="userSpaceOnUse" color-interpolation-filters="sRGB">
<feFlood flood-opacity="0" result="BackgroundImageFix"/>
<feGaussianBlur in="BackgroundImageFix" stdDeviation="4.85868"/>
<feComposite in2="SourceAlpha" operator="in" result="effect1_backgroundBlur_4401_12205"/>
<feBlend mode="normal" in="SourceGraphic" in2="effect1_backgroundBlur_4401_12205" result="shape"/>
</filter>
<filter id="filter3_bd_4401_12205" x="33.4403" y="28.3412" width="24.2346" height="23.7629" filterUnits="userSpaceOnUse" color-interpolation-filters="sRGB">
<feFlood flood-opacity="0" result="BackgroundImageFix"/>
<feGaussianBlur in="BackgroundImageFix" stdDeviation="3.03667"/>
<feComposite in2="SourceAlpha" operator="in" result="effect1_backgroundBlur_4401_12205"/>
<feColorMatrix in="SourceAlpha" type="matrix" values="0 0 0 0 0 0 0 0 0 0 0 0 0 0 0 0 0 0 127 0" result="hardAlpha"/>
<feOffset dx="2.02445" dy="2.02445"/>
<feGaussianBlur stdDeviation="2.02445"/>
<feColorMatrix type="matrix" values="0 0 0 0 0.15375 0 0 0 0 0.522433 0 0 0 0 0.9 0 0 0 0.5 0"/>
<feBlend mode="normal" in2="effect1_backgroundBlur_4401_12205" result="effect2_dropShadow_4401_12205"/>
<feBlend mode="normal" in="SourceGraphic" in2="effect2_dropShadow_4401_12205" result="shape"/>
</filter>
<radialGradient id="paint0_radial_4401_12205" cx="0" cy="0" r="1" gradientUnits="userSpaceOnUse" gradientTransform="translate(45.5586 37.9097) rotate(90) scale(33.9097 32)">
<stop stop-color="white"/>
<stop offset="1" stop-color="white"/>
</radialGradient>
<linearGradient id="paint1_linear_4401_12205" x1="41.9038" y1="15.9518" x2="40.0457" y2="40.1543" gradientUnits="userSpaceOnUse">
<stop stop-color="#39AFFD"/>
<stop offset="1" stop-color="#477FFF"/>
</linearGradient>
<linearGradient id="paint2_linear_4401_12205" x1="34.289" y1="29.2834" x2="58.4354" y2="56.6138" gradientUnits="userSpaceOnUse">
<stop stop-color="white" stop-opacity="0.25"/>
<stop offset="1" stop-color="white" stop-opacity="0"/>
</linearGradient>
<linearGradient id="paint3_linear_4401_12205" x1="50.7437" y1="36.5122" x2="37.2811" y2="36.9689" gradientUnits="userSpaceOnUse">
<stop stop-color="white"/>
<stop offset="1" stop-color="white" stop-opacity="0.2"/>
</linearGradient>
<linearGradient id="paint4_linear_4401_12205" x1="40.8157" y1="38.3112" x2="51.0792" y2="38.3701" gradientUnits="userSpaceOnUse">
<stop stop-color="white"/>
<stop offset="1" stop-color="white" stop-opacity="0"/>
</linearGradient>
</defs>
</svg>
