<svg width="140" height="113" viewBox="0 0 140 113" fill="none" xmlns="http://www.w3.org/2000/svg">
<path d="M6.63859 104.248C5.70526 104.248 4.86526 104.088 4.11859 103.768C3.37193 103.435 2.78526 102.968 2.35859 102.368C1.93193 101.768 1.71859 101.068 1.71859 100.268H4.15859C4.21193 100.868 4.44526 101.362 4.85859 101.748C5.28526 102.135 5.87859 102.328 6.63859 102.328C7.42526 102.328 8.03859 102.142 8.47859 101.768C8.91859 101.382 9.13859 100.888 9.13859 100.288C9.13859 99.8217 8.99859 99.4417 8.71859 99.1484C8.45193 98.8551 8.11193 98.6284 7.69859 98.4684C7.29859 98.3084 6.73859 98.1351 6.01859 97.9484C5.11193 97.7084 4.37193 97.4684 3.79859 97.2284C3.23859 96.9751 2.75859 96.5884 2.35859 96.0684C1.95859 95.5484 1.75859 94.8551 1.75859 93.9884C1.75859 93.1884 1.95859 92.4884 2.35859 91.8884C2.75859 91.2884 3.31859 90.8284 4.03859 90.5084C4.75859 90.1884 5.59193 90.0284 6.53859 90.0284C7.88526 90.0284 8.98526 90.3684 9.83859 91.0484C10.7053 91.7151 11.1853 92.6351 11.2786 93.8084H8.75859C8.71859 93.3017 8.47859 92.8684 8.03859 92.5084C7.59859 92.1484 7.01859 91.9684 6.29859 91.9684C5.64526 91.9684 5.11193 92.1351 4.69859 92.4684C4.28526 92.8017 4.07859 93.2817 4.07859 93.9084C4.07859 94.3351 4.20526 94.6884 4.45859 94.9684C4.72526 95.2351 5.05859 95.4484 5.45859 95.6084C5.85859 95.7684 6.40526 95.9417 7.09859 96.1284C8.01859 96.3817 8.76526 96.6351 9.33859 96.8884C9.92526 97.1417 10.4186 97.5351 10.8186 98.0684C11.2319 98.5884 11.4386 99.2884 11.4386 100.168C11.4386 100.875 11.2453 101.542 10.8586 102.168C10.4853 102.795 9.93193 103.302 9.19859 103.688C8.47859 104.062 7.62526 104.248 6.63859 104.248ZM18.9089 104.288C17.8689 104.288 16.9289 104.055 16.0889 103.588C15.2489 103.108 14.5889 102.442 14.1089 101.588C13.6289 100.722 13.3889 99.7217 13.3889 98.5884C13.3889 97.4684 13.6356 96.4751 14.1289 95.6084C14.6222 94.7417 15.2956 94.0751 16.1489 93.6084C17.0022 93.1417 17.9556 92.9084 19.0089 92.9084C20.0622 92.9084 21.0156 93.1417 21.8689 93.6084C22.7222 94.0751 23.3956 94.7417 23.8889 95.6084C24.3822 96.4751 24.6289 97.4684 24.6289 98.5884C24.6289 99.7084 24.3756 100.702 23.8689 101.568C23.3622 102.435 22.6689 103.108 21.7889 103.588C20.9222 104.055 19.9622 104.288 18.9089 104.288ZM18.9089 102.308C19.4956 102.308 20.0422 102.168 20.5489 101.888C21.0689 101.608 21.4889 101.188 21.8089 100.628C22.1289 100.068 22.2889 99.3884 22.2889 98.5884C22.2889 97.7884 22.1356 97.1151 21.8289 96.5684C21.5222 96.0084 21.1156 95.5884 20.6089 95.3084C20.1022 95.0284 19.5556 94.8884 18.9689 94.8884C18.3822 94.8884 17.8356 95.0284 17.3289 95.3084C16.8356 95.5884 16.4422 96.0084 16.1489 96.5684C15.8556 97.1151 15.7089 97.7884 15.7089 98.5884C15.7089 99.7751 16.0089 100.695 16.6089 101.348C17.2222 101.988 17.9889 102.308 18.9089 102.308ZM26.1228 98.5884C26.1228 97.4551 26.3495 96.4617 26.8028 95.6084C27.2695 94.7417 27.9095 94.0751 28.7228 93.6084C29.5361 93.1417 30.4695 92.9084 31.5228 92.9084C32.8561 92.9084 33.9561 93.2284 34.8228 93.8684C35.7028 94.4951 36.2961 95.3951 36.6028 96.5684H34.1428C33.9428 96.0217 33.6228 95.5951 33.1828 95.2884C32.7428 94.9817 32.1895 94.8284 31.5228 94.8284C30.5895 94.8284 29.8428 95.1617 29.2828 95.8284C28.7361 96.4817 28.4628 97.4017 28.4628 98.5884C28.4628 99.7751 28.7361 100.702 29.2828 101.368C29.8428 102.035 30.5895 102.368 31.5228 102.368C32.8428 102.368 33.7161 101.788 34.1428 100.628H36.6028C36.2828 101.748 35.6828 102.642 34.8028 103.308C33.9228 103.962 32.8295 104.288 31.5228 104.288C30.4695 104.288 29.5361 104.055 28.7228 103.588C27.9095 103.108 27.2695 102.442 26.8028 101.588C26.3495 100.722 26.1228 99.7217 26.1228 98.5884ZM40.035 91.6284C39.6217 91.6284 39.275 91.4884 38.995 91.2084C38.715 90.9284 38.575 90.5817 38.575 90.1684C38.575 89.7551 38.715 89.4084 38.995 89.1284C39.275 88.8484 39.6217 88.7084 40.035 88.7084C40.435 88.7084 40.775 88.8484 41.055 89.1284C41.335 89.4084 41.475 89.7551 41.475 90.1684C41.475 90.5817 41.335 90.9284 41.055 91.2084C40.775 91.4884 40.435 91.6284 40.035 91.6284ZM41.155 93.0884V104.108H38.875V93.0884H41.155ZM43.3884 98.5484C43.3884 97.4417 43.6151 96.4617 44.0684 95.6084C44.5351 94.7551 45.1618 94.0951 45.9484 93.6284C46.7484 93.1484 47.6284 92.9084 48.5884 92.9084C49.4551 92.9084 50.2084 93.0817 50.8484 93.4284C51.5018 93.7617 52.0218 94.1817 52.4084 94.6884V93.0884H54.7084V104.108H52.4084V102.468C52.0218 102.988 51.4951 103.422 50.8284 103.768C50.1618 104.115 49.4018 104.288 48.5484 104.288C47.6018 104.288 46.7351 104.048 45.9484 103.568C45.1618 103.075 44.5351 102.395 44.0684 101.528C43.6151 100.648 43.3884 99.6551 43.3884 98.5484ZM52.4084 98.5884C52.4084 97.8284 52.2484 97.1684 51.9284 96.6084C51.6218 96.0484 51.2151 95.6217 50.7084 95.3284C50.2018 95.0351 49.6551 94.8884 49.0684 94.8884C48.4818 94.8884 47.9351 95.0351 47.4284 95.3284C46.9218 95.6084 46.5084 96.0284 46.1884 96.5884C45.8818 97.1351 45.7284 97.7884 45.7284 98.5484C45.7284 99.3084 45.8818 99.9751 46.1884 100.548C46.5084 101.122 46.9218 101.562 47.4284 101.868C47.9484 102.162 48.4951 102.308 49.0684 102.308C49.6551 102.308 50.2018 102.162 50.7084 101.868C51.2151 101.575 51.6218 101.148 51.9284 100.588C52.2484 100.015 52.4084 99.3484 52.4084 98.5884ZM59.9831 89.3084V104.108H57.7031V89.3084H59.9831ZM82.8119 90.2084V104.108H80.5319V94.5884L76.2919 104.108H74.7119L70.4519 94.5884V104.108H68.1719V90.2084H70.6319L75.5119 101.108L80.3719 90.2084H82.8119ZM95.9086 98.3284C95.9086 98.7417 95.8819 99.1151 95.8286 99.4484H87.4086C87.4753 100.328 87.8019 101.035 88.3886 101.568C88.9753 102.102 89.6953 102.368 90.5486 102.368C91.7753 102.368 92.6419 101.855 93.1486 100.828H95.6086C95.2753 101.842 94.6686 102.675 93.7886 103.328C92.9219 103.968 91.8419 104.288 90.5486 104.288C89.4953 104.288 88.5486 104.055 87.7086 103.588C86.8819 103.108 86.2286 102.442 85.7486 101.588C85.2819 100.722 85.0486 99.7217 85.0486 98.5884C85.0486 97.4551 85.2753 96.4617 85.7286 95.6084C86.1953 94.7417 86.8419 94.0751 87.6686 93.6084C88.5086 93.1417 89.4686 92.9084 90.5486 92.9084C91.5886 92.9084 92.5153 93.1351 93.3286 93.5884C94.1419 94.0417 94.7753 94.6817 95.2286 95.5084C95.6819 96.3217 95.9086 97.2617 95.9086 98.3284ZM93.5286 97.6084C93.5153 96.7684 93.2153 96.0951 92.6286 95.5884C92.0419 95.0817 91.3153 94.8284 90.4486 94.8284C89.6619 94.8284 88.9886 95.0817 88.4286 95.5884C87.8686 96.0817 87.5353 96.7551 87.4286 97.6084H93.5286ZM97.3923 98.5484C97.3923 97.4417 97.619 96.4617 98.0723 95.6084C98.539 94.7551 99.1657 94.0951 99.9523 93.6284C100.752 93.1484 101.639 92.9084 102.612 92.9084C103.332 92.9084 104.039 93.0684 104.732 93.3884C105.439 93.6951 105.999 94.1084 106.412 94.6284V89.3084H108.712V104.108H106.412V102.448C106.039 102.982 105.519 103.422 104.852 103.768C104.199 104.115 103.446 104.288 102.592 104.288C101.632 104.288 100.752 104.048 99.9523 103.568C99.1657 103.075 98.539 102.395 98.0723 101.528C97.619 100.648 97.3923 99.6551 97.3923 98.5484ZM106.412 98.5884C106.412 97.8284 106.252 97.1684 105.932 96.6084C105.626 96.0484 105.219 95.6217 104.712 95.3284C104.206 95.0351 103.659 94.8884 103.072 94.8884C102.486 94.8884 101.939 95.0351 101.432 95.3284C100.926 95.6084 100.512 96.0284 100.192 96.5884C99.8857 97.1351 99.7323 97.7884 99.7323 98.5484C99.7323 99.3084 99.8857 99.9751 100.192 100.548C100.512 101.122 100.926 101.562 101.432 101.868C101.952 102.162 102.499 102.308 103.072 102.308C103.659 102.308 104.206 102.162 104.712 101.868C105.219 101.575 105.626 101.148 105.932 100.588C106.252 100.015 106.412 99.3484 106.412 98.5884ZM112.867 91.6284C112.454 91.6284 112.107 91.4884 111.827 91.2084C111.547 90.9284 111.407 90.5817 111.407 90.1684C111.407 89.7551 111.547 89.4084 111.827 89.1284C112.107 88.8484 112.454 88.7084 112.867 88.7084C113.267 88.7084 113.607 88.8484 113.887 89.1284C114.167 89.4084 114.307 89.7551 114.307 90.1684C114.307 90.5817 114.167 90.9284 113.887 91.2084C113.607 91.4884 113.267 91.6284 112.867 91.6284ZM113.987 93.0884V104.108H111.707V93.0884H113.987ZM116.22 98.5484C116.22 97.4417 116.447 96.4617 116.9 95.6084C117.367 94.7551 117.994 94.0951 118.78 93.6284C119.58 93.1484 120.46 92.9084 121.42 92.9084C122.287 92.9084 123.04 93.0817 123.68 93.4284C124.334 93.7617 124.854 94.1817 125.24 94.6884V93.0884H127.54V104.108H125.24V102.468C124.854 102.988 124.327 103.422 123.66 103.768C122.994 104.115 122.234 104.288 121.38 104.288C120.434 104.288 119.567 104.048 118.78 103.568C117.994 103.075 117.367 102.395 116.9 101.528C116.447 100.648 116.22 99.6551 116.22 98.5484ZM125.24 98.5884C125.24 97.8284 125.08 97.1684 124.76 96.6084C124.454 96.0484 124.047 95.6217 123.54 95.3284C123.034 95.0351 122.487 94.8884 121.9 94.8884C121.314 94.8884 120.767 95.0351 120.26 95.3284C119.754 95.6084 119.34 96.0284 119.02 96.5884C118.714 97.1351 118.56 97.7884 118.56 98.5484C118.56 99.3084 118.714 99.9751 119.02 100.548C119.34 101.122 119.754 101.562 120.26 101.868C120.78 102.162 121.327 102.308 121.9 102.308C122.487 102.308 123.034 102.162 123.54 101.868C124.047 101.575 124.454 101.148 124.76 100.588C125.08 100.015 125.24 99.3484 125.24 98.5884Z" fill="black"/>
<g filter="url(#filter0_bd_6786_12797)">
<rect x="65.5586" y="3.97266" width="64" height="67.8193" rx="21.3333" fill="url(#paint0_radial_6786_12797)" fill-opacity="0.7" shape-rendering="crispEdges"/>
<rect x="66.6253" y="5.03932" width="61.8667" height="65.686" rx="20.2667" stroke="white" stroke-width="2.13333" shape-rendering="crispEdges"/>
</g>
<path d="M92.6963 22.365L83.1886 26.1032C79.471 27.5648 77.9969 31.1578 79.5232 35.0399L83.0458 43.9993C84.5678 47.8704 88.0943 49.4974 91.8119 48.0357L101.32 44.2975C105.037 42.8359 106.5 39.2472 104.978 35.3761L101.456 26.4166C99.9294 22.5345 96.4139 20.9033 92.6963 22.365Z" fill="url(#paint1_linear_6786_12797)"/>
<g opacity="0.5" filter="url(#filter1_f_6786_12797)">
<path d="M103.13 35.2254L100.744 29.1508C99.8789 26.9474 97.8826 26.2507 95.3254 27.2551L86.6645 30.6567C84.0654 31.6775 83.1104 33.5334 83.9758 35.7368L86.3617 41.8114C87.241 44.0503 89.1895 44.724 91.7886 43.7031L100.45 40.3015C103.007 39.2971 104.009 37.4643 103.13 35.2254Z" fill="#FF624D"/>
</g>
<g filter="url(#filter2_b_6786_12797)">
<path d="M110.976 32.6713L110.819 32.3259C110.394 31.4308 109.907 30.3944 109.608 29.7976C108.885 28.3844 107.643 27.5992 106.118 27.5835H98.7137C97.1888 27.5992 95.9626 28.3844 95.2394 29.7976C94.925 30.4258 94.3905 31.5564 93.9503 32.4829L93.856 32.6713C93.8089 32.797 93.6831 32.8598 93.5573 32.8598C89.7687 32.8598 86.7031 35.9376 86.7031 39.7064V49.0341C86.7031 52.8028 89.7687 55.8807 93.5573 55.8807H111.29C115.063 55.8807 118.144 52.8028 118.144 49.0341V39.7064C118.144 35.9376 115.063 32.8598 111.29 32.8598C111.149 32.8598 111.039 32.7813 110.976 32.6713Z" fill="#FFAC95" fill-opacity="0.4"/>
<path d="M110.994 32.2461L110.994 32.2461L110.993 32.2434C110.92 32.0907 110.846 31.9338 110.771 31.7755C110.407 31.0076 110.029 30.2082 109.78 29.7115L109.779 29.71C109.025 28.2359 107.72 27.4075 106.12 27.391V27.391H106.118L98.7137 27.391L98.7117 27.391C97.1111 27.4075 95.8219 28.2367 95.0681 29.71L95.0673 29.7115C94.7906 30.2642 94.3447 31.2036 93.9427 32.0502C93.8865 32.1685 93.8312 32.2851 93.7773 32.3985L93.6839 32.5852C93.6809 32.5912 93.6782 32.5974 93.6758 32.6037C93.6643 32.6344 93.6263 32.6673 93.5573 32.6673C89.6623 32.6673 86.5106 35.8314 86.5106 39.7064V49.0341C86.5106 52.9091 89.6623 56.0732 93.5573 56.0732H111.29C115.169 56.0732 118.337 52.9093 118.337 49.0341V39.7064C118.337 35.8311 115.169 32.6673 111.29 32.6673C111.23 32.6673 111.181 32.6376 111.147 32.5823L110.994 32.2461Z" stroke="url(#paint2_linear_6786_12797)" stroke-width="0.384995" stroke-linecap="round" stroke-linejoin="round"/>
</g>
<g filter="url(#filter3_bd_6786_12797)">
<mask id="path-8-inside-1_6786_12797" fill="white">
<path fill-rule="evenodd" clip-rule="evenodd" d="M109.827 38.7015C109.827 39.4866 110.456 40.1147 111.242 40.1147C112.028 40.1147 112.673 39.4866 112.673 38.7015C112.673 37.9163 112.028 37.2725 111.242 37.2725C110.456 37.2725 109.827 37.9163 109.827 38.7015ZM106.777 48.1862C105.661 49.3011 104.12 49.9921 102.423 49.9921C100.772 49.9921 99.2313 49.3483 98.0523 48.1862C96.889 47.0085 96.2444 45.4696 96.2444 43.8207C96.2287 42.1876 96.8732 40.6487 98.0366 39.4709C99.2156 38.2932 100.772 37.6494 102.423 37.6494C104.073 37.6494 105.63 38.2932 106.793 39.4552C107.956 40.633 108.601 42.1876 108.601 43.8207C108.585 45.5324 107.893 47.0713 106.777 48.1862ZM102.423 40.005C101.401 40.005 100.442 40.3976 99.7029 41.1357C98.9798 41.858 98.5867 42.8159 98.6025 43.8052V43.8209C98.6025 44.8416 98.9955 45.7995 99.7186 46.5218C100.442 47.2442 101.401 47.6368 102.423 47.6368C104.529 47.6368 106.227 45.9251 106.243 43.8209C106.243 42.8002 105.85 41.8423 105.127 41.1199C104.403 40.3976 103.444 40.005 102.423 40.005Z"/>
</mask>
<path fill-rule="evenodd" clip-rule="evenodd" d="M109.827 38.7015C109.827 39.4866 110.456 40.1147 111.242 40.1147C112.028 40.1147 112.673 39.4866 112.673 38.7015C112.673 37.9163 112.028 37.2725 111.242 37.2725C110.456 37.2725 109.827 37.9163 109.827 38.7015ZM106.777 48.1862C105.661 49.3011 104.12 49.9921 102.423 49.9921C100.772 49.9921 99.2313 49.3483 98.0523 48.1862C96.889 47.0085 96.2444 45.4696 96.2444 43.8207C96.2287 42.1876 96.8732 40.6487 98.0366 39.4709C99.2156 38.2932 100.772 37.6494 102.423 37.6494C104.073 37.6494 105.63 38.2932 106.793 39.4552C107.956 40.633 108.601 42.1876 108.601 43.8207C108.585 45.5324 107.893 47.0713 106.777 48.1862ZM102.423 40.005C101.401 40.005 100.442 40.3976 99.7029 41.1357C98.9798 41.858 98.5867 42.8159 98.6025 43.8052V43.8209C98.6025 44.8416 98.9955 45.7995 99.7186 46.5218C100.442 47.2442 101.401 47.6368 102.423 47.6368C104.529 47.6368 106.227 45.9251 106.243 43.8209C106.243 42.8002 105.85 41.8423 105.127 41.1199C104.403 40.3976 103.444 40.005 102.423 40.005Z" fill="url(#paint3_linear_6786_12797)"/>
<path d="M106.777 48.1862L106.832 48.2407L106.777 48.1862ZM98.0523 48.1862L97.9975 48.2403L97.9982 48.2411L98.0523 48.1862ZM96.2444 43.8207H96.3214L96.3214 43.82L96.2444 43.8207ZM98.0366 39.4709L97.9822 39.4165L97.9818 39.4168L98.0366 39.4709ZM106.793 39.4552L106.848 39.4011L106.847 39.4008L106.793 39.4552ZM108.601 43.8207L108.678 43.8214V43.8207H108.601ZM99.7029 41.1357L99.6485 41.0812L99.7029 41.1357ZM98.6025 43.8052H98.6795L98.6795 43.804L98.6025 43.8052ZM99.7186 46.5218L99.773 46.4674L99.7186 46.5218ZM106.243 43.8209L106.32 43.8215V43.8209H106.243ZM111.242 40.0377C110.498 40.0377 109.904 39.444 109.904 38.7015H109.75C109.75 39.5292 110.413 40.1917 111.242 40.1917V40.0377ZM112.596 38.7015C112.596 39.4429 111.987 40.0377 111.242 40.0377V40.1917C112.069 40.1917 112.75 39.5303 112.75 38.7015H112.596ZM111.242 37.3495C111.986 37.3495 112.596 37.9589 112.596 38.7015H112.75C112.75 37.8737 112.07 37.1955 111.242 37.1955V37.3495ZM109.904 38.7015C109.904 37.9578 110.499 37.3495 111.242 37.3495V37.1955C110.412 37.1955 109.75 37.8748 109.75 38.7015H109.904ZM102.423 50.0691C104.142 50.0691 105.702 49.3694 106.832 48.2407L106.723 48.1317C105.62 49.2329 104.099 49.9151 102.423 49.9151V50.0691ZM97.9982 48.2411C99.1914 49.417 100.751 50.0691 102.423 50.0691V49.9151C100.793 49.9151 99.2713 49.2795 98.1063 48.1314L97.9982 48.2411ZM96.1674 43.8207C96.1674 45.4903 96.8203 47.0485 97.9975 48.2403L98.1071 48.1321C96.9577 46.9685 96.3214 45.4489 96.3214 43.8207H96.1674ZM97.9818 39.4168C96.8046 40.6086 96.1515 42.167 96.1674 43.8215L96.3214 43.82C96.3059 42.2082 96.9419 40.6888 98.0914 39.5251L97.9818 39.4168ZM102.423 37.5724C100.751 37.5724 99.1756 38.2244 97.9822 39.4165L98.091 39.5254C99.2557 38.362 100.792 37.7264 102.423 37.7264V37.5724ZM106.847 39.4008C105.67 38.2243 104.094 37.5724 102.423 37.5724V37.7264C104.053 37.7264 105.59 38.3621 106.739 39.5097L106.847 39.4008ZM108.678 43.8207C108.678 42.167 108.025 40.593 106.848 39.4011L106.738 39.5094C107.888 40.6729 108.524 42.2082 108.524 43.8207H108.678ZM106.832 48.2407C107.962 47.1119 108.662 45.5538 108.678 43.8214L108.524 43.82C108.508 45.5109 107.825 47.0307 106.723 48.1317L106.832 48.2407ZM99.7573 41.1901C100.482 40.4665 101.421 40.082 102.423 40.082V39.928C101.38 39.928 100.402 40.3287 99.6485 41.0812L99.7573 41.1901ZM98.6795 43.804C98.6641 42.8361 99.0485 41.8982 99.7573 41.1901L99.6485 41.0812C98.911 41.8178 98.5094 42.7956 98.5255 43.8064L98.6795 43.804ZM98.6795 43.8209V43.8052H98.5255V43.8209H98.6795ZM99.773 46.4674C99.0645 45.7596 98.6795 44.8214 98.6795 43.8209H98.5255C98.5255 44.8618 98.9265 45.8394 99.6642 46.5763L99.773 46.4674ZM102.423 47.5598C101.421 47.5598 100.482 47.1751 99.773 46.4674L99.6642 46.5763C100.402 47.3132 101.381 47.7138 102.423 47.7138V47.5598ZM106.166 43.8203C106.15 45.8829 104.486 47.5598 102.423 47.5598V47.7138C104.572 47.7138 106.304 45.9673 106.32 43.8215L106.166 43.8203ZM105.072 41.1744C105.781 41.8822 106.166 42.8204 106.166 43.8209H106.32C106.32 42.78 105.919 41.8024 105.181 41.0655L105.072 41.1744ZM102.423 40.082C103.424 40.082 104.364 40.4667 105.072 41.1744L105.181 41.0655C104.443 40.3285 103.465 39.928 102.423 39.928V40.082Z" fill="url(#paint4_linear_6786_12797)" fill-opacity="0.5" mask="url(#path-8-inside-1_6786_12797)"/>
</g>
<path d="M115.323 19.8838H111.756C111.675 19.8838 111.602 19.9349 111.575 20.0115L109.787 25.0165C109.742 25.1418 109.835 25.2737 109.968 25.2737H112.308C112.442 25.2737 112.535 25.4065 112.489 25.532L111.366 28.6211C111.294 28.8182 111.544 28.9715 111.687 28.8183L116.13 24.0576C116.245 23.9345 116.158 23.7337 115.99 23.7337H113.693C113.543 23.7337 113.451 23.5705 113.528 23.4422L115.488 20.1753C115.565 20.047 115.472 19.8838 115.323 19.8838Z" fill="url(#paint5_linear_6786_12797)"/>
<defs>
<filter id="filter0_bd_6786_12797" x="23.4253" y="-38.1607" width="148.267" height="152.086" filterUnits="userSpaceOnUse" color-interpolation-filters="sRGB">
<feFlood flood-opacity="0" result="BackgroundImageFix"/>
<feGaussianBlur in="BackgroundImageFix" stdDeviation="21.0667"/>
<feComposite in2="SourceAlpha" operator="in" result="effect1_backgroundBlur_6786_12797"/>
<feColorMatrix in="SourceAlpha" type="matrix" values="0 0 0 0 0 0 0 0 0 0 0 0 0 0 0 0 0 0 127 0" result="hardAlpha"/>
<feOffset dy="6.4"/>
<feGaussianBlur stdDeviation="5.06667"/>
<feComposite in2="hardAlpha" operator="out"/>
<feColorMatrix type="matrix" values="0 0 0 0 0.0867708 0 0 0 0 0.115317 0 0 0 0 0.141667 0 0 0 0.08 0"/>
<feBlend mode="normal" in2="effect1_backgroundBlur_6786_12797" result="effect2_dropShadow_6786_12797"/>
<feBlend mode="normal" in="SourceGraphic" in2="effect2_dropShadow_6786_12797" result="shape"/>
</filter>
<filter id="filter1_f_6786_12797" x="77.1191" y="20.2603" width="32.8691" height="30.4526" filterUnits="userSpaceOnUse" color-interpolation-filters="sRGB">
<feFlood flood-opacity="0" result="BackgroundImageFix"/>
<feBlend mode="normal" in="SourceGraphic" in2="BackgroundImageFix" result="shape"/>
<feGaussianBlur stdDeviation="3.27246" result="effect1_foregroundBlur_6786_12797"/>
</filter>
<filter id="filter2_b_6786_12797" x="80.5434" y="21.4233" width="43.7608" height="40.6172" filterUnits="userSpaceOnUse" color-interpolation-filters="sRGB">
<feFlood flood-opacity="0" result="BackgroundImageFix"/>
<feGaussianBlur in="BackgroundImageFix" stdDeviation="2.88747"/>
<feComposite in2="SourceAlpha" operator="in" result="effect1_backgroundBlur_6786_12797"/>
<feBlend mode="normal" in="SourceGraphic" in2="effect1_backgroundBlur_6786_12797" result="shape"/>
</filter>
<filter id="filter3_bd_6786_12797" x="90.4692" y="31.4975" width="27.9776" height="24.2696" filterUnits="userSpaceOnUse" color-interpolation-filters="sRGB">
<feFlood flood-opacity="0" result="BackgroundImageFix"/>
<feGaussianBlur in="BackgroundImageFix" stdDeviation="2.88747"/>
<feComposite in2="SourceAlpha" operator="in" result="effect1_backgroundBlur_6786_12797"/>
<feColorMatrix in="SourceAlpha" type="matrix" values="0 0 0 0 0 0 0 0 0 0 0 0 0 0 0 0 0 0 127 0" result="hardAlpha"/>
<feOffset dx="1.92498" dy="1.92498"/>
<feGaussianBlur stdDeviation="1.92498"/>
<feColorMatrix type="matrix" values="0 0 0 0 1 0 0 0 0 0.447059 0 0 0 0 0.368627 0 0 0 0.5 0"/>
<feBlend mode="normal" in2="effect1_backgroundBlur_6786_12797" result="effect2_dropShadow_6786_12797"/>
<feBlend mode="normal" in="SourceGraphic" in2="effect2_dropShadow_6786_12797" result="shape"/>
</filter>
<radialGradient id="paint0_radial_6786_12797" cx="0" cy="0" r="1" gradientUnits="userSpaceOnUse" gradientTransform="translate(97.5586 37.8823) rotate(90) scale(33.9097 32)">
<stop stop-color="white"/>
<stop offset="1" stop-color="white"/>
</radialGradient>
<linearGradient id="paint1_linear_6786_12797" x1="94.4407" y1="36.0363" x2="78.853" y2="52.984" gradientUnits="userSpaceOnUse">
<stop stop-color="#FFA78F"/>
<stop offset="1" stop-color="#F23E2C"/>
</linearGradient>
<linearGradient id="paint2_linear_6786_12797" x1="91.7081" y1="30.8802" x2="116.744" y2="57.2713" gradientUnits="userSpaceOnUse">
<stop stop-color="white" stop-opacity="0.25"/>
<stop offset="1" stop-color="white" stop-opacity="0.15"/>
</linearGradient>
<linearGradient id="paint3_linear_6786_12797" x1="111.508" y1="39.5694" x2="93.2211" y2="40.3394" gradientUnits="userSpaceOnUse">
<stop stop-color="white"/>
<stop offset="1" stop-color="white" stop-opacity="0.2"/>
</linearGradient>
<linearGradient id="paint4_linear_6786_12797" x1="111.969" y1="43.9013" x2="96.0151" y2="44.7597" gradientUnits="userSpaceOnUse">
<stop stop-color="white"/>
<stop offset="1" stop-color="white" stop-opacity="0"/>
</linearGradient>
<linearGradient id="paint5_linear_6786_12797" x1="113.56" y1="25.3408" x2="107" y2="27.5734" gradientUnits="userSpaceOnUse">
<stop stop-color="#FFA78F"/>
<stop offset="1" stop-color="#F23E2C"/>
</linearGradient>
</defs>
</svg>
