<svg width="103" height="105" viewBox="0 0 103 105" fill="none" xmlns="http://www.w3.org/2000/svg">
<path d="M6.13295 93.1097C6.48761 93.1657 6.80961 93.3104 7.09895 93.5437C7.39761 93.7771 7.63095 94.0664 7.79895 94.4117C7.97628 94.7571 8.06495 95.1257 8.06495 95.5177C8.06495 96.0124 7.93895 96.4604 7.68695 96.8617C7.43495 97.2537 7.06628 97.5664 6.58095 97.7997C6.10495 98.0237 5.54028 98.1357 4.88695 98.1357H1.24695V88.3777H4.74695C5.40961 88.3777 5.97428 88.4897 6.44095 88.7137C6.90761 88.9284 7.25761 89.2224 7.49095 89.5957C7.72428 89.9691 7.84095 90.3891 7.84095 90.8557C7.84095 91.4344 7.68228 91.9151 7.36495 92.2977C7.05695 92.6711 6.64628 92.9417 6.13295 93.1097ZM2.52095 92.5917H4.66295C5.26028 92.5917 5.72228 92.4517 6.04895 92.1717C6.37561 91.8917 6.53895 91.5044 6.53895 91.0097C6.53895 90.5151 6.37561 90.1277 6.04895 89.8477C5.72228 89.5677 5.25095 89.4277 4.63495 89.4277H2.52095V92.5917ZM4.77495 97.0857C5.40961 97.0857 5.90428 96.9364 6.25895 96.6377C6.61361 96.3391 6.79095 95.9237 6.79095 95.3917C6.79095 94.8504 6.60428 94.4257 6.23095 94.1177C5.85761 93.8004 5.35828 93.6417 4.73295 93.6417H2.52095V97.0857H4.77495ZM16.6369 90.4637V98.1357H15.3629V97.0017C15.1202 97.3937 14.7795 97.7017 14.3409 97.9257C13.9115 98.1404 13.4355 98.2477 12.9129 98.2477C12.3155 98.2477 11.7789 98.1264 11.3029 97.8837C10.8269 97.6317 10.4489 97.2584 10.1689 96.7637C9.89822 96.2691 9.76288 95.6671 9.76288 94.9577V90.4637H11.0229V94.7897C11.0229 95.5457 11.2142 96.1291 11.5969 96.5397C11.9795 96.9411 12.5022 97.1417 13.1649 97.1417C13.8462 97.1417 14.3829 96.9317 14.7749 96.5117C15.1669 96.0917 15.3629 95.4804 15.3629 94.6777V90.4637H16.6369ZM21.504 98.2617C20.916 98.2617 20.3886 98.1637 19.922 97.9677C19.4553 97.7624 19.0866 97.4824 18.816 97.1277C18.5453 96.7637 18.396 96.3484 18.368 95.8817H19.684C19.7213 96.2644 19.8986 96.5771 20.216 96.8197C20.5426 97.0624 20.9673 97.1837 21.49 97.1837C21.9753 97.1837 22.358 97.0764 22.638 96.8617C22.918 96.6471 23.058 96.3764 23.058 96.0497C23.058 95.7137 22.9086 95.4664 22.61 95.3077C22.3113 95.1397 21.8493 94.9764 21.224 94.8177C20.6546 94.6684 20.188 94.5191 19.824 94.3697C19.4693 94.2111 19.1613 93.9824 18.9 93.6837C18.648 93.3757 18.522 92.9744 18.522 92.4797C18.522 92.0877 18.6386 91.7284 18.872 91.4017C19.1053 91.0751 19.4366 90.8184 19.866 90.6317C20.2953 90.4357 20.7853 90.3377 21.336 90.3377C22.1853 90.3377 22.8713 90.5524 23.394 90.9817C23.9166 91.4111 24.1966 91.9991 24.234 92.7457H22.96C22.932 92.3444 22.7686 92.0224 22.47 91.7797C22.1806 91.5371 21.7886 91.4157 21.294 91.4157C20.8366 91.4157 20.4726 91.5137 20.202 91.7097C19.9313 91.9057 19.796 92.1624 19.796 92.4797C19.796 92.7317 19.8753 92.9417 20.034 93.1097C20.202 93.2684 20.4073 93.3991 20.65 93.5017C20.902 93.5951 21.2473 93.7024 21.686 93.8237C22.2366 93.9731 22.6846 94.1224 23.03 94.2717C23.3753 94.4117 23.6693 94.6264 23.912 94.9157C24.164 95.2051 24.2946 95.5831 24.304 96.0497C24.304 96.4697 24.1873 96.8477 23.954 97.1837C23.7206 97.5197 23.3893 97.7857 22.96 97.9817C22.54 98.1684 22.0546 98.2617 21.504 98.2617ZM26.7604 89.2177C26.5177 89.2177 26.3124 89.1337 26.1444 88.9657C25.9764 88.7977 25.8924 88.5924 25.8924 88.3497C25.8924 88.1071 25.9764 87.9017 26.1444 87.7337C26.3124 87.5657 26.5177 87.4817 26.7604 87.4817C26.9937 87.4817 27.1897 87.5657 27.3484 87.7337C27.5164 87.9017 27.6004 88.1071 27.6004 88.3497C27.6004 88.5924 27.5164 88.7977 27.3484 88.9657C27.1897 89.1337 26.9937 89.2177 26.7604 89.2177ZM27.3764 90.4637V98.1357H26.1024V90.4637H27.3764ZM33.2857 90.3237C34.2191 90.3237 34.9751 90.6084 35.5537 91.1777C36.1324 91.7377 36.4217 92.5497 36.4217 93.6137V98.1357H35.1617V93.7957C35.1617 93.0304 34.9704 92.4471 34.5877 92.0457C34.2051 91.6351 33.6824 91.4297 33.0197 91.4297C32.3477 91.4297 31.8111 91.6397 31.4097 92.0597C31.0177 92.4797 30.8217 93.0911 30.8217 93.8937V98.1357H29.5477V90.4637H30.8217V91.5557C31.0737 91.1637 31.4144 90.8604 31.8437 90.6457C32.2824 90.4311 32.7631 90.3237 33.2857 90.3237ZM45.5028 94.0057C45.5028 94.2484 45.4888 94.5051 45.4608 94.7757H39.3288C39.3755 95.5317 39.6321 96.1244 40.0988 96.5537C40.5748 96.9737 41.1488 97.1837 41.8208 97.1837C42.3715 97.1837 42.8288 97.0577 43.1928 96.8057C43.5661 96.5444 43.8275 96.1991 43.9768 95.7697H45.3488C45.1435 96.5071 44.7328 97.1091 44.1168 97.5757C43.5008 98.0331 42.7355 98.2617 41.8208 98.2617C41.0928 98.2617 40.4395 98.0984 39.8608 97.7717C39.2915 97.4451 38.8435 96.9831 38.5168 96.3857C38.1901 95.7791 38.0268 95.0791 38.0268 94.2857C38.0268 93.4924 38.1855 92.7971 38.5028 92.1997C38.8201 91.6024 39.2635 91.1451 39.8328 90.8277C40.4115 90.5011 41.0741 90.3377 41.8208 90.3377C42.5488 90.3377 43.1928 90.4964 43.7528 90.8137C44.3128 91.1311 44.7421 91.5697 45.0408 92.1297C45.3488 92.6804 45.5028 93.3057 45.5028 94.0057ZM44.1868 93.7397C44.1868 93.2544 44.0795 92.8391 43.8648 92.4937C43.6501 92.1391 43.3561 91.8731 42.9828 91.6957C42.6188 91.5091 42.2128 91.4157 41.7648 91.4157C41.1208 91.4157 40.5701 91.6211 40.1128 92.0317C39.6648 92.4424 39.4081 93.0117 39.3428 93.7397H44.1868ZM49.9004 98.2617C49.3124 98.2617 48.7851 98.1637 48.3184 97.9677C47.8518 97.7624 47.4831 97.4824 47.2124 97.1277C46.9418 96.7637 46.7924 96.3484 46.7644 95.8817H48.0804C48.1178 96.2644 48.2951 96.5771 48.6124 96.8197C48.9391 97.0624 49.3638 97.1837 49.8864 97.1837C50.3718 97.1837 50.7544 97.0764 51.0344 96.8617C51.3144 96.6471 51.4544 96.3764 51.4544 96.0497C51.4544 95.7137 51.3051 95.4664 51.0064 95.3077C50.7078 95.1397 50.2458 94.9764 49.6204 94.8177C49.0511 94.6684 48.5844 94.5191 48.2204 94.3697C47.8658 94.2111 47.5578 93.9824 47.2964 93.6837C47.0444 93.3757 46.9184 92.9744 46.9184 92.4797C46.9184 92.0877 47.0351 91.7284 47.2684 91.4017C47.5018 91.0751 47.8331 90.8184 48.2624 90.6317C48.6918 90.4357 49.1818 90.3377 49.7324 90.3377C50.5818 90.3377 51.2678 90.5524 51.7904 90.9817C52.3131 91.4111 52.5931 91.9991 52.6304 92.7457H51.3564C51.3284 92.3444 51.1651 92.0224 50.8664 91.7797C50.5771 91.5371 50.1851 91.4157 49.6904 91.4157C49.2331 91.4157 48.8691 91.5137 48.5984 91.7097C48.3278 91.9057 48.1924 92.1624 48.1924 92.4797C48.1924 92.7317 48.2718 92.9417 48.4304 93.1097C48.5984 93.2684 48.8038 93.3991 49.0464 93.5017C49.2984 93.5951 49.6438 93.7024 50.0824 93.8237C50.6331 93.9731 51.0811 94.1224 51.4264 94.2717C51.7718 94.4117 52.0658 94.6264 52.3084 94.9157C52.5604 95.2051 52.6911 95.5831 52.7004 96.0497C52.7004 96.4697 52.5838 96.8477 52.3504 97.1837C52.1171 97.5197 51.7858 97.7857 51.3564 97.9817C50.9364 98.1684 50.4511 98.2617 49.9004 98.2617ZM57.2149 98.2617C56.6269 98.2617 56.0996 98.1637 55.6329 97.9677C55.1662 97.7624 54.7976 97.4824 54.5269 97.1277C54.2562 96.7637 54.1069 96.3484 54.0789 95.8817H55.3949C55.4322 96.2644 55.6096 96.5771 55.9269 96.8197C56.2536 97.0624 56.6782 97.1837 57.2009 97.1837C57.6862 97.1837 58.0689 97.0764 58.3489 96.8617C58.6289 96.6471 58.7689 96.3764 58.7689 96.0497C58.7689 95.7137 58.6196 95.4664 58.3209 95.3077C58.0222 95.1397 57.5602 94.9764 56.9349 94.8177C56.3656 94.6684 55.8989 94.5191 55.5349 94.3697C55.1802 94.2111 54.8722 93.9824 54.6109 93.6837C54.3589 93.3757 54.2329 92.9744 54.2329 92.4797C54.2329 92.0877 54.3496 91.7284 54.5829 91.4017C54.8162 91.0751 55.1476 90.8184 55.5769 90.6317C56.0062 90.4357 56.4962 90.3377 57.0469 90.3377C57.8962 90.3377 58.5822 90.5524 59.1049 90.9817C59.6276 91.4111 59.9076 91.9991 59.9449 92.7457H58.6709C58.6429 92.3444 58.4796 92.0224 58.1809 91.7797C57.8916 91.5371 57.4996 91.4157 57.0049 91.4157C56.5476 91.4157 56.1836 91.5137 55.9129 91.7097C55.6422 91.9057 55.5069 92.1624 55.5069 92.4797C55.5069 92.7317 55.5862 92.9417 55.7449 93.1097C55.9129 93.2684 56.1182 93.3991 56.3609 93.5017C56.6129 93.5951 56.9582 93.7024 57.3969 93.8237C57.9476 93.9731 58.3956 94.1224 58.7409 94.2717C59.0862 94.4117 59.3802 94.6264 59.6229 94.9157C59.8749 95.2051 60.0056 95.5831 60.0149 96.0497C60.0149 96.4697 59.8982 96.8477 59.6649 97.1837C59.4316 97.5197 59.1002 97.7857 58.6709 97.9817C58.2509 98.1684 57.7656 98.2617 57.2149 98.2617ZM66.8198 88.3777V98.1357H65.5458V88.3777H66.8198ZM68.5151 94.2717C68.5151 93.4877 68.6738 92.8017 68.9911 92.2137C69.3084 91.6164 69.7424 91.1544 70.2931 90.8277C70.8531 90.5011 71.4784 90.3377 72.1691 90.3377C72.7664 90.3377 73.3218 90.4777 73.8351 90.7577C74.3484 91.0284 74.7404 91.3877 75.0111 91.8357V87.7757H76.2991V98.1357H75.0111V96.6937C74.7591 97.1511 74.3858 97.5291 73.8911 97.8277C73.3964 98.1171 72.8178 98.2617 72.1551 98.2617C71.4738 98.2617 70.8531 98.0937 70.2931 97.7577C69.7424 97.4217 69.3084 96.9504 68.9911 96.3437C68.6738 95.7371 68.5151 95.0464 68.5151 94.2717ZM75.0111 94.2857C75.0111 93.7071 74.8944 93.2031 74.6611 92.7737C74.4278 92.3444 74.1104 92.0177 73.7091 91.7937C73.3171 91.5604 72.8831 91.4437 72.4071 91.4437C71.9311 91.4437 71.4971 91.5557 71.1051 91.7797C70.7131 92.0037 70.4004 92.3304 70.1671 92.7597C69.9338 93.1891 69.8171 93.6931 69.8171 94.2717C69.8171 94.8597 69.9338 95.3731 70.1671 95.8117C70.4004 96.2411 70.7131 96.5724 71.1051 96.8057C71.4971 97.0297 71.9311 97.1417 72.4071 97.1417C72.8831 97.1417 73.3171 97.0297 73.7091 96.8057C74.1104 96.5724 74.4278 96.2411 74.6611 95.8117C74.8944 95.3731 75.0111 94.8644 75.0111 94.2857ZM85.452 94.0057C85.452 94.2484 85.438 94.5051 85.41 94.7757H79.278C79.3247 95.5317 79.5814 96.1244 80.048 96.5537C80.524 96.9737 81.098 97.1837 81.77 97.1837C82.3207 97.1837 82.778 97.0577 83.142 96.8057C83.5154 96.5444 83.7767 96.1991 83.926 95.7697H85.298C85.0927 96.5071 84.682 97.1091 84.066 97.5757C83.45 98.0331 82.6847 98.2617 81.77 98.2617C81.042 98.2617 80.3887 98.0984 79.81 97.7717C79.2407 97.4451 78.7927 96.9831 78.466 96.3857C78.1394 95.7791 77.976 95.0791 77.976 94.2857C77.976 93.4924 78.1347 92.7971 78.452 92.1997C78.7694 91.6024 79.2127 91.1451 79.782 90.8277C80.3607 90.5011 81.0234 90.3377 81.77 90.3377C82.498 90.3377 83.142 90.4964 83.702 90.8137C84.262 91.1311 84.6914 91.5697 84.99 92.1297C85.298 92.6804 85.452 93.3057 85.452 94.0057ZM84.136 93.7397C84.136 93.2544 84.0287 92.8391 83.814 92.4937C83.5994 92.1391 83.3054 91.8731 82.932 91.6957C82.568 91.5091 82.162 91.4157 81.714 91.4157C81.07 91.4157 80.5194 91.6211 80.062 92.0317C79.614 92.4424 79.3574 93.0117 79.292 93.7397H84.136ZM86.6577 94.2717C86.6577 93.4877 86.8163 92.8017 87.1337 92.2137C87.451 91.6164 87.885 91.1544 88.4357 90.8277C88.9957 90.5011 89.6163 90.3377 90.2977 90.3377C90.9697 90.3377 91.553 90.4824 92.0477 90.7717C92.5423 91.0611 92.911 91.4251 93.1537 91.8637V90.4637H94.4417V98.1357H93.1537V96.7077C92.9017 97.1557 92.5237 97.5291 92.0197 97.8277C91.525 98.1171 90.9463 98.2617 90.2837 98.2617C89.6023 98.2617 88.9863 98.0937 88.4357 97.7577C87.885 97.4217 87.451 96.9504 87.1337 96.3437C86.8163 95.7371 86.6577 95.0464 86.6577 94.2717ZM93.1537 94.2857C93.1537 93.7071 93.037 93.2031 92.8037 92.7737C92.5703 92.3444 92.253 92.0177 91.8517 91.7937C91.4597 91.5604 91.0257 91.4437 90.5497 91.4437C90.0737 91.4437 89.6397 91.5557 89.2477 91.7797C88.8557 92.0037 88.543 92.3304 88.3097 92.7597C88.0763 93.1891 87.9597 93.6931 87.9597 94.2717C87.9597 94.8597 88.0763 95.3731 88.3097 95.8117C88.543 96.2411 88.8557 96.5724 89.2477 96.8057C89.6397 97.0297 90.0737 97.1417 90.5497 97.1417C91.0257 97.1417 91.4597 97.0297 91.8517 96.8057C92.253 96.5724 92.5703 96.2411 92.8037 95.8117C93.037 95.3731 93.1537 94.8644 93.1537 94.2857ZM99.3106 98.2617C98.7226 98.2617 98.1953 98.1637 97.7286 97.9677C97.2619 97.7624 96.8933 97.4824 96.6226 97.1277C96.3519 96.7637 96.2026 96.3484 96.1746 95.8817H97.4906C97.5279 96.2644 97.7053 96.5771 98.0226 96.8197C98.3493 97.0624 98.7739 97.1837 99.2966 97.1837C99.7819 97.1837 100.165 97.0764 100.445 96.8617C100.725 96.6471 100.865 96.3764 100.865 96.0497C100.865 95.7137 100.715 95.4664 100.417 95.3077C100.118 95.1397 99.6559 94.9764 99.0306 94.8177C98.4613 94.6684 97.9946 94.5191 97.6306 94.3697C97.2759 94.2111 96.9679 93.9824 96.7066 93.6837C96.4546 93.3757 96.3286 92.9744 96.3286 92.4797C96.3286 92.0877 96.4453 91.7284 96.6786 91.4017C96.9119 91.0751 97.2433 90.8184 97.6726 90.6317C98.1019 90.4357 98.5919 90.3377 99.1426 90.3377C99.9919 90.3377 100.678 90.5524 101.201 90.9817C101.723 91.4111 102.003 91.9991 102.041 92.7457H100.767C100.739 92.3444 100.575 92.0224 100.277 91.7797C99.9873 91.5371 99.5953 91.4157 99.1006 91.4157C98.6433 91.4157 98.2793 91.5137 98.0086 91.7097C97.7379 91.9057 97.6026 92.1624 97.6026 92.4797C97.6026 92.7317 97.6819 92.9417 97.8406 93.1097C98.0086 93.2684 98.2139 93.3991 98.4566 93.5017C98.7086 93.5951 99.0539 93.7024 99.4926 93.8237C100.043 93.9731 100.491 94.1224 100.837 94.2717C101.182 94.4117 101.476 94.6264 101.719 94.9157C101.971 95.2051 102.101 95.5831 102.111 96.0497C102.111 96.4697 101.994 96.8477 101.761 97.1837C101.527 97.5197 101.196 97.7857 100.767 97.9817C100.347 98.1684 99.8613 98.2617 99.3106 98.2617Z" fill="black"/>
<g filter="url(#filter0_bd_6710_12552)">
<rect x="18" y="5" width="64" height="67.8193" rx="20" fill="#7243D5"/>
<rect x="17.5" y="4.5" width="65" height="68.8193" rx="20.5" stroke="#EAEAEA"/>
</g>
<path d="M49.9999 27.8494C44.763 27.8494 40.494 32.1422 40.494 37.4206C40.494 39.9916 41.4974 42.4081 43.3143 44.2309C44.3771 45.2819 44.9887 46.7663 44.9887 48.2981V49.0284C44.9887 49.26 45.1787 49.4619 45.4162 49.4619H54.6134L54.6312 49.4559H54.7202L54.8034 49.4025C54.9399 49.3253 55.0171 49.1828 55.0171 49.0284V47.7459C55.0171 46.4991 55.5337 45.3056 56.4421 44.4625C58.3955 42.6516 59.5118 40.0747 59.5118 37.3969C59.494 32.1362 55.2249 27.8494 49.9999 27.8494ZM49.1568 35.8709C49.3943 36.1084 49.709 36.2391 50.0415 36.2391C51.3359 36.2688 52.3749 37.3494 52.3749 38.6497C52.3749 39.2969 52.1255 39.9025 51.6624 40.3597C51.3655 40.6566 51.0093 40.8584 50.6174 40.9713V41.6006C50.6174 41.9272 50.3562 42.1825 50.0355 42.1825C49.709 42.1825 49.4537 41.9272 49.4537 41.6006V41.0128C48.3612 40.7812 47.5418 39.8075 47.5418 38.6497C47.5418 38.3291 47.803 38.0678 48.1237 38.0678C48.4502 38.0678 48.7055 38.3291 48.7055 38.6497C48.7055 39.3384 49.2637 39.8966 49.9584 39.8966C50.2909 39.8966 50.6055 39.7659 50.8371 39.5284C51.0687 39.2969 51.2052 38.9822 51.2052 38.6497C51.2052 37.9728 50.6768 37.4147 50.0237 37.4028C49.3884 37.4028 48.7827 37.1534 48.3255 36.6963C47.8684 36.2331 47.619 35.6275 47.619 34.9862C47.619 34.3391 47.8684 33.7334 48.3255 33.2763C48.6402 32.9616 49.0262 32.7478 49.4477 32.6469V32.0294C49.4477 31.7087 49.709 31.4534 50.0296 31.4534C50.3502 31.4534 50.6115 31.7088 50.6115 32.0353V32.6469C51.0449 32.7537 51.4249 32.9734 51.7277 33.2822C52.173 33.7156 52.4402 34.3212 52.4402 34.9862C52.4402 35.3069 52.179 35.5681 51.8584 35.5681C51.5377 35.5681 51.2765 35.3069 51.2765 34.9862C51.2765 34.6537 51.1459 34.3391 50.9084 34.1075C50.6768 33.87 50.3621 33.7394 50.0296 33.7394C49.6971 33.7394 49.3824 33.87 49.1449 34.1016C48.9134 34.3391 48.7827 34.6537 48.7827 34.9862C48.7946 35.3247 48.9193 35.6394 49.1568 35.8709ZM49.5309 25.6228C50.0474 25.6228 50.463 25.2072 50.463 24.6906V20.9322C50.463 20.4156 50.0474 20 49.5309 20C49.0143 20 48.5987 20.4156 48.5987 20.9322V24.6906C48.5987 25.2072 49.0202 25.6228 49.5309 25.6228ZM43.3084 26.4006C43.4627 26.7272 43.7952 26.9409 44.1515 26.9409C44.288 26.9409 44.4187 26.9113 44.5434 26.8519C45.0065 26.6322 45.2143 26.08 44.9946 25.6109L43.4093 22.2088C43.2549 21.8822 42.9224 21.6684 42.5662 21.6684C42.4296 21.6684 42.299 21.6981 42.1743 21.7575C41.7112 21.9772 41.5034 22.5294 41.723 22.9984L43.3084 26.4006ZM40.7612 29.3931C40.7374 29.1438 40.6246 28.9181 40.4346 28.7578L37.5549 26.3413C37.3887 26.1988 37.1749 26.1216 36.9552 26.1216C36.6762 26.1216 36.4209 26.2403 36.2427 26.4541C36.0824 26.6441 36.0052 26.8875 36.029 27.1369C36.0527 27.3863 36.1655 27.6119 36.3555 27.7722L39.2352 30.1888C39.4015 30.3313 39.6152 30.4084 39.8349 30.4084C40.114 30.4084 40.3693 30.2897 40.5474 30.0759C40.7077 29.8859 40.7849 29.6425 40.7612 29.3931ZM37.6262 33.5434L33.9924 32.5697C33.9152 32.5459 33.8321 32.54 33.749 32.54C33.3274 32.54 32.9593 32.825 32.8524 33.2288C32.7871 33.4663 32.8227 33.7216 32.9474 33.9353C33.0721 34.1491 33.274 34.3034 33.5115 34.3688L37.1452 35.3425C37.2224 35.3663 37.3055 35.3722 37.3887 35.3722C37.8102 35.3722 38.1784 35.0872 38.2912 34.6834C38.3565 34.4459 38.3209 34.1906 38.1962 33.9769C38.0655 33.7631 37.8696 33.6087 37.6262 33.5434ZM55.4505 26.8519C55.5752 26.9113 55.7059 26.9409 55.8424 26.9409C56.2046 26.9409 56.5371 26.7272 56.6855 26.4006L58.2768 22.9925C58.4965 22.5234 58.2887 21.9713 57.8255 21.7516C57.7009 21.6922 57.5702 21.6625 57.4337 21.6625C57.0715 21.6625 56.739 21.8763 56.5905 22.2028L54.9993 25.6109C54.7855 26.08 54.9874 26.6381 55.4505 26.8519ZM63.9768 27.1428C64.0005 26.8934 63.9234 26.65 63.763 26.46C63.5849 26.2463 63.3237 26.1275 63.0505 26.1275C62.8309 26.1275 62.6171 26.2047 62.4509 26.3472L59.5712 28.7638C59.3812 28.9241 59.2624 29.1497 59.2387 29.3991C59.2149 29.6484 59.2921 29.8919 59.4524 30.0819C59.6305 30.2956 59.8918 30.4144 60.1649 30.4144C60.3846 30.4144 60.5984 30.3372 60.7646 30.1947L63.6443 27.7781C63.8343 27.6119 63.953 27.3863 63.9768 27.1428ZM67.1474 33.2288C67.0405 32.8191 66.6665 32.5341 66.2449 32.5341C66.1618 32.5341 66.0787 32.5459 66.0015 32.5638L62.3677 33.5375C62.1243 33.6028 61.9284 33.7572 61.8037 33.9709C61.679 34.1847 61.6434 34.44 61.7087 34.6775C61.8155 35.0872 62.1896 35.3662 62.6112 35.3662C62.6943 35.3662 62.7774 35.3544 62.8546 35.3366L66.4884 34.3628C66.7318 34.2975 66.9277 34.1431 67.0524 33.9294C67.1771 33.7216 67.2127 33.4663 67.1474 33.2288ZM45.624 52.8106L45.6299 52.8403V52.87L45.6537 53.0066C45.6596 53.06 45.6655 53.1075 45.6774 53.1609V53.2025L45.7071 53.2678C45.719 53.2916 45.7249 53.3153 45.7368 53.3688C45.9327 53.9447 46.3305 54.39 46.859 54.6097C47.0787 54.7106 47.334 54.7759 47.6249 54.7878L47.6724 54.7938H52.3155L52.3512 54.7878C53.224 54.7759 53.9959 54.2 54.2809 53.3688L54.2868 53.3391L54.3284 53.2916V53.1906C54.3462 53.0956 54.3521 53.0363 54.3462 53.0363L54.364 52.9175C54.3699 52.8878 54.3818 52.7275 54.3818 52.7275V49.9131H45.624V52.8106ZM52.3749 55.2628C52.3452 55.2628 52.3155 55.2628 52.2859 55.2687H47.7021C47.6605 55.2687 47.6071 55.2628 47.5655 55.2569L47.4765 55.245L46.9659 55.1619L47.0787 55.6666C47.3934 57.0441 48.5927 58 49.9999 58C51.4071 58 52.6065 57.0441 52.9152 55.6784L53.0221 55.2094L52.5412 55.2569C52.4877 55.2569 52.4284 55.2628 52.3749 55.2628Z" fill="white"/>
<defs>
<filter id="filter0_bd_6710_12552" x="-25.1333" y="-38.1333" width="150.267" height="154.086" filterUnits="userSpaceOnUse" color-interpolation-filters="sRGB">
<feFlood flood-opacity="0" result="BackgroundImageFix"/>
<feGaussianBlur in="BackgroundImageFix" stdDeviation="21.0667"/>
<feComposite in2="SourceAlpha" operator="in" result="effect1_backgroundBlur_6710_12552"/>
<feColorMatrix in="SourceAlpha" type="matrix" values="0 0 0 0 0 0 0 0 0 0 0 0 0 0 0 0 0 0 127 0" result="hardAlpha"/>
<feOffset dy="6.4"/>
<feGaussianBlur stdDeviation="5.06667"/>
<feComposite in2="hardAlpha" operator="out"/>
<feColorMatrix type="matrix" values="0 0 0 0 0.0867708 0 0 0 0 0.115317 0 0 0 0 0.141667 0 0 0 0.08 0"/>
<feBlend mode="normal" in2="effect1_backgroundBlur_6710_12552" result="effect2_dropShadow_6710_12552"/>
<feBlend mode="normal" in="SourceGraphic" in2="effect2_dropShadow_6710_12552" result="shape"/>
</filter>
</defs>
</svg>
