<svg width="97" height="113" viewBox="0 0 97 113" fill="none" xmlns="http://www.w3.org/2000/svg">
<path d="M16.6386 104.248C15.7053 104.248 14.8653 104.088 14.1186 103.768C13.3719 103.435 12.7853 102.968 12.3586 102.368C11.9319 101.768 11.7186 101.068 11.7186 100.268H14.1586C14.2119 100.868 14.4453 101.362 14.8586 101.748C15.2853 102.135 15.8786 102.328 16.6386 102.328C17.4253 102.328 18.0386 102.142 18.4786 101.768C18.9186 101.382 19.1386 100.888 19.1386 100.288C19.1386 99.8217 18.9986 99.4417 18.7186 99.1484C18.4519 98.8551 18.1119 98.6284 17.6986 98.4684C17.2986 98.3084 16.7386 98.1351 16.0186 97.9484C15.1119 97.7084 14.3719 97.4684 13.7986 97.2284C13.2386 96.9751 12.7586 96.5884 12.3586 96.0684C11.9586 95.5484 11.7586 94.8551 11.7586 93.9884C11.7586 93.1884 11.9586 92.4884 12.3586 91.8884C12.7586 91.2884 13.3186 90.8284 14.0386 90.5084C14.7586 90.1884 15.5919 90.0284 16.5386 90.0284C17.8853 90.0284 18.9853 90.3684 19.8386 91.0484C20.7053 91.7151 21.1853 92.6351 21.2786 93.8084H18.7586C18.7186 93.3017 18.4786 92.8684 18.0386 92.5084C17.5986 92.1484 17.0186 91.9684 16.2986 91.9684C15.6453 91.9684 15.1119 92.1351 14.6986 92.4684C14.2853 92.8017 14.0786 93.2817 14.0786 93.9084C14.0786 94.3351 14.2053 94.6884 14.4586 94.9684C14.7253 95.2351 15.0586 95.4484 15.4586 95.6084C15.8586 95.7684 16.4053 95.9417 17.0986 96.1284C18.0186 96.3817 18.7653 96.6351 19.3386 96.8884C19.9253 97.1417 20.4186 97.5351 20.8186 98.0684C21.2319 98.5884 21.4386 99.2884 21.4386 100.168C21.4386 100.875 21.2453 101.542 20.8586 102.168C20.4853 102.795 19.9319 103.302 19.1986 103.688C18.4786 104.062 17.6253 104.248 16.6386 104.248ZM26.7889 94.9484V101.048C26.7889 101.462 26.8822 101.762 27.0689 101.948C27.2689 102.122 27.6022 102.208 28.0689 102.208H29.4689V104.108H27.6689C26.6422 104.108 25.8556 103.868 25.3089 103.388C24.7622 102.908 24.4889 102.128 24.4889 101.048V94.9484H23.1889V93.0884H24.4889V90.3484H26.7889V93.0884H29.4689V94.9484H26.7889ZM33.8503 94.6884C34.1836 94.1284 34.6236 93.6951 35.1703 93.3884C35.7303 93.0684 36.3903 92.9084 37.1503 92.9084V95.2684H36.5703C35.677 95.2684 34.997 95.4951 34.5303 95.9484C34.077 96.4017 33.8503 97.1884 33.8503 98.3084V104.108H31.5703V93.0884H33.8503V94.6884ZM38.4861 98.5484C38.4861 97.4417 38.7128 96.4617 39.1661 95.6084C39.6328 94.7551 40.2594 94.0951 41.0461 93.6284C41.8461 93.1484 42.7261 92.9084 43.6861 92.9084C44.5528 92.9084 45.3061 93.0817 45.9461 93.4284C46.5994 93.7617 47.1194 94.1817 47.5061 94.6884V93.0884H49.8061V104.108H47.5061V102.468C47.1194 102.988 46.5928 103.422 45.9261 103.768C45.2594 104.115 44.4994 104.288 43.6461 104.288C42.6994 104.288 41.8328 104.048 41.0461 103.568C40.2594 103.075 39.6328 102.395 39.1661 101.528C38.7128 100.648 38.4861 99.6551 38.4861 98.5484ZM47.5061 98.5884C47.5061 97.8284 47.3461 97.1684 47.0261 96.6084C46.7194 96.0484 46.3128 95.6217 45.8061 95.3284C45.2994 95.0351 44.7528 94.8884 44.1661 94.8884C43.5794 94.8884 43.0328 95.0351 42.5261 95.3284C42.0194 95.6084 41.6061 96.0284 41.2861 96.5884C40.9794 97.1351 40.8261 97.7884 40.8261 98.5484C40.8261 99.3084 40.9794 99.9751 41.2861 100.548C41.6061 101.122 42.0194 101.562 42.5261 101.868C43.0461 102.162 43.5928 102.308 44.1661 102.308C44.7528 102.308 45.2994 102.162 45.8061 101.868C46.3128 101.575 46.7194 101.148 47.0261 100.588C47.3461 100.015 47.5061 99.3484 47.5061 98.5884ZM55.4608 94.9484V101.048C55.4608 101.462 55.5541 101.762 55.7408 101.948C55.9408 102.122 56.2741 102.208 56.7408 102.208H58.1408V104.108H56.3408C55.3141 104.108 54.5274 103.868 53.9808 103.388C53.4341 102.908 53.1608 102.128 53.1608 101.048V94.9484H51.8608V93.0884H53.1608V90.3484H55.4608V93.0884H58.1408V94.9484H55.4608ZM70.3422 98.3284C70.3422 98.7417 70.3155 99.1151 70.2622 99.4484H61.8422C61.9089 100.328 62.2355 101.035 62.8222 101.568C63.4089 102.102 64.1289 102.368 64.9822 102.368C66.2089 102.368 67.0755 101.855 67.5822 100.828H70.0422C69.7089 101.842 69.1022 102.675 68.2222 103.328C67.3555 103.968 66.2755 104.288 64.9822 104.288C63.9289 104.288 62.9822 104.055 62.1422 103.588C61.3155 103.108 60.6622 102.442 60.1822 101.588C59.7155 100.722 59.4822 99.7217 59.4822 98.5884C59.4822 97.4551 59.7089 96.4617 60.1622 95.6084C60.6289 94.7417 61.2755 94.0751 62.1022 93.6084C62.9422 93.1417 63.9022 92.9084 64.9822 92.9084C66.0222 92.9084 66.9489 93.1351 67.7622 93.5884C68.5755 94.0417 69.2089 94.6817 69.6622 95.5084C70.1155 96.3217 70.3422 97.2617 70.3422 98.3284ZM67.9622 97.6084C67.9489 96.7684 67.6489 96.0951 67.0622 95.5884C66.4755 95.0817 65.7489 94.8284 64.8822 94.8284C64.0955 94.8284 63.4222 95.0817 62.8622 95.5884C62.3022 96.0817 61.9689 96.7551 61.8622 97.6084H67.9622ZM77.0259 92.9084C77.8793 92.9084 78.6326 93.0817 79.2859 93.4284C79.9526 93.7617 80.4726 94.1817 80.8459 94.6884V93.0884H83.1459V104.288C83.1459 105.302 82.9326 106.202 82.5059 106.988C82.0793 107.788 81.4593 108.415 80.6459 108.868C79.8459 109.322 78.8859 109.548 77.7659 109.548C76.2726 109.548 75.0326 109.195 74.0459 108.488C73.0593 107.795 72.4993 106.848 72.3659 105.648H74.6259C74.7993 106.222 75.1659 106.682 75.7259 107.028C76.2993 107.388 76.9793 107.568 77.7659 107.568C78.6859 107.568 79.4259 107.288 79.9859 106.728C80.5593 106.168 80.8459 105.355 80.8459 104.288V102.448C80.4593 102.968 79.9326 103.408 79.2659 103.768C78.6126 104.115 77.8659 104.288 77.0259 104.288C76.0659 104.288 75.1859 104.048 74.3859 103.568C73.5993 103.075 72.9726 102.395 72.5059 101.528C72.0526 100.648 71.8259 99.6551 71.8259 98.5484C71.8259 97.4417 72.0526 96.4617 72.5059 95.6084C72.9726 94.7551 73.5993 94.0951 74.3859 93.6284C75.1859 93.1484 76.0659 92.9084 77.0259 92.9084ZM80.8459 98.5884C80.8459 97.8284 80.6859 97.1684 80.3659 96.6084C80.0593 96.0484 79.6526 95.6217 79.1459 95.3284C78.6393 95.0351 78.0926 94.8884 77.5059 94.8884C76.9193 94.8884 76.3726 95.0351 75.8659 95.3284C75.3593 95.6084 74.9459 96.0284 74.6259 96.5884C74.3193 97.1351 74.1659 97.7884 74.1659 98.5484C74.1659 99.3084 74.3193 99.9751 74.6259 100.548C74.9459 101.122 75.3593 101.562 75.8659 101.868C76.3859 102.162 76.9326 102.308 77.5059 102.308C78.0926 102.308 78.6393 102.162 79.1459 101.868C79.6526 101.575 80.0593 101.148 80.3659 100.588C80.6859 100.015 80.8459 99.3484 80.8459 98.5884ZM96.0606 93.0884L89.3006 109.288H86.9406L89.1806 103.928L84.8406 93.0884H87.3806L90.4806 101.488L93.7006 93.0884H96.0606Z" fill="black"/>
<g filter="url(#filter0_bd_6786_12781)">
<rect x="10.5586" y="3.97266" width="64" height="67.8193" rx="21.3333" fill="url(#paint0_radial_6786_12781)" fill-opacity="0.7" shape-rendering="crispEdges"/>
<rect x="11.6253" y="5.03932" width="61.8667" height="65.686" rx="20.2667" stroke="white" stroke-width="2.13333" shape-rendering="crispEdges"/>
</g>
<path d="M48.8742 30.4072C56.0185 30.4072 61.1953 36.2358 61.1953 42.7038C61.1953 44.7696 60.5928 46.8969 59.5353 48.8397C59.3385 49.1595 59.3139 49.5652 59.4492 49.9464L60.2731 52.7009C60.4575 53.3649 59.8919 53.8567 59.2648 53.66L56.7809 52.9222C56.1045 52.7009 55.5758 52.9837 54.9474 53.3649C53.1521 54.4224 50.9154 54.9634 48.8988 54.9634C42.7997 54.9634 36.6022 50.2538 36.6022 42.6669C36.6022 36.1251 41.8897 30.4072 48.8742 30.4072Z" fill="url(#paint1_linear_6786_12781)"/>
<g opacity="0.5" filter="url(#filter1_f_6786_12781)">
<path d="M56.7248 42.8268C56.7248 47.2137 53.1694 50.7683 48.7833 50.7683C44.3972 50.7683 40.8418 47.2137 40.8418 42.8268C40.8418 38.4415 44.3972 34.8853 48.7833 34.8853C53.1694 34.8853 56.7248 38.4415 56.7248 42.8268Z" fill="#8237FF"/>
</g>
<g filter="url(#filter2_b_6786_12781)">
<mask id="path-6-outside-1_6786_12781" maskUnits="userSpaceOnUse" x="22.9219" y="19.8008" width="33" height="33" fill="black">
<rect fill="white" x="22.9219" y="19.8008" width="33" height="33"/>
<path d="M39.6441 20.8008C30.5277 20.8008 23.9219 28.2383 23.9219 36.4917C23.9219 39.1277 24.6907 41.8423 26.0401 44.3214C26.2912 44.7294 26.3226 45.2472 26.15 45.7336L25.0987 49.2484C24.8633 50.0957 25.5851 50.7233 26.3853 50.4722L29.5549 49.5308C30.4179 49.2484 31.0926 49.6092 31.8944 50.0957C34.1853 51.4451 37.0395 52.1355 39.6128 52.1355C47.3954 52.1355 55.3036 46.1259 55.3036 36.4446C55.3036 28.097 48.5566 20.8008 39.6441 20.8008Z"/>
</mask>
<path d="M39.6441 20.8008C30.5277 20.8008 23.9219 28.2383 23.9219 36.4917C23.9219 39.1277 24.6907 41.8423 26.0401 44.3214C26.2912 44.7294 26.3226 45.2472 26.15 45.7336L25.0987 49.2484C24.8633 50.0957 25.5851 50.7233 26.3853 50.4722L29.5549 49.5308C30.4179 49.2484 31.0926 49.6092 31.8944 50.0957C34.1853 51.4451 37.0395 52.1355 39.6128 52.1355C47.3954 52.1355 55.3036 46.1259 55.3036 36.4446C55.3036 28.097 48.5566 20.8008 39.6441 20.8008Z" fill="#BA90FF" fill-opacity="0.35"/>
<path d="M39.6441 21.185C39.8564 21.185 40.0284 21.013 40.0284 20.8008C40.0284 20.5886 39.8564 20.4165 39.6441 20.4165V21.185ZM26.0401 44.3214L25.7026 44.5051C25.7059 44.5111 25.7093 44.517 25.7129 44.5228L26.0401 44.3214ZM26.15 45.7336L25.7878 45.6051C25.7857 45.6112 25.7837 45.6173 25.7818 45.6235L26.15 45.7336ZM25.0987 49.2484L24.7305 49.1382L24.7284 49.1455L25.0987 49.2484ZM26.3853 50.4722L26.2759 50.1038L26.2703 50.1056L26.3853 50.4722ZM29.5549 49.5308L29.6644 49.8993L29.6744 49.896L29.5549 49.5308ZM31.8944 50.0957L31.6951 50.4242L31.6994 50.4268L31.8944 50.0957ZM39.6441 20.4165C39.4319 20.4165 39.2599 20.5886 39.2599 20.8008C39.2599 21.013 39.4319 21.185 39.6441 21.185V20.4165ZM39.6441 20.4165C30.3029 20.4165 23.5376 28.0389 23.5376 36.4917H24.3061C24.3061 28.4376 30.7526 21.185 39.6441 21.185V20.4165ZM23.5376 36.4917C23.5376 39.2011 24.3273 41.9783 25.7026 44.5051L26.3777 44.1377C25.0542 41.7062 24.3061 39.0544 24.3061 36.4917H23.5376ZM25.7129 44.5228C25.8937 44.8167 25.9279 45.2104 25.7878 45.6051L26.5121 45.8621C26.7173 45.284 26.6887 44.6421 26.3674 44.12L25.7129 44.5228ZM25.7818 45.6235L24.7305 49.1382L25.4668 49.3585L26.5181 45.8437L25.7818 45.6235ZM24.7284 49.1455C24.5744 49.7002 24.7303 50.2202 25.0932 50.5547C25.4518 50.8853 25.9776 51.0029 26.5004 50.8389L26.2703 50.1056C25.9928 50.1927 25.7576 50.122 25.6141 49.9897C25.4749 49.8613 25.3877 49.6438 25.4689 49.3512L24.7284 49.1455ZM26.4948 50.8406L29.6643 49.8991L29.4455 49.1624L26.2759 50.1039L26.4948 50.8406ZM29.6744 49.896C30.3527 49.674 30.8836 49.9319 31.6951 50.4242L32.0937 49.7671C31.3016 49.2866 30.4831 48.8227 29.4354 49.1656L29.6744 49.896ZM31.6994 50.4268C34.0554 51.8145 36.9782 52.5197 39.6128 52.5197V51.7512C37.1007 51.7512 34.3152 51.0756 32.0894 49.7646L31.6994 50.4268ZM39.6128 52.5197C47.5767 52.5197 55.6879 46.3678 55.6879 36.4446H54.9194C54.9194 45.8839 47.2142 51.7512 39.6128 51.7512V52.5197ZM55.6879 36.4446C55.6879 27.8934 48.7773 20.4165 39.6441 20.4165V21.185C48.3359 21.185 54.9194 28.3007 54.9194 36.4446H55.6879Z" fill="url(#paint2_linear_6786_12781)" mask="url(#path-6-outside-1_6786_12781)"/>
</g>
<g filter="url(#filter3_bd_6786_12781)">
<mask id="path-8-inside-2_6786_12781" fill="white">
<path fill-rule="evenodd" clip-rule="evenodd" d="M32.3483 38.5154C31.2499 38.5154 30.3398 37.6053 30.3398 36.507C30.3398 35.3929 31.2342 34.4985 32.3483 34.4985C33.4623 34.4985 34.3567 35.3929 34.3567 36.507C34.3567 37.6053 33.4623 38.4997 32.3483 38.5154ZM39.5823 38.5156C38.4683 38.4999 37.5739 37.6055 37.5739 36.4915C37.5739 35.3931 38.484 34.4831 39.5823 34.4987C40.6964 34.4987 41.5908 35.3931 41.5908 36.5072C41.5908 37.6055 40.6964 38.5156 39.5823 38.5156ZM44.8072 36.5072C44.8072 37.6055 45.7016 38.5156 46.8157 38.5156C47.9297 38.5156 48.8241 37.6055 48.8241 36.5072C48.8241 35.3931 47.9297 34.4987 46.8157 34.4987C45.7016 34.4987 44.8072 35.3931 44.8072 36.5072Z"/>
</mask>
<path fill-rule="evenodd" clip-rule="evenodd" d="M32.3483 38.5154C31.2499 38.5154 30.3398 37.6053 30.3398 36.507C30.3398 35.3929 31.2342 34.4985 32.3483 34.4985C33.4623 34.4985 34.3567 35.3929 34.3567 36.507C34.3567 37.6053 33.4623 38.4997 32.3483 38.5154ZM39.5823 38.5156C38.4683 38.4999 37.5739 37.6055 37.5739 36.4915C37.5739 35.3931 38.484 34.4831 39.5823 34.4987C40.6964 34.4987 41.5908 35.3931 41.5908 36.5072C41.5908 37.6055 40.6964 38.5156 39.5823 38.5156ZM44.8072 36.5072C44.8072 37.6055 45.7016 38.5156 46.8157 38.5156C47.9297 38.5156 48.8241 37.6055 48.8241 36.5072C48.8241 35.3931 47.9297 34.4987 46.8157 34.4987C45.7016 34.4987 44.8072 35.3931 44.8072 36.5072Z" fill="url(#paint3_linear_6786_12781)"/>
<path d="M32.3483 38.5154V38.6691L32.3504 38.6691L32.3483 38.5154ZM39.5823 38.5156L39.5802 38.6693H39.5823V38.5156ZM39.5823 34.4987L39.5801 34.6525H39.5823V34.4987ZM30.1861 36.507C30.1861 37.6902 31.165 38.6691 32.3483 38.6691V38.3617C31.3348 38.3617 30.4936 37.5204 30.4936 36.507H30.1861ZM32.3483 34.3448C31.1493 34.3448 30.1861 35.308 30.1861 36.507H30.4936C30.4936 35.4778 31.3191 34.6522 32.3483 34.6522V34.3448ZM34.5104 36.507C34.5104 35.308 33.5472 34.3448 32.3483 34.3448V34.6522C33.3774 34.6522 34.203 35.4778 34.203 36.507H34.5104ZM32.3504 38.6691C33.5465 38.6522 34.5104 37.6914 34.5104 36.507H34.203C34.203 37.5193 33.3782 38.3472 32.3461 38.3617L32.3504 38.6691ZM37.4202 36.4915C37.4202 37.6908 38.3833 38.6524 39.5802 38.6693L39.5845 38.3619C38.5532 38.3474 37.7276 37.5202 37.7276 36.4915H37.4202ZM39.5845 34.3451C38.3991 34.3281 37.4202 35.3087 37.4202 36.4915H37.7276C37.7276 35.4776 38.5688 34.638 39.5801 34.6524L39.5845 34.3451ZM41.7445 36.5072C41.7445 35.3082 40.7813 34.345 39.5823 34.345V34.6525C40.6115 34.6525 41.4371 35.478 41.4371 36.5072H41.7445ZM39.5823 38.6693C40.7821 38.6693 41.7445 37.6896 41.7445 36.5072H41.4371C41.4371 37.5214 40.6107 38.3619 39.5823 38.3619V38.6693ZM46.8157 38.3619C45.7873 38.3619 44.9609 37.5214 44.9609 36.5072H44.6535C44.6535 37.6896 45.6159 38.6693 46.8157 38.6693V38.3619ZM48.6704 36.5072C48.6704 37.5214 47.8441 38.3619 46.8157 38.3619V38.6693C48.0154 38.6693 48.9778 37.6896 48.9778 36.5072H48.6704ZM46.8157 34.6524C47.8448 34.6524 48.6704 35.478 48.6704 36.5072H48.9778C48.9778 35.3082 48.0146 34.345 46.8157 34.345V34.6524ZM44.9609 36.5072C44.9609 35.478 45.7865 34.6524 46.8157 34.6524V34.345C45.6167 34.345 44.6535 35.3082 44.6535 36.5072H44.9609Z" fill="url(#paint4_linear_6786_12781)" mask="url(#path-8-inside-2_6786_12781)"/>
</g>
<defs>
<filter id="filter0_bd_6786_12781" x="-31.5747" y="-38.1607" width="148.267" height="152.086" filterUnits="userSpaceOnUse" color-interpolation-filters="sRGB">
<feFlood flood-opacity="0" result="BackgroundImageFix"/>
<feGaussianBlur in="BackgroundImageFix" stdDeviation="21.0667"/>
<feComposite in2="SourceAlpha" operator="in" result="effect1_backgroundBlur_6786_12781"/>
<feColorMatrix in="SourceAlpha" type="matrix" values="0 0 0 0 0 0 0 0 0 0 0 0 0 0 0 0 0 0 127 0" result="hardAlpha"/>
<feOffset dy="6.4"/>
<feGaussianBlur stdDeviation="5.06667"/>
<feComposite in2="hardAlpha" operator="out"/>
<feColorMatrix type="matrix" values="0 0 0 0 0.0867708 0 0 0 0 0.115317 0 0 0 0 0.141667 0 0 0 0.08 0"/>
<feBlend mode="normal" in2="effect1_backgroundBlur_6786_12781" result="effect2_dropShadow_6786_12781"/>
<feBlend mode="normal" in="SourceGraphic" in2="effect2_dropShadow_6786_12781" result="shape"/>
</filter>
<filter id="filter1_f_6786_12781" x="34.3093" y="28.3527" width="28.9479" height="28.9479" filterUnits="userSpaceOnUse" color-interpolation-filters="sRGB">
<feFlood flood-opacity="0" result="BackgroundImageFix"/>
<feBlend mode="normal" in="SourceGraphic" in2="BackgroundImageFix" result="shape"/>
<feGaussianBlur stdDeviation="3.26627" result="effect1_foregroundBlur_6786_12781"/>
</filter>
<filter id="filter2_b_6786_12781" x="14.3147" y="11.1941" width="50.5952" height="50.5478" filterUnits="userSpaceOnUse" color-interpolation-filters="sRGB">
<feFlood flood-opacity="0" result="BackgroundImageFix"/>
<feGaussianBlur in="BackgroundImageFix" stdDeviation="4.6112"/>
<feComposite in2="SourceAlpha" operator="in" result="effect1_backgroundBlur_6786_12781"/>
<feBlend mode="normal" in="SourceGraphic" in2="effect1_backgroundBlur_6786_12781" result="shape"/>
</filter>
<filter id="filter3_bd_6786_12781" x="24.5758" y="28.7345" width="30.0124" height="15.5451" filterUnits="userSpaceOnUse" color-interpolation-filters="sRGB">
<feFlood flood-opacity="0" result="BackgroundImageFix"/>
<feGaussianBlur in="BackgroundImageFix" stdDeviation="2.882"/>
<feComposite in2="SourceAlpha" operator="in" result="effect1_backgroundBlur_6786_12781"/>
<feColorMatrix in="SourceAlpha" type="matrix" values="0 0 0 0 0 0 0 0 0 0 0 0 0 0 0 0 0 0 127 0" result="hardAlpha"/>
<feOffset dx="1.92133" dy="1.92133"/>
<feGaussianBlur stdDeviation="1.92133"/>
<feColorMatrix type="matrix" values="0 0 0 0 0.577356 0 0 0 0 0.359375 0 0 0 0 0.9375 0 0 0 0.5 0"/>
<feBlend mode="normal" in2="effect1_backgroundBlur_6786_12781" result="effect2_dropShadow_6786_12781"/>
<feBlend mode="normal" in="SourceGraphic" in2="effect2_dropShadow_6786_12781" result="shape"/>
</filter>
<radialGradient id="paint0_radial_6786_12781" cx="0" cy="0" r="1" gradientUnits="userSpaceOnUse" gradientTransform="translate(42.5586 37.8823) rotate(90) scale(33.9097 32)">
<stop stop-color="white"/>
<stop offset="1" stop-color="white"/>
</radialGradient>
<linearGradient id="paint1_linear_6786_12781" x1="48.8988" y1="30.4072" x2="48.8988" y2="54.9634" gradientUnits="userSpaceOnUse">
<stop stop-color="#BC94FF"/>
<stop offset="1" stop-color="#9F66FF"/>
</linearGradient>
<linearGradient id="paint2_linear_6786_12781" x1="28.9173" y1="24.4513" x2="48.8992" y2="49.2365" gradientUnits="userSpaceOnUse">
<stop stop-color="white" stop-opacity="0.25"/>
<stop offset="1" stop-color="white" stop-opacity="0"/>
</linearGradient>
<linearGradient id="paint3_linear_6786_12781" x1="47.5135" y1="35.2239" x2="27.3557" y2="38.2481" gradientUnits="userSpaceOnUse">
<stop stop-color="white"/>
<stop offset="1" stop-color="white" stop-opacity="0.2"/>
</linearGradient>
<linearGradient id="paint4_linear_6786_12781" x1="33.2822" y1="34.9665" x2="34.1747" y2="40.0526" gradientUnits="userSpaceOnUse">
<stop stop-color="white" stop-opacity="0.25"/>
<stop offset="1" stop-color="white" stop-opacity="0"/>
</linearGradient>
</defs>
</svg>
