<svg width="15" height="11" viewBox="0 0 15 11" fill="none" xmlns="http://www.w3.org/2000/svg">
<g id="image" clip-path="url(#clip0_3309_10909)">
<path id="Vector" d="M1.85165 6.81248C1.85165 7.35865 1.97153 7.77798 2.12822 8.03167C2.33366 8.36394 2.64007 8.50472 2.95245 8.50472C3.35537 8.50472 3.72397 8.40473 4.43429 7.42231C5.00334 6.63489 5.67387 5.5296 6.12504 4.83668L6.88909 3.66276C7.41984 2.84747 8.03417 1.94116 8.73854 1.32684C9.31356 0.825436 9.93384 0.546875 10.5581 0.546875C11.6062 0.546875 12.6045 1.15423 13.3686 2.29335C14.2048 3.54089 14.6107 5.11226 14.6107 6.73387C14.6107 7.69789 14.4206 8.40622 14.0973 8.96583C13.7849 9.50704 13.1761 10.0477 12.1519 10.0477V8.50472C13.0288 8.50472 13.2477 7.69888 13.2477 6.77665C13.2477 5.46246 12.9413 4.00399 12.2663 2.96189C11.7873 2.22271 11.1665 1.77104 10.4835 1.77104C9.74482 1.77104 9.1504 2.32817 8.48236 3.32153C8.12719 3.84929 7.76258 4.49247 7.35319 5.21822L6.90253 6.01659C5.9972 7.62178 5.76789 7.98739 5.31524 8.59076C4.52184 9.64731 3.84434 10.0477 2.95245 10.0477C1.89443 10.0477 1.22539 9.5896 0.81103 8.89918C0.472779 8.33659 0.306641 7.59841 0.306641 6.75726L1.85165 6.81248Z" fill="#0081FB"/>
<path id="Vector_2" d="M1.48535 2.40228C2.19368 1.31042 3.21591 0.546875 4.38834 0.546875C5.06733 0.546875 5.74234 0.747837 6.44719 1.32336C7.21821 1.95261 8.03995 2.98875 9.06515 4.69642L9.43275 5.30924C10.3202 6.7876 10.825 7.54817 11.1205 7.90681C11.5006 8.36742 11.7667 8.50472 12.1124 8.50472C12.9893 8.50472 13.2082 7.69888 13.2082 6.77665L14.5712 6.73387C14.5712 7.69789 14.3811 8.40622 14.0578 8.96583C13.7454 9.50704 13.1366 10.0477 12.1124 10.0477C11.4757 10.0477 10.9116 9.90946 10.2878 9.32101C9.8083 8.86934 9.2477 8.06698 8.81643 7.34571L7.53356 5.20279C6.8899 4.12735 6.29946 3.3255 5.95773 2.96237C5.59011 2.57191 5.11757 2.10034 4.36347 2.10034C3.75312 2.10034 3.2348 2.52863 2.80105 3.18374L1.48535 2.40228Z" fill="url(#paint0_linear_3309_10909)"/>
<path id="Vector_3" d="M4.40296 2.10034C3.79261 2.10034 3.27429 2.52863 2.84053 3.18374C2.22721 4.10944 1.85165 5.48832 1.85165 6.81248C1.85165 7.35865 1.97153 7.77798 2.12822 8.03167L0.81103 8.89918C0.472779 8.33659 0.306641 7.59841 0.306641 6.75726C0.306641 5.22766 0.726467 3.6334 1.52484 2.40228C2.23317 1.31042 3.25539 0.546875 4.42782 0.546875L4.40296 2.10034Z" fill="url(#paint1_linear_3309_10909)"/>
</g>
<defs>
<linearGradient id="paint0_linear_3309_10909" x1="2.29162" y1="6.36678" x2="13.0522" y2="6.96083" gradientUnits="userSpaceOnUse">
<stop stop-color="#0064E1"/>
<stop offset="0.4" stop-color="#0064E1"/>
<stop offset="0.83" stop-color="#0073EE"/>
<stop offset="1" stop-color="#0082FB"/>
</linearGradient>
<linearGradient id="paint1_linear_3309_10909" x1="2.54507" y1="7.46112" x2="2.54507" y2="3.8299" gradientUnits="userSpaceOnUse">
<stop stop-color="#0082FB"/>
<stop offset="1" stop-color="#0064E0"/>
</linearGradient>
<clipPath id="clip0_3309_10909">
<rect width="14.4416" height="9.57858" fill="white" transform="translate(0.306641 0.546875)"/>
</clipPath>
</defs>
</svg>
