<svg width="64" height="59" viewBox="0 0 64 59" fill="none" xmlns="http://www.w3.org/2000/svg">
<g id="mistral-ai-icon-seeklogo 1" clip-path="url(#clip0_1692_13000)">
<g id="Group">
<path id="Vector" d="M58.1823 0H46.5459V11.7862H58.1823V0Z" fill="black"/>
<path id="Vector_2" d="M63.9996 0H52.3633V11.7862H63.9996V0Z" fill="#F7D046"/>
<path id="Vector_3" d="M11.6364 0H0V11.7862H11.6364V0Z" fill="black"/>
<path id="Vector_4" d="M11.6364 11.7852H0V23.5713H11.6364V11.7852Z" fill="black"/>
<path id="Vector_5" d="M11.6364 23.5742H0V35.3604H11.6364V23.5742Z" fill="black"/>
<path id="Vector_6" d="M11.6364 35.3594H0V47.1456H11.6364V35.3594Z" fill="black"/>
<path id="Vector_7" d="M11.6364 47.1445H0V58.9307H11.6364V47.1445Z" fill="black"/>
<path id="Vector_8" d="M17.4547 0H5.81836V11.7862H17.4547V0Z" fill="#F7D046"/>
<path id="Vector_9" d="M63.9996 11.7852H52.3633V23.5713H63.9996V11.7852Z" fill="#F2A73B"/>
<path id="Vector_10" d="M17.4547 11.7852H5.81836V23.5713H17.4547V11.7852Z" fill="#F2A73B"/>
<path id="Vector_11" d="M46.5455 11.7852H34.9092V23.5713H46.5455V11.7852Z" fill="black"/>
<path id="Vector_12" d="M52.3639 11.7852H40.7275V23.5713H52.3639V11.7852Z" fill="#F2A73B"/>
<path id="Vector_13" d="M29.0905 11.7852H17.4541V23.5713H29.0905V11.7852Z" fill="#F2A73B"/>
<path id="Vector_14" d="M40.7272 23.5742H29.0908V35.3604H40.7272V23.5742Z" fill="#EE792F"/>
<path id="Vector_15" d="M52.3639 23.5742H40.7275V35.3604H52.3639V23.5742Z" fill="#EE792F"/>
<path id="Vector_16" d="M29.0914 23.5742H17.4551V35.3604H29.0914V23.5742Z" fill="#EE792F"/>
<path id="Vector_17" d="M34.9088 35.3594H23.2725V47.1456H34.9088V35.3594Z" fill="black"/>
<path id="Vector_18" d="M40.7272 35.3594H29.0908V47.1456H40.7272V35.3594Z" fill="#EB5829"/>
<path id="Vector_19" d="M63.9996 23.5742H52.3633V35.3604H63.9996V23.5742Z" fill="#EE792F"/>
<path id="Vector_20" d="M17.4547 23.5742H5.81836V35.3604H17.4547V23.5742Z" fill="#EE792F"/>
<path id="Vector_21" d="M58.1823 35.3594H46.5459V47.1456H58.1823V35.3594Z" fill="black"/>
<path id="Vector_22" d="M63.9996 35.3594H52.3633V47.1456H63.9996V35.3594Z" fill="#EB5829"/>
<path id="Vector_23" d="M58.1823 47.1445H46.5459V58.9307H58.1823V47.1445Z" fill="black"/>
<path id="Vector_24" d="M17.4547 35.3594H5.81836V47.1456H17.4547V35.3594Z" fill="#EB5829"/>
<path id="Vector_25" d="M63.9996 47.1445H52.3633V58.9307H63.9996V47.1445Z" fill="#EA3326"/>
<path id="Vector_26" d="M17.4547 47.1445H5.81836V58.9307H17.4547V47.1445Z" fill="#EA3326"/>
</g>
</g>
<defs>
<clipPath id="clip0_1692_13000">
<rect width="64" height="59" fill="white"/>
</clipPath>
</defs>
</svg>
