<svg width="59" height="59" viewBox="0 0 59 59" fill="none" xmlns="http://www.w3.org/2000/svg">
<g id="openai-svgrepo-com 1" clip-path="url(#clip0_1692_12985)">
<path id="Vector" d="M54.7759 24.1435C55.4356 22.1568 55.6638 20.0523 55.4451 17.9704C55.2265 15.8886 54.5661 13.8774 53.5081 12.0711C51.9397 9.34093 49.5447 7.17939 46.6685 5.89811C43.7924 4.61684 40.5836 4.28202 37.5049 4.94193C35.7558 2.99631 33.5256 1.54518 31.0381 0.734273C28.5507 -0.0766304 25.8937 -0.218755 23.334 0.322174C20.7743 0.863104 18.402 2.06804 16.4553 3.81597C14.5087 5.5639 13.0562 7.79328 12.2438 10.2802C10.1927 10.7008 8.25505 11.5543 6.56027 12.7837C4.86548 14.0132 3.45262 15.5902 2.41612 17.4094C0.83058 20.135 0.152931 23.2942 0.481143 26.4303C0.809354 29.5664 2.12642 32.5169 4.24192 34.8552C3.57981 36.8408 3.34936 38.945 3.566 41.0269C3.78264 43.1088 4.44138 45.1205 5.49813 46.9273C7.06861 49.6585 9.46568 51.8205 12.3439 53.1018C15.2221 54.3831 18.4327 54.7174 21.5132 54.0567C22.9028 55.6216 24.6103 56.872 26.5216 57.7244C28.4329 58.5768 30.5041 59.0117 32.5968 58.9999C35.7524 59.0028 38.8273 58.0029 41.3777 56.1445C43.928 54.2862 45.8219 51.6654 46.7858 48.6607C48.8367 48.2394 50.7741 47.3855 52.4687 46.1561C54.1634 44.9267 55.5765 43.35 56.6135 41.5313C58.1803 38.8097 58.8463 35.6623 58.5163 32.5393C58.1862 29.4163 56.877 26.4774 54.7759 24.1435ZM32.5968 55.1384C30.0124 55.1425 27.5091 54.2367 25.5257 52.5797L25.8745 52.3821L37.6212 45.6015C37.9135 45.4301 38.1563 45.1855 38.3255 44.8919C38.4948 44.5982 38.5847 44.2656 38.5866 43.9267V27.3651L43.5524 30.2379C43.5769 30.2504 43.5982 30.2684 43.6144 30.2906C43.6307 30.3129 43.6414 30.3386 43.6458 30.3658V44.0896C43.6396 47.0181 42.4735 49.8248 40.4027 51.8955C38.332 53.9662 35.5253 55.1322 32.5968 55.1384ZM8.84761 44.9968C7.55151 42.7588 7.08615 40.1354 7.53339 37.5881L7.88247 37.7975L19.6407 44.5781C19.9316 44.7488 20.2628 44.8388 20.6002 44.8388C20.9375 44.8388 21.2687 44.7488 21.5597 44.5781L35.9232 36.2972V42.031C35.9219 42.0608 35.9138 42.0898 35.8997 42.116C35.8855 42.1421 35.8657 42.1648 35.8416 42.1822L23.9437 49.0442C21.4046 50.5069 18.3888 50.9023 15.5584 50.1434C12.728 49.3846 10.3145 47.5336 8.84761 44.9968ZM5.75404 19.41C7.05913 17.1576 9.11909 15.4396 11.5692 14.5602V28.5166C11.5648 28.8538 11.651 29.186 11.8187 29.4785C11.9864 29.771 12.2296 30.0132 12.5228 30.1797L26.8166 38.4257L21.8505 41.2982C21.8236 41.3125 21.7936 41.3199 21.7632 41.3199C21.7328 41.3199 21.7028 41.3125 21.6759 41.2982L9.80144 34.4481C7.26706 32.979 5.41811 30.5655 4.65951 27.736C3.90091 24.9066 4.29449 21.8918 5.75404 19.3519V19.41ZM46.5533 28.8888L32.2131 20.5614L37.1676 17.6999C37.1945 17.6857 37.2245 17.6782 37.2549 17.6782C37.2853 17.6782 37.3153 17.6857 37.3422 17.6999L49.2166 24.5619C51.0322 25.6095 52.5124 27.152 53.4842 29.0093C54.4561 30.8665 54.8795 32.962 54.7051 35.0509C54.5308 37.1398 53.7658 39.136 52.4994 40.8064C51.2331 42.4768 49.5177 43.7526 47.5536 44.4847V30.5283C47.5433 30.1917 47.4456 29.8635 47.2702 29.576C47.0948 29.2886 46.8479 29.0519 46.5533 28.8888ZM51.4963 21.457L51.1472 21.2476L39.4123 14.409C39.1196 14.2372 38.7863 14.1466 38.4469 14.1466C38.1075 14.1466 37.7743 14.2372 37.4815 14.409L23.13 22.6896V16.956C23.127 16.9269 23.1319 16.8975 23.1441 16.8708C23.1564 16.8442 23.1757 16.8214 23.1999 16.8049L35.0743 9.95447C36.8943 8.90603 38.9751 8.39745 41.0735 8.48821C43.1718 8.57897 45.201 9.26532 46.9236 10.467C48.6462 11.6687 49.9911 13.336 50.8009 15.2739C51.6107 17.2118 51.852 19.3403 51.4965 21.4103L51.4963 21.457ZM20.4197 31.6215L15.4539 28.7605C15.429 28.7455 15.4078 28.7253 15.3917 28.7012C15.3755 28.6771 15.3649 28.6497 15.3605 28.6211V14.9323C15.3632 12.8324 15.9637 10.7766 17.0918 9.0053C18.2198 7.23403 19.8288 5.8205 21.7306 4.92998C23.6324 4.03945 25.7484 3.70873 27.8313 3.97649C29.9141 4.24424 31.8777 5.09941 33.4924 6.442L33.1433 6.6399L21.3969 13.42C21.1046 13.5914 20.8618 13.836 20.6926 14.1297C20.5233 14.4233 20.4334 14.7559 20.4315 15.0948L20.4197 31.6215ZM23.118 25.8065L29.5146 22.1195L35.9232 25.8065V33.1801L29.5379 36.8668L23.1298 33.1801L23.118 25.8065Z" fill="#034737"/>
</g>
<defs>
<clipPath id="clip0_1692_12985">
<rect width="59" height="59" fill="white"/>
</clipPath>
</defs>
</svg>
