<svg width="8" height="13" viewBox="0 0 8 13" fill="none" xmlns="http://www.w3.org/2000/svg">
<path d="M4.57143 5.05556H8L7.61905 6.5H4.57143V13H3.04762V6.5H0V5.05556H3.04762V3.70339C3.04762 2.41564 3.1891 1.94867 3.4547 1.47789C3.7203 1.00711 4.1101 0.637636 4.6067 0.385862C5.10339 0.134081 5.59596 0 6.95451 0C7.35223 0 7.70072 0.0361112 8 0.108333V1.44444H6.95451C5.94598 1.44444 5.63886 1.50066 5.32533 1.65959C5.09425 1.77675 4.92198 1.94003 4.7984 2.15909C4.6307 2.45625 4.57143 2.74738 4.57143 3.70339V5.05556Z" fill="white"/>
</svg>
