<svg width="13" height="13" viewBox="0 0 13 13" fill="none" xmlns="http://www.w3.org/2000/svg">
<g clip-path="url(#clip0_10337_11659)">
<path d="M9.48099 0H3.51898C1.57858 0 0 1.57858 0 3.51898V9.48109C0 11.4214 1.57858 13 3.51898 13H9.48109C11.4214 13 13 11.4214 13 9.48109V3.51898C13 1.57858 11.4214 0 9.48099 0ZM12.2379 9.48109C12.2379 11.0012 11.0012 12.2379 9.48099 12.2379H3.51898C1.99882 12.2379 0.762124 11.0012 0.762124 9.48109V3.51898C0.762124 1.99882 1.99882 0.762124 3.51898 0.762124H9.48109C11.0012 0.762124 12.2379 1.99882 12.2379 3.51898V9.48109Z" fill="white"/>
<path d="M6.4999 2.9455C4.53987 2.9455 2.94531 4.54003 2.94531 6.50009C2.94531 8.46014 4.53984 10.0547 6.4999 10.0547C8.45995 10.0547 10.0545 8.46014 10.0545 6.50009C10.0545 4.54003 8.45995 2.9455 6.4999 2.9455ZM6.4999 9.29255C4.96021 9.29255 3.70744 8.0399 3.70744 6.50009C3.70744 4.9604 4.96021 3.70763 6.4999 3.70763C8.03971 3.70763 9.29236 4.9604 9.29236 6.50009C9.29236 8.0399 8.03971 9.29255 6.4999 9.29255ZM10.1395 1.68311C9.56026 1.68311 9.08916 2.15433 9.08916 2.73344C9.08916 3.31268 9.56026 3.78387 10.1395 3.78387C10.7187 3.78387 11.1899 3.31268 11.1899 2.73346C11.1899 2.15425 10.7187 1.68311 10.1395 1.68311ZM10.1395 3.02167C9.9806 3.02167 9.85126 2.89233 9.85126 2.73344C9.85126 2.57447 9.9806 2.44523 10.1395 2.44523C10.2985 2.44523 10.4278 2.57447 10.4278 2.73344C10.4278 2.89233 10.2985 3.02167 10.1395 3.02167Z" fill="white"/>
</g>
<defs>
<clipPath id="clip0_10337_11659">
<rect width="13" height="13" fill="white"/>
</clipPath>
</defs>
</svg>
