<svg width="152" height="22" viewBox="0 0 152 22" fill="none" xmlns="http://www.w3.org/2000/svg">
<path d="M17.64 7.14C17.08 5.852 16.2213 4.844 15.064 4.116C13.9253 3.36933 12.5813 2.996 11.032 2.996C9.576 2.996 8.26933 3.332 7.112 4.004C5.95467 4.676 5.04 5.63733 4.368 6.888C3.696 8.12 3.36 9.55733 3.36 11.2C3.36 12.8427 3.696 14.2893 4.368 15.54C5.04 16.7907 5.95467 17.752 7.112 18.424C8.26933 19.096 9.576 19.432 11.032 19.432C12.3947 19.432 13.6173 19.1427 14.7 18.564C15.8013 17.9667 16.6787 17.1267 17.332 16.044C18.004 14.9427 18.3867 13.664 18.48 12.208H10.248V10.612H20.552V12.04C20.4587 13.7573 19.992 15.316 19.152 16.716C18.312 18.0973 17.1827 19.1893 15.764 19.992C14.364 20.7947 12.7867 21.196 11.032 21.196C9.22133 21.196 7.57867 20.776 6.104 19.936C4.62933 19.0773 3.46267 17.892 2.604 16.38C1.764 14.8493 1.344 13.1227 1.344 11.2C1.344 9.27733 1.764 7.56 2.604 6.048C3.46267 4.51733 4.62933 3.332 6.104 2.492C7.57867 1.63333 9.22133 1.204 11.032 1.204C13.1227 1.204 14.952 1.72667 16.52 2.772C18.088 3.81733 19.2267 5.27333 19.936 7.14H17.64ZM26.1023 8.428C26.5317 7.476 27.185 6.73867 28.0623 6.216C28.9583 5.69333 30.0503 5.432 31.3383 5.432V7.476H30.8063C29.3877 7.476 28.249 7.85867 27.3903 8.624C26.5317 9.38933 26.1023 10.668 26.1023 12.46V21H24.1423V5.712H26.1023V8.428ZM40.9789 21.224C39.5415 21.224 38.2442 20.9067 37.0869 20.272C35.9482 19.6187 35.0429 18.704 34.3709 17.528C33.7175 16.3333 33.3909 14.9427 33.3909 13.356C33.3909 11.7693 33.7269 10.388 34.3989 9.212C35.0709 8.01733 35.9855 7.10267 37.1429 6.468C38.3002 5.81467 39.5975 5.488 41.0349 5.488C42.4722 5.488 43.7695 5.81467 44.9269 6.468C46.1029 7.10267 47.0175 8.01733 47.6709 9.212C48.3429 10.388 48.6789 11.7693 48.6789 13.356C48.6789 14.924 48.3429 16.3053 47.6709 17.5C46.9989 18.6947 46.0749 19.6187 44.8989 20.272C43.7229 20.9067 42.4162 21.224 40.9789 21.224ZM40.9789 19.516C41.9869 19.516 42.9202 19.292 43.7789 18.844C44.6375 18.3773 45.3282 17.6867 45.8509 16.772C46.3922 15.8387 46.6629 14.7 46.6629 13.356C46.6629 12.012 46.4015 10.8827 45.8789 9.968C45.3562 9.03467 44.6655 8.344 43.8069 7.896C42.9482 7.42933 42.0149 7.196 41.0069 7.196C39.9989 7.196 39.0655 7.42933 38.2069 7.896C37.3482 8.344 36.6575 9.03467 36.1349 9.968C35.6309 10.8827 35.3789 12.012 35.3789 13.356C35.3789 14.7 35.6309 15.8387 36.1349 16.772C36.6575 17.6867 37.3389 18.3773 38.1789 18.844C39.0375 19.292 39.9709 19.516 40.9789 19.516ZM72.4117 5.712L67.6237 21H65.6637L61.4357 8.176L57.2077 21H55.2197L50.4317 5.712H52.4197L56.2277 19.012L60.5117 5.712H62.4717L66.6997 19.04L70.4797 5.712H72.4117ZM81.3558 21.196C80.0491 21.196 78.8731 20.972 77.8278 20.524C76.7824 20.0573 75.9611 19.404 75.3638 18.564C74.7664 17.724 74.4678 16.744 74.4678 15.624H77.8838C77.9584 16.464 78.2851 17.1547 78.8638 17.696C79.4611 18.2373 80.2918 18.508 81.3558 18.508C82.4571 18.508 83.3158 18.2467 83.9318 17.724C84.5478 17.1827 84.8558 16.492 84.8558 15.652C84.8558 14.9987 84.6598 14.4667 84.2678 14.056C83.8944 13.6453 83.4184 13.328 82.8398 13.104C82.2798 12.88 81.4958 12.6373 80.4878 12.376C79.2184 12.04 78.1824 11.704 77.3798 11.368C76.5958 11.0133 75.9238 10.472 75.3638 9.744C74.8038 9.016 74.5238 8.04533 74.5238 6.832C74.5238 5.712 74.8038 4.732 75.3638 3.892C75.9238 3.052 76.7078 2.408 77.7158 1.96C78.7238 1.512 79.8904 1.288 81.2158 1.288C83.1011 1.288 84.6411 1.764 85.8358 2.716C87.0491 3.64933 87.7211 4.93733 87.8518 6.58H84.3238C84.2678 5.87067 83.9318 5.264 83.3158 4.76C82.6998 4.256 81.8878 4.004 80.8798 4.004C79.9651 4.004 79.2184 4.23733 78.6398 4.704C78.0611 5.17067 77.7718 5.84267 77.7718 6.72C77.7718 7.31733 77.9491 7.812 78.3038 8.204C78.6771 8.57733 79.1438 8.876 79.7038 9.1C80.2638 9.324 81.0291 9.56667 81.9998 9.828C83.2878 10.1827 84.3331 10.5373 85.1358 10.892C85.9571 11.2467 86.6478 11.7973 87.2078 12.544C87.7864 13.272 88.0758 14.252 88.0758 15.484C88.0758 16.4733 87.8051 17.4067 87.2638 18.284C86.7411 19.1613 85.9664 19.8707 84.9398 20.412C83.9318 20.9347 82.7371 21.196 81.3558 21.196ZM95.5662 8.176V16.716C95.5662 17.2947 95.6969 17.7147 95.9582 17.976C96.2382 18.2187 96.7049 18.34 97.3582 18.34H99.3182V21H96.7982C95.3609 21 94.2595 20.664 93.4942 19.992C92.7289 19.32 92.3462 18.228 92.3462 16.716V8.176H90.5262V5.572H92.3462V1.736H95.5662V5.572H99.3182V8.176H95.5662ZM101.196 13.216C101.196 11.6667 101.513 10.2947 102.148 9.1C102.801 7.90533 103.679 6.98133 104.78 6.328C105.9 5.656 107.132 5.32 108.476 5.32C109.689 5.32 110.744 5.56267 111.64 6.048C112.555 6.51467 113.283 7.10267 113.824 7.812V5.572H117.044V21H113.824V18.704C113.283 19.432 112.545 20.0387 111.612 20.524C110.679 21.0093 109.615 21.252 108.42 21.252C107.095 21.252 105.881 20.916 104.78 20.244C103.679 19.5533 102.801 18.6013 102.148 17.388C101.513 16.156 101.196 14.7653 101.196 13.216ZM113.824 13.272C113.824 12.208 113.6 11.284 113.152 10.5C112.723 9.716 112.153 9.11867 111.444 8.708C110.735 8.29733 109.969 8.092 109.148 8.092C108.327 8.092 107.561 8.29733 106.852 8.708C106.143 9.1 105.564 9.688 105.116 10.472C104.687 11.2373 104.472 12.152 104.472 13.216C104.472 14.28 104.687 15.2133 105.116 16.016C105.564 16.8187 106.143 17.4347 106.852 17.864C107.58 18.2747 108.345 18.48 109.148 18.48C109.969 18.48 110.735 18.2747 111.444 17.864C112.153 17.4533 112.723 16.856 113.152 16.072C113.6 15.2693 113.824 14.336 113.824 13.272ZM120.173 13.272C120.173 11.6853 120.49 10.2947 121.125 9.1C121.778 7.88667 122.674 6.95333 123.813 6.3C124.951 5.64667 126.258 5.32 127.733 5.32C129.599 5.32 131.139 5.768 132.353 6.664C133.585 7.54133 134.415 8.80133 134.845 10.444H131.401C131.121 9.67867 130.673 9.08133 130.057 8.652C129.441 8.22267 128.666 8.008 127.733 8.008C126.426 8.008 125.381 8.47467 124.597 9.408C123.831 10.3227 123.449 11.6107 123.449 13.272C123.449 14.9333 123.831 16.2307 124.597 17.164C125.381 18.0973 126.426 18.564 127.733 18.564C129.581 18.564 130.803 17.752 131.401 16.128H134.845C134.397 17.696 133.557 18.9467 132.325 19.88C131.093 20.7947 129.562 21.252 127.733 21.252C126.258 21.252 124.951 20.9253 123.813 20.272C122.674 19.6 121.778 18.6667 121.125 17.472C120.49 16.2587 120.173 14.8587 120.173 13.272ZM144.13 13.3L151.242 21H146.93L141.218 14.364V21H138.026V0.28H141.218V12.32L146.818 5.572H151.242L144.13 13.3Z" fill="white"/>
</svg>
