<svg width="13" height="13" viewBox="0 0 13 13" fill="none" xmlns="http://www.w3.org/2000/svg">
<path d="M6.31429 4.49432C6.99557 3.79843 7.88254 3.34286 8.91429 3.34286C11.1707 3.34286 13 5.17207 13 7.42857V13H11.5143V7.42857C11.5143 5.99263 10.3502 4.82857 8.91429 4.82857C7.47835 4.82857 6.31429 5.99263 6.31429 7.42857V13H4.82858V3.71429H6.31429V4.49432ZM1.11428 2.22857C0.49888 2.22857 0 1.72969 0 1.11429C0 0.498881 0.49888 0 1.11428 0C1.72968 0 2.22857 0.498881 2.22857 1.11429C2.22857 1.72969 1.72968 2.22857 1.11428 2.22857ZM0.371428 3.71429H1.85714V13H0.371428V3.71429Z" fill="white"/>
</svg>
