<svg width="16" height="13" viewBox="0 0 16 13" fill="none" xmlns="http://www.w3.org/2000/svg">
<path d="M11.0914 1.56197C9.82963 1.56197 8.80103 2.5523 8.77853 3.78507L8.75612 5.01516C8.75141 5.27391 8.53333 5.47993 8.26905 5.47533C8.25023 5.47501 8.23148 5.47361 8.2129 5.47111L6.96788 5.30484C5.32984 5.08616 3.75988 4.34798 2.25377 3.11931C1.77678 5.70408 2.70787 7.49527 4.95208 8.87659L6.34562 9.73435C6.5694 9.87211 6.63676 10.1614 6.49608 10.3805C6.46383 10.4307 6.42216 10.4744 6.37324 10.5094L5.10361 11.4176C5.85849 11.4641 6.57612 11.4317 7.17089 11.3155C10.934 10.5802 13.4364 7.8075 13.4364 3.23409C13.4364 2.86071 12.6289 1.56197 11.0914 1.56197ZM7.18341 3.75721C7.22138 1.67583 8.95649 0 11.0914 0C12.1789 0 13.1627 0.434837 13.8712 1.13661C14.4387 1.13243 14.9215 1.2729 16 0.632308C15.7334 1.91341 15.6011 2.46945 15.0318 3.23409C15.0318 9.20203 11.285 12.1044 7.4831 12.8472C4.87652 13.3565 1.08576 12.5203 0 11.4091C0.553135 11.3675 2.80302 11.1306 4.10297 10.199C3.00297 9.48787 -1.37515 6.9649 1.50156 0.184601C2.85241 1.72834 4.22184 2.77914 5.60989 3.33701C6.53313 3.70807 6.75991 3.70066 7.18341 3.75721Z" fill="white"/>
</svg>
