<svg width="60" height="60" viewBox="0 0 60 60" fill="none" xmlns="http://www.w3.org/2000/svg">
<g id="Subtract">
<mask id="path-1-outside-1_913_34808" maskUnits="userSpaceOnUse" x="0" y="-0.847656" width="60" height="61" fill="black">
<rect fill="white" y="-0.847656" width="60" height="61"/>
<path fill-rule="evenodd" clip-rule="evenodd" d="M27 1.15231C12.3933 2.6535 1 14.9957 1 29.999C1 46.0153 13.9837 58.999 30 58.999C44.6591 58.999 56.7779 48.1224 58.7264 33.999H27V1.15231Z"/>
</mask>
<path fill-rule="evenodd" clip-rule="evenodd" d="M27 1.15231C12.3933 2.6535 1 14.9957 1 29.999C1 46.0153 13.9837 58.999 30 58.999C44.6591 58.999 56.7779 48.1224 58.7264 33.999H27V1.15231Z" fill="#034737" fill-opacity="0.5"/>
<path d="M27 1.15231H28V0.0442731L26.8978 0.157554L27 1.15231ZM58.7264 33.999L59.717 34.1357L59.8738 32.999H58.7264V33.999ZM27 33.999H26V34.999H27V33.999ZM2 29.999C2 15.5137 13.0003 3.59639 27.1022 2.14707L26.8978 0.157554C11.7863 1.71062 0 14.4778 0 29.999H2ZM30 57.999C14.536 57.999 2 45.463 2 29.999H0C0 46.5676 13.4315 59.999 30 59.999V57.999ZM57.7358 33.8624C55.8546 47.4977 44.1528 57.999 30 57.999V59.999C45.1655 59.999 57.7012 48.747 59.717 34.1357L57.7358 33.8624ZM58.7264 32.999H27V34.999H58.7264V32.999ZM28 33.999V1.15231H26V33.999H28Z" fill="#034737" mask="url(#path-1-outside-1_913_34808)"/>
</g>
</svg>
