<svg width="54" height="51" viewBox="0 0 54 51" fill="none" xmlns="http://www.w3.org/2000/svg">
<path id="Star 1" d="M25.5734 2.0086C26.0224 0.626641 27.9776 0.626641 28.4266 2.00861L33.2599 16.884C33.5946 17.9141 34.5545 18.6115 35.6375 18.6115H51.2784C52.7315 18.6115 53.3357 20.4709 52.1601 21.325L39.5064 30.5185C38.6301 31.1551 38.2635 32.2835 38.5982 33.3136L43.4315 48.1889C43.8805 49.5709 42.2988 50.7201 41.1232 49.866L28.4695 40.6725C27.5932 40.0359 26.4068 40.0359 25.5305 40.6725L12.8768 49.866C11.7012 50.7201 10.1195 49.5709 10.5685 48.1889L15.4018 33.3136C15.7365 32.2835 15.3699 31.1551 14.4936 30.5185L1.83987 21.325C0.664307 20.4709 1.26847 18.6115 2.72156 18.6115H18.3625C19.4455 18.6115 20.4054 17.9141 20.7401 16.884L25.5734 2.0086Z" fill="#034737" fill-opacity="0.5" stroke="#034737"/>
</svg>
