<svg width="65" height="24" viewBox="0 0 65 24" fill="none" xmlns="http://www.w3.org/2000/svg">
<path id="Arrow 2" opacity="0.7" d="M0 12C0 16.4183 3.58172 20 8 20C12.4183 20 16 16.4183 16 12C16 7.58172 12.4183 4 8 4C3.58172 4 0 7.58172 0 12ZM64.0607 13.0607C64.6464 12.4749 64.6464 11.5251 64.0607 10.9393L54.5147 1.3934C53.9289 0.807611 52.9792 0.807611 52.3934 1.3934C51.8076 1.97919 51.8076 2.92893 52.3934 3.51472L60.8787 12L52.3934 20.4853C51.8076 21.0711 51.8076 22.0208 52.3934 22.6066C52.9792 23.1924 53.9289 23.1924 54.5147 22.6066L64.0607 13.0607ZM8 13.5H63V10.5H8V13.5Z" fill="#034737"/>
</svg>
