<svg width="54" height="54" viewBox="0 0 54 54" fill="none" xmlns="http://www.w3.org/2000/svg">
<path id="Line 11" d="M0.5 53C0.5 53.2761 0.723858 53.5 1 53.5L5.5 53.5C5.77614 53.5 6 53.2761 6 53C6 52.7239 5.77614 52.5 5.5 52.5L1.5 52.5L1.5 48.5C1.5 48.2239 1.27614 48 1 48C0.723858 48 0.5 48.2239 0.5 48.5L0.5 53ZM53.5 0.999998C53.5 0.723858 53.2761 0.500001 53 0.499998L48.5 0.500001C48.2239 0.499999 48 0.723856 48 1C48 1.27614 48.2239 1.5 48.5 1.5L52.5 1.5L52.5 5.5C52.5 5.77614 52.7239 6 53 6C53.2761 6 53.5 5.77614 53.5 5.5L53.5 0.999998ZM1.35355 53.3536L53.3536 1.35355L52.6464 0.646445L0.646447 52.6464L1.35355 53.3536Z" fill="#034737"/>
</svg>
