<svg width="60" height="60" viewBox="0 0 60 60" fill="none" xmlns="http://www.w3.org/2000/svg">
<path d="M52.7258 28.7501H46.2508C45.9831 25.315 44.6305 22.0538 42.3883 19.4376L45.7258 16.1126C47.2589 17.2008 49.1449 17.6735 51.0101 17.437C52.8752 17.2006 54.5836 16.2722 55.7967 14.8359C57.0098 13.3995 57.6392 11.5599 57.5602 9.68143C57.4811 7.80299 56.6995 6.02274 55.3701 4.6933C54.0406 3.36387 52.2604 2.58224 50.382 2.50323C48.5035 2.42422 46.6639 3.05361 45.2275 4.26671C43.7912 5.47981 42.8628 7.18815 42.6263 9.05332C42.3899 10.9185 42.8626 12.8045 43.9508 14.3376L40.6258 17.6751C37.9927 15.4207 34.7077 14.0673 31.2508 13.8126V9.82512C32.4291 9.52087 33.456 8.79733 34.139 7.79011C34.822 6.78288 35.1143 5.56113 34.9609 4.35387C34.8076 3.1466 34.2192 2.0367 33.3061 1.23221C32.3929 0.427727 31.2177 -0.0161133 30.0008 -0.0161133C28.7838 -0.0161133 27.6086 0.427727 26.6955 1.23221C25.7823 2.0367 25.194 3.1466 25.0406 4.35387C24.8873 5.56113 25.1795 6.78288 25.8625 7.79011C26.5455 8.79733 27.5724 9.52087 28.7508 9.82512V13.8126C25.3156 14.0803 22.0544 15.4329 19.4383 17.6751L13.0383 11.2501C13.6527 10.2011 13.8638 8.96412 13.6322 7.77066C13.4007 6.57719 12.7422 5.509 11.78 4.76591C10.8178 4.02282 9.61782 3.65574 8.40458 3.73336C7.19133 3.81099 6.04793 4.32798 5.18828 5.18763C4.32863 6.04728 3.81164 7.19068 3.73402 8.40393C3.6564 9.61717 4.02347 10.8171 4.76656 11.7793C5.50965 12.7415 6.57785 13.4 7.77131 13.6316C8.96477 13.8632 10.2017 13.652 11.2508 13.0376L17.6508 19.4376C15.4176 22.057 14.0738 25.3179 13.8133 28.7501H7.27577C6.9809 27.9161 6.40068 27.2132 5.63767 26.7656C4.87465 26.318 3.97797 26.1545 3.1061 26.3041C2.23423 26.4537 1.44331 26.9067 0.873137 27.583C0.302959 28.2594 -0.00976562 29.1155 -0.00976562 30.0001C-0.00976562 30.8847 0.302959 31.7409 0.873137 32.4172C1.44331 33.0935 2.23423 33.5465 3.1061 33.6961C3.97797 33.8457 4.87465 33.6823 5.63767 33.2347C6.40068 32.7871 6.9809 32.0841 7.27577 31.2501H13.8133C14.0809 34.6853 15.4335 37.9464 17.6758 40.5626L13.4383 44.7876C12.1458 43.9349 10.5829 43.5923 9.05223 43.8262C7.5216 44.0601 6.13229 44.8539 5.1535 46.0537C4.17471 47.2535 3.67613 48.7739 3.75436 50.3203C3.8326 51.8667 4.48208 53.329 5.57696 54.4239C6.67184 55.5188 8.13417 56.1683 9.68059 56.2465C11.227 56.3248 12.7474 55.8262 13.9472 54.8474C15.147 53.8686 15.9407 52.4793 16.1747 50.9487C16.4086 49.418 16.066 47.8551 15.2133 46.5626L19.4383 42.3251C22.0464 44.59 25.3083 45.9648 28.7508 46.2501V50.2376C27.5724 50.5419 26.5455 51.2654 25.8625 52.2726C25.1795 53.2799 24.8873 54.5016 25.0406 55.7089C25.194 56.9161 25.7823 58.026 26.6955 58.8305C27.6086 59.635 28.7838 60.0788 30.0008 60.0788C31.2177 60.0788 32.3929 59.635 33.3061 58.8305C34.2192 58.026 34.8076 56.9161 34.9609 55.7089C35.1143 54.5016 34.822 53.2799 34.139 52.2726C33.456 51.2654 32.4291 50.5419 31.2508 50.2376V46.2501C34.6859 45.9825 37.9471 44.6298 40.5633 42.3876L44.4633 46.2501C43.8489 47.2992 43.6377 48.5361 43.8693 49.7296C44.1009 50.923 44.7594 51.9912 45.7216 52.7343C46.6837 53.4774 47.8837 53.8445 49.097 53.7669C50.3102 53.6892 51.4536 53.1723 52.3133 52.3126C53.1729 51.453 53.6899 50.3096 53.7675 49.0963C53.8451 47.8831 53.4781 46.6831 52.735 45.7209C51.9919 44.7587 50.9237 44.1002 49.7302 43.8686C48.5368 43.637 47.2998 43.8482 46.2508 44.4626L42.3508 40.5626C44.6066 37.9513 45.9725 34.6896 46.2508 31.2501H52.7883C53.0831 32.0841 53.6634 32.7871 54.4264 33.2347C55.1894 33.6823 56.0861 33.8457 56.9579 33.6961C57.8298 33.5465 58.6207 33.0935 59.1909 32.4172C59.7611 31.7409 60.0738 30.8847 60.0738 30.0001C60.0738 29.1155 59.7611 28.2594 59.1909 27.583C58.6207 26.9067 57.8298 26.4537 56.9579 26.3041C56.0861 26.1545 55.1894 26.318 54.4264 26.7656C53.6634 27.2132 53.0831 27.9161 52.7883 28.7501H52.7258ZM50.0008 5.00012C50.9897 5.00012 51.9564 5.29336 52.7786 5.84277C53.6009 6.39217 54.2417 7.17307 54.6202 8.0867C54.9986 9.00033 55.0976 10.0057 54.9047 10.9756C54.7118 11.9455 54.2356 12.8364 53.5363 13.5357C52.837 14.2349 51.9461 14.7111 50.9762 14.904C50.0063 15.097 49.001 14.998 48.0873 14.6195C47.1737 14.2411 46.3928 13.6002 45.8434 12.778C45.294 11.9557 45.0008 10.989 45.0008 10.0001C45.0008 8.67403 45.5276 7.40226 46.4652 6.46458C47.4029 5.5269 48.6747 5.00012 50.0008 5.00012ZM27.5008 5.00012C27.5008 4.50566 27.6474 4.02231 27.9221 3.61119C28.1968 3.20007 28.5872 2.87964 29.0441 2.69042C29.5009 2.5012 30.0035 2.45169 30.4885 2.54815C30.9734 2.64462 31.4189 2.88272 31.7685 3.23235C32.1182 3.58198 32.3563 4.02744 32.4527 4.51239C32.5492 4.99734 32.4997 5.50001 32.3105 5.95682C32.1212 6.41364 31.8008 6.80409 31.3897 7.07879C30.9786 7.35349 30.4952 7.50012 30.0008 7.50012C29.3377 7.50012 28.7018 7.23672 28.233 6.76788C27.7642 6.29904 27.5008 5.66316 27.5008 5.00012ZM6.25077 8.75012C6.25077 8.25566 6.39739 7.77231 6.67209 7.36119C6.9468 6.95007 7.33724 6.62964 7.79406 6.44042C8.25087 6.2512 8.75354 6.20169 9.23849 6.29815C9.72345 6.39462 10.1689 6.63272 10.5185 6.98235C10.8682 7.33198 11.1063 7.77744 11.2027 8.26239C11.2992 8.74734 11.2497 9.25001 11.0605 9.70682C10.8712 10.1636 10.5508 10.5541 10.1397 10.8288C9.72857 11.1035 9.24522 11.2501 8.75077 11.2501C8.08773 11.2501 7.45184 10.9867 6.983 10.5179C6.51416 10.049 6.25077 9.41316 6.25077 8.75012ZM3.75077 31.2501C3.41925 31.2501 3.10131 31.1184 2.86688 30.884C2.63246 30.6496 2.50077 30.3316 2.50077 30.0001C2.50077 29.6686 2.63246 29.3507 2.86688 29.1162C3.10131 28.8818 3.41925 28.7501 3.75077 28.7501C4.08229 28.7501 4.40023 28.8818 4.63465 29.1162C4.86907 29.3507 5.00077 29.6686 5.00077 30.0001C5.00077 30.3316 4.86907 30.6496 4.63465 30.884C4.40023 31.1184 4.08229 31.2501 3.75077 31.2501ZM26.2508 31.2501V28.7501H33.7508V31.2501C33.7508 32.2447 33.3557 33.1985 32.6524 33.9018C31.9492 34.605 30.9953 35.0001 30.0008 35.0001C29.0062 35.0001 28.0524 34.605 27.3491 33.9018C26.6459 33.1985 26.2508 32.2447 26.2508 31.2501ZM25.8508 23.9126C25.7383 23.6751 25.0008 23.7501 32.5008 23.7501C32.8323 23.7501 33.1502 23.8818 33.3847 24.1162C33.6191 24.3507 33.7508 24.6686 33.7508 25.0001V26.2501H26.2508C26.3301 25.4492 26.1919 24.6416 25.8508 23.9126ZM36.2508 37.5001C36.9805 37.5 37.6945 37.7128 38.3051 38.1125C38.9157 38.5121 39.3964 39.0813 39.6883 39.7501C37.1126 42.3073 33.6303 43.7423 30.0008 43.7423C26.3713 43.7423 22.889 42.3073 20.3133 39.7501C20.6052 39.0813 21.0859 38.5121 21.6965 38.1125C22.3071 37.7128 23.021 37.5 23.7508 37.5001H36.2508ZM10.0008 53.7501C9.25909 53.7501 8.53406 53.5302 7.91738 53.1181C7.3007 52.7061 6.82005 52.1204 6.53622 51.4352C6.25239 50.75 6.17813 49.996 6.32282 49.2685C6.46752 48.5411 6.82467 47.8729 7.34912 47.3485C7.87356 46.824 8.54175 46.4669 9.26918 46.3222C9.99661 46.1775 10.7506 46.2517 11.4358 46.5356C12.1211 46.8194 12.7067 47.3 13.1188 47.9167C13.5308 48.5334 13.7508 49.2584 13.7508 50.0001C13.7508 50.9947 13.3557 51.9485 12.6524 52.6518C11.9492 53.355 10.9953 53.7501 10.0008 53.7501ZM32.5008 55.0001C32.5008 55.4946 32.3541 55.9779 32.0794 56.389C31.8047 56.8002 31.4143 57.1206 30.9575 57.3098C30.5007 57.499 29.998 57.5485 29.513 57.4521C29.0281 57.3556 28.5826 57.1175 28.233 56.7679C27.8834 56.4183 27.6453 55.9728 27.5488 55.4878C27.4523 55.0029 27.5018 54.5002 27.6911 54.0434C27.8803 53.5866 28.2007 53.1961 28.6118 52.9214C29.023 52.6467 29.5063 52.5001 30.0008 52.5001C30.6638 52.5001 31.2997 52.7635 31.7685 53.2323C32.2374 53.7012 32.5008 54.3371 32.5008 55.0001ZM51.2508 48.7501C51.2508 49.2446 51.1041 49.7279 50.8294 50.139C50.5547 50.5502 50.1643 50.8706 49.7075 51.0598C49.2507 51.249 48.748 51.2985 48.263 51.2021C47.7781 51.1056 47.3326 50.8675 46.983 50.5179C46.6334 50.1683 46.3953 49.7228 46.2988 49.2378C46.2023 48.7529 46.2518 48.2502 46.4411 47.7934C46.6303 47.3366 46.9507 46.9461 47.3618 46.6714C47.773 46.3967 48.2563 46.2501 48.7508 46.2501C49.4138 46.2501 50.0497 46.5135 50.5185 46.9823C50.9874 47.4512 51.2508 48.0871 51.2508 48.7501ZM41.3883 37.7001C39.5633 35.0001 37.1133 35.0001 35.0008 35.0001C36.7008 32.7501 36.2508 31.0376 36.2508 25.0001C36.2508 24.0056 35.8557 23.0517 35.1524 22.3485C34.4492 21.6452 33.4953 21.2501 32.5008 21.2501C22.9508 21.2501 23.1758 21.0376 22.6883 21.8376C22.2008 22.6376 22.6883 23.1501 23.6133 25.0376C23.7883 25.3626 23.7508 25.4251 23.7508 27.5376C23.7508 31.2126 23.4508 32.9376 25.0008 35.0376C22.7383 35.0376 20.4008 35.1001 18.5758 37.7376C17.1764 35.6698 16.3665 33.2599 16.2329 30.7667C16.0994 28.2734 16.6473 25.7908 17.8178 23.5853C18.9883 21.3799 20.7373 19.5347 22.877 18.248C25.0167 16.9612 27.4664 16.2813 29.9633 16.2813C32.4601 16.2813 34.9098 16.9612 37.0495 18.248C39.1893 19.5347 40.9382 21.3799 42.1087 23.5853C43.2792 25.7908 43.8271 28.2734 43.6936 30.7667C43.5601 33.2599 42.7501 35.6698 41.3508 37.7376L41.3883 37.7001ZM56.2508 31.2501C55.9192 31.2501 55.6013 31.1184 55.3669 30.884C55.1325 30.6496 55.0008 30.3316 55.0008 30.0001C55.0008 29.6686 55.1325 29.3507 55.3669 29.1162C55.6013 28.8818 55.9192 28.7501 56.2508 28.7501C56.5823 28.7501 56.9002 28.8818 57.1347 29.1162C57.3691 29.3507 57.5008 29.6686 57.5008 30.0001C57.5008 30.3316 57.3691 30.6496 57.1347 30.884C56.9002 31.1184 56.5823 31.2501 56.2508 31.2501Z" fill="#14171B"/>
</svg>
