<svg width="42" height="60" viewBox="0 0 42 60" fill="none" xmlns="http://www.w3.org/2000/svg">
<path d="M0.952381 0C0.699794 0 0.457552 0.10034 0.278946 0.278946C0.10034 0.457552 0 0.699794 0 0.952381V12.381C0 12.6335 0.10034 12.8758 0.278946 13.0544C0.457552 13.233 0.699794 13.3333 0.952381 13.3333H20V17.1429H0.952381C0.699794 17.1429 0.457552 17.2432 0.278946 17.4218C0.10034 17.6004 0 17.8427 0 18.0952V29.5238C0 29.7764 0.10034 30.0186 0.278946 30.1972C0.457552 30.3759 0.699794 30.4762 0.952381 30.4762H20V34.2857H0.952381C0.699794 34.2857 0.457552 34.3861 0.278946 34.5647C0.10034 34.7433 0 34.9855 0 35.2381V46.6667C0 46.9193 0.10034 47.1615 0.278946 47.3401C0.457552 47.5187 0.699794 47.619 0.952381 47.619H20V50.4762H17.1429C16.8903 50.4762 16.648 50.5765 16.4694 50.7551C16.2908 50.9337 16.1905 51.176 16.1905 51.4286V54.4895H0V56.3943H16.1905V59.0476C16.1905 59.3002 16.2908 59.5424 16.4694 59.7211C16.648 59.8997 16.8903 60 17.1429 60H24.7619C25.0145 60 25.2567 59.8997 25.4353 59.7211C25.6139 59.5424 25.7143 59.3002 25.7143 59.0476V56.3943H41.9048V54.4895H25.7143V51.4286C25.7143 51.176 25.6139 50.9337 25.4353 50.7551C25.2567 50.5765 25.0145 50.4762 24.7619 50.4762H21.9048V47.619H40.9524C41.205 47.619 41.4472 47.5187 41.6258 47.3401C41.8044 47.1615 41.9048 46.9193 41.9048 46.6667V35.2381C41.9048 34.9855 41.8044 34.7433 41.6258 34.5647C41.4472 34.3861 41.205 34.2857 40.9524 34.2857H21.9048V30.4762H40.9524C41.205 30.4762 41.4472 30.3759 41.6258 30.1972C41.8044 30.0186 41.9048 29.7764 41.9048 29.5238V18.0952C41.9048 17.8427 41.8044 17.6004 41.6258 17.4218C41.4472 17.2432 41.205 17.1429 40.9524 17.1429H21.9048V13.3333H40.9524C41.205 13.3333 41.4472 13.233 41.6258 13.0544C41.8044 12.8758 41.9048 12.6335 41.9048 12.381V0.952381C41.9048 0.699794 41.8044 0.457552 41.6258 0.278946C41.4472 0.10034 41.205 0 40.9524 0L0.952381 0ZM1.90476 1.90476H40V11.4286H1.90476V1.90476ZM3.76952 3.80952V9.52381H5.67429V3.80952H3.76952ZM7.61905 3.80952V9.52381H9.52381V3.80952H7.61905ZM11.4286 3.80952V9.52381H13.3333V3.80952H11.4286ZM15.2381 3.80952V9.52381H17.1429V3.80952H15.2381ZM29.5238 5.71429C29.2712 5.71429 29.029 5.81463 28.8504 5.99323C28.6718 6.17184 28.5714 6.41408 28.5714 6.66667C28.5714 6.91925 28.6718 7.1615 28.8504 7.3401C29.029 7.51871 29.2712 7.61905 29.5238 7.61905C29.7764 7.61905 30.0186 7.51871 30.1972 7.3401C30.3759 7.1615 30.4762 6.91925 30.4762 6.66667C30.4762 6.41408 30.3759 6.17184 30.1972 5.99323C30.0186 5.81463 29.7764 5.71429 29.5238 5.71429ZM33.3333 5.71429C33.0807 5.71429 32.8385 5.81463 32.6599 5.99323C32.4813 6.17184 32.381 6.41408 32.381 6.66667C32.381 6.91925 32.4813 7.1615 32.6599 7.3401C32.8385 7.51871 33.0807 7.61905 33.3333 7.61905C33.5859 7.61905 33.8282 7.51871 34.0068 7.3401C34.1854 7.1615 34.2857 6.91925 34.2857 6.66667C34.2857 6.41408 34.1854 6.17184 34.0068 5.99323C33.8282 5.81463 33.5859 5.71429 33.3333 5.71429ZM37.1429 5.71429C36.8903 5.71429 36.648 5.81463 36.4694 5.99323C36.2908 6.17184 36.1905 6.41408 36.1905 6.66667C36.1905 6.91925 36.2908 7.1615 36.4694 7.3401C36.648 7.51871 36.8903 7.61905 37.1429 7.61905C37.3954 7.61905 37.6377 7.51871 37.8163 7.3401C37.9949 7.1615 38.0952 6.91925 38.0952 6.66667C38.0952 6.41408 37.9949 6.17184 37.8163 5.99323C37.6377 5.81463 37.3954 5.71429 37.1429 5.71429ZM1.90476 19.0476H40V28.5714H1.90476V19.0476ZM3.76952 20.9524V26.6667H5.67429V20.9524H3.76952ZM7.61905 20.9524V26.6667H9.52381V20.9524H7.61905ZM11.4286 20.9524V26.6667H13.3333V20.9524H11.4286ZM15.2381 20.9524V26.6667H17.1429V20.9524H15.2381ZM29.5238 22.8571C29.2712 22.8571 29.029 22.9575 28.8504 23.1361C28.6718 23.3147 28.5714 23.5569 28.5714 23.8095C28.5714 24.0621 28.6718 24.3044 28.8504 24.483C29.029 24.6616 29.2712 24.7619 29.5238 24.7619C29.7764 24.7619 30.0186 24.6616 30.1972 24.483C30.3759 24.3044 30.4762 24.0621 30.4762 23.8095C30.4762 23.5569 30.3759 23.3147 30.1972 23.1361C30.0186 22.9575 29.7764 22.8571 29.5238 22.8571ZM33.3333 22.8571C33.0807 22.8571 32.8385 22.9575 32.6599 23.1361C32.4813 23.3147 32.381 23.5569 32.381 23.8095C32.381 24.0621 32.4813 24.3044 32.6599 24.483C32.8385 24.6616 33.0807 24.7619 33.3333 24.7619C33.5859 24.7619 33.8282 24.6616 34.0068 24.483C34.1854 24.3044 34.2857 24.0621 34.2857 23.8095C34.2857 23.5569 34.1854 23.3147 34.0068 23.1361C33.8282 22.9575 33.5859 22.8571 33.3333 22.8571ZM37.1429 22.8571C36.8903 22.8571 36.648 22.9575 36.4694 23.1361C36.2908 23.3147 36.1905 23.5569 36.1905 23.8095C36.1905 24.0621 36.2908 24.3044 36.4694 24.483C36.648 24.6616 36.8903 24.7619 37.1429 24.7619C37.3954 24.7619 37.6377 24.6616 37.8163 24.483C37.9949 24.3044 38.0952 24.0621 38.0952 23.8095C38.0952 23.5569 37.9949 23.3147 37.8163 23.1361C37.6377 22.9575 37.3954 22.8571 37.1429 22.8571ZM1.90476 36.1905H40V45.7143H1.90476V36.1905ZM3.76952 38.0952V43.8095H5.67429V38.0952H3.76952ZM7.61905 38.0952V43.8095H9.52381V38.0952H7.61905ZM11.4286 38.0952V43.8095H13.3333V38.0952H11.4286ZM15.2381 38.0952V43.8095H17.1429V38.0952H15.2381ZM29.5238 40C29.2712 40 29.029 40.1003 28.8504 40.2789C28.6718 40.4576 28.5714 40.6998 28.5714 40.9524C28.5714 41.205 28.6718 41.4472 28.8504 41.6258C29.029 41.8044 29.2712 41.9048 29.5238 41.9048C29.7764 41.9048 30.0186 41.8044 30.1972 41.6258C30.3759 41.4472 30.4762 41.205 30.4762 40.9524C30.4762 40.6998 30.3759 40.4576 30.1972 40.2789C30.0186 40.1003 29.7764 40 29.5238 40ZM33.3333 40C33.0807 40 32.8385 40.1003 32.6599 40.2789C32.4813 40.4576 32.381 40.6998 32.381 40.9524C32.381 41.205 32.4813 41.4472 32.6599 41.6258C32.8385 41.8044 33.0807 41.9048 33.3333 41.9048C33.5859 41.9048 33.8282 41.8044 34.0068 41.6258C34.1854 41.4472 34.2857 41.205 34.2857 40.9524C34.2857 40.6998 34.1854 40.4576 34.0068 40.2789C33.8282 40.1003 33.5859 40 33.3333 40ZM37.1429 40C36.8903 40 36.648 40.1003 36.4694 40.2789C36.2908 40.4576 36.1905 40.6998 36.1905 40.9524C36.1905 41.205 36.2908 41.4472 36.4694 41.6258C36.648 41.8044 36.8903 41.9048 37.1429 41.9048C37.3954 41.9048 37.6377 41.8044 37.8163 41.6258C37.9949 41.4472 38.0952 41.205 38.0952 40.9524C38.0952 40.6998 37.9949 40.4576 37.8163 40.2789C37.6377 40.1003 37.3954 40 37.1429 40ZM18.0952 52.381H23.8095V58.0952H18.0952V52.381Z" fill="#14171B"/>
</svg>
