<svg width="230" height="1077" viewBox="0 0 230 1077" fill="none" xmlns="http://www.w3.org/2000/svg">
<circle cx="115" cy="10" r="10" fill="#034737"/>
<g filter="url(#filter0_bd_17_6091)">
<rect x="72" y="961" width="86.6484" height="91.8193" rx="27.0776" fill="#034737"/>
<rect x="71.3231" y="960.323" width="88.0023" height="93.1732" rx="27.7546" stroke="#EAEAEA" stroke-width="1.35388"/>
</g>
<circle cx="129.208" cy="1021.04" r="3.91667" transform="rotate(-180 129.208 1021.04)" stroke="white" stroke-width="2.54583" stroke-linecap="round" stroke-linejoin="round"/>
<circle cx="101.792" cy="993.626" r="3.91667" transform="rotate(-180 101.792 993.626)" stroke="white" stroke-width="2.54583" stroke-linecap="round" stroke-linejoin="round"/>
<circle cx="101.792" cy="1021.04" r="3.91667" transform="rotate(-180 101.792 1021.04)" stroke="white" stroke-width="2.54583" stroke-linecap="round" stroke-linejoin="round"/>
<circle cx="129.208" cy="993.626" r="3.91667" transform="rotate(-180 129.208 993.626)" stroke="white" stroke-width="2.54583" stroke-linecap="round" stroke-linejoin="round"/>
<path d="M127.171 997.464C127.668 996.967 127.668 996.161 127.171 995.664C126.674 995.166 125.868 995.166 125.371 995.664L127.171 997.464ZM103.829 1017.21C103.332 1017.7 103.332 1018.51 103.829 1019.01C104.326 1019.5 105.132 1019.5 105.629 1019.01L103.829 1017.21ZM127.935 1017.13C127.935 1017.83 128.505 1018.4 129.208 1018.4C129.911 1018.4 130.481 1017.83 130.481 1017.13L127.935 1017.13ZM130.481 997.543C130.481 996.84 129.911 996.27 129.208 996.27C128.505 996.27 127.935 996.84 127.935 997.543L130.481 997.543ZM100.519 1017.13C100.519 1017.83 101.089 1018.4 101.792 1018.4C102.495 1018.4 103.065 1017.83 103.065 1017.13L100.519 1017.13ZM103.065 997.543C103.065 996.84 102.495 996.27 101.792 996.27C101.089 996.27 100.519 996.84 100.519 997.543L103.065 997.543ZM125.371 995.664L103.829 1017.21L105.629 1019.01L127.171 997.464L125.371 995.664ZM130.481 1017.13L130.481 997.543L127.935 997.543L127.935 1017.13L130.481 1017.13ZM103.065 1017.13L103.065 997.543L100.519 997.543L100.519 1017.13L103.065 1017.13Z" fill="white"/>
<path d="M115 10L116 976" stroke="#034737" stroke-dasharray="15 15"/>
<line y1="149.5" x2="115" y2="149.5" stroke="#034737" stroke-dasharray="15 15"/>
<line x1="115" y1="342.5" x2="230" y2="342.5" stroke="#034737" stroke-dasharray="15 15"/>
<rect x="85" y="184" width="60" height="60" rx="30" fill="#034737"/>
<path d="M121.526 224.776C121.892 227.058 122.678 228.381 123.163 228.381C123.647 228.381 124.433 227.058 124.799 224.776H121.526Z" fill="white"/>
<path d="M119.869 222.164C119.869 221.779 119.884 221.395 119.906 221.014H116.336C116.273 221.389 116.232 221.771 116.232 222.164C116.232 222.557 116.272 222.939 116.336 223.314H119.906C119.882 222.934 119.869 222.549 119.869 222.164Z" fill="white"/>
<path d="M126.455 222.164C126.455 222.549 126.44 222.934 126.418 223.314H129.988C130.051 222.939 130.092 222.557 130.092 222.164C130.092 221.771 130.051 221.389 129.988 221.014H126.418C126.442 221.395 126.455 221.78 126.455 222.164Z" fill="white"/>
<path d="M126.273 219.554H129.578C128.751 217.53 126.994 215.988 124.842 215.45C125.551 216.372 126.032 217.869 126.273 219.554Z" fill="white"/>
<path d="M124.958 221.014H121.369C121.345 221.382 121.33 221.763 121.33 222.164C121.33 222.565 121.345 222.946 121.369 223.314H124.958C124.982 222.946 124.997 222.565 124.997 222.164C124.997 221.763 124.982 221.382 124.958 221.014Z" fill="white"/>
<path d="M126.273 224.775C126.03 226.461 125.551 227.959 124.842 228.88C126.994 228.341 128.751 226.799 129.578 224.775H126.273Z" fill="white"/>
<path d="M124.799 219.553C124.433 217.271 123.647 215.948 123.163 215.948C122.678 215.948 121.892 217.271 121.526 219.553H124.799Z" fill="white"/>
<path d="M120.053 224.775H116.748C117.575 226.799 119.332 228.341 121.484 228.88C120.774 227.959 120.294 226.461 120.053 224.775Z" fill="white"/>
<path d="M120.054 219.554C120.296 217.868 120.774 216.372 121.484 215.45C119.332 215.99 117.575 217.53 116.748 219.554H120.054Z" fill="white"/>
<path d="M126.455 204.997V203.536C126.455 201.523 124.818 199.884 122.804 199.884H104.549C102.536 199.884 100.897 201.522 100.897 203.536V204.997H126.455ZM110.026 201.711C110.631 201.711 111.121 202.201 111.121 202.806C111.121 203.411 110.631 203.901 110.026 203.901C109.42 203.901 108.93 203.411 108.93 202.806C108.93 202.201 109.42 201.711 110.026 201.711ZM107.105 201.711C107.71 201.711 108.201 202.201 108.201 202.806C108.201 203.411 107.71 203.901 107.105 203.901C106.5 203.901 106.01 203.411 106.01 202.806C106.01 202.201 106.5 201.711 107.105 201.711ZM104.183 201.711C104.789 201.711 105.279 202.201 105.279 202.806C105.279 203.411 104.789 203.901 104.183 203.901C103.578 203.901 103.088 203.411 103.088 202.806C103.088 202.201 103.578 201.711 104.183 201.711Z" fill="white"/>
<path d="M106.011 210.837H108.931V215.219H106.011V210.837Z" fill="white"/>
<path d="M114.756 222.164C114.756 221.27 114.9 220.409 115.159 219.6H105.279C104.876 219.6 104.549 219.273 104.549 218.87C104.549 218.468 104.876 218.14 105.279 218.14H115.785C116.072 217.616 116.417 217.129 116.806 216.68H112.582C112.179 216.68 111.852 216.352 111.852 215.95C111.852 215.547 112.179 215.22 112.582 215.22H118.435C119.784 214.3 121.41 213.759 123.163 213.759C124.33 213.759 125.445 214 126.457 214.433V206.456H100.897V218.87C100.897 220.883 102.535 222.522 104.549 222.522H114.774C114.768 222.403 114.756 222.285 114.756 222.164ZM112.582 209.378H122.806C123.208 209.378 123.535 209.705 123.535 210.108C123.535 210.51 123.208 210.838 122.806 210.838H112.582C112.18 210.838 111.852 210.51 111.852 210.108C111.852 209.705 112.18 209.378 112.582 209.378ZM112.582 212.298H122.806C123.208 212.298 123.535 212.626 123.535 213.028C123.535 213.431 123.208 213.758 122.806 213.758H112.582C112.18 213.758 111.852 213.431 111.852 213.028C111.852 212.626 112.18 212.298 112.582 212.298ZM104.549 210.108C104.549 209.705 104.877 209.378 105.279 209.378H109.66C110.063 209.378 110.39 209.705 110.39 210.108V215.95C110.39 216.352 110.063 216.68 109.66 216.68H105.279C104.877 216.68 104.549 216.352 104.549 215.95V210.108Z" fill="white"/>
<rect x="141" y="313" width="60" height="60" rx="30" fill="#034737"/>
<path d="M171.06 326.262C161.805 326.262 154.262 333.806 154.262 343.061C154.262 348.3 156.674 352.987 160.463 356.073C160.478 356.089 160.493 356.103 160.508 356.103C163.395 358.455 167.06 359.86 171.061 359.86C175.062 359.86 178.727 358.455 181.614 356.103C181.629 356.103 181.644 356.087 181.659 356.073C185.446 352.987 187.86 348.3 187.86 343.061C187.86 333.806 180.317 326.262 171.062 326.262H171.06ZM168.265 344.085C166.586 343.107 165.455 341.29 165.455 339.212C165.455 336.127 167.974 333.607 171.06 333.607C174.145 333.607 176.664 336.127 176.664 339.212C176.664 341.304 175.519 343.123 173.84 344.085C173.015 344.543 172.069 344.818 171.061 344.818C170.053 344.818 169.091 344.543 168.266 344.085H168.265ZM161.684 355.111C161.668 354.866 161.654 354.607 161.654 354.348C161.654 350.407 164.098 346.91 167.762 345.535C168.755 346.055 169.87 346.344 171.061 346.344C172.252 346.344 173.367 346.053 174.359 345.535C178.024 346.91 180.468 350.407 180.468 354.348C180.468 354.607 180.452 354.867 180.438 355.111C177.857 357.127 174.604 358.334 171.062 358.334C167.519 358.334 164.266 357.127 161.687 355.111H161.684Z" fill="white"/>
<rect x="86" y="526" width="60" height="60" rx="30" fill="#034737"/>
<path fill-rule="evenodd" clip-rule="evenodd" d="M126.844 556.781C126.748 558.226 126.368 559.595 125.76 560.828L129.63 563.063C130.307 562.485 131.301 562.365 132.115 562.835C133.149 563.431 133.502 564.753 132.906 565.787C132.31 566.82 130.988 567.173 129.954 566.577C129.14 566.107 128.748 565.185 128.91 564.311L125.037 562.076C124.252 563.245 123.244 564.252 122.076 565.037L124.312 568.91C125.185 568.747 126.107 569.14 126.577 569.954C127.173 570.988 126.82 572.31 125.787 572.906C124.753 573.502 123.431 573.149 122.835 572.115C122.365 571.301 122.485 570.307 123.064 569.63L120.828 565.76C119.595 566.368 118.226 566.748 116.781 566.844V571.312C117.621 571.609 118.222 572.411 118.222 573.351C118.222 574.543 117.253 575.512 116.061 575.512C114.869 575.512 113.9 574.543 113.9 573.351C113.9 572.411 114.501 571.609 115.341 571.312V566.844C113.896 566.748 112.527 566.368 111.294 565.76L109.059 569.63C109.637 570.307 109.757 571.301 109.287 572.115C108.691 573.149 107.369 573.502 106.335 572.906C105.302 572.31 104.949 570.988 105.545 569.954C106.015 569.14 106.937 568.747 107.811 568.91L110.046 565.037C108.877 564.252 107.87 563.243 107.085 562.076L103.213 564.311C103.375 565.185 102.982 566.107 102.168 566.577C101.134 567.173 99.8122 566.82 99.216 565.787C98.6199 564.753 98.9729 563.431 100.007 562.835C100.821 562.365 101.815 562.485 102.492 563.063L106.363 560.828C105.754 559.595 105.374 558.226 105.278 556.781H100.81C100.513 557.621 99.7113 558.222 98.7711 558.222C97.5788 558.222 96.6099 557.253 96.6099 556.061C96.6099 554.869 97.5788 553.9 98.7711 553.9C99.7113 553.9 100.513 554.501 100.81 555.341H105.278C105.374 553.896 105.754 552.527 106.363 551.294L102.492 549.059C101.815 549.637 100.821 549.757 100.007 549.287C98.9729 548.691 98.6199 547.369 99.216 546.335C99.8122 545.302 101.134 544.949 102.168 545.545C102.982 546.015 103.375 546.937 103.213 547.81L107.085 550.046C107.87 548.877 108.879 547.87 110.046 547.085L107.811 543.212C106.937 543.374 106.015 542.982 105.545 542.168C104.949 541.134 105.302 539.812 106.335 539.216C107.369 538.62 108.691 538.973 109.287 540.007C109.757 540.821 109.637 541.815 109.059 542.492L111.294 546.362C112.527 545.754 113.896 545.374 115.341 545.278V540.81C114.501 540.513 113.9 539.711 113.9 538.771C113.9 537.579 114.869 536.61 116.061 536.61C117.253 536.61 118.222 537.579 118.222 538.771C118.222 539.711 117.621 540.513 116.781 540.81V545.278C118.226 545.374 119.595 545.754 120.828 546.362L123.064 542.492C122.485 541.815 122.365 540.821 122.835 540.007C123.431 538.973 124.753 538.62 125.787 539.216C126.82 539.812 127.173 541.134 126.577 542.168C126.107 542.982 125.185 543.375 124.312 543.212L122.076 547.085C123.245 547.87 124.252 548.878 125.037 550.046L128.91 547.81C128.748 546.937 129.14 546.015 129.954 545.545C130.988 544.949 132.31 545.302 132.906 546.335C133.502 547.369 133.149 548.691 132.115 549.287C131.301 549.757 130.307 549.637 129.63 549.059L125.76 551.294C126.368 552.527 126.748 553.896 126.844 555.341H131.312C131.609 554.501 132.411 553.9 133.351 553.9C134.543 553.9 135.512 554.869 135.512 556.061C135.512 557.253 134.543 558.222 133.351 558.222C132.411 558.222 131.609 557.621 131.312 556.781H126.844ZM116.061 546.696C110.892 546.696 106.696 550.892 106.696 556.061C106.696 561.229 110.892 565.426 116.061 565.426C121.23 565.426 125.426 561.229 125.426 556.061C125.426 550.892 121.23 546.696 116.061 546.696ZM120.618 562.545C119.807 560.841 118.071 559.663 116.061 559.663C114.051 559.663 112.315 560.841 111.504 562.545C112.794 563.452 114.366 563.986 116.061 563.986C117.756 563.986 119.328 563.452 120.618 562.545ZM121.743 561.583C123.13 560.155 123.985 558.208 123.985 556.061C123.985 551.688 120.434 548.136 116.061 548.136C111.687 548.136 108.136 551.688 108.136 556.061C108.136 558.208 108.991 560.155 110.378 561.583C111.037 560.389 112.06 559.424 113.298 558.838C111.925 557.938 111.018 556.385 111.018 554.62C111.018 551.838 113.278 549.577 116.061 549.577C118.844 549.577 121.104 551.837 121.104 554.62C121.104 556.385 120.196 557.938 118.824 558.838C120.061 559.424 121.084 560.389 121.743 561.583ZM116.061 551.018C118.049 551.018 119.663 552.632 119.663 554.62C119.663 556.609 118.049 558.222 116.061 558.222C114.073 558.222 112.459 556.609 112.459 554.62C112.459 552.632 114.073 551.018 116.061 551.018Z" fill="white"/>
<defs>
<filter id="filter0_bd_17_6091" x="13.6027" y="902.603" width="203.443" height="208.614" filterUnits="userSpaceOnUse" color-interpolation-filters="sRGB">
<feFlood flood-opacity="0" result="BackgroundImageFix"/>
<feGaussianBlur in="BackgroundImageFix" stdDeviation="28.5218"/>
<feComposite in2="SourceAlpha" operator="in" result="effect1_backgroundBlur_17_6091"/>
<feColorMatrix in="SourceAlpha" type="matrix" values="0 0 0 0 0 0 0 0 0 0 0 0 0 0 0 0 0 0 127 0" result="hardAlpha"/>
<feOffset dy="8.66484"/>
<feGaussianBlur stdDeviation="6.85967"/>
<feComposite in2="hardAlpha" operator="out"/>
<feColorMatrix type="matrix" values="0 0 0 0 0.0867708 0 0 0 0 0.115317 0 0 0 0 0.141667 0 0 0 0.08 0"/>
<feBlend mode="normal" in2="effect1_backgroundBlur_17_6091" result="effect2_dropShadow_17_6091"/>
<feBlend mode="normal" in="SourceGraphic" in2="effect2_dropShadow_17_6091" result="shape"/>
</filter>
</defs>
</svg>
