<svg width="48" height="48" viewBox="0 0 48 48" fill="none" xmlns="http://www.w3.org/2000/svg">
<rect width="48" height="48" rx="10" fill="#10A1F3"/>
<path d="M12.1878 32.8003C12.405 33.3746 12.4293 34.004 12.257 34.5933L12.0763 35.2107H16.4499L16.4697 35.1618C16.7417 34.4978 16.8795 33.7971 16.8795 33.0785C16.8795 31.3825 16.3181 30.8719 14.1807 25.07H14.0593C13.9139 25.07 13.7821 25.1312 13.689 25.2427C13.6431 25.2966 13.6098 25.36 13.5915 25.4284C13.5732 25.4968 13.5703 25.5684 13.5831 25.638L14.6763 30.8766L13.7553 31.0691L12.6593 25.8159C12.6207 25.6089 12.6284 25.396 12.6818 25.1924C12.7351 24.9887 12.8329 24.7994 12.968 24.638C13.1016 24.4784 13.2685 24.3501 13.4571 24.2621C13.6456 24.1741 13.8512 24.1286 14.0593 24.1288H14.1967L15.68 20.7735C15.7206 20.6866 15.7434 20.5924 15.7469 20.4965C15.7505 20.4007 15.7347 20.305 15.7006 20.2154C15.6665 20.1257 15.6148 20.0438 15.5484 19.9745C15.4821 19.9052 15.4025 19.8499 15.3144 19.8119C15.2263 19.7739 15.1314 19.754 15.0355 19.7534C14.9395 19.7528 14.8445 19.7714 14.7558 19.8082C14.6672 19.845 14.5869 19.8992 14.5197 19.9676C14.4524 20.036 14.3995 20.1172 14.3643 20.2065L10.9774 28.1674C10.7953 28.5981 10.7849 29.0822 10.9483 29.5203L12.1878 32.8003ZM10.1953 38.5886H17.5163V36.1519H10.1958L10.1953 38.5886ZM10.9228 36.8996H11.856V37.8408H10.9233L10.9228 36.8996ZM33.9393 25.0695H33.8179L31.4894 31.0935C30.9822 32.4045 30.9964 33.8599 31.529 35.1608L31.5492 35.2107H35.9228L35.7426 34.5952C35.3238 33.1401 36.1115 32.3599 37.0508 29.5218C37.2144 29.0833 37.204 28.5989 37.0217 28.1679L33.6344 20.2055C33.5586 20.0313 33.4167 19.8943 33.24 19.8247C33.0632 19.755 32.866 19.7585 32.6918 19.8342C32.5176 19.91 32.3806 20.0519 32.3109 20.2286C32.2413 20.4054 32.2447 20.6026 32.3205 20.7768L33.8028 24.1288C33.8706 24.142 34.5224 24.0305 35.0311 24.638C35.3026 24.9613 35.416 25.3853 35.3421 25.8013L34.2443 31.0691L33.3233 30.8766L34.4193 25.6234C34.4293 25.5547 34.4244 25.4846 34.4049 25.418C34.3854 25.3513 34.3518 25.2896 34.3063 25.2371C34.2609 25.1846 34.2047 25.1425 34.1415 25.1137C34.0783 25.0848 34.0097 25.0699 33.9403 25.07L33.9393 25.0695ZM30.4819 36.1519V38.5886H37.8028V36.1519H30.4819ZM37.0753 37.8413H36.1421V36.9001H37.0753V37.8413ZM28.7054 16.6451L26.6207 18.0098L24.9925 15.4074C24.6772 15.6286 24.296 15.7603 23.8819 15.7603C23.4678 15.7603 23.0819 15.6286 22.7666 15.4121L21.1478 18.0098L19.2278 16.7768C18.9501 17.2427 18.4843 17.5862 17.9384 17.6945C18.1972 19.0121 18.5407 20.6498 18.7948 21.5251C22.1265 20.5556 25.6655 20.5556 28.9972 21.5251C29.2466 20.6686 29.6419 19.0168 29.9525 17.6662C29.683 17.5967 29.4318 17.4694 29.2165 17.293C29.0011 17.1167 28.8267 16.8956 28.7054 16.6451ZM18.5572 15.7909C18.5572 15.2385 18.1101 14.7867 17.5572 14.7867C17.0047 14.7867 16.5525 15.2385 16.5525 15.7909C16.5525 16.3434 17.0043 16.7909 17.5572 16.7909C18.1097 16.7909 18.5572 16.3439 18.5572 15.7909ZM31.4466 15.7909C31.4466 15.2385 30.9991 14.7867 30.4461 14.7867C29.8937 14.7867 29.4419 15.2385 29.4419 15.7909C29.4419 16.3434 29.8937 16.7909 30.4466 16.7909C30.9991 16.7909 31.4466 16.3439 31.4466 15.7909ZM23.88 14.8192C24.433 14.8192 24.88 14.3721 24.88 13.8192C24.88 13.2662 24.433 12.8145 23.88 12.8145C23.3275 12.8145 22.8758 13.2662 22.8758 13.8192C22.8758 14.3721 23.3275 14.8192 23.88 14.8192ZM18.9661 11.6888L20.633 12.9415L20.0678 13.694L18.401 12.4413L18.9661 11.6888ZM23.529 9.41211H24.4701V11.4959H23.529V9.41211ZM29.0339 11.6888L29.5986 12.4413L27.9313 13.6931L27.3666 12.9406L29.0339 11.6888Z" fill="white"/>
</svg>
