<svg width="599" height="333" viewBox="0 0 599 333" fill="none" xmlns="http://www.w3.org/2000/svg">
<line x1="296.579" y1="270.27" x2="184.579" y2="95.2695" stroke="#034737" stroke-dasharray="6 6"/>
<line x1="412.579" y1="91.2723" x2="299.419" y2="265.524" stroke="#034737" stroke-dasharray="6 6"/>
<line x1="292.996" y1="269.807" x2="112.225" y2="170.652" stroke="#034737" stroke-dasharray="6 6"/>
<line x1="480.807" y1="165.729" x2="302.251" y2="268.819" stroke="#034737" stroke-dasharray="6 6"/>
<line x1="504" y1="270.5" x2="88" y2="270.5" stroke="#034737" stroke-dasharray="6 6"/>
<line x1="298.5" y1="270" x2="298.5" y2="43" stroke="#034737" stroke-dasharray="6 6"/>
<path d="M533 278C533 146.556 426.444 40 295 40C163.556 40 57 146.556 57 278" stroke="#034737" stroke-dasharray="15 15"/>
<g filter="url(#filter0_bd_6_6078)">
<rect x="256" y="214" width="90" height="90" rx="20" fill="#034737"/>
<rect x="255.323" y="213.323" width="91.3539" height="91.3539" rx="20.6769" stroke="#EAEAEA" stroke-width="1.35388"/>
</g>
<path d="M51 158C51 135.909 68.9086 118 91 118V118C113.091 118 131 135.909 131 158V158C131 180.091 113.091 198 91 198V198C68.9086 198 51 180.091 51 158V158Z" fill="#DD504E"/>
<path d="M95.3581 142.23H86.6419C85.6972 142.231 84.7915 142.606 84.1235 143.274C83.4555 143.942 83.08 144.848 83.0794 145.792V170.207C83.08 171.152 83.4555 172.058 84.1235 172.726C84.7915 173.394 85.6972 173.769 86.6419 173.77H95.3581C96.3028 173.769 97.2085 173.394 97.8765 172.726C98.5445 172.058 98.92 171.152 98.9206 170.207V145.792C98.92 144.848 98.5445 143.942 97.8765 143.274C97.2085 142.606 96.3028 142.231 95.3581 142.23ZM78.3163 144.6H75.5625C75.2476 144.6 74.9455 144.725 74.7228 144.948C74.5001 145.171 74.375 145.473 74.375 145.788C74.375 146.103 74.5001 146.405 74.7228 146.627C74.9455 146.85 75.2476 146.975 75.5625 146.975H78.3163C78.5964 146.976 78.8649 147.087 79.0629 147.285C79.2608 147.483 79.372 147.752 79.372 148.032V166.489C79.372 166.77 79.2607 167.039 79.0624 167.237C78.8642 167.435 78.5954 167.546 78.3151 167.546H75.5625C75.2476 167.546 74.9455 167.671 74.7228 167.894C74.5001 168.117 74.375 168.419 74.375 168.734C74.375 169.049 74.5001 169.351 74.7228 169.573C74.9455 169.796 75.2476 169.921 75.5625 169.921H78.3163C79.2261 169.92 80.0983 169.558 80.7416 168.915C81.3848 168.272 81.7464 167.399 81.747 166.489V148.031C81.7464 147.121 81.3846 146.248 80.7411 145.605C80.0977 144.961 79.2251 144.6 78.3151 144.599L78.3163 144.6ZM106.438 167.546H103.685C103.405 167.546 103.136 167.435 102.938 167.236C102.74 167.038 102.628 166.77 102.628 166.489V148.031C102.628 147.751 102.74 147.482 102.938 147.284C103.136 147.086 103.405 146.974 103.685 146.974H106.438C106.752 146.974 107.054 146.849 107.277 146.626C107.5 146.404 107.625 146.101 107.625 145.787C107.625 145.472 107.5 145.17 107.277 144.947C107.054 144.724 106.752 144.599 106.438 144.599H103.685C102.775 144.6 101.902 144.961 101.259 145.605C100.615 146.248 100.254 147.121 100.253 148.031V166.491C100.254 167.401 100.615 168.273 101.259 168.917C101.902 169.56 102.775 169.922 103.685 169.922H106.438C106.752 169.922 107.054 169.797 107.277 169.575C107.5 169.352 107.625 169.05 107.625 168.735C107.625 168.42 107.5 168.118 107.277 167.895C107.054 167.673 106.752 167.547 106.438 167.547V167.546Z" fill="white"/>
<path d="M131 74C131 51.9086 148.909 34 171 34V34C193.091 34 211 51.9086 211 74V74C211 96.0914 193.091 114 171 114V114C148.909 114 131 96.0914 131 74V74Z" fill="#E6A55B"/>
<path d="M186.002 74.0007C184.859 74.0007 183.873 74.6266 183.338 75.545H170.545V78.6365H183.338C183.873 79.5572 184.859 80.1822 186.002 80.1822C186.407 80.1821 186.809 80.102 187.184 79.9466C187.559 79.7911 187.899 79.5634 188.186 79.2763C188.473 78.9892 188.701 78.6484 188.856 78.2734C189.011 77.8984 189.09 77.4965 189.09 77.0907C189.09 76.2716 188.764 75.486 188.185 74.9066C187.606 74.3272 186.821 74.0014 186.002 74.0007ZM186.002 61.6362C184.859 61.6362 183.873 62.264 183.338 63.182H170.545V66.2739H183.338C183.873 67.1946 184.859 67.8196 186.002 67.8196C186.821 67.8191 187.607 67.4931 188.186 66.9133C188.765 66.3334 189.091 65.5473 189.09 64.7277C189.09 63.9083 188.765 63.1224 188.186 62.5427C187.607 61.963 186.821 61.637 186.002 61.6362Z" fill="white"/>
<path d="M167.454 60.0915H173.636C173.637 59.6854 173.557 59.2834 173.401 58.9083C173.246 58.5331 173.018 58.1923 172.731 57.9052C172.444 57.6181 172.103 57.3904 171.728 57.2351C171.353 57.0798 170.951 56.9999 170.545 57H155.09C154.27 57.0004 153.484 57.3262 152.905 57.906C152.326 58.4857 152 59.2718 152 60.0915V87.9095C152 88.3153 152.08 88.7172 152.235 89.0921C152.39 89.4671 152.618 89.8078 152.905 90.0948C153.192 90.3818 153.533 90.6094 153.907 90.7647C154.282 90.9201 154.684 91 155.09 91H170.545C170.951 91.0002 171.353 90.9204 171.728 90.7651C172.103 90.6099 172.444 90.3823 172.731 90.0953C173.018 89.8083 173.246 89.4675 173.401 89.0924C173.557 88.7174 173.637 88.3154 173.636 87.9095H167.454V60.0915ZM164.364 84.8185H155.09V81.7279H164.364V84.8185ZM164.364 78.6365H155.09V75.545H164.364V78.6365ZM164.364 72.455H155.09V69.364H164.364V72.455ZM164.364 66.2734H155.09V63.1815H164.364V66.2734Z" fill="white"/>
<path d="M176.728 80.1812C175.586 80.1812 174.601 80.808 174.065 81.7269H170.545V84.8174H174.065C174.601 85.7382 175.586 86.3631 176.728 86.3631C177.134 86.3631 177.536 86.2832 177.911 86.1278C178.286 85.9724 178.627 85.7447 178.914 85.4576C179.201 85.1705 179.428 84.8297 179.584 84.4547C179.739 84.0796 179.819 83.6776 179.819 83.2717C179.818 82.4522 179.492 81.6664 178.913 81.0869C178.333 80.5074 177.548 80.1817 176.728 80.1812ZM179.82 67.8181C178.677 67.8181 177.691 68.4445 177.156 69.3625H170.545V72.4539H177.156C177.691 73.3747 178.677 73.9996 179.82 73.9996C180.225 73.9995 180.627 73.9195 181.002 73.764C181.377 73.6086 181.718 73.3808 182.004 73.0938C182.291 72.8067 182.519 72.4659 182.674 72.0909C182.829 71.7159 182.909 71.314 182.909 70.9082C182.908 70.0889 182.583 69.3033 182.004 68.7239C181.424 68.1445 180.639 67.8187 179.82 67.8181Z" fill="white"/>
<path d="M259 40C259 17.9086 276.909 0 299 0V0C321.091 0 339 17.9086 339 40V40C339 62.0914 321.091 80 299 80V80C276.909 80 259 62.0914 259 40V40Z" fill="#5ABA87"/>
<path d="M306.73 56.4761L307.185 54.262L309.538 50.4997H310.176V40.367H299.893C299.116 40.367 298.484 40.9996 298.484 41.7765V43.1733C298.622 43.1282 298.766 43.0975 298.919 43.0975H301.266V44.1396H298.919C298.714 44.1396 298.548 44.3063 298.548 44.5114C298.548 44.5638 298.549 45.7549 298.549 45.8324C298.602 45.8324 301.102 45.831 301.266 45.8309V46.873H298.499C298.493 46.873 298.489 46.8758 298.484 46.8761V48.4798C297.984 48.6962 297.64 49.1901 297.64 49.7672V50.8548C297.64 51.3931 298.079 51.8315 298.617 51.8315H304.016C303.052 54.4705 303.051 54.3663 303.051 54.5339V56.1432C303.051 57.1698 303.883 57.9966 304.904 57.9966C305.809 57.9966 306.574 57.3529 306.73 56.4761ZM317.001 40.3115H311.219V50.4997H317.001V40.3115ZM313.894 43.6218H312.853V42.6724H313.894V43.6218ZM282.412 48.6743L283.359 48.2408C282.485 46.33 282.042 44.2784 282.042 42.1427H281C281 44.429 281.475 46.6264 282.412 48.6743ZM296.857 56.9579C294.721 56.9579 292.669 56.5149 290.759 55.6408L290.326 56.5881C292.373 57.525 294.57 58 296.857 58V56.9579ZM315.958 37.8573H316.999C316.999 35.3743 316.413 32.91 315.302 30.7307L314.374 31.2038C315.41 33.2373 315.958 35.5379 315.958 37.8573ZM301.142 22V23.0421C303.489 23.0421 305.73 23.5732 307.803 24.6212L308.273 23.6913C306.053 22.5693 303.654 22 301.142 22ZM285.943 56.6093C287.896 56.6093 289.489 55.0167 289.489 53.0578C289.489 51.1046 287.896 49.512 285.943 49.512C283.984 49.512 282.391 51.1046 282.391 53.0578C282.391 55.0167 283.984 56.6093 285.943 56.6093ZM315.508 27.038C315.508 25.0791 313.921 23.4865 311.963 23.4865C310.009 23.4865 308.417 25.0791 308.417 27.038C308.417 28.9913 310.009 30.5838 311.963 30.5838C313.921 30.5838 315.508 28.9913 315.508 27.038ZM294.967 23.858C294.967 22.8314 294.135 22.0045 293.113 22.0045C292.209 22.0045 291.443 22.6482 291.288 23.525L290.833 25.7391L288.48 29.5014H287.842V39.6341H298.124C298.901 39.6341 299.534 39.0015 299.534 38.2246V36.8278C299.396 36.8729 299.251 36.9036 299.098 36.9036H296.751V35.8615H299.098C299.303 35.8615 299.47 35.6948 299.47 35.4897C299.47 35.4373 299.469 34.2463 299.469 34.1687C299.416 34.1687 296.916 34.1701 296.751 34.1702V33.1281H299.519C299.524 33.1281 299.529 33.1253 299.534 33.1251V31.5213C300.033 31.3049 300.377 30.811 300.377 30.2339V29.1463C300.377 28.608 299.939 28.1696 299.401 28.1696H294.001C294.966 25.5306 294.967 25.6347 294.967 25.4672V23.858ZM286.799 29.5014H281.016V39.6896H286.799V29.5014ZM285.165 37.3287H284.123V36.3793H285.165V37.3287Z" fill="white"/>
<path d="M382 74C382 51.9086 399.909 34 422 34V34C444.091 34 462 51.9086 462 74V74C462 96.0914 444.091 114 422 114V114C399.909 114 382 96.0914 382 74V74Z" fill="#7243D5"/>
<path d="M429.371 58C429.366 58 429.362 58 429.357 58C429.299 58.0022 429.242 58.0084 429.185 58.0186H407.237C407.074 58.018 406.913 58.0496 406.762 58.1117C406.611 58.1737 406.475 58.2649 406.359 58.38C406.244 58.4951 406.153 58.6318 406.092 58.7821C406.03 58.9325 405.999 59.0936 406 59.256V85.0783C406 87.7811 408.214 90 410.922 90H433.074C433.157 89.999 433.239 89.9896 433.32 89.9721C433.323 89.9721 433.326 89.9721 433.33 89.9721C434.586 89.9056 435.77 89.3613 436.638 88.4507C437.506 87.54 437.993 86.3319 438 85.0737V75.2397C438.001 75.0777 437.97 74.917 437.909 74.7669C437.847 74.6168 437.757 74.4803 437.642 74.3653C437.528 74.2503 437.391 74.159 437.241 74.0967C437.091 74.0344 436.93 74.0023 436.767 74.0023H430.618V59.256C430.621 59.0916 430.592 58.9282 430.531 58.7753C430.47 58.6225 430.379 58.4834 430.263 58.3662C430.147 58.2491 430.009 58.1563 429.857 58.0934C429.704 58.0305 429.536 57.9988 429.371 58ZM412.159 65.3964H424.454C424.782 65.3964 425.097 65.5263 425.329 65.7575C425.561 65.9887 425.691 66.3022 425.691 66.6292C425.691 66.9561 425.561 67.2697 425.329 67.5009C425.097 67.732 424.782 67.8619 424.454 67.8619H412.159C411.831 67.8619 411.516 67.732 411.284 67.5009C411.052 67.2697 410.922 66.9561 410.922 66.6292C410.922 66.3022 411.052 65.9887 411.284 65.7575C411.516 65.5263 411.831 65.3964 412.159 65.3964ZM412.159 70.3181H424.454C424.782 70.3181 425.097 70.448 425.329 70.6791C425.561 70.9103 425.691 71.2239 425.691 71.5508C425.691 71.8778 425.561 72.1913 425.329 72.4225C425.097 72.6537 424.782 72.7836 424.454 72.7836H412.159C411.831 72.7836 411.516 72.6537 411.284 72.4225C411.052 72.1913 410.922 71.8778 410.922 71.5508C410.922 71.2239 411.052 70.9103 411.284 70.6791C411.516 70.448 411.831 70.3181 412.159 70.3181ZM412.154 75.2397C412.153 75.2397 412.156 75.2397 412.154 75.2397H424.454C424.781 75.2397 425.094 75.3696 425.326 75.6008C425.557 75.832 425.687 76.1455 425.687 76.4725C425.687 76.7994 425.557 77.113 425.326 77.3441C425.094 77.5753 424.781 77.7052 424.454 77.7052H412.159C411.832 77.7218 411.512 77.6079 411.269 77.3885C411.026 77.1691 410.88 76.8622 410.864 76.5353C410.847 76.2083 410.961 75.8881 411.18 75.6452C411.4 75.4022 411.707 75.2564 412.033 75.2397C412.074 75.2378 412.114 75.2378 412.154 75.2397ZM430.618 76.4678H435.539V85.083C435.539 86.4692 434.46 87.5485 433.074 87.5485C432.749 87.5522 432.427 87.491 432.127 87.3683C431.827 87.2456 431.554 87.064 431.325 86.8342C431.096 86.6043 430.916 86.331 430.794 86.0302C430.673 85.7294 430.613 85.4074 430.618 85.083V76.4678ZM412.154 80.1614C412.153 80.1614 412.156 80.1614 412.154 80.1614H424.454C424.782 80.1614 425.097 80.2912 425.329 80.5224C425.561 80.7536 425.691 81.0672 425.691 81.3941C425.691 81.721 425.561 82.0346 425.329 82.2658C425.097 82.497 424.782 82.6268 424.454 82.6268H412.159C411.832 82.6435 411.512 82.5296 411.269 82.3102C411.026 82.0908 410.88 81.7838 410.864 81.4569C410.847 81.13 410.961 80.8098 411.18 80.5668C411.4 80.3239 411.707 80.178 412.033 80.1614C412.074 80.1594 412.114 80.1594 412.154 80.1614Z" fill="white"/>
<path d="M458 158C458 135.909 475.909 118 498 118V118C520.091 118 538 135.909 538 158V158C538 180.091 520.091 198 498 198V198C475.909 198 458 180.091 458 158V158Z" fill="#CC63D2"/>
<g clip-path="url(#clip0_6_6078)">
<path d="M513 147.5H503.25C503.051 147.5 502.86 147.579 502.72 147.72C502.579 147.86 502.5 148.051 502.5 148.25V151.25C502.5 151.847 502.263 152.419 501.841 152.841C501.419 153.263 500.847 153.5 500.25 153.5H495.75C495.153 153.5 494.581 153.263 494.159 152.841C493.737 152.419 493.5 151.847 493.5 151.25V148.25C493.5 148.051 493.421 147.86 493.28 147.72C493.14 147.579 492.949 147.5 492.75 147.5H483C482.204 147.5 481.441 147.816 480.879 148.379C480.316 148.941 480 149.704 480 150.5V168.5C480 169.296 480.316 170.059 480.879 170.621C481.441 171.184 482.204 171.5 483 171.5H513C513.796 171.5 514.559 171.184 515.121 170.621C515.684 170.059 516 169.296 516 168.5V150.5C516 149.704 515.684 148.941 515.121 148.379C514.559 147.816 513.796 147.5 513 147.5ZM489.75 153.5C490.492 153.5 491.217 153.72 491.833 154.132C492.45 154.544 492.931 155.13 493.215 155.815C493.498 156.5 493.573 157.254 493.428 157.982C493.283 158.709 492.926 159.377 492.402 159.902C491.877 160.426 491.209 160.783 490.482 160.928C489.754 161.073 489 160.998 488.315 160.715C487.63 160.431 487.044 159.95 486.632 159.333C486.22 158.717 486 157.992 486 157.25C486 156.255 486.395 155.302 487.098 154.598C487.802 153.895 488.755 153.5 489.75 153.5ZM496.5 166.76C496.516 167.203 496.357 167.635 496.056 167.961C495.755 168.287 495.338 168.481 494.895 168.5H484.605C484.162 168.481 483.745 168.287 483.444 167.961C483.143 167.635 482.984 167.203 483 166.76V166.28C482.987 165.682 483.13 165.092 483.414 164.566C483.698 164.04 484.113 163.597 484.62 163.28C486.17 162.342 487.939 161.825 489.75 161.78C491.561 161.825 493.33 162.342 494.88 163.28C495.387 163.597 495.802 164.04 496.086 164.566C496.37 165.092 496.513 165.682 496.5 166.28V166.76ZM510.75 164H501.75C501.551 164 501.36 163.921 501.22 163.78C501.079 163.64 501 163.449 501 163.25C501 163.051 501.079 162.86 501.22 162.72C501.36 162.579 501.551 162.5 501.75 162.5H510.75C510.949 162.5 511.14 162.579 511.28 162.72C511.421 162.86 511.5 163.051 511.5 163.25C511.5 163.449 511.421 163.64 511.28 163.78C511.14 163.921 510.949 164 510.75 164ZM510.75 159.5H498.75C498.551 159.5 498.36 159.421 498.22 159.28C498.079 159.14 498 158.949 498 158.75C498 158.551 498.079 158.36 498.22 158.22C498.36 158.079 498.551 158 498.75 158H510.75C510.949 158 511.14 158.079 511.28 158.22C511.421 158.36 511.5 158.551 511.5 158.75C511.5 158.949 511.421 159.14 511.28 159.28C511.14 159.421 510.949 159.5 510.75 159.5Z" fill="white"/>
<path d="M495.75 152H500.25C500.449 152 500.64 151.921 500.78 151.78C500.921 151.64 501 151.449 501 151.25V147.5C501 146.704 500.684 145.941 500.121 145.379C499.559 144.816 498.796 144.5 498 144.5C497.204 144.5 496.441 144.816 495.879 145.379C495.316 145.941 495 146.704 495 147.5V151.25C495 151.449 495.079 151.64 495.22 151.78C495.36 151.921 495.551 152 495.75 152Z" fill="white"/>
</g>
<g filter="url(#filter1_bd_6_6078)">
<rect x="493" y="214" width="90" height="90" rx="20" fill="#034737"/>
<rect x="492.323" y="213.323" width="91.3539" height="91.3539" rx="20.6769" stroke="#EAEAEA" stroke-width="1.35388"/>
<path fill-rule="evenodd" clip-rule="evenodd" d="M562.59 248.091C562.59 247.076 562.163 246.103 561.4 245.386C560.638 244.668 559.6 244.265 558.523 244.265H548.775L543.984 239.764C543.796 239.585 543.536 239.485 543.267 239.485H533.096C532.827 239.485 532.568 239.585 532.379 239.764L527.589 244.265H517.841C516.763 244.265 515.726 244.668 514.963 245.386C514.2 246.103 513.773 247.076 513.773 248.091V274.867C513.773 275.882 514.2 276.856 514.963 277.573C515.726 278.29 516.763 278.692 517.841 278.692H558.521C559.598 278.692 560.635 278.288 561.398 277.571C562.163 276.856 562.59 275.882 562.59 274.867L562.59 248.091ZM560.556 248.091V274.867C560.556 275.375 560.342 275.861 559.961 276.219C559.579 276.578 559.061 276.78 558.523 276.78H517.841C517.303 276.78 516.784 276.578 516.403 276.219C516.022 275.861 515.808 275.375 515.808 274.867V248.091C515.808 247.584 516.022 247.098 516.403 246.739C516.784 246.379 517.303 246.178 517.841 246.178H528.01C528.279 246.178 528.539 246.078 528.727 245.898L533.519 241.396H542.846L547.636 245.897C547.823 246.078 548.082 246.178 548.351 246.178H558.521C559.06 246.178 559.579 246.379 559.96 246.739C560.342 247.098 560.556 247.584 560.556 248.091ZM549.822 260.378C549.858 260.74 549.877 261.107 549.877 261.479C549.877 267.548 544.635 272.477 538.182 272.477C531.729 272.477 526.487 267.548 526.487 261.479C526.487 255.409 531.729 250.482 538.182 250.482C538.756 250.482 539.326 250.521 539.881 250.596C540.436 250.672 540.949 250.31 541.031 249.788C541.111 249.266 540.724 248.78 540.171 248.705C539.519 248.615 538.859 248.568 538.182 248.568C530.606 248.568 524.452 254.353 524.452 261.479C524.452 268.604 530.606 274.389 538.182 274.389C545.758 274.389 551.912 268.604 551.912 261.479C551.912 261.043 551.887 260.612 551.845 260.189C551.79 259.664 551.29 259.28 550.731 259.332C550.173 259.384 549.765 259.854 549.822 260.378ZM536.086 259.235C535.939 258.859 535.558 258.61 535.131 258.61C534.704 258.61 534.322 258.859 534.175 259.234L532.965 262.312L529.694 263.451C529.294 263.591 529.029 263.948 529.029 264.347C529.029 264.747 529.294 265.106 529.694 265.244L532.965 266.383L534.175 269.461C534.322 269.836 534.704 270.085 535.131 270.085C535.558 270.085 535.939 269.836 536.086 269.461L537.297 266.383L540.567 265.244C540.968 265.106 541.233 264.749 541.233 264.347C541.233 263.948 540.968 263.591 540.567 263.451L537.297 262.312L536.086 259.234V259.235ZM535.131 262.323L535.552 263.39C535.653 263.652 535.873 263.858 536.153 263.955L537.288 264.347L536.153 264.742C535.873 264.839 535.655 265.045 535.552 265.307L535.131 266.374L534.713 265.307C534.606 265.045 534.387 264.839 534.109 264.742L532.974 264.347L534.109 263.953C534.389 263.856 534.606 263.65 534.713 263.388L535.131 262.323ZM545.22 246.803C545.072 246.428 544.69 246.179 544.269 246.179C543.842 246.179 543.46 246.428 543.313 246.803L540.867 253.021L534.252 255.321C533.855 255.461 533.59 255.818 533.59 256.218C533.59 256.618 533.855 256.976 534.252 257.114L540.867 259.415L543.313 265.633C543.46 266.008 543.842 266.257 544.269 266.257C544.69 266.257 545.072 266.008 545.22 265.633L547.671 259.415L554.282 257.114C554.684 256.975 554.947 256.618 554.947 256.218C554.947 255.818 554.682 255.46 554.282 255.321L547.671 253.021L545.22 246.803ZM544.269 249.89L545.922 254.097C546.029 254.359 546.248 254.565 546.527 254.662L550.996 256.22L546.527 257.776C546.246 257.873 546.029 258.079 545.922 258.341L544.269 262.547L542.612 258.341C542.511 258.079 542.291 257.873 542.011 257.776L537.535 256.22L542.011 254.663C542.291 254.567 542.509 254.36 542.612 254.099L544.269 249.89ZM551.912 249.526H550.895C550.336 249.526 549.879 249.955 549.879 250.482C549.879 251.009 550.336 251.438 550.895 251.438H551.912V252.393C551.912 252.92 552.369 253.349 552.928 253.349C553.487 253.349 553.944 252.92 553.944 252.393V251.438H554.961C555.519 251.438 555.977 251.009 555.977 250.482C555.977 249.955 555.519 249.526 554.961 249.526H553.944V248.571C553.944 248.043 553.487 247.615 552.928 247.615C552.369 247.615 551.912 248.043 551.912 248.571V249.526Z" fill="white"/>
</g>
<g filter="url(#filter2_bd_6_6078)">
<rect x="16" y="214" width="90" height="90" rx="20" fill="#034737"/>
<rect x="15.3231" y="213.323" width="91.3539" height="91.3539" rx="20.6769" stroke="#EAEAEA" stroke-width="1.35388"/>
<path d="M39.4692 259.232H46.1003" stroke="white" stroke-width="1.89582" stroke-linecap="round" stroke-linejoin="round"/>
<path d="M37.8118 245.366C40.5584 245.366 42.785 247.694 42.785 250.565V267.898C42.785 270.77 40.5584 273.098 37.8118 273.098" stroke="white" stroke-width="1.89582" stroke-linecap="round" stroke-linejoin="round"/>
<path d="M47.7592 245.366C45.0125 245.366 42.7859 247.694 42.7859 250.565V267.898C42.7859 270.77 45.0125 273.098 47.7592 273.098" stroke="white" stroke-width="1.89582" stroke-linecap="round" stroke-linejoin="round"/>
<path fill-rule="evenodd" clip-rule="evenodd" d="M74.2827 255.766L81.8305 251.821C82.3442 251.552 82.9542 251.581 83.4428 251.897C83.9314 252.212 84.2289 252.77 84.2292 253.37V265.094C84.2289 265.694 83.9314 266.252 83.4428 266.568C82.9542 266.883 82.3442 266.912 81.8305 266.643L74.2827 262.699V255.766Z" stroke="white" stroke-width="1.89582" stroke-linecap="round" stroke-linejoin="round"/>
<rect x="54.3899" y="248.832" width="19.8931" height="20.7989" rx="2.49999" stroke="white" stroke-width="1.89582" stroke-linecap="round" stroke-linejoin="round"/>
</g>
<circle cx="299" cy="249.583" r="6.25" stroke="white" stroke-width="2.70833" stroke-linecap="round" stroke-linejoin="round"/>
<circle cx="309.417" cy="268.333" r="6.25" stroke="white" stroke-width="2.70833" stroke-linecap="round" stroke-linejoin="round"/>
<circle cx="288.583" cy="268.333" r="6.25" stroke="white" stroke-width="2.70833" stroke-linecap="round" stroke-linejoin="round"/>
<path d="M22.3496 319.242V320.278H19.6896V329H18.4156V320.278H15.7416V319.242H22.3496ZM30.9598 324.87C30.9598 325.113 30.9458 325.369 30.9178 325.64H24.7858C24.8325 326.396 25.0891 326.989 25.5558 327.418C26.0318 327.838 26.6058 328.048 27.2778 328.048C27.8285 328.048 28.2858 327.922 28.6498 327.67C29.0231 327.409 29.2845 327.063 29.4338 326.634H30.8058C30.6005 327.371 30.1898 327.973 29.5738 328.44C28.9578 328.897 28.1925 329.126 27.2778 329.126C26.5498 329.126 25.8965 328.963 25.3178 328.636C24.7485 328.309 24.3005 327.847 23.9738 327.25C23.6471 326.643 23.4838 325.943 23.4838 325.15C23.4838 324.357 23.6425 323.661 23.9598 323.064C24.2771 322.467 24.7205 322.009 25.2898 321.692C25.8685 321.365 26.5311 321.202 27.2778 321.202C28.0058 321.202 28.6498 321.361 29.2098 321.678C29.7698 321.995 30.1991 322.434 30.4978 322.994C30.8058 323.545 30.9598 324.17 30.9598 324.87ZM29.6438 324.604C29.6438 324.119 29.5365 323.703 29.3218 323.358C29.1071 323.003 28.8131 322.737 28.4398 322.56C28.0758 322.373 27.6698 322.28 27.2218 322.28C26.5778 322.28 26.0271 322.485 25.5698 322.896C25.1218 323.307 24.8651 323.876 24.7998 324.604H29.6438ZM36.6874 329L34.8674 326.144L33.1174 329H31.7874L34.2654 325.192L31.7874 321.328H33.2294L35.0494 324.17L36.7854 321.328H38.1154L35.6514 325.122L38.1294 329H36.6874ZM40.9787 322.378V326.9C40.9787 327.273 41.058 327.539 41.2167 327.698C41.3753 327.847 41.6507 327.922 42.0427 327.922H42.9807V329H41.8327C41.1233 329 40.5913 328.837 40.2367 328.51C39.882 328.183 39.7047 327.647 39.7047 326.9V322.378H38.7107V321.328H39.7047V319.396H40.9787V321.328H42.9807V322.378H40.9787ZM49.8947 322.378V326.9C49.8947 327.273 49.974 327.539 50.1327 327.698C50.2914 327.847 50.5667 327.922 50.9587 327.922H51.8967V329H50.7487C50.0394 329 49.5074 328.837 49.1527 328.51C48.798 328.183 48.6207 327.647 48.6207 326.9V322.378H47.6267V321.328H48.6207V319.396H49.8947V321.328H51.8967V322.378H49.8947ZM56.8283 329.126C56.1096 329.126 55.4563 328.963 54.8683 328.636C54.2896 328.309 53.8323 327.847 53.4963 327.25C53.1696 326.643 53.0063 325.943 53.0063 325.15C53.0063 324.366 53.1743 323.675 53.5103 323.078C53.8556 322.471 54.3223 322.009 54.9103 321.692C55.4983 321.365 56.1563 321.202 56.8843 321.202C57.6123 321.202 58.2703 321.365 58.8583 321.692C59.4463 322.009 59.9083 322.467 60.2443 323.064C60.5896 323.661 60.7623 324.357 60.7623 325.15C60.7623 325.943 60.585 326.643 60.2303 327.25C59.885 327.847 59.4136 328.309 58.8163 328.636C58.219 328.963 57.5563 329.126 56.8283 329.126ZM56.8283 328.006C57.2856 328.006 57.715 327.899 58.1163 327.684C58.5176 327.469 58.8396 327.147 59.0823 326.718C59.3343 326.289 59.4603 325.766 59.4603 325.15C59.4603 324.534 59.339 324.011 59.0963 323.582C58.8536 323.153 58.5363 322.835 58.1443 322.63C57.7523 322.415 57.3276 322.308 56.8703 322.308C56.4036 322.308 55.9743 322.415 55.5823 322.63C55.1996 322.835 54.8916 323.153 54.6583 323.582C54.425 324.011 54.3083 324.534 54.3083 325.15C54.3083 325.775 54.4203 326.303 54.6443 326.732C54.8776 327.161 55.1856 327.483 55.5683 327.698C55.951 327.903 56.371 328.006 56.8283 328.006ZM69.1098 327.824L71.4898 321.328H72.8478L69.8378 329H68.3538L65.3438 321.328H66.7158L69.1098 327.824ZM74.8015 320.082C74.5588 320.082 74.3535 319.998 74.1855 319.83C74.0175 319.662 73.9335 319.457 73.9335 319.214C73.9335 318.971 74.0175 318.766 74.1855 318.598C74.3535 318.43 74.5588 318.346 74.8015 318.346C75.0348 318.346 75.2308 318.43 75.3895 318.598C75.5575 318.766 75.6415 318.971 75.6415 319.214C75.6415 319.457 75.5575 319.662 75.3895 319.83C75.2308 319.998 75.0348 320.082 74.8015 320.082ZM75.4175 321.328V329H74.1435V321.328H75.4175ZM77.1548 325.136C77.1548 324.352 77.3134 323.666 77.6308 323.078C77.9481 322.481 78.3821 322.019 78.9328 321.692C79.4928 321.365 80.1181 321.202 80.8088 321.202C81.4061 321.202 81.9614 321.342 82.4748 321.622C82.9881 321.893 83.3801 322.252 83.6508 322.7V318.64H84.9388V329H83.6508V327.558C83.3988 328.015 83.0254 328.393 82.5308 328.692C82.0361 328.981 81.4574 329.126 80.7948 329.126C80.1134 329.126 79.4928 328.958 78.9328 328.622C78.3821 328.286 77.9481 327.815 77.6308 327.208C77.3134 326.601 77.1548 325.911 77.1548 325.136ZM83.6508 325.15C83.6508 324.571 83.5341 324.067 83.3008 323.638C83.0674 323.209 82.7501 322.882 82.3488 322.658C81.9568 322.425 81.5228 322.308 81.0468 322.308C80.5708 322.308 80.1368 322.42 79.7448 322.644C79.3528 322.868 79.0401 323.195 78.8068 323.624C78.5734 324.053 78.4568 324.557 78.4568 325.136C78.4568 325.724 78.5734 326.237 78.8068 326.676C79.0401 327.105 79.3528 327.437 79.7448 327.67C80.1368 327.894 80.5708 328.006 81.0468 328.006C81.5228 328.006 81.9568 327.894 82.3488 327.67C82.7501 327.437 83.0674 327.105 83.3008 326.676C83.5341 326.237 83.6508 325.729 83.6508 325.15ZM94.1337 324.87C94.1337 325.113 94.1197 325.369 94.0917 325.64H87.9597C88.0064 326.396 88.263 326.989 88.7297 327.418C89.2057 327.838 89.7797 328.048 90.4517 328.048C91.0024 328.048 91.4597 327.922 91.8237 327.67C92.197 327.409 92.4584 327.063 92.6077 326.634H93.9797C93.7744 327.371 93.3637 327.973 92.7477 328.44C92.1317 328.897 91.3664 329.126 90.4517 329.126C89.7237 329.126 89.0704 328.963 88.4917 328.636C87.9224 328.309 87.4744 327.847 87.1477 327.25C86.821 326.643 86.6577 325.943 86.6577 325.15C86.6577 324.357 86.8164 323.661 87.1337 323.064C87.451 322.467 87.8944 322.009 88.4637 321.692C89.0424 321.365 89.705 321.202 90.4517 321.202C91.1797 321.202 91.8237 321.361 92.3837 321.678C92.9437 321.995 93.373 322.434 93.6717 322.994C93.9797 323.545 94.1337 324.17 94.1337 324.87ZM92.8177 324.604C92.8177 324.119 92.7104 323.703 92.4957 323.358C92.281 323.003 91.987 322.737 91.6137 322.56C91.2497 322.373 90.8437 322.28 90.3957 322.28C89.7517 322.28 89.201 322.485 88.7437 322.896C88.2957 323.307 88.039 323.876 87.9737 324.604H92.8177ZM99.2033 329.126C98.4847 329.126 97.8313 328.963 97.2433 328.636C96.6647 328.309 96.2073 327.847 95.8713 327.25C95.5447 326.643 95.3813 325.943 95.3813 325.15C95.3813 324.366 95.5493 323.675 95.8853 323.078C96.2307 322.471 96.6973 322.009 97.2853 321.692C97.8733 321.365 98.5313 321.202 99.2593 321.202C99.9873 321.202 100.645 321.365 101.233 321.692C101.821 322.009 102.283 322.467 102.619 323.064C102.965 323.661 103.137 324.357 103.137 325.15C103.137 325.943 102.96 326.643 102.605 327.25C102.26 327.847 101.789 328.309 101.191 328.636C100.594 328.963 99.9313 329.126 99.2033 329.126ZM99.2033 328.006C99.6607 328.006 100.09 327.899 100.491 327.684C100.893 327.469 101.215 327.147 101.457 326.718C101.709 326.289 101.835 325.766 101.835 325.15C101.835 324.534 101.714 324.011 101.471 323.582C101.229 323.153 100.911 322.835 100.519 322.63C100.127 322.415 99.7027 322.308 99.2453 322.308C98.7787 322.308 98.3493 322.415 97.9573 322.63C97.5747 322.835 97.2667 323.153 97.0333 323.582C96.8 324.011 96.6833 324.534 96.6833 325.15C96.6833 325.775 96.7953 326.303 97.0193 326.732C97.2527 327.161 97.5607 327.483 97.9433 327.698C98.326 327.903 98.746 328.006 99.2033 328.006Z" fill="#666666"/>
<path d="M261.975 326.83H257.719L256.935 329H255.591L259.119 319.298H260.589L264.103 329H262.759L261.975 326.83ZM261.611 325.794L259.847 320.866L258.083 325.794H261.611ZM266.957 319.242V329H265.683V319.242H266.957ZM274.499 322.378V326.9C274.499 327.273 274.578 327.539 274.737 327.698C274.895 327.847 275.171 327.922 275.563 327.922H276.501V329H275.353C274.643 329 274.111 328.837 273.757 328.51C273.402 328.183 273.225 327.647 273.225 326.9V322.378H272.231V321.328H273.225V319.396H274.499V321.328H276.501V322.378H274.499ZM285.086 324.87C285.086 325.113 285.072 325.369 285.044 325.64H278.912C278.959 326.396 279.216 326.989 279.682 327.418C280.158 327.838 280.732 328.048 281.404 328.048C281.955 328.048 282.412 327.922 282.776 327.67C283.15 327.409 283.411 327.063 283.56 326.634H284.932C284.727 327.371 284.316 327.973 283.7 328.44C283.084 328.897 282.319 329.126 281.404 329.126C280.676 329.126 280.023 328.963 279.444 328.636C278.875 328.309 278.427 327.847 278.1 327.25C277.774 326.643 277.61 325.943 277.61 325.15C277.61 324.357 277.769 323.661 278.086 323.064C278.404 322.467 278.847 322.009 279.416 321.692C279.995 321.365 280.658 321.202 281.404 321.202C282.132 321.202 282.776 321.361 283.336 321.678C283.896 321.995 284.326 322.434 284.624 322.994C284.932 323.545 285.086 324.17 285.086 324.87ZM283.77 324.604C283.77 324.119 283.663 323.703 283.448 323.358C283.234 323.003 282.94 322.737 282.566 322.56C282.202 322.373 281.796 322.28 281.348 322.28C280.704 322.28 280.154 322.485 279.696 322.896C279.248 323.307 278.992 323.876 278.926 324.604H283.77ZM296.036 321.188C296.633 321.188 297.165 321.314 297.632 321.566C298.099 321.809 298.467 322.177 298.738 322.672C299.009 323.167 299.144 323.769 299.144 324.478V329H297.884V324.66C297.884 323.895 297.693 323.311 297.31 322.91C296.937 322.499 296.428 322.294 295.784 322.294C295.121 322.294 294.594 322.509 294.202 322.938C293.81 323.358 293.614 323.969 293.614 324.772V329H292.354V324.66C292.354 323.895 292.163 323.311 291.78 322.91C291.407 322.499 290.898 322.294 290.254 322.294C289.591 322.294 289.064 322.509 288.672 322.938C288.28 323.358 288.084 323.969 288.084 324.772V329H286.81V321.328H288.084V322.434C288.336 322.033 288.672 321.725 289.092 321.51C289.521 321.295 289.993 321.188 290.506 321.188C291.15 321.188 291.719 321.333 292.214 321.622C292.709 321.911 293.077 322.336 293.32 322.896C293.535 322.355 293.889 321.935 294.384 321.636C294.879 321.337 295.429 321.188 296.036 321.188ZM302.55 322.742C302.802 322.303 303.175 321.939 303.67 321.65C304.174 321.351 304.757 321.202 305.42 321.202C306.101 321.202 306.717 321.365 307.268 321.692C307.828 322.019 308.266 322.481 308.584 323.078C308.901 323.666 309.06 324.352 309.06 325.136C309.06 325.911 308.901 326.601 308.584 327.208C308.266 327.815 307.828 328.286 307.268 328.622C306.717 328.958 306.101 329.126 305.42 329.126C304.766 329.126 304.188 328.981 303.684 328.692C303.189 328.393 302.811 328.025 302.55 327.586V332.64H301.276V321.328H302.55V322.742ZM307.758 325.136C307.758 324.557 307.641 324.053 307.408 323.624C307.174 323.195 306.857 322.868 306.456 322.644C306.064 322.42 305.63 322.308 305.154 322.308C304.687 322.308 304.253 322.425 303.852 322.658C303.46 322.882 303.142 323.213 302.9 323.652C302.666 324.081 302.55 324.581 302.55 325.15C302.55 325.729 302.666 326.237 302.9 326.676C303.142 327.105 303.46 327.437 303.852 327.67C304.253 327.894 304.687 328.006 305.154 328.006C305.63 328.006 306.064 327.894 306.456 327.67C306.857 327.437 307.174 327.105 307.408 326.676C307.641 326.237 307.758 325.724 307.758 325.136ZM312.053 318.64V329H310.779V318.64H312.053ZM313.79 325.136C313.79 324.352 313.949 323.666 314.266 323.078C314.583 322.481 315.017 322.019 315.568 321.692C316.128 321.365 316.749 321.202 317.43 321.202C318.102 321.202 318.685 321.347 319.18 321.636C319.675 321.925 320.043 322.289 320.286 322.728V321.328H321.574V329H320.286V327.572C320.034 328.02 319.656 328.393 319.152 328.692C318.657 328.981 318.079 329.126 317.416 329.126C316.735 329.126 316.119 328.958 315.568 328.622C315.017 328.286 314.583 327.815 314.266 327.208C313.949 326.601 313.79 325.911 313.79 325.136ZM320.286 325.15C320.286 324.571 320.169 324.067 319.936 323.638C319.703 323.209 319.385 322.882 318.984 322.658C318.592 322.425 318.158 322.308 317.682 322.308C317.206 322.308 316.772 322.42 316.38 322.644C315.988 322.868 315.675 323.195 315.442 323.624C315.209 324.053 315.092 324.557 315.092 325.136C315.092 325.724 315.209 326.237 315.442 326.676C315.675 327.105 315.988 327.437 316.38 327.67C316.772 327.894 317.206 328.006 317.682 328.006C318.158 328.006 318.592 327.894 318.984 327.67C319.385 327.437 319.703 327.105 319.936 326.676C320.169 326.237 320.286 325.729 320.286 325.15ZM325.323 322.378V326.9C325.323 327.273 325.402 327.539 325.561 327.698C325.72 327.847 325.995 327.922 326.387 327.922H327.325V329H326.177C325.468 329 324.936 328.837 324.581 328.51C324.226 328.183 324.049 327.647 324.049 326.9V322.378H323.055V321.328H324.049V319.396H325.323V321.328H327.325V322.378H325.323ZM335.911 324.87C335.911 325.113 335.897 325.369 335.869 325.64H329.737C329.783 326.396 330.04 326.989 330.507 327.418C330.983 327.838 331.557 328.048 332.229 328.048C332.779 328.048 333.237 327.922 333.601 327.67C333.974 327.409 334.235 327.063 334.385 326.634H335.757C335.551 327.371 335.141 327.973 334.525 328.44C333.909 328.897 333.143 329.126 332.229 329.126C331.501 329.126 330.847 328.963 330.269 328.636C329.699 328.309 329.251 327.847 328.925 327.25C328.598 326.643 328.435 325.943 328.435 325.15C328.435 324.357 328.593 323.661 328.911 323.064C329.228 322.467 329.671 322.009 330.241 321.692C330.819 321.365 331.482 321.202 332.229 321.202C332.957 321.202 333.601 321.361 334.161 321.678C334.721 321.995 335.15 322.434 335.449 322.994C335.757 323.545 335.911 324.17 335.911 324.87ZM334.595 324.604C334.595 324.119 334.487 323.703 334.273 323.358C334.058 323.003 333.764 322.737 333.391 322.56C333.027 322.373 332.621 322.28 332.173 322.28C331.529 322.28 330.978 322.485 330.521 322.896C330.073 323.307 329.816 323.876 329.751 324.604H334.595ZM340.35 329.126C339.762 329.126 339.235 329.028 338.768 328.832C338.302 328.627 337.933 328.347 337.662 327.992C337.392 327.628 337.242 327.213 337.214 326.746H338.53C338.568 327.129 338.745 327.441 339.062 327.684C339.389 327.927 339.814 328.048 340.336 328.048C340.822 328.048 341.204 327.941 341.484 327.726C341.764 327.511 341.904 327.241 341.904 326.914C341.904 326.578 341.755 326.331 341.456 326.172C341.158 326.004 340.696 325.841 340.07 325.682C339.501 325.533 339.034 325.383 338.67 325.234C338.316 325.075 338.008 324.847 337.746 324.548C337.494 324.24 337.368 323.839 337.368 323.344C337.368 322.952 337.485 322.593 337.718 322.266C337.952 321.939 338.283 321.683 338.712 321.496C339.142 321.3 339.632 321.202 340.182 321.202C341.032 321.202 341.718 321.417 342.24 321.846C342.763 322.275 343.043 322.863 343.08 323.61H341.806C341.778 323.209 341.615 322.887 341.316 322.644C341.027 322.401 340.635 322.28 340.14 322.28C339.683 322.28 339.319 322.378 339.048 322.574C338.778 322.77 338.642 323.027 338.642 323.344C338.642 323.596 338.722 323.806 338.88 323.974C339.048 324.133 339.254 324.263 339.496 324.366C339.748 324.459 340.094 324.567 340.532 324.688C341.083 324.837 341.531 324.987 341.876 325.136C342.222 325.276 342.516 325.491 342.758 325.78C343.01 326.069 343.141 326.447 343.15 326.914C343.15 327.334 343.034 327.712 342.8 328.048C342.567 328.384 342.236 328.65 341.806 328.846C341.386 329.033 340.901 329.126 340.35 329.126Z" fill="#666666"/>
<path d="M507.955 322.098C507.955 322.91 507.675 323.587 507.115 324.128C506.564 324.66 505.72 324.926 504.581 324.926H502.705V329H501.431V319.242H504.581C505.682 319.242 506.518 319.508 507.087 320.04C507.666 320.572 507.955 321.258 507.955 322.098ZM504.581 323.876C505.29 323.876 505.813 323.722 506.149 323.414C506.485 323.106 506.653 322.667 506.653 322.098C506.653 320.894 505.962 320.292 504.581 320.292H502.705V323.876H504.581ZM510.854 322.574C511.078 322.135 511.396 321.795 511.806 321.552C512.226 321.309 512.735 321.188 513.332 321.188V322.504H512.996C511.568 322.504 510.854 323.279 510.854 324.828V329H509.58V321.328H510.854V322.574ZM518.191 329.126C517.472 329.126 516.819 328.963 516.231 328.636C515.652 328.309 515.195 327.847 514.859 327.25C514.532 326.643 514.369 325.943 514.369 325.15C514.369 324.366 514.537 323.675 514.873 323.078C515.218 322.471 515.685 322.009 516.273 321.692C516.861 321.365 517.519 321.202 518.247 321.202C518.975 321.202 519.633 321.365 520.221 321.692C520.809 322.009 521.271 322.467 521.607 323.064C521.952 323.661 522.125 324.357 522.125 325.15C522.125 325.943 521.948 326.643 521.593 327.25C521.248 327.847 520.776 328.309 520.179 328.636C519.582 328.963 518.919 329.126 518.191 329.126ZM518.191 328.006C518.648 328.006 519.078 327.899 519.479 327.684C519.88 327.469 520.202 327.147 520.445 326.718C520.697 326.289 520.823 325.766 520.823 325.15C520.823 324.534 520.702 324.011 520.459 323.582C520.216 323.153 519.899 322.835 519.507 322.63C519.115 322.415 518.69 322.308 518.233 322.308C517.766 322.308 517.337 322.415 516.945 322.63C516.562 322.835 516.254 323.153 516.021 323.582C515.788 324.011 515.671 324.534 515.671 325.15C515.671 325.775 515.783 326.303 516.007 326.732C516.24 327.161 516.548 327.483 516.931 327.698C517.314 327.903 517.734 328.006 518.191 328.006ZM523.366 325.136C523.366 324.352 523.525 323.666 523.842 323.078C524.159 322.481 524.593 322.019 525.144 321.692C525.704 321.365 526.329 321.202 527.02 321.202C527.617 321.202 528.173 321.342 528.686 321.622C529.199 321.893 529.591 322.252 529.862 322.7V318.64H531.15V329H529.862V327.558C529.61 328.015 529.237 328.393 528.742 328.692C528.247 328.981 527.669 329.126 527.006 329.126C526.325 329.126 525.704 328.958 525.144 328.622C524.593 328.286 524.159 327.815 523.842 327.208C523.525 326.601 523.366 325.911 523.366 325.136ZM529.862 325.15C529.862 324.571 529.745 324.067 529.512 323.638C529.279 323.209 528.961 322.882 528.56 322.658C528.168 322.425 527.734 322.308 527.258 322.308C526.782 322.308 526.348 322.42 525.956 322.644C525.564 322.868 525.251 323.195 525.018 323.624C524.785 324.053 524.668 324.557 524.668 325.136C524.668 325.724 524.785 326.237 525.018 326.676C525.251 327.105 525.564 327.437 525.956 327.67C526.348 327.894 526.782 328.006 527.258 328.006C527.734 328.006 528.168 327.894 528.56 327.67C528.961 327.437 529.279 327.105 529.512 326.676C529.745 326.237 529.862 325.729 529.862 325.15ZM540.149 321.328V329H538.875V327.866C538.632 328.258 538.292 328.566 537.853 328.79C537.424 329.005 536.948 329.112 536.425 329.112C535.828 329.112 535.291 328.991 534.815 328.748C534.339 328.496 533.961 328.123 533.681 327.628C533.41 327.133 533.275 326.531 533.275 325.822V321.328H534.535V325.654C534.535 326.41 534.726 326.993 535.109 327.404C535.492 327.805 536.014 328.006 536.677 328.006C537.358 328.006 537.895 327.796 538.287 327.376C538.679 326.956 538.875 326.345 538.875 325.542V321.328H540.149ZM541.866 325.15C541.866 324.357 542.025 323.666 542.342 323.078C542.659 322.481 543.098 322.019 543.658 321.692C544.227 321.365 544.876 321.202 545.604 321.202C546.547 321.202 547.321 321.431 547.928 321.888C548.544 322.345 548.95 322.98 549.146 323.792H547.774C547.643 323.325 547.387 322.957 547.004 322.686C546.631 322.415 546.164 322.28 545.604 322.28C544.876 322.28 544.288 322.532 543.84 323.036C543.392 323.531 543.168 324.235 543.168 325.15C543.168 326.074 543.392 326.788 543.84 327.292C544.288 327.796 544.876 328.048 545.604 328.048C546.164 328.048 546.631 327.917 547.004 327.656C547.377 327.395 547.634 327.021 547.774 326.536H549.146C548.941 327.32 548.53 327.95 547.914 328.426C547.298 328.893 546.528 329.126 545.604 329.126C544.876 329.126 544.227 328.963 543.658 328.636C543.098 328.309 542.659 327.847 542.342 327.25C542.025 326.653 541.866 325.953 541.866 325.15ZM552.442 322.378V326.9C552.442 327.273 552.521 327.539 552.68 327.698C552.839 327.847 553.114 327.922 553.506 327.922H554.444V329H553.296C552.587 329 552.055 328.837 551.7 328.51C551.345 328.183 551.168 327.647 551.168 326.9V322.378H550.174V321.328H551.168V319.396H552.442V321.328H554.444V322.378H552.442ZM565.572 326.83H561.316L560.532 329H559.188L562.716 319.298H564.186L567.7 329H566.356L565.572 326.83ZM565.208 325.794L563.444 320.866L561.68 325.794H565.208ZM570.554 319.242V329H569.28V319.242H570.554Z" fill="#666666"/>
<defs>
<filter id="filter0_bd_6_6078" x="197.603" y="155.603" width="206.795" height="206.795" filterUnits="userSpaceOnUse" color-interpolation-filters="sRGB">
<feFlood flood-opacity="0" result="BackgroundImageFix"/>
<feGaussianBlur in="BackgroundImageFix" stdDeviation="28.5218"/>
<feComposite in2="SourceAlpha" operator="in" result="effect1_backgroundBlur_6_6078"/>
<feColorMatrix in="SourceAlpha" type="matrix" values="0 0 0 0 0 0 0 0 0 0 0 0 0 0 0 0 0 0 127 0" result="hardAlpha"/>
<feOffset dy="8.66484"/>
<feGaussianBlur stdDeviation="6.85967"/>
<feComposite in2="hardAlpha" operator="out"/>
<feColorMatrix type="matrix" values="0 0 0 0 0.0867708 0 0 0 0 0.115317 0 0 0 0 0.141667 0 0 0 0.08 0"/>
<feBlend mode="normal" in2="effect1_backgroundBlur_6_6078" result="effect2_dropShadow_6_6078"/>
<feBlend mode="normal" in="SourceGraphic" in2="effect2_dropShadow_6_6078" result="shape"/>
</filter>
<filter id="filter1_bd_6_6078" x="434.603" y="155.603" width="206.795" height="206.795" filterUnits="userSpaceOnUse" color-interpolation-filters="sRGB">
<feFlood flood-opacity="0" result="BackgroundImageFix"/>
<feGaussianBlur in="BackgroundImageFix" stdDeviation="28.5218"/>
<feComposite in2="SourceAlpha" operator="in" result="effect1_backgroundBlur_6_6078"/>
<feColorMatrix in="SourceAlpha" type="matrix" values="0 0 0 0 0 0 0 0 0 0 0 0 0 0 0 0 0 0 127 0" result="hardAlpha"/>
<feOffset dy="8.66484"/>
<feGaussianBlur stdDeviation="6.85967"/>
<feComposite in2="hardAlpha" operator="out"/>
<feColorMatrix type="matrix" values="0 0 0 0 0.0867708 0 0 0 0 0.115317 0 0 0 0 0.141667 0 0 0 0.08 0"/>
<feBlend mode="normal" in2="effect1_backgroundBlur_6_6078" result="effect2_dropShadow_6_6078"/>
<feBlend mode="normal" in="SourceGraphic" in2="effect2_dropShadow_6_6078" result="shape"/>
</filter>
<filter id="filter2_bd_6_6078" x="-42.3973" y="155.603" width="206.795" height="206.795" filterUnits="userSpaceOnUse" color-interpolation-filters="sRGB">
<feFlood flood-opacity="0" result="BackgroundImageFix"/>
<feGaussianBlur in="BackgroundImageFix" stdDeviation="28.5218"/>
<feComposite in2="SourceAlpha" operator="in" result="effect1_backgroundBlur_6_6078"/>
<feColorMatrix in="SourceAlpha" type="matrix" values="0 0 0 0 0 0 0 0 0 0 0 0 0 0 0 0 0 0 127 0" result="hardAlpha"/>
<feOffset dy="8.66484"/>
<feGaussianBlur stdDeviation="6.85967"/>
<feComposite in2="hardAlpha" operator="out"/>
<feColorMatrix type="matrix" values="0 0 0 0 0.0867708 0 0 0 0 0.115317 0 0 0 0 0.141667 0 0 0 0.08 0"/>
<feBlend mode="normal" in2="effect1_backgroundBlur_6_6078" result="effect2_dropShadow_6_6078"/>
<feBlend mode="normal" in="SourceGraphic" in2="effect2_dropShadow_6_6078" result="shape"/>
</filter>
<clipPath id="clip0_6_6078">
<rect width="36" height="36" fill="white" transform="translate(480 140)"/>
</clipPath>
</defs>
</svg>
