<svg width="548" height="340" viewBox="0 0 548 340" fill="none" xmlns="http://www.w3.org/2000/svg">
<path d="M507.173 278.199C507.173 152.379 405.175 50.3813 279.355 50.3813C153.535 50.3813 51.5371 152.379 51.5371 278.199" stroke="#034737" stroke-width="1.25866" stroke-dasharray="18.88 18.88"/>
<path d="M10 256C10 244.799 10 239.198 12.1799 234.92C14.0973 231.157 17.1569 228.097 20.9202 226.18C25.1984 224 30.799 224 42 224H68C79.2011 224 84.8016 224 89.0798 226.18C92.8431 228.097 95.9027 231.157 97.8201 234.92C100 239.198 100 244.799 100 256V282C100 293.201 100 298.802 97.8201 303.08C95.9027 306.843 92.8431 309.903 89.0798 311.82C84.8016 314 79.201 314 68 314H42C30.7989 314 25.1984 314 20.9202 311.82C17.1569 309.903 14.0973 306.843 12.1799 303.08C10 298.802 10 293.201 10 282V256Z" fill="#034737"/>
<rect x="35.1995" y="253.103" width="39.7866" height="30.9451" rx="4.94596" stroke="white" stroke-width="3.21488" stroke-linecap="round" stroke-linejoin="round"/>
<path d="M35.1995 257.524L55.0928 270.787L74.9861 257.524" stroke="white" stroke-width="3.21488" stroke-linecap="round" stroke-linejoin="round"/>
<path d="M110.898 58C110.898 46.7989 110.898 41.1984 113.078 36.9202C114.996 33.1569 118.055 30.0973 121.819 28.1799C126.097 26 131.697 26 142.898 26H168.898C180.099 26 185.7 26 189.978 28.1799C193.741 30.0973 196.801 33.1569 198.719 36.9202C200.898 41.1984 200.898 46.799 200.898 58V84C200.898 95.2011 200.898 100.802 198.719 105.08C196.801 108.843 193.741 111.903 189.978 113.82C185.7 116 180.099 116 168.898 116H142.898C131.697 116 126.097 116 121.819 113.82C118.055 111.903 114.996 108.843 113.078 105.08C110.898 100.802 110.898 95.201 110.898 84V58Z" fill="#034737"/>
<path d="M162.394 96.4353C162.37 96.4353 162.351 96.4488 162.327 96.4488H142.83C142.373 96.4488 141.934 96.2655 141.611 95.9393C141.288 95.6131 141.106 95.1706 141.106 94.7092C141.106 94.2478 141.288 93.8054 141.611 93.4791C141.934 93.1529 142.373 92.9696 142.83 92.9696H162.277L162.327 92.9595C165.876 92.9598 169.347 91.9073 172.309 89.9327C175.271 87.9581 177.593 85.1485 178.986 81.853C180.379 78.5575 180.783 74.9213 180.146 71.3963C179.51 67.8712 177.861 64.6127 175.406 62.0255C172.95 59.4384 169.795 57.6366 166.334 56.8442C162.872 56.0517 159.257 56.3035 155.936 57.5682C152.615 58.8329 149.735 61.0548 147.654 63.9578C145.574 66.8608 144.384 70.3169 144.233 73.8968C144.207 74.3528 144.004 74.7802 143.669 75.0868C143.334 75.3933 142.892 75.5544 142.44 75.5352C141.988 75.516 141.562 75.3181 141.253 74.9842C140.944 74.6503 140.778 74.2073 140.79 73.7507C140.984 68.9032 142.783 64.2615 145.898 60.5672L144.864 59.5234C144.699 59.3629 144.568 59.171 144.477 58.9587C144.387 58.7465 144.34 58.5182 144.338 58.2872C144.336 58.0563 144.379 57.8272 144.466 57.6134C144.553 57.3996 144.68 57.2054 144.842 57.042C145.004 56.8787 145.196 56.7495 145.408 56.6621C145.62 56.5746 145.847 56.5306 146.076 56.5326C146.305 56.5346 146.531 56.5826 146.741 56.6738C146.951 56.7649 147.141 56.8975 147.3 57.0636L148.343 58.115C150.983 55.8398 154.129 54.2419 157.512 53.4571C160.895 52.6722 164.416 52.7238 167.776 53.6072C171.135 54.4907 174.233 56.18 176.807 58.5315C179.381 60.8831 181.354 63.8272 182.559 67.1138C183.765 70.4003 184.166 73.932 183.729 77.4086C183.292 80.8852 182.03 84.2039 180.05 87.0825C178.07 89.9611 175.431 92.3146 172.357 93.9427C169.283 95.5709 165.865 96.4266 162.394 96.4353ZM170.265 66.6715C169.941 66.3454 169.503 66.1622 169.046 66.1622C168.589 66.1622 168.151 66.3454 167.828 66.6715L162.835 71.7115C162.669 71.6614 162.499 71.6265 162.327 71.6071C161.724 71.6071 161.135 71.7876 160.634 72.1257C160.132 72.4637 159.742 72.9443 159.511 73.5065C159.28 74.0687 159.22 74.6873 159.338 75.2842C159.455 75.881 159.746 76.4292 160.172 76.8595C160.598 77.2897 161.141 77.5827 161.732 77.7014C162.324 77.8201 162.936 77.7591 163.493 77.5262C164.05 77.2933 164.526 76.8989 164.861 76.3929C165.196 75.8869 165.375 75.292 165.374 74.6835C165.355 74.5097 165.321 74.3381 165.271 74.1706L170.264 69.1299C170.587 68.8038 170.768 68.3617 170.768 67.9008C170.768 67.4398 170.587 66.9977 170.265 66.6715ZM159.527 49.4792H165.129C165.586 49.4792 166.024 49.2959 166.347 48.9697C166.67 48.6435 166.852 48.201 166.852 47.7396C166.852 47.2782 166.67 46.8358 166.347 46.5095C166.024 46.1833 165.586 46 165.129 46H159.527C159.07 46 158.631 46.1833 158.308 46.5095C157.985 46.8358 157.803 47.2782 157.803 47.7396C157.803 48.201 157.985 48.6435 158.308 48.9697C158.631 49.2959 159.07 49.4792 159.527 49.4792ZM158.295 87.7508C158.295 87.2894 158.113 86.8469 157.79 86.5207C157.467 86.1944 157.029 86.0111 156.572 86.0111H135.124C134.667 86.0111 134.228 86.1944 133.905 86.5207C133.582 86.8469 133.4 87.2894 133.4 87.7508C133.4 88.2121 133.582 88.6546 133.905 88.9808C134.228 89.3071 134.667 89.4904 135.124 89.4904H156.572C157.029 89.4904 157.467 89.3071 157.79 88.9808C158.113 88.6546 158.295 88.2121 158.295 87.7508ZM158.974 80.7923C158.974 80.3309 158.793 79.8884 158.47 79.5622C158.147 79.236 157.708 79.0527 157.251 79.0527H130.723C130.266 79.0527 129.828 79.236 129.505 79.5622C129.182 79.8884 129 80.3309 129 80.7923C129 81.2537 129.182 81.6961 129.505 82.0224C129.828 82.3486 130.266 82.5319 130.723 82.5319H157.251C157.708 82.5319 158.147 82.3486 158.47 82.0224C158.793 81.6961 158.974 81.2537 158.974 80.7923Z" fill="white"/>
<path d="M358.689 58C358.689 46.7989 358.689 41.1984 360.869 36.9202C362.787 33.1569 365.846 30.0973 369.61 28.1799C373.888 26 379.488 26 390.689 26H416.689C427.891 26 433.491 26 437.769 28.1799C441.533 30.0973 444.592 33.1569 446.51 36.9202C448.689 41.1984 448.689 46.799 448.689 58V84C448.689 95.2011 448.689 100.802 446.51 105.08C444.592 108.843 441.533 111.903 437.769 113.82C433.491 116 427.891 116 416.689 116H390.689C379.488 116 373.888 116 369.61 113.82C365.846 111.903 362.787 108.843 360.869 105.08C358.689 100.802 358.689 95.201 358.689 84V58Z" fill="#034737"/>
<path d="M403.545 57.2983C396.241 57.2983 390.298 63.2406 390.298 70.5446C390.298 77.8487 396.241 83.7909 403.545 83.7909C410.849 83.7909 416.791 77.8487 416.791 70.5446C416.791 63.2406 410.849 57.2983 403.545 57.2983ZM403.545 81.753C397.364 81.753 392.336 76.7249 392.336 70.5446C392.336 64.3643 397.364 59.3362 403.545 59.3362C409.725 59.3362 414.753 64.3643 414.753 70.5446C414.753 76.7249 409.725 81.753 403.545 81.753Z" fill="white"/>
<path d="M403.546 62.1717C398.929 62.1717 395.173 65.9278 395.173 70.5448C395.173 75.1617 398.929 78.9179 403.546 78.9179C408.163 78.9179 411.919 75.1617 411.919 70.5448C411.919 65.9278 408.163 62.1717 403.546 62.1717ZM403.546 76.88C400.053 76.88 397.211 74.038 397.211 70.5448C397.211 67.0515 400.053 64.2096 403.546 64.2096C407.039 64.2096 409.881 67.0515 409.881 70.5448C409.881 74.038 407.039 76.88 403.546 76.88ZM400.082 50.981L402.527 49.1469V54.2416C402.527 54.8044 402.983 55.2606 403.546 55.2606C404.109 55.2606 404.565 54.8044 404.565 54.2416V49.1469L407.011 50.981C407.458 51.3166 408.097 51.23 408.437 50.7772C408.775 50.327 408.684 49.6882 408.233 49.3507C403.882 46.0887 404.12 46.2567 404.002 46.1976C403.616 46.0132 403.209 46.0854 402.935 46.2938L398.859 49.3507C398.409 49.6882 398.318 50.327 398.655 50.7772C398.993 51.2274 399.632 51.3187 400.082 50.981ZM407.011 90.1085L404.565 91.9426V86.8479C404.565 86.2853 404.109 85.829 403.546 85.829C402.983 85.829 402.527 86.2853 402.527 86.8479V91.9426L400.082 90.1085C399.632 89.7709 398.993 89.8621 398.655 90.3123C398.318 90.7625 398.409 91.4013 398.859 91.7389L402.935 94.7957C403.045 94.8785 403.183 94.9435 403.332 94.9762C403.505 95.0131 403.63 95.0022 403.778 94.9728C403.911 94.9419 404.044 94.8809 404.158 94.7958L408.233 91.739C408.684 91.4014 408.775 90.7626 408.437 90.3124C408.1 89.8623 407.461 89.7711 407.011 90.1085ZM414.384 59.7372C414.782 60.1351 415.427 60.1351 415.825 59.7372L419.427 56.1347L419.86 59.1609C419.939 59.7155 420.452 60.1053 421.012 60.0255C421.569 59.9459 421.957 59.4298 421.877 58.8727C421.162 53.946 421.175 53.8294 421.114 53.651C421.006 53.3306 420.756 53.0958 420.447 53.0004C420.331 52.9643 420.717 53.0256 415.248 52.2441C414.691 52.164 414.175 52.5516 414.096 53.1086C414.016 53.6657 414.403 54.1819 414.96 54.2614L417.986 54.6937L414.384 58.2962C413.986 58.6941 413.986 59.3393 414.384 59.7372ZM392.769 81.3522C392.371 80.9544 391.726 80.9544 391.328 81.3522L387.725 84.9547L387.293 81.9286C387.213 81.3715 386.696 80.9843 386.14 81.0641C385.583 81.1436 385.196 81.6598 385.275 82.2168L385.996 87.2604C386.058 87.6587 386.328 87.9611 386.675 88.0799C386.832 88.1341 386.533 88.0734 391.904 88.8456C392.46 88.9248 392.977 88.5392 393.057 87.981C393.136 87.4239 392.749 86.9078 392.192 86.8282L389.166 86.3959L392.769 82.7934C393.167 82.3954 393.167 81.7502 392.769 81.3522ZM427.8 69.9375C427.631 69.7177 428.627 71.0409 424.74 65.8576C424.403 65.4074 423.764 65.3161 423.314 65.6538C422.864 65.9914 422.772 66.6302 423.11 67.0803L424.944 69.5258H419.849C419.287 69.5258 418.83 69.982 418.83 70.5448C418.83 71.1074 419.287 71.5637 419.849 71.5637H424.944L423.11 74.0092C422.6 74.6887 423.1 75.6396 423.924 75.6396C424.234 75.6396 424.54 75.4988 424.74 75.2319C427.983 70.9034 427.87 71.0961 427.946 70.873C428.059 70.5357 427.987 70.1901 427.8 69.9375ZM382.148 71.5637H387.243C387.806 71.5637 388.262 71.1074 388.262 70.5448C388.262 69.982 387.806 69.5258 387.243 69.5258H382.148L383.982 67.0803C384.32 66.6302 384.229 65.9914 383.779 65.6538C383.328 65.3162 382.69 65.4074 382.352 65.8576C379.12 70.1724 379.285 69.9342 379.222 70.0477C379.031 70.3853 379.05 70.8096 379.282 71.136C379.332 71.2066 381.646 74.2895 382.352 75.2319C382.552 75.4988 382.858 75.6396 383.168 75.6396C383.992 75.6396 384.493 74.6901 383.982 74.0092L382.148 71.5637ZM421.012 81.0641C420.455 80.9849 419.939 81.3717 419.86 81.9286L419.427 84.9547L415.825 81.3522C415.427 80.9545 414.782 80.9544 414.384 81.3522C413.986 81.7501 413.986 82.3953 414.384 82.7933L417.986 86.3958L414.96 86.8281C414.403 86.9077 414.016 87.4239 414.096 87.9809C414.168 88.4891 414.604 88.8558 415.103 88.8558C415.24 88.8558 414.977 88.8806 420.292 88.125C420.78 88.0468 421.096 87.6742 421.156 87.265C421.199 86.9179 420.938 88.7864 421.877 82.2168C421.957 81.6598 421.57 81.1437 421.012 81.0641ZM386.285 60.0357C386.784 60.0357 387.22 59.6689 387.293 59.1608L387.725 56.1347L391.328 59.7372C391.527 59.9362 391.787 60.0356 392.048 60.0356C392.309 60.0356 392.57 59.9362 392.769 59.7372C393.167 59.3393 393.167 58.6941 392.769 58.2961L389.166 54.6936L392.192 54.2613C392.749 54.1817 393.136 53.6656 393.057 53.1085C392.977 52.5514 392.46 52.1644 391.904 52.244C386.565 53.007 386.854 52.9546 386.707 52.9996C386.317 53.1197 386.049 53.4519 385.996 53.8291L385.275 58.8727C385.188 59.486 385.664 60.0357 386.285 60.0357Z" fill="white"/>
<path d="M458 256C458 244.799 458 239.198 460.18 234.92C462.097 231.157 465.157 228.097 468.92 226.18C473.198 224 478.799 224 490 224H516C527.201 224 532.802 224 537.08 226.18C540.843 228.097 543.903 231.157 545.82 234.92C548 239.198 548 244.799 548 256V282C548 293.201 548 298.802 545.82 303.08C543.903 306.843 540.843 309.903 537.08 311.82C532.802 314 527.201 314 516 314H490C478.799 314 473.198 314 468.92 311.82C465.157 309.903 462.097 306.843 460.18 303.08C458 298.802 458 293.201 458 282V256Z" fill="#034737"/>
<path d="M501.247 287.154H487.018C484.705 287.154 482.83 285.279 482.83 282.966V257.838C482.83 255.525 484.705 253.65 487.018 253.65H512.147C514.46 253.65 516.335 255.525 516.335 257.838V266.214" stroke="white" stroke-width="3.04567" stroke-linecap="round" stroke-linejoin="round"/>
<path d="M514.239 272.496V280.872H522.615" stroke="white" stroke-width="3.04567" stroke-linecap="round" stroke-linejoin="round"/>
<circle cx="514.241" cy="280.872" r="8.37612" stroke="white" stroke-width="3.04567" stroke-linecap="round" stroke-linejoin="round"/>
<path d="M507.959 249.461V257.838" stroke="white" stroke-width="3.04567" stroke-linecap="round" stroke-linejoin="round"/>
<path d="M491.206 249.461V257.838" stroke="white" stroke-width="3.04567" stroke-linecap="round" stroke-linejoin="round"/>
<path d="M482.83 266.214H516.335" stroke="white" stroke-width="3.04567" stroke-linecap="round" stroke-linejoin="round"/>
<circle cx="290.436" cy="267.471" r="14.8379" fill="#034737"/>
<line x1="452.17" y1="268.213" x2="110.898" y2="268.213" stroke="#034737" stroke-width="1.48379" stroke-dasharray="8.9 8.9"/>
<line x1="381.569" y1="128.4" x2="291.058" y2="267.334" stroke="#034737" stroke-width="1.48379" stroke-dasharray="8.9 8.9"/>
<line x1="193.119" y1="124.61" x2="291.08" y2="268.568" stroke="#034737" stroke-width="1.48379" stroke-dasharray="8.9 8.9"/>
<path d="M7.29467 334.83H3.03867L2.25467 337H0.910673L4.43867 327.298H5.90867L9.42267 337H8.07867L7.29467 334.83ZM6.93067 333.794L5.16667 328.866L3.40267 333.794H6.93067ZM12.2763 327.242V337H11.0023V327.242H12.2763ZM25.264 332.87C25.264 333.113 25.25 333.369 25.222 333.64H19.09C19.1367 334.396 19.3933 334.989 19.86 335.418C20.336 335.838 20.91 336.048 21.582 336.048C22.1327 336.048 22.59 335.922 22.954 335.67C23.3273 335.409 23.5887 335.063 23.738 334.634H25.11C24.9047 335.371 24.494 335.973 23.878 336.44C23.262 336.897 22.4967 337.126 21.582 337.126C20.854 337.126 20.2007 336.963 19.622 336.636C19.0527 336.309 18.6047 335.847 18.278 335.25C17.9513 334.643 17.788 333.943 17.788 333.15C17.788 332.357 17.9467 331.661 18.264 331.064C18.5813 330.467 19.0247 330.009 19.594 329.692C20.1727 329.365 20.8353 329.202 21.582 329.202C22.31 329.202 22.954 329.361 23.514 329.678C24.074 329.995 24.5033 330.434 24.802 330.994C25.11 331.545 25.264 332.17 25.264 332.87ZM23.948 332.604C23.948 332.119 23.8407 331.703 23.626 331.358C23.4113 331.003 23.1173 330.737 22.744 330.56C22.38 330.373 21.974 330.28 21.526 330.28C20.882 330.28 20.3313 330.485 19.874 330.896C19.426 331.307 19.1693 331.876 19.104 332.604H23.948ZM36.2136 329.188C36.811 329.188 37.343 329.314 37.8096 329.566C38.2763 329.809 38.645 330.177 38.9156 330.672C39.1863 331.167 39.3216 331.769 39.3216 332.478V337H38.0616V332.66C38.0616 331.895 37.8703 331.311 37.4876 330.91C37.1143 330.499 36.6056 330.294 35.9616 330.294C35.299 330.294 34.7716 330.509 34.3796 330.938C33.9876 331.358 33.7916 331.969 33.7916 332.772V337H32.5316V332.66C32.5316 331.895 32.3403 331.311 31.9576 330.91C31.5843 330.499 31.0756 330.294 30.4316 330.294C29.769 330.294 29.2416 330.509 28.8496 330.938C28.4576 331.358 28.2616 331.969 28.2616 332.772V337H26.9876V329.328H28.2616V330.434C28.5136 330.033 28.8496 329.725 29.2696 329.51C29.699 329.295 30.1703 329.188 30.6836 329.188C31.3276 329.188 31.897 329.333 32.3916 329.622C32.8863 329.911 33.255 330.336 33.4976 330.896C33.7123 330.355 34.067 329.935 34.5616 329.636C35.0563 329.337 35.607 329.188 36.2136 329.188ZM40.9775 333.136C40.9775 332.352 41.1361 331.666 41.4535 331.078C41.7708 330.481 42.2048 330.019 42.7555 329.692C43.3155 329.365 43.9361 329.202 44.6175 329.202C45.2895 329.202 45.8728 329.347 46.3675 329.636C46.8621 329.925 47.2308 330.289 47.4735 330.728V329.328H48.7615V337H47.4735V335.572C47.2215 336.02 46.8435 336.393 46.3395 336.692C45.8448 336.981 45.2661 337.126 44.6035 337.126C43.9221 337.126 43.3061 336.958 42.7555 336.622C42.2048 336.286 41.7708 335.815 41.4535 335.208C41.1361 334.601 40.9775 333.911 40.9775 333.136ZM47.4735 333.15C47.4735 332.571 47.3568 332.067 47.1235 331.638C46.8901 331.209 46.5728 330.882 46.1715 330.658C45.7795 330.425 45.3455 330.308 44.8695 330.308C44.3935 330.308 43.9595 330.42 43.5675 330.644C43.1755 330.868 42.8628 331.195 42.6295 331.624C42.3961 332.053 42.2795 332.557 42.2795 333.136C42.2795 333.724 42.3961 334.237 42.6295 334.676C42.8628 335.105 43.1755 335.437 43.5675 335.67C43.9595 335.894 44.3935 336.006 44.8695 336.006C45.3455 336.006 45.7795 335.894 46.1715 335.67C46.5728 335.437 46.8901 335.105 47.1235 334.676C47.3568 334.237 47.4735 333.729 47.4735 333.15ZM51.6144 328.082C51.3717 328.082 51.1664 327.998 50.9984 327.83C50.8304 327.662 50.7464 327.457 50.7464 327.214C50.7464 326.971 50.8304 326.766 50.9984 326.598C51.1664 326.43 51.3717 326.346 51.6144 326.346C51.8477 326.346 52.0437 326.43 52.2024 326.598C52.3704 326.766 52.4544 326.971 52.4544 327.214C52.4544 327.457 52.3704 327.662 52.2024 327.83C52.0437 327.998 51.8477 328.082 51.6144 328.082ZM52.2304 329.328V337H50.9564V329.328H52.2304ZM55.7177 326.64V337H54.4437V326.64H55.7177ZM62.9795 330.756C63.2408 330.299 63.6235 329.925 64.1275 329.636C64.6315 329.347 65.2055 329.202 65.8495 329.202C66.5401 329.202 67.1608 329.365 67.7115 329.692C68.2621 330.019 68.6961 330.481 69.0135 331.078C69.3308 331.666 69.4895 332.352 69.4895 333.136C69.4895 333.911 69.3308 334.601 69.0135 335.208C68.6961 335.815 68.2575 336.286 67.6975 336.622C67.1468 336.958 66.5308 337.126 65.8495 337.126C65.1868 337.126 64.6035 336.981 64.0995 336.692C63.6048 336.403 63.2315 336.034 62.9795 335.586V337H61.7055V326.64H62.9795V330.756ZM68.1875 333.136C68.1875 332.557 68.0708 332.053 67.8375 331.624C67.6041 331.195 67.2868 330.868 66.8855 330.644C66.4935 330.42 66.0595 330.308 65.5835 330.308C65.1168 330.308 64.6828 330.425 64.2815 330.658C63.8895 330.882 63.5721 331.213 63.3295 331.652C63.0961 332.081 62.9795 332.581 62.9795 333.15C62.9795 333.729 63.0961 334.237 63.3295 334.676C63.5721 335.105 63.8895 335.437 64.2815 335.67C64.6828 335.894 65.1168 336.006 65.5835 336.006C66.0595 336.006 66.4935 335.894 66.8855 335.67C67.2868 335.437 67.6041 335.105 67.8375 334.676C68.0708 334.237 68.1875 333.724 68.1875 333.136ZM78.0124 329.328V337H76.7384V335.866C76.4957 336.258 76.1551 336.566 75.7164 336.79C75.2871 337.005 74.8111 337.112 74.2884 337.112C73.6911 337.112 73.1544 336.991 72.6784 336.748C72.2024 336.496 71.8244 336.123 71.5444 335.628C71.2737 335.133 71.1384 334.531 71.1384 333.822V329.328H72.3984V333.654C72.3984 334.41 72.5897 334.993 72.9724 335.404C73.3551 335.805 73.8777 336.006 74.5404 336.006C75.2217 336.006 75.7584 335.796 76.1504 335.376C76.5424 334.956 76.7384 334.345 76.7384 333.542V329.328H78.0124ZM80.8635 328.082C80.6208 328.082 80.4155 327.998 80.2475 327.83C80.0795 327.662 79.9955 327.457 79.9955 327.214C79.9955 326.971 80.0795 326.766 80.2475 326.598C80.4155 326.43 80.6208 326.346 80.8635 326.346C81.0968 326.346 81.2928 326.43 81.4515 326.598C81.6195 326.766 81.7035 326.971 81.7035 327.214C81.7035 327.457 81.6195 327.662 81.4515 327.83C81.2928 327.998 81.0968 328.082 80.8635 328.082ZM81.4795 329.328V337H80.2055V329.328H81.4795ZM84.9668 326.64V337H83.6928V326.64H84.9668ZM86.7041 333.136C86.7041 332.352 86.8628 331.666 87.1801 331.078C87.4974 330.481 87.9314 330.019 88.4821 329.692C89.0421 329.365 89.6674 329.202 90.3581 329.202C90.9554 329.202 91.5108 329.342 92.0241 329.622C92.5374 329.893 92.9294 330.252 93.2001 330.7V326.64H94.4881V337H93.2001V335.558C92.9481 336.015 92.5748 336.393 92.0801 336.692C91.5854 336.981 91.0068 337.126 90.3441 337.126C89.6628 337.126 89.0421 336.958 88.4821 336.622C87.9314 336.286 87.4974 335.815 87.1801 335.208C86.8628 334.601 86.7041 333.911 86.7041 333.136ZM93.2001 333.15C93.2001 332.571 93.0834 332.067 92.8501 331.638C92.6168 331.209 92.2994 330.882 91.8981 330.658C91.5061 330.425 91.0721 330.308 90.5961 330.308C90.1201 330.308 89.6861 330.42 89.2941 330.644C88.9021 330.868 88.5894 331.195 88.3561 331.624C88.1228 332.053 88.0061 332.557 88.0061 333.136C88.0061 333.724 88.1228 334.237 88.3561 334.676C88.5894 335.105 88.9021 335.437 89.2941 335.67C89.6861 335.894 90.1201 336.006 90.5961 336.006C91.0721 336.006 91.5061 335.894 91.8981 335.67C92.2994 335.437 92.6168 335.105 92.8501 334.676C93.0834 334.237 93.2001 333.729 93.2001 333.15ZM103.683 332.87C103.683 333.113 103.669 333.369 103.641 333.64H97.509C97.5557 334.396 97.8124 334.989 98.279 335.418C98.755 335.838 99.329 336.048 100.001 336.048C100.552 336.048 101.009 335.922 101.373 335.67C101.746 335.409 102.008 335.063 102.157 334.634H103.529C103.324 335.371 102.913 335.973 102.297 336.44C101.681 336.897 100.916 337.126 100.001 337.126C99.273 337.126 98.6197 336.963 98.041 336.636C97.4717 336.309 97.0237 335.847 96.697 335.25C96.3704 334.643 96.207 333.943 96.207 333.15C96.207 332.357 96.3657 331.661 96.683 331.064C97.0004 330.467 97.4437 330.009 98.013 329.692C98.5917 329.365 99.2544 329.202 100.001 329.202C100.729 329.202 101.373 329.361 101.933 329.678C102.493 329.995 102.922 330.434 103.221 330.994C103.529 331.545 103.683 332.17 103.683 332.87ZM102.367 332.604C102.367 332.119 102.26 331.703 102.045 331.358C101.83 331.003 101.536 330.737 101.163 330.56C100.799 330.373 100.393 330.28 99.945 330.28C99.301 330.28 98.7504 330.485 98.293 330.896C97.845 331.307 97.5884 331.876 97.523 332.604H102.367ZM106.681 330.574C106.905 330.135 107.222 329.795 107.633 329.552C108.053 329.309 108.561 329.188 109.159 329.188V330.504H108.823C107.395 330.504 106.681 331.279 106.681 332.828V337H105.407V329.328H106.681V330.574Z" fill="#666666"/>
<path d="M472.442 337.098C471.798 337.098 471.22 336.986 470.706 336.762C470.202 336.529 469.806 336.211 469.516 335.81C469.227 335.399 469.078 334.928 469.068 334.396H470.426C470.473 334.853 470.66 335.241 470.986 335.558C471.322 335.866 471.808 336.02 472.442 336.02C473.049 336.02 473.525 335.871 473.87 335.572C474.225 335.264 474.402 334.872 474.402 334.396C474.402 334.023 474.3 333.719 474.094 333.486C473.889 333.253 473.632 333.075 473.324 332.954C473.016 332.833 472.601 332.702 472.078 332.562C471.434 332.394 470.916 332.226 470.524 332.058C470.142 331.89 469.81 331.629 469.53 331.274C469.26 330.91 469.124 330.425 469.124 329.818C469.124 329.286 469.26 328.815 469.53 328.404C469.801 327.993 470.179 327.676 470.664 327.452C471.159 327.228 471.724 327.116 472.358 327.116C473.273 327.116 474.02 327.345 474.598 327.802C475.186 328.259 475.518 328.866 475.592 329.622H474.192C474.146 329.249 473.95 328.922 473.604 328.642C473.259 328.353 472.802 328.208 472.232 328.208C471.7 328.208 471.266 328.348 470.93 328.628C470.594 328.899 470.426 329.281 470.426 329.776C470.426 330.131 470.524 330.42 470.72 330.644C470.926 330.868 471.173 331.041 471.462 331.162C471.761 331.274 472.176 331.405 472.708 331.554C473.352 331.731 473.87 331.909 474.262 332.086C474.654 332.254 474.99 332.52 475.27 332.884C475.55 333.239 475.69 333.724 475.69 334.34C475.69 334.816 475.564 335.264 475.312 335.684C475.06 336.104 474.687 336.445 474.192 336.706C473.698 336.967 473.114 337.098 472.442 337.098ZM477.131 333.15C477.131 332.357 477.29 331.666 477.607 331.078C477.925 330.481 478.363 330.019 478.923 329.692C479.493 329.365 480.141 329.202 480.869 329.202C481.812 329.202 482.587 329.431 483.193 329.888C483.809 330.345 484.215 330.98 484.411 331.792H483.039C482.909 331.325 482.652 330.957 482.269 330.686C481.896 330.415 481.429 330.28 480.869 330.28C480.141 330.28 479.553 330.532 479.105 331.036C478.657 331.531 478.433 332.235 478.433 333.15C478.433 334.074 478.657 334.788 479.105 335.292C479.553 335.796 480.141 336.048 480.869 336.048C481.429 336.048 481.896 335.917 482.269 335.656C482.643 335.395 482.899 335.021 483.039 334.536H484.411C484.206 335.32 483.795 335.95 483.179 336.426C482.563 336.893 481.793 337.126 480.869 337.126C480.141 337.126 479.493 336.963 478.923 336.636C478.363 336.309 477.925 335.847 477.607 335.25C477.29 334.653 477.131 333.953 477.131 333.15ZM489.961 329.188C490.54 329.188 491.063 329.314 491.529 329.566C491.996 329.809 492.36 330.177 492.621 330.672C492.892 331.167 493.027 331.769 493.027 332.478V337H491.767V332.66C491.767 331.895 491.576 331.311 491.193 330.91C490.811 330.499 490.288 330.294 489.625 330.294C488.953 330.294 488.417 330.504 488.015 330.924C487.623 331.344 487.427 331.955 487.427 332.758V337H486.153V326.64H487.427V330.42C487.679 330.028 488.025 329.725 488.463 329.51C488.911 329.295 489.411 329.188 489.961 329.188ZM502.15 332.87C502.15 333.113 502.136 333.369 502.108 333.64H495.976C496.023 334.396 496.28 334.989 496.746 335.418C497.222 335.838 497.796 336.048 498.468 336.048C499.019 336.048 499.476 335.922 499.84 335.67C500.214 335.409 500.475 335.063 500.624 334.634H501.996C501.791 335.371 501.38 335.973 500.764 336.44C500.148 336.897 499.383 337.126 498.468 337.126C497.74 337.126 497.087 336.963 496.508 336.636C495.939 336.309 495.491 335.847 495.164 335.25C494.838 334.643 494.674 333.943 494.674 333.15C494.674 332.357 494.833 331.661 495.15 331.064C495.468 330.467 495.911 330.009 496.48 329.692C497.059 329.365 497.722 329.202 498.468 329.202C499.196 329.202 499.84 329.361 500.4 329.678C500.96 329.995 501.39 330.434 501.688 330.994C501.996 331.545 502.15 332.17 502.15 332.87ZM500.834 332.604C500.834 332.119 500.727 331.703 500.512 331.358C500.298 331.003 500.004 330.737 499.63 330.56C499.266 330.373 498.86 330.28 498.412 330.28C497.768 330.28 497.218 330.485 496.76 330.896C496.312 331.307 496.056 331.876 495.99 332.604H500.834ZM503.398 333.136C503.398 332.352 503.557 331.666 503.874 331.078C504.191 330.481 504.625 330.019 505.176 329.692C505.736 329.365 506.361 329.202 507.052 329.202C507.649 329.202 508.205 329.342 508.718 329.622C509.231 329.893 509.623 330.252 509.894 330.7V326.64H511.182V337H509.894V335.558C509.642 336.015 509.269 336.393 508.774 336.692C508.279 336.981 507.701 337.126 507.038 337.126C506.357 337.126 505.736 336.958 505.176 336.622C504.625 336.286 504.191 335.815 503.874 335.208C503.557 334.601 503.398 333.911 503.398 333.136ZM509.894 333.15C509.894 332.571 509.777 332.067 509.544 331.638C509.311 331.209 508.993 330.882 508.592 330.658C508.2 330.425 507.766 330.308 507.29 330.308C506.814 330.308 506.38 330.42 505.988 330.644C505.596 330.868 505.283 331.195 505.05 331.624C504.817 332.053 504.7 332.557 504.7 333.136C504.7 333.724 504.817 334.237 505.05 334.676C505.283 335.105 505.596 335.437 505.988 335.67C506.38 335.894 506.814 336.006 507.29 336.006C507.766 336.006 508.2 335.894 508.592 335.67C508.993 335.437 509.311 335.105 509.544 334.676C509.777 334.237 509.894 333.729 509.894 333.15ZM520.181 329.328V337H518.907V335.866C518.664 336.258 518.324 336.566 517.885 336.79C517.456 337.005 516.98 337.112 516.457 337.112C515.86 337.112 515.323 336.991 514.847 336.748C514.371 336.496 513.993 336.123 513.713 335.628C513.442 335.133 513.307 334.531 513.307 333.822V329.328H514.567V333.654C514.567 334.41 514.758 334.993 515.141 335.404C515.524 335.805 516.046 336.006 516.709 336.006C517.39 336.006 517.927 335.796 518.319 335.376C518.711 334.956 518.907 334.345 518.907 333.542V329.328H520.181ZM523.648 326.64V337H522.374V326.64H523.648ZM532.861 332.87C532.861 333.113 532.847 333.369 532.819 333.64H526.687C526.734 334.396 526.991 334.989 527.457 335.418C527.933 335.838 528.507 336.048 529.179 336.048C529.73 336.048 530.187 335.922 530.551 335.67C530.925 335.409 531.186 335.063 531.335 334.634H532.707C532.502 335.371 532.091 335.973 531.475 336.44C530.859 336.897 530.094 337.126 529.179 337.126C528.451 337.126 527.798 336.963 527.219 336.636C526.65 336.309 526.202 335.847 525.875 335.25C525.549 334.643 525.385 333.943 525.385 333.15C525.385 332.357 525.544 331.661 525.861 331.064C526.179 330.467 526.622 330.009 527.191 329.692C527.77 329.365 528.433 329.202 529.179 329.202C529.907 329.202 530.551 329.361 531.111 329.678C531.671 329.995 532.101 330.434 532.399 330.994C532.707 331.545 532.861 332.17 532.861 332.87ZM531.545 332.604C531.545 332.119 531.438 331.703 531.223 331.358C531.009 331.003 530.715 330.737 530.341 330.56C529.977 330.373 529.571 330.28 529.123 330.28C528.479 330.28 527.929 330.485 527.471 330.896C527.023 331.307 526.767 331.876 526.701 332.604H531.545ZM535.859 330.574C536.083 330.135 536.4 329.795 536.811 329.552C537.231 329.309 537.74 329.188 538.337 329.188V330.504H538.001C536.573 330.504 535.859 331.279 535.859 332.828V337H534.585V329.328H535.859V330.574Z" fill="#666666"/>
<path d="M370.01 3.312V13H368.736V5.776L365.516 13H364.62L361.386 5.762V13H360.112V3.312H361.484L365.068 11.32L368.652 3.312H370.01ZM379.017 5.328V13H377.743V11.866C377.5 12.258 377.159 12.566 376.721 12.79C376.291 13.0047 375.815 13.112 375.293 13.112C374.695 13.112 374.159 12.9907 373.683 12.748C373.207 12.496 372.829 12.1227 372.549 11.628C372.278 11.1333 372.143 10.5313 372.143 9.822V5.328H373.403V9.654C373.403 10.41 373.594 10.9933 373.977 11.404C374.359 11.8053 374.882 12.006 375.545 12.006C376.226 12.006 376.763 11.796 377.155 11.376C377.547 10.956 377.743 10.3447 377.743 9.542V5.328H379.017ZM382.484 2.64V13H381.21V2.64H382.484ZM386.251 6.378V10.9C386.251 11.2733 386.33 11.5393 386.489 11.698C386.648 11.8473 386.923 11.922 387.315 11.922H388.253V13H387.105C386.396 13 385.864 12.8367 385.509 12.51C385.154 12.1833 384.977 11.6467 384.977 10.9V6.378H383.983V5.328H384.977V3.396H386.251V5.328H388.253V6.378H386.251ZM390.497 4.082C390.254 4.082 390.049 3.998 389.881 3.83C389.713 3.662 389.629 3.45667 389.629 3.214C389.629 2.97133 389.713 2.766 389.881 2.598C390.049 2.43 390.254 2.346 390.497 2.346C390.73 2.346 390.926 2.43 391.085 2.598C391.253 2.766 391.337 2.97133 391.337 3.214C391.337 3.45667 391.253 3.662 391.085 3.83C390.926 3.998 390.73 4.082 390.497 4.082ZM391.113 5.328V13H389.839V5.328H391.113ZM398.374 6.742C398.626 6.30333 399 5.93933 399.494 5.65C399.998 5.35133 400.582 5.202 401.244 5.202C401.926 5.202 402.542 5.36533 403.092 5.692C403.652 6.01867 404.091 6.48067 404.408 7.078C404.726 7.666 404.884 8.352 404.884 9.136C404.884 9.91067 404.726 10.6013 404.408 11.208C404.091 11.8147 403.652 12.286 403.092 12.622C402.542 12.958 401.926 13.126 401.244 13.126C400.591 13.126 400.012 12.9813 399.508 12.692C399.014 12.3933 398.636 12.0247 398.374 11.586V16.64H397.1V5.328H398.374V6.742ZM403.582 9.136C403.582 8.55733 403.466 8.05333 403.232 7.624C402.999 7.19467 402.682 6.868 402.28 6.644C401.888 6.42 401.454 6.308 400.978 6.308C400.512 6.308 400.078 6.42467 399.676 6.658C399.284 6.882 398.967 7.21333 398.724 7.652C398.491 8.08133 398.374 8.58067 398.374 9.15C398.374 9.72867 398.491 10.2373 398.724 10.676C398.967 11.1053 399.284 11.4367 399.676 11.67C400.078 11.894 400.512 12.006 400.978 12.006C401.454 12.006 401.888 11.894 402.28 11.67C402.682 11.4367 402.999 11.1053 403.232 10.676C403.466 10.2373 403.582 9.724 403.582 9.136ZM409.949 13.126C409.231 13.126 408.577 12.9627 407.989 12.636C407.411 12.3093 406.953 11.8473 406.617 11.25C406.291 10.6433 406.127 9.94333 406.127 9.15C406.127 8.366 406.295 7.67533 406.631 7.078C406.977 6.47133 407.443 6.00933 408.031 5.692C408.619 5.36533 409.277 5.202 410.005 5.202C410.733 5.202 411.391 5.36533 411.979 5.692C412.567 6.00933 413.029 6.46667 413.365 7.064C413.711 7.66133 413.883 8.35667 413.883 9.15C413.883 9.94333 413.706 10.6433 413.351 11.25C413.006 11.8473 412.535 12.3093 411.937 12.636C411.34 12.9627 410.677 13.126 409.949 13.126ZM409.949 12.006C410.407 12.006 410.836 11.8987 411.237 11.684C411.639 11.4693 411.961 11.1473 412.203 10.718C412.455 10.2887 412.581 9.766 412.581 9.15C412.581 8.534 412.46 8.01133 412.217 7.582C411.975 7.15267 411.657 6.83533 411.265 6.63C410.873 6.41533 410.449 6.308 409.991 6.308C409.525 6.308 409.095 6.41533 408.703 6.63C408.321 6.83533 408.013 7.15267 407.779 7.582C407.546 8.01133 407.429 8.534 407.429 9.15C407.429 9.77533 407.541 10.3027 407.765 10.732C407.999 11.1613 408.307 11.4833 408.689 11.698C409.072 11.9033 409.492 12.006 409.949 12.006ZM418.316 13.126C417.728 13.126 417.201 13.028 416.734 12.832C416.268 12.6267 415.899 12.3467 415.628 11.992C415.358 11.628 415.208 11.2127 415.18 10.746H416.496C416.534 11.1287 416.711 11.4413 417.028 11.684C417.355 11.9267 417.78 12.048 418.302 12.048C418.788 12.048 419.17 11.9407 419.45 11.726C419.73 11.5113 419.87 11.2407 419.87 10.914C419.87 10.578 419.721 10.3307 419.422 10.172C419.124 10.004 418.662 9.84067 418.036 9.682C417.467 9.53267 417 9.38333 416.636 9.234C416.282 9.07533 415.974 8.84667 415.712 8.548C415.46 8.24 415.334 7.83867 415.334 7.344C415.334 6.952 415.451 6.59267 415.684 6.266C415.918 5.93933 416.249 5.68267 416.678 5.496C417.108 5.3 417.598 5.202 418.148 5.202C418.998 5.202 419.684 5.41667 420.206 5.846C420.729 6.27533 421.009 6.86333 421.046 7.61H419.772C419.744 7.20867 419.581 6.88667 419.282 6.644C418.993 6.40133 418.601 6.28 418.106 6.28C417.649 6.28 417.285 6.378 417.014 6.574C416.744 6.77 416.608 7.02667 416.608 7.344C416.608 7.596 416.688 7.806 416.846 7.974C417.014 8.13267 417.22 8.26333 417.462 8.366C417.714 8.45933 418.06 8.56667 418.498 8.688C419.049 8.83733 419.497 8.98667 419.842 9.136C420.188 9.276 420.482 9.49067 420.724 9.78C420.976 10.0693 421.107 10.4473 421.116 10.914C421.116 11.334 421 11.712 420.766 12.048C420.533 12.384 420.202 12.65 419.772 12.846C419.352 13.0327 418.867 13.126 418.316 13.126ZM424.511 6.378V10.9C424.511 11.2733 424.59 11.5393 424.749 11.698C424.908 11.8473 425.183 11.922 425.575 11.922H426.513V13H425.365C424.656 13 424.124 12.8367 423.769 12.51C423.414 12.1833 423.237 11.6467 423.237 10.9V6.378H422.243V5.328H423.237V3.396H424.511V5.328H426.513V6.378H424.511ZM428.757 4.082C428.514 4.082 428.309 3.998 428.141 3.83C427.973 3.662 427.889 3.45667 427.889 3.214C427.889 2.97133 427.973 2.766 428.141 2.598C428.309 2.43 428.514 2.346 428.757 2.346C428.99 2.346 429.186 2.43 429.345 2.598C429.513 2.766 429.597 2.97133 429.597 3.214C429.597 3.45667 429.513 3.662 429.345 3.83C429.186 3.998 428.99 4.082 428.757 4.082ZM429.373 5.328V13H428.099V5.328H429.373ZM435.324 5.188C436.257 5.188 437.013 5.47267 437.592 6.042C438.171 6.602 438.46 7.414 438.46 8.478V13H437.2V8.66C437.2 7.89467 437.009 7.31133 436.626 6.91C436.243 6.49933 435.721 6.294 435.058 6.294C434.386 6.294 433.849 6.504 433.448 6.924C433.056 7.344 432.86 7.95533 432.86 8.758V13H431.586V5.328H432.86V6.42C433.112 6.028 433.453 5.72467 433.882 5.51C434.321 5.29533 434.801 5.188 435.324 5.188ZM443.747 5.202C444.41 5.202 444.988 5.34667 445.483 5.636C445.987 5.92533 446.36 6.28933 446.603 6.728V5.328H447.891V13.168C447.891 13.868 447.742 14.4887 447.443 15.03C447.144 15.5807 446.715 16.01 446.155 16.318C445.604 16.626 444.96 16.78 444.223 16.78C443.215 16.78 442.375 16.542 441.703 16.066C441.031 15.59 440.634 14.9413 440.513 14.12H441.773C441.913 14.5867 442.202 14.96 442.641 15.24C443.08 15.5293 443.607 15.674 444.223 15.674C444.923 15.674 445.492 15.4547 445.931 15.016C446.379 14.5773 446.603 13.9613 446.603 13.168V11.558C446.351 12.006 445.978 12.3793 445.483 12.678C444.988 12.9767 444.41 13.126 443.747 13.126C443.066 13.126 442.445 12.958 441.885 12.622C441.334 12.286 440.9 11.8147 440.583 11.208C440.266 10.6013 440.107 9.91067 440.107 9.136C440.107 8.352 440.266 7.666 440.583 7.078C440.9 6.48067 441.334 6.01867 441.885 5.692C442.445 5.36533 443.066 5.202 443.747 5.202ZM446.603 9.15C446.603 8.57133 446.486 8.06733 446.253 7.638C446.02 7.20867 445.702 6.882 445.301 6.658C444.909 6.42467 444.475 6.308 443.999 6.308C443.523 6.308 443.089 6.42 442.697 6.644C442.305 6.868 441.992 7.19467 441.759 7.624C441.526 8.05333 441.409 8.55733 441.409 9.136C441.409 9.724 441.526 10.2373 441.759 10.676C441.992 11.1053 442.305 11.4367 442.697 11.67C443.089 11.894 443.523 12.006 443.999 12.006C444.475 12.006 444.909 11.894 445.301 11.67C445.702 11.4367 446.02 11.1053 446.253 10.676C446.486 10.2373 446.603 9.72867 446.603 9.15Z" fill="#666666"/>
<path d="M117.369 14.848L115.423 12.902C114.947 13.0327 114.461 13.098 113.967 13.098C113.061 13.098 112.235 12.888 111.489 12.468C110.742 12.0387 110.149 11.446 109.711 10.69C109.281 9.92467 109.067 9.066 109.067 8.114C109.067 7.162 109.281 6.308 109.711 5.552C110.149 4.78667 110.742 4.194 111.489 3.774C112.235 3.34467 113.061 3.13 113.967 3.13C114.881 3.13 115.712 3.34467 116.459 3.774C117.205 4.194 117.793 4.782 118.223 5.538C118.652 6.294 118.867 7.15267 118.867 8.114C118.867 9.04733 118.661 9.88733 118.251 10.634C117.84 11.3807 117.275 11.9687 116.557 12.398L119.021 14.848H117.369ZM110.369 8.114C110.369 8.88867 110.523 9.57 110.831 10.158C111.148 10.746 111.577 11.1987 112.119 11.516C112.669 11.8333 113.285 11.992 113.967 11.992C114.648 11.992 115.259 11.8333 115.801 11.516C116.351 11.1987 116.781 10.746 117.089 10.158C117.406 9.57 117.565 8.88867 117.565 8.114C117.565 7.33 117.406 6.64867 117.089 6.07C116.781 5.482 116.356 5.02933 115.815 4.712C115.273 4.39467 114.657 4.236 113.967 4.236C113.276 4.236 112.66 4.39467 112.119 4.712C111.577 5.02933 111.148 5.482 110.831 6.07C110.523 6.64867 110.369 7.33 110.369 8.114ZM127.422 5.328V13H126.148V11.866C125.905 12.258 125.565 12.566 125.126 12.79C124.697 13.0047 124.221 13.112 123.698 13.112C123.101 13.112 122.564 12.9907 122.088 12.748C121.612 12.496 121.234 12.1227 120.954 11.628C120.683 11.1333 120.548 10.5313 120.548 9.822V5.328H121.808V9.654C121.808 10.41 121.999 10.9933 122.382 11.404C122.765 11.8053 123.287 12.006 123.95 12.006C124.631 12.006 125.168 11.796 125.56 11.376C125.952 10.956 126.148 10.3447 126.148 9.542V5.328H127.422ZM130.273 4.082C130.03 4.082 129.825 3.998 129.657 3.83C129.489 3.662 129.405 3.45667 129.405 3.214C129.405 2.97133 129.489 2.766 129.657 2.598C129.825 2.43 130.03 2.346 130.273 2.346C130.506 2.346 130.702 2.43 130.861 2.598C131.029 2.766 131.113 2.97133 131.113 3.214C131.113 3.45667 131.029 3.662 130.861 3.83C130.702 3.998 130.506 4.082 130.273 4.082ZM130.889 5.328V13H129.615V5.328H130.889ZM132.626 9.15C132.626 8.35667 132.785 7.666 133.102 7.078C133.42 6.48067 133.858 6.01867 134.418 5.692C134.988 5.36533 135.636 5.202 136.364 5.202C137.307 5.202 138.082 5.43067 138.688 5.888C139.304 6.34533 139.71 6.98 139.906 7.792H138.534C138.404 7.32533 138.147 6.95667 137.764 6.686C137.391 6.41533 136.924 6.28 136.364 6.28C135.636 6.28 135.048 6.532 134.6 7.036C134.152 7.53067 133.928 8.23533 133.928 9.15C133.928 10.074 134.152 10.788 134.6 11.292C135.048 11.796 135.636 12.048 136.364 12.048C136.924 12.048 137.391 11.9173 137.764 11.656C138.138 11.3947 138.394 11.0213 138.534 10.536H139.906C139.701 11.32 139.29 11.95 138.674 12.426C138.058 12.8927 137.288 13.126 136.364 13.126C135.636 13.126 134.988 12.9627 134.418 12.636C133.858 12.3093 133.42 11.8473 133.102 11.25C132.785 10.6527 132.626 9.95267 132.626 9.15ZM145.932 13L142.922 9.612V13H141.648V2.64H142.922V8.73L145.876 5.328H147.654L144.042 9.15L147.668 13H145.932ZM153.944 6.742C154.196 6.30333 154.569 5.93933 155.064 5.65C155.568 5.35133 156.151 5.202 156.814 5.202C157.495 5.202 158.111 5.36533 158.662 5.692C159.222 6.01867 159.66 6.48067 159.978 7.078C160.295 7.666 160.454 8.352 160.454 9.136C160.454 9.91067 160.295 10.6013 159.978 11.208C159.66 11.8147 159.222 12.286 158.662 12.622C158.111 12.958 157.495 13.126 156.814 13.126C156.16 13.126 155.582 12.9813 155.078 12.692C154.583 12.3933 154.205 12.0247 153.944 11.586V16.64H152.67V5.328H153.944V6.742ZM159.152 9.136C159.152 8.55733 159.035 8.05333 158.802 7.624C158.568 7.19467 158.251 6.868 157.85 6.644C157.458 6.42 157.024 6.308 156.548 6.308C156.081 6.308 155.647 6.42467 155.246 6.658C154.854 6.882 154.536 7.21333 154.294 7.652C154.06 8.08133 153.944 8.58067 153.944 9.15C153.944 9.72867 154.06 10.2373 154.294 10.676C154.536 11.1053 154.854 11.4367 155.246 11.67C155.647 11.894 156.081 12.006 156.548 12.006C157.024 12.006 157.458 11.894 157.85 11.67C158.251 11.4367 158.568 11.1053 158.802 10.676C159.035 10.2373 159.152 9.724 159.152 9.136ZM165.519 13.126C164.8 13.126 164.147 12.9627 163.559 12.636C162.98 12.3093 162.523 11.8473 162.187 11.25C161.86 10.6433 161.697 9.94333 161.697 9.15C161.697 8.366 161.865 7.67533 162.201 7.078C162.546 6.47133 163.013 6.00933 163.601 5.692C164.189 5.36533 164.847 5.202 165.575 5.202C166.303 5.202 166.961 5.36533 167.549 5.692C168.137 6.00933 168.599 6.46667 168.935 7.064C169.28 7.66133 169.453 8.35667 169.453 9.15C169.453 9.94333 169.275 10.6433 168.921 11.25C168.575 11.8473 168.104 12.3093 167.507 12.636C166.909 12.9627 166.247 13.126 165.519 13.126ZM165.519 12.006C165.976 12.006 166.405 11.8987 166.807 11.684C167.208 11.4693 167.53 11.1473 167.773 10.718C168.025 10.2887 168.151 9.766 168.151 9.15C168.151 8.534 168.029 8.01133 167.787 7.582C167.544 7.15267 167.227 6.83533 166.835 6.63C166.443 6.41533 166.018 6.308 165.561 6.308C165.094 6.308 164.665 6.41533 164.273 6.63C163.89 6.83533 163.582 7.15267 163.349 7.582C163.115 8.01133 162.999 8.534 162.999 9.15C162.999 9.77533 163.111 10.3027 163.335 10.732C163.568 11.1613 163.876 11.4833 164.259 11.698C164.641 11.9033 165.061 12.006 165.519 12.006ZM173.886 13.126C173.298 13.126 172.77 13.028 172.304 12.832C171.837 12.6267 171.468 12.3467 171.198 11.992C170.927 11.628 170.778 11.2127 170.75 10.746H172.066C172.103 11.1287 172.28 11.4413 172.598 11.684C172.924 11.9267 173.349 12.048 173.872 12.048C174.357 12.048 174.74 11.9407 175.02 11.726C175.3 11.5113 175.44 11.2407 175.44 10.914C175.44 10.578 175.29 10.3307 174.992 10.172C174.693 10.004 174.231 9.84067 173.606 9.682C173.036 9.53267 172.57 9.38333 172.206 9.234C171.851 9.07533 171.543 8.84667 171.282 8.548C171.03 8.24 170.904 7.83867 170.904 7.344C170.904 6.952 171.02 6.59267 171.254 6.266C171.487 5.93933 171.818 5.68267 172.248 5.496C172.677 5.3 173.167 5.202 173.718 5.202C174.567 5.202 175.253 5.41667 175.776 5.846C176.298 6.27533 176.578 6.86333 176.616 7.61H175.342C175.314 7.20867 175.15 6.88667 174.852 6.644C174.562 6.40133 174.17 6.28 173.676 6.28C173.218 6.28 172.854 6.378 172.584 6.574C172.313 6.77 172.178 7.02667 172.178 7.344C172.178 7.596 172.257 7.806 172.416 7.974C172.584 8.13267 172.789 8.26333 173.032 8.366C173.284 8.45933 173.629 8.56667 174.068 8.688C174.618 8.83733 175.066 8.98667 175.412 9.136C175.757 9.276 176.051 9.49067 176.294 9.78C176.546 10.0693 176.676 10.4473 176.686 10.914C176.686 11.334 176.569 11.712 176.336 12.048C176.102 12.384 175.771 12.65 175.342 12.846C174.922 13.0327 174.436 13.126 173.886 13.126ZM180.08 6.378V10.9C180.08 11.2733 180.16 11.5393 180.318 11.698C180.477 11.8473 180.752 11.922 181.144 11.922H182.082V13H180.934C180.225 13 179.693 12.8367 179.338 12.51C178.984 12.1833 178.806 11.6467 178.806 10.9V6.378H177.812V5.328H178.806V3.396H180.08V5.328H182.082V6.378H180.08ZM184.326 4.082C184.083 4.082 183.878 3.998 183.71 3.83C183.542 3.662 183.458 3.45667 183.458 3.214C183.458 2.97133 183.542 2.766 183.71 2.598C183.878 2.43 184.083 2.346 184.326 2.346C184.559 2.346 184.755 2.43 184.914 2.598C185.082 2.766 185.166 2.97133 185.166 3.214C185.166 3.45667 185.082 3.662 184.914 3.83C184.755 3.998 184.559 4.082 184.326 4.082ZM184.942 5.328V13H183.668V5.328H184.942ZM190.893 5.188C191.827 5.188 192.583 5.47267 193.161 6.042C193.74 6.602 194.029 7.414 194.029 8.478V13H192.769V8.66C192.769 7.89467 192.578 7.31133 192.195 6.91C191.813 6.49933 191.29 6.294 190.627 6.294C189.955 6.294 189.419 6.504 189.017 6.924C188.625 7.344 188.429 7.95533 188.429 8.758V13H187.155V5.328H188.429V6.42C188.681 6.028 189.022 5.72467 189.451 5.51C189.89 5.29533 190.371 5.188 190.893 5.188ZM199.316 5.202C199.979 5.202 200.558 5.34667 201.052 5.636C201.556 5.92533 201.93 6.28933 202.172 6.728V5.328H203.46V13.168C203.46 13.868 203.311 14.4887 203.012 15.03C202.714 15.5807 202.284 16.01 201.724 16.318C201.174 16.626 200.53 16.78 199.792 16.78C198.784 16.78 197.944 16.542 197.272 16.066C196.6 15.59 196.204 14.9413 196.082 14.12H197.342C197.482 14.5867 197.772 14.96 198.21 15.24C198.649 15.5293 199.176 15.674 199.792 15.674C200.492 15.674 201.062 15.4547 201.5 15.016C201.948 14.5773 202.172 13.9613 202.172 13.168V11.558C201.92 12.006 201.547 12.3793 201.052 12.678C200.558 12.9767 199.979 13.126 199.316 13.126C198.635 13.126 198.014 12.958 197.454 12.622C196.904 12.286 196.47 11.8147 196.152 11.208C195.835 10.6013 195.676 9.91067 195.676 9.136C195.676 8.352 195.835 7.666 196.152 7.078C196.47 6.48067 196.904 6.01867 197.454 5.692C198.014 5.36533 198.635 5.202 199.316 5.202ZM202.172 9.15C202.172 8.57133 202.056 8.06733 201.822 7.638C201.589 7.20867 201.272 6.882 200.87 6.658C200.478 6.42467 200.044 6.308 199.568 6.308C199.092 6.308 198.658 6.42 198.266 6.644C197.874 6.868 197.562 7.19467 197.328 7.624C197.095 8.05333 196.978 8.55733 196.978 9.136C196.978 9.724 197.095 10.2373 197.328 10.676C197.562 11.1053 197.874 11.4367 198.266 11.67C198.658 11.894 199.092 12.006 199.568 12.006C200.044 12.006 200.478 11.894 200.87 11.67C201.272 11.4367 201.589 11.1053 201.822 10.676C202.056 10.2373 202.172 9.72867 202.172 9.15Z" fill="#666666"/>
</svg>
