<svg width="247" height="251" viewBox="0 0 247 251" fill="none" xmlns="http://www.w3.org/2000/svg">
<rect x="1.40778" y="184.858" width="243.852" height="65.7339" rx="9.37891" fill="white"/>
<rect x="1.40778" y="184.858" width="243.852" height="65.7339" rx="9.37891" stroke="#E5E7EB" stroke-width="0.815557"/>
<g clip-path="url(#clip0_1_5524)">
<rect x="14.7007" y="198.15" width="39.1467" height="39.1467" rx="4.89334" fill="#034737"/>
<path d="M32.2348 223.834H29.5162C29.1557 223.834 28.81 223.69 28.5551 223.435C28.3002 223.181 28.157 222.835 28.157 222.474V212.959C28.157 212.599 28.3002 212.253 28.5551 211.998C28.81 211.743 29.1557 211.6 29.5162 211.6H32.2348" stroke="white" stroke-width="1.35926" stroke-linecap="round" stroke-linejoin="round"/>
<path d="M36.9934 221.107L40.3916 217.709L36.9934 214.311" stroke="white" stroke-width="1.35926" stroke-linecap="round" stroke-linejoin="round"/>
<path d="M40.389 217.71H32.2334" stroke="white" stroke-width="1.35926" stroke-linecap="round" stroke-linejoin="round"/>
<g clip-path="url(#clip1_1_5524)">
<path d="M72.0119 212.406C71.1681 212.406 70.3895 212.21 69.6761 211.818C68.9715 211.418 68.4104 210.866 67.9928 210.161C67.584 209.448 67.3795 208.648 67.3795 207.76C67.3795 206.873 67.584 206.077 67.9928 205.372C68.4104 204.668 68.9715 204.12 69.6761 203.728C70.3895 203.328 71.1681 203.128 72.0119 203.128C72.8644 203.128 73.643 203.328 74.3477 203.728C75.061 204.12 75.6221 204.668 76.031 205.372C76.4398 206.077 76.6443 206.873 76.6443 207.76C76.6443 208.648 76.4398 209.448 76.031 210.161C75.6221 210.866 75.061 211.418 74.3477 211.818C73.643 212.21 72.8644 212.406 72.0119 212.406ZM72.0119 211.114C72.6122 211.114 73.1472 210.979 73.6169 210.709C74.0867 210.431 74.452 210.039 74.713 209.535C74.9827 209.022 75.1175 208.43 75.1175 207.76C75.1175 207.09 74.9827 206.503 74.713 205.999C74.452 205.494 74.0867 205.107 73.6169 204.837C73.1472 204.568 72.6122 204.433 72.0119 204.433C71.4117 204.433 70.8766 204.568 70.4069 204.837C69.9371 205.107 69.5674 205.494 69.2977 205.999C69.0368 206.503 68.9063 207.09 68.9063 207.76C68.9063 208.43 69.0368 209.022 69.2977 209.535C69.5674 210.039 69.9371 210.431 70.4069 210.709C70.8766 210.979 71.4117 211.114 72.0119 211.114ZM84.6195 205.124V212.314H83.1319V211.466C82.897 211.762 82.5882 211.997 82.2054 212.171C81.8314 212.336 81.4312 212.419 81.0049 212.419C80.4395 212.419 79.9306 212.301 79.4782 212.066C79.0346 211.832 78.6822 211.484 78.4213 211.022C78.169 210.561 78.0428 210.005 78.0428 209.352V205.124H79.5174V209.13C79.5174 209.774 79.6783 210.27 80.0002 210.618C80.3221 210.957 80.7614 211.127 81.3181 211.127C81.8749 211.127 82.3142 210.957 82.6361 210.618C82.9666 210.27 83.1319 209.774 83.1319 209.13V205.124H84.6195ZM88.3177 206.338V210.318C88.3177 210.588 88.3786 210.783 88.5004 210.905C88.6309 211.018 88.8484 211.075 89.1529 211.075H90.0663V212.314H88.8919C88.222 212.314 87.7088 212.158 87.3521 211.845C86.9954 211.531 86.8171 211.022 86.8171 210.318V206.338H85.9689V205.124H86.8171V203.337H88.3177V205.124H90.0663V206.338H88.3177ZM92.9249 206.181C93.1772 205.851 93.5208 205.572 93.9558 205.346C94.3907 205.12 94.8823 205.007 95.4303 205.007C96.0567 205.007 96.6265 205.164 97.1397 205.477C97.6617 205.781 98.0705 206.212 98.3663 206.769C98.6621 207.325 98.81 207.965 98.81 208.687C98.81 209.409 98.6621 210.057 98.3663 210.631C98.0705 211.196 97.6617 211.64 97.1397 211.962C96.6265 212.275 96.0567 212.432 95.4303 212.432C94.8823 212.432 94.3951 212.323 93.9688 212.106C93.5426 211.879 93.1946 211.601 92.9249 211.27V215.733H91.4373V205.124H92.9249V206.181ZM97.2963 208.687C97.2963 208.191 97.1919 207.765 96.9831 207.408C96.783 207.043 96.5134 206.769 96.1741 206.586C95.8435 206.394 95.4869 206.299 95.1041 206.299C94.73 206.299 94.3734 206.394 94.0341 206.586C93.7035 206.777 93.4338 207.056 93.225 207.421C93.025 207.786 92.9249 208.217 92.9249 208.713C92.9249 209.209 93.025 209.644 93.225 210.018C93.4338 210.383 93.7035 210.661 94.0341 210.853C94.3734 211.044 94.73 211.14 95.1041 211.14C95.4869 211.14 95.8435 211.044 96.1741 210.853C96.5134 210.653 96.783 210.366 96.9831 209.992C97.1919 209.618 97.2963 209.183 97.2963 208.687ZM106.792 205.124V212.314H105.305V211.466C105.07 211.762 104.761 211.997 104.378 212.171C104.004 212.336 103.604 212.419 103.178 212.419C102.612 212.419 102.104 212.301 101.651 212.066C101.208 211.832 100.855 211.484 100.594 211.022C100.342 210.561 100.216 210.005 100.216 209.352V205.124H101.69V209.13C101.69 209.774 101.851 210.27 102.173 210.618C102.495 210.957 102.934 211.127 103.491 211.127C104.048 211.127 104.487 210.957 104.809 210.618C105.14 210.27 105.305 209.774 105.305 209.13V205.124H106.792ZM110.491 206.338V210.318C110.491 210.588 110.552 210.783 110.673 210.905C110.804 211.018 111.021 211.075 111.326 211.075H112.239V212.314H111.065C110.395 212.314 109.882 212.158 109.525 211.845C109.168 211.531 108.99 211.022 108.99 210.318V206.338H108.142V205.124H108.99V203.337H110.491V205.124H112.239V206.338H110.491Z" fill="#14171B"/>
</g>
<path opacity="0.5" d="M67.3173 228.222C67.3173 227.557 67.4674 226.96 67.7675 226.431C68.0676 225.896 68.4754 225.479 68.9908 225.178C69.5128 224.878 70.0902 224.728 70.7231 224.728C71.4669 224.728 72.116 224.908 72.6706 225.267C73.2252 225.625 73.6297 226.134 73.8842 226.793H72.8174C72.6282 226.382 72.3542 226.066 71.9953 225.844C71.643 225.622 71.2189 225.511 70.7231 225.511C70.2468 225.511 69.8194 225.622 69.441 225.844C69.0626 226.066 68.7657 226.382 68.5504 226.793C68.3351 227.198 68.2275 227.674 68.2275 228.222C68.2275 228.764 68.3351 229.24 68.5504 229.651C68.7657 230.056 69.0626 230.369 69.441 230.591C69.8194 230.812 70.2468 230.923 70.7231 230.923C71.2189 230.923 71.643 230.816 71.9953 230.6C72.3542 230.378 72.6282 230.062 72.8174 229.651H73.8842C73.6297 230.303 73.2252 230.809 72.6706 231.168C72.116 231.52 71.4669 231.696 70.7231 231.696C70.0902 231.696 69.5128 231.55 68.9908 231.256C68.4754 230.956 68.0676 230.542 67.7675 230.013C67.4674 229.485 67.3173 228.888 67.3173 228.222ZM76.1005 224.396V231.638H75.2099V224.396H76.1005ZM78.0783 225.404C77.9087 225.404 77.7651 225.345 77.6477 225.227C77.5303 225.11 77.4715 224.966 77.4715 224.797C77.4715 224.627 77.5303 224.484 77.6477 224.366C77.7651 224.249 77.9087 224.19 78.0783 224.19C78.2414 224.19 78.3784 224.249 78.4893 224.366C78.6068 224.484 78.6655 224.627 78.6655 224.797C78.6655 224.966 78.6068 225.11 78.4893 225.227C78.3784 225.345 78.2414 225.404 78.0783 225.404ZM78.5089 226.275V231.638H77.6183V226.275H78.5089ZM79.694 228.946C79.694 228.392 79.8049 227.909 80.0268 227.498C80.2486 227.08 80.5553 226.757 80.9467 226.529C81.3447 226.301 81.7982 226.187 82.3071 226.187C82.966 226.187 83.5076 226.346 83.9317 226.666C84.3623 226.986 84.6461 227.429 84.7831 227.997H83.824C83.7327 227.671 83.5532 227.413 83.2857 227.224C83.0248 227.035 82.6985 226.94 82.3071 226.94C81.7982 226.94 81.3871 227.116 81.0739 227.469C80.7608 227.814 80.6042 228.307 80.6042 228.946C80.6042 229.592 80.7608 230.091 81.0739 230.444C81.3871 230.796 81.7982 230.972 82.3071 230.972C82.6985 230.972 83.0248 230.881 83.2857 230.698C83.5467 230.515 83.7261 230.255 83.824 229.915H84.7831C84.6396 230.463 84.3525 230.904 83.9219 231.236C83.4913 231.563 82.953 231.726 82.3071 231.726C81.7982 231.726 81.3447 231.612 80.9467 231.383C80.5553 231.155 80.2486 230.832 80.0268 230.414C79.8049 229.997 79.694 229.507 79.694 228.946ZM88.9661 231.638L86.862 229.269V231.638H85.9714V224.396H86.862V228.653L88.927 226.275H90.1699L87.6449 228.946L90.1797 231.638H88.9661ZM94.7036 227.009V230.17C94.7036 230.431 94.759 230.617 94.87 230.728C94.9809 230.832 95.1733 230.884 95.4474 230.884H96.1031V231.638H95.3006C94.8047 231.638 94.4328 231.524 94.1849 231.295C93.937 231.067 93.813 230.692 93.813 230.17V227.009H93.1181V226.275H93.813V224.924H94.7036V226.275H96.1031V227.009H94.7036ZM99.5212 231.726C99.0188 231.726 98.5621 231.612 98.151 231.383C97.7465 231.155 97.4268 230.832 97.1919 230.414C96.9636 229.99 96.8494 229.501 96.8494 228.946C96.8494 228.398 96.9668 227.915 97.2017 227.498C97.4431 227.074 97.7693 226.751 98.1804 226.529C98.5914 226.301 99.0514 226.187 99.5603 226.187C100.069 226.187 100.529 226.301 100.94 226.529C101.351 226.751 101.674 227.071 101.909 227.488C102.151 227.906 102.271 228.392 102.271 228.946C102.271 229.501 102.147 229.99 101.899 230.414C101.658 230.832 101.328 231.155 100.911 231.383C100.493 231.612 100.03 231.726 99.5212 231.726ZM99.5212 230.943C99.8409 230.943 100.141 230.868 100.422 230.718C100.702 230.568 100.927 230.343 101.097 230.042C101.273 229.742 101.361 229.377 101.361 228.946C101.361 228.516 101.276 228.15 101.107 227.85C100.937 227.55 100.715 227.328 100.441 227.185C100.167 227.035 99.8702 226.96 99.5505 226.96C99.2243 226.96 98.9242 227.035 98.6501 227.185C98.3826 227.328 98.1673 227.55 98.0042 227.85C97.8411 228.15 97.7596 228.516 97.7596 228.946C97.7596 229.383 97.8379 229.752 97.9944 230.052C98.1575 230.352 98.3729 230.577 98.6404 230.728C98.9079 230.871 99.2015 230.943 99.5212 230.943ZM105.719 228.937C105.719 228.389 105.829 227.909 106.051 227.498C106.273 227.08 106.577 226.757 106.961 226.529C107.353 226.301 107.787 226.187 108.263 226.187C108.733 226.187 109.141 226.288 109.486 226.49C109.832 226.692 110.09 226.947 110.26 227.253V226.275H111.16V231.638H110.26V230.639C110.083 230.953 109.819 231.214 109.467 231.422C109.121 231.625 108.717 231.726 108.253 231.726C107.777 231.726 107.346 231.608 106.961 231.373C106.577 231.139 106.273 230.809 106.051 230.385C105.829 229.961 105.719 229.478 105.719 228.937ZM110.26 228.946C110.26 228.542 110.178 228.19 110.015 227.889C109.852 227.589 109.63 227.361 109.349 227.204C109.075 227.041 108.772 226.96 108.439 226.96C108.107 226.96 107.803 227.038 107.529 227.195C107.255 227.351 107.037 227.579 106.873 227.88C106.71 228.18 106.629 228.532 106.629 228.937C106.629 229.348 106.71 229.706 106.873 230.013C107.037 230.313 107.255 230.545 107.529 230.708C107.803 230.865 108.107 230.943 108.439 230.943C108.772 230.943 109.075 230.865 109.349 230.708C109.63 230.545 109.852 230.313 110.015 230.013C110.178 229.706 110.26 229.351 110.26 228.946ZM112.332 228.937C112.332 228.389 112.443 227.909 112.665 227.498C112.887 227.08 113.19 226.757 113.575 226.529C113.967 226.301 114.404 226.187 114.887 226.187C115.304 226.187 115.692 226.284 116.051 226.48C116.41 226.669 116.684 226.921 116.873 227.234V224.396H117.774V231.638H116.873V230.63C116.697 230.949 116.436 231.214 116.09 231.422C115.745 231.625 115.34 231.726 114.877 231.726C114.4 231.726 113.967 231.608 113.575 231.373C113.19 231.139 112.887 230.809 112.665 230.385C112.443 229.961 112.332 229.478 112.332 228.937ZM116.873 228.946C116.873 228.542 116.792 228.19 116.629 227.889C116.465 227.589 116.244 227.361 115.963 227.204C115.689 227.041 115.386 226.96 115.053 226.96C114.72 226.96 114.417 227.038 114.143 227.195C113.869 227.351 113.65 227.579 113.487 227.88C113.324 228.18 113.242 228.532 113.242 228.937C113.242 229.348 113.324 229.706 113.487 230.013C113.65 230.313 113.869 230.545 114.143 230.708C114.417 230.865 114.72 230.943 115.053 230.943C115.386 230.943 115.689 230.865 115.963 230.708C116.244 230.545 116.465 230.313 116.629 230.013C116.792 229.706 116.873 229.351 116.873 228.946ZM118.946 228.937C118.946 228.389 119.057 227.909 119.279 227.498C119.5 227.08 119.804 226.757 120.189 226.529C120.58 226.301 121.017 226.187 121.5 226.187C121.918 226.187 122.306 226.284 122.665 226.48C123.024 226.669 123.298 226.921 123.487 227.234V224.396H124.387V231.638H123.487V230.63C123.311 230.949 123.05 231.214 122.704 231.422C122.358 231.625 121.954 231.726 121.49 231.726C121.014 231.726 120.58 231.608 120.189 231.373C119.804 231.139 119.5 230.809 119.279 230.385C119.057 229.961 118.946 229.478 118.946 228.937ZM123.487 228.946C123.487 228.542 123.405 228.19 123.242 227.889C123.079 227.589 122.857 227.361 122.577 227.204C122.303 227.041 121.999 226.96 121.667 226.96C121.334 226.96 121.03 227.038 120.756 227.195C120.482 227.351 120.264 227.579 120.101 227.88C119.938 228.18 119.856 228.532 119.856 228.937C119.856 229.348 119.938 229.706 120.101 230.013C120.264 230.313 120.482 230.545 120.756 230.708C121.03 230.865 121.334 230.943 121.667 230.943C121.999 230.943 122.303 230.865 122.577 230.708C122.857 230.545 123.079 230.313 123.242 230.013C123.405 229.706 123.487 229.351 123.487 228.946ZM130.84 231.726C130.338 231.726 129.881 231.612 129.47 231.383C129.066 231.155 128.746 230.832 128.511 230.414C128.283 229.99 128.169 229.501 128.169 228.946C128.169 228.398 128.286 227.915 128.521 227.498C128.762 227.074 129.089 226.751 129.5 226.529C129.911 226.301 130.371 226.187 130.88 226.187C131.389 226.187 131.848 226.301 132.26 226.529C132.671 226.751 132.994 227.071 133.228 227.488C133.47 227.906 133.591 228.392 133.591 228.946C133.591 229.501 133.467 229.99 133.219 230.414C132.977 230.832 132.648 231.155 132.23 231.383C131.813 231.612 131.349 231.726 130.84 231.726ZM130.84 230.943C131.16 230.943 131.46 230.868 131.741 230.718C132.021 230.568 132.246 230.343 132.416 230.042C132.592 229.742 132.68 229.377 132.68 228.946C132.68 228.516 132.596 228.15 132.426 227.85C132.256 227.55 132.034 227.328 131.76 227.185C131.486 227.035 131.19 226.96 130.87 226.96C130.544 226.96 130.243 227.035 129.969 227.185C129.702 227.328 129.487 227.55 129.324 227.85C129.16 228.15 129.079 228.516 129.079 228.946C129.079 229.383 129.157 229.752 129.314 230.052C129.477 230.352 129.692 230.577 129.96 230.728C130.227 230.871 130.521 230.943 130.84 230.943ZM139.518 226.275V231.638H138.627V230.845C138.458 231.119 138.219 231.334 137.913 231.491C137.613 231.641 137.28 231.716 136.915 231.716C136.497 231.716 136.122 231.631 135.789 231.462C135.456 231.285 135.192 231.024 134.996 230.679C134.807 230.333 134.713 229.912 134.713 229.416V226.275H135.593V229.299C135.593 229.827 135.727 230.235 135.995 230.522C136.262 230.803 136.627 230.943 137.091 230.943C137.567 230.943 137.942 230.796 138.216 230.502C138.49 230.209 138.627 229.781 138.627 229.22V226.275H139.518ZM142.108 227.009V230.17C142.108 230.431 142.163 230.617 142.274 230.728C142.385 230.832 142.578 230.884 142.852 230.884H143.507V231.638H142.705C142.209 231.638 141.837 231.524 141.589 231.295C141.341 231.067 141.217 230.692 141.217 230.17V227.009H140.522V226.275H141.217V224.924H142.108V226.275H143.507V227.009H142.108ZM145.477 227.263C145.653 226.956 145.914 226.702 146.26 226.5C146.612 226.291 147.02 226.187 147.483 226.187C147.96 226.187 148.39 226.301 148.775 226.529C149.167 226.757 149.473 227.08 149.695 227.498C149.917 227.909 150.028 228.389 150.028 228.937C150.028 229.478 149.917 229.961 149.695 230.385C149.473 230.809 149.167 231.139 148.775 231.373C148.39 231.608 147.96 231.726 147.483 231.726C147.027 231.726 146.622 231.625 146.27 231.422C145.924 231.214 145.66 230.956 145.477 230.649V234.182H144.586V226.275H145.477V227.263ZM149.118 228.937C149.118 228.532 149.036 228.18 148.873 227.88C148.71 227.579 148.488 227.351 148.207 227.195C147.933 227.038 147.63 226.96 147.297 226.96C146.971 226.96 146.668 227.041 146.387 227.204C146.113 227.361 145.891 227.593 145.722 227.899C145.559 228.199 145.477 228.548 145.477 228.946C145.477 229.351 145.559 229.706 145.722 230.013C145.891 230.313 146.113 230.545 146.387 230.708C146.668 230.865 146.971 230.943 147.297 230.943C147.63 230.943 147.933 230.865 148.207 230.708C148.488 230.545 148.71 230.313 148.873 230.013C149.036 229.706 149.118 229.348 149.118 228.937ZM155.956 226.275V231.638H155.066V230.845C154.896 231.119 154.658 231.334 154.351 231.491C154.051 231.641 153.718 231.716 153.353 231.716C152.936 231.716 152.56 231.631 152.228 231.462C151.895 231.285 151.631 231.024 151.435 230.679C151.246 230.333 151.151 229.912 151.151 229.416V226.275H152.032V229.299C152.032 229.827 152.166 230.235 152.433 230.522C152.701 230.803 153.066 230.943 153.529 230.943C154.006 230.943 154.381 230.796 154.655 230.502C154.929 230.209 155.066 229.781 155.066 229.22V226.275H155.956ZM158.546 227.009V230.17C158.546 230.431 158.602 230.617 158.713 230.728C158.824 230.832 159.016 230.884 159.29 230.884H159.946V231.638H159.143C158.648 231.638 158.276 231.524 158.028 231.295C157.78 231.067 157.656 230.692 157.656 230.17V227.009H156.961V226.275H157.656V224.924H158.546V226.275H159.946V227.009H158.546ZM162.924 231.726C162.513 231.726 162.144 231.657 161.818 231.52C161.491 231.377 161.234 231.181 161.045 230.933C160.855 230.679 160.751 230.388 160.731 230.062H161.651C161.677 230.33 161.801 230.548 162.023 230.718C162.252 230.887 162.548 230.972 162.914 230.972C163.253 230.972 163.521 230.897 163.716 230.747C163.912 230.597 164.01 230.408 164.01 230.179C164.01 229.945 163.906 229.772 163.697 229.661C163.488 229.543 163.165 229.429 162.728 229.318C162.33 229.214 162.004 229.109 161.749 229.005C161.501 228.894 161.286 228.734 161.103 228.526C160.927 228.31 160.839 228.03 160.839 227.684C160.839 227.41 160.921 227.159 161.084 226.93C161.247 226.702 161.478 226.523 161.779 226.392C162.079 226.255 162.421 226.187 162.806 226.187C163.4 226.187 163.879 226.337 164.245 226.637C164.61 226.937 164.806 227.348 164.832 227.87H163.941C163.922 227.589 163.808 227.364 163.599 227.195C163.397 227.025 163.123 226.94 162.777 226.94C162.457 226.94 162.203 227.009 162.013 227.146C161.824 227.283 161.73 227.462 161.73 227.684C161.73 227.86 161.785 228.007 161.896 228.124C162.013 228.235 162.157 228.327 162.327 228.398C162.503 228.464 162.744 228.539 163.051 228.623C163.436 228.728 163.749 228.832 163.99 228.937C164.232 229.034 164.437 229.184 164.607 229.387C164.783 229.589 164.874 229.853 164.881 230.179C164.881 230.473 164.799 230.737 164.636 230.972C164.473 231.207 164.242 231.393 163.941 231.53C163.648 231.661 163.309 231.726 162.924 231.726Z" fill="#14171B"/>
</g>
<rect x="1" y="94.5476" width="244.667" height="65.2446" rx="9.78668" fill="white"/>
<path d="M88.177 130.675H83.9051L83.1711 132.759H81.4242L85.0795 122.542H87.0173L90.6726 132.759H88.911L88.177 130.675ZM87.7072 129.309L86.0484 124.568L84.3749 129.309H87.7072ZM91.7041 128.678C91.7041 127.866 91.8705 127.147 92.2032 126.52C92.5457 125.894 93.0057 125.409 93.5831 125.067C94.1703 124.715 94.8211 124.538 95.5356 124.538C96.0641 124.538 96.5827 124.656 97.0917 124.891C97.6104 125.116 98.0214 125.419 98.3248 125.801V121.896H100.013V132.759H98.3248V131.541C98.0508 131.932 97.6691 132.255 97.1797 132.51C96.7002 132.764 96.1472 132.891 95.5209 132.891C94.8163 132.891 94.1703 132.715 93.5831 132.363C93.0057 132.001 92.5457 131.502 92.2032 130.866C91.8705 130.22 91.7041 129.491 91.7041 128.678ZM98.3248 128.708C98.3248 128.15 98.2073 127.665 97.9725 127.254C97.7474 126.843 97.4489 126.53 97.077 126.315C96.7051 126.099 96.3038 125.992 95.8732 125.992C95.4426 125.992 95.0413 126.099 94.6695 126.315C94.2976 126.52 93.9942 126.829 93.7593 127.24C93.5342 127.641 93.4216 128.12 93.4216 128.678C93.4216 129.236 93.5342 129.725 93.7593 130.146C93.9942 130.567 94.2976 130.89 94.6695 131.115C95.0511 131.33 95.4524 131.438 95.8732 131.438C96.3038 131.438 96.7051 131.33 97.077 131.115C97.4489 130.9 97.7474 130.587 97.9725 130.176C98.2073 129.755 98.3248 129.265 98.3248 128.708ZM101.653 128.678C101.653 127.866 101.82 127.147 102.152 126.52C102.495 125.894 102.955 125.409 103.532 125.067C104.119 124.715 104.77 124.538 105.485 124.538C106.013 124.538 106.532 124.656 107.041 124.891C107.56 125.116 107.971 125.419 108.274 125.801V121.896H109.962V132.759H108.274V131.541C108 131.932 107.618 132.255 107.129 132.51C106.649 132.764 106.096 132.891 105.47 132.891C104.765 132.891 104.119 132.715 103.532 132.363C102.955 132.001 102.495 131.502 102.152 130.866C101.82 130.22 101.653 129.491 101.653 128.678ZM108.274 128.708C108.274 128.15 108.156 127.665 107.922 127.254C107.697 126.843 107.398 126.53 107.026 126.315C106.654 126.099 106.253 125.992 105.822 125.992C105.392 125.992 104.991 126.099 104.619 126.315C104.247 126.52 103.943 126.829 103.708 127.24C103.483 127.641 103.371 128.12 103.371 128.678C103.371 129.236 103.483 129.725 103.708 130.146C103.943 130.567 104.247 130.89 104.619 131.115C105 131.33 105.402 131.438 105.822 131.438C106.253 131.438 106.654 131.33 107.026 131.115C107.398 130.9 107.697 130.587 107.922 130.176C108.156 129.755 108.274 129.265 108.274 128.708ZM119.335 132.862C118.65 132.862 118.034 132.745 117.486 132.51C116.938 132.265 116.507 131.923 116.194 131.482C115.881 131.042 115.724 130.528 115.724 129.941H117.515C117.554 130.381 117.725 130.743 118.029 131.027C118.342 131.311 118.777 131.453 119.335 131.453C119.913 131.453 120.363 131.316 120.686 131.042C121.009 130.758 121.17 130.396 121.17 129.955C121.17 129.613 121.068 129.334 120.862 129.119C120.666 128.903 120.417 128.737 120.113 128.62C119.82 128.502 119.409 128.375 118.88 128.238C118.215 128.062 117.672 127.886 117.251 127.709C116.84 127.523 116.487 127.24 116.194 126.858C115.9 126.476 115.753 125.967 115.753 125.331C115.753 124.744 115.9 124.23 116.194 123.79C116.487 123.349 116.898 123.012 117.427 122.777C117.955 122.542 118.567 122.425 119.262 122.425C120.25 122.425 121.058 122.674 121.684 123.173C122.32 123.663 122.673 124.338 122.741 125.199H120.891C120.862 124.827 120.686 124.509 120.363 124.245C120.04 123.981 119.614 123.849 119.086 123.849C118.606 123.849 118.215 123.971 117.911 124.216C117.608 124.46 117.456 124.812 117.456 125.272C117.456 125.586 117.549 125.845 117.735 126.051C117.931 126.246 118.176 126.403 118.469 126.52C118.763 126.638 119.164 126.765 119.673 126.902C120.348 127.088 120.896 127.274 121.317 127.46C121.748 127.646 122.11 127.934 122.403 128.326C122.707 128.708 122.859 129.221 122.859 129.867C122.859 130.386 122.717 130.875 122.433 131.335C122.159 131.795 121.753 132.167 121.214 132.451C120.686 132.725 120.06 132.862 119.335 132.862ZM126.786 126.036V130.513C126.786 130.817 126.854 131.037 126.991 131.174C127.138 131.301 127.383 131.365 127.725 131.365H128.753V132.759H127.432C126.678 132.759 126.101 132.583 125.699 132.231C125.298 131.878 125.097 131.306 125.097 130.513V126.036H124.143V124.671H125.097V122.659H126.786V124.671H128.753V126.036H126.786ZM137.709 128.517C137.709 128.82 137.689 129.094 137.65 129.339H131.47C131.519 129.985 131.758 130.503 132.189 130.895C132.62 131.286 133.148 131.482 133.774 131.482C134.675 131.482 135.311 131.105 135.683 130.352H137.488C137.244 131.096 136.798 131.707 136.153 132.187C135.516 132.657 134.724 132.891 133.774 132.891C133.001 132.891 132.306 132.72 131.69 132.378C131.083 132.025 130.604 131.536 130.251 130.91C129.909 130.273 129.737 129.539 129.737 128.708C129.737 127.876 129.904 127.147 130.237 126.52C130.579 125.884 131.054 125.395 131.66 125.052C132.277 124.71 132.982 124.538 133.774 124.538C134.538 124.538 135.218 124.705 135.815 125.038C136.412 125.37 136.877 125.84 137.21 126.447C137.542 127.044 137.709 127.734 137.709 128.517ZM135.962 127.988C135.952 127.372 135.732 126.877 135.301 126.506C134.871 126.134 134.337 125.948 133.701 125.948C133.124 125.948 132.629 126.134 132.218 126.506C131.807 126.868 131.563 127.362 131.484 127.988H135.962ZM141.029 125.86C141.313 125.488 141.699 125.175 142.189 124.92C142.678 124.666 143.231 124.538 143.848 124.538C144.552 124.538 145.193 124.715 145.771 125.067C146.358 125.409 146.818 125.894 147.151 126.52C147.483 127.147 147.65 127.866 147.65 128.678C147.65 129.491 147.483 130.22 147.151 130.866C146.818 131.502 146.358 132.001 145.771 132.363C145.193 132.715 144.552 132.891 143.848 132.891C143.231 132.891 142.683 132.769 142.203 132.524C141.724 132.27 141.332 131.957 141.029 131.585V136.605H139.356V124.671H141.029V125.86ZM145.947 128.678C145.947 128.12 145.829 127.641 145.595 127.24C145.369 126.829 145.066 126.52 144.684 126.315C144.313 126.099 143.911 125.992 143.481 125.992C143.06 125.992 142.659 126.099 142.277 126.315C141.905 126.53 141.602 126.843 141.367 127.254C141.142 127.665 141.029 128.15 141.029 128.708C141.029 129.265 141.142 129.755 141.367 130.176C141.602 130.587 141.905 130.9 142.277 131.115C142.659 131.33 143.06 131.438 143.481 131.438C143.911 131.438 144.313 131.33 144.684 131.115C145.066 130.89 145.369 130.567 145.595 130.146C145.829 129.725 145.947 129.236 145.947 128.678Z" fill="#14171B"/>
<path d="M155.722 127.26H163.334" stroke="black" stroke-width="1.08741" stroke-linecap="round" stroke-linejoin="round"/>
<path d="M159.528 123.458V131.07" stroke="black" stroke-width="1.08741" stroke-linecap="round" stroke-linejoin="round"/>
<rect x="1.40778" y="1.40778" width="243.852" height="65.7339" rx="9.37891" fill="white"/>
<rect x="1.40778" y="1.40778" width="243.852" height="65.7339" rx="9.37891" stroke="#E5E7EB" stroke-width="0.815557"/>
<rect x="0.592222" y="0.592222" width="245.483" height="67.365" rx="10.1945" stroke="#034737" stroke-width="0.815557"/>
<g clip-path="url(#clip2_1_5524)">
<rect x="14.7007" y="14.6946" width="39.1467" height="39.1467" rx="4.89334" fill="#034737"/>
<path d="M36.3125 28.1604H39.031C39.3915 28.1604 39.7373 28.3036 39.9922 28.5585C40.2471 28.8134 40.3903 29.1592 40.3903 29.5197V39.0345C40.3903 39.395 40.2471 39.7407 39.9922 39.9956C39.7373 40.2505 39.3915 40.3938 39.031 40.3938H36.3125" stroke="white" stroke-width="1.35926" stroke-linecap="round" stroke-linejoin="round"/>
<path d="M32.9146 37.6784L36.3127 34.2802L32.9146 30.8821" stroke="white" stroke-width="1.35926" stroke-linecap="round" stroke-linejoin="round"/>
<path d="M36.3126 34.2812H28.157" stroke="white" stroke-width="1.35926" stroke-linecap="round" stroke-linejoin="round"/>
<g clip-path="url(#clip3_1_5524)">
<path d="M69.363 21.4331V30.5021H67.8754V21.4331H69.363ZM74.9436 23.1947C75.5091 23.1947 76.0136 23.3121 76.4573 23.547C76.9097 23.7819 77.262 24.1299 77.5143 24.5909C77.7665 25.052 77.8927 25.6087 77.8927 26.2612V30.5021H76.4182V26.483C76.4182 25.8393 76.2572 25.3478 75.9353 25.0085C75.6135 24.6605 75.1742 24.4865 74.6174 24.4865C74.0606 24.4865 73.617 24.6605 73.2864 25.0085C72.9645 25.3478 72.8036 25.8393 72.8036 26.483V30.5021H71.316V23.3121H72.8036V24.1342C73.0472 23.8384 73.356 23.6079 73.7301 23.4426C74.1128 23.2773 74.5174 23.1947 74.9436 23.1947ZM81.2777 24.3691C81.53 24.0385 81.8736 23.7601 82.3086 23.534C82.7436 23.3078 83.2351 23.1947 83.7831 23.1947C84.4095 23.1947 84.9793 23.3513 85.4925 23.6644C86.0145 23.9689 86.4234 24.3995 86.7191 24.9563C87.0149 25.513 87.1628 26.1524 87.1628 26.8745C87.1628 27.5965 87.0149 28.2446 86.7191 28.8188C86.4234 29.3842 86.0145 29.8279 85.4925 30.1498C84.9793 30.4629 84.4095 30.6195 83.7831 30.6195C83.2351 30.6195 82.7479 30.5108 82.3217 30.2933C81.8954 30.0671 81.5474 29.7887 81.2777 29.4582V33.9209H79.7902V23.3121H81.2777V24.3691ZM85.6491 26.8745C85.6491 26.3786 85.5447 25.9524 85.336 25.5957C85.1359 25.2303 84.8662 24.9563 84.5269 24.7736C84.1964 24.5822 83.8397 24.4865 83.4569 24.4865C83.0828 24.4865 82.7262 24.5822 82.3869 24.7736C82.0563 24.965 81.7867 25.2434 81.5779 25.6087C81.3778 25.9741 81.2777 26.4047 81.2777 26.9006C81.2777 27.3964 81.3778 27.8314 81.5779 28.2055C81.7867 28.5708 82.0563 28.8492 82.3869 29.0406C82.7262 29.232 83.0828 29.3277 83.4569 29.3277C83.8397 29.3277 84.1964 29.232 84.5269 29.0406C84.8662 28.8405 85.1359 28.5534 85.336 28.1794C85.5447 27.8053 85.6491 27.3703 85.6491 26.8745ZM95.1453 23.3121V30.5021H93.6577V29.6539C93.4228 29.9497 93.114 30.1846 92.7312 30.3585C92.3572 30.5238 91.957 30.6065 91.5307 30.6065C90.9653 30.6065 90.4564 30.489 90.004 30.2541C89.5603 30.0193 89.208 29.6713 88.947 29.2102C88.6948 28.7492 88.5686 28.1924 88.5686 27.54V23.3121H90.0432V27.3181C90.0432 27.9619 90.2041 28.4577 90.526 28.8057C90.8478 29.145 91.2871 29.3146 91.8439 29.3146C92.4007 29.3146 92.84 29.145 93.1618 28.8057C93.4924 28.4577 93.6577 27.9619 93.6577 27.3181V23.3121H95.1453ZM98.8435 24.5257V28.5056C98.8435 28.7753 98.9044 28.971 99.0262 29.0928C99.1567 29.2059 99.3742 29.2624 99.6787 29.2624H100.592V30.5021H99.4177C98.7478 30.5021 98.2346 30.3455 97.8779 30.0323C97.5212 29.7191 97.3429 29.2102 97.3429 28.5056V24.5257H96.4947V23.3121H97.3429V21.5244H98.8435V23.3121H100.592V24.5257H98.8435Z" fill="#14171B"/>
</g>
<path opacity="0.5" d="M67.3173 46.4082C67.3173 45.7427 67.4674 45.1457 67.7675 44.6172C68.0676 44.0822 68.4754 43.6646 68.9908 43.3645C69.5128 43.0644 70.0902 42.9143 70.7231 42.9143C71.4669 42.9143 72.116 43.0938 72.6706 43.4526C73.2252 43.8114 73.6297 44.3204 73.8842 44.9793H72.8174C72.6282 44.5683 72.3542 44.2518 71.9953 44.03C71.643 43.8082 71.2189 43.6973 70.7231 43.6973C70.2468 43.6973 69.8194 43.8082 69.441 44.03C69.0626 44.2518 68.7657 44.5683 68.5504 44.9793C68.3351 45.3838 68.2275 45.8601 68.2275 46.4082C68.2275 46.9497 68.3351 47.426 68.5504 47.837C68.7657 48.2415 69.0626 48.5547 69.441 48.7766C69.8194 48.9984 70.2468 49.1093 70.7231 49.1093C71.2189 49.1093 71.643 49.0016 71.9953 48.7863C72.3542 48.5645 72.6282 48.2481 72.8174 47.837H73.8842C73.6297 48.4895 73.2252 48.9951 72.6706 49.354C72.116 49.7063 71.4669 49.8825 70.7231 49.8825C70.0902 49.8825 69.5128 49.7357 68.9908 49.442C68.4754 49.1419 68.0676 48.7276 67.7675 48.1991C67.4674 47.6707 67.3173 47.0737 67.3173 46.4082ZM76.1005 42.5816V49.8237H75.2099V42.5816H76.1005ZM78.0783 43.5896C77.9087 43.5896 77.7651 43.5309 77.6477 43.4135C77.5303 43.296 77.4715 43.1525 77.4715 42.9828C77.4715 42.8132 77.5303 42.6697 77.6477 42.5522C77.7651 42.4348 77.9087 42.3761 78.0783 42.3761C78.2414 42.3761 78.3784 42.4348 78.4893 42.5522C78.6068 42.6697 78.6655 42.8132 78.6655 42.9828C78.6655 43.1525 78.6068 43.296 78.4893 43.4135C78.3784 43.5309 78.2414 43.5896 78.0783 43.5896ZM78.5089 44.4606V49.8237H77.6183V44.4606H78.5089ZM79.694 47.1324C79.694 46.5778 79.8049 46.095 80.0268 45.684C80.2486 45.2664 80.5553 44.9434 80.9467 44.7151C81.3447 44.4867 81.7982 44.3725 82.3071 44.3725C82.966 44.3725 83.5076 44.5324 83.9317 44.8521C84.3623 45.1718 84.6461 45.6155 84.7831 46.1831H83.824C83.7327 45.8569 83.5532 45.5991 83.2857 45.4099C83.0248 45.2207 82.6985 45.1261 82.3071 45.1261C81.7982 45.1261 81.3871 45.3023 81.0739 45.6546C80.7608 46.0004 80.6042 46.493 80.6042 47.1324C80.6042 47.7783 80.7608 48.2774 81.0739 48.6298C81.3871 48.9821 81.7982 49.1582 82.3071 49.1582C82.6985 49.1582 83.0248 49.0669 83.2857 48.8842C83.5467 48.7015 83.7261 48.4405 83.824 48.1013H84.7831C84.6396 48.6493 84.3525 49.0897 83.9219 49.4225C83.4913 49.7487 82.953 49.9118 82.3071 49.9118C81.7982 49.9118 81.3447 49.7976 80.9467 49.5693C80.5553 49.3409 80.2486 49.018 80.0268 48.6004C79.8049 48.1828 79.694 47.6935 79.694 47.1324ZM88.9661 49.8237L86.862 47.4554V49.8237H85.9714V42.5816H86.862V46.8388L88.927 44.4606H90.1699L87.6449 47.1324L90.1797 49.8237H88.9661ZM94.7036 45.1946V48.3557C94.7036 48.6167 94.759 48.8027 94.87 48.9136C94.9809 49.018 95.1733 49.0702 95.4474 49.0702H96.1031V49.8237H95.3006C94.8047 49.8237 94.4328 49.7096 94.1849 49.4812C93.937 49.2528 93.813 48.8777 93.813 48.3557V45.1946H93.1181V44.4606H93.813V43.1101H94.7036V44.4606H96.1031V45.1946H94.7036ZM99.5212 49.9118C99.0188 49.9118 98.5621 49.7976 98.151 49.5693C97.7465 49.3409 97.4268 49.018 97.1919 48.6004C96.9636 48.1763 96.8494 47.687 96.8494 47.1324C96.8494 46.5843 96.9668 46.1015 97.2017 45.684C97.4431 45.2599 97.7693 44.9369 98.1804 44.7151C98.5914 44.4867 99.0514 44.3725 99.5603 44.3725C100.069 44.3725 100.529 44.4867 100.94 44.7151C101.351 44.9369 101.674 45.2566 101.909 45.6742C102.151 46.0917 102.271 46.5778 102.271 47.1324C102.271 47.687 102.147 48.1763 101.899 48.6004C101.658 49.018 101.328 49.3409 100.911 49.5693C100.493 49.7976 100.03 49.9118 99.5212 49.9118ZM99.5212 49.1289C99.8409 49.1289 100.141 49.0538 100.422 48.9038C100.702 48.7537 100.927 48.5286 101.097 48.2285C101.273 47.9284 101.361 47.563 101.361 47.1324C101.361 46.7018 101.276 46.3364 101.107 46.0363C100.937 45.7362 100.715 45.5143 100.441 45.3708C100.167 45.2207 99.8702 45.1457 99.5505 45.1457C99.2243 45.1457 98.9242 45.2207 98.6501 45.3708C98.3826 45.5143 98.1673 45.7362 98.0042 46.0363C97.8411 46.3364 97.7596 46.7018 97.7596 47.1324C97.7596 47.5695 97.8379 47.9382 97.9944 48.2383C98.1575 48.5384 98.3729 48.7635 98.6404 48.9136C98.9079 49.0571 99.2015 49.1289 99.5212 49.1289ZM110.083 48.3068H107.108L106.56 49.8237H105.621L108.087 43.0416H109.115L111.571 49.8237H110.631L110.083 48.3068ZM109.829 47.5826L108.596 44.1377L107.363 47.5826H109.829ZM112.313 47.1226C112.313 46.5746 112.424 46.095 112.646 45.684C112.868 45.2664 113.171 44.9434 113.556 44.7151C113.947 44.4867 114.385 44.3725 114.867 44.3725C115.285 44.3725 115.673 44.4704 116.032 44.6661C116.391 44.8554 116.665 45.1065 116.854 45.4197V42.5816H117.755V49.8237H116.854V48.8157C116.678 49.1354 116.417 49.3996 116.071 49.6084C115.725 49.8107 115.321 49.9118 114.858 49.9118C114.381 49.9118 113.947 49.7944 113.556 49.5595C113.171 49.3246 112.868 48.9951 112.646 48.571C112.424 48.1469 112.313 47.6641 112.313 47.1226ZM116.854 47.1324C116.854 46.7279 116.773 46.3756 116.609 46.0754C116.446 45.7753 116.225 45.5469 115.944 45.3904C115.67 45.2273 115.367 45.1457 115.034 45.1457C114.701 45.1457 114.398 45.224 114.124 45.3806C113.85 45.5372 113.631 45.7655 113.468 46.0656C113.305 46.3658 113.223 46.7181 113.223 47.1226C113.223 47.5336 113.305 47.8925 113.468 48.1991C113.631 48.4993 113.85 48.7309 114.124 48.894C114.398 49.0506 114.701 49.1289 115.034 49.1289C115.367 49.1289 115.67 49.0506 115.944 48.894C116.225 48.7309 116.446 48.4993 116.609 48.1991C116.773 47.8925 116.854 47.5369 116.854 47.1324ZM118.927 47.1226C118.927 46.5746 119.038 46.095 119.26 45.684C119.481 45.2664 119.785 44.9434 120.17 44.7151C120.561 44.4867 120.998 44.3725 121.481 44.3725C121.899 44.3725 122.287 44.4704 122.646 44.6661C123.005 44.8554 123.279 45.1065 123.468 45.4197V42.5816H124.368V49.8237H123.468V48.8157C123.292 49.1354 123.031 49.3996 122.685 49.6084C122.339 49.8107 121.935 49.9118 121.471 49.9118C120.995 49.9118 120.561 49.7944 120.17 49.5595C119.785 49.3246 119.481 48.9951 119.26 48.571C119.038 48.1469 118.927 47.6641 118.927 47.1226ZM123.468 47.1324C123.468 46.7279 123.386 46.3756 123.223 46.0754C123.06 45.7753 122.838 45.5469 122.558 45.3904C122.284 45.2273 121.98 45.1457 121.647 45.1457C121.315 45.1457 121.011 45.224 120.737 45.3806C120.463 45.5372 120.245 45.7655 120.082 46.0656C119.918 46.3658 119.837 46.7181 119.837 47.1226C119.837 47.5336 119.918 47.8925 120.082 48.1991C120.245 48.4993 120.463 48.7309 120.737 48.894C121.011 49.0506 121.315 49.1289 121.647 49.1289C121.98 49.1289 122.284 49.0506 122.558 48.894C122.838 48.7309 123.06 48.4993 123.223 48.1991C123.386 47.8925 123.468 47.5369 123.468 47.1324ZM129.373 43.0024V49.8237H128.482V43.0024H129.373ZM133.504 44.3628C134.156 44.3628 134.685 44.5618 135.089 44.9597C135.494 45.3512 135.696 45.9188 135.696 46.6626V49.8237H134.815V46.7899C134.815 46.2549 134.681 45.8471 134.414 45.5665C134.146 45.2794 133.781 45.1359 133.318 45.1359C132.848 45.1359 132.473 45.2827 132.192 45.5763C131.918 45.8699 131.781 46.2973 131.781 46.8584V49.8237H130.891V44.4606H131.781V45.224C131.958 44.95 132.196 44.7379 132.496 44.5879C132.802 44.4378 133.138 44.3628 133.504 44.3628ZM138.041 45.4491C138.218 45.1424 138.479 44.888 138.824 44.6857C139.177 44.4769 139.584 44.3725 140.048 44.3725C140.524 44.3725 140.955 44.4867 141.34 44.7151C141.731 44.9434 142.038 45.2664 142.259 45.684C142.481 46.095 142.592 46.5746 142.592 47.1226C142.592 47.6641 142.481 48.1469 142.259 48.571C142.038 48.9951 141.731 49.3246 141.34 49.5595C140.955 49.7944 140.524 49.9118 140.048 49.9118C139.591 49.9118 139.186 49.8107 138.834 49.6084C138.488 49.3996 138.224 49.1419 138.041 48.8353V52.3683H137.151V44.4606H138.041V45.4491ZM141.682 47.1226C141.682 46.7181 141.6 46.3658 141.437 46.0656C141.274 45.7655 141.052 45.5372 140.772 45.3806C140.498 45.224 140.194 45.1457 139.862 45.1457C139.535 45.1457 139.232 45.2273 138.952 45.3904C138.678 45.5469 138.456 45.7786 138.286 46.0852C138.123 46.3853 138.041 46.7344 138.041 47.1324C138.041 47.5369 138.123 47.8925 138.286 48.1991C138.456 48.4993 138.678 48.7309 138.952 48.894C139.232 49.0506 139.535 49.1289 139.862 49.1289C140.194 49.1289 140.498 49.0506 140.772 48.894C141.052 48.7309 141.274 48.4993 141.437 48.1991C141.6 47.8925 141.682 47.5336 141.682 47.1226ZM148.521 44.4606V49.8237H147.63V49.031C147.461 49.305 147.222 49.5203 146.916 49.6769C146.616 49.827 146.283 49.902 145.918 49.902C145.5 49.902 145.125 49.8172 144.792 49.6476C144.459 49.4714 144.195 49.2104 143.999 48.8646C143.81 48.5188 143.716 48.098 143.716 47.6022V44.4606H144.596V47.4847C144.596 48.0132 144.73 48.421 144.998 48.708C145.265 48.9886 145.63 49.1289 146.094 49.1289C146.57 49.1289 146.945 48.9821 147.219 48.6885C147.493 48.3949 147.63 47.9675 147.63 47.4064V44.4606H148.521ZM151.111 45.1946V48.3557C151.111 48.6167 151.166 48.8027 151.277 48.9136C151.388 49.018 151.581 49.0702 151.855 49.0702H152.51V49.8237H151.708C151.212 49.8237 150.84 49.7096 150.592 49.4812C150.344 49.2528 150.22 48.8777 150.22 48.3557V45.1946H149.525V44.4606H150.22V43.1101H151.111V44.4606H152.51V45.1946H151.111ZM155.488 49.9118C155.077 49.9118 154.708 49.8433 154.382 49.7063C154.056 49.5628 153.798 49.367 153.609 49.1191C153.42 48.8646 153.315 48.5743 153.296 48.2481H154.216C154.242 48.5156 154.366 48.7341 154.588 48.9038C154.816 49.0734 155.113 49.1582 155.478 49.1582C155.817 49.1582 156.085 49.0832 156.281 48.9331C156.476 48.7831 156.574 48.5939 156.574 48.3655C156.574 48.1306 156.47 47.9577 156.261 47.8468C156.052 47.7294 155.729 47.6152 155.292 47.5043C154.894 47.3999 154.568 47.2955 154.314 47.1911C154.066 47.0802 153.85 46.9203 153.668 46.7116C153.492 46.4963 153.403 46.2157 153.403 45.8699C153.403 45.5959 153.485 45.3447 153.648 45.1163C153.811 44.888 154.043 44.7086 154.343 44.5781C154.643 44.4411 154.986 44.3725 155.371 44.3725C155.964 44.3725 156.444 44.5226 156.809 44.8227C157.175 45.1229 157.37 45.5339 157.396 46.0559H156.506C156.486 45.7753 156.372 45.5502 156.163 45.3806C155.961 45.2109 155.687 45.1261 155.341 45.1261C155.021 45.1261 154.767 45.1946 154.578 45.3316C154.389 45.4687 154.294 45.6481 154.294 45.8699C154.294 46.0461 154.349 46.1929 154.46 46.3103C154.578 46.4212 154.721 46.5126 154.891 46.5843C155.067 46.6496 155.309 46.7246 155.615 46.8094C156 46.9138 156.313 47.0182 156.555 47.1226C156.796 47.2205 157.002 47.3705 157.171 47.5728C157.347 47.7751 157.439 48.0393 157.445 48.3655C157.445 48.6591 157.364 48.9234 157.201 49.1582C157.038 49.3931 156.806 49.5791 156.506 49.7161C156.212 49.8466 155.873 49.9118 155.488 49.9118Z" fill="#14171B"/>
</g>
<path d="M123.706 70.2496C123.706 82.3987 123.706 82.3987 123.706 94.5477" stroke="#BBBBBB" stroke-width="0.815557" stroke-dasharray="2.45 2.45"/>
<path d="M123.331 160.153C123.331 172.302 123.331 172.302 123.331 184.451" stroke="#BBBBBB" stroke-width="0.815557" stroke-dasharray="2.45 2.45"/>
<defs>
<clipPath id="clip0_1_5524">
<rect width="217.264" height="39.1467" fill="white" transform="translate(14.7009 198.155)"/>
</clipPath>
<clipPath id="clip1_1_5524">
<rect width="95.8361" height="19.5734" fill="white" transform="translate(66.8965 201.411)"/>
</clipPath>
<clipPath id="clip2_1_5524">
<rect width="217.264" height="39.1467" fill="white" transform="translate(14.7009 14.6923)"/>
</clipPath>
<clipPath id="clip3_1_5524">
<rect width="87.4603" height="19.5734" fill="white" transform="translate(66.8965 16.505)"/>
</clipPath>
</defs>
</svg>
