<svg width="106" height="20" viewBox="0 0 106 20" fill="none" xmlns="http://www.w3.org/2000/svg">
<g clip-path="url(#clip0_1_1373)">
<mask id="mask0_1_1373" style="mask-type:luminance" maskUnits="userSpaceOnUse" x="0" y="0" width="20" height="20">
<path d="M19.7564 7.82367L12.5904 7.36027L9.884 0.57251L7.17763 7.36027L0.0273438 7.82367L5.51379 12.4945L3.71306 19.5719L9.884 15.6646L16.0549 19.5719L14.2542 12.4945L19.7564 7.82367Z" fill="white"/>
</mask>
<g mask="url(#mask0_1_1373)">
<path d="M96.909 0.57251H0.0273438V19.5719H96.909V0.57251Z" fill="#FCB002"/>
</g>
<mask id="mask1_1_1373" style="mask-type:luminance" maskUnits="userSpaceOnUse" x="21" y="0" width="21" height="20">
<path d="M41.1451 7.82343L33.979 7.36003L31.2727 0.572266L28.5716 7.36003L21.416 7.82343L26.9025 12.4943L25.1017 19.5717L31.2727 15.6644L37.4489 19.5717L35.6429 12.4943L41.1451 7.82343Z" fill="white"/>
</mask>
<g mask="url(#mask1_1_1373)">
<path d="M96.9031 0.572266H0.0214844V19.5717H96.9031V0.572266Z" fill="#FCB002"/>
</g>
<mask id="mask2_1_1373" style="mask-type:luminance" maskUnits="userSpaceOnUse" x="42" y="0" width="21" height="20">
<path d="M62.5423 7.82343L55.3762 7.36003L52.6751 0.572266L49.9688 7.36003L42.8185 7.82343L48.3049 12.4943L46.4989 19.5717L52.6751 15.6644L58.8461 19.5717L57.0401 12.4943L62.5423 7.82343Z" fill="white"/>
</mask>
<g mask="url(#mask2_1_1373)">
<path d="M96.9072 0.572266H0.0255127V19.5717H96.9072V0.572266Z" fill="#FCB002"/>
</g>
<mask id="mask3_1_1373" style="mask-type:luminance" maskUnits="userSpaceOnUse" x="64" y="0" width="20" height="20">
<path d="M83.9361 7.82343L76.77 7.36003L74.0637 0.572266L71.3573 7.36003L64.207 7.82343L69.6935 12.4943L67.8875 19.5717L74.0637 15.6644L80.2346 19.5717L78.4339 12.4943L83.9361 7.82343Z" fill="white"/>
</mask>
<g mask="url(#mask3_1_1373)">
<path d="M96.9051 0.572266H0.0234375V19.5717H96.9051V0.572266Z" fill="#FCB002"/>
</g>
<mask id="mask4_1_1373" style="mask-type:luminance" maskUnits="userSpaceOnUse" x="85" y="0" width="21" height="20">
<path d="M105.329 7.82343L98.1626 7.36003L95.4563 0.572266L92.7499 7.36003L85.5996 7.82343L91.0861 12.4943L89.2853 19.5717L95.4563 15.6644L101.627 19.5717L99.8265 12.4943L105.329 7.82343Z" fill="white"/>
</mask>
<g mask="url(#mask4_1_1373)">
<path d="M96.9069 0.572266H0.0252686V19.5717H96.9069V0.572266Z" fill="#FCB002"/>
</g>
<path d="M9.88009 1.99406L12.0968 7.55487L12.2179 7.86556L12.5496 7.88662L18.4152 8.26577L13.908 12.0941L13.6553 12.3047L13.7343 12.6259L15.2086 18.4184L10.1539 15.2168L9.87482 15.0377L9.59576 15.2168L4.54107 18.4184L6.01536 12.6259L6.09433 12.31L5.84687 12.0994L1.35029 8.27103L7.20531 7.89189L7.53703 7.87082L7.65813 7.56013L9.88009 1.99406ZM9.88009 0.572266L7.17372 7.36003L0.0234375 7.82343L5.50989 12.4943L3.70915 19.5717L9.88009 15.6644L16.051 19.5717L14.2503 12.4943L19.7525 7.82343L12.5865 7.36003L9.88009 0.572266Z" fill="#FCB002"/>
<path d="M31.2707 1.99406L33.4874 7.55487L33.6085 7.86556L33.9402 7.88662L39.8058 8.26577L35.2987 12.0941L35.0459 12.3047L35.1249 12.6259L36.5992 18.4184L31.5445 15.2168L31.2654 15.0377L30.9864 15.2168L25.9317 18.4184L27.406 12.6259L27.485 12.31L27.2375 12.0994L22.7409 8.27103L28.5959 7.89189L28.9277 7.87082L29.0488 7.56013L31.2707 1.99406ZM31.2707 0.572266L28.5643 7.36003L21.4141 7.82343L26.9005 12.4943L25.0998 19.5717L31.2707 15.6644L37.4417 19.5717L35.6409 12.4943L41.1432 7.82343L33.9771 7.36003L31.2707 0.572266Z" fill="#FCB002"/>
<path d="M52.6711 1.99406L54.8878 7.55487L55.0089 7.86556L55.3406 7.88662L61.2062 8.26577L56.6991 12.0941L56.4463 12.3047L56.5253 12.6259L57.9996 18.4184L52.9449 15.2168L52.6658 15.0377L52.3868 15.2168L47.3321 18.4184L48.8064 12.6259L48.8854 12.31L48.6379 12.0994L44.1413 8.27103L49.9963 7.89189L50.328 7.87082L50.4491 7.56013L52.6711 1.99406ZM52.6711 0.572266L49.9647 7.36003L42.8145 7.82343L48.3009 12.4943L46.5002 19.5717L52.6711 15.6644L58.842 19.5717L57.0413 12.4943L62.5436 7.82343L55.3775 7.36003L52.6711 0.572266Z" fill="#FCB002"/>
<path d="M74.0656 1.99406L76.2823 7.55487L76.4034 7.86556L76.7351 7.88662L82.6007 8.26577L78.0936 12.0941L77.8409 12.3047L77.9198 12.6259L79.3941 18.4184L74.3394 15.2168L74.0604 15.0377L73.7813 15.2168L68.7266 18.4184L70.2009 12.6259L70.2799 12.31L70.0324 12.0994L65.5358 8.27103L71.3909 7.89189L71.7226 7.87082L71.8437 7.56013L74.0656 1.99406ZM74.0656 0.572266L71.3593 7.36003L64.209 7.82343L69.6954 12.4943L67.8947 19.5717L74.0656 15.6644L80.2366 19.5717L78.4358 12.4943L83.9381 7.82343L76.772 7.36003L74.0656 0.572266Z" fill="#FCB002"/>
<path d="M95.4543 1.99406L97.671 7.55487L97.7921 7.86556L98.1238 7.88662L103.989 8.26577L99.4823 12.0941L99.2295 12.3047L99.3085 12.6259L100.783 18.4184L95.7281 15.2168L95.449 15.0377L95.17 15.2168L90.1153 18.4184L91.5896 12.6259L91.6686 12.31L91.4211 12.0994L86.9245 8.27103L92.7795 7.89189L93.1112 7.87082L93.2323 7.56013L95.4543 1.99406ZM95.4543 0.572266L92.7479 7.36003L85.5977 7.82343L91.0841 12.4943L89.2834 19.5717L95.4543 15.6644L101.625 19.5717L99.8245 12.4943L105.327 7.82343L98.1607 7.36003L95.4543 0.572266Z" fill="#FCB002"/>
</g>
<defs>
<clipPath id="clip0_1_1373">
<rect width="105.357" height="18.9994" fill="white" transform="translate(0 0.572266)"/>
</clipPath>
</defs>
</svg>
