<svg width="66" height="66" viewBox="0 0 66 66" fill="none" xmlns="http://www.w3.org/2000/svg">
<rect x="0.709059" y="0.709059" width="64.5819" height="64.5819" rx="19.2909" fill="#FEE4F1"/>
<rect x="0.709059" y="0.709059" width="64.5819" height="64.5819" rx="19.2909" stroke="white" stroke-width="1.41812"/>
<path fill-rule="evenodd" clip-rule="evenodd" d="M33.4141 15.5H17.1641C16.5016 15.5 15.8641 15.7633 15.3974 16.2321C14.9266 16.7013 14.6641 17.3371 14.6641 18C14.6641 24.005 14.6641 44.495 14.6641 50.5C14.6641 51.8808 15.7849 53 17.1641 53H42.1641C43.5432 53 44.6641 51.8808 44.6641 50.5C44.6641 46.2787 44.6641 35.5 44.6641 35.5C44.6641 35.04 44.2891 34.6667 43.8307 34.6667C43.3724 34.6667 42.9974 35.04 42.9974 35.5C42.9974 35.5 42.9974 46.2787 42.9974 50.5C42.9974 50.9604 42.6266 51.3333 42.1641 51.3333H17.1641C16.7016 51.3333 16.3307 50.9604 16.3307 50.5C16.3307 44.495 16.3307 24.005 16.3307 18C16.3307 17.7792 16.4183 17.5671 16.5766 17.4108C16.7308 17.2546 16.9432 17.1667 17.1641 17.1667H33.4141C33.8724 17.1667 34.2474 16.7933 34.2474 16.3333C34.2474 15.8733 33.8724 15.5 33.4141 15.5ZM21.1224 43.8333H38.2057C38.6641 43.8333 39.0391 43.46 39.0391 43C39.0391 42.54 38.6641 42.1667 38.2057 42.1667H21.1224C20.6641 42.1667 20.2891 42.54 20.2891 43C20.2891 43.46 20.6641 43.8333 21.1224 43.8333ZM21.1224 39.25H38.2057C38.6641 39.25 39.0391 38.8767 39.0391 38.4167C39.0391 37.9567 38.6641 37.5833 38.2057 37.5833H21.1224C20.6641 37.5833 20.2891 37.9567 20.2891 38.4167C20.2891 38.8767 20.6641 39.25 21.1224 39.25ZM28.8307 25.0833H21.3307C20.8724 25.0833 20.4974 25.4567 20.4974 25.9167C20.4974 26.3767 20.8724 26.75 21.3307 26.75H24.2474V35.0833C24.2474 35.5433 24.6224 35.9167 25.0807 35.9167C25.5391 35.9167 25.9141 35.5433 25.9141 35.0833V26.75H28.8307C29.2891 26.75 29.6641 26.3767 29.6641 25.9167C29.6641 25.4567 29.2891 25.0833 28.8307 25.0833ZM29.8724 35.0833H38.2057C38.6641 35.0833 39.0391 34.71 39.0391 34.25C39.0391 33.79 38.6641 33.4167 38.2057 33.4167H29.8724C29.4141 33.4167 29.0391 33.79 29.0391 34.25C29.0391 34.71 29.4141 35.0833 29.8724 35.0833ZM47.0974 24.3775C46.9766 24.0504 46.6641 23.8333 46.3182 23.8333C45.9682 23.8333 45.6558 24.0504 45.5349 24.3775L44.5432 27.0596L41.8599 28.0517C41.5349 28.1729 41.3182 28.4846 41.3182 28.8333C41.3182 29.1821 41.5349 29.4938 41.8599 29.615L44.5432 30.6071L45.5349 33.2892C45.6558 33.6162 45.9682 33.8333 46.3182 33.8333C46.6641 33.8333 46.9766 33.6162 47.0974 33.2892L48.0891 30.6071L50.7724 29.615C51.1015 29.4938 51.3182 29.1821 51.3182 28.8333C51.3182 28.4846 51.1015 28.1729 50.7724 28.0517L48.0891 27.0596L47.0974 24.3775ZM32.1641 30.9167H35.4974C35.9557 30.9167 36.3307 30.5433 36.3307 30.0833C36.3307 29.6233 35.9557 29.25 35.4974 29.25H32.1641C31.7057 29.25 31.3307 29.6233 31.3307 30.0833C31.3307 30.5433 31.7057 30.9167 32.1641 30.9167ZM46.3182 27.0679L46.6599 27.9971C46.7432 28.2254 46.9266 28.405 47.1516 28.4896L48.0807 28.8333L47.1516 29.1771C46.9266 29.2617 46.7432 29.4413 46.6599 29.6696L46.3182 30.5987L45.9724 29.6696C45.889 29.4413 45.7099 29.2617 45.4807 29.1771L44.5516 28.8333L45.4807 28.4896C45.7099 28.405 45.889 28.2254 45.9724 27.9971L46.3182 27.0679ZM39.614 13.5442C39.4932 13.2171 39.1807 13 38.8307 13C38.4807 13 38.1683 13.2171 38.0474 13.5442L36.0433 18.9633L30.6266 20.9683C30.2974 21.0896 30.0807 21.4012 30.0807 21.75C30.0807 22.0988 30.2974 22.4104 30.6266 22.5317L36.0433 24.5367L38.0474 29.9558C38.1683 30.2829 38.4807 30.5 38.8307 30.5C39.1807 30.5 39.4932 30.2829 39.614 29.9558L41.6182 24.5367L47.0349 22.5317C47.364 22.4104 47.5807 22.0988 47.5807 21.75C47.5807 21.4012 47.364 21.0896 47.0349 20.9683L41.6182 18.9633L39.614 13.5442ZM38.8307 16.2346L40.1891 19.9008C40.2724 20.1292 40.4515 20.3088 40.6807 20.3933L44.3474 21.75L40.6807 23.1067C40.4515 23.1912 40.2724 23.3708 40.1891 23.5992L38.8307 27.2654L37.4724 23.5992C37.3891 23.3708 37.2099 23.1912 36.9808 23.1067L33.3141 21.75L36.9808 20.3933C37.2099 20.3088 37.3891 20.1292 37.4724 19.9008L38.8307 16.2346ZM32.1641 26.75H33.8307C34.2891 26.75 34.6641 26.3767 34.6641 25.9167C34.6641 25.4567 34.2891 25.0833 33.8307 25.0833H32.1641C31.7057 25.0833 31.3307 25.4567 31.3307 25.9167C31.3307 26.3767 31.7057 26.75 32.1641 26.75ZM45.4974 15.9167H44.6641C44.2057 15.9167 43.8307 16.29 43.8307 16.75C43.8307 17.21 44.2057 17.5833 44.6641 17.5833H45.4974V18.4167C45.4974 18.8767 45.8724 19.25 46.3307 19.25C46.7891 19.25 47.1641 18.8767 47.1641 18.4167V17.5833H47.9974C48.4557 17.5833 48.8307 17.21 48.8307 16.75C48.8307 16.29 48.4557 15.9167 47.9974 15.9167H47.1641V15.0833C47.1641 14.6233 46.7891 14.25 46.3307 14.25C45.8724 14.25 45.4974 14.6233 45.4974 15.0833V15.9167Z" fill="#FF76BB"/>
</svg>
