<?xml version="1.0" encoding="UTF-8"?>
<!DOCTYPE svg PUBLIC "-//W3C//DTD SVG 1.1//EN" "http://www.w3.org/Graphics/SVG/1.1/DTD/svg11.dtd">
<svg xmlns="http://www.w3.org/2000/svg" version="1.1" width="640px" height="427px" style="shape-rendering:geometricPrecision; text-rendering:geometricPrecision; image-rendering:optimizeQuality; fill-rule:evenodd; clip-rule:evenodd" xmlns:xlink="http://www.w3.org/1999/xlink">
<g><path style="opacity:1" fill="#fe681f" d="M -0.5,-0.5 C 212.833,-0.5 426.167,-0.5 639.5,-0.5C 639.5,46.8333 639.5,94.1667 639.5,141.5C 426.167,141.5 212.833,141.5 -0.5,141.5C -0.5,94.1667 -0.5,46.8333 -0.5,-0.5 Z"/></g>
<g><path style="opacity:1" fill="#fefefe" d="M -0.5,141.5 C 212.833,141.5 426.167,141.5 639.5,141.5C 639.5,188.833 639.5,236.167 639.5,283.5C 426.167,283.5 212.833,283.5 -0.5,283.5C -0.5,236.167 -0.5,188.833 -0.5,141.5 Z"/></g>
<g><path style="opacity:1" fill="#160c90" d="M 308.5,147.5 C 347.02,144.994 372.187,161.994 384,198.5C 388.85,238.327 372.35,264.494 334.5,277C 299.788,282.562 274.621,269.728 259,238.5C 246.423,198.56 258.923,169.393 296.5,151C 300.543,149.509 304.543,148.342 308.5,147.5 Z"/></g>
<g><path style="opacity:1" fill="#a7a2d5" d="M 373.5,195.5 C 374.404,196.209 374.737,197.209 374.5,198.5C 371.452,199.346 368.452,200.346 365.5,201.5C 365.158,200.662 364.492,200.328 363.5,200.5C 366.322,199.493 369.322,198.66 372.5,198C 373.252,197.329 373.586,196.496 373.5,195.5 Z"/></g>
<g><path style="opacity:1" fill="#f4f3fa" d="M 373.5,195.5 C 373.586,196.496 373.252,197.329 372.5,198C 369.322,198.66 366.322,199.493 363.5,200.5C 351.879,202.189 340.546,204.689 329.5,208C 341.459,202.355 352.793,195.689 363.5,188C 351.146,192.429 339.646,198.596 329,206.5C 328.333,205.833 328.333,205.167 329,204.5C 338.963,196.037 348.129,186.703 356.5,176.5C 356.333,176.167 356.167,175.833 356,175.5C 350.449,181.019 344.615,186.186 338.5,191C 333.917,194.912 330.083,199.412 327,204.5C 332.987,193.532 338.821,182.199 344.5,170.5C 336.604,179.828 329.77,190.495 324,202.5C 327.757,189.051 330.757,175.384 333,161.5C 328.037,174.55 324.204,187.883 321.5,201.5C 321.783,190.858 321.45,180.192 320.5,169.5C 319.833,158.833 319.167,158.833 318.5,169.5C 317.437,180.184 317.27,190.85 318,201.5C 314.623,187.697 310.623,174.03 306,160.5C 308.114,174.741 311.114,188.741 315,202.5C 309.1,191.034 302.434,180.034 295,169.5C 299.055,180.938 304.721,191.605 312,201.5C 312.667,202.5 312.667,203.5 312,204.5C 310.333,202.167 308.667,199.833 307,197.5C 299,190.167 291,182.833 283,175.5C 282.333,176.167 282.333,176.833 283,177.5C 291.733,187.398 300.899,196.731 310.5,205.5C 300.543,199.508 289.876,193.842 278.5,188.5C 277.304,188.846 277.304,189.346 278.5,190C 288.077,197.23 298.41,203.23 309.5,208C 299.787,204.939 289.787,202.773 279.5,201.5C 275.327,200.173 270.993,199.34 266.5,199C 270.154,200.274 273.82,201.44 277.5,202.5C 287.457,206.652 297.79,209.485 308.5,211C 299.164,210.242 289.83,210.409 280.5,211.5C 275.448,211.45 270.448,211.95 265.5,213C 268.146,213.497 270.813,213.664 273.5,213.5C 285.205,214.441 296.872,214.775 308.5,214.5C 296.125,216.68 284.125,220.18 272.5,225C 284.919,224.016 296.919,221.182 308.5,216.5C 308.833,216.833 309.167,217.167 309.5,217.5C 296.886,223.608 284.886,230.775 273.5,239C 286.118,233.854 298.118,227.354 309.5,219.5C 309.833,219.833 310.167,220.167 310.5,220.5C 300.805,227.922 292.471,236.588 285.5,246.5C 283.401,247.517 282.401,248.85 282.5,250.5C 284.188,249.479 285.521,248.145 286.5,246.5C 295.849,238.984 304.349,230.651 312,221.5C 312.667,222.5 312.667,223.5 312,224.5C 305.206,233.751 299.706,243.751 295.5,254.5C 303.079,245.024 309.412,234.69 314.5,223.5C 311.415,236.218 308.415,249.218 305.5,262.5C 305.667,263.167 305.833,263.833 306,264.5C 310.413,251.264 314.413,237.93 318,224.5C 317.591,235.47 317.758,246.47 318.5,257.5C 319.167,268.167 319.833,268.167 320.5,257.5C 321.242,246.47 321.409,235.47 321,224.5C 323.325,234.31 326.159,243.976 329.5,253.5C 330.56,257.18 331.726,260.846 333,264.5C 332.987,259.609 332.154,254.943 330.5,250.5C 329.093,241.208 326.926,232.208 324,223.5C 329.512,234.539 336.012,244.872 343.5,254.5C 338.45,243.066 332.95,232.066 327,221.5C 335.327,231.836 344.827,240.669 355.5,248C 347.275,238.031 338.275,228.864 328.5,220.5C 328.833,220.167 329.167,219.833 329.5,219.5C 339.061,226.612 349.394,232.112 360.5,236C 350.283,228.781 340.283,222.281 330.5,216.5C 343.466,221.392 356.8,224.558 370.5,226C 357.346,221.447 344.012,217.614 330.5,214.5C 344.098,214.524 357.765,214.024 371.5,213C 357.85,211.222 344.184,210.555 330.5,211C 342.348,208.551 354.015,205.385 365.5,201.5C 368.452,200.346 371.452,199.346 374.5,198.5C 375.928,200.854 375.595,203.021 373.5,205C 375.422,207.025 376.422,209.525 376.5,212.5C 376.422,215.475 375.422,217.975 373.5,220C 374.167,221.333 374.833,222.667 375.5,224C 374.313,226.724 373.647,229.557 373.5,232.5C 369.842,232.324 368.842,233.824 370.5,237C 369.47,239.56 368.303,242.06 367,244.5C 365.644,245.38 364.144,245.714 362.5,245.5C 362.328,250.209 360.161,253.875 356,256.5C 354.951,255.483 353.784,255.316 352.5,256C 350.1,262.025 345.767,264.691 339.5,264C 335.901,268.112 331.734,268.945 327,266.5C 324.975,268.422 322.475,269.422 319.5,269.5C 316.525,269.422 314.025,268.422 312,266.5C 307.095,269.231 302.928,268.398 299.5,264C 292.987,264.589 288.654,261.922 286.5,256C 285.216,255.316 284.049,255.483 283,256.5C 278.839,253.875 276.672,250.209 276.5,245.5C 274.856,245.714 273.356,245.38 272,244.5C 269.429,241.093 268.429,237.426 269,233.5C 267.989,232.663 266.822,232.33 265.5,232.5C 265.353,229.557 264.687,226.724 263.5,224C 264.167,222.667 264.833,221.333 265.5,220C 263.047,218.173 262.047,215.673 262.5,212.5C 262.578,209.525 263.578,207.025 265.5,205C 263.361,201.621 263.361,198.121 265.5,194.5C 266.628,193.738 267.795,193.071 269,192.5C 267.909,186.35 270.242,182.016 276,179.5C 276.873,172.94 280.373,169.774 286.5,170C 288.543,163.626 292.876,160.959 299.5,162C 300.337,160.989 300.67,159.822 300.5,158.5C 303.238,158.149 305.904,157.482 308.5,156.5C 309.548,157.383 310.715,158.05 312,158.5C 317,155.833 322,155.833 327,158.5C 332.176,156.546 336.343,157.712 339.5,162C 341.5,162 343.5,162 345.5,162C 347.249,163.292 349.082,164.458 351,165.5C 350.782,169.638 352.448,170.972 356,169.5C 360.283,171.453 362.617,174.786 363,179.5C 368.758,182.016 371.091,186.35 370,192.5C 371.729,192.974 372.895,193.974 373.5,195.5 Z"/></g>
<g><path style="opacity:1" fill="#5247ab" d="M 280.5,211.5 C 278.167,212.167 275.833,212.833 273.5,213.5C 270.813,213.664 268.146,213.497 265.5,213C 270.448,211.95 275.448,211.45 280.5,211.5 Z"/></g>
<g><path style="opacity:1" fill="#231794" d="M 318.5,169.5 C 319.167,169.5 319.833,169.5 320.5,169.5C 321.45,180.192 321.783,190.858 321.5,201.5C 324.204,187.883 328.037,174.55 333,161.5C 330.757,175.384 327.757,189.051 324,202.5C 329.77,190.495 336.604,179.828 344.5,170.5C 338.821,182.199 332.987,193.532 327,204.5C 330.083,199.412 333.917,194.912 338.5,191C 344.615,186.186 350.449,181.019 356,175.5C 356.167,175.833 356.333,176.167 356.5,176.5C 348.129,186.703 338.963,196.037 329,204.5C 328.333,205.167 328.333,205.833 329,206.5C 339.646,198.596 351.146,192.429 363.5,188C 352.793,195.689 341.459,202.355 329.5,208C 340.546,204.689 351.879,202.189 363.5,200.5C 364.492,200.328 365.158,200.662 365.5,201.5C 354.015,205.385 342.348,208.551 330.5,211C 344.184,210.555 357.85,211.222 371.5,213C 357.765,214.024 344.098,214.524 330.5,214.5C 344.012,217.614 357.346,221.447 370.5,226C 356.8,224.558 343.466,221.392 330.5,216.5C 340.283,222.281 350.283,228.781 360.5,236C 349.394,232.112 339.061,226.612 329.5,219.5C 329.167,219.833 328.833,220.167 328.5,220.5C 338.275,228.864 347.275,238.031 355.5,248C 344.827,240.669 335.327,231.836 327,221.5C 332.95,232.066 338.45,243.066 343.5,254.5C 336.012,244.872 329.512,234.539 324,223.5C 326.926,232.208 329.093,241.208 330.5,250.5C 330.737,251.791 330.404,252.791 329.5,253.5C 326.159,243.976 323.325,234.31 321,224.5C 321.409,235.47 321.242,246.47 320.5,257.5C 319.833,257.5 319.167,257.5 318.5,257.5C 317.758,246.47 317.591,235.47 318,224.5C 314.413,237.93 310.413,251.264 306,264.5C 305.833,263.833 305.667,263.167 305.5,262.5C 308.415,249.218 311.415,236.218 314.5,223.5C 309.412,234.69 303.079,245.024 295.5,254.5C 299.706,243.751 305.206,233.751 312,224.5C 312.667,223.5 312.667,222.5 312,221.5C 304.349,230.651 295.849,238.984 286.5,246.5C 286.167,246.5 285.833,246.5 285.5,246.5C 292.471,236.588 300.805,227.922 310.5,220.5C 310.167,220.167 309.833,219.833 309.5,219.5C 298.118,227.354 286.118,233.854 273.5,239C 284.886,230.775 296.886,223.608 309.5,217.5C 309.167,217.167 308.833,216.833 308.5,216.5C 296.919,221.182 284.919,224.016 272.5,225C 284.125,220.18 296.125,216.68 308.5,214.5C 296.872,214.775 285.205,214.441 273.5,213.5C 275.833,212.833 278.167,212.167 280.5,211.5C 289.83,210.409 299.164,210.242 308.5,211C 297.79,209.485 287.457,206.652 277.5,202.5C 277.842,201.662 278.508,201.328 279.5,201.5C 289.787,202.773 299.787,204.939 309.5,208C 298.41,203.23 288.077,197.23 278.5,190C 277.304,189.346 277.304,188.846 278.5,188.5C 289.876,193.842 300.543,199.508 310.5,205.5C 300.899,196.731 291.733,187.398 283,177.5C 282.333,176.833 282.333,176.167 283,175.5C 291,182.833 299,190.167 307,197.5C 308.667,199.833 310.333,202.167 312,204.5C 312.667,203.5 312.667,202.5 312,201.5C 304.721,191.605 299.055,180.938 295,169.5C 302.434,180.034 309.1,191.034 315,202.5C 311.114,188.741 308.114,174.741 306,160.5C 310.623,174.03 314.623,187.697 318,201.5C 317.27,190.85 317.437,180.184 318.5,169.5 Z"/></g>
<g><path style="opacity:1" fill="#6257b3" d="M 279.5,201.5 C 278.508,201.328 277.842,201.662 277.5,202.5C 273.82,201.44 270.154,200.274 266.5,199C 270.993,199.34 275.327,200.173 279.5,201.5 Z"/></g>
<g><path style="opacity:1" fill="#5c56b2" d="M 320.5,169.5 C 319.833,169.5 319.167,169.5 318.5,169.5C 319.167,158.833 319.833,158.833 320.5,169.5 Z"/></g>
<g><path style="opacity:1" fill="#8a86c8" d="M 285.5,246.5 C 285.833,246.5 286.167,246.5 286.5,246.5C 285.521,248.145 284.188,249.479 282.5,250.5C 282.401,248.85 283.401,247.517 285.5,246.5 Z"/></g>
<g><path style="opacity:1" fill="#574cad" d="M 330.5,250.5 C 332.154,254.943 332.987,259.609 333,264.5C 331.726,260.846 330.56,257.18 329.5,253.5C 330.404,252.791 330.737,251.791 330.5,250.5 Z"/></g>
<g><path style="opacity:1" fill="#726bbd" d="M 295.5,254.5 C 295.205,256.423 294.372,258.09 293,259.5C 292.751,257.332 293.584,255.665 295.5,254.5 Z"/></g>
<g><path style="opacity:1" fill="#746dbd" d="M 343.5,254.5 C 345.416,255.665 346.249,257.332 346,259.5C 344.628,258.09 343.795,256.423 343.5,254.5 Z"/></g>
<g><path style="opacity:1" fill="#9390cd" d="M 318.5,257.5 C 319.167,257.5 319.833,257.5 320.5,257.5C 319.833,268.167 319.167,268.167 318.5,257.5 Z"/></g>
<g><path style="opacity:1" fill="#066a38" d="M -0.5,283.5 C 212.833,283.5 426.167,283.5 639.5,283.5C 639.5,331.167 639.5,378.833 639.5,426.5C 426.167,426.5 212.833,426.5 -0.5,426.5C -0.5,378.833 -0.5,331.167 -0.5,283.5 Z"/></g>
</svg>
