<?xml version="1.0" encoding="UTF-8"?>
<!DOCTYPE svg PUBLIC "-//W3C//DTD SVG 1.1//EN" "http://www.w3.org/Graphics/SVG/1.1/DTD/svg11.dtd">
<svg xmlns="http://www.w3.org/2000/svg" version="1.1" width="750px" height="500px" style="shape-rendering:geometricPrecision; text-rendering:geometricPrecision; image-rendering:optimizeQuality; fill-rule:evenodd; clip-rule:evenodd" xmlns:xlink="http://www.w3.org/1999/xlink">
<g><path style="opacity:1" fill="#ac1518" d="M -0.5,-0.5 C 249.5,-0.5 499.5,-0.5 749.5,-0.5C 749.5,41.1667 749.5,82.8333 749.5,124.5C 499.5,124.5 249.5,124.5 -0.5,124.5C -0.5,82.8333 -0.5,41.1667 -0.5,-0.5 Z"/></g>
<g><path style="opacity:1" fill="#f9bc00" d="M -0.5,124.5 C 249.5,124.5 499.5,124.5 749.5,124.5C 749.5,207.833 749.5,291.167 749.5,374.5C 499.5,374.5 249.5,374.5 -0.5,374.5C -0.5,291.167 -0.5,207.833 -0.5,124.5 Z"/></g>
<g><path style="opacity:1" fill="#957503" d="M 251.5,158.5 C 250.596,159.209 250.263,160.209 250.5,161.5C 251.5,161.5 252.5,161.5 253.5,161.5C 254.833,162.167 254.833,162.833 253.5,163.5C 250.615,163.194 247.948,163.527 245.5,164.5C 244.167,163.167 244.167,161.833 245.5,160.5C 246.209,161.404 247.209,161.737 248.5,161.5C 248.768,159.901 248.434,158.568 247.5,157.5C 247.374,155.8 246.707,154.3 245.5,153C 246.333,151.5 247.5,150.333 249,149.5C 250.3,150.707 251.8,151.374 253.5,151.5C 253.5,152.5 253.5,153.5 253.5,154.5C 252.5,154.5 251.5,154.5 250.5,154.5C 250.433,155.959 250.766,157.292 251.5,158.5 Z"/></g>
<g><path style="opacity:1" fill="#1f3d81" d="M 251.5,158.5 C 252.906,158.973 253.573,159.973 253.5,161.5C 252.5,161.5 251.5,161.5 250.5,161.5C 250.263,160.209 250.596,159.209 251.5,158.5 Z"/></g>
<g><path style="opacity:1" fill="#243e78" d="M 247.5,157.5 C 248.434,158.568 248.768,159.901 248.5,161.5C 247.209,161.737 246.209,161.404 245.5,160.5C 246.167,159.5 246.833,158.5 247.5,157.5 Z"/></g>
<g><path style="opacity:1" fill="#896c1f" d="M 245.5,164.5 C 245.833,164.5 246.167,164.5 246.5,164.5C 247.748,166.69 249.414,167.023 251.5,165.5C 251.833,165.5 252.167,165.5 252.5,165.5C 253.117,165.611 253.617,165.944 254,166.5C 256.333,163.833 258.667,163.833 261,166.5C 261.249,165.376 261.749,164.376 262.5,163.5C 264.733,163.864 266.566,164.864 268,166.5C 268.414,166.043 268.914,165.709 269.5,165.5C 272.916,167.381 275.083,169.714 276,172.5C 277.727,172.354 277.894,171.687 276.5,170.5C 278.5,169.167 280.5,169.167 282.5,170.5C 281.494,171.396 281.494,172.062 282.5,172.5C 283.885,168.622 285.051,168.622 286,172.5C 287.197,170.208 288.863,169.875 291,171.5C 295.973,173.632 299.473,177.132 301.5,182C 298.61,183.892 298.944,184.725 302.5,184.5C 302.917,187.079 302.25,189.246 300.5,191C 300.957,191.414 301.291,191.914 301.5,192.5C 299.465,194.111 298.798,195.944 299.5,198C 297.422,199.077 295.422,200.243 293.5,201.5C 291.824,200.817 291.157,199.483 291.5,197.5C 292.483,196.15 293.816,195.15 295.5,194.5C 293.591,192.304 292.925,189.97 293.5,187.5C 296.578,182.112 294.912,178.279 288.5,176C 284.886,175.064 281.22,174.564 277.5,174.5C 278.076,177.607 278.076,180.607 277.5,183.5C 275.913,185.214 274.579,187.214 273.5,189.5C 273.942,190.739 274.609,191.739 275.5,192.5C 274.685,193.429 273.852,194.429 273,195.5C 271.989,194.663 270.822,194.33 269.5,194.5C 271.469,190.622 272.135,186.622 271.5,182.5C 274.173,176.178 272.173,172.011 265.5,170C 261.739,169.262 258.072,169.595 254.5,171C 253.565,173.381 253.232,175.881 253.5,178.5C 253.312,182.726 252.979,186.726 252.5,190.5C 250.831,192.662 248.831,192.995 246.5,191.5C 245.187,187.59 244.52,183.257 244.5,178.5C 244.768,175.881 244.435,173.381 243.5,171C 238.343,168.832 233.343,169.165 228.5,172C 225.114,175.413 224.78,178.913 227.5,182.5C 228.254,185.078 228.254,187.744 227.5,190.5C 228.234,191.708 228.567,193.041 228.5,194.5C 226.708,194.634 225.042,194.301 223.5,193.5C 222.274,191.813 222.608,190.313 224.5,189C 224.105,186.752 223.105,184.918 221.5,183.5C 220.297,180.827 220.297,178.16 221.5,175.5C 214.777,173.973 208.944,175.64 204,180.5C 201.915,183.455 202.082,186.122 204.5,188.5C 204.326,190.861 203.993,193.194 203.5,195.5C 206.766,195.433 208.266,197.099 208,200.5C 210.071,196.879 212.571,196.546 215.5,199.5C 215.023,200.478 214.357,201.311 213.5,202C 213.833,202.333 214.167,202.667 214.5,203C 211.271,203.586 208.271,203.086 205.5,201.5C 203.704,200.206 201.704,199.206 199.5,198.5C 199.709,197.914 200.043,197.414 200.5,197C 197.636,194.989 197.302,192.822 199.5,190.5C 199.062,189.494 198.396,189.494 197.5,190.5C 196.062,188.002 196.396,185.836 198.5,184C 197.692,183.692 197.025,183.192 196.5,182.5C 197.729,181.719 199.062,181.219 200.5,181C 199.572,180.612 198.905,179.945 198.5,179C 199.787,176.568 201.62,174.735 204,173.5C 204.945,173.905 205.612,174.572 206,175.5C 206.23,171.787 207.397,171.12 209.5,173.5C 209.669,172.603 210.002,171.603 210.5,170.5C 211.167,171.167 211.833,171.833 212.5,172.5C 213.506,172.062 213.506,171.396 212.5,170.5C 214.396,169.534 216.396,169.201 218.5,169.5C 218.596,173.311 219.262,173.311 220.5,169.5C 221.167,170.5 221.833,171.5 222.5,172.5C 223.506,172.062 223.506,171.396 222.5,170.5C 223.515,169.319 224.681,168.319 226,167.5C 226.945,167.905 227.612,168.572 228,169.5C 228.219,168.062 228.719,166.729 229.5,165.5C 230.192,166.025 230.692,166.692 231,167.5C 231.582,164.332 232.582,163.999 234,166.5C 234.249,165.376 234.749,164.376 235.5,163.5C 236.833,164.833 238.167,164.833 239.5,163.5C 240.197,165.385 241.197,165.718 242.5,164.5C 243.514,169.788 244.514,169.788 245.5,164.5 Z"/></g>
<g><path style="opacity:1" fill="#f3b701" d="M 293.5,187.5 C 288.501,184.917 283.168,183.584 277.5,183.5C 278.076,180.607 278.076,177.607 277.5,174.5C 281.22,174.564 284.886,175.064 288.5,176C 294.912,178.279 296.578,182.112 293.5,187.5 Z"/></g>
<g><path style="opacity:1" fill="#f4b800" d="M 221.5,183.5 C 214.96,182.624 209.294,184.291 204.5,188.5C 202.082,186.122 201.915,183.455 204,180.5C 208.944,175.64 214.777,173.973 221.5,175.5C 220.297,178.16 220.297,180.827 221.5,183.5 Z"/></g>
<g><path style="opacity:1" fill="#f8bb00" d="M 271.5,182.5 C 265.633,180.544 259.633,179.21 253.5,178.5C 253.232,175.881 253.565,173.381 254.5,171C 258.072,169.595 261.739,169.262 265.5,170C 272.173,172.011 274.173,176.178 271.5,182.5 Z"/></g>
<g><path style="opacity:1" fill="#f8bb00" d="M 244.5,178.5 C 238.644,179.007 232.977,180.341 227.5,182.5C 224.78,178.913 225.114,175.413 228.5,172C 233.343,169.165 238.343,168.832 243.5,171C 244.435,173.381 244.768,175.881 244.5,178.5 Z"/></g>
<g><path style="opacity:1" fill="#0a419d" d="M 246.5,164.5 C 248.415,164.216 250.081,164.549 251.5,165.5C 249.414,167.023 247.748,166.69 246.5,164.5 Z"/></g>
<g><path style="opacity:1" fill="#2c4051" d="M 245.5,164.5 C 247.948,163.527 250.615,163.194 253.5,163.5C 253.167,164.167 252.833,164.833 252.5,165.5C 252.167,165.5 251.833,165.5 251.5,165.5C 250.081,164.549 248.415,164.216 246.5,164.5C 246.167,164.5 245.833,164.5 245.5,164.5 Z"/></g>
<g><path style="opacity:1" fill="#aa0a23" d="M 244.5,178.5 C 244.52,183.257 245.187,187.59 246.5,191.5C 246.5,191.833 246.5,192.167 246.5,192.5C 242.601,190.952 240.268,192.285 239.5,196.5C 241.124,196.36 242.29,197.027 243,198.5C 244.011,197.663 245.178,197.33 246.5,197.5C 247.404,198.209 247.737,199.209 247.5,200.5C 246.294,203.139 244.294,203.972 241.5,203C 240.134,201.4 239.134,199.567 238.5,197.5C 238.446,202.395 236.112,204.562 231.5,204C 230.619,203.292 229.953,202.458 229.5,201.5C 231.167,200.167 232.833,198.833 234.5,197.5C 235.307,195.285 234.307,193.951 231.5,193.5C 230.167,192.5 228.833,191.5 227.5,190.5C 228.254,187.744 228.254,185.078 227.5,182.5C 232.977,180.341 238.644,179.007 244.5,178.5 Z"/></g>
<g><path style="opacity:1" fill="#aa0e23" d="M 253.5,178.5 C 259.633,179.21 265.633,180.544 271.5,182.5C 272.135,186.622 271.469,190.622 269.5,194.5C 266.528,193.319 264.528,194.319 263.5,197.5C 262.883,197.611 262.383,197.944 262,198.5C 260.801,196.424 259.301,194.758 257.5,193.5C 257.167,193.5 256.833,193.5 256.5,193.5C 255.552,192.022 254.219,191.022 252.5,190.5C 252.979,186.726 253.312,182.726 253.5,178.5 Z"/></g>
<g><path style="opacity:1" fill="#e7e6e4" d="M 248.5,179.5 C 250.048,179.821 250.715,180.821 250.5,182.5C 247.752,182.598 247.086,181.598 248.5,179.5 Z"/></g>
<g><path style="opacity:1" fill="#a90e25" d="M 221.5,183.5 C 223.105,184.918 224.105,186.752 224.5,189C 222.608,190.313 222.274,191.813 223.5,193.5C 221.672,194.283 220.339,195.616 219.5,197.5C 218.957,197.56 218.624,197.893 218.5,198.5C 220.846,200.022 223.179,200.355 225.5,199.5C 226.404,200.209 226.737,201.209 226.5,202.5C 226.586,203.496 226.252,204.329 225.5,205C 223.101,205.711 220.768,205.544 218.5,204.5C 217.751,206.012 216.584,207.012 215,207.5C 212.41,205.727 209.577,204.727 206.5,204.5C 205.596,203.791 205.263,202.791 205.5,201.5C 208.271,203.086 211.271,203.586 214.5,203C 214.167,202.667 213.833,202.333 213.5,202C 214.357,201.311 215.023,200.478 215.5,199.5C 212.571,196.546 210.071,196.879 208,200.5C 208.266,197.099 206.766,195.433 203.5,195.5C 203.993,193.194 204.326,190.861 204.5,188.5C 209.294,184.291 214.96,182.624 221.5,183.5 Z"/></g>
<g><path style="opacity:1" fill="#ab0824" d="M 277.5,183.5 C 283.168,183.584 288.501,184.917 293.5,187.5C 292.925,189.97 293.591,192.304 295.5,194.5C 293.816,195.15 292.483,196.15 291.5,197.5C 290.833,197.833 290.167,198.167 289.5,198.5C 288.5,198.5 287.5,198.5 286.5,198.5C 284.169,198.498 282.169,199.331 280.5,201C 279.663,202.011 279.33,203.178 279.5,204.5C 278.726,205.147 277.726,205.48 276.5,205.5C 274.645,205.66 273.312,204.993 272.5,203.5C 272.232,201.901 272.566,200.568 273.5,199.5C 276.097,200.634 278.097,199.968 279.5,197.5C 278.265,195.694 276.931,194.027 275.5,192.5C 274.609,191.739 273.942,190.739 273.5,189.5C 274.579,187.214 275.913,185.214 277.5,183.5 Z"/></g>
<g><path style="opacity:1" fill="#8a6505" d="M 246.5,192.5 C 246.5,194.167 246.5,195.833 246.5,197.5C 245.178,197.33 244.011,197.663 243,198.5C 242.29,197.027 241.124,196.36 239.5,196.5C 240.268,192.285 242.601,190.952 246.5,192.5 Z"/></g>
<g><path style="opacity:1" fill="#947400" d="M 231.5,193.5 C 234.307,193.951 235.307,195.285 234.5,197.5C 232.958,198.301 231.292,198.634 229.5,198.5C 229.365,196.446 230.032,194.779 231.5,193.5 Z"/></g>
<g><path style="opacity:1" fill="#927002" d="M 225.5,199.5 C 223.179,200.355 220.846,200.022 218.5,198.5C 218.624,197.893 218.957,197.56 219.5,197.5C 222.649,194.479 224.649,195.146 225.5,199.5 Z"/></g>
<g><path style="opacity:1" fill="#967500" d="M 279.5,197.5 C 278.097,199.968 276.097,200.634 273.5,199.5C 273.33,198.178 273.663,197.011 274.5,196C 276.33,195.818 277.997,196.318 279.5,197.5 Z"/></g>
<g><path style="opacity:1" fill="#8d1b1d" d="M 252.5,190.5 C 254.219,191.022 255.552,192.022 256.5,193.5C 253.013,191.707 251.513,192.707 252,196.5C 254.444,197.694 256.611,197.194 258.5,195C 257.944,194.617 257.611,194.117 257.5,193.5C 259.301,194.758 260.801,196.424 262,198.5C 262.383,197.944 262.883,197.611 263.5,197.5C 265.435,198.15 267.435,198.483 269.5,198.5C 269.5,197.167 269.5,195.833 269.5,194.5C 270.822,194.33 271.989,194.663 273,195.5C 273.852,194.429 274.685,193.429 275.5,192.5C 276.931,194.027 278.265,195.694 279.5,197.5C 277.997,196.318 276.33,195.818 274.5,196C 273.663,197.011 273.33,198.178 273.5,199.5C 272.566,200.568 272.232,201.901 272.5,203.5C 271.71,202.391 271.21,201.058 271,199.5C 267.763,205.734 264.096,206.067 260,200.5C 254.933,205.119 251.433,204.119 249.5,197.5C 248.824,198.602 248.158,199.602 247.5,200.5C 247.737,199.209 247.404,198.209 246.5,197.5C 246.5,195.833 246.5,194.167 246.5,192.5C 246.5,192.167 246.5,191.833 246.5,191.5C 248.831,192.995 250.831,192.662 252.5,190.5 Z"/></g>
<g><path style="opacity:1" fill="#927101" d="M 269.5,194.5 C 269.5,195.833 269.5,197.167 269.5,198.5C 267.435,198.483 265.435,198.15 263.5,197.5C 264.528,194.319 266.528,193.319 269.5,194.5 Z"/></g>
<g><path style="opacity:1" fill="#9b7b00" d="M 256.5,193.5 C 256.833,193.5 257.167,193.5 257.5,193.5C 257.611,194.117 257.944,194.617 258.5,195C 256.611,197.194 254.444,197.694 252,196.5C 251.513,192.707 253.013,191.707 256.5,193.5 Z"/></g>
<g><path style="opacity:1" fill="#6d1e12" d="M 227.5,190.5 C 228.833,191.5 230.167,192.5 231.5,193.5C 230.032,194.779 229.365,196.446 229.5,198.5C 231.292,198.634 232.958,198.301 234.5,197.5C 232.833,198.833 231.167,200.167 229.5,201.5C 228.778,201.082 228.278,200.416 228,199.5C 227.768,200.737 227.268,201.737 226.5,202.5C 226.737,201.209 226.404,200.209 225.5,199.5C 224.649,195.146 222.649,194.479 219.5,197.5C 220.339,195.616 221.672,194.283 223.5,193.5C 225.042,194.301 226.708,194.634 228.5,194.5C 228.567,193.041 228.234,191.708 227.5,190.5 Z"/></g>
<g><path style="opacity:1" fill="#8f2826" d="M 291.5,197.5 C 291.157,199.483 291.824,200.817 293.5,201.5C 293.167,203.833 291.833,205.167 289.5,205.5C 289.44,204.957 289.107,204.624 288.5,204.5C 287.126,205.711 285.626,206.711 284,207.5C 282.493,206.445 280.993,205.445 279.5,204.5C 279.33,203.178 279.663,202.011 280.5,201C 282.169,199.331 284.169,198.498 286.5,198.5C 285.737,199.268 284.737,199.768 283.5,200C 284.337,201.011 284.67,202.178 284.5,203.5C 289.42,204.585 291.087,202.918 289.5,198.5C 290.167,198.167 290.833,197.833 291.5,197.5 Z"/></g>
<g><path style="opacity:1" fill="#8b6902" d="M 286.5,198.5 C 287.5,198.5 288.5,198.5 289.5,198.5C 291.087,202.918 289.42,204.585 284.5,203.5C 284.67,202.178 284.337,201.011 283.5,200C 284.737,199.768 285.737,199.268 286.5,198.5 Z"/></g>
<g><path style="opacity:1" fill="#896a06" d="M 247.5,200.5 C 248.158,199.602 248.824,198.602 249.5,197.5C 251.433,204.119 254.933,205.119 260,200.5C 264.096,206.067 267.763,205.734 271,199.5C 271.21,201.058 271.71,202.391 272.5,203.5C 273.312,204.993 274.645,205.66 276.5,205.5C 277.726,205.48 278.726,205.147 279.5,204.5C 280.993,205.445 282.493,206.445 284,207.5C 285.626,206.711 287.126,205.711 288.5,204.5C 289.107,204.624 289.44,204.957 289.5,205.5C 289.631,206.239 289.464,206.906 289,207.5C 283.396,209.986 280.229,214.319 279.5,220.5C 277.885,221.154 276.218,221.654 274.5,222C 282.677,222.171 290.677,222.671 298.5,223.5C 288.833,223.5 279.167,223.5 269.5,223.5C 267.833,222.833 266.167,222.167 264.5,221.5C 268.125,220.671 271.792,219.838 275.5,219C 271.435,218.269 267.435,217.435 263.5,216.5C 265.631,215.686 267.964,215.186 270.5,215C 268.833,214.667 267.167,214.333 265.5,214C 266.448,213.517 267.448,213.351 268.5,213.5C 268.67,212.178 268.337,211.011 267.5,210C 273.837,209.163 273.503,208.497 266.5,208C 253.125,207.119 239.791,207.452 226.5,209C 228.167,209.333 229.833,209.667 231.5,210C 230.692,210.308 230.025,210.808 229.5,211.5C 231.743,212.474 234.076,212.808 236.5,212.5C 236.5,211.5 236.5,210.5 236.5,209.5C 237.51,208.172 240.51,208.172 245.5,209.5C 246.334,210.748 247.667,211.415 249.5,211.5C 251.333,211.415 252.666,210.748 253.5,209.5C 258.49,208.172 261.49,208.172 262.5,209.5C 262.36,211.124 263.027,212.29 264.5,213C 254.833,213.333 245.167,213.667 235.5,214C 244.5,214.333 253.5,214.667 262.5,215C 253.99,215.171 245.657,215.671 237.5,216.5C 232.016,216.364 226.682,217.197 221.5,219C 225.465,220.066 229.465,220.899 233.5,221.5C 232.167,222.167 230.833,222.833 229.5,223.5C 220.167,223.5 210.833,223.5 201.5,223.5C 201.167,223.5 200.833,223.5 200.5,223.5C 207.989,222.671 215.656,222.171 223.5,222C 222.128,221.598 220.795,221.098 219.5,220.5C 218.747,217.727 217.747,215.06 216.5,212.5C 212.865,210.198 209.532,207.531 206.5,204.5C 209.577,204.727 212.41,205.727 215,207.5C 216.584,207.012 217.751,206.012 218.5,204.5C 220.768,205.544 223.101,205.711 225.5,205C 226.252,204.329 226.586,203.496 226.5,202.5C 227.268,201.737 227.768,200.737 228,199.5C 228.278,200.416 228.778,201.082 229.5,201.5C 229.953,202.458 230.619,203.292 231.5,204C 236.112,204.562 238.446,202.395 238.5,197.5C 239.134,199.567 240.134,201.4 241.5,203C 244.294,203.972 246.294,203.139 247.5,200.5 Z"/></g>
<g><path style="opacity:1" fill="#68260f" d="M 248.5,202.5 C 250.392,203.851 252.558,204.518 255,204.5C 259.759,204.926 264.593,204.926 269.5,204.5C 271.167,205.333 272.833,206.167 274.5,207C 265.868,206.469 257.201,205.969 248.5,205.5C 241.268,205.488 234.101,206.154 227,207.5C 226.167,207.333 225.333,207.167 224.5,207C 226.303,206.363 227.636,205.197 228.5,203.5C 231.965,206.122 235.465,206.122 239,203.5C 241.737,204.61 244.571,204.777 247.5,204C 248.056,203.617 248.389,203.117 248.5,202.5 Z"/></g>
<g><path style="opacity:1" fill="#aa0c24" d="M 168.5,213.5 C 171.838,214.193 172.338,215.86 170,218.5C 168.989,217.663 167.822,217.33 166.5,217.5C 166.157,215.517 166.824,214.183 168.5,213.5 Z"/></g>
<g><path style="opacity:1" fill="#9c7617" d="M 332.5,218.5 C 332.737,217.209 332.404,216.209 331.5,215.5C 328.054,213.828 324.887,214.161 322,216.5C 319.503,214.522 316.669,214.022 313.5,215C 312.027,215.71 311.36,216.876 311.5,218.5C 310.193,216.777 310.193,214.943 311.5,213C 314.478,212.304 317.478,211.804 320.5,211.5C 321.066,207.194 321.732,206.861 322.5,210.5C 325.906,211.886 329.239,212.72 332.5,213C 333.807,214.943 333.807,216.777 332.5,218.5 Z"/></g>
<g><path style="opacity:1" fill="#5b4808" d="M 263.5,216.5 C 256.5,216.5 249.5,216.5 242.5,216.5C 240.833,216.5 239.167,216.5 237.5,216.5C 245.657,215.671 253.99,215.171 262.5,215C 253.5,214.667 244.5,214.333 235.5,214C 245.167,213.667 254.833,213.333 264.5,213C 263.027,212.29 262.36,211.124 262.5,209.5C 261.49,208.172 258.49,208.172 253.5,209.5C 250.833,209.5 248.167,209.5 245.5,209.5C 240.51,208.172 237.51,208.172 236.5,209.5C 236.5,210.5 236.5,211.5 236.5,212.5C 234.076,212.808 231.743,212.474 229.5,211.5C 230.025,210.808 230.692,210.308 231.5,210C 229.833,209.667 228.167,209.333 226.5,209C 239.791,207.452 253.125,207.119 266.5,208C 273.503,208.497 273.837,209.163 267.5,210C 268.337,211.011 268.67,212.178 268.5,213.5C 267.448,213.351 266.448,213.517 265.5,214C 267.167,214.333 268.833,214.667 270.5,215C 267.964,215.186 265.631,215.686 263.5,216.5 Z"/></g>
<g><path style="opacity:1" fill="#9a0120" d="M 245.5,209.5 C 248.167,209.5 250.833,209.5 253.5,209.5C 252.666,210.748 251.333,211.415 249.5,211.5C 247.667,211.415 246.334,210.748 245.5,209.5 Z"/></g>
<g><path style="opacity:1" fill="#8f251a" d="M 186.5,213.5 C 187.338,213.842 187.672,214.508 187.5,215.5C 186.066,219.566 184.066,220.066 181.5,217C 182.489,214.842 184.156,213.675 186.5,213.5 Z"/></g>
<g><path style="opacity:1" fill="#420a0e" d="M 237.5,216.5 C 239.167,216.5 240.833,216.5 242.5,216.5C 242.5,218.167 242.5,219.833 242.5,221.5C 244.735,221.205 246.735,221.539 248.5,222.5C 243.473,222.497 238.473,222.164 233.5,221.5C 229.465,220.899 225.465,220.066 221.5,219C 226.682,217.197 232.016,216.364 237.5,216.5 Z"/></g>
<g><path style="opacity:1" fill="#a70123" d="M 242.5,216.5 C 249.5,216.5 256.5,216.5 263.5,216.5C 267.435,217.435 271.435,218.269 275.5,219C 271.792,219.838 268.125,220.671 264.5,221.5C 259.178,221.98 253.845,222.313 248.5,222.5C 246.735,221.539 244.735,221.205 242.5,221.5C 242.5,219.833 242.5,218.167 242.5,216.5 Z"/></g>
<g><path style="opacity:1" fill="#8b251a" d="M 331.5,215.5 C 329.415,219.802 326.249,220.469 322,217.5C 318.947,218.535 316.113,219.201 313.5,219.5C 312.508,219.672 311.842,219.338 311.5,218.5C 311.36,216.876 312.027,215.71 313.5,215C 316.669,214.022 319.503,214.522 322,216.5C 324.887,214.161 328.054,213.828 331.5,215.5 Z"/></g>
<g><path style="opacity:1" fill="#6e5207" d="M 178.5,211.5 C 178.558,217.559 179.891,217.559 182.5,211.5C 184.38,211.229 185.713,211.896 186.5,213.5C 184.156,213.675 182.489,214.842 181.5,217C 184.066,220.066 186.066,219.566 187.5,215.5C 188.097,215.735 188.43,216.235 188.5,217C 186.477,219.175 185.143,221.675 184.5,224.5C 185.833,224.5 187.167,224.5 188.5,224.5C 188.5,226.5 188.5,228.5 188.5,230.5C 187.549,229.081 187.216,227.415 187.5,225.5C 180.313,225.825 173.313,225.491 166.5,224.5C 167.978,224.762 169.311,224.429 170.5,223.5C 169.533,221.21 168.2,219.21 166.5,217.5C 167.822,217.33 168.989,217.663 170,218.5C 172.338,215.86 171.838,214.193 168.5,213.5C 168.973,212.094 169.973,211.427 171.5,211.5C 172.81,213.148 174.143,214.814 175.5,216.5C 176.452,214.955 176.785,213.288 176.5,211.5C 175.491,210.061 175.824,208.728 177.5,207.5C 178.429,208.689 178.762,210.022 178.5,211.5 Z"/></g>
<g><path style="opacity:1" fill="#95171b" d="M 171.5,211.5 C 173.167,211.5 174.833,211.5 176.5,211.5C 176.785,213.288 176.452,214.955 175.5,216.5C 174.143,214.814 172.81,213.148 171.5,211.5 Z"/></g>
<g><path style="opacity:1" fill="#a10a20" d="M 178.5,211.5 C 179.833,211.5 181.167,211.5 182.5,211.5C 179.891,217.559 178.558,217.559 178.5,211.5 Z"/></g>
<g><path style="opacity:1" fill="#473601" d="M 233.5,221.5 C 238.473,222.164 243.473,222.497 248.5,222.5C 253.845,222.313 259.178,221.98 264.5,221.5C 266.167,222.167 267.833,222.833 269.5,223.5C 262.833,223.5 256.167,223.5 249.5,223.5C 242.833,223.5 236.167,223.5 229.5,223.5C 230.833,222.833 232.167,222.167 233.5,221.5 Z"/></g>
<g><path style="opacity:1" fill="#791814" d="M 171.5,222.5 C 175.226,222.177 178.893,222.511 182.5,223.5C 180.667,223.833 178.833,224.167 177,224.5C 174.705,224.453 172.871,223.787 171.5,222.5 Z"/></g>
<g><path style="opacity:1" fill="#100601" d="M 200.5,223.5 C 200.833,223.5 201.167,223.5 201.5,223.5C 201.5,223.833 201.5,224.167 201.5,224.5C 201.5,243.5 201.5,262.5 201.5,281.5C 201.5,281.833 201.5,282.167 201.5,282.5C 201.5,282.833 201.5,283.167 201.5,283.5C 201.236,297.863 201.569,312.196 202.5,326.5C 201.732,325.737 201.232,324.737 201,323.5C 200.5,305.17 200.333,286.836 200.5,268.5C 200.5,264.833 200.5,261.167 200.5,257.5C 200.5,246.167 200.5,234.833 200.5,223.5 Z"/></g>
<g><path style="opacity:1" fill="#b20026" d="M 201.5,224.5 C 217.167,224.5 232.833,224.5 248.5,224.5C 248.5,237.167 248.5,249.833 248.5,262.5C 247.448,262.351 246.448,262.517 245.5,263C 248.146,263.497 250.813,263.664 253.5,263.5C 259.235,265.57 262.902,269.57 264.5,275.5C 264.9,281.654 264.233,287.654 262.5,293.5C 261.876,293.917 261.543,294.584 261.5,295.5C 262,297.5 262.5,299.5 263,301.5C 265.573,302.806 267.906,304.473 270,306.5C 270.688,307.332 270.521,307.998 269.5,308.5C 266.718,305.915 263.885,305.915 261,308.5C 258.836,308.334 257.669,307.167 257.5,305C 258.955,302.637 259.455,300.137 259,297.5C 258.092,299.439 256.592,300.439 254.5,300.5C 249.899,300.945 245.565,300.278 241.5,298.5C 240.833,297.167 239.833,296.167 238.5,295.5C 235.835,293.165 234.502,290.165 234.5,286.5C 234.395,282.452 234.728,278.452 235.5,274.5C 235.654,272.03 236.654,270.03 238.5,268.5C 239.289,268.217 239.956,267.717 240.5,267C 239.207,266.51 237.873,266.343 236.5,266.5C 236.221,261.405 236.555,256.405 237.5,251.5C 237.5,249.167 237.5,246.833 237.5,244.5C 236.791,243.596 235.791,243.263 234.5,243.5C 234.955,241.633 235.622,239.8 236.5,238C 236.167,237.167 235.833,236.333 235.5,235.5C 233.674,235.92 231.674,235.92 229.5,235.5C 229.785,233.712 229.452,232.045 228.5,230.5C 226.345,230.838 224.011,230.838 221.5,230.5C 220.833,232.5 220.167,234.5 219.5,236.5C 217.881,235.928 216.215,235.595 214.5,235.5C 214.167,236.333 213.833,237.167 213.5,238C 213.684,239.376 214.351,240.209 215.5,240.5C 215.5,241.5 215.5,242.5 215.5,243.5C 214.5,243.5 213.5,243.5 212.5,243.5C 213.635,251.117 214.302,258.783 214.5,266.5C 213.167,266.5 211.833,266.5 210.5,266.5C 210.5,269.5 210.5,272.5 210.5,275.5C 213.5,275.5 216.5,275.5 219.5,275.5C 220.5,275.5 221.5,275.5 222.5,275.5C 224.167,275.5 225.833,275.5 227.5,275.5C 229.833,275.5 232.167,275.5 234.5,275.5C 233.659,277.379 233.325,279.379 233.5,281.5C 222.833,281.5 212.167,281.5 201.5,281.5C 201.5,262.5 201.5,243.5 201.5,224.5 Z"/></g>
<g><path style="opacity:1" fill="#520414" d="M 201.5,224.5 C 201.5,224.167 201.5,223.833 201.5,223.5C 210.833,223.5 220.167,223.5 229.5,223.5C 236.167,223.5 242.833,223.5 249.5,223.5C 249.5,223.833 249.5,224.167 249.5,224.5C 249.5,237.167 249.5,249.833 249.5,262.5C 251.099,262.232 252.432,262.566 253.5,263.5C 250.813,263.664 248.146,263.497 245.5,263C 246.448,262.517 247.448,262.351 248.5,262.5C 248.5,249.833 248.5,237.167 248.5,224.5C 232.833,224.5 217.167,224.5 201.5,224.5 Z"/></g>
<g><path style="opacity:1" fill="#acaaab" d="M 249.5,224.5 C 265.5,224.5 281.5,224.5 297.5,224.5C 297.5,243.833 297.5,263.167 297.5,282.5C 286.833,282.5 276.167,282.5 265.5,282.5C 265.802,279.941 265.468,277.607 264.5,275.5C 262.902,269.57 259.235,265.57 253.5,263.5C 252.432,262.566 251.099,262.232 249.5,262.5C 249.5,249.833 249.5,237.167 249.5,224.5 Z"/></g>
<g><path style="opacity:1" fill="#241e1a" d="M 249.5,224.5 C 249.5,224.167 249.5,223.833 249.5,223.5C 256.167,223.5 262.833,223.5 269.5,223.5C 279.167,223.5 288.833,223.5 298.5,223.5C 298.5,234.833 298.5,246.167 298.5,257.5C 298.5,261.167 298.5,264.833 298.5,268.5C 298.667,287.17 298.5,305.836 298,324.5C 297.626,326.491 296.793,328.158 295.5,329.5C 295.687,327.436 296.187,325.436 297,323.5C 297.5,310.171 297.667,296.837 297.5,283.5C 297.5,283.167 297.5,282.833 297.5,282.5C 297.5,263.167 297.5,243.833 297.5,224.5C 281.5,224.5 265.5,224.5 249.5,224.5 Z"/></g>
<g><path style="opacity:1" fill="#735809" d="M 331.5,215.5 C 332.404,216.209 332.737,217.209 332.5,218.5C 327.877,221.457 327.877,223.457 332.5,224.5C 325.687,225.491 318.687,225.825 311.5,225.5C 311.5,227.167 311.5,228.833 311.5,230.5C 318.354,230.176 325.021,230.509 331.5,231.5C 330.833,231.5 330.5,231.833 330.5,232.5C 309.167,233.167 309.167,233.833 330.5,234.5C 330.583,242.252 330.583,250.252 330.5,258.5C 330.167,258.5 329.833,258.5 329.5,258.5C 329.5,251.5 329.5,244.5 329.5,237.5C 324.5,237.5 319.5,237.5 314.5,237.5C 314.5,243.5 314.5,249.5 314.5,255.5C 316.099,255.232 317.432,255.566 318.5,256.5C 316.585,256.784 314.919,256.451 313.5,255.5C 313.382,248.046 313.382,240.712 313.5,233.5C 311.041,231.073 310.041,228.073 310.5,224.5C 312.288,224.785 313.955,224.452 315.5,223.5C 314.37,222.378 313.703,221.044 313.5,219.5C 316.113,219.201 318.947,218.535 322,217.5C 326.249,220.469 329.415,219.802 331.5,215.5 Z"/></g>
<g><path style="opacity:1" fill="#9e7d00" d="M 166.5,224.5 C 173.313,225.491 180.313,225.825 187.5,225.5C 187.216,227.415 187.549,229.081 188.5,230.5C 188.158,231.338 187.492,231.672 186.5,231.5C 180.167,230.167 173.833,230.167 167.5,231.5C 166.007,230.688 165.34,229.355 165.5,227.5C 165.52,226.274 165.853,225.274 166.5,224.5 Z"/></g>
<g><path style="opacity:1" fill="#9e7d00" d="M 332.5,224.5 C 333.147,225.274 333.48,226.274 333.5,227.5C 333.66,229.355 332.993,230.688 331.5,231.5C 325.021,230.509 318.354,230.176 311.5,230.5C 311.5,228.833 311.5,227.167 311.5,225.5C 318.687,225.825 325.687,225.491 332.5,224.5 Z"/></g>
<g><path style="opacity:1" fill="#5d4800" d="M 167.5,231.5 C 173.833,230.167 180.167,230.167 186.5,231.5C 185.983,233.274 185.65,234.941 185.5,236.5C 179.833,235.833 174.167,235.167 168.5,234.5C 168.833,234.5 169.167,234.5 169.5,234.5C 189.5,233.833 189.5,233.167 169.5,232.5C 168.833,232.167 168.167,231.833 167.5,231.5 Z"/></g>
<g><path style="opacity:1" fill="#9d7c00" d="M 169.5,232.5 C 189.5,233.167 189.5,233.833 169.5,234.5C 169.5,233.833 169.5,233.167 169.5,232.5 Z"/></g>
<g><path style="opacity:1" fill="#9f7d00" d="M 330.5,232.5 C 330.5,233.167 330.5,233.833 330.5,234.5C 309.167,233.833 309.167,233.167 330.5,232.5 Z"/></g>
<g><path style="opacity:1" fill="#7f6931" d="M 281.5,236.5 C 279.833,235.167 278.167,233.833 276.5,232.5C 276.08,228.204 277.747,227.537 281.5,230.5C 283.291,232.021 284.624,233.854 285.5,236C 284.207,236.49 282.873,236.657 281.5,236.5 Z"/></g>
<g><path style="opacity:1" fill="#8f7118" d="M 168.5,234.5 C 174.167,235.167 179.833,235.833 185.5,236.5C 185.5,242.833 185.5,249.167 185.5,255.5C 184.51,249.69 184.177,243.69 184.5,237.5C 179.5,237.5 174.5,237.5 169.5,237.5C 169.5,244.5 169.5,251.5 169.5,258.5C 169.167,258.5 168.833,258.5 168.5,258.5C 168.417,250.252 168.417,242.252 168.5,234.5 Z"/></g>
<g><path style="opacity:1" fill="#62220e" d="M 221.5,230.5 C 221.365,232.554 222.032,234.221 223.5,235.5C 223.5,238.5 223.5,241.5 223.5,244.5C 222.5,244.5 221.5,244.5 220.5,244.5C 220.433,242.599 220.767,240.766 221.5,239C 220.944,237.989 220.278,237.156 219.5,236.5C 220.167,234.5 220.833,232.5 221.5,230.5 Z"/></g>
<g><path style="opacity:1" fill="#a7a7a7" d="M 185.5,255.5 C 185.5,255.833 185.5,256.167 185.5,256.5C 183.167,256.5 180.833,256.5 178.5,256.5C 175.303,256.405 172.303,257.072 169.5,258.5C 169.5,251.5 169.5,244.5 169.5,237.5C 174.5,237.5 179.5,237.5 184.5,237.5C 184.177,243.69 184.51,249.69 185.5,255.5 Z"/></g>
<g><path style="opacity:1" fill="#a6a6a6" d="M 329.5,258.5 C 326.002,257.083 322.335,256.417 318.5,256.5C 317.432,255.566 316.099,255.232 314.5,255.5C 314.5,249.5 314.5,243.5 314.5,237.5C 319.5,237.5 324.5,237.5 329.5,237.5C 329.5,244.5 329.5,251.5 329.5,258.5 Z"/></g>
<g><path style="opacity:1" fill="#613f06" d="M 221.5,230.5 C 224.011,230.838 226.345,230.838 228.5,230.5C 229.452,232.045 229.785,233.712 229.5,235.5C 231.674,235.92 233.674,235.92 235.5,235.5C 235.833,236.333 236.167,237.167 236.5,238C 235.622,239.8 234.955,241.633 234.5,243.5C 235.791,243.263 236.791,243.596 237.5,244.5C 236.167,244.5 234.833,244.5 233.5,244.5C 233.5,243.5 233.5,242.5 233.5,241.5C 232.5,241.5 231.5,241.5 230.5,241.5C 230.5,242.5 230.5,243.5 230.5,244.5C 229.5,244.5 228.5,244.5 227.5,244.5C 226.118,244.683 225.785,241.683 226.5,235.5C 225.5,235.5 224.5,235.5 223.5,235.5C 222.032,234.221 221.365,232.554 221.5,230.5 Z"/></g>
<g><path style="opacity:1" fill="#7c6100" d="M 219.5,236.5 C 220.278,237.156 220.944,237.989 221.5,239C 220.767,240.766 220.433,242.599 220.5,244.5C 221.5,244.5 222.5,244.5 223.5,244.5C 223.5,241.5 223.5,238.5 223.5,235.5C 224.5,235.5 225.5,235.5 226.5,235.5C 225.785,241.683 226.118,244.683 227.5,244.5C 228.5,244.5 229.5,244.5 230.5,244.5C 230.5,243.5 230.5,242.5 230.5,241.5C 231.5,241.5 232.5,241.5 233.5,241.5C 233.5,242.5 233.5,243.5 233.5,244.5C 234.833,244.5 236.167,244.5 237.5,244.5C 237.5,246.833 237.5,249.167 237.5,251.5C 229.5,251.5 221.5,251.5 213.5,251.5C 213.5,249.167 213.5,246.833 213.5,244.5C 214.5,244.5 215.5,244.5 216.5,244.5C 216.768,242.901 216.434,241.568 215.5,240.5C 214.351,240.209 213.684,239.376 213.5,238C 213.833,237.167 214.167,236.333 214.5,235.5C 216.215,235.595 217.881,235.928 219.5,236.5 Z"/></g>
<g><path style="opacity:1" fill="#c05498" d="M 276.5,232.5 C 278.167,233.833 279.833,235.167 281.5,236.5C 280.276,239.485 280.609,242.151 282.5,244.5C 282,245.5 281.5,246.5 281,247.5C 280.667,247.167 280.333,246.833 280,246.5C 277.541,253.107 279.708,256.607 286.5,257C 287.081,256.107 287.415,255.107 287.5,254C 284.748,247.003 284.915,240.17 288,233.5C 288.741,234.641 289.575,234.641 290.5,233.5C 290.833,234.333 291.167,235.167 291.5,236C 289.862,239.094 288.528,242.261 287.5,245.5C 288.972,249.402 289.472,253.402 289,257.5C 287.559,258.87 285.892,259.87 284,260.5C 283.222,263.275 283.722,265.775 285.5,268C 284.955,271.187 284.289,274.354 283.5,277.5C 282.749,276.624 282.249,275.624 282,274.5C 281.601,274.728 281.435,275.062 281.5,275.5C 280.986,274.375 280.653,273.209 280.5,272C 282.158,271.275 282.658,270.108 282,268.5C 280.855,267.316 279.688,267.316 278.5,268.5C 277.699,266.958 277.366,265.292 277.5,263.5C 276.5,263.5 275.5,263.5 274.5,263.5C 274.833,265.5 275.167,267.5 275.5,269.5C 272.348,269.047 269.848,270.047 268,272.5C 267.51,271.207 267.343,269.873 267.5,268.5C 262.579,268.865 262.245,267.865 266.5,265.5C 266.291,264.914 265.957,264.414 265.5,264C 267.73,264.78 270.063,265.613 272.5,266.5C 271.361,263.996 270.694,261.33 270.5,258.5C 272.527,258.662 274.527,258.495 276.5,258C 274.04,256.542 271.873,254.709 270,252.5C 267.882,255.202 265.382,255.869 262.5,254.5C 262.762,255.978 262.429,257.311 261.5,258.5C 260.614,257.675 260.281,256.675 260.5,255.5C 256.544,254.947 256.544,254.114 260.5,253C 256.905,250.413 257.572,249.913 262.5,251.5C 264.208,251.297 265.541,250.464 266.5,249C 263.967,247.967 262.301,246.133 261.5,243.5C 259.5,242.833 257.5,242.167 255.5,241.5C 256.09,240.201 257.09,239.368 258.5,239C 257.672,238.085 256.672,237.419 255.5,237C 257.137,235.049 258.637,235.216 260,237.5C 260.219,236.062 260.719,234.729 261.5,233.5C 260.594,239.124 263.094,242.457 269,243.5C 270.699,243.613 271.866,242.947 272.5,241.5C 273.355,240.469 274.022,239.303 274.5,238C 274.164,236.97 273.497,236.47 272.5,236.5C 271.596,235.791 271.263,234.791 271.5,233.5C 273.292,233.634 274.958,233.301 276.5,232.5 Z"/></g>
<g><path style="opacity:1" fill="#8b3e4d" d="M 272.5,236.5 C 273.497,236.47 274.164,236.97 274.5,238C 274.022,239.303 273.355,240.469 272.5,241.5C 270.396,239.901 268.396,238.068 266.5,236C 268.464,235.376 270.131,235.876 271.5,237.5C 272.107,237.376 272.44,237.043 272.5,236.5 Z"/></g>
<g><path style="opacity:1" fill="#4d2a05" d="M 215.5,240.5 C 216.434,241.568 216.768,242.901 216.5,244.5C 215.5,244.5 214.5,244.5 213.5,244.5C 213.5,246.833 213.5,249.167 213.5,251.5C 221.5,251.5 229.5,251.5 237.5,251.5C 236.555,256.405 236.221,261.405 236.5,266.5C 237.873,266.343 239.207,266.51 240.5,267C 239.956,267.717 239.289,268.217 238.5,268.5C 237.791,267.596 236.791,267.263 235.5,267.5C 235.5,262.5 235.5,257.5 235.5,252.5C 228.833,252.5 222.167,252.5 215.5,252.5C 215.5,257.5 215.5,262.5 215.5,267.5C 214.167,267.5 212.833,267.5 211.5,267.5C 211.5,269.833 211.5,272.167 211.5,274.5C 214.385,274.194 217.052,274.527 219.5,275.5C 216.5,275.5 213.5,275.5 210.5,275.5C 210.5,272.5 210.5,269.5 210.5,266.5C 211.833,266.5 213.167,266.5 214.5,266.5C 214.302,258.783 213.635,251.117 212.5,243.5C 213.5,243.5 214.5,243.5 215.5,243.5C 215.5,242.5 215.5,241.5 215.5,240.5 Z"/></g>
<g><path style="opacity:1" fill="#aa1422" d="M 178.5,256.5 C 180.833,256.5 183.167,256.5 185.5,256.5C 190.547,256.337 195.547,256.671 200.5,257.5C 200.5,261.167 200.5,264.833 200.5,268.5C 197.061,268.212 193.728,267.546 190.5,266.5C 190.5,265.833 190.5,265.167 190.5,264.5C 185.812,265.698 180.812,265.698 175.5,264.5C 175.007,262.194 174.674,259.861 174.5,257.5C 176.099,257.768 177.432,257.434 178.5,256.5 Z"/></g>
<g><path style="opacity:1" fill="#942d1d" d="M 178.5,256.5 C 177.432,257.434 176.099,257.768 174.5,257.5C 174.674,259.861 175.007,262.194 175.5,264.5C 180.812,265.698 185.812,265.698 190.5,264.5C 190.5,265.167 190.5,265.833 190.5,266.5C 188.833,266.5 187.167,266.5 185.5,266.5C 180.333,266.09 175.333,266.757 170.5,268.5C 169.511,272.107 169.177,275.774 169.5,279.5C 167.585,279.784 165.919,279.451 164.5,278.5C 165.833,278.5 167.167,278.5 168.5,278.5C 168.5,276.167 168.5,273.833 168.5,271.5C 162.093,272.674 162.093,271.841 168.5,269C 167.601,266.808 166.601,264.642 165.5,262.5C 166.981,261.056 166.648,260.389 164.5,260.5C 165.671,259.655 167.005,258.989 168.5,258.5C 168.833,258.5 169.167,258.5 169.5,258.5C 172.303,257.072 175.303,256.405 178.5,256.5 Z"/></g>
<g><path style="opacity:1" fill="#a01c20" d="M 313.5,255.5 C 314.919,256.451 316.585,256.784 318.5,256.5C 322.335,256.417 326.002,257.083 329.5,258.5C 329.833,258.5 330.167,258.5 330.5,258.5C 335.521,259.699 339.188,262.533 341.5,267C 339.862,270.442 338.362,273.942 337,277.5C 336.329,278.252 335.496,278.586 334.5,278.5C 333.167,278.5 331.833,278.5 330.5,278.5C 330.5,276.167 330.5,273.833 330.5,271.5C 332.144,271.714 333.644,271.38 335,270.5C 335.667,268.167 335.667,265.833 335,263.5C 334.682,265.061 333.849,266.228 332.5,267C 333.517,268.049 333.684,269.216 333,270.5C 331.989,269.663 330.822,269.33 329.5,269.5C 324.392,267.479 319.058,266.479 313.5,266.5C 308.391,266.43 303.391,267.097 298.5,268.5C 298.5,264.833 298.5,261.167 298.5,257.5C 303.452,256.508 308.452,255.842 313.5,255.5 Z"/></g>
<g><path style="opacity:1" fill="#906404" d="M 318.5,258.5 C 319.873,258.343 321.207,258.51 322.5,259C 320.462,260.236 319.295,262.069 319,264.5C 318.505,262.527 318.338,260.527 318.5,258.5 Z"/></g>
<g><path style="opacity:1" fill="#806600" d="M 238.5,268.5 C 236.654,270.03 235.654,272.03 235.5,274.5C 234.833,274.5 234.5,274.833 234.5,275.5C 232.167,275.5 229.833,275.5 227.5,275.5C 227.802,272.941 227.468,270.607 226.5,268.5C 225.5,268.5 224.5,268.5 223.5,268.5C 222.532,270.607 222.198,272.941 222.5,275.5C 221.5,275.5 220.5,275.5 219.5,275.5C 217.052,274.527 214.385,274.194 211.5,274.5C 211.5,272.167 211.5,269.833 211.5,267.5C 212.833,267.5 214.167,267.5 215.5,267.5C 215.5,262.5 215.5,257.5 215.5,252.5C 222.167,252.5 228.833,252.5 235.5,252.5C 235.5,257.5 235.5,262.5 235.5,267.5C 236.791,267.263 237.791,267.596 238.5,268.5 Z"/></g>
<g><path style="opacity:1" fill="#133d82" d="M 230.5,255.5 C 231.649,255.791 232.316,256.624 232.5,258C 232.167,258.833 231.833,259.667 231.5,260.5C 230.548,258.955 230.215,257.288 230.5,255.5 Z"/></g>
<g><path style="opacity:1" fill="#354664" d="M 217.5,255.5 C 218.5,255.5 219.5,255.5 220.5,255.5C 220.5,257.167 220.5,258.833 220.5,260.5C 219.5,260.5 218.5,260.5 217.5,260.5C 217.5,258.833 217.5,257.167 217.5,255.5 Z"/></g>
<g><path style="opacity:1" fill="#a91322" d="M 164.5,260.5 C 166.648,260.389 166.981,261.056 165.5,262.5C 166.601,264.642 167.601,266.808 168.5,269C 162.093,271.841 162.093,272.674 168.5,271.5C 168.5,273.833 168.5,276.167 168.5,278.5C 167.167,278.5 165.833,278.5 164.5,278.5C 163.504,278.586 162.671,278.252 162,277.5C 160.305,274.082 158.805,270.582 157.5,267C 159.059,263.939 161.392,261.773 164.5,260.5 Z"/></g>
<g><path style="opacity:1" fill="#986904" d="M 178.5,259.5 C 178.897,258.475 179.563,258.308 180.5,259C 181.376,260.586 182.376,262.086 183.5,263.5C 182.998,264.521 182.332,264.688 181.5,264C 180.601,262.348 179.601,260.848 178.5,259.5 Z"/></g>
<g><path style="opacity:1" fill="#966605" d="M 190.5,264.5 C 189.826,262.976 188.826,261.642 187.5,260.5C 187.808,259.692 188.308,259.025 189,258.5C 189.85,260.01 190.683,261.51 191.5,263C 191.43,263.765 191.097,264.265 190.5,264.5 Z"/></g>
<g><path style="opacity:1" fill="#986a04" d="M 324.5,259.5 C 325.158,260.398 325.824,261.398 326.5,262.5C 327.167,261.833 327.833,261.167 328.5,260.5C 328.833,260.833 329.167,261.167 329.5,261.5C 328.194,262.912 327.36,264.579 327,266.5C 326.16,263.536 325.16,263.203 324,265.5C 323.322,263.402 323.489,261.402 324.5,259.5 Z"/></g>
<g><path style="opacity:1" fill="#a7a5a4" d="M 313.5,266.5 C 319.058,266.479 324.392,267.479 329.5,269.5C 329.823,276.022 329.49,282.355 328.5,288.5C 323.801,287.317 319.467,285.317 315.5,282.5C 314.833,279.023 314.166,275.689 313.5,272.5C 313.5,270.5 313.5,268.5 313.5,266.5 Z"/></g>
<g><path style="opacity:1" fill="#aaa8a7" d="M 185.5,266.5 C 185.5,268.5 185.5,270.5 185.5,272.5C 184.834,275.689 184.167,279.023 183.5,282.5C 178.812,284.512 174.145,286.512 169.5,288.5C 169.5,285.5 169.5,282.5 169.5,279.5C 169.177,275.774 169.511,272.107 170.5,268.5C 175.333,266.757 180.333,266.09 185.5,266.5 Z"/></g>
<g><path style="opacity:1" fill="#1b3b8c" d="M 246.5,267.5 C 259.004,269.148 263.504,276.148 260,288.5C 256.97,295.88 251.803,298.047 244.5,295C 237.959,288.441 236.792,280.941 241,272.5C 242.73,270.598 244.563,268.931 246.5,267.5 Z"/></g>
<g><path style="opacity:1" fill="#7f3d13" d="M 334.5,278.5 C 333.432,279.434 332.099,279.768 330.5,279.5C 330.5,282.833 330.5,286.167 330.5,289.5C 329.508,289.672 328.842,289.338 328.5,288.5C 329.49,282.355 329.823,276.022 329.5,269.5C 330.822,269.33 331.989,269.663 333,270.5C 333.684,269.216 333.517,268.049 332.5,267C 333.849,266.228 334.682,265.061 335,263.5C 335.667,265.833 335.667,268.167 335,270.5C 333.644,271.38 332.144,271.714 330.5,271.5C 330.5,273.833 330.5,276.167 330.5,278.5C 331.833,278.5 333.167,278.5 334.5,278.5 Z"/></g>
<g><path style="opacity:1" fill="#7b4e5e" d="M 281.5,275.5 C 281.217,276.289 280.717,276.956 280,277.5C 279.696,275.559 278.863,273.893 277.5,272.5C 278.665,271.416 279.998,270.583 281.5,270C 280.263,269.768 279.263,269.268 278.5,268.5C 279.688,267.316 280.855,267.316 282,268.5C 282.658,270.108 282.158,271.275 280.5,272C 280.653,273.209 280.986,274.375 281.5,275.5 Z"/></g>
<g><path style="opacity:1" fill="#23324b" d="M 223.5,268.5 C 223.5,270.5 223.5,272.5 223.5,274.5C 224.5,274.5 225.5,274.5 226.5,274.5C 226.5,272.5 226.5,270.5 226.5,268.5C 227.468,270.607 227.802,272.941 227.5,275.5C 225.833,275.5 224.167,275.5 222.5,275.5C 222.198,272.941 222.532,270.607 223.5,268.5 Z"/></g>
<g><path style="opacity:1" fill="#0043ac" d="M 223.5,268.5 C 224.5,268.5 225.5,268.5 226.5,268.5C 226.5,270.5 226.5,272.5 226.5,274.5C 225.5,274.5 224.5,274.5 223.5,274.5C 223.5,272.5 223.5,270.5 223.5,268.5 Z"/></g>
<g><path style="opacity:1" fill="#8a7011" d="M 243.5,273.5 C 245.155,274.924 246.488,276.757 247.5,279C 247.067,282.836 245.4,283.836 242.5,282C 242.957,281.586 243.291,281.086 243.5,280.5C 239.665,279.004 239.665,278.004 243.5,277.5C 243.5,276.167 243.5,274.833 243.5,273.5 Z"/></g>
<g><path style="opacity:1" fill="#8a700e" d="M 257.5,277.5 C 257.279,278.735 256.612,279.735 255.5,280.5C 255.863,281.183 256.196,281.85 256.5,282.5C 253.586,283.814 251.919,282.647 251.5,279C 252.814,276.869 253.981,274.703 255,272.5C 255.05,274.744 255.883,276.411 257.5,277.5 Z"/></g>
<g><path style="opacity:1" fill="#a51223" d="M 185.5,272.5 C 191.64,274.566 193.807,278.899 192,285.5C 190.074,287.539 187.907,289.206 185.5,290.5C 184.833,290.5 184.5,290.833 184.5,291.5C 183.508,291.328 182.842,291.662 182.5,292.5C 180.847,292.66 179.514,293.326 178.5,294.5C 175.45,295.926 172.45,297.259 169.5,298.5C 168.508,298.328 167.842,298.662 167.5,299.5C 166.522,299.811 165.855,300.478 165.5,301.5C 166.975,304.647 166.808,307.647 165,310.5C 164.163,308.156 162.829,306.156 161,304.5C 159.787,301.232 159.454,297.899 160,294.5C 162.843,291.837 166.009,289.837 169.5,288.5C 174.145,286.512 178.812,284.512 183.5,282.5C 184.167,279.023 184.834,275.689 185.5,272.5 Z"/></g>
<g><path style="opacity:1" fill="#a61123" d="M 313.5,272.5 C 314.166,275.689 314.833,279.023 315.5,282.5C 319.467,285.317 323.801,287.317 328.5,288.5C 328.842,289.338 329.508,289.672 330.5,289.5C 333.057,290.188 335.391,291.354 337.5,293C 338.944,294.126 339.61,295.626 339.5,297.5C 339.158,299.867 338.658,302.2 338,304.5C 336.171,306.156 334.837,308.156 334,310.5C 332.192,307.647 332.025,304.647 333.5,301.5C 333.145,300.478 332.478,299.811 331.5,299.5C 331.158,298.662 330.492,298.328 329.5,298.5C 328.18,297.058 326.514,296.392 324.5,296.5C 321.038,295.131 317.705,293.464 314.5,291.5C 314.167,291.5 313.833,291.5 313.5,291.5C 311.229,289.734 309.063,287.734 307,285.5C 305.193,278.899 307.36,274.566 313.5,272.5 Z"/></g>
<g><path style="opacity:1" fill="#414739" d="M 257.5,277.5 C 258.678,279.338 258.345,281.005 256.5,282.5C 256.196,281.85 255.863,281.183 255.5,280.5C 256.612,279.735 257.279,278.735 257.5,277.5 Z"/></g>
<g><path style="opacity:1" fill="#750719" d="M 264.5,275.5 C 265.468,277.607 265.802,279.941 265.5,282.5C 276.167,282.5 286.833,282.5 297.5,282.5C 297.5,282.833 297.5,283.167 297.5,283.5C 286.448,282.857 275.781,283.524 265.5,285.5C 265.33,286.822 265.663,287.989 266.5,289C 265.692,289.308 265.025,289.808 264.5,290.5C 265.689,291.429 267.022,291.762 268.5,291.5C 266.626,292.285 264.626,292.952 262.5,293.5C 264.233,287.654 264.9,281.654 264.5,275.5 Z"/></g>
<g><path style="opacity:1" fill="#9e7d00" d="M 201.5,283.5 C 202.833,283.5 204.167,283.5 205.5,283.5C 205.5,299.167 205.5,314.833 205.5,330.5C 204.5,329.167 203.5,327.833 202.5,326.5C 201.569,312.196 201.236,297.863 201.5,283.5 Z"/></g>
<g><path style="opacity:1" fill="#634303" d="M 201.5,283.5 C 201.5,283.167 201.5,282.833 201.5,282.5C 203.415,282.216 205.081,282.549 206.5,283.5C 206.5,299.5 206.5,315.5 206.5,331.5C 205.833,331.5 205.5,331.167 205.5,330.5C 205.5,314.833 205.5,299.167 205.5,283.5C 204.167,283.5 202.833,283.5 201.5,283.5 Z"/></g>
<g><path style="opacity:1" fill="#b10026" d="M 206.5,283.5 C 207.833,283.5 209.167,283.5 210.5,283.5C 210.5,301.167 210.5,318.833 210.5,336.5C 208.413,335.415 207.08,333.749 206.5,331.5C 206.5,315.5 206.5,299.5 206.5,283.5 Z"/></g>
<g><path style="opacity:1" fill="#6a4e02" d="M 217.5,283.5 C 217.5,302.5 217.5,321.5 217.5,340.5C 217.167,340.5 216.833,340.5 216.5,340.5C 216.5,321.5 216.5,302.5 216.5,283.5C 215.167,283.5 213.833,283.5 212.5,283.5C 212.5,301.833 212.5,320.167 212.5,338.5C 212.167,338.5 211.833,338.5 211.5,338.5C 211.5,338.167 211.5,337.833 211.5,337.5C 211.5,319.167 211.5,300.833 211.5,282.5C 213.735,282.205 215.735,282.539 217.5,283.5 Z"/></g>
<g><path style="opacity:1" fill="#9e7d00" d="M 216.5,340.5 C 215.167,339.833 213.833,339.167 212.5,338.5C 212.5,320.167 212.5,301.833 212.5,283.5C 213.833,283.5 215.167,283.5 216.5,283.5C 216.5,302.5 216.5,321.5 216.5,340.5 Z"/></g>
<g><path style="opacity:1" fill="#b30026" d="M 217.5,283.5 C 218.833,283.5 220.167,283.5 221.5,283.5C 222.154,303.196 221.488,322.529 219.5,341.5C 218.508,341.672 217.842,341.338 217.5,340.5C 217.5,321.5 217.5,302.5 217.5,283.5 Z"/></g>
<g><path style="opacity:1" fill="#730717" d="M 201.5,282.5 C 201.5,282.167 201.5,281.833 201.5,281.5C 212.167,281.5 222.833,281.5 233.5,281.5C 233.167,282.167 232.833,282.833 232.5,283.5C 231.167,283.5 229.833,283.5 228.5,283.5C 228.5,282.833 228.167,282.5 227.5,282.5C 225.833,282.5 224.167,282.5 222.5,282.5C 222.5,302.5 222.5,322.5 222.5,342.5C 221.209,342.737 220.209,342.404 219.5,341.5C 221.488,322.529 222.154,303.196 221.5,283.5C 220.167,283.5 218.833,283.5 217.5,283.5C 215.735,282.539 213.735,282.205 211.5,282.5C 211.5,300.833 211.5,319.167 211.5,337.5C 210.833,337.5 210.5,337.167 210.5,336.5C 210.5,318.833 210.5,301.167 210.5,283.5C 209.167,283.5 207.833,283.5 206.5,283.5C 205.081,282.549 203.415,282.216 201.5,282.5 Z"/></g>
<g><path style="opacity:1" fill="#9b7b00" d="M 227.5,282.5 C 227.5,302.5 227.5,322.5 227.5,342.5C 225.833,342.5 224.167,342.5 222.5,342.5C 222.5,322.5 222.5,302.5 222.5,282.5C 224.167,282.5 225.833,282.5 227.5,282.5 Z"/></g>
<g><path style="opacity:1" fill="#53210c" d="M 227.5,282.5 C 228.167,282.5 228.5,282.833 228.5,283.5C 228.5,302.833 228.5,322.167 228.5,341.5C 229.833,341.5 231.167,341.5 232.5,341.5C 231.432,342.434 230.099,342.768 228.5,342.5C 228.167,342.5 227.833,342.5 227.5,342.5C 227.5,322.5 227.5,302.5 227.5,282.5 Z"/></g>
<g><path style="opacity:1" fill="#b40026" d="M 228.5,283.5 C 229.833,283.5 231.167,283.5 232.5,283.5C 232.5,302.833 232.5,322.167 232.5,341.5C 231.167,341.5 229.833,341.5 228.5,341.5C 228.5,322.167 228.5,302.833 228.5,283.5 Z"/></g>
<g><path style="opacity:1" fill="#54140d" d="M 235.5,274.5 C 234.728,278.452 234.395,282.452 234.5,286.5C 233.834,295.327 233.5,304.327 233.5,313.5C 233.502,322.859 234.168,331.859 235.5,340.5C 234.791,341.404 233.791,341.737 232.5,341.5C 232.5,322.167 232.5,302.833 232.5,283.5C 232.833,282.833 233.167,282.167 233.5,281.5C 233.325,279.379 233.659,277.379 234.5,275.5C 234.5,274.833 234.833,274.5 235.5,274.5 Z"/></g>
<g><path style="opacity:1" fill="#ae0426" d="M 297.5,283.5 C 297.667,296.837 297.5,310.171 297,323.5C 296.187,325.436 295.687,327.436 295.5,329.5C 295.573,331.027 294.906,332.027 293.5,332.5C 287.416,339.373 279.749,342.707 270.5,342.5C 264.946,341.948 260.28,339.614 256.5,335.5C 254.216,331.927 252.216,328.26 250.5,324.5C 250.5,323.5 250.5,322.5 250.5,321.5C 250.5,314.833 250.5,308.167 250.5,301.5C 251.959,301.433 253.292,301.766 254.5,302.5C 255.826,305.079 255.493,307.579 253.5,310C 254.167,311.333 254.833,312.667 255.5,314C 254.544,315.365 253.878,316.865 253.5,318.5C 255.721,321.791 256.887,325.457 257,329.5C 258.067,330.191 259.234,330.691 260.5,331C 261.642,333.804 263.475,335.971 266,337.5C 267.144,337.089 268.311,336.756 269.5,336.5C 271.003,337.523 272.503,338.523 274,339.5C 275.507,338.445 277.007,337.445 278.5,336.5C 280.035,337.354 281.368,337.354 282.5,336.5C 283.496,336.586 284.329,336.252 285,335.5C 285.667,332.167 287.667,330.167 291,329.5C 291.497,326.854 291.664,324.187 291.5,321.5C 292.5,321.5 293.5,321.5 294.5,321.5C 294.752,318.756 294.085,316.256 292.5,314C 293.167,312.667 293.833,311.333 294.5,310C 291.91,306.579 291.91,303.079 294.5,299.5C 293.932,297.631 293.266,295.797 292.5,294C 293.612,291.924 294.112,289.757 294,287.5C 291.736,285.017 289.403,285.017 287,287.5C 284,284.833 281,284.833 278,287.5C 276.667,286.833 275.333,286.167 274,285.5C 272.667,286.167 271.333,286.833 270,287.5C 268.7,286.293 267.2,285.626 265.5,285.5C 275.781,283.524 286.448,282.857 297.5,283.5 Z"/></g>
<g><path style="opacity:1" fill="#7d681a" d="M 248.5,282.5 C 249.496,282.414 250.329,282.748 251,283.5C 251.36,285.421 252.194,287.088 253.5,288.5C 252.624,289.251 251.624,289.751 250.5,290C 251.337,291.011 251.67,292.178 251.5,293.5C 250.167,293.5 248.833,293.5 247.5,293.5C 247.33,292.178 247.663,291.011 248.5,290C 247.572,289.612 246.905,288.945 246.5,288C 247.885,286.403 248.551,284.57 248.5,282.5 Z"/></g>
<g><path style="opacity:1" fill="#9d7c00" d="M 234.5,286.5 C 234.502,290.165 235.835,293.165 238.5,295.5C 238.816,310.245 238.483,324.912 237.5,339.5C 236.508,339.328 235.842,339.662 235.5,340.5C 234.168,331.859 233.502,322.859 233.5,313.5C 233.5,304.327 233.834,295.327 234.5,286.5 Z"/></g>
<g><path style="opacity:1" fill="#aa0923" d="M 262.5,293.5 C 264.626,292.952 266.626,292.285 268.5,291.5C 270.093,290.133 271.426,290.466 272.5,292.5C 271.876,296.79 271.71,301.124 272,305.5C 270.208,303.013 268.708,300.346 267.5,297.5C 265.174,296.855 263.507,295.522 262.5,293.5 Z"/></g>
<g><path style="opacity:1" fill="#afaeae" d="M 184.5,291.5 C 185.141,301.889 184.474,311.889 182.5,321.5C 182.5,311.833 182.5,302.167 182.5,292.5C 182.842,291.662 183.508,291.328 184.5,291.5 Z"/></g>
<g><path style="opacity:1" fill="#b0afaf" d="M 314.5,291.5 C 317.705,293.464 321.038,295.131 324.5,296.5C 324.5,304.833 324.5,313.167 324.5,321.5C 321.167,321.5 317.833,321.5 314.5,321.5C 314.5,311.5 314.5,301.5 314.5,291.5 Z"/></g>
<g><path style="opacity:1" fill="#767374" d="M 182.5,292.5 C 182.5,302.167 182.5,311.833 182.5,321.5C 181.5,321.5 180.5,321.5 179.5,321.5C 180.14,316.913 180.473,312.247 180.5,307.5C 180.492,302.778 179.825,298.445 178.5,294.5C 179.514,293.326 180.847,292.66 182.5,292.5 Z"/></g>
<g><path style="opacity:1" fill="#adacac" d="M 178.5,294.5 C 179.825,298.445 180.492,302.778 180.5,307.5C 180.473,312.247 180.14,316.913 179.5,321.5C 176.167,321.5 172.833,321.5 169.5,321.5C 169.5,313.833 169.5,306.167 169.5,298.5C 172.45,297.259 175.45,295.926 178.5,294.5 Z"/></g>
<g><path style="opacity:1" fill="#55190e" d="M 238.5,295.5 C 239.833,296.167 240.833,297.167 241.5,298.5C 239.519,311.124 238.852,324.124 239.5,337.5C 239.5,338.833 238.833,339.5 237.5,339.5C 238.483,324.912 238.816,310.245 238.5,295.5 Z"/></g>
<g><path style="opacity:1" fill="#8b8989" d="M 324.5,296.5 C 326.514,296.392 328.18,297.058 329.5,298.5C 329.5,306.167 329.5,313.833 329.5,321.5C 327.833,321.5 326.167,321.5 324.5,321.5C 324.5,313.167 324.5,304.833 324.5,296.5 Z"/></g>
<g><path style="opacity:1" fill="#b30026" d="M 241.5,298.5 C 241.783,299.289 242.283,299.956 243,300.5C 243.5,311.828 243.667,323.162 243.5,334.5C 242.167,335.5 240.833,336.5 239.5,337.5C 238.852,324.124 239.519,311.124 241.5,298.5 Z"/></g>
<g><path style="opacity:1" fill="#927114" d="M 167.5,299.5 C 167.842,298.662 168.508,298.328 169.5,298.5C 169.5,306.167 169.5,313.833 169.5,321.5C 168.833,314.167 168.167,306.833 167.5,299.5 Z"/></g>
<g><path style="opacity:1" fill="#927214" d="M 329.5,298.5 C 330.492,298.328 331.158,298.662 331.5,299.5C 330.833,306.833 330.167,314.167 329.5,321.5C 329.5,313.833 329.5,306.167 329.5,298.5 Z"/></g>
<g><path style="opacity:1" fill="#9e7d00" d="M 248.5,301.5 C 248.5,309.167 248.5,316.833 248.5,324.5C 247.264,326.649 246.264,328.982 245.5,331.5C 244.506,321.681 244.173,311.681 244.5,301.5C 245.833,301.5 247.167,301.5 248.5,301.5 Z"/></g>
<g><path style="opacity:1" fill="#4e3c09" d="M 248.5,301.5 C 249.167,308.167 249.833,314.833 250.5,321.5C 250.5,322.5 250.5,323.5 250.5,324.5C 249.833,324.5 249.167,324.5 248.5,324.5C 248.5,316.833 248.5,309.167 248.5,301.5 Z"/></g>
<g><path style="opacity:1" fill="#805a05" d="M 265.5,285.5 C 267.2,285.626 268.7,286.293 270,287.5C 271.333,286.833 272.667,286.167 274,285.5C 275.333,286.167 276.667,286.833 278,287.5C 281,284.833 284,284.833 287,287.5C 289.403,285.017 291.736,285.017 294,287.5C 294.112,289.757 293.612,291.924 292.5,294C 293.266,295.797 293.932,297.631 294.5,299.5C 291.91,303.079 291.91,306.579 294.5,310C 293.833,311.333 293.167,312.667 292.5,314C 294.085,316.256 294.752,318.756 294.5,321.5C 293.5,321.5 292.5,321.5 291.5,321.5C 291.664,324.187 291.497,326.854 291,329.5C 287.667,330.167 285.667,332.167 285,335.5C 284.329,336.252 283.496,336.586 282.5,336.5C 282.062,336.565 281.728,336.399 281.5,336C 283.007,335.163 283.507,333.996 283,332.5C 281.667,333.167 280.667,334.167 280,335.5C 279.601,335.272 279.435,334.938 279.5,334.5C 279.5,333.5 279.5,332.5 279.5,331.5C 281.5,331.167 283.5,330.833 285.5,330.5C 285.662,328.473 285.495,326.473 285,324.5C 283,323.167 281,321.833 279,320.5C 278.887,318.026 277.887,316.026 276,314.5C 276.035,318.685 275.869,322.685 275.5,326.5C 275.5,325.167 275.5,323.833 275.5,322.5C 274.5,322.5 273.5,322.5 272.5,322.5C 272.768,324.099 272.434,325.432 271.5,326.5C 272.367,322.465 272.367,318.465 271.5,314.5C 270.167,318.998 267.334,321.998 263,323.5C 261.798,325.677 261.298,328.011 261.5,330.5C 265.056,330.278 267.723,331.611 269.5,334.5C 270.923,335.449 272.423,336.449 274,337.5C 275,336.833 276,336.167 277,335.5C 277.765,335.57 278.265,335.903 278.5,336.5C 277.007,337.445 275.507,338.445 274,339.5C 272.503,338.523 271.003,337.523 269.5,336.5C 268.311,336.756 267.144,337.089 266,337.5C 263.475,335.971 261.642,333.804 260.5,331C 259.234,330.691 258.067,330.191 257,329.5C 256.887,325.457 255.721,321.791 253.5,318.5C 253.878,316.865 254.544,315.365 255.5,314C 254.833,312.667 254.167,311.333 253.5,310C 255.493,307.579 255.826,305.079 254.5,302.5C 254.5,301.833 254.5,301.167 254.5,300.5C 256.592,300.439 258.092,299.439 259,297.5C 259.455,300.137 258.955,302.637 257.5,305C 257.669,307.167 258.836,308.334 261,308.5C 263.885,305.915 266.718,305.915 269.5,308.5C 270.521,307.998 270.688,307.332 270,306.5C 267.906,304.473 265.573,302.806 263,301.5C 262.5,299.5 262,297.5 261.5,295.5C 261.543,294.584 261.876,293.917 262.5,293.5C 263.507,295.522 265.174,296.855 267.5,297.5C 268.708,300.346 270.208,303.013 272,305.5C 271.71,301.124 271.876,296.79 272.5,292.5C 271.426,290.466 270.093,290.133 268.5,291.5C 267.022,291.762 265.689,291.429 264.5,290.5C 265.025,289.808 265.692,289.308 266.5,289C 265.663,287.989 265.33,286.822 265.5,285.5 Z"/></g>
<g><path style="opacity:1" fill="#a40722" d="M 277.5,312.5 C 281.522,312.27 285.688,312.27 290,312.5C 288.528,316.402 288.028,320.402 288.5,324.5C 285.584,323.172 284.417,321.172 285,318.5C 282.304,316.583 279.804,314.583 277.5,312.5 Z"/></g>
<g><path style="opacity:1" fill="#a20d21" d="M 259.5,310.5 C 261.465,311.129 263.465,311.796 265.5,312.5C 267.224,312.096 268.891,311.929 270.5,312C 268.125,314.176 265.792,316.343 263.5,318.5C 264.582,318.749 265.915,318.915 267.5,319C 264.442,320.218 261.776,322.051 259.5,324.5C 258.761,322.612 258.761,320.612 259.5,318.5C 257.114,315.691 257.114,313.024 259.5,310.5 Z"/></g>
<g><path style="opacity:1" fill="#13673c" d="M 276.5,307.5 C 276.5,307.833 276.5,308.167 276.5,308.5C 276.853,310.635 276.02,311.968 274,312.5C 271.41,311.313 270.91,309.48 272.5,307C 273.928,306.421 275.262,306.588 276.5,307.5 Z"/></g>
<g><path style="opacity:1" fill="#a50d22" d="M 276.5,308.5 C 276.5,308.167 276.5,307.833 276.5,307.5C 279.29,304.802 282.29,302.302 285.5,300C 284.549,299.282 284.383,298.449 285,297.5C 287.043,295.792 288.71,293.792 290,291.5C 290.338,294.266 289.838,296.933 288.5,299.5C 292.12,307.211 290.12,309.544 282.5,306.5C 280.465,307.204 278.465,307.871 276.5,308.5 Z"/></g>
<g><path style="opacity:1" fill="#a31121" d="M 276.5,290.5 C 280.294,291.424 283.961,291.757 287.5,291.5C 284.844,294.756 281.844,297.59 278.5,300C 279.996,300.507 281.163,300.007 282,298.5C 282.5,299 283,299.5 283.5,300C 280.461,301.031 277.961,302.865 276,305.5C 276.206,300.368 276.373,295.368 276.5,290.5 Z"/></g>
<g><path style="opacity:1" fill="#a90923" d="M 271.5,326.5 C 272.388,329.054 272.721,331.721 272.5,334.5C 271.5,334.5 270.5,334.5 269.5,334.5C 267.723,331.611 265.056,330.278 261.5,330.5C 261.298,328.011 261.798,325.677 263,323.5C 267.334,321.998 270.167,318.998 271.5,314.5C 272.367,318.465 272.367,322.465 271.5,326.5 Z"/></g>
<g><path style="opacity:1" fill="#ab0624" d="M 279.5,334.5 C 278.167,334.5 276.833,334.5 275.5,334.5C 275.5,331.833 275.5,329.167 275.5,326.5C 275.869,322.685 276.035,318.685 276,314.5C 277.887,316.026 278.887,318.026 279,320.5C 281,321.833 283,323.167 285,324.5C 285.495,326.473 285.662,328.473 285.5,330.5C 283.5,330.833 281.5,331.167 279.5,331.5C 279.5,332.5 279.5,333.5 279.5,334.5 Z"/></g>
<g><path style="opacity:1" fill="#5c1413" d="M 241.5,298.5 C 245.565,300.278 249.899,300.945 254.5,300.5C 254.5,301.167 254.5,301.833 254.5,302.5C 253.292,301.766 251.959,301.433 250.5,301.5C 250.5,308.167 250.5,314.833 250.5,321.5C 249.833,314.833 249.167,308.167 248.5,301.5C 247.167,301.5 245.833,301.5 244.5,301.5C 244.173,311.681 244.506,321.681 245.5,331.5C 245.068,332.71 244.401,333.71 243.5,334.5C 243.667,323.162 243.5,311.828 243,300.5C 242.283,299.956 241.783,299.289 241.5,298.5 Z"/></g>
<g><path style="opacity:1" fill="#7f6509" d="M 313.5,291.5 C 313.833,291.5 314.167,291.5 314.5,291.5C 314.5,301.5 314.5,311.5 314.5,321.5C 317.833,321.5 321.167,321.5 324.5,321.5C 326.167,321.5 327.833,321.5 329.5,321.5C 331.455,322.447 331.789,323.781 330.5,325.5C 333.172,327.425 334.172,330.092 333.5,333.5C 333.167,333.5 332.833,333.5 332.5,333.5C 332.5,331.833 332.5,330.167 332.5,328.5C 325.5,328.5 318.5,328.5 311.5,328.5C 311.5,330.167 311.5,331.833 311.5,333.5C 311.167,333.5 310.833,333.5 310.5,333.5C 310.268,329.543 311.101,325.876 313,322.5C 313.5,312.172 313.666,301.839 313.5,291.5 Z"/></g>
<g><path style="opacity:1" fill="#7f660f" d="M 185.5,290.5 C 185.333,301.172 185.5,311.839 186,322.5C 187.899,325.876 188.732,329.543 188.5,333.5C 188.167,333.5 187.833,333.5 187.5,333.5C 187.5,331.833 187.5,330.167 187.5,328.5C 180.5,328.5 173.5,328.5 166.5,328.5C 166.5,330.167 166.5,331.833 166.5,333.5C 166.167,333.5 165.833,333.5 165.5,333.5C 164.828,330.092 165.828,327.425 168.5,325.5C 167.211,323.781 167.545,322.447 169.5,321.5C 172.833,321.5 176.167,321.5 179.5,321.5C 180.5,321.5 181.5,321.5 182.5,321.5C 184.474,311.889 185.141,301.889 184.5,291.5C 184.5,290.833 184.833,290.5 185.5,290.5 Z"/></g>
<g><path style="opacity:1" fill="#9a7a01" d="M 187.5,333.5 C 180.494,334.724 173.494,334.724 166.5,333.5C 166.5,331.833 166.5,330.167 166.5,328.5C 173.5,328.5 180.5,328.5 187.5,328.5C 187.5,330.167 187.5,331.833 187.5,333.5 Z"/></g>
<g><path style="opacity:1" fill="#9b7b00" d="M 332.5,333.5 C 325.5,334.833 318.5,334.833 311.5,333.5C 311.5,331.833 311.5,330.167 311.5,328.5C 318.5,328.5 325.5,328.5 332.5,328.5C 332.5,330.167 332.5,331.833 332.5,333.5 Z"/></g>
<g><path style="opacity:1" fill="#261905" d="M 202.5,326.5 C 203.5,327.833 204.5,329.167 205.5,330.5C 205.5,331.167 205.833,331.5 206.5,331.5C 207.08,333.749 208.413,335.415 210.5,336.5C 210.5,337.167 210.833,337.5 211.5,337.5C 211.5,337.833 211.5,338.167 211.5,338.5C 206.576,336.001 203.576,332.001 202.5,326.5 Z"/></g>
<g><path style="opacity:1" fill="#123b88" d="M 165.5,333.5 C 165.833,333.5 166.167,333.5 166.5,333.5C 173.494,334.724 180.494,334.724 187.5,333.5C 187.833,333.5 188.167,333.5 188.5,333.5C 190.455,333.799 191.789,334.799 192.5,336.5C 182.981,336.213 173.481,336.213 164,336.5C 162.97,336.164 162.47,335.497 162.5,334.5C 163.609,334.443 164.609,334.11 165.5,333.5 Z"/></g>
<g><path style="opacity:1" fill="#88827d" d="M 248.5,324.5 C 249.167,324.5 249.833,324.5 250.5,324.5C 252.216,328.26 254.216,331.927 256.5,335.5C 255.833,336.833 255.167,338.167 254.5,339.5C 254.978,336.722 253.978,334.722 251.5,333.5C 250.893,333.624 250.56,333.957 250.5,334.5C 250.167,334.5 249.833,334.5 249.5,334.5C 248.687,333.347 247.687,333.347 246.5,334.5C 245.018,337.257 245.518,339.59 248,341.5C 248.399,341.272 248.565,340.938 248.5,340.5C 249.167,340.5 249.833,340.5 250.5,340.5C 250.5,340.833 250.5,341.167 250.5,341.5C 249.844,342.278 249.011,342.944 248,343.5C 245.245,341.452 242.411,341.118 239.5,342.5C 238.167,341.833 236.833,341.167 235.5,340.5C 235.842,339.662 236.508,339.328 237.5,339.5C 238.833,339.5 239.5,338.833 239.5,337.5C 240.833,336.5 242.167,335.5 243.5,334.5C 244.401,333.71 245.068,332.71 245.5,331.5C 246.264,328.982 247.264,326.649 248.5,324.5 Z"/></g>
<g><path style="opacity:1" fill="#e2b973" d="M 249.5,334.5 C 248.539,336.265 248.205,338.265 248.5,340.5C 248.565,340.938 248.399,341.272 248,341.5C 245.518,339.59 245.018,337.257 246.5,334.5C 247.687,333.347 248.687,333.347 249.5,334.5 Z"/></g>
<g><path style="opacity:1" fill="#e8bf76" d="M 250.5,334.5 C 250.56,333.957 250.893,333.624 251.5,333.5C 253.978,334.722 254.978,336.722 254.5,339.5C 253.395,340.6 252.062,341.267 250.5,341.5C 250.5,341.167 250.5,340.833 250.5,340.5C 251.833,338.5 251.833,336.5 250.5,334.5 Z"/></g>
<g><path style="opacity:1" fill="#7e440c" d="M 275.5,326.5 C 275.5,329.167 275.5,331.833 275.5,334.5C 276.833,334.5 278.167,334.5 279.5,334.5C 279.435,334.938 279.601,335.272 280,335.5C 280.667,334.167 281.667,333.167 283,332.5C 283.507,333.996 283.007,335.163 281.5,336C 281.728,336.399 282.062,336.565 282.5,336.5C 281.368,337.354 280.035,337.354 278.5,336.5C 278.265,335.903 277.765,335.57 277,335.5C 276,336.167 275,336.833 274,337.5C 272.423,336.449 270.923,335.449 269.5,334.5C 270.5,334.5 271.5,334.5 272.5,334.5C 272.721,331.721 272.388,329.054 271.5,326.5C 272.434,325.432 272.768,324.099 272.5,322.5C 273.5,322.5 274.5,322.5 275.5,322.5C 275.5,323.833 275.5,325.167 275.5,326.5 Z"/></g>
<g><path style="opacity:1" fill="#143d8e" d="M 310.5,333.5 C 310.833,333.5 311.167,333.5 311.5,333.5C 318.5,334.833 325.5,334.833 332.5,333.5C 332.833,333.5 333.167,333.5 333.5,333.5C 334.391,334.11 335.391,334.443 336.5,334.5C 336.53,335.497 336.03,336.164 335,336.5C 325.515,336.266 316.015,336.266 306.5,336.5C 307.035,334.554 308.368,333.554 310.5,333.5 Z"/></g>
<g><path style="opacity:1" fill="#8e1322" d="M 249.5,334.5 C 249.833,334.5 250.167,334.5 250.5,334.5C 251.833,336.5 251.833,338.5 250.5,340.5C 249.833,340.5 249.167,340.5 248.5,340.5C 248.205,338.265 248.539,336.265 249.5,334.5 Z"/></g>
<g><path style="opacity:1" fill="#133d8e" d="M 306.5,341.5 C 306.5,340.833 306.5,340.167 306.5,339.5C 311.177,337.052 315.844,337.052 320.5,339.5C 323.5,338.833 326.5,338.167 329.5,337.5C 332.191,337.679 334.525,338.679 336.5,340.5C 326.615,341.477 316.615,341.811 306.5,341.5 Z"/></g>
<g><path style="opacity:1" fill="#133b8a" d="M 192.5,339.5 C 192.5,340.167 192.5,340.833 192.5,341.5C 187.369,339.9 182.369,340.233 177.5,342.5C 172.602,340.597 167.602,339.93 162.5,340.5C 167.052,336.832 171.886,336.499 177,339.5C 179.46,338.687 181.96,338.02 184.5,337.5C 187.178,338.175 189.844,338.842 192.5,339.5 Z"/></g>
<g><path style="opacity:1" fill="#a8a8a8" d="M 256.5,335.5 C 260.28,339.614 264.946,341.948 270.5,342.5C 271.609,343.29 272.942,343.79 274.5,344C 272.277,344.566 270.277,345.4 268.5,346.5C 258.908,348.089 249.242,348.755 239.5,348.5C 236.727,347.343 233.727,346.676 230.5,346.5C 228.723,345.4 226.723,344.566 224.5,344C 226.058,343.79 227.391,343.29 228.5,342.5C 230.099,342.768 231.432,342.434 232.5,341.5C 233.791,341.737 234.791,341.404 235.5,340.5C 236.833,341.167 238.167,341.833 239.5,342.5C 242.525,344.586 245.858,346.253 249.5,347.5C 252.237,345.898 255.237,345.064 258.5,345C 259.91,344.632 260.91,343.799 261.5,342.5C 257.545,340.897 254.045,341.564 251,344.5C 250.517,343.552 250.351,342.552 250.5,341.5C 252.062,341.267 253.395,340.6 254.5,339.5C 255.167,338.167 255.833,336.833 256.5,335.5 Z"/></g>
<g><path style="opacity:1" fill="#2e1e15" d="M 293.5,332.5 C 292.457,335.056 290.79,337.223 288.5,339C 282.334,342.92 275.667,345.42 268.5,346.5C 270.277,345.4 272.277,344.566 274.5,344C 272.942,343.79 271.609,343.29 270.5,342.5C 279.749,342.707 287.416,339.373 293.5,332.5 Z"/></g>
<g><path style="opacity:1" fill="#8c8d8d" d="M 336.5,334.5 C 337.485,338.634 337.818,342.968 337.5,347.5C 335.901,347.768 334.568,347.434 333.5,346.5C 334.675,346.719 335.675,346.386 336.5,345.5C 331.91,341.951 327.077,341.618 322,344.5C 319.333,343.833 316.667,343.167 314,342.5C 311.456,343.071 308.956,343.738 306.5,344.5C 306.5,343.5 306.5,342.5 306.5,341.5C 316.615,341.811 326.615,341.477 336.5,340.5C 334.525,338.679 332.191,337.679 329.5,337.5C 326.5,338.167 323.5,338.833 320.5,339.5C 315.844,337.052 311.177,337.052 306.5,339.5C 306.5,338.5 306.5,337.5 306.5,336.5C 316.015,336.266 325.515,336.266 335,336.5C 336.03,336.164 336.53,335.497 336.5,334.5 Z"/></g>
<g><path style="opacity:1" fill="#939493" d="M 162.5,334.5 C 162.47,335.497 162.97,336.164 164,336.5C 173.481,336.213 182.981,336.213 192.5,336.5C 192.5,337.5 192.5,338.5 192.5,339.5C 189.844,338.842 187.178,338.175 184.5,337.5C 181.96,338.02 179.46,338.687 177,339.5C 171.886,336.499 167.052,336.832 162.5,340.5C 167.602,339.93 172.602,340.597 177.5,342.5C 182.369,340.233 187.369,339.9 192.5,341.5C 192.5,342.5 192.5,343.5 192.5,344.5C 189.972,343.989 187.472,343.322 185,342.5C 182.333,343.167 179.667,343.833 177,344.5C 171.886,341.499 167.052,341.832 162.5,345.5C 163.325,346.386 164.325,346.719 165.5,346.5C 164.432,347.434 163.099,347.768 161.5,347.5C 161.182,342.968 161.515,338.634 162.5,334.5 Z"/></g>
<g><path style="opacity:1" fill="#292217" d="M 211.5,338.5 C 211.833,338.5 212.167,338.5 212.5,338.5C 213.833,339.167 215.167,339.833 216.5,340.5C 216.833,340.5 217.167,340.5 217.5,340.5C 217.842,341.338 218.508,341.672 219.5,341.5C 220.209,342.404 221.209,342.737 222.5,342.5C 224.167,342.5 225.833,342.5 227.5,342.5C 227.833,342.5 228.167,342.5 228.5,342.5C 227.391,343.29 226.058,343.79 224.5,344C 226.723,344.566 228.723,345.4 230.5,346.5C 223.433,345.373 217.1,342.706 211.5,338.5 Z"/></g>
<g><path style="opacity:1" fill="#183b84" d="M 192.5,344.5 C 192.5,345.5 192.5,346.5 192.5,347.5C 189.656,346.942 186.822,346.275 184,345.5C 179.066,348.089 174.066,348.089 169,345.5C 167.744,345.648 166.577,345.982 165.5,346.5C 164.325,346.719 163.325,346.386 162.5,345.5C 167.052,341.832 171.886,341.499 177,344.5C 179.667,343.833 182.333,343.167 185,342.5C 187.472,343.322 189.972,343.989 192.5,344.5 Z"/></g>
<g><path style="opacity:1" fill="#1f4e39" d="M 250.5,341.5 C 250.351,342.552 250.517,343.552 251,344.5C 254.045,341.564 257.545,340.897 261.5,342.5C 260.91,343.799 259.91,344.632 258.5,345C 255.237,345.064 252.237,345.898 249.5,347.5C 245.858,346.253 242.525,344.586 239.5,342.5C 242.411,341.118 245.245,341.452 248,343.5C 249.011,342.944 249.844,342.278 250.5,341.5 Z"/></g>
<g><path style="opacity:1" fill="#153b86" d="M 333.5,346.5 C 329.403,345.249 325.403,345.582 321.5,347.5C 318.96,346.98 316.46,346.313 314,345.5C 311.528,346.322 309.028,346.989 306.5,347.5C 306.5,346.5 306.5,345.5 306.5,344.5C 308.956,343.738 311.456,343.071 314,342.5C 316.667,343.167 319.333,343.833 322,344.5C 327.077,341.618 331.91,341.951 336.5,345.5C 335.675,346.386 334.675,346.719 333.5,346.5 Z"/></g>
<g><path style="opacity:1" fill="#1f190b" d="M 230.5,346.5 C 233.727,346.676 236.727,347.343 239.5,348.5C 236.171,348.785 233.171,348.118 230.5,346.5 Z"/></g>
<g><path style="opacity:1" fill="#1d190e" d="M 268.5,346.5 C 265.742,347.761 262.742,348.594 259.5,349C 252.654,349.821 245.987,349.654 239.5,348.5C 249.242,348.755 258.908,348.089 268.5,346.5 Z"/></g>
<g><path style="opacity:1" fill="#ac1518" d="M -0.5,374.5 C 249.5,374.5 499.5,374.5 749.5,374.5C 749.5,416.167 749.5,457.833 749.5,499.5C 499.5,499.5 249.5,499.5 -0.5,499.5C -0.5,457.833 -0.5,416.167 -0.5,374.5 Z"/></g>
</svg>
