<?xml version="1.0" encoding="UTF-8"?>
<!DOCTYPE svg PUBLIC "-//W3C//DTD SVG 1.1//EN" "http://www.w3.org/Graphics/SVG/1.1/DTD/svg11.dtd">
<svg xmlns="http://www.w3.org/2000/svg" version="1.1" width="640px" height="320px" style="shape-rendering:geometricPrecision; text-rendering:geometricPrecision; image-rendering:optimizeQuality; fill-rule:evenodd; clip-rule:evenodd" xmlns:xlink="http://www.w3.org/1999/xlink">
<g><path style="opacity:1" fill="#fdfdfd" d="M 0.5,-0.5 C 24.5,-0.5 48.5,-0.5 72.5,-0.5C 136.617,32.0588 200.951,64.3922 265.5,96.5C 266.5,64.1735 266.833,31.8402 266.5,-0.5C 273.5,-0.5 280.5,-0.5 287.5,-0.5C 287.5,42.1667 287.5,84.8333 287.5,127.5C 191.5,127.5 95.5,127.5 -0.5,127.5C -0.5,120.5 -0.5,113.5 -0.5,106.5C 46.5012,106.667 93.5012,106.5 140.5,106C 139.956,105.283 139.289,104.783 138.5,104.5C 92.0386,81.7693 45.7053,58.7693 -0.5,35.5C -0.5,31.5 -0.5,27.5 -0.5,23.5C 54.3719,51.1026 109.372,78.436 164.5,105.5C 180.328,106.661 196.328,106.828 212.5,106C 211.473,105.487 210.473,104.987 209.5,104.5C 139.644,69.7387 69.9772,34.7387 0.5,-0.5 Z"/></g>
<g><path style="opacity:1" fill="#022169" d="M 72.5,-0.5 C 137.167,-0.5 201.833,-0.5 266.5,-0.5C 266.833,31.8402 266.5,64.1735 265.5,96.5C 200.951,64.3922 136.617,32.0588 72.5,-0.5 Z"/></g>
<g><path style="opacity:1" fill="#c7102d" d="M 287.5,-0.5 C 308.833,-0.5 330.167,-0.5 351.5,-0.5C 351.5,42.1667 351.5,84.8333 351.5,127.5C 447.5,127.5 543.5,127.5 639.5,127.5C 639.5,148.833 639.5,170.167 639.5,191.5C 543.5,191.5 447.5,191.5 351.5,191.5C 351.5,234.167 351.5,276.833 351.5,319.5C 330.167,319.5 308.833,319.5 287.5,319.5C 287.5,276.833 287.5,234.167 287.5,191.5C 191.5,191.5 95.5,191.5 -0.5,191.5C -0.5,170.167 -0.5,148.833 -0.5,127.5C 95.5,127.5 191.5,127.5 287.5,127.5C 287.5,84.8333 287.5,42.1667 287.5,-0.5 Z"/></g>
<g><path style="opacity:1" fill="#fdfdfd" d="M 351.5,-0.5 C 358.5,-0.5 365.5,-0.5 372.5,-0.5C 372.167,31.8402 372.5,64.1735 373.5,96.5C 438.049,64.3922 502.383,32.0588 566.5,-0.5C 574.5,-0.5 582.5,-0.5 590.5,-0.5C 521.023,34.7387 451.356,69.7387 381.5,104.5C 380.527,104.987 379.527,105.487 378.5,106C 394.672,106.828 410.672,106.661 426.5,105.5C 497.484,70.6745 568.151,35.3412 638.5,-0.5C 638.833,-0.5 639.167,-0.5 639.5,-0.5C 639.5,11.5 639.5,23.5 639.5,35.5C 593.295,58.7693 546.961,81.7693 500.5,104.5C 499.711,104.783 499.044,105.283 498.5,106C 545.499,106.5 592.499,106.667 639.5,106.5C 639.5,113.5 639.5,120.5 639.5,127.5C 543.5,127.5 447.5,127.5 351.5,127.5C 351.5,84.8333 351.5,42.1667 351.5,-0.5 Z"/></g>
<g><path style="opacity:1" fill="#022169" d="M 372.5,-0.5 C 437.167,-0.5 501.833,-0.5 566.5,-0.5C 502.383,32.0588 438.049,64.3922 373.5,96.5C 372.5,64.1735 372.167,31.8402 372.5,-0.5 Z"/></g>
<g><path style="opacity:1" fill="#c81530" d="M 590.5,-0.5 C 606.5,-0.5 622.5,-0.5 638.5,-0.5C 568.151,35.3412 497.484,70.6745 426.5,105.5C 411.324,105.829 396.324,105.496 381.5,104.5C 451.356,69.7387 521.023,34.7387 590.5,-0.5 Z"/></g>
<g><path style="opacity:1" fill="#c81530" d="M -0.5,-0.5 C -0.166667,-0.5 0.166667,-0.5 0.5,-0.5C 69.9772,34.7387 139.644,69.7387 209.5,104.5C 194.676,105.496 179.676,105.829 164.5,105.5C 109.372,78.436 54.3719,51.1026 -0.5,23.5C -0.5,15.5 -0.5,7.5 -0.5,-0.5 Z"/></g>
<g><path style="opacity:1" fill="#012169" d="M -0.5,35.5 C 45.7053,58.7693 92.0386,81.7693 138.5,104.5C 92.3363,105.499 46.003,105.832 -0.5,105.5C -0.5,82.1667 -0.5,58.8333 -0.5,35.5 Z"/></g>
<g><path style="opacity:1" fill="#012169" d="M 639.5,35.5 C 639.5,58.8333 639.5,82.1667 639.5,105.5C 592.997,105.832 546.664,105.499 500.5,104.5C 546.961,81.7693 593.295,58.7693 639.5,35.5 Z"/></g>
<g><path style="opacity:1" fill="#566b9b" d="M 138.5,104.5 C 139.289,104.783 139.956,105.283 140.5,106C 93.5012,106.5 46.5012,106.667 -0.5,106.5C -0.5,106.167 -0.5,105.833 -0.5,105.5C 46.003,105.832 92.3363,105.499 138.5,104.5 Z"/></g>
<g><path style="opacity:1" fill="#da6175" d="M 209.5,104.5 C 210.473,104.987 211.473,105.487 212.5,106C 196.328,106.828 180.328,106.661 164.5,105.5C 179.676,105.829 194.676,105.496 209.5,104.5 Z"/></g>
<g><path style="opacity:1" fill="#da6275" d="M 381.5,104.5 C 396.324,105.496 411.324,105.829 426.5,105.5C 410.672,106.661 394.672,106.828 378.5,106C 379.527,105.487 380.527,104.987 381.5,104.5 Z"/></g>
<g><path style="opacity:1" fill="#566b9b" d="M 500.5,104.5 C 546.664,105.499 592.997,105.832 639.5,105.5C 639.5,105.833 639.5,106.167 639.5,106.5C 592.499,106.667 545.499,106.5 498.5,106C 499.044,105.283 499.711,104.783 500.5,104.5 Z"/></g>
<g><path style="opacity:1" fill="#fdfdfd" d="M -0.5,191.5 C 95.5,191.5 191.5,191.5 287.5,191.5C 287.5,234.167 287.5,276.833 287.5,319.5C 280.5,319.5 273.5,319.5 266.5,319.5C 266.833,287.16 266.5,254.826 265.5,222.5C 200.951,254.608 136.617,286.941 72.5,319.5C 64.5,319.5 56.5,319.5 48.5,319.5C 117.977,284.261 187.644,249.261 257.5,214.5C 258.473,214.013 259.473,213.513 260.5,213C 244.328,212.172 228.328,212.339 212.5,213.5C 141.516,248.325 70.8491,283.659 0.5,319.5C 0.166667,319.5 -0.166667,319.5 -0.5,319.5C -0.5,307.5 -0.5,295.5 -0.5,283.5C 45.7053,260.231 92.0386,237.231 138.5,214.5C 139.289,214.217 139.956,213.717 140.5,213C 93.5012,212.5 46.5012,212.333 -0.5,212.5C -0.5,205.5 -0.5,198.5 -0.5,191.5 Z"/></g>
<g><path style="opacity:1" fill="#fdfdfd" d="M 639.5,191.5 C 639.5,198.5 639.5,205.5 639.5,212.5C 592.499,212.333 545.499,212.5 498.5,213C 499.044,213.717 499.711,214.217 500.5,214.5C 546.961,237.231 593.295,260.231 639.5,283.5C 639.5,287.5 639.5,291.5 639.5,295.5C 584.628,267.897 529.628,240.564 474.5,213.5C 458.672,212.339 442.672,212.172 426.5,213C 427.527,213.513 428.527,214.013 429.5,214.5C 499.356,249.261 569.023,284.261 638.5,319.5C 614.5,319.5 590.5,319.5 566.5,319.5C 502.383,286.941 438.049,254.608 373.5,222.5C 372.5,254.826 372.167,287.16 372.5,319.5C 365.5,319.5 358.5,319.5 351.5,319.5C 351.5,276.833 351.5,234.167 351.5,191.5C 447.5,191.5 543.5,191.5 639.5,191.5 Z"/></g>
<g><path style="opacity:1" fill="#566b9b" d="M -0.5,213.5 C -0.5,213.167 -0.5,212.833 -0.5,212.5C 46.5012,212.333 93.5012,212.5 140.5,213C 139.956,213.717 139.289,214.217 138.5,214.5C 92.3363,213.501 46.003,213.168 -0.5,213.5 Z"/></g>
<g><path style="opacity:1" fill="#da6275" d="M 212.5,213.5 C 228.328,212.339 244.328,212.172 260.5,213C 259.473,213.513 258.473,214.013 257.5,214.5C 242.676,213.504 227.676,213.171 212.5,213.5 Z"/></g>
<g><path style="opacity:1" fill="#da6175" d="M 474.5,213.5 C 459.324,213.171 444.324,213.504 429.5,214.5C 428.527,214.013 427.527,213.513 426.5,213C 442.672,212.172 458.672,212.339 474.5,213.5 Z"/></g>
<g><path style="opacity:1" fill="#566b9b" d="M 639.5,212.5 C 639.5,212.833 639.5,213.167 639.5,213.5C 592.997,213.168 546.664,213.501 500.5,214.5C 499.711,214.217 499.044,213.717 498.5,213C 545.499,212.5 592.499,212.333 639.5,212.5 Z"/></g>
<g><path style="opacity:1" fill="#012169" d="M -0.5,213.5 C 46.003,213.168 92.3363,213.501 138.5,214.5C 92.0386,237.231 45.7053,260.231 -0.5,283.5C -0.5,260.167 -0.5,236.833 -0.5,213.5 Z"/></g>
<g><path style="opacity:1" fill="#c81630" d="M 212.5,213.5 C 227.676,213.171 242.676,213.504 257.5,214.5C 187.644,249.261 117.977,284.261 48.5,319.5C 32.5,319.5 16.5,319.5 0.5,319.5C 70.8491,283.659 141.516,248.325 212.5,213.5 Z"/></g>
<g><path style="opacity:1" fill="#c81630" d="M 429.5,214.5 C 444.324,213.504 459.324,213.171 474.5,213.5C 529.628,240.564 584.628,267.897 639.5,295.5C 639.5,303.5 639.5,311.5 639.5,319.5C 639.167,319.5 638.833,319.5 638.5,319.5C 569.023,284.261 499.356,249.261 429.5,214.5 Z"/></g>
<g><path style="opacity:1" fill="#012169" d="M 500.5,214.5 C 546.664,213.501 592.997,213.168 639.5,213.5C 639.5,236.833 639.5,260.167 639.5,283.5C 593.295,260.231 546.961,237.231 500.5,214.5 Z"/></g>
<g><path style="opacity:1" fill="#022169" d="M 266.5,319.5 C 201.833,319.5 137.167,319.5 72.5,319.5C 136.617,286.941 200.951,254.608 265.5,222.5C 266.5,254.826 266.833,287.16 266.5,319.5 Z"/></g>
<g><path style="opacity:1" fill="#022169" d="M 566.5,319.5 C 501.833,319.5 437.167,319.5 372.5,319.5C 372.167,287.16 372.5,254.826 373.5,222.5C 438.049,254.608 502.383,286.941 566.5,319.5 Z"/></g>
</svg>
