<svg width="20" height="15" viewBox="0 0 20 15" fill="none" xmlns="http://www.w3.org/2000/svg">
<g id="us.svg" clip-path="url(#clip0_939_8400)">
<g id="Group">
<g id="Group_2">
<path id="Vector" fill-rule="evenodd" clip-rule="evenodd" d="M0 0H28.5003V1.15386H0V0ZM0 2.30771H28.5003V3.46157H0V2.30771ZM0 4.61543H28.5003V5.76929H0V4.61543ZM0 6.92314H28.5003V8.077H0V6.92314ZM0 9.23086H28.5003V10.3847H0V9.23086ZM0 11.5386H28.5003V12.6924H0V11.5386ZM0 13.8463H28.5003V15.0001H0V13.8463Z" fill="#BD3D44"/>
<path id="Vector_2" fill-rule="evenodd" clip-rule="evenodd" d="M0 1.15381H28.5003V2.30767H0V1.15381ZM0 3.46152H28.5003V4.61538H0V3.46152ZM0 5.76924H28.5003V6.9231H0V5.76924ZM0 8.07695H28.5003V9.23081H0V8.07695ZM0 10.3847H28.5003V11.5385H0V10.3847ZM0 12.6924H28.5003V13.8462H0V12.6924Z" fill="white"/>
</g>
<path id="Vector_3" fill-rule="evenodd" clip-rule="evenodd" d="M0 0H11.4V8.07686H0V0Z" fill="#192F5D"/>
<g id="Group_3">
<path id="Vector_4" fill-rule="evenodd" clip-rule="evenodd" d="M0.94916 0.345703L1.05287 0.664922H1.38855L1.11697 0.862236L1.22071 1.18146L0.949131 0.98417L0.677607 1.18146L0.781318 0.862236L0.509766 0.664922H0.84542L0.94916 0.345703ZM2.84915 0.345703L2.95289 0.664922H3.28857L3.01699 0.862236L3.12073 1.18146L2.84915 0.98417L2.57763 1.18146L2.68134 0.862236L2.40979 0.664922H2.74544L2.84915 0.345703ZM4.74923 0.345703L4.85294 0.664922H5.18862L4.91704 0.862236L5.02078 1.18146L4.74923 0.98417L4.47768 1.18146L4.58139 0.862236L4.30983 0.664922H4.64552L4.74923 0.345703ZM6.64919 0.345703L6.7529 0.664922H7.08855L6.817 0.862236L6.92071 1.18146L6.64919 0.98417L6.37761 1.18146L6.48135 0.862236L6.20977 0.664922H6.54545L6.64919 0.345703ZM8.54924 0.345703L8.65295 0.664922H8.98863L8.71705 0.862236L8.82079 1.18146L8.54921 0.98417L8.27769 1.18146L8.3814 0.862236L8.10984 0.664922H8.4455L8.54924 0.345703ZM10.4493 0.345703L10.553 0.664922H10.8887L10.6171 0.862236L10.7208 1.18146L10.4493 0.98417L10.1777 1.18146L10.2815 0.862236L10.0099 0.664922H10.3456L10.4493 0.345703ZM1.8992 1.15342L2.00291 1.47264H2.33859L2.06701 1.66992L2.17078 1.98917L1.8992 1.79188L1.62765 1.98917L1.73136 1.66992L1.4598 1.47264H1.79549L1.8992 1.15342ZM3.79916 1.15342L3.90287 1.47264H4.23853L3.96697 1.66992L4.07068 1.98917L3.79916 1.79188L3.52758 1.98917L3.63132 1.66992L3.35974 1.47264H3.69542L3.79916 1.15342ZM5.69921 1.15342L5.80292 1.47264H6.1386L5.86702 1.66992L5.97076 1.98917L5.69918 1.79188L5.42766 1.98917L5.53137 1.66992L5.25981 1.47264H5.59547L5.69921 1.15342ZM7.59926 1.15342L7.70297 1.47264H8.03865L7.76707 1.66992L7.87081 1.98917L7.59926 1.79188L7.32768 1.98917L7.43147 1.66992L7.15989 1.47264H7.49558L7.59926 1.15342ZM9.49922 1.15342L9.60293 1.47264H9.93858L9.66703 1.66992L9.77074 1.98917L9.49922 1.79188L9.22764 1.98917L9.33138 1.66992L9.0598 1.47264H9.39548L9.49922 1.15342ZM0.94916 1.9611L1.05287 2.28032H1.38855L1.11697 2.47764L1.22071 2.79686L0.949131 2.59957L0.677607 2.79686L0.781318 2.47764L0.509766 2.28032H0.84542L0.94916 1.9611ZM2.84915 1.9611L2.95289 2.28032H3.28857L3.01699 2.47764L3.12073 2.79686L2.84915 2.59957L2.57763 2.79686L2.68134 2.47764L2.40979 2.28032H2.74544L2.84915 1.9611ZM4.74923 1.9611L4.85294 2.28032H5.18862L4.91704 2.47764L5.02078 2.79686L4.74923 2.59957L4.47768 2.79686L4.58139 2.47764L4.30983 2.28032H4.64552L4.74923 1.9611ZM6.64919 1.9611L6.7529 2.28032H7.08855L6.817 2.47764L6.92071 2.79686L6.64919 2.59957L6.37761 2.79686L6.48135 2.47764L6.20977 2.28032H6.54545L6.64919 1.9611ZM8.54924 1.9611L8.65295 2.28032H8.98863L8.71705 2.47764L8.82079 2.79686L8.54921 2.59957L8.27769 2.79686L8.3814 2.47764L8.10984 2.28032H8.4455L8.54924 1.9611ZM10.4493 1.9611L10.553 2.28032H10.8887L10.6171 2.47764L10.7208 2.79686L10.4493 2.59957L10.1777 2.79686L10.2815 2.47764L10.0099 2.28032H10.3456L10.4493 1.9611ZM1.8992 2.76879L2.00291 3.08804H2.33859L2.06701 3.28532L2.17078 3.60457L1.8992 3.40729L1.62765 3.60457L1.73136 3.28532L1.4598 3.08804H1.79549L1.8992 2.76879ZM3.79916 2.76879L3.90287 3.08804H4.23853L3.96697 3.28532L4.07068 3.60457L3.79916 3.40729L3.52758 3.60457L3.63132 3.28532L3.35974 3.08804H3.69542L3.79916 2.76879ZM5.69921 2.76879L5.80292 3.08804H6.1386L5.86702 3.28532L5.97076 3.60457L5.69918 3.40729L5.42766 3.60457L5.53137 3.28532L5.25981 3.08804H5.59547L5.69921 2.76879ZM7.59926 2.76879L7.70297 3.08804H8.03865L7.76707 3.28532L7.87081 3.60457L7.59926 3.40729L7.32768 3.60457L7.43145 3.28532L7.15986 3.08804H7.49555L7.59926 2.76879ZM9.49922 2.76879L9.60293 3.08804H9.93858L9.66703 3.28532L9.77074 3.60457L9.49922 3.40729L9.22764 3.60457L9.33138 3.28532L9.0598 3.08804H9.39548L9.49922 2.76879ZM0.94916 3.5765L1.05287 3.89572H1.38855L1.11697 4.09304L1.22071 4.41226L0.949131 4.21497L0.677607 4.41226L0.781318 4.09304L0.509766 3.89572H0.84542L0.94916 3.5765ZM2.84915 3.5765L2.95289 3.89572H3.28857L3.01699 4.09304L3.12073 4.41226L2.84915 4.21497L2.57763 4.41226L2.68134 4.09304L2.40979 3.89572H2.74544L2.84915 3.5765ZM4.74923 3.5765L4.85294 3.89572H5.18862L4.91704 4.09304L5.02078 4.41226L4.74923 4.21497L4.47768 4.41226L4.58139 4.09304L4.30983 3.89572H4.64552L4.74923 3.5765ZM6.64919 3.5765L6.7529 3.89572H7.08855L6.817 4.09304L6.92071 4.41226L6.64919 4.21497L6.37761 4.41226L6.48135 4.09304L6.20977 3.89572H6.54545L6.64919 3.5765ZM8.54924 3.5765L8.65295 3.89572H8.98863L8.71705 4.09304L8.82079 4.41226L8.54921 4.21497L8.27769 4.41226L8.3814 4.09304L8.10984 3.89572H8.4455L8.54924 3.5765ZM10.4493 3.5765L10.553 3.89572H10.8887L10.6171 4.09304L10.7208 4.41226L10.4493 4.21497L10.1777 4.41226L10.2815 4.09304L10.0099 3.89572H10.3456L10.4493 3.5765ZM1.8992 4.38419L2.00291 4.70344H2.33859L2.06701 4.90072L2.17078 5.21997L1.8992 5.02269L1.62765 5.21997L1.73136 4.90072L1.4598 4.70344H1.79549L1.8992 4.38419ZM3.79916 4.38419L3.90287 4.70344H4.23853L3.96697 4.90072L4.07068 5.21997L3.79916 5.02269L3.52758 5.21997L3.63132 4.90072L3.35974 4.70344H3.69542L3.79916 4.38419ZM5.69921 4.38419L5.80292 4.70344H6.1386L5.86702 4.90072L5.97076 5.21997L5.69918 5.02269L5.42766 5.21997L5.53137 4.90072L5.25981 4.70344H5.59547L5.69921 4.38419ZM7.59926 4.38419L7.70297 4.70344H8.03865L7.76707 4.90072L7.87081 5.21997L7.59926 5.02269L7.32768 5.21997L7.43145 4.90072L7.15986 4.70344H7.49555L7.59926 4.38419ZM9.49922 4.38419L9.60293 4.70344H9.93858L9.66703 4.90072L9.77074 5.21997L9.49922 5.02269L9.22764 5.21997L9.33138 4.90072L9.0598 4.70344H9.39548L9.49922 4.38419Z" fill="white"/>
<g id="Group_4">
<path id="Vector_5" fill-rule="evenodd" clip-rule="evenodd" d="M0.94916 5.19189L1.05287 5.51111H1.38855L1.11697 5.70843L1.22071 6.02765L0.949131 5.83036L0.677607 6.02765L0.781318 5.70843L0.509766 5.51111H0.84542L0.94916 5.19189ZM2.84915 5.19189L2.95289 5.51111H3.28857L3.01699 5.70843L3.12073 6.02765L2.84915 5.83036L2.57763 6.02765L2.68134 5.70843L2.40979 5.51111H2.74544L2.84915 5.19189ZM4.74923 5.19189L4.85294 5.51111H5.18862L4.91704 5.70843L5.02078 6.02765L4.74923 5.83036L4.47768 6.02765L4.58139 5.70843L4.30983 5.51111H4.64552L4.74923 5.19189ZM6.64919 5.19189L6.7529 5.51111H7.08855L6.817 5.70843L6.92071 6.02765L6.64919 5.83036L6.37761 6.02765L6.48135 5.70843L6.20977 5.51111H6.54545L6.64919 5.19189ZM8.54924 5.19189L8.65295 5.51111H8.98863L8.71705 5.70843L8.82079 6.02765L8.54921 5.83036L8.27769 6.02765L8.3814 5.70843L8.10984 5.51111H8.4455L8.54924 5.19189ZM10.4493 5.19189L10.553 5.51111H10.8887L10.6171 5.70843L10.7208 6.02765L10.4493 5.83036L10.1777 6.02765L10.2815 5.70843L10.0099 5.51111H10.3456L10.4493 5.19189ZM1.8992 5.99958L2.00291 6.31883H2.33859L2.06701 6.51611L2.17078 6.83536L1.8992 6.63808L1.62765 6.83536L1.73136 6.51611L1.4598 6.31883H1.79549L1.8992 5.99958ZM3.79916 5.99958L3.90287 6.31883H4.23853L3.96697 6.51611L4.07068 6.83536L3.79916 6.63808L3.52758 6.83536L3.63132 6.51611L3.35974 6.31883H3.69542L3.79916 5.99958ZM5.69921 5.99958L5.80292 6.31883H6.1386L5.86702 6.51611L5.97076 6.83536L5.69918 6.63808L5.42766 6.83536L5.53137 6.51611L5.25981 6.31883H5.59547L5.69921 5.99958ZM7.59926 5.99958L7.70297 6.31883H8.03865L7.76707 6.51611L7.87081 6.83536L7.59926 6.63808L7.32768 6.83536L7.43145 6.51611L7.15986 6.31883H7.49555L7.59926 5.99958ZM9.49922 5.99958L9.60293 6.31883H9.93858L9.66703 6.51611L9.77074 6.83536L9.49922 6.63808L9.22764 6.83536L9.33138 6.51611L9.0598 6.31883H9.39548L9.49922 5.99958Z" fill="white"/>
</g>
<g id="Group_5">
<path id="Vector_6" fill-rule="evenodd" clip-rule="evenodd" d="M0.94916 6.80713L1.05287 7.12635H1.38855L1.11697 7.32366L1.22071 7.64288L0.949131 7.4456L0.677607 7.64288L0.781318 7.32366L0.509766 7.12635H0.84542L0.94916 6.80713ZM2.84915 6.80713L2.95289 7.12635H3.28857L3.01699 7.32366L3.12073 7.64288L2.84915 7.4456L2.57763 7.64288L2.68134 7.32366L2.40979 7.12635H2.74544L2.84915 6.80713ZM4.74923 6.80713L4.85294 7.12635H5.18862L4.91704 7.32366L5.02078 7.64288L4.74923 7.4456L4.47768 7.64288L4.58139 7.32366L4.30983 7.12635H4.64552L4.74923 6.80713ZM6.64919 6.80713L6.7529 7.12635H7.08855L6.817 7.32366L6.92071 7.64288L6.64919 7.4456L6.37761 7.64288L6.48135 7.32366L6.20977 7.12635H6.54545L6.64919 6.80713ZM8.54924 6.80713L8.65295 7.12635H8.98863L8.71705 7.32366L8.82079 7.64288L8.54921 7.4456L8.27769 7.64288L8.3814 7.32366L8.10984 7.12635H8.4455L8.54924 6.80713ZM10.4493 6.80713L10.553 7.12635H10.8887L10.6171 7.32366L10.7208 7.64288L10.4493 7.4456L10.1777 7.64288L10.2815 7.32366L10.0099 7.12635H10.3456L10.4493 6.80713Z" fill="white"/>
</g>
</g>
</g>
</g>
<defs>
<clipPath id="clip0_939_8400">
<rect width="20" height="15" fill="white"/>
</clipPath>
</defs>
</svg>
