<svg width="30" height="29" viewBox="0 0 30 29" fill="none" xmlns="http://www.w3.org/2000/svg">
<path d="M8.02351 18.0611C8.30365 17.8995 8.39957 17.5408 8.23797 17.2607C8.07613 16.9808 7.71771 16.8846 7.43758 17.0462C7.15744 17.208 7.06129 17.5667 7.22312 17.8466C7.38467 18.1267 7.74338 18.2229 8.02351 18.0611Z" fill="#14171B"/>
<path d="M5.62408 22.1044L8.57486 27.2156C9.2116 28.3197 10.6439 28.7285 11.7767 28.0737C12.8976 27.4259 13.2827 25.9938 12.6343 24.8721L10.8765 21.827L12.3987 20.9481C12.6789 20.7861 12.775 20.4279 12.6132 20.1477L11.8513 18.828C11.9421 18.8104 12.5395 18.6932 23.0743 16.6266C24.3766 16.5559 25.1569 15.1315 24.4991 13.9928L22.5518 10.6201L23.7962 8.73522C23.8561 8.64439 23.8896 8.53867 23.8929 8.42988C23.8962 8.3211 23.8691 8.21355 23.8147 8.11928L22.6429 6.08959C22.5883 5.99544 22.5087 5.9183 22.4129 5.86678C22.317 5.81525 22.2088 5.79137 22.1002 5.79779L19.8459 5.93303L17.6841 2.18848C17.371 1.64607 16.81 1.3176 16.1838 1.3098C16.1762 1.30957 16.1689 1.30957 16.1613 1.30957C15.5562 1.30957 15.0069 1.6108 14.6814 2.12004L7.02716 11.8709L2.05103 14.7438C0.0938813 15.8733 -0.584166 18.3843 0.549799 20.3467C1.58574 22.1411 3.7697 22.847 5.62408 22.1045V22.1044ZM11.6197 25.4582C11.9433 26.0181 11.7518 26.7345 11.1902 27.0588C10.627 27.3845 9.90968 27.1845 9.5897 26.6299L6.66001 21.5549L8.6897 20.383C12.0804 26.2566 11.5652 25.3642 11.6197 25.4582ZM10.2905 20.8119L9.7046 19.7971L10.7194 19.2111L11.3054 20.226L10.2905 20.8119ZM21.809 6.98906L22.6188 8.39168L21.8967 9.48527L20.501 7.06758L21.809 6.98906ZM15.6615 2.76252C15.8187 2.50529 16.0682 2.47875 16.1694 2.48145C16.2694 2.48262 16.5186 2.51373 16.669 2.77424L23.4842 14.5788C23.7062 14.9631 23.4363 15.4462 22.9912 15.4573C22.9113 15.459 22.8745 15.4735 22.6698 15.5118L15.4607 3.02502C15.612 2.83049 15.6315 2.81174 15.6615 2.76252ZM14.681 4.01842L21.4542 15.7502L11.232 17.7552L8.12374 12.3717L14.681 4.01842ZM1.56464 19.7607C1.3076 19.3163 1.17201 18.8121 1.17148 18.2988C1.17148 17.2537 1.7331 16.2805 2.63691 15.7587L7.20382 13.122L10.1335 18.1962L5.56665 20.8332C4.16749 21.6407 2.37236 21.1596 1.5647 19.7607H1.56464Z" fill="#14171B"/>
<path d="M6.20905 18.432C6.04727 18.1519 5.6888 18.0558 5.40866 18.2176L4.39381 18.8035C4.11409 18.9651 3.75503 18.8687 3.59342 18.5891C3.43159 18.3089 3.07311 18.2128 2.79303 18.3746C2.51295 18.5365 2.41674 18.8949 2.57858 19.175C3.06081 20.0104 4.13659 20.305 4.97975 19.8184L5.9946 19.2324C6.27473 19.0707 6.37089 18.7124 6.20905 18.432ZM29.1282 2.56322L25.8632 4.38009C25.5805 4.53753 25.4787 4.89437 25.6361 5.17703C25.7931 5.45945 26.1497 5.56181 26.4331 5.40408L29.6978 3.58726C29.9808 3.42976 30.0824 3.07293 29.9249 2.79027C29.7677 2.50738 29.4108 2.40578 29.1282 2.56322ZM28.7857 8.63177L26.5219 8.02527C26.2092 7.94148 25.8879 8.12687 25.8041 8.43953C25.7203 8.75218 25.906 9.07334 26.2186 9.15707L28.4827 9.76363C28.7972 9.84806 29.1169 9.65968 29.2002 9.34937C29.284 9.03671 29.0984 8.71539 28.7857 8.63177ZM23.0967 0.43439L22.4894 2.69845C22.4057 3.01117 22.591 3.33226 22.9037 3.41623C23.2161 3.49978 23.5375 3.31486 23.6215 3.00197L24.2285 0.737906C24.3123 0.425249 24.1268 0.103921 23.8142 0.0201321C23.5018 -0.063657 23.1804 0.121734 23.0966 0.43439H23.0967Z" fill="#14171B"/>
</svg>
