<svg width="33" height="32" viewBox="0 0 33 32" fill="none" xmlns="http://www.w3.org/2000/svg">
<path d="M18.9452 31H4.8125V7.45858C4.8125 7.13675 4.91356 6.82305 5.10141 6.56174C5.28926 6.30042 5.55443 6.1047 5.85949 6.00217L18.9452 1.6036V31Z" stroke="#14171B" stroke-miterlimit="10" stroke-linecap="round" stroke-linejoin="round"/>
<path d="M26.9034 28.0469V31H18.9492V15.0506H27.7255C28.3071 15.0506 28.778 15.5214 28.778 16.1031V24.5458" stroke="#14171B" stroke-miterlimit="10" stroke-linecap="round" stroke-linejoin="round"/>
<path d="M18.9492 31H31.7432C32.1373 31 32.4569 30.6805 32.4569 30.2864V28.0471H18.9492V31Z" stroke="#14171B" stroke-miterlimit="10" stroke-linecap="round" stroke-linejoin="round"/>
<path d="M29.5452 24.4314H29.8131C31.2727 24.4314 32.4559 25.6147 32.4559 27.0743V28.0469H26.9023V27.0743C26.9023 25.6147 28.0856 24.4314 29.5452 24.4314Z" stroke="#14171B" stroke-miterlimit="10" stroke-linecap="round" stroke-linejoin="round"/>
<path d="M1.71365 31H4.81417V28.0471H1V30.2864C1 30.6805 1.31948 31 1.71365 31Z" stroke="#14171B" stroke-miterlimit="10" stroke-linecap="round" stroke-linejoin="round"/>
<path d="M4.44101 24.4314H4.81423V28.0469H1V27.8725C1 25.972 2.54064 24.4314 4.44101 24.4314Z" stroke="#14171B" stroke-miterlimit="10" stroke-linecap="round" stroke-linejoin="round"/>
<path d="M23.8637 15.0498H18.9492V1.60308L23.3951 5.90058C23.5434 6.04387 23.6612 6.21553 23.7417 6.40533C23.8222 6.59513 23.8637 6.79918 23.8637 7.00535V12.8123" stroke="#14171B" stroke-miterlimit="10" stroke-linecap="round" stroke-linejoin="round"/>
<path d="M8.26953 5.19238V1.9868C8.26953 1.44189 8.71129 1.00013 9.25684 1.00013H9.35683C9.90175 1.00013 10.3435 1.44189 10.3435 1.9868V4.49494" stroke="#14171B" stroke-miterlimit="10" stroke-linecap="round" stroke-linejoin="round"/>
<path d="M18.9451 5.19082L8.26953 8.7793" stroke="#14171B" stroke-miterlimit="10" stroke-linecap="round" stroke-linejoin="round"/>
<path d="M18.9451 8.60683L8.26953 12.1953" stroke="#14171B" stroke-miterlimit="10" stroke-linecap="round" stroke-linejoin="round"/>
<path d="M18.9451 12.0238L8.26953 15.6123" stroke="#14171B" stroke-miterlimit="10" stroke-linecap="round" stroke-linejoin="round"/>
<path d="M18.9451 15.4398L8.26953 19.0283" stroke="#14171B" stroke-miterlimit="10" stroke-linecap="round" stroke-linejoin="round"/>
<path d="M10.0319 21.8529L8.26953 22.4453" stroke="#14171B" stroke-miterlimit="10" stroke-linecap="round" stroke-linejoin="round"/>
<path d="M18.9477 18.8561L12.1602 21.1377" stroke="#14171B" stroke-miterlimit="10" stroke-linecap="round" stroke-linejoin="round"/>
<path d="M13.895 31H8.26953V26.9676C8.26953 26.6549 8.47775 26.3805 8.77888 26.2965L13.1969 25.0631C13.5476 24.9652 13.895 25.2289 13.895 25.593V31Z" stroke="#14171B" stroke-miterlimit="10" stroke-linecap="round" stroke-linejoin="round"/>
<path d="M26.1566 18.9658H21.5016C21.4152 18.9658 21.3323 18.9315 21.2712 18.8704C21.2101 18.8093 21.1758 18.7264 21.1758 18.64V17.4975C21.1758 17.4547 21.1842 17.4123 21.2006 17.3728C21.2169 17.3332 21.2409 17.2973 21.2712 17.267C21.3014 17.2368 21.3374 17.2128 21.3769 17.1964C21.4164 17.18 21.4588 17.1716 21.5016 17.1716H26.1566C26.243 17.1716 26.3259 17.2059 26.387 17.267C26.4481 17.3281 26.4824 17.411 26.4824 17.4975V18.64C26.4824 18.6828 26.474 18.7252 26.4576 18.7647C26.4412 18.8042 26.4172 18.8402 26.387 18.8704C26.3567 18.9007 26.3208 18.9247 26.2813 18.941C26.2417 18.9574 26.1993 18.9658 26.1566 18.9658Z" stroke="#14171B" stroke-miterlimit="10" stroke-linecap="round" stroke-linejoin="round"/>
<path d="M26.1566 22.5752H21.5016C21.4588 22.5752 21.4164 22.5668 21.3769 22.5504C21.3374 22.534 21.3014 22.51 21.2712 22.4797C21.2409 22.4495 21.2169 22.4136 21.2006 22.374C21.1842 22.3345 21.1758 22.2921 21.1758 22.2493V21.1068C21.1758 21.0204 21.2101 20.9375 21.2712 20.8764C21.3323 20.8153 21.4152 20.781 21.5016 20.781H26.1566C26.1993 20.7809 26.2417 20.7894 26.2813 20.8057C26.3208 20.8221 26.3567 20.8461 26.387 20.8764C26.4172 20.9066 26.4412 20.9425 26.4576 20.9821C26.474 21.0216 26.4824 21.064 26.4824 21.1068V22.2493C26.4824 22.3357 26.4481 22.4186 26.387 22.4797C26.3259 22.5409 26.243 22.5752 26.1566 22.5752Z" stroke="#14171B" stroke-miterlimit="10" stroke-linecap="round" stroke-linejoin="round"/>
<path d="M23.0413 26.2207H21.5016C21.4588 26.2207 21.4164 26.2123 21.3769 26.1959C21.3374 26.1795 21.3015 26.1555 21.2712 26.1253C21.241 26.095 21.217 26.0591 21.2006 26.0196C21.1842 25.98 21.1758 25.9377 21.1758 25.8949V24.7523C21.1758 24.7095 21.1842 24.6672 21.2006 24.6276C21.2169 24.5881 21.2409 24.5522 21.2712 24.5219C21.3014 24.4917 21.3374 24.4676 21.3769 24.4513C21.4164 24.4349 21.4588 24.4265 21.5016 24.4265H23.0413C23.1277 24.4265 23.2106 24.4608 23.2717 24.5219C23.3328 24.583 23.3672 24.6659 23.3672 24.7523V25.8949C23.3672 25.9377 23.3587 25.9801 23.3424 26.0196C23.326 26.0591 23.302 26.095 23.2717 26.1253C23.2414 26.1556 23.2055 26.1796 23.166 26.1959C23.1264 26.2123 23.0841 26.2207 23.0413 26.2207Z" stroke="#14171B" stroke-miterlimit="10" stroke-linecap="round" stroke-linejoin="round"/>
<path d="M11.082 25.6534V31" stroke="#14171B" stroke-miterlimit="10" stroke-linecap="round" stroke-linejoin="round"/>
</svg>
