<svg width="30" height="30" viewBox="0 0 30 30" fill="none" xmlns="http://www.w3.org/2000/svg">
<g clip-path="url(#clip0_11372_28480)">
<path d="M5.75391 24.6606V5.36854L14.6034 4.29785V12.427" stroke="#14171B" stroke-width="0.878906" stroke-miterlimit="10" stroke-linecap="round" stroke-linejoin="round"/>
<path d="M18.2992 11.8411V5.14541L14.5977 4.29785M18.2992 8.48344L25.3003 7.41281V11.8411" stroke="#14171B" stroke-width="0.878906" stroke-miterlimit="10" stroke-linecap="round" stroke-linejoin="round"/>
<path d="M28.2191 11.8407V8.25994L25.2906 7.41238M7.87891 5.09025V3.17664L13.5094 2.3916V4.40055" stroke="#14171B" stroke-width="0.878906" stroke-miterlimit="10" stroke-linecap="round" stroke-linejoin="round"/>
<path d="M15.8607 4.47262V2.93125L13.5057 2.39195M0.929688 27.9815V10.5904L5.68932 9.90643M4.05291 12.2412L1.0808 12.6127M4.05291 14.4401L1.0808 14.8115M4.05291 16.6389L1.0808 17.0104M4.05291 18.8378L1.0808 19.2093M4.05291 21.0366L1.0808 21.4081M12.273 0.786133V2.46414M10.4618 1.06475V2.74275M26.9958 6.19182V7.86982M7.89748 7.48111V23.1913M10.2164 7.12111V21.7821M12.5354 7.00111V13.977M28.2207 21.092V29.0845H14.0374V21.092" stroke="#14171B" stroke-width="0.878906" stroke-miterlimit="10" stroke-linecap="round" stroke-linejoin="round"/>
<path d="M24.8645 29.0483V23.1912H17.3894V29.0483M21.127 23.2275V29.012M26.4513 19.2267V19.7609C26.4513 20.496 27.0472 21.092 27.7823 21.092C28.5174 21.092 29.1134 20.496 29.1134 19.7609V19.2267L26.9939 16.5985V14.8535H15.2601V16.5985L13.1406 19.2267V19.7609C13.1406 20.496 13.7366 21.092 14.4717 21.092C15.2068 21.092 15.8028 20.496 15.8028 19.7609V19.2267" stroke="#14171B" stroke-width="0.878906" stroke-miterlimit="10" stroke-linecap="round" stroke-linejoin="round"/>
<path d="M18.4668 19.2266V19.7608C18.4668 20.4959 17.8709 21.0919 17.1358 21.0919C16.4006 21.0919 15.8047 20.4959 15.8047 19.7608V19.2266" stroke="#14171B" stroke-width="0.878906" stroke-miterlimit="10" stroke-linecap="round" stroke-linejoin="round"/>
<path d="M21.1309 19.2266V19.7608M21.1309 19.7608C21.1309 20.4959 20.5349 21.0919 19.7998 21.0919C19.0647 21.0919 18.4688 20.4959 18.4688 19.7608V19.2266M21.1309 19.7608C21.1309 20.4959 21.7269 21.0919 22.462 21.0919C23.1971 21.0919 23.793 20.4959 23.793 19.7608V19.2266" stroke="#14171B" stroke-width="0.878906" stroke-miterlimit="10" stroke-linecap="round" stroke-linejoin="round"/>
<path d="M26.4528 19.2268V19.7611C26.4528 20.4962 25.8568 21.0921 25.1217 21.0921C24.3866 21.0921 23.7906 20.4962 23.7906 19.7611V19.2268M15.2617 16.5986H18.4664M23.7907 16.5986H26.9954" stroke="#14171B" stroke-width="0.878906" stroke-miterlimit="10" stroke-linecap="round" stroke-linejoin="round"/>
</g>
<defs>
<clipPath id="clip0_11372_28480">
<rect width="30" height="30" fill="white"/>
</clipPath>
</defs>
</svg>
