<svg width="30" height="30" viewBox="0 0 30 30" fill="none" xmlns="http://www.w3.org/2000/svg">
<g clip-path="url(#clip0_11372_28432)">
<path d="M5.32777 15.0775C5.20345 15.0775 5.08423 15.1269 4.99632 15.2148C4.90841 15.3027 4.85902 15.4219 4.85902 15.5463V22.255C4.85902 22.3793 4.90841 22.4985 4.99632 22.5865C5.08423 22.6744 5.20345 22.7238 5.32777 22.7238H16.2596C16.384 22.7238 16.5032 22.6744 16.5911 22.5865C16.679 22.4985 16.7284 22.3793 16.7284 22.255V15.5463C16.7284 15.4219 16.679 15.3027 16.5911 15.2148C16.5032 15.1269 16.384 15.0775 16.2596 15.0775H5.32777ZM15.7909 21.7863H5.79652V16.015H15.7909V21.7863ZM2.99465 12.4644C3.61197 12.527 4.23445 12.4144 4.79071 12.1395C5.34697 11.8646 5.81448 11.4385 6.13965 10.91C6.41772 11.4484 6.83582 11.9019 7.34992 12.2227C7.86403 12.5434 8.45512 12.7197 9.06095 12.7328C9.66679 12.7459 10.2649 12.5954 10.7925 12.2972C11.32 11.9989 11.7573 11.564 12.0584 11.0381C12.1911 11.2666 12.3494 11.4792 12.5303 11.6719C12.848 12.0073 13.2308 12.2745 13.6553 12.4571C14.0798 12.6396 14.537 12.7338 14.999 12.7338C15.4611 12.7338 15.9183 12.6396 16.3428 12.4571C16.7672 12.2745 17.15 12.0073 17.4678 11.6719C17.6486 11.4792 17.8069 11.2666 17.9396 11.0381C18.2419 11.5626 18.6797 11.9961 19.207 12.2932C19.7344 12.5904 20.332 12.7402 20.9372 12.727C21.5423 12.7139 22.1328 12.5382 22.6468 12.2184C23.1607 11.8986 23.5792 11.4465 23.8584 10.9094C24.279 11.5872 24.9296 12.0909 25.6912 12.3283C26.4528 12.5658 27.2744 12.5211 28.0057 12.2024C28.737 11.8837 29.3291 11.3123 29.6737 10.5929C30.0182 9.87341 30.0923 9.05393 29.8821 8.28438L28.3115 2.49062V0.46875C28.3115 0.34443 28.2621 0.225201 28.1742 0.137294C28.0863 0.049386 27.9671 0 27.8428 0L2.1534 0C2.0294 0.000495984 1.91066 0.0501009 1.82315 0.137955C1.73565 0.225809 1.68652 0.344754 1.68652 0.46875V2.495L0.115899 8.28625C-0.0104988 8.75232 -0.0338414 9.24032 0.0474946 9.71632C0.128831 10.1923 0.312892 10.6449 0.586876 11.0425C0.860859 11.4402 1.21819 11.7734 1.634 12.0189C2.04981 12.2645 2.51413 12.4165 2.99465 12.4644ZM9.14152 11.7963C8.78697 11.7963 8.43665 11.7193 8.1148 11.5706C7.79296 11.4219 7.50729 11.205 7.27758 10.9349C7.04787 10.6648 6.87962 10.348 6.78447 10.0065C6.68932 9.66496 6.66955 9.30682 6.72652 8.95687L7.6909 3.0225H11.9365L11.6046 9.1475L11.5865 9.47937C11.5529 10.1051 11.2807 10.6941 10.8258 11.1251C10.371 11.5562 9.76815 11.7964 9.14152 11.7963ZM16.7871 11.0275C16.4406 11.3944 15.9896 11.6461 15.4953 11.7483C15.001 11.8505 14.4872 11.7984 14.0235 11.599C13.5598 11.3996 13.1685 11.0625 12.9027 10.6335C12.6368 10.2044 12.5092 9.70399 12.5371 9.2L12.5565 8.83937L12.869 3.0225H17.119L17.4315 8.83937L17.4509 9.2C17.4714 9.53384 17.423 9.86833 17.3089 10.1827C17.1947 10.4971 17.0171 10.7846 16.7871 11.0275ZM22.7203 10.935C22.403 11.3077 21.9812 11.5767 21.5095 11.7072C21.0378 11.8378 20.5378 11.8239 20.074 11.6674C19.6103 11.5109 19.2041 11.2189 18.908 10.8292C18.6118 10.4395 18.4393 9.96998 18.4128 9.48125L18.3946 9.14937L18.0628 3.02438H22.3071L23.2715 8.95875C23.3288 9.30882 23.3092 9.66717 23.214 10.0089C23.1188 10.3506 22.9503 10.6675 22.7203 10.9375V10.935ZM28.6384 10.5106C28.368 10.9029 27.9865 11.2054 27.5428 11.3791C27.0991 11.5528 26.6136 11.5897 26.1488 11.4852C25.6839 11.3807 25.261 11.1395 24.9343 10.7926C24.6077 10.4457 24.3923 10.009 24.3159 9.53875L23.2565 3.0225H27.4853L28.9771 8.53125C29.0681 8.86595 29.085 9.21648 29.0264 9.55836C28.9679 9.90024 28.8355 10.2252 28.6384 10.5106ZM2.62402 0.9375H27.374V2.085H2.62402V0.9375ZM1.0209 8.53125L2.51277 3.0225H6.74152L6.0884 7.04L5.8009 8.80625L5.68215 9.53813C5.63005 9.85771 5.51348 10.1634 5.33954 10.4365C5.1656 10.7096 4.93792 10.9445 4.67034 11.1269C4.40277 11.3092 4.1009 11.4352 3.78309 11.4973C3.46527 11.5593 3.13817 11.556 2.82166 11.4877C2.50515 11.4193 2.20586 11.2872 1.94199 11.0996C1.67811 10.9119 1.45517 10.6725 1.28673 10.396C1.11828 10.1194 1.00785 9.81149 0.962153 9.49093C0.916453 9.17036 0.93644 8.84385 1.0209 8.53125Z" fill="#14171B"/>
<path d="M29.5312 26.9565H28.3125V13.5059C28.3125 13.3815 28.2631 13.2623 28.1752 13.1744C28.0873 13.0865 27.9681 13.0371 27.8438 13.0371C27.7194 13.0371 27.6002 13.0865 27.5123 13.1744C27.4244 13.2623 27.375 13.3815 27.375 13.5059V26.9565H25.8031V15.5465C25.8031 15.4222 25.7537 15.3029 25.6658 15.215C25.5779 15.1271 25.4587 15.0777 25.3344 15.0777H19.2587C19.1344 15.0777 19.0152 15.1271 18.9273 15.215C18.8394 15.3029 18.79 15.4222 18.79 15.5465V26.9565H2.625V13.5109C2.625 13.3865 2.57561 13.2673 2.48771 13.1794C2.3998 13.0915 2.28057 13.0421 2.15625 13.0421C2.03193 13.0421 1.9127 13.0915 1.82479 13.1794C1.73689 13.2673 1.6875 13.3865 1.6875 13.5109V26.9565H0.46875C0.34443 26.9565 0.225201 27.0059 0.137294 27.0938C0.049386 27.1817 0 27.3009 0 27.4252L0 29.5315C0 29.6558 0.049386 29.775 0.137294 29.8629C0.225201 29.9509 0.34443 30.0002 0.46875 30.0002H29.5312C29.6556 30.0002 29.7748 29.9509 29.8627 29.8629C29.9506 29.775 30 29.6558 30 29.5315V27.4252C30 27.3009 29.9506 27.1817 29.8627 27.0938C29.7748 27.0059 29.6556 26.9565 29.5312 26.9565ZM19.7275 16.0152H24.8656V26.9565H19.7275V16.0152ZM29.0625 29.0627H0.9375V27.894H29.0625V29.0627Z" fill="#14171B"/>
</g>
<defs>
<clipPath id="clip0_11372_28432">
<rect width="30" height="30" fill="white"/>
</clipPath>
</defs>
</svg>
