<svg width="30" height="30" viewBox="0 0 30 30" fill="none" xmlns="http://www.w3.org/2000/svg">
<g clip-path="url(#clip0_11372_28467)">
<path d="M19.8503 10.1511L19.8503 10.1511C19.1456 9.44593 19.1455 8.299 19.8502 7.59433C20.5566 6.88791 21.7004 6.88779 22.4069 7.59433C23.1133 8.30069 23.1135 9.44451 22.4069 10.151C22.4069 10.151 22.4069 10.151 22.4069 10.151M19.8503 10.1511L19.8857 10.1158C20.5712 10.8008 21.6864 10.8008 22.3716 10.1156L22.4069 10.151M19.8503 10.1511C20.5553 10.8557 21.7023 10.8557 22.4069 10.151M19.8503 10.1511L22.4069 10.151M19.0924 10.9091C17.9697 9.78575 17.9698 7.95881 19.0922 6.83641C20.2177 5.71101 22.0395 5.71107 23.1649 6.83641C24.2904 7.96186 24.2901 9.7837 23.1649 10.909C22.0422 12.0317 20.2152 12.0312 19.0924 10.9091ZM19.0924 10.9091L19.057 10.9445L19.0924 10.9091ZM15.7075 14.2943L15.7076 14.2943C15.9165 14.5032 15.9166 14.8425 15.7076 15.0521C15.498 15.2611 15.1587 15.2611 14.9492 15.0521C14.7401 14.8425 14.7402 14.5032 14.9492 14.2943L14.9492 14.2943C14.999 14.2444 15.0581 14.2049 15.1231 14.1779C15.1882 14.151 15.2579 14.1371 15.3284 14.1371C15.3988 14.1371 15.4685 14.151 15.5336 14.1779C15.5987 14.2049 15.6578 14.2444 15.7075 14.2943Z" fill="#14171B" stroke="white" stroke-width="0.1"/>
<path d="M29.7921 0.206967L29.7921 0.206925C29.7401 0.154797 29.6779 0.113982 29.6094 0.0870407C29.5409 0.0601002 29.4676 0.0476168 29.394 0.0503749L29.3939 0.0503781C29.264 0.0550324 26.1153 0.181459 22.3722 1.50443L22.3722 1.50443C19.3734 2.56325 16.8757 4.07853 14.9471 6.0072C14.5095 6.44545 14.0904 6.90177 13.6909 7.37499L13.6636 7.40722L13.6273 7.38582C11.7317 6.27 10.2175 6.6207 9.26126 7.13246C8.15778 7.72302 7.26084 8.82251 6.63945 10.0667C6.0182 11.3105 5.67525 12.6932 5.67524 13.844C5.67534 13.9861 5.73185 14.1224 5.83236 14.2229C5.93286 14.3234 6.06913 14.3799 6.21125 14.3799L29.7921 0.206967ZM29.7921 0.206967C29.8974 0.312237 29.9541 0.456461 29.9488 0.605172L29.9987 0.606973L29.9488 0.605182C29.9441 0.735047 29.8177 3.88387 28.4947 7.62707L28.4947 7.62708C27.4359 10.6256 25.9207 13.1234 23.992 15.052C23.5537 15.4896 23.0974 15.9087 22.6242 16.3083L22.592 16.3355L22.6134 16.3718C23.7292 18.2675 23.3785 19.7817 22.8667 20.7378C22.2762 21.8413 21.1767 22.7382 19.9326 23.3596C18.6887 23.9809 17.306 24.3238 16.1553 24.3238C16.0493 24.3238 15.9457 24.2924 15.8575 24.2335C15.7694 24.1746 15.7007 24.0909 15.6602 23.993C15.6196 23.8951 15.609 23.7873 15.6297 23.6834C15.6503 23.5794 15.7014 23.4839 15.7763 23.409C16.9694 22.2159 16.8943 20.7448 16.8313 20.2649L16.8291 20.248L16.8171 20.236L16.6119 20.0308L16.5881 20.0071L16.5572 20.0201C15.5982 20.4231 14.645 20.7475 13.7187 20.9854C13.41 21.0645 13.066 21.0485 12.731 20.9168L12.6871 20.8995L12.6673 20.9424C12.41 21.5008 12.0318 22.0401 11.562 22.5099C10.8185 23.2534 9.53473 23.7046 8.40868 23.971C7.28521 24.2368 6.33013 24.3162 6.25349 24.3222L6.25741 24.3721L6.25348 24.3222C6.17623 24.3283 6.09858 24.3176 6.02588 24.2908C5.95318 24.2639 5.88716 24.2217 5.83237 24.1669C5.77758 24.1121 5.73533 24.0461 5.70852 23.9734C5.68171 23.9007 5.67098 23.823 5.67708 23.7458C5.68314 23.6691 5.76252 22.7141 6.02833 21.5906C6.29474 20.4646 6.74595 19.1808 7.48943 18.4373C7.95939 17.9673 8.49884 17.5891 9.05732 17.3317L9.10021 17.312L9.08293 17.268C8.95847 16.9516 8.93053 16.6064 9.01388 16.281C9.25181 15.3542 9.5763 14.401 9.97927 13.4421L9.99228 13.4111L9.96853 13.3874L9.76333 13.1822L9.75133 13.1702M29.7921 0.206967L9.75133 13.1702M9.75133 13.1702L9.7345 13.1679M9.75133 13.1702L9.7345 13.1679M9.7345 13.1679C9.25467 13.1049 7.78349 13.0298 6.59032 14.223C6.54054 14.2727 6.48144 14.3122 6.4164 14.3392C6.35136 14.3661 6.28166 14.38 6.21127 14.3799L9.7345 13.1679ZM6.88632 12.5736L6.86479 12.6778L6.95875 12.6279C8.51564 11.8004 10.0512 12.1308 10.1281 12.1482L10.1281 12.1482C10.2174 12.1683 10.2864 12.2087 10.3342 12.2449C10.3581 12.263 10.3766 12.28 10.3897 12.2928C10.3963 12.2992 10.4015 12.3046 10.4056 12.3089L10.4114 12.3148L10.4115 12.3149C10.4121 12.3155 10.417 12.3205 10.423 12.3241L10.4701 12.3532L10.4943 12.3034C11.1782 10.8903 12.0011 9.54888 12.9509 8.29894L12.986 8.25271L12.9351 8.22483C11.8092 7.60855 10.7434 7.55512 9.76726 8.07748C9.03971 8.46687 8.41099 9.14977 7.91902 9.95386C7.4268 10.7583 7.06943 11.6874 6.88632 12.5736ZM6.82908 23.1135L6.81945 23.1798L6.88575 23.1702C7.48471 23.0832 8.25866 22.9331 8.98456 22.7034C9.70872 22.4742 10.3924 22.1637 10.8041 21.752C11.2598 21.2963 11.6061 20.7671 11.8016 20.2337L11.8126 20.2037L11.79 20.1811L9.81818 18.2093L9.7956 18.1868L9.76562 18.1977C9.2322 18.3932 8.70304 18.7395 8.24735 19.1952C7.83567 19.6069 7.52511 20.2905 7.29595 21.0147C7.06623 21.7406 6.91611 22.5145 6.82908 23.1135ZM13.4524 19.947L13.4524 19.947C14.1852 19.7589 14.937 19.5129 15.6959 19.2136L15.7669 19.1857L15.7129 19.1318L10.8675 14.2864L10.8136 14.2325L10.7857 14.3034C10.4865 15.0622 10.2404 15.8141 10.0521 16.5472L10.0521 16.5472C10.0036 16.7369 10.0758 16.9507 10.2318 17.107L10.2318 17.107L11.745 18.6203L11.7804 18.5849L11.745 18.6203L12.8927 19.7679L12.8927 19.7679C13.0486 19.9235 13.2624 19.9957 13.4524 19.947ZM17.3716 23.0405L17.3216 23.1345L17.4258 23.1129C18.312 22.9298 19.241 22.5725 20.0455 22.0803C20.8495 21.5883 21.5324 20.9596 21.9218 20.232C22.4441 19.2561 22.3908 18.1901 21.7745 17.0642L21.7466 17.0132L21.7004 17.0484C20.4504 17.9981 19.109 18.821 17.696 19.505L17.6461 19.5291L17.6752 19.5763C17.6786 19.5818 17.6828 19.5862 17.6841 19.5874L17.6842 19.5876L17.6905 19.5939L17.6933 19.5966C17.6971 19.6003 17.7013 19.6044 17.7063 19.6094C17.7186 19.6219 17.7347 19.6392 17.752 19.6616C17.7866 19.7064 17.8257 19.7715 17.8475 19.8581L17.8959 19.8459L17.8475 19.8581C18.0494 20.6612 17.9277 21.9939 17.3716 23.0405ZM23.2341 14.2942L23.2342 14.2941C24.9761 12.5523 26.3611 10.3055 27.3576 7.61569L27.3687 7.58563L27.346 7.56296L22.4363 2.65328L22.4137 2.63061L22.3836 2.64175C19.6937 3.63828 17.4469 5.02337 15.7052 6.76515C15.1762 7.29414 14.665 7.86407 14.1855 8.45916L14.1855 8.45917C13.0346 9.8885 12.0597 11.4618 11.2836 13.1405L11.269 13.1721L11.2936 13.1968L16.8026 18.7057L16.8273 18.7303L16.859 18.7157C18.5375 17.9396 20.1108 16.9647 21.5403 15.8137C22.1316 15.3377 22.697 14.8305 23.2341 14.2942ZM27.6969 6.39787L27.7554 6.45642L27.78 6.37735C28.4743 4.14205 28.7344 2.19732 28.8279 1.226L28.8337 1.16563L28.7734 1.17144C27.8022 1.26494 25.8575 1.52494 23.622 2.2193L23.5429 2.24386L23.6014 2.30241L27.6969 6.39787Z" fill="#14171B" stroke="white" stroke-width="0.1"/>
<path d="M12.4275 26.6879L12.3921 26.6526L14.0492 24.995C14.2584 24.7856 14.2583 24.4463 14.0491 24.237C13.8397 24.0278 13.5003 24.0279 13.2911 24.2372L11.634 25.8948C11.4248 26.1041 11.4249 26.4435 11.6341 26.6527L12.4275 26.6879ZM12.4275 26.6879L12.3921 26.6526M12.4275 26.6879L12.3921 26.6526M12.3921 26.6526C12.1829 26.8619 11.8436 26.8619 11.6341 26.6527L12.3921 26.6526ZM3.34735 17.6078L3.34735 17.6077L5.00496 15.9507C5.00496 15.9507 5.00496 15.9507 5.00497 15.9507C5.21437 15.7415 5.55367 15.7415 5.76289 15.9508C5.97212 16.1602 5.97206 16.4995 5.76273 16.7087L5.79807 16.7441L5.76272 16.7087L4.10511 18.3658C3.89566 18.5751 3.55637 18.5749 3.34719 18.3657C3.13796 18.1563 3.13801 17.817 3.34735 17.6078ZM9.90599 25.0662L9.906 25.0662C10.1153 25.2755 10.1153 25.6148 9.90595 25.8241L9.9413 25.8595L9.90594 25.8241L5.9368 29.7927L5.97216 29.828L5.9368 29.7927C5.72746 30.002 5.38805 30.0019 5.17889 29.7926L5.14352 29.828L5.17888 29.7926C4.9696 29.5833 4.9696 29.244 5.17893 29.0347L5.14358 28.9993L5.17893 29.0347L9.14807 25.0662C9.14807 25.0661 9.14807 25.0661 9.14808 25.0661C9.35743 24.8569 9.69684 24.8569 9.90599 25.0662ZM5.2185 25.0662L5.25386 25.0308L5.2185 25.0662C5.42778 25.2755 5.42778 25.6148 5.21845 25.8241L5.2538 25.8595L5.21844 25.8241L1.2493 29.7927L1.28466 29.828L1.2493 29.7927C1.03996 30.002 0.700555 30.0019 0.491387 29.7926L0.491378 29.7926C0.282097 29.5833 0.282097 29.244 0.491432 29.0347L4.46057 25.0661C4.66986 24.8569 5.00927 24.8569 5.2185 25.0662ZM0.965177 24.8209L1.00026 24.856L0.965175 24.8209C0.755893 25.0303 0.416539 25.0303 0.207257 24.821C-0.00208454 24.6117 -0.00208453 24.2724 0.207201 24.063L4.17575 20.0939C4.38504 19.8846 4.72445 19.8846 4.93368 20.0938C5.14302 20.3032 5.14302 20.6425 4.93373 20.8518L0.965177 24.8209ZM17.4343 11.8076C17.6437 11.5983 17.983 11.5983 18.1923 11.8075C18.4016 12.0169 18.4016 12.3562 18.1923 12.5655L17.3638 13.394C17.1545 13.6033 16.8152 13.6033 16.6058 13.394C16.3965 13.1847 16.3966 12.8453 16.6058 12.6361L17.4343 11.8076Z" fill="#14171B" stroke="white" stroke-width="0.1"/>
</g>
<defs>
<clipPath id="clip0_11372_28467">
<rect width="30" height="30" fill="white"/>
</clipPath>
</defs>
</svg>
