<svg width="30" height="30" viewBox="0 0 30 30" fill="none" xmlns="http://www.w3.org/2000/svg">
<g clip-path="url(#clip0_11372_28456)">
<path d="M24.1664 5.56875L24.2018 5.53339C24.1023 5.43389 24.0453 5.29551 24.0453 5.15459C24.0456 5.01256 24.1018 4.87637 24.2018 4.77552C24.3014 4.67599 24.4398 4.61858 24.5811 4.61855C24.7232 4.61907 24.8594 4.67548 24.9602 4.77559C25.0598 4.87521 25.1172 5.01367 25.1172 5.15449C25.1172 5.29532 25.0598 5.43377 24.9602 5.53339C24.8606 5.63299 24.7221 5.6904 24.5814 5.69043C24.439 5.68992 24.3027 5.63347 24.2016 5.53325L24.1664 5.56875ZM24.1664 5.56875C24.0574 5.45977 23.9953 5.30859 23.9953 5.15449L24.5812 5.74043C24.4258 5.7399 24.2768 5.67823 24.1664 5.56875ZM16.5234 16.5734H16.5734V16.5234V13.4766V13.4266H16.5234H13.4766H13.4266V13.4766V16.5234V16.5734H13.4766H16.5234ZM12.8906 12.3547H17.1094C17.4054 12.3547 17.6453 12.5947 17.6453 12.8906V17.1094C17.6453 17.4053 17.4054 17.6453 17.1094 17.6453H12.8906C12.5946 17.6453 12.3547 17.4053 12.3547 17.1094V12.8906C12.3547 12.5947 12.5946 12.3547 12.8906 12.3547ZM26.0656 5.15625C26.0656 4.08535 26.9369 3.21406 28.0078 3.21406C29.0787 3.21406 29.95 4.08535 29.95 5.15625C29.95 6.22715 29.0787 7.09844 28.0078 7.09844C26.9369 7.09844 26.0656 6.22715 26.0656 5.15625ZM27.1375 5.15625C27.1375 5.63621 27.5279 6.02656 28.0078 6.02656C28.4878 6.02656 28.8781 5.63621 28.8781 5.15625C28.8781 4.67629 28.4878 4.28594 28.0078 4.28594C27.5279 4.28594 27.1375 4.67629 27.1375 5.15625Z" fill="#14171B" stroke="white" stroke-width="0.1"/>
<mask id="path-2-inside-1_11372_28456" fill="white">
<path d="M24.3477 15.5859C24.5985 16.3994 25.3572 16.9922 26.2518 16.9922C27.3503 16.9922 28.244 16.0985 28.244 15C28.244 13.9015 27.3503 13.0078 26.2518 13.0078C25.3571 13.0078 24.5985 13.6006 24.3477 14.4141H20.7422V9.84375C20.7422 9.5202 20.4799 9.25781 20.1562 9.25781H19.2187V5.74043H22.5013C22.8249 5.74043 23.0872 5.47805 23.0872 5.15449C23.0872 4.83094 22.8249 4.56855 22.5013 4.56855H18.6328C18.3092 4.56855 18.0469 4.83094 18.0469 5.15449V9.25781H15.5859V5.65236C16.3993 5.40152 16.9922 4.64291 16.9922 3.74824C16.9922 2.64973 16.0985 1.75605 15 1.75605C13.9015 1.75605 13.0078 2.64973 13.0078 3.74824C13.0078 4.64291 13.6007 5.40158 14.4141 5.65236V9.25781H9.84375C9.52014 9.25781 9.25781 9.5202 9.25781 9.84375V10.7812H5.74037V3.89684C6.55471 3.64658 7.14844 2.8875 7.14844 1.99219C7.14844 0.893672 6.25477 0 5.15625 0C4.05773 0 3.16406 0.893672 3.16406 1.99219C3.16406 2.88621 3.75604 3.64441 4.5685 3.89578V11.3672C4.5685 11.6907 4.83082 11.9531 5.15443 11.9531H9.25781V14.4141H5.6523C5.40146 13.6006 4.64279 13.0078 3.74818 13.0078C2.64967 13.0078 1.756 13.9015 1.756 15C1.756 16.0985 2.64967 16.9922 3.74818 16.9922C4.64285 16.9922 5.40152 16.3994 5.6523 15.5859H9.25781V20.1562C9.25781 20.4798 9.52014 20.7422 9.84375 20.7422H10.7812V24.2596H7.49871C7.1751 24.2596 6.91277 24.522 6.91277 24.8455C6.91277 25.1691 7.1751 25.4314 7.49871 25.4314H11.3672C11.6908 25.4314 11.9531 25.1691 11.9531 24.8455V20.7422H14.4141V24.3476C13.6007 24.5985 13.0078 25.3571 13.0078 26.2518C13.0078 27.3503 13.9015 28.2439 15 28.2439C16.0985 28.2439 16.9922 27.3503 16.9922 26.2518C16.9922 25.3571 16.3993 24.5984 15.5859 24.3476V20.7422H20.1562C20.4799 20.7422 20.7422 20.4798 20.7422 20.1562V19.2188H24.2596V26.1032C23.4453 26.3534 22.8516 27.1125 22.8516 28.0078C22.8516 29.1063 23.7452 30 24.8437 30C25.9423 30 26.8359 29.1063 26.8359 28.0078C26.8359 27.1138 26.244 26.3556 25.4315 26.1042V18.6328C25.4315 18.3093 25.1692 18.0469 24.8456 18.0469H20.7422V15.5859H24.3477ZM26.2518 14.1797C26.7042 14.1797 27.0721 14.5477 27.0721 15C27.0721 15.4523 26.7041 15.8203 26.2518 15.8203C25.7995 15.8203 25.4315 15.4523 25.4315 15C25.4315 14.5477 25.7995 14.1797 26.2518 14.1797ZM5.15625 2.8125C4.70391 2.8125 4.33594 2.44453 4.33594 1.99219C4.33594 1.53984 4.70391 1.17188 5.15625 1.17188C5.60859 1.17188 5.97656 1.53984 5.97656 1.99219C5.97656 2.44453 5.60859 2.8125 5.15625 2.8125ZM3.74818 15.8203C3.29584 15.8203 2.92787 15.4523 2.92787 15C2.92787 14.5477 3.29584 14.1797 3.74818 14.1797C4.20053 14.1797 4.5685 14.5477 4.5685 15C4.5685 15.4523 4.20053 15.8203 3.74818 15.8203ZM14.1797 3.74824C14.1797 3.2959 14.5477 2.92793 15 2.92793C15.4523 2.92793 15.8203 3.2959 15.8203 3.74824C15.8203 4.20059 15.4523 4.56855 15 4.56855C14.5477 4.56855 14.1797 4.20059 14.1797 3.74824ZM15.8203 26.2518C15.8203 26.7041 15.4523 27.0721 15 27.0721C14.5477 27.0721 14.1797 26.7041 14.1797 26.2518C14.1797 25.7994 14.5477 25.4314 15 25.4314C15.4523 25.4314 15.8203 25.7994 15.8203 26.2518ZM19.5703 19.5703H10.4297V10.4297H19.5703V19.5703ZM24.8437 27.1875C25.2961 27.1875 25.6641 27.5555 25.6641 28.0078C25.6641 28.4602 25.2961 28.8281 24.8437 28.8281C24.3914 28.8281 24.0234 28.4602 24.0234 28.0078C24.0234 27.5555 24.3914 27.1875 24.8437 27.1875ZM1.99219 22.8516C0.893672 22.8516 0 23.7452 0 24.8438C0 25.9423 0.893672 26.8359 1.99219 26.8359C3.0907 26.8359 3.98437 25.9423 3.98437 24.8438C3.98437 23.7452 3.0907 22.8516 1.99219 22.8516ZM1.99219 25.6641C1.53984 25.6641 1.17187 25.2961 1.17187 24.8438C1.17187 24.3914 1.53984 24.0234 1.99219 24.0234C2.44453 24.0234 2.8125 24.3914 2.8125 24.8438C2.8125 25.2961 2.44453 25.6641 1.99219 25.6641ZM5.83418 24.4312C5.72519 24.3223 5.57402 24.2596 5.41992 24.2596C5.26582 24.2596 5.11465 24.3222 5.00566 24.4312C4.89616 24.5414 4.83448 24.6902 4.83398 24.8455C4.83398 24.9996 4.89668 25.1508 5.00566 25.2597C5.11465 25.3687 5.26582 25.4314 5.41992 25.4314C5.57402 25.4314 5.72519 25.3687 5.83418 25.2597C5.94367 25.1496 6.00535 25.0008 6.00586 24.8455C6.00586 24.6913 5.94316 24.5402 5.83418 24.4312Z"/>
</mask>
<path d="M24.3477 15.5859C24.5985 16.3994 25.3572 16.9922 26.2518 16.9922C27.3503 16.9922 28.244 16.0985 28.244 15C28.244 13.9015 27.3503 13.0078 26.2518 13.0078C25.3571 13.0078 24.5985 13.6006 24.3477 14.4141H20.7422V9.84375C20.7422 9.5202 20.4799 9.25781 20.1562 9.25781H19.2187V5.74043H22.5013C22.8249 5.74043 23.0872 5.47805 23.0872 5.15449C23.0872 4.83094 22.8249 4.56855 22.5013 4.56855H18.6328C18.3092 4.56855 18.0469 4.83094 18.0469 5.15449V9.25781H15.5859V5.65236C16.3993 5.40152 16.9922 4.64291 16.9922 3.74824C16.9922 2.64973 16.0985 1.75605 15 1.75605C13.9015 1.75605 13.0078 2.64973 13.0078 3.74824C13.0078 4.64291 13.6007 5.40158 14.4141 5.65236V9.25781H9.84375C9.52014 9.25781 9.25781 9.5202 9.25781 9.84375V10.7812H5.74037V3.89684C6.55471 3.64658 7.14844 2.8875 7.14844 1.99219C7.14844 0.893672 6.25477 0 5.15625 0C4.05773 0 3.16406 0.893672 3.16406 1.99219C3.16406 2.88621 3.75604 3.64441 4.5685 3.89578V11.3672C4.5685 11.6907 4.83082 11.9531 5.15443 11.9531H9.25781V14.4141H5.6523C5.40146 13.6006 4.64279 13.0078 3.74818 13.0078C2.64967 13.0078 1.756 13.9015 1.756 15C1.756 16.0985 2.64967 16.9922 3.74818 16.9922C4.64285 16.9922 5.40152 16.3994 5.6523 15.5859H9.25781V20.1562C9.25781 20.4798 9.52014 20.7422 9.84375 20.7422H10.7812V24.2596H7.49871C7.1751 24.2596 6.91277 24.522 6.91277 24.8455C6.91277 25.1691 7.1751 25.4314 7.49871 25.4314H11.3672C11.6908 25.4314 11.9531 25.1691 11.9531 24.8455V20.7422H14.4141V24.3476C13.6007 24.5985 13.0078 25.3571 13.0078 26.2518C13.0078 27.3503 13.9015 28.2439 15 28.2439C16.0985 28.2439 16.9922 27.3503 16.9922 26.2518C16.9922 25.3571 16.3993 24.5984 15.5859 24.3476V20.7422H20.1562C20.4799 20.7422 20.7422 20.4798 20.7422 20.1562V19.2188H24.2596V26.1032C23.4453 26.3534 22.8516 27.1125 22.8516 28.0078C22.8516 29.1063 23.7452 30 24.8437 30C25.9423 30 26.8359 29.1063 26.8359 28.0078C26.8359 27.1138 26.244 26.3556 25.4315 26.1042V18.6328C25.4315 18.3093 25.1692 18.0469 24.8456 18.0469H20.7422V15.5859H24.3477ZM26.2518 14.1797C26.7042 14.1797 27.0721 14.5477 27.0721 15C27.0721 15.4523 26.7041 15.8203 26.2518 15.8203C25.7995 15.8203 25.4315 15.4523 25.4315 15C25.4315 14.5477 25.7995 14.1797 26.2518 14.1797ZM5.15625 2.8125C4.70391 2.8125 4.33594 2.44453 4.33594 1.99219C4.33594 1.53984 4.70391 1.17188 5.15625 1.17188C5.60859 1.17188 5.97656 1.53984 5.97656 1.99219C5.97656 2.44453 5.60859 2.8125 5.15625 2.8125ZM3.74818 15.8203C3.29584 15.8203 2.92787 15.4523 2.92787 15C2.92787 14.5477 3.29584 14.1797 3.74818 14.1797C4.20053 14.1797 4.5685 14.5477 4.5685 15C4.5685 15.4523 4.20053 15.8203 3.74818 15.8203ZM14.1797 3.74824C14.1797 3.2959 14.5477 2.92793 15 2.92793C15.4523 2.92793 15.8203 3.2959 15.8203 3.74824C15.8203 4.20059 15.4523 4.56855 15 4.56855C14.5477 4.56855 14.1797 4.20059 14.1797 3.74824ZM15.8203 26.2518C15.8203 26.7041 15.4523 27.0721 15 27.0721C14.5477 27.0721 14.1797 26.7041 14.1797 26.2518C14.1797 25.7994 14.5477 25.4314 15 25.4314C15.4523 25.4314 15.8203 25.7994 15.8203 26.2518ZM19.5703 19.5703H10.4297V10.4297H19.5703V19.5703ZM24.8437 27.1875C25.2961 27.1875 25.6641 27.5555 25.6641 28.0078C25.6641 28.4602 25.2961 28.8281 24.8437 28.8281C24.3914 28.8281 24.0234 28.4602 24.0234 28.0078C24.0234 27.5555 24.3914 27.1875 24.8437 27.1875ZM1.99219 22.8516C0.893672 22.8516 0 23.7452 0 24.8438C0 25.9423 0.893672 26.8359 1.99219 26.8359C3.0907 26.8359 3.98437 25.9423 3.98437 24.8438C3.98437 23.7452 3.0907 22.8516 1.99219 22.8516ZM1.99219 25.6641C1.53984 25.6641 1.17187 25.2961 1.17187 24.8438C1.17187 24.3914 1.53984 24.0234 1.99219 24.0234C2.44453 24.0234 2.8125 24.3914 2.8125 24.8438C2.8125 25.2961 2.44453 25.6641 1.99219 25.6641ZM5.83418 24.4312C5.72519 24.3223 5.57402 24.2596 5.41992 24.2596C5.26582 24.2596 5.11465 24.3222 5.00566 24.4312C4.89616 24.5414 4.83448 24.6902 4.83398 24.8455C4.83398 24.9996 4.89668 25.1508 5.00566 25.2597C5.11465 25.3687 5.26582 25.4314 5.41992 25.4314C5.57402 25.4314 5.72519 25.3687 5.83418 25.2597C5.94367 25.1496 6.00535 25.0008 6.00586 24.8455C6.00586 24.6913 5.94316 24.5402 5.83418 24.4312Z" fill="#14171B" stroke="white" stroke-width="0.2" mask="url(#path-2-inside-1_11372_28456)"/>
</g>
<defs>
<clipPath id="clip0_11372_28456">
<rect width="30" height="30" fill="white"/>
</clipPath>
</defs>
</svg>
