<svg width="30" height="30" viewBox="0 0 30 30" fill="none" xmlns="http://www.w3.org/2000/svg">
<g clip-path="url(#clip0_11372_28493)">
<path d="M18.6037 27.0217H2.72193V25.1202H18.0069C18.2651 25.1202 18.4744 24.9109 18.4744 24.6527C18.4744 24.3945 18.2651 24.1852 18.0069 24.1852H12.8512V14.6826C12.8512 14.4244 12.6402 14.2151 12.382 14.2151H6.19502C6.07103 14.2151 5.95211 14.2643 5.86443 14.352C5.77676 14.4397 5.7275 14.5586 5.7275 14.6826V24.1851H3.83434V11.8037C4.8558 11.6852 5.72996 11.1846 6.23645 10.4834C6.81881 11.2896 7.88691 11.8312 9.10613 11.8312C10.3246 11.8312 11.3922 11.2897 11.9742 10.4836C12.5566 11.2897 13.6246 11.8312 14.8438 11.8312C16.0643 11.8312 17.1332 11.2885 17.7152 10.4811C18.2971 11.2885 19.3661 11.8312 20.5865 11.8312C21.8057 11.8312 22.8738 11.2896 23.4562 10.4834C23.9627 11.1846 24.8369 11.6852 25.8583 11.8037V17.3898C25.8583 17.6481 26.0676 17.8574 26.3258 17.8574C26.5841 17.8574 26.7934 17.6481 26.7934 17.3898V11.8028C27.4195 11.729 28.0147 11.509 28.4986 11.1671C29.2375 10.6455 29.6614 9.88574 29.6614 9.08254V6.95219C29.6614 6.8816 29.6454 6.81193 29.6146 6.7484L27.3069 1.98379C26.9115 1.16787 26.1239 0.680664 25.2003 0.680664H4.49076C3.56809 0.680664 2.78117 1.16781 2.38566 1.98385L0.0780078 6.74846C0.0472391 6.81199 0.0312536 6.88166 0.03125 6.95225V9.0826C0.03125 9.88574 0.455059 10.6455 1.19387 11.167C1.67826 11.5093 2.27357 11.7295 2.8993 11.803V24.1853H2.25436C2.13036 24.1853 2.01145 24.2345 1.92377 24.3222C1.83609 24.4099 1.78684 24.5288 1.78684 24.6528V27.4893C1.78684 27.6133 1.83609 27.7322 1.92377 27.8199C2.01145 27.9076 2.13036 27.9568 2.25436 27.9568H18.6037C18.7268 27.9554 18.8444 27.9056 18.931 27.818C19.0175 27.7305 19.0661 27.6124 19.0661 27.4893C19.0661 27.3662 19.0175 27.248 18.931 27.1605C18.8444 27.073 18.7268 27.0231 18.6037 27.0217ZM9.10613 10.8962C7.804 10.8962 6.70396 10.0656 6.70396 9.08254V7.41977H11.5066V9.08254C11.5066 10.0656 10.4074 10.8962 9.10613 10.8962ZM12.2311 1.61576L12.2279 1.63838L11.5661 6.48467H6.90764L8.70723 1.61576H12.2311ZM13.1746 1.61576H16.5165L16.8979 4.40412L17.1813 6.48467H12.5101L12.7143 4.99287L13.1746 1.61576ZM20.9838 1.61576L22.1977 4.89754L22.7847 6.48467H18.125L17.9047 4.86637L17.8249 4.28283L17.4615 1.61576H20.9838ZM14.8438 10.8962C13.5417 10.8962 12.4417 10.0656 12.4417 9.08254V7.41977H17.246V9.08254C17.246 10.0656 16.1459 10.8962 14.8438 10.8962ZM20.5865 10.8962C19.2843 10.8962 18.1844 10.0656 18.1844 9.08254V7.41977H22.9886V9.08254C22.9886 10.0656 21.8886 10.8962 20.5865 10.8962ZM27.9592 10.4033C27.5335 10.7041 26.9847 10.8785 26.4133 10.8946C26.3958 10.8947 26.3783 10.8951 26.3608 10.8956C26.3492 10.8959 26.3375 10.8962 26.3258 10.8962C25.0237 10.8962 23.9237 10.0657 23.9237 9.0826V7.41982H28.7263V9.0826C28.7263 9.57777 28.4468 10.0591 27.9592 10.4033ZM25.2002 1.61576C25.757 1.61576 26.23 1.9058 26.4654 2.39148L28.4479 6.48467H23.7816L21.9808 1.61576H25.2002ZM3.22713 2.3916C3.46262 1.9058 3.935 1.61576 4.49076 1.61576H7.71043L5.91078 6.48467H1.24473L3.22713 2.3916ZM0.966289 9.08254V7.41977H5.76887V9.08254C5.76887 10.0487 4.70633 10.8669 3.43379 10.8948C3.4116 10.8915 3.3892 10.8897 3.36676 10.8895C3.34367 10.8895 3.32117 10.8917 3.29896 10.895C3.29182 10.8948 3.28484 10.8946 3.27758 10.8946C2.70734 10.8785 2.15914 10.7041 1.73311 10.4032C1.24584 10.0591 0.966289 9.57777 0.966289 9.08254ZM6.66254 15.1502H11.9161V24.1852H6.66254V15.1502ZM23.0301 17.1594V15.1502H15.3942V18.5752H17.5825C17.8407 18.5752 18.05 18.7845 18.05 19.0427C18.05 19.3009 17.8407 19.5102 17.5825 19.5102H14.9267C14.8027 19.5102 14.6838 19.461 14.5961 19.3733C14.5085 19.2856 14.4592 19.1667 14.4592 19.0427V14.6826C14.4592 14.5586 14.5085 14.4397 14.5961 14.3521C14.6838 14.2644 14.8027 14.2151 14.9267 14.2151H23.4976C23.6216 14.2151 23.7405 14.2644 23.8282 14.3521C23.9158 14.4397 23.9651 14.5586 23.9651 14.6826V17.1594C23.9632 17.2821 23.913 17.3991 23.8256 17.4852C23.7381 17.5713 23.6203 17.6196 23.4976 17.6196C23.3749 17.6196 23.257 17.5713 23.1696 17.4852C23.0821 17.3991 23.032 17.2821 23.0301 17.1594ZM20.613 25.1169H20.6647C20.6692 25.1178 20.6738 25.1184 20.6783 25.1192C20.6832 25.1201 20.6881 25.1207 20.693 25.1214C20.7138 25.1245 20.7348 25.1264 20.7563 25.1266C20.7577 25.1266 20.7589 25.1269 20.7603 25.1269C20.7611 25.1269 20.762 25.1267 20.7628 25.1267L23.9877 25.1168H26.7386C26.769 25.1168 26.7987 25.1137 26.8276 25.1081L27.7729 25.1052C27.8714 25.1049 27.9674 25.0734 28.047 25.0153C28.1266 24.9572 28.1859 24.8755 28.2162 24.7817L29.9257 19.5009C30.0203 19.2072 29.9709 18.8951 29.788 18.6417C29.6046 18.3918 29.3229 18.2484 29.0148 18.2484H19.4703L19.1405 17.0577C19.1132 16.9592 19.0543 16.8723 18.973 16.8104C18.8916 16.7485 18.7921 16.715 18.6899 16.715H17.1481C16.8899 16.715 16.6806 16.9243 16.6806 17.1825C16.6806 17.4408 16.8899 17.6501 17.1481 17.6501H18.3342L18.6657 18.847C18.6666 18.8502 18.6674 18.8536 18.6684 18.8568L20.1609 24.246C19.4816 24.4422 18.9833 25.0688 18.9833 25.8098C18.9833 26.7083 19.7144 27.4394 20.6129 27.4394H20.8372C20.783 27.591 20.7553 27.7509 20.7554 27.9119C20.7554 28.688 21.3869 29.3194 22.1629 29.3194C22.9391 29.3194 23.5705 28.688 23.5705 27.9119C23.5705 27.7462 23.5415 27.5872 23.4887 27.4394H25.068C25.0138 27.591 24.9861 27.7509 24.9862 27.9119C24.9862 28.688 25.6176 29.3194 26.3937 29.3194C27.1698 29.3194 27.8012 28.688 27.8012 27.9119C27.8012 27.7462 27.7722 27.5872 27.7194 27.4394H28.5853C28.8435 27.4394 29.0528 27.2301 29.0528 26.9719C29.0528 26.7137 28.8435 26.5044 28.5853 26.5044H20.613C20.23 26.5044 19.9184 26.1928 19.9184 25.8098C19.9184 25.4278 20.23 25.1169 20.613 25.1169ZM29.0148 19.1836C29.0212 19.1836 29.0242 19.1843 29.0244 19.1843C29.0248 19.1846 29.0283 19.187 29.032 19.192C29.0345 19.1952 29.0366 19.1988 29.0381 19.2026C29.0381 19.2064 29.0373 19.2102 29.0359 19.2137L27.4311 24.1714L24.0115 24.1819H21.1135L19.7292 19.1836H29.0148ZM22.6355 27.912C22.6355 28.1725 22.4236 28.3844 22.163 28.3844C21.9025 28.3844 21.6906 28.1725 21.6906 27.912C21.6906 27.6515 21.9025 27.4396 22.163 27.4396C22.4236 27.4396 22.6355 27.6515 22.6355 27.912ZM26.8663 27.912C26.8663 28.1725 26.6543 28.3844 26.3938 28.3844C26.1333 28.3844 25.9214 28.1725 25.9214 27.912C25.9214 27.6515 26.1333 27.4396 26.3938 27.4396C26.6543 27.4396 26.8663 27.6515 26.8663 27.912ZM22.1067 23.2452V20.1285C22.1067 19.8703 22.316 19.661 22.5742 19.661C22.8324 19.661 23.0417 19.8703 23.0417 20.1285V23.2452C23.0417 23.5035 22.8324 23.7128 22.5742 23.7128C22.316 23.7128 22.1067 23.5035 22.1067 23.2452ZM23.9336 23.2452V20.1285C23.9336 19.8703 24.1429 19.661 24.4012 19.661C24.6594 19.661 24.8687 19.8703 24.8687 20.1285V23.2452C24.8687 23.5035 24.6594 23.7128 24.4012 23.7128C24.1429 23.7128 23.9336 23.5035 23.9336 23.2452ZM25.7605 23.2452V20.1285C25.7605 19.8703 25.9698 19.661 26.228 19.661C26.4862 19.661 26.6955 19.8703 26.6955 20.1285V23.2452C26.6955 23.5035 26.4862 23.7128 26.228 23.7128C25.9698 23.7128 25.7605 23.5035 25.7605 23.2452Z" fill="#14171B"/>
</g>
<defs>
<clipPath id="clip0_11372_28493">
<rect width="30" height="30" fill="white"/>
</clipPath>
</defs>
</svg>
