<svg width="30" height="30" viewBox="0 0 30 30" fill="none" xmlns="http://www.w3.org/2000/svg">
<path d="M22.7017 3.32572L15.2017 0.042719C15.1386 0.0151873 15.0705 0.000976562 15.0017 0.000976562C14.9329 0.000976563 14.8648 0.0151873 14.8017 0.042719L7.30171 3.32572C7.21258 3.36462 7.13673 3.42866 7.08345 3.51001C7.03017 3.59135 7.00176 3.68647 7.00171 3.78372V11.6337C7.00421 13.3977 7.85171 15.0537 9.28171 16.0877L14.4652 19.8262C14.6213 19.9392 14.809 20 15.0017 20C15.1944 20 15.3821 19.9392 15.5382 19.8262L20.7217 16.0882C21.4265 15.5786 22.0005 14.9093 22.3968 14.1351C22.7931 13.3609 23.0004 12.5039 23.0017 11.6342V3.78372C23.0017 3.68647 22.9733 3.59135 22.92 3.51001C22.8667 3.42866 22.7908 3.36462 22.7017 3.32572ZM22.0017 11.6342C22.0006 12.3456 21.831 13.0466 21.5068 13.6798C21.1827 14.313 20.7131 14.8604 20.1367 15.2772L15.0017 18.9807L9.86671 15.2772C9.29027 14.8604 8.82075 14.313 8.49659 13.6798C8.17243 13.0466 8.00284 12.3456 8.00171 11.6342V4.11072L15.0017 1.04672L22.0017 4.11072V11.6342Z" fill="#14171B"/>
<path d="M14.8018 2.22534L9.30177 4.63334C9.21264 4.67223 9.1368 4.73628 9.08351 4.81762C9.03023 4.89897 9.00182 4.99409 9.00177 5.09134V11.6338C9.00253 12.1869 9.13433 12.7319 9.38638 13.2241C9.63842 13.7164 10.0035 14.1419 10.4518 14.4658L14.7093 17.5368C14.7944 17.5983 14.8968 17.6313 15.0018 17.6313C15.1068 17.6313 15.2091 17.5983 15.2943 17.5368L19.5518 14.4658C20 14.1419 20.3651 13.7164 20.6172 13.2241C20.8692 12.7319 21.001 12.1869 21.0018 11.6338V5.09134C21.0017 4.99409 20.9733 4.89897 20.92 4.81762C20.8667 4.73628 20.7909 4.67223 20.7018 4.63334L15.2018 2.22534C15.1387 2.1978 15.0706 2.18359 15.0018 2.18359C14.9329 2.18359 14.8649 2.1978 14.8018 2.22534ZM20.0018 5.41784V11.6338C20.001 12.0285 19.9068 12.4174 19.7269 12.7686C19.5471 13.1199 19.2866 13.4236 18.9668 13.6548L15.0018 16.5148L11.0368 13.6548C10.717 13.4236 10.4565 13.1199 10.2766 12.7686C10.0967 12.4174 10.0025 12.0285 10.0018 11.6338V5.41784L15.0018 3.22934L20.0018 5.41784ZM4.14427 16.6003L3.06277 14.0733C2.97823 13.8818 2.8568 13.7089 2.70542 13.5643C2.55403 13.4197 2.37565 13.3064 2.18046 13.2307C1.98527 13.1551 1.7771 13.1187 1.56782 13.1235C1.35855 13.1283 1.15227 13.1743 0.96077 13.2588C0.76927 13.3434 0.596296 13.4648 0.451725 13.6162C0.307153 13.7676 0.193815 13.946 0.118182 14.1411C0.0425486 14.3363 0.00610117 14.5445 0.0109206 14.7538C0.01574 14.9631 0.0617319 15.1693 0.14627 15.3608L2.10577 19.6713C2.37013 20.2549 2.73788 20.7858 3.19127 21.2383L6.27277 24.3203C6.09927 24.5043 6.00277 24.7473 6.00177 25.0003V29.0003C6.00177 29.2656 6.10713 29.5199 6.29466 29.7074C6.4822 29.895 6.73655 30.0003 7.00177 30.0003H12.5018C12.767 30.0003 13.0213 29.895 13.2089 29.7074C13.3964 29.5199 13.5018 29.2656 13.5018 29.0003V25.0003C13.5018 24.7351 13.3964 24.4808 13.2089 24.2932C13.0213 24.1057 12.767 24.0003 12.5018 24.0003V23.0698C12.5171 21.8857 12.1308 20.7313 11.4058 19.7948C10.9807 19.2358 10.4014 18.8133 9.73927 18.5793C8.68619 18.1369 7.71771 17.5154 6.87677 16.7423C6.49655 16.4292 6.02584 16.2464 5.53393 16.2208C5.04202 16.1953 4.5549 16.3283 4.14427 16.6003ZM12.5018 29.0003H7.00177V25.0003H12.5018V29.0003ZM10.6253 20.4193C11.2081 21.1787 11.517 22.1128 11.5018 23.0698V24.0003H7.36727L3.89827 20.5313C3.52984 20.1634 3.23087 19.732 3.01577 19.2578L1.05627 14.9473C1.02147 14.8755 1.0015 14.7974 0.997546 14.7176C0.993593 14.6379 1.00574 14.5582 1.03326 14.4832C1.06078 14.4083 1.10311 14.3397 1.15773 14.2815C1.21235 14.2232 1.27814 14.1766 1.35117 14.1444C1.4242 14.1121 1.50297 14.0949 1.5828 14.0938C1.66262 14.0926 1.74186 14.1076 1.81578 14.1377C1.88971 14.1678 1.9568 14.2126 2.01307 14.2692C2.06933 14.3258 2.11361 14.3932 2.14327 14.4673L3.26177 17.0758C3.55878 17.7718 3.98689 18.4041 4.52277 18.9383L6.80677 21.2228C6.85289 21.2706 6.90807 21.3087 6.96907 21.3349C7.03007 21.3611 7.09568 21.3749 7.16207 21.3755C7.22846 21.376 7.2943 21.3634 7.35575 21.3382C7.4172 21.3131 7.47302 21.276 7.51997 21.229C7.56692 21.1821 7.60404 21.1263 7.62918 21.0648C7.65432 21.0034 7.66697 20.9375 7.6664 20.8711C7.66582 20.8047 7.65203 20.7391 7.62582 20.6781C7.59962 20.6171 7.56153 20.562 7.51377 20.5158L5.22977 18.2313C5.0001 18.0022 4.7936 17.751 4.61327 17.4813C4.84644 17.3019 5.13357 17.2069 5.42774 17.2118C5.72191 17.2167 6.00571 17.3212 6.23277 17.5083C7.16744 18.3661 8.24772 19.0502 9.42277 19.5283C9.90153 19.7024 10.3193 20.012 10.6253 20.4193Z" fill="#14171B"/>
<path d="M11.002 26.5003H10.502C10.3693 26.5003 10.2422 26.553 10.1484 26.6468C10.0546 26.7405 10.002 26.8677 10.002 27.0003C10.002 27.1329 10.0546 27.2601 10.1484 27.3539C10.2422 27.4476 10.3693 27.5003 10.502 27.5003H11.002C11.1346 27.5003 11.2617 27.4476 11.3555 27.3539C11.4493 27.2601 11.502 27.1329 11.502 27.0003C11.502 26.8677 11.4493 26.7405 11.3555 26.6468C11.2617 26.553 11.1346 26.5003 11.002 26.5003ZM27.898 19.6713L29.8575 15.3608C29.946 15.1688 29.9954 14.961 30.0028 14.7496C30.0103 14.5383 29.9756 14.3276 29.9008 14.1298C29.8259 13.9319 29.7125 13.751 29.5671 13.5975C29.4216 13.4439 29.2471 13.3208 29.0536 13.2354C28.8602 13.15 28.6516 13.1039 28.4402 13.0999C28.2288 13.0959 28.0186 13.134 27.822 13.2119C27.6255 13.2899 27.4464 13.4062 27.2952 13.5541C27.144 13.702 27.0238 13.8785 26.9415 14.0733L25.8625 16.5908C25.4504 16.3201 24.9623 16.1886 24.47 16.2156C23.9777 16.2426 23.507 16.4267 23.127 16.7408C22.286 17.5138 21.3175 18.1354 20.2645 18.5778C19.6023 18.8118 19.023 19.2343 18.598 19.7933C17.8726 20.7301 17.4863 21.8851 17.502 23.0698V24.0003C17.2367 24.0003 16.9824 24.1057 16.7948 24.2932C16.6073 24.4808 16.502 24.7351 16.502 25.0003V29.0003C16.502 29.2655 16.6073 29.5199 16.7948 29.7074C16.9824 29.895 17.2367 30.0003 17.502 30.0003H23.002C23.2672 30.0003 23.5215 29.895 23.7091 29.7074C23.8966 29.5199 24.002 29.2655 24.002 29.0003V25.0003C24.0014 24.7474 23.9045 24.5043 23.731 24.3203L26.8125 21.2383C27.2658 20.7857 27.6336 20.2549 27.898 19.6713ZM23.002 29.0003H17.502V25.0003H23.002V29.0003ZM22.6365 24.0003H18.502V23.0698C18.4869 22.1129 18.7958 21.179 19.3785 20.4198C19.6837 20.0128 20.1006 19.7031 20.5785 19.5283C21.7537 19.0503 22.8342 18.3662 23.769 17.5083C23.9957 17.3198 24.2799 17.214 24.5747 17.2083C24.8695 17.2026 25.1575 17.2973 25.3915 17.4768C25.2106 17.7485 25.0031 18.0014 24.772 18.2318L22.488 20.5163C22.3969 20.6106 22.3465 20.7369 22.3476 20.868C22.3488 20.9991 22.4013 21.1245 22.494 21.2172C22.5867 21.3099 22.7122 21.3625 22.8433 21.3637C22.9744 21.3648 23.1007 21.3144 23.195 21.2233L25.479 18.9388C26.0148 18.4046 26.4429 17.7723 26.74 17.0763L27.8585 14.4673C27.9008 14.3681 27.9694 14.2823 28.0568 14.2191C28.1443 14.1559 28.2473 14.1178 28.3549 14.1088C28.4624 14.0998 28.5703 14.1203 28.6671 14.168C28.7638 14.2158 28.8457 14.289 28.904 14.3798C29.014 14.5498 29.029 14.7638 28.9455 14.9478L26.986 19.2583C26.7708 19.7325 26.4719 20.1639 26.1035 20.5318L22.6365 24.0003Z" fill="#14171B"/>
<path d="M19.5017 26.501H19.0017C18.8691 26.501 18.7419 26.5537 18.6482 26.6475C18.5544 26.7413 18.5017 26.8684 18.5017 27.001C18.5017 27.1336 18.5544 27.2608 18.6482 27.3546C18.7419 27.4484 18.8691 27.501 19.0017 27.501H19.5017C19.6343 27.501 19.7615 27.4484 19.8553 27.3546C19.949 27.2608 20.0017 27.1336 20.0017 27.001C20.0017 26.8684 19.949 26.7413 19.8553 26.6475C19.7615 26.5537 19.6343 26.501 19.5017 26.501ZM12.3017 10.601C12.1956 10.5215 12.0623 10.4873 11.931 10.5061C11.7997 10.5248 11.6813 10.595 11.6017 10.701C11.5221 10.8071 11.488 10.9405 11.5067 11.0718C11.5255 11.203 11.5956 11.3215 11.7017 11.401L13.7017 12.901C13.7561 12.9418 13.8182 12.9711 13.8843 12.9871C13.9504 13.0031 14.0191 13.0054 14.0861 12.9939C14.1531 12.9825 14.2171 12.9574 14.2741 12.9204C14.3311 12.8834 14.38 12.8351 14.4177 12.7785L18.4177 6.77854C18.4913 6.66821 18.5181 6.53316 18.4921 6.40311C18.4661 6.27305 18.3895 6.15864 18.2792 6.08504C18.1689 6.01144 18.0338 5.98469 17.9038 6.01066C17.7737 6.03664 17.6593 6.11321 17.5857 6.22354L13.8787 11.784L12.3017 10.601Z" fill="#14171B"/>
</svg>
