<svg width="30" height="30" viewBox="0 0 30 30" fill="none" xmlns="http://www.w3.org/2000/svg">
<g clip-path="url(#clip0_11372_28474)">
<path d="M28.8362 18.1145L28.8296 18.1032C28.5294 17.6462 28.0713 17.316 27.5428 17.1758C27.0143 17.0356 26.4527 17.0953 25.9655 17.3434L22.9618 18.8795C22.602 18.3744 22.0727 18.0154 21.4704 17.8681C20.8681 17.7207 20.2329 17.7946 19.6805 18.0765L15.8977 20.0152C15.7004 20.1169 15.4814 20.1693 15.2595 20.1679C15.0375 20.1665 14.8192 20.1114 14.6232 20.0073L12.0451 18.6385C11.0694 18.1177 9.96848 17.8773 8.86451 17.9442C7.76055 18.0111 6.69669 18.3825 5.791 19.0173L5.49991 17.6288C5.48721 17.5684 5.4627 17.5111 5.42778 17.4601C5.39286 17.4092 5.34823 17.3657 5.29644 17.3321C5.24465 17.2984 5.18673 17.2754 5.126 17.2642C5.06527 17.253 5.00293 17.254 4.94256 17.267L1.30741 18.0512C1.1864 18.0773 1.08063 18.1502 1.01319 18.254C0.94574 18.3578 0.922093 18.4841 0.947407 18.6052L3.06381 28.6895C3.08539 28.7952 3.14278 28.8902 3.2263 28.9585C3.30982 29.0269 3.41435 29.0643 3.52225 29.0645C3.55532 29.0643 3.5883 29.0608 3.62069 29.0541L7.25772 28.2713C7.37883 28.2452 7.48467 28.1723 7.55213 28.0683C7.61959 27.9644 7.64317 27.838 7.61772 27.7168L7.43022 26.8145L8.67288 26.5468C9.03505 26.4694 9.40788 26.4551 9.77491 26.5046L15.6193 27.1454C16.8327 27.3059 18.0629 27.0171 19.0782 26.3335L28.4405 20.0523C28.7467 19.8451 28.9595 19.5262 29.0334 19.164C29.1074 18.8018 29.0366 18.4251 28.8362 18.1145ZM3.88413 28.036L1.96225 18.8696L4.681 18.2837L6.60288 27.4506L3.88413 28.036ZM27.9188 19.2751L18.5565 25.5563C17.7263 26.1132 16.721 26.3466 15.7304 26.2126L9.886 25.5718C9.41568 25.5084 8.93791 25.5274 8.47412 25.628L7.23569 25.8943L6.00006 20.0152L6.32022 19.7921C7.08471 19.2542 7.98349 18.9389 8.91652 18.8815C9.84955 18.824 10.7802 19.0267 11.6049 19.4668L14.183 20.8356C14.5125 21.0107 14.8795 21.1034 15.2526 21.106C15.6257 21.1085 15.9939 21.0207 16.3257 20.8501L20.1094 18.909C20.4877 18.7157 20.9257 18.6749 21.3331 18.7951C21.7405 18.9153 22.0862 19.1873 22.299 19.5549C22.3614 19.6626 22.379 19.7904 22.348 19.911C22.3169 20.0315 22.2397 20.1349 22.133 20.199L16.9168 23.2927C16.0048 23.8367 14.9185 24.0087 13.883 23.7732L9.17866 22.6482L8.96116 23.5604L13.6698 24.6854C14.9407 24.9766 16.2749 24.7666 17.3949 24.099L22.6112 21.0052C22.8248 20.877 23.0006 20.6942 23.1204 20.4757C23.2403 20.2572 23.2999 20.0108 23.2932 19.7616L26.3907 18.1768C26.6712 18.0344 26.9942 18 27.2984 18.0803C27.6026 18.1606 27.8666 18.3499 28.0402 18.6123L28.0454 18.6202C28.1129 18.7246 28.1375 18.8511 28.1139 18.9731C28.0903 19.0952 28.0204 19.2034 27.9188 19.2751Z" fill="#14171B"/>
<path d="M3.05437 19.59L3.97172 19.3978L4.16391 20.3138L3.24703 20.5069L3.05437 19.59ZM14.7239 18.66C14.8041 18.7185 14.9008 18.7499 15 18.7499C15.0992 18.7499 15.1959 18.7185 15.2761 18.66C19.9795 15.2292 22.875 11.9578 23.9269 8.90625H26.3362C26.4468 9.21901 26.6644 9.48261 26.9505 9.65046C27.2367 9.81831 27.5729 9.8796 27.8999 9.8235C28.2268 9.76741 28.5234 9.59753 28.7372 9.34391C28.9511 9.09028 29.0683 8.76923 29.0683 8.4375C29.0683 8.10578 28.9511 7.78473 28.7372 7.5311C28.5234 7.27747 28.2268 7.1076 27.8999 7.05151C27.5729 6.99541 27.2367 7.0567 26.9505 7.22455C26.6644 7.3924 26.4468 7.656 26.3362 7.96875H24.1875C24.2674 7.62321 24.323 7.27252 24.3539 6.91922C24.4367 6.20738 24.375 5.48615 24.1725 4.7987C23.97 4.11126 23.6309 3.47175 23.1755 2.91844C22.7132 2.30258 22.1138 1.80291 21.4248 1.45905C20.7358 1.1152 19.9761 0.93663 19.2061 0.937503C17.6584 0.99802 16.1764 1.57906 15 2.58657C13.8236 1.57906 12.3416 0.99802 10.7939 0.937503C10.0237 0.936666 9.26396 1.11525 8.57481 1.45909C7.88566 1.80294 7.28607 2.30259 6.82359 2.91844C6.36837 3.47187 6.02943 4.11141 5.82703 4.79882C5.62463 5.48624 5.56293 6.20742 5.64562 6.91922C5.92828 10.5216 8.98266 14.4722 14.7239 18.66ZM27.6562 7.96875C27.749 7.96875 27.8396 7.99624 27.9167 8.04775C27.9938 8.09926 28.0538 8.17247 28.0893 8.25812C28.1248 8.34377 28.1341 8.43802 28.116 8.52895C28.0979 8.61988 28.0533 8.7034 27.9877 8.76896C27.9222 8.83452 27.8386 8.87916 27.7477 8.89725C27.6568 8.91533 27.5625 8.90605 27.4769 8.87057C27.3912 8.83509 27.318 8.77501 27.2665 8.69793C27.215 8.62084 27.1875 8.53021 27.1875 8.4375C27.1875 8.31318 27.2369 8.19395 27.3248 8.10605C27.4127 8.01814 27.5319 7.96875 27.6562 7.96875ZM7.52063 3.54516C7.54254 3.52347 7.56217 3.4996 7.57922 3.47391C7.95509 2.97714 8.44097 2.57423 8.99873 2.29681C9.55649 2.01939 10.171 1.87501 10.7939 1.875C12.9661 1.875 14.6517 3.52922 14.6686 3.54563C14.7121 3.58921 14.7638 3.62379 14.8207 3.64738C14.8776 3.67096 14.9386 3.68311 15.0002 3.68311C15.0618 3.68311 15.1228 3.67096 15.1797 3.64738C15.2366 3.62379 15.2883 3.58921 15.3319 3.54563C15.3488 3.52828 17.0222 1.875 19.2061 1.875C19.8295 1.87265 20.4447 2.01599 21.0029 2.2936C21.561 2.5712 22.0466 2.97538 22.4208 3.47391C22.4378 3.4996 22.4575 3.52347 22.4794 3.54516C22.851 4.00283 23.126 4.53112 23.2876 5.09809C23.4492 5.66506 23.4941 6.25892 23.4197 6.84375C23.3885 7.22364 23.3242 7.60007 23.2275 7.96875H19.4906L17.7506 4.92188C17.707 4.84491 17.6425 4.78185 17.5646 4.73998C17.4867 4.69812 17.3985 4.67915 17.3103 4.68528C17.222 4.69141 17.1373 4.72238 17.0659 4.77461C16.9946 4.82685 16.9394 4.89822 16.9069 4.98047L14.5889 10.7813L13.1039 5.95594C13.0773 5.86939 13.0262 5.7924 12.9567 5.73428C12.8873 5.67616 12.8025 5.6394 12.7126 5.62845C12.6227 5.61749 12.5316 5.6328 12.4502 5.67254C12.3688 5.71227 12.3007 5.77472 12.2541 5.85235L10.9842 7.96875H7.96875V8.90625H11.25C11.3309 8.90624 11.4104 8.88529 11.4808 8.84546C11.5512 8.80562 11.6101 8.74824 11.6517 8.67891L12.5156 7.23657L14.0817 12.3253C14.1106 12.4176 14.1674 12.4986 14.2442 12.5573C14.321 12.6161 14.414 12.6497 14.5106 12.6534H14.5312C14.625 12.6535 14.7166 12.6254 14.7942 12.5728C14.8719 12.5203 14.9319 12.4457 14.9667 12.3586L17.4183 6.22875L18.8119 8.66625C18.8524 8.7387 18.9114 8.79909 18.9829 8.84125C19.0544 8.88342 19.1358 8.90585 19.2188 8.90625H22.9219C22.0542 11.115 19.8961 14.0775 15 17.6995C8.39484 12.8133 6.77297 9.12563 6.58312 6.88125C6.50303 6.29063 6.5449 5.68985 6.70615 5.11605C6.8674 4.54225 7.1446 4.0076 7.52063 3.54516ZM0.9375 7.96875H4.6875V8.90625H0.9375V7.96875Z" fill="#14171B"/>
</g>
<defs>
<clipPath id="clip0_11372_28474">
<rect width="30" height="30" fill="white"/>
</clipPath>
</defs>
</svg>
