<svg width="30" height="28" viewBox="0 0 30 28" fill="none" xmlns="http://www.w3.org/2000/svg">
<path d="M13.3158 21.0151C12.6816 21.0151 12.1659 20.5004 12.1659 19.8662C12.1659 19.232 12.6816 18.7168 13.3158 18.7168C13.95 18.7168 14.4656 19.232 14.4656 19.8662C14.4656 20.5004 13.95 21.0151 13.3158 21.0151ZM13.3158 19.6848C13.2676 19.6848 13.2214 19.7039 13.1873 19.7379C13.1532 19.7719 13.134 19.8181 13.1339 19.8662C13.1339 20.0664 13.4977 20.0664 13.4977 19.8662C13.4975 19.8181 13.4783 19.7719 13.4442 19.7379C13.4101 19.7039 13.3639 19.6848 13.3158 19.6848ZM17.6377 21.0151C17.0039 21.0151 16.4887 20.5004 16.4887 19.8662C16.4887 19.232 17.0039 18.7168 17.6381 18.7168C18.2723 18.7168 18.787 19.232 18.787 19.8662C18.787 20.5004 18.2714 21.0151 17.6377 21.0151ZM17.6377 19.6848C17.5895 19.6848 17.5434 19.7039 17.5094 19.7379C17.4754 19.772 17.4563 19.8181 17.4563 19.8662C17.4563 20.0664 17.8195 20.0664 17.8195 19.8662C17.8195 19.8181 17.8004 19.772 17.7664 19.7379C17.7324 19.7039 17.6858 19.6848 17.6377 19.6848ZM21.2578 9.97934C21.153 9.84191 21.0178 9.73064 20.8628 9.65427C20.7078 9.5779 20.5372 9.5385 20.3644 9.53918H9.36938L9.08344 8.46809C9.01257 8.20331 8.85633 7.96931 8.63895 7.80236C8.42157 7.6354 8.15519 7.54482 7.88109 7.54465H7.15969C7.03139 7.54465 6.90835 7.59562 6.81762 7.68634C6.7269 7.77706 6.67594 7.9001 6.67594 8.0284C6.67594 8.1567 6.7269 8.27974 6.81762 8.37046C6.90835 8.46118 7.03139 8.51215 7.15969 8.51215H7.88109C8.00625 8.51215 8.11547 8.59652 8.14828 8.71793L10.4597 17.3598C10.5425 17.6681 10.7245 17.9405 10.9777 18.1349C11.2309 18.3293 11.5411 18.4348 11.8603 18.4351H19.6181C19.7465 18.4351 19.8696 18.3841 19.9604 18.2934C20.0511 18.2026 20.1021 18.0795 20.1021 17.9511C20.1021 17.8228 20.0511 17.6997 19.9604 17.6089C19.8696 17.5181 19.7465 17.4671 19.6181 17.4671H11.8603C11.6423 17.4671 11.4506 17.32 11.3944 17.11L11.2181 16.4504H18.5016C18.9286 16.4499 19.3435 16.3087 19.6822 16.0486C20.0208 15.7886 20.2644 15.4242 20.3752 15.0118L21.4533 10.9557C21.4982 10.7889 21.5039 10.614 21.47 10.4446C21.4361 10.2752 21.3635 10.116 21.2578 9.97934ZM20.4905 10.569C20.5083 10.5925 20.5355 10.6407 20.5177 10.7073L20.0381 12.5111H18.3384L18.608 10.5071H20.3644C20.4328 10.5071 20.4722 10.5456 20.4905 10.569ZM17.3625 12.5111H15.5841V10.5071H17.6325L17.3625 12.5111ZM14.6166 10.5071V12.5111H12.84L12.5681 10.5071H14.6166ZM11.5917 10.5071L11.8631 12.5111H10.1667L9.63 10.5071H11.5917ZM11.9944 13.479L12.2658 15.4825H10.9627L10.4259 13.479H11.9944ZM12.9713 13.479H14.6166V15.4825H13.2422L12.9713 13.479ZM15.5841 15.4825V13.479H17.2322L16.9622 15.4825H15.5841ZM18.5016 15.4825H17.9391L18.2086 13.479H19.7812L19.44 14.7625C19.3846 14.9689 19.2628 15.1512 19.0933 15.2814C18.9238 15.4116 18.7162 15.4822 18.5025 15.4825H18.5016ZM8.19562 2.27215C8.19562 2.15193 8.14787 2.03664 8.06286 1.95163C7.97785 1.86662 7.86256 1.81887 7.74234 1.81887H2.76422C2.644 1.81887 2.52871 1.86662 2.4437 1.95163C2.35869 2.03664 2.31094 2.15193 2.31094 2.27215C2.31094 2.39237 2.35869 2.50766 2.4437 2.59267C2.52871 2.67767 2.644 2.72543 2.76422 2.72543H7.74234C7.86256 2.72543 7.97785 2.67767 8.06286 2.59267C8.14787 2.50766 8.19562 2.39237 8.19562 2.27215ZM21.8662 2.27215C21.8662 2.40045 21.8153 2.52349 21.7246 2.61421C21.6338 2.70493 21.5108 2.7559 21.3825 2.7559C21.2542 2.7559 21.1312 2.70493 21.0404 2.61421C20.9497 2.52349 20.8988 2.40045 20.8988 2.27215C20.8988 2.14385 20.9497 2.02081 21.0404 1.93009C21.1312 1.83936 21.2542 1.7884 21.3825 1.7884C21.5108 1.7884 21.6338 1.83936 21.7246 1.93009C21.8153 2.02081 21.8662 2.14385 21.8662 2.27215ZM23.3789 1.7884C23.2505 1.7884 23.1274 1.83939 23.0367 1.93015C22.9459 2.02092 22.8949 2.14402 22.8949 2.27238C22.8949 2.40074 22.9459 2.52385 23.0367 2.61461C23.1274 2.70538 23.2505 2.75637 23.3789 2.75637C23.5073 2.75637 23.6304 2.70538 23.7211 2.61461C23.8119 2.52385 23.8629 2.40074 23.8629 2.27238C23.8629 2.14402 23.8119 2.02092 23.7211 1.93015C23.6304 1.83939 23.5073 1.7884 23.3789 1.7884ZM25.3753 1.7884C25.247 1.7884 25.1238 1.83939 25.0331 1.93015C24.9423 2.02092 24.8913 2.14402 24.8913 2.27238C24.8913 2.40074 24.9423 2.52385 25.0331 2.61461C25.1238 2.70538 25.247 2.75637 25.3753 2.75637C25.5037 2.75637 25.6268 2.70538 25.7175 2.61461C25.8083 2.52385 25.8593 2.40074 25.8593 2.27238C25.8593 2.14402 25.8083 2.02092 25.7175 1.93015C25.6268 1.83939 25.5037 1.7884 25.3753 1.7884ZM29.6456 22.9337L28.1616 21.6826C28.1625 21.6531 28.1672 21.6236 28.1672 21.5936V2.68887C28.1672 1.23574 26.9812 0.0498047 25.5281 0.0498047H2.63906C1.18594 0.0498047 0 1.23574 0 2.68887V21.5936C0 23.0467 1.18594 24.2326 2.63906 24.2326H22.9537L22.9542 26.0453C22.9542 26.4357 23.1736 26.7807 23.527 26.9462C23.8777 27.1093 24.285 27.0587 24.5845 26.8103L25.4911 26.0565L25.9955 27.1407C26.1516 27.4792 26.4314 27.7361 26.7811 27.8636C26.9532 27.9265 27.136 27.9549 27.3191 27.9471C27.5021 27.9393 27.6819 27.8954 27.848 27.8181C28.0143 27.7412 28.1637 27.6322 28.2876 27.4973C28.4115 27.3624 28.5074 27.2042 28.5698 27.032C28.6332 26.8601 28.6618 26.6774 28.6539 26.4944C28.646 26.3114 28.6018 26.1318 28.5239 25.9661L28.02 24.8809L29.1797 24.6737C29.3662 24.6412 29.5393 24.5558 29.6786 24.4277C29.8179 24.2995 29.9174 24.134 29.9653 23.9509C30.0153 23.7686 30.0118 23.5757 29.9551 23.3953C29.8984 23.2149 29.791 23.0546 29.6456 22.9337ZM0.965625 2.68887C0.965625 1.77012 1.71563 1.02012 2.63906 1.02012H25.5281C26.4516 1.02012 27.2016 1.77012 27.2016 2.68887V3.52324H0.965625V2.68887ZM22.9523 19.4284L22.9533 23.2628H2.63906C2.19605 23.2628 1.77111 23.0871 1.45742 22.7743C1.14372 22.4615 0.966866 22.037 0.965625 21.594V4.49402H27.2016V20.8736L24.5864 18.6686C24.4421 18.5456 24.2654 18.467 24.0775 18.4421C23.8895 18.4171 23.6984 18.4469 23.527 18.5279C23.3546 18.6066 23.2087 18.7335 23.1067 18.8933C23.0047 19.053 22.9511 19.2389 22.9523 19.4284ZM29.0086 23.7212L27.2311 24.0386C27.1581 24.0516 27.0891 24.0812 27.0294 24.1251C26.9697 24.169 26.9209 24.2261 26.8868 24.2918C26.8526 24.3576 26.834 24.4304 26.8325 24.5044C26.8309 24.5785 26.8463 24.652 26.8777 24.7192L27.6464 26.3753C27.6702 26.4258 27.6837 26.4805 27.6862 26.5362C27.6887 26.592 27.6801 26.6477 27.6609 26.7001C27.6219 26.8062 27.5428 26.8927 27.4406 26.9411C27.3897 26.9647 27.3347 26.9781 27.2786 26.9804C27.2226 26.9827 27.1666 26.974 27.1139 26.9546C27.0609 26.9358 27.0122 26.9065 26.9708 26.8685C26.9293 26.8305 26.8959 26.7845 26.8725 26.7334L26.1038 25.0792C26.0647 24.9957 26.0027 24.9251 25.925 24.8757C25.8473 24.8262 25.7571 24.7999 25.665 24.7998C25.5534 24.7998 25.4438 24.8382 25.3556 24.9114L23.9222 26.0453L23.9625 19.4078L29.0217 23.6734L29.0086 23.7212Z" fill="#14171B"/>
</svg>
