<svg width="30" height="30" viewBox="0 0 30 30" fill="none" xmlns="http://www.w3.org/2000/svg">
<g clip-path="url(#clip0_11372_28498)">
<path d="M16.3562 25.3125V25.3625H16.4062H17.3438C17.4548 25.3625 17.5613 25.4066 17.6399 25.4851C17.7184 25.5637 17.7625 25.6702 17.7625 25.7812V26.7188C17.7625 27.3271 17.5208 27.9105 17.0907 28.3407C16.6605 28.7708 16.0771 29.0125 15.4688 29.0125H3.28125C2.67291 29.0125 2.08949 28.7708 1.65932 28.3407C1.22916 27.9105 0.9875 27.3271 0.9875 26.7188V25.7812C0.9875 25.6702 1.03162 25.5637 1.11015 25.4851C1.18868 25.4066 1.29519 25.3625 1.40625 25.3625H2.34375H2.39375V25.3125V15.4688C2.39375 15.3577 2.43787 15.2512 2.5164 15.1726C2.59493 15.0941 2.70144 15.05 2.8125 15.05H7.18125C7.29231 15.05 7.39882 15.0941 7.47735 15.1726C7.55588 15.2512 7.6 15.3577 7.6 15.4688C7.6 15.5798 7.55588 15.6863 7.47735 15.7649C7.39882 15.8434 7.29231 15.8875 7.18125 15.8875H3.28125H3.23125V15.9375V25.3125V25.3625H3.28125H15.4688H15.5188V25.3125V20.7188C15.5188 20.6077 15.5629 20.5012 15.6414 20.4226C15.7199 20.3441 15.8264 20.3 15.9375 20.3C16.0486 20.3 16.1551 20.3441 16.2336 20.4226C16.3121 20.5012 16.3562 20.6077 16.3562 20.7188V25.3125ZM14.4812 28.125V28.175H14.5312H15.4688C15.855 28.175 16.2254 28.0216 16.4985 27.7485C16.7716 27.4754 16.925 27.105 16.925 26.7188V26.25V26.2H16.875H1.875H1.825V26.25V26.7188C1.825 27.105 1.97843 27.4754 2.25153 27.7485C2.52463 28.0216 2.89503 28.175 3.28125 28.175H4.21875H4.26875V28.125V27.6562C4.26875 27.5452 4.31287 27.4387 4.3914 27.3601C4.46993 27.2816 4.57644 27.2375 4.6875 27.2375C4.79856 27.2375 4.90507 27.2816 4.9836 27.3601C5.06213 27.4387 5.10625 27.5452 5.10625 27.6562V28.125V28.175H5.15625H13.5938H13.6438V28.125V27.6562C13.6438 27.5452 13.6879 27.4387 13.7664 27.3601C13.8449 27.2816 13.9514 27.2375 14.0625 27.2375C14.1736 27.2375 14.2801 27.2816 14.3586 27.3601C14.4371 27.4387 14.4812 27.5452 14.4812 27.6562V28.125ZM23.9062 4.7375H23.9562V4.6875V4.21875C23.9562 3.85905 24.0991 3.51408 24.3535 3.25974C24.6078 3.00539 24.9528 2.8625 25.3125 2.8625H26.25C26.3611 2.8625 26.4676 2.90662 26.5461 2.98515C26.6246 3.06368 26.6688 3.17019 26.6688 3.28125C26.6688 3.39231 26.6246 3.49882 26.5461 3.57735C26.4676 3.65588 26.3611 3.7 26.25 3.7H25.3125C25.1749 3.7 25.043 3.75465 24.9457 3.85194C24.8484 3.94922 24.7938 4.08117 24.7938 4.21875V4.6875V4.7375H24.8438H25.3125C25.4236 4.7375 25.5301 4.78162 25.6086 4.86015C25.6871 4.93868 25.7313 5.04519 25.7313 5.15625C25.7313 5.26731 25.6871 5.37382 25.6086 5.45235C25.5301 5.53088 25.4236 5.575 25.3125 5.575H24.8438H24.7938V5.625V7.03125C24.7938 7.14231 24.7496 7.24882 24.6711 7.32735C24.5926 7.40588 24.4861 7.45 24.375 7.45C24.2639 7.45 24.1574 7.40588 24.0789 7.32735C24.0004 7.24882 23.9562 7.14231 23.9562 7.03125V5.625V5.575H23.9062H23.4375C23.3264 5.575 23.2199 5.53088 23.1414 5.45235C23.0629 5.37382 23.0187 5.26731 23.0187 5.15625C23.0187 5.04519 23.0629 4.93868 23.1414 4.86015C23.2199 4.78162 23.3264 4.7375 23.4375 4.7375H23.9062Z" fill="#14171B" stroke="white" stroke-width="0.1"/>
<path d="M22.0312 0.9875H27.6562C28.0159 0.9875 28.3609 1.13039 28.6153 1.38474C28.8696 1.63908 29.0125 1.98405 29.0125 2.34375V7.96875C29.0125 8.32845 28.8696 8.67342 28.6153 8.92776C28.3609 9.18211 28.0159 9.325 27.6562 9.325H22.0312C21.6716 9.325 21.3266 9.18211 21.0722 8.92776C20.8179 8.67342 20.675 8.32845 20.675 7.96875V5.15625C20.675 5.04519 20.7191 4.93868 20.7976 4.86015C20.8762 4.78162 20.9827 4.7375 21.0938 4.7375C21.2048 4.7375 21.3113 4.78162 21.3899 4.86015C21.4684 4.93868 21.5125 5.04519 21.5125 5.15625V7.96875C21.5125 8.10633 21.5672 8.23828 21.6644 8.33556C21.7617 8.43285 21.8937 8.4875 22.0312 8.4875H27.6562C27.7938 8.4875 27.9258 8.43285 28.0231 8.33556C28.1203 8.23828 28.175 8.10633 28.175 7.96875V2.34375C28.175 2.20617 28.1203 2.07422 28.0231 1.97694C27.9258 1.87965 27.7938 1.825 27.6562 1.825H22.0312C21.8937 1.825 21.7617 1.87965 21.6644 1.97694C21.5672 2.07422 21.5125 2.20617 21.5125 2.34375V3.28125C21.5125 3.39231 21.4684 3.49882 21.3899 3.57735C21.3113 3.65588 21.2048 3.7 21.0938 3.7C20.9827 3.7 20.8762 3.65588 20.7976 3.57735C20.7191 3.49882 20.675 3.39231 20.675 3.28125V2.34375C20.675 1.98405 20.8179 1.63908 21.0722 1.38474C21.3266 1.13039 21.6716 0.9875 22.0312 0.9875ZM23.3263 20.7014C23.1258 20.4013 23.0187 20.0485 23.0187 19.6875C23.0187 19.2035 23.211 18.7393 23.5533 18.397C23.8955 18.0548 24.3597 17.8625 24.8438 17.8625C25.2047 17.8625 25.5575 17.9695 25.8577 18.1701C26.1578 18.3706 26.3917 18.6556 26.5298 18.9891C26.668 19.3226 26.7041 19.6895 26.6337 20.0435C26.5633 20.3976 26.3895 20.7227 26.1342 20.978C25.879 21.2332 25.5538 21.407 25.1998 21.4774C24.8458 21.5479 24.4788 21.5117 24.1454 21.3736C23.8119 21.2355 23.5269 21.0015 23.3263 20.7014ZM25.6648 20.2361C25.7733 20.0737 25.8313 19.8828 25.8313 19.6875C25.8313 19.4256 25.7272 19.1744 25.542 18.9892C25.3568 18.804 25.1057 18.7 24.8438 18.7C24.6484 18.7 24.4575 18.7579 24.2951 18.8664C24.1327 18.9749 24.0062 19.1292 23.9314 19.3096C23.8567 19.49 23.8371 19.6886 23.8752 19.8802C23.9133 20.0717 24.0074 20.2477 24.1455 20.3858C24.2836 20.5239 24.4595 20.6179 24.6511 20.656C24.8427 20.6941 25.0412 20.6746 25.2216 20.5998C25.4021 20.5251 25.5563 20.3985 25.6648 20.2361Z" fill="#14171B" stroke="white" stroke-width="0.1"/>
<path d="M11.9073 6.46577L11.9073 6.46577L11.7186 6.51206C11.6402 6.51231 11.5633 6.49055 11.4967 6.44925L11.4703 6.49175L11.4968 6.44935C11.4365 6.41163 11.3867 6.35915 11.3523 6.29688C11.3179 6.2346 11.2999 6.16457 11.3 6.09341V6.09331V3.28089C11.3002 3.20953 11.3187 3.13941 11.3536 3.0772C11.3886 3.01496 11.4389 2.96268 11.4997 2.92534C11.5605 2.888 11.6299 2.86683 11.7012 2.86384C11.7725 2.86086 11.8434 2.87615 11.9072 2.90827L11.9073 2.90834L14.7194 4.31437C14.7195 4.31441 14.7195 4.31444 14.7196 4.31448C14.7881 4.34962 14.8456 4.40297 14.8857 4.46866C14.9259 4.53441 14.9472 4.60999 14.9472 4.68706C14.9472 4.76413 14.9259 4.8397 14.8857 4.90546C14.8456 4.97115 14.7881 5.02449 14.7196 5.05963C14.7195 5.05967 14.7195 5.05971 14.7194 5.05975L11.9073 6.46577ZM12.2099 3.99546L12.1375 3.95928V4.04018V5.33393V5.41483L12.2099 5.37865L13.5036 4.73178L13.5931 4.68706L13.5036 4.64234L12.2099 3.99546ZM22.0313 15.5183H27.6563C28.016 15.5183 28.3609 15.6612 28.6153 15.9155C28.8696 16.1699 29.0125 16.5149 29.0125 16.8746V19.6871C29.0125 19.7981 28.9684 19.9046 28.8899 19.9832C28.8113 20.0617 28.7048 20.1058 28.5938 20.1058C28.4827 20.1058 28.3762 20.0617 28.2976 19.9832C28.2191 19.9046 28.175 19.7981 28.175 19.6871V16.8746C28.175 16.737 28.1203 16.605 28.0231 16.5077C27.9258 16.4105 27.7938 16.3558 27.6563 16.3558H22.0313C21.8937 16.3558 21.7617 16.4105 21.6644 16.5077C21.5672 16.605 21.5125 16.737 21.5125 16.8746V22.4996C21.5125 22.6371 21.5672 22.7691 21.6644 22.8664C21.7617 22.9637 21.8937 23.0183 22.0313 23.0183H27.6563C27.7938 23.0183 27.9258 22.9637 28.0231 22.8664C28.1203 22.7691 28.175 22.6371 28.175 22.4996V21.5621C28.175 21.451 28.2191 21.3445 28.2976 21.266C28.3762 21.1874 28.4827 21.1433 28.5938 21.1433C28.7048 21.1433 28.8113 21.1874 28.8899 21.266C28.9684 21.3445 29.0125 21.451 29.0125 21.5621V22.4996C29.0125 22.8593 28.8696 23.2042 28.6153 23.4586C28.3609 23.7129 28.016 23.8558 27.6563 23.8558H22.0313C21.6716 23.8558 21.3266 23.7129 21.0722 23.4586C20.8179 23.2042 20.675 22.8593 20.675 22.4996V16.8746C20.675 16.5149 20.8179 16.1699 21.0722 15.9155C21.3266 15.6612 21.6716 15.5183 22.0313 15.5183Z" fill="#14171B" stroke="white" stroke-width="0.1"/>
<path d="M22.9195 13.5088L22.9195 13.5088L22.9199 13.5108C22.9321 13.5659 22.933 13.6228 22.9226 13.6783C22.9122 13.7337 22.8907 13.7865 22.8595 13.8334C22.8282 13.8803 22.7877 13.9204 22.7406 13.9514C22.6934 13.9823 22.6404 14.0033 22.5849 14.0133L22.5839 14.0135L20.245 14.4813H20.1562V14.481L20.1513 14.4815C20.0401 14.4926 19.9292 14.4591 19.8427 14.3884C19.7563 14.3177 19.7015 14.2155 19.6904 14.1044C19.6793 13.9933 19.7127 13.8823 19.7835 13.7959C19.8185 13.7531 19.8616 13.7176 19.9103 13.6914C19.959 13.6653 20.0125 13.649 20.0675 13.6435L20.0675 13.6437L20.0723 13.6428L22.4161 13.174L22.417 13.1738C22.4721 13.1617 22.5291 13.1607 22.5845 13.1711C22.6399 13.1815 22.6927 13.203 22.7396 13.2343C22.7866 13.2656 22.8267 13.306 22.8576 13.3532C22.8885 13.4004 22.9096 13.4533 22.9195 13.5088ZM1.875 6.04375H1.825V6.09375V12.6563V12.7063H1.875H6.5625H6.6125V12.6563V6.09375V6.04375H6.5625H1.875ZM14.9723 8.15369C14.2867 8.61176 13.4808 8.85625 12.6562 8.85625C11.5506 8.85625 10.4903 8.41705 9.7085 7.63525C8.92671 6.85346 8.4875 5.79312 8.4875 4.6875C8.4875 3.863 8.73199 3.05702 9.19006 2.37147C9.64813 1.68592 10.2992 1.1516 11.0609 0.836079C11.8227 0.520556 12.6609 0.438001 13.4695 0.598853C14.2782 0.759705 15.021 1.15674 15.604 1.73975C16.187 2.32276 16.584 3.06556 16.7449 3.87422C16.9058 4.68288 16.8232 5.52107 16.5077 6.28281C16.1921 7.04455 15.6578 7.69562 14.9723 8.15369ZM14.507 1.91767C13.9592 1.55163 13.3151 1.35625 12.6562 1.35625C11.7727 1.35625 10.9254 1.70722 10.3007 2.33195C9.67597 2.95668 9.325 3.804 9.325 4.6875C9.325 5.34636 9.52037 5.99042 9.88642 6.53825C10.2525 7.08607 10.7727 7.51304 11.3814 7.76518C11.9901 8.01731 12.6599 8.08328 13.3061 7.95474C13.9523 7.82621 14.5459 7.50893 15.0118 7.04305C15.4777 6.57717 15.795 5.9836 15.9235 5.3374C16.052 4.6912 15.9861 4.02139 15.7339 3.41269C15.4818 2.80398 15.0548 2.28371 14.507 1.91767ZM17.531 10.687C17.4729 10.7161 17.4088 10.7313 17.3438 10.7313C17.2531 10.7313 17.165 10.7019 17.0925 10.6475C17.0037 10.5809 16.9449 10.4817 16.9292 10.3717C16.9135 10.2618 16.9421 10.1501 17.0088 10.0613L18.415 8.18625C18.4816 8.0974 18.5808 8.03867 18.6908 8.02296C18.8007 8.00725 18.9124 8.03587 19.0012 8.1025C19.0901 8.16914 19.1488 8.26834 19.1645 8.37828C19.1802 8.48822 19.1516 8.59991 19.085 8.68875L17.6788 10.5638C17.6397 10.6158 17.5892 10.658 17.531 10.687ZM18.5627 12.562C18.5046 12.533 18.454 12.4908 18.415 12.4388C18.3484 12.3499 18.3198 12.2382 18.3355 12.1283C18.3512 12.0183 18.4099 11.9191 18.4988 11.8525L20.3738 10.4463C20.4626 10.3796 20.5743 10.351 20.6842 10.3667C20.7942 10.3824 20.8934 10.4412 20.96 10.53C21.0266 10.6188 21.0552 10.7305 21.0395 10.8405C21.0238 10.9504 20.9651 11.0496 20.8762 11.1163L19.0012 12.5225C18.9288 12.5769 18.8406 12.6063 18.75 12.6063C18.685 12.6063 18.6209 12.5911 18.5627 12.562ZM7.03125 13.5438H1.40625C1.29519 13.5438 1.18868 13.4996 1.11015 13.4211C1.03162 13.3426 0.9875 13.2361 0.9875 13.125V5.625C0.9875 5.51394 1.03162 5.40743 1.11015 5.3289C1.18868 5.25037 1.29519 5.20625 1.40625 5.20625H7.03125C7.14231 5.20625 7.24882 5.25037 7.32735 5.3289C7.40588 5.40743 7.45 5.51394 7.45 5.625V13.125C7.45 13.2361 7.40588 13.3426 7.32735 13.4211C7.24882 13.4996 7.14231 13.5438 7.03125 13.5438Z" fill="#14171B" stroke="white" stroke-width="0.1"/>
<mask id="path-5-inside-1_11372_28498" fill="white">
<path d="M5.15625 7.03125H4.21875C4.09443 7.03125 3.9752 7.08064 3.88729 7.16854C3.79939 7.25645 3.75 7.37568 3.75 7.5C3.75 7.62432 3.79939 7.74355 3.88729 7.83146C3.9752 7.91936 4.09443 7.96875 4.21875 7.96875H5.15625C5.28057 7.96875 5.3998 7.91936 5.48771 7.83146C5.57561 7.74355 5.625 7.62432 5.625 7.5C5.625 7.37568 5.57561 7.25645 5.48771 7.16854C5.3998 7.08064 5.28057 7.03125 5.15625 7.03125ZM5.15625 8.90625H3.28125C3.15693 8.90625 3.0377 8.95564 2.94979 9.04354C2.86189 9.13145 2.8125 9.25068 2.8125 9.375C2.8125 9.49932 2.86189 9.61855 2.94979 9.70646C3.0377 9.79436 3.15693 9.84375 3.28125 9.84375H5.15625C5.28057 9.84375 5.3998 9.79436 5.48771 9.70646C5.57561 9.61855 5.625 9.49932 5.625 9.375C5.625 9.25068 5.57561 9.13145 5.48771 9.04354C5.3998 8.95564 5.28057 8.90625 5.15625 8.90625ZM5.15625 10.7813H3.28125C3.15693 10.7813 3.0377 10.8306 2.94979 10.9185C2.86189 11.0065 2.8125 11.1257 2.8125 11.25C2.8125 11.3743 2.86189 11.4935 2.94979 11.5815C3.0377 11.6694 3.15693 11.7188 3.28125 11.7188H5.15625C5.28057 11.7188 5.3998 11.6694 5.48771 11.5815C5.57561 11.4935 5.625 11.3743 5.625 11.25C5.625 11.1257 5.57561 11.0065 5.48771 10.9185C5.3998 10.8306 5.28057 10.7813 5.15625 10.7813ZM16.9312 13.4531C16.9005 13.3996 16.8594 13.3526 16.8105 13.3149C16.7616 13.2772 16.7057 13.2495 16.6461 13.2334C16.5864 13.2173 16.5242 13.2131 16.463 13.221C16.4017 13.229 16.3426 13.2489 16.2891 13.2797C16.2355 13.3105 16.1885 13.3515 16.1508 13.4004C16.1131 13.4494 16.0854 13.5052 16.0693 13.5649C16.0532 13.6245 16.049 13.6867 16.057 13.748C16.0649 13.8092 16.0848 13.8683 16.1156 13.9219L18.1828 17.4984L10.6828 20.3109H10.6125L9.39375 21.0141L8.58281 21.4828C8.47605 21.5445 8.35817 21.5846 8.2359 21.6007C8.11364 21.6168 7.9894 21.6086 7.87031 21.5766C7.63106 21.5119 7.42714 21.3552 7.30312 21.1406L6.36562 19.5188C6.25533 19.3066 6.2303 19.0602 6.29565 18.8302C6.36101 18.6001 6.51181 18.4038 6.71719 18.2813L8.33906 17.3438L9.51094 19.3734C9.55224 19.445 9.6117 19.5043 9.68332 19.5455C9.75493 19.5866 9.83615 19.6081 9.91875 19.6078C10.0012 19.6081 10.0823 19.5867 10.1538 19.5457C10.2253 19.5047 10.2847 19.4456 10.3261 19.3742C10.3675 19.3029 10.3893 19.222 10.3894 19.1395C10.3894 19.0571 10.3678 18.9761 10.3266 18.9047L9.11719 16.8141L15 11.9625L15.1922 12.2953C15.223 12.3489 15.264 12.3958 15.3129 12.4335C15.3619 12.4712 15.4177 12.4989 15.4774 12.515C15.537 12.5311 15.5992 12.5353 15.6605 12.5274C15.7217 12.5195 15.7808 12.4995 15.8344 12.4688C15.8879 12.438 15.9349 12.3969 15.9726 12.348C16.0103 12.2991 16.038 12.2432 16.0541 12.1836C16.0702 12.1239 16.0744 12.0617 16.0665 12.0005C16.0585 11.9392 16.0386 11.8801 16.0078 11.8266L15.5391 11.0156C15.5047 10.9569 15.458 10.9063 15.4021 10.8675C15.3463 10.8286 15.2826 10.8024 15.2156 10.7906C15.1483 10.7779 15.0789 10.7802 15.0125 10.7972C14.9461 10.8142 14.8842 10.8455 14.8312 10.8891L8.26875 16.2984L6.27188 17.4516C5.91352 17.6603 5.63448 17.9819 5.47841 18.3662C5.32235 18.7504 5.29807 19.1755 5.40937 19.575L4.94062 19.8422C4.6991 19.9809 4.50421 20.1882 4.38064 20.4378C4.25708 20.6874 4.21041 20.968 4.24657 21.2442C4.28272 21.5204 4.40006 21.7796 4.5837 21.9889C4.76735 22.1983 5.00904 22.3485 5.27813 22.4203C5.39742 22.4519 5.52035 22.4677 5.64375 22.4672C5.89035 22.4662 6.13251 22.4016 6.34687 22.2797L6.81563 22.0125C7.0408 22.2451 7.32399 22.4134 7.63594 22.5C7.79612 22.5448 7.9618 22.5669 8.12813 22.5656C8.45761 22.5664 8.7813 22.479 9.06563 22.3125L9.47344 22.0781L10.4109 23.7047C10.5973 24.0268 10.9036 24.262 11.263 24.3586C11.6224 24.4552 12.0054 24.4055 12.3281 24.2203C12.4882 24.1281 12.6286 24.0051 12.7412 23.8586C12.8538 23.712 12.9364 23.5447 12.9843 23.3662C13.0322 23.1878 13.0444 23.0016 13.0203 22.8184C12.9962 22.6351 12.9362 22.4585 12.8438 22.2984L11.9906 20.8125L19.0219 18.1734C19.0856 18.1495 19.1434 18.1119 19.1912 18.0633C19.2389 18.0147 19.2755 17.9563 19.2984 17.8922C19.3213 17.8288 19.3301 17.7612 19.3245 17.6941C19.3188 17.6269 19.2987 17.5618 19.2656 17.5031L16.9312 13.4531ZM5.85938 21.4641C5.80599 21.4949 5.74705 21.5149 5.68592 21.523C5.62479 21.531 5.56267 21.5269 5.50312 21.5109C5.38303 21.4797 5.28021 21.4022 5.21719 21.2953C5.18633 21.2419 5.1663 21.183 5.15826 21.1219C5.15022 21.0607 5.15431 20.9986 5.17031 20.9391C5.18632 20.8792 5.21403 20.8231 5.25184 20.774C5.28966 20.725 5.33683 20.6839 5.39062 20.6531L5.79844 20.4188L6.26719 21.2297L5.85938 21.4641ZM12.0281 22.7766C12.059 22.8299 12.079 22.8889 12.0871 22.95C12.0951 23.0111 12.091 23.0733 12.075 23.1328C12.0416 23.252 11.9624 23.3531 11.8547 23.4141C11.7476 23.4756 11.6206 23.4923 11.5012 23.4607C11.3819 23.4292 11.2798 23.3517 11.2172 23.2453L10.2797 21.6188L11.0578 21.1734H11.0953L12.0281 22.7766Z"/>
</mask>
<path d="M5.15625 7.03125H4.21875C4.09443 7.03125 3.9752 7.08064 3.88729 7.16854C3.79939 7.25645 3.75 7.37568 3.75 7.5C3.75 7.62432 3.79939 7.74355 3.88729 7.83146C3.9752 7.91936 4.09443 7.96875 4.21875 7.96875H5.15625C5.28057 7.96875 5.3998 7.91936 5.48771 7.83146C5.57561 7.74355 5.625 7.62432 5.625 7.5C5.625 7.37568 5.57561 7.25645 5.48771 7.16854C5.3998 7.08064 5.28057 7.03125 5.15625 7.03125ZM5.15625 8.90625H3.28125C3.15693 8.90625 3.0377 8.95564 2.94979 9.04354C2.86189 9.13145 2.8125 9.25068 2.8125 9.375C2.8125 9.49932 2.86189 9.61855 2.94979 9.70646C3.0377 9.79436 3.15693 9.84375 3.28125 9.84375H5.15625C5.28057 9.84375 5.3998 9.79436 5.48771 9.70646C5.57561 9.61855 5.625 9.49932 5.625 9.375C5.625 9.25068 5.57561 9.13145 5.48771 9.04354C5.3998 8.95564 5.28057 8.90625 5.15625 8.90625ZM5.15625 10.7813H3.28125C3.15693 10.7813 3.0377 10.8306 2.94979 10.9185C2.86189 11.0065 2.8125 11.1257 2.8125 11.25C2.8125 11.3743 2.86189 11.4935 2.94979 11.5815C3.0377 11.6694 3.15693 11.7188 3.28125 11.7188H5.15625C5.28057 11.7188 5.3998 11.6694 5.48771 11.5815C5.57561 11.4935 5.625 11.3743 5.625 11.25C5.625 11.1257 5.57561 11.0065 5.48771 10.9185C5.3998 10.8306 5.28057 10.7813 5.15625 10.7813ZM16.9312 13.4531C16.9005 13.3996 16.8594 13.3526 16.8105 13.3149C16.7616 13.2772 16.7057 13.2495 16.6461 13.2334C16.5864 13.2173 16.5242 13.2131 16.463 13.221C16.4017 13.229 16.3426 13.2489 16.2891 13.2797C16.2355 13.3105 16.1885 13.3515 16.1508 13.4004C16.1131 13.4494 16.0854 13.5052 16.0693 13.5649C16.0532 13.6245 16.049 13.6867 16.057 13.748C16.0649 13.8092 16.0848 13.8683 16.1156 13.9219L18.1828 17.4984L10.6828 20.3109H10.6125L9.39375 21.0141L8.58281 21.4828C8.47605 21.5445 8.35817 21.5846 8.2359 21.6007C8.11364 21.6168 7.9894 21.6086 7.87031 21.5766C7.63106 21.5119 7.42714 21.3552 7.30312 21.1406L6.36562 19.5188C6.25533 19.3066 6.2303 19.0602 6.29565 18.8302C6.36101 18.6001 6.51181 18.4038 6.71719 18.2813L8.33906 17.3438L9.51094 19.3734C9.55224 19.445 9.6117 19.5043 9.68332 19.5455C9.75493 19.5866 9.83615 19.6081 9.91875 19.6078C10.0012 19.6081 10.0823 19.5867 10.1538 19.5457C10.2253 19.5047 10.2847 19.4456 10.3261 19.3742C10.3675 19.3029 10.3893 19.222 10.3894 19.1395C10.3894 19.0571 10.3678 18.9761 10.3266 18.9047L9.11719 16.8141L15 11.9625L15.1922 12.2953C15.223 12.3489 15.264 12.3958 15.3129 12.4335C15.3619 12.4712 15.4177 12.4989 15.4774 12.515C15.537 12.5311 15.5992 12.5353 15.6605 12.5274C15.7217 12.5195 15.7808 12.4995 15.8344 12.4688C15.8879 12.438 15.9349 12.3969 15.9726 12.348C16.0103 12.2991 16.038 12.2432 16.0541 12.1836C16.0702 12.1239 16.0744 12.0617 16.0665 12.0005C16.0585 11.9392 16.0386 11.8801 16.0078 11.8266L15.5391 11.0156C15.5047 10.9569 15.458 10.9063 15.4021 10.8675C15.3463 10.8286 15.2826 10.8024 15.2156 10.7906C15.1483 10.7779 15.0789 10.7802 15.0125 10.7972C14.9461 10.8142 14.8842 10.8455 14.8312 10.8891L8.26875 16.2984L6.27188 17.4516C5.91352 17.6603 5.63448 17.9819 5.47841 18.3662C5.32235 18.7504 5.29807 19.1755 5.40937 19.575L4.94062 19.8422C4.6991 19.9809 4.50421 20.1882 4.38064 20.4378C4.25708 20.6874 4.21041 20.968 4.24657 21.2442C4.28272 21.5204 4.40006 21.7796 4.5837 21.9889C4.76735 22.1983 5.00904 22.3485 5.27813 22.4203C5.39742 22.4519 5.52035 22.4677 5.64375 22.4672C5.89035 22.4662 6.13251 22.4016 6.34687 22.2797L6.81563 22.0125C7.0408 22.2451 7.32399 22.4134 7.63594 22.5C7.79612 22.5448 7.9618 22.5669 8.12813 22.5656C8.45761 22.5664 8.7813 22.479 9.06563 22.3125L9.47344 22.0781L10.4109 23.7047C10.5973 24.0268 10.9036 24.262 11.263 24.3586C11.6224 24.4552 12.0054 24.4055 12.3281 24.2203C12.4882 24.1281 12.6286 24.0051 12.7412 23.8586C12.8538 23.712 12.9364 23.5447 12.9843 23.3662C13.0322 23.1878 13.0444 23.0016 13.0203 22.8184C12.9962 22.6351 12.9362 22.4585 12.8438 22.2984L11.9906 20.8125L19.0219 18.1734C19.0856 18.1495 19.1434 18.1119 19.1912 18.0633C19.2389 18.0147 19.2755 17.9563 19.2984 17.8922C19.3213 17.8288 19.3301 17.7612 19.3245 17.6941C19.3188 17.6269 19.2987 17.5618 19.2656 17.5031L16.9312 13.4531ZM5.85938 21.4641C5.80599 21.4949 5.74705 21.5149 5.68592 21.523C5.62479 21.531 5.56267 21.5269 5.50312 21.5109C5.38303 21.4797 5.28021 21.4022 5.21719 21.2953C5.18633 21.2419 5.1663 21.183 5.15826 21.1219C5.15022 21.0607 5.15431 20.9986 5.17031 20.9391C5.18632 20.8792 5.21403 20.8231 5.25184 20.774C5.28966 20.725 5.33683 20.6839 5.39062 20.6531L5.79844 20.4188L6.26719 21.2297L5.85938 21.4641ZM12.0281 22.7766C12.059 22.8299 12.079 22.8889 12.0871 22.95C12.0951 23.0111 12.091 23.0733 12.075 23.1328C12.0416 23.252 11.9624 23.3531 11.8547 23.4141C11.7476 23.4756 11.6206 23.4923 11.5012 23.4607C11.3819 23.4292 11.2798 23.3517 11.2172 23.2453L10.2797 21.6188L11.0578 21.1734H11.0953L12.0281 22.7766Z" fill="#14171B" stroke="white" stroke-width="0.2" mask="url(#path-5-inside-1_11372_28498)"/>
</g>
<defs>
<clipPath id="clip0_11372_28498">
<rect width="30" height="30" fill="white"/>
</clipPath>
</defs>
</svg>
