<svg width="30" height="29" viewBox="0 0 30 29" fill="none" xmlns="http://www.w3.org/2000/svg">
<path d="M29.9458 23.5259C29.805 22.8484 29.4068 22.2695 28.8243 21.8958C28.2417 21.5223 27.5499 21.4016 26.8751 21.5559L23.7481 22.2718V20.9936C24.3753 20.4028 25.0282 19.6315 25.4926 18.9266C26.307 17.6904 26.8834 16.3329 27.2056 14.8925C27.5888 13.1789 27.597 11.3647 27.2292 9.6456C27.1614 9.32931 26.8499 9.1274 26.5336 9.19543C26.2171 9.26293 26.0156 9.57441 26.0831 9.89093C26.416 11.4458 26.4086 13.0869 26.0619 14.6366C25.7707 15.938 25.2498 17.1646 24.5139 18.2817C24.2958 18.613 24.0312 18.9604 23.7481 19.2923V12.7975C23.7481 12.4739 23.4858 12.2115 23.1622 12.2115H18.5271V5.95437C18.5271 5.63163 18.2659 5.3696 17.9432 5.36843L12.7222 5.35085H12.7204C12.6436 5.35078 12.5675 5.36584 12.4966 5.39517C12.4256 5.42449 12.3611 5.46751 12.3067 5.52177C12.2521 5.57618 12.2088 5.64085 12.1792 5.71206C12.1496 5.78327 12.1344 5.85962 12.1344 5.93673V9.19168H7.49866C7.17522 9.19168 6.91272 9.454 6.91272 9.77761V15.58H5.60713V14.7842C5.60713 14.4607 5.34487 14.1985 5.0212 14.1985H4.4202C4.31763 13.6349 4.25892 13.0643 4.24459 12.4917C4.21026 11.1026 4.43045 9.74351 4.89873 8.45169C5.00853 8.14908 5.13149 7.85142 5.26729 7.55955C5.40393 7.26611 5.27666 6.91753 4.98346 6.78083C4.69002 6.64466 4.34145 6.77146 4.20504 7.0649C4.05462 7.38787 3.91853 7.71733 3.79717 8.05232C3.27897 9.48166 3.03545 10.9852 3.07295 12.5206C3.08728 13.0828 3.1402 13.6434 3.23133 14.1985H0.585938C0.262324 14.1985 0 14.4608 0 14.7844V25.0837C0 25.4073 0.262324 25.6696 0.585938 25.6696H5.0212C5.34487 25.6696 5.60713 25.4073 5.60713 25.0837V24.5265H7.81131L16.7397 28.0285C17.5733 28.3555 18.4466 28.5201 19.3243 28.5201C19.9095 28.5201 20.4973 28.4468 21.0761 28.2996L28.0742 26.521C29.4027 26.1834 30.2246 24.8678 29.9458 23.5259ZM22.5764 13.3834V22.5401L21.01 22.8987C20.8414 22.9369 20.6713 22.9679 20.5 22.9914C19.8465 23.0815 19.1825 23.0623 18.5353 22.9344C18.5326 22.9337 18.5298 22.9333 18.5271 22.9326V22.0441C18.9738 21.3776 19.122 20.5326 18.8878 19.7612C18.8226 19.5455 18.7299 19.339 18.612 19.1469C18.5853 19.1035 18.5574 19.0609 18.5282 19.0191C18.528 19.0185 18.5275 19.018 18.5271 19.0174V13.3832H22.5765L22.5764 13.3834ZM13.3063 6.52472L17.3554 6.5382V18.0867L15.0925 17.1501L13.3063 16.4107V6.52472ZM8.0846 10.3636H12.1337V15.9252L11.407 15.6244C11.336 15.5949 11.2598 15.5798 11.1829 15.5798H8.0846V10.3636ZM4.43526 24.4977H1.17188V15.3701H3.93633C3.9375 15.3701 3.93885 15.3703 3.9402 15.3703C3.94137 15.3703 3.94225 15.3701 3.94342 15.3701H4.43526V24.4977ZM27.7856 25.3853L20.7875 27.164C19.5795 27.4709 18.3277 27.3924 17.1676 26.9376L8.13604 23.3952C8.06786 23.3685 7.99528 23.3548 7.92206 23.3549H5.60713V16.7519H11.0662L14.8574 18.3211L16.932 19.1799C17.666 19.4843 18.0174 20.3453 17.7164 21.0784C17.656 21.2256 17.5811 21.3655 17.4818 21.4902C17.1149 21.9532 16.5109 22.1574 15.946 22.0201L15.9322 22.0166C15.8983 22.0081 15.8646 21.9983 15.8313 21.9873L11.8888 20.4717C11.8567 20.4593 11.8398 20.4529 11.8398 20.4529C11.5379 20.3366 11.199 20.4875 11.0827 20.7896C10.9667 21.0915 11.1173 21.4307 11.4194 21.5467C11.4194 21.5467 13.6423 22.4014 15.3374 23.0551C15.3715 23.0683 15.4054 23.0807 15.4395 23.0921L16.7411 23.5927C17.1346 23.744 17.5262 23.8946 17.9357 23.9992C18.6322 24.1771 19.3517 24.2479 20.0695 24.2091C20.4744 24.1873 20.8766 24.1311 21.2719 24.0411L23.2931 23.5785C23.2951 23.578 23.2972 23.5772 23.2993 23.5767L27.1367 22.6982C27.5018 22.6147 27.8765 22.6799 28.1914 22.8821C28.5068 23.0844 28.7222 23.3977 28.7984 23.7644C28.8716 24.1131 28.8071 24.4765 28.6183 24.7787C28.4295 25.0808 28.1311 25.2982 27.7856 25.3853ZM7.49292 4.16749C7.638 4.16769 7.77796 4.11384 7.88549 4.01644C8.93098 3.07208 10.1795 2.3188 11.4967 1.83792C12.9238 1.31702 14.4883 1.09477 16.0211 1.19544C17.1146 1.2668 18.1914 1.50133 19.2156 1.89124C19.5177 2.00638 19.8564 1.85491 19.9716 1.55227C20.0869 1.24993 19.9352 0.911434 19.6326 0.796298C18.4994 0.36474 17.308 0.105128 16.0979 0.0260821C14.4038 -0.0851289 12.6737 0.160672 11.0949 0.737235C9.63751 1.26915 8.25622 2.10247 7.10016 3.14667C6.85981 3.36364 6.84106 3.73419 7.05803 3.97431C7.11288 4.03525 7.17996 4.08395 7.25489 4.11724C7.32982 4.15052 7.41092 4.16765 7.49292 4.16749Z" fill="#14171B"/>
<path d="M20.7953 8.34919C20.9017 8.44188 21.0381 8.49287 21.1793 8.49274C21.2632 8.49284 21.3462 8.47491 21.4225 8.44015C21.4989 8.4054 21.5669 8.35463 21.622 8.29129L26.4427 2.74205C26.6551 2.49783 26.629 2.12775 26.3848 1.91553C26.1403 1.70342 25.7705 1.7292 25.5583 1.97348L20.7373 7.52272C20.5249 7.76694 20.551 8.13702 20.7953 8.34919ZM25.1154 5.84407C24.3042 5.84407 23.6444 6.50395 23.6444 7.31512C23.6444 8.12629 24.3042 8.78612 25.1154 8.78612C25.9266 8.78612 26.5865 8.12606 26.5865 7.31512C26.5865 6.50395 25.9266 5.84407 25.1154 5.84407ZM25.1154 7.61424C25.0361 7.61417 24.96 7.58263 24.904 7.52655C24.8479 7.47047 24.8164 7.39443 24.8163 7.31512C24.8164 7.23581 24.8479 7.15978 24.904 7.10369C24.9601 7.04761 25.0361 7.01605 25.1154 7.01594C25.1947 7.01608 25.2707 7.04765 25.3268 7.10372C25.3829 7.1598 25.4144 7.23582 25.4146 7.31512C25.4145 7.39443 25.3829 7.47046 25.3268 7.52653C25.2707 7.58261 25.1947 7.61415 25.1154 7.61424ZM21.8616 4.53971C22.6728 4.53971 23.3326 3.87983 23.3326 3.06865C23.3326 2.25748 22.6728 1.59766 21.8616 1.59766C21.0505 1.59766 20.3906 2.25748 20.3906 3.06859C20.3906 3.87971 21.0505 4.53971 21.8616 4.53971ZM21.8616 2.7693C21.941 2.76942 22.017 2.80102 22.0731 2.85715C22.1292 2.91328 22.1607 2.98937 22.1607 3.06871C22.1606 3.14801 22.1291 3.22403 22.073 3.2801C22.0169 3.33618 21.9409 3.36773 21.8616 3.36783C21.7823 3.36774 21.7063 3.33619 21.6502 3.2801C21.5941 3.22402 21.5625 3.14797 21.5624 3.06865C21.5624 2.90365 21.6966 2.7693 21.8616 2.7693ZM5.41095 5.54448C5.50481 5.76971 5.73573 5.91848 5.98042 5.90565C6.22235 5.89305 6.43429 5.7294 6.50911 5.49959C6.5847 5.26774 6.50226 5.00365 6.30843 4.85553C6.11085 4.70494 5.83347 4.69557 5.62657 4.83309C5.397 4.98578 5.30501 5.29018 5.41095 5.54448Z" fill="#14171B"/>
</svg>
