<svg width="30" height="30" viewBox="0 0 30 30" fill="none" xmlns="http://www.w3.org/2000/svg">
<g clip-path="url(#clip0_11372_28447)">
<mask id="path-1-inside-1_11372_28447" fill="white">
<path d="M29.3954 22.7608L29.3402 22.7055C28.6878 22.0532 27.7213 21.8725 26.8946 22.2048V12.8906H29.1305C29.2464 12.8905 29.3597 12.8561 29.456 12.7917C29.5524 12.7273 29.6275 12.6358 29.6718 12.5287C29.7161 12.4216 29.7277 12.3037 29.705 12.19C29.6824 12.0764 29.6265 11.972 29.5445 11.8901L17.8107 0.171313C17.5819 -0.0571436 17.2113 -0.057085 16.9825 0.171372L13.7612 3.38957C13.5322 3.61827 13.532 3.98928 13.7607 4.21821C13.9895 4.44719 14.3605 4.44737 14.5894 4.21862L17.3967 1.41409L27.7146 11.7187H25.6398L17.8106 3.89957C17.5819 3.67112 17.2113 3.67112 16.9825 3.89957L9.1534 11.7187H7.07859L11.3249 7.47784C11.5539 7.24915 11.5542 6.87819 11.3255 6.6492C11.0968 6.42022 10.7258 6.41998 10.4968 6.64868L5.24871 11.8901C5.16668 11.972 5.11078 12.0764 5.0881 12.19C5.06542 12.3037 5.07698 12.4216 5.1213 12.5287C5.16563 12.6358 5.24073 12.7274 5.33711 12.7918C5.43349 12.8562 5.54681 12.8906 5.66273 12.8906H7.91016V17.8789H7.0459V17.5952C7.0459 16.5357 6.18398 15.6738 5.12449 15.6738H0.585938C0.262324 15.6738 0 15.9361 0 16.2597V29.414C0 29.7375 0.262324 29.9999 0.585938 29.9999H5.12449C6.18393 29.9999 7.0459 29.138 7.0459 28.0785V27.8367L8.58545 28.7692C9.91479 29.5743 11.4393 30 12.9935 30H21.5024C23.1645 30 24.7911 29.4239 26.0827 28.3777L29.235 25.8244C29.4596 25.6422 29.6435 25.4149 29.7748 25.1572C29.9061 24.8995 29.9818 24.6171 29.9971 24.3283C30.0121 24.0395 29.9662 23.7507 29.8626 23.4807C29.7589 23.2107 29.5998 22.9654 29.3954 22.7608ZM5.87402 28.0785C5.87402 28.4918 5.53781 28.8281 5.12449 28.8281H1.17188V16.8456H5.12449C5.53775 16.8456 5.87402 17.1818 5.87402 17.5952V28.0785ZM9.08203 12.8906H9.39586C9.55112 12.8905 9.70002 12.8289 9.80988 12.7192L17.3966 5.14229L24.9833 12.7192C25.0931 12.8289 25.242 12.8906 25.3973 12.8906H25.7227V22.9248C25.7227 22.9462 25.7239 22.9673 25.7262 22.988L24.4881 23.9191C24.408 23.5336 24.2256 23.173 23.9501 22.8975C23.6181 22.5656 23.1767 22.3827 22.7072 22.3827H21.2638V14.0038C21.2638 13.6802 21.0015 13.4179 20.6779 13.4179H14.1154C13.7917 13.4179 13.5294 13.6802 13.5294 14.0038V18.4786C12.9536 18.0888 12.2752 17.8789 11.5644 17.8789H9.08203V12.8906ZM20.0919 14.5898V22.3827H17.9952C17.6822 22.3827 17.3879 22.2609 17.1676 22.0404L14.6969 19.5582C14.6995 19.5356 14.7013 19.5128 14.7013 19.4894V14.5898H20.0919ZM28.8269 24.267C28.8135 24.5228 28.6965 24.7525 28.4974 24.9138L25.3451 27.467C24.2615 28.3447 22.8968 28.8281 21.5024 28.8281H12.9935C11.6533 28.8281 10.3388 28.461 9.19254 27.7667L7.0459 26.4666V19.0508H11.5644C12.1904 19.0508 12.779 19.2946 13.2207 19.7364L16.3379 22.8681C16.7807 23.3108 17.3692 23.5546 17.9952 23.5546H22.7072C22.7842 23.5544 22.8604 23.5695 22.9315 23.5989C23.0027 23.6284 23.0672 23.6716 23.1215 23.7262C23.3902 23.9949 23.4119 24.4374 23.2959 24.7174C23.2612 24.801 23.2205 24.8607 23.1783 24.9041L23.1483 24.9266L23.1537 24.9276C23.052 25.0165 22.9472 25.017 22.9029 25.017H15.8789C15.475 25.0173 15.0796 24.9001 14.7412 24.6796L12.8609 23.4566L12.854 23.4521C12.583 23.2754 12.22 23.3515 12.0431 23.6225C11.8662 23.8935 11.9425 24.2566 12.2135 24.4335L14.1022 25.6619C14.6308 26.0062 15.2481 26.1893 15.8789 26.1889H22.9028C23.2961 26.1889 23.6505 26.0517 23.9293 25.8056L27.1266 23.4011C27.337 23.259 27.5903 23.1945 27.843 23.2188C28.0957 23.2431 28.332 23.3546 28.5115 23.5342L28.5668 23.5894C28.7479 23.7705 28.8403 24.0112 28.8269 24.267Z"/>
</mask>
<path d="M29.3954 22.7608L29.3402 22.7055C28.6878 22.0532 27.7213 21.8725 26.8946 22.2048V12.8906H29.1305C29.2464 12.8905 29.3597 12.8561 29.456 12.7917C29.5524 12.7273 29.6275 12.6358 29.6718 12.5287C29.7161 12.4216 29.7277 12.3037 29.705 12.19C29.6824 12.0764 29.6265 11.972 29.5445 11.8901L17.8107 0.171313C17.5819 -0.0571436 17.2113 -0.057085 16.9825 0.171372L13.7612 3.38957C13.5322 3.61827 13.532 3.98928 13.7607 4.21821C13.9895 4.44719 14.3605 4.44737 14.5894 4.21862L17.3967 1.41409L27.7146 11.7187H25.6398L17.8106 3.89957C17.5819 3.67112 17.2113 3.67112 16.9825 3.89957L9.1534 11.7187H7.07859L11.3249 7.47784C11.5539 7.24915 11.5542 6.87819 11.3255 6.6492C11.0968 6.42022 10.7258 6.41998 10.4968 6.64868L5.24871 11.8901C5.16668 11.972 5.11078 12.0764 5.0881 12.19C5.06542 12.3037 5.07698 12.4216 5.1213 12.5287C5.16563 12.6358 5.24073 12.7274 5.33711 12.7918C5.43349 12.8562 5.54681 12.8906 5.66273 12.8906H7.91016V17.8789H7.0459V17.5952C7.0459 16.5357 6.18398 15.6738 5.12449 15.6738H0.585938C0.262324 15.6738 0 15.9361 0 16.2597V29.414C0 29.7375 0.262324 29.9999 0.585938 29.9999H5.12449C6.18393 29.9999 7.0459 29.138 7.0459 28.0785V27.8367L8.58545 28.7692C9.91479 29.5743 11.4393 30 12.9935 30H21.5024C23.1645 30 24.7911 29.4239 26.0827 28.3777L29.235 25.8244C29.4596 25.6422 29.6435 25.4149 29.7748 25.1572C29.9061 24.8995 29.9818 24.6171 29.9971 24.3283C30.0121 24.0395 29.9662 23.7507 29.8626 23.4807C29.7589 23.2107 29.5998 22.9654 29.3954 22.7608ZM5.87402 28.0785C5.87402 28.4918 5.53781 28.8281 5.12449 28.8281H1.17188V16.8456H5.12449C5.53775 16.8456 5.87402 17.1818 5.87402 17.5952V28.0785ZM9.08203 12.8906H9.39586C9.55112 12.8905 9.70002 12.8289 9.80988 12.7192L17.3966 5.14229L24.9833 12.7192C25.0931 12.8289 25.242 12.8906 25.3973 12.8906H25.7227V22.9248C25.7227 22.9462 25.7239 22.9673 25.7262 22.988L24.4881 23.9191C24.408 23.5336 24.2256 23.173 23.9501 22.8975C23.6181 22.5656 23.1767 22.3827 22.7072 22.3827H21.2638V14.0038C21.2638 13.6802 21.0015 13.4179 20.6779 13.4179H14.1154C13.7917 13.4179 13.5294 13.6802 13.5294 14.0038V18.4786C12.9536 18.0888 12.2752 17.8789 11.5644 17.8789H9.08203V12.8906ZM20.0919 14.5898V22.3827H17.9952C17.6822 22.3827 17.3879 22.2609 17.1676 22.0404L14.6969 19.5582C14.6995 19.5356 14.7013 19.5128 14.7013 19.4894V14.5898H20.0919ZM28.8269 24.267C28.8135 24.5228 28.6965 24.7525 28.4974 24.9138L25.3451 27.467C24.2615 28.3447 22.8968 28.8281 21.5024 28.8281H12.9935C11.6533 28.8281 10.3388 28.461 9.19254 27.7667L7.0459 26.4666V19.0508H11.5644C12.1904 19.0508 12.779 19.2946 13.2207 19.7364L16.3379 22.8681C16.7807 23.3108 17.3692 23.5546 17.9952 23.5546H22.7072C22.7842 23.5544 22.8604 23.5695 22.9315 23.5989C23.0027 23.6284 23.0672 23.6716 23.1215 23.7262C23.3902 23.9949 23.4119 24.4374 23.2959 24.7174C23.2612 24.801 23.2205 24.8607 23.1783 24.9041L23.1483 24.9266L23.1537 24.9276C23.052 25.0165 22.9472 25.017 22.9029 25.017H15.8789C15.475 25.0173 15.0796 24.9001 14.7412 24.6796L12.8609 23.4566L12.854 23.4521C12.583 23.2754 12.22 23.3515 12.0431 23.6225C11.8662 23.8935 11.9425 24.2566 12.2135 24.4335L14.1022 25.6619C14.6308 26.0062 15.2481 26.1893 15.8789 26.1889H22.9028C23.2961 26.1889 23.6505 26.0517 23.9293 25.8056L27.1266 23.4011C27.337 23.259 27.5903 23.1945 27.843 23.2188C28.0957 23.2431 28.332 23.3546 28.5115 23.5342L28.5668 23.5894C28.7479 23.7705 28.8403 24.0112 28.8269 24.267Z" fill="#14171B" stroke="white" stroke-width="0.4" mask="url(#path-1-inside-1_11372_28447)"/>
<path d="M23.7898 17.0289C23.4662 17.0289 23.2039 17.2913 23.2039 17.6148V21.3281C23.2039 21.6517 23.4662 21.9141 23.7898 21.9141C24.1135 21.9141 24.3758 21.6517 24.3758 21.3281V17.6148C24.3758 17.2913 24.1135 17.0289 23.7898 17.0289ZM24.2041 14.9707C24.0951 14.8611 23.9439 14.799 23.7898 14.799C23.6357 14.799 23.4846 14.8611 23.3756 14.9707C23.266 15.0808 23.2043 15.2296 23.2039 15.3849C23.2039 15.5391 23.2666 15.6902 23.3756 15.7992C23.4846 15.9082 23.6357 15.9708 23.7898 15.9708C23.9439 15.9708 24.0951 15.9082 24.2041 15.7992C24.3136 15.689 24.3753 15.5402 24.3758 15.3849C24.3758 15.2302 24.3131 15.0796 24.2041 14.9707ZM16.4574 18.0503C16.3472 17.941 16.1984 17.8796 16.0432 17.8792C15.8885 17.8792 15.7379 17.9414 15.6283 18.0503C15.5191 18.1606 15.4576 18.3094 15.4572 18.4646C15.4572 18.6193 15.5193 18.7699 15.6283 18.8794C15.7379 18.9884 15.8891 19.0511 16.0432 19.0511C16.1973 19.0511 16.3479 18.9884 16.4574 18.8794C16.5669 18.7691 16.6286 18.6201 16.6291 18.4646C16.6291 18.3105 16.5664 18.1599 16.4574 18.0503ZM12.9581 5.01926C12.7293 4.79045 12.3583 4.79045 12.1295 5.01926C11.9006 5.24807 11.9006 5.61909 12.1295 5.84795L12.1296 5.84801C12.1839 5.9025 12.2485 5.9457 12.3196 5.97514C12.3907 6.00459 12.4669 6.01969 12.5438 6.01958C12.6208 6.01967 12.697 6.00456 12.7681 5.9751C12.8392 5.94565 12.9038 5.90244 12.9581 5.84795C13.187 5.61915 13.1869 5.24807 12.9581 5.01926ZM17.3974 7.71481C16.1373 7.71481 15.1122 8.73991 15.1122 9.99997C15.1122 11.26 16.1373 12.2851 17.3974 12.2851C18.6574 12.2851 19.6825 11.26 19.6825 9.99997C19.6825 8.73991 18.6574 7.71481 17.3974 7.71481ZM17.3974 11.1132C16.7835 11.1132 16.2841 10.6139 16.2841 9.99997C16.2841 9.38608 16.7835 8.88668 17.3974 8.88668C18.0113 8.88668 18.5107 9.38608 18.5107 9.99997C18.5107 10.6139 18.0113 11.1132 17.3974 11.1132ZM3.9377 25.8357C3.82764 25.7261 3.67876 25.6644 3.52344 25.6641C3.36934 25.6641 3.21875 25.7267 3.10918 25.8357C3.0002 25.9447 2.9375 26.0959 2.9375 26.25C2.9375 26.4041 3.0002 26.5553 3.10918 26.6642C3.21937 26.7736 3.36816 26.8353 3.52344 26.8359C3.67813 26.8359 3.82871 26.7732 3.9377 26.6642C4.04727 26.5553 4.10938 26.4041 4.10938 26.25C4.10938 26.0959 4.04727 25.9447 3.9377 25.8357Z" fill="#14171B"/>
</g>
<defs>
<clipPath id="clip0_11372_28447">
<rect width="30" height="30" fill="white"/>
</clipPath>
</defs>
</svg>
