<svg width="26" height="28" viewBox="0 0 26 28" fill="none" xmlns="http://www.w3.org/2000/svg">
<path d="M15.3817 5.78374C14.8205 4.89218 13.8102 4.35187 12.772 4.38499C12.5974 4.38982 12.4319 4.46375 12.3118 4.59055C12.1917 4.71735 12.1268 4.88664 12.1314 5.06124L12.2314 5.0586C12.2275 4.91049 12.2825 4.76688 12.3844 4.65932C12.4863 4.55176 12.6267 4.48905 12.7748 4.48495L12.7752 4.48494C13.7774 4.45296 14.7545 4.97507 15.2971 5.83702M15.3817 5.78374L15.2971 5.83699C15.2971 5.837 15.2971 5.83701 15.2971 5.83702M15.3817 5.78374L15.2971 5.83702M15.3817 5.78374C15.4747 5.93148 15.5051 6.11008 15.4664 6.28027C15.4276 6.45046 15.3229 6.59829 15.1752 6.69124L15.2971 5.83702M6.10961 3.01343H6.10953C5.96677 3.01343 5.82382 2.9591 5.71463 2.84991C5.71462 2.84991 5.71462 2.84991 5.71462 2.84991L4.16806 1.30304L4.16805 1.30303C4.11621 1.25119 4.07509 1.18965 4.04704 1.12191C4.01898 1.05418 4.00454 0.981586 4.00454 0.908272C4.00454 0.834959 4.01898 0.762363 4.04704 0.694631C4.07509 0.626898 4.11621 0.565354 4.16805 0.513514C4.2199 0.461674 4.28144 0.420552 4.34917 0.392496C4.4169 0.36444 4.4895 0.35 4.56281 0.35C4.63613 0.35 4.70872 0.36444 4.77645 0.392496C4.84419 0.420552 4.90573 0.461674 4.95757 0.513514L6.50445 2.06039L6.50449 2.06043C6.58263 2.13849 6.63586 2.23797 6.65743 2.3463C6.679 2.45462 6.66795 2.56691 6.62567 2.66895C6.58339 2.77099 6.51178 2.85819 6.41992 2.91951C6.32806 2.98083 6.22006 3.01352 6.10961 3.01343ZM19.8877 3.01374H19.8876C19.7772 3.01378 19.6692 2.98105 19.5774 2.91971C19.4856 2.85837 19.414 2.77117 19.3718 2.66914C19.3295 2.56711 19.3185 2.45484 19.3401 2.34654C19.3617 2.23825 19.4149 2.13878 19.493 2.06074L19.493 2.06072L21.0405 0.513841L21.0406 0.513827C21.0924 0.461986 21.1539 0.420864 21.2217 0.392809C21.2894 0.364753 21.362 0.350312 21.4353 0.350312C21.5086 0.350312 21.5812 0.364753 21.649 0.392808C21.7167 0.420864 21.7782 0.461986 21.8301 0.513827C21.8819 0.565667 21.923 0.627211 21.9511 0.694943C21.9791 0.762676 21.9936 0.835272 21.9936 0.908585C21.9936 0.981898 21.9791 1.05449 21.9511 1.12223C21.923 1.18996 21.8819 1.2515 21.8301 1.30334L20.2833 2.85013C20.174 2.95913 20.031 3.01374 19.8877 3.01374ZM12.8083 5.70155L12.8136 5.6017C12.8124 5.60163 12.8112 5.60157 12.8101 5.6015C12.8087 5.60152 12.8074 5.60155 12.8061 5.60158L12.8083 5.70155Z" fill="#14171B" stroke="white" stroke-width="0.2"/>
<path d="M1.91341 26.6411C5.25622 26.1586 8.57622 26.4152 11.785 27.4089M1.91341 26.6411L25.6762 8.2564M1.91341 26.6411L1.25747 26.7383M1.91341 26.6411L1.25747 26.7383M11.785 27.4089L12.8059 27.7217M11.785 27.4089L11.8146 27.3134M11.785 27.4089L11.8146 27.3134M12.8059 27.7217C12.8684 27.7405 12.9337 27.7502 12.9987 27.7502C13.0687 27.7502 13.4112 27.648 13.4112 27.648M12.8059 27.7217L12.8352 27.6261L12.8351 27.6261M12.8059 27.7217L11.8146 27.3134M13.4112 27.648C16.8318 26.4639 20.51 26.1173 24.0528 26.6408M13.4112 27.648L13.3785 27.5535C13.3792 27.5532 13.3799 27.553 13.3806 27.5527M13.4112 27.648L13.3826 27.5521L13.3826 27.5522L13.3824 27.5522L13.3817 27.5524L13.3806 27.5527M24.0528 26.6408C24.0528 26.6408 24.4612 26.6661 24.5931 26.6986C24.8459 26.7614 25.1084 26.7645 25.3256 26.6167C25.5065 26.4945 25.6762 26.1745 25.6762 25.9558V8.2564M24.0528 26.6408L24.059 26.541L24.059 26.541L24.0591 26.541L24.0593 26.541L24.0602 26.541L24.0633 26.5412M24.0528 26.6408L24.0674 26.5419C24.066 26.5416 24.0646 26.5414 24.0633 26.5412M25.6762 8.2564H25.5762C25.5762 8.25642 25.5762 8.25643 25.5762 8.25645L25.6762 8.2564ZM11.8146 27.3134L12.8346 27.6259C12.8348 27.626 12.835 27.626 12.8351 27.6261M12.8351 27.6261C12.8883 27.642 12.9437 27.6502 12.9987 27.6502C12.9983 27.6502 13.0042 27.6499 13.0194 27.6472C13.0331 27.6449 13.0504 27.6413 13.0704 27.6367C13.1105 27.6275 13.1584 27.6152 13.2051 27.6025C13.2516 27.5899 13.296 27.5773 13.3289 27.5679L13.3682 27.5564L13.3789 27.5532L13.3806 27.5527M12.8351 27.6261L24.0633 26.5412M13.3806 27.5527C16.8144 26.3645 20.5064 26.0164 24.0633 26.5412M1.25747 26.7383C1.09247 26.7602 0.808721 26.7095 0.672158 26.617C0.451846 26.4683 0.321533 26.2214 0.321533 25.9561V8.25671C0.321533 7.59265 0.778096 7.04203 1.43185 6.91734L1.25747 26.7383ZM15.6206 13.5305V13.5306C15.6201 13.9518 15.4525 14.3555 15.1547 14.6533C14.8569 14.9511 14.4531 15.1187 14.032 15.1192H14.0318H13.6565H13.5565V15.0192V11.5589C13.5517 11.4143 13.491 11.2772 13.3871 11.1765C13.2828 11.0754 13.1433 11.0189 12.9981 11.0189C12.8529 11.0189 12.7134 11.0754 12.6091 11.1765C12.5052 11.2772 12.4445 11.4143 12.4397 11.5589V15.0189V15.1189H12.3397H11.9643H11.9642C11.5431 15.1184 11.1393 14.9508 10.8415 14.653C10.5437 14.3552 10.3761 13.9514 10.3756 13.5303V13.5302C10.3756 12.8101 10.0657 12.1262 9.49786 11.6034L9.49781 11.6034C8.96749 11.1144 8.5452 10.5201 8.25804 9.85839C7.97088 9.1967 7.82518 8.4823 7.83029 7.76101L7.83029 7.76089C7.85292 5.00875 10.1066 2.7115 12.8567 2.63832C12.8568 2.63832 12.8569 2.63831 12.857 2.63831L15.6206 13.5305ZM15.6206 13.5305C15.6206 12.811 15.9305 12.1271 16.4984 11.6037C17.5585 10.6283 18.1658 9.24361 18.1659 7.80424M15.6206 13.5305L16.6024 4.10088C17.0991 4.58098 17.4936 5.15649 17.7622 5.79285C18.0309 6.42927 18.1682 7.11342 18.1659 7.80424M14.0316 16.2358L11.9644 16.2358C11.9644 16.2358 11.9643 16.2358 11.9642 16.2358C11.7901 16.2351 11.6165 16.2175 11.4458 16.1833L11.3262 16.1594V16.2814V16.6261V16.6262C11.3266 17.0701 11.503 17.4958 11.8168 17.8098C12.1306 18.1238 12.5562 18.3005 13.0001 18.3011H13.0003C13.9167 18.3011 14.6609 17.5489 14.6609 16.6261V16.2823V16.1606L14.5415 16.1842C14.3735 16.2175 14.2028 16.2347 14.0316 16.2358ZM14.0316 16.2358H14.0318V16.3358L14.0313 16.2358C14.0314 16.2358 14.0315 16.2358 14.0316 16.2358ZM18.1659 7.80424L18.0659 7.8039H18.1659C18.1659 7.80401 18.1659 7.80413 18.1659 7.80424ZM19.3008 6.9459C21.0616 6.72052 22.8177 6.73302 24.5307 7.01332L11.8143 27.3133C8.59129 26.3152 5.2564 26.0575 1.89912 26.5421L1.89875 26.5422L1.24433 26.6391C1.24407 26.6392 1.24382 26.6392 1.24356 26.6392C1.17536 26.6481 1.07514 26.6425 0.973552 26.6224C0.870576 26.6021 0.780517 26.5696 0.728238 26.5342L0.728116 26.5342C0.535501 26.4041 0.421533 26.1884 0.421533 25.9561V8.25671C0.421533 7.64109 0.843462 7.13171 1.44983 7.01571C3.07553 6.73182 4.91715 6.70927 6.69815 6.94398L6.79493 6.95674L6.81002 6.86029C7.26909 3.92525 9.78922 1.60223 12.827 1.52168L12.8273 1.52167C14.5391 1.47184 16.156 2.1071 17.3821 3.30056C18.3778 4.26987 18.9873 5.51269 19.1892 6.86152L19.2037 6.95833L19.3008 6.9459ZM1.65573 25.4501L1.7365 25.4366C1.73684 25.4366 1.73718 25.4365 1.73751 25.4365C5.26287 24.9257 8.76218 25.1974 12.1425 26.246L12.143 26.2461L12.3111 26.2974L12.4403 26.3367V26.2017V19.4352V19.356L12.3632 19.3378C11.1312 19.0475 10.2087 17.9453 10.2087 16.6264V15.6192V15.5743L10.1752 15.5445C9.61669 15.0476 9.25841 14.3331 9.25841 13.5305C9.25841 13.1221 9.07207 12.7295 8.74142 12.4262C7.54031 11.3213 6.84683 9.78176 6.75324 8.15846L6.74851 8.07638L6.66706 8.06515C4.96414 7.83045 3.18401 7.84812 1.65189 8.11476L1.56918 8.12915L1.56903 8.2131L1.53935 25.3512L1.53914 25.4694L1.65573 25.4501ZM24.3456 25.4527L24.459 25.4681V25.3536V8.2564V8.17314L24.3772 8.15806C22.7103 7.85093 21.0212 7.84012 19.3317 8.06635L19.2499 8.0773L19.2451 8.1597C19.1516 9.781 18.4541 11.3219 17.2554 12.425C16.9249 12.729 16.7375 13.1212 16.7375 13.5302C16.7375 14.3368 16.3762 15.0545 15.8123 15.5514L15.7784 15.5812V15.6264V16.6261C15.7784 17.9457 14.8606 19.0476 13.6342 19.3375L13.5572 19.3557V19.4348V26.2136V26.3498L13.6871 26.309C17.0966 25.2392 20.7223 24.9155 24.2268 25.4366L24.2281 25.4367L24.3456 25.4527Z" fill="#14171B" stroke="white" stroke-width="0.2"/>
<path d="M6.79468 13.606C6.69394 13.7099 6.55683 13.7706 6.41223 13.7755H4.29794C4.15334 13.7706 4.01623 13.7099 3.91549 13.606C3.81441 13.5017 3.75788 13.3622 3.75788 13.217C3.75788 13.0718 3.81441 12.9323 3.91549 12.8281C4.01623 12.7242 4.15334 12.6634 4.29794 12.6586H6.41223C6.55683 12.6634 6.69394 12.7242 6.79468 12.8281C6.89577 12.9323 6.9523 13.0718 6.9523 13.217C6.9523 13.3622 6.89577 13.5017 6.79468 13.606ZM8.05946 17.9083H4.29634C3.98738 17.9083 3.73696 17.6579 3.73696 17.3498C3.73696 17.0418 3.98738 16.7914 4.29634 16.7914H8.05946C8.20757 16.7914 8.34961 16.8502 8.45434 16.955C8.55907 17.0597 8.6179 17.2017 8.6179 17.3498C8.6179 17.498 8.55907 17.64 8.45434 17.7447C8.34961 17.8494 8.20757 17.9083 8.05946 17.9083ZM4.29634 20.6583H9.12943C9.27402 20.6631 9.41113 20.7239 9.51187 20.8278C9.61296 20.932 9.66949 21.0715 9.66949 21.2167C9.66949 21.3619 9.61296 21.5014 9.51187 21.6057C9.41113 21.7096 9.27402 21.7703 9.12943 21.7752H4.29634C3.9871 21.7752 3.73696 21.5248 3.73696 21.2167C3.73696 20.9086 3.98738 20.6583 4.29634 20.6583ZM19.5857 14.0414C19.2765 14.0414 19.0263 13.7911 19.0263 13.483C19.0263 13.1749 19.2765 12.9245 19.5857 12.9245H21.701C21.8456 12.9294 21.9827 12.9901 22.0834 13.094C22.1845 13.1983 22.2411 13.3378 22.2411 13.483C22.2411 13.6282 22.1845 13.7677 22.0834 13.8719C21.9827 13.9758 21.8456 14.0366 21.701 14.0414H19.5857ZM17.9382 16.7914H21.7013C22.0103 16.7914 22.2607 17.0418 22.2607 17.3498C22.2607 17.6579 22.0103 17.9083 21.7013 17.9083H17.9382C17.7901 17.9083 17.6481 17.8494 17.5433 17.7447C17.4386 17.64 17.3798 17.498 17.3798 17.3498C17.3798 17.2017 17.4386 17.0597 17.5433 16.955C17.6481 16.8502 17.7901 16.7914 17.9382 16.7914ZM16.4842 20.8237C16.585 20.7198 16.7221 20.6591 16.8667 20.6542H21.2288C21.3734 20.6591 21.5105 20.7198 21.6112 20.8237C21.7123 20.9279 21.7689 21.0674 21.7689 21.2127C21.7689 21.3579 21.7123 21.4974 21.6112 21.6016C21.5105 21.7055 21.3734 21.7663 21.2288 21.7711H16.8667C16.7221 21.7663 16.585 21.7055 16.4842 21.6016C16.3832 21.4974 16.3266 21.3579 16.3266 21.2127C16.3266 21.0674 16.3832 20.9279 16.4842 20.8237Z" fill="#14171B" stroke="white" stroke-width="0.2"/>
</svg>
