<svg width="32" height="19" viewBox="0 0 32 19" fill="none" xmlns="http://www.w3.org/2000/svg">
<path d="M2.07202 9.57185H6.35769" stroke="#14171B" stroke-linecap="round" stroke-linejoin="round"/>
<path d="M1 1C2.77518 1 4.21425 2.43908 4.21425 4.21429V14.9286C4.21425 16.7038 2.77518 18.1429 1 18.1429" stroke="#14171B" stroke-linecap="round" stroke-linejoin="round"/>
<path d="M7.42982 1C5.65464 1 4.21558 2.43908 4.21558 4.21429V14.9286C4.21558 16.7038 5.65464 18.1429 7.42982 18.1429" stroke="#14171B" stroke-linecap="round" stroke-linejoin="round"/>
<path fill-rule="evenodd" clip-rule="evenodd" d="M24.572 7.4295L29.4502 4.99093C29.7822 4.82501 30.1765 4.84277 30.4922 5.03786C30.808 5.23296 31.0003 5.5776 31.0005 5.94879V13.1959C31.0003 13.5671 30.808 13.9118 30.4922 14.1069C30.1765 14.302 29.7822 14.3197 29.4502 14.1538L24.572 11.7152V7.4295Z" stroke="#14171B" stroke-linecap="round" stroke-linejoin="round"/>
<rect x="11.7158" y="3.14355" width="12.857" height="12.8571" rx="2.14284" stroke="#14171B" stroke-linecap="round" stroke-linejoin="round"/>
</svg>
