<svg width="24" height="24" viewBox="0 0 24 24" fill="none" xmlns="http://www.w3.org/2000/svg">
<path d="M10.9468 1.26316C11.2956 1.26316 11.5783 0.98039 11.5783 0.631579C11.5783 0.282768 11.2956 0 10.9468 0C10.598 0 10.3152 0.282768 10.3152 0.631579C10.3152 0.98039 10.598 1.26316 10.9468 1.26316Z" fill="black"/>
<path d="M9.443 6.53101H9.3812L9.35356 6.58629L9.21239 6.86863C9.21237 6.86867 9.21235 6.86871 9.21233 6.86874C9.08037 7.13148 8.76232 7.23758 8.49902 7.10653C8.23634 6.97518 8.12993 6.65594 8.26127 6.39325L10.156 2.60388C10.156 2.60386 10.156 2.60384 10.156 2.60383C10.2424 2.43146 10.431 2.33802 10.6315 2.33802C10.8321 2.33802 11.0206 2.43145 11.1071 2.60382C11.1071 2.60384 11.1071 2.60386 11.1071 2.60388L13.0018 6.39325C13.1331 6.65594 13.0267 6.97519 12.764 7.10654C12.6877 7.14472 12.6068 7.16259 12.5269 7.16259H12.5268C12.3314 7.16285 12.1442 7.05511 12.0507 6.86868L11.9095 6.58629L11.8819 6.53101H11.8201H9.443ZM10.721 4.20893L10.6315 4.03002L10.5421 4.20893L9.98506 5.32314L9.91271 5.46786H10.0745H11.1886H11.3504L11.278 5.32314L10.721 4.20893ZM15.5842 2.84154V6.63101C15.5842 6.92461 15.3464 7.16259 15.0526 7.16259C14.7588 7.16259 14.521 6.92461 14.521 6.63101V2.84154C14.521 2.54795 14.7588 2.30996 15.0526 2.30996C15.3464 2.30996 15.5842 2.54795 15.5842 2.84154Z" fill="black" stroke="white" stroke-width="0.2"/>
<path d="M21.2681 4.42105V4.52105H21.3681H21.6839C22.0865 4.52105 22.4155 4.19206 22.4155 3.78947V0.631579C22.4155 0.339445 22.6549 0.1 22.9471 0.1C23.2392 0.1 23.4786 0.339445 23.4786 0.631579V3.78947C23.4786 4.77633 22.6708 5.58421 21.6839 5.58421H21.3681H21.2681V5.68421C21.2681 6.67106 20.4603 7.47895 19.4734 7.47895H18.7534H18.6762L18.6566 7.55363C18.3834 8.59788 17.4427 9.37368 16.3155 9.37368H14.105H14.005V9.47368V11.3684V11.4684H14.105C17.8834 11.4684 20.9523 14.5373 20.9523 18.3158V22.1053C20.9523 23.0921 20.1445 23.9 19.1576 23.9H5.26285C4.27596 23.9 3.46811 23.0921 3.46811 22.1053V18.3158C3.46811 14.5373 6.53702 11.4684 10.3155 11.4684H10.4155V11.3684V9.47368V9.37368H10.3155H8.10496C6.97769 9.37368 6.03702 8.59788 5.76381 7.55364L5.74427 7.47895H5.66707H4.94706C3.96017 7.47895 3.15232 6.67106 3.15232 5.68421V5.58421H3.05232H2.73653C1.74965 5.58421 0.941797 4.77633 0.941797 3.78947V0.631579C0.941797 0.339445 1.18124 0.1 1.47338 0.1C1.76551 0.1 2.00495 0.339445 2.00495 0.631579V3.78947C2.00495 4.19206 2.33394 4.52105 2.73653 4.52105H3.05232H3.15232V4.42105C3.15232 3.43416 3.96017 2.62632 4.94706 2.62632H5.57864H5.67864V2.52632C5.67864 1.18574 6.76438 0.1 8.10496 0.1H8.42074C8.71288 0.1 8.95232 0.339445 8.95232 0.631579C8.95232 0.923713 8.71288 1.16316 8.42074 1.16316H8.10496C7.355 1.16316 6.7418 1.77632 6.7418 2.52632V6.94737C6.7418 7.69732 7.355 8.31053 8.10496 8.31053H16.3155C17.0654 8.31053 17.6786 7.69732 17.6786 6.94737V2.52632C17.6786 1.77632 17.0654 1.16316 16.3155 1.16316H13.4734C13.1812 1.16316 12.9418 0.923713 12.9418 0.631579C12.9418 0.339445 13.1812 0.1 13.4734 0.1H16.3155C17.6561 0.1 18.7418 1.18574 18.7418 2.52632V2.62632H18.8418H19.4734C20.4603 2.62632 21.2681 3.43416 21.2681 4.42105ZM5.57864 6.41579H5.67864V6.31579V3.78947V3.68947H5.57864H4.94706C4.54447 3.68947 4.21548 4.01846 4.21548 4.42105V5.68421C4.21548 6.0868 4.54447 6.41579 4.94706 6.41579H5.57864ZM11.5786 9.37368H11.4786V9.47368V11.3684V11.4684H11.5786H12.8418H12.9418V11.3684V9.47368V9.37368H12.8418H11.5786ZM18.7418 6.31579V6.41579H18.8418H19.4734C19.876 6.41579 20.205 6.0868 20.205 5.68421V4.42105C20.205 4.01846 19.876 3.68947 19.4734 3.68947H18.8418H18.7418V3.78947V6.31579ZM19.8892 22.1053V18.3158C19.8892 15.1279 17.2928 12.5316 14.105 12.5316H10.3155C7.12761 12.5316 4.53127 15.1279 4.53127 18.3158V22.1053C4.53127 22.5079 4.86026 22.8368 5.26285 22.8368H19.1576C19.5602 22.8368 19.8892 22.5079 19.8892 22.1053Z" fill="black" stroke="white" stroke-width="0.2"/>
<path d="M16.4807 17.0524V17.2024H16.6307H17.2622C17.5268 17.2024 17.7438 17.4195 17.7438 17.684C17.7438 17.9485 17.5268 18.1656 17.2622 18.1656H16.6307H16.4807V18.3156V19.5787C16.4807 19.8433 16.2636 20.0603 15.9991 20.0603H15.3675H15.2175V20.2103V20.8419C15.2175 21.1064 15.0004 21.3235 14.7359 21.3235C14.4714 21.3235 14.2543 21.1064 14.2543 20.8419V20.2103V20.0603H14.1043H12.8412H12.6912V20.2103V20.8419C12.6912 21.1064 12.4741 21.3235 12.2096 21.3235C11.9451 21.3235 11.728 21.1064 11.728 20.8419V20.2103V20.0603H11.578H10.3149H10.1649V20.2103V20.8419C10.1649 21.1064 9.9478 21.3235 9.68329 21.3235C9.41877 21.3235 9.20171 21.1064 9.20171 20.8419V20.2103V20.0603H9.05171H8.42013C8.15561 20.0603 7.93855 19.8433 7.93855 19.5787V18.3156V18.1656H7.78855H7.15697C6.89245 18.1656 6.67539 17.9485 6.67539 17.684C6.67539 17.4195 6.89245 17.2024 7.15697 17.2024H7.78855H7.93855V17.0524V15.7893C7.93855 15.5247 8.15561 15.3077 8.42013 15.3077H9.05171H9.20171V15.1577V14.5261C9.20171 14.2616 9.41877 14.0445 9.68329 14.0445C9.94781 14.0445 10.1649 14.2616 10.1649 14.5261V15.1577V15.3077H10.3149H11.578H11.728V15.1577V14.5261C11.728 14.2616 11.9451 14.0445 12.2096 14.0445C12.4741 14.0445 12.6912 14.2616 12.6912 14.5261V15.1577V15.3077H12.8412H14.1043H14.2543V15.1577V14.5261C14.2543 14.2616 14.4714 14.0445 14.7359 14.0445C15.0004 14.0445 15.2175 14.2616 15.2175 14.5261V15.1577V15.3077H15.3675H15.9991C16.2636 15.3077 16.4807 15.5247 16.4807 15.7893V17.0524ZM15.3675 19.0972H15.5175V18.9472V16.4208V16.2708H15.3675H9.05171H8.90171V16.4208V18.9472V19.0972H9.05171H15.3675Z" fill="black" stroke="white" stroke-width="0.3"/>
</svg>
