<svg width="30" height="30" viewBox="0 0 30 30" fill="none" xmlns="http://www.w3.org/2000/svg">
<g clip-path="url(#clip0_11360_26478)">
<path d="M16.4767 2.64174L16.4914 2.29599C21.8233 2.91552 26.1601 6.82025 27.4208 11.9307L27.4208 11.9308L27.477 12.1582L27.501 12.2552L27.5981 12.2312L28.053 12.119L28.15 12.095L28.1261 11.998L28.0701 11.7704L28.0701 11.7703C26.7393 6.37712 22.1535 2.25981 16.5196 1.62596L16.536 1.23664L16.5429 1.07498L16.3952 1.14117L14.9606 1.7843L14.7781 1.8661L14.9531 1.96302L16.3284 2.72497L16.4699 2.80337L16.4767 2.64174ZM27.3603 16.4758L27.7061 16.4904C27.1076 21.643 23.4408 25.866 18.5829 27.2821L18.6109 27.3781L18.5829 27.2821L18.3579 27.3477L18.2619 27.3757L18.2899 27.4718L18.4211 27.9218L18.4491 28.0178L18.5451 27.9898L18.7701 27.9241C23.8974 26.4295 27.7636 21.9636 28.3761 16.5186L28.7654 16.5351L28.9271 16.5419L28.8609 16.3943L28.2178 14.9596L28.136 14.7772L28.039 14.9521L27.2771 16.3274L27.1987 16.4689L27.3603 16.4758ZM13.5263 27.3594L13.5116 27.7051C8.17974 27.0856 3.84299 23.1808 2.58228 18.0703L2.58227 18.0703L2.52602 17.8429L2.50201 17.7459L2.40499 17.7699L1.95006 17.8821L1.85304 17.9061L1.87692 18.0031L1.93294 18.2307L1.93295 18.2308C3.26376 23.624 7.84951 27.7413 13.4834 28.3751L13.467 28.7645L13.4602 28.9261L13.6078 28.8599L15.0424 28.2168L15.2249 28.135L15.05 28.0381L13.6747 27.2761L13.5332 27.1977L13.5263 27.3594ZM2.64272 13.5253L2.29697 13.5106C2.93701 8.00197 7.08338 3.55594 12.4431 2.4662C12.4431 2.4662 12.4431 2.4662 12.4431 2.4662L12.6728 2.41956L12.7708 2.39966L12.7509 2.30166L12.6576 1.84229L12.6377 1.74429L12.5397 1.76419L12.31 1.81083L12.31 1.81083C6.65385 2.96103 2.28166 7.66239 1.62694 13.4825L1.23762 13.466L1.07596 13.4592L1.14215 13.6068L1.78527 15.0415L1.86708 15.2239L1.964 15.049L2.72595 13.6737L2.80435 13.5322L2.64272 13.5253Z" fill="black" stroke="black" stroke-width="0.2"/>
<path d="M8.89122 8.36675L9.14373 8.58874L9.26524 8.69556L9.11536 8.75648L7.65896 9.34851L7.4737 9.42382L7.52459 9.23043L7.92467 7.71003L7.96585 7.55356L8.08739 7.66036L8.38619 7.92294C11.237 5.25398 15.4231 4.58077 18.9446 6.15188C18.9446 6.15189 18.9446 6.15189 18.9446 6.15189L19.1586 6.24727L19.2499 6.288L19.2092 6.37935L19.0182 6.80755L18.9774 6.89894L18.886 6.85811L18.6721 6.76251L8.89122 8.36675ZM8.89122 8.36675C11.5434 5.91953 15.4135 5.30879 18.6721 6.76248L8.89122 8.36675ZM21.1104 21.6359L20.8579 21.4139L20.7364 21.3071L20.8863 21.2462L22.3427 20.6542L22.528 20.5789L22.4771 20.7723L22.077 22.2926L22.0358 22.4491L21.9143 22.3423L21.6155 22.0797C18.7646 24.7487 14.5786 25.4219 11.057 23.8508L10.8431 23.7554L10.7517 23.7147L10.7925 23.6233L10.9835 23.1951L11.0243 23.1038L11.1156 23.1446L11.3295 23.2402L21.1104 21.6359ZM21.1104 21.6359C18.4582 24.0832 14.5881 24.6939 11.3296 23.2402L21.1104 21.6359ZM21.4134 9.14424L21.6354 8.89173C23.997 11.4513 24.6485 15.1449 23.3845 18.3284L23.3845 18.3285L23.2982 18.5465L23.2615 18.6394L23.3543 18.6762L23.7898 18.8492L23.8827 18.8861L23.9196 18.7931L24.0061 18.5752C24.0061 18.5752 24.0061 18.5752 24.0061 18.5752C25.3722 15.1339 24.6553 11.1383 22.0792 8.3867L22.3418 8.0879L22.4486 7.96636L22.2921 7.92518L20.7717 7.5251L20.5784 7.47421L20.6537 7.65947L21.2457 9.11587L21.3066 9.26575L21.4134 9.14424ZM8.58823 20.8584L8.36624 21.111C5.83473 18.3672 5.26847 14.3206 6.91962 10.9956L7.02389 10.7859L7.06843 10.6963L6.97883 10.6518L6.55883 10.4432L6.46919 10.3987L6.42475 10.4883L6.32072 10.6983C4.53644 14.2908 5.16218 18.6676 7.92243 21.616L7.65985 21.9148L7.55305 22.0363L7.70952 22.0775L9.22992 22.4776L9.42331 22.5285L9.348 22.3432L8.75597 20.8868L8.69505 20.7369L8.58823 20.8584Z" fill="black" stroke="black" stroke-width="0.2"/>
<path d="M14.3644 11.341L13.674 18.0832L14.9975 18.1008L15.271 15.4308L15.818 15.4381C16.1905 15.443 16.4865 15.364 16.7063 15.2006C16.9259 15.0373 17.0909 14.805 17.2008 14.5034C17.311 14.2017 17.3869 13.8467 17.4289 13.4381C17.4723 13.0142 17.4624 12.6483 17.3994 12.3406C17.3365 12.0328 17.2044 11.7945 17.0035 11.6257C16.8024 11.4567 16.5158 11.3698 16.1433 11.3649L14.3644 11.341Z" fill="black"/>
<path d="M12.4313 17.4987C12.1538 17.9145 11.7624 18.1189 11.2576 18.1123C10.2959 18.0994 9.886 17.4033 10.0271 16.0242L10.325 13.1168C10.4539 11.8578 11.0694 11.2355 12.1709 11.2503C12.6249 11.2564 12.9638 11.3522 13.1874 11.5381C13.411 11.7239 13.5507 11.9925 13.6067 12.3436C13.6627 12.6947 13.6648 13.1217 13.6133 13.6249L12.2975 13.6074L12.3587 13.0097C12.3734 12.8642 12.3662 12.7418 12.3369 12.6431C12.3073 12.5442 12.23 12.4939 12.1051 12.4922C11.9494 12.4901 11.8416 12.5412 11.7812 12.6453C11.7207 12.7493 11.6839 12.8639 11.6712 12.9891L11.3365 16.2567C11.3178 16.4379 11.3265 16.5858 11.3619 16.6999C11.3975 16.8143 11.4842 16.8724 11.6218 16.8743C11.7648 16.8762 11.8655 16.8206 11.9244 16.7074C11.9832 16.5945 12.0221 16.4447 12.0411 16.2584L12.1398 15.297L11.78 15.2921L11.8993 14.1274L13.5444 14.1495L13.1422 18.076L12.6026 18.0689L12.4313 17.4987Z" fill="black"/>
<path d="M19.373 18.1582L18.0263 18.1404L18.5844 12.6931L17.7849 12.6823L17.9173 11.3876L20.8632 11.427L20.7305 12.7217L19.9308 12.7109L19.373 18.1582Z" fill="black"/>
</g>
<defs>
<clipPath id="clip0_11360_26478">
<rect width="30" height="30" fill="white"/>
</clipPath>
</defs>
</svg>
