<svg width="30" height="30" viewBox="0 0 30 30" fill="none" xmlns="http://www.w3.org/2000/svg">
<path d="M14.2125 6.31166V6.22514L14.1376 6.18182C13.6216 5.88333 13.275 5.3258 13.275 4.6875C13.275 3.73481 14.0473 2.9625 15 2.9625C15.9527 2.9625 16.725 3.73481 16.725 4.6875C16.725 5.3258 16.3784 5.88333 15.8624 6.18182L15.7875 6.22514V6.31166V6.5625V6.7125H15.9375H21.5625C23.5507 6.7125 25.1625 8.32428 25.1625 10.3125V19.6875C25.1625 21.6757 23.5507 23.2875 21.5625 23.2875H21.4125V23.4375V26.25C21.4125 26.6849 21.0599 27.0375 20.625 27.0375C20.1901 27.0375 19.8375 26.6849 19.8375 26.25V23.4375V23.2875H19.6875H10.3125H10.1625V23.4375V26.25C10.1625 26.6849 9.80994 27.0375 9.375 27.0375C8.94008 27.0375 8.5875 26.6849 8.5875 26.25V23.4375V23.2875H8.4375C6.44927 23.2875 4.8375 21.6757 4.8375 19.6875V10.3125C4.8375 8.32427 6.44927 6.7125 8.4375 6.7125H14.0625H14.2125V6.5625V6.31166ZM17.8125 17.9625H17.9625V17.8125V16.875C17.9625 16.4401 18.3151 16.0875 18.75 16.0875C19.1849 16.0875 19.5375 16.4401 19.5375 16.875V17.8125C19.5375 18.7652 18.7652 19.5375 17.8125 19.5375H12.1875C11.2348 19.5375 10.4625 18.7652 10.4625 17.8125V16.875C10.4625 16.4401 10.8151 16.0875 11.25 16.0875C11.6849 16.0875 12.0375 16.4401 12.0375 16.875V17.8125V17.9625H12.1875H17.8125ZM20.625 22.025H21.5625C22.1278 22.025 22.7898 21.7152 23.3051 21.2847C23.8178 20.8563 24.2288 20.2713 24.2288 19.6875V10.3125C24.2288 9.73396 23.8235 9.08211 23.3135 8.58641C22.8031 8.09022 22.1381 7.70209 21.5625 7.70209H8.4375C7.86127 7.70209 7.20622 8.09091 6.70579 8.5875C6.20549 9.08395 5.81204 9.73545 5.81204 10.3125V19.6875C5.81204 20.2697 6.21087 20.8545 6.7141 21.2837C7.21949 21.7148 7.87169 22.025 8.4375 22.025H9.375H20.625ZM18.75 10.4625C19.1849 10.4625 19.5375 10.8151 19.5375 11.25V13.125C19.5375 13.5599 19.1849 13.9125 18.75 13.9125C18.3151 13.9125 17.9625 13.5599 17.9625 13.125V11.25C17.9625 10.8151 18.3151 10.4625 18.75 10.4625ZM11.25 10.4625C11.6849 10.4625 12.0375 10.8151 12.0375 11.25V13.125C12.0375 13.5599 11.6849 13.9125 11.25 13.9125C10.8151 13.9125 10.4625 13.5599 10.4625 13.125V11.25C10.4625 10.8151 10.8151 10.4625 11.25 10.4625Z" fill="black" stroke="white" stroke-width="0.3"/>
</svg>
