<svg width="30" height="30" viewBox="0 0 30 30" fill="none" xmlns="http://www.w3.org/2000/svg">
<g clip-path="url(#clip0_11372_28517)">
<path d="M13.4739 8.81575C13.4658 8.67296 13.4169 8.53552 13.3328 8.4198C13.2488 8.30408 13.1333 8.21498 13 8.1631L12.6144 8.00697C12.577 7.89946 12.5334 7.79419 12.4839 7.6917L12.6425 7.3217C12.7003 7.19166 12.7207 7.0481 12.7015 6.90711C12.6822 6.76612 12.6241 6.63328 12.5336 6.52347C12.3477 6.3024 12.1424 6.09843 11.9201 5.914C11.8118 5.82675 11.6817 5.77091 11.5438 5.75258C11.406 5.73426 11.2658 5.75415 11.1385 5.81008L10.7614 5.97174C10.6589 5.9222 10.5537 5.87862 10.4462 5.84121L10.2925 5.46218C10.2438 5.33117 10.159 5.21667 10.0478 5.13198C9.93664 5.04729 9.80372 4.99589 9.66449 4.98374C9.38233 4.95334 9.09772 4.95334 8.81556 4.98374C8.67277 4.99182 8.53533 5.04079 8.41961 5.12482C8.30389 5.20885 8.21479 5.32439 8.16291 5.45766L8.00678 5.84322C7.89927 5.88062 7.794 5.92421 7.69151 5.97375L7.32151 5.8151C7.19153 5.75705 7.04791 5.73649 6.90686 5.75574C6.76581 5.77499 6.63295 5.83328 6.52328 5.92405C6.30234 6.10897 6.09838 6.31327 5.91381 6.53452C5.82651 6.64276 5.77063 6.77293 5.75231 6.91078C5.73398 7.04864 5.7539 7.18888 5.80989 7.31618L5.97155 7.6932C5.92201 7.7957 5.87843 7.90096 5.84102 8.00848L5.46199 8.1621C5.33098 8.21079 5.21648 8.29564 5.13179 8.40682C5.0471 8.51799 4.9957 8.65091 4.98355 8.79014C4.9534 9.07232 4.9534 9.3569 4.98355 9.63908C4.99163 9.78186 5.0406 9.9193 5.12463 10.035C5.20866 10.1507 5.3242 10.2398 5.45747 10.2917L5.84303 10.4478C5.88043 10.5554 5.92402 10.6606 5.97356 10.7631L5.81491 11.1331C5.75715 11.2632 5.73675 11.4067 5.75599 11.5477C5.77523 11.6887 5.83336 11.8215 5.92385 11.9314C6.10878 12.1523 6.31308 12.3563 6.53432 12.5408C6.64268 12.6279 6.77283 12.6837 6.91064 12.702C7.04845 12.7203 7.18864 12.7005 7.31599 12.6447L7.69502 12.4826C7.79794 12.5328 7.90336 12.576 8.0103 12.6146L8.16091 12.9926C8.20959 13.1236 8.29445 13.2381 8.40562 13.3228C8.5168 13.4075 8.64972 13.4589 8.78895 13.4711C8.94408 13.4866 9.0987 13.4947 9.24479 13.4947C9.37613 13.4952 9.50739 13.488 9.63788 13.4731C9.78086 13.4647 9.91841 13.4154 10.0341 13.331C10.1499 13.2466 10.2389 13.1307 10.2905 12.9972L10.4411 12.6146C10.5484 12.5759 10.6537 12.5316 10.7564 12.4821L11.1284 12.6417C11.2585 12.6995 11.402 12.7199 11.543 12.7007C11.684 12.6814 11.8168 12.6233 11.9266 12.5328C12.1492 12.3474 12.3547 12.1424 12.5406 11.9203C12.6279 11.8121 12.6838 11.6819 12.7021 11.544C12.7205 11.4062 12.7005 11.2659 12.6445 11.1386L12.4829 10.7616C12.5324 10.6591 12.576 10.5539 12.6134 10.4463L12.9925 10.2927C13.1243 10.2426 13.2393 10.1561 13.3241 10.0434C13.409 9.93066 13.4602 9.79624 13.4719 9.65564C13.502 9.37652 13.5027 9.09501 13.4739 8.81575ZM12.4849 9.41818L12.016 9.60795C11.943 9.63748 11.878 9.68377 11.8262 9.74307C11.7744 9.80237 11.7372 9.87303 11.7178 9.94933C11.6684 10.1365 11.5934 10.3159 11.4949 10.4825C11.4552 10.5503 11.4319 10.6266 11.427 10.7051C11.4221 10.7835 11.4358 10.8621 11.4668 10.9343L11.6676 11.3982C11.5835 11.491 11.4947 11.5795 11.4015 11.6633L10.9381 11.4655C10.8669 11.4347 10.7894 11.4209 10.712 11.4254C10.6345 11.4298 10.5591 11.4523 10.4918 11.4911C10.3157 11.5914 10.1281 11.6699 9.93308 11.725C9.85877 11.7457 9.79022 11.7832 9.73276 11.8347C9.67529 11.8861 9.63046 11.9501 9.60174 12.0217L9.41699 12.4846C9.2921 12.4921 9.16686 12.4921 9.04197 12.4846L8.85773 12.0232C8.829 11.9516 8.78417 11.8876 8.72671 11.8362C8.66924 11.7847 8.6007 11.7472 8.52639 11.7265C8.33135 11.6714 8.14373 11.5929 7.96762 11.4926C7.90037 11.4538 7.82499 11.4313 7.74751 11.4269C7.67002 11.4224 7.59256 11.4362 7.52132 11.467L7.05744 11.6678C6.96462 11.5837 6.87614 11.4949 6.79237 11.4017L6.99017 10.9383C7.02119 10.8661 7.03482 10.7876 7.02993 10.7091C7.02505 10.6306 7.0018 10.5544 6.96206 10.4865C6.86313 10.3185 6.78811 10.1375 6.73915 9.94883C6.7197 9.87253 6.68258 9.80187 6.63077 9.74257C6.57897 9.68326 6.51394 9.63698 6.44095 9.60745L5.97105 9.41718C5.96354 9.29195 5.96354 9.16639 5.97105 9.04116L6.43944 8.85139C6.51244 8.82186 6.57746 8.77557 6.62927 8.71627C6.68107 8.65697 6.7182 8.58631 6.73765 8.51001C6.78629 8.32135 6.86097 8.14039 6.95955 7.97233C6.99929 7.90448 7.02254 7.82825 7.02742 7.74977C7.0323 7.67129 7.01868 7.59276 6.98766 7.5205L6.78936 7.05663C6.87119 6.96626 6.96206 6.8759 7.05543 6.79156L7.51881 6.98936C7.59106 7.02038 7.66959 7.034 7.74807 7.02912C7.82655 7.02423 7.90279 7.00098 7.97064 6.96124C8.13863 6.86232 8.3196 6.7873 8.50831 6.73834C8.58461 6.71889 8.65527 6.68176 8.71457 6.62996C8.77388 6.57816 8.82016 6.51313 8.84969 6.44013L9.03996 5.97023C9.16519 5.96273 9.29076 5.96273 9.41598 5.97023L9.60575 6.43863C9.63528 6.51162 9.68157 6.57665 9.74087 6.62845C9.80017 6.68026 9.87083 6.71738 9.94713 6.73683C10.135 6.78601 10.3151 6.86103 10.4823 6.95974C10.55 6.99978 10.6263 7.02321 10.7048 7.0281C10.7834 7.03299 10.8619 7.01919 10.9341 6.98785L11.398 6.78955C11.4908 6.87367 11.5793 6.96248 11.6631 7.05562L11.4653 7.519C11.4343 7.59125 11.4206 7.66978 11.4255 7.74826C11.4304 7.82674 11.4536 7.90298 11.4934 7.97083C11.5923 8.13882 11.6673 8.31979 11.7163 8.5085C11.7357 8.58481 11.7729 8.65546 11.8247 8.71477C11.8765 8.77407 11.9415 8.82035 12.0145 8.84988L12.4844 9.04015C12.4921 9.1652 12.4922 9.2906 12.4849 9.41567V9.41818ZM24.5392 21.8394C24.671 21.7893 24.786 21.7028 24.8709 21.5901C24.9557 21.4774 25.0069 21.343 25.0186 21.2024C25.0481 20.9232 25.0481 20.6417 25.0186 20.3625C25.0105 20.2197 24.9616 20.0822 24.8775 19.9665C24.7935 19.8508 24.678 19.7617 24.5447 19.7098L24.1591 19.5537C24.1217 19.4462 24.0781 19.3409 24.0286 19.2384L24.1873 18.8684C24.245 18.7384 24.2654 18.5948 24.2462 18.4538C24.2269 18.3128 24.1688 18.18 24.0783 18.0702C23.8931 17.8492 23.6884 17.6452 23.4668 17.4607C23.3586 17.3734 23.2284 17.3175 23.0906 17.2992C22.9527 17.2809 22.8125 17.3008 22.6852 17.3568L22.3081 17.5185C22.2057 17.4689 22.1004 17.4253 21.9929 17.3879L21.8393 17.0089C21.7906 16.8779 21.7057 16.7634 21.5945 16.6787C21.4834 16.594 21.3504 16.5426 21.2112 16.5305C20.929 16.5001 20.6444 16.5001 20.3623 16.5305C20.2195 16.5385 20.082 16.5875 19.9663 16.6715C19.8506 16.7556 19.7615 16.8711 19.7096 17.0044L19.5535 17.3899C19.446 17.4273 19.3407 17.4709 19.2382 17.5205L18.8682 17.3618C18.7382 17.3038 18.5946 17.2832 18.4536 17.3025C18.3125 17.3217 18.1797 17.38 18.07 17.4708C17.8491 17.6557 17.6451 17.86 17.4605 18.0812C17.3732 18.1895 17.3174 18.3196 17.299 18.4575C17.2807 18.5954 17.3006 18.7356 17.3566 18.8629L17.5183 19.2399C17.4687 19.3424 17.4251 19.4477 17.3877 19.5552L17.0087 19.7088C16.8777 19.7575 16.7632 19.8424 16.6785 19.9535C16.5938 20.0647 16.5424 20.1976 16.5303 20.3369C16.5001 20.619 16.5001 20.9036 16.5303 21.1858C16.5383 21.3286 16.5873 21.466 16.6713 21.5817C16.7554 21.6975 16.8709 21.7866 17.0042 21.8384L17.3897 21.9946C17.4272 22.1021 17.4707 22.2073 17.5203 22.3098L17.3616 22.6798C17.3039 22.8099 17.2835 22.9534 17.3027 23.0944C17.3219 23.2354 17.3801 23.3683 17.4706 23.4781C17.6555 23.699 17.8598 23.903 18.081 24.0875C18.1895 24.1744 18.3196 24.2301 18.4574 24.2484C18.5952 24.2667 18.7353 24.247 18.8627 24.1915L19.2417 24.0293C19.3421 24.0795 19.4501 24.1227 19.557 24.1613L19.7076 24.5394C19.7563 24.6704 19.8412 24.7849 19.9523 24.8696C20.0635 24.9542 20.1964 25.0057 20.3357 25.0178C20.4908 25.0334 20.6454 25.0414 20.7915 25.0414C20.9229 25.0419 21.0541 25.0347 21.1846 25.0198C21.3276 25.0114 21.4651 24.9621 21.5808 24.8777C21.6966 24.7934 21.7856 24.6775 21.8372 24.5439L21.9879 24.1613C22.0951 24.1226 22.2004 24.0784 22.3031 24.0288L22.6751 24.1884C22.8052 24.2462 22.9487 24.2666 23.0897 24.2474C23.2307 24.2281 23.3636 24.17 23.4734 24.0795C23.696 23.8941 23.9014 23.6892 24.0873 23.467C24.1747 23.3588 24.2305 23.2286 24.2489 23.0908C24.2672 22.9529 24.2473 22.8127 24.1913 22.6854L24.0296 22.3083C24.0792 22.2058 24.1227 22.1006 24.1601 21.9931L24.5392 21.8394ZM24.0306 20.9624L23.5617 21.1522C23.4887 21.1817 23.4237 21.228 23.3719 21.2873C23.3201 21.3466 23.283 21.4172 23.2635 21.4935C23.2147 21.6815 23.14 21.8618 23.0416 22.0292C23.0019 22.0971 22.9786 22.1733 22.9737 22.2518C22.9689 22.3303 22.9825 22.4088 23.0135 22.481L23.2143 22.9449C23.1302 23.0377 23.0414 23.1262 22.9482 23.21L22.4849 23.0122C22.4137 22.9812 22.3362 22.9674 22.2587 22.9719C22.1811 22.9763 22.1058 22.9989 22.0386 23.0378C21.8625 23.1381 21.6748 23.2166 21.4798 23.2717C21.4055 23.2924 21.3369 23.3299 21.2795 23.3814C21.222 23.4328 21.1772 23.4969 21.1485 23.5684L20.9637 24.0313C20.8388 24.0388 20.7136 24.0388 20.5887 24.0313L20.4044 23.5699C20.3757 23.4984 20.3309 23.4344 20.2734 23.3829C20.216 23.3314 20.1474 23.2939 20.0731 23.2732C19.8781 23.2181 19.6904 23.1396 19.5143 23.0393C19.4471 23.0004 19.3717 22.9779 19.2942 22.9734C19.2167 22.969 19.1393 22.9828 19.068 23.0137L18.6042 23.2145C18.5113 23.1304 18.4229 23.0416 18.3391 22.9484L18.5369 22.4851C18.5679 22.4128 18.5815 22.3343 18.5767 22.2558C18.5718 22.1773 18.5485 22.1011 18.5088 22.0332C18.4099 21.8652 18.3348 21.6843 18.2859 21.4955C18.2664 21.4192 18.2293 21.3486 18.1775 21.2893C18.1257 21.23 18.0607 21.1837 17.9877 21.1542L17.5178 20.9639C17.5103 20.8387 17.5103 20.7131 17.5178 20.5879L17.9862 20.3981C18.0592 20.3686 18.1242 20.3223 18.176 20.263C18.2278 20.2037 18.2649 20.133 18.2844 20.0567C18.333 19.8681 18.4077 19.6871 18.5063 19.5191C18.546 19.4512 18.5693 19.375 18.5741 19.2965C18.579 19.218 18.5654 19.1395 18.5344 19.0672L18.3336 18.6033C18.4154 18.513 18.5063 18.4226 18.5996 18.3383L19.063 18.5361C19.1353 18.5671 19.2138 18.5807 19.2923 18.5758C19.3708 18.571 19.447 18.5477 19.5148 18.508C19.6828 18.409 19.8638 18.334 20.0525 18.2851C20.1288 18.2656 20.1995 18.2285 20.2588 18.1767C20.3181 18.1249 20.3644 18.0598 20.3939 17.9869L20.5842 17.517C20.7094 17.5089 20.835 17.5089 20.9602 17.517L21.15 17.9853C21.1795 18.0583 21.2258 18.1234 21.2851 18.1752C21.3444 18.227 21.415 18.2641 21.4913 18.2836C21.6801 18.3325 21.861 18.4075 22.029 18.5065C22.0969 18.5462 22.1731 18.5694 22.2516 18.5743C22.3301 18.5792 22.4086 18.5656 22.4808 18.5346L22.9447 18.3338C23.0375 18.4179 23.126 18.5067 23.2098 18.5998L23.012 19.0632C22.981 19.1355 22.9673 19.214 22.9722 19.2925C22.9771 19.371 23.0004 19.4472 23.0401 19.515C23.139 19.683 23.2141 19.864 23.263 20.0527C23.2825 20.129 23.3196 20.1997 23.3714 20.259C23.4232 20.3183 23.4882 20.3646 23.5612 20.3941L24.0311 20.5844C24.0389 20.7102 24.0391 20.8365 24.0316 20.9624H24.0306Z" fill="#14171B"/>
<path d="M15.703 2.64397C14.8455 1.78668 13.8275 1.10668 12.7072 0.64281C11.5869 0.178936 10.3862 -0.0597334 9.17362 -0.0595702C6.72476 -0.0592407 4.37632 0.913884 2.64495 2.64573C0.913569 4.37757 -0.0589232 6.72627 -0.0585937 9.17513C-0.0582641 11.624 0.91486 13.9724 2.6467 15.7038C3.47589 16.5861 4.47811 17.288 5.59075 17.7656C6.7034 18.2432 7.90257 18.4862 9.11337 18.4795C10.0364 18.4704 10.9556 18.361 11.855 18.1532C11.1908 21.2096 11.3328 24.3879 14.3059 27.361C16.0476 29.0387 18.3782 29.9659 20.7965 29.9433C23.2148 29.9207 25.5276 28.9499 27.2376 27.2399C28.9477 25.5299 29.9184 23.217 29.941 20.7988C29.9636 18.3805 29.0364 16.0499 27.3587 14.3082C24.2426 11.1921 20.8855 11.2573 18.1504 11.8583C18.8186 8.79837 18.6756 5.62001 15.703 2.64397ZM3.35607 14.9904C1.8153 13.4461 0.949995 11.3536 0.949995 9.17213C0.949995 6.99062 1.8153 4.89818 3.35607 3.35384C3.94345 2.76646 5.28437 2.22578 6.95212 2.34175C7.71168 2.39971 8.4582 2.57166 9.16658 2.85181C7.91671 2.85176 6.69492 3.22244 5.65578 3.91697C4.61664 4.61149 3.80687 5.59864 3.32891 6.75351C2.85096 7.90838 2.72631 9.17908 2.97073 10.4048C3.21515 11.6305 3.81766 12.7562 4.70202 13.6395C5.22975 14.1869 5.86543 14.6188 6.56879 14.9078C7.27215 15.1968 8.02786 15.3366 8.78805 15.3183C10.1997 15.2591 11.5945 14.9884 12.9258 14.515C12.6442 15.3434 12.3625 16.1928 12.1256 17.0553C9.42764 17.7275 6.30902 17.9394 3.35607 14.9904ZM13.3269 13.3302C10.1179 14.4015 7.4903 15.0075 5.41239 12.9286C4.44803 11.9249 3.91572 10.583 3.92978 9.19112C3.94384 7.79926 4.50314 6.46842 5.48758 5.48437C6.47202 4.50033 7.80309 3.94156 9.19495 3.92806C10.5868 3.91456 11.9285 4.4474 12.9318 5.41217C15.0032 7.47652 14.3972 10.1112 13.3269 13.3302ZM15.0157 26.6481C11.1652 22.7975 12.601 18.583 13.9886 14.507L14.1989 13.887C15.1669 11.0088 16.3707 7.42782 13.6437 4.7033C11.0698 2.13089 8.62338 1.45767 7.02592 1.34572C6.91096 1.33819 6.80452 1.3427 6.69307 1.33969C8.12839 0.88435 9.6611 0.831359 11.1244 1.18648C12.5878 1.54161 13.9257 2.29125 14.9927 3.35384C18.8387 7.20392 17.4079 11.4129 16.0248 15.4829L15.8064 16.122C14.6151 19.6473 13.835 22.7714 16.3617 25.3001C18.8427 27.7807 21.2776 28.6306 23.2586 28.6858C21.8292 29.1271 20.3065 29.1705 18.8542 28.8115C17.4019 28.4525 16.0749 27.7046 15.0157 26.6481ZM17.0741 24.5923C14.9987 22.5174 15.6061 19.8882 16.6795 16.6778C19.8885 15.6034 22.5166 14.9959 24.5935 17.0728C25.0964 17.5645 25.4967 18.1509 25.7713 18.7983C26.046 19.4457 26.1895 20.1412 26.1935 20.8444C26.1975 21.5476 26.062 22.2447 25.7948 22.8952C25.5276 23.5457 25.134 24.1367 24.6368 24.634C24.1396 25.1314 23.5486 25.5251 22.8982 25.7925C22.2478 26.0599 21.5508 26.1956 20.8476 26.1918C20.1443 26.1879 19.4488 26.0446 18.8014 25.7702C18.1539 25.4957 17.5673 25.0955 17.0756 24.5928L17.0741 24.5923ZM26.6503 15.0135C28.1908 16.5577 29.0559 18.6499 29.0559 20.8311C29.0559 23.0122 28.1908 25.1044 26.6503 26.6486C25.7467 27.5523 23.4971 28.1833 20.8413 27.1506C22.5149 27.1514 24.1203 26.4874 25.3044 25.3047C26.4869 24.1177 27.1509 22.5105 27.1509 20.8351C27.1509 19.1596 26.4869 17.5524 25.3044 16.3655C23.0056 14.0642 20.2163 14.4989 17.0816 15.493C17.3632 14.6631 17.6454 13.8122 17.8823 12.9482C20.5833 12.2769 23.7044 12.0671 26.6503 15.0135Z" fill="#14171B"/>
</g>
<defs>
<clipPath id="clip0_11372_28517">
<rect width="30" height="30" fill="white"/>
</clipPath>
</defs>
</svg>
