<svg width="30" height="30" viewBox="0 0 30 30" fill="none" xmlns="http://www.w3.org/2000/svg">
<path d="M26.25 15C26.25 21.2132 21.2132 26.25 15 26.25C8.7868 26.25 3.75 21.2132 3.75 15C3.75 8.7868 8.7868 3.75 15 3.75" stroke="#14171B" stroke-linecap="round" stroke-linejoin="round"/>
<circle cx="15" cy="12.5" r="3.75" stroke="#14171B" stroke-linecap="round" stroke-linejoin="round"/>
<path d="M7.70996 23.5613C8.34526 21.4468 10.2922 19.9994 12.5 20H17.5C19.7108 19.9992 21.6596 21.4505 22.2925 23.5688" stroke="#14171B" stroke-linecap="round" stroke-linejoin="round"/>
<path d="M23.9124 12.7905C23.9124 12.7906 23.9124 12.7907 23.9124 12.7909L23.8832 12.796L24.0981 12.8338L23.8822 12.7961L23.6661 12.8338L23.8811 12.796L23.8518 12.7908C23.8518 12.7908 23.8518 12.7907 23.8519 12.7906L23.9124 12.7905ZM23.9124 12.7905C23.9124 12.7905 23.9124 12.7905 23.9124 12.7905L23.9124 12.7905ZM18.5108 6.4116C18.2333 5.6442 17.6274 5.03823 16.86 4.76078C17.6274 4.48334 18.2333 3.87736 18.5108 3.10996C18.7882 3.87736 19.3942 4.48333 20.1616 4.76078C19.3942 5.03823 18.7882 5.6442 18.5108 6.4116ZM23.8821 5.48303C24.2589 7.27733 25.6628 8.68112 27.4571 9.05801C25.6628 9.43478 24.259 10.8387 23.8821 12.633C23.5054 10.8387 22.1015 9.43491 20.3071 9.05801C22.1014 8.68124 23.5052 7.27735 23.8821 5.48303ZM23.8822 12.7958L23.8519 12.7905C23.8522 12.7897 23.8529 12.7874 23.8549 12.7842C23.8577 12.7795 23.8616 12.7751 23.8659 12.7718C23.8741 12.7655 23.8803 12.765 23.8821 12.765C23.884 12.765 23.8901 12.7655 23.8983 12.7718C23.9027 12.7751 23.9065 12.7795 23.9094 12.7842C23.9113 12.7874 23.9121 12.7897 23.9123 12.7905L23.8822 12.7958Z" fill="black" stroke="white" stroke-width="0.5"/>
</svg>
