<svg width="30" height="31" viewBox="0 0 30 31" fill="none" xmlns="http://www.w3.org/2000/svg">
<path d="M24.3677 26.1895L23.245 22.8207C23.0524 22.2434 22.7083 21.7284 22.2485 21.3297C21.7886 20.931 21.2301 20.6632 20.6313 20.5544L17.3901 19.9646V19.7134C17.9541 19.386 18.4449 18.9481 18.8358 18.4296H19.8151C20.6172 18.4296 21.27 17.7768 21.27 16.9746V11.1548C21.27 7.67836 18.4415 4.8499 14.9651 4.8499C11.4886 4.8499 8.66011 7.67836 8.66011 11.1548V14.5497C8.66011 15.4848 9.32504 16.267 10.2068 16.4494C10.4789 17.8433 11.3499 19.0228 12.5401 19.7134V19.9646L9.29837 20.5544C8.69963 20.6632 8.14116 20.931 7.68143 21.3297C7.2217 21.7284 6.87762 22.2434 6.6852 22.8207L6.49121 23.4032L4.8393 21.7513C4.65016 21.5622 4.65016 21.2542 4.8393 21.0651L6.75504 19.1498L3.15927 15.5541L0.994245 17.7191C0.353078 18.3603 0 19.2129 0 20.1198C0 21.0267 0.353078 21.8789 0.994245 22.52L7.54898 29.0747C8.19015 29.7158 9.04278 30.0694 9.94972 30.0694C10.8567 30.0694 11.7088 29.7158 12.3349 29.0892L14.6974 26.9247L13.9606 26.1895H24.3677ZM20.3001 16.9746C20.3001 17.2424 20.0823 17.4596 19.8151 17.4596H19.4072C19.5494 17.1355 19.6554 16.7967 19.7234 16.4494C19.931 16.4062 20.1221 16.3238 20.3001 16.22V16.9746ZM19.8151 15.3849V13.7145C20.1036 13.8828 20.3001 14.1923 20.3001 14.5497C20.3001 14.9071 20.1036 15.2166 19.8151 15.3849ZM10.1151 15.3849C9.82653 15.2166 9.63011 14.9071 9.63011 14.5497C9.63011 14.1923 9.82653 13.8828 10.1151 13.7145V15.3849ZM10.1151 12.1248V12.6786C9.94502 12.7231 9.78184 12.7906 9.63011 12.8794V11.1548C9.63011 8.21331 12.0236 5.81988 14.9651 5.81988C17.9066 5.81988 20.3001 8.21331 20.3001 11.1548V12.8794C20.1484 12.7904 19.9852 12.7228 19.8151 12.6786V12.1248H19.3301C17.8959 12.1248 16.5476 11.566 15.533 10.5519L14.9651 9.984L14.3971 10.5519C13.3825 11.566 12.0342 12.1248 10.6001 12.1248H10.1151ZM11.0851 15.5197V13.0763C12.5415 12.9667 13.8995 12.3658 14.9651 11.3526C16.0306 12.3658 17.3886 12.9672 18.8451 13.0763V15.5197C18.8451 16.2268 18.652 16.8883 18.3203 17.4596H14.9651V18.4296H17.523C16.8391 19.0315 15.9453 19.3996 14.9651 19.3996C12.8258 19.3996 11.0851 17.659 11.0851 15.5197ZM16.4201 20.146V20.1688L14.9651 21.6238L13.5101 20.1688V20.146C13.9699 20.2905 14.4583 20.3696 14.9651 20.3696C15.4719 20.3696 15.9603 20.2905 16.4201 20.146ZM7.60476 23.1272C7.74225 22.7148 7.98806 22.3469 8.31646 22.062C8.64487 21.7771 9.04379 21.5857 9.47151 21.5079L12.8616 20.8919L14.9651 22.9953L17.068 20.8924L20.4577 21.5083C20.8854 21.5861 21.2844 21.7775 21.6128 22.0624C21.9412 22.3473 22.187 22.7152 22.3244 23.1277L23.0223 25.2195H12.9907L11.1016 23.3304L9.00252 25.2292C8.81968 25.413 8.50006 25.413 8.31674 25.2292L7.2575 24.17L7.60476 23.1272ZM3.15879 16.9257L5.38299 19.1498L4.85628 19.6765L2.63208 17.4524L3.15879 16.9257ZM11.6632 28.3899C11.2054 28.8467 10.5962 29.0994 9.94875 29.0994C9.30128 29.0994 8.69212 28.8467 8.2338 28.3889L1.67906 21.8347C1.22122 21.3769 0.969025 20.7678 0.969025 20.1203C0.969025 19.4723 1.22122 18.8632 1.67906 18.4054L1.94581 18.1386L4.17001 20.3628L4.15255 20.3802C3.58559 20.9477 3.58559 21.8706 4.15255 22.4381L7.63046 25.9159C7.90546 26.1904 8.27066 26.3422 8.65963 26.3422C9.0486 26.3422 9.4138 26.1909 9.67085 25.9329L9.70722 25.9004L11.9416 28.1348L11.6632 28.3899ZM12.6575 27.4781L10.4279 25.2486L11.0686 24.6695L13.2943 26.8951L12.6575 27.4781ZM28.545 0H21.755C20.9529 0 20.3001 0.652797 20.3001 1.45497V5.33489C20.3001 6.13706 20.9529 6.78986 21.755 6.78986H23.0505L22.549 9.71484L27.2292 6.78986H28.545C29.3472 6.78986 30 6.13706 30 5.33489V1.45497C30 0.652797 29.3472 0 28.545 0ZM29.03 5.33489C29.03 5.60212 28.8122 5.81988 28.545 5.81988H26.9508L23.8706 7.74481L24.2009 5.81988H21.755C21.4878 5.81988 21.27 5.60212 21.27 5.33489V1.45497C21.27 1.18774 21.4878 0.96998 21.755 0.96998H28.545C28.8122 0.96998 29.03 1.18774 29.03 1.45497V5.33489Z" fill="#14171B"/>
<path d="M22.2405 1.94007H28.0605V2.91005H22.2405V1.94007ZM22.2405 3.88003H26.1205V4.85001H22.2405V3.88003ZM27.0905 3.88003H28.0605V4.85001H27.0905V3.88003ZM14.9656 1.45508C8.62859 1.45508 3.16994 5.83842 1.75084 11.9527L0.831771 10.4206L0 10.9197L1.70477 13.7602L4.5454 12.0555L4.04633 11.2237L2.73199 12.0123C4.10647 6.41895 9.13638 2.42506 14.9656 2.42506C16.2397 2.42506 17.4968 2.6142 18.702 2.98765L18.9891 2.06132C17.6908 1.65877 16.3371 1.45508 14.9656 1.45508ZM29.7648 10.7388L26.9241 9.03402L25.2199 11.8751L26.0516 12.3741L26.9004 10.9594C27.3471 12.2665 27.5755 13.6337 27.5755 15.0348C27.5755 17.919 26.5764 20.7388 24.763 22.9741L25.5162 23.5852C27.4698 21.1777 28.5455 18.1407 28.5455 15.0348C28.5455 13.5512 28.3064 12.1025 27.8403 10.7155L29.2657 11.5705L29.7648 10.7388Z" fill="#14171B"/>
</svg>
