<svg width="30" height="30" viewBox="0 0 30 30" fill="none" xmlns="http://www.w3.org/2000/svg">
<path d="M13.7906 20.354C13.9004 20.2439 13.9621 20.0948 13.9621 19.9393C13.9621 19.7838 13.9004 19.6347 13.7906 19.5247C13.5616 19.2962 13.1907 19.2962 12.9615 19.5247C12.733 19.7538 12.733 20.1247 12.9615 20.354C13.1907 20.5824 13.5616 20.5824 13.7906 20.354ZM11.0157 6.44551C11.0157 9.99951 13.9071 12.8912 17.4611 12.8912C21.0152 12.8912 23.9066 9.99951 23.9066 6.44551C23.9066 2.89151 21.0152 0 17.4611 0C13.9071 0 11.0157 2.89145 11.0157 6.44551ZM22.7349 6.44551C22.7349 9.35343 20.3691 11.7192 17.4611 11.7192C14.5532 11.7192 12.1874 9.35343 12.1874 6.44551C12.1874 3.53777 14.5532 1.17201 17.4611 1.17201C20.3691 1.17201 22.7349 3.53777 22.7349 6.44551Z" fill="#14171B"/>
<path d="M6.74923 29.836C6.97635 30.065 7.34614 30.0675 7.57625 29.8408L10.4171 27.0421C10.8997 26.5595 11.0465 25.8449 10.8343 25.2238L11.4453 24.6344C11.7722 24.3174 12.21 24.1406 12.6654 24.1415H20.4551C21.837 24.1415 23.1432 23.6108 24.1334 22.6471C24.1742 22.6075 23.8242 23.0199 29.4477 16.2987C30.2817 15.3119 30.157 13.8301 29.1693 12.9951C28.1878 12.168 26.7174 12.2868 25.881 13.2566L22.4234 16.8104C21.9868 16.2731 21.321 15.9381 20.6016 15.9381H14.0675C13.1377 15.5491 12.1512 15.3522 11.1332 15.3522C8.31165 15.3522 5.84784 16.6554 4.52566 19.0988C3.96862 18.9933 3.38109 19.1618 2.9585 19.5844L0.170964 22.3802C-0.0566262 22.6084 -0.0570365 22.9777 0.170027 23.2067L6.74923 29.836ZM11.133 16.524C12.0305 16.524 12.8983 16.7046 13.7126 17.0609C13.7867 17.0934 13.8667 17.1101 13.9476 17.1101H20.6016C21.237 17.1101 21.7736 17.6283 21.7736 18.2819C21.7736 18.9282 21.248 19.4539 20.6016 19.4539H15.8209C15.4973 19.4539 15.235 19.7163 15.235 20.0398C15.235 20.3636 15.4973 20.6257 15.8209 20.6257H20.6016C21.8941 20.6257 22.9454 19.5743 22.9454 18.2819C22.9454 18.1789 22.9381 18.0768 22.9248 17.9755C26.2696 14.5373 26.7412 14.0543 26.7614 14.0302C27.179 13.5373 27.9203 13.4748 28.4135 13.8906C28.9071 14.3079 28.9696 15.0489 28.5509 15.5445L23.2953 21.8275C22.5278 22.5642 21.5202 22.9697 20.4551 22.9697H12.6654C11.9021 22.9697 11.1795 23.2616 10.6314 23.7912L10.1334 24.2718L5.54294 19.6815C6.61577 17.6688 8.62898 16.524 11.133 16.524ZM3.78774 20.4126C3.98098 20.2193 4.27774 20.1845 4.5133 20.3301C4.6147 20.3919 4.32351 20.1268 9.58852 25.3845C9.82273 25.6187 9.81013 25.9919 9.59168 26.2103L7.16983 28.5963L1.41237 22.7948L3.78774 20.4126ZM16.7584 2.92987V3.61651C16.0763 3.85829 15.5864 4.50964 15.5864 5.27371C15.5864 6.24286 16.3749 7.0316 17.3443 7.0316C17.6674 7.0316 17.9302 7.29442 17.9302 7.61749C17.9302 7.94056 17.6674 8.20337 17.3443 8.20337C17.094 8.20337 16.8236 8.04606 16.5835 7.76009C16.3751 7.5124 16.0056 7.48051 15.7579 7.6887C15.5101 7.89701 15.4781 8.26662 15.6864 8.51431C15.9997 8.88679 16.3681 9.14644 16.7584 9.27744V9.96127C16.7584 10.285 17.0208 10.5472 17.3443 10.5472C17.6678 10.5472 17.9302 10.285 17.9302 9.96127V9.27463C18.6123 9.03262 19.1022 8.38126 19.1022 7.61749C19.1022 6.64804 18.3137 5.85959 17.3443 5.85959C17.0212 5.85959 16.7584 5.59672 16.7584 5.27371C16.7584 4.95064 17.0212 4.68759 17.3443 4.68759C17.552 4.68759 17.7711 4.79356 17.978 4.99389C18.2107 5.21896 18.5815 5.21275 18.8066 4.98041C19.0317 4.74772 19.0255 4.37689 18.7931 4.15181C18.4957 3.86403 18.198 3.70121 17.9302 3.61241V2.92987C17.9302 2.60616 17.6678 2.34375 17.3443 2.34375C17.0208 2.34375 16.7584 2.60616 16.7584 2.92987Z" fill="#14171B"/>
</svg>
