<svg width="30" height="30" viewBox="0 0 30 30" fill="none" xmlns="http://www.w3.org/2000/svg">
<path fill-rule="evenodd" clip-rule="evenodd" d="M18.2526 2.48383C19.4108 2.78356 20.5214 3.24378 21.5522 3.85113L23.6792 2.9054C23.7686 2.86566 23.8679 2.85394 23.9641 2.87179C24.0602 2.88964 24.1488 2.93622 24.2179 3.00538L26.9946 5.78208C27.0637 5.85115 27.1103 5.93953 27.1282 6.03557C27.146 6.13161 27.1344 6.23082 27.0948 6.32014L26.1526 8.44742C26.7607 9.47944 27.2212 10.5917 27.5204 11.7516L29.6899 12.5866C29.7812 12.6217 29.8596 12.6836 29.915 12.7643C29.9704 12.8449 30 12.9404 30 13.0381V16.9658C30 17.0636 29.9704 17.1591 29.915 17.2397C29.8597 17.3203 29.7812 17.3822 29.6899 17.4174L27.5202 18.2525C27.22 19.4106 26.7577 20.5196 26.1523 21.5519L27.0948 23.6799C27.1344 23.7692 27.146 23.8684 27.1282 23.9644C27.1103 24.0605 27.0637 24.1489 26.9946 24.2179L24.2179 26.9946C24.1489 27.0637 24.0605 27.1103 23.9644 27.1282C23.8684 27.146 23.7692 27.1344 23.6799 27.0948L21.5529 26.1527C20.5232 26.7608 19.4111 27.2204 18.2525 27.5202L17.4174 29.6899C17.3822 29.7812 17.3203 29.8597 17.2397 29.915C17.1591 29.9704 17.0636 30 16.9658 30H13.0381C12.9404 30 12.8449 29.9704 12.7643 29.915C12.6836 29.8596 12.6217 29.7812 12.5866 29.6899L11.7516 27.5203C10.59 27.2202 9.48054 26.7578 8.44808 26.1523L6.32014 27.0948C6.23082 27.1344 6.13161 27.146 6.03557 27.1282C5.93953 27.1103 5.85115 27.0637 5.78208 26.9946L3.00538 24.2179C2.93622 24.1488 2.88964 24.0602 2.87179 23.9641C2.85394 23.8679 2.86566 23.7686 2.9054 23.6792L3.85101 21.5526C3.24302 20.523 2.78341 19.4112 2.48056 18.2528L0.310101 17.4174C0.21883 17.3822 0.140342 17.3203 0.0849839 17.2397C0.0296255 17.1591 -4.53455e-06 17.0636 5.20515e-10 16.9658V13.0381C3.86027e-06 12.9404 0.0296372 12.8449 0.0849945 12.7643C0.140352 12.6836 0.218835 12.6217 0.310101 12.5866L2.48038 11.7513C2.78201 10.5919 3.24334 9.48015 3.85113 8.44784L2.9054 6.32081C2.86566 6.23143 2.85394 6.1321 2.87179 6.03593C2.88964 5.93975 2.93622 5.85124 3.00538 5.78208L5.78208 3.00538C5.85124 2.93622 5.93975 2.88964 6.03593 2.87179C6.1321 2.85394 6.23143 2.86566 6.32081 2.9054C6.32081 2.9054 8.44784 3.85113 8.44778 3.85119C9.47864 3.24372 10.5894 2.78343 11.7478 2.48371L12.5867 0.309677C12.6219 0.218515 12.6838 0.14014 12.7644 0.0848648C12.845 0.0295895 12.9404 3.71764e-06 13.0381 0H16.9658C17.0636 -1.78903e-06 17.1592 0.0296557 17.2398 0.08506C17.3204 0.140464 17.3824 0.219013 17.4175 0.310343L18.2526 2.48383ZM17.4397 3.06623L16.6334 0.967742H13.3701L12.5601 3.0669C12.5318 3.14017 12.4861 3.20545 12.4269 3.25712C12.3678 3.30879 12.2969 3.34528 12.2205 3.36345C10.9892 3.65593 9.81269 4.1435 8.73544 4.80768C8.66847 4.84894 8.59245 4.87324 8.51397 4.8785C8.43548 4.88376 8.3569 4.86981 8.28502 4.83786L6.23129 3.92474L3.92474 6.23129L4.83786 8.28502C4.86981 8.3569 4.88376 8.43548 4.8785 8.51397C4.87324 8.59245 4.84894 8.66847 4.80768 8.73544C4.14236 9.81514 3.65577 10.9899 3.35921 12.2255C3.34091 12.3018 3.30434 12.3725 3.25266 12.4315C3.20098 12.4905 3.13573 12.536 3.06254 12.5642L0.967742 13.3704V16.6335L3.06254 17.4398C3.13568 17.4679 3.20089 17.5134 3.25255 17.5724C3.30422 17.6313 3.3408 17.7019 3.35915 17.7781C3.65564 19.0097 4.14206 20.1882 4.80726 21.264C4.84869 21.331 4.87314 21.4071 4.87847 21.4857C4.8838 21.5643 4.86986 21.643 4.83786 21.715L3.92474 23.7687L6.23165 26.0756L8.28562 25.1658C8.35725 25.1341 8.4355 25.1202 8.51367 25.1254C8.59183 25.1306 8.66756 25.1547 8.73435 25.1956C9.81399 25.8572 10.9886 26.3477 12.2242 26.6404C12.3007 26.6586 12.3717 26.6951 12.4309 26.7469C12.4902 26.7986 12.5359 26.864 12.5642 26.9375L13.3704 29.0323H16.6335L17.4398 26.9375C17.468 26.8641 17.5137 26.7987 17.5729 26.747C17.6321 26.6953 17.703 26.6587 17.7795 26.6405C19.0106 26.3479 20.1886 25.8617 21.264 25.1967C21.3309 25.1553 21.4069 25.1309 21.4853 25.1255C21.5638 25.1201 21.6424 25.134 21.7144 25.1658L23.7683 26.0756L26.0756 23.7683L25.1658 21.7144C25.1341 21.6427 25.1202 21.5645 25.1254 21.4863C25.1306 21.4082 25.1547 21.3324 25.1956 21.2656C25.8572 20.1859 26.3478 19.0112 26.6405 17.7795C26.6587 17.703 26.6953 17.6321 26.747 17.5729C26.7987 17.5137 26.8641 17.468 26.9375 17.4398L29.0323 16.6335V13.3704L26.9375 12.5642C26.864 12.5359 26.7986 12.4902 26.7469 12.4309C26.6951 12.3717 26.6586 12.3007 26.6404 12.2242C26.3487 10.9915 25.8611 9.81365 25.1963 8.73544C25.1551 8.66857 25.1308 8.59267 25.1255 8.5143C25.1202 8.43593 25.134 8.35744 25.1658 8.28562L26.0756 6.23165L23.7687 3.92474L21.715 4.83786C21.6431 4.86981 21.5645 4.88376 21.486 4.8785C21.4075 4.87324 21.3315 4.84894 21.2646 4.80768C20.1873 4.1435 19.0108 3.65593 17.7795 3.36345C17.7029 3.34526 17.632 3.30869 17.5728 3.2569C17.5136 3.20511 17.4679 3.13966 17.4397 3.06623ZM20.4134 6.77831L20.3446 6.53722C20.3094 6.41382 20.3247 6.28151 20.387 6.16937C20.4494 6.05722 20.5537 5.97442 20.6771 5.93915C20.8005 5.90399 20.9328 5.91926 21.0449 5.9816C21.1571 6.04395 21.2399 6.14827 21.2751 6.27163L21.7491 7.93192C21.7692 8.00251 21.773 8.07676 21.7602 8.14905C21.7474 8.22133 21.7183 8.28976 21.6752 8.34914C21.632 8.40852 21.5759 8.45731 21.5111 8.49181C21.4463 8.5263 21.3745 8.5456 21.3011 8.54825L19.5756 8.6103C19.3087 8.61992 19.0843 8.41101 19.0747 8.14415C19.0701 8.01592 19.1167 7.89112 19.2041 7.79718C19.2915 7.70324 19.4126 7.64785 19.5408 7.64317L19.9443 7.62865C18.7825 6.84744 17.4184 6.33079 15.9292 6.17425C11.0548 5.66093 6.68752 9.19627 6.17419 14.0707C5.96927 16.0194 6.41147 17.8859 7.32647 19.4583C7.46081 19.6891 7.38242 19.9855 7.15161 20.1198C6.92081 20.2542 6.62437 20.1758 6.49004 19.945C5.47518 18.201 4.98448 16.1308 5.21177 13.9695C5.78105 8.56349 10.6245 4.64256 16.0305 5.21183C17.6523 5.38228 19.1402 5.938 20.4134 6.77831ZM10.0555 22.3713C11.2173 23.1523 12.582 23.669 14.0707 23.8257C18.9452 24.3391 23.3124 20.8037 23.8257 15.9293C24.0306 13.9817 23.5896 12.1142 22.6736 10.542C22.609 10.4311 22.5912 10.2991 22.6239 10.175C22.6566 10.0509 22.7372 9.94493 22.8481 9.88028C22.959 9.81574 23.091 9.79786 23.215 9.83058C23.3391 9.8633 23.4451 9.94394 23.5098 10.0548C24.5258 11.7988 25.0155 13.8702 24.7882 16.0306C24.2189 21.4366 19.3754 25.3575 13.9694 24.7882C12.3482 24.6175 10.8598 24.0618 9.58657 23.2218L9.65534 23.4628C9.72865 23.7196 9.57968 23.9875 9.32286 24.0608C9.06605 24.1342 8.79804 23.9852 8.7248 23.7284L8.25085 22.0681C8.23071 21.9975 8.22691 21.9232 8.23971 21.851C8.25252 21.7787 8.2816 21.7102 8.32476 21.6509C8.36792 21.5915 8.42403 21.5427 8.48883 21.5082C8.55363 21.4737 8.62543 21.4544 8.69879 21.4518L10.4243 21.3897C10.5525 21.3851 10.6773 21.4317 10.7712 21.5191C10.8652 21.6065 10.9206 21.7276 10.9253 21.8558C10.9298 21.9841 10.8833 22.1089 10.7958 22.2028C10.7084 22.2968 10.5873 22.3522 10.4591 22.3568L10.0555 22.3713ZM15.001 22.316C10.9714 22.316 7.68399 19.0306 7.68399 15.001C7.68399 10.9714 10.9714 7.68399 15.001 7.68399C19.0306 7.68399 22.316 10.9714 22.316 15.001C22.316 19.0307 19.0307 22.316 15.001 22.316ZM15.001 21.3483C18.4976 21.3483 21.3483 18.4976 21.3483 15.001C21.3483 11.5044 18.4977 8.65173 15.001 8.65173C11.5043 8.65173 8.65173 11.5043 8.65173 15.001C8.65173 18.4977 11.5044 21.3483 15.001 21.3483ZM14.1023 14.9163L17.0809 11.9066L17.0818 11.9057C17.6633 11.3211 18.6126 11.3183 19.1972 11.8998C19.7815 12.4811 19.7852 13.4269 19.2039 14.0143L19.2036 14.0145C17.8557 15.3748 16.5179 16.7431 15.1638 18.0973C14.5795 18.6815 13.6307 18.6815 13.0464 18.0973L10.8019 15.8508C10.2179 15.2667 10.217 14.3213 10.8011 13.7343L10.8019 13.7333C11.3863 13.1491 12.335 13.1491 12.9194 13.7333L14.1023 14.9163ZM13.7619 15.9445L12.235 14.4177C12.0285 14.2112 11.6933 14.211 11.4867 14.4172C11.2802 14.6252 11.2795 14.9597 11.4862 15.1665L13.7307 17.4129C13.9374 17.6196 14.2729 17.6196 14.4795 17.4129C15.8325 16.0599 17.1692 14.6927 18.516 13.3335C18.7216 13.1258 18.7212 12.7914 18.5146 12.5859C18.3083 12.3807 17.9734 12.3818 17.768 12.588L14.448 15.9428C14.4031 15.9881 14.3498 16.0241 14.291 16.0488C14.2322 16.0734 14.1691 16.0862 14.1053 16.0863C14.0415 16.0865 13.9784 16.074 13.9194 16.0497C13.8605 16.0254 13.807 15.9896 13.7619 15.9445Z" fill="#14171B"/>
</svg>
