<svg width="32" height="32" viewBox="0 0 32 32" fill="none" xmlns="http://www.w3.org/2000/svg">
<path d="M17.4733 2.63574C20.0599 2.91522 22.4273 3.9245 24.3668 5.4535M26.4674 24.6478C28.0863 22.6727 29.1571 20.231 29.4463 17.5545M17.4733 29.5275C20.0599 29.2481 22.4273 28.2388 24.3668 26.7098M7.63421 26.7098C9.57366 28.2388 11.9411 29.2481 14.5276 29.5275M2.55469 17.5545C2.84382 20.231 3.91466 22.6727 5.53359 24.6478M7.63421 5.4535C9.57366 3.9245 11.9411 2.91522 14.5276 2.63574M5.53359 7.5155C5.0898 8.05678 4.68878 8.63177 4.33418 9.23525M3.41123 11.1282C2.97119 12.2448 2.6831 13.4155 2.55469 14.6088M26.4674 7.5155C28.0863 9.49059 29.1571 11.9323 29.4463 14.6088M24.3668 24.7625C23.9925 24.4673 23.6026 24.1914 23.1975 23.9367M17.4733 21.9441C18.5405 22.06 19.5697 22.2991 20.5476 22.6486M11.4419 22.6528C12.4228 22.3009 13.4562 22.06 14.5276 21.9441M8.79257 23.9433C8.39176 24.1963 8.00484 24.4697 7.63421 24.7625M11.5988 9.56604C12.5326 9.88717 13.5135 10.1093 14.5276 10.2192M24.3668 7.40081C23.914 7.75816 23.4372 8.08714 22.9404 8.38413M17.4733 10.2192C18.4826 10.1099 19.4587 9.88959 20.3889 9.57027M9.05153 8.3793C8.55886 8.08345 8.08547 7.75663 7.63421 7.40081M22.1309 21.8922C22.4514 20.5534 22.6645 19.0932 22.7478 17.5551M17.4432 29.3012C18.9595 28.6468 20.2868 26.9838 21.24 24.6816M22.2498 10.7944C22.504 11.9872 22.6748 13.2681 22.7478 14.6082M17.4432 2.8621C19.0627 3.56111 20.4667 5.41124 21.4295 7.96219M9.25314 17.5551C9.33644 19.092 9.54952 20.5515 9.86944 21.8898M10.7592 24.6762C11.7123 26.9808 13.0403 28.6462 14.5578 29.3012M9.25314 14.6082C9.32557 13.2699 9.4964 11.9902 9.75053 10.7981M10.5703 7.96581C11.5324 5.41305 12.9377 3.56111 14.5578 2.8621M7.73864 16.0816H3.94907M21.3136 16.0816H17.4751M25.0084 16.0816H24.2623M28.0519 16.0816H27.1211M14.5258 16.0816H10.6874" stroke="#14171B" stroke-width="0.905444" stroke-miterlimit="10" stroke-linecap="round" stroke-linejoin="round"/>
<path d="M6.52904 7.90087C7.3433 7.90087 8.00339 7.24078 8.00339 6.42651C8.00339 5.61224 7.3433 4.95215 6.52904 4.95215C5.71478 4.95215 5.05469 5.61224 5.05469 6.42651C5.05469 7.24078 5.71478 7.90087 6.52904 7.90087Z" stroke="#14171B" stroke-width="0.905444" stroke-miterlimit="10" stroke-linecap="round" stroke-linejoin="round"/>
<path d="M10.1384 10.8501C10.9527 10.8501 11.6128 10.19 11.6128 9.37573C11.6128 8.56146 10.9527 7.90137 10.1384 7.90137C9.32415 7.90137 8.66406 8.56146 8.66406 9.37573C8.66406 10.19 9.32415 10.8501 10.1384 10.8501Z" stroke="#14171B" stroke-width="0.905444" stroke-miterlimit="10" stroke-linecap="round" stroke-linejoin="round"/>
<path d="M9.21263 17.5552C10.0269 17.5552 10.687 16.8951 10.687 16.0808C10.687 15.2665 10.0269 14.6064 9.21263 14.6064C8.39837 14.6064 7.73828 15.2665 7.73828 16.0808C7.73828 16.8951 8.39837 17.5552 9.21263 17.5552Z" stroke="#14171B" stroke-width="0.905444" stroke-miterlimit="10" stroke-linecap="round" stroke-linejoin="round"/>
<path d="M22.7868 17.5552C23.6011 17.5552 24.2612 16.8951 24.2612 16.0808C24.2612 15.2665 23.6011 14.6064 22.7868 14.6064C21.9726 14.6064 21.3125 15.2665 21.3125 16.0808C21.3125 16.8951 21.9726 17.5552 22.7868 17.5552Z" stroke="#14171B" stroke-width="0.905444" stroke-miterlimit="10" stroke-linecap="round" stroke-linejoin="round"/>
<path d="M29.5251 17.5552C30.3394 17.5552 30.9995 16.8951 30.9995 16.0808C30.9995 15.2665 30.3394 14.6064 29.5251 14.6064C28.7109 14.6064 28.0508 15.2665 28.0508 16.0808C28.0508 16.8951 28.7109 17.5552 29.5251 17.5552Z" stroke="#14171B" stroke-width="0.905444" stroke-miterlimit="10" stroke-linecap="round" stroke-linejoin="round"/>
<path d="M2.47435 17.5552C3.28861 17.5552 3.9487 16.8951 3.9487 16.0808C3.9487 15.2665 3.28861 14.6064 2.47435 14.6064C1.66009 14.6064 1 15.2665 1 16.0808C1 16.8951 1.66009 17.5552 2.47435 17.5552Z" stroke="#14171B" stroke-width="0.905444" stroke-miterlimit="10" stroke-linecap="round" stroke-linejoin="round"/>
<path d="M6.52904 27.2104C7.3433 27.2104 8.00339 26.5503 8.00339 25.7361C8.00339 24.9218 7.3433 24.2617 6.52904 24.2617C5.71478 24.2617 5.05469 24.9218 5.05469 25.7361C5.05469 26.5503 5.71478 27.2104 6.52904 27.2104Z" stroke="#14171B" stroke-width="0.905444" stroke-miterlimit="10" stroke-linecap="round" stroke-linejoin="round"/>
<path d="M25.4743 7.90087C26.2886 7.90087 26.9487 7.24078 26.9487 6.42651C26.9487 5.61224 26.2886 4.95215 25.4743 4.95215C24.6601 4.95215 24 5.61224 24 6.42651C24 7.24078 24.6601 7.90087 25.4743 7.90087Z" stroke="#14171B" stroke-width="0.905444" stroke-miterlimit="10" stroke-linecap="round" stroke-linejoin="round"/>
<path d="M25.4743 27.2104C26.2886 27.2104 26.9487 26.5503 26.9487 25.7361C26.9487 24.9218 26.2886 24.2617 25.4743 24.2617C24.6601 24.2617 24 24.9218 24 25.7361C24 26.5503 24.6601 27.2104 25.4743 27.2104Z" stroke="#14171B" stroke-width="0.905444" stroke-miterlimit="10" stroke-linecap="round" stroke-linejoin="round"/>
<path d="M10.1384 24.813C10.9527 24.813 11.6128 24.1529 11.6128 23.3386C11.6128 22.5244 10.9527 21.8643 10.1384 21.8643C9.32415 21.8643 8.66406 22.5244 8.66406 23.3386C8.66406 24.1529 9.32415 24.813 10.1384 24.813Z" stroke="#14171B" stroke-width="0.905444" stroke-miterlimit="10" stroke-linecap="round" stroke-linejoin="round"/>
<path d="M21.8493 10.8501C22.6636 10.8501 23.3237 10.19 23.3237 9.37573C23.3237 8.56146 22.6636 7.90137 21.8493 7.90137C21.0351 7.90137 20.375 8.56146 20.375 9.37573C20.375 10.19 21.0351 10.8501 21.8493 10.8501Z" stroke="#14171B" stroke-width="0.905444" stroke-miterlimit="10" stroke-linecap="round" stroke-linejoin="round"/>
<path d="M21.8493 24.813C22.6636 24.813 23.3237 24.1529 23.3237 23.3386C23.3237 22.5244 22.6636 21.8643 21.8493 21.8643C21.0351 21.8643 20.375 22.5244 20.375 23.3386C20.375 24.1529 21.0351 24.813 21.8493 24.813Z" stroke="#14171B" stroke-width="0.905444" stroke-miterlimit="10" stroke-linecap="round" stroke-linejoin="round"/>
<path d="M16 14.6061V11.7721M16 8.82334V4.0293M16 20.3895V17.5555M16 28.1323V23.3383" stroke="#14171B" stroke-width="0.905444" stroke-miterlimit="10" stroke-linecap="round" stroke-linejoin="round"/>
<path d="M15.9978 17.5552C16.812 17.5552 17.4721 16.8951 17.4721 16.0808C17.4721 15.2665 16.812 14.6064 15.9978 14.6064C15.1835 14.6064 14.5234 15.2665 14.5234 16.0808C14.5234 16.8951 15.1835 17.5552 15.9978 17.5552Z" stroke="#14171B" stroke-width="0.905444" stroke-miterlimit="10" stroke-linecap="round" stroke-linejoin="round"/>
<path d="M15.9978 11.772C16.812 11.772 17.4721 11.1119 17.4721 10.2976C17.4721 9.48334 16.812 8.82324 15.9978 8.82324C15.1835 8.82324 14.5234 9.48334 14.5234 10.2976C14.5234 11.1119 15.1835 11.772 15.9978 11.772Z" stroke="#14171B" stroke-width="0.905444" stroke-miterlimit="10" stroke-linecap="round" stroke-linejoin="round"/>
<path d="M15.9978 4.02978C16.812 4.02978 17.4721 3.36969 17.4721 2.55542C17.4721 1.74115 16.812 1.08105 15.9978 1.08105C15.1835 1.08105 14.5234 1.74115 14.5234 2.55542C14.5234 3.36969 15.1835 4.02978 15.9978 4.02978Z" stroke="#14171B" stroke-width="0.905444" stroke-miterlimit="10" stroke-linecap="round" stroke-linejoin="round"/>
<path d="M16.669 30.9195C17.3484 30.574 17.6576 29.7569 17.3604 29.041C17.0482 28.289 16.1853 27.9328 15.4333 28.2449C14.6812 28.5571 14.3242 29.4197 14.6364 30.1717C14.655 30.2163 14.6755 30.2594 14.6979 30.3011" stroke="#14171B" stroke-width="0.905444" stroke-miterlimit="10" stroke-linecap="round" stroke-linejoin="round"/>
<path d="M15.9978 23.3384C16.812 23.3384 17.4721 22.6783 17.4721 21.864C17.4721 21.0497 16.812 20.3896 15.9978 20.3896C15.1835 20.3896 14.5234 21.0497 14.5234 21.864C14.5234 22.6783 15.1835 23.3384 15.9978 23.3384Z" stroke="#14171B" stroke-width="0.905444" stroke-miterlimit="10" stroke-linecap="round" stroke-linejoin="round"/>
</svg>
