<svg width="28" height="32" viewBox="0 0 28 32" fill="none" xmlns="http://www.w3.org/2000/svg">
<path d="M16.2823 3.02181C16.2823 1.90504 15.3771 0.999666 14.2603 0.999666C13.1436 0.999666 12.2383 1.90504 12.2383 3.02181C12.2383 4.13857 13.1436 5.04395 14.2603 5.04395C15.3771 5.04395 16.2823 4.13857 16.2823 3.02181Z" stroke="#14171B" stroke-width="0.77262" stroke-miterlimit="10" stroke-linecap="round" stroke-linejoin="round"/>
<path d="M16.2823 28.9779C16.2823 27.8611 15.3771 26.9557 14.2603 26.9557C13.1436 26.9557 12.2383 27.8611 12.2383 28.9779C12.2383 30.0946 13.1436 31 14.2603 31C15.3771 31 16.2823 30.0946 16.2823 28.9779Z" stroke="#14171B" stroke-width="0.77262" stroke-miterlimit="10" stroke-linecap="round" stroke-linejoin="round"/>
<path d="M4.0334 7.75952C3.06627 7.20111 1.82963 7.5325 1.27124 8.49969C0.712863 9.46687 1.04423 10.7036 2.01137 11.2619C2.97844 11.8203 4.21514 11.489 4.77352 10.5218C5.33191 9.55464 5.00047 8.31787 4.0334 7.75952Z" stroke="#14171B" stroke-width="0.77262" stroke-miterlimit="10" stroke-linecap="round" stroke-linejoin="round"/>
<path d="M2.01137 20.7371C1.04423 21.2954 0.712863 22.5322 1.27124 23.4994C1.82963 24.4666 3.06627 24.7979 4.0334 24.2395C5.00047 23.6811 5.33191 22.4444 4.77352 21.4772C4.21514 20.51 2.97844 20.1786 2.01137 20.7371Z" stroke="#14171B" stroke-width="0.77262" stroke-miterlimit="10" stroke-linecap="round" stroke-linejoin="round"/>
<path d="M24.4918 7.75855C23.5248 8.3169 23.1933 9.55366 23.7517 10.5208C24.3101 11.488 25.5468 11.8194 26.5139 11.261C27.481 10.7026 27.8124 9.4659 27.254 8.49871C26.6957 7.53152 25.459 7.20013 24.4918 7.75855Z" stroke="#14171B" stroke-width="0.77262" stroke-miterlimit="10" stroke-linecap="round" stroke-linejoin="round"/>
<path d="M23.7485 8.5L16.0117 4.03294" stroke="#14171B" stroke-width="0.77262" stroke-miterlimit="10" stroke-linecap="round" stroke-linejoin="round"/>
<path d="M25.5 20.4668V11.5327" stroke="#14171B" stroke-width="0.77262" stroke-miterlimit="10" stroke-linecap="round" stroke-linejoin="round"/>
<path d="M16.0117 27.9668L23.7485 23.4997" stroke="#14171B" stroke-width="0.77262" stroke-miterlimit="10" stroke-linecap="round" stroke-linejoin="round"/>
<path d="M4.77344 23.4997L12.5102 27.9668" stroke="#14171B" stroke-width="0.77262" stroke-miterlimit="10" stroke-linecap="round" stroke-linejoin="round"/>
<path d="M3.01953 11.5327V20.4668" stroke="#14171B" stroke-width="0.77262" stroke-miterlimit="10" stroke-linecap="round" stroke-linejoin="round"/>
<path d="M12.5102 4.03294L4.77344 8.5" stroke="#14171B" stroke-width="0.77262" stroke-miterlimit="10" stroke-linecap="round" stroke-linejoin="round"/>
<path d="M13.8518 15.7614C13.9773 15.8339 14.1198 15.8721 14.2647 15.8721C14.4097 15.8721 14.5522 15.8339 14.6777 15.7614L21.2639 11.9587C21.1917 11.8337 21.0879 11.7299 20.9629 11.6577L14.676 8.02768C14.5509 7.95552 14.4091 7.91754 14.2648 7.91754C14.1204 7.91754 13.9786 7.95552 13.8536 8.02768L7.56664 11.6577C7.4416 11.7299 7.33778 11.8337 7.26562 11.9587L13.8518 15.7614Z" stroke="#14171B" stroke-width="0.77262" stroke-miterlimit="10" stroke-linecap="round" stroke-linejoin="round"/>
<path d="M9.83203 10.3485L16.9315 14.4582V14.459L18.9014 13.3215L11.8013 9.2115L9.83203 10.3485Z" stroke="#14171B" stroke-width="0.77262" stroke-miterlimit="10" stroke-linecap="round" stroke-linejoin="round"/>
<path d="M13.8486 15.7613L7.2625 11.9585C7.19031 12.0836 7.15231 12.2254 7.15234 12.3697V19.6296C7.15234 19.9235 7.3091 20.195 7.56351 20.3419L13.8505 23.9719C13.9755 24.0441 14.1173 24.0821 14.2616 24.082V15.8719C14.119 15.8719 13.9764 15.835 13.8486 15.7613Z" stroke="#14171B" stroke-width="0.77262" stroke-miterlimit="10" stroke-linecap="round" stroke-linejoin="round"/>
<path d="M16.9258 14.4585V17.4919C16.9258 17.6573 17.1047 17.7606 17.2479 17.6779L18.6926 16.8438C18.7545 16.8081 18.8059 16.7566 18.8417 16.6947C18.8775 16.6327 18.8963 16.5624 18.8963 16.4909V13.3214L18.8957 13.3211L16.9258 14.4585Z" stroke="#14171B" stroke-width="0.77262" stroke-miterlimit="10" stroke-linecap="round" stroke-linejoin="round"/>
<path d="M26.559 24.2148C26.8467 24.0389 27.0856 23.7935 27.2538 23.5012C27.8122 22.5341 27.4809 21.2973 26.5137 20.7389C25.5466 20.1805 24.31 20.5119 23.7516 21.4791C23.2021 22.4308 23.5147 23.6432 24.4464 24.2137" stroke="#14171B" stroke-width="0.77262" stroke-miterlimit="10" stroke-linecap="round" stroke-linejoin="round"/>
<path d="M21.3709 15.538V12.3697C21.3709 12.0759 21.2141 11.8044 20.9597 11.6575L14.6728 8.02754C14.5478 7.95536 14.406 7.91736 14.2616 7.91736C14.1173 7.91736 13.9755 7.95536 13.8505 8.02754L7.56351 11.6575C7.4385 11.7297 7.33469 11.8335 7.26251 11.9585C7.19034 12.0835 7.15234 12.2254 7.15234 12.3697V19.6297C7.15234 19.9235 7.30904 20.195 7.56351 20.3419L13.8505 23.9718C13.9755 24.044 14.1173 24.082 14.2616 24.082C14.406 24.082 14.5478 24.044 14.6728 23.9718L20.9597 20.3419C21.0847 20.2697 21.1885 20.1659 21.2607 20.0409C21.3329 19.9158 21.3709 19.774 21.3709 19.6297V17.6507" stroke="#14171B" stroke-width="0.77262" stroke-miterlimit="10" stroke-linecap="round" stroke-linejoin="round"/>
</svg>
