<svg width="40" height="40" viewBox="0 0 40 40" fill="none" xmlns="http://www.w3.org/2000/svg">
<path d="M25.9205 29.2121H21.3807V25.1768C21.3807 23.7839 20.2515 22.6547 18.8586 22.6547H15.8321V19.8854L22.6821 14.9925C22.737 14.9536 22.7836 14.9042 22.8191 14.847C22.8547 14.7898 22.8784 14.7261 22.8889 14.6596C22.8989 14.5934 22.8955 14.5258 22.8791 14.4608C22.8626 14.3959 22.8334 14.3348 22.7931 14.2813L21.2798 12.2636C21.2014 12.1593 21.0855 12.0895 20.9567 12.0688C20.8278 12.0481 20.6959 12.0782 20.5888 12.1527L15.4185 15.729C16.3327 14.0065 15.6775 11.869 13.955 10.9548C12.2326 10.0405 10.095 10.6958 9.18082 12.4182C8.44569 13.8032 8.71196 15.507 9.83455 16.6016H9.27464C9.20425 16.6018 9.13467 16.6167 9.07039 16.6454C9.0061 16.674 8.94853 16.7158 8.90137 16.7681L5.64283 20.3898C4.74818 21.3894 4.7925 22.9143 5.74371 23.8602L8.41208 26.5437C8.46389 26.5956 8.52638 26.6356 8.5952 26.6608C8.66402 26.6861 8.73751 26.696 8.81058 26.69C8.88454 26.6843 8.95635 26.6624 9.02087 26.6258C9.08539 26.5891 9.14104 26.5387 9.18385 26.4782L9.77906 25.6358V34.7607C9.77906 34.8945 9.8322 35.0228 9.9268 35.1174C10.0214 35.212 10.1497 35.2651 10.2835 35.2651H13.31C13.4438 35.2651 13.5721 35.212 13.6667 35.1174C13.7613 35.0228 13.8144 34.8945 13.8144 34.7607V26.69H17.3453V29.2121H15.8321C15.6983 29.2121 15.57 29.2652 15.4754 29.3598C15.3808 29.4544 15.3277 29.5827 15.3277 29.7165V34.7607C15.3277 34.8945 15.3808 35.0228 15.4754 35.1174C15.57 35.212 15.6983 35.2651 15.8321 35.2651H25.9205C26.0542 35.2651 26.1825 35.212 26.2771 35.1174C26.3717 35.0228 26.4249 34.8945 26.4249 34.7607V29.7165C26.4249 29.5827 26.3717 29.4544 26.2771 29.3598C26.1825 29.2652 26.0542 29.2121 25.9205 29.2121ZM9.77906 14.0795C9.77906 12.6866 10.9083 11.5574 12.3012 11.5574C13.694 11.5574 14.8232 12.6866 14.8232 14.0795C14.8232 15.4724 13.694 16.6016 12.3012 16.6016C10.9083 16.6016 9.77906 15.4724 9.77906 14.0795ZM13.5017 17.6105L12.8056 19.0027L12.1095 17.6105H13.5017ZM9.77906 23.0128L8.97199 22.1502L9.77906 21.3432V23.0128ZM13.31 25.6812C13.1762 25.6812 13.0479 25.7343 12.9533 25.8289C12.8587 25.9235 12.8056 26.0518 12.8056 26.1856V34.2563H10.7879V20.1326C10.7874 20.033 10.7574 19.9358 10.7018 19.8532C10.6461 19.7706 10.5673 19.7063 10.4752 19.6685C10.3833 19.6299 10.2821 19.6193 10.1842 19.6382C10.0864 19.657 9.99627 19.7044 9.92534 19.7744L7.90767 21.7921C7.81524 21.8864 7.76347 22.0132 7.76347 22.1452C7.76347 22.2772 7.81524 22.404 7.90767 22.4983L9.55712 24.2184L8.70465 25.4088L6.44485 23.1591C5.86862 22.5888 5.84415 21.6657 6.38937 21.0657L9.50163 17.6105H10.9796L12.3566 20.3596C12.399 20.4422 12.4633 20.5115 12.5425 20.5599C12.6217 20.6084 12.7127 20.634 12.8056 20.634C12.8984 20.634 12.9894 20.6084 13.0687 20.5599C13.1479 20.5115 13.2122 20.4422 13.2545 20.3596L14.7123 17.4491L20.7653 13.2573L21.6783 14.473L15.0351 19.2196C14.9699 19.266 14.9167 19.3272 14.8798 19.3983C14.843 19.4693 14.8236 19.5481 14.8232 19.6281V23.1591C14.8232 23.2929 14.8764 23.4212 14.971 23.5158C15.0656 23.6104 15.1939 23.6635 15.3277 23.6635H18.8586C19.6944 23.6635 20.3719 24.341 20.3719 25.1768V29.2121H18.3542V26.1856C18.3542 26.0518 18.301 25.9235 18.2064 25.8289C18.1118 25.7343 17.9835 25.6812 17.8498 25.6812H13.31ZM25.416 34.2563H16.3365V30.2209H25.416V34.2563ZM34.4956 9.03535C32.5455 9.03535 30.9646 7.4545 30.9646 5.50442C30.9646 5.37064 30.9115 5.24234 30.8169 5.14774C30.7223 5.05314 30.594 5 30.4602 5C30.3265 5 30.1981 5.05314 30.1036 5.14774C30.009 5.24234 29.9558 5.37064 29.9558 5.50442C29.9558 7.4545 28.375 9.03535 26.4249 9.03535C26.2911 9.03535 26.1628 9.08849 26.0682 9.18309C25.9736 9.27769 25.9205 9.40599 25.9205 9.53977C25.9205 9.67355 25.9736 9.80185 26.0682 9.89645C26.1628 9.99104 26.2911 10.0442 26.4249 10.0442C28.375 10.0442 29.9558 11.625 29.9558 13.5751C29.9558 13.7089 30.009 13.8372 30.1036 13.9318C30.1981 14.0264 30.3265 14.0795 30.4602 14.0795C30.594 14.0795 30.7223 14.0264 30.8169 13.9318C30.9115 13.8372 30.9646 13.7089 30.9646 13.5751C30.9646 11.625 32.5455 10.0442 34.4956 10.0442C34.6294 10.0442 34.7577 9.99104 34.8523 9.89645C34.9469 9.80185 35 9.67355 35 9.53977C35 9.40599 34.9469 9.27769 34.8523 9.18309C34.7577 9.08849 34.6294 9.03535 34.4956 9.03535ZM30.4602 11.4969C30.0253 10.6583 29.3417 9.97467 28.5031 9.53977C29.3417 9.10483 30.0253 8.42122 30.4602 7.58262C30.8952 8.42122 31.5788 9.10483 32.4174 9.53977C31.5788 9.97471 30.8952 10.6583 30.4602 11.4969Z" fill="#14171B"/>
<path d="M20.5781 18.7148L21.953 17.7067L22.5495 18.5203L21.1747 19.5283L20.5781 18.7148ZM23.1036 16.8676L28.1462 13.1672L28.743 13.9806L23.7004 17.6809L23.1036 16.8676ZM23.117 12.6492L26.1429 10.6318L26.7025 11.4712L23.6766 13.4885L23.117 12.6492Z" fill="#14171B"/>
</svg>
