<svg width="81" height="64" viewBox="0 0 81 64" fill="none" xmlns="http://www.w3.org/2000/svg">
<path d="M10.1675 44.0094C14.0343 44.0094 17.169 40.8747 17.169 37.0079C17.169 33.141 14.0343 30.0063 10.1675 30.0063C6.30069 30.0063 3.16602 33.141 3.16602 37.0079C3.16602 40.8747 6.30069 44.0094 10.1675 44.0094Z" stroke="#14171B" stroke-width="3" stroke-miterlimit="10"/>
<path d="M18.3368 55.6787C18.3368 54.4407 17.8451 53.2535 16.9697 52.3781C16.0944 51.5028 14.9071 51.011 13.6692 51.011H6.66767C5.42973 51.011 4.24249 51.5028 3.36713 52.3781C2.49177 53.2535 2 54.4407 2 55.6787" stroke="#14171B" stroke-width="3" stroke-linecap="round" stroke-linejoin="round"/>
<path d="M40.5093 16.003C44.3761 16.003 47.5108 12.8683 47.5108 9.0015C47.5108 5.13468 44.3761 2 40.5093 2C36.6425 2 33.5078 5.13468 33.5078 9.0015C33.5078 12.8683 36.6425 16.003 40.5093 16.003Z" stroke="#14171B" stroke-width="3" stroke-miterlimit="10"/>
<path d="M48.6747 27.6721C48.6747 26.4341 48.183 25.2469 47.3076 24.3715C46.4322 23.4962 45.245 23.0044 44.0071 23.0044H37.0056C35.7676 23.0044 34.5804 23.4962 33.705 24.3715C32.8297 25.2469 32.3379 26.4341 32.3379 27.6721" stroke="#14171B" stroke-width="3" stroke-linecap="round" stroke-linejoin="round"/>
<path d="M70.8472 44.0094C74.714 44.0094 77.8487 40.8747 77.8487 37.0079C77.8487 33.141 74.714 30.0063 70.8472 30.0063C66.9804 30.0063 63.8457 33.141 63.8457 37.0079C63.8457 40.8747 66.9804 44.0094 70.8472 44.0094Z" stroke="#14171B" stroke-width="3" stroke-miterlimit="10"/>
<path d="M79.0161 55.6785C79.0161 54.4406 78.5243 53.2533 77.649 52.378C76.7736 51.5026 75.5864 51.0108 74.3484 51.0108H67.3469C66.109 51.0108 64.9218 51.5026 64.0464 52.378C63.171 53.2533 62.6793 54.4406 62.6793 55.6785M52.352 40.2869C51.5948 39.4825 50.6836 38.8384 49.6727 38.3928C48.6618 37.9471 47.5716 37.7091 46.467 37.6928C45.3623 37.6765 44.2656 37.8822 43.242 38.2977C42.2183 38.7133 41.2886 39.3302 40.5078 40.1118C39.7271 39.3302 38.7973 38.7133 37.7737 38.2977C36.75 37.8822 35.6534 37.6765 34.5487 37.6928C33.444 37.7091 32.3539 37.9471 31.343 38.3928C30.332 38.8384 29.4209 39.4825 28.6636 40.2869C27.2054 41.9198 26.435 44.0531 26.5132 46.2409C26.5915 48.4287 27.5125 50.5016 29.0837 52.0261L38.034 60.9763C38.6904 61.6319 39.5801 62.0001 40.5078 62.0001C41.4355 62.0001 42.3253 61.6319 42.9817 60.9763L51.932 52.0261C53.5031 50.5016 54.4241 48.4287 54.5024 46.2409C54.5807 44.0531 53.8102 41.9198 52.352 40.2869Z" stroke="#14171B" stroke-width="3" stroke-linecap="round" stroke-linejoin="round"/>
</svg>
