<svg width="639" height="447" viewBox="0 0 639 447" fill="none" xmlns="http://www.w3.org/2000/svg">
<line x1="639" y1="222.438" y2="222.438" stroke="#034737" stroke-width="0.938326" stroke-dasharray="5.63 5.63"/>
<path d="M574.256 222.438L569.564 219.73V225.147L574.256 222.438ZM565.811 221.969H560.181V222.908H565.811V221.969ZM554.551 221.969H548.921V222.908H554.551V221.969ZM543.291 221.969H537.661V222.908H543.291V221.969ZM532.031 221.969H526.401V222.908H532.031V221.969ZM520.771 221.969H515.141V222.908H520.771V221.969ZM509.511 221.969H503.881V222.908H509.511V221.969ZM498.251 221.969H492.621V222.908H498.251V221.969ZM486.992 221.969H481.362V222.908H486.992V221.969ZM475.732 221.969H470.102V222.908H475.732V221.969ZM464.472 221.969H458.842V222.908H464.472V221.969ZM453.212 221.969H447.582V222.908H453.212V221.969ZM441.952 221.969H436.322V222.908H441.952V221.969ZM430.692 221.969H425.062V222.908H430.692V221.969ZM419.432 221.969H413.802V222.908H419.432V221.969ZM408.172 221.969H402.542V222.908H408.172V221.969ZM396.912 221.969H391.282V222.908H396.912V221.969ZM385.652 221.969H380.022V222.908H385.652V221.969ZM374.392 221.969H368.762V222.908H374.392V221.969ZM363.132 221.969H357.502V222.908H363.132V221.969ZM351.873 221.969H346.243V222.908H351.873V221.969ZM340.613 221.969H334.983V222.908H340.613V221.969ZM329.353 221.969H323.723V222.908H329.353V221.969ZM318.093 221.969H312.463V222.908H318.093V221.969ZM306.833 221.969H301.203V222.908H306.833V221.969ZM295.573 221.969H289.943V222.908H295.573V221.969ZM284.313 221.969H278.683V222.908H284.313V221.969ZM273.053 221.969H267.423V222.908H273.053V221.969ZM261.793 221.969H256.163V222.908H261.793V221.969ZM250.533 221.969H244.904V222.908H250.533V221.969ZM239.274 221.969H233.644V222.908H239.274V221.969ZM228.014 221.969L222.384 221.969V222.908L228.014 222.908V221.969ZM216.754 221.969H211.124V222.908H216.754V221.969ZM205.494 221.969H199.864V222.908H205.494V221.969ZM194.234 221.969H188.604V222.908H194.234V221.969ZM182.974 221.969H177.344V222.908H182.974V221.969ZM171.714 221.969H166.084V222.908H171.714V221.969ZM160.454 221.969H154.824V222.908H160.454V221.969ZM149.194 221.969H143.565V222.908H149.194V221.969ZM137.935 221.969H132.305V222.908H137.935V221.969ZM126.675 221.969H121.045V222.908H126.675V221.969ZM115.415 221.969H109.785V222.908H115.415V221.969ZM104.155 221.969H98.525V222.908H104.155V221.969ZM92.8951 221.969H87.2651V222.908H92.8951V221.969ZM81.6351 221.969H76.0052V222.908H81.6351V221.969ZM70.3753 221.969H64.7453V222.908H70.3753V221.969ZM59.1154 221.969H53.4854V222.908H59.1154V221.969ZM47.8555 221.969H42.2255V222.908H47.8555V221.969ZM36.5956 221.969H30.9656V222.908H36.5956V221.969ZM25.3357 221.969H19.7058V222.908H25.3357V221.969ZM14.0758 221.969H8.44586V222.908H14.0758V221.969ZM2.81592 221.969H0.000366211V222.908H2.81592V221.969Z" fill="#034737"/>
<path d="M273.991 308.295L276.936 303.748L279.401 308.572L273.991 308.295ZM443.103 222.387L440.619 223.656L440.192 222.821L442.676 221.551L443.103 222.387ZM435.652 226.195L430.684 228.735L430.257 227.899L435.225 225.36L435.652 226.195ZM425.717 231.274L420.749 233.813L420.322 232.977L425.289 230.438L425.717 231.274ZM415.781 236.352L410.814 238.891L410.387 238.055L415.354 235.516L415.781 236.352ZM405.846 241.43L400.878 243.969L400.451 243.133L405.419 240.594L405.846 241.43ZM395.911 246.508L390.943 249.047L390.516 248.211L395.484 245.672L395.911 246.508ZM385.976 251.586L381.008 254.125L380.581 253.289L385.549 250.75L385.976 251.586ZM376.04 256.664L371.073 259.203L370.646 258.367L375.613 255.828L376.04 256.664ZM366.105 261.742L361.138 264.281L360.711 263.445L365.678 260.906L366.105 261.742ZM356.17 266.82L351.202 269.359L350.775 268.523L355.743 265.984L356.17 266.82ZM346.235 271.898L341.267 274.437L340.84 273.601L345.808 271.062L346.235 271.898ZM336.3 276.976L331.332 279.515L330.905 278.679L335.873 276.14L336.3 276.976ZM326.364 282.054L321.397 284.593L320.97 283.757L325.937 281.218L326.364 282.054ZM316.429 287.132L311.462 289.671L311.034 288.835L316.002 286.296L316.429 287.132ZM306.494 292.21L301.526 294.749L301.099 293.913L306.067 291.374L306.494 292.21ZM296.559 297.288L291.591 299.827L291.164 298.991L296.132 296.452L296.559 297.288ZM286.623 302.366L281.656 304.905L281.229 304.069L286.196 301.53L286.623 302.366Z" fill="#034737"/>
<path d="M348.788 358.225L349.225 352.826L353.682 355.904L348.788 358.225ZM443.276 222.236L441.707 224.507L440.935 223.974L442.504 221.703L443.276 222.236ZM438.571 229.049L435.434 233.591L434.662 233.057L437.798 228.515L438.571 229.049ZM432.297 238.132L429.16 242.674L428.388 242.141L431.525 237.599L432.297 238.132ZM426.024 247.216L422.887 251.758L422.115 251.225L425.252 246.683L426.024 247.216ZM419.75 256.3L416.613 260.842L415.841 260.309L418.978 255.767L419.75 256.3ZM413.477 265.384L410.34 269.925L409.568 269.392L412.705 264.85L413.477 265.384ZM407.203 274.467L404.066 279.009L403.294 278.476L406.431 273.934L407.203 274.467ZM400.93 283.551L397.793 288.093L397.021 287.56L400.158 283.018L400.93 283.551ZM394.656 292.635L391.52 297.177L390.747 296.644L393.884 292.102L394.656 292.635ZM388.383 301.719L385.246 306.26L384.474 305.727L387.611 301.185L388.383 301.719ZM382.109 310.802L378.973 315.344L378.2 314.811L381.337 310.269L382.109 310.802ZM375.836 319.886L372.699 324.428L371.927 323.895L375.064 319.353L375.836 319.886ZM369.562 328.97L366.426 333.512L365.653 332.978L368.79 328.437L369.562 328.97ZM363.289 338.054L360.152 342.595L359.38 342.062L362.517 337.52L363.289 338.054ZM357.015 347.137L353.879 351.679L353.107 351.146L356.243 346.604L357.015 347.137Z" fill="#034737"/>
<path d="M273.991 133.766L279.404 133.54L276.893 138.341L273.991 133.766ZM442.672 222.51L440.188 221.212L440.623 220.38L443.107 221.679L442.672 222.51ZM435.221 218.614L430.253 216.016L430.688 215.184L435.656 217.782L435.221 218.614ZM425.286 213.418L420.318 210.82L420.753 209.988L425.72 212.586L425.286 213.418ZM415.35 208.222L410.383 205.624L410.818 204.793L415.785 207.391L415.35 208.222ZM405.415 203.026L400.448 200.428L400.882 199.597L405.85 202.195L405.415 203.026ZM395.48 197.831L390.512 195.233L390.947 194.401L395.915 196.999L395.48 197.831ZM385.545 192.635L380.577 190.037L381.012 189.205L385.98 191.803L385.545 192.635ZM375.609 187.439L370.642 184.841L371.077 184.01L376.044 186.607L375.609 187.439ZM365.674 182.243L360.707 179.645L361.141 178.814L366.109 181.412L365.674 182.243ZM355.739 177.047L350.771 174.449L351.206 173.618L356.174 176.216L355.739 177.047ZM345.804 171.852L340.836 169.254L341.271 168.422L346.239 171.02L345.804 171.852ZM335.869 166.656L330.901 164.058L331.336 163.226L336.303 165.824L335.869 166.656ZM325.933 161.46L320.966 158.862L321.401 158.031L326.368 160.629L325.933 161.46ZM315.998 156.264L311.03 153.666L311.465 152.835L316.433 155.433L315.998 156.264ZM306.063 151.068L301.095 148.471L301.53 147.639L306.498 150.237L306.063 151.068ZM296.128 145.873L291.16 143.275L291.595 142.443L296.562 145.041L296.128 145.873ZM286.192 140.677L281.225 138.079L281.66 137.248L286.627 139.845L286.192 140.677Z" fill="#034737"/>
<path d="M235.52 221.97L240.21 224.682L240.213 219.264L235.52 221.97ZM442.89 221.626L440.01 221.624L440.009 222.562L442.889 222.564L442.89 221.626ZM434.25 221.62L428.489 221.617L428.489 222.555L434.249 222.559L434.25 221.62ZM422.729 221.613L416.969 221.61L416.968 222.548L422.728 222.552L422.729 221.613ZM411.208 221.607L405.448 221.603L405.448 222.541L411.208 222.545L411.208 221.607ZM399.688 221.6L393.928 221.596L393.927 222.535L399.687 222.538L399.688 221.6ZM388.167 221.593L382.407 221.589L382.406 222.528L388.167 222.531L388.167 221.593ZM376.647 221.586L370.886 221.582L370.886 222.521L376.646 222.524L376.647 221.586ZM365.126 221.579L359.366 221.575L359.365 222.514L365.126 222.517L365.126 221.579ZM353.606 221.572L347.845 221.569L347.845 222.507L353.605 222.51L353.606 221.572ZM342.085 221.565L336.325 221.562L336.324 222.5L342.085 222.503L342.085 221.565ZM330.565 221.558L324.804 221.555L324.804 222.493L330.564 222.496L330.565 221.558ZM319.044 221.551L313.284 221.548L313.283 222.486L319.043 222.49L319.044 221.551ZM307.523 221.544L301.763 221.541L301.763 222.479L307.523 222.483L307.523 221.544ZM296.003 221.537L290.243 221.534L290.242 222.472L296.002 222.476L296.003 221.537ZM284.482 221.531L278.722 221.527L278.721 222.465L284.482 222.469L284.482 221.531ZM272.962 221.524L267.201 221.52L267.201 222.458L272.961 222.462L272.962 221.524ZM261.441 221.517L255.681 221.513L255.68 222.452L261.441 222.455L261.441 221.517ZM249.921 221.51L244.16 221.506L244.16 222.445L249.92 222.448L249.921 221.51Z" fill="#034737"/>
<path d="M348.119 84.9733L353.014 87.2945L348.556 90.3731L348.119 84.9733ZM442.504 222.462L440.924 220.175L441.696 219.642L443.276 221.929L442.504 222.462ZM437.765 215.601L434.606 211.027L435.378 210.494L438.537 215.068L437.765 215.601ZM431.447 206.453L428.288 201.879L429.06 201.346L432.219 205.92L431.447 206.453ZM425.129 197.305L421.97 192.731L422.742 192.198L425.901 196.772L425.129 197.305ZM418.811 188.157L415.652 183.583L416.424 183.049L419.583 187.624L418.811 188.157ZM412.493 179.009L409.334 174.435L410.106 173.901L413.265 178.475L412.493 179.009ZM406.175 169.86L403.016 165.286L403.788 164.753L406.947 169.327L406.175 169.86ZM399.857 160.712L396.698 156.138L397.47 155.605L400.629 160.179L399.857 160.712ZM393.539 151.564L390.38 146.99L391.152 146.457L394.311 151.031L393.539 151.564ZM387.221 142.416L384.062 137.842L384.834 137.309L387.993 141.883L387.221 142.416ZM380.902 133.268L377.743 128.694L378.516 128.161L381.675 132.735L380.902 133.268ZM374.584 124.12L371.425 119.546L372.197 119.012L375.357 123.586L374.584 124.12ZM368.266 114.972L365.107 110.397L365.879 109.864L369.038 114.438L368.266 114.972ZM361.948 105.823L358.789 101.249L359.561 100.716L362.72 105.29L361.948 105.823ZM355.63 96.6752L352.471 92.1011L353.243 91.5679L356.402 96.1419L355.63 96.6752Z" fill="#034737"/>
<path d="M350.901 378.67C261.248 378.67 188.57 306.202 188.57 216.809C188.57 127.415 261.248 54.9473 350.901 54.9473" stroke="#034737" stroke-width="0.832355" stroke-dasharray="12.49 12.49"/>
<circle cx="4.69163" cy="4.69163" r="4.69163" transform="matrix(-1 0 0 1 447.581 217.278)" fill="#034737"/>
<g filter="url(#filter0_bd_6882_5316)">
<rect width="65.6828" height="65.6828" rx="14.5962" transform="matrix(-1 -1.74846e-07 -1.74846e-07 1 365.947 13.6606)" fill="#034737"/>
<rect x="0.494037" y="-0.494037" width="66.6709" height="66.6709" rx="15.0902" transform="matrix(-1 -1.74846e-07 -1.74846e-07 1 366.935 13.6606)" stroke="#EAEAEA" stroke-width="0.988074"/>
<path d="M314.539 46.3766H320.312" stroke="white" stroke-width="1.65061" stroke-linecap="round" stroke-linejoin="round"/>
<path d="M313.095 34.3042C315.486 34.3042 317.425 36.3311 317.425 38.8314V53.9219C317.425 56.4222 315.486 58.4491 313.095 58.4491" stroke="white" stroke-width="1.65061" stroke-linecap="round" stroke-linejoin="round"/>
<path d="M321.757 34.3042C319.365 34.3042 317.427 36.3311 317.427 38.8314V53.9219C317.427 56.4222 319.365 58.4491 321.757 58.4491" stroke="white" stroke-width="1.65061" stroke-linecap="round" stroke-linejoin="round"/>
<path fill-rule="evenodd" clip-rule="evenodd" d="M344.847 43.3589L351.418 39.9243C351.865 39.6906 352.397 39.7156 352.822 39.9904C353.247 40.2652 353.506 40.7506 353.507 41.2734V51.4806C353.506 52.0034 353.247 52.4888 352.822 52.7636C352.397 53.0384 351.865 53.0634 351.418 52.8297L344.847 49.3951V43.3589Z" stroke="white" stroke-width="1.65061" stroke-linecap="round" stroke-linejoin="round"/>
<rect x="327.527" y="37.3223" width="17.32" height="18.1087" rx="2.17662" stroke="white" stroke-width="1.65061" stroke-linecap="round" stroke-linejoin="round"/>
</g>
<g filter="url(#filter1_bd_6882_5316)">
<rect width="65.6828" height="65.6828" rx="14.5962" transform="matrix(-1 -1.74846e-07 -1.74846e-07 1 273.053 69.9604)" fill="#034737"/>
<rect x="0.494037" y="-0.494037" width="66.6709" height="66.6709" rx="15.0902" transform="matrix(-1 -1.74846e-07 -1.74846e-07 1 274.041 69.9604)" stroke="#EAEAEA" stroke-width="0.988074"/>
<path fill-rule="evenodd" clip-rule="evenodd" d="M256.046 95.2692C256.046 94.6084 255.768 93.9744 255.272 93.5074C254.775 93.0404 254.099 92.7777 253.398 92.7777H247.05L243.931 89.8472C243.808 89.7304 243.64 89.665 243.465 89.665H236.842C236.666 89.665 236.498 89.7304 236.375 89.8472L233.256 92.7777H226.908C226.207 92.7777 225.531 93.0404 225.035 93.5074C224.538 93.9744 224.26 94.6084 224.26 95.2692V112.704C224.26 113.365 224.538 113.999 225.035 114.466C225.531 114.933 226.207 115.194 226.908 115.194H253.396C254.098 115.194 254.773 114.932 255.27 114.465C255.768 113.999 256.046 113.365 256.046 112.704L256.046 95.2692ZM254.721 95.2692V112.704C254.721 113.034 254.582 113.351 254.334 113.584C254.086 113.818 253.748 113.95 253.398 113.95H226.908C226.558 113.95 226.22 113.818 225.972 113.584C225.724 113.351 225.585 113.034 225.585 112.704V95.2692C225.585 94.9388 225.724 94.6224 225.972 94.3889C226.22 94.1542 226.558 94.0234 226.908 94.0234H233.53C233.705 94.0234 233.874 93.958 233.997 93.8413L237.117 90.9096H243.19L246.309 93.8401C246.431 93.958 246.6 94.0234 246.775 94.0234H253.396C253.748 94.0234 254.086 94.1542 254.334 94.3889C254.582 94.6224 254.721 94.9388 254.721 95.2692ZM247.732 103.269C247.756 103.505 247.768 103.744 247.768 103.986C247.768 107.938 244.355 111.148 240.153 111.148C235.951 111.148 232.538 107.938 232.538 103.986C232.538 100.034 235.951 96.8256 240.153 96.8256C240.527 96.8256 240.898 96.8513 241.26 96.9003C241.621 96.9494 241.955 96.7135 242.008 96.3738C242.06 96.034 241.808 95.7176 241.448 95.6686C241.024 95.6102 240.594 95.5798 240.153 95.5798C235.22 95.5798 231.213 99.3464 231.213 103.986C231.213 108.626 235.22 112.392 240.153 112.392C245.086 112.392 249.093 108.626 249.093 103.986C249.093 103.702 249.077 103.422 249.05 103.147C249.014 102.805 248.688 102.555 248.325 102.589C247.961 102.622 247.695 102.928 247.732 103.269ZM238.789 102.525C238.693 102.28 238.445 102.118 238.166 102.118C237.888 102.118 237.64 102.28 237.544 102.524L236.756 104.529L234.627 105.27C234.366 105.361 234.193 105.594 234.193 105.854C234.193 106.114 234.366 106.348 234.627 106.438L236.756 107.179L237.544 109.184C237.64 109.428 237.888 109.59 238.166 109.59C238.445 109.59 238.693 109.428 238.789 109.184L239.577 107.179L241.706 106.438C241.967 106.348 242.14 106.116 242.14 105.854C242.14 105.594 241.967 105.361 241.706 105.27L239.577 104.529L238.789 102.524V102.525ZM238.166 104.536L238.441 105.231C238.507 105.401 238.649 105.535 238.832 105.598L239.571 105.854L238.832 106.111C238.649 106.174 238.508 106.308 238.441 106.479L238.166 107.173L237.895 106.479C237.825 106.308 237.682 106.174 237.501 106.111L236.762 105.854L237.501 105.597C237.683 105.534 237.825 105.4 237.895 105.229L238.166 104.536ZM244.736 94.43C244.639 94.186 244.391 94.0237 244.117 94.0237C243.838 94.0237 243.59 94.186 243.494 94.43L241.901 98.479L237.594 99.977C237.336 100.068 237.163 100.3 237.163 100.561C237.163 100.821 237.336 101.055 237.594 101.144L241.901 102.642L243.494 106.691C243.59 106.935 243.838 107.098 244.117 107.098C244.391 107.098 244.639 106.935 244.736 106.691L246.332 102.642L250.636 101.144C250.898 101.053 251.07 100.821 251.07 100.561C251.07 100.3 250.897 100.067 250.636 99.977L246.332 98.479L244.736 94.43ZM244.117 96.4405L245.193 99.1795C245.263 99.35 245.405 99.4842 245.587 99.5473L248.497 100.562L245.587 101.575C245.404 101.638 245.263 101.773 245.193 101.943L244.117 104.682L243.038 101.943C242.972 101.773 242.829 101.638 242.646 101.575L239.732 100.562L242.646 99.5485C242.829 99.4854 242.97 99.3512 243.038 99.1807L244.117 96.4405ZM249.093 96.2035H248.431C248.067 96.2035 247.769 96.4825 247.769 96.8258C247.769 97.169 248.067 97.448 248.431 97.448H249.093V98.0703C249.093 98.4136 249.391 98.6926 249.755 98.6926C250.119 98.6926 250.417 98.4136 250.417 98.0703V97.448H251.078C251.442 97.448 251.74 97.169 251.74 96.8258C251.74 96.4825 251.442 96.2035 251.078 96.2035H250.417V95.5812C250.417 95.2379 250.119 94.9589 249.755 94.9589C249.391 94.9589 249.093 95.2379 249.093 95.5812V96.2035Z" fill="white"/>
</g>
<g filter="url(#filter2_bd_6882_5316)">
<rect width="65.6828" height="65.6828" rx="14.5962" transform="matrix(-1 -1.74846e-07 -1.74846e-07 1 221.445 189.127)" fill="#034737"/>
<rect x="0.494037" y="-0.494037" width="66.6709" height="66.6709" rx="15.0902" transform="matrix(-1 -1.74846e-07 -1.74846e-07 1 222.433 189.127)" stroke="#EAEAEA" stroke-width="0.988074"/>
<path fill-rule="evenodd" clip-rule="evenodd" d="M189.171 208.036H174.854C174.27 208.036 173.709 208.248 173.297 208.627C172.883 209.005 172.651 209.519 172.651 210.054C172.651 214.902 172.651 231.445 172.651 236.294C172.651 237.409 173.639 238.312 174.854 238.312H196.881C198.096 238.312 199.084 237.409 199.084 236.294C199.084 232.886 199.084 224.183 199.084 224.183C199.084 223.812 198.753 223.51 198.349 223.51C197.946 223.51 197.615 223.812 197.615 224.183C197.615 224.183 197.615 232.886 197.615 236.294C197.615 236.665 197.288 236.966 196.881 236.966H174.854C174.447 236.966 174.12 236.665 174.12 236.294C174.12 231.445 174.12 214.902 174.12 210.054C174.12 209.876 174.197 209.704 174.336 209.578C174.472 209.452 174.659 209.381 174.854 209.381H189.171C189.575 209.381 189.906 209.08 189.906 208.708C189.906 208.337 189.575 208.036 189.171 208.036ZM178.342 230.911H193.393C193.797 230.911 194.128 230.61 194.128 230.238C194.128 229.867 193.797 229.566 193.393 229.566H178.342C177.938 229.566 177.607 229.867 177.607 230.238C177.607 230.61 177.938 230.911 178.342 230.911ZM178.342 227.211H193.393C193.797 227.211 194.128 226.909 194.128 226.538C194.128 226.166 193.797 225.865 193.393 225.865H178.342C177.938 225.865 177.607 226.166 177.607 226.538C177.607 226.909 177.938 227.211 178.342 227.211ZM185.133 215.773H178.525C178.121 215.773 177.791 216.074 177.791 216.446C177.791 216.817 178.121 217.118 178.525 217.118H181.095V223.847C181.095 224.218 181.425 224.519 181.829 224.519C182.233 224.519 182.563 224.218 182.563 223.847V217.118H185.133C185.537 217.118 185.867 216.817 185.867 216.446C185.867 216.074 185.537 215.773 185.133 215.773ZM186.051 223.847H193.393C193.797 223.847 194.128 223.545 194.128 223.174C194.128 222.802 193.797 222.501 193.393 222.501H186.051C185.647 222.501 185.317 222.802 185.317 223.174C185.317 223.545 185.647 223.847 186.051 223.847ZM201.228 215.203C201.121 214.939 200.846 214.764 200.541 214.764C200.233 214.764 199.957 214.939 199.851 215.203L198.977 217.368L196.613 218.169C196.327 218.267 196.136 218.519 196.136 218.801C196.136 219.082 196.327 219.334 196.613 219.432L198.977 220.233L199.851 222.398C199.957 222.662 200.233 222.837 200.541 222.837C200.846 222.837 201.121 222.662 201.228 222.398L202.101 220.233L204.465 219.432C204.755 219.334 204.946 219.082 204.946 218.801C204.946 218.519 204.755 218.267 204.465 218.169L202.101 217.368L201.228 215.203ZM188.07 220.483H191.007C191.411 220.483 191.741 220.181 191.741 219.81C191.741 219.438 191.411 219.137 191.007 219.137H188.07C187.666 219.137 187.336 219.438 187.336 219.81C187.336 220.181 187.666 220.483 188.07 220.483ZM200.541 217.375L200.842 218.125C200.915 218.31 201.077 218.455 201.275 218.523L202.094 218.801L201.275 219.078C201.077 219.146 200.915 219.291 200.842 219.476L200.541 220.226L200.236 219.476C200.163 219.291 200.005 219.146 199.803 219.078L198.984 218.801L199.803 218.523C200.005 218.455 200.163 218.31 200.236 218.125L200.541 217.375ZM194.634 206.456C194.528 206.192 194.252 206.017 193.944 206.017C193.636 206.017 193.36 206.192 193.254 206.456L191.488 210.832L186.716 212.451C186.426 212.548 186.235 212.8 186.235 213.082C186.235 213.363 186.426 213.615 186.716 213.713L191.488 215.332L193.254 219.707C193.36 219.971 193.636 220.146 193.944 220.146C194.252 220.146 194.528 219.971 194.634 219.707L196.4 215.332L201.172 213.713C201.462 213.615 201.653 213.363 201.653 213.082C201.653 212.8 201.462 212.548 201.172 212.451L196.4 210.832L194.634 206.456ZM193.944 208.629L195.141 211.589C195.214 211.773 195.372 211.918 195.574 211.986L198.805 213.082L195.574 214.177C195.372 214.245 195.214 214.39 195.141 214.575L193.944 217.535L192.747 214.575C192.674 214.39 192.516 214.245 192.314 214.177L189.083 213.082L192.314 211.986C192.516 211.918 192.674 211.773 192.747 211.589L193.944 208.629ZM188.07 217.118H189.539C189.942 217.118 190.273 216.817 190.273 216.446C190.273 216.074 189.942 215.773 189.539 215.773H188.07C187.666 215.773 187.336 216.074 187.336 216.446C187.336 216.817 187.666 217.118 188.07 217.118ZM199.818 208.372H199.084C198.68 208.372 198.349 208.673 198.349 209.045C198.349 209.416 198.68 209.718 199.084 209.718H199.818V210.39C199.818 210.762 200.148 211.063 200.552 211.063C200.956 211.063 201.286 210.762 201.286 210.39V209.718H202.02C202.424 209.718 202.755 209.416 202.755 209.045C202.755 208.673 202.424 208.372 202.02 208.372H201.286V207.699C201.286 207.328 200.956 207.026 200.552 207.026C200.148 207.026 199.818 207.328 199.818 207.699V208.372Z" fill="white"/>
</g>
<g filter="url(#filter3_bd_6882_5316)">
<rect width="65.6828" height="65.6828" rx="14.5962" transform="matrix(-1 -1.74846e-07 -1.74846e-07 1 273.053 309.233)" fill="#034737"/>
<rect x="0.494037" y="-0.494037" width="66.6709" height="66.6709" rx="15.0902" transform="matrix(-1 -1.74846e-07 -1.74846e-07 1 274.041 309.233)" stroke="#EAEAEA" stroke-width="0.988074"/>
<rect x="256.163" y="325.924" width="32.1024" height="32.1024" rx="3.51872" transform="rotate(90 256.163 325.924)" stroke="white" stroke-width="1.87665" stroke-linecap="round" stroke-linejoin="round"/>
<path d="M246.132 325.924V341.975" stroke="white" stroke-width="1.87665" stroke-linecap="round" stroke-linejoin="round"/>
<path d="M234.093 341.975V358.026" stroke="white" stroke-width="1.87665" stroke-linecap="round" stroke-linejoin="round"/>
<path d="M256.163 341.975H224.061" stroke="white" stroke-width="1.87665" stroke-linecap="round" stroke-linejoin="round"/>
</g>
<g filter="url(#filter4_bd_6882_5316)">
<rect width="65.6828" height="65.6828" rx="14.5962" transform="matrix(-1 -1.74846e-07 -1.74846e-07 1 365.946 363.657)" fill="#034737"/>
<rect x="0.494037" y="-0.494037" width="66.6709" height="66.6709" rx="15.0902" transform="matrix(-1 -1.74846e-07 -1.74846e-07 1 366.934 363.657)" stroke="#EAEAEA" stroke-width="0.988074"/>
<rect x="316.014" y="383.727" width="33.98" height="26.4289" rx="4.64093" stroke="white" stroke-width="1.87665" stroke-linecap="round" stroke-linejoin="round"/>
<path d="M316.014 387.503L333.004 398.83L349.994 387.503" stroke="white" stroke-width="1.87665" stroke-linecap="round" stroke-linejoin="round"/>
</g>
<path d="M367.868 92.3201L365.557 88.7464L363.309 89.2665L362.58 88.1379L372.642 85.8317L373.44 87.0661L367.202 95.2854L366.472 94.1569L367.868 92.3201ZM368.541 91.4519L371.721 87.2945L366.625 88.4894L368.541 91.4519ZM376.945 92.3826L368.752 97.6816L368.06 96.6118L376.254 91.3128L376.945 92.3826ZM378.408 100.418L374.61 102.874C374.297 103.077 374.117 103.288 374.07 103.507C374.03 103.722 374.117 103.993 374.33 104.322L374.839 105.11L373.934 105.696L373.311 104.732C372.926 104.136 372.774 103.6 372.856 103.125C372.937 102.65 373.292 102.21 373.919 101.804L377.716 99.3486L377.176 98.5139L378.058 97.9437L378.597 98.7784L380.22 97.7292L380.912 98.799L379.289 99.8482L380.376 101.529L379.495 102.099L378.408 100.418ZM382.065 110.662C381.861 110.794 381.638 110.921 381.395 111.045L378.065 105.896C377.456 106.346 377.098 106.883 376.99 107.508C376.896 108.136 377.032 108.732 377.397 109.296C377.696 109.758 378.05 110.074 378.459 110.243C378.881 110.414 379.313 110.446 379.755 110.339L380.5 111.491C379.769 111.719 379.041 111.701 378.314 111.437C377.596 111.168 376.988 110.65 376.491 109.881C376.096 109.27 375.878 108.633 375.838 107.97C375.804 107.314 375.948 106.687 376.272 106.088C376.604 105.485 377.104 104.967 377.77 104.537C378.436 104.106 379.106 103.861 379.78 103.803C380.454 103.745 381.079 103.869 381.654 104.175C382.243 104.484 382.74 104.951 383.145 105.578C383.541 106.19 383.757 106.817 383.795 107.459C383.832 108.102 383.697 108.7 383.389 109.255C383.094 109.813 382.652 110.282 382.065 110.662ZM381.573 109.413C381.981 109.149 382.271 108.833 382.445 108.466C382.626 108.093 382.69 107.701 382.636 107.292C382.595 106.885 382.453 106.493 382.21 106.117C381.86 105.576 381.388 105.225 380.795 105.064C380.207 104.911 379.59 105.005 378.943 105.345L381.573 109.413ZM381.707 117.714L383.117 114.635L379.768 114.717L379.046 113.6L383.589 113.613L385.488 109.434L386.271 110.644L384.873 113.716L388.202 113.63L388.925 114.747L384.401 114.738L382.49 118.925L381.707 117.714ZM389.598 117.722L385.801 120.177C385.487 120.38 385.307 120.591 385.26 120.811C385.221 121.025 385.308 121.297 385.52 121.626L386.03 122.413L385.125 122.999L384.501 122.035C384.116 121.439 383.964 120.904 384.046 120.429C384.128 119.953 384.482 119.513 385.109 119.108L388.906 116.652L388.366 115.817L389.248 115.247L389.788 116.082L391.41 115.033L392.102 116.102L390.48 117.151L391.567 118.833L390.685 119.403L389.598 117.722ZM394.44 125.208L390.643 127.664C390.329 127.867 390.149 128.078 390.102 128.297C390.063 128.512 390.149 128.783 390.362 129.113L390.872 129.9L389.966 130.486L389.343 129.522C388.958 128.926 388.806 128.391 388.888 127.915C388.969 127.44 389.324 127 389.951 126.594L393.748 124.139L393.208 123.304L394.09 122.734L394.63 123.568L396.252 122.519L396.944 123.589L395.321 124.638L396.409 126.319L395.527 126.89L394.44 125.208ZM392.539 134.695C392.148 134.092 391.931 133.454 391.886 132.783C391.846 132.12 391.985 131.485 392.305 130.878C392.637 130.275 393.136 129.757 393.802 129.327C394.46 128.901 395.131 128.667 395.815 128.625C396.512 128.585 397.154 128.726 397.739 129.048C398.333 129.364 398.828 129.828 399.223 130.439C399.618 131.05 399.838 131.692 399.883 132.363C399.936 133.029 399.803 133.665 399.484 134.272C399.17 134.886 398.68 135.409 398.014 135.839C397.348 136.27 396.663 136.501 395.961 136.533C395.272 136.567 394.628 136.423 394.03 136.098C393.431 135.774 392.934 135.306 392.539 134.695ZM393.479 134.087C393.728 134.471 394.051 134.773 394.449 134.994C394.847 135.214 395.292 135.31 395.785 135.28C396.282 135.259 396.789 135.081 397.307 134.746C397.824 134.412 398.197 134.026 398.426 133.589C398.654 133.152 398.749 132.713 398.708 132.273C398.675 131.827 398.535 131.412 398.287 131.028C398.033 130.636 397.71 130.334 397.317 130.121C396.937 129.911 396.503 129.825 396.016 129.862C395.528 129.9 395.026 130.085 394.509 130.42C393.984 130.759 393.602 131.14 393.363 131.561C393.129 131.99 393.026 132.424 393.054 132.862C393.089 133.294 393.231 133.703 393.479 134.087ZM400.301 144.301L407.049 142.772L407.786 143.912L399.709 145.551L398.903 144.305L403.711 137.611L404.456 138.763L400.301 144.301ZM409.893 144.876C409.761 144.672 409.72 144.454 409.77 144.222C409.82 143.989 409.947 143.807 410.151 143.676C410.355 143.544 410.573 143.503 410.805 143.553C411.037 143.603 411.219 143.729 411.351 143.933C411.478 144.129 411.514 144.339 411.459 144.564C411.409 144.796 411.282 144.978 411.078 145.11C410.875 145.242 410.656 145.283 410.424 145.233C410.197 145.191 410.02 145.072 409.893 144.876ZM409.181 146.07L402.739 150.236L402.047 149.166L408.49 145L409.181 146.07ZM406.927 149.597C407.586 149.171 408.248 148.931 408.914 148.879C409.588 148.821 410.211 148.934 410.785 149.219C411.363 149.512 411.84 149.948 412.215 150.528C412.539 151.03 412.723 151.572 412.767 152.155C412.819 152.734 412.73 153.258 412.501 153.728L415.91 151.524L416.609 152.605L407.91 158.231L407.21 157.15L408.421 156.366C407.9 156.403 407.38 156.295 406.861 156.042C406.349 155.784 405.914 155.376 405.554 154.82C405.184 154.248 404.988 153.635 404.966 152.983C404.949 152.338 405.109 151.717 405.446 151.121C405.783 150.526 406.277 150.017 406.927 149.597ZM410.443 155.059C410.929 154.745 411.289 154.373 411.523 153.944C411.757 153.515 411.859 153.071 411.829 152.612C411.812 152.156 411.674 151.729 411.416 151.329C411.157 150.929 410.827 150.626 410.426 150.418C410.025 150.211 409.581 150.125 409.094 150.163C408.607 150.2 408.12 150.376 407.634 150.69C407.141 151.009 406.773 151.386 406.531 151.82C406.298 152.249 406.189 152.692 406.206 153.147C406.231 153.598 406.372 154.023 406.631 154.423C406.889 154.823 407.219 155.126 407.62 155.334C408.034 155.544 408.485 155.631 408.972 155.594C409.467 155.551 409.957 155.373 410.443 155.059ZM416.371 163.709C416.167 163.841 415.944 163.969 415.702 164.092L412.372 158.943C411.762 159.393 411.404 159.93 411.297 160.555C411.203 161.183 411.338 161.779 411.703 162.343C412.002 162.806 412.356 163.121 412.765 163.29C413.188 163.462 413.62 163.494 414.061 163.386L414.806 164.538C414.076 164.766 413.347 164.748 412.621 164.484C411.902 164.215 411.295 163.697 410.798 162.929C410.402 162.317 410.185 161.68 410.145 161.017C410.11 160.361 410.255 159.734 410.579 159.136C410.911 158.532 411.41 158.015 412.076 157.584C412.742 157.153 413.412 156.909 414.086 156.851C414.76 156.793 415.385 156.917 415.961 157.222C416.549 157.531 417.046 157.999 417.452 158.626C417.847 159.237 418.063 159.864 418.101 160.506C418.139 161.149 418.004 161.748 417.695 162.303C417.4 162.86 416.959 163.329 416.371 163.709ZM415.88 162.46C416.287 162.196 416.578 161.881 416.751 161.513C416.932 161.14 416.996 160.749 416.942 160.339C416.901 159.932 416.759 159.54 416.516 159.164C416.166 158.623 415.695 158.272 415.102 158.111C414.514 157.958 413.896 158.052 413.249 158.392L415.88 162.46ZM415.55 170.278C415.16 169.674 414.942 169.037 414.897 168.366C414.858 167.702 414.997 167.067 415.316 166.461C415.648 165.857 416.147 165.34 416.814 164.909C417.472 164.483 418.143 164.249 418.827 164.207C419.524 164.168 420.165 164.309 420.751 164.63C421.345 164.946 421.839 165.41 422.235 166.021C422.63 166.633 422.85 167.274 422.895 167.945C422.948 168.611 422.815 169.247 422.496 169.854C422.182 170.468 421.692 170.991 421.025 171.422C420.359 171.853 419.675 172.084 418.973 172.115C418.284 172.15 417.64 172.005 417.041 171.681C416.443 171.357 415.946 170.889 415.55 170.278ZM416.491 169.669C416.739 170.053 417.062 170.356 417.461 170.576C417.859 170.796 418.304 170.892 418.796 170.863C419.294 170.841 419.801 170.663 420.318 170.328C420.836 169.994 421.209 169.608 421.437 169.171C421.666 168.734 421.76 168.296 421.72 167.855C421.687 167.409 421.547 166.994 421.298 166.61C421.045 166.218 420.722 165.916 420.328 165.704C419.948 165.494 419.514 165.407 419.027 165.445C418.54 165.482 418.038 165.668 417.521 166.002C416.995 166.342 416.613 166.722 416.375 167.144C416.141 167.573 416.038 168.006 416.065 168.444C416.101 168.877 416.242 169.285 416.491 169.669Z" fill="#666666"/>
<path d="M293.027 127.442C292.626 128.148 292.048 128.598 291.293 128.791C290.551 128.981 289.686 128.795 288.696 128.232L287.065 127.305L285.051 130.846L283.944 130.216L288.768 121.734L291.506 123.291C292.463 123.836 293.058 124.48 293.29 125.224C293.53 125.972 293.442 126.712 293.027 127.442ZM289.215 127.319C289.832 127.67 290.362 127.795 290.806 127.693C291.251 127.591 291.614 127.293 291.895 126.798C292.49 125.752 292.188 124.887 290.987 124.204L289.356 123.277L287.584 126.392L289.215 127.319ZM295.312 129.289C295.723 129.019 296.168 128.879 296.645 128.872C297.13 128.868 297.632 129.014 298.151 129.31L297.5 130.453L297.208 130.287C295.967 129.581 294.964 129.902 294.198 131.248L292.135 134.875L291.028 134.245L294.821 127.576L295.928 128.206L295.312 129.289ZM298.45 138.612C297.825 138.256 297.338 137.791 296.989 137.217C296.647 136.647 296.478 136.019 296.481 135.334C296.497 134.645 296.701 133.956 297.093 133.266C297.481 132.584 297.969 132.067 298.556 131.714C299.156 131.357 299.79 131.187 300.458 131.201C301.131 131.208 301.783 131.392 302.416 131.751C303.049 132.111 303.54 132.579 303.89 133.153C304.244 133.72 304.42 134.346 304.416 135.031C304.421 135.721 304.227 136.411 303.835 137.1C303.443 137.79 302.943 138.311 302.335 138.663C301.739 139.011 301.101 139.18 300.42 139.169C299.74 139.157 299.083 138.972 298.45 138.612ZM299.004 137.638C299.401 137.864 299.827 137.983 300.282 137.995C300.737 138.007 301.177 137.886 301.6 137.633C302.031 137.384 302.399 136.992 302.704 136.457C303.008 135.921 303.161 135.407 303.162 134.914C303.164 134.421 303.045 133.988 302.805 133.616C302.571 133.235 302.255 132.932 301.857 132.706C301.452 132.475 301.025 132.356 300.578 132.349C300.144 132.338 299.72 132.462 299.305 132.72C298.89 132.978 298.53 133.374 298.225 133.91C297.916 134.453 297.753 134.967 297.735 135.451C297.726 135.939 297.834 136.372 298.061 136.747C298.292 137.115 298.606 137.412 299.004 137.638ZM304.921 137.702C305.309 137.02 305.786 136.503 306.352 136.148C306.923 135.786 307.529 135.599 308.169 135.587C308.817 135.58 309.442 135.747 310.042 136.089C310.561 136.384 310.975 136.78 311.283 137.278C311.595 137.767 311.758 138.273 311.772 138.796L313.779 135.267L314.899 135.904L309.777 144.909L308.657 144.272L309.37 143.019C308.925 143.292 308.414 143.436 307.836 143.451C307.263 143.458 306.688 143.297 306.112 142.97C305.52 142.633 305.064 142.18 304.743 141.611C304.43 141.047 304.286 140.423 304.31 139.738C304.334 139.054 304.538 138.375 304.921 137.702ZM310.561 140.926C310.847 140.423 310.994 139.927 311.004 139.438C311.013 138.95 310.899 138.509 310.661 138.116C310.436 137.719 310.116 137.403 309.702 137.168C309.288 136.933 308.856 136.815 308.404 136.816C307.953 136.817 307.52 136.946 307.104 137.204C306.689 137.462 306.339 137.843 306.053 138.346C305.762 138.857 305.61 139.361 305.596 139.857C305.586 140.346 305.694 140.788 305.92 141.185C306.15 141.574 306.471 141.885 306.885 142.121C307.299 142.356 307.732 142.473 308.183 142.472C308.647 142.468 309.087 142.337 309.502 142.079C309.922 141.813 310.275 141.429 310.561 140.926ZM321.392 142.689L317.599 149.358L316.492 148.728L317.052 147.742C316.648 147.963 316.199 148.062 315.707 148.04C315.228 148.015 314.761 147.873 314.307 147.614C313.787 147.319 313.381 146.948 313.087 146.502C312.798 146.047 312.654 145.536 312.655 144.968C312.664 144.404 312.844 143.814 313.195 143.197L315.417 139.291L316.512 139.914L314.373 143.674C314 144.331 313.878 144.933 314.007 145.479C314.141 146.017 314.496 146.45 315.072 146.777C315.665 147.114 316.235 147.197 316.783 147.026C317.332 146.854 317.804 146.42 318.201 145.722L320.285 142.059L321.392 142.689ZM320.995 146.86C321.387 146.171 321.867 145.649 322.433 145.295C323.004 144.932 323.614 144.748 324.262 144.74C324.919 144.738 325.563 144.917 326.196 145.277C327.015 145.743 327.576 146.324 327.877 147.022C328.186 147.724 328.226 148.476 327.994 149.279L326.802 148.601C326.919 148.13 326.878 147.683 326.679 147.259C326.489 146.839 326.15 146.49 325.663 146.214C325.03 145.854 324.395 145.782 323.756 145.999C323.122 146.207 322.579 146.709 322.127 147.504C321.67 148.307 321.512 149.039 321.652 149.698C321.792 150.358 322.179 150.867 322.811 151.227C323.298 151.504 323.768 151.621 324.222 151.579C324.676 151.536 325.084 151.339 325.445 150.986L326.638 151.664C326.072 152.244 325.403 152.589 324.633 152.698C323.866 152.799 323.082 152.621 322.279 152.164C321.646 151.805 321.163 151.342 320.829 150.776C320.504 150.216 320.351 149.597 320.371 148.921C320.39 148.245 320.598 147.558 320.995 146.86ZM331.558 149.679L329.323 153.61C329.138 153.935 329.076 154.205 329.135 154.421C329.199 154.63 329.402 154.831 329.742 155.024L330.558 155.488L330.025 156.425L329.027 155.858C328.41 155.507 328.029 155.102 327.882 154.643C327.735 154.183 327.846 153.629 328.215 152.98L330.451 149.05L329.587 148.558L330.106 147.645L330.97 148.137L331.925 146.457L333.033 147.087L332.078 148.767L333.818 149.756L333.299 150.669L331.558 149.679ZM340.771 160.041L337.071 157.936L335.317 159.435L334.149 158.771L342.012 152.082L343.29 152.808L341.547 162.979L340.379 162.314L340.771 160.041ZM340.966 158.96L341.869 153.804L337.9 157.216L340.966 158.96ZM348.852 155.908L344.028 164.39L342.921 163.76L347.745 155.278L348.852 155.908Z" fill="#666666"/>
<path d="M251.077 213.927L246.821 213.97L246.059 216.148L244.715 216.162L248.144 206.424L249.614 206.409L253.227 216.075L251.883 216.088L251.077 213.927ZM250.702 212.894L248.888 207.985L247.174 212.931L250.702 212.894ZM255.98 206.288L256.08 216.045L254.806 216.058L254.706 206.301L255.98 206.288ZM261.552 212.125C261.544 211.341 261.696 210.653 262.007 210.062C262.318 209.462 262.747 208.995 263.295 208.663C263.851 208.331 264.47 208.161 265.152 208.154C265.824 208.147 266.408 208.286 266.906 208.57C267.404 208.854 267.776 209.214 268.023 209.65L268.009 208.251L269.297 208.237L269.375 215.909L268.087 215.922L268.073 214.494C267.825 214.945 267.451 215.322 266.95 215.626C266.459 215.92 265.882 216.071 265.219 216.078C264.538 216.085 263.92 215.923 263.366 215.593C262.812 215.262 262.373 214.795 262.049 214.192C261.726 213.589 261.56 212.9 261.552 212.125ZM268.048 212.072C268.042 211.494 267.92 210.991 267.683 210.564C267.445 210.137 267.124 209.814 266.72 209.594C266.326 209.365 265.891 209.252 265.415 209.257C264.939 209.262 264.506 209.379 264.116 209.607C263.727 209.835 263.418 210.164 263.189 210.596C262.96 211.028 262.848 211.533 262.854 212.112C262.86 212.7 262.982 213.212 263.22 213.648C263.458 214.075 263.774 214.403 264.168 214.632C264.562 214.852 264.997 214.96 265.473 214.955C265.949 214.95 266.382 214.834 266.772 214.606C267.171 214.368 267.485 214.034 267.714 213.602C267.942 213.161 268.054 212.651 268.048 212.072ZM272.778 209.448C272.998 209.007 273.312 208.663 273.72 208.416C274.137 208.169 274.645 208.042 275.242 208.036L275.255 209.352L274.919 209.356C273.491 209.37 272.785 210.152 272.801 211.702L272.844 215.873L271.57 215.886L271.492 208.215L272.765 208.202L272.778 209.448ZM278.321 209.195L278.367 213.717C278.371 214.09 278.453 214.355 278.613 214.512C278.773 214.66 279.049 214.732 279.441 214.728L280.379 214.718L280.39 215.796L279.243 215.808C278.533 215.815 278 215.657 277.642 215.334C277.284 215.011 277.101 214.476 277.093 213.73L277.047 209.208L276.053 209.218L276.042 208.168L277.036 208.158L277.016 206.226L278.29 206.213L278.31 208.145L280.312 208.124L280.322 209.174L278.321 209.195ZM282.542 206.855C282.3 206.858 282.094 206.776 281.924 206.61C281.754 206.443 281.668 206.239 281.666 205.996C281.663 205.754 281.745 205.547 281.911 205.378C282.078 205.208 282.282 205.122 282.525 205.119C282.758 205.117 282.955 205.199 283.115 205.365C283.285 205.532 283.371 205.736 283.373 205.979C283.376 206.221 283.294 206.428 283.128 206.597C282.971 206.767 282.776 206.853 282.542 206.855ZM283.171 208.095L283.25 215.767L281.976 215.78L281.897 208.108L283.171 208.095ZM284.948 211.899C284.939 211.106 285.091 210.413 285.402 209.822C285.714 209.222 286.147 208.755 286.704 208.423C287.27 208.09 287.917 207.92 288.645 207.913C289.588 207.903 290.365 208.124 290.976 208.575C291.596 209.026 292.009 209.656 292.213 210.466L290.841 210.48C290.706 210.015 290.445 209.649 290.06 209.382C289.684 209.116 289.216 208.985 288.656 208.991C287.928 208.998 287.343 209.256 286.9 209.765C286.457 210.264 286.24 210.971 286.25 211.886C286.259 212.81 286.49 213.521 286.943 214.021C287.397 214.52 287.987 214.766 288.715 214.758C289.275 214.753 289.74 214.617 290.111 214.352C290.482 214.087 290.735 213.711 290.87 213.224L292.241 213.21C292.044 213.996 291.64 214.63 291.029 215.113C290.418 215.586 289.65 215.827 288.726 215.836C287.998 215.844 287.348 215.687 286.775 215.366C286.212 215.045 285.769 214.588 285.445 213.994C285.122 213.4 284.956 212.702 284.948 211.899ZM295.176 205.284L295.282 215.643L294.009 215.656L293.902 205.297L295.176 205.284ZM304.453 211.419C304.455 211.661 304.444 211.918 304.419 212.189L298.287 212.252C298.342 213.008 298.604 213.598 299.075 214.022C299.556 214.437 300.132 214.641 300.804 214.634C301.354 214.629 301.81 214.498 302.172 214.242C302.542 213.977 302.8 213.629 302.945 213.198L304.317 213.184C304.119 213.924 303.715 214.53 303.104 215.003C302.492 215.466 301.729 215.703 300.815 215.712C300.087 215.72 299.432 215.563 298.85 215.242C298.277 214.922 297.825 214.464 297.492 213.87C297.159 213.267 296.988 212.569 296.98 211.775C296.972 210.982 297.124 210.285 297.435 209.685C297.746 209.084 298.185 208.622 298.751 208.299C299.326 207.967 299.987 207.796 300.733 207.789C301.461 207.781 302.107 207.933 302.67 208.245C303.234 208.556 303.667 208.991 303.972 209.548C304.285 210.095 304.446 210.719 304.453 211.419ZM303.134 211.166C303.129 210.681 303.018 210.267 302.8 209.924C302.581 209.571 302.285 209.308 301.909 209.135C301.543 208.952 301.137 208.863 300.689 208.867C300.045 208.874 299.496 209.085 299.043 209.5C298.599 209.915 298.348 210.487 298.291 211.216L303.134 211.166ZM320.134 207.716L317.819 215.412L316.503 215.425L314.592 209.355L312.807 215.463L311.491 215.477L309.004 207.83L310.306 207.817L312.136 214.238L313.974 207.779L315.276 207.766L317.204 214.2L318.874 207.729L320.134 207.716ZM322.085 206.45C321.843 206.452 321.636 206.37 321.467 206.204C321.297 206.038 321.211 205.833 321.208 205.591C321.206 205.348 321.288 205.142 321.454 204.972C321.62 204.802 321.825 204.716 322.068 204.714C322.301 204.711 322.498 204.793 322.658 204.96C322.828 205.126 322.914 205.33 322.916 205.573C322.919 205.816 322.837 206.022 322.671 206.192C322.514 206.361 322.319 206.447 322.085 206.45ZM322.714 207.689L322.793 215.361L321.519 215.374L321.44 207.702L322.714 207.689ZM325.947 214.278L329.713 214.24L329.724 215.29L324.502 215.343L324.491 214.293L328.158 208.669L324.462 208.707L324.451 207.671L329.617 207.618L329.628 208.654L325.947 214.278ZM330.903 211.413C330.895 210.629 331.047 209.942 331.358 209.351C331.669 208.75 332.098 208.284 332.646 207.951C333.202 207.619 333.821 207.449 334.503 207.442C335.175 207.435 335.759 207.574 336.257 207.858C336.755 208.143 337.127 208.503 337.374 208.939L337.36 207.539L338.648 207.526L338.726 215.197L337.438 215.211L337.424 213.783C337.176 214.233 336.802 214.61 336.301 214.914C335.81 215.209 335.233 215.359 334.57 215.366C333.889 215.373 333.271 215.211 332.717 214.881C332.163 214.551 331.724 214.084 331.4 213.48C331.077 212.877 330.911 212.188 330.903 211.413ZM337.399 211.361C337.393 210.782 337.271 210.279 337.033 209.852C336.796 209.425 336.475 209.102 336.071 208.882C335.677 208.653 335.242 208.541 334.766 208.546C334.29 208.55 333.857 208.667 333.467 208.895C333.078 209.123 332.768 209.453 332.54 209.885C332.311 210.316 332.199 210.821 332.205 211.4C332.211 211.988 332.333 212.5 332.571 212.936C332.809 213.363 333.125 213.691 333.519 213.921C333.913 214.141 334.348 214.248 334.824 214.243C335.3 214.238 335.733 214.122 336.123 213.894C336.522 213.657 336.836 213.322 337.065 212.89C337.293 212.449 337.405 211.939 337.399 211.361ZM342.129 208.736C342.349 208.295 342.662 207.951 343.071 207.704C343.488 207.457 343.996 207.331 344.593 207.325L344.606 208.641L344.27 208.644C342.842 208.659 342.136 209.441 342.152 210.99L342.195 215.162L340.921 215.175L340.842 207.503L342.116 207.49L342.129 208.736ZM345.67 211.262C345.662 210.478 345.814 209.79 346.125 209.199C346.436 208.599 346.865 208.132 347.413 207.8C347.969 207.467 348.593 207.298 349.283 207.291C349.881 207.284 350.437 207.419 350.954 207.693C351.47 207.959 351.865 208.314 352.141 208.759L352.099 204.7L353.387 204.686L353.493 215.046L352.205 215.059L352.19 213.617C351.943 214.077 351.574 214.459 351.082 214.763C350.59 215.057 350.013 215.208 349.351 215.214C348.669 215.221 348.047 215.06 347.484 214.729C346.93 214.399 346.491 213.932 346.167 213.329C345.844 212.726 345.678 212.036 345.67 211.262ZM352.166 211.209C352.16 210.631 352.038 210.128 351.8 209.701C351.563 209.274 351.242 208.951 350.838 208.731C350.444 208.501 350.009 208.389 349.533 208.394C349.057 208.399 348.624 208.515 348.234 208.743C347.845 208.971 347.535 209.301 347.306 209.733C347.077 210.165 346.966 210.67 346.972 211.249C346.978 211.836 347.1 212.349 347.338 212.785C347.575 213.212 347.891 213.54 348.286 213.769C348.68 213.989 349.115 214.097 349.591 214.092C350.067 214.087 350.5 213.97 350.89 213.742C351.289 213.505 351.602 213.17 351.831 212.739C352.06 212.298 352.172 211.788 352.166 211.209Z" fill="#666666"/>
<path d="M280.484 295.483L276.676 297.384L276.944 299.676L275.742 300.276L274.564 290.02L275.879 289.363L283.357 296.473L282.155 297.074L280.484 295.483ZM279.695 294.718L275.915 291.098L276.539 296.295L279.695 294.718ZM281.55 286.468L285.91 295.198L284.77 295.768L280.411 287.038L281.55 286.468ZM296.983 281.094L298.268 289.027L297.091 289.615L292.717 284.992L293.784 291.266L292.607 291.854L287.025 286.066L288.19 285.484L292.645 290.458L291.472 283.846L292.636 283.264L297.186 288.206L295.855 281.657L296.983 281.094ZM305.996 280.551C306.105 280.769 306.207 281.004 306.303 281.259L300.817 283.999C301.196 284.654 301.691 285.07 302.3 285.245C302.914 285.408 303.521 285.34 304.122 285.04C304.615 284.794 304.968 284.477 305.181 284.088C305.398 283.688 305.477 283.262 305.419 282.811L306.647 282.198C306.792 282.95 306.694 283.672 306.351 284.365C306.005 285.049 305.422 285.595 304.604 286.004C303.952 286.329 303.295 286.475 302.631 286.441C301.976 286.403 301.369 286.19 300.81 285.802C300.246 285.405 299.787 284.852 299.433 284.142C299.079 283.432 298.91 282.739 298.927 282.063C298.944 281.387 299.136 280.78 299.504 280.241C299.876 279.691 300.396 279.248 301.064 278.915C301.715 278.59 302.362 278.444 303.005 278.478C303.647 278.511 304.228 278.712 304.745 279.079C305.266 279.435 305.684 279.925 305.996 280.551ZM304.7 280.901C304.483 280.467 304.202 280.144 303.855 279.931C303.505 279.709 303.123 279.603 302.71 279.611C302.301 279.606 301.896 279.704 301.495 279.904C300.919 280.192 300.518 280.622 300.292 281.193C300.075 281.761 300.1 282.385 300.366 283.066L304.7 280.901ZM307.734 277.321C307.763 276.795 307.939 276.29 308.26 275.806C308.582 275.322 309.031 274.936 309.607 274.648C310.225 274.34 310.853 274.209 311.492 274.255C312.13 274.301 312.725 274.521 313.276 274.913C313.823 275.297 314.271 275.84 314.621 276.542C314.967 277.235 315.134 277.924 315.121 278.608C315.108 279.293 314.926 279.91 314.575 280.461C314.233 281.008 313.757 281.433 313.147 281.738C312.554 282.034 311.968 282.165 311.388 282.131C310.816 282.093 310.317 281.93 309.892 281.642L310.523 282.907L309.384 283.476L304.755 274.208L305.895 273.639L307.734 277.321ZM313.456 277.123C313.198 276.606 312.868 276.207 312.468 275.927C312.067 275.647 311.637 275.497 311.178 275.476C310.727 275.45 310.289 275.544 309.863 275.757C309.446 275.965 309.11 276.263 308.855 276.652C308.604 277.027 308.468 277.465 308.447 277.966C308.43 278.454 308.549 278.953 308.803 279.463C309.062 279.98 309.393 280.383 309.798 280.672C310.207 280.947 310.639 281.102 311.094 281.136C311.553 281.157 311.991 281.063 312.409 280.854C312.835 280.642 313.173 280.348 313.424 279.972C313.678 279.584 313.814 279.146 313.831 278.658C313.844 278.161 313.719 277.649 313.456 277.123ZM320.372 278.13C319.845 278.393 319.33 278.541 318.825 278.574C318.316 278.599 317.861 278.513 317.46 278.316C317.055 278.112 316.736 277.807 316.503 277.402L317.68 276.814C317.884 277.14 318.183 277.34 318.575 277.415C318.976 277.487 319.41 277.405 319.877 277.172C320.312 276.955 320.606 276.688 320.761 276.371C320.915 276.054 320.92 275.749 320.774 275.457C320.623 275.156 320.379 275.002 320.041 274.993C319.699 274.976 319.213 275.036 318.582 275.174C318.006 275.295 317.522 275.37 317.13 275.399C316.742 275.415 316.364 275.348 315.997 275.198C315.634 275.035 315.341 274.732 315.12 274.289C314.945 273.939 314.889 273.565 314.952 273.169C315.015 272.772 315.197 272.394 315.497 272.036C315.794 271.668 316.188 271.362 316.681 271.116C317.441 270.736 318.151 270.622 318.81 270.773C319.469 270.923 319.983 271.324 320.35 271.975L319.21 272.545C319.005 272.198 318.715 271.983 318.34 271.899C317.973 271.811 317.568 271.878 317.125 272.099C316.716 272.303 316.434 272.554 316.279 272.85C316.125 273.146 316.119 273.436 316.26 273.72C316.373 273.946 316.538 274.098 316.755 274.178C316.976 274.244 317.218 274.27 317.481 274.253C317.748 274.224 318.105 274.166 318.552 274.078C319.111 273.966 319.579 273.899 319.954 273.879C320.326 273.85 320.685 273.91 321.031 274.061C321.386 274.207 321.671 274.487 321.888 274.9C322.076 275.276 322.14 275.666 322.082 276.071C322.023 276.476 321.846 276.862 321.549 277.229C321.257 277.584 320.864 277.884 320.372 278.13ZM321.071 267.672C320.854 267.78 320.633 267.797 320.408 267.721C320.182 267.646 320.015 267.5 319.907 267.283C319.798 267.066 319.782 266.845 319.857 266.619C319.932 266.394 320.079 266.227 320.296 266.118C320.504 266.014 320.717 266.002 320.934 266.081C321.16 266.156 321.327 266.303 321.435 266.52C321.543 266.737 321.56 266.958 321.485 267.183C321.418 267.405 321.28 267.567 321.071 267.672ZM322.179 268.511L325.607 275.375L324.467 275.944L321.039 269.08L322.179 268.511ZM326.019 267.767L328.039 271.813C328.206 272.147 328.395 272.35 328.608 272.421C328.817 272.483 329.097 272.427 329.447 272.252L330.287 271.833L330.768 272.797L329.741 273.31C329.106 273.627 328.558 273.719 328.094 273.585C327.631 273.451 327.233 273.05 326.899 272.382L324.879 268.337L323.989 268.781L323.52 267.841L324.41 267.397L323.547 265.669L324.686 265.1L325.549 266.828L327.341 265.934L327.81 266.873L326.019 267.767ZM336.604 265.267C336.713 265.484 336.815 265.72 336.911 265.974L331.425 268.714C331.804 269.369 332.298 269.785 332.908 269.961C333.521 270.124 334.129 270.055 334.73 269.755C335.222 269.509 335.575 269.192 335.788 268.804C336.006 268.403 336.085 267.977 336.027 267.527L337.254 266.914C337.4 267.665 337.302 268.387 336.959 269.08C336.612 269.764 336.03 270.311 335.211 270.719C334.56 271.045 333.903 271.19 333.239 271.157C332.584 271.119 331.977 270.906 331.417 270.517C330.854 270.12 330.395 269.567 330.041 268.857C329.686 268.147 329.518 267.454 329.535 266.778C329.552 266.102 329.744 265.495 330.112 264.957C330.483 264.406 331.003 263.964 331.671 263.63C332.323 263.305 332.97 263.159 333.612 263.193C334.255 263.227 334.835 263.427 335.353 263.795C335.874 264.15 336.291 264.64 336.604 265.267ZM335.308 265.617C335.091 265.182 334.81 264.859 334.463 264.646C334.113 264.424 333.731 264.318 333.318 264.326C332.909 264.322 332.504 264.419 332.103 264.62C331.527 264.907 331.126 265.337 330.9 265.909C330.683 266.476 330.707 267.1 330.974 267.781L335.308 265.617ZM341.718 260.35C341.748 259.824 341.923 259.319 342.245 258.835C342.567 258.351 343.016 257.965 343.592 257.677C344.21 257.369 344.838 257.238 345.476 257.284C346.115 257.33 346.71 257.55 347.26 257.942C347.807 258.326 348.255 258.869 348.606 259.571C348.952 260.264 349.118 260.953 349.106 261.637C349.093 262.322 348.911 262.939 348.56 263.49C348.217 264.037 347.741 264.462 347.132 264.767C346.539 265.063 345.952 265.194 345.372 265.16C344.8 265.122 344.302 264.959 343.876 264.671L344.508 265.936L343.368 266.505L338.74 257.237L339.879 256.667L341.718 260.35ZM347.441 260.152C347.182 259.635 346.853 259.236 346.452 258.956C346.052 258.676 345.622 258.526 345.163 258.505C344.712 258.479 344.274 258.573 343.848 258.786C343.43 258.994 343.094 259.292 342.839 259.681C342.589 260.056 342.453 260.494 342.432 260.995C342.415 261.483 342.533 261.982 342.788 262.492C343.046 263.009 343.378 263.412 343.783 263.701C344.192 263.976 344.624 264.131 345.079 264.165C345.538 264.186 345.976 264.092 346.393 263.883C346.819 263.671 347.158 263.377 347.408 263.001C347.663 262.613 347.799 262.175 347.816 261.687C347.829 261.19 347.704 260.678 347.441 260.152ZM354.53 252.356L357.957 259.22L356.817 259.789L356.311 258.775C356.269 259.234 356.102 259.661 355.809 260.058C355.521 260.442 355.143 260.75 354.675 260.984C354.141 261.251 353.607 261.382 353.072 261.377C352.534 261.365 352.029 261.2 351.558 260.882C351.094 260.56 350.704 260.082 350.387 259.448L348.38 255.427L349.507 254.864L351.44 258.735C351.777 259.411 352.209 259.847 352.735 260.044C353.257 260.232 353.814 260.178 354.407 259.882C355.016 259.577 355.403 259.15 355.566 258.599C355.729 258.048 355.631 257.413 355.272 256.695L353.39 252.925L354.53 252.356ZM356.524 249.968C356.306 250.076 356.085 250.093 355.86 250.017C355.635 249.942 355.468 249.796 355.359 249.579C355.251 249.362 355.234 249.141 355.309 248.915C355.385 248.69 355.531 248.523 355.748 248.414C355.957 248.31 356.17 248.298 356.387 248.377C356.612 248.452 356.779 248.599 356.887 248.816C356.996 249.033 357.012 249.254 356.937 249.479C356.87 249.701 356.732 249.863 356.524 249.968ZM357.631 250.807L361.059 257.671L359.919 258.24L356.492 251.376L357.631 250.807ZM359.55 246.844L364.179 256.113L363.039 256.682L358.411 247.413L359.55 246.844ZM364.007 251.88C363.657 251.178 363.492 250.494 363.513 249.826C363.53 249.15 363.712 248.543 364.059 248.004C364.414 247.462 364.9 247.036 365.518 246.728C366.053 246.461 366.612 246.338 367.196 246.359C367.777 246.372 368.288 246.518 368.73 246.798L366.916 243.166L368.069 242.591L372.697 251.859L371.545 252.435L370.901 251.144C370.879 251.666 370.714 252.171 370.405 252.659C370.092 253.139 369.639 253.527 369.046 253.823C368.436 254.128 367.806 254.255 367.155 254.204C366.512 254.15 365.913 253.922 365.358 253.521C364.803 253.12 364.353 252.573 364.007 251.88ZM369.825 248.99C369.566 248.472 369.237 248.074 368.836 247.794C368.436 247.514 368.006 247.363 367.547 247.342C367.092 247.309 366.651 247.398 366.225 247.611C365.8 247.824 365.461 248.118 365.211 248.493C364.96 248.869 364.826 249.301 364.809 249.789C364.792 250.277 364.913 250.78 365.172 251.298C365.434 251.824 365.768 252.231 366.173 252.519C366.573 252.799 367.001 252.956 367.456 252.99C367.907 253.015 368.345 252.921 368.771 252.709C369.197 252.496 369.535 252.202 369.786 251.826C370.041 251.438 370.176 251 370.193 250.512C370.206 250.015 370.083 249.508 369.825 248.99ZM379.078 244.056C379.187 244.273 379.289 244.509 379.385 244.764L373.899 247.503C374.278 248.159 374.773 248.574 375.382 248.75C375.995 248.913 376.603 248.845 377.204 248.544C377.697 248.298 378.049 247.981 378.263 247.593C378.48 247.193 378.559 246.767 378.501 246.316L379.729 245.703C379.874 246.455 379.776 247.177 379.433 247.869C379.086 248.554 378.504 249.1 377.686 249.509C377.034 249.834 376.377 249.98 375.713 249.946C375.058 249.908 374.451 249.695 373.892 249.307C373.328 248.91 372.869 248.356 372.515 247.647C372.16 246.937 371.992 246.244 372.009 245.568C372.026 244.892 372.218 244.284 372.586 243.746C372.958 243.195 373.477 242.753 374.145 242.42C374.797 242.094 375.444 241.949 376.087 241.982C376.729 242.016 377.309 242.217 377.827 242.584C378.348 242.939 378.766 243.43 379.078 244.056ZM377.782 244.406C377.565 243.972 377.284 243.648 376.937 243.435C376.587 243.214 376.205 243.107 375.792 243.115C375.383 243.111 374.978 243.209 374.577 243.409C374.001 243.697 373.6 244.126 373.374 244.698C373.157 245.266 373.182 245.89 373.448 246.57L377.782 244.406ZM380.734 240.663C380.739 240.17 380.87 239.724 381.129 239.323C381.397 238.918 381.798 238.583 382.332 238.316L382.92 239.493L382.619 239.643C381.342 240.281 381.049 241.293 381.741 242.679L383.605 246.412L382.465 246.981L379.038 240.117L380.178 239.548L380.734 240.663Z" fill="#666666"/>
<path d="M352.393 341.267L349.968 344.764L351.304 346.645L350.538 347.75L344.577 339.321L345.414 338.113L355.389 340.755L354.623 341.86L352.393 341.267ZM351.335 340.976L346.28 339.617L349.324 343.875L351.335 340.976ZM348.997 332.849L357.016 338.41L356.289 339.457L348.271 333.896L348.997 332.849ZM361.024 325.385C361.223 325.523 361.426 325.681 361.633 325.858L358.138 330.897C358.786 331.289 359.419 331.416 360.038 331.277C360.654 331.126 361.154 330.774 361.537 330.221C361.851 329.769 362.008 329.321 362.008 328.879C362.006 328.423 361.871 328.011 361.604 327.644L362.386 326.517C362.874 327.105 363.135 327.786 363.167 328.558C363.192 329.325 362.944 330.084 362.423 330.836C362.008 331.434 361.501 331.878 360.903 332.167C360.31 332.449 359.675 332.553 358.998 332.481C358.313 332.404 357.645 332.139 356.993 331.687C356.341 331.235 355.86 330.708 355.55 330.107C355.24 329.506 355.117 328.881 355.181 328.232C355.242 327.571 355.486 326.933 355.911 326.32C356.326 325.721 356.824 325.283 357.404 325.003C357.984 324.724 358.589 324.621 359.219 324.695C359.847 324.756 360.449 324.986 361.024 325.385ZM360.055 326.314C359.656 326.038 359.254 325.889 358.848 325.869C358.434 325.843 358.048 325.933 357.69 326.139C357.329 326.332 357.021 326.612 356.765 326.98C356.398 327.509 356.253 328.079 356.33 328.689C356.412 329.291 356.734 329.826 357.295 330.295L360.055 326.314ZM364.239 314.289C364.579 313.798 364.986 313.433 365.459 313.193C365.924 312.948 366.437 312.855 366.998 312.914C367.559 312.974 368.131 313.206 368.714 313.61L372.429 316.187L371.711 317.223L368.145 314.749C367.516 314.313 366.928 314.138 366.38 314.223C365.83 314.296 365.371 314.597 365.004 315.126C364.626 315.671 364.502 316.226 364.632 316.793C364.753 317.355 365.144 317.864 365.803 318.322L369.278 320.731L368.559 321.767L364.993 319.293C364.364 318.857 363.776 318.682 363.228 318.767C362.678 318.84 362.219 319.141 361.852 319.67C361.475 320.215 361.351 320.77 361.48 321.337C361.602 321.899 361.992 322.408 362.652 322.866L366.126 325.275L365.4 326.322L359.096 321.95L359.822 320.903L360.731 321.533C360.544 321.097 360.483 320.646 360.546 320.178C360.614 319.703 360.795 319.255 361.087 318.833C361.454 318.304 361.898 317.918 362.417 317.677C362.937 317.435 363.496 317.374 364.094 317.494C363.772 317.009 363.629 316.478 363.665 315.902C363.702 315.325 363.893 314.787 364.239 314.289ZM370.198 312.625C369.554 312.178 369.08 311.656 368.778 311.06C368.468 310.459 368.336 309.839 368.381 309.201C368.432 308.554 368.652 307.951 369.04 307.391C369.423 306.839 369.874 306.442 370.394 306.201C370.913 305.959 371.423 305.864 371.921 305.914L370.771 305.117L371.505 304.058L377.809 308.431L377.075 309.489L375.902 308.675C376.126 309.137 376.218 309.661 376.176 310.245C376.132 310.817 375.921 311.375 375.543 311.919C375.155 312.479 374.666 312.889 374.076 313.15C373.486 313.411 372.851 313.499 372.172 313.414C371.492 313.329 370.834 313.066 370.198 312.625ZM373.912 307.295C373.436 306.965 372.955 306.774 372.47 306.721C371.984 306.668 371.535 306.742 371.122 306.944C370.707 307.133 370.364 307.424 370.092 307.815C369.821 308.206 369.666 308.626 369.626 309.076C369.587 309.526 369.677 309.969 369.897 310.405C370.117 310.842 370.464 311.225 370.94 311.555C371.423 311.89 371.911 312.086 372.405 312.145C372.891 312.198 373.341 312.13 373.756 311.941C374.164 311.746 374.503 311.453 374.774 311.062C375.046 310.671 375.201 310.251 375.24 309.801C375.277 309.338 375.186 308.888 374.966 308.452C374.739 308.01 374.387 307.625 373.912 307.295ZM372.107 301.004C371.969 301.203 371.783 301.324 371.549 301.366C371.315 301.409 371.099 301.361 370.899 301.222C370.7 301.084 370.579 300.898 370.537 300.664C370.494 300.43 370.542 300.214 370.681 300.014C370.814 299.823 370.994 299.709 371.223 299.675C371.457 299.633 371.673 299.681 371.873 299.819C372.072 299.957 372.193 300.143 372.235 300.377C372.283 300.603 372.24 300.812 372.107 301.004ZM373.482 301.208L379.786 305.58L379.06 306.627L372.756 302.255L373.482 301.208ZM373.261 296.81L381.774 302.715L381.048 303.761L372.535 297.857L373.261 296.81ZM380.782 293.189C380.555 292.714 380.466 292.187 380.516 291.607C380.565 291.028 380.773 290.474 381.14 289.945C381.534 289.378 382.022 288.961 382.604 288.694C383.187 288.428 383.813 288.335 384.485 288.414C385.149 288.489 385.803 288.749 386.447 289.196C387.084 289.638 387.561 290.162 387.879 290.768C388.196 291.375 388.334 292.004 388.291 292.655C388.253 293.299 388.04 293.901 387.652 294.461C387.274 295.006 386.823 295.403 386.298 295.652C385.778 295.893 385.262 295.99 384.75 295.942L385.912 296.748L385.186 297.795L376.673 291.89L377.4 290.843L380.782 293.189ZM385.705 290.266C385.23 289.936 384.749 289.745 384.264 289.692C383.778 289.639 383.329 289.714 382.916 289.916C382.508 290.11 382.169 290.403 381.898 290.794C381.632 291.178 381.48 291.601 381.443 292.063C381.404 292.513 381.495 292.963 381.717 293.412C381.937 293.849 382.281 294.229 382.749 294.553C383.224 294.883 383.709 295.077 384.202 295.136C384.693 295.181 385.146 295.109 385.562 294.92C385.974 294.718 386.314 294.425 386.58 294.041C386.851 293.65 387.006 293.23 387.046 292.78C387.083 292.317 386.991 291.868 386.771 291.431C386.544 290.99 386.189 290.601 385.705 290.266ZM388.176 280.023L394.48 284.395L393.754 285.442L392.822 284.796C393.006 285.219 393.065 285.674 392.999 286.162C392.931 286.637 392.747 287.09 392.45 287.519C392.109 288.01 391.704 288.382 391.233 288.634C390.755 288.882 390.232 288.98 389.666 288.928C389.106 288.868 388.534 288.637 387.951 288.232L384.258 285.671L384.976 284.636L388.531 287.101C389.152 287.532 389.741 287.707 390.296 287.627C390.844 287.541 391.307 287.226 391.684 286.682C392.073 286.122 392.206 285.561 392.084 285C391.963 284.438 391.572 283.929 390.912 283.471L387.45 281.07L388.176 280.023ZM388.777 276.97C388.639 277.169 388.453 277.29 388.219 277.332C387.985 277.375 387.768 277.327 387.569 277.188C387.37 277.05 387.249 276.864 387.206 276.63C387.164 276.396 387.212 276.18 387.35 275.98C387.483 275.789 387.664 275.676 387.893 275.641C388.126 275.599 388.343 275.647 388.542 275.785C388.742 275.923 388.863 276.109 388.905 276.343C388.953 276.569 388.91 276.778 388.777 276.97ZM390.152 277.174L396.456 281.546L395.73 282.593L389.426 278.221L390.152 277.174ZM389.931 272.776L398.443 278.681L397.717 279.728L389.205 273.823L389.931 272.776ZM396.258 275.051C395.614 274.604 395.141 274.083 394.839 273.487C394.529 272.886 394.396 272.266 394.442 271.627C394.493 270.981 394.715 270.374 395.108 269.806C395.449 269.316 395.88 268.939 396.403 268.677C396.918 268.409 397.437 268.292 397.959 268.325L394.623 266.011L395.357 264.953L403.87 270.857L403.136 271.915L401.951 271.094C402.183 271.561 402.281 272.083 402.244 272.66C402.2 273.232 401.989 273.789 401.612 274.334C401.223 274.894 400.732 275.308 400.136 275.577C399.546 275.838 398.912 275.926 398.232 275.841C397.553 275.756 396.895 275.492 396.258 275.051ZM399.972 269.721C399.497 269.391 399.016 269.2 398.53 269.147C398.045 269.094 397.595 269.169 397.182 269.371C396.767 269.56 396.424 269.85 396.153 270.241C395.882 270.632 395.726 271.053 395.687 271.503C395.648 271.952 395.738 272.395 395.958 272.832C396.177 273.268 396.525 273.651 397.001 273.981C397.484 274.316 397.972 274.513 398.465 274.571C398.951 274.624 399.402 274.556 399.817 274.367C400.224 274.173 400.564 273.88 400.835 273.489C401.106 273.097 401.262 272.677 401.301 272.227C401.338 271.765 401.246 271.315 401.027 270.879C400.799 270.437 400.448 270.051 399.972 269.721ZM405.717 260.948C405.916 261.086 406.119 261.244 406.325 261.421L402.831 266.46C403.478 266.852 404.112 266.979 404.73 266.84C405.347 266.689 405.847 266.337 406.229 265.785C406.543 265.332 406.7 264.884 406.701 264.442C406.699 263.986 406.564 263.574 406.296 263.207L407.078 262.08C407.567 262.669 407.828 263.349 407.86 264.121C407.885 264.888 407.637 265.647 407.115 266.399C406.7 266.997 406.194 267.441 405.596 267.73C405.003 268.012 404.368 268.117 403.691 268.045C403.006 267.967 402.338 267.703 401.686 267.25C401.034 266.798 400.553 266.272 400.243 265.67C399.933 265.069 399.81 264.444 399.874 263.796C399.935 263.134 400.179 262.496 400.604 261.883C401.019 261.285 401.516 260.846 402.096 260.567C402.676 260.287 403.281 260.185 403.912 260.258C404.54 260.319 405.141 260.549 405.717 260.948ZM404.748 261.878C404.349 261.601 403.947 261.452 403.541 261.432C403.127 261.406 402.741 261.496 402.382 261.702C402.021 261.895 401.713 262.175 401.458 262.543C401.091 263.072 400.946 263.642 401.023 264.252C401.105 264.854 401.426 265.389 401.987 265.858L404.748 261.878ZM405.538 257.176C405.306 256.742 405.207 256.287 405.241 255.811C405.281 255.328 405.471 254.841 405.812 254.35L406.893 255.1L406.702 255.376C405.888 256.55 406.117 257.578 407.39 258.461L410.819 260.838L410.093 261.885L403.788 257.513L404.515 256.466L405.538 257.176Z" fill="#666666"/>
<defs>
<filter id="filter0_bd_6882_5316" x="257.646" y="-28.9585" width="150.921" height="150.921" filterUnits="userSpaceOnUse" color-interpolation-filters="sRGB">
<feFlood flood-opacity="0" result="BackgroundImageFix"/>
<feGaussianBlur in="BackgroundImageFix" stdDeviation="20.8154"/>
<feComposite in2="SourceAlpha" operator="in" result="effect1_backgroundBlur_6882_5316"/>
<feColorMatrix in="SourceAlpha" type="matrix" values="0 0 0 0 0 0 0 0 0 0 0 0 0 0 0 0 0 0 127 0" result="hardAlpha"/>
<feOffset dy="6.32368"/>
<feGaussianBlur stdDeviation="5.00624"/>
<feComposite in2="hardAlpha" operator="out"/>
<feColorMatrix type="matrix" values="0 0 0 0 0.0867708 0 0 0 0 0.115317 0 0 0 0 0.141667 0 0 0 0.08 0"/>
<feBlend mode="normal" in2="effect1_backgroundBlur_6882_5316" result="effect2_dropShadow_6882_5316"/>
<feBlend mode="normal" in="SourceGraphic" in2="effect2_dropShadow_6882_5316" result="shape"/>
</filter>
<filter id="filter1_bd_6882_5316" x="164.751" y="27.3413" width="150.921" height="150.921" filterUnits="userSpaceOnUse" color-interpolation-filters="sRGB">
<feFlood flood-opacity="0" result="BackgroundImageFix"/>
<feGaussianBlur in="BackgroundImageFix" stdDeviation="20.8154"/>
<feComposite in2="SourceAlpha" operator="in" result="effect1_backgroundBlur_6882_5316"/>
<feColorMatrix in="SourceAlpha" type="matrix" values="0 0 0 0 0 0 0 0 0 0 0 0 0 0 0 0 0 0 127 0" result="hardAlpha"/>
<feOffset dy="6.32368"/>
<feGaussianBlur stdDeviation="5.00624"/>
<feComposite in2="hardAlpha" operator="out"/>
<feColorMatrix type="matrix" values="0 0 0 0 0.0867708 0 0 0 0 0.115317 0 0 0 0 0.141667 0 0 0 0.08 0"/>
<feBlend mode="normal" in2="effect1_backgroundBlur_6882_5316" result="effect2_dropShadow_6882_5316"/>
<feBlend mode="normal" in="SourceGraphic" in2="effect2_dropShadow_6882_5316" result="shape"/>
</filter>
<filter id="filter2_bd_6882_5316" x="113.144" y="146.508" width="150.921" height="150.921" filterUnits="userSpaceOnUse" color-interpolation-filters="sRGB">
<feFlood flood-opacity="0" result="BackgroundImageFix"/>
<feGaussianBlur in="BackgroundImageFix" stdDeviation="20.8154"/>
<feComposite in2="SourceAlpha" operator="in" result="effect1_backgroundBlur_6882_5316"/>
<feColorMatrix in="SourceAlpha" type="matrix" values="0 0 0 0 0 0 0 0 0 0 0 0 0 0 0 0 0 0 127 0" result="hardAlpha"/>
<feOffset dy="6.32368"/>
<feGaussianBlur stdDeviation="5.00624"/>
<feComposite in2="hardAlpha" operator="out"/>
<feColorMatrix type="matrix" values="0 0 0 0 0.0867708 0 0 0 0 0.115317 0 0 0 0 0.141667 0 0 0 0.08 0"/>
<feBlend mode="normal" in2="effect1_backgroundBlur_6882_5316" result="effect2_dropShadow_6882_5316"/>
<feBlend mode="normal" in="SourceGraphic" in2="effect2_dropShadow_6882_5316" result="shape"/>
</filter>
<filter id="filter3_bd_6882_5316" x="164.751" y="266.614" width="150.921" height="150.921" filterUnits="userSpaceOnUse" color-interpolation-filters="sRGB">
<feFlood flood-opacity="0" result="BackgroundImageFix"/>
<feGaussianBlur in="BackgroundImageFix" stdDeviation="20.8154"/>
<feComposite in2="SourceAlpha" operator="in" result="effect1_backgroundBlur_6882_5316"/>
<feColorMatrix in="SourceAlpha" type="matrix" values="0 0 0 0 0 0 0 0 0 0 0 0 0 0 0 0 0 0 127 0" result="hardAlpha"/>
<feOffset dy="6.32368"/>
<feGaussianBlur stdDeviation="5.00624"/>
<feComposite in2="hardAlpha" operator="out"/>
<feColorMatrix type="matrix" values="0 0 0 0 0.0867708 0 0 0 0 0.115317 0 0 0 0 0.141667 0 0 0 0.08 0"/>
<feBlend mode="normal" in2="effect1_backgroundBlur_6882_5316" result="effect2_dropShadow_6882_5316"/>
<feBlend mode="normal" in="SourceGraphic" in2="effect2_dropShadow_6882_5316" result="shape"/>
</filter>
<filter id="filter4_bd_6882_5316" x="257.645" y="321.038" width="150.921" height="150.921" filterUnits="userSpaceOnUse" color-interpolation-filters="sRGB">
<feFlood flood-opacity="0" result="BackgroundImageFix"/>
<feGaussianBlur in="BackgroundImageFix" stdDeviation="20.8154"/>
<feComposite in2="SourceAlpha" operator="in" result="effect1_backgroundBlur_6882_5316"/>
<feColorMatrix in="SourceAlpha" type="matrix" values="0 0 0 0 0 0 0 0 0 0 0 0 0 0 0 0 0 0 127 0" result="hardAlpha"/>
<feOffset dy="6.32368"/>
<feGaussianBlur stdDeviation="5.00624"/>
<feComposite in2="hardAlpha" operator="out"/>
<feColorMatrix type="matrix" values="0 0 0 0 0.0867708 0 0 0 0 0.115317 0 0 0 0 0.141667 0 0 0 0.08 0"/>
<feBlend mode="normal" in2="effect1_backgroundBlur_6882_5316" result="effect2_dropShadow_6882_5316"/>
<feBlend mode="normal" in="SourceGraphic" in2="effect2_dropShadow_6882_5316" result="shape"/>
</filter>
</defs>
</svg>
