<svg width="47" height="47" viewBox="0 0 47 47" fill="none" xmlns="http://www.w3.org/2000/svg">
<rect width="46.5655" height="46.5655" rx="15" fill="#FAE8F1"/>
<path fill-rule="evenodd" clip-rule="evenodd" d="M23.4072 11.4776H11.9366C11.4689 11.4776 11.0189 11.6635 10.6895 11.9944C10.3572 12.3255 10.1719 12.7744 10.1719 13.2423C10.1719 17.4811 10.1719 31.9447 10.1719 36.1835C10.1719 37.1582 10.9631 37.9482 11.9366 37.9482H29.5836C30.5572 37.9482 31.3483 37.1582 31.3483 36.1835C31.3483 33.2038 31.3483 25.5952 31.3483 25.5952C31.3483 25.2705 31.0836 25.007 30.7601 25.007C30.4366 25.007 30.1719 25.2705 30.1719 25.5952C30.1719 25.5952 30.1719 33.2038 30.1719 36.1835C30.1719 36.5085 29.9101 36.7717 29.5836 36.7717H11.9366C11.6101 36.7717 11.3483 36.5085 11.3483 36.1835C11.3483 31.9447 11.3483 17.4811 11.3483 13.2423C11.3483 13.0864 11.4101 12.9367 11.5219 12.8264C11.6307 12.7161 11.7807 12.6541 11.9366 12.6541H23.4072C23.7307 12.6541 23.9954 12.3905 23.9954 12.0658C23.9954 11.7411 23.7307 11.4776 23.4072 11.4776ZM14.7307 31.4776H26.7895C27.1131 31.4776 27.3778 31.2141 27.3778 30.8894C27.3778 30.5647 27.1131 30.3011 26.7895 30.3011H14.7307C14.4072 30.3011 14.1425 30.5647 14.1425 30.8894C14.1425 31.2141 14.4072 31.4776 14.7307 31.4776ZM14.7307 28.2423H26.7895C27.1131 28.2423 27.3778 27.9788 27.3778 27.6541C27.3778 27.3294 27.1131 27.0658 26.7895 27.0658H14.7307C14.4072 27.0658 14.1425 27.3294 14.1425 27.6541C14.1425 27.9788 14.4072 28.2423 14.7307 28.2423ZM20.1719 18.2423H14.8778C14.5542 18.2423 14.2895 18.5058 14.2895 18.8305C14.2895 19.1552 14.5542 19.4188 14.8778 19.4188H16.9366V25.3011C16.9366 25.6258 17.2013 25.8894 17.5248 25.8894C17.8483 25.8894 18.1131 25.6258 18.1131 25.3011V19.4188H20.1719C20.4954 19.4188 20.7601 19.1552 20.7601 18.8305C20.7601 18.5058 20.4954 18.2423 20.1719 18.2423ZM20.9072 25.3011H26.7895C27.1131 25.3011 27.3778 25.0376 27.3778 24.7129C27.3778 24.3882 27.1131 24.1247 26.7895 24.1247H20.9072C20.5836 24.1247 20.3189 24.3882 20.3189 24.7129C20.3189 25.0376 20.5836 25.3011 20.9072 25.3011ZM33.066 17.7441C32.9807 17.5132 32.7601 17.3599 32.516 17.3599C32.2689 17.3599 32.0484 17.5132 31.9631 17.7441L31.263 19.6373L29.3689 20.3376C29.1395 20.4232 28.9866 20.6432 28.9866 20.8894C28.9866 21.1355 29.1395 21.3555 29.3689 21.4411L31.263 22.1414L31.9631 24.0347C32.0484 24.2655 32.2689 24.4188 32.516 24.4188C32.7601 24.4188 32.9807 24.2655 33.066 24.0347L33.766 22.1414L35.6601 21.4411C35.8924 21.3555 36.0454 21.1355 36.0454 20.8894C36.0454 20.6432 35.8924 20.4232 35.6601 20.3376L33.766 19.6373L33.066 17.7441ZM22.5248 22.36H24.8778C25.2013 22.36 25.466 22.0964 25.466 21.7717C25.466 21.447 25.2013 21.1835 24.8778 21.1835H22.5248C22.2013 21.1835 21.9366 21.447 21.9366 21.7717C21.9366 22.0964 22.2013 22.36 22.5248 22.36ZM32.516 19.6432L32.7572 20.2991C32.816 20.4602 32.9454 20.587 33.1042 20.6467L33.7601 20.8894L33.1042 21.132C32.9454 21.1917 32.816 21.3185 32.7572 21.4797L32.516 22.1355L32.2718 21.4797C32.213 21.3185 32.0866 21.1917 31.9248 21.132L31.2689 20.8894L31.9248 20.6467C32.0866 20.587 32.213 20.4602 32.2718 20.2991L32.516 19.6432ZM27.7836 10.097C27.6983 9.86613 27.4778 9.71289 27.2307 9.71289C26.9836 9.71289 26.7631 9.86613 26.6778 10.097L25.2631 13.9223L21.4395 15.3376C21.2072 15.4232 21.0542 15.6432 21.0542 15.8894C21.0542 16.1355 21.2072 16.3555 21.4395 16.4411L25.2631 17.8564L26.6778 21.6817C26.7631 21.9126 26.9836 22.0658 27.2307 22.0658C27.4778 22.0658 27.6983 21.9126 27.7836 21.6817L29.1983 17.8564L33.0219 16.4411C33.2542 16.3555 33.4072 16.1355 33.4072 15.8894C33.4072 15.6432 33.2542 15.4232 33.0219 15.3376L29.1983 13.9223L27.7836 10.097ZM27.2307 11.9961L28.1895 14.5841C28.2484 14.7452 28.3748 14.872 28.5366 14.9317L31.1248 15.8894L28.5366 16.847C28.3748 16.9067 28.2484 17.0335 28.1895 17.1947L27.2307 19.7826L26.2719 17.1947C26.213 17.0335 26.0866 16.9067 25.9248 16.847L23.3366 15.8894L25.9248 14.9317C26.0866 14.872 26.213 14.7452 26.2719 14.5841L27.2307 11.9961ZM22.5248 19.4188H23.7013C24.0248 19.4188 24.2895 19.1552 24.2895 18.8305C24.2895 18.5058 24.0248 18.2423 23.7013 18.2423H22.5248C22.2013 18.2423 21.9366 18.5058 21.9366 18.8305C21.9366 19.1552 22.2013 19.4188 22.5248 19.4188ZM31.9366 11.7717H31.3483C31.0248 11.7717 30.7601 12.0352 30.7601 12.3599C30.7601 12.6847 31.0248 12.9482 31.3483 12.9482H31.9366V13.5364C31.9366 13.8611 32.2013 14.1247 32.5248 14.1247C32.8483 14.1247 33.1131 13.8611 33.1131 13.5364V12.9482H33.7013C34.0248 12.9482 34.2895 12.6847 34.2895 12.3599C34.2895 12.0352 34.0248 11.7717 33.7013 11.7717H33.1131V11.1835C33.1131 10.8588 32.8483 10.5952 32.5248 10.5952C32.2013 10.5952 31.9366 10.8588 31.9366 11.1835V11.7717Z" fill="#FF76BB"/>
</svg>
