<svg width="47" height="47" viewBox="0 0 47 47" fill="none" xmlns="http://www.w3.org/2000/svg">
<rect x="0.195312" width="46.5655" height="46.5655" rx="15" fill="#FEF6D4"/>
<path d="M24.2221 8.5904L24.2369 8.24073C30.2141 8.95213 35.0722 13.3361 36.4866 19.0699L36.4867 19.07L36.5501 19.3263L36.5861 19.4718L36.7316 19.4359L37.2445 19.3093L37.39 19.2734L37.3542 19.1278L37.291 18.8713L37.291 18.8712C35.7897 12.7871 30.6233 8.13981 24.2719 7.41056L24.289 7.00633L24.2992 6.76384L24.0777 6.86312L22.4604 7.58816L22.1867 7.71087L22.4491 7.85625L23.9995 8.71525L24.2118 8.83285L24.2221 8.5904ZM36.4531 24.2221L36.8028 24.2369C36.1155 30.0125 31.9988 34.7431 26.5489 36.3318L26.5488 36.3318L26.2952 36.4058L26.1512 36.4478L26.1932 36.5918L26.3412 37.0991L26.3832 37.2431L26.5272 37.2011L26.7808 37.1272C32.5645 35.4412 36.9283 30.4099 37.6329 24.2719L38.0372 24.289L38.2797 24.2992L38.1804 24.0777L37.4553 22.4604L37.3326 22.1867L37.1873 22.4491L36.3283 23.9995L36.2107 24.2118L36.4531 24.2221ZM20.8214 36.4531L20.8066 36.8028C14.8294 36.0914 9.97133 31.7074 8.55687 25.9736L8.55685 25.9735L8.49343 25.7172L8.45743 25.5717L8.31188 25.6076L7.79902 25.7342L7.65348 25.7701L7.6893 25.9157L7.75245 26.1722L7.75248 26.1723C9.25376 32.2564 14.4202 36.9037 20.7716 37.6329L20.7546 38.0372L20.7443 38.2797L20.9658 38.1804L22.5831 37.4553L22.8568 37.3326L22.5944 37.1873L21.044 36.3283L20.8317 36.2107L20.8214 36.4531ZM8.5904 20.8214L8.24073 20.8066C8.97574 14.6308 13.6311 9.65018 19.6448 8.42744C19.6449 8.42744 19.6449 8.42744 19.6449 8.42744L19.9038 8.37486L20.0508 8.34501L20.0209 8.19801L19.9158 7.68013L19.8859 7.53313L19.7389 7.56298L19.48 7.61556L19.4799 7.61557C13.0989 8.91318 8.16387 14.21 7.41056 20.7716L7.00633 20.7546L6.76384 20.7443L6.86312 20.9658L7.58816 22.5831L7.71087 22.8568L7.85625 22.5944L8.71525 21.044L8.83285 20.8317L8.5904 20.8214Z" fill="#FFD72B" stroke="#FFD72B" stroke-width="0.3"/>
<path d="M15.9464 15.2647L15.6929 15.0418C18.671 12.3164 23.001 11.6405 26.6486 13.2678L26.8898 13.3756L27.0268 13.4369L27.088 13.2998L27.3033 12.817L27.3644 12.68L27.2274 12.6189L26.9862 12.5114C23.0127 10.7386 18.2915 11.4917 15.067 14.4918L14.7555 14.218L14.5732 14.0578L14.5114 14.2925L14.0604 16.0066L13.9841 16.2967L14.262 16.1837L15.9039 15.5163L16.1287 15.4249L15.9464 15.2647ZM29.7823 15.9435L30.0052 15.69C32.6349 18.5637 33.3565 22.6958 31.9418 26.2591L31.9417 26.2593L31.8445 26.505L31.7894 26.6443L31.9286 26.6996L32.4195 26.8946L32.559 26.95L32.6143 26.8105L32.7118 26.5648C34.253 22.6822 33.4505 18.1761 30.5552 15.0641L30.8289 14.7526L30.9891 14.5703L30.7544 14.5085L29.0404 14.0575L28.7503 13.9812L28.8632 14.2591L29.5307 15.901L29.622 16.1258L29.7823 15.9435ZM29.1034 29.7794L29.357 30.0023C26.3789 32.7277 22.0489 33.4035 18.4012 31.7762L18.1601 31.6684L18.023 31.6072L17.9619 31.7443L17.7465 32.227L17.6854 32.364L17.8224 32.4251L18.0636 32.5326C22.0371 34.3054 26.7584 33.5523 29.9828 30.5523L30.2943 30.826L30.4766 30.9862L30.5384 30.7515L30.9894 29.0374L31.0658 28.7474L30.7879 28.8603L29.146 29.5278L28.9212 29.6191L29.1034 29.7794ZM15.2676 29.1005L15.0447 29.3541C12.2251 26.2729 11.5993 21.7451 13.4478 18.0227C13.4478 18.0227 13.4478 18.0226 13.4478 18.0226L13.5653 17.7862L13.6321 17.6518L13.4977 17.5851L13.0242 17.3499L12.8898 17.2831L12.8231 17.4177L12.7059 17.6543C10.6924 21.7082 11.3918 26.6448 14.4947 29.9799L14.2209 30.2914L14.0607 30.4737L14.2954 30.5355L16.0095 30.9865L16.2996 31.0629L16.1866 30.785L15.5192 29.1431L15.4278 28.9183L15.2676 29.1005Z" fill="#FFD72B" stroke="#FFD72B" stroke-width="0.3"/>
<path d="M21.8031 18.3965L21.0247 25.9975L22.5168 26.0173L22.8252 23.0073L23.4419 23.0154C23.8617 23.021 24.1955 22.9319 24.4433 22.7478C24.6909 22.5636 24.8769 22.3018 25.0008 21.9617C25.125 21.6216 25.2106 21.2213 25.2579 20.7608C25.3068 20.2828 25.2957 19.8703 25.2246 19.5234C25.1538 19.1765 25.0048 18.9078 24.7783 18.7175C24.5516 18.527 24.2285 18.429 23.8086 18.4234L21.8031 18.3965Z" fill="#FFD72B"/>
<path d="M19.6238 25.3385C19.311 25.8073 18.8697 26.0377 18.3006 26.0303C17.2164 26.0157 16.7543 25.231 16.9134 23.6763L17.2492 20.3985C17.3945 18.9791 18.0884 18.2776 19.3302 18.2942C19.8421 18.3011 20.2241 18.4092 20.4762 18.6187C20.7283 18.8282 20.8857 19.131 20.9489 19.5269C21.012 19.9227 21.0144 20.4041 20.9563 20.9714L19.4729 20.9516L19.5419 20.2778C19.5585 20.1137 19.5503 19.9758 19.5173 19.8645C19.484 19.753 19.3968 19.6962 19.256 19.6944C19.0805 19.692 18.959 19.7496 18.8908 19.8669C18.8227 19.9842 18.7812 20.1134 18.7669 20.2545L18.3896 23.9384C18.3685 24.1426 18.3782 24.3094 18.4181 24.438C18.4583 24.567 18.5561 24.6325 18.7112 24.6346C18.8723 24.6367 18.986 24.5741 19.0523 24.4465C19.1186 24.3191 19.1625 24.1503 19.1839 23.9402L19.2951 22.8564L18.8895 22.8508L19.024 21.5379L20.8786 21.5627L20.4252 25.9893L19.8169 25.9814L19.6238 25.3385Z" fill="#FFD72B"/>
<path d="M27.4497 26.0821L25.9314 26.062L26.5606 19.9208L25.6593 19.9087L25.8086 18.4491L29.1296 18.4935L28.9801 19.9531L28.0785 19.9409L27.4497 26.0821Z" fill="#FFD72B"/>
</svg>
